<svg width="20" height="18" viewBox="0 0 20 18" fill="none" xmlns="http://www.w3.org/2000/svg">
<path fill-rule="evenodd" clip-rule="evenodd" d="M11 4.02747V4.5C11 4.77615 11.2239 5 11.5 5C11.7761 5 12 4.77615 12 4.5V4.02747C12.8679 4.12341 13.6614 4.46618 14.3088 4.98403L13.9749 5.31801C13.7795 5.51327 13.7795 5.82986 13.9749 6.02512C14.1701 6.22038 14.4867 6.22038 14.6819 6.02512L15.0159 5.69112C15.5338 6.33851 15.8766 7.13206 15.9725 7.99999H15.5C15.2239 7.99999 15 8.22385 15 8.49999C15 8.77614 15.2239 8.99999 15.5 8.99999H15.9725C15.8766 9.86792 15.5339 10.6614 15.016 11.3088L14.682 10.9749C14.4868 10.7796 14.1702 10.7796 13.9749 10.9749C13.7797 11.1701 13.7797 11.4867 13.9749 11.682L14.3088 12.0159C13.6614 12.5338 12.8679 12.8766 12 12.9725V12.5C12 12.2239 11.7761 12 11.5 12C11.2239 12 11 12.2239 11 12.5V12.9725C10.1321 12.8766 9.3385 12.5338 8.6911 12.0159L9.02509 11.682C9.22034 11.4867 9.22034 11.1701 9.02509 10.9749C8.82983 10.7796 8.51324 10.7796 8.31799 10.9749L7.98401 11.3088C7.46619 10.6614 7.12341 9.8679 7.02747 8.99999H7.5C7.77612 8.99999 8 8.77614 8 8.49999C8 8.22385 7.77612 7.99999 7.5 7.99999H7.02747C7.12341 7.13206 7.46619 6.33852 7.98407 5.69113L8.31805 6.02512C8.51331 6.22038 8.8299 6.22038 9.02515 6.02512C9.2204 5.82986 9.2204 5.51328 9.02515 5.31802L8.69116 4.98403C9.33856 4.46618 10.1321 4.12341 11 4.02747ZM11.5 11C12.8807 11 14 9.88071 14 8.5C14 7.11929 12.8807 6 11.5 6C10.1193 6 9 7.11929 9 8.5C9 9.88071 10.1193 11 11.5 11Z" fill="white"/>
<path fill-rule="evenodd" clip-rule="evenodd" d="M2 0C0.895447 0 0 0.895432 0 2V15C0 16.1046 0.895447 17 2 17H3V18H6V17H14V18H17V17H18C19.1046 17 20 16.1046 20 15V2C20 0.895432 19.1046 0 18 0H2ZM17 8.5C17 11.5376 14.5375 14 11.5 14C8.46246 14 6 11.5376 6 8.5C6 5.46243 8.46246 3 11.5 3C14.5375 3 17 5.46243 17 8.5Z" fill="white"/>
</svg>
