<svg width="22" height="18" viewBox="0 0 22 18" fill="none" xmlns="http://www.w3.org/2000/svg">
<path fill-rule="evenodd" clip-rule="evenodd" d="M10.21 14.38C7.38 12.94 5.06 10.62 3.62 7.79L5.82 5.59C6.1 5.31 6.18 4.92 6.07 4.57C5.7 3.45 5.5 2.25 5.5 1C5.5 0.734784 5.39464 0.48043 5.20711 0.292893C5.01957 0.105357 4.76522 0 4.5 0H1C0.734784 0 0.48043 0.105357 0.292893 0.292893C0.105357 0.48043 0 0.734784 0 1C0 5.50868 1.79107 9.8327 4.97918 13.0208C8.1673 16.2089 12.4913 18 17 18C17.2652 18 17.5196 17.8946 17.7071 17.7071C17.8946 17.5196 18 17.2652 18 17V13.5C18 13.2348 17.8946 12.9804 17.7071 12.7929C17.5196 12.6054 17.2652 12.5 17 12.5C15.75 12.5 14.55 12.3 13.43 11.93C13.08 11.82 12.69 11.9 12.41 12.18L10.21 14.38ZM15.7071 6.29289L14.4142 5H19C19.5523 5 20 5.44772 20 6C20 6.55228 19.5523 7 19 7H18V9H19C20.6569 9 22 7.65685 22 6C22 4.34315 20.6569 3 19 3H14.4142L15.7071 1.70711L14.2929 0.292893L10.5858 4L14.2929 7.70711L15.7071 6.29289Z" fill="white"/>
</svg>
