<svg xmlns="http://www.w3.org/2000/svg" width="17" height="16" viewBox="0 0 17 16">
    <defs>
        <linearGradient id="a" x1="-532.5%" x2="656.16%" y1="50%" y2="50%">
            <stop offset="0%" stop-color="#FF884B"/>
            <stop offset="34.98%" stop-color="#FF634C"/>
            <stop offset="65.52%" stop-color="#FE4A4F"/>
            <stop offset="100%" stop-color="#FE4840"/>
        </linearGradient>
        <linearGradient id="b" x1="-353.114%" x2="469.488%" y1="50%" y2="50%">
            <stop offset="0%" stop-color="#FF884B"/>
            <stop offset="34.98%" stop-color="#FF634C"/>
            <stop offset="65.52%" stop-color="#FE4A4F"/>
            <stop offset="100%" stop-color="#FE4840"/>
        </linearGradient>
        <linearGradient id="c" x1="4.003%" x2="96.697%" y1="50%" y2="50%">
            <stop offset="0%" stop-color="#FF884B"/>
            <stop offset="34.98%" stop-color="#FF634C"/>
            <stop offset="65.52%" stop-color="#FE4A4F"/>
            <stop offset="100%" stop-color="#FE4840"/>
        </linearGradient>
    </defs>
    <g fill="none" fill-rule="evenodd" transform="translate(.286)">
        <path d="M8.255 1.55c-.093-.177-.24-.288-.401-.288H7.85c-.162 0-.309.114-.399.294L1.34 13.746a.75.75 0 0 0 .028.72c.056.092.177.25.38.25l12.513.019c.202 0 .324-.158.377-.25a.76.76 0 0 0 .015-.732L8.255 1.55zm-.971 3.373c0-.347.28-.631.623-.631.342 0 .622.284.622.631v4.418c0 .347-.28.631-.622.631a.629.629 0 0 1-.623-.63V4.922zm.623 8.183a.904.904 0 0 1-.9-.912c0-.505.402-.912.9-.912s.9.407.9.912a.904.904 0 0 1-.9.912z"/>
        <path fill="url(#a)" d="M7.907 9.972a.629.629 0 0 0 .622-.63V4.922a.629.629 0 0 0-.622-.631.629.629 0 0 0-.623.631v4.418c0 .347.28.631.623.631z"/>
        <ellipse cx="7.907" cy="12.194" fill="url(#b)" rx="1" ry="1"/>
        <path fill="url(#c)" fill-rule="nonzero" d="M15.751 13.166L9.354.963c-.311-.597-.872-.95-1.5-.95h-.016c-.632.006-1.192.369-1.497.975L.227 13.178a2.038 2.038 0 0 0 .075 1.951c.32.53.86.852 1.441.852L14.257 16h.003c.588 0 1.127-.325 1.444-.862.352-.596.37-1.353.047-1.972zm-1.114 1.322c-.053.092-.175.25-.377.25l-12.514-.02c-.202 0-.323-.154-.38-.245a.758.758 0 0 1-.027-.72L7.455 1.556c.09-.18.237-.294.399-.294h.003c.162 0 .308.108.401.288l6.394 12.21a.763.763 0 0 1-.015.728z"/>
    </g>
</svg>
