<svg xmlns="http://www.w3.org/2000/svg" xmlns:xlink="http://www.w3.org/1999/xlink" viewBox="0 0 65 65"><defs><style>.cls-1{mask:url(#mask);filter:url(#luminosity-noclip-14);}.cls-10,.cls-12,.cls-14,.cls-16,.cls-18,.cls-2,.cls-20,.cls-22,.cls-24,.cls-26,.cls-4,.cls-6,.cls-8{mix-blend-mode:multiply;}.cls-2{fill:url(#linear-gradient);}.cls-3{mask:url(#mask-2);filter:url(#luminosity-noclip-19);}.cls-4{fill:url(#linear-gradient-2);}.cls-5,.cls-7{mask:url(#mask-3);}.cls-5{filter:url(#luminosity-noclip-20);}.cls-6{fill:url(#linear-gradient-3);}.cls-7{filter:url(#luminosity-noclip-21);}.cls-8{fill:url(#linear-gradient-4);}.cls-9{mask:url(#mask-5);filter:url(#luminosity-noclip-22);}.cls-10{fill:url(#radial-gradient);}.cls-11{mask:url(#mask-6);filter:url(#luminosity-noclip-23);}.cls-12{fill:url(#linear-gradient-5);}.cls-13{mask:url(#mask-7);filter:url(#luminosity-noclip-15);}.cls-14{fill:url(#linear-gradient-6);}.cls-15{mask:url(#mask-8);filter:url(#luminosity-noclip-24);}.cls-16{fill:url(#radial-gradient-2);}.cls-17{mask:url(#mask-9);filter:url(#luminosity-noclip-25);}.cls-18{fill:url(#linear-gradient-7);}.cls-19{mask:url(#mask-10);filter:url(#luminosity-noclip-26);}.cls-20{fill:url(#linear-gradient-8);}.cls-21{mask:url(#mask-11);filter:url(#luminosity-noclip-16);}.cls-22{fill:url(#linear-gradient-9);}.cls-23,.cls-25{mask:url(#mask-12);}.cls-23{filter:url(#luminosity-noclip-17);}.cls-24{fill:url(#linear-gradient-10);}.cls-25{filter:url(#luminosity-noclip-18);}.cls-26{fill:url(#linear-gradient-11);}.cls-27{isolation:isolate;}.cls-28{fill:url(#New_Gradient_Swatch_copy_17);}.cls-29{fill:url(#New_Gradient_Swatch_copy_17-2);}.cls-30{fill:#ff6413;}.cls-31{fill:url(#linear-gradient-12);}.cls-32{mask:url(#mask-14);}.cls-33,.cls-39,.cls-46,.cls-48,.cls-50,.cls-55{mix-blend-mode:overlay;}.cls-33{fill:url(#linear-gradient-13);}.cls-34{fill:url(#linear-gradient-14);}.cls-35{mask:url(#mask-15);}.cls-36{opacity:0.6;mix-blend-mode:hard-light;fill:url(#linear-gradient-15);}.cls-37{fill:url(#linear-gradient-16);}.cls-38{mask:url(#mask-16);}.cls-39{fill:url(#linear-gradient-17);}.cls-40{mask:url(#mask-17);}.cls-41,.cls-43,.cls-59,.cls-61{mix-blend-mode:soft-light;}.cls-41{fill:url(#linear-gradient-18);}.cls-42{mask:url(#mask-18);}.cls-43{fill:url(#linear-gradient-19);}.cls-44{fill:url(#New_Gradient_Swatch_copy_17-3);}.cls-45{mask:url(#mask-19);}.cls-46{fill:url(#linear-gradient-20);}.cls-47{mask:url(#mask-20);}.cls-48{fill:url(#linear-gradient-21);}.cls-49{mask:url(#mask-21);}.cls-50{fill:url(#linear-gradient-22);}.cls-51{mask:url(#mask-22);}.cls-52{fill:url(#radial-gradient-3);}.cls-53{fill:url(#New_Gradient_Swatch_copy_17-4);}.cls-54{mask:url(#mask-23);}.cls-55{fill:url(#linear-gradient-23);}.cls-56{mask:url(#mask-24);}.cls-57{fill:url(#radial-gradient-4);}.cls-58{mask:url(#mask-25);}.cls-59{fill:url(#linear-gradient-24);}.cls-60{mask:url(#mask-26);}.cls-61{fill:url(#linear-gradient-25);}.cls-62{fill:url(#New_Gradient_Swatch_copy_17-5);}.cls-63{fill:url(#New_Gradient_Swatch_copy_17-6);}.cls-64{fill:url(#linear-gradient-26);}.cls-65{fill:url(#linear-gradient-27);}.cls-66{fill:url(#linear-gradient-28);}.cls-67{fill:url(#linear-gradient-29);}.cls-68{fill:url(#linear-gradient-30);}.cls-69{fill:url(#linear-gradient-31);}.cls-70{filter:url(#luminosity-noclip-12);}.cls-71{filter:url(#luminosity-noclip-11);}.cls-72{filter:url(#luminosity-noclip-10);}.cls-73{filter:url(#luminosity-noclip-9);}.cls-74{filter:url(#luminosity-noclip-8);}.cls-75{filter:url(#luminosity-noclip-7);}.cls-76{filter:url(#luminosity-noclip-6);}.cls-77{filter:url(#luminosity-noclip-5);}.cls-78{filter:url(#luminosity-noclip-3);}.cls-79{filter:url(#luminosity-noclip-2);}.cls-80{filter:url(#luminosity-noclip);}</style><filter id="luminosity-noclip" x="3.8" y="-8224" width="9.53" height="32766" filterUnits="userSpaceOnUse" color-interpolation-filters="sRGB"><feFlood flood-color="#fff" result="bg"/><feBlend in="SourceGraphic" in2="bg"/></filter><mask id="mask" x="3.8" y="-8224" width="9.53" height="32766" maskUnits="userSpaceOnUse"><g class="cls-80"/></mask><linearGradient id="linear-gradient" x1="138.04" y1="29.06" x2="151.42" y2="28.51" gradientTransform="matrix(-1, 0, 0, 1, 156.26, 0)" gradientUnits="userSpaceOnUse"><stop offset="0" stop-color="#fff"/><stop offset="1"/></linearGradient><filter id="luminosity-noclip-2" x="1.93" y="-8224" width="3.24" height="32766" filterUnits="userSpaceOnUse" color-interpolation-filters="sRGB"><feFlood flood-color="#fff" result="bg"/><feBlend in="SourceGraphic" in2="bg"/></filter><mask id="mask-2" x="1.93" y="-8224" width="3.24" height="32766" maskUnits="userSpaceOnUse"><g class="cls-79"/></mask><linearGradient id="linear-gradient-2" x1="153.98" y1="28.66" x2="150.72" y2="30.88" gradientTransform="matrix(-1, 0, 0, 1, 156.26, 0)" gradientUnits="userSpaceOnUse"><stop offset="0" stop-color="#fff"/><stop offset="0.08" stop-color="#f6f6f6"/><stop offset="0.23" stop-color="#ddd"/><stop offset="0.4" stop-color="#b4b4b4"/><stop offset="0.61" stop-color="#7b7b7b"/><stop offset="0.85" stop-color="#333"/><stop offset="1"/></linearGradient><filter id="luminosity-noclip-3" x="1.93" y="-8224" width="1.64" height="32766" filterUnits="userSpaceOnUse" color-interpolation-filters="sRGB"><feFlood flood-color="#fff" result="bg"/><feBlend in="SourceGraphic" in2="bg"/></filter><mask id="mask-3" x="1.93" y="-8224" width="1.64" height="32766" maskUnits="userSpaceOnUse"><g class="cls-78"/></mask><linearGradient id="linear-gradient-3" x1="149.75" y1="30.29" x2="154.73" y2="32.48" xlink:href="#linear-gradient-2"/><linearGradient id="linear-gradient-4" x1="156.8" y1="30.36" x2="152.95" y2="32.78" xlink:href="#linear-gradient-2"/><filter id="luminosity-noclip-5" x="1.82" y="-8224" width="5.23" height="32766" filterUnits="userSpaceOnUse" color-interpolation-filters="sRGB"><feFlood flood-color="#fff" result="bg"/><feBlend in="SourceGraphic" in2="bg"/></filter><mask id="mask-5" x="1.82" y="-8224" width="5.23" height="32766" maskUnits="userSpaceOnUse"><g class="cls-77"/></mask><radialGradient id="radial-gradient" cx="152.16" cy="32.55" r="15.38" gradientTransform="matrix(-1.04, 0, 0, 1, 159.65, 0)" gradientUnits="userSpaceOnUse"><stop offset="0" stop-color="#fff"/><stop offset="0.32" stop-color="#ababab"/><stop offset="1"/></radialGradient><filter id="luminosity-noclip-6" x="5.29" y="-8224" width="1.72" height="32766" filterUnits="userSpaceOnUse" color-interpolation-filters="sRGB"><feFlood flood-color="#fff" result="bg"/><feBlend in="SourceGraphic" in2="bg"/></filter><mask id="mask-6" x="5.29" y="-8224" width="1.72" height="32766" maskUnits="userSpaceOnUse"><g class="cls-76"/></mask><linearGradient id="linear-gradient-5" x1="150.35" y1="26.81" x2="148.99" y2="29.84" xlink:href="#linear-gradient-2"/><filter id="luminosity-noclip-7" x="9.06" y="-8224" width="3.35" height="32766" filterUnits="userSpaceOnUse" color-interpolation-filters="sRGB"><feFlood flood-color="#fff" result="bg"/><feBlend in="SourceGraphic" in2="bg"/></filter><mask id="mask-7" x="9.06" y="-8224" width="3.35" height="32766" maskUnits="userSpaceOnUse"><g class="cls-75"/></mask><linearGradient id="linear-gradient-6" x1="141.34" y1="41.35" x2="147.48" y2="33.29" xlink:href="#linear-gradient-2"/><filter id="luminosity-noclip-8" x="5.16" y="-8224" width="7.05" height="32766" filterUnits="userSpaceOnUse" color-interpolation-filters="sRGB"><feFlood flood-color="#fff" result="bg"/><feBlend in="SourceGraphic" in2="bg"/></filter><mask id="mask-8" x="5.16" y="-8224" width="7.05" height="32766" maskUnits="userSpaceOnUse"><g class="cls-74"/></mask><radialGradient id="radial-gradient-2" cx="143.62" cy="28.87" r="11.68" gradientTransform="matrix(-1.04, 0, 0, 1, 159.65, 0)" xlink:href="#linear-gradient"/><filter id="luminosity-noclip-9" x="9.9" y="-8224" width="1.92" height="32766" filterUnits="userSpaceOnUse" color-interpolation-filters="sRGB"><feFlood flood-color="#fff" result="bg"/><feBlend in="SourceGraphic" in2="bg"/></filter><mask id="mask-9" x="9.9" y="-8224" width="1.92" height="32766" maskUnits="userSpaceOnUse"><g class="cls-73"/></mask><linearGradient id="linear-gradient-7" x1="144.78" y1="26.79" x2="146.25" y2="29.73" xlink:href="#linear-gradient"/><filter id="luminosity-noclip-10" x="8.9" y="-8224" width="1.4" height="32766" filterUnits="userSpaceOnUse" color-interpolation-filters="sRGB"><feFlood flood-color="#fff" result="bg"/><feBlend in="SourceGraphic" in2="bg"/></filter><mask id="mask-10" x="8.9" y="-8224" width="1.4" height="32766" maskUnits="userSpaceOnUse"><g class="cls-72"/></mask><linearGradient id="linear-gradient-8" x1="146.07" y1="26.16" x2="147.55" y2="29.11" xlink:href="#linear-gradient"/><filter id="luminosity-noclip-11" x="0.39" y="-8224" width="11.82" height="32766" filterUnits="userSpaceOnUse" color-interpolation-filters="sRGB"><feFlood flood-color="#fff" result="bg"/><feBlend in="SourceGraphic" in2="bg"/></filter><mask id="mask-11" x="0.39" y="-8224" width="11.82" height="32766" maskUnits="userSpaceOnUse"><g class="cls-71"/></mask><linearGradient id="linear-gradient-9" x1="165.77" y1="23.69" x2="150.55" y2="34.69" xlink:href="#linear-gradient"/><filter id="luminosity-noclip-12" x="0" y="-8224" width="1.93" height="32766" filterUnits="userSpaceOnUse" color-interpolation-filters="sRGB"><feFlood flood-color="#fff" result="bg"/><feBlend in="SourceGraphic" in2="bg"/></filter><mask id="mask-12" x="0" y="-8224" width="1.93" height="32766" maskUnits="userSpaceOnUse"><g class="cls-70"/></mask><linearGradient id="linear-gradient-10" x1="156.87" y1="30.59" x2="153.92" y2="30.6" xlink:href="#linear-gradient"/><linearGradient id="linear-gradient-11" x1="157.22" y1="32.05" x2="154.2" y2="32.22" xlink:href="#linear-gradient"/><linearGradient id="New_Gradient_Swatch_copy_17" x1="16.15" y1="32.92" x2="22.68" y2="32.92" gradientUnits="userSpaceOnUse"><stop offset="0" stop-color="#61aaea"/><stop offset="0.4" stop-color="#3f6faf"/><stop offset="1" stop-color="#32348c"/></linearGradient><linearGradient id="New_Gradient_Swatch_copy_17-2" x1="22.85" y1="32.92" x2="29.69" y2="32.92" xlink:href="#New_Gradient_Swatch_copy_17"/><linearGradient id="linear-gradient-12" x1="139.32" y1="31.94" x2="161.24" y2="20.98" gradientTransform="matrix(-1, 0, 0, 1, 156.26, 0)" gradientUnits="userSpaceOnUse"><stop offset="0" stop-color="#75cafb"/><stop offset="1" stop-color="#2f45be"/></linearGradient><filter id="luminosity-noclip-14" x="3.8" y="25.15" width="9.53" height="7.14" filterUnits="userSpaceOnUse" color-interpolation-filters="sRGB"><feFlood flood-color="#fff" result="bg"/><feBlend in="SourceGraphic" in2="bg"/></filter><mask id="mask-14" x="3.8" y="25.15" width="9.53" height="7.14" maskUnits="userSpaceOnUse"><g class="cls-1"><polygon class="cls-2" points="13.34 28.76 6.86 25.15 3.81 26.99 13.34 32.3 13.34 28.76"/></g></mask><linearGradient id="linear-gradient-13" x1="138.04" y1="29.06" x2="151.42" y2="28.51" gradientTransform="matrix(-1, 0, 0, 1, 156.26, 0)" gradientUnits="userSpaceOnUse"><stop offset="0" stop-color="#f0f1f1"/><stop offset="1" stop-color="#f0f1f1"/></linearGradient><linearGradient id="linear-gradient-14" x1="154.59" y1="29.86" x2="143.6" y2="44.24" gradientTransform="matrix(-1, 0, 0, 1, 156.26, 0)" gradientUnits="userSpaceOnUse"><stop offset="0" stop-color="#ebb839"/><stop offset="0.59" stop-color="#d7792d"/><stop offset="0.77" stop-color="#d46a2c"/><stop offset="0.91" stop-color="#d3632c"/><stop offset="0.92" stop-color="#d3622c"/><stop offset="1" stop-color="#d15d2b"/></linearGradient><filter id="luminosity-noclip-15" x="9.06" y="34.8" width="3.35" height="2.53" filterUnits="userSpaceOnUse" color-interpolation-filters="sRGB"><feFlood flood-color="#fff" result="bg"/><feBlend in="SourceGraphic" in2="bg"/></filter><mask id="mask-15" x="9.06" y="34.8" width="3.35" height="2.53" maskUnits="userSpaceOnUse"><g class="cls-13"><polygon class="cls-14" points="12.41 36.91 11.66 37.33 11.65 37.33 9.06 34.8 12.38 36.88 12.41 36.91"/></g></mask><linearGradient id="linear-gradient-15" x1="141.34" y1="41.35" x2="147.48" y2="33.29" gradientTransform="matrix(-1, 0, 0, 1, 156.26, 0)" gradientUnits="userSpaceOnUse"><stop offset="0" stop-color="#272425"/><stop offset="1" stop-color="#272425"/></linearGradient><linearGradient id="linear-gradient-16" x1="159.42" y1="26.31" x2="146.27" y2="38.43" gradientTransform="matrix(-1, 0, 0, 1, 156.26, 0)" gradientUnits="userSpaceOnUse"><stop offset="0" stop-color="#de912f"/><stop offset="1" stop-color="#cd4238"/></linearGradient><filter id="luminosity-noclip-16" x="0.39" y="27.47" width="11.82" height="12.09" filterUnits="userSpaceOnUse" color-interpolation-filters="sRGB"><feFlood flood-color="#fff" result="bg"/><feBlend in="SourceGraphic" in2="bg"/></filter><mask id="mask-16" x="0.39" y="27.47" width="11.82" height="12.09" maskUnits="userSpaceOnUse"><g class="cls-21"><polygon class="cls-22" points="2.8 27.47 3.97 28.55 1.93 29.69 1.93 35.34 7 38.17 10.51 36.22 9.34 35.08 10.12 34.64 12.21 36.59 6.86 39.56 0.39 35.96 0.39 28.76 2.8 27.47"/></g></mask><linearGradient id="linear-gradient-17" x1="165.77" y1="23.69" x2="150.55" y2="34.69" xlink:href="#linear-gradient-13"/><filter id="luminosity-noclip-17" x="0" y="29.98" width="1.93" height="1.32" filterUnits="userSpaceOnUse" color-interpolation-filters="sRGB"><feFlood flood-color="#fff" result="bg"/><feBlend in="SourceGraphic" in2="bg"/></filter><mask id="mask-17" x="0" y="29.98" width="1.93" height="1.32" maskUnits="userSpaceOnUse"><g class="cls-23"><polygon class="cls-24" points="1.93 30.07 1.93 31.3 0 31.1 0 29.98 1.93 30.07"/></g></mask><linearGradient id="linear-gradient-18" x1="156.87" y1="30.59" x2="153.92" y2="30.6" xlink:href="#linear-gradient-13"/><filter id="luminosity-noclip-18" x="0" y="31.69" width="1.93" height="0.93" filterUnits="userSpaceOnUse" color-interpolation-filters="sRGB"><feFlood flood-color="#fff" result="bg"/><feBlend in="SourceGraphic" in2="bg"/></filter><mask id="mask-18" x="0" y="31.69" width="1.93" height="0.93" maskUnits="userSpaceOnUse"><g class="cls-25"><polygon class="cls-26" points="1.93 32.06 1.93 32.63 0 32.26 0 31.69 1.93 32.06"/></g></mask><linearGradient id="linear-gradient-19" x1="157.22" y1="32.05" x2="154.2" y2="32.22" xlink:href="#linear-gradient-13"/><linearGradient id="New_Gradient_Swatch_copy_17-3" x1="145.48" y1="33.78" x2="149.85" y2="23.29" gradientTransform="matrix(-1, 0, 0, 1, 156.26, 0)" xlink:href="#New_Gradient_Swatch_copy_17"/><filter id="luminosity-noclip-19" x="1.93" y="28.55" width="3.24" height="1.98" filterUnits="userSpaceOnUse" color-interpolation-filters="sRGB"><feFlood flood-color="#fff" result="bg"/><feBlend in="SourceGraphic" in2="bg"/></filter><mask id="mask-19" x="1.93" y="28.55" width="3.24" height="1.98" maskUnits="userSpaceOnUse"><g class="cls-3"><polygon class="cls-4" points="5.17 29.64 3.57 30.53 1.93 29.69 3.97 28.55 5.17 29.64"/></g></mask><linearGradient id="linear-gradient-20" x1="153.98" y1="28.66" x2="150.72" y2="30.88" xlink:href="#linear-gradient-15"/><filter id="luminosity-noclip-20" x="1.93" y="29.69" width="1.64" height="4.5" filterUnits="userSpaceOnUse" color-interpolation-filters="sRGB"><feFlood flood-color="#fff" result="bg"/><feBlend in="SourceGraphic" in2="bg"/></filter><mask id="mask-20" x="1.93" y="29.69" width="1.64" height="4.5" maskUnits="userSpaceOnUse"><g class="cls-5"><polygon class="cls-6" points="3.57 30.53 3.57 34.19 1.93 29.69 3.57 30.53"/></g></mask><linearGradient id="linear-gradient-21" x1="149.75" y1="30.29" x2="154.73" y2="32.48" xlink:href="#linear-gradient-15"/><filter id="luminosity-noclip-21" x="1.93" y="29.69" width="1.64" height="4.63" filterUnits="userSpaceOnUse" color-interpolation-filters="sRGB"><feFlood flood-color="#fff" result="bg"/><feBlend in="SourceGraphic" in2="bg"/></filter><mask id="mask-21" x="1.93" y="29.69" width="1.64" height="4.63" maskUnits="userSpaceOnUse"><g class="cls-7"><polygon class="cls-8" points="3.57 30.53 1.93 34.32 1.93 29.69 3.57 30.53"/></g></mask><linearGradient id="linear-gradient-22" x1="156.8" y1="30.36" x2="152.95" y2="32.78" xlink:href="#linear-gradient-15"/><filter id="luminosity-noclip-22" x="1.82" y="28.47" width="5.23" height="9.84" filterUnits="userSpaceOnUse" color-interpolation-filters="sRGB"><feFlood flood-color="#fff" result="bg"/><feBlend in="SourceGraphic" in2="bg"/></filter><mask id="mask-22" x="1.82" y="28.47" width="5.23" height="9.84" maskUnits="userSpaceOnUse"><g class="cls-9"><polygon class="cls-10" points="3.89 28.47 3.97 28.55 1.93 29.69 1.93 35.34 7 38.17 7.05 38.31 1.82 35.4 1.82 29.63 3.89 28.47"/></g></mask><radialGradient id="radial-gradient-3" cx="152.16" cy="32.55" r="15.38" gradientTransform="matrix(-1.04, 0, 0, 1, 159.65, 0)" gradientUnits="userSpaceOnUse"><stop offset="0" stop-color="#fdffd1"/><stop offset="1" stop-color="#e9b138"/></radialGradient><linearGradient id="New_Gradient_Swatch_copy_17-4" x1="145.87" y1="31.6" x2="143.59" y2="30.31" gradientTransform="matrix(-1, 0, 0, 1, 156.26, 0)" xlink:href="#New_Gradient_Swatch_copy_17"/><filter id="luminosity-noclip-23" x="5.29" y="26.86" width="1.72" height="1.91" filterUnits="userSpaceOnUse" color-interpolation-filters="sRGB"><feFlood flood-color="#fff" result="bg"/><feBlend in="SourceGraphic" in2="bg"/></filter><mask id="mask-23" x="5.29" y="26.86" width="1.72" height="1.91" maskUnits="userSpaceOnUse"><g class="cls-11"><polygon class="cls-12" points="7 26.86 7 28.77 5.29 27.82 7 26.86"/></g></mask><linearGradient id="linear-gradient-23" x1="150.35" y1="26.81" x2="148.99" y2="29.84" xlink:href="#linear-gradient-15"/><filter id="luminosity-noclip-24" x="5.16" y="26.72" width="7.05" height="4.95" filterUnits="userSpaceOnUse" color-interpolation-filters="sRGB"><feFlood flood-color="#fff" result="bg"/><feBlend in="SourceGraphic" in2="bg"/></filter><mask id="mask-24" x="5.16" y="26.72" width="7.05" height="4.95" maskUnits="userSpaceOnUse"><g class="cls-15"><polygon class="cls-16" points="5.16 27.75 7 26.72 12.14 29.58 12.21 29.62 12.21 31.67 12.08 31.6 12.08 29.69 7 26.86 5.29 27.82 5.16 27.75"/></g></mask><radialGradient id="radial-gradient-4" cx="143.62" cy="28.87" r="11.68" gradientTransform="matrix(-1.04, 0, 0, 1, 159.65, 0)" gradientUnits="userSpaceOnUse"><stop offset="0" stop-color="#cdfffa"/><stop offset="1" stop-color="#5f9fe4"/></radialGradient><filter id="luminosity-noclip-25" x="9.9" y="26.85" width="1.92" height="2.28" filterUnits="userSpaceOnUse" color-interpolation-filters="sRGB"><feFlood flood-color="#fff" result="bg"/><feBlend in="SourceGraphic" in2="bg"/></filter><mask id="mask-25" x="9.9" y="26.85" width="1.92" height="2.28" maskUnits="userSpaceOnUse"><g class="cls-17"><polygon class="cls-18" points="11.81 27.47 11.07 29.13 9.9 28.47 10.69 26.85 11.81 27.47"/></g></mask><linearGradient id="linear-gradient-24" x1="144.78" y1="26.79" x2="146.25" y2="29.73" xlink:href="#linear-gradient-13"/><filter id="luminosity-noclip-26" x="8.9" y="26.29" width="1.4" height="1.99" filterUnits="userSpaceOnUse" color-interpolation-filters="sRGB"><feFlood flood-color="#fff" result="bg"/><feBlend in="SourceGraphic" in2="bg"/></filter><mask id="mask-26" x="8.9" y="26.29" width="1.4" height="1.99" maskUnits="userSpaceOnUse"><g class="cls-19"><polygon class="cls-20" points="10.3 26.63 9.56 28.28 8.9 27.92 9.69 26.29 10.3 26.63"/></g></mask><linearGradient id="linear-gradient-25" x1="146.07" y1="26.16" x2="147.55" y2="29.11" xlink:href="#linear-gradient-13"/><linearGradient id="New_Gradient_Swatch_copy_17-5" x1="20.2" y1="29.69" x2="18.85" y2="37.5" xlink:href="#New_Gradient_Swatch_copy_17"/><linearGradient id="New_Gradient_Swatch_copy_17-6" x1="26.3" y1="30.7" x2="24.94" y2="38.53" xlink:href="#New_Gradient_Swatch_copy_17"/><linearGradient id="linear-gradient-26" x1="33.88" y1="27.52" x2="33.34" y2="35.79" gradientTransform="matrix(1, 0, 0, 1, 0, 0)" xlink:href="#linear-gradient-16"/><linearGradient id="linear-gradient-27" x1="39.94" y1="27.91" x2="39.39" y2="36.17" gradientTransform="matrix(1, 0, 0, 1, 0, 0)" xlink:href="#linear-gradient-16"/><linearGradient id="linear-gradient-28" x1="45.2" y1="28.25" x2="44.66" y2="36.51" gradientTransform="matrix(1, 0, 0, 1, 0, 0)" xlink:href="#linear-gradient-16"/><linearGradient id="linear-gradient-29" x1="51.81" y1="28.68" x2="51.26" y2="36.94" gradientTransform="matrix(1, 0, 0, 1, 0, 0)" xlink:href="#linear-gradient-16"/><linearGradient id="linear-gradient-30" x1="57.83" y1="29.05" x2="57.28" y2="37.32" gradientTransform="matrix(1, 0, 0, 1, 0, 0)" xlink:href="#linear-gradient-16"/><linearGradient id="linear-gradient-31" x1="63.09" y1="29.39" x2="62.55" y2="37.66" gradientTransform="matrix(1, 0, 0, 1, 0, 0)" xlink:href="#linear-gradient-16"/></defs><title>CFBrocker-Logo-65x65Монтажная область 1</title><g class="cls-27"><g id="Слой_1" data-name="Слой 1"><path class="cls-28" d="M22.39,29.52v1.69H20a2.75,2.75,0,0,0-.44.06,1.46,1.46,0,0,0-.36.16.94.94,0,0,0-.28.31,1,1,0,0,0-.13.29c0,.11-.05.22-.07.33l0,.33c0,.1,0,.19,0,.28s0,.35,0,.47,0,.24.05.33a1.65,1.65,0,0,0,.05.21l0,.12a.87.87,0,0,0,.29.31,1.28,1.28,0,0,0,.4.15,2.42,2.42,0,0,0,.48.06h2.5v1.69H19.38c-.28,0-.53,0-.76,0a3,3,0,0,1-.64-.13,2.11,2.11,0,0,1-.55-.25,2.25,2.25,0,0,1-.46-.42,2,2,0,0,1-.28-.42,2.26,2.26,0,0,1-.2-.52,3.19,3.19,0,0,1-.12-.68,7.42,7.42,0,0,1,0-.86,8.36,8.36,0,0,1,.11-1.5,2.35,2.35,0,0,1,.5-1.11,1.83,1.83,0,0,1,.54-.47,2.85,2.85,0,0,1,.63-.27,3.82,3.82,0,0,1,.66-.12l.64,0h3m.18-.17H19.41l-.65,0a2.7,2.7,0,0,0-.69.12,2.87,2.87,0,0,0-.68.28,2.37,2.37,0,0,0-.59.52,2.55,2.55,0,0,0-.53,1.18A8.64,8.64,0,0,0,16.15,33a7.78,7.78,0,0,0,0,.88,4.17,4.17,0,0,0,.13.7,2.62,2.62,0,0,0,.21.56,2.83,2.83,0,0,0,.3.44,2.41,2.41,0,0,0,.51.46,2.55,2.55,0,0,0,.58.27,3.56,3.56,0,0,0,.68.14q.36,0,.78,0h3.3v-2H20a2.14,2.14,0,0,1-.45-.05.94.94,0,0,1-.34-.14A.54.54,0,0,1,19,34a.37.37,0,0,1,0-.1,1.18,1.18,0,0,1-.05-.18,2.15,2.15,0,0,1,0-.31,3.1,3.1,0,0,1,0-.46,2.62,2.62,0,0,1,0-.27,1.82,1.82,0,0,1,0-.32,1.45,1.45,0,0,1,.06-.3.82.82,0,0,1,.1-.25h0a.66.66,0,0,1,.23-.26,1,1,0,0,1,.31-.13,1.6,1.6,0,0,1,.4-.06h2.58v-2Z"/><path class="cls-29" d="M29.52,29.52v1.65H25.74l-.17,0a.25.25,0,0,0-.15.08.38.38,0,0,0-.09.15.75.75,0,0,0,0,.21v.47h3.07v1.54H25.31v2.68H23V30.67a1.67,1.67,0,0,1,.06-.44,1,1,0,0,1,.73-.67,2.57,2.57,0,0,1,.45,0h5.25m.17-.17H24.27a3,3,0,0,0-.48,0,1,1,0,0,0-.56.29,1.07,1.07,0,0,0-.31.5,2,2,0,0,0-.07.48v5.82h2.63V33.81h3.07V31.94H25.48v-.31a1,1,0,0,1,0-.17s0-.06,0-.07a.17.17,0,0,1,.06,0h4.09v-2Z"/><path class="cls-30" d="M34.91,29.52h.4a2.9,2.9,0,0,1,.41.06,2,2,0,0,1,.39.13,1.11,1.11,0,0,1,.33.25,1,1,0,0,1,.24.33,1.71,1.71,0,0,1,.13.38,2.32,2.32,0,0,1,.06.38c0,.13,0,.25,0,.36a2.51,2.51,0,0,1-.06.55,1.14,1.14,0,0,1-.3.51,1,1,0,0,1-.7.34v0a1.41,1.41,0,0,1,.48.12,1.63,1.63,0,0,1,.35.23,1.07,1.07,0,0,1,.34.58,4.46,4.46,0,0,1,0,.63c0,.11,0,.22,0,.34a2.46,2.46,0,0,1,0,.37,2.05,2.05,0,0,1-.13.37,1.33,1.33,0,0,1-.25.35,1.4,1.4,0,0,1-.73.41,1.84,1.84,0,0,1-.41.05H31.1a1.24,1.24,0,0,1-.27,0,1.07,1.07,0,0,1-.27-.09,1.13,1.13,0,0,1-.26-.2,1,1,0,0,1-.19-.35,1.22,1.22,0,0,1-.07-.41V30.62a1.08,1.08,0,0,1,.24-.76,1,1,0,0,1,.35-.24,1,1,0,0,1,.45-.1h3.83m-2.59,2.61H34l.3,0a.36.36,0,0,0,.25-.16.75.75,0,0,0,0-.16,1,1,0,0,0,0-.15.43.43,0,0,0,0-.17.36.36,0,0,0-.08-.12.41.41,0,0,0-.26-.13H32.55a.37.37,0,0,0-.14.07.19.19,0,0,0-.08.14.76.76,0,0,0,0,.15v.55m.5,2.5H34a1.44,1.44,0,0,0,.45-.05.31.31,0,0,0,.16-.09.52.52,0,0,0,.09-.17.6.6,0,0,0,0-.22.49.49,0,0,0-.09-.3.46.46,0,0,0-.28-.17l-.31,0H32.32v.52a1.61,1.61,0,0,0,0,.26.26.26,0,0,0,.06.14.29.29,0,0,0,.21.09h.21m2.09-5.28H31.08a1.35,1.35,0,0,0-.52.11,1.26,1.26,0,0,0-.41.29,1.23,1.23,0,0,0-.28.87v4.62a1.51,1.51,0,0,0,.07.46,1.09,1.09,0,0,0,.23.41h0a1.17,1.17,0,0,0,.29.22,1.39,1.39,0,0,0,.32.12l.31,0h4.39a3.11,3.11,0,0,0,.44-.06,1.4,1.4,0,0,0,.43-.16,1.7,1.7,0,0,0,.39-.3,1.32,1.32,0,0,0,.28-.4,1.9,1.9,0,0,0,.14-.4,2.6,2.6,0,0,0,0-.39v-.35a4.89,4.89,0,0,0,0-.66,1.21,1.21,0,0,0-.38-.67,2,2,0,0,0-.4-.26h0A1.44,1.44,0,0,0,37,32a2.72,2.72,0,0,0,.06-.58c0-.11,0-.24,0-.37s0-.27-.07-.41a2,2,0,0,0-.14-.41,1.46,1.46,0,0,0-.27-.38,1.48,1.48,0,0,0-.39-.28,2.07,2.07,0,0,0-.42-.14,3.32,3.32,0,0,0-.44-.06l-.41,0ZM32.5,31.44l0,0a.06.06,0,0,1,0,0h1.66a.26.26,0,0,1,.15.07l0,.07a.34.34,0,0,1,0,.11.66.66,0,0,1,0,.13l0,.09a.17.17,0,0,1-.13.08A1.23,1.23,0,0,1,34,32H32.5v-.52Zm0,2.34h1.59l.29,0a.26.26,0,0,1,.16.1.32.32,0,0,1,.06.2.59.59,0,0,1,0,.17.27.27,0,0,1-.05.11l-.09,0a1.57,1.57,0,0,1-.39,0H32.62a.13.13,0,0,1-.08,0,.15.15,0,0,1,0-.07,1.17,1.17,0,0,1,0-.23v-.35Z"/><path class="cls-30" d="M41.57,31.17v1.34h-.68a1.93,1.93,0,0,0-.55.07.82.82,0,0,0-.45.3,1.14,1.14,0,0,0-.22.49,2.93,2.93,0,0,0,0,.49v2.46h-2v-3c0-.12,0-.26,0-.41a1.78,1.78,0,0,1,.08-.44,1.89,1.89,0,0,1,.19-.44,1.18,1.18,0,0,1,.35-.39,1.94,1.94,0,0,1,.48-.28,3.46,3.46,0,0,1,.53-.14l.51-.06h1.76m.18-.17H39.81a5,5,0,0,0-.54.06,3.58,3.58,0,0,0-.56.16,1.86,1.86,0,0,0-.53.3,1.43,1.43,0,0,0-.39.43,2.5,2.5,0,0,0-.21.48,2.13,2.13,0,0,0-.09.48c0,.15,0,.29,0,.42v3.15H39.8V33.86a2.68,2.68,0,0,1,.05-.46A.87.87,0,0,1,40,33a.62.62,0,0,1,.35-.24,2.1,2.1,0,0,1,.51-.06h.86V31Z"/><path class="cls-30" d="M44.84,31.11l.64,0c.23,0,.44,0,.65.06a2.34,2.34,0,0,1,.59.16,1.68,1.68,0,0,1,.5.29,1.45,1.45,0,0,1,.39.5,3.1,3.1,0,0,1,.21.58,2.83,2.83,0,0,1,.09.56c0,.18,0,.34,0,.47s0,.28,0,.46a3.05,3.05,0,0,1-.09.57,3.28,3.28,0,0,1-.21.57,1.48,1.48,0,0,1-.39.51,1.92,1.92,0,0,1-.5.29,2.83,2.83,0,0,1-.59.15,6.47,6.47,0,0,1-.65.07H44.19c-.22,0-.43,0-.64-.07a2.68,2.68,0,0,1-.59-.15,1.77,1.77,0,0,1-.5-.29,1.48,1.48,0,0,1-.39-.51,2.19,2.19,0,0,1-.21-.57,3.05,3.05,0,0,1-.09-.57c0-.18,0-.33,0-.46s0-.29,0-.47a2.83,2.83,0,0,1,.09-.56,2.13,2.13,0,0,1,.21-.58,1.45,1.45,0,0,1,.39-.5,1.56,1.56,0,0,1,.5-.29,2.23,2.23,0,0,1,.59-.16c.21,0,.42-.05.64-.06l.65,0m0,3.89a1.07,1.07,0,0,0,.6-.13,1.13,1.13,0,0,0,.27-.22,1,1,0,0,0,.16-.39,4.06,4.06,0,0,0,0-.51,2.37,2.37,0,0,0-.06-.62,1.15,1.15,0,0,0-.13-.31,1.54,1.54,0,0,0-.28-.21,1.15,1.15,0,0,0-.6-.12,1.19,1.19,0,0,0-.61.12,1.83,1.83,0,0,0-.27.21,2.26,2.26,0,0,0-.12.28,2,2,0,0,0-.07.65,1.91,1.91,0,0,0,.07.62.84.84,0,0,0,.12.28l.07.08a.41.41,0,0,0,.16.11,1.27,1.27,0,0,0,.26.11,1.37,1.37,0,0,0,.39,0m0-4.06-.66,0c-.22,0-.45,0-.66.06a3.25,3.25,0,0,0-.63.17,2.08,2.08,0,0,0-.54.32,1.59,1.59,0,0,0-.44.56,2.35,2.35,0,0,0-.22.61,3.13,3.13,0,0,0-.09.59,4.19,4.19,0,0,0,0,.48,4.11,4.11,0,0,0,0,.47,3.13,3.13,0,0,0,.09.59,2.42,2.42,0,0,0,.22.62,1.75,1.75,0,0,0,.43.55,1.8,1.8,0,0,0,.55.32,3.25,3.25,0,0,0,.63.17c.21,0,.44.05.66.06l.66,0,.65,0c.23,0,.45,0,.67-.06a3,3,0,0,0,.62-.17,1.59,1.59,0,0,0,.55-.32,1.78,1.78,0,0,0,.44-.55,2.87,2.87,0,0,0,.22-.62,3.13,3.13,0,0,0,.09-.59c0-.18,0-.34,0-.47s0-.3,0-.48a3.13,3.13,0,0,0-.09-.59,2.79,2.79,0,0,0-.22-.61,1.71,1.71,0,0,0-.44-.56,2,2,0,0,0-.55-.32,3,3,0,0,0-.62-.17c-.22,0-.44-.05-.67-.06l-.65,0Zm-.74,2a1.91,1.91,0,0,1,.23-.17,1.49,1.49,0,0,1,1,0,.88.88,0,0,1,.23.18,1,1,0,0,1,.1.25,2,2,0,0,1,0,.57,2.39,2.39,0,0,1,0,.48.7.7,0,0,1-.13.32.66.66,0,0,1-.22.18.87.87,0,0,1-.5.1,1.09,1.09,0,0,1-.34,0l-.22-.09a.35.35,0,0,1-.12-.09l0,0h0a.9.9,0,0,1-.1-.23,2.14,2.14,0,0,1-.06-.57,1.74,1.74,0,0,1,.07-.6c.05-.14.08-.2.09-.23Z"/><path class="cls-30" d="M50.38,29.52v6.8h-2v-6.8h2m4,1.65-1.62,2a.67.67,0,0,0-.1.19.45.45,0,0,0,0,.18.53.53,0,0,0,.06.23,1.38,1.38,0,0,0,.14.24l1.87,2.26H52.43L51,34.48a1.31,1.31,0,0,1-.27-.5,1.65,1.65,0,0,1-.05-.33.94.94,0,0,1,.1-.45,3.06,3.06,0,0,1,.23-.36l1.22-1.67h2.13m-3.78-1.82H48.23v7.14h2.33v-2.4a1.4,1.4,0,0,0,.28.49l1.45,1.84.05.07H55l-.23-.27L52.92,34a.88.88,0,0,1-.12-.21.37.37,0,0,1,0-.16.66.66,0,0,1,0-.13.64.64,0,0,1,.08-.14l1.62-2.05L54.7,31H52.12l-.06.07-1.22,1.68a2.49,2.49,0,0,0-.23.37.47.47,0,0,0,0,.1V29.35Z"/><path class="cls-30" d="M57.64,31.11c.54,0,1,0,1.35.05a1.58,1.58,0,0,1,.86.3,1.16,1.16,0,0,1,.3.36,1.77,1.77,0,0,1,.18.45,2.43,2.43,0,0,1,.08.47c0,.16,0,.31,0,.45a2.92,2.92,0,0,1,0,.51.73.73,0,0,1-.28.44.51.51,0,0,1-.26.12l-.27,0H56.66a.55.55,0,0,0,0,.22.47.47,0,0,0,.45.42l.51,0h2.59v1.38H56.28a2.25,2.25,0,0,1-.52-.07,1.46,1.46,0,0,1-.44-.2,1.37,1.37,0,0,1-.36-.39,1.61,1.61,0,0,1-.22-.71,9,9,0,0,1-.05-1.14v-.67a5.41,5.41,0,0,1,0-.59,1.9,1.9,0,0,1,.13-.51,1,1,0,0,1,.27-.41,1.13,1.13,0,0,1,.46-.29,2.72,2.72,0,0,1,.61-.15c.22,0,.45-.05.7-.06h.75m-1,2h1.46a.31.31,0,0,0,.27-.1.35.35,0,0,0,.06-.18.32.32,0,0,0-.08-.2c0-.07-.14-.11-.29-.15l-.28,0h-.24l-.37,0a.84.84,0,0,0-.32.07.36.36,0,0,0-.19.23,1,1,0,0,0,0,.35m1-2.14h-.76q-.37,0-.72.06a3.74,3.74,0,0,0-.64.16,1.49,1.49,0,0,0-.53.33,1.38,1.38,0,0,0-.31.47,2.22,2.22,0,0,0-.13.55,3.91,3.91,0,0,0,0,.61v.67c0,.48,0,.86.05,1.16a1.94,1.94,0,0,0,.25.78,1.59,1.59,0,0,0,.41.44,1.73,1.73,0,0,0,.5.22,2.43,2.43,0,0,0,.55.08H60.4V34.77H57.64a3.93,3.93,0,0,1-.49,0,.34.34,0,0,1-.25-.14.46.46,0,0,1,0-.14v0h2.73l.3,0a.75.75,0,0,0,.34-.16.88.88,0,0,0,.34-.54,3.29,3.29,0,0,0,.05-.54c0-.14,0-.3,0-.46a2.74,2.74,0,0,0-.08-.5,2.26,2.26,0,0,0-.19-.49,1.29,1.29,0,0,0-.36-.41A1.73,1.73,0,0,0,59,31c-.36,0-.82,0-1.37,0Zm-.81,2a.59.59,0,0,1,0-.14.21.21,0,0,1,.11-.12.56.56,0,0,1,.24,0l.36,0h.23l.26,0c.15,0,.18.07.18.08a.14.14,0,0,1,0,.1.15.15,0,0,1,0,.09s0,0-.12,0Z"/><path class="cls-30" d="M64.83,31.17v1.34h-.69a1.93,1.93,0,0,0-.55.07.82.82,0,0,0-.45.3,1.13,1.13,0,0,0-.21.49,3,3,0,0,0,0,.49v2.46h-2v-3c0-.12,0-.26,0-.41a2.41,2.41,0,0,1,.08-.44,1.89,1.89,0,0,1,.19-.44,1.3,1.3,0,0,1,.35-.39,1.94,1.94,0,0,1,.48-.28,3.46,3.46,0,0,1,.53-.14l.52-.06h1.76M65,31H63.06l-.54.06a3.58,3.58,0,0,0-.56.16,1.86,1.86,0,0,0-.53.3A1.57,1.57,0,0,0,61,32a2.5,2.5,0,0,0-.21.48,2.83,2.83,0,0,0-.08.48c0,.15,0,.29,0,.42v3.15h2.32V33.86a2.68,2.68,0,0,1,.05-.46.87.87,0,0,1,.18-.42.65.65,0,0,1,.35-.24,2.1,2.1,0,0,1,.51-.06H65V31Z"/><polygon class="cls-31" points="1.19 25.54 3.29 26.71 6.86 28.7 10.15 30.53 13.72 32.52 13.72 28.54 6.86 24.72 3.92 26.36 1.19 25.54"/><g class="cls-32"><polygon class="cls-33" points="13.34 28.76 6.86 25.15 3.81 26.99 13.34 32.3 13.34 28.76"/></g><polygon class="cls-34" points="2.46 27.17 5.17 29.64 3.57 30.53 3.57 34.19 6.86 36.02 9.06 34.8 10.18 34.17 12.86 36.67 14.66 38.35 12.41 36.91 12.41 36.91 6.86 40 0 36.18 0 28.54 2.46 27.17"/><g class="cls-35"><polygon class="cls-36" points="12.41 36.91 11.66 37.33 11.65 37.33 9.06 34.8 12.38 36.88 12.41 36.91"/></g><polygon class="cls-37" points="3.97 28.55 5.17 29.64 3.57 30.53 3.57 34.19 6.86 36.02 9.06 34.8 10.51 36.22 7 38.17 1.93 35.34 1.93 29.69 3.97 28.55"/><g class="cls-38"><polygon class="cls-39" points="2.8 27.47 3.97 28.55 1.93 29.69 1.93 35.34 7 38.17 10.51 36.22 9.34 35.08 10.12 34.64 12.21 36.59 6.86 39.56 0.39 35.96 0.39 28.76 2.8 27.47"/></g><g class="cls-40"><polygon class="cls-41" points="1.93 30.07 1.93 31.3 0 31.1 0 29.98 1.93 30.07"/></g><g class="cls-42"><polygon class="cls-43" points="1.93 32.06 1.93 32.63 0 32.26 0 31.69 1.93 32.06"/></g><polygon class="cls-44" points="10.15 30.53 6.86 28.7 5.29 27.82 7 26.86 12.08 29.69 12.08 31.6 10.15 30.53"/><g class="cls-45"><polygon class="cls-46" points="5.17 29.64 3.57 30.53 1.93 29.69 3.97 28.55 5.17 29.64"/></g><g class="cls-47"><polygon class="cls-48" points="3.57 30.53 3.57 34.19 1.93 29.69 3.57 30.53"/></g><g class="cls-49"><polygon class="cls-50" points="3.57 30.53 1.93 34.32 1.93 29.69 3.57 30.53"/></g><g class="cls-51"><polygon class="cls-52" points="3.89 28.47 3.97 28.55 1.93 29.69 1.93 35.34 7 38.17 7.05 38.31 1.82 35.4 1.82 29.63 3.89 28.47"/></g><polygon class="cls-53" points="12.08 29.69 10.74 30.85 12.08 31.6 12.08 29.69"/><g class="cls-54"><polygon class="cls-55" points="7 26.86 7 28.77 5.29 27.82 7 26.86"/></g><g class="cls-56"><polygon class="cls-57" points="5.16 27.75 7 26.72 12.14 29.58 12.21 29.62 12.21 31.67 12.08 31.6 12.08 29.69 7 26.86 5.29 27.82 5.16 27.75"/></g><g class="cls-58"><polygon class="cls-59" points="11.81 27.47 11.07 29.13 9.9 28.47 10.69 26.85 11.81 27.47"/></g><g class="cls-60"><polygon class="cls-61" points="10.3 26.63 9.56 28.28 8.9 27.92 9.69 26.29 10.3 26.63"/></g><path class="cls-62" d="M19.38,36.32c-.28,0-.53,0-.76,0a3,3,0,0,1-.64-.13,2.11,2.11,0,0,1-.55-.25,2.25,2.25,0,0,1-.46-.42,2,2,0,0,1-.28-.42,2.26,2.26,0,0,1-.2-.52,3.19,3.19,0,0,1-.12-.68,7.42,7.42,0,0,1,0-.86,8.36,8.36,0,0,1,.11-1.5,2.35,2.35,0,0,1,.5-1.11,1.83,1.83,0,0,1,.54-.47,2.85,2.85,0,0,1,.63-.27,3.82,3.82,0,0,1,.66-.12l.64,0h3v1.69H20a2.75,2.75,0,0,0-.44.06,1.46,1.46,0,0,0-.36.16.94.94,0,0,0-.28.31,1,1,0,0,0-.13.29c0,.11-.05.22-.07.33l0,.33c0,.1,0,.19,0,.28s0,.35,0,.47,0,.24.05.33a1.65,1.65,0,0,0,.05.21l0,.12a.87.87,0,0,0,.29.31,1.28,1.28,0,0,0,.4.15,2.42,2.42,0,0,0,.48.06h2.5v1.69Z"/><path class="cls-63" d="M23,36.32V30.67a1.67,1.67,0,0,1,.06-.44,1,1,0,0,1,.73-.67,2.57,2.57,0,0,1,.45,0h5.25v1.65H25.74l-.17,0a.25.25,0,0,0-.15.08.38.38,0,0,0-.09.15.75.75,0,0,0,0,.21v.47h3.07v1.54H25.31v2.68Z"/><path class="cls-64" d="M30,30.62a1.08,1.08,0,0,1,.24-.76,1,1,0,0,1,.35-.24,1,1,0,0,1,.45-.1h4.23a2.9,2.9,0,0,1,.41.06,2,2,0,0,1,.39.13,1.11,1.11,0,0,1,.33.25,1,1,0,0,1,.24.33,1.71,1.71,0,0,1,.13.38,2.32,2.32,0,0,1,.06.38c0,.13,0,.25,0,.36a2.51,2.51,0,0,1-.06.55,1.14,1.14,0,0,1-.3.51,1,1,0,0,1-.7.34v0a1.41,1.41,0,0,1,.48.12,1.63,1.63,0,0,1,.35.23,1.07,1.07,0,0,1,.34.58,4.46,4.46,0,0,1,0,.63c0,.11,0,.22,0,.34a2.46,2.46,0,0,1,0,.37,2.05,2.05,0,0,1-.13.37,1.33,1.33,0,0,1-.25.35,1.4,1.4,0,0,1-.73.41,1.84,1.84,0,0,1-.41.05H31.1a1.24,1.24,0,0,1-.27,0,1.07,1.07,0,0,1-.27-.09,1.13,1.13,0,0,1-.26-.2,1,1,0,0,1-.19-.35,1.22,1.22,0,0,1-.07-.41Zm4,1.51.3,0a.36.36,0,0,0,.25-.16.75.75,0,0,0,0-.16,1,1,0,0,0,0-.15.43.43,0,0,0,0-.17.36.36,0,0,0-.08-.12.41.41,0,0,0-.26-.13H32.55a.37.37,0,0,0-.14.07.19.19,0,0,0-.08.14.76.76,0,0,0,0,.15v.55Zm-1.69,2a1.61,1.61,0,0,0,0,.26.26.26,0,0,0,.06.14.29.29,0,0,0,.21.09H34a1.44,1.44,0,0,0,.45-.05.31.31,0,0,0,.16-.09.52.52,0,0,0,.09-.17.6.6,0,0,0,0-.22.49.49,0,0,0-.09-.3.46.46,0,0,0-.28-.17l-.31,0H32.32Z"/><path class="cls-65" d="M37.65,33.34c0-.12,0-.26,0-.41a1.78,1.78,0,0,1,.08-.44,1.89,1.89,0,0,1,.19-.44,1.18,1.18,0,0,1,.35-.39,1.94,1.94,0,0,1,.48-.28,3.46,3.46,0,0,1,.53-.14l.51-.06h1.76v1.34h-.68a1.93,1.93,0,0,0-.55.07.82.82,0,0,0-.45.3,1.14,1.14,0,0,0-.22.49,2.93,2.93,0,0,0,0,.49v2.46h-2Z"/><path class="cls-66" d="M44.84,31.11l.64,0c.23,0,.44,0,.65.06a2.34,2.34,0,0,1,.59.16,1.68,1.68,0,0,1,.5.29,1.45,1.45,0,0,1,.39.5,3.1,3.1,0,0,1,.21.58,2.83,2.83,0,0,1,.09.56c0,.18,0,.34,0,.47s0,.28,0,.46a3.05,3.05,0,0,1-.09.57,3.28,3.28,0,0,1-.21.57,1.48,1.48,0,0,1-.39.51,1.92,1.92,0,0,1-.5.29,2.83,2.83,0,0,1-.59.15,6.47,6.47,0,0,1-.65.07H44.19c-.22,0-.43,0-.64-.07a2.68,2.68,0,0,1-.59-.15,1.77,1.77,0,0,1-.5-.29,1.48,1.48,0,0,1-.39-.51,2.19,2.19,0,0,1-.21-.57,3.05,3.05,0,0,1-.09-.57c0-.18,0-.33,0-.46s0-.29,0-.47a2.83,2.83,0,0,1,.09-.56,2.13,2.13,0,0,1,.21-.58,1.45,1.45,0,0,1,.39-.5,1.56,1.56,0,0,1,.5-.29,2.23,2.23,0,0,1,.59-.16c.21,0,.42-.05.64-.06Zm-1.07,2.64a1.91,1.91,0,0,0,.07.62.84.84,0,0,0,.12.28l.07.08a.41.41,0,0,0,.16.11,1.27,1.27,0,0,0,.26.11,1.37,1.37,0,0,0,.39,0,1.07,1.07,0,0,0,.6-.13,1.13,1.13,0,0,0,.27-.22,1,1,0,0,0,.16-.39,4.06,4.06,0,0,0,0-.51,2.37,2.37,0,0,0-.06-.62,1.15,1.15,0,0,0-.13-.31,1.54,1.54,0,0,0-.28-.21,1.15,1.15,0,0,0-.6-.12,1.19,1.19,0,0,0-.61.12,1.83,1.83,0,0,0-.27.21,2.26,2.26,0,0,0-.12.28A2,2,0,0,0,43.77,33.75Z"/><path class="cls-67" d="M48.41,36.32v-6.8h2v6.8Zm4,0L51,34.48a1.31,1.31,0,0,1-.27-.5,1.65,1.65,0,0,1-.05-.33.94.94,0,0,1,.1-.45,3.06,3.06,0,0,1,.23-.36l1.22-1.67h2.13l-1.62,2a.67.67,0,0,0-.1.19.45.45,0,0,0,0,.18.53.53,0,0,0,.06.23,1.38,1.38,0,0,0,.14.24l1.87,2.26Z"/><path class="cls-68" d="M56.85,36.32h-.57a2.25,2.25,0,0,1-.52-.07,1.46,1.46,0,0,1-.44-.2,1.37,1.37,0,0,1-.36-.39,1.61,1.61,0,0,1-.22-.71,9,9,0,0,1-.05-1.14v-.67a5.41,5.41,0,0,1,0-.59,1.9,1.9,0,0,1,.13-.51,1,1,0,0,1,.27-.41,1.13,1.13,0,0,1,.46-.29,2.72,2.72,0,0,1,.61-.15c.22,0,.45-.05.7-.06h.75c.54,0,1,0,1.35.05a1.58,1.58,0,0,1,.86.3,1.16,1.16,0,0,1,.3.36,1.77,1.77,0,0,1,.18.45,2.43,2.43,0,0,1,.08.47c0,.16,0,.31,0,.45a2.92,2.92,0,0,1,0,.51.73.73,0,0,1-.28.44.51.51,0,0,1-.26.12l-.27,0H56.66a.55.55,0,0,0,0,.22.47.47,0,0,0,.45.42l.51,0h2.59v1.38Zm1.27-3.24a.31.31,0,0,0,.27-.1.35.35,0,0,0,.06-.18.32.32,0,0,0-.08-.2c0-.07-.14-.11-.29-.15l-.28,0h-.24l-.37,0a.84.84,0,0,0-.32.07.36.36,0,0,0-.19.23,1,1,0,0,0,0,.35Z"/><path class="cls-69" d="M60.9,33.34c0-.12,0-.26,0-.41a2.41,2.41,0,0,1,.08-.44,1.89,1.89,0,0,1,.19-.44,1.3,1.3,0,0,1,.35-.39,1.94,1.94,0,0,1,.48-.28,3.46,3.46,0,0,1,.53-.14l.52-.06h1.76v1.34h-.69a1.93,1.93,0,0,0-.55.07.82.82,0,0,0-.45.3,1.13,1.13,0,0,0-.21.49,3,3,0,0,0,0,.49v2.46h-2Z"/></g></g></svg>