<svg id="Слой_1" data-name="Слой 1" xmlns="http://www.w3.org/2000/svg" viewBox="0 0 65 65"><defs><style>.cls-1{fill:#323232;}.cls-2{fill:#febf12;}</style></defs><title>OctoFinance-Logo-65x65Монтажная область 1</title><rect class="cls-1" x="2.54" y="25.85" width="1.99" height="1.99"/><rect class="cls-1" x="4.95" y="25.85" width="1.99" height="1.99"/><rect class="cls-1" x="7.36" y="25.85" width="1.99" height="1.99"/><rect class="cls-1" x="9.77" y="25.85" width="1.99" height="1.99"/><rect class="cls-1" x="2.54" y="28.25" width="1.99" height="1.99"/><rect class="cls-2" x="0.13" y="28.25" width="1.99" height="1.99"/><rect class="cls-2" x="4.95" y="28.25" width="1.99" height="1.99"/><rect class="cls-2" x="7.36" y="28.25" width="1.99" height="1.99"/><rect class="cls-1" x="2.54" y="30.64" width="1.99" height="1.99"/><rect class="cls-2" x="0.13" y="30.64" width="1.99" height="1.99"/><rect class="cls-2" x="7.36" y="30.64" width="1.99" height="1.99"/><rect class="cls-1" x="9.77" y="30.64" width="1.99" height="1.99"/><rect class="cls-1" x="2.54" y="33.04" width="1.99" height="1.99"/><rect class="cls-2" x="0.13" y="33.04" width="1.99" height="1.99"/><rect class="cls-1" x="4.95" y="30.64" width="1.99" height="1.99"/><rect class="cls-2" x="7.36" y="33.04" width="1.99" height="1.99"/><rect class="cls-2" x="2.54" y="35.44" width="1.99" height="1.99"/><rect class="cls-2" x="0.13" y="35.44" width="1.99" height="1.99"/><rect class="cls-2" x="4.95" y="35.44" width="1.99" height="1.99"/><rect class="cls-2" x="7.36" y="35.44" width="1.99" height="1.99"/><path class="cls-2" d="M12.78,30.45a2.39,2.39,0,0,1,.56-1.7,2.13,2.13,0,0,1,1.62-.6,2.14,2.14,0,0,1,1.63.6,2.39,2.39,0,0,1,.56,1.7v4.76a2.43,2.43,0,0,1-.56,1.71,2.17,2.17,0,0,1-1.63.59,2.16,2.16,0,0,1-1.62-.59,2.43,2.43,0,0,1-.56-1.71Zm1.44,4.85a1,1,0,0,0,.2.7.72.72,0,0,0,.54.2.73.73,0,0,0,.55-.2,1,1,0,0,0,.2-.7V30.36a1,1,0,0,0-.2-.7.77.77,0,0,0-.55-.2.77.77,0,0,0-.54.2,1,1,0,0,0-.2.7Z"/><path class="cls-2" d="M22.25,34v1.22a2.47,2.47,0,0,1-.55,1.71,2.07,2.07,0,0,1-1.6.59,2.08,2.08,0,0,1-1.6-.59A2.47,2.47,0,0,1,18,35.21V30.45a2.43,2.43,0,0,1,.54-1.7,2.05,2.05,0,0,1,1.6-.6,2,2,0,0,1,1.6.6,2.43,2.43,0,0,1,.55,1.7v.89H20.89v-1a1,1,0,0,0-.21-.7.83.83,0,0,0-1.08,0,1,1,0,0,0-.2.7V35.3a.92.92,0,0,0,.2.69.83.83,0,0,0,1.08,0,.92.92,0,0,0,.21-.69V34Z"/><path class="cls-2" d="M22.73,28.26h4.44v1.3h-1.5v7.85H24.23V29.56h-1.5Z"/><path class="cls-2" d="M27.71,30.45a2.39,2.39,0,0,1,.56-1.7,2.13,2.13,0,0,1,1.62-.6,2.1,2.1,0,0,1,1.62.6,2.34,2.34,0,0,1,.57,1.7v4.76a2.39,2.39,0,0,1-.57,1.71,2.13,2.13,0,0,1-1.62.59,2.16,2.16,0,0,1-1.62-.59,2.43,2.43,0,0,1-.56-1.71Zm1.44,4.85a1,1,0,0,0,.2.7.71.71,0,0,0,.54.2.69.69,0,0,0,.54-.2.94.94,0,0,0,.21-.7V30.36a1,1,0,0,0-.21-.7.73.73,0,0,0-.54-.2.75.75,0,0,0-.54.2,1,1,0,0,0-.2.7Z"/><path class="cls-1" d="M34.44,32.32H36.3v1.31H34.44v3.78H33V28.26h3.81v1.3H34.44Z"/><path class="cls-1" d="M37.5,28.26h1.44v9.15H37.5Z"/><path class="cls-1" d="M41.26,30.78v6.63H40V28.26h1.8l1.48,5.47V28.26h1.28v9.15H43.06Z"/><path class="cls-1" d="M50.22,37.41H48.77l-.25-1.66H46.76l-.25,1.66H45.19l1.46-9.15h2.11ZM46.94,34.5h1.38l-.69-4.62Z"/><path class="cls-1" d="M52.17,30.78v6.63h-1.3V28.26h1.81l1.47,5.47V28.26h1.29v9.15H54Z"/><path class="cls-1" d="M60.64,34v1.22a2.47,2.47,0,0,1-.54,1.71,2.11,2.11,0,0,1-1.61.59,2.08,2.08,0,0,1-1.6-.59,2.47,2.47,0,0,1-.54-1.71V30.45a2.43,2.43,0,0,1,.54-1.7,2.05,2.05,0,0,1,1.6-.6,2.08,2.08,0,0,1,1.61.6,2.43,2.43,0,0,1,.54,1.7v.89H59.28v-1a1,1,0,0,0-.2-.7.77.77,0,0,0-.55-.2.77.77,0,0,0-.54.2,1,1,0,0,0-.2.7V35.3A1,1,0,0,0,58,36a.72.72,0,0,0,.54.2.73.73,0,0,0,.55-.2,1,1,0,0,0,.2-.69V34Z"/><path class="cls-1" d="M63,32.11h2v1.31H63V36.1h2.49v1.31H61.51V28.26h3.93v1.3H63Z"/></svg>