<?xml version="1.0" encoding="UTF-8"?>
<svg width="200px" height="62px" viewBox="0 0 200 62" version="1.1" xmlns="http://www.w3.org/2000/svg" xmlns:xlink="http://www.w3.org/1999/xlink">
  <title>Falcon_logo_white</title>
  <desc>Created with Sketch.</desc>
  <g id="Page-1" stroke="none" stroke-width="1" fill="none" fill-rule="evenodd">
    <g id="Falcon_logo_white" fill="#FFFFFF" fill-rule="nonzero">
      <path d="M23.165075,45.100885 L36.5538881,35.0053097 L36.5538881,41.7347788 L27.6274064,48.4656195 L36.5538881,55.1964602 L36.5538881,61.9259292 L23.165075,51.830354 L23.165075,45.100885 Z M36.5538881,0 L49.9399727,10.0955752 L49.9399727,16.8250442 L41.0061598,23.5627859 L46.2892224,27.5461062 L46.2892224,27.6256637 L59.6780355,17.5300885 L73.0641201,27.6256637 L73.0641201,34.3578761 L59.6780355,44.450708 L46.2892224,34.3578761 L46.2892224,34.2783186 L36.5452954,26.9296015 L31.1865605,30.9691538 L36.5538881,35.0162832 L36.5538881,35.0053097 L49.9399727,45.100885 L49.9399727,51.830354 L36.5538881,61.9259292 L36.5538881,55.1964602 L45.4785508,48.4656195 L36.5538881,41.7347788 L36.5538881,41.7457522 L26.7509168,34.3540115 L13.3860846,44.4315044 L5.18489243e-13,34.3359292 L5.1159077e-13,27.6064602 L13.3860846,17.510885 L26.7748977,27.6064602 L26.7748977,27.5653097 L32.091889,23.5561354 L23.165075,16.8250442 L23.165075,10.0955752 L36.5538881,0 L36.5538881,0 Z M36.5538881,6.72946903 L27.6274064,13.4603097 L36.5538881,20.1911504 L45.4785508,13.4603097 L36.5538881,6.72946903 L36.5538881,6.72946903 Z M59.6780355,24.2623009 L50.7533728,30.9917699 L59.6780355,37.7212389 L68.6008794,30.9917699 L59.6780355,24.2623009 L59.6780355,24.2623009 Z M13.3860846,37.7020354 L22.3125664,30.9711947 L13.3860846,24.240354 L4.46142194,30.9711947 L13.3860846,37.7020354 L13.3860846,37.7020354 Z" id="Shape"></path>
      <g id="Group" transform="translate(92.223738, 14.814159)">
        <path d="M10.9140518,4.7899115 C10.4957964,4.70340755 10.0695546,4.66202284 9.6425648,4.66646018 C8.34743065,4.66646018 7.69986357,5.35321534 7.69986357,6.72672566 L7.69986357,7.47292035 L12.0463847,7.47292035 L12.0463847,11.8760177 L7.76261937,11.8760177 L7.76261937,26.2978761 L2.39290587,26.2978761 L2.39290587,11.8760177 L0.166439291,11.8760177 L0.166439291,7.43725664 L2.39290587,7.43725664 L2.39290587,6.23017699 C2.39290587,4.12327434 2.89313324,2.57784661 3.89358799,1.59389381 C4.89404275,0.609941003 6.34924966,0.118879056 8.25920873,0.120707965 C8.98936409,0.112284773 9.7190921,0.159975243 10.4420191,0.263362832 C10.9974085,0.347934141 11.5449515,0.478224593 12.0791269,0.652920354 L12.0791269,5.12734513 C11.6979594,4.99113554 11.3088775,4.87844809 10.9140518,4.7899115 Z" id="Path"></path>
        <path d="M26.0600273,26.2978761 L26.0600273,24.2376106 C25.3954532,24.975906 24.5912653,25.573703 23.6944065,25.9961062 C22.6380205,26.4627728 21.4917181,26.6876589 20.3383356,26.6545133 C19.4821429,26.6603691 18.630094,26.5345491 17.8117326,26.2814159 C17.0558967,26.0505235 16.3536272,25.6699616 15.7462483,25.1621239 C15.1548257,24.6612407 14.6790363,24.0368205 14.3519782,23.3323009 C13.9965279,22.5465842 13.8212229,21.6906022 13.8390177,20.8276106 L13.8390177,20.7562832 C13.8151882,19.8244743 14.0086149,18.8999928 14.4038199,18.0568142 C14.7700485,17.3118802 15.3090768,16.6664186 15.9754434,16.1748673 C16.6984927,15.6529523 17.5131627,15.273186 18.3765348,15.0555752 C19.3865665,14.7970291 20.4257444,14.6716122 21.46794,14.6824779 C22.3150104,14.672364 23.1610909,14.74402 23.994543,14.8964602 C24.7069532,15.0372233 25.4089196,15.2269608 26.095498,15.4643363 L26.095498,15.1433628 C26.095498,14.0076106 25.7544338,13.1434513 25.0723056,12.550885 C24.3901774,11.9583186 23.377899,11.6620354 22.0354707,11.6620354 C21.1187545,11.6535396 20.2038479,11.7455282 19.3069577,11.9363717 C18.4597701,12.1313513 17.6273247,12.3862026 16.8158254,12.6990265 L15.473397,8.5839823 C16.5252257,8.13019699 17.6120304,7.76320468 18.7230559,7.48663717 C20.0653472,7.1799675 21.4395272,7.03719608 22.8158254,7.06141593 C25.7589814,7.06141593 27.9017735,7.78383481 29.2442019,9.22867257 C30.5866303,10.6735103 31.2578445,12.6853097 31.2578445,15.2640708 L31.2578445,26.3115929 L26.0600273,26.2978761 Z M26.1664393,18.6164602 C25.661092,18.3919879 25.1345665,18.2192005 24.5948158,18.100708 C23.9853625,17.9673542 23.3631333,17.9020326 22.739427,17.9059292 C21.5861755,17.9059292 20.6766712,18.130885 20.0109141,18.5807965 C19.3607787,19.0102696 18.9842717,19.7527819 19.0204638,20.5340708 L19.0204638,20.6053982 C18.991007,21.2755438 19.2985822,21.9156897 19.8390177,22.3090265 C20.4619119,22.7360324 21.2059917,22.947858 21.9590723,22.9125664 C23.2323784,22.9125664 24.2510232,22.6043953 25.0150068,21.9880531 C25.760276,21.4146808 26.187352,20.5171219 26.1637108,19.5738938 L26.1664393,18.6164602 Z" id="Shape"></path>
        <polygon id="Path" points="36.1282401 26.2978761 36.1282401 0.367610619 41.4979536 0.367610619 41.4979536 26.2978761"></polygon>
        <path d="M60.0791269,25.7464602 C58.9004093,26.3975516 57.3697135,26.7230973 55.4870396,26.7230973 C54.1344574,26.7350301 52.7937131,26.4689693 51.5470668,25.9412389 C49.1907955,24.9631946 47.3232602,23.0756127 46.3628922,20.7014159 C45.8652498,19.4908273 45.6129358,18.1925458 45.6207367,16.8826549 L45.6207367,16.8113274 C45.613528,15.4943851 45.8657645,14.1890432 46.3628922,12.9706195 C46.837609,11.7945685 47.5333378,10.7215437 48.4120055,9.81026549 C49.3050937,8.89720832 50.371099,8.17334216 51.5470668,7.68141593 C52.8170668,7.14867207 54.1819841,6.88260501 55.5579809,6.89955752 C57.3478854,6.89955752 58.8312869,7.1839528 60.0081855,7.75274336 C61.1867262,8.32269901 62.2425946,9.11960927 63.1159618,10.0983186 L59.8417462,13.6509735 C59.2846966,13.0562397 58.6483569,12.5419969 57.9508868,12.1229204 C57.2085235,11.7211715 56.3732398,11.5251796 55.5306958,11.5550442 C54.8891802,11.5458495 54.254219,11.6857379 53.675307,11.9638053 C53.1226274,12.2354948 52.6299177,12.6161345 52.2264666,13.0830973 C51.8078966,13.5664162 51.4838906,14.1248779 51.271487,14.729115 C51.0446186,15.3738567 50.931056,16.0533711 50.9358799,16.7372566 L50.9358799,16.8085841 C50.9302159,17.5095461 51.0437181,18.2063277 51.271487,18.8688496 C51.4812427,19.485298 51.8115033,20.0533411 52.2428377,20.5395575 C52.6627043,21.0178021 53.1764229,21.4035534 53.7517053,21.6725664 C54.3735903,21.9521334 55.0487388,22.0916432 55.7298772,22.0813274 C56.5464727,22.1007811 57.3546718,21.9120244 58.0791269,21.5326549 C58.8025728,21.1272961 59.4726416,20.6323778 60.0736698,20.059469 L63.2169168,23.2554867 C62.3158635,24.2552886 61.2554115,25.0971415 60.0791269,25.7464602 L60.0791269,25.7464602 Z" id="Path"></path>
        <path d="M85.5143247,20.6684956 C85.0073723,21.8481936 84.2750164,22.9163551 83.3587995,23.8123894 C82.4211347,24.7253418 81.3179778,25.4489505 80.1091405,25.9439823 C78.8097925,26.4743706 77.4186471,26.7401267 76.0163711,26.7258407 C74.6257081,26.7393338 73.2457507,26.4802901 71.9536153,25.9631858 C70.7490293,25.4839806 69.6496092,24.7718993 68.7175989,23.8672566 C67.8065757,22.9760822 67.0787996,21.9134323 66.5757162,20.739823 C66.0548021,19.5275359 65.7900008,18.2196782 65.79809,16.899115 L65.79809,16.8277876 C65.7901595,15.50724 66.0549542,14.1994148 66.5757162,12.9870796 C67.082793,11.8074509 67.8151332,10.7393124 68.7312415,9.84318584 C69.6680915,8.91904821 70.7732782,8.18507763 71.9863574,7.68141593 C73.2856849,7.15095746 74.6768444,6.88519859 76.0791269,6.89955752 C77.4719628,6.89188171 78.8529127,7.15746072 80.1446112,7.68141593 C81.3479996,8.16138068 82.4463865,8.8733931 83.377899,9.77734513 C84.2853544,10.6661491 85.0111239,11.7248482 85.5143247,12.8938053 C86.0348588,14.1062123 86.2996437,15.4139891 86.2919509,16.7345133 L86.2919509,16.8058407 C86.3028341,18.1337647 86.0379799,19.4493589 85.5143247,20.6684956 L85.5143247,20.6684956 Z M80.9931787,16.8277876 C80.9977147,16.143397 80.878449,15.4638799 80.6412005,14.8223894 C80.1820008,13.5656333 79.2445293,12.5441006 78.0354707,11.9830088 C77.4032146,11.6950585 76.715879,11.5499137 76.0218281,11.5577876 C75.3076623,11.5426928 74.5986107,11.682094 73.9427012,11.9665487 C73.3584217,12.2275081 72.8350978,12.6088194 72.4065484,13.0858407 C71.9790965,13.5655695 71.6491159,14.1247434 71.4351978,14.7318584 C71.2083294,15.3766001 71.0947668,16.0561145 71.0995907,16.74 L71.0995907,16.8113274 C71.0943572,17.4966698 71.2136397,18.1772124 71.4515689,18.819469 C71.9171014,20.0656706 72.8495322,21.0790037 74.0491132,21.6423894 C74.6859875,21.9339249 75.3794471,22.079182 76.0791269,22.0676106 C76.7887341,22.0809943 77.492981,21.9416233 78.1446112,21.6588496 C78.7291354,21.3983174 79.2525423,21.0169457 79.680764,20.5395575 C80.1082159,20.0598287 80.4381965,19.5006548 80.6521146,18.8935398 C80.8785099,18.2496237 80.9920632,17.5710934 80.9877217,16.8881416 L80.9931787,16.8277876 Z" id="Shape"></path>
        <path d="M102.155525,26.2978761 L102.155525,15.7030088 C102.155525,14.4227729 101.872669,13.4598525 101.306958,12.8142478 C100.741246,12.1686431 99.9408822,11.8440118 98.9058663,11.840354 C97.9858427,11.7932056 97.0904743,12.1483008 96.4502046,12.8142478 C95.8499318,13.4635103 95.5497954,14.4264307 95.5497954,15.7030088 L95.5497954,26.2978761 L90.1773533,26.2978761 L90.1773533,7.25893805 L95.5470668,7.25893805 L95.5470668,9.98035398 C95.8566344,9.57059495 96.1929849,9.18200745 96.5538881,8.81716814 C96.9227909,8.44514733 97.3318765,8.11572957 97.7735334,7.83504425 C98.2354175,7.5417971 98.7347435,7.31292433 99.2578445,7.15469027 C99.8542235,6.98029451 100.473106,6.89615659 101.094134,6.90504425 C103.142337,6.90504425 104.725784,7.53235988 105.844475,8.78699115 C106.963165,10.0416224 107.52251,11.769941 107.52251,13.9719469 L107.52251,26.2978761 L102.155525,26.2978761 Z" id="Path"></path>
      </g>
    </g>
  </g>
</svg>