<svg width="12" height="12" viewBox="0 0 12 12" fill="none" xmlns="http://www.w3.org/2000/svg">
<path d="M8.99428 12H1.96447C0.939284 12 0.109375 11.15 0.109375 10.1V2.9C0.109375 1.85 0.939284 1 1.96447 1H5.47937C5.77228 1 5.96756 1.2 5.96756 1.5C5.96756 1.8 5.77228 2 5.47937 2H1.96447C1.47628 2 1.08574 2.4 1.08574 2.9V10.05C1.08574 10.55 1.47628 10.95 1.96447 10.95H8.94547C9.43365 10.95 9.82419 10.55 9.82419 10.05V6.5C9.82419 6.2 10.0195 6 10.3124 6C10.6053 6 10.8006 6.2 10.8006 6.5V10.1C10.8494 11.15 10.0195 12 8.99428 12Z" fill="#9B9B9B"/>
<path fill-rule="evenodd" clip-rule="evenodd" d="M2.69724 9.35C2.79487 9.45 2.89251 9.5 3.03896 9.5H3.1366L5.57751 9L5.57752 8.99999C5.67515 8.95 5.77278 8.9 5.8216 8.85L11.6798 2.85C11.8751 2.65 11.8751 2.35 11.6798 2.15L9.72705 0.15C9.53178 -0.05 9.23887 -0.05 9.0436 0.15L3.18542 6.15C3.08778 6.2 3.03896 6.3 3.03896 6.4L2.55078 8.9C2.55078 9.05 2.5996 9.25 2.69724 9.35ZM3.67306 8.34922L3.96597 6.74922L9.38479 1.19922L10.6541 2.49922L5.23525 8.04922L3.67306 8.34922Z" fill="#9B9B9B"/>
</svg>
