<svg width="144" height="24" viewBox="0 0 144 24" fill="none" xmlns="http://www.w3.org/2000/svg">
<path fill-rule="evenodd" clip-rule="evenodd" d="M24 12C24 18.6274 18.6274 24 12 24C5.37258 24 0 18.6274 0 12C0 5.37258 5.37258 0 12 0C18.6274 0 24 5.37258 24 12ZM7.50972 5.92449L7.90388 5.53033C8.19677 5.23744 8.67165 5.23744 8.96454 5.53033L10.8512 7.41704C11.1441 7.70993 11.1441 8.1848 10.8512 8.4777L9.53983 9.78912C9.3196 10.0093 9.265 10.3458 9.40429 10.6244C10.2095 12.2347 11.5153 13.5405 13.1256 14.3457C13.4042 14.485 13.7407 14.4304 13.9609 14.2102L15.2723 12.8988C15.5652 12.6059 16.0401 12.6059 16.333 12.8988L18.2197 14.7855C18.5126 15.0784 18.5126 15.5532 18.2197 15.8461L17.8255 16.2403C16.242 17.8238 13.7351 18.002 11.9435 16.6583L11.1425 16.0575C9.83483 15.0768 8.67322 13.9152 7.69248 12.6075L7.0917 11.8065C5.74804 10.0149 5.9262 7.50801 7.50972 5.92449Z" fill="#FFFCF0"/>
<path d="M60.017 17.9721C59.8499 17.7344 59.7664 17.4002 59.7664 16.9694V4H57.7156V17.0585C57.7156 17.8607 57.9207 18.5367 58.3309 19.0864C58.741 19.636 59.4246 19.9109 60.3816 19.9109C60.9893 19.9109 61.5437 19.8292 62.045 19.6657L61.9539 18.1727C61.6045 18.2618 61.2627 18.3064 60.9285 18.3064C60.5032 18.3064 60.1993 18.195 60.017 17.9721Z" fill="#FFFCF0"/>
<path d="M39.884 4.62395C40.5676 4.62395 41.2816 4.69081 42.0259 4.82451C42.7703 4.94336 43.3931 5.10678 43.8944 5.31476L43.5526 6.89694C43.0361 6.71866 42.4816 6.57753 41.8892 6.47354C41.2968 6.35469 40.7119 6.29526 40.1347 6.29526C38.2358 6.29526 36.7547 6.81523 35.6914 7.85515C34.628 8.89508 34.0963 10.3807 34.0963 12.312C34.0963 14.2433 34.628 15.7289 35.6914 16.7688C36.7547 17.8087 38.2358 18.3287 40.1347 18.3287C40.7119 18.3287 41.2968 18.2767 41.8892 18.1727C42.4816 18.0539 43.0361 17.9053 43.5526 17.727L43.8944 19.3092C43.3931 19.5172 42.7703 19.6806 42.0259 19.7994C41.2816 19.9331 40.5676 20 39.884 20C38.6384 20 37.5219 19.8069 36.5345 19.4206C35.5622 19.0344 34.7419 18.4995 34.0735 17.8162C33.4051 17.1328 32.8887 16.3231 32.5241 15.3872C32.1747 14.4513 32 13.4262 32 12.312C32 11.1978 32.1747 10.1727 32.5241 9.23677C32.8887 8.30084 33.4051 7.49118 34.0735 6.8078C34.7419 6.12442 35.5622 5.5896 36.5345 5.20334C37.5219 4.81708 38.6384 4.62395 39.884 4.62395Z" fill="#FFFCF0"/>
<path fill-rule="evenodd" clip-rule="evenodd" d="M52.5665 18.3955C52.3994 18.5887 52.1943 18.7818 51.9513 18.9749C51.7082 19.1532 51.4272 19.3166 51.1082 19.4652C50.8044 19.6137 50.4626 19.7326 50.0828 19.8217C49.7182 19.9109 49.3309 19.9554 48.9207 19.9554C48.465 19.9554 48.0472 19.8812 47.6675 19.7326C47.2877 19.5989 46.9611 19.4058 46.6877 19.1532C46.4142 18.9007 46.194 18.5887 46.0269 18.2173C45.875 17.8459 45.799 17.4373 45.799 16.9916C45.799 16.0111 46.1484 15.2683 46.8472 14.7632C47.5611 14.2581 48.5106 13.9684 49.6954 13.8942C50.1815 13.8644 50.66 13.8422 51.131 13.8273C51.6171 13.8124 52.0804 13.805 52.5209 13.805V13.337C52.5209 12.4308 52.3234 11.7252 51.9285 11.2201C51.5335 10.7001 50.8803 10.4401 49.9689 10.4401C49.4372 10.4401 48.9283 10.507 48.4422 10.6407C47.9713 10.7744 47.5156 10.9601 47.075 11.1978L46.5965 9.72702C47.1738 9.38533 47.7586 9.14763 48.351 9.01393C48.9587 8.88022 49.6195 8.81337 50.3334 8.81337C51.6247 8.81337 52.65 9.19963 53.4096 9.97215C54.1843 10.7447 54.5717 11.8514 54.5717 13.2925V19.7326H52.5665V18.3955ZM49.5131 18.4847C50.1056 18.4847 50.66 18.3584 51.1765 18.1058C51.693 17.8384 52.1412 17.5042 52.5209 17.1031V15.1198C52.0652 15.1495 51.6399 15.1792 51.2449 15.2089C50.8499 15.2386 50.455 15.2758 50.06 15.3203C49.741 15.35 49.4372 15.402 49.1486 15.4763C48.8751 15.5506 48.6321 15.6546 48.4194 15.7883C48.2219 15.9072 48.0624 16.0706 47.9409 16.2786C47.8346 16.4717 47.7814 16.7094 47.7814 16.9916C47.7814 17.4968 47.9333 17.8756 48.2371 18.1281C48.5409 18.3658 48.9663 18.4847 49.5131 18.4847Z" fill="#FFFCF0"/>
<path d="M66.0638 16.9694C66.0638 17.4002 66.1473 17.7344 66.3144 17.9721C66.4967 18.195 66.8005 18.3064 67.2258 18.3064C67.56 18.3064 67.9018 18.2618 68.2512 18.1727L68.3424 19.6657C67.8411 19.8292 67.2866 19.9109 66.679 19.9109C65.722 19.9109 65.0384 19.636 64.6282 19.0864C64.2181 18.5367 64.013 17.8607 64.013 17.0585V4H66.0638V16.9694Z" fill="#FFFCF0"/>
<path d="M83.7506 17.5933C84.0393 17.0882 84.1836 16.5163 84.1836 15.8774C84.1836 15.2089 84.0317 14.6221 83.7279 14.117C83.424 13.6119 83.0443 13.1736 82.5885 12.8022C82.1328 12.416 81.6315 12.0891 81.0847 11.8217C80.5378 11.5395 80.0213 11.2795 79.5352 11.0418C79.0491 10.8041 78.6313 10.5961 78.282 10.4178C77.9478 10.2247 77.6743 10.0316 77.4617 9.83844C77.2642 9.63046 77.1199 9.41504 77.0287 9.1922C76.9376 8.9545 76.892 8.67967 76.892 8.36769C76.892 6.97122 77.811 6.27298 79.6491 6.27298C80.2871 6.27298 80.9176 6.35469 81.5404 6.51811C82.1632 6.68152 82.7177 6.88951 83.2038 7.14206L83.5911 5.51532C83.0747 5.24791 82.467 5.0325 81.7682 4.86908C81.0847 4.70566 80.3783 4.62395 79.6491 4.62395C78.9352 4.62395 78.282 4.70566 77.6895 4.86908C77.0971 5.0325 76.5882 5.27762 76.1628 5.60446C75.7375 5.93129 75.4033 6.33983 75.1602 6.83008C74.9324 7.32033 74.8185 7.88487 74.8185 8.52368C74.8185 9.08821 74.9248 9.58589 75.1375 10.0167C75.3653 10.4327 75.6615 10.8115 76.0261 11.1532C76.3907 11.48 76.8084 11.7772 77.2794 12.0446C77.7655 12.2971 78.2668 12.5422 78.7832 12.7799C79.239 12.9879 79.6643 13.1885 80.0593 13.3816C80.4694 13.5747 80.8264 13.7976 81.1302 14.0501C81.434 14.2878 81.6695 14.5627 81.8366 14.8747C82.0189 15.1718 82.11 15.5357 82.11 15.9666C82.11 16.7391 81.8062 17.3333 81.1986 17.7493C80.591 18.1504 79.7934 18.351 78.806 18.351C78.1225 18.351 77.4389 18.2693 76.7553 18.1058C76.0869 17.9424 75.4717 17.7344 74.9096 17.4819L74.4995 19.1086C75.1375 19.4058 75.8362 19.6286 76.5958 19.7772C77.3705 19.9257 78.1225 20 78.8516 20C79.596 20 80.2871 19.9034 80.9252 19.7103C81.5784 19.5172 82.1404 19.2423 82.6113 18.8858C83.0974 18.5293 83.4772 18.0984 83.7506 17.5933Z" fill="#FFFCF0"/>
<path d="M85.4818 9.03621H87.4415V6.29526H89.4922V9.03621H93.0924V10.663H89.4922V16.1226C89.4922 16.4345 89.515 16.7317 89.5606 17.0139C89.6062 17.2813 89.6897 17.5116 89.8112 17.7047C89.9328 17.8979 90.0999 18.0539 90.3125 18.1727C90.5252 18.2767 90.8062 18.3287 91.1556 18.3287C91.7936 18.3287 92.3709 18.2321 92.8874 18.039L93.0697 19.5543C92.8266 19.6583 92.4772 19.7474 92.0215 19.8217C91.581 19.9109 91.148 19.9554 90.7227 19.9554C90.1302 19.9554 89.6289 19.8663 89.2188 19.688C88.8086 19.4949 88.4668 19.2349 88.1934 18.9081C87.9352 18.5664 87.7453 18.1653 87.6238 17.7047C87.5022 17.2442 87.4415 16.7391 87.4415 16.1894V10.663H85.4818V9.03621Z" fill="#FFFCF0"/>
<path fill-rule="evenodd" clip-rule="evenodd" d="M101.128 18.9749C101.372 18.7818 101.577 18.5887 101.744 18.3955V19.7326H103.749V13.2925C103.749 11.8514 103.362 10.7447 102.587 9.97215C101.827 9.19963 100.802 8.81337 99.5107 8.81337C98.7967 8.81337 98.1359 8.88022 97.5283 9.01393C96.9358 9.14763 96.351 9.38533 95.7737 9.72702L96.2523 11.1978C96.6928 10.9601 97.1485 10.7744 97.6194 10.6407C98.1055 10.507 98.6144 10.4401 99.1461 10.4401C100.058 10.4401 100.711 10.7001 101.106 11.2201C101.501 11.7252 101.698 12.4308 101.698 13.337V13.805C101.258 13.805 100.794 13.8124 100.308 13.8273C99.8373 13.8422 99.3588 13.8644 98.8727 13.8942C97.6878 13.9684 96.7383 14.2581 96.0244 14.7632C95.3256 15.2683 94.9762 16.0111 94.9762 16.9916C94.9762 17.4373 95.0522 17.8459 95.2041 18.2173C95.3712 18.5887 95.5914 18.9007 95.8649 19.1532C96.1383 19.4058 96.4649 19.5989 96.8447 19.7326C97.2245 19.8812 97.6422 19.9554 98.0979 19.9554C98.5081 19.9554 98.8954 19.9109 99.26 19.8217C99.6398 19.7326 99.9816 19.6137 100.285 19.4652C100.604 19.3166 100.885 19.1532 101.128 18.9749ZM100.354 18.1058C99.8373 18.3584 99.2828 18.4847 98.6904 18.4847C98.1435 18.4847 97.7182 18.3658 97.4143 18.1281C97.1105 17.8756 96.9586 17.4968 96.9586 16.9916C96.9586 16.7094 97.0118 16.4717 97.1181 16.2786C97.2396 16.0706 97.3992 15.9072 97.5966 15.7883C97.8093 15.6546 98.0524 15.5506 98.3258 15.4763C98.6144 15.402 98.9182 15.35 99.2372 15.3203C99.6322 15.2758 100.027 15.2386 100.422 15.2089C100.817 15.1792 101.242 15.1495 101.698 15.1198V17.1031C101.318 17.5042 100.87 17.8384 100.354 18.1058Z" fill="#FFFCF0"/>
<path d="M113.159 10.6852H112.635C111.83 10.6852 111.131 10.8338 110.539 11.1309C109.961 11.428 109.468 11.9109 109.058 12.5794V19.7326H107.007V9.03621H108.966V11.0864C109.285 10.3733 109.703 9.83101 110.22 9.45961C110.751 9.08821 111.45 8.90251 112.316 8.90251C112.65 8.90251 112.931 8.93965 113.159 9.01393V10.6852Z" fill="#FFFCF0"/>
<path d="M115.946 9.03621H113.987V10.663H115.946V16.1894C115.946 16.7391 116.007 17.2442 116.129 17.7047C116.25 18.1653 116.44 18.5664 116.698 18.9081C116.972 19.2349 117.314 19.4949 117.724 19.688C118.134 19.8663 118.635 19.9554 119.228 19.9554C119.653 19.9554 120.086 19.9109 120.526 19.8217C120.982 19.7474 121.332 19.6583 121.575 19.5543L121.392 18.039C120.876 18.2321 120.299 18.3287 119.661 18.3287C119.311 18.3287 119.03 18.2767 118.818 18.1727C118.605 18.0539 118.438 17.8979 118.316 17.7047C118.195 17.5116 118.111 17.2813 118.066 17.0139C118.02 16.7317 117.997 16.4345 117.997 16.1226V10.663H121.597V9.03621H117.997V6.29526H115.946V9.03621Z" fill="#FFFCF0"/>
<path fill-rule="evenodd" clip-rule="evenodd" d="M128.201 8.81337C128.899 8.81337 129.507 8.92479 130.024 9.14763C130.555 9.37047 130.996 9.67502 131.345 10.0613C131.71 10.4475 131.976 10.9081 132.143 11.4429C132.325 11.9629 132.416 12.5274 132.416 13.1365C132.416 13.7456 132.34 14.3473 132.188 14.9415H125.284C125.299 15.4615 125.375 15.9294 125.512 16.3454C125.649 16.7614 125.854 17.1253 126.127 17.4373C126.416 17.7344 126.78 17.9647 127.221 18.1281C127.677 18.2915 128.223 18.3733 128.861 18.3733C129.454 18.3733 130.008 18.3138 130.525 18.195C131.056 18.0761 131.543 17.9276 131.983 17.7493L132.257 19.2423C131.77 19.4652 131.201 19.636 130.548 19.7549C129.91 19.8886 129.249 19.9554 128.565 19.9554C127.654 19.9554 126.856 19.8143 126.173 19.532C125.504 19.2349 124.95 18.8412 124.509 18.351C124.069 17.8459 123.735 17.2591 123.507 16.5905C123.294 15.922 123.188 15.2015 123.188 14.429C123.188 13.6565 123.302 12.9285 123.529 12.2451C123.757 11.5617 124.084 10.9675 124.509 10.4624C124.95 9.94243 125.481 9.54132 126.104 9.25905C126.727 8.96193 127.426 8.81337 128.201 8.81337ZM128.132 10.3064C127.692 10.3064 127.304 10.3881 126.97 10.5515C126.636 10.7149 126.347 10.9378 126.104 11.2201C125.861 11.5023 125.671 11.8366 125.535 12.2228C125.398 12.5942 125.314 12.9879 125.284 13.4039H130.434C130.479 12.9879 130.472 12.5942 130.411 12.2228C130.35 11.8366 130.229 11.5023 130.046 11.2201C129.864 10.9378 129.613 10.7149 129.294 10.5515C128.975 10.3881 128.588 10.3064 128.132 10.3064Z" fill="#FFFCF0"/>
<path fill-rule="evenodd" clip-rule="evenodd" d="M142.063 19.7326H144V4H141.949V9.10306C141.63 9.01393 141.296 8.94707 140.947 8.90251C140.612 8.84308 140.225 8.81337 139.785 8.81337C138.995 8.81337 138.258 8.93965 137.574 9.1922C136.906 9.44475 136.321 9.81616 135.82 10.3064C135.318 10.7818 134.923 11.376 134.635 12.0891C134.361 12.7874 134.225 13.5822 134.225 14.4735C134.225 15.2758 134.323 16.0111 134.521 16.6797C134.734 17.3482 135.03 17.9276 135.41 18.4178C135.789 18.9081 136.238 19.2869 136.754 19.5543C137.27 19.8217 137.848 19.9554 138.486 19.9554C139.306 19.9554 140.005 19.792 140.582 19.4652C141.159 19.1383 141.653 18.7372 142.063 18.2618V19.7326ZM140.764 17.883C140.278 18.195 139.709 18.351 139.055 18.351C138.098 18.351 137.392 18.0019 136.936 17.3036C136.496 16.5905 136.275 15.6472 136.275 14.4735C136.275 13.1662 136.61 12.1634 137.278 11.4652C137.962 10.7669 138.873 10.4178 140.012 10.4178C140.377 10.4178 140.726 10.4401 141.061 10.4847C141.395 10.5292 141.691 10.6035 141.949 10.7075V16.8802C141.645 17.2368 141.25 17.571 140.764 17.883Z" fill="#FFFCF0"/>
</svg>
