<svg xmlns="http://www.w3.org/2000/svg" version="1.0" preserveAspectRatio="xMidYMid meet" viewBox="26.54 28 800.56 80.1">

<g transform="translate(0.000000,141.000000) scale(0.100000,-0.100000)" fill="#333333" stroke="none">
<path d="M555 1117 c-67 -23 -107 -47 -166 -104 -122 -117 -159 -304 -87 -451 30 -62 131 -162 190 -190 192 -89 406 -29 521 146 49 74 67 133 67 216 l0 56 -145 0 -145 0 0 -65 0 -65 70 0 c42 0 70 -4 70 -10 0 -21 -32 -72 -63 -101 -106 -100 -261 -105 -374 -13 -63 52 -87 103 -87 189 0 56 6 80 27 121 47 92 135 146 239 146 66 0 106 -13 156 -50 l34 -24 49 48 c46 45 48 49 32 66 -9 10 -50 35 -91 55 -67 33 -84 37 -166 40 -56 2 -106 -2 -131 -10z"/>
<path d="M1200 730 l0 -400 290 0 291 0 -3 67 -3 68 -217 3 -218 2 0 330 0 330 -70 0 -70 0 0 -400z"/>
<path d="M2163 1116 c-104 -34 -204 -123 -251 -224 -24 -51 -27 -69 -27 -167 0 -96 3 -116 24 -155 78 -150 219 -240 375 -240 200 0 379 150 406 341 24 170 -70 343 -228 421 -58 29 -77 33 -161 35 -61 2 -111 -2 -138 -11z m234 -157 c93 -45 164 -169 149 -261 -20 -124 -132 -217 -261 -218 -142 0 -265 116 -265 251 0 52 38 133 84 178 81 80 192 98 293 50z"/>
<path d="M2790 1065 l0 -65 150 0 c163 0 204 -9 234 -51 21 -30 21 -78 0 -108 -30 -42 -71 -51 -234 -51 l-150 0 0 -64 0 -65 196 -3 196 -3 29 -33 c34 -38 36 -65 9 -110 -11 -17 -21 -33 -22 -34 -2 -1 -93 -4 -203 -7 l-200 -6 -3 -68 -3 -68 208 3 c190 3 211 5 248 25 135 72 167 253 63 360 l-30 32 21 43 c41 86 24 198 -42 267 -60 63 -91 71 -289 71 l-178 0 0 -65z"/>
<path d="M3736 1122 c-3 -5 -48 -125 -100 -268 -52 -142 -105 -284 -117 -314 -11 -30 -34 -90 -50 -132 l-28 -78 72 0 72 0 41 113 c151 414 169 457 184 457 14 0 43 -71 184 -457 l41 -113 72 0 72 0 -25 67 c-13 38 -40 109 -60 158 -19 50 -74 198 -122 330 l-88 240 -71 3 c-39 2 -74 -1 -77 -6z"/>
<path d="M4310 730 l0 -400 280 0 281 0 -3 68 -3 67 -212 3 -213 2 0 330 0 330 -65 0 -65 0 0 -400z"/>
<path d="M5629 1112 c-178 -59 -288 -222 -277 -412 15 -250 272 -425 515 -352 39 12 93 38 121 59 l51 38 -48 48 -48 49 -37 -26 c-56 -38 -101 -49 -175 -44 -76 6 -116 23 -177 80 -68 63 -89 153 -59 255 52 175 277 243 430 128 20 -14 24 -12 69 34 l47 48 -36 27 c-104 79 -257 107 -376 68z"/>
<path d="M6336 882 c-49 -136 -102 -278 -117 -317 -15 -38 -41 -107 -58 -152 l-30 -83 72 0 72 0 49 133 c27 72 75 202 107 287 31 85 63 155 69 155 11 0 81 -178 188 -472 l37 -103 72 0 72 0 -39 107 c-21 60 -56 153 -78 208 -21 55 -69 187 -107 292 l-70 193 -75 0 -75 -1 -89 -247z"/>
<path d="M7000 730 l0 -400 285 0 285 0 0 70 0 70 -220 0 -220 0 0 330 0 330 -65 0 -65 0 0 -400z"/>
<path d="M7690 730 l0 -400 290 0 291 0 -3 67 -3 68 -217 3 -218 2 0 330 0 330 -70 0 -70 0 0 -400z"/>
</g>
</svg>
