<svg id="svg" version="1.1" xmlns="http://www.w3.org/2000/svg" xmlns:xlink="http://www.w3.org/1999/xlink" width="287" height="40.30710172744722" viewBox="0, 0, 400,40.30710172744722" fill="none"><g id="svgg">
<path id="path0" d="M135.007 4.575 C 134.889 4.717,134.633 4.834,134.438 4.836 C 134.225 4.837,134.159 4.887,134.273 4.961 C 134.411 5.050,134.399 5.143,134.232 5.298 C 134.058 5.459,134.000 5.462,134.000 5.312 C 134.000 5.202,133.954 5.157,133.898 5.214 C 133.841 5.270,133.961 5.676,134.163 6.116 C 134.862 7.639,135.489 9.329,135.620 10.044 C 135.667 10.297,135.771 10.545,135.853 10.595 C 135.934 10.645,136.000 10.833,136.000 11.012 C 136.000 11.191,136.066 11.468,136.146 11.627 C 136.943 13.205,136.782 13.892,135.230 15.521 C 133.749 17.076,133.686 17.413,134.594 18.926 C 136.013 21.290,137.703 23.157,139.917 24.805 C 140.558 25.282,141.171 25.744,141.279 25.831 C 142.766 27.033,144.044 27.159,144.885 26.187 C 145.998 24.900,146.811 24.333,147.544 24.333 C 148.206 24.333,149.852 24.797,150.112 25.056 C 150.172 25.117,150.430 25.167,150.685 25.167 C 150.939 25.167,151.193 25.242,151.250 25.333 C 151.307 25.425,151.532 25.500,151.750 25.500 C 151.968 25.500,152.193 25.575,152.250 25.667 C 152.307 25.758,152.480 25.834,152.635 25.834 C 152.790 25.835,153.131 25.947,153.394 26.084 C 153.657 26.221,153.964 26.333,154.078 26.333 C 154.321 26.333,155.261 27.199,155.370 27.524 C 155.468 27.816,156.000 27.419,156.000 27.053 C 156.000 26.921,156.061 26.851,156.136 26.898 C 156.362 27.037,156.364 25.534,156.139 25.128 C 156.024 24.920,155.945 24.694,155.965 24.625 C 155.984 24.556,155.925 24.500,155.833 24.500 C 155.742 24.500,155.667 24.406,155.667 24.290 C 155.667 24.175,155.514 23.985,155.327 23.868 C 155.140 23.751,155.039 23.572,155.103 23.469 C 155.173 23.355,155.143 23.328,155.027 23.400 C 154.910 23.472,154.727 23.289,154.554 22.926 C 154.399 22.600,154.216 22.333,154.148 22.333 C 154.080 22.333,152.138 20.458,149.833 18.167 C 147.528 15.875,145.573 14.000,145.488 14.000 C 145.403 14.000,145.333 13.904,145.333 13.787 C 145.333 13.670,145.202 13.454,145.042 13.307 C 144.881 13.160,144.563 12.791,144.333 12.486 C 144.104 12.181,142.630 10.640,141.058 9.060 C 139.486 7.481,138.243 6.146,138.295 6.094 C 138.346 6.042,138.262 6.000,138.106 6.000 C 137.950 6.000,137.773 5.869,137.712 5.708 C 137.594 5.395,137.235 4.984,137.089 4.994 C 136.730 5.018,136.658 4.965,136.701 4.708 C 136.769 4.304,135.326 4.191,135.007 4.575 M127.363 17.792 C 127.395 17.860,127.598 18.310,127.814 18.792 C 128.031 19.273,128.265 19.667,128.335 19.667 C 128.405 19.667,128.242 19.217,127.974 18.667 C 127.706 18.117,127.445 17.667,127.396 17.667 C 127.346 17.667,127.331 17.723,127.363 17.792 M128.501 20.014 C 128.501 20.144,128.691 20.475,128.922 20.750 L 129.342 21.250 128.986 20.583 C 128.556 19.776,128.500 19.710,128.501 20.014 M129.335 21.425 C 129.336 21.512,129.580 21.895,129.877 22.275 C 130.174 22.656,130.567 23.173,130.750 23.425 C 132.067 25.237,136.061 29.179,137.315 29.906 C 137.462 29.992,137.682 30.160,137.804 30.281 C 138.149 30.625,141.291 32.667,141.474 32.667 C 141.565 32.667,141.668 32.753,141.703 32.858 C 141.738 32.964,141.862 33.018,141.979 32.979 C 142.096 32.940,141.867 32.728,141.471 32.507 C 137.653 30.381,133.102 26.361,130.542 22.852 C 129.441 21.341,129.333 21.214,129.335 21.425 M142.583 33.250 C 142.767 33.381,143.010 33.569,143.125 33.668 C 143.240 33.766,143.333 33.777,143.333 33.692 C 143.333 33.527,142.598 32.997,142.381 33.005 C 142.309 33.008,142.400 33.118,142.583 33.250 " stroke="none" fill="#3e6dae" fill-rule="evenodd"></path>
<path id="path1" d="M126.944 17.444 C 126.883 17.506,126.833 17.806,126.833 18.111 C 126.833 18.417,126.758 18.667,126.667 18.667 C 126.568 18.667,126.500 19.278,126.500 20.167 C 126.500 21.056,126.432 21.667,126.333 21.667 C 126.236 21.667,126.167 22.222,126.167 23.000 C 126.167 24.074,126.118 24.333,125.917 24.333 C 125.713 24.333,125.667 24.611,125.667 25.833 C 125.667 26.722,125.599 27.333,125.500 27.333 C 125.403 27.333,125.333 27.889,125.333 28.667 C 125.333 29.444,125.264 30.000,125.167 30.000 C 125.064 30.000,125.000 30.879,125.000 32.304 C 125.000 34.678,125.206 35.333,125.951 35.333 C 126.050 35.333,126.174 35.446,126.227 35.583 C 126.356 35.919,127.917 35.918,128.561 35.582 C 128.906 35.402,129.586 35.333,131.019 35.333 C 132.229 35.333,133.000 35.268,133.000 35.167 C 133.000 35.064,133.858 35.000,135.240 35.000 C 136.554 35.000,137.523 34.931,137.583 34.833 C 137.643 34.737,138.531 34.667,139.682 34.667 C 141.302 34.667,141.695 34.620,141.773 34.417 C 141.831 34.265,142.084 34.167,142.417 34.167 C 142.861 34.167,143.387 33.743,143.129 33.592 C 143.104 33.578,142.880 33.438,142.631 33.283 C 142.382 33.127,142.063 33.000,141.923 33.000 C 141.782 33.000,141.667 32.925,141.667 32.833 C 141.667 32.742,141.586 32.667,141.488 32.667 C 141.295 32.667,138.164 30.640,137.804 30.281 C 137.682 30.160,137.462 29.992,137.315 29.906 C 136.061 29.179,132.067 25.237,130.750 23.425 C 130.567 23.173,130.174 22.656,129.877 22.275 C 129.580 21.895,129.336 21.522,129.335 21.447 C 129.334 21.372,129.146 21.065,128.917 20.765 C 128.688 20.464,128.500 20.094,128.500 19.943 C 128.500 19.791,128.437 19.667,128.360 19.667 C 128.284 19.667,127.982 19.142,127.690 18.500 C 127.135 17.281,127.124 17.265,126.944 17.444 " stroke="none" fill="#97cbec" fill-rule="evenodd"></path>
<path id="path2" d="M175.667 3.833 C 175.667 3.925,175.404 4.000,175.083 4.000 C 174.762 4.000,174.500 4.075,174.500 4.167 C 174.500 4.258,174.313 4.333,174.083 4.333 C 173.824 4.333,173.667 4.428,173.667 4.583 C 173.667 4.722,173.519 4.833,173.333 4.833 C 173.150 4.833,173.000 4.908,173.000 5.000 C 173.000 5.092,172.920 5.167,172.821 5.167 C 172.627 5.167,172.167 5.577,172.167 5.750 C 172.167 5.889,171.722 6.333,171.583 6.333 C 171.410 6.333,171.000 6.794,171.000 6.988 C 171.000 7.086,170.925 7.167,170.833 7.167 C 170.742 7.167,170.667 7.317,170.667 7.500 C 170.667 7.683,170.592 7.833,170.500 7.833 C 170.408 7.833,170.333 8.021,170.333 8.250 C 170.333 8.509,170.239 8.667,170.083 8.667 C 169.909 8.667,169.833 8.843,169.833 9.250 C 169.833 9.571,169.758 9.833,169.667 9.833 C 169.558 9.833,169.500 13.111,169.500 19.333 L 169.500 28.833 171.417 28.833 L 173.333 28.833 173.333 20.250 C 173.333 14.639,173.391 11.667,173.500 11.667 C 173.592 11.667,173.667 11.329,173.667 10.917 C 173.667 10.361,173.731 10.167,173.917 10.167 C 174.054 10.167,174.167 10.054,174.167 9.917 C 174.167 9.779,174.242 9.667,174.333 9.667 C 174.425 9.667,174.500 9.533,174.500 9.370 C 174.500 9.207,174.650 8.965,174.833 8.833 C 175.017 8.701,175.167 8.497,175.167 8.380 C 175.167 8.263,175.354 8.167,175.583 8.167 C 175.813 8.167,176.000 8.092,176.000 8.000 C 176.000 7.908,176.188 7.833,176.417 7.833 C 176.646 7.833,176.833 7.758,176.833 7.667 C 176.833 7.569,177.389 7.500,178.167 7.500 C 178.944 7.500,179.500 7.569,179.500 7.667 C 179.500 7.758,179.646 7.833,179.823 7.833 C 180.001 7.833,180.193 7.908,180.250 8.000 C 180.307 8.092,180.499 8.167,180.677 8.167 C 180.854 8.167,181.000 8.247,181.000 8.345 C 181.000 8.576,181.424 9.000,181.655 9.000 C 181.753 9.000,181.833 9.150,181.833 9.333 C 181.833 9.517,181.908 9.667,182.000 9.667 C 182.092 9.667,182.167 9.854,182.167 10.083 C 182.167 10.313,182.242 10.500,182.333 10.500 C 182.425 10.500,182.500 10.838,182.500 11.250 C 182.500 11.806,182.565 12.000,182.750 12.000 C 182.969 12.000,183.000 13.046,183.000 20.417 L 183.000 28.833 184.917 28.833 L 186.833 28.833 186.833 19.578 C 186.833 11.505,186.801 10.311,186.583 10.227 C 186.414 10.162,186.333 9.896,186.333 9.399 C 186.333 8.996,186.258 8.667,186.167 8.667 C 186.075 8.667,186.000 8.479,186.000 8.250 C 186.000 8.021,185.925 7.833,185.833 7.833 C 185.742 7.833,185.667 7.718,185.667 7.578 C 185.667 7.438,185.554 7.280,185.417 7.227 C 185.279 7.174,185.167 7.061,185.167 6.975 C 185.167 6.762,184.391 6.000,184.174 6.000 C 184.078 6.000,184.000 5.922,184.000 5.826 C 184.000 5.522,183.196 4.833,182.841 4.833 C 182.649 4.833,182.500 4.724,182.500 4.583 C 182.500 4.446,182.354 4.333,182.177 4.333 C 181.999 4.333,181.807 4.258,181.750 4.167 C 181.693 4.075,181.426 4.000,181.157 4.000 C 180.887 4.000,180.667 3.925,180.667 3.833 C 180.667 3.730,179.722 3.667,178.167 3.667 C 176.611 3.667,175.667 3.730,175.667 3.833 M234.333 5.917 L 234.333 7.833 237.417 7.833 L 240.500 7.833 240.500 18.333 L 240.500 28.833 242.583 28.833 L 244.667 28.833 244.667 18.333 L 244.667 7.833 247.750 7.833 L 250.833 7.833 250.833 5.917 L 250.833 4.000 242.583 4.000 L 234.333 4.000 234.333 5.917 M271.167 16.417 L 271.167 28.833 273.083 28.833 L 275.000 28.833 275.000 16.417 L 275.000 4.000 273.083 4.000 L 271.167 4.000 271.167 16.417 M131.167 5.333 C 131.167 5.425,130.840 5.500,130.440 5.500 C 129.859 5.500,129.650 5.584,129.400 5.917 C 129.228 6.146,128.987 6.333,128.864 6.333 C 128.575 6.333,127.667 7.241,127.667 7.531 C 127.667 7.654,127.479 7.895,127.250 8.067 C 127.021 8.239,126.833 8.520,126.833 8.690 C 126.833 8.861,126.758 9.000,126.667 9.000 C 126.575 9.000,126.500 9.262,126.500 9.583 C 126.500 9.904,126.425 10.167,126.333 10.167 C 126.230 10.167,126.167 11.111,126.167 12.667 C 126.167 14.222,126.230 15.167,126.333 15.167 C 126.425 15.167,126.500 15.504,126.500 15.917 C 126.500 16.329,126.575 16.667,126.667 16.667 C 126.758 16.667,126.833 16.771,126.833 16.898 C 126.833 17.025,126.959 17.119,127.113 17.106 C 127.306 17.090,127.632 17.550,128.168 18.594 C 129.213 20.628,129.531 21.181,129.875 21.568 C 130.035 21.749,130.167 21.952,130.167 22.020 C 130.167 22.087,130.260 22.242,130.375 22.363 C 130.490 22.484,130.916 23.029,131.322 23.574 C 132.537 25.205,135.706 28.287,137.500 29.582 C 138.004 29.946,138.442 30.302,138.472 30.372 C 138.503 30.442,138.634 30.500,138.764 30.500 C 138.894 30.500,139.000 30.558,139.000 30.629 C 139.000 30.700,139.262 30.899,139.583 31.072 C 139.904 31.244,140.167 31.449,140.167 31.526 C 140.167 31.603,140.240 31.667,140.330 31.667 C 140.420 31.667,140.904 31.929,141.405 32.250 C 141.907 32.571,142.399 32.833,142.498 32.833 C 142.764 32.833,143.500 33.346,143.500 33.531 C 143.500 33.884,144.013 34.167,144.655 34.167 C 145.147 34.167,145.333 34.235,145.333 34.417 C 145.333 34.629,145.759 34.667,148.167 34.667 C 150.574 34.667,151.000 34.629,151.000 34.417 C 151.000 34.242,151.176 34.167,151.583 34.167 C 151.904 34.167,152.167 34.092,152.167 34.000 C 152.167 33.908,152.320 33.833,152.508 33.833 C 152.862 33.833,153.667 33.145,153.667 32.841 C 153.667 32.745,153.745 32.667,153.841 32.667 C 154.067 32.667,154.833 31.900,154.833 31.674 C 154.833 31.578,154.903 31.500,154.988 31.500 C 155.696 31.500,155.973 28.009,155.293 27.645 C 155.088 27.535,154.725 27.251,154.488 27.014 C 154.233 26.759,153.599 26.452,152.937 26.262 C 152.321 26.086,151.779 25.880,151.732 25.804 C 151.685 25.729,151.500 25.667,151.321 25.667 C 151.142 25.667,150.865 25.600,150.706 25.518 C 149.904 25.106,147.510 24.475,147.163 24.584 C 146.956 24.650,146.200 25.252,145.484 25.922 C 144.768 26.592,144.029 27.188,143.842 27.247 C 143.520 27.349,141.830 26.597,141.694 26.292 C 141.664 26.223,141.566 26.167,141.477 26.167 C 140.644 26.167,136.498 22.214,135.038 20.028 C 133.303 17.431,133.302 17.237,134.998 15.408 C 136.501 13.786,136.592 13.205,135.672 11.083 C 135.593 10.900,135.329 10.150,135.086 9.417 C 134.605 7.964,134.425 7.496,134.068 6.778 C 133.939 6.519,133.833 6.125,133.833 5.903 C 133.833 5.530,133.770 5.500,133.000 5.500 C 132.542 5.500,132.167 5.425,132.167 5.333 C 132.167 5.242,131.942 5.167,131.667 5.167 C 131.392 5.167,131.167 5.242,131.167 5.333 M196.000 11.500 C 196.000 11.592,195.662 11.667,195.250 11.667 C 194.838 11.667,194.500 11.742,194.500 11.833 C 194.500 11.925,194.313 12.000,194.083 12.000 C 193.824 12.000,193.667 12.094,193.667 12.250 C 193.667 12.387,193.529 12.500,193.360 12.500 C 192.934 12.500,190.667 14.742,190.667 15.163 C 190.667 15.348,190.581 15.500,190.477 15.500 C 190.176 15.500,189.844 16.041,189.839 16.542 C 189.836 16.794,189.758 17.000,189.667 17.000 C 189.575 17.000,189.500 17.254,189.500 17.566 C 189.500 17.914,189.404 18.168,189.250 18.227 C 189.048 18.305,189.000 18.691,189.000 20.250 C 189.000 21.809,189.048 22.195,189.250 22.273 C 189.404 22.332,189.500 22.586,189.500 22.934 C 189.500 23.246,189.575 23.500,189.667 23.500 C 189.758 23.500,189.833 23.762,189.833 24.083 C 189.833 24.404,189.908 24.667,190.000 24.667 C 190.092 24.667,190.167 24.799,190.167 24.960 C 190.167 25.121,190.428 25.477,190.746 25.752 C 191.065 26.026,191.328 26.344,191.330 26.458 C 191.332 26.573,191.402 26.667,191.487 26.667 C 191.571 26.667,191.978 27.004,192.390 27.417 C 192.803 27.829,193.259 28.167,193.404 28.167 C 193.548 28.167,193.667 28.242,193.667 28.333 C 193.667 28.425,193.854 28.500,194.083 28.500 C 194.313 28.500,194.500 28.575,194.500 28.667 C 194.500 28.758,194.754 28.833,195.066 28.833 C 195.414 28.833,195.668 28.929,195.727 29.083 C 195.805 29.286,196.191 29.333,197.750 29.333 C 199.309 29.333,199.695 29.286,199.773 29.083 C 199.838 28.914,200.104 28.833,200.601 28.833 C 201.004 28.833,201.333 28.758,201.333 28.667 C 201.333 28.575,201.521 28.500,201.750 28.500 C 201.979 28.500,202.167 28.425,202.167 28.333 C 202.167 28.242,202.282 28.167,202.422 28.167 C 202.562 28.167,202.720 28.054,202.773 27.917 C 202.826 27.779,202.938 27.667,203.023 27.667 C 203.234 27.667,204.333 26.553,204.333 26.339 C 204.333 26.244,204.446 26.167,204.583 26.167 C 204.758 26.167,204.833 25.991,204.833 25.583 C 204.833 25.262,204.755 25.000,204.659 25.000 C 204.473 25.000,203.667 24.251,203.667 24.079 C 203.667 23.909,203.204 23.500,203.012 23.500 C 202.914 23.500,202.833 23.425,202.833 23.333 C 202.833 23.079,201.841 23.135,201.571 23.405 C 201.440 23.536,201.333 23.689,201.333 23.746 C 201.333 23.918,200.527 24.667,200.341 24.667 C 200.245 24.667,200.167 24.742,200.167 24.833 C 200.167 24.925,200.017 25.000,199.833 25.000 C 199.648 25.000,199.500 25.111,199.500 25.250 C 199.500 25.455,199.213 25.500,197.917 25.500 C 196.620 25.500,196.333 25.455,196.333 25.250 C 196.333 25.113,196.192 25.000,196.019 25.000 C 195.576 25.000,193.667 23.121,193.667 22.685 C 193.667 22.492,193.592 22.333,193.500 22.333 C 193.408 22.333,193.333 22.258,193.333 22.167 C 193.333 22.058,195.667 22.000,200.000 22.000 L 206.667 22.000 206.667 20.083 C 206.667 18.917,206.601 18.167,206.500 18.167 C 206.408 18.167,206.333 17.904,206.333 17.583 C 206.333 17.262,206.258 17.000,206.167 17.000 C 206.075 17.000,206.000 16.850,206.000 16.667 C 206.000 16.481,205.889 16.333,205.750 16.333 C 205.594 16.333,205.500 16.176,205.500 15.917 C 205.500 15.688,205.425 15.500,205.333 15.500 C 205.242 15.500,205.164 15.369,205.161 15.208 C 205.155 14.874,204.786 14.333,204.563 14.333 C 204.480 14.333,204.263 14.133,204.081 13.888 C 203.581 13.214,203.133 12.833,202.841 12.833 C 202.697 12.833,202.438 12.646,202.266 12.417 C 202.094 12.188,201.814 12.000,201.643 12.000 C 201.473 12.000,201.333 11.925,201.333 11.833 C 201.333 11.742,200.996 11.667,200.583 11.667 C 200.171 11.667,199.833 11.592,199.833 11.500 C 199.833 11.399,199.083 11.333,197.917 11.333 C 196.750 11.333,196.000 11.399,196.000 11.500 M258.500 11.500 C 258.500 11.592,258.162 11.667,257.750 11.667 C 257.337 11.667,257.000 11.742,257.000 11.833 C 257.000 11.925,256.848 12.000,256.661 12.000 C 256.475 12.000,256.280 12.112,256.227 12.250 C 256.174 12.387,256.006 12.500,255.852 12.500 C 255.699 12.500,255.465 12.650,255.333 12.833 C 255.201 13.017,254.997 13.167,254.880 13.167 C 254.763 13.167,254.667 13.237,254.667 13.322 C 254.667 13.408,254.517 13.525,254.333 13.583 C 254.150 13.642,254.000 13.834,254.000 14.011 C 254.000 14.188,253.920 14.333,253.821 14.333 C 253.591 14.333,253.167 14.757,253.167 14.988 C 253.167 15.086,253.092 15.167,253.000 15.167 C 252.908 15.167,252.833 15.309,252.833 15.482 C 252.833 15.656,252.721 15.841,252.583 15.894 C 252.446 15.946,252.333 16.142,252.333 16.328 C 252.333 16.514,252.258 16.667,252.167 16.667 C 252.075 16.667,252.000 16.929,252.000 17.250 C 252.000 17.571,251.925 17.833,251.833 17.833 C 251.730 17.833,251.667 18.747,251.667 20.240 C 251.667 21.665,251.735 22.689,251.833 22.750 C 251.925 22.807,252.000 23.074,252.000 23.343 C 252.000 23.613,252.075 23.833,252.167 23.833 C 252.258 23.833,252.333 24.021,252.333 24.250 C 252.333 24.509,252.428 24.667,252.583 24.667 C 252.732 24.667,252.833 24.820,252.833 25.047 C 252.833 25.255,252.983 25.535,253.167 25.667 C 253.350 25.799,253.500 26.040,253.500 26.203 C 253.500 26.367,253.612 26.500,253.750 26.500 C 253.887 26.500,254.000 26.580,254.000 26.679 C 254.000 26.949,254.441 27.333,254.750 27.333 C 255.059 27.333,255.500 27.718,255.500 27.988 C 255.500 28.086,255.650 28.167,255.833 28.167 C 256.017 28.167,256.167 28.242,256.167 28.333 C 256.167 28.425,256.354 28.500,256.583 28.500 C 256.813 28.500,257.000 28.575,257.000 28.667 C 257.000 28.758,257.254 28.833,257.566 28.833 C 257.914 28.833,258.168 28.929,258.227 29.083 C 258.305 29.286,258.691 29.333,260.250 29.333 C 261.809 29.333,262.195 29.286,262.273 29.083 C 262.332 28.929,262.586 28.833,262.934 28.833 C 263.246 28.833,263.500 28.758,263.500 28.667 C 263.500 28.575,263.730 28.500,264.012 28.500 C 264.523 28.500,265.000 28.184,265.000 27.845 C 265.000 27.747,265.154 27.667,265.343 27.667 C 265.866 27.667,267.333 26.142,267.333 25.598 C 267.333 25.158,266.686 24.333,266.341 24.333 C 266.245 24.333,266.167 24.277,266.166 24.208 C 266.166 24.140,265.989 23.877,265.772 23.625 C 265.148 22.900,264.625 23.009,263.576 24.083 C 263.068 24.603,262.534 25.000,262.341 25.000 C 262.149 25.000,262.000 25.109,262.000 25.250 C 262.000 25.456,261.694 25.500,260.250 25.500 C 259.117 25.500,258.500 25.437,258.500 25.321 C 258.500 25.048,258.057 24.667,257.740 24.667 C 257.438 24.667,256.667 23.876,256.667 23.565 C 256.667 23.463,256.479 23.239,256.250 23.067 C 256.021 22.895,255.833 22.585,255.833 22.377 L 255.833 22.000 262.333 22.000 L 268.833 22.000 268.833 19.667 C 268.833 18.222,268.770 17.333,268.667 17.333 C 268.575 17.333,268.500 17.108,268.500 16.833 C 268.500 16.558,268.425 16.333,268.333 16.333 C 268.242 16.333,268.167 16.178,268.167 15.988 C 268.167 15.619,267.806 15.167,267.512 15.167 C 267.414 15.167,267.333 15.007,267.333 14.811 C 267.333 14.486,266.588 13.667,266.292 13.667 C 266.223 13.667,266.167 13.554,266.167 13.417 C 266.167 13.278,266.019 13.167,265.833 13.167 C 265.650 13.167,265.500 13.092,265.500 13.000 C 265.500 12.908,265.387 12.833,265.250 12.833 C 265.112 12.833,265.000 12.758,265.000 12.667 C 265.000 12.575,264.850 12.500,264.667 12.500 C 264.481 12.500,264.333 12.389,264.333 12.250 C 264.333 12.094,264.176 12.000,263.917 12.000 C 263.688 12.000,263.500 11.925,263.500 11.833 C 263.500 11.742,263.237 11.667,262.917 11.667 C 262.596 11.667,262.333 11.592,262.333 11.500 C 262.333 11.399,261.583 11.333,260.417 11.333 C 259.250 11.333,258.500 11.399,258.500 11.500 M208.667 17.583 C 208.667 21.417,208.725 23.500,208.833 23.500 C 208.925 23.500,209.000 23.837,209.000 24.250 C 209.000 24.662,209.075 25.000,209.167 25.000 C 209.258 25.000,209.333 25.182,209.333 25.405 C 209.333 25.627,209.446 25.922,209.583 26.060 C 209.721 26.197,209.833 26.356,209.833 26.412 C 209.833 26.546,210.620 27.333,210.754 27.333 C 210.890 27.333,211.333 27.780,211.333 27.917 C 211.333 28.149,211.828 28.500,212.155 28.500 C 212.345 28.500,212.500 28.575,212.500 28.667 C 212.500 28.758,212.829 28.833,213.232 28.833 C 213.729 28.833,213.995 28.914,214.060 29.083 C 214.135 29.279,214.468 29.333,215.578 29.333 C 216.731 29.333,217.000 29.286,217.000 29.083 C 217.000 28.894,217.204 28.833,217.833 28.833 C 218.292 28.833,218.667 28.758,218.667 28.667 C 218.667 28.575,218.788 28.500,218.937 28.500 C 219.085 28.500,219.530 28.162,219.925 27.750 C 220.320 27.337,220.690 27.000,220.746 27.000 C 220.886 27.000,221.667 27.791,221.667 27.932 C 221.667 28.125,222.233 28.489,222.542 28.495 C 222.702 28.498,222.833 28.575,222.833 28.667 C 222.833 28.758,223.163 28.833,223.566 28.833 C 224.063 28.833,224.328 28.914,224.394 29.083 C 224.469 29.279,224.802 29.333,225.917 29.333 C 227.031 29.333,227.365 29.279,227.440 29.083 C 227.505 28.914,227.771 28.833,228.268 28.833 C 228.671 28.833,229.000 28.758,229.000 28.667 C 229.000 28.575,229.150 28.500,229.333 28.500 C 229.517 28.500,229.667 28.425,229.667 28.333 C 229.667 28.242,229.779 28.167,229.917 28.167 C 230.054 28.167,230.167 28.088,230.167 27.992 C 230.167 27.800,230.918 27.000,231.099 27.000 C 231.292 27.000,231.656 26.434,231.661 26.125 C 231.664 25.965,231.742 25.833,231.833 25.833 C 231.925 25.833,232.000 25.646,232.000 25.417 C 232.000 25.157,232.094 25.000,232.250 25.000 C 232.435 25.000,232.500 24.806,232.500 24.250 C 232.500 23.837,232.575 23.500,232.667 23.500 C 232.775 23.500,232.833 21.417,232.833 17.583 L 232.833 11.667 230.917 11.667 L 229.000 11.667 229.000 17.417 C 229.000 21.139,228.941 23.167,228.833 23.167 C 228.742 23.167,228.667 23.354,228.667 23.583 C 228.667 23.843,228.572 24.000,228.417 24.000 C 228.278 24.000,228.167 24.148,228.167 24.333 C 228.167 24.531,228.056 24.667,227.894 24.667 C 227.744 24.667,227.448 24.854,227.235 25.083 C 226.765 25.591,224.667 25.727,224.667 25.250 C 224.667 25.113,224.533 25.000,224.370 25.000 C 224.207 25.000,223.965 24.850,223.833 24.667 C 223.701 24.483,223.497 24.333,223.380 24.333 C 223.263 24.333,223.167 24.221,223.167 24.083 C 223.167 23.946,223.092 23.833,223.000 23.833 C 222.908 23.833,222.833 23.608,222.833 23.333 C 222.833 23.058,222.758 22.833,222.667 22.833 C 222.559 22.833,222.500 20.861,222.500 17.250 L 222.500 11.667 220.750 11.667 L 219.000 11.667 219.000 17.250 C 219.000 20.861,218.941 22.833,218.833 22.833 C 218.742 22.833,218.667 23.018,218.667 23.243 C 218.667 23.708,217.503 25.000,217.085 25.000 C 216.941 25.000,216.780 25.113,216.727 25.250 C 216.655 25.439,216.350 25.500,215.482 25.500 C 214.572 25.500,214.333 25.448,214.333 25.250 C 214.333 25.111,214.185 25.000,214.000 25.000 C 213.817 25.000,213.667 24.925,213.667 24.833 C 213.667 24.742,213.554 24.667,213.417 24.667 C 213.278 24.667,213.167 24.519,213.167 24.333 C 213.167 24.150,213.092 24.000,213.000 24.000 C 212.908 24.000,212.833 23.887,212.833 23.750 C 212.833 23.613,212.758 23.500,212.667 23.500 C 212.559 23.500,212.500 21.417,212.500 17.583 L 212.500 11.667 210.583 11.667 L 208.667 11.667 208.667 17.583 M198.333 14.917 C 198.333 15.091,198.509 15.167,198.917 15.167 C 199.237 15.167,199.500 15.242,199.500 15.333 C 199.500 15.425,199.650 15.500,199.833 15.500 C 200.017 15.500,200.167 15.575,200.167 15.667 C 200.167 15.758,200.354 15.833,200.583 15.833 C 200.813 15.833,201.000 15.929,201.000 16.047 C 201.000 16.164,201.150 16.368,201.333 16.500 C 201.517 16.632,201.667 16.874,201.667 17.037 C 201.667 17.200,201.779 17.333,201.917 17.333 C 202.072 17.333,202.167 17.491,202.167 17.750 C 202.167 17.979,202.242 18.167,202.333 18.167 C 202.425 18.167,202.500 18.242,202.500 18.333 C 202.500 18.440,200.861 18.500,197.917 18.500 C 194.972 18.500,193.333 18.440,193.333 18.333 C 193.333 18.242,193.408 18.167,193.500 18.167 C 193.592 18.167,193.667 18.013,193.667 17.826 C 193.667 17.638,193.835 17.304,194.042 17.084 C 194.248 16.863,194.507 16.585,194.617 16.466 C 194.976 16.079,195.316 15.833,195.493 15.833 C 195.589 15.833,195.667 15.758,195.667 15.667 C 195.667 15.575,195.817 15.500,196.000 15.500 C 196.183 15.500,196.333 15.425,196.333 15.333 C 196.333 15.242,196.596 15.167,196.917 15.167 C 197.324 15.167,197.500 15.091,197.500 14.917 C 197.500 14.761,197.657 14.667,197.917 14.667 C 198.176 14.667,198.333 14.761,198.333 14.917 M260.560 14.917 C 260.624 15.082,260.885 15.167,261.328 15.167 C 261.698 15.167,262.000 15.242,262.000 15.333 C 262.000 15.425,262.145 15.500,262.322 15.500 C 262.870 15.500,264.667 17.417,264.667 18.002 L 264.667 18.500 260.250 18.500 C 255.944 18.500,255.833 18.492,255.833 18.167 C 255.833 17.983,255.908 17.833,256.000 17.833 C 256.092 17.833,256.167 17.646,256.167 17.417 C 256.167 17.188,256.245 17.000,256.341 17.000 C 256.567 17.000,257.333 16.234,257.333 16.008 C 257.333 15.912,257.504 15.833,257.713 15.833 C 257.922 15.833,258.201 15.683,258.333 15.500 C 258.509 15.256,258.765 15.167,259.287 15.167 C 259.810 15.167,260.000 15.100,260.000 14.917 C 260.000 14.779,260.104 14.667,260.232 14.667 C 260.360 14.667,260.508 14.779,260.560 14.917 " stroke="none" fill="#333333" fill-rule="evenodd"></path>
<path id="path3" d="M137.429 5.294 C 137.527 5.362,137.656 5.548,137.715 5.708 C 137.774 5.869,137.950 6.000,138.106 6.000 C 138.262 6.000,138.346 6.042,138.295 6.094 C 138.243 6.146,139.486 7.481,141.058 9.060 C 142.630 10.640,144.104 12.181,144.333 12.486 C 144.563 12.791,144.881 13.160,145.042 13.307 C 145.202 13.454,145.333 13.670,145.333 13.787 C 145.333 13.904,145.403 14.000,145.488 14.000 C 145.573 14.000,147.528 15.875,149.833 18.167 C 152.138 20.458,154.085 22.333,154.159 22.333 C 154.232 22.333,154.383 22.551,154.493 22.817 C 154.718 23.360,155.500 24.168,155.500 23.857 C 155.500 23.747,155.390 23.614,155.256 23.563 C 155.122 23.511,154.962 23.307,154.900 23.110 C 154.748 22.625,154.236 21.986,154.105 22.117 C 154.047 22.175,154.000 22.055,154.000 21.851 C 154.000 21.647,153.937 21.519,153.860 21.567 C 153.782 21.615,152.851 20.775,151.791 19.702 C 150.730 18.628,148.759 16.662,147.411 15.333 C 146.062 14.004,144.640 12.504,144.249 12.000 C 143.859 11.496,143.287 10.850,142.978 10.566 C 141.911 9.582,138.821 6.333,138.952 6.333 C 139.024 6.332,138.858 6.195,138.583 6.026 C 138.308 5.858,137.980 5.596,137.855 5.444 C 137.729 5.291,137.541 5.168,137.438 5.169 C 137.307 5.171,137.304 5.209,137.429 5.294 M129.667 21.667 C 129.862 21.942,130.060 22.167,130.106 22.167 C 130.152 22.167,130.029 21.942,129.833 21.667 C 129.638 21.392,129.440 21.167,129.394 21.167 C 129.348 21.167,129.471 21.392,129.667 21.667 M137.000 22.385 C 137.000 22.414,137.244 22.658,137.542 22.927 L 138.083 23.417 137.594 22.875 C 137.138 22.370,137.000 22.257,137.000 22.385 M147.208 24.453 C 147.460 24.491,147.873 24.491,148.125 24.453 C 148.377 24.415,148.171 24.383,147.667 24.383 C 147.162 24.383,146.956 24.415,147.208 24.453 M133.667 26.583 C 133.978 26.904,134.270 27.167,134.315 27.167 C 134.361 27.167,134.144 26.904,133.833 26.583 C 133.522 26.262,133.230 26.000,133.185 26.000 C 133.139 26.000,133.356 26.262,133.667 26.583 M143.297 27.051 C 143.528 27.155,143.737 27.162,143.830 27.070 C 143.922 26.977,143.772 26.909,143.449 26.898 C 142.953 26.881,142.943 26.892,143.297 27.051 " stroke="none" fill="#3c5c84" fill-rule="evenodd"></path>
<path id="path4" d="M136.835 4.641 C 136.837 4.701,137.080 4.921,137.377 5.129 C 138.580 5.975,139.044 6.333,138.935 6.333 C 138.816 6.333,141.987 9.652,142.978 10.566 C 143.287 10.850,143.859 11.496,144.249 12.000 C 144.640 12.504,146.062 14.004,147.411 15.333 C 148.759 16.662,150.730 18.628,151.791 19.702 C 152.851 20.775,153.782 21.615,153.860 21.567 C 153.937 21.519,154.000 21.647,154.000 21.851 C 154.000 22.055,154.047 22.175,154.105 22.117 C 154.221 22.001,154.833 22.709,154.833 22.959 C 154.833 23.130,155.378 23.667,155.552 23.667 C 155.612 23.667,155.536 23.404,155.383 23.083 C 155.230 22.762,155.044 22.500,154.969 22.500 C 154.894 22.500,154.833 22.387,154.833 22.250 C 154.833 22.113,154.758 22.000,154.667 22.000 C 154.575 22.000,154.500 21.850,154.500 21.667 C 154.500 21.483,154.425 21.333,154.333 21.333 C 154.242 21.333,154.167 21.224,154.167 21.091 C 154.167 20.958,153.979 20.661,153.750 20.432 C 153.521 20.203,153.333 19.896,153.333 19.750 C 153.333 19.604,153.146 19.297,152.917 19.068 C 152.688 18.839,152.500 18.559,152.500 18.446 C 152.500 18.333,152.350 18.132,152.167 18.000 C 151.983 17.868,151.833 17.683,151.833 17.588 C 151.832 17.494,151.495 17.045,151.083 16.590 C 150.671 16.136,150.333 15.708,150.333 15.640 C 150.333 15.571,150.146 15.328,149.917 15.098 C 149.688 14.869,149.500 14.638,149.500 14.583 C 149.500 14.414,148.691 13.667,148.508 13.667 C 148.412 13.667,148.333 13.588,148.333 13.492 C 148.333 13.266,147.567 12.500,147.341 12.500 C 147.245 12.500,147.167 12.422,147.167 12.326 C 147.167 12.154,146.424 11.333,146.269 11.333 C 146.225 11.333,145.735 10.883,145.180 10.333 C 144.625 9.783,144.114 9.333,144.044 9.333 C 143.974 9.333,143.654 9.108,143.333 8.833 C 143.012 8.559,142.703 8.334,142.646 8.334 C 142.589 8.334,142.255 8.071,141.905 7.750 C 141.555 7.429,141.133 7.167,140.967 7.167 C 140.802 7.167,140.667 7.054,140.667 6.917 C 140.667 6.779,140.554 6.667,140.417 6.667 C 140.279 6.667,140.167 6.592,140.167 6.500 C 140.167 6.408,140.017 6.333,139.833 6.333 C 139.650 6.333,139.500 6.258,139.500 6.167 C 139.500 6.075,139.369 5.999,139.208 5.997 C 139.048 5.996,138.740 5.808,138.524 5.580 C 138.308 5.353,138.027 5.167,137.899 5.167 C 137.771 5.167,137.666 5.110,137.665 5.042 C 137.665 4.973,137.477 4.830,137.249 4.724 C 137.020 4.618,136.834 4.581,136.835 4.641 M133.837 6.111 C 133.835 6.219,133.939 6.519,134.068 6.778 C 134.425 7.496,134.605 7.964,135.086 9.417 C 135.329 10.150,135.593 10.900,135.672 11.083 C 136.592 13.205,136.501 13.786,134.998 15.408 C 133.722 16.783,133.521 17.246,133.851 18.045 C 134.275 19.074,136.614 22.333,136.928 22.333 C 136.989 22.333,136.762 22.027,136.423 21.652 C 135.694 20.844,134.415 18.902,134.071 18.080 C 133.718 17.234,133.910 16.767,135.126 15.522 C 136.233 14.389,136.500 13.945,136.500 13.243 C 136.500 12.833,135.290 8.986,134.995 8.461 C 134.906 8.301,134.833 8.025,134.833 7.845 C 134.833 7.666,134.758 7.473,134.667 7.417 C 134.575 7.360,134.498 7.187,134.496 7.032 C 134.492 6.714,133.843 5.808,133.837 6.111 M127.511 17.583 C 127.511 17.675,127.621 17.896,127.755 18.074 C 127.890 18.251,128.000 18.322,128.000 18.230 C 128.000 18.139,127.890 17.918,127.755 17.740 C 127.621 17.562,127.511 17.492,127.511 17.583 M129.019 20.498 C 129.224 20.864,129.420 21.136,129.453 21.102 C 129.525 21.031,128.836 19.833,128.723 19.833 C 128.680 19.833,128.813 20.132,129.019 20.498 M137.993 23.486 C 138.983 24.452,141.211 26.167,141.477 26.167 C 141.566 26.167,141.664 26.223,141.694 26.292 C 141.833 26.604,143.521 27.349,143.851 27.244 C 144.043 27.183,144.737 26.628,145.392 26.010 C 146.047 25.391,146.733 24.801,146.917 24.698 C 147.211 24.532,147.216 24.510,146.955 24.505 C 146.792 24.502,146.230 24.920,145.705 25.433 C 143.961 27.137,143.742 27.264,143.084 26.950 C 142.166 26.513,139.743 24.868,138.795 24.039 C 137.301 22.732,137.030 22.545,137.993 23.486 M131.314 23.806 C 131.500 24.067,131.783 24.385,131.944 24.515 C 132.105 24.644,131.983 24.431,131.674 24.042 C 131.038 23.242,130.802 23.087,131.314 23.806 M148.000 24.572 C 148.000 24.611,148.544 24.805,149.208 25.002 C 149.873 25.200,150.547 25.430,150.706 25.514 C 150.865 25.598,151.142 25.667,151.321 25.667 C 151.500 25.667,151.685 25.729,151.732 25.804 C 151.779 25.880,152.316 26.084,152.925 26.259 C 153.658 26.468,154.230 26.761,154.612 27.121 C 155.274 27.746,155.418 27.803,155.173 27.345 C 154.979 26.982,154.128 26.333,153.847 26.333 C 153.745 26.333,153.532 26.268,153.373 26.189 C 153.042 26.024,152.287 25.760,151.083 25.388 C 150.625 25.246,150.100 25.074,149.917 25.005 C 148.792 24.582,148.000 24.403,148.000 24.572 M156.000 24.823 C 156.000 24.910,156.075 25.027,156.167 25.083 C 156.258 25.140,156.345 25.501,156.360 25.885 C 156.385 26.535,156.391 26.544,156.456 26.019 C 156.538 25.345,156.391 24.667,156.163 24.667 C 156.074 24.667,156.000 24.737,156.000 24.823 M133.130 25.750 C 133.227 25.933,133.591 26.346,133.939 26.667 C 134.514 27.196,134.024 26.566,133.032 25.500 C 132.990 25.454,133.034 25.567,133.130 25.750 M134.667 27.317 C 134.667 27.396,135.004 27.736,135.417 28.074 C 135.829 28.412,136.167 28.661,136.167 28.626 C 136.167 28.591,135.829 28.251,135.417 27.869 C 135.004 27.487,134.667 27.239,134.667 27.317 M136.667 29.061 C 136.667 29.106,136.892 29.304,137.167 29.500 C 137.442 29.696,137.667 29.819,137.667 29.773 C 137.667 29.727,137.442 29.529,137.167 29.333 C 136.892 29.138,136.667 29.015,136.667 29.061 M137.833 29.958 C 137.833 30.029,137.983 30.180,138.167 30.295 C 138.350 30.409,138.500 30.445,138.500 30.375 C 138.500 30.304,138.350 30.153,138.167 30.039 C 137.983 29.924,137.833 29.888,137.833 29.958 M140.869 32.083 C 141.206 32.313,141.541 32.500,141.613 32.500 C 141.685 32.500,141.468 32.313,141.131 32.083 C 140.794 31.854,140.459 31.667,140.387 31.667 C 140.315 31.667,140.532 31.854,140.869 32.083 M142.875 33.126 C 143.127 33.283,143.339 33.524,143.346 33.664 C 143.357 33.867,143.378 33.871,143.452 33.684 C 143.543 33.454,142.909 32.840,142.583 32.841 C 142.492 32.842,142.623 32.970,142.875 33.126 " stroke="none" fill="#345480" fill-rule="evenodd">
</path></g></svg>
