<svg width="36" xmlns="http://www.w3.org/2000/svg" fill="none" viewBox="0 0 36 18">
  <path fill="#249D3D" fill-rule="evenodd" d="M9 0h18a9 9 0 110 18H9A9 9 0 119 0zm3.09 3.277c-.672.224-1.162.93-1.081 1.66.587 5.28 4.776 9.473 10.053 10.062.707.02 1.377-.228 1.635-1.003l.258-.774a.878.878 0 00-.506-1.092l-2.544-1.018a1.753 1.753 0 00-1.892.388l-.513.514a9.698 9.698 0 01-3.508-3.51l.513-.514a1.756 1.756 0 00.389-1.893l-1.018-2.545a.877.877 0 00-1.091-.507l-.695.232zM19 8.5A1.5 1.5 0 0017.5 7a.5.5 0 000 1 .5.5 0 01.5.5.5.5 0 001 0zm2 0A3.5 3.5 0 0017.5 5a.5.5 0 000 1A2.5 2.5 0 0120 8.5a.5.5 0 001 0zm2 0A5.5 5.5 0 0017.5 3a.5.5 0 000 1A4.5 4.5 0 0122 8.5a.5.5 0 001 0z" clip-rule="evenodd"/>
</svg>
