<svg width="112" height="24" viewBox="0 0 112 24" fill="none" xmlns="http://www.w3.org/2000/svg">
<path fill-rule="evenodd" clip-rule="evenodd" d="M0 23.9971V0H24V23.9971H17.3492C15.3878 23.9956 13.5073 23.216 12.1201 21.8294C10.733 20.4428 9.95266 18.5625 9.95038 16.6012V14.0669H8.58109V9.96764H9.95038V7.61165L14.0496 6.85509V9.96764H19.9008V4.09925H4.09924V19.8979H10.0252V23.9971H0ZM17.3492 19.8979H19.9008V14.0669H14.0496V16.6012C14.0504 17.4758 14.3983 18.3143 15.017 18.9325C15.6357 19.5506 16.4746 19.8979 17.3492 19.8979Z" fill="#333333"/>
<path d="M103.021 5.16313V16.1759C103.019 16.1965 103.021 16.2172 103.028 16.2368C103.035 16.2564 103.046 16.2744 103.06 16.2894C103.075 16.3045 103.093 16.3163 103.113 16.324C103.132 16.3317 103.154 16.3351 103.175 16.3341H104.347C104.37 16.3373 104.392 16.3354 104.414 16.3286C104.435 16.3218 104.454 16.3102 104.47 16.2948C104.486 16.2795 104.498 16.2607 104.505 16.2401C104.512 16.2194 104.514 16.1975 104.511 16.1759V12.5293H105.517C105.958 12.5231 106.392 12.6323 106.775 12.8456C107.157 13.0588 107.473 13.368 107.688 13.7406L109.298 16.1759C109.324 16.2198 109.361 16.2571 109.404 16.2846C109.448 16.3121 109.498 16.3291 109.55 16.3341H110.833C110.941 16.3341 111 16.3119 111 16.2708C111.001 16.2218 110.985 16.1739 110.954 16.1348L109.308 13.5825C108.651 12.5704 107.897 12.0042 107.048 11.8841C107.861 11.7512 108.56 11.2357 109.135 10.3406L110.729 7.86731C110.82 7.73448 110.781 7.66806 110.615 7.66806H109.308C109.255 7.67552 109.205 7.69449 109.161 7.72352C109.117 7.75256 109.08 7.79091 109.053 7.83569L107.538 10.1825C107.321 10.5537 107.005 10.8618 106.623 11.0749C106.241 11.2879 105.807 11.398 105.366 11.3938H104.524V5.16313C104.524 5.05243 104.471 4.99867 104.36 4.99867H103.188C103.165 4.99665 103.142 4.99955 103.121 5.00715C103.1 5.01476 103.08 5.02687 103.064 5.04261C103.048 5.05836 103.036 5.07734 103.029 5.09818C103.021 5.11903 103.019 5.14121 103.021 5.16313Z" fill="#333333"/>
<path d="M84.2394 13.0132V5.16313C84.2394 5.05243 84.2917 4.99867 84.4027 4.99867H85.5784C85.6862 4.99867 85.7417 5.05243 85.7417 5.16313V7.66806H89.1513C89.2623 7.66806 89.3146 7.72499 89.3146 7.83569V8.6422C89.3146 8.75289 89.2623 8.80666 89.1513 8.80666H85.7417V13.0132C85.7417 13.8133 85.9311 14.4174 86.3165 14.8254C86.52 15.0339 86.7681 15.1968 87.0434 15.3028C87.3186 15.4088 87.6145 15.4553 87.9103 15.439C88.4568 15.4471 89.001 15.367 89.5203 15.2018L89.7555 15.1164C89.8632 15.0721 89.9188 15.1164 89.9188 15.2493V16.04C89.9161 16.0873 89.8993 16.1329 89.8703 16.1711C89.8412 16.2093 89.8014 16.2385 89.7555 16.255C89.1125 16.482 88.4311 16.5893 87.747 16.5713C87.2732 16.5934 86.8001 16.5174 86.3591 16.3483C85.9182 16.1792 85.5195 15.921 85.1898 15.5908C84.5367 14.8853 84.1955 13.9598 84.2394 13.0132Z" fill="#333333"/>
<path d="M32.0019 13.9525C31.9994 13.9735 31.9994 13.9948 32.0019 14.0158C32.213 14.7935 32.7222 15.4642 33.4258 15.8913C34.3111 16.3861 35.3245 16.6244 36.3455 16.5776C37.556 16.5776 38.4999 16.351 39.177 15.8976C39.4863 15.7152 39.7418 15.4588 39.9192 15.153C40.0965 14.8473 40.1895 14.5025 40.1894 14.1518C40.1916 12.8867 39.2989 12.0485 37.5114 11.6374L35.4212 11.1566C34.933 11.0672 34.47 10.8786 34.0626 10.6031C33.9355 10.5022 33.8339 10.3745 33.7654 10.2298C33.697 10.0852 33.6634 9.92726 33.6675 9.76815C33.6748 9.58882 33.7317 9.41469 33.8322 9.26392C33.9327 9.11315 34.0732 8.99128 34.239 8.91103C34.7581 8.64702 35.3423 8.52665 35.9274 8.56313C37.212 8.56313 38.1319 9.04809 38.6871 10.018C38.7524 10.1287 38.8177 10.1825 38.883 10.1825H39.9347C40.0816 10.1825 40.1404 10.1161 40.1077 9.98638C39.8914 9.22047 39.3915 8.55848 38.7034 8.12666C37.8595 7.62942 36.8816 7.38716 35.8948 7.43085C34.7256 7.43296 33.8144 7.65962 33.1612 8.11085C32.8591 8.29889 32.6108 8.5578 32.4395 8.86356C32.2682 9.16932 32.1795 9.51202 32.1815 9.85987C32.1815 11.1081 33.0742 11.9431 34.8595 12.3648L36.9497 12.855C37.4393 12.9379 37.9035 13.126 38.3083 13.4053C38.436 13.5071 38.5381 13.6358 38.6066 13.7816C38.6751 13.9275 38.7082 14.0865 38.7034 14.2466C38.6959 14.4263 38.6382 14.6007 38.5364 14.7511C38.4346 14.9015 38.2925 15.0223 38.1254 15.1006C37.5747 15.3609 36.9635 15.4776 36.352 15.439C34.9586 15.439 33.9842 14.9541 33.429 13.9841C33.3572 13.8798 33.2919 13.826 33.2266 13.826H32.1815C32.0639 13.826 32.0019 13.8703 32.0019 13.9525Z" fill="#333333"/>
<path fill-rule="evenodd" clip-rule="evenodd" d="M40.3592 12.0011C40.3614 13.477 40.7576 14.6072 41.548 15.3916C41.9472 15.7846 42.4268 16.0925 42.956 16.2956C43.4852 16.4988 44.0523 16.5927 44.6212 16.5713C45.4827 16.5832 46.3369 16.416 47.1261 16.0811V18.8327C47.124 18.8551 47.1271 18.8776 47.1351 18.8987C47.1431 18.9198 47.1559 18.9389 47.1724 18.9546C47.189 18.9703 47.209 18.9823 47.2309 18.9897C47.2528 18.997 47.2761 18.9996 47.2992 18.9972H48.4651C48.4882 18.9996 48.5115 18.997 48.5334 18.9897C48.5553 18.9823 48.5753 18.9703 48.5918 18.9546C48.6084 18.9389 48.6211 18.9198 48.6292 18.8987C48.6372 18.8776 48.6403 18.8551 48.6382 18.8327V8.3955L48.181 8.15829C47.7306 7.93909 47.2532 7.77647 46.7603 7.67438C46.0875 7.511 45.3964 7.42919 44.7028 7.43085C44.1219 7.40728 43.5423 7.5005 43.0004 7.70463C42.4586 7.90876 41.9663 8.21937 41.5545 8.61689C40.7555 9.39705 40.357 10.5251 40.3592 12.0011ZM41.8615 12.0106C41.8615 10.8656 42.1326 10.0054 42.6747 9.42973C42.954 9.1392 43.2953 8.91115 43.6749 8.76148C44.0545 8.61181 44.4633 8.54412 44.8726 8.56313C45.2496 8.56439 45.6252 8.60576 45.9928 8.68647C46.2827 8.74194 46.5677 8.81914 46.8452 8.91736C46.9431 8.95013 47.0372 8.99252 47.1261 9.04387V14.9583C46.3824 15.2837 45.5743 15.4477 44.7583 15.439C44.366 15.4525 43.9753 15.3827 43.6137 15.2347C43.2521 15.0866 42.9283 14.8639 42.6649 14.5819C42.1293 14.0126 41.8615 13.1555 41.8615 12.0106Z" fill="#333333"/>
<path d="M50.3038 12.7665V7.83569C50.3014 7.81392 50.3039 7.79191 50.3111 7.77117C50.3184 7.75043 50.3301 7.73145 50.3456 7.71552C50.3612 7.6996 50.38 7.68712 50.401 7.67892C50.422 7.67073 50.4445 7.66702 50.4671 7.66806H51.6428C51.7506 7.66806 51.8061 7.72499 51.8061 7.83569V12.7665C51.7573 13.4871 52.0037 14.1973 52.4919 14.7432C52.714 14.9718 52.9838 15.1521 53.2834 15.2721C53.5829 15.3921 53.9054 15.449 54.2294 15.439C54.5548 15.4378 54.8771 15.3777 55.1797 15.2619C55.4595 15.1618 55.7226 15.0221 55.9603 14.8476C56.158 14.697 56.3436 14.5321 56.5155 14.3542C56.842 14.0221 56.989 13.8197 56.989 13.7469V7.83569C56.986 7.81381 56.9881 7.79157 56.9952 7.77057C57.0022 7.74958 57.0139 7.73036 57.0296 7.71431C57.0452 7.69826 57.0643 7.68578 57.0855 7.67778C57.1068 7.66978 57.1296 7.66646 57.1523 7.66806H58.3248C58.4358 7.66806 58.488 7.72499 58.488 7.83569V16.176C58.4914 16.1975 58.4894 16.2194 58.4824 16.2401C58.4753 16.2607 58.4634 16.2795 58.4475 16.2948C58.4317 16.3102 58.4123 16.3218 58.391 16.3286C58.3696 16.3354 58.347 16.3373 58.3248 16.3341H57.394C57.3712 16.3363 57.3482 16.3339 57.3265 16.3269C57.3047 16.32 57.2847 16.3087 57.2678 16.2938C57.2509 16.2788 57.2374 16.2607 57.2282 16.2404C57.2189 16.2201 57.2142 16.1981 57.2144 16.176L57.0674 15.2809C56.9432 15.4387 56.7983 15.5801 56.6363 15.7015C56.441 15.8633 56.2299 16.0063 56.006 16.1285C55.4371 16.4342 54.795 16.5892 54.1444 16.5776C53.6367 16.596 53.1303 16.5156 52.6552 16.3413C52.1801 16.1669 51.7459 15.902 51.3783 15.5624C50.6619 14.8855 50.3038 13.9536 50.3038 12.7665Z" fill="#333333"/>
<path fill-rule="evenodd" clip-rule="evenodd" d="M59.7182 14.939C59.8821 15.2889 60.1286 15.5967 60.4378 15.8375C61.1788 16.3654 62.0863 16.627 63.0047 16.5776C63.6968 16.5889 64.3811 16.4347 64.9969 16.1285C65.2353 16.0075 65.4598 15.8622 65.6664 15.6952C65.8303 15.5783 65.9756 15.4387 66.0975 15.2809L66.2445 16.176C66.2457 16.1986 66.2516 16.2207 66.2619 16.241C66.2722 16.2613 66.2866 16.2794 66.3043 16.2942C66.322 16.309 66.3426 16.3201 66.3649 16.327C66.3872 16.3338 66.4106 16.3363 66.4339 16.3341H67.3483C67.4627 16.3341 67.5182 16.2803 67.5182 16.176V10.989C67.5247 9.8567 67.1829 8.98061 66.4927 8.36071C65.8025 7.7408 64.8108 7.43085 63.5175 7.43085C62.654 7.39448 61.8012 7.62728 61.0844 8.09503C60.7828 8.29532 60.53 8.55706 60.3438 8.86193C60.1577 9.16679 60.0426 9.50739 60.0067 9.85987C59.9969 9.96424 60.0524 10.018 60.1765 10.018H61.2314C61.2782 10.0186 61.3236 10.003 61.3596 9.97404C61.3955 9.94504 61.4195 9.90454 61.4273 9.85987C61.5651 9.47648 61.8304 9.14828 62.1817 8.92685C62.5779 8.67566 63.0442 8.54867 63.5175 8.56313C65.1918 8.56524 66.0289 9.37385 66.0289 10.989V11.0681H63.1811C62.0293 11.0681 61.1269 11.3147 60.4737 11.8081C60.1565 12.0441 59.9021 12.3501 59.7317 12.7005C59.5613 13.0509 59.4798 13.4357 59.4939 13.8228C59.4774 14.2068 59.5542 14.5891 59.7182 14.939ZM61.1083 14.4911C61.0134 14.282 60.9716 14.054 60.9864 13.826C60.9864 12.7464 61.7093 12.2067 63.155 12.2067H66.0028V13.7406C65.9697 13.8052 65.9304 13.8667 65.8852 13.924C65.7789 14.0775 65.6587 14.2214 65.526 14.3542C65.3487 14.5337 65.1565 14.6987 64.9512 14.8476C64.6967 15.0254 64.4159 15.1651 64.1184 15.2619C63.7844 15.3791 63.4319 15.4391 63.0766 15.439C62.5286 15.474 61.9844 15.3292 61.5318 15.0279C61.3484 14.8843 61.2032 14.7003 61.1083 14.4911Z" fill="#333333"/>
<path d="M69.0205 16.176V7.83569C69.0205 7.72499 69.076 7.66806 69.1838 7.66806H70.108C70.1315 7.66625 70.1552 7.66929 70.1774 7.67699C70.1996 7.68468 70.2198 7.69686 70.2368 7.7127C70.2538 7.72855 70.2671 7.7477 70.2758 7.76891C70.2846 7.79011 70.2886 7.81287 70.2876 7.83569L70.4411 9.2115L70.5718 9.02806C70.6338 8.95531 70.771 8.81931 70.9833 8.61689C71.1997 8.41674 71.441 8.24355 71.7018 8.10136C72.0334 7.92911 72.384 7.79332 72.7468 7.69652C73.1914 7.57108 73.6522 7.50824 74.1152 7.50992H74.7847C74.899 7.50992 74.9546 7.56369 74.9546 7.66806V8.6422C74.9578 8.66453 74.9557 8.6873 74.9483 8.7087C74.9409 8.73009 74.9285 8.74954 74.912 8.76549C74.8956 8.78144 74.8755 8.79346 74.8534 8.80061C74.8313 8.80775 74.8078 8.80983 74.7847 8.80666H74.285C73.7768 8.80302 73.2707 8.87121 72.7828 9.00908C72.3947 9.11412 72.0264 9.27855 71.692 9.49615C71.2606 9.76423 70.8949 10.1205 70.6208 10.5399L70.5228 10.7454V16.176C70.5261 16.1975 70.5241 16.2194 70.5171 16.2401C70.5101 16.2607 70.4981 16.2795 70.4823 16.2948C70.4664 16.3102 70.447 16.3218 70.4257 16.3286C70.4044 16.3354 70.3817 16.3373 70.3595 16.3341H69.1838C69.1616 16.3373 69.1389 16.3354 69.1176 16.3286C69.0962 16.3218 69.0769 16.3102 69.061 16.2948C69.0451 16.2795 69.0332 16.2607 69.0261 16.2401C69.0191 16.2194 69.0172 16.1975 69.0205 16.176Z" fill="#333333"/>
<path fill-rule="evenodd" clip-rule="evenodd" d="M77.1126 16.304C77.6324 16.5105 78.1912 16.6091 78.7528 16.5934C79.972 16.5955 80.9246 16.3626 81.6104 15.8945C82.2839 15.4526 82.7699 14.7899 82.9788 14.0284C83.0114 13.9019 82.9592 13.8387 82.8155 13.8387H81.7639C81.692 13.8387 81.6267 13.8924 81.5614 13.9968C81.3065 14.4628 80.9183 14.8478 80.4434 15.1058C79.9685 15.3638 79.4269 15.4839 78.8834 15.4517C78.5281 15.4627 78.1743 15.4039 77.8431 15.2789C77.5119 15.1539 77.2104 14.9652 76.9565 14.7242C76.4492 14.2393 76.1499 13.5066 76.0584 12.5261H82.9069C82.9511 12.5312 82.9959 12.5265 83.0379 12.5124C83.0799 12.4983 83.1181 12.4752 83.1495 12.4447C83.1809 12.4143 83.2048 12.3773 83.2194 12.3366C83.2339 12.2959 83.2388 12.2526 83.2335 12.2098V11.805C83.2593 11.2254 83.1644 10.6468 82.9546 10.1034C82.7447 9.56009 82.4242 9.06316 82.0121 8.6422C81.1598 7.8759 80.041 7.44819 78.8781 7.44409C77.7151 7.43999 76.5931 7.85979 75.7351 8.62006C74.9382 9.3981 74.5398 10.5251 74.5398 12.0011C74.5398 13.477 74.9382 14.6083 75.7351 15.3947C76.1236 15.7878 76.5929 16.0976 77.1126 16.304ZM81.7312 11.3938H76.0584C76.0887 10.6067 76.4111 9.85661 76.9663 9.28108C77.2192 9.04489 77.518 8.85978 77.8455 8.73652C78.1729 8.61326 78.5224 8.55432 78.8736 8.56313C79.2374 8.55917 79.5983 8.62601 79.9348 8.75965C80.2714 8.8933 80.5769 9.09105 80.8331 9.34117C81.3949 9.88742 81.7167 10.623 81.7312 11.3938Z" fill="#333333"/>
<path fill-rule="evenodd" clip-rule="evenodd" d="M90.5429 14.9387C90.7062 15.2887 90.9522 15.5966 91.261 15.8375C92.0032 16.3656 92.9118 16.6272 93.8313 16.5776C94.5234 16.5892 95.2078 16.4349 95.8235 16.1285C96.0566 16.0072 96.2756 15.862 96.4766 15.6952C96.6413 15.5781 96.7876 15.4386 96.911 15.2809L97.071 16.176C97.0718 16.1984 97.0773 16.2205 97.0873 16.2408C97.0972 16.2611 97.1113 16.2792 97.1288 16.294C97.1462 16.3089 97.1666 16.3201 97.1887 16.3269C97.2108 16.3338 97.2341 16.3363 97.2572 16.3341H98.1716C98.2859 16.3341 98.3414 16.2803 98.3414 16.176V10.989C98.3414 9.8567 97.9985 8.99327 97.3062 8.36071C96.6138 7.7408 95.621 7.43085 94.3277 7.43085C93.4642 7.39493 92.6116 7.62769 91.8946 8.09503C91.5939 8.29625 91.3418 8.55823 91.1558 8.86291C90.9697 9.1676 90.8541 9.50773 90.8169 9.85987C90.8071 9.96424 90.8626 10.018 90.99 10.018H92.0416C92.0883 10.0186 92.1338 10.003 92.1698 9.97404C92.2057 9.94504 92.2297 9.90454 92.2375 9.85987C92.3764 9.47706 92.6415 9.14917 92.9919 8.92685C93.3919 8.67353 93.8631 8.54646 94.3408 8.56313C96.0172 8.56524 96.8555 9.37385 96.8555 10.989V11.0681H94.0044C92.8483 11.0681 91.9534 11.3147 91.3002 11.8081C90.9825 12.0436 90.7276 12.3495 90.5571 12.7C90.3867 13.0506 90.3055 13.4356 90.3205 13.8228C90.3033 14.2065 90.3795 14.5888 90.5429 14.9387ZM91.9427 14.4908C91.8484 14.2817 91.8073 14.0537 91.8228 13.826C91.8206 12.7464 92.5434 12.2067 93.9913 12.2067H96.8424V13.7469C96.8088 13.812 96.7683 13.8735 96.7216 13.9304C96.6111 14.0814 96.4876 14.2232 96.3525 14.3542C96.1734 14.533 95.9801 14.6979 95.7745 14.8476C95.2321 15.229 94.5799 15.4358 93.9097 15.439C93.3617 15.4735 92.8177 15.3287 92.3649 15.0279C92.1818 14.8841 92.0371 14.7 91.9427 14.4908Z" fill="#333333"/>
<path d="M99.8503 16.176V5.16313C99.8503 5.05243 99.9025 4.99867 100.014 4.99867H101.189C101.297 4.99867 101.353 5.05243 101.353 5.16313V16.176C101.356 16.1975 101.354 16.2194 101.347 16.2401C101.34 16.2607 101.328 16.2795 101.312 16.2948C101.296 16.3102 101.277 16.3218 101.255 16.3286C101.234 16.3354 101.211 16.3373 101.189 16.3341H100.014C99.9914 16.3373 99.9687 16.3354 99.9474 16.3286C99.926 16.3218 99.9067 16.3102 99.8908 16.2948C99.8749 16.2795 99.863 16.2607 99.8559 16.2401C99.8489 16.2194 99.847 16.1975 99.8503 16.176Z" fill="#333333"/>
</svg>
