<svg width="28" height="28" viewBox="0 0 28 28" fill="none" xmlns="http://www.w3.org/2000/svg">
<path d="M1.85945 11.9098C2.304 9.38717 3.51454 7.09314 5.3602 5.2758C7.51443 3.15456 10.3728 1.87524 13.4086 1.67359C15.7149 1.5206 18.0035 1.99362 20.0274 3.01989C20.2044 2.57749 20.4726 2.17135 20.824 1.82532C20.8809 1.76926 20.94 1.7161 21 1.66432C18.6566 0.427456 15.987 -0.14671 13.2961 0.0319525C9.85678 0.260368 6.61881 1.70952 4.17863 4.11238C2.08814 6.17087 0.716828 8.76989 0.21306 11.6285C-0.279343 14.4228 0.0855445 17.2599 1.26828 19.8333L2.79061 19.1549C1.74648 16.8831 1.42454 14.3779 1.85945 11.9098Z" fill="#CFCFCF"/>
<path d="M26.7948 8.16602L25.2277 8.82765C26.2442 11.1065 26.5396 13.6084 26.0821 16.063C25.614 18.5739 24.3823 20.8586 22.5202 22.6702C20.3201 24.8106 17.4011 26.1026 14.3009 26.3083C14.0071 26.3278 13.7139 26.3374 13.4211 26.3374C11.5613 26.3374 9.73206 25.9463 8.05894 25.2015C7.88181 25.5991 7.62746 25.9718 7.29388 26.2963C7.20008 26.3876 7.10178 26.4727 7 26.5526C8.98848 27.5007 11.1855 27.9994 13.4212 27.9993C13.7525 27.9993 14.0847 27.9884 14.4172 27.9663C17.9294 27.7334 21.2361 26.2699 23.7282 23.8453C25.8374 21.7933 27.2326 19.2048 27.763 16.3595C28.281 13.5806 27.9462 10.7473 26.7948 8.16602Z" fill="#CFCFCF"/>
<path d="M4.08203 24.5C5.04853 24.5 5.83203 23.7165 5.83203 22.75C5.83203 21.7835 5.04853 21 4.08203 21C3.11553 21 2.33203 21.7835 2.33203 22.75C2.33203 23.7165 3.11553 24.5 4.08203 24.5Z" fill="#CFCFCF"/>
<path d="M23.918 7C24.8845 7 25.668 6.2165 25.668 5.25C25.668 4.2835 24.8845 3.5 23.918 3.5C22.9515 3.5 22.168 4.2835 22.168 5.25C22.168 6.2165 22.9515 7 23.918 7Z" fill="#CFCFCF"/>
<g clip-path="url(#clip0)">
<path d="M19.9101 17.35L19.4525 17.5423L19.0319 16.5415C18.452 15.1619 17.1419 14.2326 15.3503 13.9114C15.26 13.8937 15.1328 13.788 15.0503 13.5919C14.9679 13.3958 14.9885 13.228 15.0319 13.154C16.066 11.6531 16.3116 10.0698 15.7317 8.69026L15.311 7.68942L15.7686 7.49709C16.1628 7.3314 16.3517 6.89393 16.1925 6.51524C16.0333 6.13654 15.5886 5.96538 15.1944 6.13108L6.54301 9.76756C6.1488 9.93326 5.95994 10.3707 6.11912 10.7494C6.2783 11.1281 6.72299 11.2993 7.11719 11.1336L7.57475 10.9412L7.99544 11.9421C8.57531 13.3216 9.88538 14.251 11.677 14.5722C11.7673 14.5899 11.8945 14.6956 11.977 14.8917C12.0594 15.0878 12.0388 15.2556 11.9954 15.3296C10.9642 16.8372 10.7185 18.4205 11.2984 19.8001L11.7191 20.8009L11.2615 20.9932C10.8673 21.1589 10.6785 21.5964 10.8377 21.9751C10.9968 22.3538 11.4415 22.5249 11.8357 22.3592L20.4871 18.7228C20.8813 18.5571 21.0702 18.1196 20.911 17.7409C20.7518 17.3622 20.3043 17.1843 19.9101 17.35ZM13.406 14.291C13.1388 13.6554 12.6114 13.2086 11.9949 13.1017C11.2515 12.9686 9.93189 12.5684 9.4174 11.3444L8.99671 10.3435L13.8891 8.28712L14.3098 9.28796C14.8243 10.512 14.1869 11.7347 13.7618 12.359C13.4068 12.8743 13.357 13.5636 13.6242 14.1993C13.8914 14.835 14.4188 15.2817 15.0352 15.3886C15.7787 15.5217 17.0983 15.9219 17.6127 17.1459L18.0334 18.1468L13.1411 20.2032L12.7204 19.2024C12.2059 17.9784 12.8433 16.7556 13.2683 16.1313C13.6205 15.6093 13.6732 14.9267 13.406 14.291Z" fill="#CFCFCF"/>
</g>
<defs>
<clipPath id="clip0">
<rect width="10.9271" height="13.6588" fill="white" transform="translate(5.83203 10.0664) rotate(-22.7987)"/>
</clipPath>
</defs>
</svg>
