<?xml version="1.0" encoding="UTF-8"?>
<svg width="65px" height="65px" viewBox="0 0 65 65" version="1.1" xmlns="http://www.w3.org/2000/svg" xmlns:xlink="http://www.w3.org/1999/xlink">
    <!-- Generator: Sketch 52.6 (67491) - http://www.bohemiancoding.com/sketch -->
    <title>BO_Brand_header_logo</title>
    <desc>Created with Sketch.</desc>
    <g id="BO_Brand_header_logo" stroke="none" stroke-width="1" fill="none" fill-rule="evenodd">
        <g id="Group-2" transform="translate(0.000000, 3.000000)" fill="#FBB03B">
            <path d="M16.1411386,41.6566144 L11.4451651,41.6566144 L11.4451651,32.4168794 L16.1411386,32.4168794 C19.3734322,32.4168794 21.0251545,34.4268426 21.0251545,37.0688294 C21.0251545,39.7102814 19.439501,41.6566144 16.1411386,41.6566144 Z M11.4451651,14.835717 L16.3698387,14.835717 C19.3327744,14.835717 21.0048256,16.7553147 21.0048256,19.2363547 C21.0048256,21.7173946 19.3124455,23.3910272 16.217372,23.3910272 L11.4451651,23.3910272 L11.4451651,14.835717 Z M48.4386626,40.8433253 C41.6218776,42.7736171 34.6089188,38.5243015 32.7747447,31.352278 C30.9405706,24.1797198 34.979921,16.8018342 41.796706,14.872077 C45.066608,13.9459647 48.5519962,14.423458 51.4879961,16.1992195 L56.2500386,7.47280314 C54.044354,6.13710534 51.6379217,5.20564594 49.1349271,4.71906267 L49.1349271,0.174054129 L38.9704821,0.174054129 L38.9704821,5.25911663 C35.8916717,6.17988189 33.0395284,7.79255786 30.6102261,9.98592551 C27.9522237,6.0879123 23.0885368,4.06672027 17.4218587,3.76193734 L17.4218587,0.174054129 L7.25741372,0.174054129 L7.25741372,3.71916079 L4.26325641e-13,3.71916079 L4.26325641e-13,52.3774875 L7.26249595,52.3774875 L7.26249595,55.521564 L17.4269409,55.521564 L17.4269409,52.3133227 C22.7581923,52.0459693 28.2571571,50.4418486 31.3827239,46.431547 C33.6356731,48.2709386 36.2001626,49.6429965 38.9399888,50.473931 L38.9399888,55.5108699 L49.1044338,55.5108699 L49.1044338,50.9979438 C49.7193827,50.8803083 50.3343316,50.7412845 50.9492805,50.5701783 C56.6723713,48.9430652 61.5441898,44.9851648 64.4883212,39.5712576 L56.1992164,34.5605193 C54.5098856,37.6580763 51.7166961,39.9193518 48.4386626,40.8433253 Z" id="Fill-18"></path>
            <path d="M55.0303101,19.1997607 L62.7912602,13.1452416 C61.5733084,11.5216745 60.1540893,10.0680588 58.5693033,8.82210255 L52.6088936,16.7460871 C53.5174422,17.4513855 54.3313072,18.276181 55.0303101,19.1997607" id="Fill-21"></path>
        </g>
    </g>
</svg>