<?xml version="1.0" encoding="UTF-8"?>
<svg width="132px" height="72px" viewBox="0 0 132 72" version="1.1" xmlns="http://www.w3.org/2000/svg" xmlns:xlink="http://www.w3.org/1999/xlink">
    <!-- Generator: Sketch 51 (57462) - http://www.bohemiancoding.com/sketch -->
    <title>999DK_brand_logo</title>
    <desc>Created with Sketch.</desc>
    <defs>
        <polygon id="path-1" points="0.0142272406 0.011205298 103.358769 0.011205298 103.358769 71.9999513 0.0142272406 71.9999513"></polygon>
    </defs>
    <g id="Login" stroke="none" stroke-width="1" fill="none" fill-rule="evenodd">
        <g id="999DK_brand_logo">
            <g id="Group-4">
                <mask id="mask-2" fill="white">
                    <use xlink:href="#path-1"></use>
                </mask>
                <g id="Clip-2"></g>
                <path d="M67.2291658,23.5699868 C66.903362,22.153351 66.4746478,21.0888477 65.5624446,20.2474967 C65.2805081,20.736 65.3672943,21.118649 65.5849711,21.5375364 C66.1796697,22.6819073 66.3418603,23.9233113 66.3722117,25.2026225 C66.402326,26.4800265 66.1505039,27.7090331 65.8308652,29.0193377 C66.290168,29.0584371 66.697067,29.1709669 67.1566069,29.0870464 C67.6061877,28.074755 67.8596697,26.9909404 67.9621059,25.9076026 C68.0844601,24.6163709 68.1963811,23.2981987 67.8082145,22.0141192 C67.7486972,21.8176689 67.7105208,21.6295629 67.3500974,21.7127682 C67.3169005,22.2205828 67.2820438,22.7581987 67.2291658,23.5699868 Z M77.191554,20.2386755 C76.2148539,21.1098278 75.9860325,22.2727947 75.3358476,23.2636291 C75.3358476,22.5269404 75.3358476,21.7902517 75.3358476,21.0538013 C74.3520339,23.6801325 74.6299393,27.5636026 75.8032124,29.1268609 C76.169801,29.0102781 76.5838137,29.1795497 76.9435258,28.9518675 C76.0749527,26.1708079 76.0453126,23.4517351 77.5327706,20.8668874 C77.4125505,20.6451656 77.3200734,20.4749404 77.191554,20.2386755 Z M77.8848948,24.5083709 C77.4545208,26.3808477 77.651331,27.3876556 78.7235907,28.9997881 C81.7428483,29.5090331 84.084415,31.1369007 86.0534651,33.6569007 C86.041609,32.4431523 85.6351842,31.6749934 84.7028257,31.1845828 C82.3470318,29.9458013 80.6037205,28.1379338 79.6452788,25.6141192 C79.5760395,25.4322119 79.5442653,25.2247947 79.2620917,25.3032318 C78.9931969,25.7848212 79.3275371,26.3639205 79.0576937,26.900106 C78.3323416,26.2590199 78.3892505,25.2791523 77.8848948,24.5083709 Z M56.4318758,33.5174305 C56.504909,33.5789404 56.5779421,33.6402119 56.6509753,33.7014834 C57.3329344,32.9764768 57.9650981,32.1968742 58.7208017,31.5531656 C59.5082795,30.882755 60.3706874,30.3401325 61.2930868,29.8900132 C62.2105067,29.4425166 63.2094961,29.2341457 64.1494425,28.9795232 C65.1797318,27.1201589 65.4279972,25.6486887 64.8510826,24.7429669 C64.4980099,25.5027815 64.4214199,26.3975364 63.5692082,27.0650861 C63.6133126,26.1686623 63.8646606,25.4314967 63.629674,24.6979073 C63.4781538,24.9286887 63.3413352,25.1511258 63.2436415,25.4188609 C62.2920762,28.0287417 60.4951757,29.8902517 58.0649259,31.1416689 C57.6122625,31.374596 57.2798193,31.6544901 57.0685448,32.0917351 C56.8418574,32.5599735 56.6429132,33.0418013 56.4318758,33.5174305 Z M75.289609,32.1234437 C79.0773747,31.0422517 81.964319,32.391894 84.3433507,35.2680795 C84.7483529,35.2091921 85.1972223,35.1972715 85.4039915,34.7161589 C83.4494058,30.5535099 77.6968582,29.1430728 74.9958165,30.4862781 C75.0100438,31.0403444 75.087108,31.6001325 75.289609,32.1234437 Z M95.8332703,3.84365563 C95.553705,4.61324503 95.968192,5.27984106 95.9795737,5.98243709 C96.013482,8.02513907 95.6193874,9.97176159 94.7271023,11.8022781 C93.7060607,13.8969536 92.1974989,15.5818013 90.3757008,17.0191788 C88.6131828,18.4095894 86.7593733,19.62 84.7300946,20.5915232 C83.9279153,20.9753642 83.0600536,21.2309404 82.3245053,21.6977483 C81.7072802,24.9351258 82.2626168,26.537245 84.3473818,27.5979338 C90.9217897,25.9586225 94.7470205,21.2471523 96.6340268,17.4042119 C96.9005505,19.0547285 96.3015836,20.5402649 96.1242174,22.1063841 C96.3124912,22.0224636 96.3945349,21.8863311 96.4896203,21.7602119 C97.9732844,19.790702 98.8679407,17.5391523 99.5152802,15.1886623 C100.141279,12.9144636 100.222848,10.6397881 99.3625745,8.36916556 C99.1821256,7.89329801 98.7640819,7.61817219 98.6357996,7.18116556 C98.1855074,5.64603974 97.0852675,4.70264901 95.8332703,3.84365563 Z M82.71694,49.5653245 C83.7595596,48.3472848 84.3160819,46.9239735 84.4962936,45.2643974 C83.5907297,44.0687682 83.3230205,42.624 83.3868059,40.9014834 C82.6707015,41.2569536 82.1528299,40.5653245 81.5009852,40.8628609 C81.361084,40.8058808 81.2214199,40.7486623 81.0307749,40.670702 C81.8109019,40.1531126 82.4632209,39.6078675 82.8698829,38.8046623 C83.40459,37.7487417 83.2129965,36.6403709 83.147314,35.5420132 C83.1302414,35.2542517 82.9068737,35.0513642 82.650072,34.9164238 C81.8180155,34.4791788 81.0013719,34.0071258 80.1479746,33.6170861 C79.2514213,33.2074967 78.3181143,33.2039205 77.4165815,33.6406887 C76.1833169,34.2376689 75.2177615,35.1624636 74.4006436,36.243894 C73.8683077,36.9486358 73.248,37.5425166 72.4901623,37.9845298 C71.638662,38.4811391 70.8296062,38.5402649 69.9754975,37.8910728 C69.0163444,37.1617748 68.3481383,36.1833377 67.5599492,35.3071788 C66.8281948,34.4939603 66.2752294,33.5129007 65.405945,32.9066225 C64.3185095,32.9104371 62.4568751,33.3808212 61.7431418,33.8969801 C61.16765,34.313245 60.5376203,34.8141457 60.4700409,35.546543 C60.2917262,37.4836291 60.0510487,38.9033642 62.3399746,40.5112053 C62.3684291,40.6029934 62.3968836,40.6947815 62.425338,40.7868079 C62.3174481,40.8120795 62.2095582,40.837351 62.1016683,40.8623841 C61.4099873,40.5798675 60.8489598,41.044053 60.2348172,41.1146225 C60.185259,42.8605033 60.3524291,43.0068874 59.1051743,45.373351 C59.3524912,46.8834437 59.7404206,48.3010331 60.8408977,49.4017748 C61.1012562,50.0330861 61.5373211,50.534702 62.0115625,51.0081854 C62.4874637,51.4833377 62.8993423,52.0028344 63.2550233,52.5797881 C63.9016514,53.6292715 64.2471362,54.7850861 64.5098659,55.9995497 C65.0950797,55.3842119 65.1157092,54.5466755 65.5083811,53.8855629 C66.2453522,54.3614305 66.4646888,55.2223311 67.0354382,55.9020397 C67.6531376,55.3136424 67.897609,54.6341722 68.0363246,53.8984371 C68.6997883,53.9020132 69.3082399,53.5792053 69.9890134,53.6180662 C71.8511221,53.7246358 73.7310148,53.4557086 75.578422,53.8881854 C75.784717,54.6518146 76.0706845,55.3725298 76.6518673,55.9552053 C77.0886436,55.2218543 77.4329428,54.4601325 78.1194072,53.8710199 C78.4762738,54.5543046 78.5789471,55.3355762 79.0707354,55.9742781 C79.1693776,55.7427815 79.2836697,55.5699338 79.3163924,55.3823046 C79.6253606,53.6097219 80.512192,52.1566093 81.7395286,50.8861192 C82.1227156,50.489404 82.4546845,50.0531126 82.71694,49.5653245 Z M60.6300974,24.2890331 C60.6751503,23.3837881 60.7761637,22.4730596 60.4064926,21.6002384 C57.1648158,20.3357086 54.1887142,18.6687417 51.6100268,16.3497219 C48.3562569,13.4237086 46.4922512,9.87949669 46.8804178,5.35708609 C46.9166972,4.93343046 47.0338349,4.49022517 46.8251687,4.06776159 C46.5135921,4.0815894 46.32271,4.25539073 46.1975102,4.52050331 C44.0309386,6.08018543 43.1040339,8.34055629 42.9079351,10.8798675 C42.6817219,13.8042119 43.5400988,16.5523709 44.7572392,19.1765563 C45.2134594,20.1607152 45.8724178,21.0356821 46.6020381,21.8856159 C46.491777,20.4873377 45.9186563,19.1524768 46.2499139,17.7513377 C49.1795399,22.5426755 52.8812308,26.3093245 58.5303938,27.5998411 C59.9462414,26.9313377 60.5269499,25.7619338 60.6300974,24.2890331 Z M74.6145265,33.8442914 C74.189132,32.3258543 73.9048243,30.7857219 73.9029273,29.2017219 C73.9005561,26.9525563 73.8716274,24.7083974 74.110645,22.4597086 C74.2306281,21.3329801 74.4236443,20.1964768 74.371952,19.0501987 C74.4468821,18.6263046 74.1613888,18.3793113 73.8903599,18.1633113 C73.2349584,17.6402384 72.4593366,17.3543841 71.6595286,17.1481589 C71.4404291,17.0916556 71.1696373,17.0914172 70.9604968,17.1691391 C70.0831503,17.4952848 69.1557713,17.7463311 68.4821115,18.5984106 C68.3543035,20.3283179 68.6983656,22.0904106 68.8136062,23.8603709 C69.0225095,27.0686623 69.1612251,30.2609801 68.3125702,33.4075232 C68.2395371,33.6776424 68.1323585,33.9642119 68.2608779,34.2205033 C68.9890755,35.6717086 69.6980663,37.1498543 71.5054001,37.6903311 C73.2152773,36.9762914 74.1274806,35.589457 74.6145265,33.8442914 Z M76.1007989,61.7669404 C76.4159323,61.7087682 76.2824333,61.4350728 76.3443218,61.2553113 C76.4560056,61.2829669 76.5679266,61.3110993 76.7516951,61.3566358 C76.7566747,62.5124503 76.4313451,63.6475232 76.3559407,64.8381457 C77.0604263,64.8171656 77.5458123,64.4636026 78.0202908,64.1429404 C80.5112435,62.4597616 82.1635004,60.0830464 83.3988991,57.3911523 C84.1460663,55.7630464 84.7312802,54.0674702 85.1884488,52.3058543 C85.7267128,53.6352318 86.7641157,54.6735099 86.8343035,56.1397351 C86.9595032,55.8491126 87.0270826,55.5849536 87.0887339,55.3193642 C87.3204008,54.319947 87.5345208,53.3186225 87.4470233,52.2815364 C87.3412675,51.0310728 86.1698913,50.0357086 84.8050247,50.1093775 C84.3886408,51.9267815 84.0023712,53.7890066 82.9922371,55.6164238 C82.8909866,54.7657748 83.0503317,54.0607947 82.8703571,53.3884768 C82.545976,53.4352053 82.4174566,53.5896954 82.3112265,53.7534834 C81.8175413,54.5135364 81.3153197,55.2747815 81.0155992,56.1361589 C80.5674411,57.4245298 79.7254255,58.4711523 78.9808666,59.5769007 C78.8262639,59.8067285 78.6579083,60.1266755 78.2116471,60.0317881 C78.1545011,58.7753642 78.3522597,57.465298 77.6354439,56.3199735 C77.0103938,56.6184636 76.9916613,57.3847152 76.4159323,57.6352848 C76.3379195,57.5821192 76.2781651,57.5213245 76.2065547,57.4977219 C76.1392124,57.4757881 76.0593028,57.4931921 75.9573409,57.4931921 C75.0131263,59.3759205 73.84341,61.074596 71.8089146,61.9645828 C69.7822442,61.034543 68.5952181,59.354702 67.6585914,57.4464636 C67.4556161,57.5151258 67.2879718,57.5716291 67.0925843,57.6376689 C66.7553987,57.1503576 66.5569287,56.5595762 65.997561,56.3476291 C65.5676613,56.9837086 65.6534989,57.729457 65.453132,58.4084503 C65.2525279,59.0872053 65.7952971,59.7666755 65.5520113,60.5951523 C64.3751814,59.297245 63.3901821,57.987894 62.8106591,56.4189139 C62.4801129,55.5246358 62.0345632,54.702596 61.5062583,53.9213245 C61.3381397,53.6731391 61.1825886,53.3534305 60.7410699,53.4166093 C60.5229188,54.0741457 60.7844629,54.7948609 60.5542188,55.5692185 C60.1895272,54.5960265 59.8208045,53.7351258 59.5459817,52.8449007 C59.261674,51.9234437 59.0681835,50.9731391 58.8372279,50.044053 C57.2558701,50.098649 56.235777,51.0959205 56.15729,52.6148344 C56.0939788,53.8343046 56.4506083,54.977245 56.782103,56.1480795 C56.8070007,54.6220132 57.9840677,53.6037616 58.4158645,52.2293245 C58.4606803,52.3630728 58.5021764,52.4684503 58.5313423,52.5769272 C59.3728836,55.7210861 60.5769824,58.7069404 62.5834975,61.2901192 C63.6744898,62.694596 64.922693,63.9708079 66.602693,64.7048742 C66.8170501,64.7985695 67.0159944,64.9192053 67.2829922,64.7120265 C67.3460663,64.183947 66.9849315,63.6906755 67.0465829,63.1287417 C67.1025434,62.6190199 67.0586761,62.0980927 67.0586761,61.3902517 C67.2481355,61.7192583 67.3221171,61.848 67.3960988,61.9765033 C67.8179365,63.5891126 68.4579252,65.1015894 69.4189753,66.4695894 C70.043314,67.3583841 70.7831306,68.085298 71.9419393,68.3520795 C74.4940692,66.9070728 75.6061651,64.5279735 76.1150261,61.7559735 L76.1007989,61.7669404 Z M88.3677629,38.5908079 C88.56647,37.7082119 88.794343,36.828 88.5773776,35.9308609 C88.1138066,35.0182252 87.3467212,34.8940132 86.4271673,35.0673377 C85.6313903,35.6068609 85.2088412,36.3802649 85.090518,37.4287947 C86.3508144,36.7643444 86.5568723,36.7571921 87.3891658,37.301245 C87.2741623,37.4557351 86.9976796,37.4068609 86.9545236,37.6500397 C86.7259393,38.0720265 87.1489626,38.3948344 87.1288073,38.776053 C86.839283,39.7087152 86.839283,39.7087152 86.2965138,40.1404768 C86.1357459,39.7168212 86.5099224,39.0588079 85.7637036,38.8797616 C85.1305914,39.5818808 84.6411743,40.3173775 84.9100692,41.3530331 C85.1379421,41.6820397 85.3786196,42.0382252 85.8753874,42.2203709 C86.5791616,41.3544636 87.277482,40.5131126 87.9537502,39.6541192 C88.1927678,39.3503841 88.430837,39.024 88.3677629,38.5908079 Z M55.2301482,38.5915232 C55.1976627,39.0626225 55.4404742,39.4254834 55.7281016,39.7470993 C56.278933,40.3626755 56.7972788,40.9994702 57.2487565,41.6937219 C57.3945857,41.9175894 57.5793028,42.1455099 57.9499224,42.1707815 C58.6766972,42.0289272 58.5192491,41.2910464 58.7800819,40.8738278 C58.5076302,40.130702 58.4815469,39.3458543 57.7934227,38.8792848 C57.064988,39.0673907 57.5081665,39.8043179 57.24188,40.2513377 C56.6697078,39.8117086 56.6213352,39.213298 56.4880734,38.6701987 C56.6085307,38.3206887 56.7365759,37.9940662 56.8278673,37.6574305 C56.8582188,37.5449007 56.7560198,37.4495364 56.613036,37.4612185 C56.4719492,37.4159205 56.3306253,37.3703841 56.1368977,37.3076821 C56.9642117,36.585298 57.7194411,36.9810596 58.4547523,37.399947 C58.489609,37.2218543 58.5365589,37.134596 58.5128469,37.0776159 C58.3333465,36.6530066 58.147681,36.230543 57.9470769,35.8157086 C57.8500946,35.6149669 57.640717,35.4449801 57.8472491,35.1991788 C58.0393169,35.2323179 58.2316217,35.265457 58.4578349,35.3047947 C58.6828624,35.0403974 58.9083641,34.7695629 59.1405053,34.5042119 C60.1798052,33.314543 61.4365448,32.454596 62.9671588,32.0519205 C64.4686069,31.6566358 65.9766944,31.3886623 67.4160169,32.3156026 C67.7837911,31.7036026 67.8300296,31.0570331 67.7401609,30.3773245 C66.4186874,30.0220927 65.1690614,29.9922914 63.8528045,30.2104371 C61.0673479,30.6724768 58.9920677,32.1024636 57.4868257,34.4581987 C57.3661313,34.6472583 57.375379,34.8224901 57.3746676,35.0151258 C57.1844968,35.0220397 56.9938518,35.0392053 56.8039181,35.0346755 C55.5550035,35.0043974 54.9648102,35.6054305 54.946789,36.8675762 C54.9384898,37.4664636 55.1713423,38.0114702 55.2301482,38.5915232 Z M41.2058829,20.2179338 C40.9927114,19.2523709 40.6863514,18.3178013 40.27471,17.4189934 C40.3785688,16.8131921 40.1246126,16.2472053 39.9773606,15.701245 C39.4473959,13.7362649 39.4763246,11.741245 39.5963077,9.75504636 C39.6510826,8.85003974 39.8580889,7.92095364 40.2030995,7.05003974 C40.2718645,6.876 40.2524206,6.6666755 40.2735243,6.47380132 C40.4373747,6.41276821 40.4914382,6.26376159 40.5621002,6.1221457 C41.8200254,3.60953642 43.6363698,1.65909934 46.2032011,0.465377483 C46.3971658,0.446066225 46.613657,0.476344371 46.7810642,0.399337748 C48.1852929,-0.246278146 49.5771912,0.0216953642 50.9712237,0.422701987 C51.2104785,0.512344371 51.478662,0.558119205 51.5939026,0.83205298 C51.3570191,1.17321854 50.9792858,1.40996026 50.8998504,1.85268874 C50.0014001,2.74815894 49.8491687,3.94116556 49.7758984,5.09507285 C49.6554411,6.9818543 50.2380466,8.73107285 51.1438476,10.3725298 C51.8492816,11.6511258 52.6607085,12.8417483 53.7054622,13.8800265 C55.3098207,15.4742781 57.3063769,16.3380397 59.3655328,17.1061987 C59.4369061,17.1326623 59.5196613,17.1510199 59.5941171,17.1438675 C60.9321891,17.0139338 62.2275794,17.4902781 63.5699195,17.406596 C64.1907015,17.3677351 64.6822526,17.1956026 65.1688243,16.816053 C66.7788737,15.560106 68.5032152,14.5196821 70.500957,13.9741987 C71.1362032,13.8008742 71.7057671,13.7910993 72.3317657,13.9689536 C74.5969795,14.6136159 76.5425547,15.8154437 78.3650642,17.3908609 C79.453211,17.3908609 80.6004008,17.4676291 81.7328892,17.3717881 C83.2118109,17.2466225 84.6207819,16.7504901 85.9441524,16.0993907 C87.3917742,15.3872583 88.7184644,14.4641325 89.7907241,13.2270199 C90.3790205,12.5480265 90.9369654,11.8418543 91.260398,10.984053 C92.7250924,8.76063576 93.4091856,6.36580132 92.8412816,3.6517351 C91.9210162,2.95581457 92.1275483,1.57327152 91.1378066,0.871390728 C91.4270939,0.702119205 91.6293578,0.583629139 91.8313846,0.465377483 C92.1512604,0.492317881 92.3684629,0.208609272 92.7020917,0.212662252 C93.8872209,0.226966887 95.0789894,0.0927417219 96.2434891,0.433430464 C99.9046323,2.0114702 102.101793,4.81541722 102.984593,8.67528477 C103.203218,9.63059603 103.23926,10.6278675 103.358769,11.6058278 C103.1833,13.5269404 103.038419,15.4528212 102.431627,17.3045563 C102.360491,17.5222252 102.376615,17.7687417 102.352192,18.0019073 C102.013584,18.7149934 101.67213,19.4271258 101.597674,20.2308079 C101.052059,21.123894 100.631644,22.0784901 100.233044,23.0435762 C100.036946,23.332053 99.8218772,23.6095629 99.6475935,23.9109139 C98.4809598,25.9271523 97.068669,27.7493245 95.4066902,29.376 C94.7074213,30.0602384 94.0076782,30.7437616 93.3081722,31.4277616 C92.6409146,31.7596291 92.0623402,32.2114172 91.5103232,32.7218543 C91.6672971,33.0315497 91.7901256,33.318596 91.9511306,33.5822781 C92.3326577,34.2073907 92.4441044,34.878755 92.4616514,35.6090066 C92.5104982,37.6247682 91.7996104,39.362543 90.6654622,40.9675232 C90.6284714,41.0199735 90.629657,41.0996026 90.6142442,41.1615894 C90.7389697,41.4455364 91.1027128,41.4069139 91.3130388,41.7430728 C90.8876443,42.6325828 90.4935498,43.6072053 89.9711729,44.5064901 C89.4535385,45.3971921 89.1801383,46.376106 88.8982018,47.331894 C88.5916048,48.3720795 89.2289852,49.3071258 89.6792773,50.2097483 C89.9344192,50.7209007 90.0356697,51.2210861 90.0759802,51.785404 C90.1670346,53.0609007 89.7463825,54.2872848 89.7949922,55.5518146 C89.4189188,55.7887947 89.4423938,56.2167417 89.3134001,56.5717351 C88.5878109,58.5686623 87.5542018,60.3655629 86.0088864,61.7969801 C85.38929,61.8663576 85.1820466,61.3373245 84.7400536,61.0395497 C84.5809457,61.2927417 84.4216006,61.5404503 84.2677092,61.7914967 C82.9260805,63.9815364 81.2036359,65.8244503 79.1302526,67.3149934 C77.7492618,68.3074967 76.4628821,69.4175364 75.1039435,70.4357881 C74.4369231,70.9359735 73.7253239,71.3472318 72.9743627,71.7015099 C72.0462724,72.138755 71.1622865,72.0925033 70.2647848,71.5827815 C69.3371687,71.055894 68.4285222,70.5111258 67.6092703,69.8192583 C66.5827749,68.9523974 65.541578,68.1031788 64.431379,67.3433642 C62.3440056,65.9155232 60.7111927,64.0542517 59.3413465,61.9405033 C59.1521242,61.6484503 59.0508737,61.2851126 58.7077601,61.0791258 C58.3831418,61.3332715 58.1510007,61.7204503 57.5691066,61.8449007 C54.8562089,59.2459868 53.559633,55.9814305 53.4896824,52.173298 C53.5119718,51.6993377 53.534024,51.2253775 53.5570247,50.7342517 C53.7832378,50.2953377 54.0222555,49.8442649 54.2496542,49.3874702 C54.6366351,48.6104901 54.7646803,47.7872583 54.4927029,46.9604503 C54.2636443,46.2623841 54.0919689,45.5435762 53.7336796,44.8843709 C53.2091687,43.9192848 52.7422781,42.9227285 52.2535723,41.9380927 C52.2035399,41.837245 52.1741369,41.7263841 52.1373832,41.6262517 C52.3510289,41.3794967 52.7534227,41.3861722 52.8451884,40.9699073 C52.5435709,40.4668609 52.2282004,39.9282914 51.9004996,39.397351 C51.3826281,38.5581457 51.3866591,37.5389404 50.9607904,36.6687417 C50.9451404,35.7599205 50.8332195,34.8391788 51.0146168,33.9465695 C51.2666761,32.706596 51.276398,32.6365033 50.2729033,31.8812185 C48.527458,30.5675762 46.9650699,29.0660662 45.5651094,27.3812185 C44.4468483,26.0356291 43.5552745,24.5429404 42.6233903,23.0738543 C42.0661567,22.1643179 41.8314072,21.0931391 41.2058829,20.2179338 Z" id="Fill-1" fill="#2E2D2C" mask="url(#mask-2)"></path>
                <path d="M25.3339732,45.7276291 C24.9809005,45.4293775 24.6484573,45.8876026 24.478916,45.602702 C24.1630713,45.072 23.6966549,45.2903841 23.3212929,45.3437881 C22.3085505,45.4875497 21.2256203,45.4362914 20.3679548,46.2716821 C20.2275794,47.8861987 20.0800903,49.5808212 19.9226422,51.3917881 C20.7257699,52.9703046 21.4971235,54.6901987 22.4790402,56.3397616 C25.3911193,55.9935894 28.2339591,55.6555232 31.0471588,55.3210331 C32.0973663,53.6123444 33.0932731,51.9987815 34.0799323,50.3792583 C34.2214933,50.1463311 34.328909,49.9026755 34.3464559,49.6060927 C34.4865942,47.1931391 34.6563726,44.7818543 34.7984079,42.3689007 C34.9122258,40.4291921 34.9143599,38.4782781 35.1244488,36.5497748 C35.3136711,34.8129536 35.2128948,33.0639735 35.4739647,31.3328742 C35.5918137,30.5527947 35.5322964,29.7464901 35.5657304,28.9528212 C35.5811433,28.5875762 35.5121411,28.2642914 35.34094,27.9293245 C34.5866591,26.4523709 33.8639153,24.9592053 33.1504192,23.5134834 C32.7285815,23.2767417 32.3669725,23.0938808 31.9041129,23.1000795 C30.0076217,23.125351 28.1106563,23.1220132 26.2141651,23.1046093 C25.5073084,23.0981722 25.0150459,23.4061987 24.6652929,23.9931656 C23.6957064,25.6210331 22.7277798,27.2498543 21.7880706,28.8300397 C21.6849231,30.2783841 21.6633451,31.6733245 21.4653493,33.0422781 C21.2777869,34.3397086 21.3557996,35.6535894 21.1082456,36.9448212 C21.0219337,37.3951788 20.9424982,37.8956026 21.1625462,38.3514437 C21.9322399,39.9459338 22.708573,41.5375629 23.5088553,43.185457 C25.610693,43.0319205 27.6712717,42.8814834 29.833338,42.7236556 C29.7010247,44.0442119 29.5566182,45.2593907 29.5668144,46.4817219 C29.569897,46.8464901 29.5068229,47.1924238 29.3410755,47.5169007 C29.1893183,47.8139603 28.9600226,48.0845563 28.6294764,48.0828874 C27.6103317,48.0776424 26.6120536,48.3992583 25.5948059,48.3162914 C25.4904728,48.136053 25.3489118,48.0027815 25.3446436,47.8649801 C25.3216429,47.1545166 25.3339732,46.4430993 25.3339732,45.7276291 Z M13.9130558,44.0787815 C13.7598758,45.7223841 13.6209231,47.2148344 13.4822075,48.7072848 C13.4430826,49.1271258 13.2064361,49.4344371 12.9152519,49.730543 C11.8055272,49.9315232 10.6941426,50.1558675 9.57967537,50.0824371 C8.81804375,49.2203444 9.52561186,48.2848212 9.36840085,47.442755 C7.64263656,47.0534305 5.98705999,46.8565033 4.49059139,48.0540397 C4.14818913,49.3328742 4.21387156,50.6922914 4.02085533,52.0211921 C3.92031616,52.7140132 3.7396302,53.4721589 4.04219619,54.1423311 C4.7545067,55.7201325 5.38263938,57.3406093 6.25287227,58.904106 C9.13009457,58.3991523 11.9828934,57.8982517 14.7719068,57.4085563 C15.8088356,55.6579073 16.7952576,53.9926093 17.7809682,52.3273113 C17.9806239,51.9899603 18.1937953,51.6754967 18.2298377,51.2496954 C18.5191249,47.8180132 18.8423204,44.3894305 19.1308963,40.9577483 C19.3331602,38.5498013 19.4336994,36.1313642 19.7037798,33.7315232 C19.8498462,32.4331391 19.8038447,31.1194967 20.0672858,29.8308874 C20.1867946,29.2463046 20.0869668,28.6762649 19.8175977,28.1038411 C19.1124008,26.6061457 18.4757318,25.0762649 17.8160621,23.5687947 C17.3387382,23.1465695 16.7905152,23.0628874 16.1792181,23.0714702 C14.243602,23.0984106 12.3072745,23.0814834 10.3948963,23.0814834 C9.8758391,23.2819868 9.53462244,23.620053 9.2680988,24.093298 C8.41470148,25.6079205 7.52905575,27.1044238 6.6431729,28.6002119 C6.45774453,28.9130066 6.33088497,29.2215099 6.29579111,29.5927152 C6.17723077,30.8524768 6.02381369,32.1089007 5.88652082,33.3669934 C5.74045448,34.7037616 5.57281016,36.0388609 5.46326041,37.3787285 C5.40208327,38.1249536 5.17634439,38.9186225 5.46420889,39.6219338 C6.14996189,41.2955762 6.79990967,42.9904371 7.66208045,44.6135364 C9.73522653,44.5644238 11.7431644,44.0930861 13.9130558,44.0787815 Z M41.2058829,20.2179338 C41.8314072,21.0931391 42.0661567,22.1643179 42.6233903,23.0738543 C42.0708991,23.0738543 41.518645,23.0738543 41.0031447,23.0738543 C40.5568836,23.354702 40.2310797,23.6651126 39.9797318,24.0937748 C39.2202343,25.3888212 38.421849,26.6609801 37.6317629,27.9376689 C37.3989104,28.3138808 37.2345857,28.6981987 37.2158532,29.1552318 C37.11318,31.6516291 36.9946196,34.1473113 36.8796161,36.6429934 C36.8632548,37.0018013 36.8580381,37.349404 37.0401468,37.683894 C37.8484912,39.1706225 38.6454538,40.6637881 39.4594891,42.1784106 C41.5549245,41.9261722 43.5913169,41.9681325 45.7270628,41.9166358 C45.6891235,43.3990728 45.7365476,44.7754172 45.5245618,46.1465166 C45.4723952,46.4831523 45.3374735,46.7463576 45.0275568,46.9089536 C43.935379,46.9594967 42.8403557,47.0102781 41.7647763,47.0603444 C40.8890896,46.368 41.4377869,45.4343841 41.3758984,44.6588344 C39.5766267,43.8074702 37.9291122,44.1352848 36.3138462,44.9263311 C36.1689654,46.5239205 36.3183514,48.0790728 36.0115173,49.7059868 C36.9014312,51.2933245 37.8243049,52.9397881 38.7493126,54.5898278 C41.6481129,54.3869404 44.4710346,54.1342252 47.3511023,54.066755 C48.4110318,52.3838146 49.4602908,50.7178013 50.4381764,49.1647947 C50.6271616,46.7701987 50.7179788,44.5114967 50.7075455,42.2499338 C50.6985349,40.3848477 50.8732929,38.5288212 50.9607904,36.6687417 C51.3866591,37.5389404 51.3826281,38.5581457 51.9004996,39.397351 C52.2282004,39.9282914 52.5435709,40.4668609 52.8451884,40.9699073 C52.7534227,41.3861722 52.3510289,41.3794967 52.1373832,41.6262517 C52.1741369,41.7263841 52.2035399,41.837245 52.2535723,41.9380927 C52.7422781,42.9227285 53.2091687,43.9192848 53.7336796,44.8843709 C54.0919689,45.5435762 54.2636443,46.2623841 54.4927029,46.9604503 C54.7646803,47.7872583 54.6366351,48.6104901 54.2496542,49.3874702 C54.0222555,49.8442649 53.7832378,50.2953377 53.5570247,50.7342517 C53.534024,51.2253775 53.5119718,51.6993377 53.4896824,52.173298 C52.8703232,52.6930331 52.5606436,53.4380662 52.133115,54.093457 C51.2294481,55.480053 50.366566,56.8931126 49.4792604,58.3078411 C45.1904587,58.5107285 40.9497925,58.7684503 36.6887339,59.153245 C36.1708624,58.2658808 35.6759915,57.4180927 35.1574086,56.5297748 C34.3789414,57.3971126 33.9725166,58.4909404 33.2023486,59.4755762 C28.9894255,59.8992318 24.7037064,60.3994172 20.4106366,61.0154702 C19.8154637,60.2437351 19.5932816,59.2874702 18.8909301,58.4775894 C18.2609005,59.4944106 17.6662018,60.4540132 17.0596471,61.4326887 C12.7471334,62.1665166 8.43295977,62.7770861 4.27955399,63.6899603 C3.83732392,63.482543 3.77258998,63.1494834 3.64407057,62.8698278 C2.49166408,60.3598411 1.35040226,57.8448477 0.195387438,55.3362914 C0.0234749471,54.9631788 -0.0296400847,54.5950728 0.0151757234,54.1876291 C0.344062103,51.2015364 0.661092449,48.2142517 0.990215949,45.1499603 C1.63779252,44.9024901 2.36907269,44.8204768 3.26230628,44.7773245 C2.63203952,43.2355232 2.03259845,41.7690596 1.44762174,40.3381192 C1.8393451,36.4088742 2.22798589,32.5130066 2.61899788,28.592106 C4.21055187,25.852053 5.81657022,23.0876821 7.44843472,20.2782517 C11.697163,20.2782517 15.9480254,20.2782517 20.1969908,20.2782517 C20.7191306,20.979894 20.8635371,21.8722649 21.3866253,22.6423311 C21.8905067,21.8343576 22.3633253,21.0762119 22.8641242,20.273245 C27.0255921,20.273245 31.2005759,20.273245 35.4447989,20.273245 C35.9693098,20.8926358 36.1037572,21.8043179 36.7122089,22.5247947 C37.3858687,21.8541457 37.6806097,20.9684503 38.2755455,20.2179338 C39.2403896,20.2179338 40.2232548,20.2179338 41.2058829,20.2179338 Z" id="Fill-3" fill="#CF2431" mask="url(#mask-2)"></path>
            </g>
            <path d="M109.437547,31.0381122 C109.848778,32.4288812 111.043835,48.1088025 110.824828,49.1038396 C110.587097,49.2210847 110.281103,48.9994368 109.985065,49.3164503 C110.282999,51.6894142 110.3323,54.1598841 110.631893,56.5751799 C111.936217,56.7835099 113.091455,57.0291775 114.259492,57.1373854 C115.448149,57.2472581 116.603861,57.6841326 117.888986,57.6054144 C117.662395,55.030066 117.44481,52.5600717 117.225803,50.0715275 C116.175565,49.8451233 115.946129,49.0957538 115.930249,48.1723003 C116.190972,47.7756172 116.23008,47.2260161 116.690374,46.8740431 C117.401909,47.8298401 117.923117,48.8450919 118.499314,49.8054074 C118.192135,50.613994 118.638208,56.4807655 119.109168,57.8715345 C121.939666,58.3195866 124.759262,58.9452899 127.686464,59.3833536 C127.414602,56.6191765 127.157198,54.0012585 126.903586,51.4216294 C126.240877,51.1980789 125.804285,50.7340929 125.251079,50.66679 C123.321021,47.3254247 121.430546,44.053265 119.547181,40.7929962 C120.874022,37.6680468 122.163413,34.6318041 123.468685,31.5579859 C123.933482,31.5579859 124.355379,31.5579859 124.893652,31.5579859 C124.625108,28.8389945 124.364148,26.1934894 124.108166,23.6022071 C122.700739,22.9103899 121.305162,23.2219336 119.949168,23.1945843 C118.596729,23.1669972 117.216322,22.9969562 115.885452,23.6007802 C115.828567,25.2498212 116.12982,26.888636 116.251886,28.5374392 C116.295735,29.1248536 116.376559,29.7170244 116.38438,30.306817 C116.391017,30.7936337 116.510949,31.2069642 116.896107,31.4816458 C116.222021,32.9544625 115.589177,34.3373834 114.956332,35.7200665 C114.857257,34.1830385 114.391986,32.7309121 114.498645,31.282353 C114.876456,31.1769989 115.179368,31.3427591 115.476829,30.9993476 C115.259007,28.5735878 115.033838,26.0662559 114.799898,23.4623692 C112.449366,23.0166953 110.190087,23.0321535 107.840029,23.5308612 C108.228269,26.0277291 108.143653,28.5134195 108.564601,30.9515459 C108.899511,30.9848407 109.129658,31.0076713 109.437547,31.0381122 Z M100.948896,23.1134878 C101.347328,22.1507941 101.767565,21.1985645 102.312949,20.3076923 C110.674557,20.3076923 119.036165,20.3076923 127.522209,20.3076923 C127.896228,22.9370257 128.061905,25.5623162 128.341115,28.1730996 C128.61677,30.7517775 128.858768,33.3342604 129.121623,35.9800033 C128.06309,35.9800033 127.05125,35.9800033 125.968777,35.9800033 C125.241835,37.6946826 124.524611,39.3860555 123.80478,41.0836118 C125.167885,43.4266104 126.494963,45.7077759 127.84669,48.0310355 C128.585957,48.4022718 129.489716,48.3095222 130.390631,48.6039429 C130.92369,53.9063684 131.454142,59.1859634 132,64.6153846 C125.110052,63.3057121 118.336244,62.0317126 111.512187,61.0690189 C104.662533,60.1029957 97.7806435,59.4142702 90.8150858,58.8116353 C90.4375122,57.7397824 90.6349503,56.6217925 90.515255,55.5411403 C90.4666658,54.2797452 90.8871401,53.0564012 90.7961242,51.7840664 C90.7558307,51.2211474 90.654623,50.7222019 90.399589,50.2123167 C89.9494871,49.3119318 89.3123761,48.3792033 89.6188435,47.3415965 C89.9006609,46.3881777 90.1739455,45.4116905 90.6913612,44.5231965 C91.2135173,43.626141 91.6074453,42.6539345 92.03266,41.7666296 C91.8224229,41.431304 91.4588334,41.4698308 91.3341607,41.1865876 C91.349567,41.1247545 91.3483819,41.0453228 91.3853571,40.9930025 C92.519026,39.392001 93.2296134,37.658534 93.1807872,35.6477694 C93.1632477,34.919328 93.051848,34.249628 92.6704821,33.626065 C92.5095452,33.3630366 92.3867686,33.0767018 92.229861,32.7677741 C92.7816447,32.2586024 93.3599747,31.8079343 94.0269503,31.4768894 C94.2111152,34.6712821 94.3900656,37.8663883 94.5818152,41.0605433 C94.6974812,42.9914005 94.8212059,44.9217821 94.9683956,46.850499 C94.9982602,47.2402853 94.8965784,47.5389867 94.6645353,47.804869 C94.4125826,47.9244923 94.128158,47.5401758 93.8525032,47.9649216 C94.0435417,49.7338237 94.0987675,51.5881031 94.1587336,53.4426202 C94.1724808,53.8654635 94.2938353,54.2852151 94.3753704,54.7653728 C96.2720082,54.9494452 98.1468401,55.1135407 100.016695,55.3185412 C101.926606,55.5278224 103.832013,55.7770573 105.773448,56.0127366 C106.584295,54.4752329 107.361722,52.9750669 108.167829,51.4910727 C108.377355,51.1060428 108.324973,50.7202994 108.294398,50.3355073 C108.169488,48.7625685 107.984612,47.1939105 107.887196,45.6195448 C107.701609,42.6244449 107.437094,39.6367174 107.181823,36.6475629 C106.959735,34.0512865 106.799983,31.4495401 106.609419,28.8002299 C105.666552,27.2555917 104.693346,25.6788478 103.740997,24.0894994 C103.48857,23.6678453 103.193954,23.3249095 102.5905,23.1134878 C102.130443,23.1134878 101.539788,23.1134878 100.948896,23.1134878 Z" id="Fill-5" fill="#CF2431"></path>
            <path d="M102.982691,47.594542 C103.520931,47.2703838 103.587698,46.8740606 103.548267,46.4198187 C103.329342,43.9082931 103.100983,41.397001 102.911086,38.8831399 C102.726512,36.4449469 102.584513,34.0034842 102.427032,31.609898 C102.168919,31.2345938 101.94951,30.9155735 101.755259,30.6332195 C100.906411,30.6332195 100.119975,30.6332195 99.2479033,30.6332195 C99.7263935,36.2553096 99.9757986,41.8185468 100.47219,47.3820175 C101.376918,47.487112 102.185852,47.4070066 102.982691,47.594542 Z M101.396513,23.0769231 C101.999584,23.0769231 102.602414,23.0769231 103.071954,23.0769231 C103.687847,23.2845432 103.988536,23.6213127 104.246166,24.0353852 C105.218144,25.5961557 106.21141,27.1445483 107.173713,28.6614127 C107.368205,31.2630861 107.53125,33.8180508 107.757916,36.367644 C108.018448,39.3030509 108.288415,42.2370566 108.477828,45.178302 C108.577251,46.7243593 108.765938,48.2648115 108.893422,49.8094675 C108.924628,50.1873407 108.97809,50.5661481 108.764245,50.9442549 C107.941522,52.4015656 107.14807,53.8747574 106.32051,55.3846154 C104.339058,55.1531739 102.394375,54.9084204 100.445096,54.7029022 C98.5366996,54.5015878 96.6232229,54.3404429 94.6874909,54.1596803 C94.6042752,53.6881562 94.4804193,53.2759521 94.4663887,52.8607119 C94.4051865,51.0395406 94.3488224,49.2186027 94.1538462,47.481507 C94.4351829,47.0643985 94.7254701,47.4418046 94.9826162,47.3243323 C95.2194422,47.0632308 95.3232199,46.7699003 95.2927397,46.3871226 C95.1425161,44.4930857 95.0162412,42.597414 94.898191,40.7012752 C94.702489,37.5645539 94.51985,34.4268984 94.331889,31.2899436 C95.0455118,30.6199076 95.7593765,29.9503387 96.4727574,29.2800691 C98.1682767,27.6866026 99.609069,25.9016304 100.799247,23.9265539 C100.977048,23.6313551 101.196456,23.3595106 101.396513,23.0769231 Z" id="Fill-6" fill="#FFFCFC"></path>
            <path d="M45.9498657,30.3568376 C44.8332696,30.3568376 43.8599025,30.3568376 42.9192103,30.3568376 C42.5841087,30.7326686 42.34826,31.095679 42.1409097,31.575736 C42.3897792,32.5327635 41.6500497,33.6968186 42.6514238,34.7117759 C43.7857085,34.5052232 44.9226956,34.5460589 46.0252881,34.5261159 C46.8603398,33.4624881 46.3650576,32.3117284 46.5652833,31.2730294 C46.3402444,30.9382716 46.1422298,30.6433998 45.9498657,30.3568376 Z M51.4886243,36.6151472 C51.3979699,38.4674739 51.2169069,40.3157645 51.2262426,42.1730769 C51.2370523,44.4252137 51.1429586,46.6745014 50.947155,49.0591168 C49.9339885,50.6056505 48.8468735,52.2647198 47.7487031,53.9406458 C44.7647261,54.0078348 41.839957,54.2594967 38.8365716,54.4615385 C37.8781907,52.8183761 36.9220209,51.1787749 36,49.5980532 C36.3179044,47.9779202 36.1631287,46.4292498 36.3132365,44.8383191 C37.9867794,44.0505698 39.6937341,43.7241216 41.5579213,44.5719373 C41.6220426,45.3442545 41.0535491,46.2739791 41.9608294,46.9634378 C43.0752144,46.9135802 44.2097447,46.8630104 45.341327,46.8126781 C45.6624251,46.6507597 45.8022146,46.3886515 45.8562632,46.0534188 C46.0758973,44.6880342 46.0267622,43.3174264 46.0660703,41.8411681 C43.8532693,41.8924501 41.7434064,41.8506648 39.5723703,42.1018519 C38.7289656,40.5935423 37.9032496,39.1066002 37.0657412,37.6260684 C36.8770622,37.2929725 36.8824671,36.9468186 36.8994187,36.5895062 C37.0185714,34.104226 37.1414093,31.6189459 37.2477869,29.1329535 C37.2671952,28.6778253 37.4374485,28.2951092 37.678702,27.9204653 C38.4972934,26.6490978 39.3244835,25.3822412 40.1113828,24.0925926 C40.371799,23.665717 40.7093574,23.3566002 41.1717191,23.0769231 C41.705818,23.0769231 42.2779967,23.0769231 42.8504211,23.0769231 C43.8159266,24.539886 44.7396672,26.0263533 45.8982738,27.3663343 C47.3487431,29.0441595 48.9675003,30.5394112 50.7759191,31.8475783 C51.8156186,32.5997151 51.8055459,32.6695157 51.5443926,33.904321 C51.3564507,34.7932099 51.4724097,35.710114 51.4886243,36.6151472 Z" id="Fill-7" fill="#FFFDFC"></path>
            <path d="M78.5447388,43.4544785 C78.3260741,41.767463 77.9353963,41.2716744 76.5978094,40.9312217 C76.4446963,40.8923877 76.2846452,40.8721369 76.126508,40.8626071 C75.237734,40.8087636 74.6829381,40.3630065 74.5465717,39.436232 C73.7068418,40.3429939 74.5262364,41.1244387 74.595855,41.9609182 C74.3506347,43.104496 73.4250179,43.4261273 72.4702139,43.6746172 C71.4343077,43.3963466 70.5754387,42.965599 70.384765,41.8055822 C70.9338191,40.0995071 70.9338191,40.0995071 70.3706498,39.491505 C70.294811,40.3649125 69.7436036,40.7539672 68.9598557,40.8502183 C67.4421216,41.0370027 66.4315749,41.7095694 66.4808581,43.4470929 C64.9669519,43.4837826 63.5721868,43.4606728 62.4953707,42.3151891 C60.8821802,44.3955477 61.8353095,47.1725357 63.9310458,48.2646525 C64.5458907,48.5850925 65.2418378,48.7871246 65.7389771,49.3110262 C65.5612223,49.638137 65.4504545,49.9600065 65.6365827,50.4286352 C69.9048509,48.0878744 74.2422593,47.5875591 78.6497648,50.1301137 C78.5770361,49.4692211 78.5770361,49.4692211 77.7495074,48.7811685 C78.6294295,48.5958136 79.4825568,48.4531046 80.3153488,48.2339188 C83.1309561,47.493214 84.2044228,44.5382566 82.4522342,42.3240042 C81.4058015,43.4668672 80.0478793,43.5755071 78.5447388,43.4544785 Z M67.2193899,38.4994512 C67.8844751,38.9811834 68.6160689,38.5213698 69.4797227,38.8086937 C68.5395123,36.7624042 67.3184349,35.3891579 65.2064304,35.010586 C63.6764951,34.7366039 62.3915409,35.2221479 61.1013234,36.2387409 C61.7235848,36.4317197 62.1202435,36.6802096 62.51762,36.942756 C63.0047112,37.264149 63.4779265,37.6341441 64.0750678,37.7549345 C64.4521089,37.9431483 64.7772351,38.1823467 65.2238949,38.2955132 C65.8947219,38.4656204 66.5535869,38.4501344 67.2193899,38.4994512 Z M80.0749133,37.5266954 C80.5060225,37.6286644 80.869427,37.4364004 81.182352,37.201014 C81.719205,36.7969498 82.3287867,36.530115 82.980953,36.1863269 C81.5268566,34.9515012 79.9067281,34.5993745 78.1798989,35.1968939 C76.4190977,35.8063256 75.2638111,37.0880857 74.5477679,39.1222246 C75.2159633,38.6876651 75.708557,38.6388248 76.221486,38.6907623 C76.4576152,38.7148251 76.7054671,38.704104 76.8506854,38.4556141 C78.0313313,38.5106488 79.1425978,38.3264851 80.0749133,37.5266954 Z M62.9183458,39.9070049 C60.6089689,38.3002781 60.8517968,36.8815269 61.0317047,34.9457833 C61.0998879,34.2138935 61.7355467,33.71334 62.3161805,33.2973636 C63.0362908,32.7815623 64.9145585,32.3115042 66.0117099,32.3076923 C66.8887611,32.9135503 67.4466672,33.89393 68.1849596,34.7065849 C68.9801911,35.5821367 69.6543674,36.5598957 70.6220903,37.2886883 C71.4838303,37.9374304 72.3001147,37.8783456 73.159223,37.3820805 C73.9238318,36.9403735 74.5496818,36.3469043 75.086774,35.642651 C75.9111926,34.56197 76.8853751,33.6378162 78.1296586,33.0412498 C79.0392464,32.6047843 79.9808923,32.608358 80.8854561,33.0176635 C81.7464783,33.4074329 82.5704184,33.8791588 83.4099091,34.3161008 C83.6690052,34.4509477 83.8943687,34.6536945 83.9115939,34.9412566 C83.9778632,36.0388531 84.1711685,37.1464558 83.6316839,38.2016445 C83.2213885,39.0042932 82.5632412,39.5491603 81.7761439,40.066391 C81.9684923,40.1442973 82.1094043,40.2014762 82.2505555,40.2584168 C82.2507947,40.5790951 82.5118048,40.7289514 82.6981722,40.9231214 C83.8505879,42.1224486 84.1362396,43.6236327 83.9005889,45.1553122 C83.7060873,46.4208716 83.4099091,47.6637977 83.4773746,48.9548493 C83.2127759,49.4422994 82.8778409,49.8782884 82.4912302,50.2747287 C81.2529276,51.5443383 80.3581726,52.9964438 80.0464438,54.7677981 C80.0134288,54.9552972 79.8981155,55.1280251 79.7985919,55.3593614 C79.3024096,54.721102 79.198819,53.9403719 78.8387639,53.2575607 C78.1461661,53.846265 77.7987907,54.607459 77.3581119,55.3403017 C76.7717364,54.7580301 76.4832138,54.0378143 76.2750756,53.2747144 C76.4676632,52.8897099 76.6310637,52.485884 76.8607334,52.124704 C77.1100208,51.7335051 77.2250949,51.3449269 77.1049967,50.9058407 C76.4918264,50.9058407 75.897556,50.9058407 75.3035248,50.9058407 C73.4898518,50.9051259 71.6759394,50.9048877 69.8620271,50.9041729 C69.159142,50.9041729 68.4567355,50.9041729 67.7969135,50.9041729 C67.623465,51.2153214 67.7481087,51.4078237 67.8215552,51.6348715 C68.0158175,52.2342969 68.5986044,52.6288312 68.6655914,53.2849589 C68.5256364,54.0201841 68.2789807,54.6991835 67.6557623,55.287173 C67.0799133,54.6079355 66.858617,53.7476314 66.1150613,53.2720937 C65.718881,53.9327481 65.6980672,54.7697041 65.1076246,55.3846154 C64.8425475,54.1709935 64.4939758,53.0159799 63.8415703,51.9672238 C63.4827113,51.39067 63.0671527,50.8715333 62.5869994,50.3967103 C62.1085208,49.923555 61.6685597,49.4222867 61.405875,48.791413 C61.6015727,47.6147191 61.248934,46.4871038 61.0666337,45.3497204 C60.8001211,43.6874824 61.0513224,42.189872 62.2338822,40.9202625 C62.4169003,40.7234718 62.6783888,40.5774274 62.6779103,40.2579403 C62.7867642,40.2329246 62.8956181,40.2076705 63.004472,40.1824165 L63.1039955,40.1812253 C63.1585421,40.2684231 63.1867723,40.4268563 63.3329475,40.2643729 C63.2762478,40.2169621 63.2197873,40.1695513 63.1633269,40.1219022 C63.1291156,39.9968234 63.0556692,39.91582 62.9183458,39.9070049 Z" id="Fill-8" fill="#EBB07D"></path>
            <path d="M96.3237562,3.69230769 C97.6143356,4.56018677 98.7484811,5.51333624 99.2126497,7.0643419 C99.3448852,7.50586906 99.7758116,7.78384087 99.9618213,8.26463095 C100.848606,10.5587415 100.764523,12.856947 100.119233,15.1546707 C99.4519446,17.529475 98.5297181,19.8043154 97.0003327,21.7941986 C96.9023171,21.9216224 96.817745,22.059163 96.6236692,22.1439517 C96.8065013,20.561632 97.4239262,19.0607287 97.1491893,17.3931387 C95.2040319,21.2758317 91.2609208,26.0360389 84.4839124,27.6923077 C82.3349022,26.6206468 81.762452,25.0019548 82.3986979,21.7310889 C83.1569133,21.2594521 84.0515195,21.0012322 84.8784191,20.6134205 C86.9702332,19.6318476 88.8811706,18.4089161 90.6980033,17.0041227 C92.575943,15.5518765 94.1309934,13.8496002 95.1835,11.7332567 C96.1032822,9.88380474 96.5095214,7.91704574 96.4745682,5.85321339 C96.4628357,5.14334948 96.0355757,4.46985798 96.3237562,3.69230769" id="Fill-9" fill="#88938E"></path>
            <path d="M78.3131266,60.7739997 C78.3364145,60.7453458 78.3770496,60.7171903 78.3777625,60.6875397 C78.378713,60.6581383 78.3395038,60.6277403 78.3176416,60.5978406 C78.2943537,60.6414443 78.2686895,60.6840514 78.2508671,60.7298976 C78.248966,60.7348809 78.2912645,60.7590499 78.3131266,60.7739997 Z M67.5781073,62.3168248 C67.5039662,62.1825252 67.429825,62.0479765 67.2399572,61.7041299 C67.2399572,62.4438985 67.283919,62.9883224 67.2278379,63.5210356 C67.1660536,64.1083158 67.527967,64.6238366 67.4647569,65.1757354 C67.1971834,65.3922592 66.9978103,65.2661821 66.7829911,65.1682605 C65.0993693,64.4010838 63.8484752,63.0673075 62.755131,61.5994809 C60.7442902,58.8997862 59.5375956,55.7792531 58.6942402,52.4932749 C58.6650114,52.3799051 58.6234259,52.2697745 58.5785134,52.1299934 C58.1457858,53.5664253 56.9661813,54.6306059 56.9412299,56.2255063 C56.6090206,55.0018606 56.2516223,53.8073672 56.31507,52.532892 C56.3937261,50.9454665 57.4160184,49.9032125 59.0007853,49.8461538 C59.2322387,50.8171469 59.4261463,51.8103157 59.7110669,52.7733355 C59.9864822,53.7037148 60.3559998,54.603447 60.7214776,55.6205354 C60.9522181,54.8112499 60.6901102,54.0580264 60.9087315,53.3708314 C61.351202,53.3048029 61.5070885,53.6389321 61.6755695,53.8983121 C62.2050133,54.7148234 62.6515235,55.5739417 62.9827824,56.5085568 C63.5635546,58.1483068 64.5506774,59.5167169 65.7300443,60.8731671 C65.9738546,60.0073213 65.4299153,59.2972032 65.6309518,58.5878325 C65.8317507,57.8782127 65.745728,57.098827 66.1765546,56.4340567 C66.7371281,56.6555638 66.936026,57.2729928 67.2739385,57.7822845 C67.4697472,57.713266 67.6377529,57.6542141 67.8411658,57.5824548 C68.7798116,59.5767655 69.9693967,61.3323768 72.0004362,62.3043666 C74.0393176,61.3742364 75.2115556,59.5989411 76.1578056,57.631291 C76.2599873,57.631291 76.3400693,57.613102 76.4075567,57.6360251 C76.4793216,57.6606924 76.5392048,57.7242292 76.6173857,57.7797929 C77.1943558,57.5179212 77.2131287,56.7171073 77.8395263,56.4051537 C78.5578874,57.6021388 78.3597025,58.9712963 78.4169717,60.284392 C78.8641949,60.3835593 79.0329135,60.0491809 79.1878495,59.8089866 C79.9340136,58.6533627 80.7778443,57.5595317 81.2269685,56.213048 C81.5273352,55.3128176 82.0306395,54.5172361 82.525389,53.7229005 C82.6318481,53.5517246 82.7606445,53.3902662 83.0857249,53.34143 C83.2660875,54.0440732 83.1063989,54.7808519 83.2078677,55.66987 C84.2201794,53.760026 84.6072817,51.813804 85.0245633,49.9144249 C86.3923723,49.8374331 87.5662737,50.8776939 87.6722575,52.1845604 C87.7599436,53.2684249 87.5453621,54.3149147 87.3131957,55.3594113 C87.2514115,55.6369803 87.1836864,55.9130543 87.0582168,56.2167855 C86.9878777,54.6844253 85.9482383,53.599315 85.408814,52.2099751 C84.9506598,54.0510498 84.3641843,55.823106 83.6154063,57.5246487 C82.3773444,60.3379623 80.7215255,62.8218807 78.2252028,64.5809804 C77.7497015,64.9161063 77.2632691,65.2856169 76.5572648,65.3075433 C76.6328317,64.063217 76.9588626,62.876946 76.9538724,61.6689977 C76.7697077,61.6214073 76.6575454,61.592006 76.5456208,61.5631029 C76.2343231,61.6261415 76.2592744,61.8576151 76.3015729,62.0978094 L76.3158308,62.0863478 C76.0256823,62.0838562 75.9408478,62.3342663 75.8068234,62.5318535 C75.1155523,63.5521811 74.2888311,64.4334751 73.2620238,65.0768172 C72.4502733,65.5853615 71.6382853,65.7567865 70.7331455,65.1607856 C69.753627,64.5156993 68.8591807,63.8023421 68.1938114,62.8069309 C68.0310336,62.5632482 67.9096037,62.3078549 67.5781073,62.3168248 Z" id="Fill-10" fill="#97A49E"></path>
            <path d="M61.8461538,24.3818461 C61.7389224,25.8545927 61.1352215,27.0238743 59.6633153,27.6923077 C53.7904813,26.4019262 49.9422269,22.6356712 46.8966064,17.8448348 C46.5522331,19.2458273 47.1480457,20.5805485 47.2626725,21.9786804 C46.5041638,21.1288355 45.8191149,20.2539602 45.3448313,19.2699042 C44.0794998,16.6459933 43.1871367,13.8981219 43.4223064,10.9740835 C43.6261695,8.43503792 44.5897737,6.17490355 46.8421279,4.61538462 C46.8423744,4.85067125 46.8386767,5.07451538 46.7336638,5.30574946 C46.1260188,6.64118589 45.835631,8.0316894 45.8260171,9.50300565 C45.8205939,10.3228139 46.1523953,11.0274819 46.3587234,11.7712451 C46.8164909,13.4213506 47.3077836,15.0709793 48.5423015,16.5537381 C48.5112413,15.836674 48.840331,15.3022134 48.8965351,14.5861029 C49.2096017,15.4278426 49.4896361,16.1511047 49.7474847,16.8817567 C50.3437904,18.571911 51.4824161,19.9097313 52.8887508,20.9786526 C54.3446339,22.0857155 55.9481759,23.0330601 57.7398044,23.5648985 C59.0746515,23.9610955 60.3954475,24.4993703 61.8461538,24.3818461" id="Fill-11" fill="#97A49E"></path>
            <path d="M60.8749911,23.9835188 C59.4583316,24.1014617 58.1685335,23.5612686 56.8650142,23.1636598 C55.1154336,22.6299261 53.5495254,21.6792054 52.1278107,20.5681972 C50.7544815,19.4954666 49.6425783,18.1528787 49.0602674,16.4567012 C48.8084703,15.7234454 48.5350081,14.9976058 48.2292889,14.1528664 C48.1744039,14.8715289 47.8530376,15.4078942 47.8833688,16.1275136 C46.6778241,14.6394707 46.1980615,12.9839632 45.7510375,11.3279772 C45.5495516,10.5815634 45.2255374,9.87438422 45.2308333,9.05165441 C45.2402216,7.57509482 45.5237942,6.17963596 46.1171783,4.83944043 C46.2197267,4.60738229 46.2233375,4.38274045 46.2230968,4.14661532 C46.350199,3.88058579 46.5439816,3.70618333 46.8602927,3.69230769 C47.0721296,4.11623245 46.9532121,4.56097067 46.9163813,4.9860916 C46.5223165,9.52414391 48.4146462,13.0806142 51.7178581,16.0167477 C54.3357293,18.3437884 57.3570536,20.0165208 60.6479885,21.2854243 C61.0232769,22.1612643 60.9207286,23.0751427 60.8749911,23.9835188" id="Fill-12" fill="#E1DFD5"></path>
            <path d="M74.5323238,18.4312603 C74.5828084,19.540064 74.3943018,20.6394125 74.277122,21.7293057 C74.0436887,23.9044798 74.0719415,26.0752722 74.0742573,28.2509076 C74.07611,29.7831231 74.3537751,31.2729052 74.7692308,32.7417012 C74.2981958,32.7043413 74.0793521,33.053264 73.8952455,33.3740514 C73.3695575,34.2905211 72.5499937,34.769742 71.5627656,35.0769231 C70.5718321,34.3659326 69.9553645,33.441622 70.2121874,32.2518719 C70.4567365,31.1195453 70.663538,29.9803001 70.9094766,28.8525858 C71.2936689,27.0909069 71.0215617,25.4154786 70.6714118,23.7165274 C70.6616854,23.6692511 70.7520018,23.6014498 70.795539,23.5433345 C71.2795425,23.5122013 70.9539401,24.094969 71.3001531,24.1828339 C71.4309962,24.1819114 71.5903236,24.2411798 71.8008304,23.9787383 C71.8008304,21.9306339 71.8008304,19.764915 71.8008304,17.6561585 C72.1192538,17.4578283 72.3077604,17.5484606 72.5279936,17.6497012 C73.1796614,17.9495025 73.8521715,18.2017969 74.5323238,18.4312603" id="Fill-13" fill="#E1DFD5"></path>
            <path d="M74.5248434,18.5316563 C73.8232152,18.2976029 73.1294705,18.0402618 72.4572261,17.7344634 C72.230039,17.6311976 72.0355803,17.5387524 71.7071026,17.7410498 C71.7071026,19.8919886 71.7071026,22.1010291 71.7071026,24.1901026 C71.4899491,24.4577938 71.3255908,24.3973398 71.1906164,24.3982807 C70.8334716,24.3086582 71.1693549,23.7142332 70.6700689,23.7459892 C70.6251571,23.805267 70.5319889,23.8744245 70.5420224,23.9226466 C70.9032283,25.6555825 71.1839274,27.364525 70.7876042,29.1614434 C70.5339,30.3117158 70.3205687,31.4737497 70.0682979,32.6287267 C69.8033658,33.8422758 70.4392984,34.7850757 71.4615208,35.5102884 C72.4799209,35.1969626 73.3253626,34.7081557 73.8676493,33.7733535 C74.0575691,33.4461493 74.2833228,33.090247 74.7692308,33.1283542 C74.2785449,34.8502343 73.3595243,36.2185645 71.6368681,36.9230769 C69.8160271,36.3898116 69.1017376,34.9313885 68.3680977,33.4995464 C68.2386178,33.2466746 68.3465974,32.9639287 68.4201763,32.6974137 C69.2751737,29.5928544 69.1354214,26.443131 68.9249569,23.2776472 C68.808855,21.5313032 68.4622215,19.7927218 68.5909847,18.0858963 C69.2696792,17.245186 70.203989,16.9974893 71.0878924,16.6756953 C71.2985959,16.5990104 71.5714115,16.5992457 71.7921485,16.6549951 C72.5979339,16.8584686 73.3793524,17.1405088 74.0396521,17.6566024 C74.3127066,17.8697204 74.6003335,18.1134182 74.5248434,18.5316563" id="Fill-14" fill="#FFFCFC"></path>
            <path d="M67.3846154,62.0622178 C67.6997971,62.0538101 67.8152507,62.2931943 67.9700174,62.5216018 C68.6026401,63.4546162 69.4530658,64.1232571 70.3843769,64.7279064 C71.2449698,65.2865474 72.0169955,65.125868 72.7887952,64.6492016 C73.7650677,64.0461871 74.5511014,63.2201365 75.2083513,62.2637676 C75.3357796,62.078566 75.416439,61.8438527 75.6923077,61.8461709 C75.2074475,64.561622 74.1478044,66.8921729 71.7160478,68.3076923 C70.6118951,68.0463549 69.9069727,67.3342745 69.3120813,66.4636168 C68.3963599,65.1235326 67.7865568,63.6419197 67.3846154,62.0622178" id="Fill-15" fill="#FFF8F7"></path>
            <path d="M75.9789212,31.7741167 C75.7813684,31.2244836 75.7061873,30.636539 75.6923077,30.054604 C78.3273481,28.6438375 83.9393294,30.1252175 85.8461538,34.4972417 C85.6444371,35.0025536 85.206536,35.0150737 84.8114303,35.0769231 C82.4905314,32.0560697 79.674131,30.6385422 75.9789212,31.7741167" id="Fill-16" fill="#E1DFD5"></path>
            <path d="M58.1840692,34.7703049 C58.1847614,34.5663975 58.1757637,34.3809125 58.2931953,34.1807905 C59.7577455,31.6872152 61.7769237,30.1735561 64.4870799,29.6844812 C65.7677539,29.4535713 66.9835982,29.4851164 68.2693478,29.8611337 C68.356787,30.5806138 68.3117985,31.2650158 67.9539665,31.9128256 C66.5535538,30.9316475 65.0862351,31.2153008 63.6253762,31.6337147 C62.13614,32.0599518 60.9133744,32.9702166 59.9021703,34.2294961 C59.6763047,34.5103735 59.456899,34.7970551 59.2379548,35.0769231 C59.017857,35.0352836 58.8307507,35.0002054 58.6438752,34.9651273 L58.6348775,35.0143376 C58.5735085,34.7082242 58.3497194,34.7624817 58.1538462,34.7546586 L58.1840692,34.7703049" id="Fill-17" fill="#FFF8F7"></path>
            <path d="M56.3076923,33.9651488 C56.5086686,33.4775178 56.6981284,32.9835318 56.9140086,32.503478 C57.1152107,32.0551997 57.4318049,31.7682429 57.8628879,31.5294381 C60.1772772,30.2464431 61.8885117,28.3379605 62.7947117,25.6622229 C62.887748,25.3877318 63.0180439,25.1596818 63.1623404,24.9230769 C63.3861241,25.6751775 63.1467591,26.4309444 63.1047573,27.3499883 C63.9163404,26.6655939 63.989279,25.748261 64.3255192,24.9692735 C64.8749298,25.8978501 64.6385003,27.4064508 63.6573293,29.3127336 C62.7621942,29.5737812 61.8108309,29.78741 60.9371484,30.2461987 C60.0587237,30.707676 59.2374305,31.2639909 58.4874952,31.9513184 C57.7678193,32.6112701 57.1657935,33.410545 56.5163464,34.1538462 C56.446795,34.0910285 56.3772437,34.0282109 56.3076923,33.9651488" id="Fill-18" fill="#FFF8F7"></path>
            <path d="M78.6720488,24.9230769 C79.1719968,25.7007872 79.1155851,26.6894631 79.8345982,27.3363122 C80.1020832,26.7953068 79.770665,26.2110017 80.0372099,25.7250831 C80.3169175,25.645941 80.3484139,25.8552227 80.4170481,26.0387652 C81.3671137,28.5852673 83.0951894,30.4093864 85.4303951,31.6593037 C86.3546054,32.1541228 86.7574783,32.929187 86.7692308,34.1538462 C84.817389,31.611193 82.4962861,29.9686919 79.503415,29.4548691 C78.4405262,27.8282446 78.245436,26.8123861 78.6720488,24.9230769" id="Fill-19" fill="#FFF8F7"></path>
            <path d="M78.1235955,20.3076923 C78.2508819,20.5285266 78.3424717,20.6876342 78.4615385,20.8948753 C76.9883515,23.3109049 77.0177072,25.8523934 77.8779469,28.4518202 C77.521686,28.6646322 77.1116455,28.5064159 76.7485741,28.6153846 C75.5865576,27.1542237 75.3113185,23.5243855 76.2856932,21.0695817 C76.2856932,21.757934 76.2856932,22.4465092 76.2856932,23.1350843 C76.9296401,22.2089619 77.1562662,21.1219491 78.1235955,20.3076923" id="Fill-20" fill="#E1DFD5"></path>
            <path d="M67.4358575,23.4195866 C67.4902366,22.6592536 67.5260829,22.1557145 67.5602222,21.6800877 C67.9308777,21.6021564 67.9701379,21.7783392 68.0313448,21.9623376 C68.430531,23.1650258 68.3154327,24.3996457 68.189605,25.6090329 C68.0842608,26.6237033 67.8235827,27.6388204 67.3612387,28.5869478 C66.8886529,28.665549 66.4702024,28.5601519 65.9978605,28.5235308 C66.3265734,27.2962798 66.5855445,26.1451737 66.5545753,24.9487378 C66.5233622,23.7505156 66.3565672,22.587798 65.7449857,21.515963 C65.5211292,21.1236267 65.4318793,20.7652319 65.7218197,20.3076923 C66.6599195,21.0957143 67.1008044,22.0927442 67.4358575,23.4195866" id="Fill-21" fill="#FFF8F7"></path>
            <path d="M68.3195218,53.5384387 C68.2540453,53.0296581 67.6843996,52.7237246 67.4945177,52.2589127 C67.4227273,52.0828532 67.3008942,51.9335813 67.4704317,51.6923077 C68.1153754,51.6923077 68.8019435,51.6923077 69.4889792,51.6923077 C69.1014985,52.01339 68.5203944,51.6529576 68.0679049,51.9614774 C69.4485241,52.2910579 70.788922,52.610847 72.0413943,52.9097602 C73.3962906,52.5811035 74.6602213,52.2744311 76.024939,51.9433726 C75.5577173,51.7163242 75.1085016,51.9690518 74.8077773,51.6936009 C75.3884137,51.6936009 75.969284,51.6936009 76.568628,51.6936009 C76.686018,52.0340812 76.5735387,52.3353961 76.3298725,52.6387431 C76.1053816,52.9188126 75.9456657,53.231951 75.7574207,53.5304948 C73.9355365,53.195372 72.0816156,53.4037615 70.245233,53.3211816 C69.5738649,53.2910686 68.9738193,53.5412098 68.3195218,53.5384387" id="Fill-22" fill="#CB7D4E"></path>
            <path d="M83.65275,48.9230769 C83.570322,47.7004792 83.9321869,46.5234553 84.1698251,45.3249981 C84.4577386,43.874531 84.1087348,42.4529424 82.7007356,41.3172058 C82.4730355,41.133331 82.1541385,40.9914203 82.1538462,40.687745 C82.9573732,40.4061798 83.5957519,41.0606836 84.4784917,40.7242943 C84.3998636,42.3543495 84.729868,43.7215653 85.8461538,44.8530153 C85.6240074,46.4235086 84.9379841,47.7704192 83.65275,48.9230769" id="Fill-23" fill="#CB7D4E"></path>
            <path d="M62.76923,40.7023245 C62.7698143,41.0101035 62.4504592,41.150796 62.2269397,41.340375 C60.782683,42.5634581 60.4758916,44.0061866 60.8013826,45.6075096 C61.0240255,46.7032121 61.4547021,47.7895045 61.215697,48.9230769 C59.8596793,47.8634082 59.3816691,46.4987147 59.0769231,45.0449694 C60.6138016,42.766808 60.4078132,42.625886 60.4688792,40.9451509 C61.2256312,40.8772146 61.9169344,40.4303498 62.76923,40.7023245" id="Fill-24" fill="#CB7D4E"></path>
            <path d="M88.6046692,38.796196 C88.6703949,39.2336584 88.4223175,39.5632599 88.1732517,39.8699892 C87.4685536,40.7374503 86.7408762,41.5870952 86.0075157,42.4615385 C85.4898641,42.2775972 85.2390686,41.9179006 85.001616,41.5856507 C84.721417,40.5397857 85.2314089,39.7970386 85.8911368,39.0879981 C86.6687261,39.2688094 86.2788195,39.9333093 86.446346,40.3611412 C87.0119329,39.9251234 87.0119329,39.9251234 87.3136287,38.9832671 C87.3346313,38.5982906 86.8938243,38.2723005 87.1320182,37.8461538 C87.83301,37.8536174 88.2293409,38.3091369 88.6046692,38.796196" id="Fill-25" fill="#CB7D4E"></path>
            <path d="M56.8248206,37.8471055 C56.9734164,37.8356594 57.0796268,37.9290973 57.048084,38.0393541 C56.9532094,38.36919 56.8201384,38.689215 56.6949532,39.0316651 C56.8334455,39.5637942 56.8837168,40.1501173 57.4783467,40.5808662 C57.755085,40.1428758 57.2945117,39.4208341 58.0515375,39.2365278 C58.7666706,39.6936729 58.7937777,40.4626672 59.0769231,41.1907824 C58.8058526,41.5995734 58.9694806,42.3225495 58.2141798,42.4615385 C57.8290133,42.4367774 57.6370462,42.2134607 57.4854932,41.9941151 C57.0162949,41.3138869 56.477604,40.689955 55.9051525,40.0868131 C55.6062357,39.7716936 55.3538938,39.4161622 55.3876544,38.9545788 C55.6934711,38.3832057 56.342808,38.2126815 56.8248206,37.8471055" id="Fill-26" fill="#CB7D4E"></path>
            <path d="M89.2309828,38.7692308 C88.8589725,38.2731915 88.4661452,37.8092733 87.7713503,37.8016721 C87.815923,37.5515683 88.101482,37.6018342 88.2202608,37.4429447 C87.360645,36.8833986 87.1478228,36.8907546 85.8461538,37.5741266 C85.9683613,36.4957377 86.4047817,35.7003093 87.2266821,35.145422 C88.1764228,34.9671617 88.9686898,35.0949109 89.4474787,36.0335359 C89.6715665,36.956223 89.436213,37.8615009 89.2309828,38.7692308" id="Fill-27" fill="#EBB07D"></path>
            <path d="M57.1068664,37.6070963 C56.6275316,37.9907159 55.981802,38.1696567 55.6776841,38.7692308 C55.6169096,38.1728433 55.376262,37.6124891 55.384839,36.9967368 C55.4034635,35.6990486 56.0134145,35.0810902 57.3041387,35.112221 C57.5004307,35.1168783 57.6974579,35.0992294 57.8939949,35.0921208 L57.8618923,35.0769231 C57.8849278,35.4595621 58.0880814,35.4772111 58.3728396,35.329156 L58.3823969,35.2813568 C58.1689508,35.5340799 58.3853376,35.7088536 58.4855666,35.9152483 C58.6928863,36.3417646 58.8847672,36.7761249 59.0702767,37.2126913 C59.0947825,37.271276 59.0462609,37.3609915 59.0102373,37.5440994 C58.2503103,37.113416 57.4697984,36.7065096 56.6147886,37.4492363 C56.8150015,37.513704 56.9610565,37.5605227 57.1068664,37.6070963" id="Fill-28" fill="#EBB07D"></path>
            <path d="M76.6580236,61.8461538 C76.5854198,61.4315005 76.5425917,61.0319019 77.0769231,60.9230769 C76.9704647,61.2474012 77.2001048,61.7412001 76.6580236,61.8461538" id="Fill-29" fill="#FFF8F7"></path>
            <path d="M62.7692308,40.6153846 C63.0279447,40.6449295 63.1663161,40.9164227 63.2307692,41.3356401 L63.1189904,41.534469 L62.9314904,41.5384615 C62.8774038,41.2302369 62.8233173,40.9228108 62.7692308,40.6153846" id="Fill-30" fill="#CB7D4E"></path>
            <path d="M10.9624248,36.3021359 C12.0801772,36.0944718 13.1603316,36.0583042 14.1910021,36.0295618 C15.1149429,34.7725593 15.2202173,32.5493319 14.4401193,31.2710121 C13.4960454,31.2925689 12.5330513,31.2413116 11.6100808,31.3749639 C10.5663116,32.6942417 10.2463647,34.940942 10.9624248,36.3021359 Z M13.9610479,44.1825931 C11.74131,44.1969643 9.68724592,44.6704959 7.56647571,44.7198371 C6.68449921,43.0891829 6.01962089,41.3864332 5.31811484,39.7050007 C5.02363754,38.9984158 5.25456207,38.2010528 5.31714457,37.4513542 C5.42921089,36.1052502 5.60070632,34.7639365 5.75012808,33.4209462 C5.89057483,32.1569976 6.04751619,30.8947257 6.16880009,29.6291005 C6.20470012,29.2561674 6.33447389,28.9462281 6.5241619,28.6319775 C7.43039518,27.1292271 8.33638588,25.6257582 9.20938737,24.1040858 C9.48203357,23.628638 9.83108862,23.2889983 10.3620695,23.0875617 C12.3183788,23.0875617 14.2991874,23.1045676 16.2792683,23.0775018 C16.904608,23.0688791 17.4654248,23.1529507 17.9537137,23.5771412 C18.6285373,25.091628 19.2798319,26.6286297 20.0012285,28.1332962 C20.2767855,28.7083844 20.3789065,29.2810775 20.2566524,29.8683812 C19.9871595,31.1629884 20.0342177,32.4827452 19.8847959,33.7871728 C19.6085112,36.1981841 19.5056625,38.6278779 19.2987521,41.0470329 C19.0035471,44.494688 18.6729272,47.9392294 18.3769945,51.3868845 C18.3401242,51.8146677 18.1220558,52.130595 17.9178137,52.4695162 C16.9094594,54.1425655 15.9003774,55.8156147 14.8396284,57.5744123 C11.986546,58.066387 9.06821291,58.5696191 6.12489532,59.0769231 C5.23467152,57.506149 4.59210943,55.8781295 3.86343578,54.2929842 C3.55391928,53.6196927 3.73875594,52.8580181 3.84160468,52.1619722 C4.03905486,50.826886 3.97186359,49.4611413 4.32213148,48.1763545 C5.85297682,46.973244 7.54658515,47.1710878 9.31199355,47.5622244 C9.47281599,48.4082101 8.7489937,49.3480877 9.52812145,50.2141931 C10.6681901,50.2879654 11.8051053,50.0625768 12.9403226,49.8606612 C13.2381958,49.563177 13.4802785,49.2544353 13.5203022,48.8326401 C13.6622043,47.333243 13.8043491,45.833846 13.9610479,44.1825931 Z" id="Fill-31" fill="#FFFDFC"></path>
            <path d="M30.3880854,30.7436997 C29.3366174,30.7436997 28.3957427,30.7436997 27.4581976,30.7436997 C27.205617,31.1443586 26.9763442,31.508789 26.715915,31.9218419 C26.8438702,32.9839097 26.3349035,34.1298752 26.9049937,35.1716837 C28.0649144,35.1716837 29.1192363,35.1716837 30.1326507,35.1716837 C30.9926616,34.3896719 30.7479295,33.3719363 30.9096572,32.4743269 C31.026672,31.8250736 30.8853981,31.2253961 30.3880854,30.7436997 Z M25.7353218,45.6984542 C25.7353218,46.4137293 25.7229544,47.1249525 25.7460244,47.8352223 C25.7503054,47.972986 25.8922929,48.1062212 25.9969402,48.2864105 C27.0172518,48.3693547 28.0185366,48.0478265 29.0407508,48.0530701 C29.3722926,48.0547386 29.602279,47.7842163 29.7544933,47.4872377 C29.9207399,47.1628494 29.9840039,46.81701 29.9809121,46.4523413 C29.9706852,45.2303435 30.1155266,44.0154962 30.2482385,42.6953 C28.0796601,42.8530848 26.0128751,43.0034809 23.9047069,43.1569754 C23.1020142,41.5095308 22.3233428,39.9183358 21.5513308,38.3242806 C21.3306201,37.8685639 21.4102948,37.3682765 21.4968667,36.9180417 C21.7451663,35.6271621 21.6669186,34.3136397 21.855046,33.0165631 C22.0536381,31.6479828 22.0752811,30.2534229 22.1787392,28.8054735 C23.1212788,27.2257191 24.0921207,25.5973421 25.0646275,23.9699186 C25.4154339,23.3831118 25.9091791,23.0751693 26.6181649,23.0816046 C28.5203682,23.0990039 30.4230471,23.1023407 32.3252504,23.0770761 C32.789504,23.0708791 33.1522022,23.2536901 33.5753104,23.4903673 C34.2909556,24.9356948 35.0158762,26.4284531 35.772429,27.905004 C35.9441457,28.2398795 36.0133557,28.5630761 35.9978964,28.9282215 C35.9643617,29.7216739 36.0240583,30.5277586 35.9058543,31.3076253 C35.6439981,33.0382525 35.745078,34.7867556 35.5552857,36.5231031 C35.344564,38.4510804 35.3424235,40.4014623 35.2282628,42.3406418 C35.0857997,44.7529374 34.9155099,47.1635645 34.7749495,49.57586 C34.7573497,49.8723619 34.6496105,50.1159511 34.5076231,50.3488147 C33.5179922,51.9678961 32.5190858,53.581019 31.4657152,55.2892417 C28.6440423,55.6236405 25.79264,55.9616145 22.87179,56.3076923 C21.8869158,54.6585793 21.113239,52.9391543 20.3076923,51.3610683 C20.4656147,49.5505954 20.6135479,47.856435 20.7543462,46.2423588 C21.6145949,45.4071959 22.7007868,45.4584402 23.7165795,45.3147179 C24.0930721,45.2613285 24.5608933,45.0430039 24.8776893,45.5735612 C25.0477412,45.8583841 25.3811857,45.4002839 25.7353218,45.6984542 Z" id="Fill-32" fill="#FFFDFC"></path>
            <path d="M108.711569,31.1217478 C108.396524,31.0907345 108.161028,31.0674745 107.818335,31.0335536 C107.387603,28.5495801 107.474186,26.0171482 107.076923,23.4733286 C109.481599,22.9652431 111.793387,22.9494941 114.198549,23.4035486 C114.437925,26.0563994 114.668328,28.6108799 114.891212,31.0822543 C114.586838,31.4321233 114.276886,31.2632461 113.890294,31.3705813 C113.781156,32.8463795 114.257241,34.325812 114.358618,35.8917427 C115.006171,34.4830593 115.653724,33.0741336 116.343476,31.5736216 C115.949367,31.2937748 115.826647,30.872672 115.819856,30.3767011 C115.811853,29.7758179 115.72915,29.1725118 115.684282,28.5740515 C115.55938,26.8942438 115.251125,25.2246123 115.309332,23.5445623 C116.671133,22.9293839 118.083623,23.1026224 119.467494,23.1307283 C120.855003,23.1585918 122.283015,22.8411898 123.723153,23.5460161 C123.985084,26.1860254 124.252109,28.8812773 124.526895,31.6513972 C123.976111,31.6513972 123.544409,31.6513972 123.068809,31.6513972 C121.733201,34.7830163 120.413843,37.8763532 119.056165,41.060065 C120.983301,44.3816406 122.917714,47.7153309 124.892628,51.119528 C125.458692,51.1880965 125.90543,51.6608074 126.583542,51.8885615 C126.843048,54.5166986 127.106434,57.1838446 127.384615,60 C124.389381,59.5536989 121.504254,58.9162296 118.607971,58.4597522 C118.126066,57.0428309 117.669626,51.0657392 117.983943,50.2419478 C117.394355,49.2635743 116.861034,48.2292314 116.132961,47.2554614 C115.66197,47.614053 115.621952,48.1739889 115.35517,48.5781313 C115.37142,49.5189496 115.606188,50.2824105 116.680834,50.5130721 C116.904931,53.0484115 117.127573,55.5648521 117.359431,58.1886279 C116.044438,58.2688265 114.861866,57.8237368 113.645582,57.7117981 C112.450399,57.6015554 111.268312,57.3512681 109.933674,57.1390207 C109.627117,54.6783071 109.576671,52.1613819 109.271812,49.7437962 C109.574731,49.4208215 109.887836,49.6466373 110.131093,49.5271875 C110.355189,48.5134394 109.132358,32.5386691 108.711569,31.1217478" id="Fill-33" fill="#FFFDFC"></path>
            <path d="M102.768917,48 C101.915561,47.8060834 101.049251,47.8889145 100.080353,47.780244 C99.5487537,42.0274663 99.281659,36.2749301 98.7692308,30.4615385 C99.7031558,30.4615385 100.545372,30.4615385 101.454427,30.4615385 C101.662455,30.7535 101.897426,31.0833755 102.173847,31.4714501 C102.342498,33.9464824 102.494568,36.4710201 102.692234,38.992177 C102.895599,41.5915767 103.140155,44.1883199 103.374608,46.7853047 C103.416835,47.255003 103.345334,47.6648117 102.768917,48" id="Fill-34" fill="#CF2431"></path>
            <path d="M45.5165554,30.4615385 C45.7157564,30.7652385 45.9208089,31.077745 46.1538462,31.432523 C45.946504,32.5333412 46.4593896,33.7529219 45.5946585,34.8801597 C44.4528776,34.9012954 43.2754797,34.8580175 42.1008803,35.0769231 C41.0639153,34.0012665 41.8299363,32.7675953 41.5722215,31.7533329 C41.7869414,31.2445662 42.0311726,30.8598459 42.3781845,30.4615385 C43.3523108,30.4615385 44.3602733,30.4615385 45.5165554,30.4615385" id="Fill-35" fill="#CF2431"></path>
            <path d="M74.787971,46.140782 C74.8189833,46.3193994 74.936689,46.3638137 75.0971541,46.4231128 C75.9600948,46.7412151 76.9076143,46.6420632 77.9230321,47.0595575 C77.1954178,47.1157356 76.6238049,47.1599098 75.9563357,47.2115264 C76.1334817,47.3810209 76.2100726,47.5207458 76.2993505,47.5296287 C77.6056259,47.6604708 78.9149556,47.7435375 80.1725982,47.238415 C81.5317355,46.6922393 82.1000593,45.7785054 81.9962151,44.2652987 C81.5930552,44.689035 81.0691354,44.8172362 80.6514092,45.1365389 C79.0258481,45.2885078 77.4047508,45.3213984 75.7831837,45.0505913 C75.3283367,44.9744868 74.8528149,44.9984945 74.3885702,45.018661 C74.10758,45.031145 73.8632407,45.1607867 73.8566623,45.5773207 C74.1428213,45.7693825 74.3237263,46.1748729 74.787971,46.140782 Z M64.4573526,45.2280083 C63.936487,44.919269 63.3498378,44.7360901 62.8719665,44.2775426 C62.6609889,45.0911643 62.9720516,45.6474233 63.3787356,46.2173666 C63.7891786,46.7925916 64.3408216,47.2468177 64.9573084,47.3118787 C65.7258025,47.3930248 66.4651638,47.6782365 67.2585616,47.6165367 C67.7984575,47.5745231 68.3209677,47.5723624 68.778399,47.176235 C68.3042868,47.057877 67.8109094,47.2345738 67.2587966,47.0057802 C67.7505294,46.8855015 68.0766284,46.6156547 68.4739147,46.6579083 C69.0976847,46.7246498 69.6044538,46.4502415 70.1015903,46.128538 C70.5989617,46.1251769 70.8207466,45.7756245 71.0347784,45.4464786 C70.8343732,44.9653639 70.4793764,44.9915323 70.126729,44.9680047 C69.3084274,44.9135072 68.516909,45.1293366 67.7129388,45.186475 C66.6319723,45.2630596 65.5427829,45.2198457 64.4573526,45.2280083 Z M78.4044275,43.7414502 C79.8805657,43.8634094 81.2140944,43.7539342 82.2417291,42.6022837 C83.9624416,44.8335615 82.9082585,47.8112393 80.1432305,48.5576394 C79.3253986,48.7785104 78.4875968,48.9223167 77.6234815,49.1090968 C78.4361446,49.8024398 78.4361446,49.8024398 78.5075668,50.468414 C74.1792372,47.9063099 69.9197455,48.410472 65.7281519,50.7692308 C65.5453673,50.2969989 65.6541453,49.9726545 65.8287069,49.6430285 C65.3404982,49.1150987 64.657053,48.9115132 64.053253,48.5886093 C61.9951643,47.4880953 61.0591569,44.6897552 62.6433683,42.5934009 C63.7008406,43.7476922 65.0705503,43.7709797 66.5572609,43.7340078 C66.5088629,41.9831246 67.5012563,41.3053866 68.991726,41.117166 C69.7613948,41.0201748 70.3027003,40.6281287 70.3771768,39.7480056 C70.9302294,40.3606827 70.9302294,40.3606827 70.3910384,42.0798757 C70.5782869,43.2488117 71.4217273,43.6828713 72.4390246,43.9632815 C73.3766766,43.712881 74.2856658,43.3887767 74.5264809,42.236406 C74.4581129,41.3934949 73.6534378,40.6060416 74.478083,39.6923077 C74.6119997,40.6262081 75.1568293,41.0753926 76.0296375,41.12965 C76.1849339,41.1392531 76.3421098,41.1596597 76.4924725,41.1987923 C77.8060311,41.5418626 78.1896908,42.0414633 78.4044275,43.7414502 Z" id="Fill-36" fill="#1D1E1D"></path>
            <path d="M63.8717253,37.7647975 C63.2796234,37.6496613 62.8104017,37.2969855 62.3274211,36.9906368 C61.9333982,36.7403801 61.5400869,36.5035219 60.9230769,36.3195764 C62.202406,35.3505697 63.4765163,34.8877537 64.9935401,35.1489109 C67.087721,35.509762 68.2984934,36.8187272 69.2307692,38.7692308 C68.3744039,38.4953564 67.6489842,38.9336462 66.9895118,38.4744638 C67.1980284,38.2712154 67.5718876,38.2871119 67.7341463,37.9360258 C66.5874234,36.4115491 64.975037,36.2369144 63.1996802,36.4676411 C63.2046618,37.0380993 63.8859585,37.2311285 63.8717253,37.7647975" id="Fill-37" fill="#2E2D2C"></path>
            <path d="M76.114802,38.9614081 C75.9717447,39.2338628 75.727581,39.2456178 75.4949656,39.2192344 C74.9896694,39.162288 74.5044059,39.2158385 73.8461538,39.6923077 C74.5515417,37.461993 75.6896367,36.0566179 77.4242357,35.3884116 C79.1253682,34.7332665 80.7213879,35.1193528 82.1538462,36.4732672 C81.5113846,36.8502107 80.910874,37.1427796 80.3820098,37.5858123 C80.0737414,37.8438998 79.7157447,38.0547061 79.2910507,37.942903 C79.5168314,37.5463678 79.7426121,37.1500938 79.9745205,36.7428484 C77.8555286,36.315489 76.5154566,36.7948317 75.3686416,38.3731359 C75.5074566,38.740153 75.9123535,38.6928718 76.114802,38.9614081" id="Fill-38" fill="#2E2D2C"></path>
            <path d="M75.3445838,51.6942687 C75.6585607,52.1119645 76.1275729,51.7287265 76.6153846,52.0730244 C75.1905252,52.5750438 73.8708944,53.040084 72.4562892,53.5384615 C71.1486218,53.0851873 69.749154,52.6002568 68.3076923,52.1004786 C68.7801226,51.6326369 69.3868353,52.1791993 69.7913919,51.6923077 C71.6425373,51.6931481 73.4936826,51.6934283 75.3445838,51.6942687" id="Fill-39" fill="#2E2D2C"></path>
            <path d="M64.3763456,38.1424355 C64.3908328,37.6710855 63.6973782,37.5005972 63.6923077,36.9967541 C65.4993461,36.7929704 67.1405058,36.9472122 68.3076923,38.2936687 C68.1425381,38.6037568 67.7620073,38.5897166 67.5497696,38.7692308 C66.8778044,38.7277119 66.2128413,38.7407492 65.5358055,38.597539 C65.0850118,38.5022661 64.7568764,38.3008894 64.3763456,38.1424355" id="Fill-40" fill="#FFF8F7"></path>
            <path d="M76.440008,38.7615754 C76.2371418,38.5530157 75.8314092,38.5897368 75.6923077,38.3046916 C76.8414896,37.0788957 78.1843273,36.7066125 80.3076923,37.0385228 C80.0753053,37.3548114 79.8490587,37.662579 79.622812,37.9705496 C78.7024746,38.6516149 77.6054853,38.8084405 76.440008,38.7615754" id="Fill-41" fill="#FFF8F7"></path>
            <path d="M62.8836923,40.6153846 C62.9926154,40.7076923 63.1015385,40.7995385 63.2109231,40.8913846 C62.9289231,41.2061538 62.8744615,40.8992308 62.7692308,40.7303077 L62.8836923,40.6153846" id="Fill-42" fill="#CB7D4E"></path>
            <path d="M78.5825819,61.2493846 C78.5401204,61.2216923 78.4579665,61.1769231 78.4616588,61.1676923 C78.4962742,61.0827692 78.5461204,61.0038462 78.5913512,60.9230769 C78.6338127,60.9784615 78.7099665,61.0347692 78.7081204,61.0892308 C78.7067358,61.1441538 78.6278127,61.1963077 78.5825819,61.2493846" id="Fill-43" fill="#2E2D2C"></path>
            <path d="M59.0769231,35.7648836 C58.5624792,36.168701 58.1954621,36.1205638 58.1538462,35.0769231 C58.5297178,35.0976488 58.9591588,34.9539058 59.0769231,35.7648836" id="Fill-44" fill="#2E2D2C"></path>
            <path d="M11.4824323,36 C10.7286224,34.7512863 11.0654365,32.6902386 12.1642319,31.4799773 C13.1358601,31.3573691 14.149622,31.4043909 15.1434662,31.3846154 C15.9646899,32.5573032 15.8538656,34.5968176 14.8812159,35.7499496 C13.7962098,35.776317 12.6591111,35.8094959 11.4824323,36" id="Fill-45" fill="#CF2431"></path>
            <path d="M29.8629645,30.4615385 C30.3942843,30.9636212 30.5452188,31.5886781 30.4202024,32.265409 C30.2474154,33.201007 30.5088827,34.2618151 29.5900628,35.0769231 C28.5073494,35.0769231 27.380931,35.0769231 26.1416929,35.0769231 C25.532619,33.9910233 26.0763896,32.7965584 25.9396847,31.6895418 C26.2179224,31.2590078 26.4628733,30.879154 26.7327259,30.4615385 C27.7343819,30.4615385 28.7395953,30.4615385 29.8629645,30.4615385" id="Fill-46" fill="#CF2431"></path>
            <path d="M80.7661703,45.263981 C81.1934075,44.9135087 81.7292561,44.7727928 82.1415953,44.3076923 C82.2478039,45.9686148 81.6665402,46.9715453 80.2764575,47.5710375 C78.9901804,48.1254688 77.6510393,48.0342933 76.315022,47.8906787 C76.2237115,47.8809288 76.1453766,47.7275642 75.9641973,47.541524 C76.6468637,47.4848687 77.2314914,47.4363823 77.9756723,47.3747203 C76.9371351,46.9164711 75.968042,47.025302 75.0854536,46.6761473 C74.9213349,46.6110595 74.8009492,46.5623096 74.7692308,46.366256 C74.8593398,46.0924659 75.0782448,46.1788982 75.2627882,46.1377902 C75.7971952,46.0184188 76.2551896,46.3638843 76.7658077,46.4034113 C78.0028252,46.4990665 79.1627092,46.0558376 80.3521491,45.8273718 C80.5688915,45.7857368 80.7762625,45.5828318 80.7661703,45.263981" id="Fill-47" fill="#506869"></path>
            <path d="M69.2307692,46.3492512 C68.7277061,46.7040747 68.2148954,47.0067338 67.583689,46.9331212 C67.1816664,46.8865175 66.8516798,47.1841455 66.3540847,47.3168072 C66.9127796,47.5691555 67.4120389,47.3742674 67.8918033,47.5048106 C67.4289187,47.9417201 66.9001793,47.9441033 66.353847,47.9904422 C65.5509905,48.0584941 64.8028148,47.7439193 64.025159,47.654419 C63.4013226,47.58266 62.8431031,47.0816704 62.427767,46.4472249 C62.0162347,45.8186048 61.7014636,45.2050779 61.9149563,44.3076923 C62.3985246,44.8134481 62.9921677,45.0154857 63.5192429,45.3560103 C63.5335074,45.4841704 63.5475342,45.6123305 63.5627498,45.7471105 C64.3522927,46.0269974 65.1706024,46.0561247 65.9634737,46.218708 C66.7137891,46.3725531 67.4022915,46.4596702 68.1397688,46.2126177 C68.4902013,46.0953141 68.905062,45.9475593 69.2307692,46.3492512" id="Fill-48" fill="#506869"></path>
            <path d="M81.2303932,45.3380273 C81.2411168,45.5636833 81.0207718,45.7072826 80.7904691,45.7367484 C79.5266129,45.8984374 78.2941616,46.2121178 76.9797512,46.1444211 C76.4371867,46.1164472 75.9505382,45.8719555 75.3826966,45.9564366 C75.1866074,45.9855294 74.9540068,45.9243599 74.8582601,46.1181256 C74.3537389,46.1446075 74.1571391,45.8296217 73.8461538,45.6804276 C73.8533029,45.3568631 74.1188404,45.2561571 74.4242085,45.2464595 C74.9287296,45.2307941 75.4455064,45.2121449 75.9398146,45.271263 C77.7020642,45.4816266 79.4638031,45.4560771 81.2303932,45.3380273" id="Fill-49" fill="#97A49E"></path>
            <path d="M69.2370998,46.1409654 C68.9209008,45.8574644 68.5181509,45.961745 68.1779485,46.044534 C67.4620001,46.2188955 66.7935969,46.1574111 66.0651851,46.0488323 C65.2954598,45.9340863 64.5010386,45.9135292 63.7345445,45.7159943 C63.7197732,45.620871 63.7061558,45.5304198 63.6923077,45.4399686 C64.7586139,45.4336145 65.8286129,45.4672534 66.8905338,45.4076379 C67.6803389,45.3631598 68.4579116,45.1951523 69.2617956,45.2375746 C69.6082297,45.2558891 69.9569719,45.2355189 70.1538462,45.6100318 C69.9435853,45.8662479 69.7257081,46.1383491 69.2370998,46.1409654" id="Fill-50" fill="#97A49E"></path>
        </g>
    </g>
</svg>