<svg width="398" height="139" viewBox="0 0 398 139" fill="none" xmlns="http://www.w3.org/2000/svg">
<path d="M38.0523 25.8558L39.1584 39.5569H38.0523C36.9461 36.2421 35.3974 33.5903 33.6276 31.8224C30.9728 29.3915 27.6543 28.0656 23.672 28.0656C18.1412 28.0656 13.9377 30.2755 11.0617 34.6952C8.62813 38.452 7.52196 42.8717 7.52196 47.9544C7.52196 52.1531 8.40689 55.9099 9.95553 59.2247C11.5042 62.5394 13.7165 65.1913 16.3713 66.7382C19.0261 68.2851 21.6809 69.169 24.3357 69.169C25.8844 69.169 27.433 68.948 28.9817 68.5061C30.5303 68.0641 31.8577 67.4011 33.4063 66.7382V54.142C33.4063 51.9321 33.1851 50.6062 32.9639 49.9432C32.5214 49.2803 32.0789 48.8383 31.4152 48.3963C30.7515 47.9544 29.4241 47.9544 27.6543 47.9544V46.6284H44.2468V47.9544H43.3619C41.592 47.9544 40.4858 48.6173 39.8221 49.7223C39.3797 50.6062 39.1584 52.1531 39.1584 54.363V67.6221C36.7249 68.948 34.2913 69.832 31.8577 70.4949C29.4241 71.1579 26.7693 71.3789 23.8933 71.3789C15.4864 71.3789 9.0706 68.7271 4.64591 63.2024C1.54864 59.2247 0 54.5839 0 49.2803C0 45.5235 0.884936 41.7668 2.65481 38.231C4.86715 34.0322 7.74319 30.9384 11.7254 28.5076C14.8227 26.7397 18.5837 25.6348 23.0083 25.6348C24.557 25.6348 26.1056 25.8558 27.433 26.0767C28.7604 26.2977 30.5303 26.9607 32.9639 27.8446C34.07 28.2866 34.955 28.5076 35.3974 28.5076C35.8399 28.5076 36.0611 28.2866 36.5036 27.8446C36.7248 27.4027 36.9461 26.7397 36.9461 25.6348H38.0523V25.8558Z" fill="#B28959"/>
<path d="M89.5997 70.2735H77.8743L63.0516 49.9428C61.9454 49.9428 61.0605 49.9428 60.3968 49.9428C60.1755 49.9428 59.7331 49.9428 59.5118 49.9428C59.2906 49.9428 58.8481 49.9428 58.4057 49.9428V62.539C58.4057 65.1908 58.6269 66.9587 59.2906 67.6217C60.1755 68.5056 61.2817 68.9476 63.0516 68.9476H64.8215V70.0525H46.2378V68.9476H47.7864C49.5563 68.9476 50.8837 68.2846 51.7686 67.1797C52.2111 66.5167 52.4323 64.9698 52.4323 62.539V34.4737C52.4323 31.8219 52.2111 30.054 51.5474 29.3911C50.6625 28.5071 49.5563 28.0651 47.7864 28.0651H46.2378V26.9602H62.1666C66.8126 26.9602 70.1311 27.4022 72.3434 28.0651C74.5558 28.7281 76.3256 30.054 77.8743 31.8219C79.4229 33.5898 80.0866 35.7996 80.0866 38.2305C80.0866 40.8823 79.2017 43.3132 77.4318 45.0811C75.6619 47.0699 73.0071 48.3959 69.2461 49.2798L78.3167 61.655C80.3078 64.5279 82.0777 66.5167 83.6263 67.4007C85.175 68.2846 86.9449 68.9476 89.3784 69.1686V70.2735H89.5997ZM58.6269 47.9539C59.0694 47.9539 59.2906 47.9539 59.7331 47.9539C59.9543 47.9539 60.1755 47.9539 60.3968 47.9539C64.6002 47.9539 67.6975 47.0699 69.6886 45.3021C71.9009 43.5342 72.7859 41.3243 72.7859 38.4515C72.7859 35.7997 71.9009 33.5898 70.1311 31.8219C68.3612 30.054 66.1489 29.1701 63.2728 29.1701C61.9454 29.1701 60.3968 29.3911 58.1844 29.833V47.9539H58.6269Z" fill="#B28959"/>
<path d="M136.501 47.291H109.953L105.307 58.1193C104.201 60.7712 103.538 62.7601 103.538 64.086C103.538 65.1909 103.98 66.0748 105.086 66.9588C106.192 67.8427 108.183 68.2847 111.502 68.5057V70.2736H89.821V68.5057C92.6971 68.0637 94.467 67.4008 95.3519 66.5168C97.1218 64.9699 98.8916 61.6551 101.104 56.5724L125.44 0H127.21L151.103 57.2354C153.094 61.8761 154.864 64.7489 156.412 66.0748C157.961 67.4008 160.173 68.2847 163.05 68.2847V70.0526H135.838V68.5057C138.493 68.2847 140.484 67.8427 141.369 67.1798C142.254 66.2958 142.917 65.4119 142.917 64.307C142.917 62.7601 142.254 60.5502 140.926 57.2354L136.501 47.291ZM135.174 43.5343L123.449 15.69L111.502 43.5343H135.174Z" fill="#B28959"/>
<path d="M163.271 26.9602H174.996L201.544 59.6662V34.4737C201.544 31.8219 201.323 30.054 200.659 29.3911C199.774 28.5071 198.668 28.0651 196.898 28.0651H195.349V26.9602H210.393V28.0651H208.845C207.075 28.0651 205.747 28.7281 204.863 29.833C204.42 30.496 204.199 32.0429 204.199 34.4737V71.1574H203.093L174.332 36.2416V62.9809C174.332 65.6328 174.553 67.4007 175.217 68.0636C176.102 68.9476 177.208 69.3895 178.978 69.3895H180.527V70.4945H165.483V69.3895H167.032C168.801 69.3895 170.129 68.7266 171.014 67.6217C171.456 66.9587 171.677 65.4118 171.677 62.9809V32.4849C170.35 30.938 169.465 30.054 168.801 29.612C168.138 29.1701 167.253 28.7281 165.925 28.2861C165.262 28.0651 164.377 28.0651 163.049 28.0651V26.9602H163.271Z" fill="#B28959"/>
<path d="M212.606 70.2735V69.1686H214.154C215.924 69.1686 217.252 68.5056 218.137 67.4007C218.579 66.7377 218.8 65.1908 218.8 62.76V34.4737C218.8 31.8219 218.579 30.054 217.915 29.3911C217.03 28.5071 215.924 28.0651 214.154 28.0651H212.606V26.9602H230.304C236.72 26.9602 241.809 27.6232 245.127 29.1701C248.446 30.717 251.322 33.1478 253.313 36.4626C255.304 39.7774 256.41 43.9761 256.41 48.3959C256.41 54.3625 254.64 59.4452 250.879 63.6439C246.676 68.2846 240.481 70.4945 232.074 70.4945H212.606V70.2735ZM225.216 67.1797C227.871 67.8426 230.304 68.0636 232.074 68.0636C236.941 68.0636 241.145 66.2957 244.463 62.76C247.782 59.2242 249.331 54.5835 249.331 48.6168C249.331 42.6502 247.782 37.7885 244.463 34.4737C241.145 30.938 236.941 29.1701 231.853 29.1701C229.862 29.1701 227.65 29.3911 225.216 30.054V67.1797V67.1797Z" fill="#B28959"/>
<path d="M305.746 48.1749C308.843 48.8378 311.055 49.9428 312.604 51.2687C314.595 53.2576 315.701 55.6884 315.701 58.5612C315.701 60.7711 315.037 62.76 313.71 64.7488C312.383 66.7377 310.392 68.0636 308.179 69.1686C305.746 70.0525 302.206 70.4945 297.339 70.4945H276.543V69.3895H278.091C279.861 69.3895 281.189 68.7266 282.074 67.6217C282.516 66.9587 282.737 65.1908 282.737 62.76V34.4737C282.737 31.8219 282.516 30.054 281.852 29.3911C280.967 28.5071 279.861 28.0651 278.091 28.0651H276.543V26.9602H295.348C298.887 26.9602 301.763 27.1812 303.755 27.6232C307.073 28.2861 309.507 29.833 311.055 31.6009C312.825 33.5898 313.489 35.7997 313.489 38.4515C313.489 40.6613 312.825 42.6502 311.498 44.1971C310.392 45.965 308.4 47.2909 305.746 48.1749ZM288.932 46.407C289.817 46.628 290.702 46.628 291.587 46.849C292.693 46.849 293.799 47.0699 294.905 47.0699C298.002 47.0699 300.436 46.628 301.985 45.965C303.533 45.3021 304.861 44.1971 305.524 42.8712C306.409 41.5453 306.852 39.9984 306.852 38.2305C306.852 35.5787 305.746 33.5898 303.755 31.8219C301.763 30.054 298.666 29.1701 294.684 29.1701C292.472 29.1701 290.702 29.3911 288.932 29.833V46.407V46.407ZM288.932 67.1797C291.365 67.8426 293.799 68.0636 296.233 68.0636C300.215 68.0636 303.091 67.1797 305.082 65.4118C307.073 63.6439 308.179 61.434 308.179 59.0032C308.179 57.2353 307.737 55.6884 306.852 54.1415C305.967 52.5946 304.418 51.2687 302.427 50.3847C300.436 49.5008 297.781 49.0588 294.684 49.0588C293.357 49.0588 292.25 49.0588 291.365 49.0588C290.48 49.0588 289.596 49.2798 289.153 49.2798V67.1797H288.932Z" fill="#B28959"/>
<path d="M333.178 29.1701V46.407H342.691C345.125 46.407 346.895 45.965 347.559 45.3021C348.665 44.4181 349.328 42.6502 349.328 40.2194H350.435V55.2464H349.55C349.328 53.0366 348.886 51.7107 348.665 51.2687C348.222 50.6057 347.559 49.9428 346.674 49.5008C345.789 49.0588 344.461 48.8378 342.691 48.8378H333.178V63.2019C333.178 65.1908 333.178 66.2957 333.4 66.7377C333.621 67.1797 333.842 67.4007 334.285 67.8426C334.727 68.0636 335.612 68.2846 336.718 68.2846H344.019C346.452 68.2846 348.222 68.0636 349.328 67.8426C350.435 67.6217 351.541 66.7377 352.647 65.8538C353.974 64.5278 355.302 62.539 356.629 59.8871H357.957L354.196 70.7155H320.789V69.6105H322.338C323.444 69.6105 324.329 69.3895 325.214 68.9476C325.878 68.5056 326.32 68.0636 326.541 67.4007C326.763 66.7377 326.984 65.4118 326.984 63.2019V34.4737C326.984 31.8219 326.763 30.054 326.099 29.3911C325.435 28.5071 324.108 28.0651 322.338 28.0651H320.789V26.9602H354.417L354.859 36.4626H353.532C353.089 34.2527 352.647 32.7058 351.983 31.8219C351.541 30.938 350.656 30.275 349.55 29.833C348.665 29.612 347.116 29.3911 345.125 29.3911H333.178V29.1701Z" fill="#B28959"/>
<path d="M397.557 26.9602L398 37.1256H396.673C396.451 35.3577 396.009 34.0318 395.788 33.3688C395.124 32.0429 394.239 31.1589 393.133 30.717C392.027 30.275 390.478 29.833 388.708 29.833H382.735V62.9809C382.735 65.6328 382.956 67.4007 383.62 68.0636C384.505 68.9476 385.611 69.3895 387.381 69.3895H388.929V70.4945H370.567V69.3895H372.116C373.885 69.3895 375.213 68.7266 376.098 67.6217C376.54 66.9587 376.762 65.4118 376.762 62.9809V29.833H371.452C369.461 29.833 367.912 30.054 367.027 30.275C365.921 30.717 365.036 31.3799 364.151 32.7058C363.266 33.8108 362.824 35.3577 362.824 37.3466H361.496L361.939 27.1812H397.557V26.9602Z" fill="#B28959"/>
<path d="M25.4419 110.272L26.1056 119.553H25.4419C24.557 116.901 23.4508 114.912 21.9022 113.587C20.3535 112.261 18.5837 111.819 16.3713 111.819C14.6015 111.819 13.0528 112.261 11.5042 113.145C9.95555 114.028 8.84938 115.575 8.18568 117.564C7.30074 119.553 6.85827 121.984 6.85827 125.078C6.85827 127.509 7.30074 129.719 7.96444 131.486C8.84938 133.254 9.95555 134.58 11.5042 135.685C13.0528 136.569 14.8227 137.011 16.8138 137.011C18.5837 137.011 20.1323 136.569 21.4597 135.906C22.7871 135.243 24.3358 133.696 25.8844 131.486L26.5481 131.928C25.2207 134.359 23.6721 136.127 21.9022 137.232C20.1323 138.337 17.92 139 15.4864 139C11.0617 139 7.52198 137.232 5.0884 133.917C3.31853 131.486 2.43359 128.614 2.43359 125.299C2.43359 122.647 3.0973 120.216 4.20347 117.785C5.30964 115.575 7.07951 113.808 9.29185 112.482C11.5042 111.156 13.7165 110.714 16.1501 110.714C18.1412 110.714 20.1323 111.156 21.9022 112.04C22.5659 112.261 22.7871 112.482 23.0084 112.482C23.4508 112.482 23.6721 112.261 23.8933 112.04C24.3358 111.598 24.557 111.156 24.557 110.493H25.4419V110.272Z" fill="#B28959"/>
<path d="M95.7946 128.835H85.3965L83.6267 133.033C83.1842 134.138 82.963 134.801 82.963 135.464C82.963 135.906 83.1842 136.127 83.6267 136.569C84.0691 137.011 84.9541 137.011 86.0603 137.232V137.895H77.4321V137.011C78.5383 136.79 79.202 136.569 79.6445 136.127C80.3082 135.464 80.9719 134.138 81.8568 132.149L91.3699 109.83H92.0336L101.547 132.591C102.21 134.359 103.095 135.464 103.538 136.127C104.201 136.569 105.086 137.011 106.193 137.011V137.674H95.5733V137.011C96.6795 137.011 97.3432 136.79 97.7857 136.569C98.2281 136.348 98.4494 135.906 98.4494 135.464C98.4494 134.801 98.2281 133.917 97.5644 132.591L95.7946 128.835ZM95.1308 127.288L90.7062 116.459L86.0603 127.288H95.1308Z" fill="#B28959"/>
<path d="M174.332 110.272V119.553H173.669C173.448 117.785 173.005 116.238 172.341 115.354C171.678 114.25 170.793 113.366 169.687 112.924C168.58 112.482 167.253 112.04 166.147 112.04C164.819 112.04 163.713 112.482 162.828 113.366C161.943 114.25 161.501 115.133 161.501 116.238C161.501 117.122 161.722 117.785 162.386 118.448C163.271 119.553 165.262 120.879 168.359 122.426C170.793 123.752 172.563 124.857 173.448 125.52C174.332 126.183 174.996 127.067 175.66 128.172C176.102 129.056 176.324 130.161 176.324 131.265C176.324 133.254 175.439 135.022 173.89 136.569C172.341 138.116 170.35 138.779 167.695 138.779C166.811 138.779 166.147 138.779 165.483 138.558C165.041 138.558 164.156 138.337 162.828 137.895C161.501 137.011 160.616 137.011 160.395 137.011C159.952 137.011 159.731 137.011 159.51 137.232C159.289 137.453 159.067 137.895 159.067 138.558H158.404V129.277H159.067C159.51 131.265 159.952 132.591 160.395 133.696C161.058 134.58 161.943 135.464 163.05 136.127C164.156 136.79 165.483 137.011 167.032 137.011C168.802 137.011 169.908 136.569 171.014 135.685C171.899 134.801 172.563 133.696 172.563 132.591C172.563 131.928 172.341 131.265 172.12 130.603C171.678 129.94 171.235 129.277 170.35 128.614C169.687 128.172 168.359 127.288 165.926 125.962C163.492 124.636 161.943 123.531 161.058 122.868C160.173 122.205 159.289 121.321 158.846 120.216C158.404 119.332 158.182 118.227 158.182 117.122C158.182 115.133 158.846 113.587 160.395 112.04C161.943 110.714 163.713 109.83 166.147 109.83C167.474 109.83 169.023 110.272 170.793 110.935C171.456 111.377 172.12 111.377 172.341 111.377C172.784 111.377 173.005 111.377 173.226 111.156C173.448 110.935 173.669 110.493 173.669 109.83H174.332V110.272Z" fill="#B28959"/>
<path d="M239.818 137.011V137.674H228.314V137.011H229.199C230.305 137.011 231.19 136.79 231.632 136.127C231.853 135.685 232.075 134.581 232.075 133.034V115.576C232.075 114.25 232.075 113.366 231.853 112.924C231.632 112.482 231.411 112.261 230.969 112.04C230.305 111.819 229.862 111.598 229.199 111.598H228.314V110.935H239.818V111.598H238.933C237.827 111.598 236.942 111.819 236.499 112.482C236.057 112.924 236.057 114.029 236.057 115.576V133.034C236.057 134.36 236.057 135.244 236.278 135.686C236.499 136.127 236.721 136.348 237.163 136.569C237.827 136.79 238.269 137.011 238.933 137.011H239.818Z" fill="#B28959"/>
<path d="M289.374 110.714H296.675L313.267 131.045V115.576C313.267 113.808 313.046 112.924 312.604 112.482C312.161 111.819 311.276 111.598 310.17 111.598H309.285V110.935H318.798V111.598H317.913C316.807 111.598 315.922 112.04 315.48 112.703C315.258 113.145 315.037 114.029 315.037 115.576V138.337H314.152L296.232 116.681V133.255C296.232 135.023 296.454 135.907 296.675 136.349C297.117 137.011 298.002 137.232 299.108 137.232H299.993V137.895H290.48V137.011H291.365C292.471 137.011 293.356 136.569 293.799 135.907C294.02 135.465 294.241 134.581 294.241 133.034V114.25C293.356 113.366 292.914 112.703 292.471 112.482C292.029 112.261 291.365 111.819 290.701 111.598C290.259 111.377 289.817 111.377 288.932 111.377V110.714H289.374Z" fill="#B28959"/>
<path d="M383.177 110.272C386.717 110.272 389.814 111.598 392.248 114.249C394.903 116.901 396.009 120.216 396.009 124.194C396.009 128.393 394.682 131.707 392.027 134.359C389.372 137.011 386.275 138.337 382.514 138.337C378.753 138.337 375.655 137.011 373.222 134.359C370.788 131.707 369.461 128.393 369.461 124.194C369.461 119.995 371.01 116.459 373.886 113.808C376.762 111.377 379.638 110.272 383.177 110.272ZM382.956 111.598C380.523 111.598 378.532 112.482 377.204 114.249C375.434 116.459 374.549 119.774 374.549 123.973C374.549 128.393 375.434 131.707 377.425 134.138C378.974 135.906 380.744 136.79 383.177 136.79C385.611 136.79 387.823 135.906 389.372 133.917C390.921 131.928 391.806 128.835 391.806 124.636C391.806 119.995 390.921 116.68 389.151 114.249C387.381 112.482 385.39 111.598 382.956 111.598Z" fill="#B28959"/>
<path d="M395.124 90.1624H1.1062V91.9302H395.124V90.1624Z" fill="#B28959"/>
</svg>
