<svg xmlns="http://www.w3.org/2000/svg" viewBox="0 0 224 118.99"><defs><style>.cls-1,.cls-4{fill:#3d0000;}.cls-1,.cls-2,.cls-3,.cls-8,.cls-9{fill-rule:evenodd;}.cls-2,.cls-5{fill:red;}.cls-3{fill:#fbcc00;}.cls-6{fill:none;}.cls-7{fill:#d67d02;}.cls-11,.cls-9{fill:#fff;}.cls-10{fill:#a00000;}</style></defs><title>GSLOTSAsset 1</title><g id="Layer_2" data-name="Layer 2"><g id="Layer_1-2" data-name="Layer 1"><path class="cls-1" d="M112.1,25.89c-1.11-.47-4.85-.24-5.79-.14-4.78.5-10.06,1.85-13.33,5.64a2.74,2.74,0,0,1-1.91.86c-.79.08-1.75-.11-1.85-1.08l-.68-6.57c-.09-.86.77-1.24,1.47-1.31a11.61,11.61,0,0,1,2.25.23,19.29,19.29,0,0,0,2.66.29A17.27,17.27,0,0,0,98,23a38.84,38.84,0,0,1,7.75-1.37,52.24,52.24,0,0,1,5.73-.3c.88,0,2.19.14,3,.05a20.75,20.75,0,0,0,3-.7,9.84,9.84,0,0,1,1.59-.43,1.65,1.65,0,0,1,1.68.64l.06.08,0,.1a6.55,6.55,0,0,1,.69,2.21c.34,3.35-3.68,7.17-5.89,9.33-1.82,1.67-5.28,5.25-5,7.85a13,13,0,0,0,.54,2.52c.28.91,1.53,4.11,2.35,4.63.53.29,1.3.74,1.36,1.4s-.57,1.15-1.21,1.22l-10.28,1.06a2.22,2.22,0,0,1-1.9-.51c-1.51-1.79-2.27-6-2.5-8.2C98.5,37.47,107,31.07,110.45,28A5.18,5.18,0,0,0,112.1,25.89Z"/><path class="cls-2" d="M90.14,31.08c0,.22.3.3.84.24a1.79,1.79,0,0,0,1.29-.54c3.13-3.62,8.08-5.35,14-6,3.73-.38,6.73-.07,6.82.73s-.36,1.73-2,3.14c-4.94,4.37-11.56,9.54-11.11,13.82.42,4.11,1.51,6.79,2.28,7.7a1.41,1.41,0,0,0,1.1.18l10.27-1.06c.27,0,.39-.12.39-.19s-.31-.37-.88-.68c-1-.48-3.05-4.64-3.38-7.88-.28-2.72,2.6-6.14,5.31-8.63,3.06-3,5.85-6,5.59-8.55a5.74,5.74,0,0,0-.61-1.92c-.15-.2-.3-.33-.84-.28a11.54,11.54,0,0,0-1.44.41,31.31,31.31,0,0,1-3.16.73c-.4,0-1.75,0-3.1-.05s-3.5.07-5.64.29a40.7,40.7,0,0,0-7.55,1.34,18,18,0,0,1-3.28.81,19,19,0,0,1-2.87-.29,14.9,14.9,0,0,0-2-.23c-.4.05-.66.18-.65.29Z"/><path class="cls-3" d="M102.35,36.94c-.22.26-.42.52-.61.78l9.15-.95c.15-.25.32-.51.5-.77l-9,.94Zm-1.84,2.81,9.44-1a5.32,5.32,0,0,0-.22,1.22l-9.66,1a7.19,7.19,0,0,1,.44-1.25ZM100,42.44v.07c.06.55.12,1.08.2,1.58L110.25,43a13.77,13.77,0,0,1-.39-1.63l-9.91,1Zm.38,2.58L110.55,44A19,19,0,0,0,111.4,46l-10.57,1.09c-.18-.62-.35-1.32-.5-2.1Zm.65,2.56a8.93,8.93,0,0,0,1.16,2.5l11.63-1.2a4.1,4.1,0,0,0-.65-.42,5.13,5.13,0,0,1-1.49-2Z"/><path class="cls-1" d="M143.62,11.72c-2.45-1.38-11.21-1.79-13.43-1.8-11.28-.07-23.91,1.72-32.5,9.72A6.51,6.51,0,0,1,93,21.15c-1.88,0-4.07-.7-4.05-3l.1-15.49C89.1.65,91.22,0,92.86,0A29.52,29.52,0,0,1,98,1.11c1.61.36,4.59,1.35,6.13,1.36a40.29,40.29,0,0,0,7.4-1C117.23.26,124.14.2,129.94.24A125.52,125.52,0,0,1,143.37,1c2,.24,5.06.88,7,.89A48.61,48.61,0,0,0,157.55,1a25.07,25.07,0,0,1,3.82-.6,3.9,3.9,0,0,1,3.74,1.93l.13.21.07.24a15.2,15.2,0,0,1,1,5.32c-.05,7.88-10.4,15.75-16.09,20.22-4.66,3.41-13.65,10.88-13.69,17a31.1,31.1,0,0,0,.63,6c.42,2.2,2.51,10,4.28,11.39,1.16.81,2.82,2.06,2.82,3.63,0,1.75-1.64,2.51-3.15,2.5l-24.2-.15c-1.5,0-3.33-.31-4.31-1.67-3.06-4.55-3.74-14.46-3.71-19.74C109,35.2,130.34,22.48,139.26,16.2,140.42,15.38,143.09,13.45,143.62,11.72Z"/><path class="cls-2" d="M91.17,18.18c0,.51.62.77,1.88.78A4.28,4.28,0,0,0,96.2,18c8.22-7.65,20.18-10.4,34-10.31,8.8.06,15.7,1.56,15.69,3.44s-1.28,3.93-5.39,6.81c-12.63,8.91-29.35,19.24-29.41,29.34-.06,9.68,1.78,16.19,3.34,18.51a3.33,3.33,0,0,0,2.5.7l24.2.16c.63,0,1-.17,1-.34s-.63-.94-1.87-1.81c-2.2-1.38-5.9-11.59-5.85-19.21,0-6.41,7.63-13.64,14.58-18.73,7.89-6.2,15.16-12.49,15.2-18.48a13.3,13.3,0,0,0-.92-4.63c-.3-.51-.62-.86-1.88-.86a28.17,28.17,0,0,0-3.46.57,75.69,75.69,0,0,1-7.54.9c-.95,0-4.09-.54-7.23-.91s-8.16-.73-13.19-.77c-6.92,0-13.52.26-17.92,1.17a45,45,0,0,1-7.87,1.07c-1.57,0-3.76-.8-6.59-1.42a33.39,33.39,0,0,0-4.71-1.05c-.94,0-1.57.24-1.57.5Z"/><path class="cls-3" d="M118.09,35c-.56.56-1.1,1.12-1.61,1.67l21.54.14c.43-.56.89-1.12,1.37-1.67L118.09,35Zm-5,6.09,22.24.14a12.15,12.15,0,0,0-.84,2.79l-22.73-.15A16,16,0,0,1,113.09,41Zm-2,6.1v.18c0,1.3,0,2.54.07,3.72l23.75.16a38.67,38.67,0,0,1-.49-3.91l-23.33-.15Zm.21,6.12,24.07.16a45,45,0,0,0,1.47,5L112,58.27c-.27-1.49-.49-3.16-.64-5Zm.86,6.12a21.12,21.12,0,0,0,2.07,6.13l27.4.18a11.64,11.64,0,0,0-1.42-1.15c-.86-.54-1.95-2.43-3-5Z"/><path class="cls-1" d="M169.25,26.63c-1.1-.81-5.3-1.52-6.37-1.65-5.43-.7-11.62-.57-16.23,2.79a3.17,3.17,0,0,1-2.33.45c-.91-.12-1.92-.58-1.78-1.67l1-7.46c.12-1,1.18-1.17,2-1.07a13.74,13.74,0,0,1,2.43.84,20.93,20.93,0,0,0,2.87,1,19.9,19.9,0,0,0,3.62-.06,44.67,44.67,0,0,1,8.94.49,60.82,60.82,0,0,1,6.42,1.16c1,.23,2.39.72,3.32.84a24.19,24.19,0,0,0,3.51,0,11.87,11.87,0,0,1,1.88-.07,1.9,1.9,0,0,1,1.69,1.15l0,.11,0,.12a7.43,7.43,0,0,1,.18,2.62c-.48,3.8-5.93,7-8.94,8.81-2.44,1.37-7.21,4.44-7.58,7.38a14.35,14.35,0,0,0,0,2.93c.07,1.09.62,5,1.39,5.74.52.46,1.25,1.16,1.15,1.91a1.35,1.35,0,0,1-1.66,1l-11.66-1.49a2.48,2.48,0,0,1-2-1.06c-1.21-2.37-1-7.18-.64-9.73.75-5.83,11.78-10.71,16.44-13.22A5.89,5.89,0,0,0,169.25,26.63Z"/><path class="cls-2" d="M143.59,26.68c0,.25.26.41.87.49a2.12,2.12,0,0,0,1.57-.26c4.4-3.21,10.33-3.83,17-3,4.23.54,7.47,1.66,7.36,2.57s-.85,1.82-3,3C160.78,33,152.12,37,151.49,41.89c-.59,4.66-.08,7.9.53,9.11a1.64,1.64,0,0,0,1.17.49L164.84,53c.31,0,.47,0,.48-.11s-.25-.49-.8-1c-1-.8-2.16-5.93-1.7-9.6.4-3.09,4.48-6.13,8.12-8.18,4.17-2.52,8-5.13,8.41-8a6.58,6.58,0,0,0-.17-2.29c-.12-.26-.25-.45-.86-.53a14.59,14.59,0,0,0-1.7.08,34.56,34.56,0,0,1-3.69,0c-.45-.06-1.93-.5-3.43-.86a63.2,63.2,0,0,0-6.31-1.14,46,46,0,0,0-8.7-.48,20.92,20.92,0,0,1-3.85.05,21.42,21.42,0,0,1-3.1-1.07,17,17,0,0,0-2.21-.78c-.45-.06-.77,0-.78.15Z"/><path class="cls-3" d="M155.59,36.34c-.31.23-.6.47-.88.7l10.37,1.33c.24-.24.5-.49.76-.72l-10.25-1.31ZM152.82,39l10.71,1.36a5.91,5.91,0,0,0-.57,1.3L152,40.24a7.18,7.18,0,0,1,.8-1.26Zm-1.31,2.82,0,.09c-.08.62-.14,1.22-.18,1.79l11.44,1.47a17.42,17.42,0,0,1,0-1.91L151.51,41.8Zm-.26,3,11.59,1.48a24.83,24.83,0,0,0,.41,2.51l-12-1.54c-.05-.73-.05-1.55,0-2.45Zm.06,3a10.21,10.21,0,0,0,.64,3.08l13.19,1.68a5,5,0,0,0-.62-.63,5.79,5.79,0,0,1-1.13-2.58Z"/><path class="cls-4" d="M220,94.32A18.93,18.93,0,0,0,224,82.05c0-.1,0-.2,0-.3-.24-4.81-1.53-8.54-4-11.36a6.73,6.73,0,0,0,1.64-4.62l-.37-10.62a6,6,0,0,0-6-5.75,7.64,7.64,0,0,0-3.33.77l-1-.26a26.28,26.28,0,0,0-7.58-1.13,19.38,19.38,0,0,0-11.08,3.11,5.94,5.94,0,0,0-4.84-2.49H154.75a5.94,5.94,0,0,0-5.81,4.66c-4.07-3.46-9.45-5.28-15.77-5.28-7.76,0-14,2.54-18.44,7.55a24.62,24.62,0,0,0-5.44,10.48,6.45,6.45,0,0,0-1.66.77,6.4,6.4,0,0,0-3.86-6.08,6.77,6.77,0,0,0-4.18-12.1H82a6.74,6.74,0,0,0-3.83,1.19,5.93,5.93,0,0,0-3.56-1.19,7.67,7.67,0,0,0-3.33.77l-1-.26a26.27,26.27,0,0,0-7.57-1.13c-5.68,0-10.31,1.8-13.76,5.34a18,18,0,0,0-1.24,1.4v-.36a6,6,0,0,0-5.95-5.76H40.67a6,6,0,0,0-2.76.68L37,49.87a30.53,30.53,0,0,0-8-1.09c-7.42,0-13.56,2.42-18.24,7.18l0,0A22.82,22.82,0,0,0,6,63.35,6.34,6.34,0,0,0,1.44,73.71l1.7,2.06L1.7,78a6.34,6.34,0,0,0,4.36,9.67c3.62,8.68,11.61,13.52,22.69,13.52A31.94,31.94,0,0,0,36.92,100l1.94-.5a6,6,0,0,0,3.44,1.1h1.12a5.88,5.88,0,0,0,2.86-.74,5.89,5.89,0,0,0,3.77,1.35h1.07a5.93,5.93,0,0,0,3.53-1.16l.8.18a38.81,38.81,0,0,0,8.31,1,20.44,20.44,0,0,0,11.2-3c0,.23-.06.47-.07.71l-.13,2.87a6,6,0,0,0,1.65,4.37,5.91,5.91,0,0,0-.1,1.12v.35a6,6,0,0,0,6,6h4.21a6.59,6.59,0,0,0,1.09-.1,6.5,6.5,0,0,0,1.09.1h3.53l.36,0,.36,0h1.88a7,7,0,0,0,.8-.05,6.84,6.84,0,0,0,.79.05h1.31q.33,0,.66,0c.22,0,.44,0,.67,0h3.53l.34,0,.34,0h6.54a5.84,5.84,0,0,0,2.51-.56,5.92,5.92,0,0,0,2.52.56H119a6,6,0,0,0,2.37-.49,10.71,10.71,0,0,0,3.65.61,10.54,10.54,0,0,0,4.27-.86,5.93,5.93,0,0,0,2.88.74h4.43a5.91,5.91,0,0,0,1.64-.23,5.91,5.91,0,0,0,1.64.23h8.9a5.88,5.88,0,0,0,1.2-.12,6.06,6.06,0,0,0,1.21.12H155l.42,0,.41,0h3.7a5.89,5.89,0,0,0,2.22-.43,5.8,5.8,0,0,0,2.21.43h2a6,6,0,0,0,1.2-.12,6,6,0,0,0,1.2.12h6.08a6.13,6.13,0,0,0,1.82-.28,6,6,0,0,0,1.81.28h1.42a5.07,5.07,0,0,0,.68,0,5.22,5.22,0,0,0,.69,0h3.22a11.73,11.73,0,0,0,6.93-2l.11-.09a6,6,0,0,0,4.54,2.1h.87a5.7,5.7,0,0,0,1.8-.28,5.8,5.8,0,0,0,1.81.28H201a5.8,5.8,0,0,0,1.86-.3,5.7,5.7,0,0,0,1.66.24h3.53l.36,0,.37,0h1.87a6,6,0,0,0,1.81-.28,6.11,6.11,0,0,0,1.81.28h1.43a6,6,0,0,0,5.95-6v-5.26a5.86,5.86,0,0,0,.73-2.85v-.35A6,6,0,0,0,220,94.32Z"/><path class="cls-5" d="M81.13,101.16l.13-2.87h7l.12,2.87h-.3a5.74,5.74,0,0,0-.83-2A1.61,1.61,0,0,0,86,98.64h-.15v7.76h1.07v.35H82.68v-.35h1.06V98.64h-.15a1.59,1.59,0,0,0-1.32.54,5.77,5.77,0,0,0-.82,2Z"/><path class="cls-5" d="M89.07,106.75v-.35h.73V98.64h-.73v-.35H92.6v.35h-.72v7.76h.72v.35Z"/><path class="cls-5" d="M93.32,106.75v-.35h.73V98.64h-.73v-.35H96.5l1.73,6.26,1.6-6.26H103v.35h-.73v7.76H103v.35H99.43v-.35h.72V98.89h-.05l-2,7.86H96.79l-2.27-7.88h0v7.53h.73v.35Z"/><path class="cls-5" d="M103.64,106.75v-.35h.78V98.64h-.78v-.35H110l.12,2.35h-.28a3.05,3.05,0,0,0-1-1.58,2.89,2.89,0,0,0-1.69-.42h-.65v3.61H107c.75,0,1.22-.52,1.42-1.54h.28v3.57h-.3c-.26-1.22-.64-1.64-1.52-1.64h-.35v3.76h.66a2.68,2.68,0,0,0,2.85-2.25h.27l-.1,2.6Z"/><path class="cls-5" d="M113.66,101.16l.12-2.87h7l.13,2.87h-.31a5.55,5.55,0,0,0-.83-2,1.61,1.61,0,0,0-1.32-.52h-.14v7.76h1.06v.35h-4.2v-.35h1.06V98.64h-.16a1.59,1.59,0,0,0-1.32.54,6,6,0,0,0-.82,2Z"/><path class="cls-5" d="M122.55,99.35a3.82,3.82,0,0,1,3-1.19c2.5,0,3.87,1.57,3.87,4.32s-1.34,4.39-4,4.39-3.94-1.52-3.94-4.24A4.76,4.76,0,0,1,122.55,99.35Zm1.32,5.72a1.51,1.51,0,0,0,1.61,1.42,1.35,1.35,0,0,0,1.4-.88,9.57,9.57,0,0,0,.34-3.09c0-.62,0-1.1,0-1.48a7.88,7.88,0,0,0-.12-1.1,1.45,1.45,0,0,0-1.58-1.41,1.5,1.5,0,0,0-1.33.63,2,2,0,0,0-.3.82,13.48,13.48,0,0,0-.16,2.65A11,11,0,0,0,123.87,105.07Z"/><path class="cls-5" d="M132.58,106.75v-.35h.85V98.64h-.85v-.35H136c2.37,0,3.59.6,3.59,2.39a2.17,2.17,0,0,1-1.1,2.09,5.72,5.72,0,0,1-2.8.55h-.2v3.08H137v.35ZM135.5,103h.35c1.15,0,1.54-.63,1.54-2.29a2.87,2.87,0,0,0-.32-1.62,1.33,1.33,0,0,0-1.14-.42h-.43Z"/><path class="cls-5" d="M140.29,106.75v-.35h.77V98.64h-.77v-.35h4.13v.35h-1.28v7.76h.56a2.37,2.37,0,0,0,1.7-.59,5.19,5.19,0,0,0,1.09-1.85h.31l-.2,2.79Z"/><path class="cls-5" d="M147.19,106.75v-.35h.62l3-8.11h.89l3,8.11h.65v.35H151.6v-.35h.88l-.85-2.47h-2.45l-.89,2.47h.9v.35Zm2.11-3.17h2.22l-1.06-3.14Z"/><path class="cls-5" d="M154.28,98.64v-.35H158v.35h-.83l1.66,3.61,1.71-3.61h-1.15v-.35h2.41v.35H161l-1.89,4v3.8h.81v.35h-3.7v-.35H157v-3.63L155,98.64Z"/><path class="cls-5" d="M164.34,106.75v-.35H165l3-8.11h.9l3,8.11h.66v.35h-3.79v-.35h.89l-.85-2.47h-2.45l-.9,2.47h.91v.35Zm2.12-3.17h2.22l-1.06-3.14Z"/><path class="cls-5" d="M173,106.75v-.35h.72V98.64H173v-.35h3.18l3.32,6.08V98.64h-.73v-.35h1.88v.35h-.73v8.11h-1.42l-4.35-7.82v7.47h.72v.35Z"/><path class="cls-5" d="M181.25,106.75v-.35h.85V98.64h-.85v-.35h3.55c3.09,0,4.65,1.17,4.65,4.08a3.94,3.94,0,0,1-1.42,3.47,6,6,0,0,1-3.56.91Zm2.94-.35h.48a2.18,2.18,0,0,0,2-.9,6.06,6.06,0,0,0,.59-3.13c0-1.56-.18-2.51-.67-3a2.42,2.42,0,0,0-2.08-.69h-.29Z"/><path class="cls-5" d="M192.42,98.64v-.35h3.8v.35h-.91l1.93,5.78,1.21-3.67-.7-2.11H197v-.35h3.65v.35h-.81l1.89,5.63,1.58-5.63h-1.21v-.35h2.44v.35h-.78l-2.33,8.17h-.91l-1.85-5.4-1.76,5.4h-.87l-3-8.17Z"/><path class="cls-5" d="M205,106.75v-.35h.73V98.64H205v-.35h3.53v.35h-.72v7.76h.72v.35Z"/><path class="cls-5" d="M209.22,106.75v-.35h.72V98.64h-.72v-.35h3.17l3.33,6.08V98.64H215v-.35h1.88v.35h-.73v8.11h-1.43l-4.35-7.82v7.47h.73v.35Z"/><path class="cls-6" d="M140.56,62.22c-.9-4.78-2.93-6.3-7.37-6.58A7,7,0,0,0,127,58.56a9.84,9.84,0,0,0-1.4,3.82A43.56,43.56,0,0,0,125,69l5.17-1a.39.39,0,0,1,.36.64l-4.75,5.13,3.42,6.11a.38.38,0,0,1-.5.53l-3.72-1.72a40.45,40.45,0,0,0,.79,7.4c1,4.44,3.15,6.63,7.47,6.63,3.32,0,5.46-1.35,6.52-4.11s1.58-7.53,1.58-14.38c0-2.87-.06-5.12-.17-6.86A38.22,38.22,0,0,0,140.56,62.22Z"/><path class="cls-7" d="M30.64,79.47h4v9.39c-.28,2.64-1.52,4-5.06,4-5.88,0-8.91-5.65-9.15-16.94L25.33,74a.38.38,0,0,0,0-.73L20.44,72c.17-5.62.94-9.69,2.27-12.2a7.67,7.67,0,0,1,7.14-4.33c4.89,0,8.93,4.39,11.41,11.07h1.29l-.39-12H41.09c-.23.73-.62,1.12-1.18,1.12A33.83,33.83,0,0,1,36,54.8a24.4,24.4,0,0,0-6.51-.9q-8.68,0-14,5.39a18.65,18.65,0,0,0-4.81,10.17l-3.8-1a.38.38,0,0,0-.39.62l3.79,4.6c0,.31,0,.63,0,1s0,.58,0,.88L7.14,80.39a.39.39,0,0,0,.47.56l3-1.19c1.61,9.82,8.14,14.66,18.54,14.66a26.69,26.69,0,0,0,6.64-1,28.35,28.35,0,0,1,4.55-1,2.48,2.48,0,0,1,2.36,1.4h1.12V79.47h2.59V77.84H30.64Zm-16.08-2.8L10.1,78.43l2.58-4.05-3-3.71,4.64,1.21,2.58-4,.29,4.79,4.65,1.21-4.47,1.75.29,4.8Z"/><path class="cls-7" d="M71.94,71a20,20,0,0,0-3.37-1.46l-.72-.24L69,63.43a.45.45,0,0,0-.74-.42L63,67.87c-5.24-1.59-7.63-3.16-7.63-6.61s2.87-5.79,7.14-5.79c5.45,0,8.63,3.66,11.56,10a.69.69,0,0,0,.64.41.71.71,0,0,0,.7-.73L75,54.52a1.88,1.88,0,0,0-1.37.65,1.26,1.26,0,0,1-1,.47,28.58,28.58,0,0,1-3.6-.84,20.63,20.63,0,0,0-5.95-.9c-4,0-7.2,1.18-9.5,3.54a11.68,11.68,0,0,0-3.43,8.49q0,5.64,2.87,8.26a13.28,13.28,0,0,0,1.67,1.27l-3,2.74a.45.45,0,0,0,.36.78L60.3,78l3.43,7.51a.45.45,0,0,0,.85-.1l1.17-5.8a20.4,20.4,0,0,1,4.34,2,5.56,5.56,0,0,1,2.36,5c0,3.82-3.6,6.24-7.87,6.24a11.33,11.33,0,0,1-8-3.32,23.43,23.43,0,0,1-5.45-8.32H49.91l.56,13.21h1.07c.51-1.12,1-1.69,1.52-1.69.17,0,1.57.28,4.1.85a32.78,32.78,0,0,0,7,.84c4.11,0,7.42-1.18,9.84-3.6a12.83,12.83,0,0,0,3.71-9.61C77.45,75.7,75.59,72.84,71.94,71ZM64.8,75.82l-1.12,5.55-2.36-5.15-5.62.65L59.87,73l-2.35-5.15,4.93,2.78,4.17-3.83-1.13,5.55,4.93,2.78Z"/><path class="cls-7" d="M105.38,89.47c-1.91,1.86-4.56,2.76-7.93,2.76H94.87V77.3l4,2.27a.42.42,0,0,0,.59-.54l-3.18-7,5.68-5.2a.42.42,0,0,0-.33-.72l-6.76.76V56.15H100a.82.82,0,0,0,.81-.82.81.81,0,0,0-.81-.81H82.42a.82.82,0,0,0-.82.81.82.82,0,0,0,.82.82H85.2V68l-4.39.5a.42.42,0,0,0-.16.78l4.55,2.59V92.23H82.42a.82.82,0,0,0-.82.81.82.82,0,0,0,.82.82h28.52l1-13h-1.47Q108.24,86.69,105.38,89.47ZM88.06,77.4l1.06-5.17-4.59-2.61L89.77,69l1.06-5.17L93,68.66l5.24-.59-3.89,3.56,2.18,4.81L92,73.84Z"/><path class="cls-7" d="M133.59,53.9q-9,0-14,5.56A20.11,20.11,0,0,0,114.85,71l-3.41.67a.39.39,0,0,0-.08.73l3.3,1.52c0,.26,0,.51,0,.77,0,12.65,6.24,19.73,18.32,19.73,12.36,0,18.6-7.53,18.6-20.4S145.22,53.9,133.59,53.9Zm-14.9,25.33.57-4.77-4.36-2,4.71-.94.56-4.76,2.35,4.19,4.71-.94L124,73.52l2.34,4.19-4.36-2Zm21,9.34c-1.06,2.76-3.2,4.11-6.52,4.11-4.32,0-6.52-2.19-7.47-6.63a40.45,40.45,0,0,1-.79-7.4l3.72,1.72a.38.38,0,0,0,.5-.53l-3.42-6.11,4.75-5.13a.39.39,0,0,0-.36-.64L125,69a43.56,43.56,0,0,1,.66-6.61,9.84,9.84,0,0,1,1.4-3.82,7,7,0,0,1,6.18-2.92c4.44.28,6.47,1.8,7.37,6.58a38.22,38.22,0,0,1,.56,5.11c.11,1.74.17,4,.17,6.86C141.29,81,140.78,85.82,139.71,88.57Z"/><path class="cls-7" d="M187.93,54.52H155.17l-.57,13.37h1.46c1.18-4.44,2.48-7.53,3.83-9.21s3.37-2.53,6.12-2.53h.73V69.63l-3.94-1.42a.39.39,0,0,0-.45.58l3.93,5.78L162,80.1a.38.38,0,0,0,.4.6l4.34-1.26V92.23H161.8v1.63h19.55V92.23h-4.94V76.64l4.29-1.25a.39.39,0,0,0,0-.73l-4.31-1.55v-17h.67c2.76,0,4.78.78,6.13,2.41s2.64,4.72,3.88,9.33h1.4Zm-10.75,20.4-4.61,1.33-.15,4.8-2.69-4-4.61,1.34,2.94-3.79-2.7-4,4.52,1.62,2.94-3.79-.15,4.8Z"/><polygon class="cls-2" points="16.33 66.8 16.62 72 21.67 73.32 16.81 75.2 17.12 80.4 13.82 76.36 8.97 78.27 11.79 73.89 8.48 69.86 13.52 71.19 16.33 66.8"/><polygon class="cls-2" points="66.51 66.88 64.95 72.34 69.68 75.49 64 75.7 62.47 81.16 60.52 75.83 54.84 76.06 59.31 72.56 57.34 67.23 62.05 70.4 66.51 66.88"/><path class="cls-7" d="M212.68,71a20.4,20.4,0,0,0-3.37-1.46l-.72-.24,1.18-5.85A.45.45,0,0,0,209,63l-5.29,4.86c-5.25-1.59-7.63-3.16-7.63-6.61s2.86-5.79,7.14-5.79c5.44,0,8.63,3.66,11.55,10a.71.71,0,0,0,1.35-.32l-.37-10.62a1.87,1.87,0,0,0-1.37.65,1.27,1.27,0,0,1-1,.47,28.58,28.58,0,0,1-3.6-.84,20.7,20.7,0,0,0-6-.9c-4,0-7.19,1.18-9.49,3.54a11.64,11.64,0,0,0-3.43,8.49q0,5.64,2.86,8.26a13.28,13.28,0,0,0,1.67,1.27l-3,2.74a.45.45,0,0,0,.35.78L201,78l3.43,7.51a.46.46,0,0,0,.86-.1l1.17-5.8a20,20,0,0,1,4.33,2,5.53,5.53,0,0,1,2.36,5c0,3.82-3.59,6.24-7.87,6.24a11.37,11.37,0,0,1-8-3.32,23.56,23.56,0,0,1-5.45-8.32h-1.23l.56,13.21h1.07c.5-1.12,1-1.69,1.51-1.69.17,0,1.58.28,4.11.85a32.78,32.78,0,0,0,7,.84c4.1,0,7.42-1.18,9.84-3.6a12.83,12.83,0,0,0,3.71-9.61C218.18,75.7,216.33,72.84,212.68,71Zm-7.14,4.84-1.13,5.55-2.35-5.15-5.62.65L200.61,73l-2.36-5.15,4.93,2.78,4.17-3.83-1.12,5.55,4.93,2.78Z"/><polygon class="cls-2" points="207.25 66.88 205.69 72.34 210.41 75.49 204.74 75.7 203.2 81.16 201.25 75.83 195.58 76.06 200.05 72.56 198.08 67.23 202.79 70.4 207.25 66.88"/><polygon class="cls-2" points="90.97 63.72 93.4 68.63 98.81 67.82 94.9 71.64 97.35 76.55 92.5 74 88.59 77.85 89.51 72.45 84.65 69.92 90.07 69.13 90.97 63.72"/><polygon class="cls-2" points="171.89 68.87 172.19 73.71 176.89 74.9 172.38 76.68 172.7 81.52 169.62 77.78 165.11 79.58 167.71 75.49 164.61 71.76 169.31 72.97 171.89 68.87"/><polygon class="cls-2" points="120.45 66.65 122.72 71.24 127.8 70.48 124.13 74.07 126.42 78.66 121.88 76.28 118.22 79.88 119.08 74.82 114.53 72.45 119.61 71.71 120.45 66.65"/><path class="cls-1" d="M73.77,37.41l4.52-3.7a3.12,3.12,0,0,1,1.81-.65l9-.24a2.41,2.41,0,0,1,2.28,2.26l.7,8a3.44,3.44,0,0,1-.25,2l-2,5c-.32.81-1,2.43-2.63,2.41l-10.87.37a2.11,2.11,0,0,1-2.13-1.81L72.79,40.66C72.51,38.52,73.34,37.77,73.77,37.41Z"/><path class="cls-2" d="M90.46,35.15l.69,8.05A2.57,2.57,0,0,1,91,44.76l-2,5.05c-.27.67-.52.59-.65-.39l-1.23-9.17a2.63,2.63,0,0,1,.14-1.84l2.72-3.85C90.15,34.27,90.42,34.71,90.46,35.15Z"/><path class="cls-8" d="M90.27,37.46a4.49,4.49,0,0,1-.19,2c-.18.34-.39,0-.47-.74a4.21,4.21,0,0,1,.19-2C90,36.38,90.19,36.71,90.27,37.46Z"/><path class="cls-8" d="M89.41,39.06a4.37,4.37,0,0,1-.18,2c-.18.34-.39,0-.47-.74a4.37,4.37,0,0,1,.18-2C89.12,38,89.33,38.31,89.41,39.06Z"/><path class="cls-8" d="M88.56,40.67a4.34,4.34,0,0,1-.18,2c-.19.34-.4,0-.47-.73a4.37,4.37,0,0,1,.18-2C88.27,39.59,88.48,39.92,88.56,40.67Z"/><path class="cls-8" d="M90.7,41.58a5.9,5.9,0,0,1-.15,2.07c-.16.42-.35.16-.43-.56A5.64,5.64,0,0,1,90.28,41C90.44,40.6,90.63,40.86,90.7,41.58Z"/><path class="cls-8" d="M90,43.54a5.64,5.64,0,0,1-.16,2.07c-.16.42-.35.16-.42-.57A5.6,5.6,0,0,1,89.53,43C89.69,42.56,89.87,42.81,90,43.54Z"/><path class="cls-8" d="M89.19,45.5A5.47,5.47,0,0,1,89,47.57c-.16.41-.35.16-.42-.57a5.47,5.47,0,0,1,.15-2.07C88.93,44.52,89.12,44.77,89.19,45.5Z"/><path class="cls-8" d="M73.68,40.54,75,51a1.23,1.23,0,0,0,1.22,1l10.87-.37a1,1,0,0,0,1-1.11L86.71,40.1a1.21,1.21,0,0,0-1.22-1l-10.87.38A1,1,0,0,0,73.68,40.54Z"/><path class="cls-9" d="M75.46,42.58a1.56,1.56,0,0,0,1.6,1.3,1.25,1.25,0,0,0,1.24-1.41,1.55,1.55,0,0,0-1.59-1.3A1.25,1.25,0,0,0,75.46,42.58Z"/><path class="cls-9" d="M83.72,48.88a1.56,1.56,0,0,0,1.6,1.3,1.25,1.25,0,0,0,1.24-1.41,1.56,1.56,0,0,0-1.6-1.3A1.25,1.25,0,0,0,83.72,48.88Z"/><path class="cls-9" d="M74.34,38.1l4.51-3.7A2.27,2.27,0,0,1,80.12,34l9-.24c.48,0,.66.43.47.68l-2.9,3.81a2,2,0,0,1-1.27.45L74.64,39C74.14,39,73.81,38.53,74.34,38.1Z"/><path class="cls-8" d="M81.24,36.06a3.34,3.34,0,0,1,1.92-.57c.78,0,1.19.2.91.49a3.26,3.26,0,0,1-1.92.58C81.36,36.58,81,36.36,81.24,36.06Z"/><path class="cls-1" d="M63,37.35,58.36,40a2.92,2.92,0,0,0-1.14,1.34L54.12,49a2.2,2.2,0,0,0,1.19,2.68L62,54.84a3.09,3.09,0,0,0,1.76.42l5-.08c.8,0,2.39-.06,2.9-1.47l3.84-9.19a1.93,1.93,0,0,0-.86-2.41l-8.5-4.55C64.35,36.63,63.43,37.1,63,37.35Z"/><path class="cls-2" d="M55.66,50.9l6.66,3.2a2.35,2.35,0,0,0,1.4.35l5-.09c.66,0,.67-.25-.12-.68l-7.46-4a2.35,2.35,0,0,0-1.61-.47l-4.18,1.08C55,50.35,55.29,50.73,55.66,50.9Z"/><path class="cls-8" d="M57.69,51.49a4.09,4.09,0,0,0,1.75.48c.35,0,.13-.34-.48-.65a3.91,3.91,0,0,0-1.75-.47C56.86,50.89,57.08,51.18,57.69,51.49Z"/><path class="cls-8" d="M59.34,51.28a4,4,0,0,0,1.75.47c.35,0,.13-.33-.48-.64a4.09,4.09,0,0,0-1.75-.48C58.51,50.68,58.73,51,59.34,51.28Z"/><path class="cls-8" d="M61,51.06a4,4,0,0,0,1.75.48c.35,0,.13-.33-.48-.64a4.09,4.09,0,0,0-1.75-.48C60.16,50.47,60.38,50.75,61,51.06Z"/><path class="cls-8" d="M61.08,53.19a5.17,5.17,0,0,0,1.83.54c.4,0,.25-.25-.35-.55a5.36,5.36,0,0,0-1.82-.53C60.33,52.65,60.49,52.9,61.08,53.19Z"/><path class="cls-8" d="M63,53.18a5.17,5.17,0,0,0,1.83.54c.4,0,.25-.25-.35-.55a5.14,5.14,0,0,0-1.82-.53C62.25,52.64,62.4,52.88,63,53.18Z"/><path class="cls-8" d="M64.92,53.17a5.17,5.17,0,0,0,1.83.54c.4,0,.25-.25-.35-.55a4.94,4.94,0,0,0-1.82-.53C64.17,52.63,64.33,52.87,64.92,53.17Z"/><path class="cls-9" d="M65.7,38.28l8.5,4.55a1.11,1.11,0,0,1,.49,1.38l-3.84,9.18a.87.87,0,0,1-1.25.45L61.1,49.3a1.12,1.12,0,0,1-.49-1.38l3.84-9.19A.89.89,0,0,1,65.7,38.28Z"/><path class="cls-8" d="M66.86,40.47a1.43,1.43,0,0,1,.6,1.79,1.15,1.15,0,0,1-1.61.61,1.44,1.44,0,0,1-.6-1.79A1.15,1.15,0,0,1,66.86,40.47Z"/><path class="cls-8" d="M68.19,44.92a1.41,1.41,0,0,1,.6,1.78,1.14,1.14,0,0,1-1.61.61,1.42,1.42,0,0,1-.6-1.79A1.14,1.14,0,0,1,68.19,44.92Z"/><path class="cls-8" d="M69.59,49.58a1.43,1.43,0,0,1,.6,1.79,1.14,1.14,0,0,1-1.61.6,1.41,1.41,0,0,1-.6-1.78A1.14,1.14,0,0,1,69.59,49.58Z"/><path class="cls-8" d="M63.39,38.06l-4.63,2.67a2.16,2.16,0,0,0-.79.94l-3.1,7.6c-.16.4.15.7.43.62l4.2-1.25a1.77,1.77,0,0,0,.79-.94L64,38.59C64.2,38.17,63.93,37.75,63.39,38.06Z"/><path class="cls-9" d="M59.42,43.31a2.92,2.92,0,0,0-1.11,1.46c-.28.66-.22,1.08.13.93a3,3,0,0,0,1.11-1.46C59.82,43.58,59.76,43.16,59.42,43.31Z"/><path class="cls-10" d="M124,33.22s-1.18,7.37-7.63,11.14C122.86,48.14,124,55.5,124,55.5s1.19-7.36,7.63-11.14C125.23,40.59,124,33.22,124,33.22Zm-2.72,14.12-.17-.22L121,46.9l-.18-.21c-.06-.07-.12-.15-.18-.21l-.37-.41-.19-.2-.2-.2-.19-.19-.2-.19-.41-.37-.42-.35-.26-.21.26-.2.29-.22.29-.24c.18-.15.37-.32.55-.49s.36-.34.54-.52l.26-.27.26-.28a4.83,4.83,0,0,1-.35.68,6.62,6.62,0,0,1-.44.64,7,7,0,0,1-.85.87h0l.22.18a3.88,3.88,0,0,1,.42.39,2,2,0,0,1,.21.2l.19.21c.13.15.25.29.37.45a9.15,9.15,0,0,1,.63,1c.09.17.17.35.24.52s.07.18.1.27a2.29,2.29,0,0,1,.08.28Zm3.19,4c3-7.11,1.86-9-.06-14.22,1,2.14,2.18,5.16,4.84,7.22C126.63,46.42,125.48,49.21,124.51,51.36Z"/><path class="cls-4" d="M132,43.85c-6.13-3.59-7.33-10.65-7.34-10.72a.59.59,0,0,0-.59-.5h0a.58.58,0,0,0-.58.5c0,.07-1.23,7.14-7.35,10.72a.6.6,0,0,0,0,1c6.12,3.58,7.33,10.65,7.35,10.72a.58.58,0,0,0,.58.5.59.59,0,0,0,.59-.5c0-.07,1.23-7.14,7.34-10.72a.59.59,0,0,0,0-1Zm-.3.51C125.23,48.14,124,55.5,124,55.5s-1.18-7.36-7.63-11.14c6.45-3.77,7.63-11.14,7.63-11.14S125.23,40.59,131.67,44.36Z"/><path class="cls-11" d="M121.47,47.25c-.07-.17-.15-.35-.24-.52a9.15,9.15,0,0,0-.63-1c-.12-.16-.24-.3-.37-.45l-.19-.21a2,2,0,0,0-.21-.2,3.88,3.88,0,0,0-.42-.39l-.22-.18h0a7,7,0,0,0,.85-.87,6.62,6.62,0,0,0,.44-.64,4.83,4.83,0,0,0,.35-.68l-.26.28-.26.27c-.18.18-.35.36-.54.52s-.37.34-.55.49l-.29.24-.29.22-.26.2.26.21.42.35.41.37.2.19.19.19.2.2.19.2.37.41c.06.06.12.14.18.21l.18.21.17.22.17.22.33.46a2.29,2.29,0,0,0-.08-.28C121.54,47.43,121.51,47.34,121.47,47.25Z"/><path class="cls-11" d="M124.45,37.14c1.92,5.17,3,7.11.06,14.22,1-2.15,2.12-4.94,4.78-7C126.63,42.3,125.41,39.28,124.45,37.14Z"/><path class="cls-10" d="M154.88,37.26a4.26,4.26,0,0,0-4.1,3.34s0,0,0,0l0,0a4.16,4.16,0,0,0-8-.48,3.83,3.83,0,0,0-.08,2.54c1.32,4.5,6.63,8.59,8.14,10.09,1.5-1.5,6.82-5.59,8.13-10.09A3.86,3.86,0,0,0,159,41,4.17,4.17,0,0,0,154.88,37.26Zm-10.17,7.06c-.12-.18-.23-.37-.34-.57a6.36,6.36,0,0,1-.28-.59,2.88,2.88,0,0,1-.13-.31,2.83,2.83,0,0,1-.11-.31,3,3,0,0,1-.1-.32,1.94,1.94,0,0,1-.07-.33,3.08,3.08,0,0,1,0-.68,2,2,0,0,1,.18-.67h0l0-.07,0-.07.06-.14c.05-.09.09-.18.15-.27s.1-.17.16-.25a2.2,2.2,0,0,1,.2-.23,2.74,2.74,0,0,1,.45-.39l.26-.15.27-.12-.24.16-.23.18-.21.2c-.06.07-.13.14-.19.22a1.88,1.88,0,0,0-.16.23,2,2,0,0,0-.14.25l-.12.26s0,.08,0,.13l0,.07,0,.07h0c0,.11-.07.2-.1.3s0,.2,0,.3a2.58,2.58,0,0,0,0,.62l.06.31.09.3c.07.21.14.41.22.61s.16.39.25.59.19.39.29.58c.2.39.41.76.63,1.14A9,9,0,0,1,144.71,44.32Zm12.92-2c-1,3.36-4.68,6.69-6.66,8.48,8.44-10.08.57-12.06,3.91-12.19a2.84,2.84,0,0,1,2.83,2.56v.07A2.55,2.55,0,0,1,157.63,42.29Z"/><path class="cls-4" d="M159.61,40.91a4.74,4.74,0,0,0-4.73-4.24,4.81,4.81,0,0,0-4.1,2.35,4.8,4.8,0,0,0-4.12-2.35,4.75,4.75,0,0,0-4.52,3.27,4.46,4.46,0,0,0-.08,2.88c1.13,3.89,5.09,7.45,7.22,9.37.44.39.81.73,1.07,1a.55.55,0,0,0,.42.17.58.58,0,0,0,.42-.17c.25-.25.62-.59,1.06-1,2.13-1.92,6.09-5.48,7.22-9.37A4.47,4.47,0,0,0,159.61,40.91Zm-.71,1.75c-1.31,4.5-6.63,8.59-8.13,10.09-1.51-1.5-6.82-5.59-8.14-10.09a3.83,3.83,0,0,1,.08-2.54,4.16,4.16,0,0,1,8,.48l0,0s0,0,0,0a4.26,4.26,0,0,1,4.1-3.34A4.17,4.17,0,0,1,159,41,3.86,3.86,0,0,1,158.9,42.66Z"/><path class="cls-11" d="M144.56,43.66c-.09-.2-.18-.39-.25-.59s-.15-.4-.22-.61l-.09-.3-.06-.31a2.58,2.58,0,0,1,0-.62c0-.1,0-.2,0-.3s.06-.19.1-.3h0l0-.07,0-.07c0-.05,0-.09,0-.13l.12-.26a2,2,0,0,1,.14-.25,1.88,1.88,0,0,1,.16-.23c.06-.08.13-.15.19-.22l.21-.2.23-.18.24-.16-.27.12-.26.15a2.74,2.74,0,0,0-.45.39,2.2,2.2,0,0,0-.2.23c-.06.08-.11.17-.16.25s-.1.18-.15.27l-.06.14,0,.07,0,.07h0a2,2,0,0,0-.18.67,3.08,3.08,0,0,0,0,.68,1.94,1.94,0,0,0,.07.33,3,3,0,0,0,.1.32,2.83,2.83,0,0,0,.11.31,2.88,2.88,0,0,0,.13.31,6.36,6.36,0,0,0,.28.59c.11.2.22.39.34.57a9,9,0,0,0,.77,1.06c-.22-.38-.43-.75-.63-1.14C144.75,44.05,144.65,43.86,144.56,43.66Z"/><path class="cls-11" d="M157.71,41.14a2.84,2.84,0,0,0-2.83-2.56c-3.34.13,4.53,2.11-3.91,12.19,2-1.79,5.68-5.12,6.66-8.48a2.55,2.55,0,0,0,.09-1.08v-.07Z"/><path d="M136.15,47.77a4,4,0,0,0,.39-.62l0,0v0a3.7,3.7,0,0,0,.13.74.6.6,0,0,1,.23.45,3.57,3.57,0,0,0,.1.57,4.07,4.07,0,0,0,2.85,2.25,4.26,4.26,0,0,0,.8.08,4.11,4.11,0,0,0,3.57-2.09,3.74,3.74,0,0,0,.55-2.43c-.41-4.6-4.76-9.57-5.92-11.31-1.74,1.16-7.66,4.1-9.79,8.19a3.69,3.69,0,0,0-.44,1.58,4,4,0,0,0,6.81,3.37,3.46,3.46,0,0,0,.32-.52A.68.68,0,0,1,136.15,47.77Zm7.37-.94a2.5,2.5,0,0,1-.34,1.59l0,0,0,0a2.77,2.77,0,0,1-3,1.37c-3.19-.63,2.94-4-1.44-12.52C140.28,39.47,143.21,43.4,143.52,46.83Zm-13.3-.33a3.06,3.06,0,0,0,.77,1.15,2.85,2.85,0,0,0,.85.54l.26.09.1,0h-.1a1.86,1.86,0,0,1-.28-.07,2.72,2.72,0,0,1-.93-.46,2.83,2.83,0,0,1-.88-1.19,2.8,2.8,0,0,1-.19-.83,2.06,2.06,0,0,1,0-.43,2.32,2.32,0,0,1,0-.44,3.23,3.23,0,0,1,.31-.82c.13-.24.27-.48.41-.71s.27-.44.41-.65l.4-.55c.13-.17.26-.32.37-.45s.21-.25.29-.34l.2-.21.08-.07-.24.31-.26.36-.32.48c-.23.36-.48.78-.74,1.24l-.38.71a2.6,2.6,0,0,0-.27.75,2.7,2.7,0,0,0,0,.41c0,.13,0,.27,0,.4A3.2,3.2,0,0,0,130.22,46.5Z"/><path class="cls-4" d="M145.4,46.67c-.35-4-3.49-8.18-5.18-10.44-.35-.47-.64-.86-.84-1.15a.59.59,0,0,0-.49-.27.64.64,0,0,0-.33.1c-.3.2-.72.45-1.22.75-2.42,1.44-6.93,4.13-8.77,7.67a4.26,4.26,0,0,0-.5,1.83,4.67,4.67,0,0,0,3.76,5,4.76,4.76,0,0,0,.75.07,3.58,3.58,0,0,0,2.89-1.69,4,4,0,0,1-6.81-3.37,3.69,3.69,0,0,1,.44-1.58c2.13-4.09,8.05-7,9.79-8.19,1.16,1.74,5.51,6.71,5.92,11.31a3.74,3.74,0,0,1-.55,2.43,4.11,4.11,0,0,1-3.57,2.09,4.26,4.26,0,0,1-.8-.08A4.07,4.07,0,0,1,137,48.91a3.47,3.47,0,0,0,2.17,2.64,5.27,5.27,0,0,0,.56.19,4.7,4.7,0,0,0,5-2.29A4.34,4.34,0,0,0,145.4,46.67Z"/><path class="cls-4" d="M136.57,47.12l0,0a4,4,0,0,1-.39.62.61.61,0,0,1,.18-.05.56.56,0,0,1,.38.17,3.7,3.7,0,0,1-.13-.74Z"/><path class="cls-11" d="M130.13,44.93a2.6,2.6,0,0,1,.27-.75l.38-.71c.26-.46.51-.88.74-1.24l.32-.48.26-.36.24-.31-.08.07-.2.21c-.08.09-.18.2-.29.34s-.24.28-.37.45l-.4.55c-.14.21-.28.42-.41.65s-.28.47-.41.71a3.23,3.23,0,0,0-.31.82,2.32,2.32,0,0,0,0,.44,2.06,2.06,0,0,0,0,.43,2.8,2.8,0,0,0,.19.83,2.83,2.83,0,0,0,.88,1.19,2.72,2.72,0,0,0,.93.46,1.86,1.86,0,0,0,.28.07h.1l-.1,0-.26-.09a2.85,2.85,0,0,1-.85-.54,3.06,3.06,0,0,1-.77-1.15,3.2,3.2,0,0,1-.15-.76c0-.13,0-.27,0-.4A2.7,2.7,0,0,1,130.13,44.93Z"/><path class="cls-11" d="M140.14,49.88a2.77,2.77,0,0,0,3-1.37l0,0,0,0a2.5,2.5,0,0,0,.34-1.59c-.31-3.43-3.24-7.36-4.82-9.47C143.08,45.89,137,49.25,140.14,49.88Z"/><path d="M136.34,48.34s0,0,0,0,0,0,0,0a4.24,4.24,0,0,1-3.82,2.51,4.89,4.89,0,0,1-.66-.05l-.1.47,7.74,1.53.09-.47A4.11,4.11,0,0,1,136.34,48.34Zm-1.81,2.23a1.19,1.19,0,0,1-.19.16l-.14.08-.16.09a3.19,3.19,0,0,1-.37.13,1.93,1.93,0,0,1-.39.08l-.34,0a2.47,2.47,0,0,1-.34,0l.09,0,.24,0,.33-.06.37-.09.19-.06.18-.06.16-.06.14-.07.13-.06.09-.05.08,0Zm4,1.78-.72-.16-.72-.18.73.12.39.06-.15-.08a1.64,1.64,0,0,1-.22-.14,1.59,1.59,0,0,1-.21-.15l-.21-.16-.19-.18-.18-.19c-.06-.06-.11-.13-.17-.2l-.15-.21-.14-.22-.12-.23c0-.07-.07-.15-.11-.23L136.3,50a1.83,1.83,0,0,1-.06-.25,2.21,2.21,0,0,1-.05-.25l0-.26.05.26a2.17,2.17,0,0,1,.07.24l.09.24a1.6,1.6,0,0,0,.1.23c0,.08.07.16.11.23a2.53,2.53,0,0,1,.13.22c0,.07.09.14.15.21s.09.13.15.2l.17.19.17.18a1.54,1.54,0,0,0,.19.17l.19.16.21.15.21.14.22.13.22.12.34.17Z"/><path class="cls-4" d="M137,48.91a3.57,3.57,0,0,1-.1-.57.6.6,0,0,0-.23-.45.56.56,0,0,0-.38-.17.61.61,0,0,0-.18.05.68.68,0,0,0-.36.26,3.46,3.46,0,0,1-.32.52,3.58,3.58,0,0,1-2.89,1.69l-.09,0a3.66,3.66,0,0,1-.57,0h-.09a.61.61,0,0,0-.59.48l-.09.47a.59.59,0,0,0,.47.7l7.73,1.53h.12a.58.58,0,0,0,.58-.48l.09-.47a.58.58,0,0,0-.45-.69,4,4,0,0,1-.48-.2A3.47,3.47,0,0,1,137,48.91Zm-5.31,2.36.1-.47a4.89,4.89,0,0,0,.66.05,4.24,4.24,0,0,0,3.82-2.51s0,0,0,0,0,0,0,0a4.11,4.11,0,0,0,3.22,4l-.09.47Z"/><path class="cls-11" d="M138.37,52.14l-.22-.13-.21-.14-.21-.15-.19-.16a1.54,1.54,0,0,1-.19-.17l-.17-.18L137,51c-.06-.07-.1-.13-.15-.2s-.1-.14-.15-.21a2.53,2.53,0,0,0-.13-.22c0-.07-.07-.15-.11-.23a1.6,1.6,0,0,1-.1-.23l-.09-.24a2.17,2.17,0,0,0-.07-.24l-.05-.26,0,.26a2.21,2.21,0,0,0,.05.25,1.83,1.83,0,0,0,.06.25l.09.25c0,.08.07.16.11.23l.12.23.14.22.15.21c.06.07.11.14.17.2l.18.19.19.18.21.16a1.59,1.59,0,0,0,.21.15,1.64,1.64,0,0,0,.22.14l.15.08-.39-.06-.73-.12.72.18.72.16.37.08-.34-.17Z"/><path class="cls-11" d="M134.43,50.6l-.13.06-.14.07-.16.06-.18.06-.19.06-.37.09-.33.06-.24,0-.09,0a2.47,2.47,0,0,0,.34,0l.34,0a1.93,1.93,0,0,0,.39-.08,3.19,3.19,0,0,0,.37-.13l.16-.09.14-.08a1.19,1.19,0,0,0,.19-.16l.07-.06-.08,0Z"/><path d="M109.39,51.76l.14.44,7.15-2.28-.14-.43a3.85,3.85,0,0,1-1.1.16,3.89,3.89,0,0,1-2.88-1.29,4,4,0,0,1-.41-.31,4.36,4.36,0,0,1-.23.6A3.91,3.91,0,0,1,109.39,51.76Zm3-3.14.17.18.18.16.19.15.2.13.21.12.21.11.22.1.23.08.23.07.23.06.24,0,.24,0,.24,0h.84l-.34.1-.68.2-.68.19.66-.25.35-.12H115a1.9,1.9,0,0,1-.25,0l-.24,0-.24-.06-.24-.08a.92.92,0,0,1-.23-.09l-.23-.1-.21-.12-.21-.13-.2-.15-.18-.16a1.41,1.41,0,0,1-.17-.18c-.06-.06-.11-.13-.16-.19l-.14-.2ZM111,51a1.59,1.59,0,0,1,.13-.13l.12-.14.11-.13.09-.12a.86.86,0,0,1,.07-.1l0-.09,0-.07,0,.08c0,.06,0,.13-.09.22l-.08.14-.1.14a3.07,3.07,0,0,1-.24.29c-.1.08-.19.17-.29.24l-.27.18-.29.14.07-.06.18-.14.24-.2Z"/><path class="cls-4" d="M115.16,49.2a4.55,4.55,0,0,1-2.6-.84,3.89,3.89,0,0,0,2.88,1.29,3.85,3.85,0,0,0,1.1-.16l.14.43-7.15,2.28-.14-.44a3.91,3.91,0,0,0,2.53-3.11,4.49,4.49,0,0,1-2.82,2.71H109a.57.57,0,0,0-.17.57l.14.44a.59.59,0,0,0,.29.35.63.63,0,0,0,.27.06.57.57,0,0,0,.18,0l7.15-2.27a.6.6,0,0,0,.38-.75l-.13-.43a.6.6,0,0,0-.44-.38l-.13.06A4.62,4.62,0,0,1,115.16,49.2Z"/><path class="cls-11" d="M112.57,48.83a1.41,1.41,0,0,0,.17.18l.18.16.2.15.21.13.21.12.23.1a.92.92,0,0,0,.23.09l.24.08.24.06.24,0a1.9,1.9,0,0,0,.25,0h.4l-.35.12-.66.25.68-.19.68-.2.34-.1h-.84l-.24,0-.24,0-.24,0-.23-.06-.23-.07-.23-.08-.22-.1-.21-.11-.21-.12-.2-.13-.19-.15-.18-.16-.17-.18-.16-.18.14.2C112.46,48.7,112.51,48.77,112.57,48.83Z"/><path class="cls-11" d="M110.26,51.62l-.07.06.29-.14.27-.18c.1-.07.19-.16.29-.24a3.07,3.07,0,0,0,.24-.29l.1-.14.08-.14c0-.09.07-.16.09-.22l0-.08,0,.07,0,.09a.86.86,0,0,0-.07.1l-.09.12-.11.13-.12.14A1.59,1.59,0,0,0,111,51l-.27.25-.24.2Z"/><path d="M118.92,43.47a3.93,3.93,0,0,0-3.75-2.75,4.16,4.16,0,0,0-1.2.18,3.72,3.72,0,0,0-1.27.69,3.95,3.95,0,0,0-3.27-6.16,3.86,3.86,0,0,0-1.2.19,3.95,3.95,0,0,0-.08,7.49,3,3,0,0,0-.43,0,4.09,4.09,0,0,0-1.19.18A3.95,3.95,0,0,0,107.72,51a3.86,3.86,0,0,0,1.2-.19,4,4,0,0,0,2.7-4.4,4,4,0,0,0,3.54,2.22,3.86,3.86,0,0,0,1.2-.19A3.93,3.93,0,0,0,118.92,43.47Zm-9.11,5.31a1,1,0,0,1-.15.24,2.33,2.33,0,0,1-.75.69l-.15.07-.08,0,0,0h0l-.15.06-.08,0-.1,0-.19,0-.2,0c-.14,0-.27,0-.41,0a3.21,3.21,0,0,1-.85-.17,3.07,3.07,0,0,1-.79-.44,3.19,3.19,0,0,1-.61-.66,2,2,0,0,1-.21-.38l-.09-.2-.06-.2,0,0v0h0v0l0-.09c0-.06,0-.14,0-.2s0-.27,0-.4a2.85,2.85,0,0,1,.11-.69,2.25,2.25,0,0,1,.23-.54,1.86,1.86,0,0,1,.25-.36,1.23,1.23,0,0,1,.2-.2l.07-.07,0,.09a2.55,2.55,0,0,0-.1.25,3.12,3.12,0,0,0-.19.9,3,3,0,0,0,0,.59c0,.1,0,.21.07.31l0,.07a.31.31,0,0,0,0,.08l0,.08v0h0l0,0a3.07,3.07,0,0,0,.33.58,2.78,2.78,0,0,0,.48.49,2.7,2.7,0,0,0,.59.35,2.52,2.52,0,0,0,.65.18,3.16,3.16,0,0,0,.32,0h.46l.16,0h0s0,0,0,0h.06l.07,0,.13,0a2.8,2.8,0,0,0,.83-.39l.22-.16.08-.06Zm1.93-8-.07.06,0-.08c0-.06,0-.14.08-.25a3.08,3.08,0,0,0,.12-.85,3.51,3.51,0,0,0-.05-.55,2.46,2.46,0,0,0-.07-.29s0-.09,0-.14l0-.09h0v-.06a2.9,2.9,0,0,0-.31-.54,3.34,3.34,0,0,0-.45-.47,2.57,2.57,0,0,0-.54-.34l-.15-.07-.15-.06-.3-.08a3.05,3.05,0,0,0-.6-.06h-.27l-.28.05a3,3,0,0,0-.82.28l-.22.12-.08,0,0-.08.16-.2a2.32,2.32,0,0,1,.77-.58l0,0h0l.07,0,.14,0a2.79,2.79,0,0,1,.34-.09,2.66,2.66,0,0,1,.75,0,2.7,2.7,0,0,1,.79.2,2.55,2.55,0,0,1,.73.43,3,3,0,0,1,.57.62,3.35,3.35,0,0,1,.2.37,1.42,1.42,0,0,0,.08.18l.06.19,0,.11,0,.08c0,.05,0,.12,0,.19a2.31,2.31,0,0,1,0,.37,2.34,2.34,0,0,1-.27,1.17,2.13,2.13,0,0,1-.22.35Zm6.45,4.22a1.3,1.3,0,0,1,0,.21l-.06.21a2.63,2.63,0,0,1-.36.71,2.21,2.21,0,0,1-.22.29l-.25.23-.25.18-.24.14-.22.09-.19.06-.08,0h-.08l-.12,0H116l.08-.05.22-.15.16-.11.16-.15.17-.17.17-.21a2.95,2.95,0,0,0,.51-1.11,2.42,2.42,0,0,0,.05-.66v-.17a.76.76,0,0,0,0-.16,1.9,1.9,0,0,0-.08-.35h0v0l0,0,0-.08a1,1,0,0,0-.06-.16c0-.1-.11-.2-.17-.3a3.52,3.52,0,0,0-.43-.51,2.35,2.35,0,0,0-.52-.37,2.29,2.29,0,0,0-.27-.14l-.26-.1-.26-.07-.24,0-.22,0h-.19a2,2,0,0,0-.27,0h-.1l.09,0,.1-.06.07,0,.08,0,.2-.06.23,0,.28,0h.31l.33.05a2.3,2.3,0,0,1,.35.1,2.84,2.84,0,0,1,.71.37l.16.13.16.15.08.08.07.08.13.18a2.45,2.45,0,0,1,.24.38l.09.21,0,.1,0,.05v0h0s0,0,0,0l.05.19,0,.1,0,.12a2.42,2.42,0,0,1,0,.46A2.09,2.09,0,0,1,118.19,45.05Z"/><path class="cls-4" d="M119.49,43.28a4.52,4.52,0,0,0-4.32-3.16,4.4,4.4,0,0,0-1.3.19,4.43,4.43,0,0,0-.12-2.31,4.52,4.52,0,0,0-4.32-3.16,4.62,4.62,0,0,0-1.38.21,4.53,4.53,0,0,0-3,5.71,4.56,4.56,0,0,0,1.24,2,4.54,4.54,0,0,0,1.38,8.86,4.28,4.28,0,0,0,1.28-.2h.1a4.49,4.49,0,0,0,2.82-2.71,4.36,4.36,0,0,0,.23-.6,4,4,0,0,0,.41.31,4.55,4.55,0,0,0,2.6.84,4.62,4.62,0,0,0,1.38-.21l.13-.06a4.51,4.51,0,0,0,2.82-5.65Zm-3.13,5.14a3.86,3.86,0,0,1-1.2.19,4,4,0,0,1-3.54-2.22,4,4,0,0,1-2.7,4.4,3.86,3.86,0,0,1-1.2.19,3.95,3.95,0,0,1-1.19-7.71,4.09,4.09,0,0,1,1.19-.18,3,3,0,0,1,.43,0,3.95,3.95,0,0,1,.08-7.49,3.86,3.86,0,0,1,1.2-.19,3.95,3.95,0,0,1,3.27,6.16A3.72,3.72,0,0,1,114,40.9a4.16,4.16,0,0,1,1.2-.18,3.94,3.94,0,0,1,1.19,7.7Z"/><path class="cls-11" d="M118.18,44l0-.1-.05-.19s0,0,0,0h0v0l0-.05,0-.1-.09-.21a2.45,2.45,0,0,0-.24-.38l-.13-.18-.07-.08-.08-.08-.16-.15-.16-.13a2.84,2.84,0,0,0-.71-.37,2.3,2.3,0,0,0-.35-.1l-.33-.05h-.31l-.28,0-.23,0-.2.06-.08,0-.07,0-.1.06-.09,0h.1a2,2,0,0,1,.27,0h.19l.22,0,.24,0,.26.07.26.1a2.29,2.29,0,0,1,.27.14,2.35,2.35,0,0,1,.52.37,3.52,3.52,0,0,1,.43.51c.06.1.12.2.17.3a1,1,0,0,1,.06.16l0,.08,0,0v0h0a1.9,1.9,0,0,1,.08.35.76.76,0,0,1,0,.16v.17a2.56,2.56,0,0,1-.26,1.27,2.45,2.45,0,0,1-.3.5l-.17.21-.17.17-.16.15-.16.11-.22.15-.08.05h.09l.12,0h.08l.08,0,.19-.06.22-.09.24-.14.25-.18.25-.23a2.21,2.21,0,0,0,.22-.29,2.63,2.63,0,0,0,.36-.71l.06-.21a1.3,1.3,0,0,0,0-.21,2.09,2.09,0,0,0,0-.43,2.42,2.42,0,0,0,0-.46Z"/><path class="cls-11" d="M112.33,39.76a2.24,2.24,0,0,0,.07-.65,2.31,2.31,0,0,0,0-.37c0-.07,0-.14,0-.19l0-.08,0-.11-.06-.19a1.42,1.42,0,0,1-.08-.18,3.35,3.35,0,0,0-.2-.37,3,3,0,0,0-.57-.62,2.55,2.55,0,0,0-.73-.43,2.7,2.7,0,0,0-.79-.2,2.66,2.66,0,0,0-.75,0,2.79,2.79,0,0,0-.34.09l-.14,0-.07,0h0l0,0a2.32,2.32,0,0,0-.77.58l-.16.2,0,.08.08,0,.22-.12a3,3,0,0,1,.82-.28l.28-.05h.27a3.05,3.05,0,0,1,.6.06l.3.08.15.06.15.07a2.57,2.57,0,0,1,.54.34,3.34,3.34,0,0,1,.45.47,2.9,2.9,0,0,1,.31.54v.06h0l0,.09c0,.05,0,.1,0,.14a2.46,2.46,0,0,1,.07.29,3.51,3.51,0,0,1,.05.55,3.08,3.08,0,0,1-.12.85c0,.11-.06.19-.08.25l0,.08.07-.06.17-.2a2.13,2.13,0,0,0,.22-.35A2.26,2.26,0,0,0,112.33,39.76Z"/><path class="cls-11" d="M109.56,48.92a2.8,2.8,0,0,1-.83.39l-.13,0-.07,0h-.06s0,0,0,0h0l-.16,0h-.46a3.16,3.16,0,0,1-.32,0,2.52,2.52,0,0,1-.65-.18,2.7,2.7,0,0,1-.59-.35,2.78,2.78,0,0,1-.48-.49,3.07,3.07,0,0,1-.33-.58l0,0h0v0l0-.08a.31.31,0,0,1,0-.08l0-.07c0-.1-.05-.21-.07-.31a3,3,0,0,1,0-.59,3.12,3.12,0,0,1,.19-.9,2.55,2.55,0,0,1,.1-.25l0-.09-.07.07a1.23,1.23,0,0,0-.2.2,1.86,1.86,0,0,0-.25.36,2.25,2.25,0,0,0-.23.54,2.85,2.85,0,0,0-.11.69c0,.13,0,.26,0,.4s0,.14,0,.2l0,.09v0h0v0l0,0,.06.2.09.2a2,2,0,0,0,.21.38,3.19,3.19,0,0,0,.61.66,3.07,3.07,0,0,0,.79.44,3.21,3.21,0,0,0,.85.17c.14,0,.27,0,.41,0l.2,0,.19,0,.1,0,.08,0,.15-.06h0l0,0,.08,0,.15-.07a2.33,2.33,0,0,0,.75-.69,1,1,0,0,0,.15-.24l0-.08-.08.06Z"/><path class="cls-1" d="M59.32,103.85l3.38-4.76A3.18,3.18,0,0,1,64.27,98l8.59-2.59A2.41,2.41,0,0,1,75.65,97l2.79,7.58a3.46,3.46,0,0,1,.29,2l-.61,5.4c-.1.86-.31,2.59-1.9,3l-10.39,3.23A2.1,2.1,0,0,1,63.3,117l-4.07-9.72C58.39,105.26,59,104.31,59.32,103.85Z"/><path class="cls-2" d="M74.82,97.28l2.79,7.58a2.57,2.57,0,0,1,.23,1.55l-.61,5.4c-.08.72-.34.71-.72-.2l-3.61-8.53a2.53,2.53,0,0,1-.34-1.8l1.6-4.43C74.28,96.51,74.66,96.86,74.82,97.28Z"/><path class="cls-8" d="M75.24,99.55a4.33,4.33,0,0,1,.34,2c-.08.38-.37.11-.65-.59a4.47,4.47,0,0,1-.34-2C74.68,98.59,75,98.85,75.24,99.55Z"/><path class="cls-8" d="M74.84,101.32a4.35,4.35,0,0,1,.34,2c-.08.38-.37.11-.65-.59a4.47,4.47,0,0,1-.34-2C74.28,100.36,74.57,100.62,74.84,101.32Z"/><path class="cls-8" d="M74.44,103.1a4.31,4.31,0,0,1,.34,1.94c-.08.38-.37.12-.65-.59a4.45,4.45,0,0,1-.34-1.94C73.88,102.13,74.17,102.39,74.44,103.1Z"/><path class="cls-8" d="M76.75,103.42a5.48,5.48,0,0,1,.39,2c0,.45-.29.25-.55-.43a5.57,5.57,0,0,1-.4-2C76.24,102.54,76.49,102.73,76.75,103.42Z"/><path class="cls-8" d="M76.54,105.5a5.57,5.57,0,0,1,.39,2c0,.44-.29.25-.55-.43a5.61,5.61,0,0,1-.4-2C76,104.63,76.27,104.82,76.54,105.5Z"/><path class="cls-8" d="M76.33,107.59a5.53,5.53,0,0,1,.39,2c0,.44-.29.25-.55-.44a5.52,5.52,0,0,1-.4-2C75.82,106.71,76.06,106.91,76.33,107.59Z"/><path class="cls-8" d="M60.05,106.9l4.07,9.71a1.22,1.22,0,0,0,1.45.68L76,114.06a1,1,0,0,0,.62-1.31L72.51,103a1.22,1.22,0,0,0-1.45-.67l-10.39,3.22A1,1,0,0,0,60.05,106.9Z"/><path class="cls-9" d="M62.31,108.39a1.57,1.57,0,0,0,1.89.84,1.25,1.25,0,0,0,.82-1.69,1.56,1.56,0,0,0-1.88-.84A1.25,1.25,0,0,0,62.31,108.39Z"/><path class="cls-9" d="M71.94,112.29a1.56,1.56,0,0,0,1.88.84,1.25,1.25,0,0,0,.83-1.69,1.55,1.55,0,0,0-1.89-.83A1.24,1.24,0,0,0,71.94,112.29Z"/><path class="cls-9" d="M60.05,104.37l3.37-4.76a2.35,2.35,0,0,1,1.11-.77l8.59-2.59c.46-.14.75.24.63.53L72,101.22a2,2,0,0,1-1.11.76l-10.29,3.13C60.08,105.26,59.65,104.92,60.05,104.37Z"/><path class="cls-8" d="M66.16,100.58a3.37,3.37,0,0,1,1.71-1.06c.74-.22,1.19-.11,1,.24a3.23,3.23,0,0,1-1.7,1.06C66.42,101.05,66,100.94,66.16,100.58Z"/><path class="cls-1" d="M44.31,114l-1.66-5.57a3.2,3.2,0,0,1,.11-1.91L46,98.19A2.42,2.42,0,0,1,48.94,97l7.65,2.46a3.41,3.41,0,0,1,1.71,1l3.86,3.78c.62.61,1.84,1.84,1.19,3.34L59.5,117.66A2.09,2.09,0,0,1,57,118.92l-10.11-2.78C44.84,115.58,44.47,114.53,44.31,114Z"/><path class="cls-2" d="M48.67,97.82l7.65,2.46a2.56,2.56,0,0,1,1.36.77l3.86,3.79c.51.5.34.7-.61.44l-8.88-2.4a2.51,2.51,0,0,1-1.63-.84l-2.49-4C47.74,97.76,48.25,97.68,48.67,97.82Z"/><path class="cls-8" d="M50.71,98.88a4.22,4.22,0,0,1,1.74.93c.24.29-.14.36-.86.14A4.34,4.34,0,0,1,49.85,99C49.61,98.73,50,98.66,50.71,98.88Z"/><path class="cls-8" d="M51.85,100.28a4.34,4.34,0,0,1,1.74.93c.24.29-.14.36-.86.14a4.29,4.29,0,0,1-1.73-.92C50.75,100.13,51.14,100.06,51.85,100.28Z"/><path class="cls-8" d="M53,101.68a4.36,4.36,0,0,1,1.73.93c.25.3-.14.36-.86.15a4.48,4.48,0,0,1-1.73-.93C51.9,101.53,52.28,101.46,53,101.68Z"/><path class="cls-8" d="M54.67,100.07a5.36,5.36,0,0,1,1.83.94c.32.31,0,.38-.68.17a5.71,5.71,0,0,1-1.84-.94C53.66,99.93,54,99.86,54.67,100.07Z"/><path class="cls-8" d="M56.17,101.52a5.42,5.42,0,0,1,1.84.94c.32.3,0,.38-.68.17a5.6,5.6,0,0,1-1.84-.95C55.17,101.38,55.48,101.3,56.17,101.52Z"/><path class="cls-8" d="M57.68,103a5.71,5.71,0,0,1,1.84.94c.32.31,0,.38-.69.17a5.46,5.46,0,0,1-1.83-.94C56.68,102.82,57,102.75,57.68,103Z"/><path class="cls-9" d="M47.15,115.29l10.11,2.77a1.2,1.2,0,0,0,1.41-.72l3.85-10.12a1,1,0,0,0-.65-1.29l-10.11-2.77a1.22,1.22,0,0,0-1.42.72L46.5,114A1,1,0,0,0,47.15,115.29Z"/><path class="cls-8" d="M49.7,114.43a1.56,1.56,0,0,0,1.82-1,1.24,1.24,0,0,0-.82-1.68,1.54,1.54,0,0,0-1.81,1A1.24,1.24,0,0,0,49.7,114.43Z"/><path class="cls-8" d="M54.08,111.92a1.55,1.55,0,0,0,1.81-1,1.25,1.25,0,0,0-.82-1.69,1.55,1.55,0,0,0-1.81,1A1.25,1.25,0,0,0,54.08,111.92Z"/><path class="cls-8" d="M58.67,109.29a1.57,1.57,0,0,0,1.81-1,1.24,1.24,0,0,0-.81-1.68,1.56,1.56,0,0,0-1.82,1A1.25,1.25,0,0,0,58.67,109.29Z"/><path class="cls-8" d="M45.16,113.74l-1.66-5.57a2.42,2.42,0,0,1,.08-1.34l3.24-8.31c.18-.45.65-.45.81-.17L50,102.47a1.87,1.87,0,0,1-.08,1.34l-3.86,10C45.88,114.26,45.36,114.39,45.16,113.74Z"/><path class="cls-9" d="M46,106.62a3.31,3.31,0,0,1,.21-2c.29-.73.65-1,.81-.64a3.3,3.3,0,0,1-.21,2C46.48,106.71,46.11,107,46,106.62Z"/></g></g></svg>