<?xml version="1.0" encoding="UTF-8"?>
<svg width="130px" height="87px" viewBox="0 0 130 87" version="1.1" xmlns="http://www.w3.org/2000/svg" xmlns:xlink="http://www.w3.org/1999/xlink">
    <!-- Generator: Sketch 48 (47235) - http://www.bohemiancoding.com/sketch -->
    <title>loki_brand_logo</title>
    <desc>Created with Sketch.</desc>
    <defs>
        <rect id="path-1" x="0" y="0" width="130" height="87"></rect>
        <linearGradient x1="50%" y1="4.034%" x2="50%" y2="100%" id="linearGradient-3">
            <stop stop-color="#FFC700" offset="0%"></stop>
            <stop stop-color="#D49A27" offset="100%"></stop>
        </linearGradient>
    </defs>
    <g id="Multibrand" stroke="none" stroke-width="1" fill="none" fill-rule="evenodd" transform="translate(-544.000000, -401.000000)">
        <g id="Group-2" transform="translate(289.000000, 390.000000)">
            <g id="Group" transform="translate(223.000000, 0.000000)">
                <g id="loki_brand_logo" transform="translate(32.000000, 11.000000)">
                    <mask id="mask-2" fill="white">
                        <use xlink:href="#path-1"></use>
                    </mask>
                    <use id="Mask" fill="#000000" xlink:href="#path-1"></use>
                    <g id="loki_logo" mask="url(#mask-2)" fill="url(#linearGradient-3)">
                        <g transform="translate(31.000000, 2.000000)" id="Shape">
                            <path d="M31.0775778,79.6011575 C28.2360333,81.2458405 25.2485778,81.2743784 22.4561667,79.5208008 C19.7061889,77.7927571 18.9766333,74.995294 19.1783778,71.916207 C19.3607667,69.1315107 20.4900889,66.8507334 23.1142556,65.6356205 C27.4737222,63.6169411 34.4201333,65.2383432 34.3896111,73.2852742 C34.3308,75.7402828 33.5513667,78.1712595 31.0775778,79.6011575 Z M26.5141333,62.6308822 C23.9048556,62.6631751 21.5457111,63.39765 19.6265333,65.2608731 C17.822,67.0129487 16.9889667,69.2276383 16.7939222,71.6924099 C16.5162444,75.1883001 17.3031222,78.3402338 20.0605444,80.7066248 C22.3861889,82.7012724 25.1704111,83.2127012 28.1221333,82.9265714 C30.7031222,82.6757385 32.9349667,81.6476238 34.6062444,79.5808806 C36.1621333,77.6553247 36.7413111,75.3828083 36.8090556,72.386331 C36.8045889,70.3285997 36.2164778,67.898374 34.4603333,65.8864535 C32.3565333,63.4750027 29.6102778,62.5925814 26.5133889,62.6308822 L26.5141333,62.6308822 Z M23.0800111,56.1783175 L3.99022222,56.1783175 L10.8934556,44.1173085 C13.4437067,49.4435121 17.7524914,53.7079076 23.0800111,56.1783175 Z M10.7252111,33.1692768 C10.7252111,22.7326739 17.6589667,13.8994492 27.1238333,11.110247 L11.3751111,38.6260197 C10.9422838,36.8399745 10.7238355,35.00792 10.7244667,33.1692768 L10.7252111,33.1692768 Z M33.5178667,4.58633761 L35.5114889,7.95155439 C34.2086678,7.84653519 32.8997382,7.84352218 31.5964556,7.94254242 L33.5171222,4.58633761 L33.5178667,4.58633761 Z M56.2755333,33.1692768 C56.2755333,39.3875305 53.8114222,45.0365286 49.8189667,49.1775251 C49.0715725,49.9529325 48.2713268,50.6746495 47.4240889,51.337392 C43.441837,54.4577859 38.5416751,56.1491554 33.4992556,56.1437717 C23.8989,56.1437717 15.6668333,50.1192751 12.3220444,41.620995 L30.1678667,10.4396069 C31.2711076,10.2752812 32.3847986,10.1927009 33.5,10.1925289 C46.0587778,10.1925289 56.2755333,20.5007113 56.2755333,33.1692768 Z M63.0097778,56.1783175 L43.9222222,56.1783175 C45.9786825,55.2262582 47.8979172,53.9977369 49.6276444,52.5262199 C52.3506477,50.2145372 54.5583216,47.3481181 56.1058,44.1150555 L63.0105222,56.1783175 L63.0097778,56.1783175 Z M67,58.5019017 L57.2135333,41.401704 C58.1192341,38.753258 58.5804251,35.9708938 58.5781,33.1692768 C58.5781,20.9250245 49.9105333,10.6851828 38.4393889,8.36385164 L33.4828778,0 L28.7117333,8.33606476 C17.1668889,10.5950632 8.4219,20.8702018 8.4219,33.1692768 C8.4219,36.0508516 8.90281111,38.8205279 9.78646667,41.402455 L0,58.5026527 L67,58.5026527 L67,58.5019017 Z M57.3408333,63.3563452 C56.9127778,63.386385 56.4288889,63.5290744 56.0909111,63.7836624 C51.7001778,67.0850444 47.3310333,70.4134623 42.9551889,73.7336193 C42.7474889,73.8913286 42.5308556,74.034018 42.2077667,74.2608191 L42.2077667,63.3758711 L39.932,63.3758711 L39.932,82.2957341 L42.2323333,82.2957341 L42.2323333,81.5785321 C42.2323333,80.2267378 42.2248889,78.8749436 42.2412667,77.5208963 C42.2449889,77.3121192 42.2978444,77.0177284 42.4378,76.9088339 C44.1932,75.5502806 45.9694444,74.2202652 47.7680222,72.863214 C47.9347778,73.0637301 48.0687778,73.2184355 48.1931,73.3798998 C49.3961222,74.9472302 50.5381,76.5641263 51.8163111,78.06612 C52.8793778,79.3150277 54.0295444,80.5106146 55.2690444,81.5785321 C56.4795111,82.6194137 57.9617,82.9919082 59.5563,82.560836 C59.7275222,82.5142742 59.9672333,82.3039951 59.9776556,82.1552977 C60.0260444,81.5372273 59.9977556,80.9138999 59.9977556,80.2057099 C58.2766,80.656308 57.0519889,79.9263391 55.9271333,78.9838381 C53.3893222,76.8585171 51.5751111,74.1286436 49.7095333,71.3642243 L60.0528444,63.4967816 C59.1578315,63.3391918 58.2471374,63.2920332 57.3408333,63.3563452 Z M2.32564444,63.385634 L0.0699777778,63.385634 L0.0699777778,82.2964851 L15.8589,82.2964851 L15.8589,80.0179607 L2.32564444,80.0179607 L2.32564444,63.385634 Z M64.7182778,82.2799632 L66.9292778,82.2799632 L66.9292778,63.3773731 L64.7182778,63.3773731 L64.7182778,82.2799632 Z"></path>
                            <path d="M32.8396494,25.1590909 L32.8396494,31.6625874 C32.8396494,32.3027356 33.3574074,32.8216783 33.9960941,32.8216783 C34.6347809,32.8216783 35.1525388,32.3027356 35.1525388,31.6625874 L35.1525388,25.1590909 C35.1525388,24.5189427 34.6347809,24 33.9960941,24 C33.3574074,24 32.8396494,24.5189427 32.8396494,25.1590909 Z M19.9415906,37.3351648 C19.4723808,36.9006751 18.7405918,36.9296916 18.307094,37.399975 C17.8735961,37.8702585 17.9025464,38.603722 18.3717562,39.0382118 L19.111821,39.7245255 C19.3353355,39.9305694 19.6164106,40.0317183 19.8967382,40.0317183 C20.3727002,40.0312335 20.7998217,39.738698 20.9732246,39.2944327 C21.1466276,38.8501674 21.0309406,38.3447954 20.6816554,38.0207293 L19.9415906,37.3351648 Z M25.450962,34.290959 C25.6564726,34.6501876 26.037581,34.8722391 26.4507272,34.8734686 C26.8638733,34.8746982 27.2462906,34.6549192 27.4539261,34.2969202 C27.6615616,33.9389212 27.6628706,33.4970907 27.4573599,33.1378621 L25.3395785,29.4380619 C25.1339343,29.0788333 24.7527026,28.8568534 24.3394896,28.8557397 C23.9262767,28.854626 23.5438594,29.0745478 23.3362906,29.4326628 C23.1287219,29.7907777 23.1275363,30.2326795 23.3331805,30.5919081 L25.450962,34.2917083 L25.450962,34.290959 Z M29.0451353,32.495005 C29.2228121,33.0917604 29.8389718,33.4413688 30.4409107,33.2869665 C31.0428497,33.1325642 31.4156963,32.5292676 31.2855133,31.9203297 L29.9436786,26.6658342 C29.7702697,26.0636307 29.1508914,25.7084543 28.5450516,25.8638054 C27.9392119,26.0191564 27.5661136,26.6288262 27.7025531,27.2405095 L29.0451353,32.495005 Z M22.1475818,36.7634865 C22.3528779,36.9923765 22.6407144,37.1298338 22.9473994,37.1454422 C23.2540844,37.1610506 23.5543322,37.0535232 23.7817047,36.8466533 C24.0093108,36.6405895 24.1459214,36.3523411 24.1614827,36.0453216 C24.1770439,35.7383022 24.0702811,35.4376619 23.8646816,35.2095405 L22.002559,33.1438561 C21.5744283,32.668814 20.8431412,32.631579 20.3691836,33.0606893 C19.895226,33.4897997 19.8580759,34.2227601 20.2862066,34.6978022 L22.1475818,36.7642358 L22.1475818,36.7634865 Z M47.2447493,39.6600899 C47.4525343,39.8867648 47.7419319,40.0210256 48.0488132,40.0331208 C48.3556946,40.045216 48.6547174,39.9341468 48.8796198,39.7245255 L49.6204321,39.0374625 C49.9283954,38.7575154 50.0627263,38.3334229 49.9722661,37.9266973 C49.8818058,37.5199716 49.5804785,37.1932182 49.1830423,37.0708785 C48.785606,36.9485387 48.3532363,37.0494438 48.0505977,37.3351648 L47.3090378,38.0214785 C47.0836009,38.2301605 46.9501613,38.5200933 46.9381033,38.8274314 C46.9260454,39.1347695 47.036358,39.4343094 47.2447493,39.6600899 Z M40.9631689,34.7202797 C41.2292241,34.8733321 41.5450501,34.914163 41.8411459,34.8337868 C42.1372417,34.7534107 42.3893437,34.5584141 42.5419738,34.2917083 L44.6590077,30.5919081 C44.9769061,30.0365888 44.7854662,29.3281163 44.2314147,29.0094905 C43.6773632,28.6908647 42.9705082,28.8827427 42.6526098,29.4380619 L40.5348284,33.1378621 C40.3821254,33.4045261 40.3413878,33.7210748 40.4215804,34.0178482 C40.501773,34.3146215 40.6963244,34.5673003 40.9624214,34.7202797 L40.9631689,34.7202797 Z M37.5394347,33.3304196 C38.1582668,33.4890543 38.7883035,33.1151306 38.947053,32.495005 L40.2888876,27.2405095 C40.3990099,26.8367211 40.2833549,26.4047921 39.9863187,26.1105255 C39.6892825,25.8162589 39.2570212,25.7053803 38.8554652,25.8204523 C38.4539092,25.9355243 38.1454557,26.2586659 38.0485096,26.6658342 L36.7059274,31.9203297 C36.6299616,32.218203 36.675183,32.5341231 36.831641,32.7985744 C36.9880989,33.0630257 37.2429738,33.2543398 37.5401823,33.3304196 L37.5394347,33.3304196 Z M44.2104836,36.8466533 C44.4376346,37.053572 44.7377032,37.1612109 45.0442639,37.1457424 C45.3508245,37.1302738 45.6385903,36.9929736 45.843859,36.7642358 L47.7059816,34.6978022 C48.1069383,34.2197773 48.0582799,33.5093759 47.595908,33.090755 C47.1335362,32.6721341 46.4234745,32.6956077 45.9896293,33.1438561 L44.1275066,35.2095405 C43.6991758,35.6843779 43.7359909,36.4173332 44.2097361,36.8466533 L44.2104836,36.8466533 Z M37.1432384,45.3011988 C38.5452836,43.6295992 38.4028259,41.1520003 36.818471,39.6529003 C35.2341162,38.1538003 32.7580721,38.1538003 31.1737172,39.6529003 C29.5893623,41.1520003 29.4469047,43.6295992 30.8489498,45.3011988 C28.2637595,44.6663067 25.9645569,43.1833587 24.3169435,41.0881618 C25.8038009,39.6196304 29.7134363,36.2142857 33.9960941,36.2142857 C38.2794995,36.2142857 42.1891349,39.6203796 43.6752448,41.0881618 C42.0275531,43.1832724 39.7283828,44.6661995 37.1432384,45.3011988 Z M33.9960941,33.8961039 C27.5007172,33.8961039 22.1625326,39.968032 21.9382705,40.2272727 C21.594402,40.6228771 21.5600152,41.2012987 21.8530509,41.6358641 C24.5793301,45.6803197 29.001778,48 33.9871237,48 L34.0050646,48 C38.9904103,48 43.4128582,45.6803197 46.1391373,41.6358641 C46.4317685,41.2010322 46.3968266,40.6234785 46.0539178,40.2272727 C45.8296557,39.968032 40.4907235,33.8961039 33.9960941,33.8961039 Z"></path>
                        </g>
                    </g>
                </g>
            </g>
        </g>
    </g>
</svg>