<svg width="272" height="61" viewBox="0 0 272 61" version="1.1" xmlns="http://www.w3.org/2000/svg" xmlns:xlink="http://www.w3.org/1999/xlink">
<title>logo</title>
<desc>Created using Figma</desc>
<g id="Canvas" transform="translate(-4356 2387)">
<g id="logo">
<g id="Group">
<g id="Group">
<g id="Vector">
<use xlink:href="#path0_fill" transform="translate(4370.65 -2348.74)" fill="#722328"/>
</g>
<g id="Vector">
<use xlink:href="#path1_fill" transform="translate(4380.8 -2348.74)" fill="#8F2328"/>
</g>
<g id="Group">
<g id="Vector">
<use xlink:href="#path2_fill" transform="translate(4359.26 -2372.43)" fill="#8F2328"/>
</g>
<g id="Vector">
<use xlink:href="#path3_fill" transform="translate(4360.25 -2365.49)" fill="#A9272C"/>
</g>
<g id="Vector">
<use xlink:href="#path4_fill" transform="translate(4364.62 -2360.62)" fill="#A9272C"/>
</g>
<g id="Vector">
<use xlink:href="#path5_fill" transform="translate(4384.7 -2387)" fill="#9F5E3C"/>
</g>
<g id="Vector">
<use xlink:href="#path6_fill" transform="translate(4383.28 -2387)" fill="#F1D0AF"/>
</g>
<g id="Vector">
<use xlink:href="#path7_fill" transform="translate(4369.7 -2386.15)" fill="#F1D0AF"/>
</g>
<g id="Vector">
<use xlink:href="#path8_fill" transform="translate(4369.58 -2386.05)" fill="#9F5E3C"/>
</g>
<g id="Vector">
<use xlink:href="#path9_fill" transform="translate(4356.21 -2356.68)" fill="#D39D7B"/>
</g>
<g id="Vector">
<use xlink:href="#path10_fill" transform="translate(4356 -2356.68)" fill="#F1D0AF"/>
</g>
<g id="Vector">
<use xlink:href="#path11_fill" transform="translate(4358.75 -2349.69)" fill="#F1D0AF"/>
</g>
<g id="Vector">
<use xlink:href="#path12_fill" transform="translate(4380.8 -2347.91)" fill="#D39D7B"/>
</g>
<g id="Vector">
<use xlink:href="#path13_fill" transform="translate(4381.65 -2337.1)" fill="url(#paint13_radial)"/>
</g>
<g id="Vector">
<use xlink:href="#path14_fill" transform="translate(4375.96 -2353.95)" fill="#A9272C"/>
</g>
<g id="Vector">
<use xlink:href="#path15_fill" transform="translate(4379.15 -2353.01)" fill="#CD3334"/>
</g>
<g id="Vector">
<use xlink:href="#path16_fill" transform="translate(4388.43 -2366.09)" fill="#F1D0AF"/>
</g>
<g id="Vector">
<use xlink:href="#path17_fill" transform="translate(4376.43 -2369.35)" fill="#F1D0AF"/>
</g>
<g id="Vector">
<use xlink:href="#path18_fill" transform="translate(4368.3 -2369.11)" fill="#D39D7B"/>
</g>
<g id="Vector">
<use xlink:href="#path19_fill" transform="translate(4387.38 -2369)" fill="#D39D7B"/>
</g>
<g id="Vector">
<use xlink:href="#path20_fill" transform="translate(4387.3 -2369.11)" fill="#F1D0AF"/>
</g>
<g id="Vector">
<use xlink:href="#path21_fill" transform="translate(4387.56 -2359.88)" fill="#F1D0AF"/>
</g>
<g id="Vector">
<use xlink:href="#path22_fill" transform="translate(4376.31 -2359.17)" fill="#F1D0AF"/>
</g>
<g id="Vector">
<use xlink:href="#path23_fill" transform="translate(4378.44 -2364.85)" fill="url(#paint23_radial)"/>
</g>
<g id="Vector">
<use xlink:href="#path24_fill" transform="translate(4388.72 -2368.64)" fill="#F1D0AF"/>
</g>
<g id="Vector" opacity="0.34">
<use xlink:href="#path25_fill" transform="translate(4389.78 -2362.48)" fill="#F1D0AF"/>
</g>
<g id="Vector" opacity="0.34">
<use xlink:href="#path26_fill" transform="translate(4370.53 -2359.05)" fill="#F1D0AF"/>
</g>
<g id="Vector">
<use xlink:href="#path27_fill" transform="translate(4368.25 -2367.1)" fill="#F1D0AF"/>
</g>
<g id="Vector">
<use xlink:href="#path28_fill" transform="translate(4375.61 -2349.61)" fill="#F1D0AF"/>
</g>
<g id="Vector">
<use xlink:href="#path29_fill" transform="translate(4375.72 -2337.49)" fill="url(#paint29_radial)"/>
</g>
<g id="Vector">
<use xlink:href="#path30_fill" transform="translate(4357.3 -2372.78)" fill="#CD3334"/>
</g>
<g id="Vector">
<use xlink:href="#path31_fill" transform="translate(4380.79 -2367.46)" fill="#D4B53F"/>
</g>
<g id="Vector">
<use xlink:href="#path32_fill" transform="translate(4381.54 -2366.86)" fill="#E2DE3A"/>
</g>
<g id="Vector">
<use xlink:href="#path33_fill" transform="translate(4371.1 -2385.23)" fill="url(#paint33_radial)"/>
</g>
<g id="Vector">
<use xlink:href="#path34_fill" transform="translate(4377.26 -2385.24)" fill="#F1D0AF"/>
</g>
<g id="Vector">
<use xlink:href="#path35_fill" transform="translate(4388.72 -2374.21)" fill="#F3DCA8"/>
</g>
<g id="Vector">
<use xlink:href="#path36_fill" transform="translate(4385.57 -2373.07)" fill="#F1D0AF"/>
</g>
<g id="Vector">
<use xlink:href="#path37_fill" transform="translate(4384.09 -2376.12)" fill="#F1D0AF"/>
</g>
<g id="Vector">
<use xlink:href="#path38_fill" transform="translate(4370.76 -2383)" fill="#CD3334"/>
</g>
<g id="Vector">
<use xlink:href="#path39_fill" transform="translate(4376.95 -2381.73)" fill="#A9272C"/>
</g>
<g id="Vector">
<use xlink:href="#path40_fill" transform="translate(4370.88 -2377.23)" fill="#8F2328"/>
</g>
<g id="Vector">
<use xlink:href="#path41_fill" transform="translate(4386.47 -2376.18)" fill="#401B14"/>
</g>
<g id="Vector">
<use xlink:href="#path42_fill" transform="translate(4377.14 -2380.84)" fill="url(#paint42_radial)"/>
</g>
<g id="Vector">
<use xlink:href="#path43_fill" transform="matrix(0.915911 -0.401382 0.399449 0.916755 4378.18 -2378.84)" fill="#401B14"/>
</g>
<g id="Vector">
<use xlink:href="#path44_fill" transform="translate(4387.12 -2380.89)" fill="url(#paint44_radial)"/>
</g>
<g id="Vector">
<use xlink:href="#path45_fill" transform="matrix(0.70318 -0.711012 0.708988 0.705221 4387.54 -2379.25)" fill="#401B14"/>
</g>
<g id="Vector">
<use xlink:href="#path46_fill" transform="translate(4382.15 -2374.33)" fill="#401B14"/>
</g>
<g id="Vector">
<use xlink:href="#path47_fill" transform="translate(4377.43 -2359.28)" fill="#763421"/>
</g>
<g id="Vector">
<use xlink:href="#path48_fill" transform="translate(4386.94 -2360.04)" fill="#763421"/>
</g>
<g id="Vector">
<use xlink:href="#path49_fill" transform="translate(4388.01 -2368.29)" fill="#763421"/>
</g>
<g id="Vector">
<use xlink:href="#path50_fill" transform="translate(4376.67 -2364.97)" fill="#763421"/>
</g>
<g id="Vector">
<use xlink:href="#path51_fill" transform="translate(4377.97 -2337.42)" fill="#763421"/>
</g>
<g id="Vector">
<use xlink:href="#path52_fill" transform="translate(4384.38 -2336.54)" fill="#763421"/>
</g>
<g id="Vector">
<use xlink:href="#path53_fill" transform="translate(4378.91 -2380.49)" fill="#FFFFFF"/>
</g>
</g>
<g id="Group">
<g id="Vector">
<use xlink:href="#path54_fill" transform="translate(4380.8 -2343.41)" fill="#A9272C"/>
</g>
<g id="Vector">
<use xlink:href="#path55_fill" transform="translate(4370.65 -2343.41)" fill="#8F2328"/>
</g>
<g id="Vector">
<use xlink:href="#path56_fill" transform="translate(4380.8 -2343.41)" fill="#CD3334"/>
</g>
<g id="Vector">
<use xlink:href="#path57_fill" transform="translate(4366.63 -2343.41)" fill="#A9272C"/>
</g>
</g>
</g>
</g>
<g id="Group">
<g id="Group">
<g id="Vector">
<use xlink:href="#path58_fill" transform="translate(4404.42 -2373.85)" fill="#CD3334"/>
</g>
<g id="Vector">
<use xlink:href="#path59_fill" transform="translate(4441.98 -2373.62)" fill="#CD3334"/>
</g>
<g id="Vector">
<use xlink:href="#path60_fill" transform="translate(4475.41 -2373.73)" fill="#CD3334"/>
</g>
<g id="Vector">
<use xlink:href="#path61_fill" transform="translate(4516.62 -2373.85)" fill="#FFFFFF"/>
</g>
<g id="Vector">
<use xlink:href="#path62_fill" transform="translate(4555.72 -2373.85)" fill="#FFFFFF"/>
</g>
<g id="Vector">
<use xlink:href="#path63_fill" transform="translate(4595.88 -2375.16)" fill="#FFFFFF"/>
</g>
</g>
</g>
</g>
</g>
<defs>
<radialGradient id="paint13_radial" cx="0.5" cy="0.5" r="0.5" gradientUnits="userSpaceOnUse" gradientTransform="matrix(-3.15298 0 0 3.16206 3.83816 -0.685666)">
<stop offset="0.6647" stop-color="#FFFFFF"/>
<stop offset="1" stop-color="#F1D0AF"/>
</radialGradient>
<radialGradient id="paint23_radial" cx="0.5" cy="0.5" r="0.5" gradientUnits="userSpaceOnUse" gradientTransform="matrix(-11.1427 0 0 13.6533 10.6044 -0.639912)">
<stop offset="0.6647" stop-color="#FFFFFF"/>
<stop offset="1" stop-color="#F1D0AF"/>
</radialGradient>
<radialGradient id="paint29_radial" cx="0.5" cy="0.5" r="0.5" gradientUnits="userSpaceOnUse" gradientTransform="matrix(-3.46572 0 0 3.4757 4.09984 -0.866437)">
<stop offset="0.6647" stop-color="#FFFFFF"/>
<stop offset="1" stop-color="#F1D0AF"/>
</radialGradient>
<radialGradient id="paint33_radial" cx="0.5" cy="0.5" r="0.5" gradientUnits="userSpaceOnUse" gradientTransform="matrix(-25.1111 0 0 25.1834 21.208 -2.53982)">
<stop offset="0.4897" stop-color="#FFFFFF"/>
<stop offset="0.7861" stop-color="#F1D0AF"/>
<stop offset="1" stop-color="#D49D7B"/>
</radialGradient>
<radialGradient id="paint42_radial" cx="0.5" cy="0.5" r="0.5" gradientUnits="userSpaceOnUse" gradientTransform="matrix(-5.16244 0 0 5.1773 5.20213 0.00829126)">
<stop offset="0.6647" stop-color="#FFFFFF"/>
<stop offset="1" stop-color="#F1D0AF"/>
</radialGradient>
<radialGradient id="paint44_radial" cx="0.5" cy="0.5" r="0.5" gradientUnits="userSpaceOnUse" gradientTransform="matrix(-2.82322 0 0 2.83135 2.78285 0.0457551)">
<stop offset="0.6647" stop-color="#FFFFFF"/>
<stop offset="1" stop-color="#F1D0AF"/>
</radialGradient>
<path id="path0_fill" d="M 10.1572 -9.03676e-07L 2.25271e-07 5.3301L 2.25271e-07 17.4117L 10.1572 12.0816L 10.1572 -9.03676e-07Z"/>
<path id="path1_fill" d="M 10.0391 5.3301L -4.50541e-07 -9.03676e-07L -4.50541e-07 12.0816L 10.0391 17.4117L 10.0391 5.3301Z"/>
<path id="path2_fill" d="M 19.6529 7.81747C 19.6529 7.93592 17.6451 11.7262 14.9287 13.7398C 12.2122 15.8718 8.31469 16.8194 8.4328 16.4641C 8.55091 16.2272 8.19659 15.0427 6.18877 13.9767C 4.18096 12.9107 5.36203 11.6078 5.24392 10.3049C 5.12581 8.88349 4.18096 8.40971 2.05504 7.58058C -0.0708813 6.75146 -0.307095 5.92233 0.637759 3.90874C 1.70072 1.89515 1.3464 1.18447 0.873972 0.710679C 0.519652 0.118446 -0.188988 2.25919e-07 0.0472254 2.25919e-07C 0.283439 2.25919e-07 5.12581 0.35534 7.72416 1.7767C 10.3225 3.3165 12.9209 4.02719 15.5192 4.61942C 18.2357 5.0932 19.6529 7.81747 19.6529 7.81747Z"/>
<path id="path3_fill" d="M 3.66131 0.283484C 4.72427 0.283484 5.90533 -0.427195 6.96829 0.401931C 7.0864 0.520378 7.32262 0.638824 7.20451 0.875717C 7.0864 1.11261 6.85019 1.23106 6.61398 1.3495C 5.66912 1.5864 4.72427 1.82329 3.89752 2.17863C 3.42509 1.46795 2.48024 1.11261 1.06296 0.520378C 0.70864 0.401932 0.35432 0.165039 1.5735e-15 0.0465921C 1.29917 0.401932 2.59835 0.283484 3.66131 0.283484Z"/>
<path id="path4_fill" d="M 1.88971 1.21675C 3.18888 1.0983 4.25184 0.624515 5.43291 0.269175C 6.02344 0.150728 6.73208 -0.0861658 7.32261 0.0322808C 7.55883 0.150727 7.67694 0.506068 7.55883 0.742961C 6.85019 1.69053 5.66912 1.69053 4.60616 2.04587C 3.77941 2.40121 3.07077 2.75655 2.36213 2.99345C 2.24403 2.99345 2.24403 2.99345 2.12592 2.99345C 1.7716 2.63811 1.41728 2.40121 0.826747 2.04587C 0.35432 1.80898 0.118106 1.57209 -2.25271e-07 1.33519C 0.35432 1.33519 0.590533 1.21675 0.944853 1.21675C 1.29917 1.33519 1.53539 1.33519 1.88971 1.21675Z"/>
<path id="path5_fill" d="M 1.06296 0C 1.29917 0 1.29917 0.35534 1.41728 1.42136C 1.65349 2.60582 2.24403 4.38252 2.24403 4.38252C 2.24403 4.38252 1.06296 3.90874 9.01082e-07 3.5534C 9.01082e-07 2.25049 0.236214 0.947573 1.06296 0Z"/>
<path id="path6_fill" d="M 0.590534 1.89515C 1.06296 0.829126 2.12592 0.118447 2.48024 0C 1.6535 0.947573 1.41728 2.25049 1.41728 3.5534C 0.708641 3.3165 0.118107 3.07961 -4.19599e-15 3.07961C -8.39199e-15 3.19806 0 2.96116 0.590534 1.89515Z"/>
<path id="path7_fill" d="M 3.5432 0.452051C 6.37776 1.16273 7.55883 2.46564 7.55883 2.46564C 7.55883 2.46564 7.32262 2.46564 6.02344 3.29477L 5.90533 3.41322C 4.13373 1.87341 2.24403 0.688944 4.19599e-15 0.0967113C 8.39198e-15 -0.0217353 0.826747 -0.140182 3.5432 0.452051Z"/>
<path id="path8_fill" d="M 5.90533 3.31651C 4.60616 4.26408 3.30699 6.51456 3.30699 6.51456C 3.30699 6.51456 1.88971 4.97476 1.06296 3.19806C 0.118107 1.42136 -4.50541e-07 0.236893 -4.50541e-07 1.41199e-08C 2.24403 0.592233 4.25184 1.7767 5.90533 3.31651Z"/>
<path id="path9_fill" d="M 20.8154 4.49918C 20.6972 4.61763 17.5084 8.64481 14.5557 10.3031C 11.603 11.9613 5.93391 12.3167 3.80799 9.23705C 1.56397 6.15743 2.74503 4.02539 3.9261 3.67005C 5.10717 3.19627 7.82362 3.67005 7.70551 1.77491C 7.58741 -0.120238 4.16231 -0.712471 1.91829 1.06423C -0.32574 2.84093 -0.798166 7.69724 1.56397 10.54C 3.9261 13.3827 10.6582 13.8565 14.5557 12.0798C 18.4532 10.3031 20.6972 8.05258 20.6972 8.05258L 20.8154 4.49918Z"/>
<path id="path10_fill" d="M 2.00781 1.06786C 3.89752 -0.471942 6.73208 -0.235049 7.55883 1.06786C 7.32261 1.18631 6.96829 1.30476 6.73208 1.4232C 5.55101 1.6601 4.36995 1.54165 3.18888 2.01544C 1.88971 2.60767 0.826747 3.67369 0.236213 4.9766C 0.118107 5.33194 -1.75993e-09 5.56884 -1.75993e-09 5.92418C 0.118107 4.02903 0.826747 2.01544 2.00781 1.06786Z"/>
<path id="path11_fill" d="M 14.4976 2.96117C 13.3165 4.50097 11.4268 5.21165 9.65522 5.3301C 6.58445 5.44855 2.33261 5.68544 0.679113 2.48738C 0.4429 2.13204 0.206687 1.65825 0.08858 1.30291C -0.0295267 0.829125 -0.0295267 0.35534 0.08858 0C 0.206687 0.71068 0.561007 1.53981 1.26965 2.36893C 3.51367 5.44855 9.06469 5.09321 12.0174 3.43495C 13.0803 2.84272 14.1433 2.01359 15.0881 1.06602C 15.0881 1.65825 14.97 2.36893 14.4976 2.96117Z"/>
<path id="path12_fill" d="M 5.3179 0.473788C 5.55411 0.355342 5.79033 0.118447 6.02654 0C 4.96358 1.89515 1.89281 10.8971 2.12902 11.0155C 2.36523 11.134 3.42819 10.7786 4.25494 11.0155C 5.08169 11.2524 5.79033 12.2 5.08169 12.7922C 4.49115 13.266 1.06606 13.0291 0.593632 13.0291C 0.00309846 13.0291 -0.115008 12.7922 0.121206 11.8447C 0.475526 11.0155 1.53849 2.01359 1.53849 1.89514C 3.19198 1.89514 -0.115008 1.89514 0.00309843 1.89514C 1.89281 2.13204 3.66441 1.30291 5.3179 0.473788Z"/>
<path id="path13_fill" d="M 4.23158 0.794092C 3.99537 1.14943 3.64104 0.557199 3.40483 0.438752C 3.16862 0.320305 2.9324 0.320307 2.57808 0.320307C 2.9324 0.438754 3.28672 0.912538 2.9324 1.14943C 2.22376 1.86011 0.806484 1.86011 0.0978437 1.14943C -0.13837 0.912538 0.0978424 0.675646 0.334056 0.438752C 0.570269 0.320305 0.92459 0.201859 1.1608 0.0834118C 1.39702 0.201859 2.45998 -0.153482 3.28672 0.0834118C 3.75915 0.320306 4.11347 0.557198 4.23158 0.794092C 4.34969 0.794092 4.34969 0.794092 4.23158 0.794092Z"/>
<path id="path14_fill" d="M 0.944854 0.236894C 1.88971 0.829127 2.95267 1.18447 4.13373 1.18447C 6.9683 1.42136 10.0391 1.65825 12.6374 0.118447C 12.6374 0.118447 12.7555 0.118446 12.7555 -4.51838e-07C 12.6374 0.829126 12.4012 2.13204 11.9288 3.43495C 11.6926 4.26408 11.2201 5.0932 10.8658 5.92233C 10.6296 6.15922 10.3934 6.27767 10.1572 6.39611C 8.50368 7.34369 6.73208 8.05437 4.84237 7.81747L 4.25184 7.81747C 4.01563 7.22524 3.77942 6.63301 3.4251 6.04078C 2.83456 5.0932 1.7716 4.26408 0.472428 4.50097C 0.354321 4.50097 0.118106 4.61942 -9.01083e-07 4.73786C 0.118106 3.79029 0.118107 2.84272 0.236213 2.13204C 0.35432 1.18447 0.472426 0.473786 0.590533 -4.51838e-07C 0.708639 -4.51838e-07 0.826747 0.118447 0.944854 0.236894Z"/>
<path id="path15_fill" d="M 6.96829 2.01359C 6.14155 3.67184 3.89752 4.38252 2.36213 3.19806C 2.12592 2.96116 2.00781 2.84272 1.7716 2.60582L 1.65349 2.48738C 0.944853 1.89514 0.35432 1.06602 0 0.236893C 0.236213 0.236893 0.590534 0.35534 0.826748 0.35534C 3.18888 0.592233 5.66912 0.829127 7.91315 9.03675e-07C 7.79504 0.473787 7.67693 0.947571 7.44072 1.30291C 7.32261 1.42136 7.0864 1.65825 6.96829 2.01359Z"/>
<path id="path16_fill" d="M 0.0524936 0.0526437C 0.0524936 0.0526437 -0.065618 -0.0658026 0.0524936 0.0526437L 0.0524936 0.0526437Z"/>
<path id="path17_fill" d="M 0.708639 10.068C 0.708639 9.71262 0.708639 9.23884 0.708639 8.40971C 1.65349 5.3301 3.5432 2.48738 6.14155 0.236894C 8.62179 0.118447 10.8658 -4.51838e-07 10.8658 -4.51838e-07C 10.8658 -4.51838e-07 10.8658 0.118447 10.9839 0.118447L 10.9839 0.236894C 10.8658 0.236894 10.8658 0.236894 10.7477 0.236894C 11.2201 1.18447 11.5745 2.60583 11.9288 3.67184C 12.0469 4.38252 12.2831 6.04078 12.2831 7.34369C 12.2831 8.05437 12.2831 8.52816 12.2831 8.8835C 12.5193 12.6738 12.6374 12.0816 12.2831 14.4505C 12.2831 14.6874 12.2831 14.6874 12.165 15.3981C 12.165 15.3981 12.0469 15.3981 12.0469 15.5165C 9.44854 17.1748 6.37776 16.9379 3.5432 16.5825C 2.48024 16.4641 1.41728 16.2272 0.35432 15.635C 0.236213 15.5165 0.118108 15.3981 9.01083e-07 15.2796C 0.118108 14.8058 0.118106 14.5689 0.236213 14.332L 0.708639 10.068Z"/>
<path id="path18_fill" d="M 0.215387 6.39612C 1.27835 2.84272 6.47504 0.829126 8.12854 0.473786C 8.95528 0.236893 11.7898 0.118447 14.3882 4.51838e-07C 11.6717 2.25049 9.90014 5.21165 8.95528 8.17281L 8.95528 8.05437C 8.83718 6.75146 8.60096 4.38252 8.60096 4.38252C 8.60096 4.38252 4.11291 5.3301 2.69563 7.34369C 1.27835 9.35728 2.81374 11.7262 4.34912 12.4369C 5.88451 13.1476 7.89232 12.2 8.01043 12.0816C 8.12854 11.9631 8.01043 11.7262 8.01043 11.0155C 8.01043 10.3049 8.83718 10.068 8.83718 10.068C 8.83718 10.068 9.42771 9.59417 9.78203 10.068C 10.0182 10.068 10.1364 10.8971 10.1364 10.8971C 10.1364 10.8971 10.7269 11.0155 10.845 11.2524C 11.4355 11.9631 10.4907 12.3184 10.4907 12.3184C 11.1993 12.3184 11.1993 12.9107 11.0812 13.266C 10.7269 13.7398 10.0182 13.8582 9.1915 13.9767L 8.60096 13.9767C 8.60096 13.9767 7.77422 14.0951 5.05776 13.7398C 2.2232 13.266 -0.847573 10.068 0.215387 6.39612Z"/>
<path id="path19_fill" d="M 0.509477 10.068C 0.509477 10.068 0.627584 9.71262 0.509477 9.35728C 1.10001 8.76505 1.45433 9.00194 1.45433 9.00194C 1.45433 9.00194 2.39919 9.12039 2.51729 9.94951C 2.75351 10.6602 2.04487 11.7262 2.51729 11.9631C 2.98972 12.0816 4.52511 11.4893 5.11564 9.12039C 5.70617 6.75146 4.64321 5.0932 3.22593 4.14563C 2.28108 3.43495 1.33622 3.43495 0.981904 3.3165C 0.981904 3.07961 0.981904 2.96117 0.981904 2.96117C 0.627584 1.89515 0.391371 0.947572 0.0370511 -2.25919e-07C 0.863798 0.118446 3.58025 0.829126 4.99753 2.60582C 6.65103 4.73786 7.00535 8.29126 5.82428 10.6602C 4.64321 13.0291 3.10783 13.3845 2.39919 13.3845C 1.69055 13.5029 1.57244 13.5029 1.57244 13.5029C 1.57244 13.5029 0.863799 13.3845 0.863799 13.5029C 0.273265 13.266 0.391372 13.1476 0.155158 12.7922C -0.0810552 12.4369 -0.0810566 11.9631 0.39137 11.6078C 0.39137 11.6078 -0.0810556 10.8971 0.0370511 10.6602C 0.0370511 10.4233 0.273264 10.3049 0.509477 10.068Z"/>
<path id="path20_fill" d="M 1.18107 3.07961C 1.18107 3.07961 1.18107 3.19806 1.18107 3.43495C 0.826747 2.36893 0.472427 0.947573 -4.50542e-07 4.51838e-07C -4.50542e-07 4.51838e-07 0.118107 4.51838e-07 0.236214 4.51838e-07C 0.590535 0.947573 0.708641 2.01359 1.18107 3.07961C 1.06296 2.96116 1.18107 3.07961 1.18107 3.07961Z"/>
<path id="path21_fill" d="M 1.27615 2.60583C 0.92183 2.13204 -0.141131 2.01359 0.213189 1.30291C 0.449402 0.829126 1.15804 1.18447 1.63047 1.18447C 1.27615 0.829126 0.56751 0.473787 1.03994 0.118447C 1.15804 0 1.15804 -4.51838e-07 1.27615 -4.51838e-07C 1.27615 -4.51838e-07 1.86668 0.118446 2.221 0.592233C 2.221 0.829126 2.221 1.18447 2.221 1.42136C 2.1029 1.89515 1.98479 2.36893 1.98479 2.84272C 2.1029 3.67184 1.15804 3.90874 0.449403 3.67185C 0.0950831 3.5534 -0.141129 3.19806 0.095084 2.84272C 0.449404 2.36893 0.92183 2.36893 1.27615 2.60583Z"/>
<path id="path22_fill" d="M 4.50541e-07 1.06602C 4.50541e-07 0.355339 0.826746 0.118447 0.826746 0.118447C 0.826746 0.118447 0.826746 0.118447 0.826746 4.20807e-15C 1.06296 4.20807e-15 1.29917 9.00145e-07 1.41728 0.236894C 1.65349 0.473787 1.29917 0.947572 1.18107 1.18447C 1.65349 1.06602 2.36213 0.947573 2.59835 1.42136C 2.83456 1.89515 2.24403 2.13204 1.88971 2.36893C 2.24403 2.36893 2.95267 2.72427 2.59835 3.07961C 2.24403 3.3165 1.88971 3.43495 1.53539 3.43495C 1.41728 3.43495 1.41728 3.3165 1.29918 3.3165C 0.944855 2.84272 0.354321 2.36893 4.50541e-07 1.89515C 4.50541e-07 1.65825 4.50541e-07 1.42136 4.50541e-07 1.06602Z"/>
<path id="path23_fill" d="M 0.826747 8.76505C 0.826747 8.6466 0.70864 8.52816 0.590533 8.40971C 0.70864 8.29126 0.944855 8.17282 0.944855 7.93592C 1.18107 7.34369 0.70864 6.75146 0.118107 6.63301C 0.118107 6.39612 -4.50541e-07 6.27767 -4.50541e-07 6.15922C 0.118106 4.26408 0.708641 2.48738 2.00781 0.947573C 2.00781 0.829126 2.12592 0.829125 2.24403 0.710679C 2.36213 0.829125 2.59835 0.947573 2.71646 1.06602C 3.77942 1.65825 5.07859 2.13204 6.25966 1.30291C 6.73208 0.947572 6.9683 0.473787 7.0864 9.03676e-07C 8.03126 0.355341 8.7399 1.06602 9.21232 1.89514C 9.68475 2.72427 9.92096 3.67185 9.92096 4.61942C 9.68475 4.61942 9.56664 4.73786 9.33043 4.97476C 9.09422 5.21165 8.97611 5.56699 9.09422 5.80388C 8.7399 6.04078 8.50368 6.51456 8.62179 6.8699C 8.7399 6.98835 8.7399 7.22524 8.858 7.34369C 8.26747 7.69903 8.38558 8.76505 8.7399 9.35728C 8.97611 9.71262 9.21232 9.83107 9.44854 9.94952C 9.33043 10.4233 9.21232 10.7786 8.97611 11.134C 8.858 11.2524 8.858 11.3709 8.7399 11.4893C 6.37776 12.4369 3.89752 12.2 1.41728 11.9631C 1.18107 11.9631 1.06296 11.9631 0.826747 11.8447C 0.354321 11.2524 0.118106 10.6602 -4.50541e-07 9.94952C -4.50541e-07 9.94952 0.118107 9.94952 0.118107 9.83107C 0.826747 9.83107 0.944854 9.23884 0.826747 8.76505Z"/>
<path id="path24_fill" d="M 0.236212 0.71068C 0.118106 0.592233 4.50541e-07 0.473786 4.50541e-07 0.236893C 4.50541e-07 0.118446 8.97562e-07 -2.10403e-15 0.118108 -2.10403e-15C 1.29917 0.35534 2.71645 1.06602 3.66131 2.25048C 4.13373 2.96116 4.60616 3.79029 4.84237 4.73786C 4.36995 4.02718 3.89752 3.3165 3.42509 2.72427C 2.59835 1.5398 1.41728 1.30291 0.236212 0.71068Z"/>
<path id="path25_fill" d="M 2.71645 2.60582C 2.95266 1.53981 2.83456 0.710681 2.59835 9.03676e-07C 3.30699 0.710681 3.5432 1.89515 3.30698 2.84272C 2.95266 4.14563 2.48024 5.56699 1.18107 6.15922C 0.826746 6.27767 0.472427 6.39612 0.236214 6.04078C 0.118108 5.80388 0.118107 5.68544 0 5.44854C 0 5.44854 0.118107 5.44854 0.118107 5.56699C 0.70864 5.56699 2.24402 4.97476 2.71645 2.60582Z"/>
<path id="path26_fill" d="M 2.12592 2.36893C 3.66131 3.07961 5.55101 2.13204 5.78723 2.01359C 5.90533 2.25048 6.02344 2.48738 5.90533 2.72427C 4.84237 3.19806 3.5432 3.19806 2.36213 2.96116C 1.29917 2.72427 0.590533 1.89514 0.236213 0.829125C 0.118106 0.592232 0.118106 0.236894 -2.25271e-07 4.51838e-07C 0.472426 1.18447 1.29917 2.01359 2.12592 2.36893Z"/>
<path id="path27_fill" d="M 0.26574 4.38252C 0.856273 2.48738 2.50977 1.06602 4.28137 -9.03676e-07C 4.63569 0.118446 4.8719 0.236894 5.10811 0.473787C 5.34433 0.829127 5.46243 1.30291 5.22622 1.53981C 3.1003 3.07961 1.09249 4.38252 0.501953 6.98835C 0.501953 7.1068 0.383847 7.22524 0.26574 7.22524C -0.08858 6.51456 -0.08858 5.44854 0.26574 4.38252Z"/>
<path id="path28_fill" d="M 3.77942 1.69895C 4.13374 2.29119 4.36995 3.00186 4.48806 3.5941C 4.36995 3.94944 4.48806 12.7145 4.48806 12.7145C 4.48806 12.7145 4.84238 12.9514 4.72427 13.7805C 4.60616 14.6096 4.72427 14.7281 3.42509 14.7281C 2.24403 14.7281 0 14.8465 0 14.6096C 0 14.3727 0.118107 12.7145 0.708641 12.596C 1.29917 12.4776 1.41728 12.7145 1.41728 12.7145C 1.41728 12.7145 1.53539 12.3591 1.7716 12.1223C 2.12592 12.0038 2.12592 12.0038 2.12592 12.0038C 2.12592 12.0038 0.118108 2.40963 0.236214 0.277593C 0.354321 0.159146 0.590534 0.0407008 0.708641 0.0407008C 2.00781 -0.196192 3.07078 0.632933 3.77942 1.69895Z"/>
<path id="path29_fill" d="M 0.708641 0.592232C 1.29917 0.473785 1.41728 0.710681 1.41728 0.710681C 1.41728 0.710681 1.53539 0.355341 1.7716 0.118448C 2.12592 1.80912e-06 2.12592 -9.03675e-07 2.12592 -9.03675e-07L 2.24403 -9.03675e-07C 2.59835 0.118446 3.18888 0.236895 3.07078 0.710681C 3.4251 0.236895 3.89752 0.355341 4.36995 0.473787C 4.36995 0.473787 4.72427 0.710679 4.60616 1.42136C 4.48806 1.53981 4.48806 1.5398 4.36995 1.5398C 4.01563 1.65825 3.5432 1.30291 3.18888 1.18446C 2.83456 1.06602 2.36214 1.65825 1.88971 1.5398C 1.53539 1.42136 1.29917 1.30291 1.18107 0.947571C 0.944854 1.30291 0.590533 1.42136 0.236213 1.30291C 0.118106 1.30291 0.118107 1.30291 4.50541e-07 1.30291C 0.118107 1.06602 0.354321 0.592232 0.708641 0.592232Z"/>
<path id="path30_fill" d="M 30.4741 3.31019C 30.4741 3.42864 30.4741 5.44223 28.9388 6.6267C 27.4034 7.81116 24.0964 8.1665 21.2618 7.21893C 18.4273 6.27136 16.5376 5.32378 13.9392 4.96844C 11.3409 4.6131 8.62441 2.24417 6.14417 1.53349C 3.78204 0.822813 -0.115483 0.467472 0.00262322 0.467472C 0.12073 0.349026 2.36476 -0.243207 4.9631 0.112133C 7.56145 0.467473 10.6322 1.53349 13.1125 2.71796C 15.7108 3.78398 17.4824 3.54708 17.4824 3.54708L 30.4741 3.31019Z"/>
<path id="path31_fill" d="M 4.62178 0C 4.62178 0.118447 5.68474 1.89514 4.50367 3.3165C 3.3226 4.73786 0.133724 3.79029 0.015617 2.13204C -0.10249 0.473785 0.488043 0.236894 0.488043 0.236894L 4.62178 0Z"/>
<path id="path32_fill" d="M 0.0885805 0.710681C 1.38775 0.710681 3.04125 0.71068 4.22231 0C 4.34042 0.473787 4.45853 1.06602 4.22231 1.7767C 3.9861 2.25049 3.63178 2.60583 3.15935 2.84272C 2.2145 3.19806 0.915326 2.96117 0.4429 2.01359C 0.206686 1.65825 -0.0295262 1.18447 0.0885805 0.710681C -0.0295262 0.710681 -0.0295262 0.710681 0.0885805 0.710681Z"/>
<path id="path33_fill" d="M 16.6716 2.84772C 15.7268 1.90015 12.5379 -0.113441 9.46711 0.00500606C 6.39634 0.241899 3.67988 2.0186 2.02639 4.26908C 0.372894 6.63802 -0.453853 9.00695 0.254787 12.3235C 1.08153 15.5215 4.0342 18.1273 8.52225 18.7196C 13.1284 19.3118 17.144 17.2982 19.1519 13.8633C 21.1597 10.4283 19.5062 6.75646 18.7975 5.3351C 18.0889 4.03219 16.6716 2.84772 16.6716 2.84772Z"/>
<path id="path34_fill" d="M 8.26747 2.0266C 8.14936 2.50039 7.55883 2.73728 7.0864 2.73728C 4.96048 2.97418 2.71645 2.73728 0.826747 1.78971C 0.472427 1.55282 0.118106 1.19748 -4.50541e-07 0.842137C 1.06296 0.36835 2.12592 0.131457 3.30699 0.0130103C 5.07859 -0.105436 6.96829 0.605243 8.38557 1.31592C 8.38557 1.55282 8.38557 1.78971 8.26747 2.0266Z"/>
<path id="path35_fill" d="M 0.118108 1.90735e-07L 4.50542e-07 1.90735e-07L 0.118108 1.90735e-07Z"/>
<path id="path36_fill" d="M 0.54891 0.165099C 1.37566 -0.0717937 2.32051 -0.0717932 3.02915 0.283547C 3.14726 0.283547 3.26537 0.401993 3.14726 0.638886C 3.14726 0.638886 3.14726 0.638886 3.14726 0.757332C 2.0843 0.875779 1.02134 1.23112 0.0764836 0.757332C -0.15973 0.520439 0.19459 0.283546 0.54891 0.165099Z"/>
<path id="path37_fill" d="M 2.5017 0.0217663C 3.56466 -0.0966804 4.98194 0.25866 5.45437 1.32468C 5.57247 1.68002 5.21816 1.79847 4.98194 1.91691C 4.86383 1.91691 4.86384 1.91691 4.74573 1.91691C 4.86384 1.91691 4.86383 1.79847 4.98194 1.79847C 4.86383 1.79847 4.86384 1.91691 4.74573 1.91691L 4.62762 1.91691C 3.68277 1.44313 2.73791 1.68002 1.79306 1.91691C 1.20253 2.15381 0.139566 2.15381 0.0214595 1.56157C -0.214754 0.377106 1.55685 0.140213 2.5017 0.0217663Z"/>
<path id="path38_fill" d="M 17.0127 0.268505C 16.8946 0.268505 16.7765 0.0316115 16.5403 0.505398C 16.186 0.979184 15.7136 1.80831 12.879 0.860738C 10.0444 -0.0868351 4.84775 -0.560621 3.07615 1.09763C 1.30455 2.75588 0.714014 3.94035 0.359694 5.24326C 0.00537415 6.54618 -0.230839 8.55977 0.359694 8.79666C 0.950228 9.03355 5.20207 10.4549 8.50906 9.27045C 11.816 8.08598 14.6506 6.19083 16.3041 6.07239C 17.8395 6.07239 20.2016 7.01996 20.4378 6.42773C 20.674 5.8355 19.8473 2.75588 17.0127 0.268505Z"/>
<path id="path39_fill" d="M 11.7701 0.886606C 11.652 1.00505 11.4158 1.00505 11.2977 1.1235C 11.1796 1.1235 11.0615 1.24195 11.0615 1.24195C 10.7072 1.47884 10.5891 1.71573 10.5891 2.07107C 10.7072 2.54486 11.0615 2.9002 11.2977 3.13709C 11.4158 3.25554 11.4158 3.49243 11.1796 3.37398C 10.2348 3.13709 9.2899 3.37398 8.46315 3.49243C 8.58126 2.78175 9.52612 3.25554 9.99854 2.78175C 9.99854 2.66331 9.99854 2.54486 9.88043 2.54486C 8.69937 2.30797 7.75451 2.78175 6.80966 3.37398C 5.86481 3.84777 5.15617 4.91379 3.9751 4.6769C 3.85699 4.6769 3.73889 4.55845 3.62078 4.55845C 3.62078 3.72932 3.62078 2.78175 3.03025 2.07107C 2.32161 1.24195 1.14054 1.24195 0.195685 1.36039C -0.0405287 1.36039 -0.0405269 1.1235 0.0775798 1.00505C 0.313793 0.649713 0.550006 0.412819 1.02243 0.294373C 3.73889 -0.416307 6.21913 0.294373 8.81748 1.00505C 9.52612 1.1235 10.2348 1.00505 10.8253 0.41282C 11.0615 0.175927 11.5339 0.294373 11.7701 0.41282C 11.7701 0.531267 11.8882 0.768159 11.7701 0.886606Z"/>
<path id="path40_fill" d="M 13.9366 0.651456C 15.472 -0.296116 17.2436 -0.0592228 18.8971 0.414563C 19.3695 0.53301 19.8419 0.651457 20.3144 0.414563C 20.3144 0.53301 20.3144 0.651456 20.3144 0.769902C 20.0781 1.36214 17.8341 0.414563 16.1806 0.414563C 14.6452 0.414563 11.6926 2.42815 8.38558 3.61262C 5.07859 4.79709 0.944853 3.37573 0.236213 3.13883C 0.118106 3.13883 -2.098e-15 2.90194 -2.098e-15 2.78349C 0.826747 3.13883 1.65349 3.37573 2.59835 3.49417C 6.61397 3.96796 10.3934 2.78349 13.9366 0.651456Z"/>
<path id="path41_fill" d="M 1.06296 1.26259C 1.88971 1.38104 2.95267 0.315016 2.00781 0.078123C 1.18107 -0.15877 0.118108 0.19657 9.01083e-07 0.433463C 9.01083e-07 0.788803 0.118107 1.14414 1.06296 1.26259Z"/>
<path id="path42_fill" d="M 2.59835 5.21165C 4.03337 5.21165 5.19669 4.04498 5.19669 2.60583C 5.19669 1.16667 4.03337 0 2.59835 0C 1.16332 0 0 1.16667 0 2.60583C 0 4.04498 1.16332 5.21165 2.59835 5.21165Z"/>
<path id="path43_fill" d="M 0.708942 1.65743C 1.10048 1.65743 1.41788 1.2864 1.41788 0.828715C 1.41788 0.371028 1.10048 0 0.708942 0C 0.317404 0 0 0.371028 0 0.828715C 0 1.2864 0.317404 1.65743 0.708942 1.65743Z"/>
<path id="path44_fill" d="M 0.291508 2.17685C -0.180918 1.46617 -0.0628107 0.518594 0.527723 0.163254C 1.11826 -0.192085 1.945 0.0448078 2.41743 0.755487C 2.88985 1.46617 2.77175 2.41374 2.18122 2.76908C 1.59068 3.12442 0.763935 2.88753 0.291508 2.17685Z"/>
<path id="path45_fill" d="M 0.354835 1.18275C 0.550805 1.18275 0.709668 0.917984 0.709668 0.591376C 0.709668 0.264768 0.550805 0 0.354835 0C 0.158866 0 0 0.264768 0 0.591376C 0 0.917984 0.158866 1.18275 0.354835 1.18275Z"/>
<path id="path46_fill" d="M 0.0706372 -2.25919e-07C 0.0706372 -2.25919e-07 0.188744 -2.25919e-07 0.0706372 -2.25919e-07C 0.188744 0.118446 0.306849 0.236893 0.306849 0.35534C 0.306849 0.473786 0.543064 0.473787 0.661171 0.473787C 1.01549 0.592234 1.36981 0.592233 1.72413 0.592233C 2.43277 0.592233 3.14141 0.592233 3.85005 0.592233C 4.55869 0.592233 5.26733 0.592233 5.97597 0.592233C 6.33029 0.592233 6.68461 0.592234 7.03893 0.473787C 7.15704 0.473787 7.39325 0.473786 7.51136 0.35534C 7.62946 0.236893 7.51136 0.118446 7.51136 -2.25919e-07L 7.62946 -2.25919e-07C 7.62946 0.118446 7.74757 0.236893 7.74757 0.35534C 7.74757 0.473786 7.62946 0.592233 7.51136 0.592233C 7.15704 0.710679 6.80272 0.829126 6.4484 0.829126C 5.62165 0.947572 4.7949 0.829126 4.08626 0.829126C 3.25952 0.829126 2.43277 0.829126 1.60602 0.829126C 1.2517 0.829126 0.897384 0.829127 0.543064 0.71068C 0.424957 0.71068 0.306849 0.592233 0.306849 0.35534C -0.0474708 0.35534 -0.0474694 0.118446 0.0706372 -2.25919e-07Z"/>
<path id="path47_fill" d="M 0.187136 -4.51838e-07C 0.42335 -4.51838e-07 0.541456 0 0.77767 0.118447C 1.01388 0.236893 1.01388 0.592233 1.13199 0.71068C 1.13199 0.829126 1.13199 0.947572 1.13199 1.06602C 1.13199 1.06602 1.13199 1.06602 1.2501 1.06602C 1.48631 1.06602 1.84063 1.06602 2.07684 1.42136C 2.19495 1.65825 2.19495 2.01359 2.07684 2.25048C 2.07684 2.36893 1.95874 2.48738 1.84063 2.60583C 2.31306 2.72427 2.43116 3.31651 2.07684 3.67185C 1.84063 3.90874 1.60442 4.02718 1.3682 4.02718C 1.01388 4.14563 0.659561 4.14563 0.305241 4.14563C 0.777668 4.14563 1.3682 4.02719 1.84063 3.79029C 2.07684 3.67185 2.19495 3.43495 2.19495 3.19806C 2.19495 2.96117 1.95874 2.84272 1.72252 2.72427C 1.72252 2.72427 1.60441 2.72427 1.48631 2.72427C 1.60441 2.60583 1.60442 2.60583 1.72252 2.60583C 1.84063 2.60583 1.84063 2.48738 1.95874 2.36893C 2.07684 2.13204 2.19495 1.89515 1.95874 1.65825C 1.72252 1.42136 1.48631 1.42136 1.2501 1.53981C 1.13199 1.53981 1.01388 1.53981 1.01388 1.65825C 0.895775 1.65825 0.895776 1.7767 0.77767 1.7767C 0.77767 1.7767 0.77767 1.7767 0.77767 1.65825C 0.77767 1.53981 0.895775 1.53981 1.01388 1.53981C 1.13199 1.53981 1.13199 1.53981 1.2501 1.42136C 1.3682 1.18447 1.2501 0.710679 1.01388 0.592233C 0.895775 0.473786 0.423348 0.355339 0.305241 0.473786L 0.187136 0.473786C -0.167184 -9.17796e-07 0.0690294 -4.51838e-07 0.187136 -4.51838e-07Z"/>
<path id="path48_fill" d="M 0.708641 2.65024C 0.590535 2.5318 0.472427 2.41335 0.35432 2.2949C 0.236213 2.05801 0.236213 1.70267 0.35432 1.46578C 0.472427 1.22888 0.590533 1.22888 0.826746 1.11044L 0.826746 0.991991C 0.826746 0.873544 0.826747 0.636651 0.944853 0.399758C 1.06296 0.0444179 1.53539 -0.07403 1.7716 0.0444166C 1.53539 0.162863 1.29917 0.0444175 1.06296 0.281311C 0.944854 0.399757 0.944853 0.518203 0.944853 0.63665C 0.944853 0.755096 0.944853 0.755097 0.944853 0.873544L 0.944853 0.991991C 0.944853 0.991991 0.944853 0.991991 0.944853 1.11044L 1.06296 1.11044C 1.29917 1.11044 1.41728 1.11044 1.65349 1.22888C 1.7716 1.22888 1.7716 1.34733 1.88971 1.34733C 2.00782 1.34733 2.00781 1.46578 2.12592 1.46578C 2.00781 1.46578 2.00782 1.46578 1.88971 1.34733C 1.7716 1.22888 1.65349 1.22888 1.41728 1.22888C 1.29917 1.22888 1.18107 1.22888 1.06296 1.22888C 1.06296 1.22888 1.06296 1.22888 0.944853 1.22888C 0.826747 1.22888 0.708641 1.22888 0.590534 1.34733C 0.354321 1.46578 0.35432 1.70267 0.472427 1.93956C 0.472427 2.05801 0.590535 2.17646 0.708641 2.2949C 0.826748 2.41335 0.944853 2.41335 0.944853 2.41335C 1.06296 2.41335 1.18107 2.41335 1.29917 2.41335C 1.41728 2.41335 1.53539 2.41335 1.65349 2.5318C 1.7716 2.5318 1.88971 2.65024 1.88971 2.65024C 1.7716 2.65024 1.7716 2.65024 1.65349 2.65024C 1.53539 2.65024 1.41728 2.65024 1.29917 2.65024C 1.06296 2.65024 0.944855 2.65024 0.708641 2.65024C 0.354321 2.76869 0.118108 2.88714 0.118108 3.24248C 0.118108 3.59782 0.354321 3.83471 0.590534 4.0716C 0.826748 4.3085 1.18107 4.42694 1.53539 4.42694C 1.65349 4.42694 1.65349 4.42694 1.65349 4.54539C 1.65349 4.54539 1.65349 4.54539 1.53539 4.54539C 1.29917 4.54539 1.18107 4.54539 0.944853 4.42694C 0.70864 4.3085 0.590534 4.3085 0.472427 4.19005C 0.118107 3.95316 4.50541e-07 3.59782 4.50541e-07 3.24248C 0.118107 3.00558 0.354321 2.76869 0.708641 2.65024Z"/>
<path id="path49_fill" d="M 0 2.25919e-07C 0.236216 0.473787 0.354323 0.829126 0.472431 1.30291C 0.590539 1.53981 0.59054 1.7767 0.59054 1.89515C 0.59054 2.01359 0.708648 2.13204 0.59054 2.25049L 0.472431 2.25049C 0.472431 2.13204 0.472431 2.01359 0.354323 1.89515C 0.354323 1.65825 0.236217 1.53981 0.236217 1.30291C 0.118109 0.829126 0 0.473787 0 2.25919e-07Z"/>
<path id="path50_fill" d="M 0.118107 0.118448C 0.236213 0.118448 0.354319 0.118448 0.472426 4.51841e-07C 0.708639 4.51841e-07 1.06296 4.51841e-07 1.29917 4.51841e-07C 1.06296 4.51841e-07 0.826746 0.118448 0.590533 0.118448C 0.472426 0.118448 0.35432 0.118448 0.236214 0.118448L 0.118107 0.118448C 0 0.118448 0.118107 0.118448 0.118107 0.118448C 0.118107 0.118448 0.118106 0.118448 -4.50541e-07 0.118448C -4.50541e-07 0.236896 0.118107 0.236896 0.118107 0.118448Z"/>
<path id="path51_fill" d="M 0 0.0490638C 0.118107 -0.0693824 0.472427 0.049062 0.590534 0.167508C 0.70864 0.285954 0.826748 0.4044 0.826748 0.522846C 0.944855 0.4044 1.18107 0.285953 1.41728 0.285953C 1.6535 0.285953 1.7716 0.285955 1.88971 0.404401C 2.00781 0.404401 2.12592 0.522849 2.12592 0.641295C 1.88971 0.404402 1.41728 0.4044 1.06296 0.522846C 0.944853 0.641292 0.944855 0.641293 0.826748 0.759739L 0.826748 0.878184L 0.826748 0.759739C 0.826748 0.759739 0.826748 0.759741 0.826748 0.641295C 0.826748 0.522849 0.70864 0.404399 0.590534 0.285953C 0.472427 0.167506 0.354321 0.167508 0.236214 0.167508C 0.118108 0.049062 0.118107 0.16751 0 0.0490638Z"/>
<path id="path52_fill" d="M 0.324795 0.236892C 0.206688 0.118446 0.0885803 -1.80735e-06 0.0885803 -1.80735e-06C 0.206687 0.118445 0.324793 0.236895 0.442901 0.355342C 0.561008 0.473788 0.561008 0.710679 0.561008 0.829125C 0.561008 1.06602 0.442901 1.65825 0.0885803 1.65825C -0.0295268 1.65825 -0.0295268 1.53981 0.0885803 1.53981C 0.442901 1.42136 0.442901 1.06602 0.442901 0.710681C 0.561008 0.473787 0.442902 0.355339 0.324795 0.236892Z"/>
<path id="path53_fill" d="M 0.472427 0L 0.590532 0C 0.708639 0 0.826747 -1.14724e-07 0.944853 0.118446C 1.06296 0.236893 1.06296 0.35534 1.06296 0.473786C 1.06296 0.592233 0.944853 0.710679 0.826746 0.829126C 0.70864 0.829126 0.590534 0.947572 0.472427 0.829126L 0.35432 0.829126C 0.236214 0.829126 0.118106 0.710679 -9.01082e-07 0.592233C 0.118106 0.236893 0.236214 0.118447 0.472427 0Z"/>
<path id="path54_fill" d="M -4.50541e-07 17.4116L 10.0391 12.0816L 10.0391 -9.03676e-07L -4.50541e-07 5.3301L -4.50541e-07 17.4116Z"/>
<path id="path55_fill" d="M 2.25271e-07 12.0816L 10.1572 17.4116L 10.1572 5.3301L 2.25271e-07 -9.03676e-07L 2.25271e-07 12.0816Z"/>
<path id="path56_fill" d="M -4.50541e-07 5.33009L 10.0391 -9.03676e-07L 14.0547 5.33009L 3.89752 10.6602L -4.50541e-07 5.33009Z"/>
<path id="path57_fill" d="M 14.1728 5.33009L 4.01563 -9.03676e-07L -4.50541e-07 5.33009L 10.1572 10.6602L 14.1728 5.33009Z"/>
<path id="path58_fill" d="M 11.9288 2.82399e-08L 17.1255 0.118447L 21.2592 0.829126L 22.9127 1.53981C 23.3851 1.65825 24.0938 2.13204 25.0386 2.60583C 26.3378 3.67184 27.0464 4.61942 27.4008 5.21165C 28.1094 6.39612 28.3456 7.34369 28.3456 7.81748L 28.6999 10.068L 28.3456 13.6214C 27.9913 14.9243 27.7551 15.5165 27.637 15.5165C 27.1645 17.1748 25.8654 19.1883 23.5032 21.5573C 21.3773 23.334 19.7238 24.4 18.4246 24.7553C 18.4246 24.8738 18.1884 24.8738 17.8341 24.8738L 17.716 25.1107C 18.6609 25.9398 19.8419 26.8874 21.4954 27.835C 21.7316 28.0718 22.7946 28.6641 24.5662 29.6117C 25.9835 30.3223 26.6921 30.6777 26.6921 30.7961C 26.8102 30.7961 26.9283 30.9146 26.9283 31.1515C 25.2748 33.5204 23.1489 35.534 20.6687 37.4291L 19.7238 38.1398L 19.6057 38.1398C 18.779 37.5476 17.5979 36.4816 16.0625 34.9417C 15.1177 33.9942 13.9366 32.6913 12.7555 31.2699C 12.4012 31.033 11.3382 29.6117 9.56664 27.2427L 9.44854 27.4796L 9.44854 28.0718L 9.44854 28.3087C 9.44854 29.2563 9.33043 31.033 8.97611 33.5204C 8.97611 33.9942 8.858 34.9417 8.50368 36.1262L 8.50368 36.4816C 8.50368 36.8369 7.20451 36.9553 4.72427 37.0738L 2.95267 37.0738L 2.59835 37.1922C 0.944854 36.9553 0 36.7184 0 36.6C 0.236213 35.6524 0.35432 34.2311 0.472427 32.2175C 0.70864 32.2175 0.826747 28.3087 0.826747 20.4913C 0.70864 11.0155 0.590534 6.27767 0.236213 6.27767L 0.236213 6.15922L 0.35432 6.15922C 0.35432 4.73786 0.236213 3.43495 0 2.13204C 0.236213 1.89515 1.41728 1.42136 3.66131 0.829126C 4.01563 0.829126 4.48806 0.71068 5.3148 0.35534C 5.90534 0.35534 6.73208 0.236893 7.67694 2.82399e-08L 11.9288 2.82399e-08ZM 10.1572 7.93592L 9.56664 7.93592L 9.09422 7.93592C 9.33043 8.52816 9.44854 11.8447 9.56664 18.1223L 9.56664 18.5961L 9.44854 18.9515L 9.56664 19.1883L 10.6296 19.1883C 12.9917 18.833 14.7633 18.3592 15.9444 17.5301C 16.0625 17.5301 16.2987 17.4116 16.5349 17.0563C 17.4798 16.701 18.4246 15.7534 19.4876 14.2136C 19.8419 13.7398 19.96 12.9107 20.0781 11.6078L 20.0781 11.4893L 19.8419 10.068C 19.3695 9.35728 18.779 8.76505 18.1884 8.52816C 17.3617 8.17282 16.653 7.93592 15.9444 7.93592L 13.4642 7.69903C 12.4012 7.69903 11.4564 7.69903 10.1572 7.93592Z"/>
<path id="path59_fill" d="M 20.5506 -5.64797e-08L 23.7394 -5.64797e-08L 23.9757 0.35534C 23.5032 1.89515 23.1489 3.3165 23.0308 4.50097C 22.9127 4.97476 22.6765 5.92233 22.5584 7.69903L 22.4403 7.81748C 22.4403 8.17282 22.3222 8.29126 21.9678 8.29126L 21.9678 8.40971L 21.7316 8.29126L 16.1806 8.40971L 15.3539 8.40971C 11.4563 8.6466 9.44853 8.76505 9.44853 9.00194L 9.09421 14.5689L 9.44853 14.6874C 12.0469 14.5689 15.2358 14.4505 18.779 14.332L 19.1333 14.8058C 19.1333 15.5165 19.0152 16.701 18.6609 18.4777C 18.5427 21.0835 18.3065 22.268 18.0703 22.268L 17.9522 22.268C 15.3539 22.268 12.4012 22.3864 9.09421 22.5049L 8.858 22.6233L 8.7399 26.4136C 8.7399 27.7165 9.33043 28.6641 10.3934 29.2563C 11.6926 29.6117 12.5193 29.8485 12.9917 29.8485L 16.0625 29.8485C 21.4954 29.6117 24.8024 29.3748 25.9835 29.1379L 26.2197 29.1379L 26.3378 29.2563L 26.3378 29.4932C 26.1016 29.8485 25.8654 30.3223 25.8654 30.9146C 25.7473 30.9146 25.511 31.2699 25.3929 32.099C 25.2748 32.099 25.1567 32.5728 24.9205 33.5204C 24.8024 33.5204 24.6843 33.9942 24.4481 35.0602C 24.33 35.0602 24.2119 35.534 23.9757 36.3631L 23.8576 36.8369C 21.6135 37.1922 17.0074 37.3107 10.0391 37.3107C 6.96829 37.3107 5.43291 37.0738 5.43291 36.8369C 4.72427 36.8369 4.36995 36.7184 4.01563 36.4816C 3.30699 36.3631 2.48024 35.7709 1.65349 34.7049C 1.06296 33.8757 0.708639 33.0466 0.590533 32.099C 0.354319 32.099 0.236212 30.2039 -9.01083e-07 26.532L -9.01083e-07 25.7029L 0.118106 24.9922L -9.01083e-07 24.5184C 0.236212 15.0427 0.590534 8.17282 1.06296 3.79029L 1.06296 2.72427C 1.06296 2.13204 1.7716 1.7767 3.30699 1.65825C 3.5432 1.42136 4.25184 1.30291 5.43291 1.30291C 5.78723 1.06602 7.0864 0.829126 9.21232 0.71068L 15.5901 0.118447L 20.5506 -5.64797e-08Z"/>
<path id="path60_fill" d="M 13.4642 5.64797e-08C 16.0625 5.64797e-08 18.0703 0.118447 19.4876 0.473786L 21.2592 0.947573C 24.5662 1.7767 27.4007 3.31651 29.5267 5.56699C 30.8258 6.98835 31.5345 8.17282 31.7707 9.12039C 32.2431 9.94951 32.5974 10.8971 32.7156 11.7262C 32.8337 11.7262 32.9518 12.4369 33.188 13.7398C 33.3061 13.7398 33.3061 14.0951 33.4242 14.6874L 33.3061 14.9243L 33.4242 15.7534C 33.4242 17.2932 33.3061 18.9515 32.9518 20.7282C 32.9518 21.2019 32.8337 21.9126 32.4793 22.7417C 32.4793 23.0971 32.125 24.2816 31.4164 26.0583C 30.9439 27.3612 29.9991 28.901 28.5818 30.6777C 28.4637 30.6777 27.9913 31.2699 26.9283 32.3359L 25.511 33.6388L 23.8576 34.7049L 21.1411 36.0078C 20.9049 36.0078 20.6687 36.1262 20.1962 36.4816C 18.0703 37.1922 16.7711 37.4291 16.4168 37.4291C 16.4168 37.5476 15.8263 37.666 14.6452 37.666C 14.6452 37.9029 12.2831 38.1398 7.55883 38.3767L 6.02344 38.3767L 2.59835 38.0214C 1.88971 38.0214 1.53539 37.9029 1.53539 37.5476L 1.65349 29.1379C 1.65349 23.2155 1.41728 17.6485 1.06296 12.6738C 0.70864 9.83107 0.590532 7.93592 0.590532 7.1068C 0.354318 6.27767 0.236214 4.97476 0.118108 3.3165C 8.97563e-07 3.3165 -1.80216e-06 2.96116 -1.80216e-06 2.25049C 0.236212 2.01359 0.826745 1.7767 1.7716 1.53981C 1.7716 1.42136 2.24403 1.30291 3.18888 1.18447C 3.42509 0.947573 4.96048 0.71068 7.91315 0.236893C 8.03126 0.118447 9.80285 5.64797e-08 13.4642 5.64797e-08ZM 10.8658 9.00194C 10.9839 9.00194 11.102 10.5417 11.2201 13.7398L 11.4564 15.3981L 11.3382 15.635L 11.4564 17.6485L 11.5745 28.4272L 14.409 28.1903L 14.8814 28.1903C 16.5349 27.8349 17.716 27.4796 18.4246 27.1243C 19.6057 26.6505 20.9049 25.7029 22.4403 24.0447L 23.267 22.3864C 23.267 22.1495 23.3851 21.7942 23.6213 21.3204L 24.0938 18.9515L 24.0938 15.9903C 24.0938 15.1612 23.7394 14.2136 23.0308 12.9107C 22.3222 11.8447 21.4954 10.8971 20.4325 10.4233L 19.8419 10.068C 19.8419 9.94951 19.4876 9.83107 18.8971 9.71262C 18.8971 9.59417 18.5427 9.47573 17.8341 9.35728C 17.8341 9.12039 16.653 8.8835 14.2909 8.6466C 11.9288 8.52816 10.8658 8.76505 10.8658 9.00194Z"/>
<path id="path61_fill" d="M 13.7004 2.82399e-08L 15.1177 2.82399e-08C 17.2436 2.82399e-08 19.4876 0.35534 21.9679 0.947573C 21.9679 1.06602 22.3222 1.18447 23.0308 1.30291L 24.6843 2.13204C 25.393 2.72427 26.1016 3.19806 26.574 3.67184L 27.4008 5.0932L 27.5189 5.80388C 27.7551 5.80388 27.8732 6.15922 27.8732 6.8699L 27.8732 8.52815L 27.4008 9.71262C 27.4008 9.83107 27.2827 10.1864 26.9283 10.6602C 26.1016 12.0816 24.8024 13.3845 22.7946 14.6874L 21.3773 15.6349L 21.4954 15.7534L 22.2041 15.7534C 24.2119 15.9903 25.7473 16.3456 26.8102 16.701C 26.9283 16.8194 27.2827 16.9379 27.8732 17.1748C 29.5267 18.1223 30.4715 18.9515 30.7078 19.7806C 31.1802 20.1359 31.6526 21.2019 31.8888 23.0971L 31.8888 23.5709C 31.5345 25.8214 30.944 27.4796 30.2353 28.6641C 28.6999 30.6777 27.2827 31.9806 25.9835 32.6913C 24.6843 33.5204 23.6213 34.1126 22.5584 34.468C 22.5584 34.5864 22.2041 34.7048 21.4954 34.8233C 21.3773 34.9417 21.023 35.1786 20.1963 35.4155L 19.0152 35.7709C 19.0152 35.8893 18.5428 36.0078 17.716 36.2447C 17.4798 36.3631 15.8263 36.7184 12.6374 37.3107L 9.44854 37.7845L 4.01563 37.7845C 2.95267 37.7845 2.00781 37.5476 1.18107 37.1922C 1.53539 34.468 1.7716 32.6913 1.7716 31.7437L 1.6535 31.6252L 1.6535 31.5068C 1.88971 30.0854 2.00781 28.4272 2.00781 26.4136L 2.00781 23.4524C 2.00781 20.6097 1.88971 18.5961 1.6535 17.4116L 1.7716 17.2932C 1.7716 15.6349 1.53539 12.7922 1.06296 8.88349C 0.944856 8.6466 0.826744 7.81747 0.826744 6.51456C 0.59053 5.92233 0.354324 5.21165 0.354324 4.50097C 0.236217 4.50097 0.118107 4.14563 1.6784e-14 3.5534L 1.6784e-14 3.07961C 0.118107 2.84272 0.708637 2.60582 2.00781 2.25049C 2.00781 2.13204 2.36213 2.01359 3.07077 2.01359C 3.07077 1.89515 3.66131 1.65825 4.84238 1.42136L 8.50368 0.592233C 8.858 0.473786 10.6296 0.236893 13.7004 2.82399e-08ZM 9.68475 8.88349C 9.92096 9.35728 10.1572 10.5417 10.2753 12.5553L 10.6296 14.8058L 10.7477 14.8058C 12.2831 14.8058 13.8185 14.4505 15.472 13.6214C 16.5349 13.0291 17.2436 12.5553 17.5979 12.2C 17.9522 11.8447 18.3065 11.2524 18.4247 10.6602L 18.4247 9.71262C 18.4247 9.12039 17.716 8.52815 16.2987 8.05437L 15.472 7.93592L 12.8736 7.93592C 10.7477 8.17282 9.68475 8.52816 9.68475 8.88349ZM 10.8658 23.0971L 10.8658 25.5845L 10.7477 27.5981L 10.8658 27.9534L 10.6296 29.1379L 10.7477 29.2563L 12.165 29.2563C 14.6452 28.7825 16.2987 28.1903 17.2436 27.7165C 18.0703 27.3612 18.8971 26.8874 19.7238 26.2951C 20.5506 25.7029 21.1411 24.8738 21.3773 24.0447L 21.2592 23.9262L 21.2592 23.8078L 21.3773 23.4524C 21.3773 22.7417 20.3144 22.268 18.0703 22.0311L 15.5901 22.0311L 12.0469 22.5049C 11.102 22.8602 10.8658 22.9786 10.8658 23.0971Z"/>
<path id="path62_fill" d="M 17.8341 2.82399e-08L 20.3144 2.82399e-08C 22.3222 0.236893 23.3851 0.592233 23.8576 0.829126C 24.9205 1.06602 26.3378 1.7767 28.1094 3.19806C 29.9991 5.0932 31.1802 6.75146 31.5345 8.05437C 31.6526 8.17281 31.8888 8.6466 32.0069 9.35728C 32.125 9.35728 32.2431 9.83107 32.4794 10.8971C 32.5975 10.8971 32.7156 11.2524 32.7156 11.8447L 32.7156 12.3184L 32.8337 13.8583C 32.8337 16.3456 32.7156 18.2408 32.3612 19.6621C 32.3612 20.2544 32.0069 21.7942 31.2983 24.1631C 30.3534 26.8874 29.0542 29.3748 27.2826 31.6252C 25.511 33.5204 24.2119 34.7048 23.5032 35.1786C 22.9127 35.7709 21.6135 36.4815 19.8419 37.3107C 18.0703 37.9029 17.0074 38.2583 16.7712 38.2583L 14.2909 38.732L 11.4564 38.732C 10.8658 38.732 9.44854 38.3767 7.32262 37.5476L 4.96049 35.8893C 3.18888 33.9942 2.24403 32.6913 2.00782 31.8621C 1.29918 30.7961 0.708637 29.0194 0.118103 26.2951L 0.118103 25.8214L 7.20866e-06 23.5709L 0.118103 21.3204L 0.118103 21.0835C 0.354317 19.0699 0.826743 17.1748 1.29917 15.5165L 1.77161 14.2136C 2.00782 13.7398 2.24403 13.3845 2.24403 13.0291C 2.36213 13.0291 2.71646 12.2 3.54321 10.5417C 3.77942 10.5417 3.89751 10.3049 3.89751 9.94951L 6.49588 6.51456C 7.79505 5.0932 8.62179 4.26408 8.97611 4.14563C 10.3934 2.96116 11.6926 2.13204 12.9917 1.65825C 12.9917 1.53981 13.1098 1.53981 13.4642 1.53981C 13.4642 1.42136 14.0547 1.18447 14.9996 0.947573C 14.9996 0.829126 15.7082 0.592233 17.0074 0.473786C 16.8893 0.118447 17.2436 2.82399e-08 17.8341 2.82399e-08ZM 16.7712 9.47573L 15.5901 9.83107C 15.472 9.83107 15.2358 9.94951 14.8814 10.3049C 14.0547 10.5417 13.1098 11.4893 11.9288 13.1476C 10.1572 15.6349 9.33043 18.2408 9.33043 21.0835L 9.44854 21.5573L 9.33043 21.6757L 9.33043 21.7942C 9.33043 23.2155 9.68475 24.5184 10.2753 25.8214C 10.6296 26.4136 10.9839 26.8874 11.3382 27.2427C 12.4012 28.1903 13.4642 28.6641 14.409 28.6641C 14.409 28.7825 14.7633 28.7825 15.5901 28.901C 17.2436 28.6641 18.1884 28.4272 18.5428 28.0718C 19.0152 27.8349 19.8419 27.2427 20.9049 26.0583C 21.8497 24.7553 22.5584 23.5709 22.9127 22.268C 23.6213 20.4913 23.9757 18.7146 23.9757 16.8194C 23.9757 14.8058 23.7394 13.3845 23.1489 12.3184C 23.1489 11.9631 22.5584 11.3709 21.4954 10.4233L 20.7868 10.068C 20.7868 10.068 20.1963 9.83107 19.1333 9.47573L 17.716 9.47573L 17.5979 9.35728L 17.4798 9.47573L 16.7712 9.47573Z"/>
<path id="path63_fill" d="M 24.2119 0L 24.8024 0C 25.5111 0 26.9283 0.35534 29.0542 0.947573C 29.1724 1.06602 29.5267 1.18447 30.1172 1.42136C 31.1802 1.89515 31.8888 2.36893 32.125 2.72427L 32.125 2.84272L 31.5345 3.90874C 30.2353 6.27767 28.4637 9.47573 25.9835 13.6214C 25.8654 13.6214 25.5111 14.2136 24.8024 15.5165L 23.3851 17.5301C 23.267 17.767 22.5584 18.833 21.2592 20.7282C 21.3773 20.7282 22.086 21.6757 23.5032 23.4524C 27.2827 27.3612 29.5267 29.3748 30.1172 29.7301L 31.4164 30.9146L 30.4715 33.8757L 29.9991 35.1786L 28.5818 38.4951C 28.5818 38.8505 28.3456 39.0874 27.9913 39.0874L 27.8732 39.0874C 24.5662 36.4816 21.6135 33.8757 18.779 31.033L 16.2987 28.5456L 16.0625 28.5456C 16.0625 28.7825 15.2358 29.8485 13.5823 31.8621L 10.8658 35.2971C 9.21233 37.1922 8.14936 38.2583 7.79504 38.4951L 7.44072 38.4951L 6.14155 38.3767L 5.78723 38.4951C 4.72427 38.1398 3.77942 38.0214 2.95268 38.0214C 2.95268 37.9029 2.48024 37.7845 1.41728 37.5476C 1.41728 37.4291 1.06295 37.1922 0.354313 37.0738L 7.20866e-06 36.6L 7.20866e-06 36.4816C 2.59836 33.5204 4.72427 30.7961 6.61397 28.1903C 7.79504 26.7689 8.9761 24.8738 10.3934 22.7417C 10.7477 22.3864 10.9839 22.1495 10.9839 21.7942L 8.14936 17.767L 5.66912 13.8583L 4.48805 11.8447L 2.36214 7.69903L 1.8897 6.63301C 1.8897 6.04078 2.12592 5.80388 2.59835 5.80388C 2.59835 5.68544 4.48806 4.73786 8.26748 2.96116L 10.7477 1.89515C 10.8658 2.01359 10.9839 2.36893 11.2201 2.96116C 11.3383 2.96116 11.4564 3.3165 11.4564 3.90874C 11.5745 3.90874 11.9288 4.73786 12.6374 6.39612C 13.7004 9.00194 14.9996 11.3709 16.4168 13.5029L 18.3065 10.4233L 20.9049 5.92233L 21.7316 4.50097L 23.6214 1.06602C 23.5032 0.35534 23.8576 0 24.2119 0Z"/>
</defs>
</svg>
