<?xml version="1.0" encoding="utf-8"?>
<!-- Generator: Adobe Illustrator 19.0.0, SVG Export Plug-In . SVG Version: 6.00 Build 0)  -->
<svg version="1.1" id="Layer_1" xmlns="http://www.w3.org/2000/svg" xmlns:xlink="http://www.w3.org/1999/xlink" x="0px" y="0px"
	 viewBox="-161 390.9 272 61" style="enable-background:new -161 390.9 272 61;" xml:space="preserve">
<style type="text/css">
	.st0{fill:#1957BB;}
	.st1{fill:#747474;}
</style>
<title>logo</title>
<desc>Created using Figma</desc>
<g>
	<path class="st0" d="M-159.3,442.5l5.5-9.3c2.9,2.3,9.2,4.7,13.4,4.7c2.8,0,3.7-0.7,3.7-1.6c0-3.5-21.1,1-21.1-14.6
		c0-6.7,5.9-12.6,16.6-12.6c6.2,0,11.8,1.9,16.1,4.8l-5.1,9c-2.3-1.9-6.6-3.8-10.9-3.8c-2,0-3.5,0.6-3.5,1.6
		c0,3.1,21.1-0.8,21.1,14.7c0,7.4-6.6,12.8-17.6,12.8C-147.9,448.2-155.3,445.8-159.3,442.5z"/>
	<path class="st0" d="M-118.4,447.3v-51.4h13.9v51.4H-118.4z"/>
	<path class="st0" d="M-97.9,428.6c0-10.4,7.7-19.5,20.9-19.5c13.2,0,20.9,9.1,20.9,19.5s-7.7,19.6-20.9,19.6
		C-90.2,448.2-97.9,439-97.9,428.6z M-70.4,428.6c0-4.1-2.4-7.2-6.7-7.2c-4.2,0-6.6,3.2-6.6,7.2c0,4.2,2.4,7.3,6.6,7.3
		C-72.8,436-70.4,432.8-70.4,428.6z"/>
	<path class="st0" d="M-47.4,436.5v-14.4h-6.2v-12h6.2v-10.2h13.9v10.2h7.5v12h-7.5v10.4c0,1.9,1.2,3.5,3.1,3.5
		c1.2,0,2.5-0.4,2.8-0.7l2.5,10.5c-1.5,1.3-4.7,2.5-9.4,2.5C-42.8,448.2-47.4,444.3-47.4,436.5z"/>
	<path class="st1" d="M-15.6,436.5v-14.4h-6.2v-12h6.2v-10.2h13.9v10.2h7.5v12h-7.5v10.4c0,1.9,1.2,3.5,3.1,3.5
		c1.2,0,2.5-0.4,2.8-0.7l2.5,10.5c-1.5,1.3-4.7,2.5-9.4,2.5C-11,448.2-15.6,444.3-15.6,436.5z"/>
	<path class="st1" d="M13.4,447.3v-37.2h13.9v37.2H13.4z"/>
	<path class="st1" d="M32.4,428.6c0-11.8,9.1-19.5,20.9-19.5c8.5,0,13.7,3.9,15.8,7l-8.9,8.4c-1.2-1.8-3.3-3.2-6.2-3.2
		c-3.9,0-7.3,2.5-7.3,7.2s3.4,7.3,7.3,7.3c2.9,0,5.1-1.5,6.2-3.2l8.9,8.5c-2.1,3.1-7.3,7-15.8,7C41.5,448.2,32.4,440.5,32.4,428.6z"
		/>
	<path class="st1" d="M95.1,447.3v-3.5c-2.1,2.6-6.6,4.5-11.2,4.5c-5.5,0-12.8-3.8-12.8-12.2c0-9.2,7.2-11.9,12.8-11.9
		c4.9,0,9.2,1.5,11.2,4.1v-3.8c0-2.6-2.4-4.6-6.9-4.6c-3.5,0-7.4,1.4-10.3,3.6l-4.7-8.5c5-4,11.9-5.6,17.6-5.6
		c9.2,0,18.2,3.2,18.2,15.6v22.5H95.1z M95.1,437.2v-2.1c-0.9-1.3-3.3-2-5.5-2c-2.3,0-4.9,0.8-4.9,3.1c0,2.3,2.5,3,4.9,3
		C91.8,439.2,94.2,438.5,95.1,437.2z"/>
</g>
</svg>
