<?xml version="1.0" encoding="UTF-8"?>
<svg width="530px" height="530px" viewBox="0 0 530 530" version="1.1" xmlns="http://www.w3.org/2000/svg" xmlns:xlink="http://www.w3.org/1999/xlink">
    <title>Downtime</title>
    <defs>
        <filter x="-7.1%" y="-7.1%" width="114.3%" height="114.3%" filterUnits="objectBoundingBox" id="filter-1">
            <feOffset dx="1" dy="15" in="SourceAlpha" result="shadowOffsetOuter1"></feOffset>
            <feGaussianBlur stdDeviation="2" in="shadowOffsetOuter1" result="shadowBlurOuter1"></feGaussianBlur>
            <feColorMatrix values="0 0 0 0 0   0 0 0 0 0   0 0 0 0 0  0 0 0 0.439978113 0" type="matrix" in="shadowBlurOuter1" result="shadowMatrixOuter1"></feColorMatrix>
            <feMerge>
                <feMergeNode in="shadowMatrixOuter1"></feMergeNode>
                <feMergeNode in="SourceGraphic"></feMergeNode>
            </feMerge>
        </filter>
    </defs>
    <g id="Page-1" stroke="none" stroke-width="1" fill="none" fill-rule="evenodd">
        <g id="Downtime" filter="url(#filter-1)" transform="translate(3.000000, 0.000000)" fill-rule="nonzero">
            <circle id="Oval" fill="#ff5656" cx="256" cy="256" r="256"></circle>
            <g id="Group" opacity="0.2" transform="translate(99.770393, 114.465257)" fill="#231F20">
                <path d="M39.4696526,284.616314 C4.30699174,284.616314 -10.0777332,259.859647 7.50359728,229.608557 L127.743914,22.6942729 C145.325245,-7.56475763 174.094695,-7.56475763 191.676025,22.6942729 L311.916342,229.608557 C329.497673,259.867587 315.112948,284.616314 279.950287,284.616314 L39.4696526,284.616314 Z" id="Path"></path>
            </g>
            <path d="M139.240045,382.066465 C104.077384,382.066465 89.6926596,357.309798 107.27399,327.058708 L227.514307,120.144424 C245.095638,89.8853934 273.865087,89.8853934 291.446418,120.144424 L411.686735,327.058708 C429.268065,357.317738 414.883341,382.066465 379.72068,382.066465 L139.240045,382.066465 Z" id="Path" fill="#FFDF42"></path>
            <path d="M274.561934,258.320242 C274.561934,267.293776 267.985982,274.561934 259.867069,274.561934 L259.867069,274.561934 C251.748157,274.561934 245.172205,267.293776 245.172205,258.320242 L245.172205,193.353474 C245.172205,184.37994 251.748157,177.111782 259.867069,177.111782 L259.867069,177.111782 C267.985982,177.111782 274.561934,184.37994 274.561934,193.353474 L274.561934,258.320242 Z" id="Path" fill="#4F5D73"></path>
            <path d="M274.561934,320.193353 C274.561934,328.312266 267.985982,334.888218 259.867069,334.888218 L259.867069,334.888218 C251.748157,334.888218 245.172205,328.312266 245.172205,320.193353 L245.172205,320.193353 C245.172205,312.074441 251.748157,305.498489 259.867069,305.498489 L259.867069,305.498489 C267.985982,305.498489 274.561934,312.074441 274.561934,320.193353 L274.561934,320.193353 Z" id="Path" fill="#4F5D73"></path>
        </g>
    </g>
</svg>
