<svg xmlns="http://www.w3.org/2000/svg" width="197" height="45" viewBox="0 0 197 45">
  <g fill="none" fill-rule="evenodd">
    <path fill="#08B5E8" d="M10.616 22.909C7.21 21.73 4.03 20.271 2.083 17.926c.235-3.257 2.572-5.935 5.668-6.703l1.065 1.06-1.117 6.627-.004.004.003.002-.003.016h.02l1.839 1.82 1.062-1.05v3.207zm.34-6.915l-.626-3.712 1.064-1.059c.746.185 1.448.48 2.087.87a8.226 8.226 0 0 0-2.526 3.901zm-1.279-5.2c-2.477 0-4.485-1.996-4.485-4.46 0-2.463 2.008-4.46 4.485-4.46 2.477 0 4.485 1.997 4.485 4.46 0 2.464-2.008 4.46-4.485 4.46zM39.362 18.14c-1.956 2.22-5.036 3.626-8.328 4.769V19.95l.814.807 1.838-1.82h.057l-1.12-6.652 1.064-1.06c3.16.785 5.527 3.563 5.675 6.916zm-8.805-2.564a8.23 8.23 0 0 0-2.472-3.554 7.474 7.474 0 0 1 1.962-.796l1.064 1.059-.554 3.29zm1.414-4.779c-2.474 0-4.48-1.997-4.48-4.461 0-2.464 2.006-4.462 4.48-4.462 2.475 0 4.48 1.998 4.48 4.462 0 2.464-2.005 4.461-4.48 4.461z"/>
    <path fill="#154B98" d="M28.949 23.673c-2.89.917-5.796 1.724-8.13 2.777-2.33-1.051-5.23-1.857-8.115-2.772v-5.266c0-3.864 2.618-7.106 6.152-8l1.121 1.138-1.23 7.244-.003.004.003.003-.003.018h.02l2.041 2.005 2.041-2.005h.063l-1.233-7.27 1.12-1.137c3.534.894 6.153 4.136 6.153 8v5.26zM20.93 9.787A4.894 4.894 0 1 1 20.93 0a4.894 4.894 0 0 1 0 9.788z"/>
    <path fill="#177212" d="M13.934 30.7c-2.81-.648-5.9-.943-9.142-.538 2.278.162 4.894.793 7.848 1.891-2.233 2.58-3.653 5.564-4.969 8.25C2.99 36.485 0 30.673 0 24.164c0-1.875.248-3.692.713-5.42 2.32 6.087 11.193 6.766 17.72 8.881a17.207 17.207 0 0 0-4.499 3.074zm-3.455 11.534a20.782 20.782 0 0 0 8.258 1.7c4.653 0 8.95-1.525 12.418-4.1.316.634.619 1.26.918 1.868a20.75 20.75 0 0 1-11.236 3.283c-3.77 0-7.307-1-10.358-2.75z"/>
    <path fill="#6CBA0E" d="M9.58 41.7c8.752-6.56 16.809-10.047 24.171-10.464-9.91-1.237-18.235 3.318-22.454 7.035.102-.191.205-.383.31-.575.135-.228.254-.43.244-.422l-.153.26c1.932-3.482 4.523-6.924 9.118-8.998 6.518-2.94 17.503-2.915 20.124-9.792.465 1.728.713 3.545.713 5.42 0 11.5-9.33 20.821-20.837 20.821A20.75 20.75 0 0 1 9.58 41.702z"/>
    <g fill-rule="nonzero">
      <path fill="#177212" d="M66.18 37.657c-2.144.957-4.7 1.435-7.67 1.435-3.627 0-6.452-1.022-8.475-3.065C48.012 33.984 47 31.134 47 27.477c0-3.727 1.019-6.595 3.057-8.603 2.038-2.008 4.946-3.012 8.723-3.012 2.411 0 4.808.284 7.19.852v3.602c-2.7-.946-4.963-1.42-6.787-1.42-2.332 0-4.13.74-5.396 2.22-1.266 1.48-1.899 3.58-1.899 6.301 0 2.67.68 4.754 2.04 6.249 1.361 1.494 3.252 2.242 5.674 2.242 2.172 0 4.365-.548 6.577-1.644v3.393zm20.934 0c-2.142.957-4.698 1.435-7.668 1.435-3.628 0-6.453-1.022-8.476-3.065-2.023-2.043-3.035-4.893-3.035-8.55 0-3.727 1.02-6.595 3.057-8.603 2.038-2.008 4.946-3.012 8.723-3.012 2.412 0 4.808.284 7.19.852v3.602c-2.7-.946-4.963-1.42-6.786-1.42-2.332 0-4.131.74-5.397 2.22-1.266 1.48-1.898 3.58-1.898 6.301 0 2.67.68 4.754 2.04 6.249 1.36 1.494 3.251 2.242 5.673 2.242 2.173 0 4.365-.548 6.577-1.644v3.393zm12.834 1.435c-3.359 0-6.045-1.056-8.058-3.17-2.013-2.112-3.02-4.927-3.02-8.445 0-3.558 1.012-6.383 3.035-8.476 2.023-2.093 4.754-3.14 8.192-3.14 3.418 0 6.142 1.047 8.17 3.14 2.028 2.093 3.042 4.903 3.042 8.431 0 3.608-1.014 6.453-3.042 8.536-2.028 2.083-4.801 3.124-8.32 3.124zm.06-3.05c1.973 0 3.535-.774 4.686-2.324 1.15-1.55 1.726-3.65 1.726-6.301 0-2.571-.578-4.634-1.734-6.189-1.156-1.554-2.685-2.332-4.589-2.332-1.923 0-3.46.778-4.612 2.332-1.15 1.555-1.726 3.633-1.726 6.234 0 2.581.573 4.656 1.719 6.226 1.146 1.57 2.656 2.354 4.53 2.354zM50.274 25.52l11.663-.36v3.79l-11.663-.361v-3.069z"/>
      <path fill="#6CBA0E" d="M121.465 39.092c-1.485 0-3.384-.324-5.696-.972v-3.11c2.492 1.157 4.54 1.735 6.144 1.735 1.236 0 2.23-.324 2.982-.972.753-.647 1.13-1.5 1.13-2.556 0-.867-.248-1.604-.74-2.212-.494-.608-1.404-1.286-2.729-2.033l-1.525-.882c-1.883-1.077-3.211-2.09-3.984-3.042-.772-.952-1.158-2.06-1.158-3.326 0-1.705.618-3.107 1.854-4.208 1.235-1.102 2.81-1.652 4.723-1.652 1.704 0 3.503.284 5.397.852v2.87c-2.332-.917-4.071-1.375-5.217-1.375-1.087 0-1.984.289-2.691.867-.708.578-1.061 1.305-1.061 2.182 0 .738.259 1.39.777 1.958.518.569 1.465 1.246 2.84 2.033l1.585.897c1.913 1.087 3.249 2.113 4.006 3.08.757.967 1.136 2.128 1.136 3.483 0 1.923-.71 3.468-2.13 4.634-1.42 1.166-3.301 1.749-5.643 1.749zm22.49-9.014l-3.767-9.537-3.782 9.537h7.549zm3.318 8.46l-2.406-6.128h-9.373l-2.437 6.129h-2.915l8.775-22.124h3.11l8.64 22.124h-3.394zm5.718 0V16.416h3.14v19.777h9.955v2.347h-13.095zm15.45 0V16.416h12.362v2.347h-9.224v7.1h7.729v2.317h-7.729v8.013h9.866v2.347H168.44zm20.053.554c-1.485 0-3.384-.324-5.696-.972v-3.11c2.492 1.157 4.54 1.735 6.144 1.735 1.236 0 2.23-.324 2.982-.972.753-.647 1.129-1.5 1.129-2.556 0-.867-.247-1.604-.74-2.212-.493-.608-1.403-1.286-2.728-2.033l-1.525-.882c-1.884-1.077-3.211-2.09-3.984-3.042-.772-.952-1.158-2.06-1.158-3.326 0-1.705.618-3.107 1.853-4.208 1.236-1.102 2.81-1.652 4.724-1.652 1.704 0 3.503.284 5.397.852v2.87c-2.332-.917-4.071-1.375-5.218-1.375-1.086 0-1.983.289-2.69.867-.708.578-1.062 1.305-1.062 2.182 0 .738.26 1.39.778 1.958.518.569 1.465 1.246 2.84 2.033l1.584.897c1.914 1.087 3.25 2.113 4.007 3.08.757.967 1.136 2.128 1.136 3.483 0 1.923-.71 3.468-2.13 4.634-1.42 1.166-3.302 1.749-5.643 1.749z"/>
    </g>
  </g>
</svg>
