<svg width="28" height="28" viewBox="0 0 28 28" fill="none" xmlns="http://www.w3.org/2000/svg">
<path d="M14 0C6.26802 0 0 6.26802 0 14C0 21.732 6.26802 28 14 28C21.732 28 28 21.732 28 14C27.9918 6.27147 21.7286 0.00826173 14 0ZM14 26C7.37257 26 1.99998 20.6274 1.99998 14C1.99998 7.37257 7.37257 1.99998 14 1.99998C20.6274 1.99998 26 7.37257 26 14C25.9929 20.6245 20.6245 25.9929 14 26Z" fill="#CFCFCF"/>
<rect x="9.33594" y="9.33398" width="2.33334" height="9.33335" rx="1" fill="#CFCFCF"/>
<rect x="16.3359" y="9.33398" width="2.33334" height="9.33335" rx="1" fill="#CFCFCF"/>
</svg>
