<svg width="28" height="28" viewBox="0 0 28 28" fill="#979797" xmlns="http://www.w3.org/2000/svg">
<path d="M14 0C6.26802 0 0 6.26802 0 14C0 21.732 6.26802 28 14 28C21.732 28 28 21.732 28 14C27.9918 6.27147 21.7286 0.00826173 14 0ZM14 26C7.37257 26 1.99998 20.6274 1.99998 14C1.99998 7.37257 7.37257 1.99998 14 1.99998C20.6274 1.99998 26 7.37257 26 14C25.9929 20.6245 20.6245 25.9929 14 26Z"/>
<path d="M14 0C6.26802 0 0 6.26802 0 14C0 21.732 6.26802 28 14 28C21.732 28 28 21.732 28 14C27.9918 6.27147 21.7286 0.00826173 14 0ZM14 26C7.37257 26 1.99998 20.6274 1.99998 14C1.99998 7.37257 7.37257 1.99998 14 1.99998C20.6274 1.99998 26 7.37257 26 14C25.9929 20.6245 20.6245 25.9929 14 26Z"/>
<path d="M19.8921 13.5507C19.7952 13.3563 19.6376 13.1987 19.4431 13.1018L11.4431 9.10178C10.9491 8.85492 10.3485 9.05525 10.1016 9.54932C10.0321 9.68824 9.99604 9.84146 9.99609 9.9968V17.9968C9.99586 18.5492 10.4433 18.997 10.9956 18.9973C11.151 18.9974 11.3042 18.9613 11.4431 18.8919L19.4431 14.8918C19.9374 14.6455 20.1385 14.045 19.8921 13.5507ZM11.9961 16.3788V11.6148L16.7602 13.9968L11.9961 16.3788Z"/>
</svg>
