<svg width="24" height="24" viewBox="0 0 24 24" fill="none" xmlns="http://www.w3.org/2000/svg">
<g clip-path="url(#clip0)">
<path d="M11.8953 24.0005C11.7643 24.0005 11.6363 23.9485 11.5413 23.8545C11.4233 23.7365 11.3713 23.5665 11.4043 23.4035L12.1113 19.8685C12.1313 19.7705 12.1773 19.6815 12.2483 19.6125L20.0263 11.8345C20.6103 11.2505 21.5633 11.2505 22.1473 11.8345L23.5613 13.2485C24.1463 13.8335 24.1463 14.7845 23.5613 15.3695L15.7833 23.1475C15.7143 23.2175 15.6253 23.2645 15.5273 23.2845L11.9923 23.9915C11.9603 23.9975 11.9273 24.0005 11.8953 24.0005ZM13.0633 20.2115L12.5333 22.8625L15.1843 22.3325L22.8553 14.6615C23.0503 14.4665 23.0503 14.1495 22.8553 13.9545L21.4413 12.5405C21.2463 12.3455 20.9293 12.3455 20.7343 12.5405L13.0633 20.2115ZM15.4303 22.7935H15.4403H15.4303Z" fill="white"/>
<path d="M9.5 21H2.5C1.121 21 0 19.879 0 18.5V5.5C0 4.121 1.121 3 2.5 3H4.5C4.776 3 5 3.224 5 3.5C5 3.776 4.776 4 4.5 4H2.5C1.673 4 1 4.673 1 5.5V18.5C1 19.327 1.673 20 2.5 20H9.5C9.776 20 10 20.224 10 20.5C10 20.776 9.776 21 9.5 21Z" fill="white"/>
<path d="M16.5 12C16.224 12 16 11.776 16 11.5V5.5C16 4.673 15.327 4 14.5 4H12.5C12.224 4 12 3.776 12 3.5C12 3.224 12.224 3 12.5 3H14.5C15.879 3 17 4.121 17 5.5V11.5C17 11.776 16.776 12 16.5 12Z" fill="white"/>
<path d="M11.5 6H5.5C4.673 6 4 5.327 4 4.5V2.5C4 2.224 4.224 2 4.5 2H6.05C6.282 0.86 7.293 0 8.5 0C9.707 0 10.718 0.86 10.95 2H12.5C12.776 2 13 2.224 13 2.5V4.5C13 5.327 12.327 6 11.5 6ZM5 3V4.5C5 4.775 5.225 5 5.5 5H11.5C11.775 5 12 4.775 12 4.5V3H10.5C10.224 3 10 2.776 10 2.5C10 1.673 9.327 1 8.5 1C7.673 1 7 1.673 7 2.5C7 2.776 6.776 3 6.5 3H5Z" fill="white"/>
<path d="M13.5 9H3.5C3.224 9 3 8.776 3 8.5C3 8.224 3.224 8 3.5 8H13.5C13.776 8 14 8.224 14 8.5C14 8.776 13.776 9 13.5 9Z" fill="white"/>
<path d="M13.5 12H3.5C3.224 12 3 11.776 3 11.5C3 11.224 3.224 11 3.5 11H13.5C13.776 11 14 11.224 14 11.5C14 11.776 13.776 12 13.5 12Z" fill="white"/>
<path d="M13.5 15H3.5C3.224 15 3 14.776 3 14.5C3 14.224 3.224 14 3.5 14H13.5C13.776 14 14 14.224 14 14.5C14 14.776 13.776 15 13.5 15Z" fill="white"/>
</g>
<defs>
<clipPath id="clip0">
<rect width="24" height="24" fill="white"/>
</clipPath>
</defs>
</svg>
