<svg id="Layer_1" data-name="Layer 1" xmlns="http://www.w3.org/2000/svg" viewBox="0 0 120 97"><defs><style>.cls-1{fill:#fff;}.cls-2,.cls-3{fill:#f5bd1f;}.cls-2{stroke:#f5bd1f;stroke-miterlimit:10;}</style></defs><title>10 cryptomarket - Logo</title><rect class="cls-1" width="120" height="97"/><path d="M27.17,84.67V87a1.89,1.89,0,0,0-.74-.6,2.2,2.2,0,0,0-.95-.21,1.86,1.86,0,0,0-1.42.59,2,2,0,0,0-.55,1.46,2,2,0,0,0,.55,1.45,1.94,1.94,0,0,0,1.45.57,2,2,0,0,0,.92-.22,2.19,2.19,0,0,0,.74-.57v2.31a6.24,6.24,0,0,1-1.7.34A4,4,0,0,1,22.69,91a3.6,3.6,0,0,1-1.19-2.8,3.78,3.78,0,0,1,1.09-2.71,4,4,0,0,1,1.3-.88,3.91,3.91,0,0,1,1.52-.32A4.58,4.58,0,0,1,27.17,84.67Z"/><path d="M33.17,88.86l2.33,3H33.1l-1.81-2.85h0V91.9H29.34V84.49h2.88a2.9,2.9,0,0,1,1.87.57,2.07,2.07,0,0,1,.7,1.71,2.25,2.25,0,0,1-.42,1.37A1.83,1.83,0,0,1,33.17,88.86ZM31.27,86v1.85h.18c.89,0,1.34-.31,1.34-.92S32.34,86,31.45,86Z"/><path d="M38.53,88.34,35.8,84.49h2.3l1.39,2,1.38-2h2.31l-2.73,3.85V91.9H38.53Z"/><path d="M44.61,91.9V84.49h2.94a3,3,0,0,1,2,.6,2.28,2.28,0,0,1,.73,1.83c0,1.68-.88,2.52-2.63,2.52H46.53V91.9ZM46.53,86v1.85h.74a2,2,0,0,0,.37,0,.84.84,0,0,0,.33-.14.92.92,0,0,0,.19-.26,1.17,1.17,0,0,0,.08-.45,1,1,0,0,0-.08-.45.75.75,0,0,0-.18-.28.68.68,0,0,0-.32-.15l-.37,0h-.76Z"/><path d="M55,86.12V91.9H53.1V86.12H51.51V84.49h5.11v1.63Z"/><path d="M60,84.72a4.43,4.43,0,0,1,4,0,4,4,0,0,1,1.51,1.36,3.5,3.5,0,0,1,.58,2,4.1,4.1,0,1,1-8.19,0,3.5,3.5,0,0,1,.58-2A3.88,3.88,0,0,1,60,84.72Zm3.48,2A2.1,2.1,0,0,0,62,86.11a2.06,2.06,0,0,0-1.47.59,1.84,1.84,0,0,0-.62,1.36,2.17,2.17,0,0,0,.61,1.58,2.07,2.07,0,0,0,3,0,2.21,2.21,0,0,0,.6-1.58A1.83,1.83,0,0,0,63.5,86.7Z"/><path d="M67.05,92.38l1.35-7.94h2L72,88.68l1.7-4.24h2.05L77,92.38H74.93l-.58-4.57h0l-1.91,4.57H71.6l-1.82-4.57h0l-.66,4.57Z"/><path d="M83.35,91H80.51L80,92.38H77.78l3-7.94h2.25l3,7.94h-2.2Zm-.55-1.58L82,86.9h0l-.85,2.52Z"/><path d="M91.44,89.13l2.49,3.25H91.37l-2-3h0v3H87.34V84.44h3.08a3.14,3.14,0,0,1,2,.61,2.24,2.24,0,0,1,.76,1.84,2.47,2.47,0,0,1-.46,1.47A2,2,0,0,1,91.44,89.13ZM89.4,86v2h.2c1,0,1.43-.33,1.43-1s-.48-1-1.43-1Z"/><path d="M97.2,87.72l2.5-3.28h2.55L99.1,88.2l3.44,4.18H99.87L97.2,88.94h0v3.44H95.12V84.44h2.06v3.28Z"/><path d="M108.24,86.19h-2.45v1.33h2.32v1.74h-2.32v1.37h2.45v1.75h-4.51V84.44h4.51Z"/><path d="M113.3,86.19v6.19h-2.07V86.19h-1.7V84.44H115v1.75Z"/><polygon class="cls-2" points="2.11 18.84 31.52 4.32 31.52 68.72 7.32 92.92 7.32 25.73 2.11 18.84"/><path class="cls-3" d="M78.61,1.9A38.37,38.37,0,0,0,44.19,57.17L68,33.36l-6.89-6.89H93.5v32L85.68,51,61.94,74.79A38.35,38.35,0,1,0,78.61,1.9Z"/></svg>