<svg id="Слой_1" data-name="Слой 1" xmlns="http://www.w3.org/2000/svg" xmlns:xlink="http://www.w3.org/1999/xlink" viewBox="0 0 120 97"><defs><style>.cls-1{fill:url(#linear-gradient);}.cls-2{fill:url(#linear-gradient-2);}.cls-3{fill:url(#linear-gradient-3);}.cls-4{fill:url(#linear-gradient-4);}.cls-5{fill:url(#linear-gradient-5);}.cls-6{fill:url(#linear-gradient-6);}.cls-7{fill:url(#linear-gradient-7);}.cls-8{fill:url(#linear-gradient-8);}.cls-9{fill:url(#linear-gradient-9);}.cls-10{fill:url(#linear-gradient-10);}.cls-11{fill:url(#linear-gradient-11);}.cls-12{fill:url(#linear-gradient-12);}.cls-13{fill:url(#linear-gradient-13);}</style><linearGradient id="linear-gradient" x1="39.68" y1="33.46" x2="37.32" y2="45.01" gradientUnits="userSpaceOnUse"><stop offset="0" stop-color="#274684"/><stop offset="1" stop-color="#071739"/></linearGradient><linearGradient id="linear-gradient-2" x1="48.84" y1="35.34" x2="46.48" y2="46.88" xlink:href="#linear-gradient"/><linearGradient id="linear-gradient-3" x1="57.54" y1="37.1" x2="55.18" y2="48.65" xlink:href="#linear-gradient"/><linearGradient id="linear-gradient-4" x1="72.88" y1="40.22" x2="70.52" y2="51.77" xlink:href="#linear-gradient"/><linearGradient id="linear-gradient-5" x1="83.56" y1="42.4" x2="81.2" y2="53.94" xlink:href="#linear-gradient"/><linearGradient id="linear-gradient-6" x1="95.11" y1="44.74" x2="92.75" y2="56.3" xlink:href="#linear-gradient"/><linearGradient id="linear-gradient-7" x1="112.75" y1="48.34" x2="110.39" y2="59.89" xlink:href="#linear-gradient"/><linearGradient id="linear-gradient-8" x1="13.6" y1="39.09" x2="10.59" y2="52.65" gradientUnits="userSpaceOnUse"><stop offset="0" stop-color="#b9d5fd"/><stop offset="1" stop-color="#709fdc"/></linearGradient><linearGradient id="linear-gradient-9" x1="25.23" y1="41.66" x2="22.22" y2="55.21" xlink:href="#linear-gradient-8"/><linearGradient id="linear-gradient-10" x1="-1.58" y1="37.71" x2="29.94" y2="37.71" xlink:href="#linear-gradient-8"/><linearGradient id="linear-gradient-11" x1="-2.51" y1="46.89" x2="28.99" y2="46.89" xlink:href="#linear-gradient-8"/><linearGradient id="linear-gradient-12" x1="-1.58" y1="46.89" x2="29.92" y2="46.89" xlink:href="#linear-gradient-8"/><linearGradient id="linear-gradient-13" x1="-1.58" y1="50.64" x2="29.92" y2="50.64" xlink:href="#linear-gradient-8"/></defs><title>24FinTime-Logo-120x97Монтажная область 1</title><path class="cls-1" d="M31.59,50.63h-1.5V43.27h14.2v1.47H31.59v1.77h12.7V48H31.59Z"/><path class="cls-2" d="M45.72,50.61V43.27h1.51v7.34Z"/><path class="cls-3" d="M49.92,45v5.66H48.44V43.27h1.48l11.23,5.62v-5.6h1.49v7.32h-1.5Z"/><path class="cls-4" d="M73,50.63H71.24V44.76H63.83V43.27H80.39v1.47H73Z"/><path class="cls-5" d="M81.88,50.61V43.27h1.51v7.34Z"/><path class="cls-6" d="M94.81,48.29,86.09,45v5.61h-1.5V43.29h1.5l8.69,3.23,8.44-3.23h1.51v7.34h-1.5V45Z"/><path class="cls-7" d="M120.14,50.63h-14.2V43.27h14.2v1.47h-12.7v1.49h12.7V47.7h-12.7v1.46h12.7Z"/><path class="cls-8" d="M6.23,48q0-1.74,1.41-1.74h8.2c.3,0,.45-.19.46-.56v-.37c0-.36-.16-.55-.49-.55H6.23V43.29h9.85q1.41,0,1.41,1.77v.87c0,1.19-.46,1.78-1.38,1.78H7.85q-.45,0-.45.57v.91H17.47v1.48H6.23Z"/><path class="cls-9" d="M28.48,50.67V47.85H18.42V43.28h1.17v3.06h8.88V43.28h1.22v7.39Z"/><polygon class="cls-10" points="18.47 37 18.01 37 16.59 37 16.13 37 14.7 37 5.2 37 3.77 37 3.31 37 1.89 37 1.43 37 0 37 0 38.42 1.43 38.42 1.89 38.42 3.31 38.42 3.77 38.42 5.2 38.42 14.7 38.42 16.13 38.42 16.59 38.42 18.01 38.42 18.47 38.42 29.71 38.42 29.71 37 18.47 37"/><polygon class="cls-11" points="14.7 51.61 5.2 51.61 5.2 44.5 5.2 44.04 5.2 42.63 5.2 42.17 5.22 42.17 5.22 42.08 19.54 42.08 19.54 40.75 16.59 40.75 16.13 40.75 14.7 40.75 5.2 40.75 3.77 40.75 3.31 40.75 1.89 40.75 1.89 42.17 3.31 42.17 3.77 42.17 3.77 42.63 3.77 44.04 3.77 44.5 3.77 53.03 25.95 53.03 25.95 51.56 14.7 51.61"/><polygon class="cls-12" points="26.38 51.56 26.38 53.49 3.31 53.49 3.31 44.5 3.31 44.04 3.31 42.63 1.89 42.63 1.43 42.63 1.43 42.17 1.43 40.75 1.43 40.29 1.89 40.29 3.31 40.29 3.77 40.29 5.2 40.29 14.7 40.29 16.13 40.29 16.59 40.29 18.01 40.29 28.52 40.29 28.52 40.75 28.52 42.08 29.7 42.08 29.7 40.75 29.7 40.29 29.7 38.88 28.27 38.88 18.01 38.88 16.59 38.88 16.13 38.88 14.7 38.88 5.2 38.88 3.77 38.88 3.31 38.88 1.89 38.88 1.43 38.88 0 38.88 0 40.29 0 40.75 0 42.17 0 42.63 0 44.04 1.43 44.04 1.89 44.04 1.89 44.5 1.89 54.91 27.81 54.91 27.81 51.56 26.38 51.56"/><polygon class="cls-13" points="28.27 51.56 28.27 55.36 1.43 55.36 1.43 44.5 0 44.5 0 56.78 29.7 56.78 29.7 51.56 28.27 51.56"/></svg>