<?xml version="1.0" encoding="UTF-8"?>
<svg width="120px" height="97px" viewBox="0 0 120 97" version="1.1" xmlns="http://www.w3.org/2000/svg" xmlns:xlink="http://www.w3.org/1999/xlink">
    <!-- Generator: Sketch 53.2 (72643) - https://sketchapp.com -->
    <title>BO_Brand_logo</title>
    <desc>Created with Sketch.</desc>
    <g id="BO_Brand_logo" stroke="none" stroke-width="1" fill="none" fill-rule="evenodd">
        <g id="512X512_logo_365GCC-01-Copy" transform="translate(11.000000, 0.000000)" fill-rule="nonzero">
            <g id="Слой_1">
                <g id="Group" transform="translate(25.699203, 56.888668)" fill="#39B54A" stroke="#39B54A" stroke-width="0.5">
                    <path d="M11.6214502,4.34571571 C11.2118088,3.46442346 10.5944482,2.75881113 9.7691753,2.22849304 C8.94370916,1.69875348 7.96771912,1.43359443 6.84178486,1.43359443 C6.06095418,1.43359443 5.34446813,1.56472763 4.69194024,1.82622266 C4.03921912,2.08810338 3.47924701,2.45219085 3.01221713,2.91829225 C2.54499402,3.38458648 2.18346614,3.940167 1.92763347,4.5850338 C1.67141434,5.23028628 1.54369124,5.92953479 1.54369124,6.68297217 C1.54369124,7.43660239 1.67141434,8.13585089 1.92763347,8.78071769 C2.18346614,9.42577734 2.5448008,9.98135785 3.01221713,10.4474592 C3.47924701,10.9139463 4.03921912,11.2780338 4.69194024,11.5395288 C5.34446813,11.8014095 6.06114741,11.9321571 6.84178486,11.9321571 C7.52001195,11.9321571 8.1501255,11.8397853 8.73270518,11.6544632 C9.31489841,11.4695268 9.82984861,11.2043678 10.2779422,10.8595646 C10.7258426,10.5145686 11.1001235,10.0964851 11.4009781,9.60454274 C11.7014462,9.11298608 11.9159283,8.56049105 12.0440378,7.94744334 L12.0440378,7.90906759 L6.05477092,7.90906759 L6.05477092,6.64459642 L13.5029024,6.64459642 L13.5029024,7.29601988 C13.4261912,8.15185686 13.2117092,8.94058449 12.8598426,9.66200994 C12.5077829,10.3838211 12.040753,11.0065109 11.4585598,11.5300795 C10.8759801,12.0540338 10.1915697,12.4624751 9.40455578,12.756175 C8.61754183,13.0496819 7.76328486,13.1966282 6.84178486,13.1966282 C5.85613347,13.1966282 4.95724104,13.0338688 4.14472112,12.7081571 C3.33181474,12.3826382 2.6282749,11.9292644 2.03313546,11.3480358 C1.43799602,10.7668072 0.977342629,10.080672 0.650982072,9.28847316 C0.324621514,8.49666004 0.161537849,7.62828827 0.161537849,6.68297217 C0.161537849,5.75076938 0.324621514,4.88529026 0.650982072,4.08692048 C0.977342629,3.28893638 1.43799602,2.59913718 2.03313546,2.01790855 C2.6282749,1.43687276 3.33181474,0.983499006 4.14472112,0.657787276 C4.95724104,0.332075547 5.85613347,0.169316103 6.84178486,0.169316103 C7.59672311,0.169316103 8.31031076,0.268437376 8.98216135,0.466101392 C9.65401195,0.664343936 10.2586195,0.94512326 10.7961773,1.30901789 C11.3335418,1.67310537 11.8038566,2.11375149 12.2071215,2.63095626 C12.6101932,3.14816103 12.9203227,3.71974751 13.1380896,4.34571571 L11.6214502,4.34571571 L11.6214502,4.34571571 Z" id="Path"></path>
                    <path d="M26.0375438,4.61396024 C25.8456693,4.14149503 25.5927351,3.70721272 25.2793207,3.31111332 C24.9655199,2.9153996 24.598002,2.58023857 24.1756076,2.30524453 C23.7530199,2.03082903 23.28599,1.81677336 22.7743247,1.66346322 C22.2622729,1.51034592 21.7117689,1.43378728 21.1233924,1.43378728 C20.3425618,1.43378728 19.6260757,1.56492048 18.9735478,1.82641551 C18.3208267,2.08829622 17.7608546,2.4523837 17.2938247,2.91848509 C16.8266016,3.38477932 16.4650737,3.94035984 16.209241,4.58522664 C15.9530219,5.23047913 15.8252988,5.92972763 15.8252988,6.68316501 C15.8252988,7.43679523 15.9530219,8.13604374 16.209241,8.78091054 C16.4650737,9.42597018 16.8264084,9.9815507 17.2938247,10.4476521 C17.7608546,10.9141392 18.3208267,11.2782266 18.9735478,11.5397217 C19.6260757,11.8016024 20.342755,11.9323499 21.1233924,11.9323499 C21.7117689,11.9323499 22.2622729,11.8557913 22.7743247,11.702674 C23.28599,11.5493638 23.7532131,11.3356938 24.1756076,11.0608926 C24.598002,10.7862843 24.9655199,10.4542087 25.2793207,10.064666 C25.5927351,9.67512326 25.8456693,9.23775547 26.0375438,8.75217694 L27.4966016,8.75217694 C27.2915876,9.41632803 26.9940179,10.0232048 26.6038924,10.5722286 C26.2133805,11.1214453 25.7430657,11.590825 25.1929482,11.9803678 C24.6424442,12.3701034 24.021992,12.6699742 23.3308187,12.8807515 C22.6398386,13.0915288 21.9038367,13.1968211 21.1233924,13.1968211 C20.137741,13.1968211 19.2388486,13.0340616 18.4263287,12.7083499 C17.6134223,12.382831 16.9098825,11.9294573 16.314743,11.3482286 C15.7196036,10.767 15.2589502,10.0808648 14.9325896,9.288666 C14.6062291,8.49685288 14.4431454,7.62848111 14.4431454,6.68316501 C14.4431454,5.75096223 14.6062291,4.8854831 14.9325896,4.08711332 C15.2589502,3.28912922 15.7196036,2.59933002 16.314743,2.01810139 C16.9098825,1.43706561 17.6134223,0.983691849 18.4263287,0.657980119 C19.2388486,0.33226839 20.137741,0.169508946 21.1233924,0.169508946 C21.9038367,0.169508946 22.6398386,0.274801193 23.3308187,0.485578529 C24.021992,0.696355865 24.6424442,0.996419483 25.1929482,1.38596223 C25.7430657,1.77569781 26.2133805,2.24507753 26.6038924,2.79410139 C26.9942112,3.34351093 27.2917809,3.95019483 27.4966016,4.61415308 L26.0375438,4.61415308 L26.0375438,4.61396024 Z" id="Path"></path>
                    <path d="M40.203988,4.61396024 C40.0121135,4.14149503 39.7591793,3.70721272 39.4457649,3.31111332 C39.1319641,2.9153996 38.7644462,2.58023857 38.3420518,2.30524453 C37.9196574,2.03082903 37.4524343,1.81677336 36.9405757,1.66346322 C36.4287171,1.51034592 35.8782131,1.43378728 35.2898367,1.43378728 C34.509006,1.43378728 33.7925199,1.56492048 33.1397988,1.82641551 C32.4870777,2.08829622 31.9271056,2.4523837 31.4602689,2.91848509 C30.9928526,3.38477932 30.6315179,3.94035984 30.3756853,4.58522664 C30.1194661,5.23047913 29.991743,5.92972763 29.991743,6.68316501 C29.991743,7.43679523 30.1194661,8.13604374 30.3756853,8.78091054 C30.6315179,9.42597018 30.9928526,9.9815507 31.4602689,10.4476521 C31.9271056,10.9141392 32.4870777,11.2782266 33.1397988,11.5397217 C33.7925199,11.8016024 34.509006,11.9323499 35.2898367,11.9323499 C35.8782131,11.9323499 36.4287171,11.8557913 36.9405757,11.702674 C37.452241,11.5493638 37.9196574,11.3356938 38.3420518,11.0608926 C38.7644462,10.7862843 39.1319641,10.4542087 39.4457649,10.064666 C39.7591793,9.67512326 40.0121135,9.23775547 40.203988,8.75217694 L41.6630458,8.75217694 C41.4580319,9.41632803 41.1604622,10.0232048 40.7703367,10.5722286 C40.3798247,11.1214453 39.90951,11.590825 39.3593924,11.9803678 C38.8088884,12.3701034 38.1884363,12.6699742 37.4972629,12.8807515 C36.8062829,13.0915288 36.0702809,13.1968211 35.2898367,13.1968211 C34.303992,13.1968211 33.4052928,13.0340616 32.5927729,12.7083499 C31.7798665,12.382831 31.0761335,11.9294573 30.480994,11.3482286 C29.8860478,10.767 29.4252012,10.0808648 29.0990339,9.288666 C28.7726733,8.49685288 28.6095896,7.62848111 28.6095896,6.68316501 C28.6095896,5.75096223 28.7726733,4.8854831 29.0990339,4.08711332 C29.4252012,3.28912922 29.8860478,2.59933002 30.480994,2.01810139 C31.0761335,1.43706561 31.7798665,0.983691849 32.5927729,0.657980119 C33.4052928,0.33226839 34.303992,0.169508946 35.2898367,0.169508946 C36.0702809,0.169508946 36.8062829,0.274801193 37.4972629,0.485578529 C38.1884363,0.696355865 38.8088884,0.996419483 39.3593924,1.38596223 C39.90951,1.77569781 40.3798247,2.24507753 40.7703367,2.79410139 C41.1606554,3.34351093 41.4582251,3.95019483 41.6630458,4.61415308 L40.203988,4.61415308 L40.203988,4.61396024 Z" id="Path"></path>
                </g>
                <g id="Group" transform="translate(24.153386, 31.819085)" fill="#FFFFFF" stroke="#FFFFFF" stroke-width="0.5">
                    <path d="M24.1982151,0.480950298 C22.8058207,2.77732406 21.428498,5.04843539 20.0361036,7.34480915 C19.9246116,7.59589066 20.0376494,7.59589066 20.1721355,7.55558648 C20.5398466,7.42117495 20.9079442,7.28792048 21.2752689,7.1519662 C24.5873745,5.92529225 28.3993586,7.27480716 30.1248765,10.2852783 C31.8552251,13.3046203 31.1891713,17.2999404 28.5966434,19.4509105 C25.8458625,21.7332068 21.869249,21.7571193 19.2044542,19.5074135 C16.4973426,17.2220318 15.7783446,13.3215905 17.5803805,10.2889423 C19.4517849,7.13943141 21.398741,4.03485288 23.294492,0.899419483 C23.4691693,0.610540755 23.4979602,0.525111332 23.6964044,0.206341948 C23.804998,0.283093439 23.9331076,0.322240557 24.1982151,0.480950298 Z M20.6476673,19.8055487 C23.4388327,21.4933101 27.8370677,20.4531153 29.6468327,17.3803559 C31.4656793,14.2917833 30.4201275,9.85388867 27.4681972,8.46079125 C27.1130458,9.02948509 26.7497789,9.61572763 26.4151096,10.205827 C26.345741,10.3282823 26.150002,10.5809066 26.1594701,10.7508012 C26.1720299,10.9764274 26.428249,11.1226024 26.5383884,11.2622207 C27.7338845,12.7789304 27.9518446,14.4138529 27.065512,15.8653817 C26.7310359,16.4130557 26.2755996,16.8997913 25.706739,17.2042903 C25.1355598,17.5101392 24.4915339,17.6734771 23.8426773,17.6545785 C23.6299343,17.6484076 23.4181574,17.6252664 23.2077331,17.593833 C22.9171195,17.5504433 22.6321096,17.5008827 22.3480657,17.4247097 C22.2037251,17.3861412 22.1196713,17.3608787 22.0390956,17.5006899 C21.9878904,17.5890119 21.0252331,19.1599105 20.6476673,19.8055487 Z M26.9433924,8.12370179 C23.8291514,6.2762664 19.7217231,7.52048907 17.9778486,10.72766 C16.306241,13.8019622 17.4182629,17.9085527 20.1881733,19.5305547 C20.4283546,19.1381193 20.8148088,18.5667256 21.05499,18.1740974 C21.1701534,17.9856899 21.6149622,17.2785348 21.6155418,17.1256103 C21.6159283,17.0072048 21.4511056,16.8623797 21.3469562,16.7518807 C21.2051275,16.6012704 21.0215618,16.3594453 20.9046594,16.1887793 C20.6762649,15.8553539 20.4519283,15.5153718 20.3054622,15.1366282 C20.0701116,14.5278231 19.9775558,13.7984911 20.1273068,13.158831 C20.2154183,12.7827873 20.3746375,12.3969085 20.5591693,12.0576978 C21.3821235,10.5452306 22.7683347,10.035161 25.0544044,10.3356103 C25.207247,10.355666 25.4843347,10.3957773 25.6570797,10.3061054 C25.780745,10.2418887 25.8535916,10.0748867 25.9115598,9.98174354 C26.2802371,9.38913718 26.5716235,8.78958847 26.9433924,8.12370179 Z M23.800747,10.7405805 C22.0323327,10.7506083 20.5609084,12.2403201 20.5931773,13.9878628 C20.6250598,15.7228708 22.1828566,17.2289742 23.9023845,17.1875129 C25.6876096,17.1445089 27.0848347,15.6810239 27.0608745,13.8794851 C27.0359482,12.0200934 25.6961116,10.7299742 23.800747,10.7405805 Z" id="Shape"></path>
                    <path d="M0.291772908,16.8321034 C0.513211155,17.1074831 1.00845219,17.79034 1.31065936,18.0595487 C3.74995817,20.2332744 7.15751793,20.9807336 10.0379542,19.6543598 C12.6076813,18.4710755 13.9351514,16.4437177 13.9678068,13.6237753 C14.0000757,10.8287097 12.6279701,8.87424652 10.185,7.61189662 C9.9310996,7.48076342 9.61246813,7.3827992 9.25171315,7.21309742 C9.22524104,7.20056262 9.20611155,7.17298608 9.22755976,7.15717296 C10.3600637,5.74401988 11.0446673,4.90496024 12.1329223,3.52864016 C12.3448924,3.26058847 12.7187869,2.71368588 12.8395538,2.35152684 C12.9353944,2.06419085 12.9454422,1.5412008 12.9321096,1.23959443 C12.9149124,0.844652087 12.959741,0.694620278 12.5945418,0.609576541 C12.4324243,0.571779324 11.9503227,0.560980119 11.7843406,0.555580517 C11.435759,0.544202783 11.1658207,0.527232604 10.8651594,0.69539165 C10.6812072,0.798369781 10.5084622,0.95167992 10.3743625,1.11405368 C8.86603187,2.94220477 7.29548207,4.71809543 5.79236853,6.55048907 C5.41866733,7.0059841 4.75396614,7.70561829 4.50141833,8.24480716 C4.38045817,8.50302386 4.30915737,9.27073161 4.3236494,9.56770974 C4.32963944,9.68823658 4.40383865,9.68997217 4.365,9.69479324 C6.45591036,9.43406958 8.27881474,9.33649105 9.66386653,10.9623499 C10.2018108,11.5937177 10.5529044,12.5199423 10.6587928,13.3536024 C10.8840956,15.1275646 9.53768924,16.8218827 7.75207769,17.2908767 C5.80724701,17.8017177 3.62841833,16.9472306 2.73841434,15.1408708 C2.7274004,15.118501 2.69435857,15.0762684 2.70440637,15.0382783 C2.73223108,14.9339503 2.8058506,14.8194016 2.90768127,14.7738907 C3.10129482,15.0201511 3.35210359,15.3229145 3.59015936,15.5383201 C5.12206375,16.924668 7.37953586,17.333495 8.83762749,16.1583101 C10.0226892,15.203159 10.3641215,13.636503 9.77574502,12.2561332 C9.2014741,10.9085467 7.59053984,10.111334 5.96414741,10.2345606 C4.85251195,10.318833 4.28133267,10.2993559 3.80386853,10.4189185 C3.53760159,8.90992247 3.72329283,7.90366799 4.88246215,6.70457058 C6.38287052,5.15276342 7.70241833,3.42662624 9.0951992,1.77145527 C9.35586255,1.4617495 9.59430478,1.13333797 10.037761,0.563487078 C6.79772908,0.563487078 3.85758566,0.563487078 0.917442231,0.563487078 C0.916669323,0.44893837 0.916089641,0.334582505 0.915316733,0.220033797 C5.05424104,0.220033797 9.19316534,0.220033797 13.4621315,0.220033797 C13.5073466,0.706769384 13.4462869,1.20121869 13.4329542,1.6912326 C13.4128586,2.42808549 13.4611653,2.98655865 12.6588865,3.83313917 C11.7912968,4.74875746 11.0450538,5.78837376 10.1741793,6.86771571 C13.8980518,8.97047515 15.4021315,12.0195149 14.1206494,16.0952505 C13.2080378,18.9975368 10.4000618,20.8116103 6.99076295,20.8675348 C6.84951394,20.8698489 6.70517331,20.8544215 6.56411753,20.8469006 C6.42228884,20.8393797 6.28065339,20.8308946 6.13921116,20.8204811 C5.99834861,20.8100676 5.85787251,20.7977256 5.71739641,20.7826839 C5.57788645,20.767835 5.43876295,20.7500934 5.3000259,20.7292664 C5.16225498,20.7086322 5.02487052,20.6847197 4.88806574,20.657336 C4.75203386,20.6301451 4.6167749,20.5994831 4.48248207,20.5651571 C4.3485757,20.5310239 4.21582869,20.4934195 4.08385458,20.4523439 C3.95246016,20.4114612 3.8222251,20.3671074 3.6931494,20.319668 C3.56465339,20.2722286 3.43731673,20.2217038 3.31133267,20.1679006 C3.18612151,20.1144831 3.06226295,20.0577873 2.9399502,19.9981988 C2.81860359,19.938996 2.69899602,19.8767078 2.58093426,19.811334 C2.4642251,19.7467316 2.34944821,19.6788509 2.23660359,19.6076918 C2.12530478,19.537497 2.01593825,19.4640239 1.90927689,19.3870795 C1.80396813,19.3112922 1.70097809,19.2320338 1.60088645,19.1493042 C1.50195418,19.0675388 1.40592032,18.9823022 1.31297809,18.8939801 C1.22080876,18.8062366 1.1319243,18.7150219 1.04613147,18.6211074 C0.9607251,18.5273857 0.878410359,18.4307714 0.799380478,18.3316501 C0.720157371,18.2325288 0.644025896,18.1309006 0.570213147,18.0277296 C0.496207171,17.924173 0.424713147,17.8188807 0.354958167,17.7124314 C0.284816733,17.6057893 0.216414343,17.4979901 0.148398406,17.389998 C0.132167331,17.3639642 0.115743028,17.3381233 0.0995119522,17.3120895 C0.0807689243,17.282006 0.0573884462,17.2530795 0.0502390438,17.2175964 C0.0427031873,17.1805706 0.0539103586,17.1408449 0.0651175299,17.1055547 C0.0765179283,17.069493 0.0962270916,17.0374811 0.121926295,17.0099046 C0.176802789,16.9510875 0.232645418,16.8943917 0.291772908,16.8321034 Z" id="Path"></path>
                    <path d="M33.6761972,10.6354811 C34.7940159,10.9795129 35.6465339,11.0338946 36.6022351,10.489499 C38.3364482,9.50175746 40.581747,9.88763618 41.7347331,11.1875905 C42.8763187,12.4746243 42.9439482,14.5177952 41.8947251,16.0202346 C40.4571155,18.0790258 36.5347988,17.496833 35.1876195,15.5315706 C35.1138068,15.4237714 35.1634661,15.4017873 35.25351,15.3412346 C35.25351,15.3412346 35.2873247,15.3204076 35.3012371,15.3094155 C35.5441235,15.4766103 35.8047869,15.7105288 36.0521175,15.8559324 C36.387753,16.0532107 36.6897669,16.2445109 37.0978625,16.4130557 C37.6537769,16.6425388 38.4005996,16.7513022 39.0034681,16.7916064 C40.3997271,16.8849423 41.4827649,16.0383618 41.9426454,14.7011889 C42.3661992,13.4693082 41.9867012,12.0960736 40.9405697,11.2469861 C39.7294223,10.2638728 38.2813785,10.1497097 37.0313924,10.9201173 C35.697739,11.7420139 34.4918088,11.4566064 33.0708167,11.1127674 C33.5104084,7.46668588 33.9472948,3.84335984 34.3905578,0.168159046 C38.1258307,0.168159046 41.8015896,0.168159046 45.4773486,0.168159046 C45.4916474,0.267280318 45.4526155,0.48172167 45.4669143,0.580842942 C45.0431673,0.609383698 44.7898466,0.60166998 44.4240677,0.604755467 C42.7213506,0.619797217 41.0180538,0.634260437 39.3159163,0.600705765 C38.644259,0.587592445 38.3482351,0.794705765 38.297996,1.49954672 C38.1810936,3.14064016 37.9896056,4.77652684 37.8157012,6.54142545 C40.5233924,6.41839165 42.903757,6.84958847 44.7011554,8.86981113 C45.7635179,10.0638946 46.3636813,11.4712624 46.480004,13.0527674 C46.7435657,16.633668 44.7311056,19.5035567 41.2532112,20.5782704 C38.053757,21.5669761 33.9260398,20.3206322 32.6569243,17.7808907 C32.6569243,17.7650775 32.6768267,17.7498429 32.6888068,17.7386581 C32.728998,17.7008608 32.7718944,17.6701988 32.8053227,17.664992 C32.8306355,17.6609423 32.8406833,17.6804195 32.8690876,17.7122386 C33.0468566,17.911831 33.3504163,18.2427495 33.5502131,18.4166938 C36.3576096,20.8594354 40.8543904,21.0383936 43.5043068,18.8029583 C45.8570398,16.8182187 46.6003845,13.9492942 45.4798606,11.178334 C44.3983685,8.50418091 41.8394622,7.08755666 38.7491813,7.04995229 C38.5424283,7.04744533 38.1841853,7.02256859 37.2072291,7.07752883 C37.4099243,4.89011133 37.5929104,2.9140497 37.7983108,0.695198807 C36.8045438,0.695198807 35.9012072,0.695198807 34.8923685,0.695198807 C34.4867849,4.00862624 34.0858386,7.28560636 33.6761972,10.6354811 Z" id="Path"></path>
                </g>
                <g id="Group">
                    <path d="M48.0030199,96.8071571 L48.0030199,92.2001392 L48.4646394,92.2001392 C72.6441116,92.2001392 92.3155956,72.5677634 92.3155956,48.4390616 L92.3155956,47.978167 L96.9292789,47.978167 L96.9292789,48.4390616 C96.9292789,75.108662 75.187753,96.8071571 48.4646394,96.8071571 L48.0030199,96.8071571 Z" id="Path" fill="#39B54A"></path>
                    <path d="M0,48.8984135 L0,48.4390616 C0,21.7683042 21.7422988,0.0711590457 48.4646394,0.0711590457 L48.926259,0.0711590457 L48.926259,4.67894831 L48.4646394,4.67894831 C24.2869064,4.67894831 4.61522908,24.3078529 4.61522908,48.4390616 L4.61522908,48.8984135 L0,48.8984135 Z" id="Path" fill="#39B54A"></path>
                    <path d="M48.4646394,89.895666 C25.5575677,89.895666 6.9240996,71.2969284 6.9240996,48.4390616 L6.9240996,47.978167 L11.5385558,47.978167 L11.5385558,48.4390616 C11.5385558,68.7575726 28.1035279,85.2921193 48.4646394,85.2921193 L48.926259,85.2921193 L48.926259,89.8958588 L48.4646394,89.8958588 L48.4646394,89.895666 Z" id="Path" fill="#FFFFFF"></path>
                    <path d="M85.3907231,48.8984135 L85.3907231,48.4390616 C85.3907231,28.1174652 68.8272968,11.5869682 48.4646394,11.5869682 L48.0030199,11.5869682 L48.0030199,6.9799503 L48.4646394,6.9799503 C71.3724841,6.9799503 90.0069183,25.5775308 90.0069183,48.4390616 L90.0069183,48.8984135 L85.3907231,48.8984135 Z" id="Path" fill="#FFFFFF"></path>
                    <path d="M48.0030199,82.987839 L48.0030199,78.3800497 L48.4646394,78.3800497 C65.008743,78.3800497 78.4672032,64.9481531 78.4672032,48.4390616 L78.4672032,47.978167 L83.0832052,47.978167 L83.0832052,48.4390616 C83.0832052,67.488666 67.5525777,82.987839 48.4644462,82.987839 L48.0030199,82.987839 Z" id="Path" fill="#FFFFFF"></path>
                    <path d="M13.8476195,48.8984135 L13.8476195,48.4390616 C13.8476195,29.3886859 29.3776673,13.8908628 48.4646394,13.8908628 L48.926259,13.8908628 L48.926259,18.4967237 L48.4646394,18.4967237 C31.9213088,18.4967237 18.4628486,31.9282346 18.4628486,48.4390616 L18.4628486,48.8984135 L13.8476195,48.8984135 Z" id="Path" fill="#FFFFFF"></path>
                </g>
            </g>
        </g>
    </g>
</svg>