<?xml version="1.0" encoding="utf-8"?>
<!-- Generator: Adobe Illustrator 24.1.1, SVG Export Plug-In . SVG Version: 6.00 Build 0)  -->
<svg version="1.1" id="Layer_1" xmlns="http://www.w3.org/2000/svg" xmlns:xlink="http://www.w3.org/1999/xlink" x="0px" y="0px"
	 viewBox="0 0 79.9 64.6" style="enable-background:new 0 0 79.9 64.6;" xml:space="preserve">
<style type="text/css">
	.st0{fill:#0C1E41;}
	.st1{fill:#2FAE81;}
</style>
<rect class="st0" width="79.9" height="64.6"/>
<path class="st1" d="M56.4,11.8l5.5,9.6l3.6,6.3H47.2L56.4,11.8H40.3v5.8c-1.4-1.8-3.2-3.3-5.2-4.3s-4.6-1.5-8-1.5
	c-3.2,0-6.4,0.9-9.1,2.6c-2.9,1.8-5.3,4.3-6.8,7.4c-1.8,3.4-2.7,7.2-2.6,11c0,6.6,1.8,11.6,5.3,15c3.5,3.4,8.1,5.1,13.7,5.1
	c4.8,0,9.1-1.9,12.7-5.8v5.6h12.2V31.8h7.8v20.9h11.2V11.8H56.4z M40.2,37.1c-1.9,3.8-5,5.8-9.2,5.7c-1.8,0-3.5-0.5-5-1.4
	c-1.6-0.9-2.8-2.3-3.7-3.9c-0.9-1.7-1.4-3.5-1.4-5.4c-0.1-2.8,0.9-5.5,2.8-7.5c1.8-1.9,4.2-3,6.8-3c2.1-0.1,4.2,0.5,6.1,1.7
	c1.7,1,2.9,2.6,3.6,4.4L40.2,37.1z"/>
</svg>
