<?xml version="1.0" encoding="UTF-8"?>
<svg width="120px" height="97px" viewBox="0 0 120 97" version="1.1" xmlns="http://www.w3.org/2000/svg" xmlns:xlink="http://www.w3.org/1999/xlink">
    <!-- Generator: Sketch 54.1 (76490) - https://sketchapp.com -->
    <title>BO_Brand_logo</title>
    <desc>Created with Sketch.</desc>
    <g id="BO_Brand_logo" stroke="none" stroke-width="1" fill="none" fill-rule="evenodd">
        <g id="Group-7" transform="translate(13.000000, 1.000000)" fill-rule="nonzero">
            <path d="M49.5856599,95.0000189 L46.4390863,95.0000189 C46.2100254,94.804232 45.9148985,94.9021255 45.6530457,94.8698158 C44.3493335,94.6351986 43.126196,94.0744764 42.0975381,93.2398666 C40.4733665,92.0372326 39.3155591,90.309467 38.8207614,88.3500189 C38.5692872,87.0610596 38.5305173,85.7396262 38.7059898,84.4381407 C38.8518592,82.9041064 39.4572494,81.4497917 40.4429949,80.2653742 C41.969229,78.2303317 44.2835976,76.9341032 46.8161929,76.6958818 L49.3392386,76.6958818 C51.407432,76.6399804 53.3834513,75.8281621 54.8936041,74.4139529 C56.8529635,72.6219281 57.9253352,70.059064 57.826066,67.4056534 C57.9450102,65.8195268 57.755873,64.2253704 57.2690863,62.7111102 C56.2830115,59.9111097 53.9349897,57.8088026 51.0434518,57.1369732 C49.9996705,56.9122091 48.9310134,56.8246674 47.8645685,56.8765671 C46.2290044,56.846985 44.6322044,56.3736122 43.2447716,55.5070239 C41.0532751,54.36365 39.4681827,52.322782 38.9027411,49.9164909 C38.2092179,47.379226 38.6388033,44.6663049 40.0822843,42.46743 C41.7387546,39.8814689 44.5968122,38.315624 47.6678173,38.3115417 C48.8164975,38.3496381 49.9651777,38.2565671 51.0921574,38.0342574 C52.9657256,37.5903089 54.6411622,36.5422078 55.86,35.0516432 C57.2402098,33.3637415 57.9619844,31.2328531 57.8916497,29.0536229 C57.9350508,27.7486991 57.8024365,26.4442574 57.4986294,25.1740544 C56.793195,22.2374005 54.6364734,19.8646066 51.7803046,18.8828361 C50.6903884,18.5123256 49.536336,18.3680896 48.3887563,18.4589529 C44.0158629,18.7265925 40.0432234,15.9339782 38.8371574,11.7438513 C38.6900304,11.2132174 38.6182784,10.6645253 38.6240102,10.1139021 C38.5649054,9.02643828 38.5978144,7.93592455 38.7223858,6.85400362 C38.8945835,5.9592025 39.2397206,5.10659764 39.7384518,4.34397824 C40.975645,2.33702702 42.9334877,0.879169171 45.2108376,0.269105146 C45.5504745,0.161074671 45.9034608,0.100701845 46.2596954,0.0897142832 C48.5310152,-0.212163889 50.8385025,0.252709207 52.8132487,1.41006961 C55.1089667,2.84546498 56.6324952,5.2419868 56.9580457,7.92986657 C57.0429188,8.70336911 57.0699239,9.48265845 57.0400254,10.2605011 C57.0200918,12.5967864 57.9551605,14.8398713 59.6286548,16.4702219 C60.9060299,17.8252049 62.5923152,18.7241618 64.4292893,19.0294351 C65.2838071,19.1133437 66.1431472,19.1403488 67.0015228,19.1109326 C70.9862183,19.1051458 74.5369036,21.610831 75.8490609,25.3534452 C76.028934,25.858826 75.9797462,26.3965163 76.1601015,26.8855011 L76.1601015,29.8194097 C76.0923779,29.8954565 76.0570725,29.9949691 76.0617259,30.096694 C75.9255889,31.7251862 75.2310632,33.256652 74.0956599,34.4319732 C72.7807997,35.9789611 70.9776527,37.0312504 68.9839848,37.4150696 C67.9031845,37.6086164 66.8033467,37.6741696 65.7072081,37.6103742 C64.0503653,37.5981484 62.4284829,38.0867806 61.0541371,39.012227 C58.7982999,40.5296517 57.3803299,43.0133286 57.2203807,45.7273285 C56.9522589,47.5260595 57.0467766,49.3604757 57.4991117,51.1225569 C58.3401269,54.0931153 60.7156091,56.3875823 63.7247462,57.1369732 C64.798198,57.3848412 65.901066,57.4836991 67.0015228,57.4301711 C68.2713225,57.400575 69.533055,57.6395121 70.7041117,58.1313386 C73.1801829,59.1576459 75.0876807,61.2098164 75.9305584,63.7541813 C76.0945178,64.1944605 75.9305584,64.6834452 76.1928934,65.1237244 L76.1928934,68.3836229 C75.999241,70.3996965 75.0155387,72.2571844 73.4567005,73.5502727 C72.2308118,74.6754786 70.7260981,75.452062 69.0987563,75.7994097 C68.0138694,75.9551616 66.9173856,76.0151898 65.8219797,75.9788006 C64.3309137,76.0207549 62.875533,76.4417447 61.5947208,77.2012625 C59.8582128,78.1923876 58.5029761,79.7357007 57.7445685,81.5857295 C57.4123295,82.4550294 57.2402888,83.3773181 57.2367766,84.3079376 C57.2639969,85.352543 57.2256645,86.3978273 57.1220051,87.4376331 C56.8411782,89.1405655 56.0728541,90.7256213 54.91,92.0010087 C54.0937248,92.9513841 53.0897542,93.7227094 51.9611421,94.2665417 C51.3068702,94.5940487 50.5939273,94.7879809 49.8639086,94.8370239 C49.7506841,94.8445641 49.6476081,94.9049449 49.5856599,95.0000189 Z" id="Path" fill="#85CEF1"></path>
            <path d="M29.8328934,18.8071255 C29.7190863,19.0347397 29.8328934,19.018826 30.0113198,19.0347397 C33.2844641,19.6733601 35.9052225,22.125569 36.7596954,25.3491051 C38.0313452,29.6501458 35.9572589,34.2347397 31.8929949,36.1062879 C30.4479812,36.7358864 28.8761178,37.0200437 27.302132,36.9362117 C24.1279929,36.7823146 21.123093,38.3737205 19.466802,41.085831 C18.7175053,42.2268076 18.2605705,43.5346781 18.1363198,44.894029 C17.9080971,46.6441191 17.9683721,48.4197887 18.3147462,50.1503742 C18.9289511,53.0303114 20.9360303,55.4157744 23.6685025,56.5134452 C24.9482762,57.010548 26.321291,57.2217178 27.6912944,57.1321508 C30.3151273,56.9725948 32.8731542,57.9929761 34.666802,59.9146381 C36.5289148,61.8281865 37.3978627,64.4973778 37.0191371,67.1404249 C36.6815736,70.8217955 34.0910152,73.9013386 30.530203,74.854232 C29.3925975,75.2394004 28.1757402,75.3290095 26.9939848,75.1146381 C23.4867005,74.7023285 20.5436294,72.2718716 19.4663198,68.8981661 C19.0995631,67.7929315 18.956293,66.6257888 19.0448477,65.4646635 C19.2422513,63.2586239 18.5337119,61.0672004 17.0821574,59.3943082 C15.9362994,57.967118 14.3873556,56.9179093 12.6369289,56.3832422 C11.6917784,56.1250563 10.7122596,56.0152448 9.73340102,56.0577346 C5.57317259,56.3499681 1.75098985,53.7574808 0.470659898,49.776161 C0.327303468,49.4343344 0.239553443,49.0717754 0.210736041,48.702227 C0.210736041,48.5720239 0.210736041,48.4254249 3.97903932e-13,48.4254249 L3.97903932e-13,45.5937498 C0.194822335,45.5937498 0.194822335,45.4635468 0.210736041,45.3333437 C0.328401015,44.549232 0.574822335,43.7901965 0.940837563,43.0875823 C2.43542215,39.89875 5.67770579,37.8988084 9.19812183,37.994232 C10.1700717,38.0270601 11.1428519,37.9616264 12.1016497,37.7989275 C16.3322843,36.8325315 19.2811421,32.9862371 19.1258629,28.6364909 C18.7964975,24.3446128 21.5003807,20.4042828 25.614797,19.1813386 C25.9716497,19.0839275 26.4259137,19.1813386 26.6853553,18.8071255 L29.8328934,18.8071255 L29.8328934,18.8071255 Z M95,47.5159326 C94.9821574,52.4395366 90.9858883,56.4213386 86.0627665,56.4213386 C81.1353046,56.4126584 77.1486802,52.4110848 77.1573604,47.4841051 C77.1660406,42.5566432 81.1676142,38.5700189 86.0945939,38.5786991 C91.0220558,38.5873793 95.0086802,42.5889529 95,47.5159326 Z" id="Shape" fill="#229BD8"></path>
        </g>
    </g>
</svg>