<svg xmlns="http://www.w3.org/2000/svg" width="120" height="97" viewBox="0 0 600 197">
    <g fill="none" fill-rule="nonzero">
        <path fill="#85CEF1" d="M102.825 197H96.3c-.475-.406-1.087-.203-1.63-.27a16.278 16.278 0 0 1-7.373-3.38 18.145 18.145 0 0 1-6.795-10.14 24.952 24.952 0 0 1-.238-8.112 15.876 15.876 0 0 1 3.602-8.653 18.71 18.71 0 0 1 13.216-7.402h5.232a17.544 17.544 0 0 0 11.518-4.732 18.745 18.745 0 0 0 6.081-14.533 25.563 25.563 0 0 0-1.155-9.735 18.008 18.008 0 0 0-12.91-11.559 25.44 25.44 0 0 0-6.592-.54 18.723 18.723 0 0 1-9.58-2.84 17.623 17.623 0 0 1-9.004-11.593 19.013 19.013 0 0 1 2.446-15.447 18.71 18.71 0 0 1 15.73-8.618c2.382.079 4.764-.114 7.101-.575a18.189 18.189 0 0 0 9.887-6.185 18.696 18.696 0 0 0 4.213-12.438c.09-2.706-.185-5.411-.815-8.045a18.32 18.32 0 0 0-11.858-13.046 17.548 17.548 0 0 0-7.033-.879c-9.068.555-17.306-5.236-19.807-13.925a12.176 12.176 0 0 1-.442-3.38 40.082 40.082 0 0 1 .204-6.76 14.525 14.525 0 0 1 2.107-5.205A19.153 19.153 0 0 1 93.753.558a7.988 7.988 0 0 1 2.175-.372c4.71-.626 9.495.338 13.59 2.738a18.58 18.58 0 0 1 8.595 13.52c.176 1.604.232 3.22.17 4.833a17.766 17.766 0 0 0 5.368 12.877 17.66 17.66 0 0 0 9.955 5.307c1.772.174 3.554.23 5.334.169 8.263-.012 15.626 5.184 18.347 12.945.373 1.048.271 2.163.645 3.177v6.084a.809.809 0 0 0-.204.575 14.702 14.702 0 0 1-4.077 8.99 18.502 18.502 0 0 1-10.6 6.186 28.992 28.992 0 0 1-6.795.405 17.05 17.05 0 0 0-9.649 2.907 18.063 18.063 0 0 0-7.95 13.925c-.556 3.73-.36 7.534.578 11.188 1.744 6.16 6.67 10.918 12.91 12.472 2.226.514 4.513.719 6.795.608a18.703 18.703 0 0 1 7.678 1.454 19.136 19.136 0 0 1 10.838 11.66c.34.913 0 1.927.544 2.84v6.76a15.895 15.895 0 0 1-5.674 10.714 19.332 19.332 0 0 1-9.037 4.664 38.76 38.76 0 0 1-6.795.372c-3.092.087-6.11.96-8.766 2.535a18.586 18.586 0 0 0-7.984 9.092 15.981 15.981 0 0 0-1.053 5.645 51.817 51.817 0 0 1-.238 6.49 18.517 18.517 0 0 1-4.587 9.463 18.844 18.844 0 0 1-6.115 4.698 11.427 11.427 0 0 1-4.349 1.183.748.748 0 0 0-.577.338z"/>
        <path fill="#229BD8" d="M61.864 39c-.236.472 0 .439.37.472a18.054 18.054 0 0 1 13.994 13.094c2.637 8.919-1.664 18.426-10.092 22.307a21.033 21.033 0 0 1-9.52 1.721 18.016 18.016 0 0 0-16.248 8.605 17.246 17.246 0 0 0-2.759 7.897 33.48 33.48 0 0 0 .37 10.9 18.343 18.343 0 0 0 11.102 13.195 19.522 19.522 0 0 0 8.342 1.283 18.27 18.27 0 0 1 14.465 5.77 17.854 17.854 0 0 1 4.878 14.984c-.7 7.634-6.072 14.02-13.456 15.996a14.69 14.69 0 0 1-7.333.54c-7.273-.855-13.376-5.895-15.61-12.891a18.21 18.21 0 0 1-.874-7.12 16.908 16.908 0 0 0-4.07-12.588 18.903 18.903 0 0 0-9.218-6.244 19.62 19.62 0 0 0-6.021-.675c-8.627.606-16.553-4.77-19.208-13.026a7.207 7.207 0 0 1-.539-2.227c0-.27 0-.574-.437-.574v-5.872c.404 0 .404-.27.437-.54.244-1.626.755-3.2 1.514-4.657a18.361 18.361 0 0 1 17.123-10.562 29.947 29.947 0 0 0 6.021-.405c8.773-2.004 14.888-9.98 14.566-19-.683-8.9 4.924-17.071 13.456-19.607.74-.202 1.682 0 2.22-.776h6.527zM197 98.533c-.037 10.21-8.324 18.467-18.533 18.467-10.218-.018-18.485-8.316-18.467-18.533.018-10.218 8.316-18.485 18.533-18.467 10.218.018 18.485 8.316 18.467 18.533z"/>
        <path fill="#FFF" d="M274.815 74.7h-17.594L253.777 85H243l17.801-47h12.534L290 85h-11.741l-3.444-10.3zm-2.823-8.376l-6.026-17.75-5.922 17.75h11.948zM331.83 63.893a10.918 10.918 0 0 1 2.147 6.858 12.446 12.446 0 0 1-4.838 10.63 20.347 20.347 0 0 1-12.436 3.6H295V38.039h19.795c4.354-.26 8.682.828 12.402 3.12a11.312 11.312 0 0 1 4.395 9.773 9.878 9.878 0 0 1-5.758 8.813c2.375.73 4.468 2.18 5.997 4.15zm-25.484-7.441h9.097a4.885 4.885 0 0 0 3.407-1.097 4.128 4.128 0 0 0 1.362-3.43c0-3.428-1.771-5.074-5.315-5.074h-8.551v9.601zm14.139 18.483a5.194 5.194 0 0 0 1.874-4.492 4.676 4.676 0 0 0-1.908-4.218 8.272 8.272 0 0 0-4.804-1.269h-9.301v11.316h9.505a6.783 6.783 0 0 0 4.634-1.337zM349.865 84.383a24.678 24.678 0 0 1-7.04-2.458v-10.64a22.58 22.58 0 0 0 6.94 3.839 23.112 23.112 0 0 0 7.635 1.347c4.264 0 6.38-1.616 6.38-4.916a3.745 3.745 0 0 0-2.05-3.367 35.976 35.976 0 0 0-6.61-2.727l-2.578-.91a19.743 19.743 0 0 1-7.701-4.477 11.549 11.549 0 0 1-2.81-8.451 14.447 14.447 0 0 1 1.918-7.306 13.601 13.601 0 0 1 5.916-5.32 21.503 21.503 0 0 1 9.717-1.986c2.31-.038 4.618.2 6.874.707a35.054 35.054 0 0 1 6.148 2.323v10.673a29.607 29.607 0 0 0-6.214-3.603 15.945 15.945 0 0 0-6.61-1.481 8.437 8.437 0 0 0-4.792 1.212 4.36 4.36 0 0 0-1.757 3.057 4.396 4.396 0 0 0 1.063 3.374 7.26 7.26 0 0 0 2.677 1.784c1.057.404 2.776.977 5.123 1.717A35.013 35.013 0 0 1 369 59.535c3.878 2.036 6.22 6.202 5.982 10.64A15.027 15.027 0 0 1 373 77.649a13.558 13.558 0 0 1-5.585 5.354 18.39 18.39 0 0 1-8.726 1.986 49.397 49.397 0 0 1-8.824-.606zM387.967 78.916a24.773 24.773 0 0 1-5.897-17.986 25.078 25.078 0 0 1 5.796-17.852 21.814 21.814 0 0 1 16.553-6.03 22.214 22.214 0 0 1 16.486 5.996 24.467 24.467 0 0 1 6.031 17.818 25.112 25.112 0 0 1-5.797 17.92 21.748 21.748 0 0 1-16.753 6.164c-6.064.338-12-1.842-16.42-6.03zm24.628-6.736a18.399 18.399 0 0 0 2.781-11.419 18.162 18.162 0 0 0-2.748-11.35 9.793 9.793 0 0 0-8.209-3.37 9.66 9.66 0 0 0-8.142 3.37 18.772 18.772 0 0 0-2.714 11.451c-.341 3.969.612 7.941 2.714 11.318a11.363 11.363 0 0 0 8.159 3.46c3.072 0 6.015-1.248 8.159-3.46zM436 38h11.124v38.04H467V85h-31zM480.255 81.23c-3.717-3.712-5.621-8.913-5.196-14.195V38h11.56v28.56a12.145 12.145 0 0 0 2.131 7.929 8.22 8.22 0 0 0 6.663 2.575 8.386 8.386 0 0 0 6.663-2.643c1.7-2.24 2.53-5.038 2.332-7.86V38h10.527v29.069c.444 5.242-1.395 10.419-5.03 14.162a19.577 19.577 0 0 1-13.859 4.71 23.34 23.34 0 0 1-15.79-4.71zM535.835 46.789H523V38h37v8.789h-13.035V85h-11.13zM569 38h31v8.77h-19.922v10.277h17.292v8.872h-17.292v10.277H600V85h-30.836zM268.096 117.56c1.854.89 2.992 2.76 2.899 4.765v20.578a8.915 8.915 0 0 1-2.524 6.385c-2.457 2.023-5.661 2.98-8.865 2.647a17.558 17.558 0 0 1-3.41-.298 27.619 27.619 0 0 1-2.66-.562l-1.466-.331v-3.308c1.364.364 2.591.661 3.614.86a18.26 18.26 0 0 0 3.41.298 9.706 9.706 0 0 0 6.41-1.522 5.275 5.275 0 0 0 1.603-3.937v-1.952a23.69 23.69 0 0 1-3.648 1.058c-1.117.268-2.26.412-3.41.43-3.35.266-6.646-.95-8.968-3.308a13.55 13.55 0 0 1-3.001-9.396c-.435-3.948.921-7.885 3.717-10.785 2.55-2.118 5.816-3.249 9.172-3.176a15.141 15.141 0 0 1 7.127 1.555zm-13.946 19.156c1.459 1.756 3.718 2.697 6.035 2.515a13.645 13.645 0 0 0 3.41-.463 12.982 12.982 0 0 0 3.41-1.324v-14.623c.121-1.144-.524-2.236-1.603-2.713a10.51 10.51 0 0 0-4.33-.728c-2.719-.316-5.417.731-7.161 2.78a13.567 13.567 0 0 0-1.91 7.642c-.084 2.47.671 4.9 2.149 6.914zM281 143v-35h4v35zM294.05 140.322a15.818 15.818 0 0 1-3.012-10.408 15.568 15.568 0 0 1 3.047-10.408c2.303-2.433 5.535-3.702 8.834-3.47 3.423-.282 6.779 1.092 9.071 3.713a15.923 15.923 0 0 1 2.98 10.165 15.527 15.527 0 0 1-3.149 10.408 12.571 12.571 0 0 1-17.77 0zm17.162-10.408a13.085 13.085 0 0 0-1.93-7.702c-1.544-1.895-3.896-2.893-6.295-2.672-5.484 0-8.192 3.47-8.192 10.409 0 6.938 2.708 10.408 8.192 10.408 5.483 0 8.225-3.435 8.225-10.443zM341.873 120.758c2.17 2.673 3.255 6.022 3.05 9.415.426 3.94-.922 7.866-3.701 10.775-2.4 2.02-5.489 3.106-8.669 3.05-6.853 0-10.553-1.69-10.553-5.106V107h3.803v11.835a29.933 29.933 0 0 1 3.666-1.06 18.984 18.984 0 0 1 3.427-.432c3.373-.24 6.676 1.017 8.977 3.415zm-2.844 17.074a13.853 13.853 0 0 0 1.885-7.659 11.032 11.032 0 0 0-1.954-6.928c-1.466-1.76-3.736-2.703-6.064-2.52a14.138 14.138 0 0 0-3.632.464 13.52 13.52 0 0 0-3.426 1.326v15.515c0 .995.616 1.658 1.85 2.023 1.422.411 2.902.601 4.386.563 2.708.36 5.41-.7 7.092-2.784h-.137zM371.512 118.206c1.702 1.606 2.612 3.95 2.466 6.357v12.957c.204 2.228-1.018 4.328-2.992 5.142a21.02 21.02 0 0 1-8.254 1.32 12.17 12.17 0 0 1-6.84-1.876c-1.942-1.395-3.032-3.779-2.86-6.253-.218-2.591.69-5.146 2.466-6.948 1.973-1.537 4.392-2.3 6.84-2.153 2.762-.127 5.507.52 7.957 1.875v-3.126c0-3.995-2.203-5.975-6.576-5.975-1.489.005-2.97.215-4.407.625a10.306 10.306 0 0 0-3.748 1.946v-3.89a11.889 11.889 0 0 1 4.143-1.599c1.694-.4 3.426-.598 5.162-.59 2.393-.147 4.754.63 6.643 2.188zm-2.795 21.78c.974-.25 1.638-1.2 1.578-2.257v-5.975a12.93 12.93 0 0 0-3.288-1.077 17.157 17.157 0 0 0-3.815-.417 8.256 8.256 0 0 0-4.9 1.285c-1.125.967-1.753 2.438-1.695 3.97.058 1.53.796 2.943 1.992 3.812a9.161 9.161 0 0 0 4.9 1.25c1.759.095 3.522-.092 5.228-.556v-.034zM383 143v-35h4v35zM445.58 118.461c1.718 1.987 2.582 4.612 2.395 7.272v17.233h-3.691v-17.233c0-4.17-2.294-6.238-6.85-6.238a11.43 11.43 0 0 0-6.184 1.792c.467 1.432.692 2.936.665 4.446v17.233h-3.691v-17.233c0-4.17-2.294-6.238-6.883-6.238a22.78 22.78 0 0 0-6.65 1.069V143H411v-24.366a23.023 23.023 0 0 1 10.806-2.585 11.242 11.242 0 0 1 7.482 2.171 17.127 17.127 0 0 1 8.579-2.171c2.776-.271 5.545.594 7.714 2.412zM476.512 118.2c1.702 1.607 2.612 3.951 2.466 6.358v12.96c.204 2.23-1.018 4.33-2.992 5.143a21.015 21.015 0 0 1-8.254 1.32 12.169 12.169 0 0 1-6.84-1.876c-1.942-1.395-3.032-3.78-2.86-6.254-.218-2.592.69-5.148 2.466-6.95 1.973-1.537 4.392-2.3 6.84-2.154 2.806-.148 5.599.5 8.089 1.877v-3.127c0-3.996-2.236-5.977-6.577-5.977a16.24 16.24 0 0 0-4.406.626 10.305 10.305 0 0 0-3.749 1.945V118.2a11.954 11.954 0 0 1 4.11-1.598c1.706-.401 3.449-.6 5.196-.591 2.348-.113 4.657.663 6.51 2.189zm-2.795 21.786c.974-.25 1.638-1.202 1.578-2.259v-5.976a12.928 12.928 0 0 0-3.288-1.077 17.153 17.153 0 0 0-3.815-.417 8.192 8.192 0 0 0-4.9 1.285c-1.15.95-1.8 2.43-1.74 3.972.058 1.543.817 2.962 2.037 3.812a9.16 9.16 0 0 0 4.9 1.25c1.759.095 3.522-.092 5.228-.556v-.034zM488 118.59a39.663 39.663 0 0 1 4.975-1.726 23.226 23.226 0 0 1 6.42-.864c.544.037 1.083.141 1.605.311v3.453c-.791-.05-1.584-.05-2.375 0a20.495 20.495 0 0 0-3.018.207l-4.012.69V143h-3.563L488 118.59zM522.963 143l-12.185-12.008V143H507v-35h3.778v19.034l10.62-9.369h4.73l-12.865 10.952L528 143zM550.302 119.949a17.425 17.425 0 0 1 2.66 10.476h-19.098a11.11 11.11 0 0 0 2.217 7.403 7.684 7.684 0 0 0 6.275 2.584 16.738 16.738 0 0 0 9.003-2.305v3.981a20.686 20.686 0 0 1-9.208 1.886c-3.323.229-6.577-1.048-8.9-3.492a15.544 15.544 0 0 1-3.206-10.476 15.662 15.662 0 0 1 3-10.476c2.179-2.406 5.294-3.687 8.492-3.492 3.38-.298 6.678 1.173 8.765 3.911zm-14.017 1.187a9.2 9.2 0 0 0-2.25 5.832h14.937a8.747 8.747 0 0 0-2.046-5.622 7.291 7.291 0 0 0-5.389-1.85 7.55 7.55 0 0 0-5.252 1.64zM565.323 140.501a6.61 6.61 0 0 1-1.816-4.923v-15.967H559v-3.326h4.507V109h3.7v7.252h6.726v3.326h-6.727v14.902a5.967 5.967 0 0 0 .74 3.327 3.113 3.113 0 0 0 2.69.998 8.049 8.049 0 0 0 3.364-.599v3.326a12.73 12.73 0 0 1-1.85.433c-.694.047-1.39.047-2.085 0a6.471 6.471 0 0 1-4.742-1.464zM583.9 143.44a18.561 18.561 0 0 1-3.9-1.704v-4.068a26.977 26.977 0 0 0 4.126 2.19c1.253.416 2.559.615 3.869.591a6.404 6.404 0 0 0 4.03-1.182c.976-.641 1.565-1.792 1.547-3.025.075-.948-.272-1.877-.935-2.504a10.453 10.453 0 0 0-2.966-1.67l-1.29-.59a43.842 43.842 0 0 1-4.383-1.565 6.769 6.769 0 0 1-2.74-2.19 6.531 6.531 0 0 1-1.161-4.07 7.34 7.34 0 0 1 1.225-4.277 7.581 7.581 0 0 1 3.224-2.573 11.274 11.274 0 0 1 4.19-.8 9.288 9.288 0 0 1 3.224.487c1.283.46 2.542.994 3.772 1.6v3.86c-1.676-.904-2.934-1.53-3.804-1.878a7.65 7.65 0 0 0-3.224-.556 7.099 7.099 0 0 0-3.74.938c-.938.488-1.53 1.52-1.515 2.643-.042.84.225 1.665.742 2.295a5.504 5.504 0 0 0 1.934 1.391c1.055.427 2.13.787 3.224 1.078 1.676.591 2.966 1.113 3.965 1.565a6.889 6.889 0 0 1 2.58 2.226 6.767 6.767 0 0 1 1.095 4.103 7.636 7.636 0 0 1-1.29 4.555 7.808 7.808 0 0 1-3.223 2.782 10.69 10.69 0 0 1-4.288.904 14.347 14.347 0 0 1-4.287-.556z"/>
    </g>
</svg>
