<?xml version="1.0" encoding="UTF-8"?>
<svg width="120px" height="97px" viewBox="0 0 120 97" version="1.1" xmlns="http://www.w3.org/2000/svg" xmlns:xlink="http://www.w3.org/1999/xlink">
    <!-- Generator: Sketch 54.1 (76490) - https://sketchapp.com -->
    <title>BO_Brand_logo</title>
    <desc>Created with Sketch.</desc>
    <defs>
        <linearGradient x1="2.64078699e-05%" y1="49.9998808%" x2="99.9999748%" y2="49.9998808%" id="linearGradient-1">
            <stop stop-color="#FCEECC" offset="0%"></stop>
            <stop stop-color="#FCEDC5" offset="9.24%"></stop>
            <stop stop-color="#FCEBB1" offset="22.73%"></stop>
            <stop stop-color="#FDE791" offset="38.82%"></stop>
            <stop stop-color="#FEE265" offset="56.92%"></stop>
            <stop stop-color="#FEDB2D" offset="76.44%"></stop>
            <stop stop-color="#FFD600" offset="90.36%"></stop>
        </linearGradient>
        <linearGradient x1="4.41809508e-05%" y1="49.9998876%" x2="100%" y2="49.9998876%" id="linearGradient-2">
            <stop stop-color="#FCEECC" offset="0%"></stop>
            <stop stop-color="#FCEDC5" offset="9.24%"></stop>
            <stop stop-color="#FCEBB1" offset="22.73%"></stop>
            <stop stop-color="#FDE791" offset="38.82%"></stop>
            <stop stop-color="#FEE265" offset="56.92%"></stop>
            <stop stop-color="#FEDB2D" offset="76.44%"></stop>
            <stop stop-color="#FFD600" offset="90.36%"></stop>
        </linearGradient>
    </defs>
    <g id="BO_Brand_logo" stroke="none" stroke-width="1" fill="none" fill-rule="evenodd">
        <g id="logo-alliance-capital" transform="translate(8.000000, -3.000000)" fill-rule="nonzero">
            <g id="Слой_1" transform="translate(4.015595, 4.818356)">
                <g id="Group">
                    <path d="M78.759462,16.6426004 C88.5400448,27.6396941 92.5036374,43.3306692 87.8499649,58.4205545 C80.7670585,81.3874474 56.4052495,94.2643021 33.4366511,87.1819216 C27.2853626,85.2850956 21.8590897,82.1481453 17.3449591,78.1316444 C22.450386,83.8721128 29.1405673,88.3339101 37.0179591,90.7629637 C59.9865575,97.8453442 84.3481657,84.9684895 91.4312729,62.0015966 C96.6174133,45.1853346 91.101191,27.6236329 78.759462,16.6426004 Z" id="Path" fill="url(#linearGradient-1)"></path>
                    <path d="M4.67314815,32.7726482 C11.7562554,9.80575526 36.1178635,-3.07130019 59.086462,4.01128107 C65.6417193,6.03258126 71.3733782,9.46304971 76.0553606,13.8650191 C71.0589571,8.54695985 64.6562924,4.41321224 57.1842749,2.10923518 C34.2156764,-4.97334608 9.85406823,7.9035086 2.77096101,30.8706023 C-2.29049513,47.2827247 2.84284016,64.4043499 14.5655653,75.4261377 C4.20332359,64.3963193 -0.105610136,48.2680784 4.67314815,32.7726482 Z" id="Path" fill="url(#linearGradient-2)"></path>
                    <g transform="translate(12.849903, 29.512428)" fill="#FFFFFF">
                        <path d="M6.60143665,0.45914914 L7.38969786,0.45914914 C7.58766667,0.45914914 7.85410136,1.5709847 8.18920273,3.79445507 C8.29581676,4.04581262 9.19450682,8.3560325 10.8852729,16.724914 L10.7254522,16.8048184 L7.78945029,16.8048184 C7.59891033,16.8048184 7.33629045,15.6168929 7.00118908,13.2410421 L3.82545614,13.2410421 C3.45220663,15.6168929 3.18557115,16.8048184 3.02575049,16.8048184 L0.170060429,16.8048184 L0.0102397661,16.724914 C1.91403314,7.45740918 2.97274464,2.48466539 3.18597271,1.80688337 C3.58170955,0.908460803 4.72033138,0.45914914 6.60143665,0.45914914 Z M5.33351267,4.18293499 L5.33351267,4.26283939 C4.64042105,8.5198566 4.29387524,10.743327 4.29387524,10.933652 L6.4414152,10.933652 L6.60143665,10.8537476 C5.91597466,6.74931166 5.57324366,4.52543977 5.57324366,4.18273423 L5.33351267,4.18273423 L5.33351267,4.18293499 Z" id="Shape"></path>
                        <path d="M15.1719201,0.45914914 L15.8001598,0.45914914 C15.9067739,0.474407266 15.9599805,0.527609943 15.9599805,0.618957935 L15.9599805,14.4289675 L20.64377,14.4289675 C20.750384,14.4444264 20.8035906,14.4974283 20.8035906,14.5889771 L20.8035906,16.6450096 C20.8035906,16.7516157 20.7501832,16.8048184 20.64377,16.8048184 L12.7842476,16.8048184 L12.7842476,2.75489484 C12.7844483,1.361587 13.5803392,0.596271511 15.1719201,0.45914914 Z" id="Path"></path>
                        <path d="M25.0906394,0.45914914 L25.7188791,0.45914914 C25.8254932,0.474407266 25.8786998,0.527609943 25.8786998,0.618957935 L25.8786998,14.4289675 L30.5624893,14.4289675 C30.6691033,14.4444264 30.7223099,14.4974283 30.7223099,14.5889771 L30.7223099,16.6450096 C30.7223099,16.7516157 30.6689025,16.8048184 30.5624893,16.8048184 L22.7029669,16.8048184 L22.7029669,2.75489484 C22.7031676,1.361587 23.4988577,0.596271511 25.0906394,0.45914914 Z" id="Path"></path>
                        <path d="M35.2492904,0.45914914 L35.7177096,0.45914914 C35.8241228,0.474407266 35.8775302,0.527609943 35.8775302,0.618957935 L35.8775302,16.6450096 C35.8775302,16.7516157 35.8241228,16.8048184 35.7177096,16.8048184 L32.7817076,16.8048184 C32.6750936,16.8048184 32.6218869,16.7516157 32.6218869,16.6450096 L32.6218869,3.63444551 C32.6218869,2.06586998 33.0483431,1.08332696 33.9014561,0.687418738 C34.3961774,0.535439771 34.8453216,0.45914914 35.2492904,0.45914914 Z" id="Path"></path>
                        <path d="M44.3681033,0.45914914 L45.1563645,0.45914914 C45.3541326,0.45914914 45.620768,1.5709847 45.9558694,3.79445507 C46.0624834,4.04581262 46.9611735,8.3560325 48.6519396,16.724914 L48.4919181,16.8048184 L45.556117,16.8048184 C45.3657778,16.8048184 45.1029571,15.6168929 44.7678558,13.2410421 L41.5921228,13.2410421 C41.2190741,15.6168929 40.9524386,16.8048184 40.7926179,16.8048184 L37.9367271,16.8048184 L37.7767057,16.724914 C39.680499,7.45740918 40.7392105,2.48466539 40.9524386,1.80688337 C41.3483762,0.908460803 42.4869981,0.45914914 44.3681033,0.45914914 Z M43.1001793,4.18293499 L43.1001793,4.26283939 C42.4070877,8.5198566 42.0605419,10.743327 42.0605419,10.933652 L44.2080819,10.933652 L44.3681033,10.8537476 C43.6826413,6.74931166 43.3399103,4.52543977 43.3399103,4.18273423 L43.1001793,4.18273423 L43.1001793,4.18293499 Z" id="Shape"></path>
                        <path d="M52.7675224,0.45914914 L53.3272963,0.45914914 C53.8071598,1.23590822 55.2881111,4.80751434 57.7709532,11.173566 L57.7709532,11.2534704 L57.8508635,11.2534704 L57.8508635,11.173566 C57.6908421,10.4502103 57.6111326,9.78768642 57.6111326,9.18599426 L57.6111326,0.618957935 C57.6338207,0.512351816 57.6870273,0.45914914 57.7709532,0.45914914 L60.4782671,0.45914914 C60.5772515,0.474407266 60.6268441,0.527609943 60.6268441,0.618957935 L60.6268441,16.6450096 C60.6268441,16.7516157 60.5772515,16.8048184 60.4782671,16.8048184 L57.7709532,16.8048184 C57.6111326,16.8048184 56.1562827,13.4464245 53.4072066,6.73003824 L53.3274971,6.73003824 L53.3274971,6.80994264 C53.4873177,7.52586998 53.5672281,8.18457935 53.5672281,8.78607075 L53.5672281,16.6450096 C53.5672281,16.7516157 53.5138207,16.8048184 53.4072066,16.8048184 L50.7113372,16.8048184 C50.6045224,16.8048184 50.5513158,16.7516157 50.5513158,16.6450096 L50.5513158,3.31462715 C50.551115,1.41117591 51.2897836,0.45914914 52.7675224,0.45914914 Z" id="Path"></path>
                        <path d="M67.0497875,0.139330784 L67.8380487,0.139330784 C70.107462,0.139330784 71.5392222,1.17126195 72.1333294,3.23492352 C72.2397427,3.46339388 72.2933509,3.88600382 72.2933509,4.50275335 L72.2933509,5.77058317 C72.2933509,5.87739006 72.2397427,5.93039197 72.1333294,5.93039197 L71.5735556,5.93039197 C70.4540078,5.93039197 69.6848207,5.56118547 69.2659942,4.82237094 C69.121232,4.51781071 68.9118187,3.85548757 68.6377544,2.83479924 C68.241616,2.56838432 67.895271,2.43507648 67.598117,2.43507648 L67.3696296,2.43507648 C66.3111189,2.43507648 65.7818635,2.99119503 65.7818635,4.10282983 L65.7818635,13.1611377 C65.7818635,14.273174 66.2575107,14.828891 67.2096082,14.828891 L67.3696296,14.828891 C68.4279396,14.828891 68.9573957,14.299675 68.9573957,13.2410421 L68.9573957,11.0936616 C68.972655,10.9870554 69.0260624,10.933652 69.1174172,10.933652 L72.1333294,10.933652 C72.2397427,10.9491109 72.2933509,11.0021128 72.2933509,11.0936616 L72.2933509,12.2016826 C72.2933509,15.4839866 70.7282729,17.1248375 67.598117,17.1248375 L67.1296979,17.1248375 C64.9516394,17.1248375 63.5198791,16.2796176 62.8344172,14.5889771 C62.6288187,14.0103728 62.5260195,13.3211472 62.5260195,12.521501 L62.5260195,4.34274379 C62.5260195,2.56095602 63.2646881,1.31962715 64.7422261,0.618957935 C65.5035828,0.299139579 66.2729708,0.139330784 67.0497875,0.139330784 Z" id="Path"></path>
                        <path d="M74.352347,0.45914914 L82.2915789,0.45914914 C82.398193,0.474407266 82.4516004,0.527609943 82.4516004,0.618957935 C82.4516004,2.09638623 81.9755517,2.835 81.023655,2.835 L77.3682593,2.835 L77.3682593,7.05005736 L80.8638343,7.05005736 C80.9702476,7.06551625 81.023655,7.1149044 81.023655,7.19862333 L81.023655,9.34620459 C81.023655,9.45281071 80.9702476,9.50601338 80.8638343,9.50601338 L77.3682593,9.50601338 L77.3682593,14.2693595 L82.2915789,14.2693595 C82.398193,14.2846176 82.4516004,14.3378203 82.4516004,14.4291683 L82.4516004,16.6452103 C82.4516004,16.7518164 82.398193,16.8050191 82.2915789,16.8050191 L74.352347,16.8050191 C74.2455322,16.8050191 74.1923255,16.7518164 74.1923255,16.6452103 L74.1923255,0.6191587 C74.2075848,0.512552581 74.2609922,0.45914914 74.352347,0.45914914 Z" id="Path"></path>
                        <path d="M4.53380702,28.211673 L5.32206823,28.211673 C7.59148148,28.211673 9.0234425,29.2436042 9.61734893,31.307065 C9.72396296,31.5357361 9.77716959,31.9581453 9.77716959,32.5748948 L9.77716959,33.8427247 C9.77716959,33.9495315 9.72376218,34.0027342 9.61734893,34.0027342 L9.05757505,34.0027342 C7.93802729,34.0027342 7.16884016,33.6335277 6.75001365,32.8947132 C6.60525146,32.590153 6.39583821,31.9278298 6.12177388,30.9071415 C5.72563548,30.6407266 5.37929045,30.5074187 5.08213645,30.5074187 L4.85364912,30.5074187 C3.79493762,30.5074187 3.26568226,31.0635373 3.26568226,32.1751721 L3.26568226,41.2334799 C3.26568226,42.3453155 3.74153021,42.9012333 4.69362768,42.9012333 L4.85364912,42.9012333 C5.91195906,42.9012333 6.4414152,42.3720172 6.4414152,41.3133843 L6.4414152,39.1660038 C6.45667446,39.0595985 6.51008187,39.006195 6.60143665,39.006195 L9.61734893,39.006195 C9.72396296,39.0214532 9.77716959,39.0746558 9.77716959,39.1660038 L9.77716959,40.2742256 C9.77716959,43.5565296 8.21209162,45.1971797 5.08213645,45.1971797 L4.61371735,45.1971797 C2.43545809,45.1971797 1.00389864,44.3519598 0.318436647,42.6613193 C0.112838207,42.0827151 0.0100389864,41.3934895 0.0100389864,40.5938432 L0.0100389864,32.4152868 C0.0100389864,30.6332983 0.748707602,29.3919694 2.22624561,28.6913002 C2.98760234,28.3714818 3.75699025,28.211673 4.53380702,28.211673 Z" id="Path"></path>
                        <path d="M18.2679435,28.5314914 L19.0562047,28.5314914 C19.2541735,28.5314914 19.5206082,29.643327 19.8557096,31.8667973 C19.9623236,32.1181549 20.8610136,36.4285755 22.5517797,44.7972562 L22.3919591,44.8771606 L19.4559571,44.8771606 C19.2654172,44.8771606 19.0027973,43.6892352 18.6676959,41.3131836 L15.491963,41.3131836 C15.1187135,43.6892352 14.852078,44.8771606 14.6922573,44.8771606 L11.8363665,44.8771606 L11.6765458,44.7972562 C13.5803392,35.5297514 14.6390507,30.5570076 14.8522788,29.8792256 C15.2482164,28.9810038 16.3868382,28.5314914 18.2679435,28.5314914 Z M16.9998187,32.2552772 L16.9998187,32.3351816 C16.3067271,36.5919981 15.9601813,38.8156692 15.9601813,39.006195 L18.1077212,39.006195 L18.2677427,38.9262906 C17.5822807,34.8218547 17.2395497,32.5979828 17.2395497,32.2552772 L16.9998187,32.2552772 Z" id="Shape"></path>
                        <path d="M27.5467778,28.5314914 L29.2945653,28.5314914 C31.6477037,28.5314914 33.1288558,29.3502103 33.7382222,30.9872467 C33.9514503,31.6726577 34.0580643,32.4684895 34.0580643,33.3747419 C34.0580643,35.7658509 33.1059669,37.3269981 31.2021735,38.0579828 C30.7984055,38.1645889 30.4253567,38.2179924 30.0826257,38.2179924 L27.7065984,38.2179924 L27.7065984,44.7173518 C27.7065984,44.8241587 27.653191,44.8773614 27.5467778,44.8773614 L24.6107758,44.8773614 C24.5041618,44.8773614 24.4509552,44.8241587 24.4509552,44.7173518 L24.4509552,31.307065 C24.4509552,29.4568164 25.4827622,28.5314914 27.5467778,28.5314914 Z M27.7065984,30.9073423 L27.7065984,35.8304971 L29.0546335,35.8304971 C30.2197583,35.8304971 30.8024211,35.0613671 30.8024211,33.5231071 L30.8024211,33.3747419 C30.8024211,31.7298757 30.1930546,30.9073423 28.9745224,30.9073423 L27.7065984,30.9073423 Z" id="Shape"></path>
                        <path d="M38.5848441,28.5314914 L39.0532632,28.5314914 C39.1596764,28.5467495 39.2132846,28.5999522 39.2132846,28.6913002 L39.2132846,44.7173518 C39.2132846,44.8241587 39.1596764,44.8773614 39.0532632,44.8773614 L36.1172612,44.8773614 C36.0106472,44.8773614 35.9574405,44.8241587 35.9574405,44.7173518 L35.9574405,31.7069885 C35.9574405,30.138413 36.3838967,29.15587 37.236809,28.759761 C37.7319318,28.607782 38.181076,28.5314914 38.5848441,28.5314914 Z" id="Path"></path>
                        <path d="M43.5683977,28.5314914 L50.7195692,28.5314914 C50.8259825,28.5467495 50.8795906,28.5999522 50.8795906,28.6913002 L50.8795906,30.7475335 C50.8795906,30.8541396 50.8259825,30.9073423 50.7195692,30.9073423 L47.6237466,30.9073423 L47.6237466,44.7173518 C47.6237466,44.8241587 47.5703392,44.8773614 47.4637251,44.8773614 L44.527924,44.8773614 C44.4213099,44.8773614 44.3681033,44.8241587 44.3681033,44.7173518 L44.3681033,30.9073423 L41.2722807,30.9073423 C41.1654659,30.9073423 41.1122593,30.8541396 41.1122593,30.7475335 L41.1122593,30.6676291 C41.11246,29.2436042 41.931039,28.5314914 43.5683977,28.5314914 Z" id="Path"></path>
                        <path d="M59.3701637,28.5314914 L60.158425,28.5314914 C60.356193,28.5314914 60.6228285,29.643327 60.9579298,31.8667973 C61.0645439,32.1181549 61.9632339,36.4285755 63.654,44.7972562 L63.4939786,44.8771606 L60.5581774,44.8771606 C60.3678382,44.8771606 60.1050175,43.6892352 59.7699162,41.3131836 L56.5941832,41.3131836 C56.2211345,43.6892352 55.954499,44.8771606 55.7946784,44.8771606 L52.9387875,44.8771606 L52.7787661,44.7972562 C54.6825595,35.5297514 55.741271,30.5570076 55.954499,29.8792256 C56.3504366,28.9810038 57.4890585,28.5314914 59.3701637,28.5314914 Z M58.1022398,32.2552772 L58.1022398,32.3351816 C57.4091481,36.5919981 57.0626023,38.8156692 57.0626023,39.006195 L59.2101423,39.006195 L59.3701637,38.9262906 C58.6847018,34.8218547 58.3419708,32.5979828 58.3419708,32.2552772 L58.1022398,32.2552772 Z" id="Shape"></path>
                        <path d="M67.940848,28.5314914 L68.5690877,28.5314914 C68.6757018,28.5467495 68.7291092,28.5999522 68.7291092,28.6913002 L68.7291092,42.5015105 L73.4126979,42.5015105 C73.5191111,42.5167686 73.5727193,42.5699713 73.5727193,42.6613193 L73.5727193,44.7173518 C73.5727193,44.8241587 73.5191111,44.8773614 73.4126979,44.8773614 L65.5531754,44.8773614 L65.5531754,30.8274379 C65.5531754,29.4337285 66.3488655,28.6686138 67.940848,28.5314914 Z" id="Path"></path>
                    </g>
                </g>
            </g>
        </g>
    </g>
</svg>