<?xml version="1.0" encoding="UTF-8"?>
<svg width="120px" height="97px" viewBox="0 0 120 97" version="1.1" xmlns="http://www.w3.org/2000/svg" xmlns:xlink="http://www.w3.org/1999/xlink">
    <!-- Generator: Sketch 54.1 (76490) - https://sketchapp.com -->
    <title>BO_Brand_logo</title>
    <desc>Created with Sketch.</desc>
    <g id="BO_Brand_logo" stroke="none" stroke-width="1" fill="none" fill-rule="evenodd">
        <g id="Group">
            <rect id="Rectangle" fill="#16111E" x="0" y="0" width="120" height="97"></rect>
            <g id="Group-2" transform="translate(18.000000, 29.000000)" fill="#F2B705">
                <path d="M7.86445591,19.491978 C10.2226656,19.099011 15.5775607,18.1159341 15.5775607,11.479011 C15.5775607,9.41395604 14.8896672,7.10362637 13.2193511,5.38340659 C11.6465524,3.76076923 9.82930116,3.46604396 8.06080865,3.26956044 C7.96197338,4.49857143 7.86445591,6.17 7.86445591,7.39835165 L7.86445591,19.491978 Z M2.36196672,10.6924176 C2.36196672,4.1543956 1.5271381,2.18758242 0.937420965,0.810879121 L8.94571381,0.810879121 C16.3629717,0.810879121 21.374579,4.89153846 21.374579,11.1348352 C21.374579,19.1972527 13.9560033,21.6546154 9.28900166,21.3110989 L7.86445591,21.2121978 L7.86445591,27.259011 C7.86445591,30.1106593 8.60110815,34.8302198 9.28900166,37.6812088 L0.691650582,37.6812088 C1.37954409,35.1242857 2.36196672,31.7326374 2.36196672,25.637033 L2.36196672,10.6924176 Z" id="Fill-61"></path>
                <path d="M30.4575408,20.0817582 C33.9457671,19.0986813 39.5457737,17.5254945 39.5457737,11.8723077 C39.5457737,9.11956044 37.8266988,4.69472527 30.4575408,3.95758242 L30.4575408,20.0817582 Z M25.0044692,8.52945055 C25.0044692,4.20285714 24.4147521,2.18791209 24.0213877,0.909450549 L31.194193,0.811208791 C40.6764493,0.663516484 45.1464393,6.36615385 45.1464393,11.3316484 C45.1464393,17.329011 39.8403028,20.2782418 38.1706456,21.1637363 C41.4618602,26.963956 45.9819268,32.4206593 50.3537404,37.6808791 L45.2940333,37.6808791 C40.3318436,33.4043956 38.0724692,30.7492308 30.4575408,20.6224176 L30.4575408,29.7173626 C30.4575408,32.5683516 30.5062995,33.7485714 31.4887221,37.6808791 L24.0213877,37.6808791 C24.8081165,34.0432967 25.0044692,31.3393407 25.0044692,28.1441758 L25.0044692,8.52945055 Z" id="Fill-63"></path>
                <path d="M68.592802,33.944989 C76.7967887,33.944989 80.6296206,26.2267473 80.6296206,20.4753187 C80.6296206,12.8065275 74.7838436,4.44938462 66.1858336,4.44938462 C58.7672579,4.44938462 54.0020799,10.8891648 54.0020799,18.0172967 C54.0020799,27.9970769 61.5675907,33.944989 68.592802,33.944989 M68.0037438,0.516417582 C80.1874975,0.516417582 86.3284626,9.7583956 86.3284626,19.0986154 C86.3284626,30.6021319 77.4846822,37.9267473 67.0700799,37.9267473 C55.1815141,37.9267473 47.8123561,28.2911429 47.8123561,18.8526813 C47.8123561,10.6432308 55.1815141,0.516417582 68.0037438,0.516417582" id="Fill-65"></path>
            </g>
        </g>
    </g>
</svg>