<svg xmlns="http://www.w3.org/2000/svg" viewBox="0 0 120 97"><defs><style>.a{fill:#fff;}.b,.c,.d{fill:#006cfe;}.b{opacity:0.7;}.c{opacity:0.5;}.d{opacity:0.8;}</style></defs><title>120х97</title><path class="a" d="M103.36,93.5l8.57-13.74C91.37,67.21,71.68,65.16,63,65.14c-11.92,0-35.39,1-55,13l8,14.43C32.6,85.44,39.64,82,60.13,81.53,73.93,81.19,85.78,84.12,103.36,93.5Z"/><path class="a" d="M53.64,3.59,69.81,3.5A90.61,90.61,0,0,1,57.34,51.83C51.4,62.17,36.2,81.61,16,92.58L8.07,78.15c16-11,23.43-15,34.09-32.47C49.35,33.89,53,23.51,53.64,3.59Z"/><path class="a" d="M69.81,3.5,53.6,3.58C53,27.66,60.38,45.24,64.68,52.72c5.94,10.35,18.5,29.81,38.68,40.78l8.57-13.74C97.47,69,91,64.56,80.33,47.07,73.14,35.28,70.47,23.42,69.81,3.5Z"/><path class="b" d="M103.36,93.5l8.57-13.74C91.37,67.21,71.68,65.16,63,65.14c-11.92,0-35.39,1-55,13l8,14.43C32.6,85.44,39.64,82,60.13,81.53,73.93,81.19,85.78,84.12,103.36,93.5Z"/><path class="c" d="M53.64,3.59,69.81,3.5A90.61,90.61,0,0,1,57.34,51.83C51.4,62.17,36.2,81.61,16,92.58L8.07,78.15c16-11,23.43-15,34.09-32.47C49.35,33.89,53,23.51,53.64,3.59Z"/><path class="d" d="M69.81,3.5,53.6,3.58C53,27.66,60.38,45.24,64.68,52.72c5.94,10.35,18.5,29.81,38.68,40.78l8.57-13.74C97.47,69,91,64.56,80.33,47.07,73.14,35.28,70.47,23.42,69.81,3.5Z"/></svg>