<svg id="Слой_1" data-name="Слой 1" xmlns="http://www.w3.org/2000/svg" viewBox="0 0 120 97"><defs><style>.cls-1{fill:#fff;}</style></defs><title>Bit-Broker-Stocks-Logo-120x97Монтажная область 1</title><path d="M8.21,71.07a2.05,2.05,0,0,1,.43,1.32,2,2,0,0,1-1,1.78,5,5,0,0,1-2.76.63H0V66.06H4.68a4.61,4.61,0,0,1,2.65.63,1.91,1.91,0,0,1,.89,1.66,2.09,2.09,0,0,1-.3,1.1,2.27,2.27,0,0,1-.91.78A2.56,2.56,0,0,1,8.21,71.07ZM2.9,68.12v1.3H4.28c.64,0,1-.22,1-.65s-.33-.65-1-.65Zm2.76,3.93c0-.45-.33-.68-1-.68H2.9v1.37H4.68C5.33,72.74,5.66,72.51,5.66,72.05Z"/><path d="M9.77,67a1.32,1.32,0,0,1-.47-1,1.31,1.31,0,0,1,.47-1A1.81,1.81,0,0,1,11,64.55a1.86,1.86,0,0,1,1.24.39,1.25,1.25,0,0,1,.47,1A1.39,1.39,0,0,1,12.24,67a1.82,1.82,0,0,1-1.24.41A1.8,1.8,0,0,1,9.77,67Zm-.18,1h2.83V74.8H9.59Z"/><path d="M18.71,74.56a3.52,3.52,0,0,1-1.74.37,3.22,3.22,0,0,1-2.21-.7A2.63,2.63,0,0,1,14,72.15V70.41H13V68.35H14V66.44h2.83v1.91h1.4v2.06h-1.4v1.72a.74.74,0,0,0,.16.49.6.6,0,0,0,.43.17A1.07,1.07,0,0,0,18,72.6Z"/><path d="M19.24,70.13H23v2.12H19.24Z"/><path d="M32.48,71.07a2.05,2.05,0,0,1,.43,1.32A2,2,0,0,1,32,74.17a5,5,0,0,1-2.76.63H24.27V66.06H29a4.59,4.59,0,0,1,2.65.63,1.92,1.92,0,0,1,.9,1.66,2.1,2.1,0,0,1-.31,1.1,2.2,2.2,0,0,1-.91.78A2.56,2.56,0,0,1,32.48,71.07Zm-5.3-2.95v1.3h1.37c.65,0,1-.22,1-.65s-.32-.65-1-.65Zm2.75,3.93c0-.45-.32-.68-1-.68H27.18v1.37H29C29.61,72.74,29.93,72.51,29.93,72.05Z"/><path d="M38.77,67.85v2.49a5,5,0,0,0-.63,0,1.3,1.3,0,0,0-1.45,1.48v3H33.86V68h2.69v.74A2.77,2.77,0,0,1,38.77,67.85Z"/><path d="M41.08,74.47a3.42,3.42,0,0,1-1.42-1.26,3.4,3.4,0,0,1,1.42-4.91,4.89,4.89,0,0,1,4.1,0,3.42,3.42,0,0,1,0,6.17,4.8,4.8,0,0,1-4.1,0Zm2.85-2.1a1.48,1.48,0,0,0,.31-1,1.5,1.5,0,0,0-.31-1,1.1,1.1,0,0,0-1.61,0,1.5,1.5,0,0,0-.31,1,1.48,1.48,0,0,0,.31,1,1.08,1.08,0,0,0,1.61,0Z"/><path d="M51.27,72.7l-.45.49V74.8H48V65.54h2.83V70l2-2h3.34l-2.83,3,3.06,3.87H52.94Z"/><path d="M63.86,72H59.1a1.12,1.12,0,0,0,.5.59,1.69,1.69,0,0,0,.88.21,2.28,2.28,0,0,0,.75-.11,2.81,2.81,0,0,0,.67-.39l1.48,1.49a3.85,3.85,0,0,1-3,1.1,5,5,0,0,1-2.18-.46,3.4,3.4,0,0,1-1.45-1.27,3.49,3.49,0,0,1,0-3.65,3.43,3.43,0,0,1,1.39-1.25,4.32,4.32,0,0,1,2-.45,4.36,4.36,0,0,1,1.89.41,3.27,3.27,0,0,1,1.37,1.21,3.55,3.55,0,0,1,.5,1.91S63.88,71.64,63.86,72Zm-4.44-2a1.14,1.14,0,0,0-.37.67h2.2a1.2,1.2,0,0,0-.37-.67,1.23,1.23,0,0,0-1.46,0Z"/><path d="M69.69,67.85v2.49a4.83,4.83,0,0,0-.63,0,1.3,1.3,0,0,0-1.45,1.48v3H64.78V68h2.69v.74A2.77,2.77,0,0,1,69.69,67.85Z"/><path d="M70.3,70.13h3.76v2.12H70.3Z"/><path d="M76.36,74.76a5.74,5.74,0,0,1-1.7-.66l1-2.15a5.49,5.49,0,0,0,1.4.58,5.38,5.38,0,0,0,1.49.22,2.32,2.32,0,0,0,.88-.12.37.37,0,0,0,.26-.35c0-.18-.11-.32-.34-.41a7.85,7.85,0,0,0-1.14-.3,13.18,13.18,0,0,1-1.69-.46,2.82,2.82,0,0,1-1.17-.8,2.13,2.13,0,0,1-.5-1.5,2.58,2.58,0,0,1,.46-1.5,3.08,3.08,0,0,1,1.38-1.06,5.76,5.76,0,0,1,2.24-.39,8.07,8.07,0,0,1,1.77.2,5.52,5.52,0,0,1,1.53.56l-.89,2.14a5.47,5.47,0,0,0-2.44-.65c-.76,0-1.14.18-1.14.55,0,.17.12.3.34.39a7.09,7.09,0,0,0,1.12.28,12.86,12.86,0,0,1,1.69.43,3.06,3.06,0,0,1,1.19.8,2.09,2.09,0,0,1,.51,1.49,2.59,2.59,0,0,1-.47,1.5,3.17,3.17,0,0,1-1.38,1.06,5.71,5.71,0,0,1-2.23.39A9.25,9.25,0,0,1,76.36,74.76Z"/><path d="M88.39,74.56a3.52,3.52,0,0,1-1.74.37,3.2,3.2,0,0,1-2.21-.7,2.63,2.63,0,0,1-.78-2.08V70.41h-.94V68.35h.94V66.44h2.83v1.91h1.4v2.06h-1.4v1.72a.69.69,0,0,0,.16.49.58.58,0,0,0,.43.17,1.1,1.1,0,0,0,.64-.19Z"/><path d="M90.49,74.47a3.42,3.42,0,0,1-1.42-1.26,3.4,3.4,0,0,1,1.42-4.91,4.89,4.89,0,0,1,4.1,0,3.42,3.42,0,0,1,0,6.17,4.8,4.8,0,0,1-4.1,0Zm2.85-2.1a1.48,1.48,0,0,0,.31-1,1.5,1.5,0,0,0-.31-1,1.1,1.1,0,0,0-1.61,0,1.5,1.5,0,0,0-.31,1,1.48,1.48,0,0,0,.31,1,1.08,1.08,0,0,0,1.61,0Z"/><path d="M99,74.48a3.53,3.53,0,0,1-1.44-1.26A3.34,3.34,0,0,1,97,71.38a3.29,3.29,0,0,1,.52-1.83A3.51,3.51,0,0,1,99,68.3a4.67,4.67,0,0,1,2.08-.45,4.18,4.18,0,0,1,2.15.53,2.79,2.79,0,0,1,1.22,1.49l-2.19,1.07a1.28,1.28,0,0,0-1.19-.9,1.11,1.11,0,0,0-.83.35,1.67,1.67,0,0,0,0,2,1.11,1.11,0,0,0,.83.35,1.28,1.28,0,0,0,1.19-.9l2.19,1.07a2.75,2.75,0,0,1-1.22,1.49,4.09,4.09,0,0,1-2.15.54A4.67,4.67,0,0,1,99,74.48Z"/><path d="M108.38,72.7l-.45.49V74.8H105.1V65.54h2.83V70l2-2h3.34l-2.83,3,3.06,3.87h-3.42Z"/><path d="M114.73,74.74a5.1,5.1,0,0,1-1.38-.49l.78-1.86a4.17,4.17,0,0,0,1.13.45,5.06,5.06,0,0,0,1.26.16,1.82,1.82,0,0,0,.68-.08.26.26,0,0,0,.2-.24c0-.11-.09-.18-.25-.23a6.85,6.85,0,0,0-.79-.12,10,10,0,0,1-1.43-.26,2.16,2.16,0,0,1-1-.6,1.75,1.75,0,0,1-.45-1.29,1.93,1.93,0,0,1,.4-1.18,2.75,2.75,0,0,1,1.2-.84,5.2,5.2,0,0,1,1.91-.31,8.51,8.51,0,0,1,1.52.14,4.85,4.85,0,0,1,1.27.42L119,70.27a4,4,0,0,0-2-.5c-.62,0-.93.11-.93.32s.08.19.25.24.43.08.79.13a8.66,8.66,0,0,1,1.42.26,2.32,2.32,0,0,1,1,.61,1.78,1.78,0,0,1,.44,1.29,1.86,1.86,0,0,1-.4,1.16,2.66,2.66,0,0,1-1.2.83,5.32,5.32,0,0,1-1.94.32A8.34,8.34,0,0,1,114.73,74.74Z"/><rect x="0.04" y="23" width="37.99" height="37.88"/><path class="cls-1" d="M29.67,43.68a5.74,5.74,0,0,1,1.16,3.61,5.51,5.51,0,0,1-2.6,4.86q-2.6,1.73-7.52,1.72H7.24V30H20q4.78,0,7.23,1.71a5.27,5.27,0,0,1,2.44,4.53,5.52,5.52,0,0,1-.84,3,6,6,0,0,1-2.48,2.15A7.16,7.16,0,0,1,29.67,43.68Zm-14.5-8v3.54h3.76c1.76,0,2.63-.59,2.63-1.77s-.87-1.77-2.63-1.77Zm7.52,10.73c0-1.25-.89-1.87-2.66-1.87H15.17v3.75H20C21.8,48.25,22.69,47.62,22.69,46.37Z"/><rect x="41.02" y="23" width="37.99" height="37.88"/><path class="cls-1" d="M70.65,43.68a5.74,5.74,0,0,1,1.16,3.61,5.49,5.49,0,0,1-2.6,4.86c-1.73,1.15-4.23,1.72-7.52,1.72H48.23V30H61q4.79,0,7.23,1.71a5.25,5.25,0,0,1,2.44,4.53,5.59,5.59,0,0,1-.83,3,6,6,0,0,1-2.48,2.15A7.18,7.18,0,0,1,70.65,43.68Zm-14.49-8v3.54h3.76c1.75,0,2.63-.59,2.63-1.77s-.88-1.77-2.63-1.77Zm7.52,10.73c0-1.25-.89-1.87-2.67-1.87H56.16v3.75H61C62.79,48.25,63.68,47.62,63.68,46.37Z"/><rect x="82.01" y="23" width="37.99" height="37.88"/><path class="cls-1" d="M94.85,53.75A15.48,15.48,0,0,1,90.22,52l2.6-5.86a16.21,16.21,0,0,0,3.82,1.58,15,15,0,0,0,4.07.6,6.5,6.5,0,0,0,2.4-.32,1,1,0,0,0,.71-1c0-.5-.31-.88-.94-1.13A20.31,20.31,0,0,0,99.79,45a34.44,34.44,0,0,1-4.61-1.24A7.79,7.79,0,0,1,92,41.62a5.91,5.91,0,0,1-1.37-4.11,7.09,7.09,0,0,1,1.27-4.09,8.34,8.34,0,0,1,3.78-2.9,15.8,15.8,0,0,1,6.1-1.05,21.67,21.67,0,0,1,4.83.53,14.82,14.82,0,0,1,4.19,1.55l-2.42,5.82a14.9,14.9,0,0,0-6.67-1.77c-2.07,0-3.11.5-3.11,1.5,0,.48.31.84.92,1.08a20.71,20.71,0,0,0,3,.76,31.34,31.34,0,0,1,4.62,1.18,8,8,0,0,1,3.26,2.16,5.78,5.78,0,0,1,1.39,4.09,7,7,0,0,1-1.27,4.08,8.48,8.48,0,0,1-3.77,2.89,15.46,15.46,0,0,1-6.11,1.08A25.33,25.33,0,0,1,94.85,53.75Z"/></svg>