<?xml version="1.0" encoding="utf-8"?>
<!-- Generator: Adobe Illustrator 17.0.0, SVG Export Plug-In . SVG Version: 6.00 Build 0)  -->
<!DOCTYPE svg PUBLIC "-//W3C//DTD SVG 1.1//EN" "http://www.w3.org/Graphics/SVG/1.1/DTD/svg11.dtd">
<svg version="1.1" id="Слой_1" xmlns="http://www.w3.org/2000/svg" xmlns:xlink="http://www.w3.org/1999/xlink" x="0px" y="0px"
	 width="120px" height="97px" viewBox="0 0 120 97" enable-background="new 0 0 120 97" xml:space="preserve">
<g>
	<g>
		<rect y="25.687" width="38.008" height="38.008"/>
		<path fill="#FFFFFF" d="M29.639,46.435c0.775,1.003,1.162,2.211,1.162,3.625c0,2.098-0.866,3.722-2.599,4.873
			c-1.733,1.152-4.24,1.727-7.523,1.727H7.206V32.722h12.789c3.192,0,5.602,0.57,7.233,1.71c1.629,1.14,2.445,2.656,2.445,4.548
			c0,1.117-0.28,2.12-0.838,3.009c-0.559,0.889-1.385,1.607-2.479,2.154C27.769,44.668,28.863,45.432,29.639,46.435z M15.14,38.365
			v3.556h3.762c1.755,0,2.633-0.593,2.633-1.778c0-1.185-0.878-1.778-2.633-1.778H15.14z M22.663,49.136
			c0-1.254-0.889-1.881-2.668-1.881H15.14v3.762h4.856C21.774,51.017,22.663,50.39,22.663,49.136z"/>
	</g>
	<g>
		<rect x="41" y="25.687" width="38.008" height="38.008"/>
		<path fill="#FFFFFF" d="M70.64,46.435c0.775,1.003,1.162,2.211,1.162,3.625c0,2.098-0.866,3.722-2.599,4.873
			c-1.733,1.152-4.24,1.727-7.523,1.727H48.206V32.722h12.789c3.192,0,5.602,0.57,7.233,1.71c1.629,1.14,2.445,2.656,2.445,4.548
			c0,1.117-0.28,2.12-0.838,3.009c-0.559,0.889-1.385,1.607-2.479,2.154C68.77,44.668,69.864,45.432,70.64,46.435z M56.14,38.365
			v3.556h3.762c1.755,0,2.633-0.593,2.633-1.778c0-1.185-0.878-1.778-2.633-1.778H56.14z M63.663,49.136
			c0-1.254-0.889-1.881-2.668-1.881H56.14v3.762h4.856C62.774,51.017,63.663,50.39,63.663,49.136z"/>
	</g>
	<g>
		<rect x="82.001" y="25.687" width="38.008" height="38.008"/>
		<path fill="#FFFFFF" d="M94.849,56.54c-1.881-0.445-3.425-1.043-4.633-1.795l2.599-5.882c1.14,0.661,2.416,1.191,3.83,1.59
			c1.413,0.399,2.77,0.598,4.069,0.598c1.117,0,1.915-0.108,2.394-0.325c0.479-0.216,0.718-0.541,0.718-0.974
			c0-0.501-0.313-0.878-0.94-1.128c-0.627-0.251-1.658-0.524-3.095-0.821c-1.846-0.388-3.385-0.804-4.616-1.248
			c-1.231-0.445-2.303-1.174-3.215-2.189c-0.912-1.014-1.367-2.388-1.367-4.121c0-1.505,0.422-2.872,1.265-4.103
			c0.843-1.231,2.103-2.2,3.778-2.907c1.676-0.706,3.71-1.06,6.104-1.06c1.642,0,3.254,0.177,4.839,0.53
			c1.584,0.354,2.981,0.872,4.189,1.556l-2.428,5.848c-2.349-1.185-4.572-1.778-6.669-1.778c-2.075,0-3.112,0.502-3.112,1.505
			c0,0.479,0.308,0.838,0.923,1.077c0.615,0.239,1.629,0.496,3.044,0.769c1.823,0.342,3.362,0.735,4.616,1.179
			c1.254,0.445,2.343,1.169,3.266,2.172c0.923,1.003,1.385,2.371,1.385,4.103c0,1.505-0.422,2.867-1.265,4.086
			c-0.844,1.22-2.103,2.189-3.778,2.907c-1.676,0.718-3.71,1.077-6.104,1.077C98.662,57.206,96.73,56.984,94.849,56.54z"/>
	</g>
	<g>
		<path d="M8.437,75.571c0,1.484-1.253,2.348-3.601,2.348H0.042v-8.517h4.55c2.348,0,3.443,0.937,3.443,2.227
			c0,0.791-0.402,1.448-1.18,1.837C7.853,73.832,8.437,74.562,8.437,75.571z M2.864,71.41v1.265h1.338
			c0.645,0,0.937-0.219,0.937-0.633c0-0.414-0.292-0.633-0.937-0.633H2.864z M5.541,75.243c0-0.438-0.316-0.669-0.949-0.669H2.864
			v1.338h1.728C5.225,75.912,5.541,75.681,5.541,75.243z"/>
		<path d="M9.081,69.33c0-0.791,0.645-1.399,1.655-1.399s1.655,0.56,1.655,1.351c0,0.84-0.645,1.448-1.655,1.448
			S9.081,70.121,9.081,69.33z M9.361,71.264h2.75v6.655h-2.75V71.264z"/>
		<path d="M20.688,68.892v9.028h-2.616v-0.547c-0.402,0.45-0.998,0.669-1.825,0.669c-1.74,0-3.212-1.314-3.212-3.455
			c0-2.141,1.472-3.443,3.212-3.443c0.73,0,1.29,0.182,1.691,0.572v-2.823H20.688z M17.987,74.586c0-0.864-0.475-1.302-1.083-1.302
			c-0.608,0-1.083,0.438-1.083,1.302c0,0.864,0.475,1.314,1.083,1.314C17.513,75.9,17.987,75.45,17.987,74.586z"/>
		<path d="M21.844,73.369h3.65v2.068h-3.65V73.369z"/>
		<path d="M35.13,75.571c0,1.484-1.253,2.348-3.601,2.348h-4.794v-8.517h4.55c2.348,0,3.443,0.937,3.443,2.227
			c0,0.791-0.402,1.448-1.18,1.837C34.546,73.832,35.13,74.562,35.13,75.571z M29.557,71.41v1.265h1.338
			c0.645,0,0.937-0.219,0.937-0.633c0-0.414-0.292-0.633-0.937-0.633H29.557z M32.234,75.243c0-0.438-0.316-0.669-0.949-0.669
			h-1.728v1.338h1.728C31.918,75.912,32.234,75.681,32.234,75.243z"/>
		<path d="M40.824,71.143v2.433c-0.243-0.036-0.414-0.049-0.608-0.049c-0.827,0-1.411,0.377-1.411,1.436v2.957h-2.75v-6.655h2.616
			v0.718C39.157,71.422,39.899,71.143,40.824,71.143z"/>
		<path d="M41.188,74.586c0-2.02,1.618-3.443,3.869-3.443c2.263,0,3.869,1.424,3.869,3.443c0,2.02-1.606,3.455-3.869,3.455
			C42.807,78.041,41.188,76.606,41.188,74.586z M46.14,74.586c0-0.864-0.475-1.302-1.083-1.302c-0.608,0-1.083,0.438-1.083,1.302
			c0,0.864,0.475,1.314,1.083,1.314C45.666,75.9,46.14,75.45,46.14,74.586z"/>
		<path d="M52.978,75.876L52.54,76.35v1.569h-2.75v-9.028h2.75v4.307l1.91-1.935h3.249l-2.75,2.884l2.969,3.772h-3.322
			L52.978,75.876z"/>
		<path d="M65.205,75.231h-4.623c0.195,0.511,0.657,0.779,1.338,0.779c0.608,0,0.949-0.158,1.387-0.487l1.436,1.448
			c-0.645,0.706-1.582,1.071-2.908,1.071c-2.446,0-4.027-1.472-4.027-3.455c0-2.02,1.618-3.443,3.772-3.443
			c1.971,0,3.662,1.192,3.662,3.443C65.242,74.781,65.218,75.036,65.205,75.231z M60.533,73.905h2.141
			c-0.109-0.56-0.511-0.888-1.071-0.888C61.032,73.016,60.643,73.345,60.533,73.905z"/>
		<path d="M70.875,71.143v2.433c-0.243-0.036-0.414-0.049-0.608-0.049c-0.827,0-1.411,0.377-1.411,1.436v2.957h-2.75v-6.655h2.616
			v0.718C69.208,71.422,69.95,71.143,70.875,71.143z"/>
		<path d="M71.471,73.369h3.65v2.068h-3.65V73.369z"/>
		<path d="M75.705,77.238l0.925-2.093c0.803,0.474,1.874,0.779,2.811,0.779c0.815,0,1.107-0.17,1.107-0.462
			c0-1.071-4.709-0.207-4.709-3.382c0-1.582,1.326-2.871,3.966-2.871c1.144,0,2.324,0.243,3.212,0.742l-0.864,2.081
			c-0.84-0.426-1.63-0.633-2.373-0.633c-0.84,0-1.107,0.243-1.107,0.535c0,1.022,4.709,0.17,4.709,3.309
			c0,1.557-1.326,2.871-3.966,2.871C77.992,78.114,76.557,77.762,75.705,77.238z"/>
		<path d="M89.052,77.688c-0.426,0.243-1.046,0.353-1.691,0.353c-1.837,0-2.908-0.864-2.908-2.701v-1.703H83.54v-2.008h0.913v-1.861
			h2.75v1.861h1.363v2.008h-1.363v1.679c0,0.414,0.243,0.645,0.572,0.645c0.219,0,0.438-0.061,0.62-0.182L89.052,77.688z"/>
		<path d="M89.21,74.586c0-2.02,1.618-3.443,3.869-3.443c2.263,0,3.869,1.424,3.869,3.443c0,2.02-1.606,3.455-3.869,3.455
			C90.828,78.041,89.21,76.606,89.21,74.586z M94.162,74.586c0-0.864-0.474-1.302-1.083-1.302c-0.608,0-1.083,0.438-1.083,1.302
			c0,0.864,0.474,1.314,1.083,1.314C93.687,75.9,94.162,75.45,94.162,74.586z"/>
		<path d="M97.458,74.586c0-2.02,1.63-3.443,3.93-3.443c1.618,0,2.835,0.742,3.273,1.971l-2.129,1.046
			c-0.28-0.621-0.681-0.876-1.156-0.876c-0.621,0-1.132,0.438-1.132,1.302c0,0.876,0.511,1.314,1.132,1.314
			c0.474,0,0.876-0.255,1.156-0.876l2.129,1.046c-0.438,1.229-1.655,1.971-3.273,1.971C99.089,78.041,97.458,76.618,97.458,74.586z"
			/>
		<path d="M108.481,75.876l-0.438,0.475v1.569h-2.75v-9.028h2.75v4.307l1.91-1.935h3.249l-2.75,2.884l2.969,3.772H110.1
			L108.481,75.876z"/>
		<path d="M113.311,77.384l0.754-1.813c0.633,0.377,1.533,0.596,2.324,0.596c0.669,0,0.852-0.122,0.852-0.316
			c0-0.681-3.833,0.231-3.833-2.433c0-1.253,1.168-2.275,3.407-2.275c0.973,0,2.007,0.182,2.713,0.547l-0.754,1.813
			c-0.681-0.377-1.363-0.487-1.922-0.487c-0.706,0-0.9,0.158-0.9,0.316c0,0.694,3.82-0.207,3.82,2.458
			c0,1.205-1.132,2.251-3.443,2.251C115.185,78.041,113.993,77.774,113.311,77.384z"/>
	</g>
</g>
</svg>
