<svg id="Layer_1" xmlns="http://www.w3.org/2000/svg" viewBox="0 0 120 97"><defs><style>.cls-1{fill:#fff;}.cls-2{fill:#053c50;}.cls-3{fill:#0ab35b;}</style></defs><rect class="cls-1" width="120" height="97"/><path class="cls-2" d="M2,44.24H7.7a5.11,5.11,0,0,1,3.74,1.22,3,3,0,0,1,.9,2.28v.08a3.17,3.17,0,0,1-2,3,3.28,3.28,0,0,1,2.51,3.26v.08C12.81,56.55,11,58,7.72,58H2Zm6.84,4.23c0-.83-.59-1.28-1.65-1.28H5.44v2.58H7.13c1.08,0,1.71-.44,1.71-1.28ZM7.5,52.36H5.44v2.7H7.52c1.1,0,1.75-.5,1.75-1.34v0C9.27,52.89,8.66,52.36,7.5,52.36Z"/><path class="cls-2" d="M14.27,44.24h5.4a5.57,5.57,0,0,1,4.13,1.4A4.35,4.35,0,0,1,25,48.86V49a4.22,4.22,0,0,1-2.46,4l2.83,5h-4L19,53.74H17.79V58H14.27Zm5.26,6.69a1.71,1.71,0,0,0,1.91-1.79v0a1.68,1.68,0,0,0-1.92-1.77H17.79v3.6Z"/><path class="cls-2" d="M26.65,44.24h3.54V58H26.65Z"/><path class="cls-2" d="M32.31,44.24h4.52c4.43,0,6.94,2.68,6.94,6.73v.23c0,4-2.53,6.8-7,6.8H32.31Zm3.54,3.17v7.43h1c2,0,3.29-1.16,3.29-3.62v-.17c0-2.48-1.32-3.64-3.29-3.64Z"/><path class="cls-2" d="M45,51.28V51c0-4.13,2.83-7,6.63-7a7.05,7.05,0,0,1,4.73,1.67l-2,2.69a3.84,3.84,0,0,0-2.7-1.14c-1.75,0-3.08,1.53-3.08,3.82v.19c0,2.52,1.35,3.91,3.12,3.91a2.84,2.84,0,0,0,1.6-.41v-2H51.18V50h5.51v6.57a8.36,8.36,0,0,1-5,1.71C47.88,58.24,45,55.59,45,51.28Z"/><path class="cls-2" d="M58.48,44.24H68v3.11H62v2.26h5.38v2.93H62V54.9H68V58H58.48Z"/><path class="cls-3" d="M70.15,44.24h8.63v2.11H72.43v3.87h5.63V52.3H72.43V58H70.15Z"/><path class="cls-3" d="M80.83,52.76V44.24h2.28v8.5c0,2.22,1.08,3.38,2.85,3.38s2.83-1.12,2.83-3.31V44.24h2.26v8.44c0,3.69-2,5.54-5.13,5.54S80.83,56.35,80.83,52.76Z"/><path class="cls-3" d="M93.88,44.24H96l6.06,9.18V44.24h2.22V58h-1.93l-6.23-9.45V58H93.88Z"/><path class="cls-3" d="M107.27,44.24h4.2C115.41,44.24,118,47,118,51v.15c0,4-2.59,6.82-6.53,6.82h-4.2Zm2.28,2.07v9.63h1.9c2.52,0,4.19-1.79,4.19-4.74v-.12c0-3-1.67-4.77-4.19-4.77Z"/><path class="cls-3" d="M41.36,58.26c6.55-10.58,18.24-19.37,37-19.37-1.45-.1-2.92-.15-4.4-.15-21.25,0-34.27,8-41.4,19.52Z"/><path class="cls-2" d="M76.13,39.52c-1,0-2,0-3,.11a37.22,37.22,0,0,1,11.22,2.62h6A37.64,37.64,0,0,0,76.13,39.52Z"/></svg>
