<svg xmlns="http://www.w3.org/2000/svg" width="120" height="97" baseProfile="basic"><defs/><switch><g><g fill="#172358"><path d="M54.608 66.561h3.61v2.818c-.701 1.065-2.077 1.545-3.636 1.545-3.298 0-4.804-2.116-4.804-4.674 0-2.636 1.571-4.609 4.518-4.609 1.961 0 3.636.857 3.921 2.856h-1.298c-.182-1.467-1.182-2.389-2.675-2.389-2.22 0-3.116 2.09-3.116 4.181 0 2.155 1.039 4.168 3.35 4.168.935 0 1.909-.312 2.441-1v-2.389h-2.311v-.507zM63.405 61.731h1.298v8.582h4.752v.506h-6.051v-9.088zM78.146 61.64c2.662 0 4.609 1.974 4.609 4.635 0 2.662-1.948 4.648-4.609 4.648-2.662 0-4.609-1.987-4.609-4.648 0-2.661 1.948-4.635 4.609-4.635zm0 8.816c1.883 0 3.272-1.727 3.272-4.181 0-2.454-1.389-4.168-3.272-4.168-1.87 0-3.259 1.714-3.259 4.168.001 2.455 1.39 4.181 3.259 4.181zM87.823 61.731h3.324c1.948 0 3.103.831 3.103 2.259 0 1.065-.649 1.792-1.792 2.09 1.441.247 2.311 1.091 2.311 2.337 0 1.493-1.22 2.402-3.22 2.402h-3.726v-9.088zm1.299.507v3.623h1.623c1.363 0 2.233-.61 2.233-1.805 0-1.182-.87-1.818-2.246-1.818h-1.61zm0 4.129v3.947h2c1.415 0 2.311-.701 2.311-1.961 0-1.259-.909-1.987-2.311-1.987h-2zM105.509 68.106h-4.389l-1.208 2.714h-.662l3.999-9.089h.714l4.246 9.089h-1.467l-1.233-2.714zm-4.155-.506h3.934l-1.974-4.376-1.96 4.376zM113.137 61.731h1.298v8.582h4.752v.506h-6.051v-9.088z"/></g><g fill="#172358"><path d="M70.218 46.182a6.332 6.332 0 00-1.377-2.118 7.637 7.637 0 00-2.177-1.531 10.44 10.44 0 00-1.995-.707c2.922-1.058 4.517-3.22 4.517-6.165 0-1.084-.214-2.073-.636-2.94a5.985 5.985 0 00-1.843-2.193c-.798-.592-1.778-.905-2.912-1.209-1.139-.305-2.436-.319-3.856-.319H50v27h11.108c2.902 0 5.321-.586 6.996-1.863 1.695-1.292 2.591-3.12 2.591-5.371 0-.942-.16-1.782-.477-2.584zm-3.875 2.357c0 3.5-2.422 5.461-6.48 5.461H54V43h5.863c4.058 0 6.48 1.99 6.48 5.539zM54 41V31h4.732c3.998 0 6.292 1.737 6.292 5.019 0 3.258-2.279 4.981-6.254 4.981H54zM94.511 46.523c-.352-.791-.881-1.499-1.618-2.165-1.404-1.269-3.442-2.299-6.277-3.55-2.391-1.042-4.279-1.865-5.53-2.807-1.286-.968-1.835-2.002-1.835-3.458 0-2.656 1.889-4.242 5.053-4.242.071 0 .019.001.091.002C88.09 30.375 90 32.497 90 36.278V37h4.529l-.004-.481c-.039-2.524-.924-4.602-2.631-5.937-1.706-1.335-4.199-2.072-7.409-2.072-3.119 0-5.511.609-7.108 1.871-1.545 1.22-2.328 2.979-2.328 5.258 0 1.092.187 2.019.572 2.852.357.773.888 1.455 1.622 2.095 1.375 1.198 3.376 2.138 5.692 3.228l.301.141c5.669 2.674 7.578 3.575 7.578 6.323 0 3.931-3.568 4.355-5.21 4.355-5.056 0-6.605-3.485-6.605-6.747V47h-4.751l.008.568c.097 2.76 1.088 5.065 2.946 6.532 1.869 1.476 4.573 2.306 8.037 2.306 3.223 0 5.7-.593 7.363-1.843 1.626-1.222 2.45-2.982 2.45-5.271.002-1.058-.176-1.95-.541-2.769zM118.768 46.182a6.332 6.332 0 00-1.377-2.118 7.637 7.637 0 00-2.177-1.531 10.44 10.44 0 00-1.995-.707c2.922-1.058 4.517-3.22 4.517-6.165 0-1.084-.214-2.073-.636-2.94a5.985 5.985 0 00-1.843-2.193c-.798-.592-1.778-.905-2.912-1.209-1.138-.305-2.435-.319-3.856-.319H99v27h10.657c2.902 0 5.321-.586 6.996-1.863 1.695-1.292 2.591-3.12 2.591-5.371 0-.942-.16-1.782-.476-2.584zM107.319 41H103V31h4.281c3.998 0 6.292 1.737 6.292 5.019 0 3.258-2.28 4.981-6.254 4.981zm7.574 7.539c0 3.5-2.422 5.461-6.48 5.461H103V43h5.413c4.057 0 6.48 1.99 6.48 5.539z"/></g><path fill="#172358" d="M0 29h42v42H0z"/><path fill="#FFF" d="M22.121 68.918l-1.856-14.916-6.827 4.467 4.473-6.822-14.913-1.865 14.916-1.856-4.467-6.827 6.822 4.474 1.865-14.913 1.856 14.916 6.827-4.467-4.473 6.822 14.913 1.865-14.916 1.856 4.467 6.827-6.822-4.474-1.865 14.913zm-1.75-15.146l1.75 14.063 1.758-14.061 6.464 4.239-4.232-6.468 14.063-1.75-14.061-1.758 4.239-6.464-6.468 4.232-1.75-14.063-1.758 14.061-6.464-4.239 4.232 6.468-14.063 1.75 14.061 1.758-4.239 6.464 6.468-4.232z"/><g fill="#FFF"><path d="M23.861 48.047l1.45.203 3.132-4.775-4.783 3.129zM23.859 51.522l-.202 1.442 4.779 3.134-3.127-4.778zM20.386 48.045l.203-1.449-4.77-3.128 3.127 4.778zM20.384 51.52l-1.441-.202-3.131 4.773 4.774-3.123z"/></g><path fill="#FFF" d="M34.678 49.788l-11.014-1.543-.003-.011-1.534-11.006-1.543 11.014-.011.002-11.006 1.535 11.014 1.543.003.011 1.534 11.006 1.543-11.015.011-.002z"/><path fill="#172358" d="M23.66 51.324l7.388-1.536-7.385-1.543-1.536-7.388-1.543 7.385-7.388 1.536 7.385 1.543 1.536 7.388z"/></g></switch></svg>