<?xml version="1.0" encoding="UTF-8"?>
<svg width="120px" height="97px" viewBox="0 0 120 97" version="1.1" xmlns="http://www.w3.org/2000/svg" xmlns:xlink="http://www.w3.org/1999/xlink">
    <!-- Generator: Sketch 52.6 (67491) - http://www.bohemiancoding.com/sketch -->
    <title>BO_Brand_logo</title>
    <desc>Created with Sketch.</desc>
    <g id="BO_Brand_logo" stroke="none" stroke-width="1" fill="none" fill-rule="evenodd">
        <g id="Group-2" transform="translate(5.000000, 1.000000)" fill="#FBB03B">
            <path d="M27.8124235,71.4113391 L19.7208998,71.4113391 L19.7208998,55.5717933 L27.8124235,55.5717933 C33.3819139,55.5717933 36.2279585,59.0174445 36.2279585,63.5465646 C36.2279585,68.0747681 33.4957556,71.4113391 27.8124235,71.4113391 Z M19.7208998,25.4326577 L28.2064912,25.4326577 C33.3118574,25.4326577 36.1929302,28.7233966 36.1929302,32.976608 C36.1929302,37.2298193 33.2768291,40.0989037 27.9437794,40.0989037 L19.7208998,40.0989037 L19.7208998,25.4326577 Z M83.4635417,70.017129 C71.7176967,73.3262008 59.6338292,66.0416597 56.4734062,53.7467623 C53.3129831,41.4509483 60.2730946,28.8031443 72.0189396,25.4949892 C77.6532322,23.9073681 83.6588242,24.7259279 88.7177779,27.7700906 L96.9231434,12.8105197 C93.1225792,10.520752 88.9761112,8.92396447 84.663259,8.08982172 L84.663259,0.298378507 L67.1491384,0.298378507 L67.1491384,9.0156285 C61.8441113,10.5940832 56.929649,13.3586706 52.7437742,17.1187294 C48.1638317,10.4364211 39.7833249,6.97152046 30.0192027,6.44903545 L30.0192027,0.298378507 L12.5050821,0.298378507 L12.5050821,6.37570421 L4.26325641e-13,6.37570421 L4.26325641e-13,89.7899786 L12.5138392,89.7899786 L12.5138392,95.1798241 L30.0279598,95.1798241 L30.0279598,89.6799818 C39.214116,89.2216616 48.6892553,86.4717405 54.0748474,79.5969376 C57.9568522,82.7501805 62.3756648,85.1022797 67.096596,86.5267389 L67.096596,95.1614913 L84.6107166,95.1614913 L84.6107166,87.4250465 C85.6703209,87.2233856 86.7299252,86.9850591 87.7895295,86.6917342 C97.6508551,83.9023975 106.045373,77.1174254 111.118338,67.8364416 L96.8355728,59.2466046 C93.924726,64.5567023 89.1118456,68.4331745 83.4635417,70.017129 Z" id="Fill-18"></path>
            <path d="M94.8214574,32.9138754 L108.194171,22.5346999 C106.095547,19.751442 103.650123,17.2595294 100.919415,15.1236044 L90.6491706,28.707578 C92.2146696,29.9166609 93.6170216,31.3305959 94.8214574,32.9138754" id="Fill-21"></path>
        </g>
    </g>
</svg>