<svg id="Layer_1" data-name="Layer 1" xmlns="http://www.w3.org/2000/svg" viewBox="0 0 120 97"><defs><style>.cls-1{fill:#0a0d15;}.cls-2{fill:#ffb41d;}</style></defs><title>Capitalfunds  - Max-EcoSales -App</title><path class="cls-1" d="M79.38,13.33c-1.09,1.69-2.16,3.39-3.23,5.1A394.08,394.08,0,0,0,49,70.42H59a351.79,351.79,0,0,1,19.89-52q1.22-2.57,2.48-5.1,3.27-6.6,6.84-13Q83.66,6.69,79.38,13.33Z"/><path class="cls-1" d="M69.58,20.1q-1.86,2.22-3.69,4.49A361.15,361.15,0,0,0,38,64.35v6.07h6.58A334.75,334.75,0,0,1,69,24.59q1.44-2.25,2.91-4.49,4.27-6.47,8.81-12.66Q75,13.58,69.58,20.1Z"/><path class="cls-1" d="M80.79,19.32q-1.11,2.26-2.16,4.56A296.81,296.81,0,0,0,61.69,70.42h8.09A264.19,264.19,0,0,1,80.63,24q.78-2.36,1.61-4.7c1.3-3.68,2.68-7.35,4.14-11Q83.47,13.77,80.79,19.32Z"/><path class="cls-2" d="M82.83,19.92,81.2,24.59h2.66V72.32H36.14V24.59H62.62l4.06-4.67H31.46V76.64l.63.36H88.54V19.92Z"/><path class="cls-1" d="M11,85.27H6.61v4.39H11V88.17l1.61.33v.82a1.79,1.79,0,0,1-.36,1.3,2,2,0,0,1-1.36.34H6.72a2,2,0,0,1-1.37-.34A1.84,1.84,0,0,1,5,89.32V85.67a1.86,1.86,0,0,1,.35-1.3A2,2,0,0,1,6.72,84h4.14a2,2,0,0,1,1.36.35,1.8,1.8,0,0,1,.36,1.3v.65L11,86.58Z"/><path class="cls-1" d="M13.54,91,17.47,84H19L23,91H21.19l-.84-1.51H16L15.15,91Zm3.1-2.77h3l-1.49-2.82Z"/><path class="cls-1" d="M24.42,91V84h5.94a1.8,1.8,0,0,1,1.19.32,1.3,1.3,0,0,1,.38,1v1.55a1.26,1.26,0,0,1-.38,1,1.8,1.8,0,0,1-1.19.32H26V91Zm5.22-5.73H26v1.83h3.63a1,1,0,0,0,.58-.12.52.52,0,0,0,.15-.43v-.74a.51.51,0,0,0-.15-.42A1,1,0,0,0,29.64,85.23Z"/><path class="cls-1" d="M33.61,91V84h1.61V91Z"/><path class="cls-1" d="M41.19,85.27V91H39.57V85.27H36.39V84h8v1.25Z"/><path class="cls-1" d="M43.32,91,47.24,84H48.8l4,6.94H51l-.83-1.51h-4.4L44.92,91Zm3.1-2.77h3L48,85.37Z"/><path class="cls-1" d="M54.2,91V84h1.61v5.64H61V91Z"/><path class="cls-1" d="M66.33,91V84h7.14v1.24H68v1.85h3v1.29H68V91Z"/><path class="cls-1" d="M76.6,84V89.7h4.68V84h1.63v5.39a1.86,1.86,0,0,1-.36,1.32,2,2,0,0,1-1.39.35H76.71a2.06,2.06,0,0,1-1.39-.35A1.86,1.86,0,0,1,75,89.36V84Z"/><path class="cls-1" d="M86,91V84h1.13l5,4.16.45.39a3.09,3.09,0,0,1,.35.38c0-.4,0-.68,0-.84s0-.29,0-.38V84h1.47V91H93.14L88,86.67l-.33-.3-.26-.27c0,.21,0,.42,0,.61s0,.36,0,.51V91Z"/><path class="cls-1" d="M97.31,91V84h4.54a4.47,4.47,0,0,1,3,.91,3.25,3.25,0,0,1,1,2.58,3.74,3.74,0,0,1-.41,1.78,3.1,3.1,0,0,1-1.14,1.24,3.45,3.45,0,0,1-1.15.42,10.26,10.26,0,0,1-1.75.13ZM99,89.7h2.13a4.13,4.13,0,0,0,2.4-.53,2,2,0,0,0,.71-1.74,2.16,2.16,0,0,0-.59-1.64,2.44,2.44,0,0,0-1.74-.56H99Z"/><path class="cls-1" d="M114.46,85.21h-4.62v1.51h4.4a2,2,0,0,1,1.4.36,1.82,1.82,0,0,1,.36,1.31v1a1.82,1.82,0,0,1-.36,1.31,2,2,0,0,1-1.4.36h-4.36a2,2,0,0,1-1.4-.36,1.82,1.82,0,0,1-.36-1.31v-.19l1.45-.31v.84h5V88.09h-4.4a2.08,2.08,0,0,1-1.39-.35,1.86,1.86,0,0,1-.36-1.32v-.78a1.82,1.82,0,0,1,.36-1.31,2,2,0,0,1,1.39-.36h4a2.12,2.12,0,0,1,1.37.34,1.59,1.59,0,0,1,.38,1.21v.15l-1.45.34Z"/></svg>