<svg width="128" height="128" viewBox="0 0 128 128" fill="none" xmlns="http://www.w3.org/2000/svg">
<path d="M65.2891 100.709H62.266C61.089 100.709 60.0605 99.913 59.7655 98.7735L59.1315 96.314L56.9455 97.6045C55.929 98.2015 54.6405 98.0375 53.808 97.206L51.6705 95.068C50.838 94.2365 50.6735 92.9465 51.27 91.9315L52.5615 89.744L50.1035 89.1105C48.9625 88.815 48.1665 87.787 48.1665 86.6095V83.5865C48.1665 82.409 48.9625 81.3805 50.102 81.0855L52.5615 80.4515L51.271 78.2655C50.673 77.2495 50.8375 75.959 51.671 75.127L53.8075 72.9905C54.6405 72.1575 55.9315 71.9945 56.9445 72.591L59.1315 73.8815L59.765 71.4235C60.061 70.2825 61.089 69.4865 62.266 69.4865H65.2891C66.4661 69.4865 67.494 70.2825 67.7895 71.422L68.4241 73.882L70.6101 72.5915C71.6251 71.9935 72.9161 72.157 73.7481 72.991L75.8851 75.1275C76.7181 75.9605 76.8821 77.2505 76.2841 78.265L74.9941 80.4515L77.4521 81.085C77.4526 81.085 77.4531 81.0855 77.4536 81.0855C78.5931 81.381 79.3891 82.409 79.3891 83.5865V86.6095C79.3891 87.7865 78.5931 88.8145 77.4536 89.11L74.9941 89.744L76.2841 91.93C76.8821 92.9455 76.7176 94.2355 75.8851 95.068L73.7476 97.2055C72.9161 98.0375 71.6271 98.203 70.6111 97.605L68.4241 96.314L67.7901 98.772C67.4946 99.913 66.4666 100.709 65.2891 100.709V100.709ZM59.9275 93.1425C60.0895 93.1425 60.252 93.174 60.406 93.2375C60.769 93.388 61.04 93.7 61.138 94.0805L62.186 98.148C62.1955 98.183 62.228 98.209 62.266 98.209H65.2891C65.3271 98.209 65.36 98.183 65.3695 98.1465L66.4176 94.0805C66.5156 93.7 66.7865 93.388 67.1495 93.2375C67.513 93.086 67.925 93.116 68.2635 93.3155L71.8806 95.451C71.9121 95.469 71.9536 95.464 71.9801 95.438L74.1176 93.3005C74.1446 93.2735 74.1496 93.232 74.1301 93.1995L71.9956 89.5835C71.7961 89.245 71.7671 88.8325 71.9176 88.4695C72.0681 88.1065 72.3801 87.8355 72.7606 87.7375L76.8281 86.6895C76.8631 86.68 76.8891 86.6475 76.8891 86.6095V83.5865C76.8891 83.5485 76.8631 83.515 76.8266 83.5055L72.7606 82.458C72.3801 82.36 72.0681 82.089 71.9176 81.726C71.7671 81.363 71.7961 80.9505 71.9956 80.612L74.1306 76.995C74.1496 76.9635 74.1441 76.922 74.1176 76.895L71.9801 74.758C71.9531 74.731 71.9126 74.7265 71.8801 74.745L68.2635 76.88C67.9255 77.079 67.5135 77.1095 67.1495 76.958C66.7865 76.8075 66.5156 76.4955 66.4176 76.115L65.3691 72.0475C65.3596 72.0125 65.3271 71.9865 65.2891 71.9865H62.266C62.228 71.9865 62.195 72.0125 62.1855 72.049L61.138 76.115C61.04 76.4955 60.769 76.8075 60.406 76.958C60.042 77.108 59.63 77.0785 59.292 76.88L55.675 74.745C55.643 74.7265 55.6015 74.7315 55.575 74.758L53.438 76.895C53.411 76.9225 53.406 76.964 53.425 76.996L55.56 80.612C55.7595 80.95 55.7885 81.3625 55.638 81.726C55.4875 82.089 55.1755 82.36 54.795 82.458L50.7275 83.506C50.6925 83.5155 50.6665 83.5485 50.6665 83.5865V86.6095C50.6665 86.6475 50.6925 86.6805 50.729 86.69L54.795 87.7375C55.1755 87.8355 55.4875 88.1065 55.638 88.4695C55.7885 88.833 55.7595 89.2455 55.56 89.5835L53.4245 93.2005C53.406 93.232 53.4115 93.2735 53.4375 93.3L55.575 95.438C55.602 95.464 55.6435 95.47 55.6765 95.45L59.292 93.3155C59.4875 93.201 59.707 93.1425 59.9275 93.1425V93.1425Z" fill="#65C1D6"/>
<path d="M105.626 88.197C107.315 86.323 108.286 83.8665 108.286 81.245C108.286 75.5155 103.625 70.854 97.895 70.854C92.1655 70.854 87.504 75.5155 87.504 81.245C87.504 83.8665 88.4755 86.323 90.1645 88.197C84.727 88.8175 80.4885 93.448 80.4885 99.049V106.072H47.511V99.049C47.511 93.448 43.2725 88.8175 37.835 88.197C39.524 86.323 40.4955 83.8665 40.4955 81.245C40.4955 75.5155 35.834 70.854 30.1045 70.854C24.375 70.854 19.7135 75.5155 19.7135 81.245C19.7135 83.8665 20.685 86.323 22.374 88.197C16.9365 88.8175 12.698 93.448 12.698 99.049V114.036C12.698 114.727 13.2575 115.286 13.948 115.286H46.2605C46.951 115.286 47.5105 114.727 47.5105 114.036V108.572H80.488V114.036C80.488 114.727 81.0475 115.286 81.738 115.286H114.051C114.741 115.286 115.301 114.727 115.301 114.036V99.049C115.302 93.448 111.063 88.8175 105.626 88.197V88.197ZM45.011 112.786H15.1985V99.0485C15.1985 94.404 18.977 90.6255 23.621 90.6255H25.9245C26.5015 90.6255 27.0035 90.2305 27.1395 89.67C27.2755 89.1095 27.01 88.5285 26.497 88.264C23.855 86.903 22.214 84.213 22.214 81.244C22.214 76.893 25.754 73.353 30.105 73.353C34.456 73.353 37.996 76.893 37.996 81.244C37.996 84.213 36.355 86.903 33.713 88.264C33.2 88.528 32.9345 89.109 33.0705 89.67C33.2065 90.231 33.708 90.6255 34.2855 90.6255H36.589C41.233 90.6255 45.0115 94.404 45.0115 99.0485V112.786H45.011ZM112.802 112.786H82.989V99.0485C82.989 94.404 86.7675 90.6255 91.4115 90.6255H93.715C94.292 90.6255 94.794 90.2305 94.93 89.67C95.066 89.1095 94.8005 88.5285 94.2875 88.264C91.6455 86.903 90.0045 84.213 90.0045 81.244C90.0045 76.893 93.5445 73.353 97.8955 73.353C102.247 73.353 105.787 76.893 105.787 81.244C105.787 84.213 104.146 86.903 101.504 88.264C100.991 88.528 100.725 89.109 100.861 89.67C100.997 90.231 101.499 90.6255 102.076 90.6255H104.38C109.024 90.6255 112.802 94.404 112.802 99.0485V112.786H112.802Z" fill="#846F75"/>
<path d="M30.105 68.3535C30.7955 68.3535 31.355 67.794 31.355 67.1035V59.5375C31.355 56.88 33.517 54.7175 36.175 54.7175H42.5835V65.727C42.5835 66.4175 43.143 66.977 43.8335 66.977H83.7215C84.412 66.977 84.9715 66.4175 84.9715 65.727V54.7175H91.825C94.4825 54.7175 96.645 56.8795 96.645 59.5375V67.1035C96.645 67.794 97.2045 68.3535 97.895 68.3535C98.5855 68.3535 99.145 67.794 99.145 67.1035V59.5375C99.145 55.5015 95.8615 52.2175 91.825 52.2175H84.9715V47.226C84.9715 40.259 79.5425 34.537 72.6925 34.0675C74.982 31.7595 76.3115 28.617 76.3115 25.248C76.3115 18.337 70.6885 12.714 63.7775 12.714C56.8665 12.714 51.2435 18.337 51.2435 25.248C51.2435 28.6165 52.5735 31.759 54.862 34.0675C48.0125 34.537 42.583 40.2595 42.583 47.226V52.2175H36.175C32.139 52.2175 28.855 55.501 28.855 59.5375V67.1035C28.855 67.794 29.4145 68.3535 30.105 68.3535V68.3535ZM45.0835 47.226C45.0835 41.3315 49.8795 36.536 55.774 36.536H58.618C59.195 36.536 59.697 36.141 59.833 35.5805C59.969 35.02 59.7035 34.439 59.1905 34.1745C55.831 32.444 53.744 29.0235 53.744 25.2475C53.744 19.715 58.2455 15.2135 63.778 15.2135C69.3105 15.2135 73.812 19.715 73.812 25.2475C73.812 29.023 71.725 32.444 68.3655 34.1745C67.8525 34.4385 67.587 35.0195 67.723 35.5805C67.859 36.1415 68.3605 36.536 68.938 36.536H71.782C77.6765 36.536 82.472 41.3315 82.472 47.226V64.477H45.0835V47.226Z" fill="#846F75"/>
<path d="M57.7495 85.0975C57.7495 88.4215 60.4535 91.126 63.778 91.126C67.1025 91.126 69.8065 88.422 69.8065 85.0975C69.8065 81.773 67.1025 79.069 63.778 79.069C60.4535 79.069 57.7495 81.7735 57.7495 85.0975ZM67.306 85.0975C67.306 87.043 65.723 88.626 63.7775 88.626C61.832 88.626 60.249 87.043 60.249 85.0975C60.249 83.152 61.832 81.569 63.7775 81.569C65.723 81.569 67.306 83.1525 67.306 85.0975Z" fill="#846F75"/>
<path d="M69.324 60.9795C68.876 60.9795 68.428 60.8405 68.0455 60.563L64 57.6225L59.9545 60.5625C59.189 61.118 58.1615 61.1185 57.396 60.562C56.6315 60.0065 56.314 59.029 56.606 58.1295L58.1515 53.374L54.1055 50.4345C53.3405 49.8785 53.023 48.901 53.3155 48.0015C53.6075 47.102 54.4395 46.498 55.385 46.498H60.3855L61.931 41.742C62.223 40.843 63.0545 40.2385 64.0005 40.2385C64.9465 40.2385 65.778 40.843 66.07 41.742L67.6155 46.498H72.616C73.5615 46.498 74.3935 47.102 74.6855 48.0015C74.978 48.901 74.6605 49.8785 73.8955 50.4345L69.8495 53.374L71.395 58.13C71.687 59.029 71.3695 60.0065 70.605 60.562C70.221 60.8405 69.773 60.979 69.324 60.9795ZM56.382 48.998L59.8115 51.4895C60.5765 52.045 60.8945 53.023 60.6015 53.9225L59.292 57.9535L62.7205 55.462C63.486 54.9065 64.514 54.9065 65.2785 55.462L68.7075 57.9535L67.3975 53.922C67.105 53.023 67.423 52.045 68.1885 51.4895L71.6175 48.998H67.378C66.432 48.998 65.6005 48.394 65.3085 47.4945L64 43.464L62.6905 47.495C62.3985 48.3945 61.567 48.9985 60.621 48.9985H56.382V48.998ZM72.615 48.998H72.62H72.615Z" fill="#65C1D6"/>
</svg>
