<svg xmlns="http://www.w3.org/2000/svg" xmlns:xlink="http://www.w3.org/1999/xlink" viewBox="0 0 120 97"><defs><style>.cls-1{mask:url(#mask);filter:url(#luminosity-noclip-14);}.cls-10,.cls-12,.cls-14,.cls-16,.cls-18,.cls-2,.cls-20,.cls-22,.cls-24,.cls-26,.cls-4,.cls-6,.cls-8{mix-blend-mode:multiply;}.cls-2{fill:url(#linear-gradient);}.cls-3{mask:url(#mask-2);filter:url(#luminosity-noclip-19);}.cls-4{fill:url(#linear-gradient-2);}.cls-5,.cls-7{mask:url(#mask-3);}.cls-5{filter:url(#luminosity-noclip-20);}.cls-6{fill:url(#linear-gradient-3);}.cls-7{filter:url(#luminosity-noclip-21);}.cls-8{fill:url(#linear-gradient-4);}.cls-9{mask:url(#mask-5);filter:url(#luminosity-noclip-22);}.cls-10{fill:url(#radial-gradient);}.cls-11{mask:url(#mask-6);filter:url(#luminosity-noclip-23);}.cls-12{fill:url(#linear-gradient-5);}.cls-13{mask:url(#mask-7);filter:url(#luminosity-noclip-15);}.cls-14{fill:url(#linear-gradient-6);}.cls-15{mask:url(#mask-8);filter:url(#luminosity-noclip-24);}.cls-16{fill:url(#radial-gradient-2);}.cls-17{mask:url(#mask-9);filter:url(#luminosity-noclip-25);}.cls-18{fill:url(#linear-gradient-7);}.cls-19{mask:url(#mask-10);filter:url(#luminosity-noclip-26);}.cls-20{fill:url(#linear-gradient-8);}.cls-21{mask:url(#mask-11);filter:url(#luminosity-noclip-16);}.cls-22{fill:url(#linear-gradient-9);}.cls-23,.cls-25{mask:url(#mask-12);}.cls-23{filter:url(#luminosity-noclip-17);}.cls-24{fill:url(#linear-gradient-10);}.cls-25{filter:url(#luminosity-noclip-18);}.cls-26{fill:url(#linear-gradient-11);}.cls-27{isolation:isolate;}.cls-28{fill:url(#New_Gradient_Swatch_copy_17);}.cls-29{fill:url(#New_Gradient_Swatch_copy_17-2);}.cls-30{fill:#ff6413;}.cls-31{fill:url(#linear-gradient-12);}.cls-32{mask:url(#mask-14);}.cls-33,.cls-39,.cls-46,.cls-48,.cls-50,.cls-55{mix-blend-mode:overlay;}.cls-33{fill:url(#linear-gradient-13);}.cls-34{fill:url(#linear-gradient-14);}.cls-35{mask:url(#mask-15);}.cls-36{opacity:0.6;mix-blend-mode:hard-light;fill:url(#linear-gradient-15);}.cls-37{fill:url(#linear-gradient-16);}.cls-38{mask:url(#mask-16);}.cls-39{fill:url(#linear-gradient-17);}.cls-40{mask:url(#mask-17);}.cls-41,.cls-43,.cls-59,.cls-61{mix-blend-mode:soft-light;}.cls-41{fill:url(#linear-gradient-18);}.cls-42{mask:url(#mask-18);}.cls-43{fill:url(#linear-gradient-19);}.cls-44{fill:url(#New_Gradient_Swatch_copy_17-3);}.cls-45{mask:url(#mask-19);}.cls-46{fill:url(#linear-gradient-20);}.cls-47{mask:url(#mask-20);}.cls-48{fill:url(#linear-gradient-21);}.cls-49{mask:url(#mask-21);}.cls-50{fill:url(#linear-gradient-22);}.cls-51{mask:url(#mask-22);}.cls-52{fill:url(#radial-gradient-3);}.cls-53{fill:url(#New_Gradient_Swatch_copy_17-4);}.cls-54{mask:url(#mask-23);}.cls-55{fill:url(#linear-gradient-23);}.cls-56{mask:url(#mask-24);}.cls-57{fill:url(#radial-gradient-4);}.cls-58{mask:url(#mask-25);}.cls-59{fill:url(#linear-gradient-24);}.cls-60{mask:url(#mask-26);}.cls-61{fill:url(#linear-gradient-25);}.cls-62{fill:url(#New_Gradient_Swatch_copy_17-5);}.cls-63{fill:url(#New_Gradient_Swatch_copy_17-6);}.cls-64{fill:url(#linear-gradient-26);}.cls-65{fill:url(#linear-gradient-27);}.cls-66{fill:url(#linear-gradient-28);}.cls-67{fill:url(#linear-gradient-29);}.cls-68{fill:url(#linear-gradient-30);}.cls-69{fill:url(#linear-gradient-31);}.cls-70{filter:url(#luminosity-noclip-12);}.cls-71{filter:url(#luminosity-noclip-11);}.cls-72{filter:url(#luminosity-noclip-10);}.cls-73{filter:url(#luminosity-noclip-9);}.cls-74{filter:url(#luminosity-noclip-8);}.cls-75{filter:url(#luminosity-noclip-7);}.cls-76{filter:url(#luminosity-noclip-6);}.cls-77{filter:url(#luminosity-noclip-5);}.cls-78{filter:url(#luminosity-noclip-3);}.cls-79{filter:url(#luminosity-noclip-2);}.cls-80{filter:url(#luminosity-noclip);}</style><filter id="luminosity-noclip" x="6.82" y="-8240" width="17.63" height="32766" filterUnits="userSpaceOnUse" color-interpolation-filters="sRGB"><feFlood flood-color="#fff" result="bg"/><feBlend in="SourceGraphic" in2="bg"/></filter><mask id="mask" x="6.82" y="-8240" width="17.63" height="32766" maskUnits="userSpaceOnUse"><g class="cls-80"/></mask><linearGradient id="linear-gradient" x1="178.76" y1="42.31" x2="203.52" y2="41.28" gradientTransform="matrix(-1, 0, 0, 1, 212.26, 0)" gradientUnits="userSpaceOnUse"><stop offset="0" stop-color="#fff"/><stop offset="1"/></linearGradient><filter id="luminosity-noclip-2" x="3.35" y="-8240" width="5.99" height="32766" filterUnits="userSpaceOnUse" color-interpolation-filters="sRGB"><feFlood flood-color="#fff" result="bg"/><feBlend in="SourceGraphic" in2="bg"/></filter><mask id="mask-2" x="3.35" y="-8240" width="5.99" height="32766" maskUnits="userSpaceOnUse"><g class="cls-79"/></mask><linearGradient id="linear-gradient-2" x1="208.24" y1="41.61" x2="202.22" y2="45.71" gradientTransform="matrix(-1, 0, 0, 1, 212.26, 0)" gradientUnits="userSpaceOnUse"><stop offset="0" stop-color="#fff"/><stop offset="0.08" stop-color="#f6f6f6"/><stop offset="0.23" stop-color="#ddd"/><stop offset="0.4" stop-color="#b4b4b4"/><stop offset="0.61" stop-color="#7b7b7b"/><stop offset="0.85" stop-color="#333"/><stop offset="1"/></linearGradient><filter id="luminosity-noclip-3" x="3.35" y="-8240" width="3.04" height="32766" filterUnits="userSpaceOnUse" color-interpolation-filters="sRGB"><feFlood flood-color="#fff" result="bg"/><feBlend in="SourceGraphic" in2="bg"/></filter><mask id="mask-3" x="3.35" y="-8240" width="3.04" height="32766" maskUnits="userSpaceOnUse"><g class="cls-78"/></mask><linearGradient id="linear-gradient-3" x1="200.22" y1="44.7" x2="209.78" y2="48.9" xlink:href="#linear-gradient-2"/><linearGradient id="linear-gradient-4" x1="213.67" y1="44.84" x2="206.27" y2="49.48" xlink:href="#linear-gradient-2"/><filter id="luminosity-noclip-5" x="3.14" y="-8240" width="9.67" height="32766" filterUnits="userSpaceOnUse" color-interpolation-filters="sRGB"><feFlood flood-color="#fff" result="bg"/><feBlend in="SourceGraphic" in2="bg"/></filter><mask id="mask-5" x="3.14" y="-8240" width="9.67" height="32766" maskUnits="userSpaceOnUse"><g class="cls-77"/></mask><radialGradient id="radial-gradient" cx="209.08" cy="49.01" r="29.5" gradientTransform="matrix(-1, 0, 0, 1, 212.26, 0)" gradientUnits="userSpaceOnUse"><stop offset="0" stop-color="#fff"/><stop offset="0.32" stop-color="#ababab"/><stop offset="1"/></radialGradient><filter id="luminosity-noclip-6" x="9.56" y="-8240" width="3.18" height="32766" filterUnits="userSpaceOnUse" color-interpolation-filters="sRGB"><feFlood flood-color="#fff" result="bg"/><feBlend in="SourceGraphic" in2="bg"/></filter><mask id="mask-6" x="9.56" y="-8240" width="3.18" height="32766" maskUnits="userSpaceOnUse"><g class="cls-76"/></mask><linearGradient id="linear-gradient-5" x1="201.58" y1="37.98" x2="198.97" y2="43.8" xlink:href="#linear-gradient-2"/><filter id="luminosity-noclip-7" x="16.54" y="-8240" width="6.2" height="32766" filterUnits="userSpaceOnUse" color-interpolation-filters="sRGB"><feFlood flood-color="#fff" result="bg"/><feBlend in="SourceGraphic" in2="bg"/></filter><mask id="mask-7" x="16.54" y="-8240" width="6.2" height="32766" maskUnits="userSpaceOnUse"><g class="cls-75"/></mask><linearGradient id="linear-gradient-6" x1="184.76" y1="65.7" x2="196.29" y2="50.53" xlink:href="#linear-gradient-2"/><filter id="luminosity-noclip-8" x="9.33" y="-8240" width="13.03" height="32766" filterUnits="userSpaceOnUse" color-interpolation-filters="sRGB"><feFlood flood-color="#fff" result="bg"/><feBlend in="SourceGraphic" in2="bg"/></filter><mask id="mask-8" x="9.33" y="-8240" width="13.03" height="32766" maskUnits="userSpaceOnUse"><g class="cls-74"/></mask><radialGradient id="radial-gradient-2" cx="192.7" cy="41.97" r="22.41" gradientTransform="matrix(-1, 0, 0, 1, 212.26, 0)" xlink:href="#linear-gradient"/><filter id="luminosity-noclip-9" x="18.09" y="-8240" width="3.54" height="32766" filterUnits="userSpaceOnUse" color-interpolation-filters="sRGB"><feFlood flood-color="#fff" result="bg"/><feBlend in="SourceGraphic" in2="bg"/></filter><mask id="mask-9" x="18.09" y="-8240" width="3.54" height="32766" maskUnits="userSpaceOnUse"><g class="cls-73"/></mask><linearGradient id="linear-gradient-7" x1="191.21" y1="37.97" x2="194.03" y2="43.62" xlink:href="#linear-gradient"/><filter id="luminosity-noclip-10" x="16.24" y="-8240" width="2.59" height="32766" filterUnits="userSpaceOnUse" color-interpolation-filters="sRGB"><feFlood flood-color="#fff" result="bg"/><feBlend in="SourceGraphic" in2="bg"/></filter><mask id="mask-10" x="16.24" y="-8240" width="2.59" height="32766" maskUnits="userSpaceOnUse"><g class="cls-72"/></mask><linearGradient id="linear-gradient-8" x1="193.6" y1="36.78" x2="196.42" y2="42.42" xlink:href="#linear-gradient"/><filter id="luminosity-noclip-11" x="0.5" y="-8240" width="21.85" height="32766" filterUnits="userSpaceOnUse" color-interpolation-filters="sRGB"><feFlood flood-color="#fff" result="bg"/><feBlend in="SourceGraphic" in2="bg"/></filter><mask id="mask-11" x="0.5" y="-8240" width="21.85" height="32766" maskUnits="userSpaceOnUse"><g class="cls-71"/></mask><linearGradient id="linear-gradient-9" x1="230.37" y1="32.36" x2="201.88" y2="52.95" xlink:href="#linear-gradient"/><filter id="luminosity-noclip-12" x="-0.22" y="-8240" width="3.57" height="32766" filterUnits="userSpaceOnUse" color-interpolation-filters="sRGB"><feFlood flood-color="#fff" result="bg"/><feBlend in="SourceGraphic" in2="bg"/></filter><mask id="mask-12" x="-0.22" y="-8240" width="3.57" height="32766" maskUnits="userSpaceOnUse"><g class="cls-70"/></mask><linearGradient id="linear-gradient-10" x1="213.64" y1="45.3" x2="208.19" y2="45.32" xlink:href="#linear-gradient"/><linearGradient id="linear-gradient-11" x1="214.26" y1="48.08" x2="208.67" y2="48.39" xlink:href="#linear-gradient"/><linearGradient id="New_Gradient_Swatch_copy_17" x1="29.65" y1="49.73" x2="41.73" y2="49.73" gradientUnits="userSpaceOnUse"><stop offset="0" stop-color="#61aaea"/><stop offset="0.4" stop-color="#3f6faf"/><stop offset="1" stop-color="#32348c"/></linearGradient><linearGradient id="New_Gradient_Swatch_copy_17-2" x1="42.05" y1="49.73" x2="54.7" y2="49.73" xlink:href="#New_Gradient_Swatch_copy_17"/><linearGradient id="linear-gradient-12" x1="181" y1="47.7" x2="221.88" y2="27.26" gradientTransform="matrix(-1, 0, 0, 1, 212.26, 0)" gradientUnits="userSpaceOnUse"><stop offset="0" stop-color="#75cafb"/><stop offset="1" stop-color="#2f45be"/></linearGradient><filter id="luminosity-noclip-14" x="6.82" y="34.83" width="17.63" height="13.7" filterUnits="userSpaceOnUse" color-interpolation-filters="sRGB"><feFlood flood-color="#fff" result="bg"/><feBlend in="SourceGraphic" in2="bg"/></filter><mask id="mask-14" x="6.82" y="34.83" width="17.63" height="13.7" maskUnits="userSpaceOnUse"><g class="cls-1"><polygon class="cls-2" points="24.44 41.74 12.47 34.83 6.82 38.36 24.44 48.54 24.44 41.74"/></g></mask><linearGradient id="linear-gradient-13" x1="178.76" y1="42.31" x2="203.52" y2="41.28" gradientTransform="matrix(-1, 0, 0, 1, 212.26, 0)" gradientUnits="userSpaceOnUse"><stop offset="0" stop-color="#f0f1f1"/><stop offset="1" stop-color="#f0f1f1"/></linearGradient><linearGradient id="linear-gradient-14" x1="209.64" y1="44.04" x2="188.95" y2="71.11" gradientTransform="matrix(-1, 0, 0, 1, 212.26, 0)" gradientUnits="userSpaceOnUse"><stop offset="0" stop-color="#ebb839"/><stop offset="0.59" stop-color="#d7792d"/><stop offset="0.77" stop-color="#d46a2c"/><stop offset="0.91" stop-color="#d3632c"/><stop offset="0.92" stop-color="#d3622c"/><stop offset="1" stop-color="#d15d2b"/></linearGradient><filter id="luminosity-noclip-15" x="16.54" y="53.34" width="6.2" height="4.86" filterUnits="userSpaceOnUse" color-interpolation-filters="sRGB"><feFlood flood-color="#fff" result="bg"/><feBlend in="SourceGraphic" in2="bg"/></filter><mask id="mask-15" x="16.54" y="53.34" width="6.2" height="4.86" maskUnits="userSpaceOnUse"><g class="cls-13"><polygon class="cls-14" points="22.74 57.39 21.34 58.19 21.33 58.2 16.54 53.34 22.69 57.34 22.74 57.39"/></g></mask><linearGradient id="linear-gradient-15" x1="184.76" y1="65.7" x2="196.29" y2="50.53" gradientTransform="matrix(-1, 0, 0, 1, 212.26, 0)" gradientUnits="userSpaceOnUse"><stop offset="0" stop-color="#272425"/><stop offset="1" stop-color="#272425"/></linearGradient><linearGradient id="linear-gradient-16" x1="218.53" y1="37.26" x2="193.84" y2="60.01" gradientTransform="matrix(-1, 0, 0, 1, 212.26, 0)" gradientUnits="userSpaceOnUse"><stop offset="0" stop-color="#de912f"/><stop offset="1" stop-color="#cd4238"/></linearGradient><filter id="luminosity-noclip-16" x="0.5" y="39.29" width="21.85" height="23.19" filterUnits="userSpaceOnUse" color-interpolation-filters="sRGB"><feFlood flood-color="#fff" result="bg"/><feBlend in="SourceGraphic" in2="bg"/></filter><mask id="mask-16" x="0.5" y="39.29" width="21.85" height="23.19" maskUnits="userSpaceOnUse"><g class="cls-21"><polygon class="cls-22" points="4.95 39.29 7.13 41.35 3.35 43.53 3.35 54.38 12.74 59.8 19.22 56.05 17.06 53.87 18.49 53.04 22.36 56.77 12.47 62.48 0.5 55.57 0.5 41.74 4.95 39.29"/></g></mask><linearGradient id="linear-gradient-17" x1="230.37" y1="32.36" x2="201.88" y2="52.95" xlink:href="#linear-gradient-13"/><filter id="luminosity-noclip-17" x="-0.22" y="44.09" width="3.57" height="2.54" filterUnits="userSpaceOnUse" color-interpolation-filters="sRGB"><feFlood flood-color="#fff" result="bg"/><feBlend in="SourceGraphic" in2="bg"/></filter><mask id="mask-17" x="-0.22" y="44.09" width="3.57" height="2.54" maskUnits="userSpaceOnUse"><g class="cls-23"><polygon class="cls-24" points="3.35 44.26 3.35 46.62 -0.22 46.24 -0.22 44.09 3.35 44.26"/></g></mask><linearGradient id="linear-gradient-18" x1="213.64" y1="45.3" x2="208.19" y2="45.32" xlink:href="#linear-gradient-13"/><filter id="luminosity-noclip-18" x="-0.22" y="47.38" width="3.57" height="1.78" filterUnits="userSpaceOnUse" color-interpolation-filters="sRGB"><feFlood flood-color="#fff" result="bg"/><feBlend in="SourceGraphic" in2="bg"/></filter><mask id="mask-18" x="-0.22" y="47.38" width="3.57" height="1.78" maskUnits="userSpaceOnUse"><g class="cls-25"><polygon class="cls-26" points="3.35 48.08 3.35 49.16 -0.22 48.47 -0.22 47.38 3.35 48.08"/></g></mask><linearGradient id="linear-gradient-19" x1="214.26" y1="48.08" x2="208.67" y2="48.39" xlink:href="#linear-gradient-13"/><linearGradient id="New_Gradient_Swatch_copy_17-3" x1="192.45" y1="51.27" x2="200.73" y2="31.38" gradientTransform="matrix(-1, 0, 0, 1, 212.26, 0)" xlink:href="#New_Gradient_Swatch_copy_17"/><filter id="luminosity-noclip-19" x="3.35" y="41.35" width="5.99" height="3.79" filterUnits="userSpaceOnUse" color-interpolation-filters="sRGB"><feFlood flood-color="#fff" result="bg"/><feBlend in="SourceGraphic" in2="bg"/></filter><mask id="mask-19" x="3.35" y="41.35" width="5.99" height="3.79" maskUnits="userSpaceOnUse"><g class="cls-3"><polygon class="cls-4" points="9.34 43.44 6.39 45.14 3.35 43.53 7.13 41.35 9.34 43.44"/></g></mask><linearGradient id="linear-gradient-20" x1="208.24" y1="41.61" x2="202.22" y2="45.71" xlink:href="#linear-gradient-15"/><filter id="luminosity-noclip-20" x="3.35" y="43.53" width="3.04" height="8.64" filterUnits="userSpaceOnUse" color-interpolation-filters="sRGB"><feFlood flood-color="#fff" result="bg"/><feBlend in="SourceGraphic" in2="bg"/></filter><mask id="mask-20" x="3.35" y="43.53" width="3.04" height="8.64" maskUnits="userSpaceOnUse"><g class="cls-5"><polygon class="cls-6" points="6.39 45.14 6.39 52.17 3.35 43.53 6.39 45.14"/></g></mask><linearGradient id="linear-gradient-21" x1="200.22" y1="44.7" x2="209.78" y2="48.9" xlink:href="#linear-gradient-15"/><filter id="luminosity-noclip-21" x="3.35" y="43.53" width="3.04" height="8.88" filterUnits="userSpaceOnUse" color-interpolation-filters="sRGB"><feFlood flood-color="#fff" result="bg"/><feBlend in="SourceGraphic" in2="bg"/></filter><mask id="mask-21" x="3.35" y="43.53" width="3.04" height="8.88" maskUnits="userSpaceOnUse"><g class="cls-7"><polygon class="cls-8" points="6.39 45.14 3.35 52.41 3.35 43.53 6.39 45.14"/></g></mask><linearGradient id="linear-gradient-22" x1="213.67" y1="44.84" x2="206.27" y2="49.48" xlink:href="#linear-gradient-15"/><filter id="luminosity-noclip-22" x="3.14" y="41.2" width="9.67" height="18.88" filterUnits="userSpaceOnUse" color-interpolation-filters="sRGB"><feFlood flood-color="#fff" result="bg"/><feBlend in="SourceGraphic" in2="bg"/></filter><mask id="mask-22" x="3.14" y="41.2" width="9.67" height="18.88" maskUnits="userSpaceOnUse"><g class="cls-9"><polygon class="cls-10" points="6.97 41.2 7.13 41.35 3.35 43.53 3.35 54.38 12.74 59.8 12.81 60.08 3.14 54.49 3.14 43.41 6.97 41.2"/></g></mask><radialGradient id="radial-gradient-3" cx="209.08" cy="49.01" r="29.5" gradientTransform="matrix(-1, 0, 0, 1, 212.26, 0)" gradientUnits="userSpaceOnUse"><stop offset="0" stop-color="#fdffd1"/><stop offset="1" stop-color="#e9b138"/></radialGradient><linearGradient id="New_Gradient_Swatch_copy_17-4" x1="193.28" y1="47.14" x2="189.02" y2="44.74" gradientTransform="matrix(-1, 0, 0, 1, 212.26, 0)" xlink:href="#New_Gradient_Swatch_copy_17"/><filter id="luminosity-noclip-23" x="9.56" y="38.11" width="3.18" height="3.67" filterUnits="userSpaceOnUse" color-interpolation-filters="sRGB"><feFlood flood-color="#fff" result="bg"/><feBlend in="SourceGraphic" in2="bg"/></filter><mask id="mask-23" x="9.56" y="38.11" width="3.18" height="3.67" maskUnits="userSpaceOnUse"><g class="cls-11"><polygon class="cls-12" points="12.74 38.11 12.74 41.78 9.56 39.95 12.74 38.11"/></g></mask><linearGradient id="linear-gradient-23" x1="201.58" y1="37.98" x2="198.97" y2="43.8" xlink:href="#linear-gradient-15"/><filter id="luminosity-noclip-24" x="9.33" y="37.84" width="13.03" height="9.49" filterUnits="userSpaceOnUse" color-interpolation-filters="sRGB"><feFlood flood-color="#fff" result="bg"/><feBlend in="SourceGraphic" in2="bg"/></filter><mask id="mask-24" x="9.33" y="37.84" width="13.03" height="9.49" maskUnits="userSpaceOnUse"><g class="cls-15"><polygon class="cls-16" points="9.33 39.81 12.74 37.84 22.24 43.33 22.36 43.4 22.36 47.33 22.13 47.2 22.13 43.53 12.74 38.11 9.56 39.95 9.33 39.81"/></g></mask><radialGradient id="radial-gradient-4" cx="192.7" cy="41.97" r="22.41" gradientTransform="matrix(-1, 0, 0, 1, 212.26, 0)" gradientUnits="userSpaceOnUse"><stop offset="0" stop-color="#cdfffa"/><stop offset="1" stop-color="#5f9fe4"/></radialGradient><filter id="luminosity-noclip-25" x="18.09" y="38.09" width="3.54" height="4.37" filterUnits="userSpaceOnUse" color-interpolation-filters="sRGB"><feFlood flood-color="#fff" result="bg"/><feBlend in="SourceGraphic" in2="bg"/></filter><mask id="mask-25" x="18.09" y="38.09" width="3.54" height="4.37" maskUnits="userSpaceOnUse"><g class="cls-17"><polygon class="cls-18" points="21.63 39.29 20.25 42.45 18.09 41.2 19.55 38.09 21.63 39.29"/></g></mask><linearGradient id="linear-gradient-24" x1="191.21" y1="37.97" x2="194.03" y2="43.62" xlink:href="#linear-gradient-13"/><filter id="luminosity-noclip-26" x="16.24" y="37.02" width="2.59" height="3.81" filterUnits="userSpaceOnUse" color-interpolation-filters="sRGB"><feFlood flood-color="#fff" result="bg"/><feBlend in="SourceGraphic" in2="bg"/></filter><mask id="mask-26" x="16.24" y="37.02" width="2.59" height="3.81" maskUnits="userSpaceOnUse"><g class="cls-19"><polygon class="cls-20" points="18.83 37.67 17.46 40.84 16.24 40.14 17.71 37.02 18.83 37.67"/></g></mask><linearGradient id="linear-gradient-25" x1="193.6" y1="36.78" x2="196.42" y2="42.42" xlink:href="#linear-gradient-13"/><linearGradient id="New_Gradient_Swatch_copy_17-5" x1="37.19" y1="43.56" x2="34.61" y2="58.5" xlink:href="#New_Gradient_Swatch_copy_17"/><linearGradient id="New_Gradient_Swatch_copy_17-6" x1="48.42" y1="45.5" x2="45.83" y2="60.44" xlink:href="#New_Gradient_Swatch_copy_17"/><linearGradient id="linear-gradient-26" x1="62.47" y1="39.39" x2="61.42" y2="55.22" gradientTransform="matrix(1, 0, 0, 1, 0, 0)" xlink:href="#linear-gradient-16"/><linearGradient id="linear-gradient-27" x1="73.67" y1="40.13" x2="72.62" y2="55.96" gradientTransform="matrix(1, 0, 0, 1, 0, 0)" xlink:href="#linear-gradient-16"/><linearGradient id="linear-gradient-28" x1="83.41" y1="40.78" x2="82.36" y2="56.61" gradientTransform="matrix(1, 0, 0, 1, 0, 0)" xlink:href="#linear-gradient-16"/><linearGradient id="linear-gradient-29" x1="95.62" y1="41.59" x2="94.57" y2="57.42" gradientTransform="matrix(1, 0, 0, 1, 0, 0)" xlink:href="#linear-gradient-16"/><linearGradient id="linear-gradient-30" x1="106.76" y1="42.33" x2="105.71" y2="58.16" gradientTransform="matrix(1, 0, 0, 1, 0, 0)" xlink:href="#linear-gradient-16"/><linearGradient id="linear-gradient-31" x1="116.49" y1="42.97" x2="115.44" y2="58.8" gradientTransform="matrix(1, 0, 0, 1, 0, 0)" xlink:href="#linear-gradient-16"/></defs><title>CFBrocker-Logo-120x97Монтажная область 1</title><g class="cls-27"><g id="Слой_1" data-name="Слой 1"><path class="cls-28" d="M41.2,43.21v3.24H36.74a3.46,3.46,0,0,0-.82.11,2.16,2.16,0,0,0-.67.31A2.2,2.2,0,0,0,34.5,48a4.13,4.13,0,0,0-.13.63c0,.22,0,.43,0,.62s0,.38,0,.55a7.89,7.89,0,0,0,0,.91,6,6,0,0,0,.08.62,3.29,3.29,0,0,0,.1.4,1.91,1.91,0,0,0,.1.23,1.39,1.39,0,0,0,.53.59,2.25,2.25,0,0,0,.73.3,5,5,0,0,0,.9.11c.32,0,.66,0,1,0H41.4v3.25H35.62a12,12,0,0,1-1.4-.07A5.34,5.34,0,0,1,33,56a4,4,0,0,1-1-.49,3.28,3.28,0,0,1-.86-.81,4,4,0,0,1-.52-.79,5,5,0,0,1-.38-1,8.41,8.41,0,0,1-.22-1.29A16.55,16.55,0,0,1,30,49.9,17.28,17.28,0,0,1,30.19,47a4.67,4.67,0,0,1,.92-2.13,3.75,3.75,0,0,1,1-.91,5.18,5.18,0,0,1,1.16-.51,6.55,6.55,0,0,1,1.22-.23c.42,0,.81,0,1.18,0H41.2m.32-.33H35.68c-.38,0-.78,0-1.2,0a5.86,5.86,0,0,0-1.29.24,5.42,5.42,0,0,0-1.24.54,4.1,4.1,0,0,0-1.09,1,4.84,4.84,0,0,0-1,2.26,18,18,0,0,0-.22,2.93,16.82,16.82,0,0,0,.08,1.69A9.45,9.45,0,0,0,30,52.94a5.56,5.56,0,0,0,.4,1.07,5,5,0,0,0,.56.85,3.8,3.8,0,0,0,.93.87,4.71,4.71,0,0,0,1.08.53,5.89,5.89,0,0,0,1.25.25,12.86,12.86,0,0,0,1.44.07h6.11V52.69H37.79l-1,0a4.19,4.19,0,0,1-.83-.1,2.15,2.15,0,0,1-.64-.26,1.21,1.21,0,0,1-.42-.47l-.07-.19a1.26,1.26,0,0,1-.09-.35,5.31,5.31,0,0,1-.08-.59c0-.24,0-.53,0-.88,0-.16,0-.34,0-.52s0-.4.06-.61a3.84,3.84,0,0,1,.11-.59,1.59,1.59,0,0,1,.19-.46h0a1.39,1.39,0,0,1,.42-.49,1.82,1.82,0,0,1,.58-.27,3.31,3.31,0,0,1,.74-.1h4.77V42.88Z"/><path class="cls-29" d="M54.38,43.21v3.17h-7l-.31,0a.6.6,0,0,0-.29.16.62.62,0,0,0-.16.3,1.74,1.74,0,0,0-.05.39v.92h5.69v2.94H46.58v5.15H42.37V45.41a3.46,3.46,0,0,1,.11-.84,1.8,1.8,0,0,1,.49-.8,1.73,1.73,0,0,1,.87-.48,5.36,5.36,0,0,1,.82-.08h9.72m.32-.33h-10a4.85,4.85,0,0,0-.87.09,2.08,2.08,0,0,0-1,.56,2.19,2.19,0,0,0-.57,1,3.69,3.69,0,0,0-.12.92V56.58h4.86V51.43h5.68V47.84H46.91v-.59a1.55,1.55,0,0,1,0-.31.35.35,0,0,1,.08-.15.32.32,0,0,1,.11-.07l.26,0H54.7V42.88Z"/><path class="cls-30" d="M64.35,43.21l.74,0a3.88,3.88,0,0,1,.75.11,3.07,3.07,0,0,1,.72.25,2,2,0,0,1,.62.47,1.84,1.84,0,0,1,.44.63,3.28,3.28,0,0,1,.24.73,4.57,4.57,0,0,1,.12.74c0,.25,0,.48,0,.69a5.19,5.19,0,0,1-.1,1,2.08,2.08,0,0,1-.55,1,1.89,1.89,0,0,1-1.3.66v.07a2.48,2.48,0,0,1,.89.23,2.73,2.73,0,0,1,.65.44,2,2,0,0,1,.62,1.11,8.18,8.18,0,0,1,.09,1.2c0,.21,0,.43,0,.66a3.34,3.34,0,0,1-.08.7,3.68,3.68,0,0,1-.23.71,2.43,2.43,0,0,1-.46.67,2.81,2.81,0,0,1-.65.53,3.16,3.16,0,0,1-.7.27,4.76,4.76,0,0,1-.77.1l-.81,0H57.3a2.2,2.2,0,0,1-.5-.06,1.91,1.91,0,0,1-.5-.19,1.6,1.6,0,0,1-.47-.37,1.77,1.77,0,0,1-.36-.68,2.68,2.68,0,0,1-.12-.77V45.31a2.11,2.11,0,0,1,.44-1.45,1.91,1.91,0,0,1,.65-.47,2,2,0,0,1,.83-.18h7.08m-4.79,5h3.13a3.56,3.56,0,0,0,.55,0,.7.7,0,0,0,.46-.31,1,1,0,0,0,.1-.3,1.69,1.69,0,0,0,0-.3.79.79,0,0,0-.06-.32.7.7,0,0,0-.15-.24.78.78,0,0,0-.47-.23l-.48,0h-2.4l-.28,0a.49.49,0,0,0-.26.13.39.39,0,0,0-.16.27,2.71,2.71,0,0,0,0,.29v1.06M60.49,53h2.24a2.62,2.62,0,0,0,.83-.09.77.77,0,0,0,.29-.17,1,1,0,0,0,.16-.33,1.41,1.41,0,0,0,.08-.43.91.91,0,0,0-.17-.56.77.77,0,0,0-.51-.33,4,4,0,0,0-.57,0H59.56v1a2.32,2.32,0,0,0,0,.52.67.67,0,0,0,.11.27.5.5,0,0,0,.38.16,3.19,3.19,0,0,0,.4,0m3.86-10.13H57.27a2.33,2.33,0,0,0-1,.22,2.15,2.15,0,0,0-.75.55A2.41,2.41,0,0,0,55,45.31v8.88a2.92,2.92,0,0,0,.14.86,2.13,2.13,0,0,0,.43.8h0a2.17,2.17,0,0,0,.55.44,2.63,2.63,0,0,0,.59.22,2.91,2.91,0,0,0,.57.06h7.29l.83,0a4.38,4.38,0,0,0,.82-.11,2.86,2.86,0,0,0,.78-.3,3.21,3.21,0,0,0,.73-.58,2.68,2.68,0,0,0,.52-.77,3.64,3.64,0,0,0,.25-.77,4,4,0,0,0,.1-.76V52.6a8.86,8.86,0,0,0-.09-1.25,2.29,2.29,0,0,0-.71-1.29,3.35,3.35,0,0,0-.73-.5h0a2.18,2.18,0,0,0,.53-.44A2.37,2.37,0,0,0,68.22,48a5.8,5.8,0,0,0,.11-1.11c0-.22,0-.46,0-.71a5.19,5.19,0,0,0-.12-.79,4.3,4.3,0,0,0-.26-.79,2.43,2.43,0,0,0-.5-.73,2.79,2.79,0,0,0-.72-.53,3.72,3.72,0,0,0-.79-.28,5.32,5.32,0,0,0-.8-.12l-.76,0Zm-4.46,4,0-.06a.2.2,0,0,1,.09-.05l.24,0h2.4l.44,0a.44.44,0,0,1,.28.14.24.24,0,0,1,.08.13.56.56,0,0,1,0,.2,1.19,1.19,0,0,1,0,.25.48.48,0,0,1-.06.18.34.34,0,0,1-.23.16,4.57,4.57,0,0,1-.5,0H59.88v-.74a2.17,2.17,0,0,1,0-.26Zm0,4.48h3a3.28,3.28,0,0,1,.52,0,.45.45,0,0,1,.3.2.58.58,0,0,1,.11.37,1.12,1.12,0,0,1-.17.55l-.16.08a2.1,2.1,0,0,1-.71.07H60.49l-.38,0a.21.21,0,0,1-.15-.05.36.36,0,0,1-.05-.13,2.82,2.82,0,0,1,0-.45v-.66Z"/><path class="cls-30" d="M76.67,46.38V49H75.4a4.05,4.05,0,0,0-1,.12,1.48,1.48,0,0,0-.83.59,2.07,2.07,0,0,0-.4.94,5.41,5.41,0,0,0-.09.94v4.72H69.42V50.53c0-.23,0-.49,0-.77a4.44,4.44,0,0,1,.15-.86,4.12,4.12,0,0,1,.35-.85,2.77,2.77,0,0,1,.64-.74,3.4,3.4,0,0,1,.9-.52,5,5,0,0,1,1-.28,6.44,6.44,0,0,1,1-.11c.3,0,.58,0,.83,0h2.42m.32-.33H74.25l-.84,0a9.06,9.06,0,0,0-1,.12,5.59,5.59,0,0,0-1,.3,3.35,3.35,0,0,0-1,.57,3.28,3.28,0,0,0-.72.83,3.72,3.72,0,0,0-.38.93,4.33,4.33,0,0,0-.16.92c0,.28,0,.55,0,.79v6h4.3v-5a4.81,4.81,0,0,1,.08-.89,1.77,1.77,0,0,1,.34-.8,1.22,1.22,0,0,1,.65-.47,4,4,0,0,1,.93-.11H77V46.05Z"/><path class="cls-30" d="M82.71,46.26l1.19,0a11.61,11.61,0,0,1,1.2.12,6.23,6.23,0,0,1,1.09.3,3.43,3.43,0,0,1,.92.56,3.1,3.1,0,0,1,.73,1,6.13,6.13,0,0,1,.39,1.11,6,6,0,0,1,.16,1.08q0,.53,0,.9c0,.25,0,.54,0,.89a6,6,0,0,1-.16,1.08,5.63,5.63,0,0,1-.39,1.11,3,3,0,0,1-.73,1,3.2,3.2,0,0,1-.92.56,4.87,4.87,0,0,1-1.09.3,11.61,11.61,0,0,1-1.2.12l-1.19,0-1.2,0a11,11,0,0,1-1.18-.12,5,5,0,0,1-1.1-.3,3.34,3.34,0,0,1-.92-.56,3,3,0,0,1-.73-1,5.63,5.63,0,0,1-.39-1.11A7.05,7.05,0,0,1,77,52.21c0-.35,0-.64,0-.89s0-.55,0-.9a7.05,7.05,0,0,1,.16-1.08,6.13,6.13,0,0,1,.39-1.11,3.1,3.1,0,0,1,.73-1,3.6,3.6,0,0,1,.92-.56,6.35,6.35,0,0,1,1.1-.3,11,11,0,0,1,1.18-.12l1.2,0m0,7.46a2,2,0,0,0,1.11-.24,1.84,1.84,0,0,0,.49-.43,1.8,1.8,0,0,0,.3-.75,5.89,5.89,0,0,0,.08-1,4.82,4.82,0,0,0-.11-1.18,1.56,1.56,0,0,0-.25-.59,1.71,1.71,0,0,0-.5-.41,2.84,2.84,0,0,0-2.24,0,1.85,1.85,0,0,0-.5.41,2.56,2.56,0,0,0-.22.52,4.08,4.08,0,0,0-.13,1.25,4.4,4.4,0,0,0,.12,1.2,1.82,1.82,0,0,0,.23.53.72.72,0,0,0,.12.15,1.29,1.29,0,0,0,.3.22,2.16,2.16,0,0,0,.48.21,2.53,2.53,0,0,0,.72.09m0-7.78-1.22,0a9.89,9.89,0,0,0-1.22.13,5.67,5.67,0,0,0-1.16.31,3.62,3.62,0,0,0-1,.62,3.48,3.48,0,0,0-.81,1.06,5.91,5.91,0,0,0-.41,1.18,6.73,6.73,0,0,0-.17,1.13c0,.36,0,.66,0,.92s0,.56,0,.91a6.84,6.84,0,0,0,.17,1.14,6,6,0,0,0,.41,1.17,3.37,3.37,0,0,0,.81,1.06,3.62,3.62,0,0,0,1,.62,5.69,5.69,0,0,0,1.16.32c.4.06.81.1,1.22.12l1.22,0,1.21,0a12.2,12.2,0,0,0,1.23-.12,5.35,5.35,0,0,0,1.16-.32,3.83,3.83,0,0,0,1-.61,3.23,3.23,0,0,0,.81-1.07,6,6,0,0,0,.41-1.17,6.84,6.84,0,0,0,.17-1.14c0-.35,0-.66,0-.91s0-.56,0-.92a6.73,6.73,0,0,0-.17-1.13,5.91,5.91,0,0,0-.41-1.18A3.19,3.19,0,0,0,87.32,47a3.62,3.62,0,0,0-1-.62,5.34,5.34,0,0,0-1.16-.31A9.85,9.85,0,0,0,83.92,46l-1.21,0Zm-1.36,3.79a2.29,2.29,0,0,1,.42-.32,1.79,1.79,0,0,1,.94-.17,1.84,1.84,0,0,1,1,.17,2.18,2.18,0,0,1,.42.33,1.75,1.75,0,0,1,.19.48,4.94,4.94,0,0,1,.09,1.1,5.14,5.14,0,0,1-.07.92,1.49,1.49,0,0,1-.24.62,1.48,1.48,0,0,1-.41.35,1.64,1.64,0,0,1-.93.19,2.12,2.12,0,0,1-.62-.08,1.65,1.65,0,0,1-.42-.18.67.67,0,0,1-.22-.16l-.08-.09h0l0,0a1.64,1.64,0,0,1-.19-.44,4.39,4.39,0,0,1-.1-1.1,4,4,0,0,1,.11-1.15,3.33,3.33,0,0,1,.18-.44Z"/><path class="cls-30" d="M93,43.21v13H89.31v-13H93m7.33,3.17-3,3.93a1.31,1.31,0,0,0-.19.35A1.08,1.08,0,0,0,97,51a1.18,1.18,0,0,0,.11.45,2.13,2.13,0,0,0,.26.44l3.45,4.35h-4.1l-2.69-3.55a2.58,2.58,0,0,1-.49-.94,2.91,2.91,0,0,1-.08-.64,1.82,1.82,0,0,1,.17-.87c.12-.21.26-.44.42-.68l2.26-3.2h4m-7-3.5H89v13.7h4.3V52a2.9,2.9,0,0,0,.52.94l2.68,3.54.1.13h4.93l-.42-.52-3.44-4.34a2.5,2.5,0,0,1-.23-.39.83.83,0,0,1-.08-.31.74.74,0,0,1,.06-.25.87.87,0,0,1,.14-.27l3-3.93.39-.52H96.17l-.1.14L93.82,49.4a7.27,7.27,0,0,0-.44.71.72.72,0,0,0-.09.2V42.88Z"/><path class="cls-30" d="M106.39,46.26c1,0,1.83,0,2.49.1a2.84,2.84,0,0,1,1.59.58,2.15,2.15,0,0,1,.57.69,3.63,3.63,0,0,1,.32.85,4.66,4.66,0,0,1,.14.91c0,.3,0,.59,0,.86a6.48,6.48,0,0,1-.08,1,1.31,1.31,0,0,1-.52.83.92.92,0,0,1-.47.24,2.67,2.67,0,0,1-.5,0h-5.38a1.06,1.06,0,0,0,0,.43,1,1,0,0,0,.14.37.88.88,0,0,0,.69.42c.31,0,.62,0,1,0h4.79v2.65h-6.25l-1.06,0a4.11,4.11,0,0,1-1-.14,2.67,2.67,0,0,1-.82-.38,2.6,2.6,0,0,1-.67-.75A3.46,3.46,0,0,1,101,53.6a18.15,18.15,0,0,1-.1-2.17V50.14A10,10,0,0,1,101,49a4.14,4.14,0,0,1,.23-1,2.15,2.15,0,0,1,.51-.79,2.27,2.27,0,0,1,.84-.55,5.5,5.5,0,0,1,1.13-.28,10.45,10.45,0,0,1,1.3-.12l1.39,0M104.58,50h2.7c.26,0,.43-.06.49-.19a.68.68,0,0,0,.11-.33.7.7,0,0,0-.13-.39.86.86,0,0,0-.54-.28,3.71,3.71,0,0,0-.53-.06l-.44,0-.69,0a1.59,1.59,0,0,0-.58.14.68.68,0,0,0-.36.44,1.77,1.77,0,0,0,0,.66m1.81-4.09L105,46a9.4,9.4,0,0,0-1.34.12,5.32,5.32,0,0,0-1.19.3,2.63,2.63,0,0,0-1,.63,2.52,2.52,0,0,0-.57.89,4.44,4.44,0,0,0-.25,1.06,8.71,8.71,0,0,0-.07,1.18v1.29a18.89,18.89,0,0,0,.1,2.21,3.54,3.54,0,0,0,.45,1.49,2.76,2.76,0,0,0,.76.85,2.87,2.87,0,0,0,.92.43,4.27,4.27,0,0,0,1,.15l1.07,0h6.57V53.29h-5.11a8.76,8.76,0,0,1-.91,0A.57.57,0,0,1,105,53a.71.71,0,0,1-.1-.26v0h5a3.12,3.12,0,0,0,.55-.05,1.24,1.24,0,0,0,.63-.31,1.66,1.66,0,0,0,.63-1,7.4,7.4,0,0,0,.08-1c0-.27,0-.57,0-.88a5.29,5.29,0,0,0-.15-1,3.82,3.82,0,0,0-.36-.92,2.41,2.41,0,0,0-.65-.8,3.15,3.15,0,0,0-1.76-.64,25,25,0,0,0-2.52-.1Zm-1.5,3.77a1,1,0,0,1,0-.26.3.3,0,0,1,.19-.23,1.08,1.08,0,0,1,.45-.11c.24,0,.46,0,.67,0h.42l.48,0c.28.07.34.14.34.15a.35.35,0,0,1,.07.21.36.36,0,0,1,0,.17.85.85,0,0,1-.22,0Z"/><path class="cls-30" d="M119.68,46.38V49h-1.27a4.19,4.19,0,0,0-1,.12,1.55,1.55,0,0,0-.83.59,2.18,2.18,0,0,0-.4.94,6.51,6.51,0,0,0-.08.94v4.72h-3.65V50.53c0-.23,0-.49,0-.77a4.44,4.44,0,0,1,.15-.86,3.68,3.68,0,0,1,.36-.85,2.6,2.6,0,0,1,.64-.74,3.2,3.2,0,0,1,.89-.52,5.16,5.16,0,0,1,1-.28,6.6,6.6,0,0,1,1-.11c.31,0,.58,0,.83,0h2.43m.32-.33h-2.75l-.84,0a9.36,9.36,0,0,0-1,.12,5.72,5.72,0,0,0-1,.3,3.11,3.11,0,0,0-1,.57,2.93,2.93,0,0,0-.72.83,4.17,4.17,0,0,0-.39.93,4.33,4.33,0,0,0-.16.92c0,.28,0,.55,0,.79v6h4.3v-5a5.87,5.87,0,0,1,.08-.89,1.89,1.89,0,0,1,.34-.8,1.25,1.25,0,0,1,.65-.47,4,4,0,0,1,.94-.11H120V46.05Z"/><polygon class="cls-31" points="1.98 35.57 5.87 37.81 12.47 41.63 18.56 45.14 25.17 48.95 25.17 41.33 12.47 34 7.03 37.14 1.98 35.57"/><g class="cls-32"><polygon class="cls-33" points="24.44 41.74 12.47 34.83 6.82 38.36 24.44 48.54 24.44 41.74"/></g><polygon class="cls-34" points="4.33 38.7 9.34 43.44 6.39 45.14 6.39 52.17 12.47 55.69 16.54 53.34 18.6 52.14 23.56 56.93 26.9 60.16 22.74 57.39 22.74 57.39 12.47 63.31 -0.22 55.98 -0.22 41.33 4.33 38.7"/><g class="cls-35"><polygon class="cls-36" points="22.74 57.39 21.34 58.19 21.33 58.2 16.54 53.34 22.69 57.34 22.74 57.39"/></g><polygon class="cls-37" points="7.13 41.35 9.34 43.44 6.39 45.14 6.39 52.17 12.47 55.69 16.54 53.34 19.22 56.05 12.74 59.8 3.35 54.38 3.35 43.53 7.13 41.35"/><g class="cls-38"><polygon class="cls-39" points="4.95 39.29 7.13 41.35 3.35 43.53 3.35 54.38 12.74 59.8 19.22 56.05 17.06 53.87 18.49 53.04 22.36 56.77 12.47 62.48 0.5 55.57 0.5 41.74 4.95 39.29"/></g><g class="cls-40"><polygon class="cls-41" points="3.35 44.26 3.35 46.62 -0.22 46.24 -0.22 44.09 3.35 44.26"/></g><g class="cls-42"><polygon class="cls-43" points="3.35 48.08 3.35 49.16 -0.22 48.47 -0.22 47.38 3.35 48.08"/></g><polygon class="cls-44" points="18.56 45.14 12.47 41.63 9.56 39.95 12.74 38.11 22.13 43.53 22.13 47.2 18.56 45.14"/><g class="cls-45"><polygon class="cls-46" points="9.34 43.44 6.39 45.14 3.35 43.53 7.13 41.35 9.34 43.44"/></g><g class="cls-47"><polygon class="cls-48" points="6.39 45.14 6.39 52.17 3.35 43.53 6.39 45.14"/></g><g class="cls-49"><polygon class="cls-50" points="6.39 45.14 3.35 52.41 3.35 43.53 6.39 45.14"/></g><g class="cls-51"><polygon class="cls-52" points="6.97 41.2 7.13 41.35 3.35 43.53 3.35 54.38 12.74 59.8 12.81 60.08 3.14 54.49 3.14 43.41 6.97 41.2"/></g><polygon class="cls-53" points="22.13 43.53 19.64 45.76 22.13 47.2 22.13 43.53"/><g class="cls-54"><polygon class="cls-55" points="12.74 38.11 12.74 41.78 9.56 39.95 12.74 38.11"/></g><g class="cls-56"><polygon class="cls-57" points="9.33 39.81 12.74 37.84 22.24 43.33 22.36 43.4 22.36 47.33 22.13 47.2 22.13 43.53 12.74 38.11 9.56 39.95 9.33 39.81"/></g><g class="cls-58"><polygon class="cls-59" points="21.63 39.29 20.25 42.45 18.09 41.2 19.55 38.09 21.63 39.29"/></g><g class="cls-60"><polygon class="cls-61" points="18.83 37.67 17.46 40.84 16.24 40.14 17.71 37.02 18.83 37.67"/></g><path class="cls-62" d="M35.62,56.26a12,12,0,0,1-1.4-.07A5.34,5.34,0,0,1,33,56a4,4,0,0,1-1-.49,3.28,3.28,0,0,1-.86-.81,4,4,0,0,1-.52-.79,5,5,0,0,1-.38-1,8.41,8.41,0,0,1-.22-1.29A16.55,16.55,0,0,1,30,49.9,17.28,17.28,0,0,1,30.19,47a4.67,4.67,0,0,1,.92-2.13,3.75,3.75,0,0,1,1-.91,5.18,5.18,0,0,1,1.16-.51,6.55,6.55,0,0,1,1.22-.23c.42,0,.81,0,1.18,0H41.2v3.24H36.74a3.46,3.46,0,0,0-.82.11,2.16,2.16,0,0,0-.67.31A2.2,2.2,0,0,0,34.5,48a4.13,4.13,0,0,0-.13.63c0,.22,0,.43,0,.62s0,.38,0,.55a7.89,7.89,0,0,0,0,.91,6,6,0,0,0,.08.62,3.29,3.29,0,0,0,.1.4,1.91,1.91,0,0,0,.1.23,1.39,1.39,0,0,0,.53.59,2.25,2.25,0,0,0,.73.3,5,5,0,0,0,.9.11c.32,0,.66,0,1,0H41.4v3.25Z"/><path class="cls-63" d="M42.37,56.26V45.41a3.46,3.46,0,0,1,.11-.84,1.8,1.8,0,0,1,.49-.8,1.73,1.73,0,0,1,.87-.48,5.36,5.36,0,0,1,.82-.08h9.72v3.17h-7l-.31,0a.6.6,0,0,0-.29.16.62.62,0,0,0-.16.3,1.74,1.74,0,0,0-.05.39v.92h5.69v2.94H46.58v5.15Z"/><path class="cls-64" d="M55.35,45.31a2.11,2.11,0,0,1,.44-1.45,1.91,1.91,0,0,1,.65-.47,2,2,0,0,1,.83-.18h7.08l.74,0a3.88,3.88,0,0,1,.75.11,3.07,3.07,0,0,1,.72.25,2,2,0,0,1,.62.47,1.84,1.84,0,0,1,.44.63,3.28,3.28,0,0,1,.24.73,4.57,4.57,0,0,1,.12.74c0,.25,0,.48,0,.69a5.19,5.19,0,0,1-.1,1,2.08,2.08,0,0,1-.55,1,1.89,1.89,0,0,1-1.3.66v.07a2.48,2.48,0,0,1,.89.23,2.73,2.73,0,0,1,.65.44,2,2,0,0,1,.62,1.11,8.18,8.18,0,0,1,.09,1.2c0,.21,0,.43,0,.66a3.34,3.34,0,0,1-.08.7,3.68,3.68,0,0,1-.23.71,2.43,2.43,0,0,1-.46.67,2.81,2.81,0,0,1-.65.53,3.16,3.16,0,0,1-.7.27,4.76,4.76,0,0,1-.77.1l-.81,0H57.3a2.2,2.2,0,0,1-.5-.06,1.91,1.91,0,0,1-.5-.19,1.6,1.6,0,0,1-.47-.37,1.77,1.77,0,0,1-.36-.68,2.68,2.68,0,0,1-.12-.77Zm7.34,2.91a3.56,3.56,0,0,0,.55,0,.7.7,0,0,0,.46-.31,1,1,0,0,0,.1-.3,1.69,1.69,0,0,0,0-.3.79.79,0,0,0-.06-.32.7.7,0,0,0-.15-.24.78.78,0,0,0-.47-.23l-.48,0h-2.4l-.28,0a.49.49,0,0,0-.26.13.39.39,0,0,0-.16.27,2.71,2.71,0,0,0,0,.29v1.06ZM59.56,52a2.32,2.32,0,0,0,0,.52.67.67,0,0,0,.11.27.5.5,0,0,0,.38.16,3.19,3.19,0,0,0,.4,0h2.24a2.62,2.62,0,0,0,.83-.09.77.77,0,0,0,.29-.17,1,1,0,0,0,.16-.33,1.41,1.41,0,0,0,.08-.43.91.91,0,0,0-.17-.56.77.77,0,0,0-.51-.33,4,4,0,0,0-.57,0H59.56Z"/><path class="cls-65" d="M69.42,50.53c0-.23,0-.49,0-.77a4.44,4.44,0,0,1,.15-.86,4.12,4.12,0,0,1,.35-.85,2.77,2.77,0,0,1,.64-.74,3.4,3.4,0,0,1,.9-.52,5,5,0,0,1,1-.28,6.44,6.44,0,0,1,1-.11c.3,0,.58,0,.83,0h2.42V49H75.4a4.05,4.05,0,0,0-1,.12,1.48,1.48,0,0,0-.83.59,2.07,2.07,0,0,0-.4.94,5.41,5.41,0,0,0-.09.94v4.72H69.42Z"/><path class="cls-66" d="M82.71,46.26l1.19,0a11.61,11.61,0,0,1,1.2.12,6.23,6.23,0,0,1,1.09.3,3.43,3.43,0,0,1,.92.56,3.1,3.1,0,0,1,.73,1,6.13,6.13,0,0,1,.39,1.11,6,6,0,0,1,.16,1.08q0,.53,0,.9c0,.25,0,.54,0,.89a6,6,0,0,1-.16,1.08,5.63,5.63,0,0,1-.39,1.11,3,3,0,0,1-.73,1,3.2,3.2,0,0,1-.92.56,4.87,4.87,0,0,1-1.09.3,11.61,11.61,0,0,1-1.2.12l-1.19,0-1.2,0a11,11,0,0,1-1.18-.12,5,5,0,0,1-1.1-.3,3.34,3.34,0,0,1-.92-.56,3,3,0,0,1-.73-1,5.63,5.63,0,0,1-.39-1.11A7.05,7.05,0,0,1,77,52.21c0-.35,0-.64,0-.89s0-.55,0-.9a7.05,7.05,0,0,1,.16-1.08,6.13,6.13,0,0,1,.39-1.11,3.1,3.1,0,0,1,.73-1,3.6,3.6,0,0,1,.92-.56,6.35,6.35,0,0,1,1.1-.3,11,11,0,0,1,1.18-.12Zm-2,5.06a4.4,4.4,0,0,0,.12,1.2,1.82,1.82,0,0,0,.23.53.72.72,0,0,0,.12.15,1.29,1.29,0,0,0,.3.22,2.16,2.16,0,0,0,.48.21,2.53,2.53,0,0,0,.72.09,2,2,0,0,0,1.11-.24,1.84,1.84,0,0,0,.49-.43,1.8,1.8,0,0,0,.3-.75,5.89,5.89,0,0,0,.08-1,4.82,4.82,0,0,0-.11-1.18,1.56,1.56,0,0,0-.25-.59,1.71,1.71,0,0,0-.5-.41,2.84,2.84,0,0,0-2.24,0,1.85,1.85,0,0,0-.5.41,2.56,2.56,0,0,0-.22.52A4.08,4.08,0,0,0,80.74,51.32Z"/><path class="cls-67" d="M89.31,56.26v-13H93v13Zm7.44,0-2.69-3.55a2.58,2.58,0,0,1-.49-.94,2.91,2.91,0,0,1-.08-.64,1.82,1.82,0,0,1,.17-.87c.12-.21.26-.44.42-.68l2.26-3.2h4l-3,3.93a1.31,1.31,0,0,0-.19.35A1.08,1.08,0,0,0,97,51a1.18,1.18,0,0,0,.11.45,2.13,2.13,0,0,0,.26.44l3.45,4.35Z"/><path class="cls-68" d="M104.93,56.26l-1.06,0a4.11,4.11,0,0,1-1-.14,2.67,2.67,0,0,1-.82-.38,2.6,2.6,0,0,1-.67-.75A3.46,3.46,0,0,1,101,53.6a18.15,18.15,0,0,1-.1-2.17V50.14A10,10,0,0,1,101,49a4.14,4.14,0,0,1,.23-1,2.15,2.15,0,0,1,.51-.79,2.27,2.27,0,0,1,.84-.55,5.5,5.5,0,0,1,1.13-.28,10.45,10.45,0,0,1,1.3-.12l1.39,0c1,0,1.83,0,2.49.1a2.84,2.84,0,0,1,1.59.58,2.15,2.15,0,0,1,.57.69,3.63,3.63,0,0,1,.32.85,4.66,4.66,0,0,1,.14.91c0,.3,0,.59,0,.86a6.48,6.48,0,0,1-.08,1,1.31,1.31,0,0,1-.52.83.92.92,0,0,1-.47.24,2.67,2.67,0,0,1-.5,0h-5.38a1.06,1.06,0,0,0,0,.43,1,1,0,0,0,.14.37.88.88,0,0,0,.69.42c.31,0,.62,0,1,0h4.79v2.65ZM107.28,50c.26,0,.43-.06.49-.19a.68.68,0,0,0,.11-.33.7.7,0,0,0-.13-.39.86.86,0,0,0-.54-.28,3.71,3.71,0,0,0-.53-.06l-.44,0-.69,0a1.59,1.59,0,0,0-.58.14.68.68,0,0,0-.36.44,1.77,1.77,0,0,0,0,.66Z"/><path class="cls-69" d="M112.43,50.53c0-.23,0-.49,0-.77a4.44,4.44,0,0,1,.15-.86,3.68,3.68,0,0,1,.36-.85,2.6,2.6,0,0,1,.64-.74,3.2,3.2,0,0,1,.89-.52,5.16,5.16,0,0,1,1-.28,6.6,6.6,0,0,1,1-.11c.31,0,.58,0,.83,0h2.43V49h-1.27a4.19,4.19,0,0,0-1,.12,1.55,1.55,0,0,0-.83.59,2.18,2.18,0,0,0-.4.94,6.51,6.51,0,0,0-.08.94v4.72h-3.65Z"/></g></g></svg>