<svg xmlns="http://www.w3.org/2000/svg" viewBox="0 0 120 97"><defs><style>.cls-1{fill:#262261;}.cls-2{fill:none;}.cls-3{opacity:0.1;}</style></defs><title>cmarket Asset 1</title><g id="Layer_2" data-name="Layer 2"><g id="Layer_1-2" data-name="Layer 1"><path class="cls-1" d="M14.74,49.38a.75.75,0,0,1-1.23.56A5.44,5.44,0,0,0,9.6,48.47,5.45,5.45,0,0,0,5.51,50.2a5.91,5.91,0,0,0-1.67,4.3,6.1,6.1,0,0,0,1.63,4.3,5.42,5.42,0,0,0,4.06,1.7,5.61,5.61,0,0,0,2.67-.59,8.78,8.78,0,0,0,1.41-1,.74.74,0,0,1,1.23.57V61a.76.76,0,0,1-.37.65A9.44,9.44,0,0,1,9.64,63,8.52,8.52,0,0,1,3.5,60.61,8.18,8.18,0,0,1,1,54.54a8.32,8.32,0,0,1,2.46-6.11,8.48,8.48,0,0,1,6.21-2.5,9.55,9.55,0,0,1,4.69,1.3.76.76,0,0,1,.38.65Z"/><path class="cls-1" d="M19.11,61.84V47a.74.74,0,0,1,.74-.74h1.32a.75.75,0,0,1,.75.74v1a4.81,4.81,0,0,1,4-2.15,4.66,4.66,0,0,1,4.44,2.63,5.18,5.18,0,0,1,4.79-2.63,4.81,4.81,0,0,1,4.09,1.77,7.27,7.27,0,0,1,1.18,4.58v9.59a.74.74,0,0,1-.74.74H38.4a.74.74,0,0,1-.74-.74V52.7c0-3-.86-4.27-2.91-4.27-2.32,0-3.5,1.7-3.5,5.1v8.31a.74.74,0,0,1-.74.74H29.18a.74.74,0,0,1-.74-.74V52.91c0-3-1-4.48-3-4.48-2.36,0-3.53,1.77-3.53,5.31v8.1a.75.75,0,0,1-.75.74H19.85A.74.74,0,0,1,19.11,61.84Z"/><path class="cls-1" d="M58.94,46.28h1.33A.74.74,0,0,1,61,47V61.84a.74.74,0,0,1-.74.74H58.94a.74.74,0,0,1-.74-.74V60.33A7.1,7.1,0,0,1,52.58,63,7.26,7.26,0,0,1,47,60.61a8.87,8.87,0,0,1-2.22-6.21,8.64,8.64,0,0,1,2.18-6.11,7.53,7.53,0,0,1,11.28.31V47A.74.74,0,0,1,58.94,46.28ZM49.07,58.77a5.26,5.26,0,0,0,7.77,0,6.36,6.36,0,0,0,1.53-4.37,6.13,6.13,0,0,0-1.53-4.3,5.21,5.21,0,0,0-7.7,0,5.88,5.88,0,0,0-1.56,4.2A6.64,6.64,0,0,0,49.07,58.77Z"/><path class="cls-1" d="M66.35,61.84V47a.74.74,0,0,1,.74-.74h1.33a.74.74,0,0,1,.74.74v1a9.12,9.12,0,0,1,1.77-1.74,4.16,4.16,0,0,1,1.9-.41,5.46,5.46,0,0,1,2.5.69L74,49.12a2.71,2.71,0,0,0-1.6-.55c-2.25,0-3.22,1.63-3.22,5.41v7.86a.74.74,0,0,1-.74.74H67.09A.74.74,0,0,1,66.35,61.84Z"/><path class="cls-1" d="M79,34h1.33a.74.74,0,0,1,.74.74V52.32L86.7,46.5a.75.75,0,0,1,.53-.22h1.6a.74.74,0,0,1,.52,1.27l-5.7,5.67,7.2,8.13a.74.74,0,0,1-.55,1.23H88.64a.73.73,0,0,1-.56-.25l-6.37-7.17-.69.73v6a.74.74,0,0,1-.74.74H79a.74.74,0,0,1-.74-.74V34.71A.74.74,0,0,1,79,34Z"/><path class="cls-1" d="M107.78,55h-12C95.93,58.35,98,60.5,101,60.5c2,0,3.29-.73,4.67-2.82a.75.75,0,0,1,1-.24l1.06.6a.74.74,0,0,1,.25,1.07A8.12,8.12,0,0,1,100.86,63a7.6,7.6,0,0,1-5.79-2.36,8.61,8.61,0,0,1-2.22-6.13A9,9,0,0,1,95,48.33a7.94,7.94,0,0,1,11.34,0,8.92,8.92,0,0,1,2.18,6A.74.74,0,0,1,107.78,55Zm-2.24-2.36a4.88,4.88,0,0,0-4.78-4.19A5,5,0,0,0,96,52.66Z"/><path class="cls-1" d="M118.26,48.88h-2.69V56c0,3,.7,4.21,2.6,4.46a.74.74,0,0,1,.63.9l-.25,1.09a.75.75,0,0,1-.79.57c-3.34-.24-5-2.42-5-6.53v-7.6h-1a.74.74,0,0,1-.74-.74V47a.74.74,0,0,1,.74-.74h1V41.16a.74.74,0,0,1,.74-.74h1.33a.74.74,0,0,1,.74.74v5.12h2.69A.74.74,0,0,1,119,47v1.12A.74.74,0,0,1,118.26,48.88Z"/><rect class="cls-1" x="2.25" y="37.55" width="1.78" height="5.43" rx="0.74"/><rect class="cls-1" x="10.47" y="40.04" width="2.13" height="2.94" rx="0.74"/><rect class="cls-1" x="18.69" y="33.97" width="2.48" height="9.02" rx="0.74"/><rect class="cls-1" x="26.92" y="35.76" width="2.83" height="7.22" rx="0.74"/><rect class="cls-1" x="35.14" y="38.17" width="3.18" height="4.81" rx="0.74"/><rect class="cls-1" x="43.36" y="36.17" width="3.53" height="6.82" rx="0.74"/><rect class="cls-1" x="51.58" y="34.86" width="3.89" height="8.12" rx="0.74"/><rect class="cls-1" x="59.81" y="38.17" width="4.24" height="4.81" rx="0.74"/><rect class="cls-1" x="68.03" y="33.97" width="4.59" height="9.02" rx="0.74"/><rect class="cls-2" width="120" height="97"/><g class="cls-3"><path class="cls-1" d="M41.79,43.21a2.25,2.25,0,0,1-3.72,1.7,16.56,16.56,0,0,0-11.9-4.49A16.67,16.67,0,0,0,13.72,45.7,18,18,0,0,0,8.65,58.79a18.52,18.52,0,0,0,5,13.09A16.49,16.49,0,0,0,26,77.05a17.15,17.15,0,0,0,8.13-1.8,26.26,26.26,0,0,0,4.28-3.18,2.25,2.25,0,0,1,3.74,1.7v4.66A2.28,2.28,0,0,1,41,80.38a28.62,28.62,0,0,1-14.71,4.37A26,26,0,0,1,7.6,77.36,24.89,24.89,0,0,1,0,58.89,25.3,25.3,0,0,1,7.49,40.32a25.7,25.7,0,0,1,18.9-7.6,28.71,28.71,0,0,1,14.25,4,2.26,2.26,0,0,1,1.15,2Z"/><path class="cls-1" d="M55.09,81.13V36a2.26,2.26,0,0,1,2.26-2.26h4A2.26,2.26,0,0,1,63.64,36v3.13c3.17-4.33,7.28-6.55,12.24-6.55,6.23,0,10.66,2.64,13.51,8,3.17-5.39,8-8,14.57-8,5.59,0,9.71,1.8,12.45,5.39,2.43,3.06,3.59,7.7,3.59,13.93v29.2a2.25,2.25,0,0,1-2.25,2.25h-3.94a2.25,2.25,0,0,1-2.25-2.25V53.3c0-9.18-2.64-13-8.87-13C95.62,40.32,92,45.49,92,55.83v25.3a2.25,2.25,0,0,1-2.25,2.25h-4a2.26,2.26,0,0,1-2.26-2.25V53.93c0-9.07-3.06-13.61-9.07-13.61q-10.77,0-10.77,16.15V81.13a2.25,2.25,0,0,1-2.25,2.25h-4A2.26,2.26,0,0,1,55.09,81.13Z"/><rect class="cls-1" y="18.36" width="3.03" height="9.26" rx="1.26"/><rect class="cls-1" x="14.02" y="22.61" width="3.63" height="5.01" rx="1.26"/><rect class="cls-1" x="28.04" y="12.25" width="4.23" height="15.38" rx="1.26"/><rect class="cls-1" x="42.07" y="15.31" width="4.83" height="12.32" rx="1.26"/><rect class="cls-1" x="56.09" y="19.41" width="5.43" height="8.21" rx="1.26"/><rect class="cls-1" x="70.11" y="16" width="6.03" height="11.62" rx="1.26"/><rect class="cls-1" x="84.13" y="13.78" width="6.63" height="13.85" rx="1.26"/><rect class="cls-1" x="98.15" y="19.41" width="7.23" height="8.21" rx="1.26"/><rect class="cls-1" x="112.18" y="12.25" width="7.82" height="15.38" rx="1.26"/></g></g></g></svg>