<svg xmlns="http://www.w3.org/2000/svg" viewBox="0 0 120 97"><defs><style>.a{fill:#ff2d1e;}</style></defs><title>consalfaheader</title><path class="a" d="M56.32.1A48.55,48.55,0,0,0,11.63,45a67.71,67.71,0,0,0,0,7A48.52,48.52,0,0,0,51.28,96.24a50.45,50.45,0,0,0,17.42,0,48.53,48.53,0,0,0,36.46-30.08,49.33,49.33,0,0,0,2.94-23.61A48.44,48.44,0,0,0,66.6.42,59.57,59.57,0,0,0,56.32.1Zm6.1,7.76A7.25,7.25,0,0,1,67,11a24.87,24.87,0,0,1,2.14,4.45c.41,1,4.12,10.25,8.25,20.46s7.7,19.12,7.93,19.8A11.85,11.85,0,0,1,86.07,59a5,5,0,0,1-1.62,3.43,5.22,5.22,0,0,1-5.94,1.16c-1.84-.87-2.52-2.09-5.53-10l-1.34-3.52H49.51L48,54.06a58.54,58.54,0,0,1-2.92,7.19c-1,1.86-1.66,2.43-3.36,2.73a5.33,5.33,0,0,1-4.62-1.41C35.41,61,35.06,59.12,36,56.35c.18-.54,3.76-9.69,7.94-20.32s7.87-20,8.2-20.8c1.51-3.86,2.64-5.51,4.47-6.6A8.66,8.66,0,0,1,62.42,7.86ZM86.8,69.4a5.14,5.14,0,0,1-.06,10.08c-.44.08-8.1.1-26.7.08L34,79.53l-.56-.22a5.51,5.51,0,0,1-3.13-3,4.06,4.06,0,0,1-.22-1.83,4.06,4.06,0,0,1,.22-1.83,5.38,5.38,0,0,1,3.78-3.22C34.66,69.27,86.12,69.28,86.8,69.4Z"/><path class="a" d="M56.44,30.59c-2.18,6.09-4,11.09-4,11.13s3.65.07,8.1.07,8.08,0,8.07-.09-1.85-5.05-4.07-11.14-4.08-11-4.1-11S58.62,24.49,56.44,30.59Z"/></svg>