<?xml version="1.0" encoding="UTF-8"?>
<svg width="120px" height="97px" viewBox="0 0 120 97" version="1.1" xmlns="http://www.w3.org/2000/svg" xmlns:xlink="http://www.w3.org/1999/xlink">
    <!-- Generator: Sketch 54.1 (76490) - https://sketchapp.com -->
    <title>BO_Brand_logo</title>
    <desc>Created with Sketch.</desc>
    <g id="BO_Brand_logo" stroke="none" stroke-width="1" fill="none" fill-rule="evenodd">
        <g id="Group" transform="translate(23.000000, 1.000000)" fill-rule="nonzero">
            <path d="M49.5607527,94.4551471 C59.430821,79.8413085 64.6071024,62.5667421 64.3989247,44.9363971 L50.077957,45.6349265 C50.1437925,63.0338964 44.9686353,80.0499249 35.2258065,94.4691176 L49.5607527,94.4551471 Z" id="Path" fill="#100E2D"></path>
            <path d="M30.5430108,61.6452206 C28.5475483,73.3637887 24.1450319,84.5422339 17.6129032,94.4761029 L31.9478495,94.4761029 C50.7614605,65.8148319 50.8492052,28.7499249 32.1715054,0 L18.1021505,0.398161765 C29.7824789,18.5341868 34.2225168,40.3927447 30.5430108,61.6452206 L30.5430108,61.6452206 Z" id="Path" fill="#F15A24"></path>
            <path d="M12.266129,62.6511029 C10.3388311,73.9634573 6.1684174,84.7766505 8.52651283e-14,94.4551471 L14.3349462,94.4551471 C26.822825,74.8047509 30.8709541,50.9577123 25.5666667,28.2904412 L11.3924731,28.9889706 C13.8989494,40.0426847 14.1958515,51.4823834 12.266129,62.6511029 L12.266129,62.6511029 Z" id="Path" fill="#009EE2"></path>
        </g>
    </g>
</svg>