<svg id="Layer_1" data-name="Layer 1" xmlns="http://www.w3.org/2000/svg" viewBox="0 0 55 17.72"><defs><style>.cls-1{fill:#ffc031;}</style></defs><title>cmb001</title><path class="cls-1" d="M0,28.66a2,2,0,0,1,.51-1.25,1.71,1.71,0,0,1,1.4-.63H15.29a.57.57,0,0,1,.45.19.61.61,0,0,1,.17.42v1.13a.6.6,0,0,1-.17.44.59.59,0,0,1-.45.17H2.66V42H15.74a.58.58,0,0,1,.61.61v1.13a.6.6,0,0,1-.17.43.57.57,0,0,1-.44.18H1.88a1.73,1.73,0,0,1-1.35-.58A1.88,1.88,0,0,1,0,42.52Z" transform="translate(0 -26.67)"/><path class="cls-1" d="M17.57,27.33a.66.66,0,0,1,.18-.47.59.59,0,0,1,.45-.19h1.05a.94.94,0,0,1,.66.28l7.43,8.76L34.6,27a.74.74,0,0,1,.53-.28H37q.24,0,.24.21a.68.68,0,0,1-.17.34L27.91,38.14a.31.31,0,0,1-.14.14.75.75,0,0,1-.41.14.82.82,0,0,1-.45-.14.29.29,0,0,1-.13-.14l-6.94-8V43.78a.58.58,0,0,1-.19.44.67.67,0,0,1-.47.17h-1a.6.6,0,0,1-.63-.61Zm17.14,5.56a1,1,0,0,1,.24-.55l1.67-2c.17-.2.31-.31.42-.31s.14.07.14.21v13.5a.55.55,0,0,1-.19.44.67.67,0,0,1-.47.17H35.33a.58.58,0,0,1-.62-.61Z" transform="translate(0 -26.67)"/><path class="cls-1" d="M38.48,27.33a.7.7,0,0,1,.17-.47.62.62,0,0,1,.45-.19H49.7a4.63,4.63,0,0,1,1.84.38,4.77,4.77,0,0,1,1.53,1,4.62,4.62,0,0,1,1,1.51,4.57,4.57,0,0,1,.37,1.83,4.13,4.13,0,0,1-.5,2A5.27,5.27,0,0,1,52.67,35a5.69,5.69,0,0,1,1.69,1.8A4.58,4.58,0,0,1,55,39.21a5.05,5.05,0,0,1-.41,2A5.24,5.24,0,0,1,51.82,44a4.9,4.9,0,0,1-2,.41H39.1a.58.58,0,0,1-.62-.61ZM41.13,29V42h8.42a2.89,2.89,0,0,0,2.14-.84,2.78,2.78,0,0,0,.84-2,3.1,3.1,0,0,0-.71-2,2.44,2.44,0,0,0-2-.87H43.67a.6.6,0,0,1-.45-.18.6.6,0,0,1-.17-.44v-1a.58.58,0,0,1,.62-.62h5.84a2.35,2.35,0,0,0,1.83-.74A2.48,2.48,0,0,0,52,31.52a2.35,2.35,0,0,0-.73-1.75A2.48,2.48,0,0,0,49.45,29Z" transform="translate(0 -26.67)"/></svg>