<?xml version="1.0" encoding="UTF-8"?>
<svg width="120px" height="97px" viewBox="0 0 120 97" version="1.1" xmlns="http://www.w3.org/2000/svg" xmlns:xlink="http://www.w3.org/1999/xlink">
    <!-- Generator: Sketch 53.2 (72643) - https://sketchapp.com -->
    <title>BO_Brand_logo</title>
    <desc>Created with Sketch.</desc>
    <defs>
        <linearGradient x1="50.0000191%" y1="11.8191355%" x2="50.0000191%" y2="50.1261356%" id="linearGradient-1">
            <stop stop-color="#18052C" offset="0%"></stop>
            <stop stop-color="#542583" offset="100%"></stop>
        </linearGradient>
    </defs>
    <g id="BO_Brand_logo" stroke="none" stroke-width="1" fill="none" fill-rule="evenodd">
        <g id="logo-crypto-bull-text" transform="translate(0.000000, 16.000000)" fill-rule="nonzero">
            <path d="M50.48,29.609791 C48.5942857,29.609791 47.4742857,29.6136119 46.3542857,29.6093134 C35.9285714,29.5687164 34.1692857,31.6174328 35.8269048,42.2528955 C36.2130952,44.7309851 36.747381,47.304597 37.8280952,49.534806 C43.267619,60.7596418 55.375,65.8519403 67.3638095,62.1724179 C78.7930952,58.664597 85.7461905,47.5402985 84.2902381,35.0922985 C82.9466667,23.606209 72.9059524,14.5172537 60.7733333,14.0936119 C53.73,13.8476418 46.6728571,14.016 39.6221429,13.9615522 C32.5742857,13.9071045 25.4921429,14.1900896 18.495,13.5529552 C15.3819048,13.2694925 11.502381,11.841194 9.69047619,9.55916418 C7.95642857,7.37480597 8.45190476,3.40967164 7.94571429,0.0847761194 C8.025,0.0582686567 7.34833333,0.154029851 6.81595238,0.483820896 C2.27619048,3.29623881 -0.908095238,11.095403 0.234761905,16.4950448 C1.25690476,21.3246567 4.97404762,24.3283582 11.3640476,25.3482985 C13.1664286,25.6360597 15.0097619,25.7712239 16.8357143,25.7848358 C23.1816667,25.8321194 29.5285714,25.7573731 35.8745238,25.7998806 C44.472381,25.8574328 53.0890476,25.6594627 61.6604762,26.1819701 C67.8964286,26.5621493 72.3721429,32.0195821 72.5780952,38.2323582 C72.785,44.4785672 68.6652381,49.7619104 62.5245238,51.1245373 C56.7778571,52.3997612 50.8666667,49.2389254 48.3002381,43.729194 C46.0045238,38.8004776 47.5,34.4303284 50.48,29.609791 Z M74.2442857,14.0214925 C76.3109524,16.2851343 79.3921429,18.7204776 80.9288095,20.4981493 C85.8497619,26.190806 89.3654762,26.1459104 95.8197619,26.296597 C98.3514286,26.3555821 100.383095,26.1654925 102.893333,25.9016119 C106.236429,25.5503284 109.665714,25.208597 112.832381,24.1705075 C117.967619,22.487403 120.404762,18.0229254 119.865238,12.4847761 C119.279048,6.46949254 115.384286,1.02519403 111.053571,0.167402985 C112.874286,8.91247761 110.544286,12.5277612 102.234048,13.593791 C99.7259524,13.9154627 97.1730952,13.9687164 94.6395238,13.9916418 C88.6019048,14.0458507 80.6666667,14.0214925 74.2442857,14.0214925 Z" id="Shape" fill="url(#linearGradient-1)"></path>
            <g id="LkW7Tg.tif_3_" transform="translate(52.380952, 29.134328)" fill="#D5963C">
                <path d="M4.56214286,19.6924179 C4.56166667,18.9666866 4.56119048,18.2407164 4.56047619,17.5149851 C4.5602381,17.3062687 4.55952381,17.3055522 4.35595238,17.3055522 C3.05333333,17.3053134 1.75071429,17.3055522 0.448095238,17.3053134 C0.225238095,17.3053134 0.222380952,17.3026866 0.222142857,17.0810746 C0.221666667,16.536597 0.221190476,15.9923582 0.222380952,15.4478806 C0.222857143,15.2477612 0.235238095,15.2372537 0.433571429,15.2360597 C0.717619048,15.2343881 1.00142857,15.2365373 1.2852381,15.2112239 C1.68880952,15.1751642 1.89166667,14.9769552 1.92833333,14.5709851 C1.9502381,14.3278806 1.95214286,14.0845373 1.95214286,13.8409552 C1.95238095,11.233194 1.95285714,8.62543284 1.95095238,6.01767164 C1.95071429,5.78985075 1.93952381,5.56179104 1.92547619,5.33444776 C1.90333333,4.976 1.66095238,4.74101493 1.3002381,4.70423881 C1.00119048,4.67367164 0.701666667,4.67176119 0.402142857,4.67844776 C0.266904762,4.68155224 0.219285714,4.63235821 0.220238095,4.49838806 C0.22452381,3.9281194 0.225238095,3.35785075 0.219761905,2.78758209 C0.218333333,2.64071642 0.277857143,2.60441791 0.414761905,2.60465672 C1.72261905,2.60847761 3.0302381,2.60704478 4.33809524,2.60680597 C4.56,2.60680597 4.56047619,2.60632836 4.56047619,2.38376119 C4.56071429,1.72537313 4.56452381,1.06698507 4.55785714,0.408597015 C4.55619048,0.25241791 4.60642857,0.202985075 4.76309524,0.205134328 C5.32642857,0.213492537 5.89,0.213970149 6.45333333,0.204895522 C6.61547619,0.202268657 6.65380952,0.260537313 6.65238095,0.411940299 C6.64595238,1.08059701 6.65380952,1.74949254 6.64642857,2.41814925 C6.6447619,2.57074627 6.6947619,2.61444776 6.84166667,2.60967164 C7.13595238,2.5998806 7.43095238,2.60704478 7.72547619,2.60656716 C7.93357143,2.60632836 7.93404762,2.60608955 7.93404762,2.40358209 C7.93428571,1.75546269 7.93404762,1.10758209 7.93404762,0.459462687 C7.93404762,0.208477612 7.93428571,0.208238806 8.19142857,0.208238806 C8.72380952,0.208238806 9.25619048,0.208 9.78857143,0.208238806 C10.022381,0.208238806 10.0230952,0.208716418 10.0233333,0.437731343 C10.0238095,1.12716418 10.0278571,1.81683582 10.0202381,2.50626866 C10.0185714,2.66077612 10.0754762,2.71426866 10.2204762,2.73098507 C11.177619,2.84131343 12.0442857,3.16967164 12.7730952,3.8199403 C13.122619,4.1318209 13.3821429,4.512 13.5590476,4.94232836 C13.9580952,5.91307463 13.9033333,6.86758209 13.3961905,7.78531343 C13.0290476,8.44991045 12.4740476,8.91964179 11.8007143,9.25635821 C11.6042857,9.35450746 11.3983333,9.43116418 11.2,9.5479403 C11.447381,9.6281791 11.6961905,9.70459701 11.9421429,9.78913433 C12.487619,9.97659701 12.9811905,10.2574328 13.382381,10.6751045 C13.8942857,11.2078806 14.212381,11.8421493 14.3097619,12.5826866 C14.5009524,14.0351045 13.9719048,15.1952239 12.8616667,16.0993433 C12.0990476,16.7202388 11.1938095,17.0189851 10.2297619,17.1448358 C10.0745238,17.1651343 10.0183333,17.2140896 10.0197619,17.3752836 C10.0261905,18.1475821 10.0214286,18.9201194 10.0207143,19.6926567 C9.32809524,19.6926567 8.63547619,19.6926567 7.94285714,19.6926567 C7.9397619,19.6255522 7.93428571,19.558209 7.93428571,19.4911045 C7.93357143,18.8277015 7.92880952,18.1642985 7.93738095,17.5011343 C7.93952381,17.3394627 7.88690476,17.296 7.73333333,17.3024478 C7.4702381,17.3136716 7.20642857,17.304597 6.94285714,17.305791 C6.61761905,17.3074627 6.65095238,17.2711642 6.64928571,17.5942687 C6.64595238,18.2937313 6.64309524,18.993194 6.64,19.6926567 C5.94761905,19.6924179 5.255,19.6924179 4.56214286,19.6924179 Z M5.60880952,12.6328358 C5.61071429,12.6328358 5.61238095,12.6328358 5.61428571,12.6328358 C5.61428571,13.0423881 5.60928571,13.4517015 5.61619048,13.8612537 C5.6202381,14.0988657 5.59880952,14.3388657 5.64904762,14.5740896 C5.69714286,14.7992836 5.7952381,14.8780896 6.02047619,14.8974328 C6.56738095,14.9444776 7.11547619,14.9322985 7.66238095,14.9198806 C8.11595238,14.9096119 8.56904762,14.8804776 9.01238095,14.7586866 C10.4302381,14.3689552 10.8990476,12.7192836 10.2128571,11.646806 C9.89238095,11.1460299 9.37761905,10.9420896 8.81833333,10.8384478 C8.48761905,10.7770746 8.15142857,10.7727761 7.81595238,10.7565373 C7.11857143,10.7228657 6.42119048,10.7505672 5.72380952,10.7402985 C5.64071429,10.7391045 5.60642857,10.7699104 5.60690476,10.8606567 C5.61071429,11.4512239 5.60880952,12.0420299 5.60880952,12.6328358 Z M5.615,6.7801791 C5.615,7.30340299 5.6202381,7.82686567 5.61190476,8.35008955 C5.60928571,8.50985075 5.66404762,8.55546269 5.81785714,8.55164179 C6.18452381,8.54232836 6.55142857,8.54376119 6.91809524,8.54973134 C7.51309524,8.55952239 8.105,8.52752239 8.69166667,8.4238806 C9.54928571,8.27223881 10.092381,7.77241791 10.2130952,6.98985075 C10.3295238,6.23450746 10.0071429,5.52501493 9.26833333,5.24131343 C8.80857143,5.06459701 8.32047619,5.03665672 7.83666667,5.02376119 C7.1602381,5.00585075 6.48333333,5.02113433 5.80642857,5.01325373 C5.65595238,5.01158209 5.61047619,5.06268657 5.61238095,5.21002985 C5.61928571,5.73349254 5.615,6.25671642 5.615,6.7801791 Z" id="Shape"></path>
            </g>
        </g>
    </g>
</svg>