<svg id="Layer_1" data-name="Layer 1" xmlns="http://www.w3.org/2000/svg" viewBox="0 0 120 97"><defs><style>.cls-1{fill:#3199d5;}.cls-2{fill:#fff;}</style></defs><path class="cls-1" d="M64.29,48.38V43.6a.75.75,0,0,0-.11-.43l-4.66-8.31h3.3c1,2,2.4,4.75,3.08,6.22.59-1.42,2.07-4.26,3.09-6.22h3.06l-4.72,8.26a.64.64,0,0,0-.12.44v4.82Z"/><path class="cls-1" d="M72.72,34.86h5.59c2.88,0,4.83,1.62,4.83,4.19,0,2.93-2.23,4.28-4.89,4.28h-2.6v5.05H72.72ZM75.65,41h2.23c1.35,0,2.31-.52,2.31-1.9s-1-1.91-2.25-1.91H75.65Z"/><path class="cls-1" d="M87.1,37.26H83v-2.4H94.12v2.4H90V48.38H87.1Z"/><path class="cls-1" d="M107.22,41.57c0,3.76-2.26,7-6.65,7-4.24,0-6.46-3.08-6.46-7s2.45-7,6.65-7C104.71,34.66,107.22,37.43,107.22,41.57Zm-10.09,0c0,2.64,1.16,4.63,3.55,4.63,2.6,0,3.52-2.17,3.52-4.58s-1-4.57-3.56-4.57S97.13,38.93,97.13,41.56Z"/><path class="cls-2" d="M59.21,58.24H52.75v3.44h7.13l-.35,2.39H49.91V50.56h9.58V53H52.75v2.9h6.46Z"/><path class="cls-2" d="M64.45,50.37v8.05c0,2.59,1.33,3.36,2.79,3.36,1.68,0,2.73-.91,2.73-3.36V50.37h2.92v7.9c0,4.63-2.71,5.8-5.69,5.8s-5.68-1.23-5.68-5.74v-8Z"/><path class="cls-2" d="M78.57,53h-4.1V50.56H85.59V53H81.5V64.07H78.57Z"/><path class="cls-2" d="M88.92,59.92c.3,1.36,1.28,1.95,2.84,1.95S94,61.26,94,60.27s-.65-1.58-3-2.12c-3.68-.86-4.59-2.2-4.59-4,0-2.36,1.76-4,5-4,3.59,0,5,1.93,5.21,3.91H93.67c-.14-.84-.6-1.74-2.35-1.74-1.18,0-1.9.49-1.9,1.45s.58,1.32,2.76,1.83C96.11,56.54,97,58,97,59.91c0,2.47-1.86,4.16-5.44,4.16S86.29,62.38,86,59.92Z"/><path class="cls-2" d="M22.82,39.4H20l-1,5.4H22.2a6.75,6.75,0,1,1,0,13.49H16.64l-1,5.4h7.14A12.15,12.15,0,0,0,35,51.54h0A12.15,12.15,0,0,0,22.82,39.4Z"/><path class="cls-1" d="M44.82,45.53a3.79,3.79,0,0,1,0-7.58h2.54l.53-3H44.47a6.81,6.81,0,0,0-6.81,6.81h0a6.81,6.81,0,0,0,6.81,6.81h1l.54-3Z"/><path class="cls-2" d="M41.26,50.45H39.67l-.53,3h1.77a3.79,3.79,0,0,1,0,7.57H37.79l-.54,3h4a6.81,6.81,0,0,0,6.81-6.81h0A6.81,6.81,0,0,0,41.26,50.45Z"/><path class="cls-2" d="M105.38,61.05a3.79,3.79,0,1,1,0-7.57h2.53l.54-3H105a6.81,6.81,0,0,0-6.81,6.81h0A6.81,6.81,0,0,0,105,64.07h1l.54-3Z"/><path class="cls-1" d="M58.67,45.13c0-2.42-1-3.11-1.68-3.36a3.23,3.23,0,0,0,2-3.2c0-2.09-1.59-3.71-4.54-3.71H49.19l-.7,3.84v6.8h-1.2l-.54,2.88h4.59V43h1.92c2.18,0,2.56.7,2.56,2.17v.2a9.46,9.46,0,0,0,.28,3h2.77a10.6,10.6,0,0,1-.2-2.58Zm-4.88-4.49H51.34V37.19h2.52c1.43,0,2.15.61,2.15,1.71S55.39,40.64,53.79,40.64Z"/><polygon class="cls-2" points="117.08 50.56 117.08 55.83 111.64 55.83 111.64 50.56 109.58 50.56 108.72 55.24 108.72 61.2 107.68 61.2 107.14 64.07 108.72 64.07 110.74 64.07 111.64 64.07 111.64 58.23 117.08 58.23 117.08 64.07 120 64.07 120 50.56 117.08 50.56"/><path class="cls-1" d="M15.71,38.32h4.52l1-5.39h-6.1A12.16,12.16,0,0,0,3.71,40.81H.78L0,45.13H3A11.2,11.2,0,0,0,3,46.43H1.27L.49,50.75H4.35a12.16,12.16,0,0,0,10.74,6.47h1.79l1-5.4H15.71a6.75,6.75,0,0,1,0-13.5Z"/></svg>
