<?xml version="1.0" encoding="UTF-8"?>
<svg width="120px" height="97px" viewBox="0 0 120 97" version="1.1" xmlns="http://www.w3.org/2000/svg" xmlns:xlink="http://www.w3.org/1999/xlink">
    <!-- Generator: Sketch 54.1 (76490) - https://sketchapp.com -->
    <title>BO_Brand_logo</title>
    <desc>Created with Sketch.</desc>
    <defs>
        <linearGradient x1="0%" y1="50%" x2="100%" y2="50%" id="linearGradient-1">
            <stop stop-color="#3FD0E8" offset="0%"></stop>
            <stop stop-color="#26508E" offset="100%"></stop>
        </linearGradient>
    </defs>
    <g id="BO_Brand_logo" stroke="none" stroke-width="1" fill="none" fill-rule="evenodd">
        <path d="M34.3372201,69.3270099 L41.5230762,69.3270099 C43.4993167,69.3270099 45.1162935,70.9430307 45.1162935,72.918103 C45.1162935,74.8931752 43.4993167,76.509196 41.5230762,76.509196 L34.3372201,76.509196 C32.3609795,76.509196 30.7440028,74.8931752 30.7440028,72.918103 C30.7440028,70.9430307 32.3609795,69.3270099 34.3372201,69.3270099 L34.3372201,69.3270099 Z M25.71373,54.963794 L30.025475,54.963794 C32.0017156,54.963794 33.6186923,56.5798148 33.6186923,58.5548871 C33.6186923,60.5299594 32.0017156,62.1459802 30.025475,62.1459802 L25.71373,62.1459802 C23.7374894,62.1459802 22.1205127,60.5299594 22.1205127,58.5548871 C22.1210912,56.5792367 23.7380679,54.963794 25.71373,54.963794 Z M17.2533839,40.6 L33.06273,40.6 C35.0389706,40.6 36.6559473,42.2160208 36.6559473,44.1910931 C36.6559473,46.1661653 35.0389706,47.7821861 33.06273,47.7821861 L17.2533839,47.7821861 C15.2771433,47.7821861 13.6601666,46.1661653 13.6601666,44.1910931 C13.6607451,42.2160208 15.2771433,40.6 17.2533839,40.6 Z M22.1210912,26.236206 L30.7445813,26.236206 C32.7208219,26.236206 34.3377986,27.8522267 34.3377986,29.827299 C34.3377986,31.8023713 32.7208219,33.4183921 30.7445813,33.4183921 L22.1210912,33.4183921 C20.1448506,33.4183921 18.5278739,31.8023713 18.5278739,29.827299 C18.5278739,27.8522267 20.1448506,26.236206 22.1210912,26.236206 Z M5.5932173,26.236206 L9.63652686,26.236206 C11.6127674,26.236206 13.2297442,27.8522267 13.2297442,29.827299 C13.2297442,31.8023713 11.6127674,33.4183921 9.63652686,33.4183921 L5.5932173,33.4183921 C3.61697671,33.4183921 2,31.8023713 2,29.827299 C2,27.8522267 3.61697671,26.236206 5.5932173,26.236206 Z M86.0764251,9 C99.1904244,9 110.810673,15.3848721 118,25.2122443 L104.400618,33.0593406 L104.175572,33.1888535 C99.8256446,28.0580598 93.3322827,24.8 86.0764251,24.8 C72.9797816,24.8 62.3626951,35.4108098 62.3626951,48.4997109 C62.3626951,61.588612 72.9797816,72.1994218 86.0764251,72.1994218 C93.3322827,72.1994218 99.8256446,68.941362 104.175572,63.8105683 L104.400618,63.9406594 L118,71.7877557 C110.810673,81.6151279 99.1904244,88 86.0764251,88 C75.2030522,88 65.3571393,83.6104366 58.21178,76.509196 L51.5836218,76.509196 C49.6073812,76.509196 47.9904045,74.8931752 47.9904045,72.918103 C47.9904045,70.9430307 49.6073812,69.3270099 51.5836218,69.3270099 L57.3324223,69.3270099 C59.3086629,69.3270099 60.9256396,67.7109891 60.9256396,65.7359169 C60.9256396,63.7608446 59.3086629,62.1448238 57.3324223,62.1448238 L40.0860206,62.1448238 C38.1097801,62.1448238 36.4928034,60.528803 36.4928034,58.5537307 C36.4928034,56.5786585 38.1097801,54.9626377 40.0860206,54.9626377 L55.8953668,54.9626377 C57.8716074,54.9626377 59.4885841,53.3466169 59.4885841,51.3715446 C59.4885841,49.3964724 57.8716074,47.7804516 55.8953668,47.7804516 L42.9607102,47.7804516 C40.9844696,47.7804516 39.3674929,46.1644308 39.3674929,44.1893585 C39.3674929,42.2142862 40.9844696,40.5982655 42.9607102,40.5982655 L53.0206773,40.5982655 C54.9969179,40.5982655 56.6138946,38.9822447 56.6138946,37.0071724 C56.6138946,35.0321001 54.9969179,33.4160793 53.0206773,33.4160793 L40.0860206,33.4160793 C38.1097801,33.4160793 36.4928034,31.8000586 36.4928034,29.8249863 C36.4928034,27.849914 38.1097801,26.2338932 40.0860206,26.2338932 L64.5182784,26.2338932 C66.494519,26.2338932 68.1114957,24.6178724 68.1114957,22.6428002 C68.1114957,20.6677279 66.494519,19.0517071 64.5182784,19.0517071 L59.7361927,19.0517071 C66.7270859,12.8027079 75.95687,9 86.0764251,9 L86.0764251,9 Z" id="a" fill="url(#linearGradient-1)" fill-rule="nonzero"></path>
    </g>
</svg>