<svg id="Layer_1" data-name="Layer 1" xmlns="http://www.w3.org/2000/svg" xmlns:xlink="http://www.w3.org/1999/xlink" viewBox="0 0 65 65"><defs><style>.cls-1{fill:#fff;}.cls-2{fill:url(#radial-gradient);}.cls-3{fill:url(#radial-gradient-2);}.cls-4{fill:url(#radial-gradient-3);}.cls-5{fill:#095cd7;}</style><radialGradient id="radial-gradient" cx="40.79" cy="43.06" r="3.85" gradientUnits="userSpaceOnUse"><stop offset="0" stop-color="#095cd7"/><stop offset="0.09" stop-color="#0950d7"/><stop offset="0.23" stop-color="#0945d7"/><stop offset="0.43" stop-color="#093ed7"/><stop offset="1" stop-color="#093cd7"/></radialGradient><radialGradient id="radial-gradient-2" cx="41.7" cy="30.63" r="26.91" gradientTransform="translate(-0.08 3.66) rotate(0.07)" gradientUnits="userSpaceOnUse"><stop offset="0" stop-color="#095cd7"/><stop offset="1" stop-color="#093cd7"/></radialGradient><radialGradient id="radial-gradient-3" cx="52.76" cy="23.85" r="35.78" xlink:href="#radial-gradient-2"/></defs><title>Dax100fx - App for Deborah</title><rect width="65" height="65"/><path class="cls-1" d="M10.72,55.81l.2-1.12H13.4l4.14-24.88H15l.19-1.12H34.28l-.85,7.52h-1c-.16-2.64-.74-4.34-1.71-5.16s-2.67-1.24-5.15-1.24H23.12l-2,12H22.7c2.75,0,4.06-1.24,5.34-5h.85L27,48.29H26c0-2.13-.27-3.56-.82-4.22s-1.55-1-3.1-1H21L19,54.69H23l-.23,1.12Z"/><polygon class="cls-1" points="34.22 28.68 25.58 28.67 34.81 40.16 39.8 35.62 34.22 28.68"/><polygon class="cls-2" points="42.16 38.55 37.72 43.78 40.76 47.56 43.86 40.67 42.16 38.55"/><polygon class="cls-3" points="54.94 54.47 43.86 40.67 40.76 47.56 46.3 54.46 54.94 54.47"/><polygon class="cls-4" points="62.95 18.04 25.71 61.83 14.81 61.82 62.95 18.04"/><polygon class="cls-5" points="55.43 25.81 28.8 50.03 48.88 32.46 36.52 48.05 55.43 25.81"/><path class="cls-1" d="M11.94,54.27l-.43-.13.27-1.65L3.49,49.74a3.74,3.74,0,0,1-.15,1.13,5.42,5.42,0,0,1-.33,1l-.34-.16A4.26,4.26,0,0,0,2,48l.17-1.07,10,3.33.23-1.48.42.17Z"/><path class="cls-1" d="M5,44.76A4.38,4.38,0,0,1,3.22,40.5c.33-2,1.7-3,4.34-2.62a9.64,9.64,0,0,1,3.63,1.33A4.67,4.67,0,0,1,13.75,44c-.35,2.14-2,3-4.42,2.58A10,10,0,0,1,5,44.76Zm8.34-.9a1.71,1.71,0,0,0-.86-1.74,15.37,15.37,0,0,0-3.62-1.57,20.09,20.09,0,0,0-2.91-.77c-1.44-.23-2.09,0-2.24.87a1.74,1.74,0,0,0,.89,1.73A14.77,14.77,0,0,0,8.19,44a20,20,0,0,0,2.89.79C12.56,45,13.16,44.76,13.3,43.86Z"/><path class="cls-1" d="M6.42,35.79a4.38,4.38,0,0,1-1.74-4.26c.32-2,1.69-3.05,4.33-2.62a9.69,9.69,0,0,1,3.64,1.33,4.69,4.69,0,0,1,2.56,4.82c-.35,2.14-2,3-4.42,2.57A9.87,9.87,0,0,1,6.42,35.79Zm8.34-.9a1.7,1.7,0,0,0-.86-1.74,15.3,15.3,0,0,0-3.63-1.57,19.76,19.76,0,0,0-2.91-.77c-1.44-.23-2.09,0-2.23.87A1.71,1.71,0,0,0,6,33.41,14.48,14.48,0,0,0,9.64,35a21.8,21.8,0,0,0,2.89.79C14,36,14.61,35.79,14.76,34.89Z"/><path class="cls-1" d="M2,24.66l.15-.89h2L7.46,4.17H5.36l.12-.88h7.57c6.6,0,9.89,2.75,9.89,8.21q0,6.09-3.75,9.62c-2.5,2.35-6,3.54-10.38,3.54Zm6.56-.89h.8a7.6,7.6,0,0,0,7.08-4.55,20.34,20.34,0,0,0,1.86-8.88c0-2.56-.52-4.21-1.65-5.07a6.37,6.37,0,0,0-4.27-1.1h-.52Z"/><path class="cls-1" d="M21.2,24.66l.13-.89h1.8L33.78,3.17H36.1l3.3,20.6h1.89l-.12.89H32.41l.12-.89h2.08l-.86-6.22H27.49l-3.23,6.22h2.41l-.12.89Zm6.72-8h5.71L32.44,7.87Z"/><path class="cls-1" d="M40.62,24.66l.12-.89h2l7.11-9.55-4.06-10H44l.12-.88h9.22l-.18.88H50.76l3,7.7,5.86-7.7h-2.5l.15-.88H63l-.15.88h-2L54.21,13l4.42,10.77h2l-.15.89H50.91l.15-.89h2.57l-3.36-8.39L44,23.77h2.56l-.12.89Z"/></svg>