<svg xmlns="http://www.w3.org/2000/svg" width="120" height="97"><path fill="#93BCE2" d="M18.249 69.095c.006.023.096-.073.225-.218-.16.094-.243.151-.243.151l.018.067zM19.551 67.94c-.079-.221-.725.544-1.076.938.112-.066.262-.151.447-.248.336-.283.668-.58.629-.69z"/><linearGradient id="a" gradientUnits="userSpaceOnUse" x1="2.204" y1="89.541" x2="16.662" y2="89.541" gradientTransform="rotate(-18.066 -46.913 27.815)"><stop offset="0" stop-color="#5b0079"/><stop offset="1" stop-color="#8f004a"/></linearGradient><path fill="url(#a)" d="M31.359 69.767c.507-.593.992-1.205 1.481-1.815a.442.442 0 00-.294-.715c-2.133-.247-5.145-.451-7.635-.26-2.868.22-4.969 1.121-5.989 1.654-.33.277-.663.54-.651.598.215 1.007.74.457.79.457.123.002-.077.604.057.606 2.761.039 7.957.058 11.075.057a1.45 1.45 0 001.102-.507l.064-.075z"/><linearGradient id="b" gradientUnits="userSpaceOnUse" x1="2.204" y1="89.541" x2="16.662" y2="89.541" gradientTransform="rotate(-18.066 -46.913 27.815)"><stop offset="0" stop-color="#5b0079"/><stop offset="1" stop-color="#8f004a"/></linearGradient><path fill="url(#b)" d="M31.359 69.767c.507-.593.992-1.205 1.481-1.815a.442.442 0 00-.294-.715c-2.133-.247-5.145-.451-7.635-.26-2.868.22-4.969 1.121-5.989 1.654-.33.277-.663.54-.651.598.215 1.007.74.457.79.457.123.002-.077.604.057.606 2.761.039 7.957.058 11.075.057a1.45 1.45 0 001.102-.507l.064-.075z"/><linearGradient id="c" gradientUnits="userSpaceOnUse" x1="1.762" y1="83.316" x2="18.861" y2="83.316" gradientTransform="rotate(-18.066 -46.913 27.815)"><stop offset="0" stop-color="#5b0079"/><stop offset="1" stop-color="#8f004a"/></linearGradient><path fill="url(#c)" d="M32.315 61.993s1.048-1.31.485-1.627c-.275-.176-6.16-.157-10.35.793-4.046.917-6.308 3.006-6.308 3.006l.027.063c.035.081.098-.021.249.263.109.205.281.6.355.693.05.063.166.151.215.145 3.907-.509 13.804-1.995 13.804-1.995l1.523-1.341z"/><linearGradient id="d" gradientUnits="userSpaceOnUse" x1="1.762" y1="83.316" x2="18.861" y2="83.316" gradientTransform="rotate(-18.066 -46.913 27.815)"><stop offset="0" stop-color="#5b0079"/><stop offset="1" stop-color="#8f004a"/></linearGradient><path fill="url(#d)" d="M32.315 61.993s1.048-1.31.485-1.627c-.275-.176-6.16-.157-10.35.793-4.046.917-6.308 3.006-6.308 3.006l.027.063c.035.081.098-.021.249.263.109.205.281.6.355.693.05.063.166.151.215.145 3.907-.509 13.804-1.995 13.804-1.995l1.523-1.341z"/><path fill="#8A0080" d="M32.301 47.191c.103 1.684-1.277 7.31-3.442 10.445-.294.235-.594.464-.896.685l-.002.002h-.001a34.297 34.297 0 01-.537.386 34.744 34.744 0 01-1.089.729h-.001c-.006.004-.012.009-.019.012h-.001c-.043.028-.084.055-.128.081a37.912 37.912 0 01-2.732 1.577h-.001c-.428.224-.847.435-1.257.635l-.003.001-.412.197-.006.002c-.001.002-.002.002-.005.003l-.244.115h-.001a.229.229 0 00-.023.01l-.004.001-.238.11-.018.009-.251.114-.003.001-.379.168-.008.004c-.374.163-.732.315-1.073.455l-.01.003c-.689.283-1.303.517-1.813.701l-.003.004c-1.72.699-.897 1.649-.71 1.685-.379.018-.828-1.084-.936-1.362l-.001-.003-.059-.138a.02.02 0 00-.004-.008l-.004-.014-.017-.037-.008-.02c-.002-.006-.005-.009-.006-.015l-.001-.003-.077-.185-.01-.02a2.102 2.102 0 00-.05-.122l-.001-.004-.01-.027-.011-.025c-.017-.042-.035-.083-.052-.128l-.004-.006a.102.102 0 00-.009-.022l-.054-.133c-.004-.008-.006-.015-.01-.021l-.003-.01a2 2 0 01-.038-.093l-.014-.035-.013-.031-.005-.012a44.03 44.03 0 00-.158-.387v-.001l-.024-.059c-.004-.006-.006-.015-.009-.023-.027-.063-.053-.129-.081-.198l-.005-.012-.001-.003c-.033-.084-.07-.171-.107-.263l-.007-.017-.01-.027-.193-.476c-.005-.009-.008-.019-.013-.03a.227.227 0 00-.016-.039c-.038-.092-.074-.185-.113-.282a1.905 1.905 0 01-.028-.067.32.32 0 01-.019-.072l-.001-.021c-.001-.018-.002-.034-.001-.053l.003-.019a.257.257 0 01.016-.054l.003-.013a.354.354 0 01.057-.089l.016-.016.023-.02.028-.018a.453.453 0 01.074-.035l.003-.001c.212-.062.424-.126.638-.191l.181-.058c.165-.052.33-.106.496-.16.053-.019.107-.036.161-.054.212-.071.425-.145.636-.221l.116-.042a31.335 31.335 0 001.246-.478l.115-.047c.21-.085.421-.174.631-.265l.159-.07c.163-.071.325-.144.489-.219l.18-.081a28.622 28.622 0 001.462-.724c.222-.115.443-.234.663-.355l.196-.111a29.68 29.68 0 002.201-1.367c.077-.053.153-.108.23-.162l.233-.161a32.3 32.3 0 00.514-.377l.157-.122c.12-.09.239-.182.355-.275.059-.045.117-.091.175-.138.116-.093.23-.188.345-.282l.154-.128c.162-.137.321-.274.477-.414l.067-.06c.117-.105.232-.21.345-.317.181-.167.357-.339.529-.512l.129-.129c.346-.349.677-.709.995-1.077l.118-.139c.046-.055.092-.108.136-.163.111-.132.219-.265.326-.401l.011-.014c.01-.012.018-.026.028-.037l.002-.002c.101-.131.199-.265.296-.399.047-.063.09-.126.135-.189a13.181 13.181 0 00.609-.948c.025-.045.052-.089.078-.134.024-.04.25-.468.331-.623.014-.027.025-.046.028-.054.016.16.885-1.856.897-1.666zM33.071 60.716c-.141-.477-.601-.398-.601-.398 1.09.152-.524.952-.524.952l-.013.015c-2.291 1.134-7.762 3.709-13.455 5.418-.583.175-.957.636-.812 1.002.394.996.647 1.674.806 2.112a.715.715 0 00.159.254c.233.286.521.241 1.497.234-.432.009-.19-.221.018-.325 2.909-1.054 9.497-3.501 12.833-5.231.547-.284.853-.746.762-1.142l-.666-2.889-.004-.002z"/><linearGradient id="e" gradientUnits="userSpaceOnUse" x1="16.901" y1="77.495" x2="23.799" y2="63.803" gradientTransform="rotate(-18.066 -46.913 27.815)"><stop offset="0" stop-color="#8000a4"/><stop offset="1" stop-color="#8000a4"/></linearGradient><path fill="url(#e)" d="M36.559 38.733a18.481 18.481 0 01.332 2.879 18.45 18.45 0 01-1.769 8.553c-.022.045-.042.09-.066.136a18.429 18.429 0 01-2.241 3.545 18.298 18.298 0 01-2.801 2.805l.001.003c-.107.098-.219.194-.329.289l-.16.138c-.163.142-.327.279-.494.415l-.174.141.106-.157c2.117-3.214 2.372-8.189 2.403-8.537l.003-.019.031-.06a12.459 12.459 0 00.241-.499c.089-.194.174-.389.254-.587l.021-.054c.076-.188.148-.378.217-.57l.035-.104c.044-.127.085-.255.125-.383.015-.049.033-.096.047-.145l.046-.163.03-.106c.036-.123.072-.248.103-.373.017-.065.03-.132.047-.197.035-.15.072-.3.103-.452.015-.071.027-.143.041-.215l.03-.169c.016-.091.034-.181.049-.271.011-.068.019-.138.029-.206.023-.151.045-.302.063-.453.009-.076.013-.152.021-.23.014-.144.029-.289.04-.433.005-.073.006-.147.009-.22l.006-.118c.005-.11.012-.219.015-.329.002-.068 0-.136.001-.203.002-.13.002-.26 0-.389.001-.026.002-.051.001-.075-.001-.061-.007-.12-.008-.18a16.696 16.696 0 00-.018-.387l-.004-.102v-.004a14.404 14.404 0 00-1.722-5.923 14.411 14.411 0 00-3.699-4.415l-.061-.047a11.998 11.998 0 00-.498-.375c.256.144.562.319.905.525 2.313 1.377 6.329 4.075 8.398 7.249.102.155.2.314.291.472z"/><linearGradient id="f" gradientUnits="userSpaceOnUse" x1="25.927" y1="65.424" x2="17.147" y2="44.982" gradientTransform="rotate(-18.066 -46.913 27.815)"><stop offset="0" stop-color="#5290cb"/><stop offset="1" stop-color="#5290cb"/></linearGradient><path fill="url(#f)" d="M35.989 36.551c.236.725.425 1.452.57 2.182-2.235-3.857-7.528-7.089-9.594-8.247a14.155 14.155 0 00-1.89-1.156c-.018-.009-.037-.019-.054-.026a14.91 14.91 0 00-.772-.363l-.086-.039a14.345 14.345 0 00-3.785-1.045h-.004a5.726 5.726 0 00-.183-.024h-.001c-.003.001-.005 0-.006-.001h-.001a14.468 14.468 0 00-4.953.261l-.365.088c2.427-.848 5.981-1.814 11.151-2.746.524.235 1.036.496 1.535.779.043.023.082.046.124.07a18.366 18.366 0 014.819 4.007l.182.216.038.047.033.04.075.093c.038.046.073.092.109.137.057.073.114.144.17.218l.067.089.024.032.049.065c.082.111.164.221.243.334l.045.063.045.063.041.06c.02.029.04.056.059.086l.075.108a.405.405 0 00.023.034c.079.119.155.242.233.364l.151.235v.001l.063.105.1.17c.043.07.084.141.125.211a19.739 19.739 0 01.361.663c.011.021.023.041.032.061.019.035.037.07.054.106l.038.073.001.003.005.009.091.184.084.174.005.012.006.013c.018.035.034.071.05.107.011.024.023.047.034.073.008.019.017.037.024.056l.062.135c.014.034.028.067.043.099l.042.095.075.177c.086.203.167.408.245.616l.074.193c.076.213.149.424.219.64z"/><linearGradient id="g" gradientUnits="userSpaceOnUse" x1="19.35" y1="47.163" x2="4.396" y2="49.448" gradientTransform="rotate(-18.066 -46.913 27.815)"><stop offset=".309" stop-color="#acd34a"/><stop offset="1" stop-color="#acd34a"/></linearGradient><path fill="url(#g)" d="M26.013 25.436c-5.17.932-8.724 1.897-11.151 2.746a13.706 13.706 0 00-1.605.51 14.505 14.505 0 00-8.032 7.562 14.514 14.514 0 00-1.222 4.406c-.528-5.71.845-9.725 2.252-12.236.248-.218.502-.431.762-.636l.001-.002a18.081 18.081 0 011.76-1.231 18.468 18.468 0 014.043-1.852 18.379 18.379 0 0113.192.733z"/><linearGradient id="h" gradientUnits="userSpaceOnUse" x1="4.858" y1="68.453" x2="-3.909" y2="48.04" gradientTransform="rotate(-18.066 -46.913 27.815)"><stop offset="0" stop-color="#f0d34a"/><stop offset="1" stop-color="#f0d34a"/></linearGradient><path fill="url(#h)" d="M4.803 47.137l.003.008c.048.146.098.29.149.432l.033.088c.029.079.058.16.09.238a10.494 10.494 0 00.132.329l.052.123c.029.07.06.138.09.206.019.038.036.078.053.116.048.104.097.205.147.306l.088.168.09.169.128.224.061.104a14.457 14.457 0 001.954 2.606 16.611 16.611 0 002.369 2.241C7.023 52.49 2.81 49.31.333 45.752l-.005-.026c-.02-.103-.039-.207-.056-.312a11.513 11.513 0 01-.093-.59l-.028-.206a17.088 17.088 0 01-.062-.538l-.038-.43-.002-.034-.002-.05a18.612 18.612 0 01-.031-.527c-.001-.045-.002-.091-.005-.137-.005-.154-.008-.31-.01-.465v-.179c0-.142.001-.281.006-.423a26.56 26.56 0 01.023-.602l.013-.227a43.262 43.262 0 01.053-.611c.013-.123.028-.247.043-.37l.029-.235c.018-.131.04-.262.06-.392.011-.069.021-.137.033-.205a16.575 16.575 0 01.279-1.339c.015-.061.033-.124.049-.186.048-.182.095-.364.148-.544.031-.108.066-.214.1-.321.041-.131.081-.263.124-.392.047-.141.099-.278.149-.415.03-.082.056-.165.087-.245l.016-.039c.043-.116.09-.231.136-.345l.074-.177.094-.228c.066-.153.137-.304.207-.455.043-.092.084-.186.129-.279.054-.111.112-.22.167-.329.186-.363.377-.72.585-1.07l.002-.004c.198-.333.409-.662.628-.982.034-.049.067-.098.102-.146a18.455 18.455 0 012.921-3.272c-1.407 2.511-2.78 6.525-2.252 12.236-.09.782-.115 1.576-.073 2.375l.002.042a12.515 12.515 0 00.042.555c.025.151.051.301.078.451.01.055.019.111.03.166l.06.306a26.404 26.404 0 00.118.569c.012.062.027.124.041.187l.063.262.044.186.103.397.036.133c.029.102.057.204.087.304l.042.144c.038.132.08.267.124.399z"/><linearGradient id="i" gradientUnits="userSpaceOnUse" x1="2.842" y1="78.867" x2="-5.793" y2="58.761" gradientTransform="rotate(-18.066 -46.913 27.815)"><stop offset="0" stop-color="#da242b"/><stop offset=".717" stop-color="#da242b"/></linearGradient><path fill="url(#i)" d="M19.576 57.973c-.653.306-1.273.571-1.841.796a35.675 35.675 0 01-3.465 1.175c-.207.058-.398.11-.571.154l-.077-.021-.038-.01c-.035-.008-.069-.019-.103-.029a15.47 15.47 0 01-.714-.214 18.706 18.706 0 01-3.135-1.349A18.385 18.385 0 01.738 47.424l-.057-.201a49.744 49.744 0 01-.1-.366l-.061-.253c-.025-.105-.051-.209-.075-.314-.021-.094-.04-.188-.06-.283l-.051-.255c2.476 3.557 6.689 6.738 9.909 8.743l.174.131c1.222.92 2.68 1.749 4.414 2.359.358.128.727.244 1.107.351a19.022 19.022 0 003.638.637z"/><linearGradient id="j" gradientUnits="userSpaceOnUse" x1="-7.557" y1="64.444" x2="-.848" y2="64.444" gradientTransform="rotate(-18.066 -46.913 27.815)"><stop offset="0" stop-color="#f0d34a"/><stop offset="1" stop-color="#f0d34a"/></linearGradient><path fill="url(#j)" d="M10.242 54.494C7.023 52.489 2.81 49.309.333 45.751l-.005-.026c-.02-.103-.039-.207-.056-.312a11.513 11.513 0 01-.093-.59l-.028-.206c-.017-.127-.119-.485-.046-.38 3.829 5.469 4.866 6.32 9.369 9.622.245.217.501.428.768.635z"/><linearGradient id="k" gradientUnits="userSpaceOnUse" x1="-2.49" y1="49.852" x2="6.424" y2="49.852" gradientTransform="rotate(-18.066 -46.913 27.815)"><stop offset="0" stop-color="#66a36b"/><stop offset=".222" stop-color="#6fa967"/><stop offset=".588" stop-color="#88bb5b"/><stop offset="1" stop-color="#acd34a"/></linearGradient><path opacity=".5" fill="url(#k)" d="M8.778 26.555c-.95.724-4.602 4.145-4.775 14.105-.528-5.71.845-9.725 2.252-12.236.248-.218.502-.431.762-.636l.001-.002a18.081 18.081 0 011.76-1.231z"/><linearGradient id="l" gradientUnits="userSpaceOnUse" x1="11.703" y1="48.348" x2="24.373" y2="48.348" gradientTransform="rotate(-18.066 -46.913 27.815)"><stop offset="0" stop-color="#5290cb"/><stop offset="1" stop-color="#5290cb"/></linearGradient><path opacity=".5" fill="url(#l)" d="M27.548 26.215c-3.395-.192-10.618 1.472-12.321 1.878l-.365.088c2.427-.848 5.981-1.814 11.151-2.746.524.236 1.036.497 1.535.78z"/><linearGradient id="m" gradientUnits="userSpaceOnUse" x1="22.495" y1="60.092" x2="29.059" y2="60.092" gradientTransform="rotate(-18.066 -46.913 27.815)"><stop offset="0" stop-color="#8000a4"/><stop offset="1" stop-color="#5a93cb"/></linearGradient><path opacity=".5" fill="url(#m)" d="M36.559 38.733a18.481 18.481 0 01.332 2.879c-1.968-5.247-7.26-9.274-9.428-10.751a11.998 11.998 0 00-.498-.375c.256.144.562.319.905.525 2.313 1.377 6.329 4.075 8.398 7.249.102.156.2.315.291.473z"/><linearGradient id="n" gradientUnits="userSpaceOnUse" x1="13.198" y1="76.347" x2="20.958" y2="76.347" gradientTransform="rotate(-18.066 -46.913 27.815)"><stop offset="0" stop-color="#8f004a"/><stop offset="1" stop-color="#5b0079"/></linearGradient><path fill="url(#n)" d="M31.368 48.943c-.032.348-.287 5.323-2.403 8.537l-.106.157c-.294.235-.594.464-.896.685l-.002.002h-.001a34.297 34.297 0 01-.537.386c-.28.195-.562.385-.845.57 3.604-3.9 4.721-9.95 4.79-10.337z"/><g><path fill="#CEB12C" d="M16.216 37.745L14.207 48.46a.395.395 0 00.547.436l4.32-1.897a.396.396 0 01.546.282l1.101 5.329c.086.419.683.421.773.003l2.555-11.874a.395.395 0 00-.605-.412l-4.081 2.713c-.221.147-.635.431-.712.178l-1.669-5.513c-.12-.396-.689-.366-.766.04z"/><linearGradient id="o" gradientUnits="userSpaceOnUse" x1="6.712" y1="57.601" x2="17.978" y2="57.601" gradientTransform="rotate(-11.678 -48.541 18.637)"><stop offset="0" stop-color="#f0d34a"/><stop offset="1" stop-color="#f0d34a"/></linearGradient><path fill="url(#o)" d="M16.101 36.91l-2.124 11.107a.395.395 0 00.547.436l4.32-1.897a.396.396 0 01.546.282l1.101 5.329c.086.419.683.421.773.003l2.555-11.874a.395.395 0 00-.605-.412l-4.081 2.713a.395.395 0 01-.597-.215l-1.669-5.513c-.119-.395-.688-.365-.766.041z"/></g><g><path d="M52.793 42.027h-4.701L48 43.055h4.333l-.331 3.764H47.67l-.092 1.065h4.884l-.331 3.801h-9.475l1.175-13.459h9.291l-.329 3.801zM64.691 43.128c0 .123-.012.294-.037.514l-.698 8.042H59.55l.606-6.941c.012-.098.018-.159.018-.184v-.092c0-.147-.092-.22-.275-.22-.355 0-.851.159-1.487.477l-.606 6.959h-4.407l.973-11.219h4.407l-.073.918h.257c.416-.232.777-.425 1.083-.578a5.9 5.9 0 01.835-.349c.251-.079.48-.135.689-.165.208-.03.416-.046.624-.046.845 0 1.472.202 1.882.606.41.404.615 1.041.615 1.91v.368zM75.929 44.377c0 .269-.012.606-.037 1.01-.025.404-.067.808-.129 1.212l-5.692.679a.552.552 0 00-.018.129c0 .208.067.367.202.477.135.11.41.165.826.165.184 0 .569-.04 1.157-.119.588-.079 1.426-.248 2.516-.505l.312 3.727c-.551.159-1.041.288-1.469.386-.429.098-.808.174-1.138.23a9.6 9.6 0 01-1.579.138c-1.787 0-3.137-.401-4.049-1.203-.912-.802-1.368-2.053-1.368-3.755 0-1.15.131-2.148.395-2.993.263-.845.639-1.542 1.129-2.093a4.436 4.436 0 011.781-1.221c.698-.263 1.487-.395 2.369-.395 1.628 0 2.834.352 3.617 1.056.783.703 1.175 1.729 1.175 3.075zm-4.205-.496c0-.245-.055-.419-.165-.523a.616.616 0 00-.441-.156.597.597 0 00-.578.367c-.117.245-.199.704-.248 1.377l1.395-.147c.024-.245.037-.434.037-.569v-.349zM84.54 44.763a3.247 3.247 0 00-1.194-.202c-.343 0-.649.025-.918.073a5.99 5.99 0 00-.992.294l-.588 6.757h-4.407l.973-11.219h4.407l-.092 1.157h.239c.232-.294.444-.529.633-.707.19-.177.367-.315.532-.413a1.71 1.71 0 01.487-.202 2.18 2.18 0 01.983 0c.153.037.315.092.487.165l-.55 4.297zM96.365 43.128h-.9v.184c.049.086.089.205.119.358s.046.321.046.505c0 .563-.113 1.037-.34 1.423a2.615 2.615 0 01-.982.946c-.429.245-.961.422-1.597.532a12.94 12.94 0 01-2.185.165h-.276c-.11 0-.223-.003-.34-.009a34.13 34.13 0 01-.321-.018 3.971 3.971 0 00-.22-.009 4.042 4.042 0 01-.083.257.678.678 0 00-.046.165c0 .073.055.11.165.11l3.25.129a6.83 6.83 0 011.359.193c.404.104.747.273 1.028.505.281.233.496.532.643.9.147.367.22.826.22 1.377 0 1.334-.536 2.329-1.607 2.984-1.071.655-2.623.982-4.655.982-1.689 0-2.904-.196-3.645-.588-.741-.392-1.111-.936-1.111-1.634 0-.514.131-.921.395-1.221.263-.3.646-.572 1.148-.817v-.22c-.343-.122-.578-.275-.707-.459a1.09 1.09 0 01-.193-.643c0-.159.015-.318.046-.477.03-.159.085-.346.165-.56.079-.214.193-.468.34-.762.147-.294.337-.655.569-1.083-.294-.196-.542-.493-.744-.891-.202-.398-.303-.878-.303-1.441 0-1.187.419-2.112 1.258-2.773.838-.661 2.182-.992 4.03-.992.331 0 .689.018 1.074.055.386.037.695.092.927.165h3.709l-.236 2.662zm-4.334 8.502c0-.098-.012-.159-.037-.184-.025-.024-.067-.037-.129-.037l-2.993-.11a1.03 1.03 0 00-.073.386c0 .122.018.217.055.285a.365.365 0 00.202.156c.098.037.23.058.395.064.165.006.382.009.652.009.698 0 1.193-.028 1.487-.083.295-.055.441-.217.441-.486zm-.605-7.932c0-.281-.052-.474-.156-.578-.104-.104-.291-.156-.56-.156-.355 0-.585.095-.689.285-.104.19-.156.481-.156.872 0 .282.052.475.156.578.104.104.291.156.56.156.355 0 .584-.095.689-.285.103-.19.156-.481.156-.872zM105.178 50.693a12.998 12.998 0 01-1.001 2.433c-.386.704-.756 1.264-1.111 1.68l-4.058-1.12c.269-.269.523-.545.762-.826.239-.282.425-.557.56-.826l.275-.569h-1.634l-1.836-10.999h4.37l.588 5.178a19.796 19.796 0 01.065.991l.018.487c.006.153.009.273.009.358h.239a7.418 7.418 0 01.073-.845c.024-.171.052-.346.083-.523.03-.177.064-.34.101-.487l1.377-5.16h4.315l-3.195 10.228z"/></g><g><path d="M56.922 69.776h-4.223l.275-5.968c.012-.232.021-.462.028-.689.006-.226.021-.45.046-.67h-.22a12.33 12.33 0 01-.073.615 6.531 6.531 0 01-.147.744l-1.744 5.968h-4.627l-.679-5.968a6.469 6.469 0 01-.046-.652 28.134 28.134 0 01-.009-.707h-.22c-.012.269-.025.511-.037.725a10.79 10.79 0 01-.055.633l-.79 5.968h-4.04l2.075-13.459h5.655l.863 6.757a8.3 8.3 0 01.064.927c.006.337.009.64.009.909h.22c.012-.269.037-.572.073-.909.037-.337.098-.646.184-.927l2.075-6.757h5.655l-.312 13.46zM68.49 61.183a9.272 9.272 0 01-.037.789l-.679 7.804h-3.929v-.79h-.239c-.477.392-.946.658-1.405.799a4.265 4.265 0 01-1.239.211c-1.004 0-1.744-.263-2.222-.79-.477-.526-.716-1.255-.716-2.185 0-.551.064-1.043.193-1.478.129-.434.358-.808.689-1.12s.777-.566 1.34-.762c.563-.196 1.273-.337 2.13-.422l1.671-.165.018-.239a3.08 3.08 0 00.018-.275v-.129c0-.159-.104-.239-.312-.239a7.4 7.4 0 00-.716.046c-.294.031-.624.077-.992.138-.367.061-.759.135-1.175.22-.416.086-.839.19-1.267.312l-.514-3.708a23.468 23.468 0 012.929-.661 17.498 17.498 0 012.635-.202c1.261 0 2.213.227 2.855.679.643.453.964 1.175.964 2.167zm-4.664 4.388l-1.432.147a1.06 1.06 0 00-.147.321 1.358 1.358 0 00-.055.376c0 .429.232.643.698.643.098 0 .217-.018.358-.055a1.96 1.96 0 00.468-.202l.11-1.23zM77.303 62.854a3.247 3.247 0 00-1.194-.202c-.343 0-.649.025-.918.073a5.99 5.99 0 00-.992.294l-.588 6.757h-4.407l.973-11.219h4.407l-.092 1.157h.239c.232-.294.444-.529.633-.707.19-.177.367-.315.532-.413a1.71 1.71 0 01.487-.202 2.18 2.18 0 01.983 0c.153.037.315.092.487.165l-.55 4.297zM87.072 62.743l.955 2.258c.098.208.196.355.294.441.098.086.263.129.496.129.073 0 .144-.003.211-.009a1.66 1.66 0 00.193-.028l-.367 4.186a5.134 5.134 0 01-.652.11c-.3.037-.554.055-.762.055-.441 0-.814-.037-1.12-.11a2.313 2.313 0 01-.799-.349 2.215 2.215 0 01-.588-.624 6.596 6.596 0 01-.487-.936l-.643-1.506-1.303 1.672-.147 1.744h-4.37l1.267-14.487 4.407-.386-.661 7.473h.22c.159-.331.352-.682.578-1.056.226-.373.468-.737.725-1.093l1.322-1.744 4.535.165-3.304 4.095zM100.604 62.468c0 .269-.012.606-.037 1.01-.025.404-.067.808-.129 1.212l-5.692.679a.552.552 0 00-.018.129c0 .208.067.367.202.477.135.11.41.165.826.165.184 0 .569-.04 1.157-.119.588-.079 1.426-.248 2.516-.505l.312 3.727c-.551.159-1.041.288-1.469.386-.429.098-.808.174-1.138.23a9.6 9.6 0 01-1.579.138c-1.787 0-3.137-.401-4.049-1.203-.912-.802-1.368-2.053-1.368-3.755 0-1.15.131-2.148.395-2.993.263-.845.64-1.542 1.129-2.093a4.436 4.436 0 011.781-1.221c.698-.263 1.487-.395 2.369-.395 1.628 0 2.834.352 3.617 1.056.783.703 1.175 1.729 1.175 3.075zm-4.205-.496c0-.245-.055-.419-.165-.523a.616.616 0 00-.441-.156.597.597 0 00-.578.367c-.116.245-.199.704-.248 1.377l1.395-.147c.024-.245.037-.434.037-.569v-.349zM109.619 62.339h-2.846l-.239 2.828a2.417 2.417 0 00-.018.294v.165c0 .098.024.172.073.22.049.049.153.073.312.073a2.531 2.531 0 00.689-.101 19.021 19.021 0 001.515-.468l.165 3.801c-.465.184-.878.33-1.239.441-.361.11-.695.196-1.001.257a6.781 6.781 0 01-.845.119c-.257.018-.52.028-.79.028-1.2 0-2.066-.248-2.598-.744s-.799-1.282-.799-2.359c0-.245.018-.569.055-.973l.312-3.581h-1.028l.33-3.783h1.047l.184-2.112 4.462-.698-.239 2.809h2.828l-.33 3.784z"/></g><path d="M118.561 62.266a38.176 38.176 0 00-2.222-.432c-.526-.079-.894-.119-1.102-.119-.098 0-.165.012-.202.037-.037.025-.055.086-.055.184 0 .073.018.123.055.147.037.025.116.061.239.11l1.763.643c.355.135.673.285.955.45.281.165.52.367.716.606.196.239.346.52.45.845.104.324.156.707.156 1.148 0 .686-.122 1.282-.367 1.79a3.678 3.678 0 01-1.019 1.285 4.365 4.365 0 01-1.542.78 7.052 7.052 0 01-1.956.257c-.612 0-1.279-.058-2.001-.174a15.627 15.627 0 01-2.148-.505l.679-3.489c.551.159 1.028.291 1.432.395.404.104.753.187 1.047.248.294.061.542.104.744.129.202.025.376.037.523.037a.692.692 0 00.266-.037c.055-.024.083-.085.083-.184 0-.086-.018-.144-.055-.174a1.444 1.444 0 00-.275-.138l-1.763-.643c-.747-.269-1.307-.624-1.68-1.065-.374-.441-.56-1.065-.56-1.873 0-.685.113-1.291.34-1.818.226-.526.548-.964.964-1.313a4.199 4.199 0 011.515-.79 6.964 6.964 0 011.992-.266c.649 0 1.307.04 1.974.119.667.08 1.245.187 1.735.321l-.681 3.489z"/></svg>