<svg id="Слой_1" data-name="Слой 1" xmlns="http://www.w3.org/2000/svg" xmlns:xlink="http://www.w3.org/1999/xlink" viewBox="0 0 120 97"><defs><style>.cls-1{fill:url(#Безымянный_градиент_12);}.cls-2{fill:url(#Безымянный_градиент_12-2);}.cls-3{fill:url(#Безымянный_градиент_12-3);}.cls-4{fill:url(#Безымянный_градиент_9);}.cls-5{fill:url(#Безымянный_градиент_9-2);}.cls-6{fill:url(#Безымянный_градиент_9-3);}.cls-7{fill:url(#Безымянный_градиент_9-4);}.cls-8{fill:url(#Безымянный_градиент_9-5);}.cls-9{fill:url(#Безымянный_градиент_9-6);}.cls-10{fill:url(#Безымянный_градиент_9-7);}.cls-11{fill:url(#Безымянный_градиент_9-8);}.cls-12{fill:url(#Безымянный_градиент_9-9);}</style><linearGradient id="Безымянный_градиент_12" x1="34.87" y1="27.7" x2="37.11" y2="50.91" gradientUnits="userSpaceOnUse"><stop offset="0" stop-color="#fff"/><stop offset="1"/></linearGradient><linearGradient id="Безымянный_градиент_12-2" x1="51.07" y1="26.13" x2="53.32" y2="49.35" xlink:href="#Безымянный_градиент_12"/><linearGradient id="Безымянный_градиент_12-3" x1="68.47" y1="24.45" x2="70.71" y2="47.66" xlink:href="#Безымянный_градиент_12"/><linearGradient id="Безымянный_градиент_9" x1="81.74" y1="49.54" x2="97.62" y2="49.54" gradientUnits="userSpaceOnUse"><stop offset="0" stop-color="#910"/><stop offset="1" stop-color="#ff1010"/></linearGradient><linearGradient id="Безымянный_градиент_9-2" x1="97.95" y1="49.54" x2="120" y2="49.54" xlink:href="#Безымянный_градиент_9"/><linearGradient id="Безымянный_градиент_9-3" x1="32.63" y1="50.39" x2="13.49" y2="49.74" xlink:href="#Безымянный_градиент_9"/><linearGradient id="Безымянный_градиент_9-4" x1="7.11" y1="40.79" x2="6.95" y2="59.9" xlink:href="#Безымянный_градиент_9"/><linearGradient id="Безымянный_градиент_9-5" x1="22.66" y1="70.39" x2="-0.31" y2="49.79" xlink:href="#Безымянный_градиент_9"/><linearGradient id="Безымянный_градиент_9-6" x1="26.43" y1="66.19" x2="3.46" y2="45.59" xlink:href="#Безымянный_градиент_9"/><linearGradient id="Безымянный_градиент_9-7" x1="1.56" y1="40.74" x2="1.4" y2="59.85" xlink:href="#Безымянный_градиент_9"/><linearGradient id="Безымянный_градиент_9-8" x1="20.1" y1="57.16" x2="28" y2="57.16" xlink:href="#Безымянный_градиент_9"/><linearGradient id="Безымянный_градиент_9-9" x1="12.07" y1="46.06" x2="27.74" y2="46.06" xlink:href="#Безымянный_градиент_9"/></defs><title>EuroFx-Logo-120x97Монтажная область 1</title><path class="cls-1" d="M35.3,54.71a2.18,2.18,0,0,0,1.65.73,2,2,0,0,0,1.55-.72,2.8,2.8,0,0,0,.62-1.88V43.46h5.31v9.38a7.17,7.17,0,0,1-.93,3.69A6.29,6.29,0,0,1,40.88,59a8.56,8.56,0,0,1-4,.87,8.75,8.75,0,0,1-4-.87,6.45,6.45,0,0,1-2.68-2.46,7.08,7.08,0,0,1-.94-3.69V43.46h5.3v9.38A2.62,2.62,0,0,0,35.3,54.71Z"/><path class="cls-2" d="M55.71,59.49l-1.93-4.16h-2v4.16h-5.3v-16h7.75A7.71,7.71,0,0,1,59.3,45a5.24,5.24,0,0,1,1.78,4.25,6.57,6.57,0,0,1-.65,3,5,5,0,0,1-1.89,2.05l3.16,5.21ZM51.79,51.3h2.45a1.73,1.73,0,0,0,1.34-.51,2.07,2.07,0,0,0,.47-1.43A2,2,0,0,0,55.58,48a1.79,1.79,0,0,0-1.34-.49H51.79Z"/><path class="cls-3" d="M75.61,44.19a8,8,0,0,1,3.15,3,8.24,8.24,0,0,1,1.13,4.28,8.39,8.39,0,0,1-1.13,4.32,7.94,7.94,0,0,1-3.15,3,10,10,0,0,1-9.06,0,7.94,7.94,0,0,1-3.15-3,8.39,8.39,0,0,1-1.13-4.32,8.29,8.29,0,0,1,1.13-4.3,7.88,7.88,0,0,1,3.15-3,9.53,9.53,0,0,1,4.53-1.07A9.42,9.42,0,0,1,75.61,44.19ZM69.44,48a3.72,3.72,0,0,0-1.25,1.41,4.17,4.17,0,0,0-.47,2,4.25,4.25,0,0,0,.47,2,3.79,3.79,0,0,0,1.25,1.43,3,3,0,0,0,1.71.52,2.91,2.91,0,0,0,1.67-.51A3.51,3.51,0,0,0,74,53.5a4.69,4.69,0,0,0,.43-2,4.6,4.6,0,0,0-.43-2A3.52,3.52,0,0,0,72.82,48a3,3,0,0,0-1.67-.5A3.11,3.11,0,0,0,69.44,48Z"/><path class="cls-4" d="M81.74,39.67H97.62v5H88.27V48H97v5H88.27v6.42H81.74Z"/><path class="cls-5" d="M98.38,39.67H106l2.87,4.65,2.87-4.65h7.69L113,49.08l7,10.33h-7.83l-3.32-5.1-3.27,5.1H98l6.93-10Z"/><polygon class="cls-6" points="20.53 59.56 11.08 59.56 11.08 39.75 20.53 57.13 20.53 59.56"/><polygon class="cls-7" points="9.08 59.56 4.94 59.56 4.94 45.23 9.08 55.94 9.08 59.56"/><polygon class="cls-8" points="4.53 51.11 4.43 58.48 0.18 48.36 3.04 48.36 4.53 51.11"/><polygon class="cls-9" points="10.63 46.33 10.63 58.37 5.13 44.41 9.23 44.41 10.63 46.33"/><polygon class="cls-10" points="2.91 59.56 -0.02 59.56 -0.02 49.23 2.91 56.16 2.91 59.56"/><polygon class="cls-11" points="20.1 54.68 21.36 56.99 21.36 59.63 28 59.63 28 54.68 20.1 54.68"/><polygon class="cls-12" points="27.75 44.85 27.75 39.9 12.07 39.9 18.77 52.23 26.82 52.23 26.82 47.27 17.58 47.27 17.58 44.85 27.75 44.85"/></svg>
