<?xml version="1.0" encoding="iso-8859-1"?>
<!-- Generator: Adobe Illustrator 24.0.2, SVG Export Plug-In . SVG Version: 6.00 Build 0)  -->
<svg version="1.1" id="Layer_1" xmlns="http://www.w3.org/2000/svg" xmlns:xlink="http://www.w3.org/1999/xlink" x="0px" y="0px"
	 width="120px" height="97px" viewBox="0 0 50 38" enable-background="new 0 0 50 38" xml:space="preserve">
<g>
	<path fill="#FFFFFF" d="M7.534,24.309h6.09c0.74,0,1.433-0.364,1.852-0.974l3.733-5.421l3.635-5.28l-3.635-5.28l-3.733-5.421
		c-0.42-0.61-1.112-0.974-1.852-0.974h-6.09l8.038,11.675L7.534,24.309z"/>
	<path fill="#FFFFFF" d="M25.596,1.933l15.407,22.376h-6.09c-0.74,0-1.433-0.364-1.852-0.973L17.653,0.959h6.09
		C24.483,0.959,25.176,1.324,25.596,1.933"/>
	<path fill="#FFFFFF" d="M41.003,0.959h-6.09c-0.74,0-1.432,0.364-1.852,0.974l-2.815,4.089l3.636,5.28L41.003,0.959z"/>
	<path fill="#FFFFFF" d="M17.654,24.309h6.09c0.74,0,1.433-0.364,1.853-0.974l2.815-4.089l-3.636-5.28L17.654,24.309z"/>
</g>
<g>
	<path fill="#1B8A51" d="M9.793,36.715c-0.526-0.272-0.931-0.79-1.213-1.552c-0.282-0.763-0.422-1.855-0.422-3.278
		c0-1.368,0.146-2.431,0.437-3.188s0.705-1.282,1.241-1.573c0.536-0.291,1.224-0.437,2.065-0.437c0.628,0,1.22,0.048,1.774,0.146
		c0.555,0.097,1.03,0.21,1.428,0.339v1.595c-0.277-0.064-0.67-0.12-1.178-0.166c-0.508-0.047-1.04-0.069-1.594-0.069
		c-0.555,0-0.98,0.085-1.275,0.256c-0.296,0.171-0.511,0.494-0.645,0.971c-0.134,0.476-0.201,1.189-0.201,2.142
		c0,0.942,0.06,1.649,0.18,2.121c0.12,0.471,0.328,0.799,0.624,0.983c0.295,0.186,0.734,0.277,1.317,0.277
		c1.127,0,2.051-0.046,2.772-0.139v1.581c-0.822,0.268-1.899,0.401-3.229,0.401C11.014,37.124,10.32,36.988,9.793,36.715z"/>
	<path fill="#1B8A51" d="M16.544,26.783h2.051v10.258h-2.051V26.783z"/>
	<path fill="#1B8A51" d="M29.131,37.041l-0.79-6.709l-1.788,6.709h-1.927l-1.788-6.626l-0.762,6.626h-1.982l1.192-10.258h1.968
		l2.356,7.859l2.343-7.859h1.954l1.206,10.258H29.131z"/>
	<path fill="#1B8A51" d="M35.174,26.783h2.593l3.216,10.258h-2.135l-0.651-2.148h-3.493l-0.638,2.148h-2.106L35.174,26.783z
		 M37.711,33.049l-1.262-4.505l-1.261,4.505H37.711z"/>
</g>
</svg>
