<?xml version="1.0" encoding="UTF-8"?>
<svg width="120px" height="97px" viewBox="0 0 120 97" version="1.1" xmlns="http://www.w3.org/2000/svg" xmlns:xlink="http://www.w3.org/1999/xlink">
    <!-- Generator: Sketch 54.1 (76490) - https://sketchapp.com -->
    <title>BO_Brand_logo</title>
    <desc>Created with Sketch.</desc>
    <g id="BO_Brand_logo" stroke="none" stroke-width="1" fill="none" fill-rule="evenodd">
        <g id="Group" transform="translate(1.000000, 7.000000)" fill-rule="nonzero">
            <path d="M89.8670732,3.46862069 L35.6187317,82.7153796 L57.053,82.7153793 C59.6488337,82.7161238 62.0818752,81.4425921 63.5717805,79.3032414 L117.798537,1.27897692e-13 L96.3858537,1.27897692e-13 C93.7842472,0.00676984804 91.3501403,1.29275644 89.8670732,3.444 L89.8670732,3.46862069 Z M2.91322522e-13,82.7081407 L21.4342683,82.7081379 C24.0287206,82.7102924 26.4613915,81.4396571 27.9530488,79.3032414 L41.0942195,60.0788276 L53.9000976,41.3671034 L41.1014146,22.6611724 L27.9775122,3.43675862 C26.4994285,1.29726657 24.079528,0.0152475216 21.4903902,1.27897692e-13 L2.91322522e-13,1.27897692e-13 L28.3027317,41.3656552 L2.91322522e-13,82.7081407 Z" id="Shape" fill="#003552"></path>
            <path d="M63.5948049,3.46137931 L117.805732,82.7631793 L96.3714634,82.7631724 C93.7673517,82.7666167 91.3288196,81.4782922 89.8526829,79.3191724 L35.6417561,1.17239551e-13 L57.0760244,1.17239551e-13 C59.6776308,0.00676984804 62.1117377,1.29275644 63.5948049,3.444" id="Path" fill="#168D50"></path>
        </g>
    </g>
</svg>