<?xml version="1.0" encoding="UTF-8"?>
<svg width="120px" height="97px" viewBox="0 0 120 97" version="1.1" xmlns="http://www.w3.org/2000/svg" xmlns:xlink="http://www.w3.org/1999/xlink">
    <!-- Generator: Sketch 53.2 (72643) - https://sketchapp.com -->
    <title>BO_Brand_logo</title>
    <desc>Created with Sketch.</desc>
    <g id="BO_Brand_logo" stroke="none" stroke-width="1" fill="none" fill-rule="evenodd">
        <g id="512X512_X" transform="translate(2.000000, 1.000000)" fill-rule="nonzero" stroke-width="0.5">
            <path d="M95.433248,0.464777778 C97.9886024,1.09257971 100.441407,1.77646377 102.809547,2.76164734 C106.413937,4.26110628 109.32878,6.80205797 111.876663,9.73921739 C112.227323,10.143599 112.494675,10.8499614 112.704754,11.8601208 C111.270876,10.8835652 110.385512,10.2534928 109.499469,9.88157971 C106.662953,8.6911401 103.218612,8.18435749 100.242648,8.50155072 C96.1452067,8.93817391 92.0067913,9.98942995 88.154065,11.476401 C83.4075984,13.3082657 78.9259941,15.8365024 74.3538386,18.1118019 C72.9213189,18.8247488 71.565315,19.6927729 69.8385039,20.6820435 C71.7631693,22.2198744 73.485,23.5785604 75.1882677,24.9604058 C78.4637303,27.6178357 81.7736024,30.2353043 84.9739075,32.981058 C86.1340945,33.9764589 86.6522736,34.5690676 87.8957677,32.8430097 C91.3561811,28.0403816 94.6440945,23.1616908 96.741939,17.5986618 C97.4706496,15.6659855 97.7599606,13.5666522 98.3288484,11.2171063 C99.4184055,11.0611208 100.529921,11.0270628 101.757795,11.0797391 C103.037283,11.134686 104.396004,11.1124348 105.665531,11.2418551 C110.6506,11.75 112.862539,17.6263623 111.662736,21.3602512 C110.83623,25.1014058 109.472982,29.0321498 107.688898,32.5149179 C105.754272,36.2912657 103.154547,39.7615459 100.571348,43.1559903 C98.3494488,46.0752126 98.2009449,46.4923092 100.508642,48.9322222 C106.042677,54.7831546 110.478327,61.4360386 113.303524,68.9444589 C115.249469,74.1162754 116.007156,79.6143671 112.908268,84.8740531 C110.409281,89.1158599 106.572402,91.3795797 101.991417,92.5611643 C100.104557,93.0479662 98.1604232,93.329058 96.2303248,93.624 C95.1769882,93.7849807 94.0982972,93.7793043 93.0311516,93.8490097 C92.6666831,93.6571498 93.3750197,92.6522126 93.6713484,92.6313237 C99.413878,92.2280773 101.863514,85.6846329 100.96502,81.0911208 C99.9393012,75.8475556 97.7312106,71.3484976 94.9487992,66.8735072 C89.3027067,57.7931981 81.9499508,50.2475411 74.2614764,43.0267971 C68.9644587,38.0522899 63.1866142,33.5927391 57.3983563,28.7133671 C51.8217618,33.5053237 46.326437,38.0116473 41.0864665,42.7992899 C36.9718209,46.5588357 32.9531594,50.4727778 29.2899114,54.6678116 C24.7084744,59.9141014 20.3534154,65.3479372 17.1728051,71.6802222 C15.3194488,75.3698357 14.2353248,79.160715 13.6553445,83.1591208 C13.1147539,86.8855169 16.9181299,91.9365411 20.6411417,92.5954493 C21.1301181,92.6819565 21.6095866,92.8234106 22.0935827,92.9392077 C22.2289567,93.0797536 22.3217717,93.2659372 22.0888287,93.4752802 C21.6349409,93.7130048 20.8788386,93.8574106 20.2936516,93.8085942 C14.0082677,93.2861449 7.95175197,92.1608696 3.56681102,86.9602174 C1.60049213,84.6281546 0.459547244,81.9857101 0.256259843,78.8898406 C-0.139675197,72.8588551 1.65278543,67.4418213 4.87391732,62.4968309 C8.50366142,56.9247198 12.3452953,51.4913382 16.3041929,45.6908116 C16.0343504,45.3581787 15.755,45.0151014 15.4681791,44.662942 C14.1841634,43.0871932 12.7496063,41.3336618 11.3462894,39.5553816 C10.8939862,38.9822995 10.4228937,38.4666618 10.0317126,37.8497585 C9.47776575,36.976285 7.00481299,32.7367488 5.28501969,28.3777826 C3.87694882,24.8085072 3.38774606,20.8568744 3.20754921,19.812657 C2.42563976,15.2795411 5.37579724,11.5567778 9.96787402,11.275686 C11.9029528,11.1571643 13.8606693,11.1535314 15.787372,11.3279082 C16.307815,11.3749082 17.1087402,12.2202271 17.175748,12.7731014 C17.7430512,17.4458551 19.6865059,21.564372 22.1307087,25.4676425 C24.0236811,28.490401 26.0868898,31.4059903 28.1270079,34.4475942 C33.7586122,29.8415942 39.319813,25.2928116 44.9760925,20.6666039 C36.5754331,15.522715 27.909685,10.9664396 18.2227461,8.92409662 C14.004872,8.03472947 9.5717126,7.52499517 5.44325787,9.69403382 C4.55472441,10.1608551 3.78141732,10.8481449 2.9551378,11.433715 C2.80935039,11.5011498 2.51234252,11.5197681 2.49423228,11.1449034 C3.40200787,9.87567633 4.13320866,8.41504348 5.25264764,7.37491304 C8.04479331,4.78060386 11.266378,2.81114493 14.9586024,1.7283285 C15.8340059,1.4715314 19.8293504,1.00243961 23.361752,0.831241546 C26.1842323,0.694555556 28.7642618,0.826927536 28.8287795,0.829425121 C35.0661713,1.08145411 40.5719094,3.82902415 46.155748,6.14791787 C49.6897343,7.61558937 52.9199213,9.80824155 56.3504528,11.5483768 C57.0035531,11.8796473 58.0949213,11.8987198 58.7496063,11.5788019 C62.8452362,9.57710145 66.8138681,7.3067971 70.9463976,5.39001449 C73.7917421,4.07015459 76.811624,3.11017391 79.7959646,2.11681643 C81.7985039,1.45041546 83.8748425,1.00720773 85.9181299,0.464096618 C87.4434646,0.173695652 89.055502,0 90.636752,0 C92.2275098,0 93.4834547,0.173695652 95.433248,0.464777778 Z" id="Path" stroke="#555555" fill="#555555"></path>
            <path d="M72.5801673,71.6243671 C77.5253937,75.2708406 83.0236614,77.2827585 88.5133268,79.267657 C91.3996457,80.3114203 94.3975689,81.0438937 97.3429724,81.9244058 C99.2253051,82.4872705 98.9572736,84.0262367 98.6118209,85.3038647 C97.770374,88.4140386 95.2141142,90.4266377 91.068002,90.4865797 C84.0885433,90.5873913 77.6505807,88.4371981 71.4765748,85.3669855 C68.3036614,83.7891932 65.1527067,82.1668986 61.9908858,80.566628 C61.689124,80.4138213 61.3384646,80.3021111 61.0878642,80.1193333 C57.9860335,77.857657 55.9490846,78.8040145 53.3197047,80.2537488 C49.2227165,82.5124734 45.139311,84.8588406 40.8408465,86.6682271 C37.2031791,88.1994734 33.3183071,89.2564058 29.4486024,90.0760676 C26.8697047,90.6223575 24.1029134,90.6489227 21.4613091,90.4227778 C18.7327756,90.1893671 16.0784941,86.3653382 16.4678642,83.6132271 C16.5593209,82.9661256 17.243435,82.0041014 17.8039469,81.8833092 C24.6425984,80.4115507 31.0436614,77.7886329 37.280374,74.6991208 C38.4251673,74.131942 39.6111614,73.6333333 40.7029823,72.9773768 C42.5626772,71.8605024 42.451752,71.4867729 40.7745177,70.1398937 C37.0555807,67.1534638 33.4609252,64.0117295 29.7687008,60.9910145 C28.5564469,59.9992464 28.6764272,59.0120193 29.5857874,58.040913 C32.7541732,54.6571401 35.9617224,51.3096957 39.1819488,47.9754203 C39.9378248,47.1929952 40.4496654,47.183913 41.4765157,48.0907633 C45.9726083,52.0607874 50.6894193,55.7787826 55.2876083,59.634599 C55.9608563,60.1990531 56.3393602,60.7478406 57.3913386,61.5488841 C61.5675591,58.224372 65.2353346,55.5633092 69.0382579,52.4086329 C70.6265256,51.0910435 71.9915846,49.5025797 73.4528543,48.0317295 C74.2302362,47.2490773 74.8204035,47.0061304 75.7610039,48.0399034 C79.0529921,51.6577681 82.4905413,55.1418986 85.8062992,58.7386473 C86.0532776,59.00657 85.9864961,60.0049227 85.7044291,60.2569517 C82.2714075,63.3228502 78.7716043,66.3135942 75.2865157,69.320686 C74.4194882,70.0688261 73.5425,70.8058406 72.5801673,71.6243671 Z" id="Path" stroke="#A33431" fill="#A33431"></path>
        </g>
    </g>
</svg>