<?xml version="1.0" encoding="UTF-8"?>
<svg width="120px" height="97px" viewBox="0 0 120 97" version="1.1" xmlns="http://www.w3.org/2000/svg" xmlns:xlink="http://www.w3.org/1999/xlink">
    <!-- Generator: Sketch 53.2 (72643) - https://sketchapp.com -->
    <title>BO_Brand_logo</title>
    <desc>Created with Sketch.</desc>
    <g id="BO_Brand_logo" stroke="none" stroke-width="1" fill="none" fill-rule="evenodd">
        <g id="Group-7" transform="translate(20.000000, 1.000000)" fill-rule="nonzero">
            <path d="M12.0863431,77.7603708 C-2.88856189,62.0714971 -4.76171778,34.8793353 11.0676358,16.4851475 C29.9981301,-5.51267769 61.8551643,-4.71656766 79.8253545,14.2410116 L71.5470275,22.1555683 C69.0980541,20.4587009 66.7448982,18.6152058 64.194632,17.104209 C58.6180541,13.8005197 52.6782822,12.2451087 46.0358488,12.3108175 C35.9588906,12.4102932 27.9397271,16.487277 21.2325028,23.5120278 C15.3566092,29.6661378 12.2022366,37.1392899 12.1128069,45.7048498 C12.0026929,56.2279825 12.0863431,66.7529404 12.0863431,77.7603708 Z" id="Path" fill="#0C005A"></path>
            <path d="M35.3307537,92.2540149 L23.4575978,87.6185068 C23.4575978,78.2513611 23.5068754,69.2291864 23.4344799,60.2082285 C23.4037575,56.3694388 22.9921986,52.533387 22.9763811,48.6952058 C22.9483963,41.8879631 24.9456586,35.654455 29.6191187,30.6685003 C32.8057347,27.2689857 36.8093849,24.9661378 41.5692328,23.988112 C49.6787385,22.3216653 56.6858868,24.2734582 62.8206396,29.6999048 C62.9921986,29.8517042 63.0642898,30.1160602 63.1476358,30.2651217 L54.8814761,38.4266945 C54.5520465,38.2651605 53.9220845,38.0467398 53.3921986,37.6826039 C47.4046701,33.5666815 39.4016282,35.3493353 36.0252024,42.2305003 C34.4492328,45.4426233 35.2586624,46.7850893 38.9064191,46.7936071 C45.3465712,46.8091217 51.7870275,46.797866 58.5264951,46.797866 L58.5264951,58.8940537 C51.5491567,58.8940537 44.6131872,59.037031 37.6902974,58.8012705 C35.7724267,58.735866 35.2872556,58.9968757 35.3109818,60.8619696 C35.3909818,67.1776136 35.3344039,73.4950828 35.3316662,79.8119437 C35.329537,83.7118789 35.3307537,87.61151 35.3307537,92.2540149 Z" id="Path" fill="#FF0000"></path>
            <path d="M71.0980541,71.2126168 C73.7231491,73.740578 76.3911339,76.2064809 78.8842138,78.8384809 C79.2039096,79.1761508 78.894556,80.7269987 78.401172,81.1218595 C74.5961529,84.1678854 70.5252784,86.9982285 66.1264951,89.1200731 C64.8906016,89.7163191 63.6233773,90.2502026 62.3269514,90.7001249 C59.637978,91.6331281 56.8726548,92.2540149 54.104594,92.898934 C53.2051263,93.1085327 52.3038336,93.3126556 51.3943278,93.4754064 C50.5566092,93.6253806 49.6431491,93.7385456 48.7987385,93.8489728 C48.2636815,93.9189404 47.7121986,94.0007721 47.1734913,93.8949081 C46.1672556,93.6974776 45.9585864,92.5463579 45.9871796,91.6602026 C46.0927309,88.3890634 46.0163811,85.1118401 46.0163811,81.698332 C55.614556,81.3211152 64.0610959,78.2912123 71.0980541,71.2126168 Z" id="Path" fill="#0C005A"></path>
        </g>
    </g>
</svg>