<svg id="Слой_1" data-name="Слой 1" xmlns="http://www.w3.org/2000/svg" xmlns:xlink="http://www.w3.org/1999/xlink" viewBox="0 0 120 97"><defs><style>.cls-1{fill:url(#linear-gradient);}.cls-2{fill:url(#linear-gradient-2);}.cls-3{fill:url(#linear-gradient-3);}.cls-4{fill:url(#linear-gradient-4);}.cls-5{fill:url(#linear-gradient-5);}.cls-6{fill:url(#linear-gradient-6);}.cls-7{fill:url(#linear-gradient-7);}.cls-8{fill:url(#linear-gradient-8);}.cls-9{fill:url(#linear-gradient-9);}.cls-10{fill:none;clip-rule:evenodd;}.cls-11{fill:url(#Безымянный_градиент_26);}.cls-12{fill:url(#Безымянный_градиент_26-2);}.cls-13{fill:url(#Безымянный_градиент_26-3);}.cls-14{fill:url(#Безымянный_градиент_26-4);}.cls-15{fill:url(#Безымянный_градиент_26-5);}.cls-16{fill:url(#Безымянный_градиент_26-6);}.cls-17{fill:url(#Безымянный_градиент_26-7);}.cls-18{fill:url(#Безымянный_градиент_26-8);}.cls-19{fill:url(#Безымянный_градиент_26-9);}.cls-20{fill:url(#Безымянный_градиент_26-10);}.cls-21{fill:url(#Безымянный_градиент_26-11);}.cls-22{clip-path:url(#clip-path);}.cls-23{fill:url(#linear-gradient-10);}.cls-24{mask:url(#mask);}.cls-25{fill:#f9fcba;}.cls-25,.cls-27,.cls-31,.cls-35,.cls-37{fill-rule:evenodd;}.cls-26{mask:url(#mask-2);}.cls-27,.cls-31{fill:#cc0680;}.cls-28{mask:url(#mask-3);}.cls-29{mask:url(#mask-4);}.cls-30{mask:url(#mask-5);}.cls-31{opacity:0.3;}.cls-32{clip-path:url(#clip-path-2);}.cls-33{fill:url(#linear-gradient-11);}.cls-34{mask:url(#mask-6);}.cls-35{fill:#ffc2ff;}.cls-36{mask:url(#mask-7);}.cls-37{fill:#3702c9;}.cls-38{clip-path:url(#clip-path-3);}.cls-39{fill:url(#linear-gradient-12);}.cls-40{mask:url(#mask-8);}.cls-41{mask:url(#mask-9);}</style><linearGradient id="linear-gradient" x1="-393.49" y1="363.49" x2="-403.56" y2="380.94" gradientTransform="translate(416.88 -328.83)" gradientUnits="userSpaceOnUse"><stop offset="0" stop-color="#fff"/><stop offset="1"/></linearGradient><linearGradient id="linear-gradient-2" x1="-387.03" y1="374.52" x2="-378.93" y2="360.49" gradientTransform="translate(391.21 -310.6)" xlink:href="#linear-gradient"/><linearGradient id="linear-gradient-3" x1="-390.88" y1="377.97" x2="-375.21" y2="362.3" gradientTransform="translate(391.21 -316.34)" xlink:href="#linear-gradient"/><linearGradient id="linear-gradient-4" x1="-362.56" y1="338.33" x2="-390.57" y2="366.35" gradientTransform="translate(398.96 -310.6)" xlink:href="#linear-gradient"/><linearGradient id="linear-gradient-5" x1="-380.2" y1="367" x2="-385.75" y2="365.51" gradientTransform="translate(391.21 -310.6)" xlink:href="#linear-gradient"/><linearGradient id="linear-gradient-6" x1="-358.57" y1="384.46" x2="-363.2" y2="401.77" gradientTransform="translate(367.38 -353.66)" xlink:href="#linear-gradient"/><linearGradient id="linear-gradient-7" x1="-363.32" y1="379.63" x2="-367.21" y2="365.12" gradientTransform="translate(367.38 -320.92)" xlink:href="#linear-gradient"/><linearGradient id="linear-gradient-8" x1="-388.12" y1="384.15" x2="-369.94" y2="352.66" gradientTransform="translate(387.84 -311.74)" xlink:href="#linear-gradient"/><linearGradient id="linear-gradient-9" x1="-339.97" y1="313.8" x2="-372.44" y2="370.02" gradientTransform="translate(377.88 -310.6)" xlink:href="#linear-gradient"/><linearGradient id="Безымянный_градиент_26" x1="23.91" y1="54.62" x2="24.22" y2="41.87" gradientUnits="userSpaceOnUse"><stop offset="0" stop-color="#4a0072"/><stop offset="1" stop-color="#a700f8"/></linearGradient><linearGradient id="Безымянный_градиент_26-2" x1="30.57" y1="54.79" x2="30.88" y2="42.04" xlink:href="#Безымянный_градиент_26"/><linearGradient id="Безымянный_градиент_26-3" x1="38.51" y1="54.98" x2="38.82" y2="42.23" xlink:href="#Безымянный_градиент_26"/><linearGradient id="Безымянный_градиент_26-4" x1="49.87" y1="55.26" x2="50.19" y2="42.51" xlink:href="#Безымянный_градиент_26"/><linearGradient id="Безымянный_градиент_26-5" x1="60.99" y1="55.53" x2="61.3" y2="42.78" xlink:href="#Безымянный_градиент_26"/><linearGradient id="Безымянный_градиент_26-6" x1="71.47" y1="55.79" x2="71.78" y2="43.04" xlink:href="#Безымянный_градиент_26"/><linearGradient id="Безымянный_градиент_26-7" x1="82.12" y1="56.05" x2="82.43" y2="43.3" xlink:href="#Безымянный_градиент_26"/><linearGradient id="Безымянный_градиент_26-8" x1="89.39" y1="56.23" x2="89.7" y2="43.48" xlink:href="#Безымянный_градиент_26"/><linearGradient id="Безымянный_градиент_26-9" x1="96.21" y1="56.4" x2="96.52" y2="43.65" xlink:href="#Безымянный_градиент_26"/><linearGradient id="Безымянный_градиент_26-10" x1="105.98" y1="56.64" x2="106.29" y2="43.89" xlink:href="#Безымянный_градиент_26"/><linearGradient id="Безымянный_градиент_26-11" x1="115.99" y1="56.88" x2="116.3" y2="44.13" xlink:href="#Безымянный_градиент_26"/><clipPath id="clip-path"><path class="cls-10" d="M17,44.13v9.66L8.47,58.7a11.91,11.91,0,0,1-2.09-6.52l2.09,1.21,3.9-2.25V47.52c.92-.72,2.77-2.14,4.6-3.39"/></clipPath><linearGradient id="linear-gradient-10" x1="13.56" y1="58.44" x2="9.87" y2="44.69" gradientUnits="userSpaceOnUse"><stop offset="0" stop-color="#ff057e"/><stop offset="1" stop-color="#fadf44"/></linearGradient><mask id="mask" x="13.29" y="44.13" width="3.68" height="9.67" maskUnits="userSpaceOnUse"><rect class="cls-1" x="13.29" y="44.13" width="3.68" height="9.67"/></mask><mask id="mask-2" x="6.38" y="51.14" width="5.98" height="7.56" maskUnits="userSpaceOnUse"><rect class="cls-2" x="6.38" y="51.14" width="5.98" height="7.56"/></mask><mask id="mask-3" x="6.38" y="46.45" width="7.55" height="10.71" maskUnits="userSpaceOnUse"><rect class="cls-3" x="6.38" y="46.45" width="7.55" height="10.71"/></mask><mask id="mask-4" x="8.47" y="44.13" width="8.5" height="14.57" maskUnits="userSpaceOnUse"><rect class="cls-4" x="8.47" y="44.13" width="8.5" height="14.57"/></mask><mask id="mask-5" x="6.38" y="52.18" width="2.09" height="6.52" maskUnits="userSpaceOnUse"><rect class="cls-5" x="6.38" y="52.18" width="2.09" height="6.52"/></mask><clipPath id="clip-path-2"><path class="cls-10" d="M8.47,39.07l2.6,1.5c-.37.1-7.29.86-9.08,7a9.79,9.79,0,0,0,1.66,8.4L0,53.79V44Z"/></clipPath><linearGradient id="linear-gradient-11" x1="5.52" y1="57.82" x2="5.52" y2="33.83" gradientUnits="userSpaceOnUse"><stop offset="0" stop-color="#0049e7"/><stop offset="0.49" stop-color="#9d15f8"/><stop offset="1" stop-color="#ff4cf9"/></linearGradient><mask id="mask-6" x="-0.03" y="39.07" width="11.1" height="8.04" maskUnits="userSpaceOnUse"><rect class="cls-6" x="-0.03" y="39.07" width="11.1" height="8.04"/></mask><mask id="mask-7" x="-0.03" y="44.7" width="3.69" height="11.22" maskUnits="userSpaceOnUse"><rect class="cls-7" x="-0.03" y="44.7" width="3.69" height="11.22"/></mask><clipPath id="clip-path-3"><path class="cls-10" d="M11.75,48s5.07-2.54,7.46-5.31a18.58,18.58,0,0,0-7-1.8L12.08,42C.89,42.59,0,53.79,8.47,58.7,6.55,56.37,3.76,47.1,11.65,46c0,.67.06,1.34.1,2"/></clipPath><linearGradient id="linear-gradient-12" x1="9.59" y1="60.7" x2="9.59" y2="35.36" xlink:href="#linear-gradient-11"/><mask id="mask-8" x="5.48" y="42.7" width="13.73" height="15.7" maskUnits="userSpaceOnUse"><rect class="cls-8" x="5.48" y="42.7" width="13.73" height="15.7"/></mask><mask id="mask-9" x="2.79" y="40.9" width="16.42" height="17.8" maskUnits="userSpaceOnUse"><rect class="cls-9" x="2.79" y="40.9" width="16.42" height="17.8"/></mask></defs><title>Finocapital-Logo-120x97Монтажная область 1</title><path class="cls-11" d="M23.49,45.85v1.66h4V50h-4V53H20.24V43.4h7.83v2.45Z"/><path class="cls-12" d="M29.11,43.4h3.24V53H29.11Z"/><path class="cls-13" d="M43.42,43.4V53H40.75l-3.66-4.38V53H33.92V43.4H36.6l3.66,4.38V43.4Z"/><path class="cls-14" d="M47.25,52.61a4.93,4.93,0,0,1-1.94-1.79,4.95,4.95,0,0,1,1.94-7,6.33,6.33,0,0,1,5.59,0,4.83,4.83,0,0,1,2.64,4.39,4.8,4.8,0,0,1-2.64,4.39,6.33,6.33,0,0,1-5.59,0Zm3.89-2.27a2.11,2.11,0,0,0,.78-.84,2.75,2.75,0,0,0,.29-1.28A2.7,2.7,0,0,0,51.92,47a2.11,2.11,0,0,0-.78-.84,2.15,2.15,0,0,0-2.19,0,2.26,2.26,0,0,0-.78.84,2.7,2.7,0,0,0-.29,1.27,2.75,2.75,0,0,0,.29,1.28,2.26,2.26,0,0,0,.78.84,2.21,2.21,0,0,0,2.19,0Z"/><path class="cls-15" d="M58.9,52.62A4.74,4.74,0,0,1,57,50.83a4.86,4.86,0,0,1-.7-2.61,4.91,4.91,0,0,1,.7-2.61,4.81,4.81,0,0,1,1.92-1.79,5.93,5.93,0,0,1,2.75-.64,6.08,6.08,0,0,1,2.51.5A4.74,4.74,0,0,1,66,45.11l-2.06,1.83a2.62,2.62,0,0,0-2.1-1.13,2.14,2.14,0,0,0-1.64.66,2.44,2.44,0,0,0-.62,1.75A2.47,2.47,0,0,0,60.18,50a2.17,2.17,0,0,0,1.64.65,2.59,2.59,0,0,0,2.1-1.13L66,51.33a4.67,4.67,0,0,1-1.82,1.44,6.08,6.08,0,0,1-2.51.49A5.81,5.81,0,0,1,58.9,52.62Z"/><path class="cls-16" d="M73.34,51.36H69.68L69,53h-3.3l4.21-9.64h3.19L77.35,53H74ZM72.45,49l-.94-2.42L70.57,49Z"/><path class="cls-17" d="M84.84,43.84A3.59,3.59,0,0,1,86.37,49a3.42,3.42,0,0,1-1.53,1.26,5.6,5.6,0,0,1-2.33.44H81.12V53H77.87V43.4h4.64A5.76,5.76,0,0,1,84.84,43.84Zm-1.54,4a1.06,1.06,0,0,0,.33-.83,1,1,0,0,0-.33-.83,1.48,1.48,0,0,0-1-.3H81.12v2.26H82.3A1.48,1.48,0,0,0,83.3,47.87Z"/><path class="cls-18" d="M88,43.4h3.25V53H88Z"/><path class="cls-19" d="M94.87,45.92H92.05V43.4H101v2.52H98.12V53H94.87Z"/><path class="cls-20" d="M107.87,51.36h-3.66L103.56,53h-3.3l4.21-9.64h3.19L111.88,53h-3.36ZM107,49,106,46.6,105.1,49Z"/><path class="cls-21" d="M112.4,43.4h3.25v7.12H120V53h-7.6Z"/><g class="cls-22"><rect class="cls-23" x="6.38" y="44.13" width="10.59" height="14.57"/></g><g class="cls-24"><path class="cls-25" d="M17,44.13v9.66l-3.68-7c1-.76,2.34-1.77,3.68-2.68"/></g><g class="cls-26"><path class="cls-27" d="M8.47,58.7a11.91,11.91,0,0,1-2.09-6.52l2.09,1.21,3.9-2.25Z"/></g><g class="cls-28"><path class="cls-27" d="M7.55,57.16a13,13,0,0,1-1.17-5l2.09,1.21,3.9-2.25V47.52c.35-.27.83-.65,1.39-1.07l.17,5.18Z"/></g><g class="cls-29"><path class="cls-25" d="M17,44.13v9.66L8.47,58.7c0-.17,6.57-6.35,6.57-6.35L15,45.54c.63-.46,1.31-.95,2-1.41"/></g><g class="cls-30"><path class="cls-27" d="M8.47,58.7a11.91,11.91,0,0,1-2.09-6.52l2.09,1.21a9,9,0,0,0,0,5.31"/></g><path class="cls-31" d="M17,44.13v1.8c-1,.71-2,1.36-3,2-.51.29-1,.59-1.55.85V47.52c.92-.72,2.77-2.14,4.6-3.39"/><g class="cls-32"><rect class="cls-33" x="-0.03" y="39.07" width="11.1" height="16.85"/></g><g class="cls-34"><path class="cls-35" d="M8.47,39.07l2.6,1.5s-.38,0-1,.2l-.68.17C7,41.58,2.6,43.23,0,47.11V44Z"/></g><g class="cls-36"><path class="cls-37" d="M3.41,44.7A8.59,8.59,0,0,0,2,47.52a9.79,9.79,0,0,0,1.66,8.4L0,53.79A14.77,14.77,0,0,1,3.41,44.7"/></g><g class="cls-38"><rect class="cls-39" x="-0.03" y="40.9" width="19.24" height="17.8"/></g><g class="cls-40"><path class="cls-37" d="M11.75,48s5.07-2.54,7.46-5.31c-3.45.19-8.55,1.21-11.42,3.66s-3.47,6.7.45,12C6.35,55.65,4.07,47.06,11.65,46c0,.67.06,1.34.1,2"/></g><g class="cls-41"><path class="cls-35" d="M19.21,42.7a18.58,18.58,0,0,0-7-1.8L12.08,42C.89,42.59,0,53.79,8.47,58.7c-4.85-4-5.63-11.79,1.63-14.65a17.2,17.2,0,0,0-4.76,2c4.29-3.87,11-3.67,13.87-3.38"/></g></svg>