<svg id="Layer_1" data-name="Layer 1" xmlns="http://www.w3.org/2000/svg" xmlns:xlink="http://www.w3.org/1999/xlink" viewBox="0 0 116.92 31.6"><defs><style>.cls-1{fill:none;}.cls-2{clip-path:url(#clip-path);}.cls-3{clip-path:url(#clip-path-2);}.cls-4{fill:#053552;}.cls-5{fill:#148950;}</style><clipPath id="clip-path" transform="translate(-1.54 -32.7)"><rect class="cls-1" x="1.54" y="32.7" width="116.92" height="31.6"/></clipPath><clipPath id="clip-path-2" transform="translate(-1.54 -32.7)"><rect class="cls-1" x="1.54" y="32.7" width="116.92" height="31.6"/></clipPath></defs><title>120x97-everfx-logo-horizontal</title><g id="Artwork_10" data-name="Artwork 10"><g class="cls-2"><g class="cls-3"><path class="cls-4" d="M35.21,34,14.89,63.49h8a3,3,0,0,0,2.44-1.28L45.68,32.7h-8A3,3,0,0,0,35.21,34" transform="translate(-1.54 -32.7)"/><path class="cls-4" d="M1.54,63.49h8A3,3,0,0,0,12,62.21l4.93-7.15,4.79-7-4.79-7L12,34A3,3,0,0,0,9.57,32.7h-8l10.6,15.4Z" transform="translate(-1.54 -32.7)"/><path class="cls-5" d="M25.36,34,45.68,63.49h-8a3,3,0,0,1-2.44-1.28L14.89,32.7h8A3,3,0,0,1,25.36,34" transform="translate(-1.54 -32.7)"/><path class="cls-4" d="M55,58.86h-.62a.73.73,0,0,0-.44.11.62.62,0,0,0-.17.4l-.07.46h1l-.06.49h-1l-.42,3a1,1,0,0,1-1,.92,7.78,7.78,0,0,1-.78-.05l.1-.46H52a.75.75,0,0,0,.43-.1.63.63,0,0,0,.18-.41L53,60.32h-.56l.06-.46.57,0,.08-.56a.94.94,0,0,1,1-.91,6.93,6.93,0,0,1,.92,0Z" transform="translate(-1.54 -32.7)"/><path class="cls-4" d="M56.57,59.75a1.37,1.37,0,0,1,1.12.39,1.66,1.66,0,0,1,.18,1.29,2.11,2.11,0,0,1-.51,1.26,1.64,1.64,0,0,1-1.18.37,1.37,1.37,0,0,1-1.12-.39,1.69,1.69,0,0,1-.19-1.28,2.11,2.11,0,0,1,.51-1.27,1.63,1.63,0,0,1,1.19-.37m0,.53a1,1,0,0,0-.73.24,1.65,1.65,0,0,0-.32.91,1.42,1.42,0,0,0,0,.88c.09.15.29.23.61.23a.92.92,0,0,0,.73-.25,1.72,1.72,0,0,0,.32-.9,1.42,1.42,0,0,0,0-.88c-.09-.16-.29-.23-.61-.23" transform="translate(-1.54 -32.7)"/><path class="cls-4" d="M60.92,59.75l-.15.59h-.18a1,1,0,0,0-.5.14c-.17.1-.42.26-.74.49l-.28,2h-.63l.45-3.15h.48l0,.72a2.19,2.19,0,0,1,1.42-.8Z" transform="translate(-1.54 -32.7)"/><path class="cls-4" d="M65,62.46l0,.42a3.68,3.68,0,0,1-1.3.18,1.28,1.28,0,0,1-1.11-.43,1.79,1.79,0,0,1-.19-1.31,1.94,1.94,0,0,1,.5-1.24,1.86,1.86,0,0,1,1.24-.33,1.41,1.41,0,0,1,1,.26.84.84,0,0,1,.19.76,1,1,0,0,1-.36.66,1.8,1.8,0,0,1-.87.25L63,61.77a.73.73,0,0,0,.19.61,1,1,0,0,0,.6.15A11.53,11.53,0,0,0,65,62.46m-1.91-1.15,1.05-.1a.76.76,0,0,0,.43-.12.56.56,0,0,0,.17-.37c0-.21,0-.33-.1-.38a1.38,1.38,0,0,0-.56-.07,1,1,0,0,0-.69.2,1.54,1.54,0,0,0-.3.84" transform="translate(-1.54 -32.7)"/><path class="cls-4" d="M68.33,59.83H69a8.21,8.21,0,0,1-.56,1.81,4.93,4.93,0,0,1-.52,1,.93.93,0,0,1-.28.28.7.7,0,0,1-.39.09h-.54a.19.19,0,0,1-.2-.17l-.61-3h.65L67,62.49h.1a.4.4,0,0,0,.2,0,.45.45,0,0,0,.16-.15,4.34,4.34,0,0,0,.46-.91,7.37,7.37,0,0,0,.43-1.56" transform="translate(-1.54 -32.7)"/><path class="cls-4" d="M71.91,62.46l0,.42a3.65,3.65,0,0,1-1.29.18,1.29,1.29,0,0,1-1.12-.43,1.79,1.79,0,0,1-.19-1.31,2,2,0,0,1,.5-1.24,1.86,1.86,0,0,1,1.24-.33,1.41,1.41,0,0,1,1,.26.84.84,0,0,1,.19.76,1,1,0,0,1-.36.66,1.8,1.8,0,0,1-.87.25L70,61.77a.77.77,0,0,0,.19.61,1,1,0,0,0,.6.15,11.53,11.53,0,0,0,1.16-.07M70,61.31l1-.1a.76.76,0,0,0,.43-.12.62.62,0,0,0,.18-.37c0-.21,0-.33-.1-.38a1.47,1.47,0,0,0-.57-.07,1,1,0,0,0-.69.2,1.54,1.54,0,0,0-.3.84" transform="translate(-1.54 -32.7)"/><path class="cls-4" d="M75.21,59.75l-.15.59h-.17a1,1,0,0,0-.51.14c-.17.1-.42.26-.74.49l-.28,2h-.62l.44-3.15h.48l0,.72a2.17,2.17,0,0,1,1.42-.8Z" transform="translate(-1.54 -32.7)"/><path class="cls-4" d="M77.89,59.83h.65a10.37,10.37,0,0,1-.91,2.6,4.27,4.27,0,0,1-1,1.35,2.53,2.53,0,0,1-1.18.52l-.12-.44a2.85,2.85,0,0,0,.73-.29,2.35,2.35,0,0,0,.59-.59h-.29a.41.41,0,0,1-.25-.08.34.34,0,0,1-.13-.22l-.61-2.85H76l.48,2.55a.12.12,0,0,0,.13.11H77l.07-.13.06-.12a9.75,9.75,0,0,0,.8-2.41" transform="translate(-1.54 -32.7)"/><path class="cls-4" d="M81.38,60.32l-.25,1.76a.44.44,0,0,0,0,.31.43.43,0,0,0,.3.08H82L82,63a2.46,2.46,0,0,1-.73.09.74.74,0,0,1-.61-.24.85.85,0,0,1-.12-.66l.25-1.82h-.57l.06-.46.59,0,.13-.92h.61l-.13.92h1l-.06.49Z" transform="translate(-1.54 -32.7)"/><path class="cls-4" d="M85.1,59.75l-.16.59h-.17a1,1,0,0,0-.5.14c-.18.1-.42.26-.75.49l-.27,2h-.63l.45-3.15h.47l0,.72a2.19,2.19,0,0,1,1.42-.8Z" transform="translate(-1.54 -32.7)"/><path class="cls-4" d="M87.92,63h-.49l0-.58a1.74,1.74,0,0,1-1.36.66.79.79,0,0,1-.77-.38,2.34,2.34,0,0,1-.07-1.31,3.77,3.77,0,0,1,.2-.86A1.16,1.16,0,0,1,85.8,60a1.21,1.21,0,0,1,.44-.22,3,3,0,0,1,.58,0,6.79,6.79,0,0,1,1.54.17Zm-.47-1.14.23-1.56H87a3.3,3.3,0,0,0-.51,0,.57.57,0,0,0-.3.17.77.77,0,0,0-.2.34,4.78,4.78,0,0,0-.12.6,2.71,2.71,0,0,0,0,.9c0,.14.17.2.37.2a1.13,1.13,0,0,0,.58-.16,3.53,3.53,0,0,0,.64-.51" transform="translate(-1.54 -32.7)"/><path class="cls-4" d="M92.25,58.47,91.62,63h-.49l0-.66a1.92,1.92,0,0,1-1.42.74.73.73,0,0,1-.7-.39,2.21,2.21,0,0,1-.08-1.3,4.39,4.39,0,0,1,.2-.86,1.24,1.24,0,0,1,.33-.49,1.22,1.22,0,0,1,.42-.22,2.61,2.61,0,0,1,.54,0,7.47,7.47,0,0,1,1,.08,5.93,5.93,0,0,1,0-.6l.11-.76Zm-1.09,3.36.21-1.55-.68,0a2.08,2.08,0,0,0-.49,0,.55.55,0,0,0-.3.16.71.71,0,0,0-.19.34,5.45,5.45,0,0,0-.12.61,2.41,2.41,0,0,0,0,.89c0,.14.16.21.35.21a1.21,1.21,0,0,0,.57-.15,4,4,0,0,0,.67-.53" transform="translate(-1.54 -32.7)"/><path class="cls-4" d="M95.21,62.46l0,.42a3.61,3.61,0,0,1-1.29.18,1.29,1.29,0,0,1-1.12-.43,1.79,1.79,0,0,1-.19-1.31,2,2,0,0,1,.5-1.24,1.86,1.86,0,0,1,1.24-.33,1.41,1.41,0,0,1,1,.26.84.84,0,0,1,.19.76,1,1,0,0,1-.36.66,1.8,1.8,0,0,1-.87.25l-1.09.09a.77.77,0,0,0,.19.61,1,1,0,0,0,.6.15,11.37,11.37,0,0,0,1.16-.07M93.3,61.31l1-.1a.76.76,0,0,0,.43-.12.62.62,0,0,0,.18-.37c0-.21,0-.33-.1-.38a1.44,1.44,0,0,0-.57-.07,1,1,0,0,0-.69.2,1.54,1.54,0,0,0-.3.84" transform="translate(-1.54 -32.7)"/><path class="cls-4" d="M59.53,50.84h-5A3,3,0,0,0,55.46,53a4.09,4.09,0,0,0,2.36.53,39.32,39.32,0,0,0,4.36-.29l.27,1.93a12.07,12.07,0,0,1-5,.82q-3.3,0-4.69-1.47t-1.39-4.93q0-3.54,1.37-5c.9-.95,2.41-1.43,4.51-1.43a6.74,6.74,0,0,1,4.21,1.06,3.79,3.79,0,0,1,1.32,3.16c0,2.31-1.09,3.47-3.25,3.47m-5-2.11h4.17c.72,0,1.09-.47,1.09-1.41a1.68,1.68,0,0,0-.52-1.39,3.31,3.31,0,0,0-1.89-.4,2.89,2.89,0,0,0-2.19.66,4,4,0,0,0-.66,2.54" transform="translate(-1.54 -32.7)"/><path class="cls-4" d="M76,43.5,71.85,54.93a1,1,0,0,1-1,.72H68.21a.94.94,0,0,1-1-.72L63.05,43.5h3.17l2.53,8,.6,2.11h.32l.64-2.11,2.51-8Z" transform="translate(-1.54 -32.7)"/><path class="cls-4" d="M84,50.84H79A2.92,2.92,0,0,0,79.88,53a4.09,4.09,0,0,0,2.36.53,39.32,39.32,0,0,0,4.36-.29l.27,1.93a12.07,12.07,0,0,1-5,.82q-3.3,0-4.69-1.47t-1.39-4.93q0-3.54,1.37-5c.9-.95,2.41-1.43,4.51-1.43a6.74,6.74,0,0,1,4.21,1.06,3.79,3.79,0,0,1,1.32,3.16c0,2.31-1.09,3.47-3.25,3.47m-5-2.11h4.17c.72,0,1.09-.47,1.09-1.41a1.68,1.68,0,0,0-.52-1.39,3.31,3.31,0,0,0-1.89-.4,2.89,2.89,0,0,0-2.19.66,4,4,0,0,0-.66,2.54" transform="translate(-1.54 -32.7)"/><path class="cls-4" d="M96.67,43.15,96.34,46h-.86a12.33,12.33,0,0,0-4,1.09v8.58h-3V43.5h2.35l.27,1.79a8.08,8.08,0,0,1,5-2.14Z" transform="translate(-1.54 -32.7)"/><path class="cls-4" d="M106.48,40.18H104.1a2.1,2.1,0,0,0-1.42.38,1.79,1.79,0,0,0-.41,1.33V43.5h3.54v2.18h-3.54v10h-3v-10H97.09v-2l2.15-.13v-2a3.77,3.77,0,0,1,.9-2.72,3.83,3.83,0,0,1,2.9-1,23.07,23.07,0,0,1,3.69.23Z" transform="translate(-1.54 -32.7)"/><polygon class="cls-4" points="110.69 17.74 110.35 17.74 107.3 22.95 104.12 22.95 107.97 16.7 104.42 10.8 107.57 10.8 110.32 15.56 110.72 15.56 113.47 10.8 116.62 10.8 113.07 16.7 116.92 22.95 113.74 22.95 110.69 17.74"/></g></g></g></svg>