<svg id="Слой_1" data-name="Слой 1" xmlns="http://www.w3.org/2000/svg" xmlns:xlink="http://www.w3.org/1999/xlink" viewBox="0 0 120 97"><defs><style>.cls-1{fill:url(#linear-gradient);}.cls-2{fill:url(#linear-gradient-2);}.cls-3{fill:url(#linear-gradient-3);}.cls-4{fill:url(#linear-gradient-4);}.cls-5{fill:url(#linear-gradient-5);}.cls-6{fill:url(#linear-gradient-6);}.cls-7{fill:url(#linear-gradient-7);}.cls-8{fill:url(#linear-gradient-8);}.cls-9{fill:url(#linear-gradient-9);}.cls-10,.cls-11,.cls-12,.cls-13,.cls-14,.cls-15,.cls-16,.cls-17,.cls-18,.cls-19,.cls-20,.cls-21,.cls-22,.cls-23,.cls-24,.cls-25,.cls-26,.cls-27,.cls-28,.cls-29,.cls-30,.cls-31,.cls-32,.cls-33,.cls-34,.cls-35,.cls-36,.cls-37,.cls-38,.cls-39,.cls-40,.cls-41,.cls-42{fill-rule:evenodd;}.cls-10{fill:url(#linear-gradient-10);}.cls-11{fill:url(#linear-gradient-11);}.cls-12{fill:url(#linear-gradient-12);}.cls-13{fill:url(#linear-gradient-13);}.cls-14{fill:url(#linear-gradient-14);}.cls-15{fill:url(#linear-gradient-15);}.cls-16{fill:url(#linear-gradient-16);}.cls-17{fill:url(#linear-gradient-17);}.cls-18{fill:url(#linear-gradient-18);}.cls-19{fill:url(#linear-gradient-19);}.cls-20{fill:url(#linear-gradient-20);}.cls-21{fill:url(#linear-gradient-21);}.cls-22{fill:url(#linear-gradient-22);}.cls-23{fill:url(#linear-gradient-23);}.cls-24{fill:url(#linear-gradient-24);}.cls-25{fill:url(#linear-gradient-25);}.cls-26{fill:url(#linear-gradient-26);}.cls-27{fill:url(#linear-gradient-27);}.cls-28{fill:url(#linear-gradient-28);}.cls-29{fill:url(#linear-gradient-29);}.cls-30{fill:url(#linear-gradient-30);}.cls-31{fill:url(#linear-gradient-31);}.cls-32{fill:url(#linear-gradient-32);}.cls-33{fill:url(#linear-gradient-33);}.cls-34{fill:url(#linear-gradient-34);}.cls-35{fill:url(#linear-gradient-35);}.cls-36{fill:url(#linear-gradient-36);}.cls-37{fill:url(#linear-gradient-37);}.cls-38{fill:url(#linear-gradient-38);}.cls-39{fill:url(#linear-gradient-39);}.cls-40{fill:url(#linear-gradient-40);}.cls-41{fill:url(#linear-gradient-41);}.cls-42{fill:url(#linear-gradient-42);}</style><linearGradient id="linear-gradient" x1="46.75" y1="39.26" x2="40.31" y2="56.81" gradientUnits="userSpaceOnUse"><stop offset="0" stop-color="#274684"/><stop offset="1" stop-color="#071739"/></linearGradient><linearGradient id="linear-gradient-2" x1="59.17" y1="53.37" x2="66.46" y2="41.09" gradientUnits="userSpaceOnUse"><stop offset="0" stop-color="#004a38"/><stop offset="1" stop-color="#4ae901"/></linearGradient><linearGradient id="linear-gradient-3" x1="69.52" y1="59.51" x2="76.81" y2="47.23" xlink:href="#linear-gradient-2"/><linearGradient id="linear-gradient-4" x1="77.12" y1="64.03" x2="84.41" y2="51.75" xlink:href="#linear-gradient-2"/><linearGradient id="linear-gradient-5" x1="82.15" y1="67.01" x2="89.44" y2="54.74" xlink:href="#linear-gradient-2"/><linearGradient id="linear-gradient-6" x1="88.42" y1="70.74" x2="95.72" y2="58.46" xlink:href="#linear-gradient-2"/><linearGradient id="linear-gradient-7" x1="98.61" y1="76.79" x2="105.9" y2="64.51" xlink:href="#linear-gradient-2"/><linearGradient id="linear-gradient-8" x1="30.55" y1="35.37" x2="20.57" y2="56.86" xlink:href="#linear-gradient"/><linearGradient id="linear-gradient-9" x1="29.52" y1="34.89" x2="19.54" y2="56.38" xlink:href="#linear-gradient"/><linearGradient id="linear-gradient-10" x1="30.52" y1="35.36" x2="20.54" y2="56.85" xlink:href="#linear-gradient"/><linearGradient id="linear-gradient-11" x1="22.46" y1="31.62" x2="12.48" y2="53.1" xlink:href="#linear-gradient"/><linearGradient id="linear-gradient-12" x1="16.8" y1="28.99" x2="6.83" y2="50.48" xlink:href="#linear-gradient"/><linearGradient id="linear-gradient-13" x1="9.09" y1="49.2" x2="20.64" y2="33.93" xlink:href="#linear-gradient-2"/><linearGradient id="linear-gradient-14" x1="15.4" y1="53.97" x2="26.95" y2="38.7" xlink:href="#linear-gradient-2"/><linearGradient id="linear-gradient-15" x1="12.26" y1="51.59" x2="23.81" y2="36.32" xlink:href="#linear-gradient-2"/><linearGradient id="linear-gradient-16" x1="11.93" y1="51.34" x2="23.48" y2="36.07" xlink:href="#linear-gradient-2"/><linearGradient id="linear-gradient-17" x1="13.04" y1="52.19" x2="24.59" y2="36.91" xlink:href="#linear-gradient-2"/><linearGradient id="linear-gradient-18" x1="11.93" y1="51.35" x2="23.48" y2="36.08" xlink:href="#linear-gradient-2"/><linearGradient id="linear-gradient-19" x1="11.71" y1="51.18" x2="23.26" y2="35.9" xlink:href="#linear-gradient-2"/><linearGradient id="linear-gradient-20" x1="10.47" y1="50.24" x2="22.02" y2="34.97" xlink:href="#linear-gradient-2"/><linearGradient id="linear-gradient-21" x1="10.02" y1="49.9" x2="21.57" y2="34.63" xlink:href="#linear-gradient-2"/><linearGradient id="linear-gradient-22" x1="9.31" y1="49.36" x2="20.86" y2="34.09" xlink:href="#linear-gradient-2"/><linearGradient id="linear-gradient-23" x1="8.56" y1="48.8" x2="20.11" y2="33.53" xlink:href="#linear-gradient-2"/><linearGradient id="linear-gradient-24" x1="9.34" y1="49.39" x2="20.89" y2="34.12" xlink:href="#linear-gradient-2"/><linearGradient id="linear-gradient-25" x1="8.52" y1="48.77" x2="20.07" y2="33.5" xlink:href="#linear-gradient-2"/><linearGradient id="linear-gradient-26" x1="9.45" y1="49.47" x2="21" y2="34.2" xlink:href="#linear-gradient-2"/><linearGradient id="linear-gradient-27" x1="8.63" y1="48.85" x2="20.18" y2="33.58" xlink:href="#linear-gradient-2"/><linearGradient id="linear-gradient-28" x1="9.07" y1="49.19" x2="20.62" y2="33.91" xlink:href="#linear-gradient-2"/><linearGradient id="linear-gradient-29" x1="7.64" y1="48.1" x2="19.19" y2="32.83" xlink:href="#linear-gradient-2"/><linearGradient id="linear-gradient-30" x1="7.72" y1="48.16" x2="19.27" y2="32.89" xlink:href="#linear-gradient-2"/><linearGradient id="linear-gradient-31" x1="13.05" y1="52.19" x2="24.6" y2="36.92" xlink:href="#linear-gradient-2"/><linearGradient id="linear-gradient-32" x1="11.59" y1="51.09" x2="23.14" y2="35.81" xlink:href="#linear-gradient-2"/><linearGradient id="linear-gradient-33" x1="13.37" y1="52.43" x2="24.92" y2="37.16" xlink:href="#linear-gradient-2"/><linearGradient id="linear-gradient-34" x1="14.33" y1="53.16" x2="25.88" y2="37.89" xlink:href="#linear-gradient-2"/><linearGradient id="linear-gradient-35" x1="13.19" y1="52.3" x2="24.74" y2="37.02" xlink:href="#linear-gradient-2"/><linearGradient id="linear-gradient-36" x1="14.21" y1="53.07" x2="25.76" y2="37.8" xlink:href="#linear-gradient-2"/><linearGradient id="linear-gradient-37" x1="12.66" y1="51.89" x2="24.21" y2="36.62" xlink:href="#linear-gradient-2"/><linearGradient id="linear-gradient-38" x1="10.34" y1="50.15" x2="21.89" y2="34.87" xlink:href="#linear-gradient-2"/><linearGradient id="linear-gradient-39" x1="11.77" y1="51.23" x2="23.32" y2="35.95" xlink:href="#linear-gradient-2"/><linearGradient id="linear-gradient-40" x1="14.26" y1="53.1" x2="25.81" y2="37.83" xlink:href="#linear-gradient-2"/><linearGradient id="linear-gradient-41" x1="12.94" y1="52.11" x2="24.49" y2="36.84" xlink:href="#linear-gradient-2"/><linearGradient id="linear-gradient-42" x1="14.98" y1="53.65" x2="26.53" y2="38.38" xlink:href="#linear-gradient-2"/></defs><title>FXActive-Logo-120x97Монтажная область 1</title><polygon class="cls-1" points="58.52 36.38 49.58 36.38 45.55 40.36 43.73 36.38 35.34 36.38 39.85 45.76 29.46 55.82 38.54 55.82 42.78 51.61 44.67 55.82 53.14 55.82 48.44 46.19 58.52 36.38"/><path class="cls-2" d="M65.72,36.39H60.11L46.24,55.82h7.22l2.45-3.6h6l.52,3.6H69.2Zm-4.2,11h-2.3l1.84-2.76Z"/><path class="cls-3" d="M70.93,55.1a3.53,3.53,0,0,1-1.58-1.93,4.67,4.67,0,0,1,0-2.8,6.87,6.87,0,0,1,1.51-2.81,7.74,7.74,0,0,1,5.83-2.62,4.94,4.94,0,0,1,2.73.69,2.9,2.9,0,0,1,1.28,2L78,48.9a1.87,1.87,0,0,0-2-1.45,3.46,3.46,0,0,0-2.19.78,3.9,3.9,0,0,0-1.36,2.14,2.43,2.43,0,0,0,.21,2.13,2.05,2.05,0,0,0,1.77.79,3.48,3.48,0,0,0,2.76-1.45l2,1.29a6.13,6.13,0,0,1-2.34,2,7,7,0,0,1-3.1.71A5.36,5.36,0,0,1,70.93,55.1Z"/><path class="cls-4" d="M88,55.13a4.18,4.18,0,0,1-1.24.5,6.22,6.22,0,0,1-1.43.17,3.22,3.22,0,0,1-2.65-1A3.07,3.07,0,0,1,82.44,52l1.16-4.33H82l.63-2.35h1.63l.69-2.57h3l-.68,2.57h2.62l-.63,2.35H86.66L85.5,52a1.28,1.28,0,0,0,.07,1,1,1,0,0,0,.88.37,2.39,2.39,0,0,0,1.34-.4Z"/><path class="cls-5" d="M93.35,43.13a1.27,1.27,0,0,1-.2-1.21A2.19,2.19,0,0,1,94,40.7a2.44,2.44,0,0,1,1.51-.49,1.56,1.56,0,0,1,1.24.47A1.24,1.24,0,0,1,97,41.86a2.3,2.3,0,0,1-.87,1.26,2.47,2.47,0,0,1-1.51.5A1.5,1.5,0,0,1,93.35,43.13Zm-.68,2h3.06L92.9,55.64H89.84Z"/><path class="cls-6" d="M109.67,45.09l-7.28,10.55H99.24L97.63,45.09h3.16l1,7.18,4.94-7.18Z"/><path class="cls-7" d="M119.48,51.23h-8a1.82,1.82,0,0,0,.61,1.55,2.71,2.71,0,0,0,1.85.57,4.45,4.45,0,0,0,1.52-.25,5,5,0,0,0,1.4-.77L118,54.09a7,7,0,0,1-4.81,1.71,5.73,5.73,0,0,1-3-.7,3.48,3.48,0,0,1-1.6-1.93,4.76,4.76,0,0,1,0-2.8,7,7,0,0,1,1.48-2.8,7.65,7.65,0,0,1,2.54-1.94,7.12,7.12,0,0,1,3.06-.69,4.9,4.9,0,0,1,2.62.66,3.3,3.3,0,0,1,1.46,1.91,5.14,5.14,0,0,1-.06,2.9S119.66,50.72,119.48,51.23Zm-6.24-3.39a3.58,3.58,0,0,0-1.3,1.61h5.2a1.94,1.94,0,0,0-.44-1.6,2,2,0,0,0-1.56-.6A3.31,3.31,0,0,0,113.24,47.84Z"/><path class="cls-8" d="M21.89,55.85l1.64-6.14h7.8L32.87,44H27.42l-.58.1-.65.24L25,45s-.48-.17-.52-.2-1.82-1.07-1.92-1.07-.31.41-.31.41L19.5,46.78H17.8l-2.43,9.07Z"/><polygon class="cls-9" points="20.59 36.38 19.81 39.29 19.81 39.3 20.01 39.16 23 38.13 24.51 37.72 24.89 37.48 25.23 36.93 25.44 37.24 26.33 37.55 27.15 37.75 27.29 38.27 27.53 38.51 27.87 38.61 27.84 39.3 27.81 39.57 27.6 39.61 27.42 39.65 27.29 39.91 26.47 40.02 25.99 40.26 24.65 40.29 24.44 41.08 25.57 42.12 34.4 42.12 35.94 36.38 20.59 36.38"/><path class="cls-10" d="M31.41,42.84l.17,0a18.36,18.36,0,0,0-6.44.46,16.62,16.62,0,0,0-1.55-2.75c.9,1.92,1.11,3.13.63,3.65a18.27,18.27,0,0,1,3.58-1,29.85,29.85,0,0,1,3.61-.37"/><path class="cls-11" d="M6,51.26a10.78,10.78,0,0,0-4.68,3.37A14.52,14.52,0,0,0,4,52.86l2.26-1L10,51l3.12-3.51,3-.4L19.73,47l3-2.81c1.29.61,2.07,1,2.07,1,.44,0,1.15-.75,2.4-1.21a7,7,0,0,0-2.4.67s-2.82-1.5-3.06-1.62l.43.95-2.61,2.36-5.61.6.93-1.07-1.51.77L9.8,50.5,6,51.26"/><path class="cls-12" d="M6.86,49.84a1.46,1.46,0,0,0,.72-.12c.67-2.58,1-3.88,1-3.88l-1.72,4"/><path class="cls-13" d="M22.41,38.45c1.13-.31,1.78-.46,2.12-.57a2.31,2.31,0,0,0,.6.66,1.06,1.06,0,0,1,.12-1.2l1.82.57.24.72.47.25,0,.59-.34.18.45,0,.14-.54.16,0,.06-.49-.73-.42-.18-.5-1.63-.52-.45-.52a5.68,5.68,0,0,0-.7.92l-2.82.69-2.63,1c-1.45,2-2.32,3.06-2.21,3.05a15.28,15.28,0,0,1-3.12,1.31c-3.26-.35-4.77.41-6.65,2.33C2.84,49.11-1.39,47.69,1,45c-2,1-1.54,6.26,6.68,1.29.58-1.37,3.24-2.85,6.13-2a14.85,14.85,0,0,1,2.46-1,6.71,6.71,0,0,0-.59,1.44c2.35-3.2,3.57-4.82,3.57-4.82A13.4,13.4,0,0,1,22,38.73a8.49,8.49,0,0,1,1.1.42c-.23-.24-.56-.71-.65-.7"/><path class="cls-14" d="M24.34,40a2.8,2.8,0,0,1,.1,1.11l.33-.73,1.25,0,.45-.28,1.24-.18L24.34,40"/><path class="cls-15" d="M21,39.68a.3.3,0,0,1,.29.3.29.29,0,0,1-.58,0,.3.3,0,0,1,.29-.3"/><path class="cls-16" d="M19.08,41.6a.29.29,0,0,1,.29.29.3.3,0,1,1-.59,0,.29.29,0,0,1,.3-.29"/><path class="cls-17" d="M19.71,43.07a.3.3,0,1,1-.29.29.29.29,0,0,1,.29-.29"/><path class="cls-18" d="M18.19,42.78a.29.29,0,1,1-.29.29.29.29,0,0,1,.29-.29"/><path class="cls-19" d="M16.72,44.25a.3.3,0,0,1,.3.29.31.31,0,0,1-.3.3.3.3,0,0,1-.29-.3.29.29,0,0,1,.29-.29"/><path class="cls-20" d="M14.86,44.15a.3.3,0,0,1,0,.59.3.3,0,1,1,0-.59"/><path class="cls-21" d="M12.7,46.06a.3.3,0,0,1,0,.59.3.3,0,1,1,0-.59"/><path class="cls-22" d="M12.7,44.59a.3.3,0,0,1,0,.59.3.3,0,1,1,0-.59"/><path class="cls-23" d="M11.52,44.59a.3.3,0,1,1,0,.59.3.3,0,0,1,0-.59"/><path class="cls-24" d="M10.79,47.19a.3.3,0,1,1-.3.3.29.29,0,0,1,.3-.3"/><path class="cls-25" d="M8.82,48.07a.3.3,0,0,1,.3.3.3.3,0,0,1-.59,0,.3.3,0,0,1,.29-.3"/><path class="cls-26" d="M10,48.52a.29.29,0,1,1,0,.58.29.29,0,1,1,0-.58"/><path class="cls-27" d="M9.71,47.14a.3.3,0,1,1-.3.3.29.29,0,0,1,.3-.3"/><path class="cls-28" d="M11.33,45.92a.29.29,0,1,1-.3.29.29.29,0,0,1,.3-.29"/><path class="cls-29" d="M9.85,44.88a.3.3,0,0,1,.3.3.3.3,0,0,1-.59,0,.3.3,0,0,1,.29-.3"/><path class="cls-30" d="M9,46.21a.3.3,0,1,1-.29.29A.29.29,0,0,1,9,46.21"/><path class="cls-31" d="M20.65,41.84a.3.3,0,1,1-.3.3.29.29,0,0,1,.3-.3"/><path class="cls-32" d="M19.62,40.17a.3.3,0,0,1,.29.3.3.3,0,0,1-.59,0,.3.3,0,0,1,.3-.3"/><path class="cls-33" d="M22.41,40.17a.3.3,0,0,1,.3.3.3.3,0,0,1-.59,0,.3.3,0,0,1,.29-.3"/><path class="cls-34" d="M23,41.4A.3.3,0,1,1,23,42a.3.3,0,0,1,0-.59"/><path class="cls-35" d="M23.39,38.51a.29.29,0,0,1,.3.29.3.3,0,1,1-.59,0,.29.29,0,0,1,.29-.29"/><path class="cls-36" d="M24.52,39.14a.3.3,0,0,1,.3.3.3.3,0,0,1-.59,0,.3.3,0,0,1,.29-.3"/><path class="cls-37" d="M18.44,44a.3.3,0,0,1,0,.59.3.3,0,1,1,0-.59"/><path class="cls-38" d="M13.88,45.18a.3.3,0,0,1,0,.59.3.3,0,1,1,0-.59"/><path class="cls-39" d="M16.08,45.23a.3.3,0,1,1-.29.29.29.29,0,0,1,.29-.29"/><path class="cls-40" d="M22.22,42.28a.3.3,0,0,1,.29.3.3.3,0,0,1-.59,0,.3.3,0,0,1,.3-.3"/><path class="cls-41" d="M21.19,40.91a.3.3,0,1,1-.3.3.29.29,0,0,1,.3-.3"/><path class="cls-42" d="M26.31,38c.24.33.45.49.62.49l0-.4c0-.07-.08-.1-.19-.11l-.4,0"/></svg>