<svg xmlns="http://www.w3.org/2000/svg" width="120" height="97" baseProfile="basic"><defs/><switch><g><linearGradient id="a" x1="27.97" x2="27.97" y1="68.843" y2="15.284" gradientUnits="userSpaceOnUse"><stop offset="0" stop-color="#3da8e0"/><stop offset="1" stop-color="#026"/></linearGradient><path fill="url(#a)" d="M31.386 54.67c0 .171-.102.273-.273.273h-4.235v3.433h3.211c.171 0 .273.102.273.273v1.708c0 .188-.102.273-.273.273h-3.211v5.448c0 .171-.102.273-.273.273h-1.776c-.188 0-.273-.102-.273-.273V52.963c0-.171.085-.273.273-.273h6.285c.171 0 .273.102.273.273v1.707z"/><linearGradient id="b" x1="37.022" x2="37.022" y1="68.843" y2="15.284" gradientUnits="userSpaceOnUse"><stop offset="0" stop-color="#3da8e0"/><stop offset="1" stop-color="#026"/></linearGradient><path fill="url(#b)" d="M41.24 65.942c.12.239.017.41-.256.41h-1.759c-.188 0-.307-.068-.393-.239l-1.81-3.706-1.81 3.706c-.085.171-.205.239-.393.239H33.06c-.273 0-.376-.171-.256-.41l2.886-5.704-2.715-5.431c-.12-.222-.017-.41.256-.41h1.759c.188 0 .307.068.393.239l1.639 3.45 1.639-3.45c.085-.171.205-.239.393-.239h1.759c.273 0 .376.188.256.41l-2.698 5.431 2.869 5.704z"/><linearGradient id="c" x1="46.337" x2="46.337" y1="68.843" y2="15.284" gradientUnits="userSpaceOnUse"><stop offset="0" stop-color="#026"/><stop offset="1" stop-color="#3da8e0"/></linearGradient><path fill="url(#c)" d="M49.847 59.315c0 1.144-.427 1.896-1.247 2.254l1.178 4.474c.051.205-.051.307-.239.307h-1.776c-.171 0-.256-.085-.29-.239l-1.144-4.338H45.15v4.304c0 .171-.102.273-.273.273h-1.776c-.171 0-.273-.102-.273-.273V52.963c0-.171.102-.273.273-.273h4.286c1.605 0 2.459.854 2.459 2.459v4.166zm-3.006.205c.444 0 .683-.239.683-.683v-3.211c0-.444-.239-.683-.683-.683H45.15v4.577h1.691z"/><linearGradient id="d" x1="54.961" x2="54.961" y1="68.843" y2="15.284" gradientUnits="userSpaceOnUse"><stop offset="0" stop-color="#026"/><stop offset="1" stop-color="#3da8e0"/></linearGradient><path fill="url(#d)" d="M58.368 56.378c0 .171-.068.29-.273.29h-4.218v2.63h3.211c.171 0 .273.102.273.29v1.691c0 .188-.102.29-.273.29h-3.211v2.527h4.218c.205 0 .273.085.273.273v1.708c0 .171-.068.273-.273.273H51.81c-.154 0-.256-.102-.256-.273V54.67c0-.171.102-.273.256-.273h6.285c.205 0 .273.102.273.273v1.708z"/><linearGradient id="e" x1="63.688" x2="63.688" y1="68.843" y2="15.284" gradientUnits="userSpaceOnUse"><stop offset="0" stop-color="#026"/><stop offset="1" stop-color="#3da8e0"/></linearGradient><path fill="url(#e)" d="M67.316 54.397c.256 0 .359.137.307.376l-2.715 11.271c-.051.205-.171.307-.376.307h-1.708c-.205 0-.324-.102-.376-.307L59.75 54.773c-.051-.239.051-.376.307-.376h1.554c.205 0 .324.102.376.307l1.691 7.719 1.708-7.719c.051-.205.171-.307.376-.307h1.554z"/><linearGradient id="f" x1="71.569" x2="71.569" y1="68.843" y2="15.284" gradientUnits="userSpaceOnUse"><stop offset="0" stop-color="#026"/><stop offset="1" stop-color="#3da8e0"/></linearGradient><path fill="url(#f)" d="M68.153 56.856c0-1.605.854-2.459 2.459-2.459h1.913c1.605 0 2.459.854 2.459 2.459v7.036c0 1.605-.854 2.459-2.459 2.459h-1.913c-1.605 0-2.459-.854-2.459-2.459v-7.036zm3.997 7.292c.444 0 .683-.222.683-.683v-6.182c0-.444-.239-.683-.683-.683h-1.093c-.444 0-.683.239-.683.683v6.182c0 .461.239.683.683.683h1.093z"/><linearGradient id="g" x1="79.681" x2="79.681" y1="68.843" y2="15.284" gradientUnits="userSpaceOnUse"><stop offset="0" stop-color="#026"/><stop offset="1" stop-color="#3da8e0"/></linearGradient><path fill="url(#g)" d="M79.015 64.097h3.381c.188 0 .273.102.273.273v1.708c0 .188-.085.273-.273.273h-5.431c-.171 0-.273-.085-.273-.273V54.67c0-.171.102-.273.273-.273h1.776c.188 0 .273.102.273.273v9.427z"/><linearGradient id="h" x1="87.451" x2="87.451" y1="68.843" y2="15.284" gradientUnits="userSpaceOnUse"><stop offset="0" stop-color="#026"/><stop offset="1" stop-color="#3da8e0"/></linearGradient><path fill="url(#h)" d="M90.525 54.397c.188 0 .342.154.342.342v9.154c0 1.605-.854 2.459-2.459 2.459h-1.913c-1.605 0-2.459-.854-2.459-2.459v-9.154c0-.188.154-.342.342-.342h1.639c.188 0 .342.154.342.342v8.675c0 .461.239.683.683.683h.888c.444 0 .683-.222.683-.683v-8.675c0-.188.154-.342.342-.342h1.57z"/><linearGradient id="i" x1="95.648" x2="95.648" y1="68.843" y2="15.284" gradientUnits="userSpaceOnUse"><stop offset="0" stop-color="#026"/><stop offset="1" stop-color="#3da8e0"/></linearGradient><path fill="url(#i)" d="M98.791 54.397c.188 0 .273.102.273.273v1.708c0 .171-.085.273-.273.273H96.81v9.427c0 .188-.085.273-.273.273H94.76c-.171 0-.273-.085-.273-.273v-9.427h-1.981c-.171 0-.273-.102-.273-.273V54.67c0-.171.102-.273.273-.273h6.285z"/><linearGradient id="j" x1="101.42" x2="101.42" y1="68.843" y2="15.284" gradientUnits="userSpaceOnUse"><stop offset="0" stop-color="#026"/><stop offset="1" stop-color="#3da8e0"/></linearGradient><path fill="url(#j)" d="M100.532 66.351c-.188 0-.273-.102-.273-.273V54.67c0-.171.085-.273.273-.273h1.776c.171 0 .273.102.273.273v11.408c0 .171-.102.273-.273.273h-1.776z"/><linearGradient id="k" x1="107.705" x2="107.705" y1="68.843" y2="15.284" gradientUnits="userSpaceOnUse"><stop offset="0" stop-color="#026"/><stop offset="1" stop-color="#3da8e0"/></linearGradient><path fill="url(#k)" d="M104.289 56.856c0-1.605.854-2.459 2.459-2.459h1.913c1.605 0 2.459.854 2.459 2.459v7.036c0 1.605-.854 2.459-2.459 2.459h-1.913c-1.605 0-2.459-.854-2.459-2.459v-7.036zm3.996 7.292c.444 0 .683-.222.683-.683v-6.182c0-.444-.239-.683-.683-.683h-1.093c-.444 0-.683.239-.683.683v6.182c0 .461.239.683.683.683h1.093z"/><linearGradient id="l" x1="116.474" x2="116.474" y1="68.843" y2="15.284" gradientUnits="userSpaceOnUse"><stop offset="0" stop-color="#026"/><stop offset="1" stop-color="#3da8e0"/></linearGradient><path fill="url(#l)" d="M119.847 54.397c.171 0 .273.102.273.273v11.408c0 .171-.102.273-.273.273h-1.349c-.154 0-.239-.068-.307-.222l-3.211-6.524v6.472c0 .171-.085.273-.273.273h-1.605c-.171 0-.273-.102-.273-.273V54.67c0-.171.102-.273.273-.273h1.349c.154 0 .239.068.307.222l3.211 6.524V54.67c0-.171.085-.273.273-.273h1.605z"/><g><linearGradient id="m" x1="5.907" x2="41.634" y1="57.847" y2="57.847" gradientUnits="userSpaceOnUse"><stop offset="0" stop-color="#3da8e0"/><stop offset="1" stop-color="#026"/></linearGradient><path fill="url(#m)" d="M41.634 48.047l-1.582 1.993s-8.497-.516-17.202 2.381c.155.753.237 1.533.237 2.332 0 6.336-5.136 11.472-11.472 11.472-1.668 0-3.254-.356-4.684-.997a23.02 23.02 0 00-1.021 2.418s-.057-1.088.337-2.751c.906-3.825 4.194-10.692 16.036-14.367 4.865-1.51 11.172-2.481 19.351-2.481z"/><linearGradient id="n" x1="5.907" x2="41.634" y1="57.847" y2="57.847" gradientUnits="userSpaceOnUse"><stop offset="0" stop-color="#026"/><stop offset="1" stop-color="#3da8e0"/></linearGradient><path fill="url(#n)" d="M11.464 60.041c-2.462 4.706-1.03 6.055 1.441 6.112-.424.047-.854.072-1.291.072-1.668 0-3.254-.356-4.684-.997a23.23 23.23 0 00-1.02 2.418s-.057-1.088.337-2.751c.906-3.825 4.194-10.692 16.036-14.367 4.864-1.509 11.172-2.48 19.35-2.48.001-.001-23.966.135-30.169 11.993z"/><g><linearGradient id="o" x1=".057" x2="48.08" y1="50.661" y2="50.661" gradientUnits="userSpaceOnUse"><stop offset="0" stop-color="#3da8e0"/><stop offset="1" stop-color="#026"/></linearGradient><path fill="url(#o)" d="M48.08 38.553l-1.875 2.794s-15.006-1.098-27.71 4.264l-.002.042c-7.013 2.898-13.325 7.861-16.024 16.07-.115.35-.307.685-.409 1.046 0 0-.06-.559-.06-1.491v-.005C0 59.422.057 57.176.057 54.756c0-6.336 5.154-11.465 11.49-11.465 1.573 0 3.452.271 4.452.85v-.048.047l.027.015c6.817-3.251 16.981-5.602 32.054-5.602z"/><linearGradient id="p" x1=".057" x2="46.2" y1="51.935" y2="51.935" gradientUnits="userSpaceOnUse"><stop offset="0" stop-color="#026"/><stop offset="1" stop-color="#3da8e0"/></linearGradient><path fill="url(#p)" d="M46.2 41.347c-.295-.022-15.128-1.044-27.706 4.264l-.002.042c-7.013 2.898-13.325 7.861-16.024 16.07-.115.35-.307.685-.409 1.046 0 0-.06-.559-.06-1.491v-.005c-2-1.851-1.943-4.097-1.943-6.517 0-.342.056-.681.085-1.015.847 4.376 4.998-.765 4.998-.765C19.738 38.498 45.808 41.303 46.2 41.347z"/></g><g><linearGradient id="q" x1="3.979" x2="44.798" y1="55.348" y2="55.348" gradientUnits="userSpaceOnUse"><stop offset="0" stop-color="#3da8e0"/><stop offset="1" stop-color="#026"/></linearGradient><path fill="url(#q)" d="M4.132 66.301S-.754 44.434 44.799 44.395l-1.582 2.109c-.001 0-37.01-.568-39.085 19.797z"/><linearGradient id="r" x1="3.979" x2="44.798" y1="55.348" y2="55.348" gradientUnits="userSpaceOnUse"><stop offset="0" stop-color="#026"/><stop offset="1" stop-color="#3da8e0"/></linearGradient><path fill="url(#r)" d="M44.798 44.395c-18.686.982-28.787 5.792-34.247 10.656-4.454 3.968-5.82 7.971-6.237 9.961-.171.813-.183 1.29-.183 1.29S-.754 44.435 44.798 44.395z"/></g></g></g></switch></svg>