<?xml version="1.0" encoding="UTF-8"?>
<svg width="120px" height="97px" viewBox="0 0 120 97" version="1.1" xmlns="http://www.w3.org/2000/svg" xmlns:xlink="http://www.w3.org/1999/xlink">
    <!-- Generator: Sketch 54.1 (76490) - https://sketchapp.com -->
    <title>BO_Brand_logo</title>
    <desc>Created with Sketch.</desc>
    <defs>
        <polygon id="path-1" points="0 0 95 0 95 94 0 94"></polygon>
    </defs>
    <g id="BO_Brand_logo" stroke="none" stroke-width="1" fill="none" fill-rule="evenodd">
        <g id="Clipped" transform="translate(13.000000, 1.000000)">
            <mask id="mask-2" fill="white">
                <use xlink:href="#path-1"></use>
            </mask>
            <g id="a"></g>
            <path d="M94.2775824,38.8791271 C93.8051923,36.237779 90.3241209,35.2842762 88.5655769,37.318 C87.6803022,38.3416133 87.733022,39.4924641 87.9256319,40.7388729 C88.1673077,42.3098674 88.326511,43.8943646 88.3922802,45.4824972 C88.6278495,51.2230869 87.6405919,56.9483493 85.4953022,62.2825304 C81.4327473,72.3592265 73.2178571,80.5289171 63.1092308,84.6405083 C60.5454536,85.6814353 57.8837812,86.4655282 55.1636813,86.9811602 C52.9515385,87.4007845 49.7664286,87.1182652 48.900989,89.7305304 C48.1561264,91.9787403 50.0362912,94.1459337 52.346044,93.9922099 C54.9256593,93.8203094 57.5392033,93.2038564 60.0337363,92.5520884 C70.1789011,89.9013923 79.3411813,83.6402652 85.6007418,75.3064641 C93.3886538,64.9368619 96.5554945,51.6200221 94.2775824,38.8791271 M32.7134066,70.3701657 C35.220467,71.9359669 38.4191484,69.4338011 37.5975549,66.6595028 C37.1846703,65.2640442 35.9131319,64.6579779 34.8211538,63.8462541 C33.6557179,62.9802211 32.5824989,61.9977021 31.6182967,60.9140773 C28.0338736,56.871558 26.1270879,51.5010939 26.3849451,46.1207624 C26.4950824,43.8123094 27.9446154,40.7196575 25.6818407,39.0224641 C23.7917582,37.6041547 21.0936538,38.6028398 20.4881593,40.8266409 C17.4606868,51.9648619 23.0682967,64.342221 32.7134066,70.3701657 M13.2018681,68.2512707 C13.2096978,69.6519227 14.2228571,70.7503204 15.0444505,71.7952265 C18.3402198,75.9909503 22.3865934,79.5967072 27.0447253,82.2422099 C29.6624486,83.7320258 32.4328674,84.9389091 35.3086813,85.8422541 C36.6595604,86.2665525 38.3883516,86.4015801 39.5518407,87.235116 C40.7001923,88.0593039 41.3182143,89.5877127 40.8531319,90.952011 C39.6901648,94.3708066 35.6265659,92.7925414 33.2045879,92.024442 C30.460219,91.1523338 27.7968871,90.0454757 25.2444231,88.7162652 C20.5622802,86.2836906 16.3316484,82.9879779 12.7247802,79.1630608 C4.7239011,70.683326 -0.122142857,58.8668508 0.00208791209,47.2004641 C0.0276648352,44.750232 2.36769231,42.6308177 4.8235989,43.9649945 C7.29151099,45.306442 6.555,48.8581878 6.81337912,51.1817017 C6.98824176,52.7506188 7.22365385,54.3081105 7.55876374,55.8520994 C7.85054945,57.1899116 8.09953297,58.7780442 8.79063187,59.9839448 C9.98178571,62.0638895 13.0551923,62.1033591 14.391456,60.1501326 C15.1958242,58.9764309 14.9056044,57.8276575 14.535522,56.5651492 C14.0424413,54.8765935 13.6824039,53.1523654 13.4586813,51.4081326 C13.0858436,48.5161419 13.0893523,45.5883907 13.4691209,42.6972928 C14.177967,37.318 16.1828846,32.1246298 19.3100549,27.6718343 C25.3028846,19.1391271 34.9349451,13.7624309 45.3677198,13.062884 C47.9457692,12.8894254 50.5499176,13.0504199 53.0971703,13.4606961 C54.4751923,13.6829724 55.835467,14.0049613 57.1743407,14.3944641 C58.5085165,14.7813702 59.8583516,15.5188287 61.228022,15.7359116 C63.7084615,16.1306077 65.7676648,13.6076685 64.7398901,11.2960994 C64.1824176,10.0419006 63.0492033,9.52671823 61.8256868,9.07541436 C60.3294121,8.52130335 58.8032091,8.05074414 57.2542033,7.6659337 C46.4727473,4.9960221 34.8576923,6.90718232 25.4913187,12.8260663 C24.2177694,13.6332993 22.9896285,14.5093489 21.8124176,15.4502762 C20.8441484,16.222011 19.9708791,17.0316575 18.6513187,17.0072486 C16.0612637,16.9605083 14.5657967,14.0039227 16.0325549,11.8928177 C16.7862912,10.808442 18.1925,9.94738122 19.2416758,9.17772376 C20.4375108,8.301541 21.672927,7.48013338 22.9440659,6.7160663 C25.2115385,5.35020994 27.6042857,4.14638674 30.0821154,3.20223204 C41.062967,-0.983624309 53.033489,-1.06567956 64.0811538,2.95554696 C69.5441758,4.94304972 74.6574725,8.02116022 79.0201648,11.8341326 C81.4024725,13.918232 83.6146154,16.2448619 85.5026099,18.7828619 C86.4407349,20.0419037 87.3233642,21.340955 88.1479945,22.6763315 C88.8307418,23.7840773 89.7415934,24.999326 89.7008791,26.3568729 C89.6189286,29.0636575 86.2725275,30.4881989 84.2373352,28.6783094 C83.1537088,27.7139006 82.5294231,26.044232 81.7344505,24.8456022 C80.8807734,23.5562833 79.9563411,22.314744 78.9653571,21.1266298 C77.5320055,19.4128177 75.5062088,16.4001436 72.9171978,16.7953591 C70.2154396,17.2087514 69.3343407,20.4774586 71.1262912,22.3574586 C75.0714011,26.4960552 78.2998352,30.9005525 80.0876099,36.3946188 C80.9121628,38.9179093 81.4489953,41.5254285 81.6879945,44.1680552 C81.8973077,46.4894917 82.4474725,49.9342541 79.6032143,50.8981436 C78.4792257,51.2763529 77.2373162,51.011405 76.3679945,50.2079448 C75.3642308,49.2726188 75.2749725,48.0989171 75.2567033,46.8130387 C75.2133791,43.800884 74.6981868,40.8100221 73.6949451,37.9645746 C71.7975549,32.5863204 68.1797253,27.8738564 63.4787912,24.6056685 C54.268489,18.2012044 41.872033,17.8506519 32.4216209,23.9679227 C31.2840455,24.7021776 30.2006217,25.5163181 29.1796154,26.4041326 C28.144011,27.3057017 26.8719505,28.3324309 26.2085165,29.5476796 C25.0251923,31.7153923 26.7837363,34.2372928 29.1926648,34.220674 C30.6098352,34.2102873 31.4382143,33.3606519 32.3647253,32.4242873 C33.4587406,31.3166579 34.6683963,30.328307 35.9731593,29.476011 C38.1216209,28.0758785 40.5195879,27.0943315 43.0276923,26.5459116 C44.2444231,26.2794917 45.4982143,26.1449834 46.7546154,26.0992818 L46.7556593,26.0940884 C46.8391758,26.088895 46.9195604,26.088895 47.0025549,26.0837017 C48.0350275,26.0577348 49.066978,26.0935691 50.0827473,26.2202873 C50.3411264,26.2524862 50.6177747,26.2857238 50.9032967,26.3241547 C51.1689835,26.3682983 51.4341484,26.412442 51.6956593,26.4695691 C52.773022,26.7058674 53.8195879,27.0200663 54.8317033,27.403337 C56.6241697,28.0794067 58.3186532,28.9888971 59.8708791,30.1080442 C61.6017582,31.3596464 61.6048901,33.9319227 59.9225549,35.2458453 C58.7663736,36.1494917 57.1592033,36.1531271 55.9670055,35.299337 C54.8849451,34.5244862 52.3784066,33.1575912 49.4782967,32.7364088 C48.2902747,32.5629503 47.0980769,32.5691823 45.9027473,32.6948619 C41.3709341,33.1716133 37.2734066,35.8342541 34.9558242,39.7240884 C32.0238736,44.6458453 32.3323626,50.9604641 35.7351374,55.5680221 C38.9338187,59.9013702 44.5059341,62.2492928 49.8703022,61.3638232 C55.1798626,60.4877017 59.6803571,56.6446077 61.3548626,51.5618564 L51.0249176,51.5618564 C49.6625549,51.5618564 48.1957967,51.7197348 46.8417857,51.5156354 C43.7584615,51.0534254 42.8559615,46.8727624 45.719533,45.3999227 C47.0745879,44.7029724 49.1134341,45.0358674 50.5833242,45.0358674 L53.8702198,45.0358674 C56.9008242,45.0358674 59.9324725,45.0602762 62.962033,45.0239227 C65.0243681,45.0005525 67.4635714,44.7434807 68.3618956,47.1100994 C68.8290659,48.3383315 68.4923901,49.8298674 68.2434066,51.0721215 C67.909899,52.7356348 67.3724184,54.3521274 66.643022,55.885337 C63.7523077,61.9636575 58.2772802,66.2123536 51.6956593,67.6535138 C50.3635714,67.9453812 48.9709341,68.0570387 47.6085714,68.0679448 C46.3156319,68.0783315 44.7721429,67.6488398 43.6310989,68.4231713 C40.898544,70.2761657 43.3795055,74.2179337 45.9846978,74.5700442 C49.1562363,74.9995359 52.7693681,74.3197238 55.7822253,73.3682983 C58.7637637,72.424663 61.560522,71.0292044 64.0743681,69.1756906 C64.7848084,68.6532757 65.4694016,68.0969334 66.1257418,67.5086188 C66.7035714,66.9898011 67.2286813,66.3775028 67.9578846,66.0622652 C69.3463462,65.463989 71.0626099,65.9137348 71.9405769,67.1476796 C74.1829945,70.3010939 69.7790659,73.1278453 67.5893681,74.6957238 C62.4019505,78.4105414 56.215467,80.6436906 49.8295879,81.0737017 C44.3790934,81.4424309 38.8711813,80.4754254 33.8601923,78.3191381 C28.7964835,76.14 24.3487088,72.7404199 20.8525,68.5088619 C19.9828846,67.4566851 19.2536813,65.938663 17.9889286,65.3071492 C16.9444505,64.7862541 15.7449451,64.8896022 14.7667582,65.5024199 C13.8031868,66.1048508 13.1945604,67.109768 13.2018681,68.2523094 M76.641511,56.6425304 C72.5424176,55.3306851 70.5557692,61.7138564 74.6392033,62.9555912 C78.7054121,64.1926519 80.6231593,57.9200994 76.641511,56.6425304 M9.44206044,24.0053149 C13.5489835,25.6921215 10.567967,32.0160884 6.63068681,30.0000221 C2.96535714,28.1220994 5.68486264,22.464442 9.44153846,24.0053149" id="Shape" fill="#33328F" fill-rule="nonzero" mask="url(#mask-2)"></path>
        </g>
    </g>
</svg>