<?xml version="1.0" encoding="UTF-8"?>
<svg viewBox="0 0 137 42" version="1.1" xmlns="http://www.w3.org/2000/svg" xmlns:xlink="http://www.w3.org/1999/xlink">
    <!-- Generator: Sketch 51 (57462) - http://www.bohemiancoding.com/sketch -->
    <title>NasFX_Login_logo</title>
    <desc>Created with Sketch.</desc>
    <defs></defs>
    <g id="Login" stroke="none" stroke-width="1" fill="none" fill-rule="evenodd">
        <g id="NasFX_Login_logo" transform="translate(-3.000000, -3.000000)">
            <g id="Group-8">
                <g id="Group-7-Copy-2">
                    <g id="Group-7" transform="translate(8.147727, 3.622658)">
                        <path d="M2.19886358,17.3887583 L2.19886358,15.2151635 C2.19886358,14.8150158 2.5270185,14.4906319 2.9318181,14.4906319 C3.33661771,14.4906319 3.66477263,14.8150158 3.66477263,15.2151635 L3.66477263,17.3887583 L5.13068168,17.3887583 C5.53548129,17.3887583 5.86363621,17.7131422 5.86363621,18.1132899 L5.86363621,26.8076691 C5.86363621,27.2078168 5.53548129,27.5322007 5.13068168,27.5322007 L3.66477263,27.5322007 L3.66477263,29.7057955 C3.66477263,30.1059432 3.33661771,30.4303271 2.9318181,30.4303271 C2.5270185,30.4303271 2.19886358,30.1059432 2.19886358,29.7057955 L2.19886358,27.5322007 L0.732954526,27.5322007 C0.328154919,27.5322007 0,27.2078168 0,26.8076691 L0,18.1132899 C0,17.7131422 0.328154919,17.3887583 0.732954526,17.3887583 L2.19886358,17.3887583 Z" id="Combined-Shape" fill="#2196F3"></path>
                        <path d="M10.2613634,2.89812639 L10.2613634,0.724531597 C10.2613634,0.324383845 10.5895183,0 10.9943179,0 C11.3991175,0 11.7272724,0.324383845 11.7272724,0.724531597 L11.7272724,2.89812639 L13.1931815,2.89812639 C13.5979811,2.89812639 13.926136,3.22251023 13.926136,3.62265798 L13.926136,34.052985 C13.926136,34.4531328 13.5979811,34.7775166 13.1931815,34.7775166 L11.7272724,34.7775166 L11.7272724,36.9511114 C11.7272724,37.3512592 11.3991175,37.675643 10.9943179,37.675643 C10.5895183,37.675643 10.2613634,37.3512592 10.2613634,36.9511114 L10.2613634,34.7775166 L8.79545431,34.7775166 C8.39065471,34.7775166 8.06249979,34.4531328 8.06249979,34.052985 L8.06249979,3.62265798 C8.06249979,3.22251023 8.39065471,2.89812639 8.79545431,2.89812639 L10.2613634,2.89812639 Z" id="Combined-Shape" fill="#73909D"></path>
                        <path d="M18.3238632,10.1434424 L18.3238632,7.96984756 C18.3238632,7.56969981 18.6520181,7.24531597 19.0568177,7.24531597 C19.4616173,7.24531597 19.7897722,7.56969981 19.7897722,7.96984756 L19.7897722,10.1434424 L21.2556813,10.1434424 C21.6604809,10.1434424 21.9886358,10.4678262 21.9886358,10.867974 L21.9886358,19.5623531 C21.9886358,19.9625009 21.6604809,20.2868847 21.2556813,20.2868847 L19.7897722,20.2868847 L19.7897722,22.4604795 C19.7897722,22.8606273 19.4616173,23.1850111 19.0568177,23.1850111 C18.6520181,23.1850111 18.3238632,22.8606273 18.3238632,22.4604795 L18.3238632,20.2868847 L16.8579541,20.2868847 C16.4531545,20.2868847 16.1249996,19.9625009 16.1249996,19.5623531 L16.1249996,10.867974 C16.1249996,10.4678262 16.4531545,10.1434424 16.8579541,10.1434424 L18.3238632,10.1434424 Z" id="Combined-Shape" fill="#2196F3"></path>
                    </g>
                </g>
                <path d="M6.87350422,19.8632799 C7.17043131,19.8083695 7.45565192,20.0045629 7.51056228,20.30149 C7.56547263,20.5984171 7.3692793,20.8836377 7.07235221,20.938548 C5.93464462,21.1489429 5.04281627,21.3861364 4.44962322,21.6341906 C3.98534987,21.8283348 3.79494727,21.9916377 3.79494727,21.9897051 C3.79494727,22.8092736 10.9573163,23.918726 19.2312034,23.918726 C27.5050905,23.918726 34.6674595,22.8092736 34.6674595,21.9897051 C34.6674595,21.8726035 33.754678,21.4388162 32.1288398,21.0863408 C31.8337336,21.0223629 31.6463671,20.7312677 31.710345,20.4361615 C31.7743229,20.1410553 32.0654181,19.9536887 32.3605243,20.0176666 C34.576114,20.4979979 35.7609594,21.0610801 35.7609594,21.9897051 C35.7609594,23.9047976 28.6116573,25.012226 19.2312034,25.012226 C9.85074949,25.012226 2.70144736,23.9047976 2.70144736,21.9897051 C2.70144736,20.9736849 4.15434185,20.3661312 6.87350422,19.8632799 Z" id="Oval-Copy-2" fill="#546E7A" fill-rule="nonzero" transform="translate(19.231203, 22.433147) rotate(-13.000000) translate(-19.231203, -22.433147) "></path>
                <g id="Group-7-Copy-3" transform="translate(4.482954, 19.562353)">
                    <g id="Group-7" transform="translate(3.664773, -13.041569)">
                        <path d="M2.19886358,17.3887583 L2.19886358,15.2151635 C2.19886358,14.8150158 2.5270185,14.4906319 2.9318181,14.4906319 C3.33661771,14.4906319 3.66477263,14.8150158 3.66477263,15.2151635 L3.66477263,17.3887583 L5.13068168,17.3887583 C5.53548129,17.3887583 5.86363621,17.7131422 5.86363621,18.1132899 L5.86363621,26.8076691 C5.86363621,27.2078168 5.53548129,27.5322007 5.13068168,27.5322007 L3.66477263,27.5322007 L3.66477263,29.7057955 C3.66477263,30.1059432 3.33661771,30.4303271 2.9318181,30.4303271 C2.5270185,30.4303271 2.19886358,30.1059432 2.19886358,29.7057955 L2.19886358,27.5322007 L0.732954526,27.5322007 C0.328154919,27.5322007 0,27.2078168 0,26.8076691 L0,18.1132899 C0,17.7131422 0.328154919,17.3887583 0.732954526,17.3887583 L2.19886358,17.3887583 Z" id="Combined-Shape" fill="#2196F3"></path>
                        <path d="M10.2613634,2.89812639 L10.2613634,0.724531597 C10.2613634,0.324383845 10.5895183,0 10.9943179,0 C11.3991175,0 11.7272724,0.324383845 11.7272724,0.724531597 L11.7272724,2.89812639 L13.1931815,2.89812639 C13.5979811,2.89812639 13.926136,3.22251023 13.926136,3.62265798 L13.926136,34.052985 C13.926136,34.4531328 13.5979811,34.7775166 13.1931815,34.7775166 L11.7272724,34.7775166 L11.7272724,36.9511114 C11.7272724,37.3512592 11.3991175,37.675643 10.9943179,37.675643 C10.5895183,37.675643 10.2613634,37.3512592 10.2613634,36.9511114 L10.2613634,34.7775166 L8.79545431,34.7775166 C8.39065471,34.7775166 8.06249979,34.4531328 8.06249979,34.052985 L8.06249979,3.62265798 C8.06249979,3.22251023 8.39065471,2.89812639 8.79545431,2.89812639 L10.2613634,2.89812639 Z" id="Combined-Shape" fill="#73909D"></path>
                        <path d="M18.3238632,10.1434424 L18.3238632,7.96984756 C18.3238632,7.56969981 18.6520181,7.24531597 19.0568177,7.24531597 C19.4616173,7.24531597 19.7897722,7.56969981 19.7897722,7.96984756 L19.7897722,10.1434424 L21.2556813,10.1434424 C21.6604809,10.1434424 21.9886358,10.4678262 21.9886358,10.867974 L21.9886358,19.5623531 C21.9886358,19.9625009 21.6604809,20.2868847 21.2556813,20.2868847 L19.7897722,20.2868847 L19.7897722,22.4604795 C19.7897722,22.8606273 19.4616173,23.1850111 19.0568177,23.1850111 C18.6520181,23.1850111 18.3238632,22.8606273 18.3238632,22.4604795 L18.3238632,20.2868847 L16.8579541,20.2868847 C16.4531545,20.2868847 16.1249996,19.9625009 16.1249996,19.5623531 L16.1249996,10.867974 C16.1249996,10.4678262 16.4531545,10.1434424 16.8579541,10.1434424 L18.3238632,10.1434424 Z" id="Combined-Shape" fill="#2196F3"></path>
                    </g>
                </g>
            </g>
            <path d="M60.0029984,34.3999999 C59.6039964,33.6649962 59.0947515,32.8040048 58.4752485,31.8169999 C57.8557454,30.829995 57.1785022,29.7747556 56.4434985,28.65125 C55.7084948,27.5277444 54.9315026,26.372756 54.1124986,25.1862501 C53.2934945,23.9997442 52.4797527,22.8447558 51.6712486,21.7212502 C50.8627446,20.5977446 50.0752525,19.5425052 49.3087487,18.5555003 C48.5422449,17.5684954 47.8545018,16.7180039 47.2454987,16.0040003 L47.2454987,34.3999999 L45.1349988,34.3999999 L45.1349988,12.5705004 L46.8359988,12.5705004 C47.9070041,13.7675064 49.0567426,15.1482425 50.2852487,16.7127503 C51.5137548,18.2772581 52.7159927,19.8732421 53.8919986,21.5007502 C55.0680044,23.1282583 56.1652434,24.7189923 57.1837485,26.2730001 C58.2022536,27.8270078 59.0369952,29.1814942 59.6879984,30.3365 L59.6879984,12.5705004 L61.7984984,12.5705004 L61.7984984,34.3999999 L60.0029984,34.3999999 Z M82.1474978,34.3999999 C81.7484958,33.3289945 81.3704996,32.3000048 81.0134979,31.3129999 C80.6564961,30.325995 80.3099996,29.3600047 79.9739979,28.415 L69.3584982,28.415 C69.0014964,29.3600047 68.6445,30.325995 68.2874982,31.3129999 C67.9304964,32.3000048 67.5630001,33.3289945 67.1849982,34.3999999 L64.9484983,34.3999999 C65.7885025,32.1319886 66.5759946,30.0162598 67.3109982,28.05275 C68.0460019,26.0892403 68.7652447,24.2307589 69.4687482,22.4772502 C70.1722517,20.7237415 70.8704947,19.0385083 71.5634981,17.4215003 C72.2565016,15.8044923 72.9914942,14.1875085 73.768498,12.5705004 L75.658498,12.5705004 C76.4355019,14.1875085 77.1704945,15.8044923 77.8634979,17.4215003 C78.5565014,19.0385083 79.2547444,20.7237415 79.9582479,22.4772502 C80.6617514,24.2307589 81.3809942,26.0892403 82.1159978,28.05275 C82.8510015,30.0162598 83.6489935,32.1319886 84.5099978,34.3999999 L82.1474978,34.3999999 Z M74.650498,15.0275004 C73.8524941,16.8335094 73.0807518,18.6709909 72.3352481,20.5400002 C71.5897444,22.4090095 70.8180021,24.4249893 70.0199981,26.5880001 L79.3124979,26.5880001 C78.5144939,24.4249893 77.7375017,22.4090095 76.981498,20.5400002 C76.2254942,18.6709909 75.448502,16.8335094 74.650498,15.0275004 Z M92.8574975,33.0139999 C94.558506,33.0139999 95.8814927,32.704253 96.8264974,32.0847499 C97.7715021,31.4652468 98.2439974,30.4625069 98.2439974,29.0765 C98.2439974,28.278496 98.0917489,27.6117527 97.7872474,27.0762501 C97.4827459,26.5407474 97.0784999,26.0892519 96.5744974,25.7217501 C96.0704949,25.3542483 95.4930007,25.0392514 94.8419975,24.7767501 C94.1909942,24.5142488 93.5085011,24.2360016 92.7944975,23.9420001 C91.8914931,23.5849984 91.0830012,23.217502 90.3689976,22.8395002 C89.6549941,22.4614983 89.0460002,22.0362525 88.5419977,21.5637502 C88.0379951,21.0912478 87.654749,20.5505033 87.3922477,19.9415002 C87.1297464,19.3324972 86.9984977,18.6185044 86.9984977,17.7995003 C86.9984977,15.930491 87.6179915,14.5130052 88.8569976,13.5470004 C90.0960038,12.5809956 91.8179865,12.0980004 94.0229975,12.0980004 C94.6110004,12.0980004 95.1884946,12.14 95.7554975,12.2240004 C96.3225003,12.3080009 96.852745,12.4182498 97.3462474,12.5547504 C97.8397499,12.6912511 98.2912453,12.8434996 98.7007474,13.0115004 C99.1102494,13.1795013 99.451496,13.3579995 99.7244974,13.5470004 L98.9684974,15.3425004 C98.3594943,14.9224983 97.6192518,14.5865016 96.7477474,14.3345004 C95.8762431,14.0824991 94.9365025,13.9565004 93.9284975,13.9565004 C93.2354941,13.9565004 92.6002504,14.0247497 92.0227476,14.1612504 C91.4452447,14.2977511 90.9464997,14.5182489 90.5264976,14.8227504 C90.1064955,15.1272519 89.7757488,15.510498 89.5342476,15.9725003 C89.2927464,16.4345026 89.1719976,16.9909971 89.1719976,17.6420003 C89.1719976,18.3140036 89.2979964,18.880998 89.5499976,19.3430003 C89.8019989,19.8050026 90.1537454,20.2039986 90.6052476,20.5400002 C91.0567498,20.8760019 91.5869945,21.1804988 92.1959976,21.4535002 C92.8050006,21.7265016 93.466494,22.0099987 94.1804975,22.3040002 C95.0415018,22.661002 95.8552436,23.0179984 96.6217474,23.3750001 C97.3882513,23.7320019 98.0549946,24.1519977 98.6219974,24.6350001 C99.1890002,25.1180025 99.6404957,25.7059966 99.9764974,26.3990001 C100.312499,27.0920035 100.480497,27.942495 100.480497,28.9505 C100.480497,30.9245098 99.7927542,32.404995 98.4172474,33.3919999 C97.0417406,34.3790048 95.1780092,34.8724998 92.8259975,34.8724998 C91.9859934,34.8724998 91.219501,34.8200004 90.5264976,34.7149998 C89.8334942,34.6099993 89.2140004,34.4787506 88.6679977,34.3212499 C88.1219949,34.1637491 87.6599996,34.0010007 87.2819977,33.8329999 C86.9039958,33.664999 86.6099988,33.5180005 86.3999977,33.3919999 L87.0929977,31.5334999 C87.3029987,31.6595006 87.5864959,31.8064991 87.9434977,31.9744999 C88.3004994,32.1425008 88.7204952,32.3052491 89.2034976,32.4627499 C89.6865,32.6202507 90.2324946,32.7514994 90.8414976,32.8564999 C91.4505006,32.9615004 92.1224939,33.0139999 92.8574975,33.0139999 Z" id="NasFX" fill="#73909D"></path>
            <polygon id="Path" fill="#2196F3" points="104.228997 34.3999999 104.228997 12.5705004 118.025997 12.5705004 118.025997 15.9410003 108.197997 15.9410003 108.197997 21.5165002 116.923497 21.5165002 116.923497 24.8870001 108.197997 24.8870001 108.197997 34.3999999"></polygon>
            <path d="M134.531996,34.3999999 C133.922993,33.1609937 133.156501,31.7960074 132.232496,30.305 C131.308492,28.8139925 130.342502,27.375507 129.334497,25.9895001 C128.914494,26.5355028 128.457749,27.1864963 127.964247,27.9425 C127.470744,28.6985038 126.977249,29.4702461 126.483747,30.25775 C125.990244,31.0452539 125.533499,31.8064963 125.113497,32.5414999 C124.693495,33.2765036 124.357498,33.8959974 124.105497,34.3999999 L119.600997,34.3999999 C120.546002,32.614991 121.637991,30.7827594 122.876997,28.90325 C124.116003,27.0237407 125.459989,25.0550104 126.908997,22.9970002 L119.915997,12.5705004 L124.640997,12.5705004 L129.460497,20.0360002 L134.216996,12.5705004 L138.752996,12.5705004 L131.854497,22.9655002 C133.450504,25.1285109 134.86274,27.1759904 136.091246,29.108 C137.319753,31.0400096 138.353992,32.8039919 139.193996,34.3999999 L134.531996,34.3999999 Z" id="Path" fill="#2196F3"></path>
        </g>
    </g>
</svg>
