<svg id="Layer_1" data-name="Layer 1" xmlns="http://www.w3.org/2000/svg" viewBox="0 0 120 97"><defs><style>.cls-1{fill:#414042;}.cls-2{fill:#fff;}</style></defs><rect class="cls-1" width="120" height="97" rx="4.32"/><path class="cls-2" d="M15.37,54.9H38.28V74.56l5.4-.44a6.21,6.21,0,0,0,5.72-6.2V19.8H38.28V44.26H15.37V19.8H4.24V78q4.65-.57,11.13-1.27Z"/><path class="cls-2" d="M113.39,61.65a30.47,30.47,0,0,0,2.37-12A30.38,30.38,0,0,0,106.84,28a31.17,31.17,0,0,0-9.73-6.59,30.83,30.83,0,0,0-23.9,0A30.67,30.67,0,0,0,57,37.72a30.15,30.15,0,0,0-2.37,11.94,30.57,30.57,0,0,0,8.88,21.73h0a4,4,0,0,0,3,1.09c11.82-.73,25-1.4,39.29-1.91a4.14,4.14,0,0,0,3-1.51A30.31,30.31,0,0,0,113.39,61.65Zm-10.19-4.3A19.39,19.39,0,0,1,99,63.61a20,20,0,0,1-6.22,4.22,19.65,19.65,0,0,1-15.3,0,19.79,19.79,0,0,1,0-36.33,19.54,19.54,0,0,1,15.3,0A20,20,0,0,1,99,35.71,19.39,19.39,0,0,1,103.2,42a20.21,20.21,0,0,1,0,15.38Z"/></svg>