<svg width="120" height="97" viewBox="0 0 120 97" fill="none" xmlns="http://www.w3.org/2000/svg">
<path d="M38.8611 45.9838C37.2271 45.9838 35.929 45.4436 34.9668 44.3632C34.0101 43.2828 33.5317 41.8181 33.5317 39.969C33.5317 38.1308 34.0127 36.6714 34.9749 35.591C35.937 34.5053 37.2324 33.9624 38.8611 33.9624C40.1834 33.9624 41.2987 34.3359 42.2071 35.0831C43.1155 35.8248 43.6449 36.8004 43.7954 38.0098H42.0055C41.8443 37.2627 41.4761 36.666 40.9009 36.2199C40.3312 35.7684 39.6512 35.5426 38.8611 35.5426C37.8022 35.5426 36.9556 35.9458 36.3214 36.752C35.6925 37.5529 35.378 38.6253 35.378 39.969C35.378 41.3289 35.6925 42.4093 36.3214 43.2102C36.9502 44.0057 37.7995 44.4035 38.8691 44.4035C39.6754 44.4035 40.3527 44.2073 40.9009 43.8149C41.4546 43.4225 41.8228 42.8743 42.0055 42.1701H43.8035C43.5831 43.3742 43.0375 44.3121 42.1668 44.984C41.3014 45.6505 40.1995 45.9838 38.8611 45.9838Z" fill="black"/>
<path d="M50.4632 33.9624C52.1349 33.9624 53.4598 34.5026 54.4381 35.583C55.4217 36.6634 55.9136 38.1281 55.9136 39.9771C55.9136 41.8261 55.4244 43.2908 54.4462 44.3712C53.4679 45.4463 52.1403 45.9838 50.4632 45.9838C48.7862 45.9838 47.4585 45.4463 46.4803 44.3712C45.502 43.2908 45.0129 41.8261 45.0129 39.9771C45.0129 38.1281 45.502 36.6634 46.4803 35.583C47.4585 34.5026 48.7862 33.9624 50.4632 33.9624ZM50.4632 35.5507C49.356 35.5507 48.4771 35.9485 47.8267 36.744C47.1817 37.5395 46.8592 38.6172 46.8592 39.9771C46.8592 41.3316 47.1817 42.4066 47.8267 43.2022C48.4771 43.9977 49.356 44.3954 50.4632 44.3954C51.5651 44.3954 52.4386 43.9977 53.0836 43.2022C53.734 42.4066 54.0592 41.3316 54.0592 39.9771C54.0592 38.6172 53.734 37.5395 53.0836 36.744C52.4386 35.9485 51.5651 35.5507 50.4632 35.5507Z" fill="black"/>
<path d="M59.3966 45.7903H57.639V34.1559H59.2757L65.3065 42.7345H65.371V34.1559H67.1287V45.7903H65.5L59.4692 37.2197H59.3966V45.7903Z" fill="black"/>
<path d="M35.7086 62.3026H33.9509V50.6682H35.5877L41.6185 59.2468H41.683V50.6682H43.4407V62.3026H41.812L35.7812 53.732H35.7086V62.3026Z" fill="black"/>
<path d="M50.8583 62.3026H48.8829L44.7307 50.6682H46.6899L49.8585 60.2708H49.9069L53.0836 50.6682H55.0106L50.8583 62.3026Z" fill="black"/>
<path d="M63.686 60.7384V62.3026H56.3006V50.6682H63.686V52.2243H58.1066V55.6267H63.3876V57.1263H58.1066V60.7384H63.686Z" fill="black"/>
<path d="M65.0243 59.0614H66.8062C66.8707 59.6365 67.1583 60.0988 67.6689 60.4481C68.1795 60.7975 68.8192 60.9722 69.5878 60.9722C70.3188 60.9722 70.9208 60.8029 71.3938 60.4643C71.8722 60.1256 72.1114 59.6956 72.1114 59.1742C72.1114 58.7227 71.9421 58.3545 71.6035 58.0697C71.2648 57.7794 70.7193 57.5429 69.9667 57.3602L68.459 56.9973C67.3894 56.7393 66.5993 56.355 66.0886 55.8444C65.5834 55.3337 65.3307 54.6726 65.3307 53.861C65.3307 52.8612 65.7231 52.0469 66.5079 51.418C67.298 50.7891 68.3166 50.4747 69.5636 50.4747C70.7891 50.4747 71.7889 50.7891 72.5629 51.418C73.3369 52.0415 73.7374 52.8558 73.7643 53.861H72.0066C71.9528 53.2858 71.7029 52.8316 71.2568 52.4984C70.816 52.1651 70.2436 51.9985 69.5394 51.9985C68.8407 51.9985 68.2709 52.1598 67.8301 52.4823C67.3948 52.8048 67.1771 53.224 67.1771 53.74C67.1771 54.1485 67.341 54.4845 67.6689 54.7479C67.9968 55.0059 68.537 55.2289 69.2895 55.4171L70.5714 55.7315C71.7647 56.011 72.6247 56.4061 73.1515 56.9167C73.6836 57.422 73.9497 58.1019 73.9497 58.9566C73.9497 60.0423 73.5466 60.905 72.7403 61.5447C71.934 62.1789 70.8402 62.4961 69.4588 62.4961C68.1634 62.4961 67.1126 62.187 66.3063 61.5689C65.5054 60.9453 65.0781 60.1095 65.0243 59.0614Z" fill="black"/>
<path d="M80.3272 62.3026H78.5212V52.2243H74.893V50.6682H83.9474V52.2243H80.3272V62.3026Z" fill="black"/>
<path d="M87.2289 62.3026H85.4228V50.6682H87.2289V62.3026Z" fill="black"/>
<path d="M91.1312 62.3026H89.3735V50.6682H91.0102L97.0411 59.2468H97.1056V50.6682H98.8632V62.3026H97.2346L91.2037 53.732H91.1312V62.3026Z" fill="black"/>
<path d="M111.038 57.465C111.038 59.0399 110.594 60.2735 109.707 61.1657C108.826 62.0526 107.598 62.4961 106.023 62.4961C104.357 62.4961 103.034 61.9532 102.056 60.8674C101.083 59.7763 100.597 58.2981 100.597 56.4329C100.597 54.6 101.08 53.1488 102.048 52.0791C103.021 51.0095 104.338 50.4747 105.999 50.4747C107.294 50.4747 108.391 50.8267 109.288 51.5309C110.191 52.235 110.745 53.1676 110.949 54.3286H109.095C108.88 53.6083 108.501 53.0493 107.958 52.6516C107.415 52.2538 106.765 52.0549 106.007 52.0549C104.894 52.0549 104.021 52.4419 103.386 53.216C102.758 53.9846 102.443 55.0516 102.443 56.4168C102.443 57.809 102.766 58.9082 103.411 59.7144C104.056 60.5153 104.932 60.9158 106.039 60.9158C106.98 60.9158 107.748 60.6416 108.345 60.0934C108.942 59.5398 109.245 58.8222 109.256 57.9407V57.7391H106.249V56.2798H111.038V57.465Z" fill="black"/>
<path opacity="0.6" d="M36.5683 26.1225C36.5782 26.0321 36.5544 25.9502 36.4969 25.8766C36.4395 25.8031 36.3657 25.7602 36.2757 25.7479C36.1842 25.7366 36.1024 25.7592 36.0303 25.8156C35.9567 25.873 35.9151 25.9469 35.9052 26.0373C35.8954 26.1277 35.9192 26.2096 35.9766 26.2831C36.0341 26.3567 36.1078 26.3996 36.1979 26.4119C36.2879 26.4242 36.3697 26.4016 36.4433 26.3442C36.5154 26.2878 36.5571 26.2139 36.5683 26.1225Z" fill="black"/>
<path opacity="0.6" d="M41.3498 27.8402C41.3596 27.7498 41.3358 27.6679 41.2784 27.5944C41.2209 27.5208 41.1472 27.4779 41.0571 27.4656C40.9657 27.4544 40.8839 27.4769 40.8117 27.5333C40.7382 27.5907 40.6965 27.6647 40.6867 27.755C40.6768 27.8454 40.7006 27.9273 40.7581 28.0008C40.8155 28.0744 40.8893 28.1173 40.9793 28.1296C41.0694 28.1419 41.1512 28.1194 41.2247 28.0619C41.2969 28.0055 41.3385 27.9316 41.3498 27.8402Z" fill="black"/>
<path opacity="0.6" d="M45.3041 30.3451C45.314 30.2547 45.2902 30.1728 45.2327 30.0992C45.1753 30.0257 45.1015 29.9828 45.0114 29.9705C44.92 29.9592 44.8382 29.9818 44.7661 30.0382C44.6925 30.0956 44.6508 30.1695 44.641 30.2599C44.6312 30.3502 44.655 30.4322 44.7124 30.5057C44.7699 30.5793 44.8436 30.6222 44.9337 30.6345C45.0237 30.6468 45.1055 30.6242 45.1791 30.5668C45.2512 30.5104 45.2929 30.4365 45.3041 30.3451Z" fill="black"/>
<path opacity="0.6" d="M31.541 25.5101C31.5508 25.4198 31.527 25.3378 31.4696 25.2643C31.4121 25.1908 31.3384 25.1478 31.2483 25.1355C31.1569 25.1243 31.0751 25.1469 31.0029 25.2032C30.9294 25.2607 30.8877 25.3346 30.8779 25.4249C30.868 25.5153 30.8918 25.5972 30.9493 25.6708C31.0067 25.7443 31.0805 25.7872 31.1706 25.7995C31.2606 25.8119 31.3424 25.7893 31.4159 25.7318C31.4881 25.6755 31.5298 25.6016 31.541 25.5101Z" fill="black"/>
<path opacity="0.6" d="M36.5698 70.3267C36.5796 70.4171 36.5558 70.4991 36.4984 70.5726C36.4409 70.6461 36.3672 70.689 36.2771 70.7014C36.1857 70.7126 36.1039 70.69 36.0317 70.6336C35.9582 70.5762 35.9165 70.5023 35.9067 70.4119C35.8968 70.3216 35.9207 70.2396 35.9781 70.1661C36.0356 70.0926 36.1093 70.0496 36.1994 70.0373C36.2894 70.025 36.3712 70.0476 36.4447 70.105C36.5169 70.1614 36.5586 70.2353 36.5698 70.3267Z" fill="black"/>
<path opacity="0.6" d="M41.2541 68.676C41.2639 68.7663 41.2401 68.8483 41.1826 68.9218C41.1252 68.9953 41.0514 69.0382 40.9614 69.0506C40.8699 69.0618 40.7882 69.0392 40.716 68.9828C40.6425 68.9254 40.6008 68.8515 40.591 68.7611C40.5811 68.6708 40.6049 68.5888 40.6624 68.5153C40.7198 68.4418 40.7936 68.3988 40.8836 68.3865C40.9737 68.3742 41.0555 68.3968 41.129 68.4542C41.2011 68.5106 41.2428 68.5845 41.2541 68.676Z" fill="black"/>
<path opacity="0.6" d="M45.3877 66.0784C45.3975 66.1687 45.3737 66.2507 45.3163 66.3242C45.2588 66.3977 45.1851 66.4406 45.095 66.453C45.0036 66.4642 44.9218 66.4416 44.8496 66.3853C44.7761 66.3278 44.7344 66.2539 44.7246 66.1635C44.7147 66.0732 44.7385 65.9912 44.796 65.9177C44.8534 65.8442 44.9272 65.8012 45.0172 65.7889C45.1073 65.7766 45.1891 65.7992 45.2626 65.8566C45.3348 65.913 45.3764 65.9869 45.3877 66.0784Z" fill="black"/>
<path opacity="0.6" d="M21.3879 27.8439C21.3978 27.7535 21.3739 27.6716 21.3165 27.5981C21.259 27.5245 21.1853 27.4816 21.0952 27.4693C21.0038 27.4581 20.922 27.4806 20.8499 27.537C20.7763 27.5945 20.7346 27.6684 20.7248 27.7587C20.715 27.8491 20.7388 27.931 20.7962 28.0046C20.8537 28.0781 20.9274 28.121 21.0175 28.1333C21.1075 28.1456 21.1893 28.1231 21.2629 28.0656C21.335 28.0092 21.3767 27.9353 21.3879 27.8439Z" fill="black"/>
<path opacity="0.6" d="M26.1036 26.1116C26.1134 26.0213 26.0896 25.9393 26.0321 25.8658C25.9747 25.7923 25.9009 25.7493 25.8109 25.737C25.7194 25.7258 25.6376 25.7484 25.5655 25.8047C25.492 25.8622 25.4503 25.9361 25.4404 26.0264C25.4306 26.1168 25.4544 26.1988 25.5119 26.2723C25.5693 26.3458 25.6431 26.3887 25.7331 26.4011C25.8232 26.4134 25.905 26.3908 25.9785 26.3333C26.0506 26.277 26.0923 26.2031 26.1036 26.1116Z" fill="black"/>
<path opacity="0.6" d="M21.4707 68.657C21.4806 68.7473 21.4568 68.8293 21.3993 68.9028C21.3419 68.9763 21.2681 69.0193 21.1781 69.0316C21.0866 69.0428 21.0048 69.0202 20.9327 68.9639C20.8592 68.9064 20.8175 68.8325 20.8076 68.7422C20.7978 68.6518 20.8216 68.5698 20.879 68.4963C20.9365 68.4228 21.0102 68.3799 21.1003 68.3675C21.1904 68.3552 21.2721 68.3778 21.3457 68.4353C21.4178 68.4916 21.4595 68.5655 21.4707 68.657Z" fill="black"/>
<path opacity="0.6" d="M26.2412 70.3267C26.251 70.4171 26.2272 70.499 26.1698 70.5726C26.1123 70.6461 26.0386 70.689 25.9485 70.7013C25.8571 70.7126 25.7753 70.69 25.7031 70.6336C25.6296 70.5762 25.5879 70.5023 25.5781 70.4119C25.5682 70.3216 25.592 70.2396 25.6495 70.1661C25.7069 70.0925 25.7807 70.0496 25.8707 70.0373C25.9608 70.025 26.0426 70.0476 26.1161 70.105C26.1883 70.1614 26.23 70.2353 26.2412 70.3267Z" fill="black"/>
<path opacity="0.6" d="M31.479 70.9069C31.4888 70.9973 31.465 71.0792 31.4076 71.1528C31.3501 71.2263 31.2764 71.2692 31.1863 71.2815C31.0949 71.2927 31.0131 71.2702 30.9409 71.2138C30.8674 71.1564 30.8257 71.0825 30.8159 70.9921C30.806 70.9017 30.8298 70.8198 30.8873 70.7463C30.9447 70.6727 31.0185 70.6298 31.1085 70.6175C31.1986 70.6052 31.2804 70.6278 31.3539 70.6852C31.4261 70.7416 31.4678 70.8155 31.479 70.9069Z" fill="black"/>
<path opacity="0.6" d="M8.5731 48.4643C8.50795 48.5276 8.42872 48.5593 8.33541 48.5593C8.24209 48.5593 8.16286 48.5276 8.09772 48.4643C8.03257 48.3991 8 48.3208 8 48.2292C8 48.1359 8.03257 48.0576 8.09772 47.9942C8.16286 47.9308 8.24209 47.8991 8.33541 47.8991C8.42872 47.8991 8.50795 47.9308 8.5731 47.9942C8.63824 48.0576 8.67081 48.1359 8.67081 48.2292C8.67081 48.3208 8.63824 48.3991 8.5731 48.4643Z" fill="black"/>
<path opacity="0.6" d="M53.9829 48.4643C53.9178 48.5276 53.8386 48.5593 53.7453 48.5593C53.6519 48.5593 53.5727 48.5276 53.5076 48.4643C53.4424 48.3991 53.4099 48.3208 53.4099 48.2292C53.4099 48.1359 53.4424 48.0576 53.5076 47.9942C53.5727 47.9308 53.6519 47.8991 53.7453 47.8991C53.8386 47.8991 53.9178 47.9308 53.9829 47.9942C54.0481 48.0576 54.0807 48.1359 54.0807 48.2292C54.0807 48.3208 54.0481 48.3991 53.9829 48.4643Z" fill="black"/>
<path opacity="0.6" d="M17.3933 66.0784C17.4032 66.1687 17.3794 66.2507 17.3219 66.3242C17.2645 66.3977 17.1907 66.4406 17.1007 66.453C17.0092 66.4642 16.9274 66.4416 16.8553 66.3853C16.7818 66.3278 16.7401 66.2539 16.7302 66.1635C16.7204 66.0732 16.7442 65.9912 16.8017 65.9177C16.8591 65.8442 16.9329 65.8012 17.0229 65.7889C17.113 65.7766 17.1948 65.7992 17.2683 65.8566C17.3404 65.913 17.3821 65.9869 17.3933 66.0784Z" fill="black"/>
<path opacity="0.6" d="M13.4806 62.2467C13.4683 62.3367 13.4254 62.4105 13.3518 62.4679C13.2783 62.5254 13.1963 62.5492 13.106 62.5393C13.0145 62.5281 12.9406 62.4864 12.8843 62.4143C12.8268 62.3407 12.8043 62.2589 12.8166 62.1689C12.8289 62.0788 12.8718 62.0051 12.9453 61.9476C13.0189 61.8902 13.1008 61.8664 13.1912 61.8762C13.2815 61.8861 13.3554 61.9277 13.4129 62.0013C13.4692 62.0734 13.4918 62.1552 13.4806 62.2467Z" fill="black"/>
<path opacity="0.6" d="M10.9499 58.2895C10.9192 58.375 10.8618 58.4382 10.778 58.4791C10.6941 58.52 10.609 58.5263 10.5227 58.4979C10.4355 58.4679 10.3719 58.4117 10.3318 58.3294C10.2909 58.2456 10.2858 58.1609 10.3166 58.0753C10.3473 57.9898 10.4047 57.9266 10.4885 57.8857C10.5724 57.8448 10.6575 57.8385 10.7438 57.867C10.8302 57.8954 10.8938 57.9515 10.9347 58.0354C10.9748 58.1177 10.9799 58.2024 10.9499 58.2895Z" fill="black"/>
<path opacity="0.6" d="M9.11289 53.1303C9.06235 53.2059 8.99144 53.2534 8.90016 53.2728C8.80889 53.2922 8.7248 53.2776 8.6479 53.2292C8.57064 53.179 8.52249 53.1091 8.50345 53.0196C8.48405 52.9283 8.49962 52.8449 8.55016 52.7694C8.60071 52.6938 8.67162 52.6463 8.76289 52.6269C8.85417 52.6075 8.93825 52.6221 9.01515 52.6705C9.09205 52.719 9.1402 52.7888 9.1596 52.8801C9.17864 52.9697 9.16307 53.0531 9.11289 53.1303Z" fill="black"/>
<path opacity="0.6" d="M17.4182 30.322C17.428 30.2317 17.4042 30.1497 17.3468 30.0762C17.2893 30.0026 17.2156 29.9597 17.1255 29.9474C17.0341 29.9362 16.9523 29.9588 16.8801 30.0151C16.8066 30.0726 16.7649 30.1465 16.7551 30.2368C16.7452 30.3272 16.769 30.4091 16.8265 30.4827C16.8839 30.5562 16.9577 30.5991 17.0477 30.6114C17.1378 30.6238 17.2196 30.6012 17.2931 30.5437C17.3653 30.4874 17.407 30.4135 17.4182 30.322Z" fill="black"/>
<path opacity="0.6" d="M13.462 34.191C13.4497 34.1009 13.4067 34.0272 13.3332 33.9697C13.2597 33.9123 13.1777 33.8885 13.0874 33.8983C12.9959 33.9095 12.922 33.9512 12.8657 34.0234C12.8082 34.0969 12.7856 34.1787 12.798 34.2687C12.8103 34.3588 12.8532 34.4325 12.9267 34.49C13.0003 34.5474 13.0822 34.5712 13.1726 34.5614C13.2629 34.5516 13.3368 34.5099 13.3943 34.4363C13.4506 34.3642 13.4732 34.2824 13.462 34.191Z" fill="black"/>
<path opacity="0.6" d="M10.9499 38.072C10.9192 37.9865 10.8618 37.9233 10.778 37.8824C10.6941 37.8415 10.609 37.8352 10.5227 37.8636C10.4355 37.8936 10.3719 37.9497 10.3318 38.032C10.2909 38.1159 10.2858 38.2006 10.3166 38.2861C10.3473 38.3717 10.4047 38.4349 10.4885 38.4758C10.5724 38.5167 10.6575 38.5229 10.7438 38.4945C10.8302 38.4661 10.8938 38.41 10.9347 38.3261C10.9748 38.2438 10.9799 38.1591 10.9499 38.072Z" fill="black"/>
<path opacity="0.6" d="M9.11289 43.1583C9.06235 43.0827 8.99144 43.0353 8.90016 43.0158C8.80889 42.9964 8.7248 43.011 8.6479 43.0594C8.57064 43.1096 8.52249 43.1795 8.50345 43.269C8.48405 43.3603 8.49962 43.4437 8.55016 43.5193C8.60071 43.5948 8.67162 43.6423 8.76289 43.6617C8.85417 43.6811 8.93825 43.6665 9.01515 43.6181C9.09205 43.5696 9.1402 43.4998 9.1596 43.4085C9.17864 43.3189 9.16307 43.2355 9.11289 43.1583Z" fill="black"/>
<path opacity="0.7" d="M14.3711 48.5848C14.2725 48.6807 14.1527 48.7286 14.0115 48.7286C13.8703 48.7286 13.7505 48.6807 13.6519 48.5848C13.5534 48.4862 13.5041 48.3677 13.5041 48.2292C13.5041 48.088 13.5534 47.9695 13.6519 47.8736C13.7505 47.7777 13.8703 47.7298 14.0115 47.7298C14.1527 47.7298 14.2725 47.7777 14.3711 47.8736C14.4696 47.9695 14.5189 48.088 14.5189 48.2292C14.5189 48.3677 14.4696 48.4862 14.3711 48.5848Z" fill="black"/>
<path opacity="0.7" d="M48.4288 48.5848C48.3302 48.6807 48.2103 48.7286 48.0692 48.7286C47.928 48.7286 47.8081 48.6807 47.7096 48.5848C47.611 48.4862 47.5618 48.3677 47.5618 48.2292C47.5618 48.088 47.611 47.9695 47.7096 47.8736C47.8081 47.7777 47.928 47.7298 48.0692 47.7298C48.2103 47.7298 48.3302 47.7777 48.4288 47.8736C48.5273 47.9695 48.5766 48.088 48.5766 48.2292C48.5766 48.3677 48.5273 48.4862 48.4288 48.5848Z" fill="black"/>
<path opacity="0.7" d="M21.0579 61.5837C21.0728 61.7204 21.0368 61.8443 20.9499 61.9556C20.863 62.0668 20.7514 62.1318 20.6152 62.1504C20.4768 62.1674 20.3531 62.1332 20.244 62.048C20.1327 61.961 20.0696 61.8492 20.0548 61.7125C20.0399 61.5758 20.0759 61.4519 20.1628 61.3406C20.2497 61.2294 20.3613 61.1645 20.4975 61.1458C20.6338 61.1272 20.7575 61.1614 20.8687 61.2483C20.9779 61.3335 21.0409 61.4453 21.0579 61.5837Z" fill="black"/>
<path opacity="0.7" d="M25.2387 63.9874C25.2535 64.1241 25.2175 64.248 25.1306 64.3593C25.0437 64.4705 24.9321 64.5355 24.7959 64.5541C24.6576 64.5711 24.5338 64.5369 24.4247 64.4517C24.3134 64.3647 24.2504 64.2529 24.2355 64.1162C24.2206 63.9795 24.2566 63.8556 24.3435 63.7443C24.4304 63.6331 24.542 63.5682 24.6782 63.5495C24.8145 63.5309 24.9382 63.5651 25.0495 63.652C25.1586 63.7372 25.2217 63.849 25.2387 63.9874Z" fill="black"/>
<path opacity="0.7" d="M30.2998 65.137C30.3147 65.2737 30.2787 65.3976 30.1918 65.5089C30.1049 65.6201 29.9933 65.6851 29.857 65.7037C29.7187 65.7207 29.595 65.6865 29.4858 65.6013C29.3746 65.5143 29.3115 65.4025 29.2966 65.2658C29.2818 65.1291 29.3178 65.0052 29.4047 64.8939C29.4916 64.7827 29.6032 64.7178 29.7394 64.6991C29.8756 64.6805 29.9994 64.7146 30.1106 64.8016C30.2198 64.8868 30.2828 64.9986 30.2998 65.137Z" fill="black"/>
<path opacity="0.7" d="M35.4506 64.6947C35.4655 64.8314 35.4295 64.9554 35.3426 65.0666C35.2557 65.1778 35.1441 65.2428 35.0079 65.2614C34.8695 65.2784 34.7458 65.2442 34.6366 65.159C34.5254 65.0721 34.4623 64.9603 34.4475 64.8236C34.4326 64.6869 34.4686 64.5629 34.5555 64.4517C34.6424 64.3404 34.754 64.2755 34.8902 64.2569C35.0264 64.2382 35.1502 64.2724 35.2614 64.3593C35.3706 64.4446 35.4336 64.5564 35.4506 64.6947Z" fill="black"/>
<path opacity="0.7" d="M17.5154 57.8786C17.4968 58.0149 17.4319 58.1264 17.3206 58.2134C17.2094 58.3003 17.0854 58.3363 16.9487 58.3214C16.8104 58.3044 16.6986 58.2413 16.6133 58.1322C16.5264 58.021 16.4923 57.8972 16.5109 57.761C16.5295 57.6247 16.5944 57.5132 16.7057 57.4263C16.8169 57.3394 16.9409 57.3033 17.0776 57.3182C17.2143 57.3331 17.3261 57.3962 17.413 57.5074C17.4983 57.6166 17.5324 57.7403 17.5154 57.8786Z" fill="black"/>
<path opacity="0.7" d="M15.3439 53.6682C15.2973 53.7976 15.2106 53.8932 15.0837 53.9551C14.9569 54.017 14.8281 54.0264 14.6975 53.9835C14.5657 53.9381 14.4695 53.8532 14.4087 53.7287C14.3469 53.6018 14.3392 53.4737 14.3857 53.3443C14.4323 53.2149 14.519 53.1193 14.6459 53.0574C14.7728 52.9955 14.9015 52.986 15.0321 53.029C15.1627 53.072 15.259 53.1569 15.3209 53.2838C15.3816 53.4083 15.3892 53.5364 15.3439 53.6682Z" fill="black"/>
<path opacity="0.7" d="M21.0579 34.8743C21.0728 34.7376 21.0368 34.6137 20.9499 34.5024C20.863 34.3912 20.7514 34.3262 20.6152 34.3076C20.4768 34.2906 20.3531 34.3248 20.244 34.41C20.1327 34.497 20.0696 34.6088 20.0548 34.7455C20.0399 34.8821 20.0759 35.0061 20.1628 35.1174C20.2497 35.2286 20.3613 35.2935 20.4975 35.3122C20.6338 35.3308 20.7575 35.2966 20.8687 35.2097C20.9779 35.1245 21.0409 35.0127 21.0579 34.8743Z" fill="black"/>
<path opacity="0.7" d="M25.1594 32.5263C25.1743 32.3896 25.1382 32.2656 25.0513 32.1544C24.9644 32.0431 24.8528 31.9782 24.7166 31.9596C24.5783 31.9426 24.4545 31.9767 24.3454 32.062C24.2341 32.1489 24.1711 32.2607 24.1562 32.3974C24.1413 32.5341 24.1773 32.6581 24.2642 32.7693C24.3511 32.8805 24.4627 32.9455 24.599 32.9641C24.7352 32.9827 24.8589 32.9486 24.9702 32.8617C25.0793 32.7764 25.1424 32.6646 25.1594 32.5263Z" fill="black"/>
<path opacity="0.7" d="M30.351 31.2984C30.3658 31.1617 30.3298 31.0377 30.2429 30.9265C30.156 30.8152 30.0444 30.7503 29.9082 30.7317C29.7699 30.7147 29.6461 30.7488 29.537 30.8341C29.4257 30.921 29.3627 31.0328 29.3478 31.1695C29.3329 31.3062 29.3689 31.4302 29.4558 31.5414C29.5427 31.6527 29.6543 31.7176 29.7905 31.7362C29.9268 31.7548 30.0505 31.7207 30.1618 31.6338C30.2709 31.5485 30.334 31.4367 30.351 31.2984Z" fill="black"/>
<path opacity="0.7" d="M35.3917 31.7266C35.4066 31.5899 35.3706 31.4659 35.2837 31.3547C35.1968 31.2434 35.0852 31.1785 34.949 31.1599C34.8106 31.1429 34.6869 31.177 34.5777 31.2623C34.4665 31.3492 34.4034 31.461 34.3886 31.5977C34.3737 31.7344 34.4097 31.8584 34.4966 31.9696C34.5835 32.0808 34.6951 32.1458 34.8313 32.1644C34.9676 32.183 35.0913 32.1489 35.2025 32.062C35.3117 31.9767 35.3747 31.8649 35.3917 31.7266Z" fill="black"/>
<path opacity="0.7" d="M17.4856 38.564C17.467 38.4277 17.402 38.3162 17.2908 38.2293C17.1795 38.1423 17.0556 38.1063 16.9189 38.1212C16.7805 38.1382 16.6687 38.2013 16.5835 38.3104C16.4966 38.4217 16.4624 38.5454 16.481 38.6816C16.4997 38.8179 16.5646 38.9294 16.6758 39.0164C16.7871 39.1033 16.9111 39.1393 17.0478 39.1244C17.1844 39.1095 17.2962 39.0464 17.3832 38.9352C17.4684 38.8261 17.5026 38.7023 17.4856 38.564Z" fill="black"/>
<path opacity="0.7" d="M15.3737 42.7529C15.3272 42.6235 15.2405 42.5279 15.1136 42.466C14.9867 42.4041 14.858 42.3946 14.7273 42.4376C14.5956 42.483 14.4993 42.5679 14.4386 42.6924C14.3767 42.8193 14.369 42.9474 14.4156 43.0768C14.4621 43.2062 14.5488 43.3018 14.6757 43.3637C14.8026 43.4256 14.9314 43.4351 15.062 43.3921C15.1926 43.3491 15.2888 43.2642 15.3507 43.1373C15.4114 43.0128 15.4191 42.8847 15.3737 42.7529Z" fill="black"/>
<path opacity="0.8" d="M20.1691 48.7053C20.0371 48.8337 19.8766 48.8979 19.6876 48.8979C19.4986 48.8979 19.3381 48.8337 19.2061 48.7053C19.0742 48.5734 19.0082 48.4147 19.0082 48.2292C19.0082 48.0402 19.0742 47.8815 19.2061 47.7531C19.3381 47.6247 19.4986 47.5605 19.6876 47.5605C19.8766 47.5605 20.0371 47.6247 20.1691 47.7531C20.301 47.8815 20.367 48.0402 20.367 48.2292C20.367 48.4147 20.301 48.5734 20.1691 48.7053Z" fill="black"/>
<path opacity="0.8" d="M42.8745 48.7053C42.7426 48.8337 42.5821 48.8979 42.393 48.8979C42.204 48.8979 42.0435 48.8337 41.9116 48.7053C41.7796 48.5734 41.7136 48.4147 41.7136 48.2292C41.7136 48.0402 41.7796 47.8815 41.9116 47.7531C42.0435 47.6247 42.204 47.5605 42.393 47.5605C42.5821 47.5605 42.7426 47.6247 42.8745 47.7531C43.0065 47.8815 43.0724 48.0402 43.0724 48.2292C43.0724 48.4147 43.0065 48.5734 42.8745 48.7053Z" fill="black"/>
<path opacity="0.8" d="M24.7224 57.089C24.7424 57.272 24.6942 57.438 24.5778 57.587C24.4614 57.7359 24.312 57.8229 24.1296 57.8478C23.9444 57.8706 23.7787 57.8249 23.6325 57.7107C23.4836 57.5943 23.3991 57.4446 23.3792 57.2616C23.3593 57.0785 23.4075 56.9125 23.5239 56.7636C23.6403 56.6146 23.7896 56.5277 23.9721 56.5028C24.1545 56.4778 24.3202 56.5235 24.4691 56.6399C24.6153 56.7541 24.6997 56.9038 24.7224 57.089Z" fill="black"/>
<path opacity="0.8" d="M29.0091 59.2447C29.0291 59.4278 28.9808 59.5938 28.8645 59.7427C28.7481 59.8917 28.5987 59.9786 28.4163 60.0035C28.2311 60.0263 28.0654 59.9806 27.9192 59.8664C27.7703 59.75 27.6858 59.6003 27.6659 59.4173C27.646 59.2342 27.6942 59.0683 27.8106 58.9193C27.9269 58.7704 28.0763 58.6834 28.2587 58.6585C28.4412 58.6335 28.6068 58.6792 28.7558 58.7956C28.9019 58.9098 28.9864 59.0595 29.0091 59.2447Z" fill="black"/>
<path opacity="0.8" d="M21.5293 53.4956C21.467 53.6688 21.3509 53.7969 21.181 53.8797C21.0111 53.9626 20.8387 53.9752 20.6638 53.9177C20.4874 53.8569 20.3585 53.7432 20.2772 53.5765C20.1944 53.4066 20.1841 53.2351 20.2464 53.0618C20.3087 52.8886 20.4248 52.7605 20.5947 52.6777C20.7646 52.5948 20.937 52.5821 21.1119 52.6397C21.2868 52.6972 21.4157 52.811 21.4985 52.9809C21.5798 53.1475 21.5901 53.3191 21.5293 53.4956Z" fill="black"/>
<path opacity="0.8" d="M24.7224 39.1996C24.7424 39.0166 24.6942 38.8506 24.5778 38.7016C24.4614 38.5527 24.312 38.4657 24.1296 38.4408C23.9444 38.418 23.7787 38.4637 23.6325 38.5779C23.4836 38.6943 23.3991 38.844 23.3792 39.027C23.3593 39.2101 23.4075 39.3761 23.5239 39.525C23.6403 39.674 23.7896 39.7609 23.9721 39.7858C24.1545 39.8108 24.3202 39.7651 24.4691 39.6487C24.6153 39.5345 24.6997 39.3848 24.7224 39.1996Z" fill="black"/>
<path opacity="0.8" d="M29.0324 37.2565C29.0524 37.0735 29.0042 36.9075 28.8878 36.7586C28.7714 36.6096 28.622 36.5227 28.4396 36.4977C28.2544 36.475 28.0887 36.5207 27.9425 36.6349C27.7936 36.7513 27.7091 36.901 27.6892 37.084C27.6693 37.267 27.7175 37.433 27.8339 37.582C27.9503 37.7309 28.0996 37.8179 28.2821 37.8428C28.4645 37.8677 28.6302 37.822 28.7791 37.7057C28.9253 37.5915 29.0097 37.4418 29.0324 37.2565Z" fill="black"/>
<path opacity="0.8" d="M21.5293 42.793C21.467 42.6198 21.3509 42.4917 21.181 42.4089C21.0111 42.326 20.8387 42.3134 20.6638 42.3709C20.4874 42.4317 20.3585 42.5454 20.2772 42.7121C20.1944 42.882 20.1841 43.0535 20.2464 43.2268C20.3087 43.4 20.4248 43.5281 20.5947 43.6109C20.7646 43.6938 20.937 43.7065 21.1119 43.6489C21.2868 43.5914 21.4157 43.4776 21.4985 43.3077C21.5798 43.1411 21.5901 42.9695 21.5293 42.793Z" fill="black"/>
<path opacity="0.9" d="M25.967 48.8259C25.8017 48.9868 25.6006 49.0672 25.3637 49.0672C25.1268 49.0672 24.9257 48.9868 24.7603 48.8259C24.595 48.6605 24.5123 48.4616 24.5123 48.2292C24.5123 47.9923 24.595 47.7934 24.7603 47.6326C24.9257 47.4717 25.1268 47.3912 25.3637 47.3912C25.6006 47.3912 25.8017 47.4717 25.967 47.6326C26.1324 47.7934 26.2151 47.9923 26.2151 48.2292C26.2151 48.4616 26.1324 48.6605 25.967 48.8259Z" fill="black"/>
<path opacity="0.9" d="M37.3203 48.8259C37.155 48.9868 36.9538 49.0672 36.717 49.0672C36.4801 49.0672 36.279 48.9868 36.1136 48.8259C35.9482 48.6605 35.8655 48.4616 35.8655 48.2292C35.8655 47.9923 35.9482 47.7934 36.1136 47.6326C36.279 47.4717 36.4801 47.3912 36.717 47.3912C36.9538 47.3912 37.155 47.4717 37.3203 47.6326C37.4857 47.7934 37.5684 47.9923 37.5684 48.2292C37.5684 48.4616 37.4857 48.6605 37.3203 48.8259Z" fill="black"/>
<path opacity="0.9" d="M28.387 52.5944C28.412 52.8237 28.3516 53.0317 28.2057 53.2184C28.0599 53.4051 27.8727 53.514 27.6441 53.5453C27.412 53.5738 27.2043 53.5165 27.0212 53.3734C26.8345 53.2276 26.7287 53.04 26.7037 52.8106C26.6788 52.5812 26.7392 52.3732 26.885 52.1865C27.0309 51.9999 27.2181 51.8909 27.4467 51.8597C27.6753 51.8284 27.8829 51.8857 28.0696 52.0315C28.2527 52.1746 28.3585 52.3622 28.387 52.5944Z" fill="black"/>
<path opacity="0.9" d="M28.387 43.6943C28.412 43.4649 28.3516 43.2569 28.2057 43.0702C28.0599 42.8836 27.8727 42.7746 27.6441 42.7433C27.412 42.7148 27.2043 42.7721 27.0212 42.9152C26.8345 43.0611 26.7287 43.2487 26.7037 43.478C26.6788 43.7074 26.7392 43.9154 26.885 44.1021C27.0309 44.2887 27.2181 44.3977 27.4467 44.4289C27.6753 44.4602 27.8829 44.4029 28.0696 44.2571C28.2527 44.114 28.3585 43.9264 28.387 43.6943Z" fill="black"/>
<path d="M31.891 49.0704C31.6579 49.2972 31.3743 49.4107 31.0404 49.4107C30.7064 49.4107 30.4229 49.2972 30.1897 49.0704C29.9566 48.8373 29.84 48.5569 29.84 48.2292C29.84 47.8953 29.9566 47.6149 30.1897 47.388C30.4229 47.1612 30.7064 47.0478 31.0404 47.0478C31.3743 47.0478 31.6579 47.1612 31.891 47.388C32.1241 47.6149 32.2407 47.8953 32.2407 48.2292C32.2407 48.5569 32.1241 48.8373 31.891 49.0704Z" fill="#FADC20"/>
<path d="M32.1298 34.1559H30.0099V45.7903H32.1298V34.1559Z" fill="#FADC20"/>
<path d="M32.1298 50.6682H30.0099V62.3026H32.1298V50.6682Z" fill="#FADC20"/>
</svg>
