<?xml version="1.0" encoding="UTF-8"?>
<svg width="120px" height="97px" viewBox="0 0 120 97" version="1.1" xmlns="http://www.w3.org/2000/svg" xmlns:xlink="http://www.w3.org/1999/xlink">
    <!-- Generator: Sketch 54.1 (76490) - https://sketchapp.com -->
    <title>BO_Brand_logo</title>
    <desc>Created with Sketch.</desc>
    <defs>
        <linearGradient x1="77.1205315%" y1="79.9539934%" x2="13.9751317%" y2="4.77202491%" id="linearGradient-1">
            <stop stop-color="#9545D1" offset="0%"></stop>
            <stop stop-color="#7040C5" offset="40.3161951%"></stop>
            <stop stop-color="#3F43D0" offset="100%"></stop>
        </linearGradient>
    </defs>
    <g id="BO_Brand_logo" stroke="none" stroke-width="1" fill="none" fill-rule="evenodd">
        <g id="Group-7" transform="translate(23.000000, 0.000000)">
            <path d="M14.9360501,30.1559112 L13.3983374,28.0881135 C6.71012356,17.3035938 6.1508505,15.1855873 3.90222686,9.00874157 C7.25152294,9.92231223 7.55422227,12.896178 10.1337972,12.9117601 C12.0162988,10.3845801 16.7787683,11.299305 17.6649567,12.8511632 C14.8559068,12.5729945 12.4002945,14.6269414 12.4152853,17.2683898 C12.429123,19.7072714 14.5624326,21.6734971 17.1823674,21.6584921 C19.1744173,21.6469499 20.872993,20.4938771 21.5643007,18.8704569 C20.839552,18.7983177 20.2733601,18.2292838 20.2693241,17.5315536 C20.2652881,16.7865001 20.9127764,16.1764911 21.7136323,16.1718742 C22.5185243,16.1672573 23.1723548,16.7703409 23.1769674,17.5148173 C23.1804268,18.1052044 22.7774043,18.6101787 22.2152484,18.7971635 C23.2000302,20.1556886 24.8732368,21.0432892 26.7655401,21.032324 C29.7821552,21.0150106 32.2112453,18.7273327 32.1951013,15.9208298 C32.192795,15.5462832 32.1605071,15.1723136 32.0988141,14.8035381 C31.4715058,13.6175699 31.033889,12.7109246 30.7801981,11.9133538 C30.0058644,11.0713452 28.9340205,10.6206195 27.6275125,10.9149474 C26.0240709,11.207544 25.7507766,11.7050158 25.0611987,12.0033835 C24.5936003,8.63708048 27.451082,7.59769909 31.3279398,7.49151021 C32.0786342,5.84673676 33.3609262,3.62081003 35.1632845,0 C37.0094622,3.60003395 38.314817,5.81153284 39.0874211,7.44764958 C42.9631257,7.50940073 45.8309857,8.51646377 45.4020175,11.8879608 C44.7101333,11.5976727 44.4316499,11.1030864 42.8247489,10.8289575 C41.5176643,10.5496346 40.4515861,11.0124796 39.6841712,11.8631449 C39.440282,12.6641784 39.0101607,13.577172 38.3978431,14.7683342 C38.3413393,15.1376868 38.3125108,15.5122335 38.3142405,15.8867801 C38.3303844,18.6938602 40.7848436,20.9532595 43.8014587,20.9359461 C45.693762,20.9249809 47.3554372,20.0183356 48.3258048,18.6488453 C47.7613426,18.4682088 47.3531309,17.9672743 47.3496715,17.3774643 C47.3456355,16.6324108 47.9931238,16.0224018 48.7957095,16.0177849 C49.5982951,16.013168 50.2521257,16.6162516 50.2567383,17.360728 C50.2607742,18.0584582 49.7009246,18.6338404 48.9755994,18.7140591 C49.6876635,20.3293998 51.4006535,21.4634278 53.3903971,21.4518855 C56.0103319,21.4368806 58.1217318,19.4464161 58.1078942,17.0075345 C58.0929033,14.3660861 55.6142282,12.3404177 52.8074847,12.6503277 C53.6757993,11.0886586 58.4278906,10.119685 60.3392207,12.6249347 C62.9187956,12.5799198 63.1886304,9.60259135 66.5281248,8.65093121 C65.387669,14.8468216 63.8032542,20.0847037 61.639963,25.7519581 L59.88546,29.8990957 C53.6948261,25.273531 44.5740627,23.6033646 36.8653196,23.6472252 C28.9951369,23.6928172 22.3236436,26.1992211 14.9360501,30.1559112 Z" id="Path" fill="#5997DB"></path>
            <path d="M36.9881291,21.8472083 C47.2032227,21.8472083 56.4496784,25.9931916 63.1430814,32.692325 C69.8364844,39.3914583 73.9779879,48.6477816 73.9779879,58.87077 C73.9779879,69.0943354 69.8364844,78.3500816 63.1430814,85.0497921 C56.4491018,91.7500797 47.2026461,95.8949088 36.9881291,95.8949088 C26.7747652,95.8949088 17.527733,91.7500797 10.8337534,85.049215 C4.14035034,78.3495045 -9.09494702e-13,69.0949125 -9.09494702e-13,58.8701928 C-9.09494702e-13,48.6477816 4.14035034,39.3914583 10.8337534,32.6917478 C17.5271564,25.9914602 26.7747652,21.8472083 36.9881291,21.8472083 L36.9881291,21.8472083 Z M61.8065918,34.0289198 C55.4550948,27.6714376 46.6808501,23.7395634 36.9875525,23.7395634 C27.2954081,23.7395634 18.5211633,27.6714376 12.170243,34.0289198 C5.81816951,40.386402 1.89057356,49.1689151 1.89057356,58.87077 C1.89057356,68.5726248 5.81816951,77.3545608 12.170243,83.7131972 C18.5211633,90.0706794 27.2959847,94.0019765 36.9875525,94.0019765 C46.6808501,94.0019765 55.4550948,90.0706794 61.8065918,83.7131972 C68.1586652,77.3545608 72.0862612,68.5726248 72.0862612,58.87077 C72.0868378,49.1689151 68.1592418,40.386402 61.8065918,34.0289198 Z" id="Shape" fill="#5997DB" fill-rule="nonzero"></path>
            <path d="M10.1418692,51.2540261 C11.5198719,50.1592418 12.8984511,49.0644575 14.2764538,47.9696733 C14.9666083,45.8383931 15.3609823,45.5960055 17.1967817,44.7095591 C17.0797379,45.1879862 16.9626942,45.6664133 16.8456505,46.1448404 C16.8456505,46.1448404 18.8377004,44.5531614 22.1518257,43.6667151 C25.465951,42.7796916 29.7648581,42.6815823 29.7648581,42.6815823 L28.058787,44.0608836 C28.058787,44.0608836 29.1415857,44.3402065 30.6014614,45.0794889 C32.0619136,45.8181942 32.2256595,45.9988307 32.2256595,45.9988307 L31.4870732,44.3234702 C31.4870732,44.3234702 33.5217893,42.303573 36.2126422,41.8436136 C38.9034952,41.3836541 40.5767018,41.9423 40.5767018,41.9423 C40.5767018,41.9423 41.0362282,44.4388929 39.5267675,46.4097355 C38.0173068,48.3805781 36.5735751,49.0044377 36.5735751,49.0044377 C36.5735751,49.0044377 36.4259732,49.6450337 36.1797777,50.2036796 C35.9335823,50.7623254 35.4907764,51.2217078 35.4907764,51.2217078 C35.4907764,51.2217078 35.7208279,50.0720977 35.7531158,49.3495516 C35.7859803,48.6270055 35.7202513,48.1999415 35.7202513,48.1999415 C35.7202513,48.1999415 37.1149745,47.5755047 38.2963668,46.3272083 C39.4777591,45.0794889 39.1825551,42.517105 39.1825551,42.517105 C39.1825551,42.517105 37.7388234,42.4351549 36.1964983,42.9932236 C34.6541731,43.5512924 33.9161633,44.0770428 33.9161633,44.0770428 C33.9161633,44.0770428 34.3756897,44.5698977 34.6380291,45.4730803 C34.9009451,46.3762629 34.8023516,46.9349088 34.8023516,46.9349088 C34.8023516,46.9349088 34.0966297,46.8691178 33.5880948,46.9020133 C33.07956,46.9349088 32.4885755,47.1645999 32.4885755,47.1645999 C32.4885755,47.1645999 33.4404929,48.2155236 33.8014258,49.9399387 C34.1623587,51.6643538 33.9000193,52.9449686 33.9000193,52.9449686 C33.9000193,52.9449686 32.866229,51.3521354 31.8653032,50.5637984 C30.8643774,49.7754614 29.8305871,49.6277203 29.8305871,49.6277203 C29.8305871,49.6277203 31.2253103,51.0070215 31.7171247,52.4197954 C32.2095156,53.8319921 32.2256595,54.3577425 32.2256595,54.3577425 C32.2256595,54.3577425 31.1428608,53.0274959 30.2566724,52.4855863 C29.3704841,51.9436767 28.2876853,51.7959357 28.2876853,51.7959357 C28.2876853,51.7959357 30.2405285,53.2906596 31.0938523,56.115053 C31.9465996,58.9400236 31.9143117,62.191481 31.9143117,62.191481 C31.9143117,62.191481 29.6829851,59.9580518 27.9763374,58.7097553 C26.2696898,57.4614588 23.9403463,57.0343948 23.9403463,57.0343948 C23.9403463,57.0343948 24.0222193,57.0834495 24.4984662,58.1511094 C24.9741366,59.2187694 24.9251281,59.694888 24.9251281,59.694888 C24.9251281,59.694888 24.1542538,58.3808006 23.432388,57.9375774 C22.7105221,57.4943543 22.2671397,57.3298769 22.2671397,57.3298769 C22.2671397,57.3298769 22.3738052,56.4745947 22.2607974,55.4184771 C25.6521831,55.8380386 29.1075681,57.629976 29.1075681,57.629976 C29.1075681,57.629976 26.0552057,54.9689057 22.1449068,54.6745778 C22.0745653,54.3346579 21.9765483,53.9906983 21.8427841,53.6600123 C25.0110371,53.9301014 28.1003,55.1864774 28.1003,55.1864774 C28.1003,55.1864774 25.1142432,53.033267 21.4368787,52.89072 C21.3192583,52.7170088 21.1866472,52.5531086 21.036739,52.4030591 C19.3958203,50.7605941 15.3269646,51.6147221 15.3269646,51.6147221 L15.1464982,51.1224442 C15.1464982,51.1224442 13.1613671,50.9666236 12.3899162,50.9747032 C11.6196185,50.9827828 10.1418692,51.2540261 10.1418692,51.2540261 L10.1418692,51.2540261 Z M18.8469255,66.1516337 C18.8469255,66.1516337 18.7650525,66.1354746 18.666459,67.3341393 C18.5678655,68.532804 18.6503151,69.1895591 18.6503151,69.1895591 C18.6503151,69.1895591 19.1098415,69.2057183 19.7169699,69.2224546 C20.3240982,69.2391909 20.8159126,69.1237682 20.8159126,69.1237682 C20.8159126,69.1237682 19.7821223,68.2863765 19.4211894,67.4980395 C19.0596799,66.7102796 18.8469255,66.1516337 18.8469255,66.1516337 L18.8469255,66.1516337 Z M14.5647389,66.9561299 C14.5647389,66.9561299 14.6137474,67.6457806 14.7780698,68.3521675 C14.9423923,69.0585544 15.0242653,69.4198274 15.0242653,69.4198274 L16.9113794,69.4030911 C16.9113794,69.4030911 15.8118601,68.6476496 15.4019188,68.0895808 C14.9908242,67.530935 14.5647389,66.9561299 14.5647389,66.9561299 L14.5647389,66.9561299 Z M17.4199143,83.0593276 C17.4199143,83.0593276 16.2713866,80.9569032 16.8295065,78.7240511 C17.3870498,76.4906219 19.192291,74.355302 19.192291,74.355302 C19.192291,74.355302 18.6670356,75.997767 18.6347477,77.0157952 C18.6018832,78.0338234 18.6347477,78.8550559 18.2409502,80.365939 C17.8465763,81.8768221 17.4199143,83.0593276 17.4199143,83.0593276 L17.4199143,83.0593276 Z M18.3845162,64.8565911 L18.8601866,64.134045 C18.8601866,64.134045 19.0077886,64.4624226 19.6149169,65.3985006 C20.2220453,66.3345787 20.4843847,66.6796926 20.4843847,66.6796926 C20.4843847,66.6796926 21.7643705,66.3345787 21.9281164,64.2656269 C22.0918624,62.196675 23.3879921,61.2277014 23.3879921,61.2277014 C23.3879921,61.2277014 22.6661262,60.5213145 21.8295229,60.7186873 C20.9929196,60.9160602 20.5005287,61.7367155 20.2214688,62.5250526 C19.9429854,63.3133896 19.8276713,64.2985223 19.8276713,64.2985223 C19.8276713,64.2985223 19.7123573,63.0998576 19.8605358,62.344416 C20.0081378,61.5889745 20.0905873,61.5070244 20.0905873,61.5070244 C20.0905873,61.5070244 19.7948068,61.3096516 19.3687215,61.5728153 C18.9420596,61.835402 18.2201937,63.3139667 18.2530582,63.9049309 C18.2864993,64.495318 18.3845162,64.8565911 18.3845162,64.8565911 L18.3845162,64.8565911 Z M10.6486743,59.633714 L12.4124025,62.0148842 L12.2567285,59.3872865 C12.2567285,59.3872865 12.1252705,59.5107888 11.6334562,59.5840822 C11.1410653,59.6585299 10.6486743,59.633714 10.6486743,59.633714 L10.6486743,59.633714 Z M15.6527268,59.633714 C15.6527268,59.633714 15.9150662,61.2265472 16.4893301,62.2284162 C17.063594,63.2302853 17.3916624,63.5915583 17.3916624,63.5915583 C17.3916624,63.5915583 17.4078064,61.8013523 17.5392644,60.9639606 C17.6707224,60.1265689 17.9163412,59.6827686 17.9163412,59.6827686 L15.6527268,59.633714 L15.6527268,59.633714 Z M25.2428183,60.8329558 C25.2428183,60.8329558 24.6679779,64.495318 23.8152306,66.6629563 C22.9619067,68.8305946 21.5510396,70.144682 21.5510396,70.144682 C21.5510396,70.144682 19.1553905,70.8672281 17.6787943,70.8343326 C16.2021981,70.8014371 14.5722343,70.6831289 14.2003465,70.8014371 C13.0927553,71.1546306 13.2818703,73.7412532 13.2818703,73.7412532 C14.2891383,73.1081597 14.3323811,72.9067471 15.6117903,72.8871253 C15.6117903,72.8871253 15.0046619,73.5935122 14.659873,75.0224452 C14.315084,76.4508011 14.8732039,77.7487293 14.8732039,77.7487293 C14.8732039,77.7487293 15.2670013,76.6978056 15.8574092,76.008155 C16.4483936,75.3185044 17.5640569,74.2998991 18.6468556,73.6431439 C19.7296544,72.9863888 20.5501137,71.4755057 20.5501137,71.4755057 C20.6008519,72.3654147 19.7457984,73.2281993 20.2549098,74.3985855 C21.6865335,69.1526239 26.3244639,70.9607204 25.2428183,60.8329558 L25.2428183,60.8329558 Z M26.8508725,62.4096299 C32.1605071,72.6412749 22.8892589,73.2743684 20.4192323,82.4452789 C20.4192323,82.4452789 19.4021626,78.6513348 20.6158427,76.582383 C24.4817457,69.9940554 27.2239134,73.0544882 26.8508725,62.4096299 L26.8508725,62.4096299 Z M33.4785465,55.3486463 C33.4785465,55.3486463 33.8729205,57.7459758 33.8729205,60.0123004 C33.8729205,62.2786251 32.7572572,65.3667594 32.7572572,65.3667594 C32.7572572,65.3667594 32.2325784,64.5455269 31.1492031,63.7900853 C30.0664043,63.0346438 28.1631462,62.0495111 28.1631462,62.0495111 C36.9518052,74.0194219 14.6402696,79.598378 23.995697,88.5557565 C23.995697,88.5557565 23.8971035,84.3843802 25.2756828,81.8883644 C26.6536855,79.3923485 29.4431319,76.7312782 30.7554056,75.0564949 C32.0676793,73.3811344 36.6617904,69.2432307 36.6617904,69.2432307 C36.6617904,69.2432307 37.4822497,64.3164128 36.5631969,60.9333736 C35.644144,57.5497572 33.4785465,55.3486463 33.4785465,55.3486463 L33.4785465,55.3486463 Z M38.6630654,49.4695912 C38.6630654,49.4695912 38.5811925,50.9966335 38.3021325,52.5733076 C38.0230725,54.1499816 37.3998002,55.6937602 37.3998002,55.6937602 C37.3998002,55.6937602 37.2354777,55.4969645 36.6122053,55.1847461 C35.9883564,54.8725277 35.0531596,54.5937819 35.0531596,54.5937819 C35.0531596,54.5937819 37.2844862,57.2871705 37.940623,60.1121411 C38.5967598,62.9365345 38.1700979,67.337602 38.1700979,67.337602 C38.1700979,67.337602 38.7605058,66.7137423 39.1543032,65.7938234 C39.5481006,64.8739045 40.6966284,62.3778886 40.5980349,58.469099 C40.5005945,54.5608864 38.6630654,49.4695912 38.6630654,49.4695912 L38.6630654,49.4695912 Z M41.7321484,43.7238493 L41.3054865,45.2676279 C41.3054865,45.2676279 42.8149472,45.7933783 44.0292039,46.8610382 C45.2434607,47.9286982 46.4081324,49.4395813 46.4081324,49.4395813 C46.4081324,49.4395813 43.881602,47.7151662 42.6840657,47.3048385 C41.4859529,46.8939337 40.6660702,46.8616154 40.6660702,46.8616154 C47.0758007,52.4053675 47.5866418,56.9737979 46.7200569,65.1070583 C46.4963477,60.4849564 46.0149116,51.2869216 40.2884167,50.063441 C40.2884167,50.063441 43.1758801,57.6836475 41.7650129,63.2343251 C40.3541457,68.7850026 32.9377237,74.4014711 31.1330591,76.5691093 C29.3283945,78.7367476 27.1956614,81.7914093 26.2766086,84.2880023 C25.3581323,86.7840181 25.2266743,88.0652101 25.2266743,88.0652101 C25.2266743,88.0652101 28.9674616,84.419007 31.5925855,82.7771191 C34.2177095,81.1346542 40.9116891,77.9160922 43.0444221,75.5510811 C45.1777317,73.1860701 46.3256829,69.0475892 46.3256829,69.0475892 C46.3256829,69.0475892 46.4900054,72.9892744 45.0785616,75.2879174 C43.6676944,77.5871375 41.4692324,78.6709567 38.9092609,79.9850441 C36.3498659,81.2985544 34.5117602,82.3823735 33.6261485,82.9081239 C32.7399601,83.4332972 32.2810103,84.1235249 32.2810103,84.1235249 C32.2810103,84.1235249 42.0596402,82.9739148 46.3256829,80.050835 C50.5917255,77.1277552 51.8059823,74.467262 52.6587296,72.3983102 C53.5120534,70.3287812 53.9715798,65.9606092 53.7743928,64.2852487 C53.5777824,62.6098883 52.1992031,59.3913263 52.1992031,59.3913263 C52.1992031,59.3913263 53.6619616,60.9074035 54.4899164,62.8205347 C55.3317088,62.9786638 57.3093445,63.3133896 58.6965723,63.2504842 C60.5012369,63.1685341 62.2240286,62.7085747 62.2240286,62.7085747 C62.2240286,62.7085747 59.6479131,64.0717167 57.3842986,64.0549804 C56.1648527,64.0463237 55.3501591,63.9418662 54.8577682,63.8477967 C55.4654731,65.9023207 55.3172946,67.241224 55.3172946,67.241224 C55.3172946,67.241224 59.2546922,66.6825782 62.73314,64.7775265 C66.2115878,62.8724749 68.3771853,59.2926399 68.3771853,59.2926399 C68.3771853,59.2926399 63.4878704,59.5223311 60.2394741,57.3217974 C56.9910778,55.1212636 55.0549551,51.9021246 52.4621191,49.5371135 C49.8698597,47.1721024 47.6056686,45.3328417 45.2428841,44.708982 C42.8800996,44.0839681 41.7321484,43.7238493 41.7321484,43.7238493 L41.7321484,43.7238493 Z M28.745482,41.3421019 L28.6393931,41.5065793 C28.6393931,41.5065793 29.6074544,41.4246292 30.3454642,41.4078929 C31.0834741,41.3917337 32.0682559,41.5804498 32.0682559,41.5804498 L30.9773851,42.8864576 C30.9773851,42.8864576 34.7181724,40.8827196 36.9166344,40.6691876 C39.1150964,40.4556556 41.8716784,40.9479334 41.8716784,40.9479334 C41.8716784,40.9479334 41.9702719,41.1782017 41.9535513,41.7362705 C41.9368308,42.2943392 41.8053728,42.7214032 41.8053728,42.7214032 C41.8053728,42.7214032 43.9052413,42.8529851 47.4494181,44.2980772 C48.6827017,44.8013202 50.0001645,45.6785327 51.1930882,46.6082625 C53.4936031,46.9955057 56.7206664,46.0519251 58.3183423,45.2433891 C56.8872951,46.5257353 54.7782015,47.5068282 52.4298312,47.6234052 C54.0551825,49.0223283 55.2261965,50.2758188 55.2261965,50.2758188 C55.2261965,50.2758188 59.787443,48.1733943 61.4612262,46.0386515 C63.1350094,43.9033316 63.9877567,41.0460427 63.9877567,41.0460427 C63.9877567,41.0460427 61.4940907,41.8343797 58.6389153,41.7685888 C55.7837398,41.7027979 51.7477487,41.2099429 48.3678944,39.5680551 C44.9880401,37.9255901 41.7062027,36.3818115 37.3092787,36.8746664 C32.9129312,37.3675213 28.745482,41.3421019 28.745482,41.3421019 L28.745482,41.3421019 Z M18.6347477,43.6084266 C18.6347477,43.6084266 19.5526474,43.2713923 21.3578885,42.6573436 C22.3945617,39.6829007 24.8847682,38.2585846 27.6056028,37.0281786 C24.8017421,39.2437173 24.0020393,40.2975265 23.0455094,42.1789165 C24.804625,41.7720515 26.7073065,41.5388976 26.7073065,41.5388976 C26.7073065,41.5388976 30.6124162,38.0900674 32.5156743,37.0720392 C34.4189324,36.054011 37.2735313,35.3966788 40.7191146,35.5282606 C44.1646979,35.6598425 50.2354052,39.0094092 50.2354052,39.0094092 C50.2354052,39.0094092 51.6791368,38.418445 52.6310542,37.1372531 C53.582395,35.8560611 53.8775989,34.6083417 53.8775989,34.6083417 C53.8775989,34.6083417 51.3510684,35.3637833 48.561622,35.0683012 C45.7727521,34.7728191 42.1957108,34.0173775 39.6034514,33.1632496 C37.0111919,32.3091216 33.5984731,32.3091216 31.2356886,32.7690811 C25.7974788,33.8275072 19.5734039,37.8147843 18.6347477,43.6084266 L18.6347477,43.6084266 Z M17.5358049,43.427213 C17.9209538,40.726899 19.9908407,36.7361592 22.7693323,35.6102108 C22.7693323,35.6102108 20.7346162,35.5115244 18.4704252,37.1868848 C16.9084966,38.3428431 13.1181243,42.1800707 14.4177135,45.4638465 C15.2375963,44.1099382 16.1243612,43.8756302 17.5358049,43.427213 L17.5358049,43.427213 Z M22.0636104,47.6978528 C22.0636104,47.6978528 22.2930854,48.0591258 23.2940112,47.9604394 C24.294937,47.861753 24.9014888,46.8927795 24.9014888,46.8927795 C24.9014888,46.8927795 24.3929539,46.9418341 23.4577571,47.1721024 C22.5225603,47.4023707 22.0636104,47.6978528 22.0636104,47.6978528 L22.0636104,47.6978528 Z M11.3659276,55.6793324 C11.3659276,55.6793324 9.56126301,53.1994757 8.90512617,53.4626394 C8.46520313,53.6386591 8.20978255,54.3167674 8.2570613,55.1703183 C8.73792082,55.1835919 9.12825882,55.2101391 9.12825882,55.2101391 C9.12825882,55.2101391 8.79211841,55.4144373 8.29396179,55.5321684 C8.3227903,55.728387 8.3671862,55.9303767 8.42830264,56.135252 C8.88782906,56.0919685 9.2562574,56.0706153 9.2562574,56.0706153 C9.2562574,56.0706153 8.97892715,56.2904955 8.54015725,56.465938 L8.55976064,56.516724 C8.6473993,56.7383356 8.74772251,56.938594 8.85784741,57.1174992 C9.26490595,57.0234297 9.5808664,56.9622556 9.5808664,56.9622556 C9.5808664,56.9622556 9.38021998,57.1711707 9.0377373,57.3835485 C9.60681206,58.1464925 10.3234888,58.423507 10.6602057,58.2740346 C11.1030116,58.0766618 11.7268605,57.3870112 11.7268605,57.3870112 C11.7268605,57.3870112 14.0071955,58.3398255 17.0099729,58.4056165 C18.009169,58.4275468 18.8048359,58.1274478 19.4038923,57.6686426 C17.3524556,56.9916884 15.7859145,56.8462558 15.7859145,56.8462558 C15.7859145,56.8462558 17.4562383,56.5663558 19.8974363,57.2104144 C20.4105838,56.6338781 20.7029048,55.9332623 20.7824715,55.3076713 C17.8788642,55.2130247 15.6463845,55.8311132 15.6463845,55.8311132 C15.6463845,55.8311132 17.5657866,54.7097817 20.781895,54.639951 C20.7645978,54.5245283 20.7380756,54.4160309 20.7023283,54.3161903 C20.6106536,54.0622604 20.4670876,53.8262209 20.2768195,53.6121118 C17.1074133,53.6715545 15.1943535,54.5083691 15.1943535,54.5083691 C15.1943535,54.5083691 16.4506999,53.3402914 19.4615493,52.9830581 C18.5811266,52.5109793 17.3195911,52.3107209 15.8130133,52.5427205 C13.2530418,52.9368891 11.3659276,55.6793324 11.3659276,55.6793324 L11.3659276,55.6793324 Z M20.7178957,50.9498873 L20.7178957,50.9498873 C20.7178957,50.9498873 20.5864377,50.4731916 20.1764963,50.0790231 C19.7665549,49.6848545 19.2412995,49.4713226 19.2412995,49.4713226 L21.2921595,48.5519808 C21.2921595,48.5519808 22.6868828,48.4861898 24.5405558,48.8474629 C26.3942289,49.2087359 28.7898779,50.3750823 28.7898779,50.3750823 C28.7898779,50.3750823 28.4122245,49.6525362 27.6084857,48.9790447 C26.8041703,48.3055533 25.6562191,47.6649573 25.6562191,47.6649573 C25.6562191,47.6649573 26.1814745,46.9424112 26.7718824,46.4824518 C27.3628668,46.0224923 28.0190036,45.6612193 28.0190036,45.6612193 C28.0190036,45.6612193 26.509543,45.5792692 24.9014888,45.9238059 C23.2934346,46.2689198 21.275439,47.3688981 21.275439,47.3688981 L21.3083035,46.8927795 C21.3083035,46.8927795 21.0292436,46.9585704 19.9793093,47.8450167 C18.929375,48.7320402 17.8955847,49.931282 17.8955847,49.931282 C17.8955847,49.931282 18.3712551,49.7506455 19.1098415,49.9970729 C19.8484279,50.2435004 20.7178957,50.9498873 20.7178957,50.9498873 Z" id="Shape" fill="url(#linearGradient-1)"></path>
        </g>
    </g>
</svg>