<svg xmlns="http://www.w3.org/2000/svg" width="120" height="97"><path d="M0 53.993v-7.599h1.611v7.599H0zM9.296 53.993H7.71v-3.394c0-.419-.075-.734-.224-.943-.149-.21-.386-.314-.712-.314-.444 0-.764.148-.962.444-.197.296-.296.787-.296 1.473v2.734H3.932v-5.811h1.211l.213.743h.088c.177-.281.42-.493.73-.637.31-.144.663-.216 1.058-.216.676 0 1.188.183 1.539.548.35.366.525.893.525 1.583v3.79zM16.07 51.882c0 .686-.247 1.227-.741 1.622s-1.181.593-2.061.593c-.811 0-1.528-.152-2.152-.457v-1.497c.513.229.947.39 1.302.483.355.094.68.14.975.14.353 0 .625-.068.813-.203.189-.135.283-.336.283-.603a.67.67 0 00-.125-.398 1.387 1.387 0 00-.366-.335c-.161-.107-.489-.279-.985-.515-.464-.218-.813-.428-1.045-.629a2.353 2.353 0 01-.556-.702 2 2 0 01-.208-.936c0-.672.228-1.201.684-1.585.456-.385 1.085-.577 1.889-.577.395 0 .772.047 1.131.14.359.094.734.225 1.125.395l-.52 1.253a7.655 7.655 0 00-1.006-.348 3.23 3.23 0 00-.782-.099c-.305 0-.539.071-.702.213a.701.701 0 00-.244.556.69.69 0 00.099.372c.066.106.171.208.314.307.144.099.484.276 1.021.533.71.34 1.197.68 1.461 1.021.265.343.396.761.396 1.256zM21.972 53.993l-.213-.743h-.083c-.17.27-.411.479-.722.626a2.47 2.47 0 01-1.065.221c-.683 0-1.197-.183-1.544-.548-.347-.366-.52-.891-.52-1.577v-3.789h1.585v3.394c0 .419.075.734.224.943.149.21.386.314.712.314.443 0 .764-.148.961-.444.198-.296.296-.787.296-1.474v-2.734h1.585v5.811h-1.216zM28.627 48.073c.215 0 .393.016.535.047l-.119 1.487a1.8 1.8 0 00-.468-.052c-.506 0-.9.13-1.182.39-.283.26-.424.624-.424 1.092v2.957h-1.585v-5.811h1.201l.234.977h.078c.18-.326.424-.588.73-.787.306-.201.639-.3 1-.3zM33.38 54.097c-.936 0-1.667-.258-2.194-.774-.527-.516-.79-1.247-.79-2.193 0-.974.243-1.726.73-2.258s1.16-.798 2.019-.798c.821 0 1.461.234 1.918.702.457.468.686 1.114.686 1.939v.769h-3.748c.017.45.151.802.4 1.055s.599.379 1.05.379c.35 0 .681-.036.993-.109s.638-.189.977-.348v1.227a3.683 3.683 0 01-.889.309c-.314.066-.699.1-1.152.1zm-.224-4.896c-.336 0-.6.107-.79.32-.191.213-.3.515-.327.907h2.225c-.007-.392-.109-.694-.307-.907-.198-.214-.465-.32-.801-.32z"/><g fill="#86EBCF"><path d="M91.428 54.185h-1.611v-6.258h-2.063v-1.341h5.738v1.341h-2.063v6.258zM98.311 48.265c.215 0 .393.016.535.047l-.119 1.487a1.8 1.8 0 00-.468-.052c-.506 0-.9.13-1.182.39-.283.26-.424.624-.424 1.092v2.957h-1.585v-5.811h1.201l.234.977h.078c.18-.326.424-.588.73-.787.307-.2.64-.3 1-.3zM104.125 54.185l-.307-.79h-.042c-.267.336-.541.569-.824.699-.282.13-.651.195-1.105.195-.558 0-.997-.159-1.318-.478-.321-.319-.481-.773-.481-1.362 0-.617.216-1.072.647-1.364.431-.293 1.082-.455 1.952-.486l1.008-.031v-.255c0-.589-.301-.884-.904-.884-.464 0-1.01.14-1.637.421l-.525-1.071a4.724 4.724 0 012.225-.525c.78 0 1.377.17 1.793.509.416.34.624.856.624 1.549v3.872h-1.106zm-.468-2.692l-.613.021c-.461.014-.804.097-1.029.249-.225.153-.338.385-.338.696 0 .447.256.671.769.671.367 0 .661-.106.881-.317.22-.211.33-.492.33-.842v-.478zM109.236 54.289c-.683 0-1.219-.265-1.609-.795-.39-.53-.585-1.265-.585-2.204 0-.953.198-1.695.595-2.227.397-.532.943-.798 1.64-.798.731 0 1.289.284 1.674.852h.052a6.451 6.451 0 01-.12-1.159v-1.861h1.591v8.088h-1.216l-.307-.754h-.068c-.36.572-.909.858-1.647.858zm.556-1.263c.405 0 .702-.118.891-.353.189-.236.292-.636.309-1.201V51.3c0-.624-.096-1.071-.288-1.341-.192-.27-.505-.405-.938-.405a.93.93 0 00-.824.45c-.196.3-.294.735-.294 1.307s.099 1.001.296 1.286c.198.286.481.429.848.429zM117.294 54.289c-.936 0-1.667-.258-2.194-.774-.527-.516-.79-1.247-.79-2.193 0-.974.243-1.726.73-2.258s1.16-.798 2.019-.798c.821 0 1.461.234 1.918.702.457.468.686 1.114.686 1.939v.769h-3.748c.017.45.151.802.4 1.055.25.253.599.379 1.05.379.35 0 .681-.036.993-.109.312-.073.638-.189.977-.348v1.227a3.683 3.683 0 01-.889.309 5.69 5.69 0 01-1.152.1zm-.223-4.896c-.336 0-.6.107-.79.32-.191.213-.3.515-.327.907h2.225c-.007-.392-.109-.694-.307-.907-.198-.214-.465-.32-.801-.32z"/></g><g><linearGradient id="a" gradientUnits="userSpaceOnUse" x1="49.998" y1="34.814" x2="65.929" y2="41.462" gradientTransform="rotate(-11.536 59.693 -6.368)"><stop offset="0" stop-color="#781ce2"/><stop offset=".959" stop-color="#261c46"/></linearGradient><path fill="url(#a)" d="M77.545 38.53s-3.752-1.752-8.793-1.924c0 0-1.264.115-1.396 1.286-.133 1.171.876 1.766 1.667 1.719.791-.047 4.288.433 6.85 1.344-.001 0 1.458-1.465 1.672-2.425z"/><linearGradient id="b" gradientUnits="userSpaceOnUse" x1="45.259" y1="27.979" x2="71.647" y2="39.775" gradientTransform="rotate(-11.536 59.693 -6.368)"><stop offset=".208" stop-color="#4e80e5"/><stop offset=".292" stop-color="#4c7bdd"/><stop offset=".424" stop-color="#456dc7"/><stop offset=".586" stop-color="#3b55a3"/><stop offset=".773" stop-color="#2c3571"/><stop offset=".978" stop-color="#190c31"/><stop offset="1" stop-color="#17072a"/></linearGradient><path fill="url(#b)" d="M78.16 34.163s-2.533-1.97-6.518-2.383c0 0-2.38.041-2.327 2.166.05 2.002 1.543 2.793 2.533 2.972.99.179 3.426.618 5.697 1.612 0 0 1.254-1.845.615-4.367z"/><linearGradient id="c" gradientUnits="userSpaceOnUse" x1="38.597" y1="40.768" x2="56.984" y2="33.568" gradientTransform="rotate(-11.536 59.693 -6.368)"><stop offset=".041" stop-color="#261c46"/><stop offset="1" stop-color="#781ce2"/></linearGradient><path fill="url(#c)" d="M55.222 41.818c-2.829 1.083-6.165 2.762-8.883 5.277 0 0-1.879-.806-2.371-1.708 0 0 3.645-4.05 10.63-6.63 0 0 1.449-.454 1.85.81.534 1.683-1.226 2.251-1.226 2.251z"/><linearGradient id="d" gradientUnits="userSpaceOnUse" x1="29.467" y1="40.185" x2="63.205" y2="26.974" gradientTransform="rotate(-11.536 59.693 -6.368)"><stop offset="0" stop-color="#17072a"/><stop offset=".242" stop-color="#292e67"/><stop offset=".62" stop-color="#4369c1"/><stop offset=".792" stop-color="#4e80e5"/></linearGradient><path fill="url(#d)" d="M43.967 45.386s4.603-4.802 11.706-6.996c0 0 2.399-.901 1.822-3.404-.578-2.503-2.831-1.84-2.831-1.84S45.9 35.494 41.72 41.639c.001 0 .028 2.571 2.247 3.747z"/><linearGradient id="e" gradientUnits="userSpaceOnUse" x1="32.446" y1="32.411" x2="49.503" y2="32.411" gradientTransform="rotate(-11.536 59.693 -6.368)"><stop offset=".206" stop-color="#261c46"/><stop offset=".304" stop-color="#2b1c50"/><stop offset=".469" stop-color="#391c6a"/><stop offset=".682" stop-color="#501c95"/><stop offset=".931" stop-color="#6f1cd0"/><stop offset="1" stop-color="#781ce2"/></linearGradient><path fill="url(#e)" d="M55.608 32.85c-10.344 3.095-13.887 8.789-13.887 8.789-.713-1.911.945-4.197.945-4.197 3.161-4.479 8.36-6.81 11.983-7.953 0 0 1.66-.496 2.172 1.077.512 1.574-1.213 2.284-1.213 2.284z"/><linearGradient id="f" gradientUnits="userSpaceOnUse" x1="56.782" y1="36.02" x2="73.16" y2="36.02" gradientTransform="rotate(-11.536 59.693 -6.368)"><stop offset="0" stop-color="#781ce2"/><stop offset=".069" stop-color="#6f1cd0"/><stop offset=".318" stop-color="#501c95"/><stop offset=".531" stop-color="#391c6a"/><stop offset=".696" stop-color="#2b1c50"/><stop offset=".794" stop-color="#261c46"/></linearGradient><path fill="url(#f)" d="M66.336 31.341c5.889.008 13.806 1.416 16.556 8.583 0 0-1.547-5.595-8.127-9.722 0 0-3.098-2.006-8.694-2.298a2.146 2.146 0 00-1.35.371c-.349.246-.662.634-.643 1.231.043 1.324 1.236 1.843 2.258 1.835z"/><linearGradient id="g" gradientUnits="userSpaceOnUse" x1="50.882" y1="49.534" x2="73.665" y2="39.852" gradientTransform="rotate(-11.536 59.693 -6.368)"><stop offset="0" stop-color="#86ebcf"/><stop offset=".131" stop-color="#85d7d1"/><stop offset=".399" stop-color="#81a3d6"/><stop offset=".778" stop-color="#7c50dd"/><stop offset="1" stop-color="#781ce2"/></linearGradient><path fill="url(#g)" d="M64.659 47.379s9.001-2.422 12.474-8.108-1.629-8.82-2.367-9.07c0 0 4.685 2.11 7.766 8.517 3.082 6.407-4.575 14.113-15.334 17.454 0 0-5.696 2.078-6.739-3.029-1.02-4.996 4.2-5.764 4.2-5.764z"/><linearGradient id="h" gradientUnits="userSpaceOnUse" x1="38.481" y1="44.837" x2="28.322" y2="39.004" gradientTransform="rotate(-11.536 59.693 -6.368)"><stop offset="0" stop-color="#86ebcf"/><stop offset="1" stop-color="#781ce2"/></linearGradient><path fill="url(#h)" d="M45.957 46.838s2.761 1.476 2.256 5.164c-.505 3.688-2.991 3.28-3.993 2.856-1.002-.425-4.839-3.245-4.726-8.016 0 0 .269-4.288 3.172-9.4 0 0-3.816 5.127 3.291 9.396z"/><linearGradient id="i" gradientUnits="userSpaceOnUse" x1="28.311" y1="52.017" x2="41.182" y2="52.017" gradientTransform="rotate(-11.536 59.693 -6.368)"><stop offset="0" stop-color="#781ce2"/><stop offset="1" stop-color="#4e80e5"/></linearGradient><path fill="url(#i)" d="M39.51 47.563s-.631 4.668 1.756 10.473c0 0 2.123 4.403 9.277 6.259a5.477 5.477 0 001.783.178c1.114-.085 2.567-.56 2.387-2.49-.257-2.762-1.831-4.203-4.108-4.71-2.277-.508-10.603-2.451-11.095-9.71z"/><linearGradient id="j" gradientUnits="userSpaceOnUse" x1="54.439" y1="57.901" x2="76.778" y2="49.154" gradientTransform="rotate(-11.536 59.693 -6.368)"><stop offset=".041" stop-color="#4e80e5"/><stop offset=".85" stop-color="#781ce2"/></linearGradient><path fill="url(#j)" d="M71.091 54.72s-4.156 1.564-3.074 5.462 5.24 1.847 5.24 1.847 11.269-4.89 11.784-13.511c0 0 .121-3.897-2.263-9.306 0-.001 3.56 8.533-11.687 15.508z"/><linearGradient id="k" gradientUnits="userSpaceOnUse" x1="29.939" y1="60.82" x2="40.274" y2="58.756" gradientTransform="rotate(-11.536 59.693 -6.368)"><stop offset=".041" stop-color="#261c46"/><stop offset="1" stop-color="#781ce2"/></linearGradient><path fill="url(#k)" d="M41.265 58.036s3.082 6.693 15.747 7.272c0 0 1.407-.02 1.844 1.187.437 1.207-.66 1.622-1.511 1.567 0 0-8.2.038-13.575-5.578.001 0-1.857-2.685-2.505-4.448z"/><linearGradient id="l" gradientUnits="userSpaceOnUse" x1="66.712" y1="58.666" x2="74.74" y2="56.566" gradientTransform="rotate(-11.536 59.693 -6.368)"><stop offset="0" stop-color="#781ce2"/><stop offset=".959" stop-color="#261c46"/></linearGradient><path fill="url(#l)" d="M79.559 58.009s-.907.745-.667 1.782c.241 1.038.894 1.019 1.535.516.641-.503 3.481-3.626 4.199-6.791 0 0 .556-2.765.415-5.079.001-.001.323 4.938-5.482 9.572z"/></g></svg>