<svg id="Слой_1" data-name="Слой 1" xmlns="http://www.w3.org/2000/svg" viewBox="0 0 120 97"><defs><style>.cls-1{fill:#2438ff;}.cls-2{fill:#455aff;}.cls-3{fill:#d2d7ff;}</style></defs><polygon class="cls-1" points="35.15 41.27 60.66 18.69 60.66 30.47 35.15 53.04 35.15 41.27"/><polygon class="cls-2" points="50.85 41.27 76.37 18.69 76.37 30.47 50.85 53.04 50.85 41.27"/><polygon class="cls-3" points="66.55 41.27 92.07 18.69 92.07 30.47 66.55 53.04 66.55 41.27"/><path class="cls-1" d="M.18,62.39H3.05V74.76H.18Z"/><path class="cls-1" d="M17.11,62.39V74.76H14.76L8.59,67.25v7.51H5.77V62.39H8.13l6.15,7.51V62.39Z"/><path class="cls-1" d="M31.65,62.39,26.3,74.76H23.47L18.13,62.39h3.1L25,71.23l3.81-8.84Z"/><path class="cls-1" d="M42,72.46v2.3H32.46V62.39h9.35v2.3h-6.5v2.68h5.74V69.6H35.31v2.86Z"/><path class="cls-1" d="M43.13,73.54l1-2.16a7.3,7.3,0,0,0,4.08,1.29c1.7,0,2.39-.56,2.39-1.32,0-2.32-7.19-.72-7.19-5.32,0-2.1,1.69-3.85,5.21-3.85a8.2,8.2,0,0,1,4.29,1.1L52,65.45a6.92,6.92,0,0,0-3.43-1c-1.69,0-2.35.63-2.35,1.41,0,2.28,7.19.71,7.19,5.25,0,2.06-1.71,3.83-5.24,3.83A8.83,8.83,0,0,1,43.13,73.54Z"/><path class="cls-1" d="M57.55,64.72h-4V62.39H64.37v2.33h-4v10H57.55Z"/><path class="cls-1" d="M68.55,64.69V68h5.73v2.29H68.55v4.51H65.69V62.39H75v2.3Z"/><path class="cls-1" d="M76.77,62.39h2.86v10h6.2v2.33H76.77Z"/><path class="cls-1" d="M86.24,68.58c0-3.68,2.86-6.4,6.76-6.4s6.77,2.7,6.77,6.4S96.89,75,93,75,86.24,72.25,86.24,68.58Zm10.63,0a3.87,3.87,0,1,0-3.87,4A3.77,3.77,0,0,0,96.87,68.58Z"/><path class="cls-1" d="M120,62.39l-4,12.37h-3.07l-2.72-8.38-2.81,8.38h-3.06l-4.06-12.37h3L106,71.08l2.91-8.69h2.65l2.83,8.77,2.88-8.77Z"/></svg>