<svg xmlns="http://www.w3.org/2000/svg" width="120" height="97"><path d="M29.586 56.92l.801-11.347h3.504L33.09 56.92h-3.504zM34.425 56.92l.801-11.347h3.504l1.919 5.34h.033l.384-5.34h3.337l-.8 11.347h-3.504l-1.986-4.839h-.017l-.334 4.839h-3.337zM52.48 57.003h-5.056l-2.186-11.431h3.838l1.118 7.426h.033l2.186-7.426h3.838L52.48 57.003zM64.712 48.576h-4.339l-.083 1.085h3.571l-.2 3.004H60.09l-.083 1.252h4.339l-.217 3.004h-7.843l.801-11.347h7.843l-.218 3.002zM70.118 53.632a.404.404 0 00-.108-.284 1 1 0 00-.35-.217 7.894 7.894 0 00-.609-.217 22.324 22.324 0 01-.868-.3c-.801-.289-1.432-.723-1.894-1.302-.462-.578-.692-1.302-.692-2.169 0-.59.108-1.115.325-1.577.217-.461.52-.854.909-1.176a4 4 0 011.402-.734 6.192 6.192 0 011.819-.25c.59 0 1.185.028 1.786.083a8.976 8.976 0 011.819.367l-.167 2.553h-3.588c-.267 0-.437.05-.509.15a.494.494 0 00-.108.284.41.41 0 00.058.225.673.673 0 00.234.192c.117.067.281.139.492.217.211.078.495.167.851.267.912.278 1.621.687 2.128 1.227.506.54.759 1.26.759 2.161a3.93 3.93 0 01-.309 1.569 3.683 3.683 0 01-.884 1.252 4.08 4.08 0 01-1.402.834c-.551.2-1.176.3-1.877.3-.289 0-.617-.006-.985-.017a19.272 19.272 0 01-1.126-.067 14.967 14.967 0 01-1.135-.142 9.045 9.045 0 01-1.026-.225l.184-2.553h4.172c.267 0 .451-.042.551-.125a.41.41 0 00.148-.326zM80.731 48.576l-.584 8.344h-3.504l.584-8.344h-2.503l.217-3.004h8.51l-.217 3.004h-2.503z"/><g><linearGradient id="a" gradientUnits="userSpaceOnUse" x1="87.402" y1="56.257" x2="88.215" y2="43.131"><stop offset="0" stop-color="#93630f"/><stop offset="1" stop-color="#fef7a2"/></linearGradient><path fill="url(#a)" d="M91.817 48.576h-4.339l-.117 1.752H91.1l-.217 3.004h-3.738l-.25 3.588H83.39l.801-11.347h7.843l-.217 3.003z"/><linearGradient id="b" gradientUnits="userSpaceOnUse" x1="96.212" y1="56.802" x2="97.025" y2="43.677"><stop offset="0" stop-color="#93630f"/><stop offset="1" stop-color="#fef7a2"/></linearGradient><path fill="url(#b)" d="M100.662 48.576h-4.339l-.083 1.085h3.571l-.2 3.004H96.04l-.083 1.252h4.339l-.217 3.004h-7.843l.801-11.347h7.843l-.218 3.002z"/><linearGradient id="c" gradientUnits="userSpaceOnUse" x1="105.189" y1="57.358" x2="106.002" y2="44.233"><stop offset="0" stop-color="#93630f"/><stop offset="1" stop-color="#fef7a2"/></linearGradient><path fill="url(#c)" d="M109.673 48.576h-4.339l-.083 1.085h3.571l-.2 3.004h-3.571l-.083 1.252h4.339l-.217 3.004h-7.843l.801-11.347h7.843l-.218 3.002z"/><linearGradient id="d" gradientUnits="userSpaceOnUse" x1="114.897" y1="57.96" x2="115.71" y2="44.834"><stop offset="0" stop-color="#93630f"/><stop offset="1" stop-color="#fef7a2"/></linearGradient><path fill="url(#d)" d="M110.256 56.92l.801-11.347h4.422c.912 0 1.663.142 2.253.426.59.284 1.054.657 1.393 1.118.339.462.576.987.709 1.577s.2 1.196.2 1.819c0 .49-.025.987-.075 1.494a8.48 8.48 0 01-.275 1.468 5.825 5.825 0 01-.567 1.343c-.245.423-.567.79-.968 1.101-.4.312-.884.556-1.452.734-.567.178-1.241.267-2.019.267h-4.422zm4.139-3.004c.4 0 .726-.075.976-.225.25-.15.448-.367.592-.651.144-.284.245-.628.3-1.035.056-.406.083-.859.083-1.36 0-.267-.02-.526-.058-.776a1.823 1.823 0 00-.234-.667 1.237 1.237 0 00-.484-.459c-.206-.111-.476-.167-.809-.167h-.417l-.367 5.34h.418z"/></g><g><linearGradient id="e" gradientUnits="userSpaceOnUse" x1="-5.794" y1="55.721" x2="22.219" y2="24.632"><stop offset="0" stop-color="#93630f"/><stop offset="1" stop-color="#fef7a2"/></linearGradient><path fill-rule="evenodd" clip-rule="evenodd" fill="url(#e)" d="M9.544 33.898v14.908l-3.628 2.44V32.617z"/><linearGradient id="f" gradientUnits="userSpaceOnUse" x1="6.282" y1="66.603" x2="34.296" y2="35.513"><stop offset="0" stop-color="#93630f"/><stop offset="1" stop-color="#fef7a2"/></linearGradient><path fill-rule="evenodd" clip-rule="evenodd" fill="url(#f)" d="M23.185 51.85a6.805 6.805 0 01-2.127 4.95 6.804 6.804 0 01-5.757 1.789 6.8 6.8 0 01-3.629-1.79 6.798 6.798 0 01-2.044-3.879l-3.356 1.645a10.455 10.455 0 005.401 6.623 10.371 10.371 0 004.693 1.111 10.377 10.377 0 004.693-1.111 10.428 10.428 0 002.127-1.421 10.423 10.423 0 003.63-7.917v-7.352l-3.63 1.778v5.574z"/><linearGradient id="g" gradientUnits="userSpaceOnUse" x1="-3.074" y1="58.172" x2="24.94" y2="27.083"><stop offset="0" stop-color="#93630f"/><stop offset="1" stop-color="#fef7a2"/></linearGradient><path fill-rule="evenodd" clip-rule="evenodd" fill="url(#g)" d="M15.301 35.929v9.01l-3.629 2.439V34.649z"/><linearGradient id="h" gradientUnits="userSpaceOnUse" x1="4.976" y1="65.426" x2="32.99" y2="34.337"><stop offset="0" stop-color="#93630f"/><stop offset="1" stop-color="#fef7a2"/></linearGradient><path fill-rule="evenodd" clip-rule="evenodd" fill="url(#h)" d="M21.059 47.319v4.532a4.697 4.697 0 01-3.631 4.572 4.793 4.793 0 01-2.127 0 4.694 4.694 0 01-3.627-4.504l3.628-1.779v1.711a1.064 1.064 0 002.126-.001v-2.753l1.201-.588 2.43-1.19z"/><linearGradient id="i" gradientUnits="userSpaceOnUse" x1="-.339" y1="60.637" x2="27.675" y2="29.548"><stop offset="0" stop-color="#93630f"/><stop offset="1" stop-color="#fef7a2"/></linearGradient><path fill-rule="evenodd" clip-rule="evenodd" fill="url(#i)" d="M22.538 38.462l-1.453.698v1.911l-2.456 1.65-1.175.788V36.68l1.175.411z"/><linearGradient id="j" gradientUnits="userSpaceOnUse" x1="0" y1="46.835" x2="32.552" y2="46.835"><stop offset="0" stop-color="#93630f"/><stop offset="1" stop-color="#fef7a2"/></linearGradient><path fill-rule="evenodd" clip-rule="evenodd" fill="url(#j)" d="M32.552 37.799l-5.011 7.682-.246-2.693L14.861 49.1.096 55.827 0 55.87l13.805-8.721 11.974-7.026-3.032-1.482z"/><linearGradient id="k" gradientUnits="userSpaceOnUse" x1="6.429" y1="24.939" x2="6.83" y2="63.75"><stop offset="0" stop-color="#93630f"/><stop offset="1" stop-color="#fef7a2" stop-opacity="0"/></linearGradient><path fill-rule="evenodd" clip-rule="evenodd" fill="url(#k)" d="M7.298 33.105v17.213l-1.382.928V32.617z"/><linearGradient id="l" gradientUnits="userSpaceOnUse" x1="11.317" y1="24.889" x2="11.719" y2="63.7"><stop offset="0" stop-color="#93630f"/><stop offset="1" stop-color="#fef7a2" stop-opacity="0"/></linearGradient><path fill-rule="evenodd" clip-rule="evenodd" fill="url(#l)" d="M17.056 62.277a10.383 10.383 0 01-1.754-.03 10.448 10.448 0 01-5.757-2.479 10.466 10.466 0 01-3.273-5.203l1.284-.63c.037.187.08.397.131.614 0 0 .16.669.279.985 0 .004.003.009.004.013.111.293.236.58.371.86l.008.014a10.515 10.515 0 002.578 3.347c.646.555 1.36 1.034 2.128 1.421a10.384 10.384 0 004.001 1.088z"/><defs><filter id="m" filterUnits="userSpaceOnUse" x="17.056" y="44.499" width="9.76" height="14.172"><feFlood result="back" flood-color="#fff" flood-opacity="1"/><feBlend in="SourceGraphic" in2="back"/></filter></defs><mask maskUnits="userSpaceOnUse" x="17.056" y="44.499" width="9.76" height="14.172" id="n"><g filter="url(#m)"><linearGradient id="o" gradientUnits="userSpaceOnUse" x1="24.549" y1="48.993" x2="19.802" y2="56.481"><stop offset="0"/><stop offset="1" stop-color="#fff"/></linearGradient><path mask="url(#n)" fill-rule="evenodd" clip-rule="evenodd" fill="url(#o)" d="M26.815 44.499v.677l-2.248 1.101v5.574a6.798 6.798 0 01-2.128 4.949 6.809 6.809 0 01-5.383 1.836 6.805 6.805 0 004.002-1.836 6.806 6.806 0 002.126-4.949v-5.574l3.631-1.778z"/></g></mask><linearGradient id="p" gradientUnits="userSpaceOnUse" x1="17.709" y1="57.98" x2="26.467" y2="47.015"><stop offset="0" stop-color="#93630f"/><stop offset="1" stop-color="#fef7a2" stop-opacity="0"/></linearGradient><path fill-rule="evenodd" clip-rule="evenodd" fill="url(#p)" d="M26.815 44.499v.677l-2.248 1.101v5.574a6.798 6.798 0 01-2.128 4.949 6.809 6.809 0 01-5.383 1.836 6.805 6.805 0 004.002-1.836 6.806 6.806 0 002.126-4.949v-5.574l3.631-1.778z"/><linearGradient id="q" gradientUnits="userSpaceOnUse" x1="24.279" y1="29.649" x2="8.5" y2="58.665"><stop offset="0" stop-color="#93630f"/><stop offset="1" stop-color="#fef7a2"/></linearGradient><path fill-rule="evenodd" clip-rule="evenodd" fill="url(#q)" d="M17.428 36.68v6.83l3.631-2.439V39.16l1.454-.698z"/><linearGradient id="r" gradientUnits="userSpaceOnUse" x1="12.235" y1="32.357" x2="12.77" y2="54.019"><stop offset="0" stop-color="#93630f"/><stop offset="1" stop-color="#fef7a2" stop-opacity="0"/></linearGradient><path fill-rule="evenodd" clip-rule="evenodd" fill="url(#r)" d="M13.214 35.185V46.36l-1.516 1.018V34.649z"/><linearGradient id="s" gradientUnits="userSpaceOnUse" x1="13.073" y1="49.751" x2="14.811" y2="55.857"><stop offset="0" stop-color="#93630f"/><stop offset="1" stop-color="#fef7a2" stop-opacity="0"/></linearGradient><path fill-rule="evenodd" clip-rule="evenodd" fill="url(#s)" d="M17.149 56.482a4.793 4.793 0 01-1.822-.058 4.695 4.695 0 01-3.628-4.504l1.511-.741c-.089.702.067 1.473.117 1.693l.014.062a4.7 4.7 0 003.502 3.491c.101.021.203.041.306.057z"/><defs><filter id="t" filterUnits="userSpaceOnUse" x="0" y="40.123" width="26.68" height="15.747"><feFlood result="back" flood-color="#fff" flood-opacity="1"/><feBlend in="SourceGraphic" in2="back"/></filter></defs><mask maskUnits="userSpaceOnUse" x="0" y="40.123" width="26.68" height="15.747" id="u"><g filter="url(#t)"><linearGradient id="v" gradientUnits="userSpaceOnUse" x1="31.097" y1="37.429" x2="-5.475" y2="59.091"><stop offset="0" stop-color="#fff"/><stop offset=".115" stop-color="#c8c8c8"/><stop offset=".242" stop-color="#949494"/><stop offset=".371" stop-color="#676767"/><stop offset=".499" stop-color="#424242"/><stop offset=".626" stop-color="#252525"/><stop offset=".752" stop-color="#101010"/><stop offset=".877" stop-color="#040404"/><stop offset="1"/></linearGradient><path mask="url(#u)" fill-rule="evenodd" clip-rule="evenodd" fill="url(#v)" d="M26.68 40.566L.096 55.827 0 55.87l13.805-8.721 11.974-7.026z"/></g></mask><linearGradient id="w" gradientUnits="userSpaceOnUse" x1="26.051" y1="39.967" x2="13.949" y2="47.823"><stop offset="0" stop-color="#93630f"/><stop offset="1" stop-color="#fef7a2" stop-opacity="0"/></linearGradient><path fill-rule="evenodd" clip-rule="evenodd" fill="url(#w)" d="M26.68 40.566L.096 55.827 0 55.87l13.805-8.721 11.974-7.026z"/><defs><filter id="x" filterUnits="userSpaceOnUse" x="22.747" y="37.799" width="9.805" height="1.638"><feFlood result="back" flood-color="#fff" flood-opacity="1"/><feBlend in="SourceGraphic" in2="back"/></filter></defs><mask maskUnits="userSpaceOnUse" x="22.747" y="37.799" width="9.805" height="1.638" id="y"><g filter="url(#x)"><linearGradient id="z" gradientUnits="userSpaceOnUse" x1="31.684" y1="37.816" x2="9.654" y2="43.466"><stop offset="0" stop-color="#fff"/><stop offset=".115" stop-color="#c8c8c8"/><stop offset=".242" stop-color="#949494"/><stop offset=".371" stop-color="#676767"/><stop offset=".499" stop-color="#424242"/><stop offset=".626" stop-color="#252525"/><stop offset=".752" stop-color="#101010"/><stop offset=".877" stop-color="#040404"/><stop offset="1"/></linearGradient><path mask="url(#y)" fill-rule="evenodd" clip-rule="evenodd" fill="url(#z)" d="M25.165 39.194l2.44.901-.925.471-3.933-1.925 9.805-.842z"/></g></mask><linearGradient id="A" gradientUnits="userSpaceOnUse" x1="30.113" y1="38.527" x2="23.494" y2="38.894"><stop offset="0" stop-color="#93630f"/><stop offset="1" stop-color="#fef7a2" stop-opacity="0"/></linearGradient><path fill-rule="evenodd" clip-rule="evenodd" fill="url(#A)" d="M24.374 39.437l-1.627-.796 9.805-.842z"/><defs><filter id="B" filterUnits="userSpaceOnUse" x="16.874" y="48.509" width="1.754" height="4.275"><feFlood result="back" flood-color="#fff" flood-opacity="1"/><feBlend in="SourceGraphic" in2="back"/></filter></defs><mask maskUnits="userSpaceOnUse" x="16.874" y="48.509" width="1.754" height="4.275" id="C"><g filter="url(#B)"><linearGradient id="D" gradientUnits="userSpaceOnUse" x1="22.235" y1="42.298" x2="15.596" y2="54.508"><stop offset="0"/><stop offset="1" stop-color="#fff"/></linearGradient><path mask="url(#C)" fill-rule="evenodd" clip-rule="evenodd" fill="url(#D)" d="M18.629 48.509v1.734c0 1.972-1.754 2.541-1.754 2.541.33-.181.554-.532.554-.934v-2.753l1.2-.588z"/></g></mask><linearGradient id="E" gradientUnits="userSpaceOnUse" x1="17.752" y1="52.117" x2="17.752" y2="46.724"><stop offset="0" stop-color="#93630f"/><stop offset="1" stop-color="#fef7a2" stop-opacity="0"/></linearGradient><path fill-rule="evenodd" clip-rule="evenodd" fill="url(#E)" d="M18.629 48.509v1.734c0 1.972-1.754 2.541-1.754 2.541.33-.181.554-.532.554-.934v-2.753l1.2-.588z"/><defs><filter id="F" filterUnits="userSpaceOnUse" x="17.454" y="36.68" width="1.174" height="6.829"><feFlood result="back" flood-color="#fff" flood-opacity="1"/><feBlend in="SourceGraphic" in2="back"/></filter></defs><mask maskUnits="userSpaceOnUse" x="17.454" y="36.68" width="1.174" height="6.829" id="G"><g filter="url(#F)"><linearGradient id="H" gradientUnits="userSpaceOnUse" x1="23.899" y1="28.928" x2="14.939" y2="45.406"><stop offset="0"/><stop offset="1" stop-color="#fff"/></linearGradient><path mask="url(#G)" fill-rule="evenodd" clip-rule="evenodd" fill="url(#H)" d="M18.629 37.091v5.63l-1.175.788V36.68z"/></g></mask><linearGradient id="I" gradientUnits="userSpaceOnUse" x1="18.051" y1="36.385" x2="18.029" y2="44.207"><stop offset="0" stop-color="#93630f"/><stop offset="1" stop-color="#fef7a2" stop-opacity="0"/></linearGradient><path fill-rule="evenodd" clip-rule="evenodd" fill="url(#I)" d="M18.629 37.091v5.63l-1.175.788V36.68z"/><path fill="none" d="M32.552 37.799l-9.643 1.827"/></g></svg>