<?xml version="1.0" encoding="UTF-8"?>
<svg width="120px" height="97px" viewBox="0 0 120 97" version="1.1" xmlns="http://www.w3.org/2000/svg" xmlns:xlink="http://www.w3.org/1999/xlink">
    <!-- Generator: Sketch 53.2 (72643) - https://sketchapp.com -->
    <title>BO_Brand_logo</title>
    <desc>Created with Sketch.</desc>
    <g id="BO_Brand_logo" stroke="none" stroke-width="1" fill="none" fill-rule="evenodd">
        <g id="Group-2-Copy" transform="translate(30.000000, 2.000000)" fill-rule="nonzero">
            <path d="M12.1906279,93.1202234 L1.03026542,93.1202234 L1.03026542,21.23289 C5.46664931,21.23289 9.84171623,21.0975567 14.1918521,21.3255567 C15.3198148,21.3842234 16.6660929,22.3895567 17.4106561,23.2815567 C25.6850781,33.1915567 34.9621336,47.1915567 43.1503075,57.15689 C43.6974435,57.8222234 43.4609352,60.34289 43.4777805,61.0655567 C43.5963716,66.11289 43.4872139,69.3095567 43.4872139,75.5102234 C33.0687194,62.8515567 23.3058449,47.06289 13.5577942,35.2202234 L12.1906279,35.43089 L12.1906279,93.1202234 L12.1906279,93.1202234 Z M57.2336701,93.2675567 L46.1393414,93.2675567 L46.1393414,21.3422234 L57.2336701,21.3422234 L57.2336701,93.2675567 Z" id="Shape" fill="#FD5F00"></path>
            <path d="M13.3826028,6.54089004 C13.410903,11.3935567 11.5693724,13.2702234 6.76306526,13.2862234 C1.89409351,13.3022234 0.00404842863,11.4575567 5.55144953e-06,6.68289004 C-0.00403732573,2.17355671 2.20000455,0.0542233755 6.94903761,0.000890042205 C11.3887906,-0.0484432911 13.3563241,1.95089004 13.3826028,6.54089004 L13.3826028,6.54089004 Z M12.5592035,93.1995567 L0.430571971,93.1995567 L0.430571971,21.1995567 L8.90579016,21.1995567 L12.6225419,21.2582234 L12.5592035,93.1995567 Z" id="Shape" fill="#05004E"></path>
        </g>
    </g>
</svg>