<?xml version="1.0" encoding="utf-8"?>
<!-- Generator: Adobe Illustrator 23.0.1, SVG Export Plug-In . SVG Version: 6.00 Build 0)  -->
<svg version="1.1" id="Слой_1" xmlns="http://www.w3.org/2000/svg" xmlns:xlink="http://www.w3.org/1999/xlink" x="0px" y="0px"
	 viewBox="0 0 120 97" style="enable-background:new 0 0 120 97;" xml:space="preserve">
<style type="text/css">
	.st0{fill:#EC3243;}
	.st1{fill:#03519F;}
	.st2{enable-background:new    ;}
	.st3{fill:#1D3765;}
</style>
<g>
	<path class="st0" d="M61.3,43.2h-2.7V30.9h2.7V43.2z"/>
	<path class="st0" d="M74.2,30.9v11.4c0,0.7-0.3,1-1,1h-1.7c-0.3,0-0.5-0.1-0.6-0.2c-0.2-0.1-0.3-0.3-0.4-0.6l-3.2-6.6
		c-0.4-0.9-0.7-1.5-0.8-1.9h-0.2c0.1,0.6,0.1,1.3,0.1,2v7.3h-2.6V31.9c0-0.7,0.3-1,1-1h1.7c0.3,0,0.5,0.1,0.6,0.2
		c0.2,0.1,0.3,0.3,0.4,0.6l3.1,6.4c0.3,0.6,0.6,1.3,0.9,2h0.2c-0.1-0.9-0.1-1.6-0.1-2.1v-7.1H74.2z"/>
	<path class="st0" d="M86.7,30.9l-3.3,11.6c-0.1,0.2-0.2,0.4-0.3,0.5c-0.2,0.1-0.4,0.2-0.6,0.2h-2.5c-0.2,0-0.4-0.1-0.6-0.2
		c-0.2-0.1-0.3-0.3-0.3-0.5l-3.4-11.6h2.8l2.2,8.9c0.1,0.5,0.2,0.9,0.3,1.4h0.4c0-0.2,0.1-0.7,0.3-1.4l2.2-8.9H86.7z"/>
	<path class="st0" d="M96.3,41.1l0.1,2c-1.1,0.1-3,0.2-5.7,0.2c-0.8,0-1.5-0.2-2-0.7c-0.5-0.4-0.7-1.1-0.8-1.8v-7.5
		c0-0.8,0.3-1.4,0.8-1.8c0.5-0.4,1.1-0.7,2-0.7c2.7,0,4.6,0.1,5.7,0.2l-0.1,2h-4.7c-0.3,0-0.5,0.1-0.6,0.2c-0.1,0.1-0.2,0.4-0.2,0.7
		v1.9h4.9v2h-4.9v2.4c0,0.3,0.1,0.6,0.2,0.7c0.1,0.1,0.3,0.2,0.6,0.2H96.3z"/>
	<path class="st0" d="M103,38.6l-2.5-0.9c-0.9-0.3-1.6-0.8-2-1.4c-0.4-0.6-0.6-1.3-0.6-2.3c0-1.4,0.3-2.3,1-2.7
		c0.7-0.5,1.8-0.7,3.5-0.7c1.6,0,2.9,0.2,4.1,0.5l-0.2,1.9c-1,0-2.3-0.1-3.9-0.1c-0.7,0-1.2,0.1-1.4,0.2c-0.2,0.1-0.4,0.4-0.4,0.9
		c0,0.4,0.1,0.7,0.3,0.9c0.2,0.2,0.5,0.4,1,0.5l2.3,0.8c1,0.3,1.6,0.8,2,1.4c0.4,0.6,0.6,1.3,0.6,2.3c0,1.4-0.3,2.3-1,2.8
		c-0.7,0.5-1.9,0.7-3.6,0.7c-1.4,0-2.8-0.2-4.2-0.5l0.2-2c2.5,0.1,3.9,0.1,4.1,0.1c0.7,0,1.2-0.1,1.5-0.2c0.2-0.2,0.4-0.5,0.4-1
		c0-0.4-0.1-0.7-0.3-0.9C103.7,38.9,103.4,38.7,103,38.6z"/>
	<path class="st0" d="M118,33.1h-3.7v10.1h-2.7V33.1h-3.7v-2.2H118V33.1z"/>
	<path class="st1" d="M65.3,55.4h-4.2l-0.9,3.2h-2.8L60.9,47c0-0.2,0.2-0.4,0.3-0.5c0.2-0.1,0.4-0.2,0.6-0.2h2.6
		c0.5,0,0.8,0.2,0.9,0.7L69,58.6h-2.8L65.3,55.4z M64.7,53.3l-1-3.8c-0.1-0.6-0.2-1-0.3-1.2h-0.5c0,0.1-0.1,0.3-0.1,0.6
		c-0.1,0.3-0.1,0.5-0.1,0.6l-1,3.8H64.7z"/>
	<path class="st1" d="M78.6,56.3l0.2,2c-1.1,0.3-2.4,0.5-4,0.5c-1.9,0-3.2-0.5-4-1.4c-0.8-1-1.2-2.6-1.2-5s0.4-4,1.2-5
		c0.8-1,2.1-1.4,4-1.4c1.4,0,2.6,0.1,3.7,0.4l-0.2,2c-1-0.1-2.1-0.1-3.5-0.1c-0.9,0-1.5,0.3-1.8,0.8c-0.3,0.6-0.5,1.6-0.5,3.2
		c0,1.5,0.2,2.6,0.5,3.2c0.3,0.6,0.9,0.8,1.8,0.8C76.5,56.5,77.8,56.4,78.6,56.3z"/>
	<path class="st1" d="M89.8,48.5h-3.7v10.1h-2.7V48.5h-3.7v-2.2h10.1V48.5z"/>
	<path class="st1" d="M94.1,58.6h-2.7V46.3h2.7V58.6z"/>
	<path class="st1" d="M106.6,46.3l-3.3,11.6c-0.1,0.2-0.2,0.4-0.3,0.5c-0.2,0.1-0.4,0.2-0.6,0.2h-2.5c-0.2,0-0.4-0.1-0.6-0.2
		c-0.2-0.1-0.3-0.3-0.3-0.5l-3.4-11.6h2.8l2.2,8.9c0.1,0.5,0.2,0.9,0.3,1.4h0.4c0-0.2,0.1-0.7,0.3-1.4l2.2-8.9H106.6z"/>
	<path class="st1" d="M116.1,56.5l0.1,2c-1.1,0.1-3,0.2-5.7,0.2c-0.8,0-1.5-0.2-2-0.7c-0.5-0.4-0.7-1.1-0.8-1.8v-7.5
		c0-0.8,0.3-1.4,0.8-1.8c0.5-0.4,1.1-0.7,2-0.7c2.7,0,4.6,0.1,5.7,0.2l-0.1,2h-4.7c-0.3,0-0.5,0.1-0.6,0.2c-0.1,0.1-0.2,0.4-0.2,0.7
		v1.9h4.9v2h-4.9v2.4c0,0.3,0.1,0.6,0.2,0.7c0.1,0.1,0.3,0.2,0.6,0.2H116.1z"/>
</g>
<g>
	<g>
		<g class="st2">
			<g>
				<g>
					<path class="st3" d="M44.3,58.5c-2.7-0.5-5.2-2-8.2-13.9c-3-12-5.4-14.2-8.1-14.5h7.5c2.7,0.3,5.1,2.6,8.2,14.6
						c3,11.8,5.4,13.4,8.1,13.8H44.3"/>
				</g>
			</g>
		</g>
	</g>
	<g>
		<g>
			<g class="st2">
				<g>
					<g>
						<path class="st0" d="M30.1,34.7c0.3,1.4,0.7,3.2,1.7,5.6c3.2,8.2,13.2,9.9,16.9,10.6c-4.7,0.4-8,0-8,0c-0.3,0-0.6-0.1-1-0.1
							c-3.9-0.5-13-3-15.9-10.5c-3.2-8.3,3.9-4.7,1-4.9L30.1,34.7z"/>
					</g>
				</g>
			</g>
		</g>
	</g>
	<g>
		<g class="st2">
			<g>
				<g>
					<path class="st1" d="M19.1,58.5c2.7-0.5,5.2-2,8.2-13.9c3-12,5.5-14.2,8.2-14.5h-7.5c-2.7,0.3-5.1,2.6-8.2,14.6
						c-3,11.8-5.4,13.4-8.1,13.8H19.1"/>
				</g>
			</g>
		</g>
	</g>
	<g>
		<path class="st0" d="M21.9,37.4c2.1-5.7,3.9-7,6-7.2h-7.5c-2,0.2-3.9,1.6-6,7.2H21.9z"/>
		<path class="st0" d="M13.6,39.9c-0.4,1.4-0.9,3-1.4,4.8C9.2,56.5,6.7,58.1,4,58.5h7.5c2.7-0.5,5.2-2,8.2-13.9
			c0.5-1.8,0.9-3.4,1.3-4.8H13.6z"/>
	</g>
</g>
</svg>
