<?xml version="1.0" encoding="UTF-8"?>
<svg width="120px" height="97px" viewBox="0 0 120 97" version="1.1" xmlns="http://www.w3.org/2000/svg" xmlns:xlink="http://www.w3.org/1999/xlink">
    <!-- Generator: Sketch 54.1 (76490) - https://sketchapp.com -->
    <title>BO_Brand_logo</title>
    <desc>Created with Sketch.</desc>
    <g id="BO_Brand_logo" stroke="none" stroke-width="1" fill="none" fill-rule="evenodd">
        <path d="M60,95 C34.0427436,95 13,73.9572564 13,48 C13,22.0427436 34.0427436,1 60,1 C85.9572564,1 107,22.0427436 107,48 C107,73.9572564 85.9572564,95 60,95 Z M66.7589615,31.9699872 C64.6677583,31.1234581 62.4325961,30.6892752 60.1765513,30.6913462 C57.9054872,30.6913462 55.6916667,31.1203718 53.594141,31.9705897 C51.4263854,32.8464779 49.4581338,34.1516769 47.8077179,35.8077179 C46.151509,37.4583505 44.8461152,39.4267916 43.9699872,41.5947436 C43.1230665,43.6856202 42.6888671,45.9206626 42.6913462,48.1765513 C42.6895079,50.432516 43.1234703,52.6675962 43.9693846,54.7589615 C44.845573,56.927027 46.1511891,58.8954944 47.8077179,60.5459872 C49.4580257,62.2023094 51.4262952,63.5077252 53.594141,64.3837179 C55.6853766,65.23007 57.9205431,65.6640492 60.1765513,65.6617564 C64.8156317,65.6685796 69.2664532,63.8277127 72.5453846,60.5459872 C74.2014849,58.8953754 75.5070453,56.927197 76.3837179,54.7595641 C77.2304095,52.6682186 77.6644001,50.4327883 77.6617564,48.1765513 C77.6617564,45.9048846 77.2315256,43.689859 76.3831154,41.594141 C75.5073749,39.4263077 74.2021573,37.458028 72.5459872,35.8077179 C70.8955473,34.1511246 68.9270659,32.8454992 66.7589615,31.9693846 L66.7589615,31.9699872 Z M48.5555,52.9030641 C47.9464194,51.4018502 47.6347455,49.7966171 47.6377949,48.1765513 C47.6348501,46.556416 47.9460947,44.9510815 48.5542949,43.4494359 C49.1826095,41.8968887 50.1180099,40.4872296 51.3043974,39.305 C52.4867988,38.1181064 53.8969167,37.1824686 55.4500385,36.5542949 C56.9512803,35.9460854 58.5561835,35.6346405 60.1759487,35.6371923 C63.503472,35.6316111 66.6961628,36.9517077 69.0481026,39.3056026 C71.4021416,41.6571023 72.7219142,44.8498415 72.7153077,48.1771538 C72.7188995,49.797018 72.4074161,51.4021194 71.7982051,52.9030641 C71.1707147,54.4562231 70.2352157,55.8662356 69.0481026,57.0481026 C67.8659423,58.235141 66.4557498,59.1706234 64.9024615,59.7982051 C63.4016399,60.4078304 61.7964563,60.7193298 60.1765513,60.7153077 C58.5436026,60.7165128 56.9528333,60.4067949 55.450641,59.7988077 C53.8993203,59.1675261 52.490588,58.2311034 51.3080128,57.0450897 C50.1222827,55.8626367 49.1860712,54.4541188 48.5548974,52.9030641 L48.5555,52.9030641 Z M71.1311667,21.2600128 C67.6331267,19.8319366 63.8921908,19.0929155 60.1138846,19.0835513 C56.3456921,19.0645612 52.6096918,19.7777492 49.1134744,21.1834872 C45.4954656,22.6351912 42.2105715,24.8076946 39.4585897,27.568859 C36.6807692,30.3466795 34.5320256,33.5945 33.0762308,37.2201282 C31.9811176,39.9454529 31.3065775,42.821391 31.0757179,45.7494231 L19.4088718,45.7144744 C19.360542,46.5365002 19.335626,47.3597354 19.3341538,48.1831795 C19.3479472,53.4625662 20.3822444,58.6895013 22.3801154,63.5762821 C24.4553462,68.6571026 27.4934744,73.2161026 31.4077308,77.130359 C35.3219872,81.0446154 39.8809872,84.082141 44.9624103,86.1579744 C49.8489113,88.1560755 55.0756947,89.1903832 60.3549103,89.2039359 C65.6635,89.2214103 70.8335,88.2338077 75.7263205,86.2628205 C78.4564696,85.1608171 81.0574397,83.7625331 83.4825256,82.0930769 L79.881,78.4915513 C77.9727333,79.7330653 75.9487125,80.7868476 73.8372821,81.638141 C69.5428077,83.3687051 65.0006795,84.2357949 60.3380385,84.2195256 C55.7016376,84.2082197 51.1111778,83.3003583 46.8195128,81.5459487 C42.3623462,79.7256026 38.3583077,77.0574487 34.9194744,73.6186154 C31.480641,70.1797821 28.8136923,66.1769487 26.992141,61.7191795 C25.5603852,58.2080573 24.6932184,54.4924997 24.4228077,50.7103333 L36.0980897,50.7615513 C36.0088025,49.9240868 35.962144,49.082625 35.9582949,48.2404231 C35.9420615,45.1112276 36.5343213,42.0087194 37.7021154,39.1055513 C38.9053476,36.1068098 40.706423,33.3843875 42.995641,31.1041026 C45.2768104,28.8145325 48.0000071,27.0130773 50.9995,25.8093718 C53.9018033,24.6417624 57.003645,24.0502922 60.1319615,24.0679615 C63.2685024,24.0735432 66.3742708,24.6865938 69.2776795,25.8732436 C69.9182051,26.1323462 70.5406538,26.4251923 71.1516538,26.7385256 L74.8110256,23.0791538 C73.6288399,22.3871399 72.3993787,21.7792553 71.1317692,21.2600128 L71.1311667,21.2600128 Z M88.9827308,19.2607051 C85.0949872,15.372359 80.5588846,12.3625513 75.4997564,10.3168462 C70.6147692,8.3404359 65.452,7.34258974 60.1560641,7.34861538 C54.893248,7.34759057 49.6802684,8.36812639 44.8063462,10.3536026 C39.7436026,12.4107564 35.2002692,15.4308077 31.3022821,19.3293974 C27.4048974,23.2261795 24.383641,27.7707179 22.3264872,32.8334615 C21.2897037,35.3866109 20.5148492,38.0384385 20.0138462,40.748141 L25.0838205,40.7421154 C25.5206243,38.6762578 26.1390488,36.6530198 26.9318846,34.6959872 C28.7371667,30.2526795 31.3902564,26.2637051 34.8134231,22.8405385 C38.2371923,19.4167692 42.2255641,16.7642821 46.6688718,14.959 C50.9498194,13.2157078 55.5283495,12.3196059 60.150641,12.3203718 C64.7689086,12.308508 69.345534,13.1935869 73.6263846,14.9264615 C77.2899744,16.4087692 80.6366154,18.4773718 83.6181026,21.0732179 L75.3822564,29.3090641 C76.0337421,29.83762 76.6572373,30.3997713 77.2502051,30.9932308 C79.5387747,33.2732987 81.3417492,35.9933387 82.550359,38.9892564 C83.7221023,41.8856466 84.3194825,44.9822413 84.3092436,48.1066538 C84.3103865,51.233146 83.706142,54.3302827 82.5298718,57.2270641 C82.2690426,57.8616593 81.9821797,58.4852394 81.6700128,59.0962179 L85.3293846,62.7549872 C86.0176018,61.5764754 86.6212817,60.3505903 87.1358718,59.0865769 C88.5537854,55.5974812 89.2826459,51.8668289 89.2822051,48.1006282 C89.2915409,44.3373774 88.5712448,40.6080033 87.1611795,37.1188974 C86.0129966,34.2752555 84.4173342,31.6335839 82.4346667,29.294 L90.6638846,21.0569487 C90.1212959,20.4419852 89.560667,19.8431773 88.9827308,19.2613077 L88.9827308,19.2607051 Z M90.2173846,28.6504615 C91.4632685,30.5589114 92.5226368,32.5828093 93.3808462,34.6941795 C95.1212892,38.9763437 96.0147161,43.5554126 96.011641,48.1777564 C96.0221474,52.7983258 95.1339502,57.3768391 93.3965128,61.6583205 C91.9154204,65.3138785 89.8335867,68.6960946 87.2371026,71.6651026 L79.0090897,63.4232308 C78.4801131,64.0751141 77.9177721,64.6991999 77.3243205,65.2929872 C75.0427897,67.5829476 72.32142,69.3874922 69.3240769,70.5979615 C66.4261926,71.7703738 63.3285201,72.3699365 60.2024615,72.3634744 C57.0751354,72.3673672 53.9767544,71.764512 51.0790385,70.5883205 C48.0794425,69.3731216 45.3559237,67.5650936 43.0715641,65.2725 C40.778738,62.9879766 38.970506,60.2642542 37.755141,57.2644231 C37.5382179,56.7257308 37.346,56.1798077 37.1682436,55.6308718 L31.9861923,55.6272564 C32.2980559,56.8175591 32.6856925,57.9867081 33.1467308,59.1275513 C34.6123591,62.7454333 36.7925046,66.0306122 39.5568077,68.7866538 C42.3128258,71.551135 45.5980002,73.7314825 49.2159103,75.1973333 C52.7065766,76.6135996 56.4384389,77.340615 60.2054744,77.3382436 C63.9708597,77.3450805 67.7018661,76.6219204 71.1920256,75.2087821 C74.0365358,74.0592847 76.6789837,72.4624244 79.0193333,70.4786538 L87.2551795,78.7066667 C87.8709856,78.1631084 88.4705976,77.6014745 89.0532308,77.0225 C92.9457949,73.1299359 95.9574103,68.5896154 98.0073333,63.5298846 C99.9845961,58.6548484 100.995955,53.4421161 100.985205,48.1813718 C100.989094,42.9179809 99.9716413,37.7038409 97.9892564,32.8280385 C96.878077,30.0979378 95.4717749,27.4974912 93.7954103,25.0730385 L90.2173846,28.6504615 L90.2173846,28.6504615 Z" id="Shape" fill="#7B5EEA"></path>
    </g>
</svg>