<?xml version="1.0" encoding="utf-8"?>
<!-- Generator: Adobe Illustrator 24.1.1, SVG Export Plug-In . SVG Version: 6.00 Build 0)  -->
<svg version="1.1" id="Layer_1" xmlns="http://www.w3.org/2000/svg" xmlns:xlink="http://www.w3.org/1999/xlink" x="0px" y="0px"
	 viewBox="0 0 120 97" style="enable-background:new 0 0 120 97;" xml:space="preserve">
<style type="text/css">
	.st0{fill:#FFFFFF;}
	.st1{fill:#001A22;}
	.st2{fill:#C9AA5D;}
</style>
<g id="Layer_1_1_">
	<rect class="st0" width="120" height="97"/>
	<path class="st1" d="M86,46c-1.2-1.1-2.6-2.1-3.8-3.3c-0.7-0.8-1.4-1.6-1.9-2.5c-0.3-0.6-0.1-1.1,0.8-1c1.4,0.1,2.6,0.8,3.4,1.9
		c0.2,0.3,0.4,0.5,0.8,0.9c0.6-2.4,0.5-4.9-0.4-7.2c-1.8-4.6-5.5-6.2-10.3-6.1v-0.5l3.8-1v-0.3c-4.8-1.9-9.7-2.4-14.9-0.5
		c0.5-1.5,1.9-1.6,2.7-2.5c-0.4-0.1-0.8-0.2-1.2-0.1c-1,0.1-2,0.3-3,0.6c-1.8,0.4-3.4,1.4-4.7,2.7c-0.8,0.9-1.1,2-0.4,2.7
		c0.8,0.9,1.8,1.6,2.9,2.1c0.5,0.2,1.4-0.6,2.1-1s1-0.7,1.6-1.1c0.3-0.1,0.7-0.2,1.1-0.3c-0.1,0.4-0.1,0.6-0.2,1l1.1-0.4
		c2.3-0.8,4.8,0.3,5.5,2.3c0.4,1.2,0.2,1.6-1.1,1.8c-1.1,0.2-2.2,0.3-3.3,0.5c-0.9,0-1.6,0.8-1.6,1.7c0,0.2,0.1,0.4,0.1,0.6
		c0.2,0.8,0.5,1.6,0.6,2.4c0.2,1-0.1,1.3-1.2,1c-1.1-0.3-2.3-0.5-3.4-0.6c-1.5,0.1-2.9,0.3-4.3,0.6c-1.2,0.2-1.5,0-1.2-1.2
		c0.1-0.5,0.3-1,0.4-1.5c0.6-2.1,0.2-2.9-2-3.1s-4.4-0.5-6-2.3c0,0-0.1,0-0.2,0s-0.2,0.2-0.2,0.2c0,2.1,0.9,4,2.4,5.4
		c0.2,0.1,0.5,0.3,0.6,0.2c0.8-0.7,1.7,0.1,2.6-0.1s0.9,0.3,0.7,0.9s-0.3,1.4-0.5,2.2c-0.2,1,0.1,1.6,1.2,1.7
		c0.6,0.1,1.1,0.1,1.7,0.2c1.2,0.1,2.2,1,2.4,2.2c0.4,1.3-0.1,2.7-1.3,3.4c-0.4,0.3-0.9,0.6-1.4,0.8c-3.2,1.5-3,5.6-1.6,8
		c0.1-0.3,0.2-0.7,0.3-1c0.4-1.4,0.9-2.8,1.6-4.1c1.4-2.1,4.2-2.8,6.5-1.8c2.1,1,3,3.5,2.2,5.6c-0.4,1.3-1,2.5-1.7,3.6
		c-0.6,1.4-2.3,2-3.7,1.3c-0.1,0-0.1-0.1-0.2-0.1c-1.2-0.5-2.2-1.6-2.6-2.9c-0.1-0.3-0.3-0.6-0.4-0.9h-0.4c-0.2,0.9-0.2,1.8-0.2,2.7
		c0.2,1.6,1,3.1,2.1,4.2c0.3,0.3,0.4,0.7,0.3,1.2c-1.7,3.1-2,6.5-1.9,10c0.1,5.2,1.2,10.2,3.4,14.9c0.2,0.4,0.4,0.7,0.7,1.1l0.3-0.1
		c0-3.1,0.6-6.1,1.5-9c1.1-3.1,3.6-7.3,4.8-7.7c-0.5,3-1,5.9,0,9c0.3-0.2,0.3-0.3,0.4-0.3c1-2,2.4-3.7,4.1-5.1
		c1.4-1.3,3-2.4,4.3-3.7c1.4-1.3,2.7-2.8,3.8-4.4c2-3.1,1.8-6.6,0.9-10.1c-0.1-0.3-0.1-0.7-0.2-1l0.3-0.1c2,1.6,3.3,3.9,3.8,6.5
		c0.8-1.1,1.6-2.2,2.2-3.4c0.6-1.2,1.1-2.6,1.7-3.8c0.8-1.8,1.1-3.8,1-5.8C89.1,49.9,87.9,47.6,86,46z M75.9,53
		c-1.8-1.7-3.2-3.4-5.6-4.4c0.2,0.6,0.3,0.9,0.4,1.2c0.9,2.6,1.9,5.2,2.8,7.8c0.1,0.6,0.2,1.1,0.2,1.7l-0.3,0.1
		c-0.1-0.2-0.3-0.4-0.4-0.6c-1.3-3.8-3.9-7.1-7.5-9c-0.5-0.3-1-0.6-1.4-0.9c-1.4-0.7-2-2.3-1.5-3.7c0.3-1.2,1.2-1.9,2.8-2.2
		c2.8-0.4,2.8-0.4,2.1-3.2c0-0.2-0.1-0.3-0.1-0.5c-0.2-1.2-0.2-1.3,1-1.2c0.7,0,1.4-0.6,2.2,0.1c0.1,0.1,0.7-0.3,1-0.5
		c0.5-0.5,0.9-1,1.4-1.6c0.6,0.7,0.6,1.6,0,2.3c-0.3,0.5-0.7,0.9-1.1,1.3c-0.5,0.5-1.1,0.8-1.7,1.2c-2.1,1.5-2.2,2.8-0.1,4.4
		c1,0.8,2.2,1.4,3.3,2.1c1.6,0.9,2.6,2.6,2.6,4.5C76,52.2,75.9,52.6,75.9,53L75.9,53z"/>
	<path class="st1" d="M49.7,66c-0.2-1.1-0.3-2.3-0.3-3.5c0.2-1.9,0.6-3.8,1.1-5.6c0.3-0.9,0.6-1.9,1-2.8L50.9,54
		c-4.8,6.5-5,13.7-2.2,21.4c-3.4-0.8-5.6-3-7.8-5.4c-0.3,4.5,8.1,13,13.5,13.6c0-0.4,0.1-0.8,0.2-1.3c0.1-3.4-0.6-6.7-2.1-9.8
		C51.5,70.4,49.9,68.5,49.7,66z"/>
	<path class="st1" d="M44.8,70.4c0-0.3-0.1-0.6-0.2-0.8c-1.2-3.3-1.7-6.7-1.5-10.2c0-3.2,0.6-6.4,1.7-9.4c0.5-1.2,0.8-1.2,1.5-0.2
		c0.5,0.9,1.4,1.6,2.4,1.9c-0.6-1.2-1.1-2.5-1.6-3.7c-0.2-1.3-0.3-2.7-0.3-4c-3.7,2.4-5.1,6.1-6.3,10.1c-0.7-2.1-0.1-4,0.5-6
		c-0.5,0.3-1,0.7-1.4,1.3c-1.2,1.8-1.8,4-1.6,6.2c0.2,5.3,2.3,10.4,5.9,14.3C44.3,70.1,44.5,70.3,44.8,70.4z"/>
	<path class="st1" d="M50.9,30.9c-1-1.9-2.4-3.4-4.1-4.6c1.2-0.1,2.4,0,3.5,0.3c1.2,0.3,2.3,0.7,3.6,1.1c-1.6-3.7-9.3-3.4-12-1.3
		c1.1,0.6,2.6,0.7,3.3,1.8c-2,0.5-4,1.2-6,1.9c-2.2,0.9-3.8,3.4-3.6,5C39.9,31.1,45.3,30.8,50.9,30.9z"/>
	<path class="st2" d="M44.9,14.1c0.4,0.2,0.7,0.6,0.9,1c1.2,1.8,2.3,3.5,3.4,5.3c0.4,0.7,1.2,1,2,0.7c6.1-1.1,12.4-1.1,18.5,0
		c0.9,0.3,1.8-0.1,2.3-0.9c1.1-1.7,2.2-3.5,3.3-5.2c0.2-0.4,0.7-0.6,1.1-0.9s0.9-0.8,0.9-1.2c0-0.5-0.4-1-0.9-1c-0.1,0-0.2,0-0.3,0
		c-0.7,0.1-0.9,0.5-1,1.2c0,0.3,0,0.7-0.2,0.9c-1.2,1.5-2.9,2.5-4.8,2.9c-0.8,0.2-1.7-0.2-2-1.1c-0.1-0.2-0.1-0.5,0-0.7
		c0.1-1,0.3-1.9,0.6-2.8c0.2-0.7,0.5-1.4,1.5-1.4c0.6,0,1.1-0.6,1-1.2c0-0.1,0-0.2,0-0.3c-0.1-0.7-0.7-1.2-1.4-1.1c0,0,0,0-0.1,0
		c-0.8,0.1-1.3,0.7-1.2,1.4c0.3,1.1-0.3,1.5-1,2c-3,2.4-4.8,1.9-6.3-1.6C61,9.5,61,9,61.6,8.5c0.2-0.2,0.4-0.5,0.5-0.8
		c0.3-0.8-0.1-1.7-0.9-2c-0.7-0.4-1.7-0.2-2.2,0.5c-0.5,0.7-0.5,1.6,0.1,2.2c0.5,0.3,0.7,0.9,0.5,1.5c-1.6,3.6-3.6,4.1-6.6,1.5
		c0,0-0.1,0-0.1-0.1c-0.2-0.4-0.3-0.8-0.4-1.3c0.1-0.9-0.2-1.6-1-1.8c-0.7-0.2-1.4,0.3-1.6,1c-0.2,0.9,0.3,1.4,1.1,1.6
		c0.3,0.1,0.6,0.3,0.8,0.6c0.4,1.1,0.7,2.1,0.9,3.3c0.2,1.6-0.8,2.3-2.3,1.9c-1.6-0.4-3-1.2-4.2-2.4c-0.2-0.2-0.3-0.5-0.3-0.7
		c0.2-1,0-1.6-0.8-1.7c-0.5,0-0.9,0.3-1.2,0.7C43.8,13.4,44.2,13.8,44.9,14.1z"/>
	<path class="st2" d="M69.8,22.2c-1.7-0.3-3.3-0.6-4.9-0.7c-4.5-0.5-9-0.2-13.4,0.7c-0.5,0.1-1,0.2-0.9,0.9s0.7,0.5,1.2,0.5l4.9-0.5
		c2.5-0.3,5.1-0.3,7.7,0l5.3,0.5c0.4,0,1,0.2,1.1-0.4S70.3,22.3,69.8,22.2z"/>
	<path class="st1" d="M39.2,44.4c3.2-2.1,4.6-5.1,5-8.7c0.1-0.8-0.2-1-0.9-0.7c-1.1,0.4-2.3,0.8-3.5,1.2c-1.6,0.4-3,1.4-4,2.7
		c-0.2,0.5-0.5,0.9-0.6,1.4l0.3,0.2c0.2-0.3,0.5-0.5,0.8-0.7c0.9-0.6,1.9-1,2.9-1.4c1.1-0.3,1.6,0.3,1,1.3c-0.8,1.1-1.6,2.2-2.6,3.1
		c-1.3,1.3-2.9,2.4-4.2,3.7c-2.2,2.1-3.1,5.2-2.6,8.2c0.4,2.1,1.1,4.2,1.8,6.3c0.4,0.9,0.9,1.8,1.4,2.7l0.3-0.1
		c-0.3-1-0.6-1.9-0.9-2.8c-1-3.5-1.4-7,0.3-10.5C35,47.7,36.9,45.7,39.2,44.4z"/>
</g>
</svg>
