<svg width="120" height="97" viewBox="0 0 120 97" fill="none" xmlns="http://www.w3.org/2000/svg">
<path d="M3.67645 30.9033C3.67645 30.4841 3.87141 30.2745 4.26134 30.2745H8.18845C8.55052 30.2745 8.73156 30.4841 8.73156 30.9033V57.1027C8.73156 57.2703 8.75941 57.3961 8.81512 57.4799C8.89867 57.5358 9.01005 57.5638 9.14934 57.5638H23.2702C23.4652 57.5638 23.6045 57.6057 23.688 57.6895C23.7994 57.7454 23.8551 57.8712 23.8551 58.0668V60.8334C23.8551 61.1967 23.6602 61.3784 23.2702 61.3784H4.38667C4.13601 61.3784 3.95497 61.3225 3.84356 61.2107C3.73216 61.099 3.67645 60.9313 3.67645 60.7077V30.9033ZM50.2309 50.6471C50.2309 54.5316 49.2561 57.3682 47.3065 59.1567C45.3569 60.9173 42.4742 61.7976 38.6585 61.7976C34.62 61.7976 31.6816 60.8334 29.8434 58.9052C28.0052 56.949 27.0861 53.9587 27.0861 49.9345V30.9452C27.0861 30.4981 27.2671 30.2745 27.6292 30.2745H31.5981C31.9601 30.2745 32.1412 30.4841 32.1412 30.9033V50.8148C32.1412 55.6215 34.4389 58.0249 39.0345 58.0249C43.7136 58.0249 46.0532 55.5796 46.0532 50.6891V30.9033C46.0532 30.4841 46.2203 30.2745 46.5545 30.2745H49.7296C50.0638 30.2745 50.2309 30.4701 50.2309 30.8614V50.6471ZM88.3169 30.2745C88.679 30.2745 88.86 30.4841 88.86 30.9033V60.5819C88.86 60.8894 88.7904 61.099 88.6511 61.2107C88.5397 61.3225 88.3169 61.3784 87.9827 61.3784H84.5569C84.2784 61.3784 84.0835 61.3365 83.972 61.2526C83.8606 61.1409 83.8049 60.9592 83.8049 60.7077V30.9033C83.8049 30.4841 83.9999 30.2745 84.3898 30.2745H88.3169ZM113.378 36.5624C112.57 35.6402 111.623 34.9135 110.537 34.3826C109.451 33.8517 108.127 33.5861 106.568 33.5861C104.59 33.5861 103.044 34.0053 101.931 34.8437C100.844 35.6542 100.301 36.786 100.301 38.2391C100.301 40.1674 101.666 41.5927 104.396 42.5149L110.662 44.4851C115.396 45.9662 117.764 48.7608 117.764 52.8688C117.764 55.6355 116.733 57.8153 114.673 59.4082C112.639 61.0011 109.84 61.7976 106.276 61.7976C103.629 61.7976 101.29 61.3365 99.2569 60.4142C97.2231 59.492 95.6498 58.1785 94.536 56.4739C94.424 56.2503 94.3689 56.1106 94.3689 56.0547C94.3689 55.8311 94.5076 55.6215 94.7867 55.4259L96.8338 54.0007C97.0845 53.833 97.3067 53.7491 97.5022 53.7491C97.6969 53.7491 97.864 53.847 98.0036 54.0426C99.1449 55.5237 100.273 56.5717 101.388 57.1865C102.529 57.8013 104.061 58.1087 105.983 58.1087C108.156 58.1087 109.854 57.7314 111.08 56.9769C112.305 56.2224 112.918 55.0486 112.918 53.4557C112.918 52.4497 112.597 51.6113 111.957 50.9406C111.344 50.242 110.216 49.5992 108.573 49.0123L102.265 46.9583C100.009 46.2037 98.3093 45.0998 97.168 43.6467C96.0533 42.1935 95.4969 40.5726 95.4969 38.7841C95.4969 37.0235 95.9565 35.4725 96.8756 34.1311C97.7947 32.7618 99.0756 31.7138 100.719 30.9872C102.39 30.2326 104.312 29.8554 106.484 29.8554C108.628 29.8554 110.564 30.2326 112.292 30.9872C114.046 31.7417 115.48 32.7757 116.595 34.0892C116.733 34.2289 116.804 34.3826 116.804 34.5503C116.804 34.7179 116.733 34.8577 116.595 34.9695L114.213 36.8139C114.101 36.8977 113.99 36.9397 113.879 36.9397C113.796 36.9397 113.628 36.8139 113.378 36.5624Z" fill="#0F143E"/>
<path d="M4.99911 67.0437C4.99911 66.9105 5.07023 66.8439 5.21245 66.8439H13.0204C13.1532 66.8439 13.2196 66.9105 13.2196 67.0437V67.957C13.2196 68.0711 13.1532 68.1282 13.0204 68.1282H10.2044C10.1476 68.1282 10.1096 68.1378 10.0907 68.1568C10.0717 68.1757 10.0622 68.2091 10.0622 68.2566V77.2184C10.0622 77.3611 9.99583 77.4324 9.86311 77.4324H8.52623C8.40296 77.4324 8.34134 77.3658 8.34134 77.2326V68.2852C8.34134 68.2186 8.32712 68.1757 8.29867 68.1568C8.27971 68.1378 8.24178 68.1282 8.18489 68.1282H5.19823C5.06549 68.1282 4.99911 68.0711 4.99911 67.957V67.0437ZM38.6809 77.1328C38.6998 77.1898 38.7093 77.2279 38.7093 77.2469C38.7093 77.2945 38.6904 77.3373 38.6524 77.3753C38.6145 77.4134 38.5671 77.4324 38.5102 77.4324H37.1307C37.0169 77.4324 36.9316 77.3658 36.8747 77.2326L35.1396 72.8945C35.1016 72.7803 34.9831 72.7232 34.784 72.7232H32.7076C32.5938 72.7232 32.5369 72.7756 32.5369 72.8802V77.1756C32.5369 77.2707 32.5132 77.3373 32.4658 77.3753C32.4278 77.4134 32.3615 77.4324 32.2667 77.4324H31.0578C30.9724 77.4324 30.9108 77.4134 30.8729 77.3753C30.8349 77.3373 30.816 77.2802 30.816 77.2041V67.0579C30.816 66.9819 30.8302 66.9295 30.8587 66.901C30.8871 66.8629 30.9393 66.8439 31.0151 66.8439H35.1253C36.3011 66.8439 37.2113 67.0865 37.856 67.5717C38.5007 68.0473 38.8231 68.7371 38.8231 69.6409C38.8231 70.3734 38.624 70.9727 38.2258 71.4389C37.8371 71.9051 37.3535 72.2285 36.7751 72.4093C36.7182 72.4283 36.6993 72.4854 36.7182 72.5805L38.6809 77.1328ZM34.784 71.5103C35.5425 71.5103 36.1067 71.3676 36.4764 71.0822C36.8557 70.7968 37.0453 70.3591 37.0453 69.7693C37.0453 69.1985 36.87 68.7704 36.5191 68.485C36.1778 68.1996 35.68 68.0569 35.0258 68.0569H32.7644C32.6791 68.0569 32.6175 68.0711 32.5796 68.0997C32.5511 68.1187 32.5369 68.1615 32.5369 68.2281V71.3105C32.5369 71.4436 32.5891 71.5103 32.6933 71.5103H34.784ZM56.1188 77.4324C56.005 77.4324 55.9481 77.3753 55.9481 77.2612L55.9765 77.1328L59.6032 67.0722C59.6316 66.9866 59.6696 66.9295 59.717 66.901C59.7644 66.8629 59.8308 66.8439 59.9161 66.8439H61.3525C61.5327 66.8439 61.6512 66.9248 61.7081 67.0865L65.3063 77.147C65.3158 77.166 65.3205 77.1994 65.3205 77.2469C65.3205 77.3706 65.2684 77.4324 65.1641 77.4324H63.813C63.6898 77.4324 63.6092 77.3753 63.5712 77.2612L62.661 74.7211C62.642 74.6735 62.6231 74.6402 62.6041 74.6212C62.5852 74.6022 62.5472 74.5926 62.4903 74.5926H58.5508C58.4654 74.5926 58.4085 74.6307 58.3801 74.7068L57.4556 77.2897C57.4272 77.3849 57.3467 77.4324 57.2139 77.4324H56.1188ZM62.0494 73.2512C62.1158 73.2512 62.1538 73.237 62.1632 73.2084C62.1822 73.1703 62.1822 73.1181 62.1632 73.0515L60.6272 68.7704C60.5988 68.7037 60.5656 68.6705 60.5276 68.6705C60.4898 68.6705 60.4565 68.7086 60.4281 68.7846L58.8494 73.0657L58.8352 73.1513C58.8352 73.218 58.8779 73.2512 58.9632 73.2512H62.0494ZM83.1867 66.8439C84.3244 66.8439 85.1683 66.8486 85.7182 66.8582C87.624 66.8962 89.0222 67.3529 89.9138 68.2281C90.8142 69.1033 91.2649 70.3876 91.2649 72.0811C91.2649 73.8316 90.7911 75.1635 89.8427 76.0768C88.8942 76.9805 87.4771 77.4324 85.5902 77.4324H83.2009C83.0302 77.4324 82.9449 77.3468 82.9449 77.1756V67.0579C82.9449 66.9819 82.9638 66.9295 83.0018 66.901C83.0397 66.8629 83.1013 66.8439 83.1867 66.8439ZM84.7796 68.1139C84.7037 68.1139 84.6658 68.1806 84.6658 68.3137V76.0054C84.6658 76.072 84.6753 76.1196 84.6942 76.1481C84.7227 76.1671 84.77 76.1766 84.8364 76.1766H85.3058C86.2824 76.1766 87.074 76.0435 87.6809 75.7771C88.2877 75.5107 88.738 75.0778 89.032 74.4785C89.3262 73.8791 89.4729 73.0847 89.4729 72.0953C89.4729 71.125 89.3351 70.3591 89.0604 69.7978C88.7949 69.227 88.3873 68.8179 87.8373 68.5706C87.2874 68.3137 86.562 68.1663 85.6613 68.1282L84.7796 68.1139ZM109.134 67.0579C109.134 66.9819 109.148 66.9295 109.177 66.901C109.205 66.8629 109.258 66.8439 109.333 66.8439H115.961C116.075 66.8439 116.132 66.9057 116.132 67.0294L116.117 67.9284C116.117 68.0711 116.046 68.1425 115.904 68.1425H111.068C110.926 68.1425 110.855 68.2043 110.855 68.328V71.2677C110.855 71.3914 110.916 71.4532 111.04 71.4532H114.51C114.634 71.4532 114.695 71.5103 114.695 71.6244V72.5805C114.695 72.6852 114.634 72.7375 114.51 72.7375H111.026C110.912 72.7375 110.855 72.7899 110.855 72.8945V75.9769C110.855 76.0339 110.865 76.0768 110.884 76.1053C110.912 76.1243 110.95 76.1338 110.997 76.1338H116.103C116.179 76.1338 116.231 76.1481 116.26 76.1766C116.288 76.1956 116.302 76.2385 116.302 76.3051V77.2469C116.302 77.3706 116.236 77.4324 116.103 77.4324H109.376C109.281 77.4324 109.215 77.4182 109.177 77.3896C109.148 77.3515 109.134 77.2897 109.134 77.2041V67.0579Z" fill="#335C82"/>
<path d="M61.5718 31.0541H56.8889L74.0596 61.3784H78.2222L61.5718 31.0541Z" fill="#0F143E"/>
<path d="M57.8668 61.307C57.8668 61.307 59.9734 43.0232 73.8668 32.5257C81.129 27.0316 89.5556 25.3905 96.6133 25.0338L96.2845 20.5743C90.9511 20.9846 80.9423 22.6078 72.2845 29.9749C58.0623 42.0689 57.8668 61.307 57.8668 61.307Z" fill="url(#paint0_linear)"/>
<path d="M86.2222 20.3514C86.7496 20.3514 87.2652 20.1944 87.7037 19.9004C88.1423 19.6064 88.4841 19.1885 88.6859 18.6996C88.8877 18.2107 88.9404 17.6727 88.8377 17.1537C88.7347 16.6347 88.4808 16.1579 88.1078 15.7837C87.7349 15.4095 87.2597 15.1547 86.7425 15.0514C86.2251 14.9482 85.689 15.0012 85.2018 15.2037C84.7145 15.4062 84.2979 15.7491 84.005 16.1892C83.7119 16.6292 83.5555 17.1465 83.5555 17.6757C83.5555 18.3853 83.8365 19.0659 84.3366 19.5677C84.8367 20.0695 85.515 20.3514 86.2222 20.3514Z" fill="#0F143E"/>
<defs>
<linearGradient id="paint0_linear" x1="91.5822" y1="15.107" x2="60.0382" y2="63.2074" gradientUnits="userSpaceOnUse">
<stop stop-color="#2E557A"/>
<stop offset="1" stop-color="#5E93C5"/>
</linearGradient>
</defs>
</svg>
