<svg id="Layer_1" data-name="Layer 1" xmlns="http://www.w3.org/2000/svg" viewBox="0 0 120 97"><defs><style>.cls-1{fill:#414042;}.cls-2{fill:#fff;}.cls-3{fill:#ef922d;}</style></defs><rect class="cls-1" width="120" height="97" rx="4.32"/><path class="cls-2" d="M9.81,70.54H12.3v10.7H9.81Z"/><path class="cls-2" d="M9.81,67.38H12.3v2.28H9.81Z"/><path class="cls-2" d="M13.73,70.54h2.45v1.31a3.91,3.91,0,0,1,3.2-1.53c2.69,0,4.24,1.66,4.24,4.57v6.35h-2.5V75.15c0-1.67-.81-2.69-2.42-2.69-1.41,0-2.5,1-2.5,2.91v5.87H13.73Z"/><path class="cls-2" d="M24,70.54h2.58l2.77,7.53,2.7-7.53h2.55l-4,10.7H28.12Z"/><path class="cls-2" d="M34.38,75.92a5.52,5.52,0,0,1,5.56-5.6,5.35,5.35,0,0,1,5.51,5.5v.94H36.74A3.17,3.17,0,0,0,40,79.28a3.13,3.13,0,0,0,3-1.88l2,1.17a5.36,5.36,0,0,1-5,2.89A5.43,5.43,0,0,1,34.38,75.92Zm2.49-1.23h6.07a2.82,2.82,0,0,0-3-2.2A3.15,3.15,0,0,0,36.87,74.69Z"/><path class="cls-2" d="M45.81,78.86l2.29-1.1a2.74,2.74,0,0,0,2.58,1.56c1.23,0,1.83-.59,1.83-1.3s-1.19-.93-2.51-1.23c-1.83-.38-3.75-1-3.75-3.22,0-1.72,1.67-3.27,4.21-3.27a4.67,4.67,0,0,1,4.37,2.21l-2.1,1.06a2.54,2.54,0,0,0-2.27-1.22c-1.17,0-1.72.55-1.72,1.15s.84.9,2.45,1.24C53,75.09,55,75.71,55,78c0,1.5-1.34,3.5-4.39,3.5C48.17,81.46,46.67,80.54,45.81,78.86Z"/><path class="cls-2" d="M55.45,70.54h1.83V68.91l2.49-1.7v3.33H62v2.21H59.77v4c0,1.86.28,2.15,2.18,2.15v2.33H61.6c-3.31,0-4.32-1.06-4.32-4.47v-4H55.45Z"/><path class="cls-2" d="M63.14,70.54h2.45v1.24a3.71,3.71,0,0,1,3-1.46,3.65,3.65,0,0,1,3.48,1.85,4.09,4.09,0,0,1,3.51-1.85C78.54,70.32,80,72,80,74.8v6.44H77.46V75c0-1.55-.79-2.54-2.32-2.54-1.34,0-2.36.91-2.36,2.8v6H70.27V74.93c0-1.54-.77-2.47-2.25-2.47s-2.41,1-2.41,2.85v5.93H63.14Z"/><path class="cls-2" d="M81.05,75.92a5.52,5.52,0,0,1,5.56-5.6,5.34,5.34,0,0,1,5.5,5.5v.94h-8.7a3.16,3.16,0,0,0,3.29,2.52,3.11,3.11,0,0,0,3-1.88l2,1.17a5.34,5.34,0,0,1-5,2.89A5.43,5.43,0,0,1,81.05,75.92Zm2.48-1.23h6.08a2.83,2.83,0,0,0-3-2.2A3.16,3.16,0,0,0,83.53,74.69Z"/><path class="cls-2" d="M93.21,70.54h2.45v1.31a3.92,3.92,0,0,1,3.2-1.53c2.69,0,4.25,1.66,4.25,4.57v6.35H100.6V75.15c0-1.67-.8-2.69-2.41-2.69-1.41,0-2.51,1-2.51,2.91v5.87H93.21Z"/><path class="cls-2" d="M103.69,70.54h1.83V68.91l2.49-1.7v3.33h2.18v2.21H108v4c0,1.86.27,2.15,2.18,2.15v2.33h-.35c-3.31,0-4.32-1.06-4.32-4.47v-4h-1.83Z"/><polygon class="cls-2" points="18.23 16.03 9.81 16.03 9.81 61.21 34.75 61.21 34.75 53.16 18.23 53.16 18.23 16.03"/><path class="cls-2" d="M69.9,16H61.49V46.11A7.86,7.86,0,0,1,53.56,54a7.71,7.71,0,0,1-7.79-7.92V16H37.35V45.61c0,10.59,6.87,16.22,16.28,16.22S69.9,56.2,69.9,45.61Z"/><polygon class="cls-2" points="90.78 45.12 92.29 47.57 92.29 47.57 90.78 45.12"/><path class="cls-3" d="M88.24,41,87,39c-4.09,8-9.2,15.13-19.45,20.4L71,62a7.67,7.67,0,0,0,8.88.3,34.69,34.69,0,0,0,8.37-8.38C91,48.48,88.24,41,88.24,41Z"/><path class="cls-2" d="M105.94,21.64a59.6,59.6,0,0,1,3.7-6.07c-3.3-.06-6.6,0-9.91,0a116,116,0,0,0-7.56,14.49L97.68,39C100.49,33,103.07,26.94,105.94,21.64Z"/><polygon class="cls-2" points="88.24 41.01 90.78 45.12 92.29 47.57 100.72 61.21 110.19 61.21 96.58 39.19 91.08 30.28 82.28 16.03 72.81 16.03 86.98 38.97 88.24 41.01 88.24 41.01"/></svg>