<svg id="Layer_1" data-name="Layer 1" xmlns="http://www.w3.org/2000/svg" xmlns:xlink="http://www.w3.org/1999/xlink" viewBox="0 0 120 97"><defs><style>.cls-1{fill:#0f0f0f;}.cls-2{fill:url(#linear-gradient);}.cls-3{fill:url(#linear-gradient-2);}.cls-4{fill:url(#linear-gradient-3);}.cls-5{fill:url(#linear-gradient-4);}.cls-6{fill:url(#linear-gradient-5);}.cls-7{fill:url(#linear-gradient-6);}.cls-8{fill:url(#linear-gradient-7);}.cls-9{fill:url(#linear-gradient-8);}.cls-10{fill:url(#linear-gradient-9);}.cls-11{fill:url(#linear-gradient-10);}.cls-12{fill:url(#linear-gradient-11);}.cls-13{fill:url(#linear-gradient-12);}</style><linearGradient id="linear-gradient" x1="41.87" y1="57.01" x2="112.88" y2="-40.02" gradientUnits="userSpaceOnUse"><stop offset="0" stop-color="#493013"/><stop offset="0.12" stop-color="#9e742d"/><stop offset="0.23" stop-color="#d8b166"/><stop offset="0.23" stop-color="#d9b467"/><stop offset="0.33" stop-color="#e7c77a"/><stop offset="0.42" stop-color="#efd585"/><stop offset="0.51" stop-color="#f3da89"/><stop offset="0.63" stop-color="#e9cb7e"/><stop offset="0.8" stop-color="#d8b166"/><stop offset="0.82" stop-color="#c39a50"/><stop offset="0.85" stop-color="#ad843d"/><stop offset="0.88" stop-color="#a17831"/><stop offset="0.91" stop-color="#9e742d"/><stop offset="1" stop-color="#493013"/></linearGradient><linearGradient id="linear-gradient-2" x1="51.41" y1="63.99" x2="122.42" y2="-33.04" xlink:href="#linear-gradient"/><linearGradient id="linear-gradient-3" x1="55.85" y1="67.24" x2="126.86" y2="-29.79" xlink:href="#linear-gradient"/><linearGradient id="linear-gradient-4" x1="62.32" y1="71.98" x2="133.33" y2="-25.06" xlink:href="#linear-gradient"/><linearGradient id="linear-gradient-5" x1="69.09" y1="76.93" x2="140.1" y2="-20.11" xlink:href="#linear-gradient"/><linearGradient id="linear-gradient-6" x1="73.38" y1="80.07" x2="144.39" y2="-16.96" xlink:href="#linear-gradient"/><linearGradient id="linear-gradient-7" x1="78.88" y1="84.09" x2="149.89" y2="-12.94" xlink:href="#linear-gradient"/><linearGradient id="linear-gradient-8" x1="-1" y1="83.41" x2="40.21" y2="27.1" xlink:href="#linear-gradient"/><linearGradient id="linear-gradient-9" x1="41" y1="74.51" x2="112.01" y2="-22.53" xlink:href="#linear-gradient"/><linearGradient id="linear-gradient-10" x1="48.2" y1="79.78" x2="119.21" y2="-17.26" xlink:href="#linear-gradient"/><linearGradient id="linear-gradient-11" x1="55.45" y1="85.08" x2="126.46" y2="-11.95" xlink:href="#linear-gradient"/><linearGradient id="linear-gradient-12" x1="61.02" y1="89.16" x2="132.03" y2="-7.87" xlink:href="#linear-gradient"/></defs><title>marketsdock -App</title><rect class="cls-1" width="120" height="97"/><path class="cls-2" d="M50.25,34.55v.9h0a2.85,2.85,0,0,1,2.48-1.23,3.21,3.21,0,0,1,2.91,1.58,3.14,3.14,0,0,1,1.26-1.16,3.59,3.59,0,0,1,1.69-.42q3.23,0,3.22,4.14v6.32H59V39.36A4.94,4.94,0,0,0,58.59,37a1.1,1.1,0,0,0-1-.51,1.22,1.22,0,0,0-.77.24,1.8,1.8,0,0,0-.46.55,2.51,2.51,0,0,0-.23.83,6.4,6.4,0,0,0-.08.8c0,.19,0,.44,0,.76v5H53.16V38.62a6.15,6.15,0,0,0-.07-.71,2.41,2.41,0,0,0-.21-.71,1.41,1.41,0,0,0-.42-.47,1.22,1.22,0,0,0-.69-.2,1.25,1.25,0,0,0-.87.29,1.5,1.5,0,0,0-.47.84,7.48,7.48,0,0,0-.15.92c0,.24,0,.57,0,1v5.12H47.36V34.55Z"/><path class="cls-3" d="M73.3,34.55V44.68H70.45v-.93h0A3.26,3.26,0,0,1,67.67,45a4.09,4.09,0,0,1-3.4-1.63A6,6,0,0,1,63,39.56a5.8,5.8,0,0,1,1.27-3.74,4.06,4.06,0,0,1,3.35-1.6,3.53,3.53,0,0,1,2.83,1.28v-1Zm-6.7,7a2.14,2.14,0,0,0,3.46,0,3.18,3.18,0,0,0,0-3.93,2.16,2.16,0,0,0-3.46,0,3.22,3.22,0,0,0,0,3.93Z"/><path class="cls-4" d="M77.51,34.55V35.6h0a2.84,2.84,0,0,1,2.51-1.38,3.41,3.41,0,0,1,1.2.24l-.35,2.69a2,2,0,0,0-1.2-.38,2.23,2.23,0,0,0-1,.21,1.72,1.72,0,0,0-.65.52,2.45,2.45,0,0,0-.36.78,4.41,4.41,0,0,0-.16.89,9,9,0,0,0,0,.95v4.56H74.62V34.55Z"/><path class="cls-5" d="M85.09,31.21v7h0l3-3.71h3.75L87.65,39l4.6,5.68H88.46l-3.33-4.31h0v4.31H82.2V31.21Z"/><path class="cls-6" d="M101.11,40.08H94.44A3.7,3.7,0,0,0,94.92,42a1.66,1.66,0,0,0,1.52.8,2.11,2.11,0,0,0,1.94-1.38l2.67.43a4.45,4.45,0,0,1-1.76,2.34,5,5,0,0,1-2.85.82,4.78,4.78,0,0,1-3.68-1.47,5.39,5.39,0,0,1-1.38-3.83,6.07,6.07,0,0,1,1.27-4,4.47,4.47,0,0,1,3.65-1.53,4.31,4.31,0,0,1,3.59,1.53,6.24,6.24,0,0,1,1.22,4Zm-6.59-1.8h3.86a2.78,2.78,0,0,0-.63-1.44,1.59,1.59,0,0,0-1.29-.6,1.62,1.62,0,0,0-1.32.59A2.78,2.78,0,0,0,94.52,38.28Z"/><path class="cls-7" d="M105.69,37v7.7H102.8V37h-1V34.55h1V31.12h2.89v3.43h1.78V37Z"/><path class="cls-8" d="M114.55,35.27l-1.24,1.67a2.23,2.23,0,0,0-1.53-.7.92.92,0,0,0-.66.26.79.79,0,0,0-.29.61.75.75,0,0,0,.1.38,1,1,0,0,0,.34.31,4.6,4.6,0,0,0,.45.22,5,5,0,0,0,.59.24l.6.25a4.13,4.13,0,0,1,1.52,1.06,2.73,2.73,0,0,1,.57,1.85A3.24,3.24,0,0,1,113.85,44a4.15,4.15,0,0,1-2.79,1,4.41,4.41,0,0,1-3.57-1.69l1.32-1.71A2.94,2.94,0,0,0,111,42.78a1.19,1.19,0,0,0,.83-.3,1,1,0,0,0,.33-.79,1.1,1.1,0,0,0-.09-.45,1,1,0,0,0-.34-.36,2.85,2.85,0,0,0-.43-.24c-.11-.06-.31-.14-.59-.25l-.57-.23a4.21,4.21,0,0,1-1.49-1,2.36,2.36,0,0,1-.54-1.67,3.26,3.26,0,0,1,.9-2.36,3.07,3.07,0,0,1,2.32-.92A4.79,4.79,0,0,1,114.55,35.27Z"/><polygon class="cls-9" points="5.08 62.42 22.86 44.64 12.96 44.64 12.96 36.84 36.45 36.84 36.45 60.57 28.49 60.57 28.49 50.27 10.63 68.13 44.09 68.13 44.09 28.87 5 28.87 5.08 62.42"/><path class="cls-10" d="M55,62.25v-1h0a3.08,3.08,0,0,1-1.21,1,3.83,3.83,0,0,1-1.59.35,4.19,4.19,0,0,1-3.49-1.68A6.19,6.19,0,0,1,47.36,57a6,6,0,0,1,1.3-3.85,4.18,4.18,0,0,1,3.45-1.65,4,4,0,0,1,1.59.34,3.33,3.33,0,0,1,1.25,1h0V48.38h3V62.25Zm-3.93-3.19a2.19,2.19,0,0,0,3.54,0,3.28,3.28,0,0,0,.69-2,3.18,3.18,0,0,0-.69-2,2.19,2.19,0,0,0-3.54,0,3.18,3.18,0,0,0-.69,2A3.28,3.28,0,0,0,51.06,59.06Z"/><path class="cls-11" d="M60.89,53.05a5.77,5.77,0,0,1,7.89,0,5.52,5.52,0,0,1,1.52,4,5.45,5.45,0,0,1-1.51,4,5.82,5.82,0,0,1-7.91,0,6,6,0,0,1,0-8Zm5.72,2a2.21,2.21,0,0,0-3.56,0,3.27,3.27,0,0,0-.68,2,3.23,3.23,0,0,0,.69,2,2.21,2.21,0,0,0,3.54,0,3.23,3.23,0,0,0,.69-2A3.27,3.27,0,0,0,66.61,55Z"/><path class="cls-12" d="M78.79,52.15V55a3.07,3.07,0,0,0-2.19-1,2.3,2.3,0,0,0-1.91.93A3.43,3.43,0,0,0,74,57.09a3.11,3.11,0,0,0,.75,2.13,2.51,2.51,0,0,0,2,.86,2.73,2.73,0,0,0,2.08-1V62a5.27,5.27,0,0,1-2.57.64A4.89,4.89,0,0,1,72.46,61a5.84,5.84,0,0,1,0-7.86,5.09,5.09,0,0,1,3.87-1.62A4.51,4.51,0,0,1,78.79,52.15Z"/><path class="cls-13" d="M83.6,48.38v7.27h0l3.12-3.82h3.86l-4.39,4.58L91,62.25h-3.9l-3.42-4.44h0v4.44h-3V48.38Z"/></svg>