<svg  xmlns="http://www.w3.org/2000/svg" xmlns:xlink="http://www.w3.org/1999/xlink" viewBox="0 0 120 24.99"><defs><style>.cls-1{fill:url(#linear-gradient);}.cls-2{fill:#085cd6;}</style><linearGradient id="linear-gradient" x1="0.35" y1="7.93" x2="118.94" y2="7.93" gradientUnits="userSpaceOnUse"><stop offset="0" stop-color="#cd0000"/><stop offset="1" stop-color="#085cd6"/></linearGradient></defs><title>mercuryo</title><polygon class="cls-1" points="1.41 15.33 0.35 15.33 0.35 0.53 7.7 0.53 11.45 6.58 15.21 0.53 118.94 0.53 118.94 1.59 15.8 1.59 11.45 8.58 7.11 1.59 1.41 1.59 1.41 15.33"/><polygon class="cls-2" points="22.47 20.35 16.3 20.35 16.3 9.55 11.45 16.62 6.61 9.55 6.61 20.35 0.97 20.35 0.97 19.3 5.55 19.3 5.55 6.13 11.45 14.75 17.36 6.13 17.36 19.3 21.41 19.3 21.41 6.43 22.47 6.43 22.47 20.35"/><circle class="cls-2" cx="118.94" cy="1.06" r="1.06"/><circle class="cls-2" cx="1.06" cy="19.91" r="1.06"/><path class="cls-2" d="M28.6,14.45c.21,1.57,1.57,2.7,3.79,2.7A5.22,5.22,0,0,0,35.79,16l2,2A7.77,7.77,0,0,1,32.34,20c-4.38,0-7-2.71-7-6.78a6.36,6.36,0,0,1,6.76-6.65c4.25,0,6.9,2.63,6.41,7.86Zm6.91-2.6c-.21-1.65-1.5-2.48-3.3-2.48a3.44,3.44,0,0,0-3.56,2.48Z"/><path class="cls-2" d="M43.86,7l.23,1.47a3.75,3.75,0,0,1,3.58-1.8A4.82,4.82,0,0,1,51,7.85l-1.42,2.73a3.14,3.14,0,0,0-2.27-.82A2.93,2.93,0,0,0,44.09,13v6.7H41V7Z"/><path class="cls-2" d="M63,18.06a6.56,6.56,0,0,1-4.9,2c-3.69,0-6.75-2.22-6.75-6.73s3.06-6.73,6.75-6.73a6.08,6.08,0,0,1,4.59,1.88l-2,2.09a3.85,3.85,0,0,0-2.55-1,3.57,3.57,0,0,0-3.66,3.76,3.46,3.46,0,0,0,3.61,3.71A3.79,3.79,0,0,0,60.92,16Z"/><path class="cls-2" d="M67.65,7v6.65c0,1.94,1.06,3.41,3.07,3.41A3.34,3.34,0,0,0,74,13.47V7h3.12V19.71H74.27L74.07,18a5.68,5.68,0,0,1-4.31,1.91c-3,0-5.25-2.3-5.25-6.24V7Z"/><path class="cls-2" d="M82.78,7,83,8.44a3.75,3.75,0,0,1,3.58-1.8,4.82,4.82,0,0,1,3.28,1.21l-1.42,2.73a3.14,3.14,0,0,0-2.27-.82A2.93,2.93,0,0,0,83,13v6.7H79.87V7Z"/><path class="cls-2" d="M104.66,7,96.9,25H93.45l2.37-5.52L90.74,7H94.4l1.94,5.49,1.21,3.59,1.31-3.51L101.18,7Z"/><path class="cls-2" d="M118.94,13.34a6.61,6.61,0,1,1-13.22,0,6.61,6.61,0,1,1,13.22,0Zm-10.08,0a3.47,3.47,0,1,0,6.91,0,3.58,3.58,0,0,0-3.45-3.76A3.49,3.49,0,0,0,108.86,13.34Z"/></svg>
