<svg id="Слой_1" data-name="Слой 1" xmlns="http://www.w3.org/2000/svg" viewBox="0 0 120 97"><defs><style>.cls-1{fill:#9a9a9a;}</style></defs><path class="cls-1" d="M30.77,6.55a9.89,9.89,0,0,0-1.21,6,10,10,0,0,0,4.9-3.66,9.89,9.89,0,0,0,1.21-6A10,10,0,0,0,30.77,6.55Z"/><path class="cls-1" d="M34.67,8.72a10,10,0,0,0-4.89,3.68,9.94,9.94,0,0,0,6.1.52,9.92,9.92,0,0,0,4.88-3.68A9.9,9.9,0,0,0,34.67,8.72Z"/><path class="cls-1" d="M48,86.22a10.33,10.33,0,0,1,2.1,5.63s-4.21-1.15-6.1-4a7.21,7.21,0,0,1-1-5.7A17.25,17.25,0,0,1,48,86.22Z"/><path class="cls-1" d="M45,95.14a7.15,7.15,0,0,0,5.09-3.41A23.5,23.5,0,0,0,42.68,91a9.43,9.43,0,0,0-5.48,2.59C37.15,93.6,41.28,95.78,45,95.14Z"/><path class="cls-1" d="M40.66,83a10.28,10.28,0,0,1,.86,5.79s-3.71-1.81-5-4.87a7.31,7.31,0,0,1,.15-5.68A15.8,15.8,0,0,1,40.66,83Z"/><path class="cls-1" d="M36.14,91.12a7.06,7.06,0,0,0,5.43-2.44,21.29,21.29,0,0,0-6.84-2A9.34,9.34,0,0,0,29,88.31C29,88.31,32.5,91.12,36.14,91.12Z"/><path class="cls-1" d="M34.34,78.65a10.2,10.2,0,0,1-.28,5.74S30.88,82,30.24,78.84a7.32,7.32,0,0,1,1.19-5.48A14.73,14.73,0,0,1,34.34,78.65Z"/><path class="cls-1" d="M28.49,85.74a6.9,6.9,0,0,0,5.63-1.44,19.7,19.7,0,0,0-6.16-3,9.24,9.24,0,0,0-5.79.55S25,85.12,28.49,85.74Z"/><path class="cls-1" d="M29.07,73.35a10,10,0,0,1-1.33,5.52S25.12,76,25.06,72.82a7.26,7.26,0,0,1,2.13-5.13A14.77,14.77,0,0,1,29.07,73.35Z"/><path class="cls-1" d="M22.12,79.21a6.78,6.78,0,0,0,5.7-.42,18.75,18.75,0,0,0-5.41-4,9,9,0,0,0-5.72-.47S18.87,78,22.12,79.21Z"/><path class="cls-1" d="M24.88,67.27a9.84,9.84,0,0,1-2.25,5.14,10.44,10.44,0,0,1-1.57-6.36,7.14,7.14,0,0,1,3-4.63A14.14,14.14,0,0,1,24.88,67.27Z"/><path class="cls-1" d="M17.09,71.76a6.73,6.73,0,0,0,5.63.59,18.84,18.84,0,0,0-4.58-4.87A9.06,9.06,0,0,0,12.63,66S14.14,70,17.09,71.76Z"/><path class="cls-1" d="M21.83,60.6a9.69,9.69,0,0,1-3.08,4.62s-1.46-3.51-.45-6.5a7,7,0,0,1,3.66-4A14.21,14.21,0,0,1,21.83,60.6Z"/><path class="cls-1" d="M13.45,63.6a6.65,6.65,0,0,0,5.4,1.57A18.7,18.7,0,0,0,15.2,59.6,9.08,9.08,0,0,0,10,57.17S10.85,61.38,13.45,63.6Z"/><path class="cls-1" d="M20,53.51a9.43,9.43,0,0,1-3.78,4s-.85-3.71.64-6.47a6.84,6.84,0,0,1,4.25-3.29A14.05,14.05,0,0,1,20,53.51Z"/><path class="cls-1" d="M11.24,55a6.7,6.7,0,0,0,5,2.51,19.31,19.31,0,0,0-2.66-6.13A9.1,9.1,0,0,0,9,48S9.07,52.32,11.24,55Z"/><path class="cls-1" d="M19.3,46.19a9.35,9.35,0,0,1-4.37,3.26s-.21-3.81,1.71-6.27a6.68,6.68,0,0,1,4.73-2.5A14.48,14.48,0,0,1,19.3,46.19Z"/><path class="cls-1" d="M10.53,46.06A6.75,6.75,0,0,0,15,49.44a19.63,19.63,0,0,0-1.57-6.53,9.3,9.3,0,0,0-4-4.12S8.84,43.06,10.53,46.06Z"/><path class="cls-1" d="M19.91,38.83a9.06,9.06,0,0,1-4.84,2.44s.45-3.81,2.77-5.92a6.65,6.65,0,0,1,5.08-1.65A14.65,14.65,0,0,1,19.91,38.83Z"/><path class="cls-1" d="M11.35,37.12a6.81,6.81,0,0,0,3.83,4.16,20.2,20.2,0,0,0-.39-6.76,9.31,9.31,0,0,0-3.14-4.82S10.22,33.84,11.35,37.12Z"/><path class="cls-1" d="M21.84,31.59a8.94,8.94,0,0,1-5.18,1.58s1.12-3.72,3.81-5.43a6.58,6.58,0,0,1,5.3-.75A15.72,15.72,0,0,1,21.84,31.59Z"/><path class="cls-1" d="M13.77,28.36a6.79,6.79,0,0,0,3,4.84,21.77,21.77,0,0,0,.87-6.83A9.38,9.38,0,0,0,15.48,21S13.27,24.89,13.77,28.36Z"/><path class="cls-1" d="M25.12,24.68a8.8,8.8,0,0,1-5.4.67s1.83-3.53,4.83-4.79a6.49,6.49,0,0,1,5.4.16A17.12,17.12,0,0,1,25.12,24.68Z"/><path class="cls-1" d="M17.84,20a6.82,6.82,0,0,0,2,5.39A23.6,23.6,0,0,0,22,18.68a9.68,9.68,0,0,0-1-5.81S18,16.43,17.84,20Z"/><path class="cls-1" d="M29.8,18.27A8.62,8.62,0,0,1,24.32,18c-.05,0,2.55-3.25,5.83-4a6.39,6.39,0,0,1,5.36,1.06A18.72,18.72,0,0,1,29.8,18.27Z"/><path class="cls-1" d="M23.6,12.29a6.81,6.81,0,0,0,.8,5.79,27.49,27.49,0,0,0,3.67-6.42,10.06,10.06,0,0,0,.35-6.07S24.56,8.71,23.6,12.29Z"/><path class="cls-1" d="M62,92.78l-.06-.65a40.24,40.24,0,0,1-16-1.79,42.16,42.16,0,0,1-14-7.65A44.44,44.44,0,0,1,16.12,54C14.9,44.63,15.53,36.32,18,29.26A32.9,32.9,0,0,1,31.92,11.63l-.35-.55a33.57,33.57,0,0,0-14.21,18c-2.48,7.15-3.12,15.56-1.89,25a45.1,45.1,0,0,0,16,29.16A42.94,42.94,0,0,0,45.7,91,41,41,0,0,0,62,92.78Z"/><path class="cls-1" d="M90.21,6.55a9.89,9.89,0,0,1,1.21,6,10,10,0,0,1-4.9-3.66,9.89,9.89,0,0,1-1.21-6A10,10,0,0,1,90.21,6.55Z"/><path class="cls-1" d="M86.31,8.72A10,10,0,0,1,91.2,12.4a9.94,9.94,0,0,1-6.1.52,9.92,9.92,0,0,1-4.88-3.68A9.9,9.9,0,0,1,86.31,8.72Z"/><path class="cls-1" d="M73,86.22a10.33,10.33,0,0,0-2.1,5.63s4.21-1.15,6.1-4a7.21,7.21,0,0,0,1-5.7A17.25,17.25,0,0,0,73,86.22Z"/><path class="cls-1" d="M76,95.14a7.15,7.15,0,0,1-5.09-3.41A23.5,23.5,0,0,1,78.3,91a9.43,9.43,0,0,1,5.48,2.59S79.7,95.78,76,95.14Z"/><path class="cls-1" d="M80.32,83a10.28,10.28,0,0,0-.86,5.79s3.71-1.81,5-4.87a7.31,7.31,0,0,0-.15-5.68A15.8,15.8,0,0,0,80.32,83Z"/><path class="cls-1" d="M84.84,91.12a7.06,7.06,0,0,1-5.43-2.44,21.29,21.29,0,0,1,6.84-2A9.34,9.34,0,0,1,92,88.31S88.48,91.12,84.84,91.12Z"/><path class="cls-1" d="M86.64,78.65a10.2,10.2,0,0,0,.28,5.74S90.1,82,90.74,78.84a7.32,7.32,0,0,0-1.19-5.48A14.73,14.73,0,0,0,86.64,78.65Z"/><path class="cls-1" d="M92.49,85.74a6.9,6.9,0,0,1-5.63-1.44,19.7,19.7,0,0,1,6.16-3,9.24,9.24,0,0,1,5.79.55S96,85.12,92.49,85.74Z"/><path class="cls-1" d="M91.91,73.35a10,10,0,0,0,1.33,5.52s2.62-2.85,2.68-6.05a7.26,7.26,0,0,0-2.13-5.13A14.77,14.77,0,0,0,91.91,73.35Z"/><path class="cls-1" d="M98.86,79.21a6.78,6.78,0,0,1-5.7-.42,18.75,18.75,0,0,1,5.41-4,9,9,0,0,1,5.72-.47S102.11,78,98.86,79.21Z"/><path class="cls-1" d="M96.1,67.27a9.84,9.84,0,0,0,2.25,5.14,10.44,10.44,0,0,0,1.57-6.36,7.14,7.14,0,0,0-3-4.63A14.14,14.14,0,0,0,96.1,67.27Z"/><path class="cls-1" d="M103.89,71.76a6.73,6.73,0,0,1-5.63.59,18.84,18.84,0,0,1,4.58-4.87A9.06,9.06,0,0,1,108.35,66S106.84,70,103.89,71.76Z"/><path class="cls-1" d="M99.15,60.6a9.69,9.69,0,0,0,3.08,4.62s1.46-3.51.45-6.5a7,7,0,0,0-3.66-4A14.21,14.21,0,0,0,99.15,60.6Z"/><path class="cls-1" d="M107.53,63.6a6.65,6.65,0,0,1-5.4,1.57,18.7,18.7,0,0,1,3.65-5.57,9.08,9.08,0,0,1,5.16-2.43S110.13,61.38,107.53,63.6Z"/><path class="cls-1" d="M101,53.51a9.43,9.43,0,0,0,3.78,4s.85-3.71-.64-6.47a6.84,6.84,0,0,0-4.25-3.29A14.05,14.05,0,0,0,101,53.51Z"/><path class="cls-1" d="M109.74,55a6.7,6.7,0,0,1-5,2.51,19.31,19.31,0,0,1,2.66-6.13A9.1,9.1,0,0,1,112,48S111.91,52.32,109.74,55Z"/><path class="cls-1" d="M101.68,46.19a9.35,9.35,0,0,0,4.37,3.26s.21-3.81-1.71-6.27a6.68,6.68,0,0,0-4.73-2.5A14.48,14.48,0,0,0,101.68,46.19Z"/><path class="cls-1" d="M110.45,46.06a6.75,6.75,0,0,1-4.51,3.38,19.63,19.63,0,0,1,1.57-6.53,9.3,9.3,0,0,1,4-4.12S112.14,43.06,110.45,46.06Z"/><path class="cls-1" d="M101.07,38.83a9.06,9.06,0,0,0,4.84,2.44s-.45-3.81-2.77-5.92a6.65,6.65,0,0,0-5.08-1.65A14.65,14.65,0,0,0,101.07,38.83Z"/><path class="cls-1" d="M109.63,37.12a6.81,6.81,0,0,1-3.83,4.16,20.2,20.2,0,0,1,.39-6.76,9.31,9.31,0,0,1,3.14-4.82S110.76,33.84,109.63,37.12Z"/><path class="cls-1" d="M99.14,31.59a8.94,8.94,0,0,0,5.18,1.58s-1.12-3.72-3.81-5.43a6.58,6.58,0,0,0-5.3-.75A15.72,15.72,0,0,0,99.14,31.59Z"/><path class="cls-1" d="M107.21,28.36a6.79,6.79,0,0,1-3,4.84,21.77,21.77,0,0,1-.87-6.83A9.38,9.38,0,0,1,105.5,21S107.71,24.89,107.21,28.36Z"/><path class="cls-1" d="M95.86,24.68a8.8,8.8,0,0,0,5.4.67s-1.83-3.53-4.83-4.79a6.49,6.49,0,0,0-5.4.16A17.12,17.12,0,0,0,95.86,24.68Z"/><path class="cls-1" d="M103.14,20a6.82,6.82,0,0,1-2,5.39,23.6,23.6,0,0,1-2.23-6.72,9.68,9.68,0,0,1,1-5.81S103,16.43,103.14,20Z"/><path class="cls-1" d="M91.18,18.27A8.62,8.62,0,0,0,96.66,18s-2.55-3.25-5.83-4a6.39,6.39,0,0,0-5.36,1.06A18.72,18.72,0,0,0,91.18,18.27Z"/><path class="cls-1" d="M97.38,12.29a6.81,6.81,0,0,1-.8,5.79,27.49,27.49,0,0,1-3.67-6.42,10.06,10.06,0,0,1-.35-6.07S96.42,8.71,97.38,12.29Z"/><path class="cls-1" d="M59,92.78l.06-.65a40.24,40.24,0,0,0,16-1.79,42.16,42.16,0,0,0,14-7.65A44.44,44.44,0,0,0,104.86,54c1.22-9.32.59-17.63-1.86-24.69A32.9,32.9,0,0,0,89.06,11.63l.35-.55a33.57,33.57,0,0,1,14.21,18c2.48,7.15,3.12,15.56,1.89,25a45.1,45.1,0,0,1-16,29.16A42.94,42.94,0,0,1,75.28,91,41,41,0,0,1,59,92.78Z"/><polygon class="cls-1" points="60.87 89.45 55.93 93.08 60.87 96.72 65.81 93.08 60.87 89.45"/><polygon class="cls-1" points="62.38 5.59 60.32 0.28 58.26 5.59 54.56 2.05 57.03 8.25 60.32 8.25 63.61 8.25 66.08 2.05 62.38 5.59"/><path class="cls-1" d="M31.53,28.63a.89.89,0,0,1,0,1.77.89.89,0,1,1,0-1.77Zm3,.88a.89.89,0,1,0,1.77,0,.89.89,0,0,0-1.77,0Zm3.93,0a.89.89,0,1,0,.88-.88A.88.88,0,0,0,38.5,29.51Zm3.93,0a.89.89,0,1,0,.88-.88A.88.88,0,0,0,42.43,29.51Zm3.92,0a.89.89,0,1,0,1.77,0,.89.89,0,0,0-1.77,0Zm3.93,0a.89.89,0,1,0,1.77,0,.89.89,0,0,0-1.77,0Zm3.93,0a.89.89,0,1,0,.88-.88A.88.88,0,0,0,54.21,29.51Zm3.92,0a.89.89,0,1,0,.89-.88A.89.89,0,0,0,58.13,29.51Zm3.93,0a.89.89,0,1,0,1.77,0,.89.89,0,0,0-1.77,0Zm3.93,0a.89.89,0,1,0,1.77,0,.89.89,0,0,0-1.77,0Zm3.93,0a.89.89,0,1,0,.88-.88A.88.88,0,0,0,69.92,29.51Zm3.92,0a.89.89,0,1,0,.89-.88A.89.89,0,0,0,73.84,29.51Zm3.93,0a.89.89,0,1,0,1.77,0,.89.89,0,0,0-1.77,0Zm3.93,0a.89.89,0,1,0,1.77,0,.89.89,0,0,0-1.77,0Zm3.93,0a.89.89,0,1,0,.88-.88A.88.88,0,0,0,85.63,29.51Zm3.92,0a.89.89,0,1,0,.89-.88A.89.89,0,0,0,89.55,29.51Z"/><path class="cls-1" d="M31.53,65a.89.89,0,0,1,0,1.77.89.89,0,1,1,0-1.77Zm3,.88a.89.89,0,1,0,1.77,0,.89.89,0,0,0-1.77,0Zm3.93,0a.89.89,0,1,0,.88-.88A.88.88,0,0,0,38.5,65.83Zm3.93,0a.89.89,0,1,0,.88-.88A.88.88,0,0,0,42.43,65.83Zm3.92,0a.89.89,0,1,0,1.77,0,.89.89,0,0,0-1.77,0Zm3.93,0a.89.89,0,1,0,1.77,0,.89.89,0,0,0-1.77,0Zm3.93,0a.89.89,0,1,0,.88-.88A.88.88,0,0,0,54.21,65.83Zm3.92,0A.89.89,0,1,0,59,65,.89.89,0,0,0,58.13,65.83Zm3.93,0a.89.89,0,1,0,1.77,0,.89.89,0,0,0-1.77,0Zm3.93,0a.89.89,0,1,0,.89-.88A.89.89,0,0,0,66,65.83Zm3.93,0A.89.89,0,1,0,70.8,65,.88.88,0,0,0,69.92,65.83Zm3.92,0a.89.89,0,1,0,.89-.88A.89.89,0,0,0,73.84,65.83Zm3.93,0a.89.89,0,1,0,1.77,0,.89.89,0,0,0-1.77,0Zm3.93,0a.89.89,0,1,0,.89-.88A.89.89,0,0,0,81.7,65.83Zm3.93,0a.89.89,0,1,0,.88-.88A.88.88,0,0,0,85.63,65.83Zm3.92,0a.89.89,0,1,0,.89-.88A.89.89,0,0,0,89.55,65.83Z"/><path class="cls-1" d="M34,45.16V37.59l-3.13,7.57h-.47l-3.11-7.57v7.57H26.17V36h1.64l2.85,6.91L33.52,36h1.64v9.19Z"/><path class="cls-1" d="M40,45.16V41.27L36.36,36H37.7l2.85,4.27L43.4,36h1.34l-3.61,5.3v3.89Z"/><path class="cls-1" d="M57.35,45.16V37.59l-3.13,7.57h-.47l-3.11-7.57v7.57H49.49V36h1.64L54,42.88,56.85,36h1.64v9.19Z"/><path class="cls-1" d="M64.83,45.32A4.67,4.67,0,0,1,63,45a4.16,4.16,0,0,1-1.44-1,4.56,4.56,0,0,1-.93-1.51,5.58,5.58,0,0,1,0-3.78,4.56,4.56,0,0,1,.93-1.51,4.33,4.33,0,0,1,1.44-1,5.12,5.12,0,0,1,3.72,0,4.33,4.33,0,0,1,1.44,1,4.56,4.56,0,0,1,.93,1.51,5.58,5.58,0,0,1,0,3.78A4.56,4.56,0,0,1,68.13,44a4.16,4.16,0,0,1-1.44,1A4.67,4.67,0,0,1,64.83,45.32Zm0-1A3.29,3.29,0,0,0,66.22,44a3.17,3.17,0,0,0,1.06-.78A3.66,3.66,0,0,0,68,42.05a4.42,4.42,0,0,0,.24-1.48A4.52,4.52,0,0,0,68,39.08a3.51,3.51,0,0,0-.68-1.18,3.17,3.17,0,0,0-1.06-.78,3.29,3.29,0,0,0-1.39-.28,3.33,3.33,0,0,0-1.4.28,3.21,3.21,0,0,0-1.07.78,3.33,3.33,0,0,0-.67,1.18,4.52,4.52,0,0,0-.24,1.49,4.42,4.42,0,0,0,.24,1.48,3.47,3.47,0,0,0,.67,1.19,3.21,3.21,0,0,0,1.07.78A3.33,3.33,0,0,0,64.83,44.3Z"/><path class="cls-1" d="M77.68,45.16l-5.36-7.33v7.33H71.18V36h1.17l5.29,7.18V36h1.14v9.19Z"/><path class="cls-1" d="M80.93,45.16V36h6v1H82.08v3h4.78v1H82.08v3.17H87v1Z"/><path class="cls-1" d="M91.45,45.16V41.27L87.82,36h1.34L92,40.24,94.86,36H96.2l-3.61,5.3v3.89Z"/><path class="cls-1" d="M34.61,60.56V51.37H38.7a3,3,0,0,1,1.07.17,2.22,2.22,0,0,1,.82.48,2.17,2.17,0,0,1,.51.75,2.58,2.58,0,0,1,.17.94,2.28,2.28,0,0,1-.13.8,1.93,1.93,0,0,1-.35.63,2.7,2.7,0,0,1-.52.44,2.28,2.28,0,0,1-.61.24,1.66,1.66,0,0,1,.7.26,2.47,2.47,0,0,1,.56.51,2.58,2.58,0,0,1,.39.69,2.14,2.14,0,0,1,.14.8,2.7,2.7,0,0,1-.18,1,2,2,0,0,1-.52.79,2.41,2.41,0,0,1-.83.51,3.27,3.27,0,0,1-1.13.18Zm3.9-5.21a1.56,1.56,0,0,0,1.18-.42,1.46,1.46,0,0,0,.4-1.06,1.48,1.48,0,0,0-.4-1,1.53,1.53,0,0,0-1.18-.43H35.75v3Zm.05,4.19a1.78,1.78,0,0,0,1.26-.42A1.52,1.52,0,0,0,40.27,58a1.73,1.73,0,0,0-.11-.6,1.32,1.32,0,0,0-.33-.51,1.56,1.56,0,0,0-.53-.34,1.85,1.85,0,0,0-.74-.13H35.75v3.17Z"/><path class="cls-1" d="M49.83,60.56l-.81-2H44.44l-.81,2H42.32L46,51.37h1.42l3.71,9.19Zm-3.1-8-2,5h3.9Z"/><path class="cls-1" d="M56.69,60.72a4.91,4.91,0,0,1-1.85-.34,4.51,4.51,0,0,1-1.5-1,4.4,4.4,0,0,1-1-1.51A5,5,0,0,1,52,56,5.08,5.08,0,0,1,52.33,54a4.46,4.46,0,0,1,1-1.5,4.36,4.36,0,0,1,1.5-1,4.91,4.91,0,0,1,1.85-.34,4.36,4.36,0,0,1,1.12.13,4.11,4.11,0,0,1,1,.39,4.05,4.05,0,0,1,.78.58,6,6,0,0,1,.63.71l-1,.54a3.29,3.29,0,0,0-1.06-1,2.94,2.94,0,0,0-1.46-.38,3.61,3.61,0,0,0-1.4.28,3.29,3.29,0,0,0-1.13.77,3.75,3.75,0,0,0-.74,1.18,4.33,4.33,0,0,0,0,3,3.8,3.8,0,0,0,.74,1.19,3.43,3.43,0,0,0,1.13.77,3.6,3.6,0,0,0,1.4.27,2.94,2.94,0,0,0,1.46-.37,3.08,3.08,0,0,0,1.06-1l1,.53a4.94,4.94,0,0,1-1.42,1.31A4,4,0,0,1,56.69,60.72Z"/><path class="cls-1" d="M67.2,60.56l-3.48-4.14-.92,1v3.09H61.65V51.37H62.8v4.75l4.06-4.75h1.43l-3.83,4.36,4.16,4.83Z"/><path class="cls-1" d="M73.16,60.56v-.91q1.23-1,2.19-1.77a18.43,18.43,0,0,0,1.59-1.48,6,6,0,0,0,1-1.28,2.46,2.46,0,0,0,.33-1.19,1.64,1.64,0,0,0-.16-.76,1.59,1.59,0,0,0-.44-.52,1.66,1.66,0,0,0-.61-.3,2.37,2.37,0,0,0-.7-.1,3.11,3.11,0,0,0-1.46.32,3,3,0,0,0-1,.84l-.7-.73a3.41,3.41,0,0,1,1.37-1.08,4.5,4.5,0,0,1,1.83-.37,4,4,0,0,1,1.13.16,3.18,3.18,0,0,1,1,.5,2.65,2.65,0,0,1,.71.84,2.53,2.53,0,0,1,.27,1.2,3.12,3.12,0,0,1-.34,1.38,6.65,6.65,0,0,1-.95,1.37,15.54,15.54,0,0,1-1.41,1.39c-.54.47-1.14,1-1.78,1.47h4.52v1Z"/><path class="cls-1" d="M85.32,60.56V58.23H81v-.95l3.94-5.91h1.57v5.84h1.3v1h-1.3v2.33Zm0-8.15-3.22,4.8h3.22Z"/></svg>