<?xml version="1.0" encoding="utf-8"?>
<!-- Generator: Adobe Illustrator 17.0.0, SVG Export Plug-In . SVG Version: 6.00 Build 0)  -->
<svg version="1.2" baseProfile="tiny" id="Слой_1"
	 xmlns="http://www.w3.org/2000/svg" xmlns:xlink="http://www.w3.org/1999/xlink" x="0px" y="0px" width="120px" height="97px"
	 viewBox="0 0 120 97" xml:space="preserve">
<g>
	
		<g id="_x36_a058d75-b409-425c-90f3-10dee0fb26ea" transform="matrix(3.226566791534424,0,0,3.226566791534424,146.0053910282675,120.93098965790549)">
		<path d="M-24.5-23.8L-24.5-23.8L-24.5-23.8c0-0.8-0.2-1.4-0.6-1.9l0,0l0,0c-0.4-0.5-1-0.7-1.6-0.7l0,0l0,0c-0.7,0-1.2,0.2-1.6,0.7
			l0,0l0,0c-0.4,0.5-0.6,1.1-0.6,1.9l0,0l0,0c0,0.7,0.2,1.4,0.6,1.9l0,0l0,0c0.4,0.5,1,0.7,1.6,0.7l0,0l0,0c0.6,0,1.2-0.2,1.6-0.7
			l0,0l0,0C-24.7-22.4-24.5-23-24.5-23.8z M-23.8-23.8L-23.8-23.8L-23.8-23.8c0,0.9-0.3,1.6-0.8,2.2l0,0l0,0
			c-0.6,0.6-1.3,0.9-2.2,0.9l0,0l0,0c-0.9,0-1.6-0.3-2.1-0.9l0,0l0,0c-0.6-0.6-0.8-1.3-0.8-2.2l0,0l0,0c0-0.9,0.3-1.6,0.9-2.2l0,0
			l0,0c0.6-0.6,1.3-0.8,2.2-0.8l0,0l0,0c0.9,0,1.6,0.3,2.1,0.8l0,0l0,0C-24.1-25.4-23.8-24.7-23.8-23.8z M-22.5-23.7l0,1.3l0,0.7
			l0,0c0,0.1,0,0.3,0,0.3l0,0l0,0c0,0.1,0,0.1,0.1,0.2l0,0l0.7,0.1v0.2l-1.1,0l-0.9,0v-0.2l0.5-0.1l0.1-1.2v-2.7l-0.1-1.2l-0.5-0.1
			v-0.2l0.9,0h3l0,0c0,0.1,0,0.3,0.1,0.5l0,0l0,0c0,0.2,0.1,0.4,0.2,0.5l0,0l-0.2,0.1l-0.3-0.5l0,0c0,0,0,0-0.1,0l0,0l0,0
			c-0.2,0-0.3,0-0.5,0l0,0l0,0c-0.3,0-0.8-0.1-1.4-0.1l0,0h-0.3l0,0.5l0,0c0,0.3,0,0.7,0,1.1l0,0v0.5h0.4l1.1,0l0,0
			c0.1,0,0.2,0,0.3,0l0,0l0,0c0.1,0,0.2,0,0.2,0l0,0l0.1-0.4h0.2l0,0.6l0,0c0,0.1,0,0.2,0,0.3l0,0l0,0c0,0.1,0,0.2,0,0.3l0,0h-0.2
			l-0.1-0.4l-1.5,0H-22.5z M-15.1-26.4l-0.4-0.1v-0.2l0.9,0l0.8,0v0.2l-0.6,0.1l0,0c-0.3,0.4-0.6,0.8-0.9,1.2l0,0l-0.8,1.2l2.1,2.9
			l0.4,0.1v0.2l-0.9,0l-0.9,0v-0.2l0.4-0.1l-1.5-2.3l-1.5,2.3l0.5,0.1v0.2l-0.9,0l-0.9,0v-0.2l0.6-0.1l1.9-2.6l-1.8-2.6l-0.5-0.1
			v-0.2l1,0l0.9,0v0.2l-0.4,0.1l1.3,2l0.7-1L-15.1-26.4z M-11.8-23.8L-11.8-23.8v2.4l0.6,0.1l0.6,0.1l0,0c0.5,0,0.9-0.1,1.2-0.4l0,0
			l0,0c0.3-0.2,0.4-0.6,0.4-1.1l0,0l0,0c0-0.4-0.2-0.7-0.5-0.9l0,0l0,0c-0.3-0.2-0.8-0.3-1.4-0.3l0,0l0,0c-0.1,0-0.1,0-0.3,0l0,0
			l0,0c-0.1,0-0.2,0-0.3,0l0,0l0,0C-11.4-23.9-11.6-23.9-11.8-23.8z M-10.4-20.9l-1.7,0l-0.9,0v-0.2l0.5-0.1l0,0c0,0,0-0.1,0-0.2
			l0,0l0,0c0-0.1,0-0.2,0-0.3l0,0l0-0.7v-2.7l-0.1-1.2l-0.5-0.1v-0.2l0.9,0l1.7,0l0,0c0.6,0,1,0.1,1.3,0.3l0,0l0,0
			c0.3,0.2,0.4,0.5,0.4,1l0,0l0,0c0,0.3-0.1,0.5-0.3,0.8l0,0l0,0c-0.1,0.1-0.2,0.2-0.4,0.3l0,0l0,0c-0.2,0.1-0.4,0.1-0.6,0.2l0,0
			l0,0c0.6,0,1.1,0.1,1.4,0.4l0,0l0,0c0.3,0.3,0.5,0.6,0.5,0.9l0,0l0,0c0,0.6-0.2,1.1-0.6,1.5l0,0l0,0C-9.1-21-9.7-20.9-10.4-20.9
			L-10.4-20.9z M-11.8-26.3v2l0.7,0l0,0c0.5,0,0.9-0.1,1.2-0.3l0,0l0,0c0.3-0.2,0.4-0.4,0.4-0.8l0,0l0,0c0-0.3-0.1-0.6-0.3-0.7l0,0
			l0,0c-0.2-0.1-0.5-0.2-1-0.2l0,0L-11.8-26.3z"/>
	</g>
	
		<g id="_x30_769d9de-ca7d-4943-a785-26dd038f8dfd" transform="matrix(0.3874109387397766,0,0,0.3874109387397766,147.64308035440575,164.18056237439836)">
		<path d="M-246.1-265.2c0-0.5-0.1-0.9-0.2-1.3c-0.1-0.4-0.3-0.7-0.6-1c-0.3-0.3-0.6-0.5-0.9-0.6c-0.4-0.1-0.8-0.2-1.2-0.2
			c-0.4,0-0.8,0.1-1.2,0.2c-0.4,0.1-0.7,0.4-0.9,0.6c-0.3,0.3-0.5,0.6-0.6,1c-0.1,0.4-0.2,0.8-0.2,1.3c0,0.5,0.1,0.9,0.2,1.3
			c0.1,0.4,0.3,0.7,0.6,1c0.3,0.3,0.6,0.5,0.9,0.6c0.4,0.1,0.8,0.2,1.2,0.2c0.4,0,0.8-0.1,1.2-0.2c0.4-0.1,0.7-0.4,0.9-0.6
			c0.3-0.3,0.5-0.6,0.6-1C-246.2-264.3-246.1-264.7-246.1-265.2z M-246.6-265.2c0,0.4,0,0.8-0.2,1.2c-0.1,0.3-0.3,0.6-0.5,0.9
			c-0.2,0.2-0.5,0.4-0.8,0.6c-0.3,0.1-0.6,0.2-1,0.2c-0.4,0-0.7-0.1-1-0.2c-0.3-0.1-0.6-0.3-0.8-0.6c-0.2-0.2-0.4-0.5-0.5-0.9
			c-0.1-0.3-0.2-0.7-0.2-1.2c0-0.4,0-0.8,0.2-1.2c0.1-0.3,0.3-0.6,0.5-0.9c0.2-0.2,0.5-0.4,0.8-0.5c0.3-0.1,0.6-0.2,1-0.2
			c0.4,0,0.7,0.1,1,0.2c0.3,0.1,0.6,0.3,0.8,0.5c0.2,0.2,0.4,0.5,0.5,0.9C-246.6-266-246.6-265.6-246.6-265.2z M-235.6-268.3h-0.4
			h-0.8v0.2c0,0.1,0.1,0.1,0.2,0.2h0.1c0,0,0.1,0,0.2,0s0.2,0,0.3,0v4.8c0,0.1,0,0.2,0,0.3l-4-5.4c0,0,0-0.1-0.1-0.1
			c0,0-0.1,0-0.1,0h-0.2h-0.7v0.2c0,0.1,0.1,0.1,0.2,0.2h0.1c0,0,0.1,0,0.2,0s0.2,0,0.3,0v5.5c-0.1,0-0.2,0-0.3,0s-0.1,0-0.2,0h-0.1
			c-0.1,0-0.2,0.1-0.2,0.2v0.2h0.7h0.4h0.8v-0.2c0-0.1-0.1-0.1-0.2-0.2h-0.1c0,0-0.1,0-0.2,0c-0.1,0-0.2,0-0.3,0v-4.8
			c0-0.1,0-0.2,0-0.3l4,5.4c0,0.1,0.1,0.1,0.2,0.1h0.2v-5.8c0.1,0,0.2,0,0.3,0s0.2,0,0.2,0h0.1c0.1,0,0.2-0.1,0.2-0.2v-0.2H-235.6z
			 M-225.9-263.3c-0.1,0-0.2,0.1-0.2,0.2c0,0,0,0,0,0.1c0,0,0,0.1,0,0.2c0,0.1,0,0.2,0,0.3h-2.6v-5.4c0.1,0,0.2,0,0.3,0s0.2,0,0.2,0
			h0.1c0.1,0,0.2-0.1,0.2-0.2v-0.2h-0.7h-0.4h-0.7v0.2c0,0.1,0.1,0.1,0.2,0.2h0.1c0,0,0.1,0,0.2,0s0.2,0,0.3,0v5.5
			c-0.1,0-0.2,0-0.3,0s-0.1,0-0.2,0h-0.1c-0.1,0-0.2,0.1-0.2,0.2v0.2h0.7h3.3h0.1h0.1v-0.2v-0.3v-0.6H-225.9L-225.9-263.3z
			 M-218.7-268c0.1,0,0.2-0.1,0.2-0.2v-0.2h-0.7h-0.4h-0.7v0.2c0,0.1,0.1,0.1,0.2,0.2h0.1c0,0,0.1,0,0.2,0c0.1,0,0.2,0,0.3,0v5.5
			c-0.1,0-0.2,0-0.3,0c-0.1,0-0.1,0-0.2,0h-0.1c-0.1,0-0.2,0.1-0.2,0.2v0.2h0.7h0.4h0.7v-0.2c0-0.1-0.1-0.1-0.2-0.2h-0.1
			c0,0-0.1,0-0.2,0c-0.1,0-0.2,0-0.3,0v-5.5c0.1,0,0.2,0,0.3,0C-218.9-268-218.8-268-218.7-268L-218.7-268z M-207.8-268.3h-0.4h-0.8
			v0.2c0,0.1,0.1,0.1,0.2,0.2h0.1c0,0,0.1,0,0.2,0c0.1,0,0.2,0,0.3,0v4.8c0,0.1,0,0.2,0,0.3l-4-5.4c0,0,0-0.1-0.1-0.1c0,0,0,0-0.1,0
			h-0.2h-0.7v0.2c0,0.1,0.1,0.1,0.2,0.2h0.1c0,0,0.1,0,0.2,0s0.2,0,0.3,0v5.5c-0.1,0-0.2,0-0.3,0s-0.1,0-0.2,0h-0.1
			c-0.1,0-0.2,0.1-0.2,0.2v0.2h0.7h0.4h0.8v-0.2c0-0.1-0.1-0.1-0.2-0.2h-0.1c0,0-0.1,0-0.2,0s-0.2,0-0.3,0v-4.8c0-0.1,0-0.2,0-0.3
			l4,5.4c0,0.1,0.1,0.1,0.2,0.1h0.2v-5.8c0.1,0,0.2,0,0.3,0c0.1,0,0.2,0,0.2,0h0.1c0.1,0,0.2-0.1,0.2-0.2v-0.2H-207.8z
			 M-201.3-268.3h-0.7v0.2c0,0.1,0.1,0.1,0.2,0.2h0.1c0,0,0.1,0,0.2,0c0.1,0,0.2,0,0.3,0v5.5c-0.1,0-0.2,0-0.3,0c-0.1,0-0.1,0-0.2,0
			h-0.1c-0.1,0-0.2,0.1-0.2,0.2v0.2h0.7h3.7v-0.4v-0.9h-0.2c-0.1,0-0.2,0.1-0.2,0.2c0,0,0,0,0,0.1s0,0.1,0,0.3c0,0.1,0,0.2,0,0.3
			h-2.8v-2.6h2.5v-0.4h-2.5v-2.5h2.8c0,0.4,0,0.6,0,0.7c0,0.1,0.1,0.2,0.2,0.2h0.2v-0.9v-0.4H-201.3z M-181.3-268.3h-0.2h-3.5h-0.7
			v0.2c0,0.1,0.1,0.1,0.2,0.2h0.1c0,0,0.1,0,0.2,0c0.1,0,0.2,0,0.3,0v5.5c-0.1,0-0.2,0-0.3,0c-0.1,0-0.1,0-0.2,0h-0.1
			c-0.1,0-0.2,0.1-0.2,0.2v0.2h0.7h0.4h0.7v-0.2c0-0.1-0.1-0.1-0.2-0.2h-0.1c0,0-0.1,0-0.2,0s-0.2,0-0.3,0v-2.5h2.3v-0.4h-2.3v-2.6
			h2.9c0,0.4,0,0.7,0,0.7c0,0.1,0.1,0.2,0.2,0.2h0.2L-181.3-268.3L-181.3-268.3z M-170.4-265.2c0-0.5-0.1-0.9-0.2-1.3
			c-0.1-0.4-0.3-0.7-0.6-1c-0.3-0.3-0.6-0.5-0.9-0.6c-0.4-0.1-0.8-0.2-1.2-0.2c-0.4,0-0.8,0.1-1.2,0.2c-0.4,0.1-0.7,0.4-0.9,0.6
			c-0.3,0.3-0.5,0.6-0.6,1c-0.1,0.4-0.2,0.8-0.2,1.3c0,0.5,0.1,0.9,0.2,1.3c0.1,0.4,0.3,0.7,0.6,1c0.3,0.3,0.6,0.5,0.9,0.6
			c0.4,0.1,0.7,0.2,1.2,0.2c0.4,0,0.8-0.1,1.2-0.2c0.4-0.1,0.7-0.4,0.9-0.6c0.3-0.3,0.5-0.6,0.6-1
			C-170.5-264.3-170.4-264.7-170.4-265.2z M-170.9-265.2c0,0.4,0,0.8-0.2,1.2c-0.1,0.3-0.3,0.6-0.5,0.9c-0.2,0.2-0.5,0.4-0.8,0.6
			c-0.3,0.1-0.6,0.2-1,0.2c-0.4,0-0.7-0.1-1-0.2c-0.3-0.1-0.6-0.3-0.8-0.6c-0.2-0.2-0.4-0.5-0.5-0.9c-0.1-0.3-0.2-0.7-0.2-1.2
			c0-0.4,0-0.8,0.2-1.2c0.1-0.3,0.3-0.6,0.5-0.9c0.2-0.2,0.5-0.4,0.8-0.5c0.3-0.1,0.6-0.2,1-0.2c0.4,0,0.7,0.1,1,0.2
			c0.3,0.1,0.6,0.3,0.8,0.5c0.2,0.2,0.4,0.5,0.5,0.9C-170.9-266-170.9-265.6-170.9-265.2z M-160.3-262.4L-160.3-262.4h-0.2
			c0,0-0.1,0-0.2,0l-1.9-2.3c0-0.1-0.1-0.1-0.2-0.2c0.3,0,0.5-0.1,0.7-0.2s0.4-0.2,0.5-0.4c0.1-0.1,0.3-0.3,0.3-0.5
			c0.1-0.2,0.1-0.4,0.1-0.6c0-0.5-0.2-0.9-0.5-1.2c-0.3-0.3-0.9-0.4-1.6-0.4h-1.5h-0.7v0.2c0,0.1,0.1,0.1,0.2,0.2h0.1
			c0,0,0.1,0,0.2,0s0.2,0,0.3,0v5.5c-0.1,0-0.2,0-0.3,0s-0.1,0-0.2,0h-0.1c-0.1,0-0.2,0.1-0.2,0.2v0.2h0.7h0.4h0.7v-0.2
			c0-0.1-0.1-0.1-0.2-0.2h-0.1c0,0-0.1,0-0.2,0s-0.2,0-0.3,0v-2.4h0.7c0.1,0,0.2,0,0.3,0c0,0,0.1,0.1,0.2,0.1l2,2.5
			c0,0,0.1,0.1,0.1,0.1c0,0,0.1,0,0.1,0h0h0.3h0.2v-0.2C-160.1-262.4-160.1-262.4-160.3-262.4z M-163.1-265.2h-1v-2.7h1.1
			c0.5,0,1,0.1,1.3,0.3c0.3,0.2,0.4,0.5,0.4,1c0,0.2,0,0.4-0.1,0.6c-0.1,0.2-0.2,0.3-0.3,0.4s-0.3,0.2-0.5,0.3
			C-162.5-265.3-162.8-265.2-163.1-265.2z M-154.2-268.3h-0.7v0.2c0,0.1,0.1,0.1,0.2,0.2h0.1c0,0,0.1,0,0.2,0s0.2,0,0.3,0v5.5
			c-0.1,0-0.2,0-0.3,0s-0.1,0-0.2,0h-0.1c-0.1,0-0.2,0.1-0.2,0.2v0.2h0.7h3.7v-0.4v-0.9h-0.2c-0.1,0-0.2,0.1-0.2,0.2c0,0,0,0,0,0.1
			s0,0.1,0,0.3c0,0.1,0,0.2,0,0.3h-2.8v-2.6h2.5v-0.4h-2.5v-2.5h2.8c0,0.4,0,0.6,0,0.7c0,0.1,0.1,0.2,0.2,0.2h0.2v-0.9v-0.4H-154.2z
			 M-139.8-262.4L-139.8-262.4c-0.1,0-0.1,0-0.2,0s-0.1,0-0.2,0l-2-2.9l1.9-2.6c0.1,0,0.1,0,0.2,0c0.1,0,0.1,0,0.1,0h0.1
			c0.1,0,0.2-0.1,0.2-0.2v-0.2h-0.3h-0.2h-0.3h0h-1v0.2c0,0.1,0.1,0.1,0.2,0.2h0.1c0,0,0.1,0,0.2,0c0.1,0,0.2,0,0.3,0l-1.6,2.3
			c0,0,0,0,0,0.1c0,0,0,0,0,0.1l-1.7-2.5c0.1,0,0.2,0,0.2,0c0.1,0,0.1,0,0.2,0h0.1c0.1,0,0.2-0.1,0.2-0.2v-0.2h-1h0h-0.3h-0.1h-0.3
			v0.2c0,0.1,0.1,0.1,0.2,0.2h0.1c0,0,0.1,0,0.1,0c0,0,0.1,0,0.2,0l1.9,2.7l-2,2.8c-0.1,0-0.1,0-0.2,0c0,0-0.1,0-0.1,0h-0.1
			c-0.1,0-0.2,0.1-0.2,0.2v0.2h0.3h0.2h0.2h0.1h1v-0.2c0-0.1-0.1-0.1-0.2-0.2h-0.1c0,0-0.1,0-0.2,0c-0.1,0-0.2,0-0.3,0l0,0l1.7-2.5
			c0,0,0-0.1,0.1-0.1l1.8,2.6c-0.1,0-0.2,0-0.3,0c-0.1,0-0.1,0-0.2,0h-0.1c-0.1,0-0.2,0.1-0.2,0.2v0.2h0.9h0h0.3h0.1h0.2v-0.2
			C-139.6-262.4-139.6-262.4-139.8-262.4z M-123.5-264.8c-0.3-0.3-0.6-0.4-1.1-0.5c0.2,0,0.4-0.1,0.5-0.2c0.2-0.1,0.3-0.2,0.4-0.3
			c0.1-0.1,0.2-0.3,0.2-0.4c0-0.1,0.1-0.3,0.1-0.5c0-0.2,0-0.5-0.1-0.7c-0.1-0.2-0.2-0.4-0.4-0.5c-0.2-0.1-0.4-0.2-0.6-0.3
			s-0.6-0.1-0.9-0.1h-1.8h-0.7v0.2c0,0.1,0.1,0.1,0.2,0.2h0.1c0,0,0.1,0,0.2,0c0.1,0,0.2,0,0.3,0v5.5c-0.1,0-0.2,0-0.3,0
			c-0.1,0-0.1,0-0.2,0h-0.1c-0.1,0-0.2,0.1-0.2,0.2v0.2h0.7h2c0.3,0,0.6,0,0.9-0.1c0.3-0.1,0.5-0.2,0.7-0.3c0.2-0.1,0.3-0.3,0.4-0.5
			c0.1-0.2,0.1-0.4,0.1-0.7C-123.1-264.2-123.2-264.5-123.5-264.8z M-126.7-267.9h1.3c0.5,0,1,0.1,1.2,0.3c0.3,0.2,0.4,0.5,0.4,0.9
			c0,0.2,0,0.3-0.1,0.5c-0.1,0.1-0.2,0.3-0.3,0.4c-0.1,0.1-0.3,0.2-0.5,0.3c-0.2,0.1-0.4,0.1-0.7,0.1h-1.3V-267.9z M-124-262.8
			c-0.3,0.2-0.7,0.3-1.2,0.3h-1.5v-2.6h1.6c0.3,0,0.5,0,0.7,0.1c0.2,0.1,0.4,0.1,0.5,0.3c0.1,0.1,0.2,0.2,0.3,0.4
			c0.1,0.2,0.1,0.3,0.1,0.5C-123.5-263.4-123.7-263.1-124-262.8z M-113-262.4L-113-262.4h-0.2c0,0-0.1,0-0.2,0l-1.9-2.3
			c0-0.1-0.1-0.1-0.2-0.2c0.3,0,0.5-0.1,0.7-0.2c0.2-0.1,0.4-0.2,0.5-0.4c0.1-0.1,0.3-0.3,0.3-0.5c0.1-0.2,0.1-0.4,0.1-0.6
			c0-0.5-0.2-0.9-0.5-1.2c-0.3-0.3-0.9-0.4-1.6-0.4h-1.5h-0.7v0.2c0,0.1,0,0.1,0.2,0.2h0.1c0,0,0.1,0,0.2,0c0.1,0,0.2,0,0.3,0v5.5
			c-0.1,0-0.2,0-0.3,0c-0.1,0-0.1,0-0.2,0h-0.1c-0.1,0-0.2,0.1-0.2,0.2v0.2h0.7h0.4h0.7v-0.2c0-0.1-0.1-0.1-0.2-0.2h-0.1
			c0,0-0.1,0-0.2,0c-0.1,0-0.2,0-0.3,0v-2.4h0.7c0.1,0,0.2,0,0.3,0c0,0,0.1,0.1,0.2,0.1l2,2.5c0,0,0.1,0.1,0.1,0.1c0,0,0.1,0,0.1,0
			h0h0.3h0.2v-0.2C-112.8-262.4-112.9-262.4-113-262.4z M-115.8-265.2h-1v-2.7h1.1c0.6,0,1,0.1,1.3,0.3c0.3,0.2,0.4,0.5,0.4,1
			c0,0.2,0,0.4-0.1,0.6c-0.1,0.2-0.2,0.3-0.3,0.4c-0.1,0.1-0.3,0.2-0.5,0.3C-115.3-265.3-115.5-265.2-115.8-265.2z M-102.1-265.2
			c0-0.5-0.1-0.9-0.2-1.3c-0.1-0.4-0.3-0.7-0.6-1c-0.3-0.3-0.6-0.5-0.9-0.6c-0.4-0.1-0.8-0.2-1.2-0.2s-0.8,0.1-1.2,0.2
			c-0.4,0.1-0.7,0.4-0.9,0.6c-0.3,0.3-0.5,0.6-0.6,1c-0.1,0.4-0.2,0.8-0.2,1.3c0,0.5,0.1,0.9,0.2,1.3c0.1,0.4,0.3,0.7,0.6,1
			c0.3,0.3,0.6,0.5,0.9,0.6c0.4,0.1,0.8,0.2,1.2,0.2s0.8-0.1,1.2-0.2c0.4-0.1,0.7-0.4,0.9-0.6c0.3-0.3,0.5-0.6,0.6-1
			C-102.2-264.3-102.1-264.7-102.1-265.2z M-102.6-265.2c0,0.4,0,0.8-0.2,1.2c-0.1,0.3-0.3,0.6-0.5,0.9c-0.2,0.2-0.5,0.4-0.8,0.6
			c-0.3,0.1-0.6,0.2-1,0.2c-0.4,0-0.7-0.1-1-0.2c-0.3-0.1-0.6-0.3-0.8-0.6c-0.2-0.2-0.4-0.5-0.5-0.9c-0.1-0.3-0.2-0.7-0.2-1.2
			c0-0.4,0.1-0.8,0.2-1.2c0.1-0.3,0.3-0.6,0.5-0.9c0.2-0.2,0.5-0.4,0.8-0.5c0.3-0.1,0.6-0.2,1-0.2c0.4,0,0.7,0.1,1,0.2
			c0.3,0.1,0.6,0.3,0.8,0.5c0.2,0.2,0.4,0.5,0.5,0.9C-102.6-266-102.6-265.6-102.6-265.2z M-91.6-262.4L-91.6-262.4h-0.2
			c-0.1,0-0.1,0-0.2,0l-2.5-2.6c0-0.1-0.1-0.1-0.1-0.1c-0.1,0-0.1-0.1-0.2-0.1c0,0,0.1,0,0.1-0.1c0,0,0.1-0.1,0.1-0.1l2.4-2.4h0.2
			c0.1,0,0.1,0,0.1,0h0.1c0.1,0,0.2-0.1,0.2-0.2v-0.2h-0.6h-0.1h-1.1v0.2c0,0.1,0.1,0.1,0.2,0.2h0.1c0.1,0,0.1,0,0.2,0h0.3l-2.3,2.4
			c0,0-0.1,0.1-0.1,0.1c0,0-0.1,0-0.1,0c0,0-0.1,0-0.1,0c0,0-0.1,0-0.1,0h-0.4v-2.5c0.1,0,0.2,0,0.3,0c0.1,0,0.1,0,0.2,0h0.1
			c0.1,0,0.2-0.1,0.2-0.2v-0.2h-0.7h-0.4H-97v0.2c0,0.1,0.1,0.1,0.2,0.2h0.1c0,0,0.1,0,0.2,0c0.1,0,0.2,0,0.3,0v5.5
			c-0.1,0-0.2,0-0.3,0c-0.1,0-0.2,0-0.2,0h-0.1c-0.1,0-0.2,0.1-0.2,0.2v0.2h0.7h0.4h0.7v-0.2c0-0.1,0-0.1-0.2-0.2h-0.1
			c0,0-0.1,0-0.2,0c-0.1,0-0.2,0-0.3,0v-2.6h0.4c0.1,0,0.1,0,0.2,0c0,0,0.1,0,0.1,0c0,0,0.1,0,0.1,0.1c0,0,0.1,0,0.1,0.1l2.4,2.5
			c-0.1,0-0.2,0-0.3,0H-93h-0.1c-0.1,0-0.2,0.1-0.2,0.2v0.2h1.2h0h0.1h0.4h0.2v-0.2C-91.5-262.4-91.5-262.4-91.6-262.4z
			 M-85.6-268.3h-0.7v0.2c0,0.1,0.1,0.1,0.2,0.2h0.1c0,0,0.1,0,0.2,0c0.1,0,0.2,0,0.3,0v5.5c-0.1,0-0.2,0-0.3,0c-0.1,0-0.1,0-0.2,0
			h-0.1c-0.1,0-0.2,0.1-0.2,0.2v0.2h0.7h3.7v-0.4v-0.9h-0.2c-0.1,0-0.2,0.1-0.2,0.2c0,0,0,0,0,0.1s0,0.1,0,0.3c0,0.1,0,0.2,0,0.3
			h-2.8v-2.6h2.5v-0.4h-2.5v-2.5h2.8c0,0.4,0,0.6,0,0.7c0,0.1,0.1,0.2,0.2,0.2h0.2v-0.9v-0.4H-85.6z M-71.5-262.4L-71.5-262.4h-0.2
			c-0.1,0-0.1,0-0.2,0l-1.9-2.3c-0.1-0.1-0.1-0.1-0.2-0.2c0.3,0,0.5-0.1,0.7-0.2s0.4-0.2,0.5-0.4c0.1-0.1,0.3-0.3,0.3-0.5
			c0.1-0.2,0.1-0.4,0.1-0.6c0-0.5-0.2-0.9-0.5-1.2c-0.3-0.3-0.9-0.4-1.6-0.4h-1.5h-0.7v0.2c0,0.1,0,0.1,0.2,0.2h0.1c0,0,0.1,0,0.2,0
			c0.1,0,0.2,0,0.3,0v5.5c-0.1,0-0.2,0-0.3,0c-0.1,0-0.1,0-0.2,0h-0.1c-0.1,0-0.2,0.1-0.2,0.2v0.2h0.7h0.4h0.7v-0.2
			c0-0.1-0.1-0.1-0.2-0.2h-0.1c0,0-0.1,0-0.2,0c-0.1,0-0.2,0-0.3,0v-2.4h0.7c0.1,0,0.2,0,0.3,0c0.1,0,0.1,0.1,0.2,0.1l2,2.5
			c0,0,0.1,0.1,0.1,0.1c0,0,0.1,0,0.1,0h0h0.3h0.2v-0.2C-71.4-262.4-71.4-262.4-71.5-262.4z M-74.3-265.2h-1v-2.7h1.1
			c0.5,0,1,0.1,1.3,0.3c0.3,0.2,0.4,0.5,0.4,1c0,0.2,0,0.4-0.1,0.6c-0.1,0.2-0.2,0.3-0.3,0.4c-0.1,0.1-0.3,0.2-0.5,0.3
			S-74-265.2-74.3-265.2z"/>
	</g>
	<g>
		<g>
			<linearGradient id="SVGID_1_" gradientUnits="userSpaceOnUse" x1="-3.5" y1="46.9918" x2="42.6715" y2="46.9918">
				<stop  offset="0" style="stop-color:#0D7CE9"/>
				<stop  offset="1" style="stop-color:#15CFF1"/>
			</linearGradient>
			<polygon fill="url(#SVGID_1_)" points="33.7,34.1 36.5,36.9 24.6,48.8 19.4,43.6 0,62.6 4.3,62.6 40.7,62.6 40.7,46.8 40.7,46.8 
				38.2,44.2 38.1,44.2 38.1,60.3 6.7,60.3 19.4,47.8 24.6,53 38.6,39 41.2,41.6 44,31.3 			"/>
		</g>
		<linearGradient id="SVGID_2_" gradientUnits="userSpaceOnUse" x1="-3.5" y1="46.4721" x2="42.6715" y2="46.4721">
			<stop  offset="0" style="stop-color:#0D7CE9"/>
			<stop  offset="1" style="stop-color:#15CFF1"/>
		</linearGradient>
		<polygon fill="url(#SVGID_2_)" points="29.6,34.5 0,34.5 0,58.5 2.6,55.8 2.6,36.8 31.9,36.8 		"/>
	</g>
</g>
</svg>
