<svg xmlns="http://www.w3.org/2000/svg" width="120" height="97"><path d="M38.281 49.149v4.193l2.319.704-.487 1.087h-6.874l-1.874.176.311-1.273 1.408-.176V42.026l-1.781-.704.373-1.087h1.408l9.069-.3c1.194.497 2.157 1.08 2.889 1.75.732.67 1.097 1.522 1.097 2.557s-.302 1.903-.906 2.604c-.604.701-1.375 1.236-2.314 1.605-.939.369-1.933.602-2.982.699h-1.656zm0-7.579v5.891l1.915.497c.269-.2.493-.594.673-1.18a6.14 6.14 0 00.269-1.801c0-.69-.031-1.223-.093-1.6a3.1 3.1 0 00-.29-.937l-1.615-1.087-.859.217zM57.973 54.77l-4.804.652c-.511-.221-.932-.694-1.263-1.418l-3.096 1.418c-.78-.262-1.406-.688-1.879-1.279-.473-.59-.709-1.316-.709-2.179 0-.145.021-.324.062-.538l5.58-1.812v-1.646c-.2-.29-.454-.545-.761-.766-.307-.221-.63-.4-.968-.538.11.621.28 1.198.507 1.729l-3.251 1.398-1.273-3.22 5.808-2.361c.379.083.861.245 1.444.487s1.17.609 1.76 1.103c.59.494.992 1.11 1.206 1.848v3.655c-.014.214-.004.502.031.864.034.362.086.685.155.968.069.283.155.438.259.466l.808-.176.384 1.345zm-6.709-1.822l.6-.104V50.67l-1.16.569c-.062.11-.093.273-.093.487.001.463.218.87.653 1.222zM64.257 53.342l1.781.694-.362 1.087-5.725.031-1.874.186.3-1.273 1.408-.186v-6.823h-1.512l-.248-.973 4.483-1.853 1.75.952v.642l2.485-1.605c.055 0 .179.031.373.093a7.108 7.108 0 011.657.818l-2.112 3.323c-.4-.386-.723-.676-.968-.87a11.403 11.403 0 00-.978-.673l-.456.259v6.171zM80.771 54.77l-4.804.652c-.511-.221-.932-.694-1.263-1.418l-3.096 1.418c-.78-.262-1.406-.688-1.879-1.279-.473-.59-.709-1.316-.709-2.179 0-.145.021-.324.062-.538l5.58-1.812v-1.646c-.2-.29-.454-.545-.761-.766-.307-.221-.63-.4-.968-.538.11.621.28 1.198.507 1.729l-3.251 1.398-1.273-3.22 5.808-2.361c.38.083.861.245 1.444.487s1.17.609 1.76 1.103c.59.494.992 1.11 1.206 1.848v3.655c-.014.214-.004.502.031.864.034.362.086.685.155.968.069.283.155.438.259.466l.808-.176.384 1.345zm-6.709-1.822l.6-.104V50.67l-1.16.569c-.062.11-.093.273-.093.487.001.463.218.87.653 1.222zM92.992 54.325c.093.283.14.611.14.984 0 .904-.211 1.724-.632 2.459-.421.735-1.246 1.351-2.474 1.848-1.229.497-2.968.745-5.218.745-.442-.048-.954-.211-1.537-.487a5.01 5.01 0 01-1.512-1.087c-.424-.449-.637-.942-.637-1.48 0-.228.021-.431.062-.611l1.926-1.594a3.874 3.874 0 01-1.035-1.134 3.705 3.705 0 01-.497-1.413l2.899-1.201c-.683-.145-1.242-.298-1.677-.461a2.566 2.566 0 01-1.103-.792c-.3-.366-.45-.866-.45-1.501 0-.607.252-1.213.756-1.817.504-.604 1.241-1.127 2.21-1.568.97-.442 2.117-.728 3.442-.859h.176c1.001.214 1.836.507 2.505.88.386-.262.611-.556.673-.88.014-.055-.017-.221-.093-.497a3.33 3.33 0 00-.228-.632l.083-.383 1.843-.59c.359.407.538.873.538 1.398 0 .2-.017.373-.052.518-.076.387-.285.726-.626 1.02a3.718 3.718 0 01-1.248.688c.559.538.839 1.187.839 1.946 0 .683-.309 1.332-.927 1.946-.618.614-1.444 1.148-2.48 1.6a15.14 15.14 0 01-3.385 1.009l7.113 1.097c.311.283.513.566.606.849zm-4.415 4.095c.228-.231.409-.487.544-.766.135-.28.202-.544.202-.792l-4.504-1.004a4.42 4.42 0 01-.497-.135l-.642.756c.186.324.521.657 1.004.999a9.757 9.757 0 001.6.911c.583.266 1.106.45 1.568.554.255-.118.497-.292.725-.523zm-2.904-11.301a2.19 2.19 0 00-.088.642c0 .276.031.537.093.782s.135.426.217.544l1.501.994c.069-.193.126-.438.171-.735.045-.297.067-.545.067-.745a2.66 2.66 0 00-.238-1.087l-1.367-.921a1.137 1.137 0 00-.356.526zM103.097 45.354c.68.494 1.189 1.068 1.527 1.724.338.656.507 1.363.507 2.122 0 1.07-.302 2.043-.906 2.92-.604.877-1.441 1.601-2.511 2.174s-2.292.949-3.665 1.129h-.176c-1.498-.414-2.628-1.015-3.391-1.801-.763-.787-1.144-1.877-1.144-3.272 0-.953.252-1.839.756-2.661a6.6 6.6 0 011.952-2.04c.797-.538 1.62-.887 2.469-1.046l.393.362 1.512-.756h.176c.988.27 1.821.652 2.501 1.145zM100.4 51.82c.09-.538.135-1.087.135-1.646 0-.421-.036-.859-.109-1.315-.072-.456-.164-.804-.274-1.046l-1.615-1.253h-.104c-.152.297-.273.716-.362 1.258a10.13 10.13 0 00-.135 1.662c0 .407.036.82.109 1.237.072.418.164.751.274.999l1.605 1.356h.114c.152-.296.272-.714.362-1.252zM119.709 54.046l-.259 1.087h-6.17l.176-1.077.538-.166v-5.725c0-.076-.004-.135-.01-.176l-1.263-1.325-1.025.507v6.636l.89.28-.186 1.046h-5.052l-1.501.176.248-1.273 1.129-.176v-6.812h-1.512l-.249-.973 4.483-1.853 1.75.953v.621l3.189-1.574c.352 0 .82.149 1.403.445a5.379 5.379 0 011.527 1.154c.435.473.652.965.652 1.475v6.046l1.242.704zM33.526 58.844l1.124-.096-.043.49-1.08-.094v1.101l.568.172-.119.266H32.29l-.459.043.076-.312.345-.043v-2.899l-.436-.172.091-.266h3.092l.008 1.195-.657-.02-.312-.875-.512-.038v1.548zM35.225 60.726l.061-.312.276-.043v-1.669h-.37l-.061-.238 1.098-.454.429.233v2.001l.304.172-.063.266h-1.306l-.368.044zm.269-3.576l.989-.492.406.829-.989.495-.406-.832zM40.534 60.417l-.063.266h-1.512l.043-.264.132-.041v-1.403a.231.231 0 00-.003-.043l-.309-.325-.251.124v1.626l.218.068-.046.256h-1.238l-.368.043.061-.312.276-.043V58.7h-.37l-.061-.238 1.098-.454.429.233v.152l.781-.386c.086 0 .201.036.344.109.143.073.268.167.374.283a.53.53 0 01.16.361v1.481l.305.176zM43.582 60.594l-1.177.16c-.125-.054-.228-.17-.309-.347l-.758.347a.968.968 0 01-.46-.313.828.828 0 01-.159-.666l1.367-.444v-.403a.771.771 0 00-.186-.188 1.152 1.152 0 00-.237-.132c.027.152.068.293.124.424l-.796.342-.312-.789 1.423-.578c.093.02.211.06.354.119s.287.149.431.27a.9.9 0 01.295.453v.895c-.003.052-.001.123.008.212.008.089.021.168.038.237.017.069.038.107.063.114l.198-.043.093.33zm-1.643-.446l.147-.025v-.533l-.284.14a.25.25 0 00-.023.119c0 .113.053.212.16.299zM47.085 60.417l-.063.266H45.51l.043-.264.132-.041v-1.403a.231.231 0 00-.003-.043l-.309-.325-.251.124v1.626l.218.068-.046.256h-1.238l-.368.043.061-.312.276-.043V58.7h-.37l-.061-.238 1.098-.454.429.233v.152l.781-.386c.086 0 .201.036.344.109.143.073.268.167.374.283a.53.53 0 01.16.361v1.481l.305.176zM48.006 60.683c-.315-.132-.532-.292-.652-.481a1.173 1.173 0 01-.18-.643c0-.269.081-.519.243-.751.162-.232.392-.42.69-.564a2.522 2.522 0 011.03-.237l.599.619-.867.525-.421-.583a1.763 1.763 0 00-.105.339c-.031.14-.047.285-.047.435 0 .086.009.181.027.283a.884.884 0 00.075.247l.299.276.903-.315.107.228-.994.682-.707-.06zM52.378 60.061l-.994.682-.705-.061c-.315-.132-.532-.292-.652-.481a1.173 1.173 0 01-.18-.643c0-.274.084-.53.252-.769a1.79 1.79 0 01.681-.571c.286-.142.595-.213.928-.213a.976.976 0 01.43.274c.123.132.184.342.184.632 0 .054-.003.113-.008.178l-1.342.355c.005.079.016.158.033.236a.795.795 0 00.063.19l.299.276.903-.312.108.227zm-1.258-1.496c-.037.079-.07.178-.099.294a1.889 1.889 0 00-.051.388l.441-.231a1.601 1.601 0 00.005-.231.59.59 0 00-.296-.22z"/><g><linearGradient id="a" gradientUnits="userSpaceOnUse" x1="19.097" y1="42.285" x2="4.572" y2="52.303"><stop offset="0" stop-color="#ff0"/><stop offset=".526" stop-color="#ff7c15"/><stop offset="1" stop-color="#ec2e3d"/></linearGradient><path fill="url(#a)" d="M1.005 39.934s10.501 9.797 21.554 7.134c0 0-.402 13.314-15.425 15.726 0 0 9.948-3.617 11.053-13.063.001.001-12.711.151-17.182-9.797z"/><linearGradient id="b" gradientUnits="userSpaceOnUse" x1="20.07" y1="43.696" x2="5.545" y2="53.713"><stop offset="0" stop-color="#ff0"/><stop offset=".526" stop-color="#ff7c15"/><stop offset="1" stop-color="#ec2e3d"/></linearGradient><path fill="url(#b)" d="M8.851 56.859c-.606-.41-1.177-.88-1.705-1.409a11.518 11.518 0 01-2.397-3.488 17.445 17.445 0 01-2.67-2.13 13.35 13.35 0 003.703 6.982 13.605 13.605 0 001.982 1.639c.333-.424.715-.962 1.087-1.594z"/><linearGradient id="c" gradientUnits="userSpaceOnUse" x1="20.216" y1="43.908" x2="5.691" y2="53.925"><stop offset="0" stop-color="#ff0"/><stop offset=".526" stop-color="#ff7c15"/><stop offset="1" stop-color="#ec2e3d"/></linearGradient><path fill="url(#c)" d="M24.802 37.793a13.363 13.363 0 00-9.511-3.939c-3.593 0-6.97 1.399-9.511 3.939a13.592 13.592 0 00-1.898 2.378c.452.34.981.721 1.577 1.12a11.626 11.626 0 011.685-2.134 11.445 11.445 0 018.146-3.374c3.077 0 5.97 1.198 8.146 3.374 2.176 2.176 3.374 5.069 3.374 8.146s-1.198 5.97-3.374 8.146a11.51 11.51 0 01-3.658 2.47 17.63 17.63 0 01-2.963 2.747 13.344 13.344 0 007.985-3.853 13.363 13.363 0 003.939-9.511 13.345 13.345 0 00-3.937-9.509z"/><linearGradient id="d" gradientUnits="userSpaceOnUse" x1="18.861" y1="41.943" x2="4.335" y2="51.96"><stop offset="0" stop-color="#ff0"/><stop offset=".526" stop-color="#ff7c15"/><stop offset="1" stop-color="#ec2e3d"/></linearGradient><path fill="url(#d)" d="M0 43.401s5.024 7.737 15.826 7.963c0 0-1.407 6.494-7.913 9.389 0 0 3.199-2.973 4.045-7.467 0 .001-9.597-1.947-11.958-9.885z"/><linearGradient id="e" gradientUnits="userSpaceOnUse" x1="20.148" y1="43.809" x2="5.623" y2="53.827"><stop offset="0" stop-color="#ff0"/><stop offset=".526" stop-color="#ff7c15"/><stop offset="1" stop-color="#ec2e3d"/></linearGradient><path fill="url(#e)" d="M13.71 45.361s2.331-3.457 7.589-3.264c1.157.042 2.363.207 3.698 1.029 0 0-2.01-.208-2.232 2.214-3.299 1.275-9.055.021-9.055.021z"/></g></svg>