<svg id="Layer_1" data-name="Layer 1" xmlns="http://www.w3.org/2000/svg" viewBox="0 0 120 97"><defs><style>.cls-1{fill:#0f1014;}.cls-2{fill:none;}.cls-3{fill:#00ff50;}.cls-4{fill:#fff;}</style></defs><title>PrimoTrade - Max-EcoSales -App</title><rect class="cls-1" width="120" height="97"/><rect class="cls-2" width="120" height="97"/><path class="cls-3" d="M7,58.94H0L4.21,26.32l3.88-3.43h6.13c7.55,0,12.08,3,11,11.19-1,7.65-5.63,11.38-13,11.38H8.77ZM9.52,39.62H11c4.15,0,6.52-.9,7.12-5.59s-2-5.31-5.91-5.31H10.93Z"/><path class="cls-3" d="M46.82,58.94H40.13l3-23.47h6.69Z"/><path class="cls-3" d="M50.06,33.87H43.37l.43-3.38,3.88-3.43h3.26Z"/><path class="cls-4" d="M109.19,33.87h-1.68l.72-5.61,1.36-1.2H111L110.21,33Z"/><path class="cls-4" d="M113.09,37.23h-1.68l.72-5.61,1.36-1.2h1.39l-.76,5.91Z"/><path class="cls-4" d="M117.43,37.23h-1.69l1.51-11.69,1.36-1.2H120l-1.55,12Z"/><path class="cls-3" d="M58,37.57h.1a8.11,8.11,0,0,1,6.1-2.87,6.43,6.43,0,0,1,6.27,3.68,9.41,9.41,0,0,1,7.31-3.68c6,0,6.88,4.49,6.22,9.61L82.09,58.94h-6.7L77,46.6c.29-2.29,1-6.55-2.31-6.55-3.64,0-4.22,4.93-4.54,7.37L68.65,58.94H62L63.5,47c.29-2.29,1.19-7-2.3-7-3.73,0-4.17,4.88-4.49,7.37L55.22,58.94H48.53l2.59-20L55,35.47h3.26Z"/><path class="cls-3" d="M111.42,47.23A13.85,13.85,0,0,1,97.48,59.7c-7.36,0-11.66-5.21-10.72-12.47A13.89,13.89,0,0,1,100.71,34.7C108,34.7,112.37,39.91,111.42,47.23Zm-17.88,0c-.4,3.15,1.26,6.54,4.7,6.54s6-3.39,6.39-6.54-1.25-6.6-4.69-6.6S94,44,93.54,47.23Z"/><path class="cls-3" d="M39.68,34.7a7.8,7.8,0,0,0-6.25,3.2h-.09l.31-2.43H30.39L26.52,38.9l-2.59,20h6.69L32,48.37c.47-3.63,1.48-7.74,6.11-7.74a4.39,4.39,0,0,1,2.39.68l.83-6.38A6.43,6.43,0,0,0,39.68,34.7Z"/><path class="cls-4" d="M67.47,74.11H64.53V65.29H62.1V64.18l1.38-1.38H69.9v2.49H67.47Z"/><path class="cls-4" d="M80.36,74.11H76.7l-2.77-4.35h0v4.35H71V64.18l1.37-1.38h3c2.24,0,3.93,1.07,3.93,3.48a3,3,0,0,1-2.47,3.2ZM73.9,67.87h.28c1,0,2-.18,2-1.41s-1.08-1.41-2-1.41H73.9Z"/><path class="cls-4" d="M84,72.14l-.78,2H80.13L84.48,62.8h3.21L92,74.11H88.81l-.73-2Zm2-5.84h0l-1.21,3.6h2.44Z"/><path class="cls-4" d="M92.86,64.18l1.37-1.38H97a5.66,5.66,0,1,1,0,11.31H92.86Zm2.94,7.44h.66a3.17,3.17,0,1,0,0-6.33H95.8Z"/><path class="cls-4" d="M107.07,65.29v1.89h3.31v2.49h-3.31v2h3.49v2.49h-6.43V64.18l1.37-1.38h5.06v2.49Z"/></svg>