<svg id="Layer_1" data-name="Layer 1" xmlns="http://www.w3.org/2000/svg" viewBox="0 0 120 97"><defs><style>.cls-1{fill:#343434;}.cls-2{fill:#ff000a;}</style></defs><path class="cls-1" d="M17.87,13.65H14V4.78H38.06c7,0,11.7,4.43,11.7,11.41V41C49.76,48,45,52.42,38,52.42h-8.4V73.28H17.87ZM34.1,43.46c3.49,0,4.15-1.23,4.15-4.06V18.08c0-2.83-1.13-4.62-4.72-4.62H29.47v30Z"/><path class="cls-2" d="M59.22,28.37s17.72,54.48-45,63.34c0,0,70.88,10.5,71.87-63.34Z"/><path class="cls-2" d="M94,28.37s4.6,45.45-35.77,62.35c0,0,48.9-3.77,47.75-62.35Z"/></svg>