<svg id="Layer_1" data-name="Layer 1" xmlns="http://www.w3.org/2000/svg" viewBox="0 0 120 97"><defs><style>.cls-1{fill:#fff;}.cls-2{fill:#ffdc48;}</style></defs><title>PRIME FUNDER -App</title><rect width="120" height="97"/><path class="cls-1" d="M6.51,47.78v10H3.12V35.49H8.6a18,18,0,0,1,3.58.26,5.57,5.57,0,0,1,2,.88,5.13,5.13,0,0,1,1.64,2.09,6.93,6.93,0,0,1,.59,2.9,7.1,7.1,0,0,1-.59,2.93,5,5,0,0,1-1.64,2.1,5.55,5.55,0,0,1-2,.87,18,18,0,0,1-3.58.26H6.51Zm.23-3h.93a8.18,8.18,0,0,0,4-.66,2.55,2.55,0,0,0,1-2.31,2.82,2.82,0,0,0-1.07-2.52,7.61,7.61,0,0,0-3.95-.73H6.74Z"/><path class="cls-1" d="M23.11,47.81v10h-3.4V35.49h5.06a15.44,15.44,0,0,1,3.45.29,5.3,5.3,0,0,1,2.09,1,5.2,5.2,0,0,1,1.6,2.08,6.8,6.8,0,0,1,.57,2.8,6.28,6.28,0,0,1-1.3,4.2,5.68,5.68,0,0,1-3.82,1.82L35,57.78H30.94l-7.42-10ZM23.34,45H24c1.92,0,3.2-.22,3.83-.67a2.75,2.75,0,0,0,.94-2.38,3,3,0,0,0-1-2.59A6.62,6.62,0,0,0,24,38.59h-.65Z"/><path class="cls-1" d="M37.24,57.78V35.49h3.63V57.78Z"/><path class="cls-1" d="M64.26,46.77c0-.17-.11-.65-.2-1.43s-.15-1.19-.21-1.62a14.3,14.3,0,0,1-.39,1.53,14,14,0,0,1-.63,1.55L57,58.68,51.16,46.56c-.24-.5-.45-1-.63-1.45s-.33-.93-.47-1.39A12.75,12.75,0,0,1,50,45.19a14.54,14.54,0,0,1-.3,1.61l-2.39,11H43.93L49.2,34.54l6.57,14.07c.11.23.26.6.47,1.11s.46,1.16.75,1.92a25,25,0,0,1,1-2.43l.27-.61L64.7,34.54l5.39,23.24H66.72Z"/><path class="cls-1" d="M73,57.78V35.49H85.42v3.07H76.61v5.59h8.81v3.18H76.61v7.21h8.81v3.24Z"/><path class="cls-1" d="M3,82.47V60.18H15.44v3.07H6.62v5.56h8.82V72H6.62V82.47Z"/><path class="cls-1" d="M16.5,60.18h3.58V73.71a6.48,6.48,0,0,0,1.39,4.53,5.4,5.4,0,0,0,4.17,1.52,5.38,5.38,0,0,0,4.15-1.52,6.53,6.53,0,0,0,1.39-4.53V60.18H34.8V74.05q0,4.52-2.28,6.77c-1.52,1.5-3.82,2.24-6.88,2.24s-5.36-.74-6.87-2.23-2.27-3.76-2.27-6.78Z"/><path class="cls-1" d="M37.3,82.47V59.29L51.46,72.92c.38.39.77.8,1.17,1.24s.81.92,1.25,1.47V60.18h3.35V83.34L42.78,69.47c-.39-.38-.76-.78-1.12-1.19s-.7-.85-1-1.31v15.5Z"/><path class="cls-1" d="M58.73,82.47V60.18h4.89a32,32,0,0,1,6.71.48,9.05,9.05,0,0,1,3.4,1.6,9.32,9.32,0,0,1,2.93,3.79,13.2,13.2,0,0,1,1,5.29,13,13,0,0,1-1,5.26,9.35,9.35,0,0,1-2.93,3.78A8.9,8.9,0,0,1,70.4,82a25.43,25.43,0,0,1-5.81.48H58.73Zm3.63-3.27h3a15.85,15.85,0,0,0,3.77-.34,5.45,5.45,0,0,0,2.19-1.13,6.68,6.68,0,0,0,1.89-2.68,11.42,11.42,0,0,0,0-7.48,6.71,6.71,0,0,0-1.89-2.69,5.57,5.57,0,0,0-2.27-1.12A17.74,17.74,0,0,0,65,63.42H62.36Z"/><path class="cls-1" d="M79.87,82.47V60.18H92.31v3.07H83.5v5.59h8.81V72H83.5v7.21h8.81v3.24Z"/><path class="cls-1" d="M97.36,72.5v10H94V60.18h5a15.32,15.32,0,0,1,3.45.29,5.34,5.34,0,0,1,2.1,1,5.29,5.29,0,0,1,1.6,2.08,7,7,0,0,1,.56,2.8,6.23,6.23,0,0,1-1.3,4.2,5.66,5.66,0,0,1-3.82,1.82l7.68,10.14h-4.1l-7.41-10Zm.23-2.82h.66c1.92,0,3.19-.22,3.82-.67a2.72,2.72,0,0,0,.94-2.38A3,3,0,0,0,102,64a6.58,6.58,0,0,0-3.75-.76h-.66Z"/><path class="cls-2" d="M3.08,30.89a1.34,1.34,0,0,1,0,.2c.37,0,.55.06,1,.07,11.26.19,22.46.36,33.78.5l8.49.14h.75c2.27,0,11,.16,12.09.18,12.92.2,23.78.36,35.95.56,1.67,0,2.8.07,4.37.22a1.27,1.27,0,0,1,1,.57c1.23,2,2.23,4,3.29,6.13a.7.7,0,0,1-.12.7c-3.49,2.81-6.87,5.63-10.34,8.46a3.61,3.61,0,0,1-.44.23c.17-1.27.37-2.58.51-3.83.18-1.55.34-3.05.45-4.59a7.42,7.42,0,0,0-.15-1.32l-.27,0a3.86,3.86,0,0,0-.35.74c-1.21,4.15-2.5,8.49-3.67,12.58-.28,1-.27,1.5.51,2s1.36.41,2.13-.3c3.11-2.9,6.29-6,9.42-9,1.13-1.09,2.31-2.37,3.43-3.5.16.29.38.7.51,1,1.77,4,3.56,8,5.41,11.9.09.18.19.38.28.52.35.52.86.71,1.18.08.9-1.79,1.45-3.49.6-5.4-1.4-3.14-3.1-6.17-4.6-9.23a1,1,0,0,1,.33-1.5c2.33-1.87,4.67-3.8,7-5.64a6.17,6.17,0,0,0,1.06-1c.19-.25.41-.6.28-.9s-.56-.42-.87-.45c-1.15-.1-2.42-.11-3.55-.16-3.1-.12-6.12-.21-9.21-.34a1.75,1.75,0,0,1-1.37-.67c-4-4.81-7.58-9.93-11.42-14.91a8.8,8.8,0,0,0-1-1.11.65.65,0,0,0-.65-.11.59.59,0,0,0-.18.62,3.15,3.15,0,0,0,.47.91C92.24,20.05,94.62,25.3,97.9,30c.07.09.15.27.22.38-.41,0-.44.06-.8.06-7.8,0-10.94,0-19.88.07-8.55,0-21.28.05-30.75,0H45.54a11.62,11.62,0,0,0-1.67,0c-8.68,0-17.85,0-26.39.05-4.86,0-8.73.12-13.37.23C3.68,30.81,3.49,30.86,3.08,30.89Zm100.66,2,8.71.23.1.2c-1.87,1.53-3.75,3-5.7,4.63Z"/><polygon class="cls-2" points="42.96 82.58 42.96 73.46 52.22 82.58 42.96 82.58"/><polygon class="cls-2" points="51.24 60.2 51.24 69.31 41.98 60.2 51.24 60.2"/></svg>