<?xml version="1.0" encoding="utf-8"?>
<!-- Generator: Adobe Illustrator 22.0.1, SVG Export Plug-In . SVG Version: 6.00 Build 0)  -->
<svg version="1.1" id="Слой_1" xmlns="http://www.w3.org/2000/svg" xmlns:xlink="http://www.w3.org/1999/xlink" x="0px" y="0px"
	 viewBox="0 0 120 97" style="enable-background:new 0 0 120 97;" xml:space="preserve">
<style type="text/css">
	.st0{fill:#FFFFFF;}
	.st1{fill:#FFCF01;}
</style>
<g>
	<path class="st0" d="M41.6,26.1c-0.1,1.1-0.5,2.2-1.2,3.2c-0.7,0.9-1.5,1.6-2.5,2.1c-2,1-4.2,1.5-6.8,1.5c-0.4,0-0.8,0-1.3-0.1
		c-1.5,3.8-2.3,6.4-2.3,7.8c0,0.2,0,0.4,0.1,0.6h-3.5c0.5-2.2,1.6-5.3,3.2-9.2c2.2-5.2,3.6-8.2,4.2-8.9c-1.6,0-3.2,0.4-4.7,0.9
		c-1.6,0.6-2.5,1.3-2.8,2.1c0,0-0.1,0.1-0.1,0.1c-0.2,0-0.2-0.1-0.2-0.4c0-0.1,0-0.2,0.1-0.3c0.3-1,0.9-1.8,1.5-2.3
		c0.7-0.5,1.3-0.9,1.9-1c0.8-0.1,1.6-0.2,2.3-0.2h6.9c1.7,0,2.9,0.4,3.8,1.1c0.8,0.7,1.3,1.6,1.3,2.7L41.6,26.1z M34.3,31.7
		c1.3-0.5,2.4-1.2,3.2-2.1c0.8-0.9,1.3-2.1,1.3-3.4c0-2.1-1.3-3.2-3.8-3.4c-1.2,1.5-2.7,4.2-4.4,8.2l-0.6,1.3h0.3
		C31.7,32.3,33.1,32.1,34.3,31.7z"/>
	<path class="st0" d="M47.1,30.1l1.4,0h0.3c-0.3,0.2-0.7,0.8-1.2,1.8c-0.5,1-0.9,1.7-1.1,2.2c-0.3,0.7-0.6,1.3-0.8,2
		c-0.3,0.8-0.5,1.5-0.5,2.1c0,0.5,0.2,0.8,0.5,0.8c0.2,0,0.6-0.2,1-0.5c0.4-0.3,0.8-0.6,1.1-1c0.3-0.4,0.6-0.9,0.9-1.4
		c0.3-0.6,0.6-1,0.9-1.5c0.2-0.4,0.4-0.6,0.4-0.6c0.1,0,0.2,0.2,0.2,0.5c0,0.3-0.1,0.7-0.3,1c-0.8,1.3-1.4,2.3-1.9,3
		c-0.5,0.7-1.2,1.4-1.9,1.9c-0.7,0.6-1.4,0.9-2,0.9c-1,0-1.6-0.8-1.6-2.3c0-1,0.2-2.2,0.6-3.5c0.4-1.3,1-2.6,1.8-3.8
		c-0.6,0.5-1.3,0.8-1.9,0.8c-0.2,0-0.4,0-0.6-0.1c-1.3,2.6-2,3.8-2.1,3.8c-0.1,0-0.2-0.2-0.2-0.5s0.1-0.7,0.3-1.3
		c0.2-0.5,0.5-1.1,0.7-1.5c0.3-0.5,0.4-0.8,0.4-0.8c-0.7-0.3-1-0.9-1-1.6c0-0.4,0.1-0.7,0.3-1c0.2-0.3,0.6-0.4,0.9-0.4
		c0.4,0,0.7,0.1,1,0.4c0,0.2-0.1,0.3-0.1,0.5c0,0.5,0.2,0.9,0.5,1.2c0.4,0.3,0.8,0.4,1.3,0.4c0.1,0,0.2,0,0.3,0
		C45.8,30.6,46.5,30.1,47.1,30.1z"/>
	<path class="st0" d="M62.2,34.4c0.1-0.1,0.1-0.2,0.2-0.2c0.1,0,0.2,0.1,0.2,0.4c0,0.9-0.4,1.6-1.1,2.2c-0.7,0.6-1.4,0.9-2,0.9
		c-0.6,0-1.1-0.2-1.6-0.5c-0.7,1.3-1.4,2.3-2.3,3.1c-0.9,0.7-2.1,1.1-3.5,1.1c-0.9,0-1.7-0.3-2.2-0.8S49,39.1,49,38
		c0-1.1,0.3-2.3,0.8-3.5c0.5-1.2,1.3-2.3,2.4-3.1c1.1-0.9,2.2-1.3,3.5-1.3c2.2,0,3.3,1.2,3.3,3.5c0,0.9-0.2,1.9-0.6,2.8
		c0.3,0.4,0.7,0.6,1.2,0.6C60.4,36.8,61.3,36,62.2,34.4z M57.6,32.7c-0.1-1-0.5-1.5-1.3-1.5c-1.3,0-2.5,1.2-3.7,3.7
		c-0.7,1.4-1,2.6-1,3.7s0.5,1.7,1.4,1.7c0.8,0,1.5-0.4,2.2-1.2c0.7-0.8,1.2-1.8,1.7-2.8c-0.6-0.5-0.9-1.2-0.9-2
		c0-0.5,0.1-0.9,0.4-1.2c0.3-0.3,0.6-0.4,1.1-0.4L57.6,32.7z"/>
	<path class="st0" d="M64,32.6c-1.4,2.6-2.1,3.9-2.3,3.9c-0.1,0-0.1-0.2-0.1-0.5c0-0.3,0-0.5,0.2-0.8c0.8-1.4,1.5-2.9,2-4.4
		c0-0.2,0.1-0.3,0.2-0.5c0.1-0.1,0.2-0.1,0.5-0.1h0.2l2.4,0.2c0.1-0.3,0.3-0.8,0.6-1.5s0.5-1.3,0.6-1.7c0.1-0.4,0.4-0.9,0.7-1.6
		c0.2-0.5,0.5-1.1,0.8-1.6c0.3-0.4,0.6-0.9,0.9-1.3c0.3-0.4,0.7-0.8,1.2-1.1c0.9-0.6,1.9-0.9,3-0.9c1.9,0,2.9,0.7,2.9,2.1
		c0,0.5-0.2,1-0.5,1.4C76.9,24.7,76.5,25,76,25c-0.2,0-0.4-0.1-0.6-0.2c-0.2-0.1-0.3-0.3-0.3-0.5c0-0.2,0.1-0.5,0.4-0.8
		c0.3-0.4,0.4-0.7,0.4-1c0-0.3-0.1-0.5-0.3-0.7c-0.2-0.2-0.5-0.3-0.8-0.3c-0.5,0-1.1,0.3-1.6,0.9c-0.5,0.6-1.1,1.4-1.5,2.3
		c-0.8,1.7-1.6,3.5-2.2,5.3c0,0.1,0,0.1-0.1,0.2c-0.1,0.1-0.1,0.3-0.1,0.4c2.9,0,4.5-0.1,4.9-0.4c-0.2,0.6-0.7,1-1.5,1.2
		c-0.8,0.2-2,0.3-3.8,0.3l-0.8,2.3c-1.1,3.3-2,5.5-2.6,6.7c-0.6,1.2-1.2,2.3-1.8,3.1c-0.5,0.8-1,1.5-1.7,2.2c-1.2,1.3-2.5,2-3.9,2
		c-0.9,0-1.6-0.2-2-0.6c-0.4-0.4-0.6-0.9-0.6-1.4c0-0.5,0.1-0.9,0.4-1.3c0.2-0.3,0.5-0.5,0.8-0.5c0.3,0,0.5,0.1,0.7,0.2
		c0.1,0.1,0.2,0.3,0.2,0.4c0,0.2-0.1,0.4-0.3,0.7c-0.2,0.3-0.3,0.6-0.3,0.9c0,0.2,0.1,0.4,0.2,0.6c0.1,0.2,0.4,0.2,0.7,0.2
		c0.3,0,0.7-0.2,1.2-0.5c0.5-0.4,0.9-0.9,1.3-1.4c1.6-2.3,3.6-6.9,6.2-13.6h-0.8C64.9,31.7,64.3,32,64,32.6z"/>
	<path class="st1" d="M78.6,25.1c-0.2-0.2-0.5-0.3-0.9-0.3s-0.8,0.2-1.3,0.7c-0.4,0.5-0.7,1-0.7,1.4c0,0.5,0.2,0.8,0.7,1
		c0.2-0.4,0.4-0.7,0.7-1c0.3-0.3,0.7-0.5,1.1-0.5h0.1c0.3-0.2,0.5-0.5,0.5-0.8C79,25.5,78.8,25.3,78.6,25.1z"/>
	<path class="st1" d="M77.6,34.1c0,0-0.2,0.2-0.4,0.6c-0.2,0.4-0.5,0.9-0.9,1.4c-0.3,0.5-0.6,1-0.9,1.4c-0.3,0.4-0.7,0.7-1.1,1
		c-0.4,0.3-0.8,0.5-1,0.5c-0.3,0-0.5-0.3-0.5-0.8c0-0.5,0.2-1.2,0.5-2.1c0.2-0.7,0.5-1.3,0.8-2c0.2-0.5,0.6-1.2,1.1-2.2
		c0.5-1,0.9-1.6,1.2-1.8h-0.3l-1.4,0c-0.8,0-1.5,0.5-2.1,1.6c-1.5,2.7-2.3,5.1-2.3,7.3c0,1.4,0.5,2.1,1.5,2.1c0.6,0,1.2-0.3,1.9-0.8
		c0.7-0.6,1.4-1.2,1.9-2c0.6-0.8,1.2-1.7,1.9-2.8c0.2-0.3,0.3-0.6,0.3-1C77.8,34.3,77.7,34.1,77.6,34.1z"/>
	<path class="st0" d="M85,25.4c-0.9,0.6-1.9,2.2-3,4.8h2.8l0,0c0,0.1-0.1,0.3-0.3,0.5C84.3,30.9,84.1,31,84,31h-2.4
		c-1.4,3.6-2.2,5.9-2.2,6.9c0,0.7,0.2,1,0.7,1c0.6,0,1.4-0.5,2.2-1.6c0.3-0.4,0.6-0.8,0.8-1.2c0.8-1.4,1.3-2,1.3-2
		c0.1,0,0.2,0.1,0.2,0.4c0,0.7-0.8,2-2.3,4.1c-0.5,0.7-1.1,1.3-1.8,1.8c-0.7,0.6-1.3,0.8-1.9,0.8c-1,0-1.6-0.7-1.6-2.2
		c0-1.2,0.3-2.6,0.9-4.2v0c-0.3,0.5-0.6,1-0.9,1.4c-0.2,0.3-0.4,0.5-0.4,0.5c-0.1,0-0.1-0.1-0.1-0.3s0.1-0.6,0.4-1.1
		c0.2-0.5,0.6-1.2,1-2c0.4-0.8,0.8-1.6,1.1-2.2h-1.8c-0.1,0-0.1,0-0.1-0.1s0.1-0.2,0.2-0.4s0.2-0.3,0.3-0.3h2.1
		c1.3-3.2,2.6-4.7,4-4.7C84.5,25.5,84.9,25.4,85,25.4z"/>
	<path class="st0" d="M20,43.4h2c-0.8,0.8-1.7,3-2.6,6.6s-1.3,6.4-1.3,8.3c0,1.4,0.3,2.3,0.8,2.9c0.2,0.2,0.5,0.4,0.8,0.4
		c0.4,0,0.7-0.1,1-0.4l0.2,0.2c-0.3,0.4-0.7,0.7-1.4,0.9c-0.6,0.3-1.3,0.4-1.9,0.4c-1,0-1.6-0.3-1.9-1c-0.3-0.7-0.5-1.6-0.6-2.7
		c0-0.9,0.1-2.1,0.4-3.6H9.2c-2.7,2.9-4.9,5.2-6.4,7.1H0c1.7-1.6,4.4-4.1,8-7.7c4.7-4.6,7.7-7.9,9.2-9.6c0.3-0.3,0.5-0.6,0.8-0.9
		c0.3-0.2,0.5-0.4,0.8-0.5C19.2,43.5,19.6,43.4,20,43.4z M12.5,43.4h6.1c-0.5,0.5-1.3,0.8-2.4,1c-1.3,0.3-2.5,0.4-3.8,0.6
		c-1.4,0.1-2.4,0.3-2.8,0.3c-2,0.5-2.9,1.6-2.9,3.5c-0.6-0.6-0.9-1.2-0.8-1.9C5.8,44.6,8.1,43.4,12.5,43.4z M17.2,47.3
		c-2.1,2-4.4,4.2-6.9,6.8h5.3C16,52.2,16.5,50,17.2,47.3z"/>
	<path class="st0" d="M32.6,57c-1.4,2.3-2.6,3.9-3.7,4.8c-1.1,0.9-2.6,1.3-4.3,1.3c-1,0-1.9-0.2-2.6-0.6c-0.7-0.4-1-1-1-1.7
		c0-0.4,0.1-0.9,0.4-1.2c0.2-0.4,0.6-0.6,1.1-0.5c0.4,0,0.7,0.2,0.9,0.5c-0.3,0.3-0.5,0.7-0.5,1.2c0,0.9,0.5,1.4,1.5,1.4
		c0.6,0,1.2-0.2,1.6-0.6c0.4-0.4,0.7-0.9,0.7-1.4c0-0.5-0.1-0.9-0.3-1.3c-0.2-0.4-0.5-0.7-0.8-1l-0.9-0.9c-0.7-0.7-1.1-1.5-1.1-2.5
		c0-0.9,0.4-1.7,1.1-2.3c0.7-0.6,1.7-0.9,2.9-0.9c0.8,0,1.4,0.1,1.9,0.4s0.8,0.7,0.8,1.3c0,0.5-0.2,1.1-0.5,1.5
		c-0.3,0.4-0.8,0.6-1.4,0.6c-0.6,0-0.9-0.3-0.9-0.8c0-0.1,0.2-0.3,0.6-0.6c0.4-0.3,0.6-0.5,0.6-0.8c0-0.3-0.1-0.5-0.3-0.6
		c-0.2-0.1-0.6-0.2-1-0.2c-0.4,0-0.9,0.2-1.2,0.4c-0.4,0.3-0.6,0.7-0.6,1.2c0,0.5,0.2,0.9,0.6,1.3c0.4,0.4,0.8,0.8,1.3,1.1
		c0.5,0.3,1,0.7,1.3,1.2c0.4,0.5,0.6,1,0.6,1.6c0,0.5-0.1,1.1-0.4,1.5c-0.2,0.4-0.6,0.8-0.9,1.1c1-0.4,2.1-1.5,3.3-3.3
		c0.1-0.1,0.3-0.4,0.6-0.9c0.6-1.2,1-1.7,1.1-1.7c0.1,0,0.2,0.2,0.2,0.5C32.9,56.3,32.8,56.7,32.6,57z"/>
	<path class="st0" d="M43,57c-1.4,2.3-2.6,3.9-3.7,4.8c-1.1,0.9-2.6,1.3-4.3,1.3c-1,0-1.9-0.2-2.6-0.6c-0.7-0.4-1-1-1-1.7
		c0-0.4,0.1-0.9,0.4-1.2c0.2-0.4,0.6-0.6,1.1-0.5c0.4,0,0.7,0.2,0.9,0.5c-0.3,0.3-0.5,0.7-0.5,1.2c0,0.9,0.5,1.4,1.5,1.4
		c0.6,0,1.2-0.2,1.6-0.6c0.4-0.4,0.7-0.9,0.7-1.4c0-0.5-0.1-0.9-0.3-1.3c-0.2-0.4-0.5-0.7-0.8-1l-0.9-0.9c-0.7-0.7-1.1-1.5-1.1-2.5
		c0-0.9,0.4-1.7,1.1-2.3c0.7-0.6,1.7-0.9,2.9-0.9c0.8,0,1.4,0.1,1.9,0.4c0.5,0.3,0.8,0.7,0.8,1.3c0,0.5-0.2,1.1-0.5,1.5
		c-0.3,0.4-0.8,0.6-1.4,0.6s-0.9-0.3-0.9-0.8c0-0.1,0.2-0.3,0.6-0.6c0.4-0.3,0.6-0.5,0.6-0.8c0-0.3-0.1-0.5-0.3-0.6
		c-0.2-0.1-0.6-0.2-1-0.2c-0.4,0-0.9,0.2-1.2,0.4c-0.4,0.3-0.6,0.7-0.6,1.2c0,0.5,0.2,0.9,0.6,1.3c0.4,0.4,0.8,0.8,1.3,1.1
		c0.5,0.3,1,0.7,1.3,1.2c0.4,0.5,0.6,1,0.6,1.6c0,0.5-0.1,1.1-0.4,1.5c-0.2,0.4-0.6,0.8-0.9,1.1c1-0.4,2.1-1.5,3.3-3.3
		c0.1-0.1,0.3-0.4,0.6-0.9c0.6-1.2,1-1.7,1.1-1.7c0.1,0,0.2,0.2,0.2,0.5C43.2,56.3,43.1,56.7,43,57z"/>
	<path class="st0" d="M49,55.5c0,0-0.2,0.2-0.4,0.6c-0.2,0.4-0.5,0.9-0.9,1.4c-0.3,0.5-0.6,0.9-0.9,1.4c-0.3,0.4-0.7,0.7-1.1,1
		c-0.4,0.3-0.8,0.5-1,0.5c-0.3,0-0.5-0.3-0.5-0.8c0-0.5,0.1-1.2,0.5-2.1c0.2-0.7,0.5-1.3,0.8-2c0.2-0.5,0.6-1.2,1.1-2.2
		c0.5-1,0.9-1.6,1.2-1.8h-0.3l-1.4,0c-0.8,0-1.5,0.5-2.1,1.6c-1.5,2.7-2.3,5.1-2.3,7.3c0,1.4,0.5,2.1,1.5,2.1c0.6,0,1.2-0.3,1.9-0.8
		c0.7-0.6,1.4-1.2,1.9-2c0.6-0.8,1.2-1.7,1.9-2.8c0.2-0.3,0.3-0.6,0.3-1C49.1,55.7,49.1,55.5,49,55.5z"/>
	<path class="st1" d="M50,46.5c-0.2-0.2-0.5-0.3-0.9-0.3s-0.8,0.2-1.3,0.7c-0.4,0.5-0.7,1-0.7,1.4c0,0.5,0.2,0.8,0.7,1
		c0.2-0.4,0.4-0.7,0.7-1c0.3-0.3,0.7-0.5,1.1-0.5h0.1c0.3-0.2,0.5-0.5,0.5-0.8C50.3,46.9,50.2,46.7,50,46.5z"/>
	<path class="st0" d="M59.3,57c-1.4,2.3-2.6,3.9-3.7,4.8c-1.1,0.9-2.6,1.3-4.3,1.3c-1,0-1.9-0.2-2.6-0.6c-0.7-0.4-1-1-1-1.7
		c0-0.4,0.1-0.9,0.4-1.2c0.2-0.4,0.6-0.6,1.1-0.5c0.4,0,0.7,0.2,0.9,0.5c-0.3,0.3-0.5,0.7-0.5,1.2c0,0.9,0.5,1.4,1.5,1.4
		c0.6,0,1.2-0.2,1.6-0.6c0.4-0.4,0.7-0.9,0.7-1.4c0-0.5-0.1-0.9-0.3-1.3c-0.2-0.4-0.5-0.7-0.8-1l-0.9-0.9c-0.8-0.7-1.1-1.5-1.1-2.5
		c0-0.9,0.4-1.7,1.1-2.3c0.7-0.6,1.7-0.9,2.9-0.9c0.8,0,1.4,0.1,1.9,0.4c0.5,0.3,0.8,0.7,0.8,1.3c0,0.5-0.2,1.1-0.5,1.5
		c-0.3,0.4-0.8,0.6-1.4,0.6c-0.6,0-0.9-0.3-0.9-0.8c0-0.1,0.2-0.3,0.6-0.6c0.4-0.3,0.6-0.5,0.6-0.8c0-0.3-0.1-0.5-0.3-0.6
		c-0.2-0.1-0.6-0.2-1-0.2c-0.4,0-0.9,0.2-1.2,0.4C52.2,52.6,52,53,52,53.5c0,0.5,0.2,0.9,0.6,1.3c0.4,0.4,0.8,0.8,1.3,1.1
		c0.5,0.3,1,0.7,1.3,1.2c0.4,0.5,0.6,1,0.6,1.6c0,0.5-0.1,1.1-0.4,1.5c-0.2,0.4-0.6,0.8-0.9,1.1c1-0.4,2.1-1.5,3.3-3.3
		c0.1-0.1,0.3-0.4,0.6-0.9c0.6-1.2,1-1.7,1.1-1.7c0.1,0,0.2,0.2,0.2,0.5C59.5,56.3,59.4,56.7,59.3,57z"/>
	<path class="st0" d="M66.7,46.8c-0.9,0.6-1.9,2.2-3,4.8h2.8l0,0c0,0.1-0.1,0.3-0.3,0.5s-0.4,0.3-0.5,0.3h-2.4
		c-1.4,3.6-2.2,5.9-2.2,6.9c0,0.7,0.2,1,0.7,1c0.6,0,1.4-0.5,2.2-1.6c0.3-0.4,0.6-0.8,0.8-1.2c0.8-1.4,1.3-2,1.3-2
		c0.1,0,0.2,0.1,0.2,0.4c0,0.7-0.8,2-2.3,4.1c-0.5,0.7-1.1,1.3-1.8,1.8c-0.7,0.6-1.3,0.8-1.9,0.8c-1,0-1.6-0.7-1.6-2.2
		c0-1.2,0.3-2.6,0.9-4.2v0c-0.3,0.5-0.6,1-0.9,1.4c-0.2,0.3-0.4,0.5-0.4,0.5c-0.1,0-0.1-0.1-0.1-0.3c0-0.2,0.1-0.6,0.4-1.1
		c0.2-0.5,0.6-1.2,1-2s0.8-1.6,1.1-2.2h-1.8c-0.1,0-0.1,0-0.1-0.1c0-0.1,0.1-0.2,0.2-0.4c0.1-0.2,0.2-0.3,0.3-0.3h2.1
		c1.3-3.2,2.6-4.7,4-4.7C66.2,46.9,66.7,46.8,66.7,46.8z"/>
	<path class="st0" d="M91.5,75.1c12.9,0.7,24-9.2,24.7-22.1s-9.2-24-22.1-24.7c-2.4-0.1-4.8,0.1-7.2,0.7c3.2-1.2,6.6-1.8,10.1-1.6
		c13.4,0.7,23.7,12.3,23,25.7s-12.3,23.7-25.7,23c-3-0.2-6-0.9-8.7-2.1C87.5,74.6,89.4,75,91.5,75.1z"/>
	<path class="st0" d="M73.9,58.3l0.3-5.1l6.9,0.4l-0.7,12.4C77.6,64,75.3,61.4,73.9,58.3z M89.3,69.1l0.6-10.8L83.3,58l-0.5,9.4
		C84.8,68.3,87,68.9,89.3,69.1z M99,63.1l-6.9-0.4l-0.4,6.5c2.4-0.1,4.8-0.7,7-1.7L99,63.1z"/>
	<path class="st1" d="M109.9,37.8c2.2,3.7,3.3,8,3.1,12.3c-0.7,11.8-10.7,20.8-22.5,20.2c-10.9-0.6-19.5-9.3-20.1-20
		c0.8-0.1,2.5,1.6,2.5,1.6c-1.5-4.3-1-9.1-1-9.1C67.1,48.8,67,52.9,67,52.9c1.5-2.6,2-2.6,2.6-2.6C69,62.7,78.4,73.2,90.8,73.9
		c12.4,0.7,23-8.8,23.7-21.2C114.8,47.4,113.2,42.1,109.9,37.8z"/>
</g>
</svg>
