<?xml version="1.0" encoding="UTF-8"?>
<svg width="120px" height="97px" viewBox="0 0 120 97" version="1.1" xmlns="http://www.w3.org/2000/svg" xmlns:xlink="http://www.w3.org/1999/xlink">
    <!-- Generator: Sketch 54.1 (76490) - https://sketchapp.com -->
    <title>BO_Brand_logo</title>
    <desc>Created with Sketch.</desc>
    <defs>
        <linearGradient x1="-0.667393223%" y1="44.8127086%" x2="120.434563%" y2="67.0582447%" id="linearGradient-1">
            <stop stop-color="#8E44AD" offset="0%"></stop>
            <stop stop-color="#F75C4C" offset="100%"></stop>
        </linearGradient>
        <linearGradient x1="46.4814854%" y1="56.31%" x2="53.8554991%" y2="43.32%" id="linearGradient-2">
            <stop stop-color="#E74C3C" offset="0%"></stop>
            <stop stop-color="#F1C40F" offset="100%"></stop>
        </linearGradient>
        <linearGradient x1="35.261884%" y1="75.99%" x2="65.8680051%" y2="22.08%" id="linearGradient-3">
            <stop stop-color="#E74C3C" offset="0%"></stop>
            <stop stop-color="#F1C40F" offset="100%"></stop>
        </linearGradient>
        <linearGradient x1="13.9284563%" y1="135.41635%" x2="100.086129%" y2="-31.2219799%" id="linearGradient-4">
            <stop stop-color="#E74C3C" offset="0%"></stop>
            <stop stop-color="#F1C40F" offset="100%"></stop>
        </linearGradient>
        <linearGradient x1="33.8292241%" y1="83.8004462%" x2="67.2832576%" y2="13.8369499%" id="linearGradient-5">
            <stop stop-color="#E74C3C" offset="0%"></stop>
            <stop stop-color="#F1C40F" offset="100%"></stop>
        </linearGradient>
        <linearGradient x1="46.1007194%" y1="77.3034632%" x2="54.5035971%" y2="18.3765651%" id="linearGradient-6">
            <stop stop-color="#E74C3C" offset="0%"></stop>
            <stop stop-color="#F1C40F" offset="100%"></stop>
        </linearGradient>
        <linearGradient x1="47.5184661%" y1="86.3850817%" x2="57.4622753%" y2="7.69292962%" id="linearGradient-7">
            <stop stop-color="#E74C3C" offset="0%"></stop>
            <stop stop-color="#F1C40F" offset="100%"></stop>
        </linearGradient>
        <linearGradient x1="46.7308802%" y1="96.2960628%" x2="55.0686478%" y2="-0.597732181%" id="linearGradient-8">
            <stop stop-color="#8E44AD" offset="0%"></stop>
            <stop stop-color="#29C5FF" offset="100%"></stop>
        </linearGradient>
        <linearGradient x1="44.6482929%" y1="67.328495%" x2="55.4216372%" y2="32.515419%" id="linearGradient-9">
            <stop stop-color="#8E44AD" offset="0%"></stop>
            <stop stop-color="#29C5FF" offset="100%"></stop>
        </linearGradient>
        <linearGradient x1="-12.2632665%" y1="93.092061%" x2="98.8804455%" y2="5.50998902%" id="linearGradient-10">
            <stop stop-color="#008C31" offset="0%"></stop>
            <stop stop-color="#ECF955" offset="100%"></stop>
        </linearGradient>
        <linearGradient x1="80.3799628%" y1="35.9325055%" x2="-23.882572%" y2="101.389883%" id="linearGradient-11">
            <stop stop-color="#005C01" offset="0%"></stop>
            <stop stop-color="#ECF955" offset="100%"></stop>
        </linearGradient>
    </defs>
    <g id="BO_Brand_logo" stroke="none" stroke-width="1" fill="none" fill-rule="evenodd">
        <g id="Group" transform="translate(12.000000, 0.000000)">
            <path d="M44.36608,69.1907143 C33.3149867,70.4888571 19.91296,68.6451429 12.33408,59.6704286 C10.9597867,58.0427143 9.78602667,56.2632857 8.82432,54.4135714 C3.83146667,63.393 6.68970667,74.2812857 14.1947733,81.8207143 C23.3915733,91.0585714 39.10016,94.3315714 49.2010667,83.9802857 C54.8910933,78.1495714 56.6382933,72.1324286 56.2257067,66.3694286 C52.4398933,67.743 48.4544,68.7102857 44.36608,69.1907143 Z" id="Path" fill="url(#linearGradient-1)"></path>
            <path d="M44.36608,69.1907143 C42.60864,69.3968571 40.79104,69.5232857 38.9474133,69.5545714 C45.85728,82.8278571 27.6433067,91.2162857 17.6290133,84.6454286 L17.59488,84.7478571 C26.9179733,91.629 40.2577067,93.1457143 49.2014933,83.9802857 C54.89152,78.1495714 56.63872,72.1324286 56.2261333,66.3694286 C52.4398933,67.743 48.4544,68.7102857 44.36608,69.1907143 Z" id="Path" fill="#300C50" opacity="0.3"></path>
            <path d="M50.9789867,67.9752857 C46.94912,92.745 23.0378667,88.086 18.04544,85.0735714 C27.3437867,91.674 40.4002133,92.9987143 49.2010667,83.9798571 C54.8910933,78.1491429 56.6382933,72.132 56.2257067,66.369 C54.5143467,66.9904286 52.7624533,67.5278571 50.9789867,67.9752857 Z" id="Path" fill="#300C50" opacity="0.3"></path>
            <polygon id="Path" fill="#300C50" opacity="0.3" points="18.0445867 85.0731429 18.04544 85.0735714 18.04416 85.0727143"></polygon>
            <path d="M12.3336533,59.6704286 C10.95936,58.0427143 9.7856,56.2632857 8.82389333,54.4135714 C3.83104,63.393 6.68928,74.2812857 14.1943467,81.8207143 C15.24736,82.8784286 16.3861333,83.8568571 17.5914667,84.7457143 L17.69472,84.7285714 C15.4026667,81.9467143 14.3991467,70.4734286 23.6693333,67.26 C19.3096533,65.6965714 15.3578667,63.2511429 12.3336533,59.6704286 Z" id="Path" fill="#300C50" opacity="0.3"></path>
            <path d="M15.02464,62.3691429 L15.02464,62.3687143 C14.0650667,61.5514286 13.1639467,60.654 12.3336533,59.6704286 C10.95936,58.0427143 9.7856,56.2632857 8.82389333,54.4135714 C3.83104,63.393 6.68928,74.2812857 14.1943467,81.8207143 C15.24736,82.8784286 16.3861333,83.8568571 17.5914667,84.7457143 L17.69472,84.7285714 C17.69472,84.7285714 9.18186667,74.3734286 15.02464,62.3691429 Z" id="Path" fill="#300C50" opacity="0.3"></path>
            <path d="M82.1815467,14.4064286 C82.19648,14.4218571 82.2097067,14.439 82.22464,14.4544286 C82.2370133,14.4677143 82.2498133,14.4814286 82.2621867,14.4938571 C82.2353067,14.4655714 82.2097067,14.4351429 82.1815467,14.4064286 Z" id="Path" fill="url(#linearGradient-2)"></path>
            <path d="M82.2621867,14.4942857 C82.37824,14.6138571 82.4853333,14.739 82.59968,14.8594286 C82.4904533,14.7385714 82.3786667,14.6172857 82.2621867,14.4942857 Z" id="Path" fill="url(#linearGradient-3)"></path>
            <path d="M83.9970133,16.5677143 C83.4530133,15.8382857 82.8625067,15.1328571 82.22464,14.4544286 C82.06976,14.292 81.9170133,14.1295714 81.75104,13.9628571 C72.4232533,4.59385714 57.3000533,4.59385714 47.9722667,13.9628571 C38.6453333,23.3322857 38.6453333,38.5225714 47.9722667,47.892 C57.3000533,57.261 57.3000533,72.4517143 47.9722667,81.8207143 C38.9371733,90.8974286 24.46208,91.1807143 15.0852267,82.6718571 C33.8001067,100.542 63.38688,100.266857 81.75104,81.8207143 C100.114347,63.3758571 100.38784,33.6574286 82.59968,14.8594286 C83.1364267,15.4504286 83.6053333,16.0204286 83.9970133,16.5677143 Z" id="Path" fill="url(#linearGradient-4)"></path>
            <path d="M82.6001067,14.859 C82.48576,14.7385714 82.3786667,14.6134286 82.2626133,14.4938571 C82.25024,14.4814286 82.23744,14.4677143 82.2250667,14.4544286 C82.8629333,15.1324286 83.45344,15.8382857 83.99744,16.5677143 C83.6053333,16.0204286 83.1364267,15.4504286 82.6001067,14.859 Z" id="Path" fill="url(#linearGradient-5)"></path>
            <path d="M47.9726933,13.9628571 C38.64576,23.3322857 38.64576,38.5225714 47.9726933,47.892 C57.30048,57.261 57.30048,72.4517143 47.9726933,81.8207143 C38.64576,91.1901429 23.52256,91.1901429 14.1947733,81.8207143 C14.7485867,82.377 15.3130667,82.9152857 15.8865067,83.4381429 C28.2299733,94.338 43.2405333,88.323 48.8439467,82.6954286 C58.6517333,72.8438571 58.6517333,56.8697143 48.8439467,47.0177143 C39.9965867,38.1312857 39.12576,22.8497143 47.9726933,13.9628571 Z" id="Path" fill="#F9FCBA" opacity="0.3"></path>
            <path d="M15.3809067,82.9534286 C14.9832533,82.5801429 14.58304,82.2107143 14.1947733,81.8207143 C14.58304,82.2107143 14.9781333,82.5882857 15.3809067,82.9534286 Z" id="Path" fill="url(#linearGradient-6)"></path>
            <path d="M81.75104,13.9628571 C81.9498667,14.1625714 82.13632,14.3597143 82.31168,14.5551429 C82.1367467,14.3601429 81.9502933,14.1625714 81.75104,13.9628571 C75.5076267,7.692 65.3853867,7.692 59.1428267,13.9628571 C52.8994133,20.2337143 52.8994133,30.4011429 59.1428267,36.672 C71.5549867,49.1395714 71.5549867,69.3531429 59.1428267,81.8207143 C47.1189333,93.8982857 27.8574933,94.2758571 15.3809067,82.9534286 C34.11072,100.539 63.4837333,100.169571 81.75104,81.8207143 C100.2304,63.2584286 100.401067,33.2742857 82.2685867,14.4972857 C82.10304,14.3211429 81.93024,14.1432857 81.75104,13.9628571 Z" id="Path" fill="url(#linearGradient-7)"></path>
            <path d="M21.0001067,45.0132857 C24.63872,35.5718571 13.66528,27.855 6.25066667,34.7262857 C1.66954667,38.9717143 -0.598613333,47.25 0.640853333,54.7671429 C2.464,67.3324286 9.23050667,79.1172857 20.2922667,86.9888571 C10.19136,79.3941429 7.6736,65.0961429 14.7767467,54.444 C16.8900267,51.2734286 19.6706133,48.4624286 21.0001067,45.0132857 Z" id="Path" fill="url(#linearGradient-8)"></path>
            <path d="M20.29184,86.9888571 C20.6293333,87.2425714 20.9745067,87.4898571 21.3290667,87.7281429 C20.9745067,87.4898571 20.6378667,87.2352857 20.29184,86.9888571 Z" id="Path" fill="url(#linearGradient-9)"></path>
            <path d="M45.1456,0.060428572 C33.35168,0.759857143 22.7093333,5.76 14.7515733,13.5222857 C7.13429333,20.9528571 10.7677867,32.0468571 20.91008,30.5888571 C28.61952,29.4805714 31.22048,18.1118571 34.22464,12.9445714 C53.9703467,13.515 55.7521067,-0.562285714 45.1456,0.060428572 Z" id="Path" fill="url(#linearGradient-10)"></path>
            <path d="M34.69568,10.5047143 C31.45984,15.6741429 29.5944533,22.5115714 25.2501333,27.2845714 C20.48896,32.517 9.59445333,29.7917143 10.8667733,20.8375714 C10.88896,20.6858571 10.8765867,20.5452857 10.8676267,20.4137143 C9.74464,26.2697143 13.6669867,31.6307143 20.91008,30.5888571 C28.61952,29.4805714 31.22048,18.1118571 34.22464,12.9445714 C46.9056,13.3114286 52.1770667,7.63628571 51.5157333,3.69342857 C46.9294933,-2.34471429 37.5893333,5.88214286 34.69568,10.5047143 Z" id="Path" fill="#FEF7A2" opacity="0.3"></path>
            <path d="M45.1456,0.060428572 C34.9448533,0.665571429 25.6059733,4.48842857 18.1205333,10.5325714 C18.1525333,10.5394286 28.6289067,12.8532857 34.2250667,12.9445714 C53.9703467,13.515 55.7521067,-0.562285714 45.1456,0.060428572 Z" id="Path" fill="#ECF955" opacity="0.3"></path>
            <path d="M34.2250667,12.9441429 C46.9038933,13.311 52.1745067,7.63757143 51.51616,3.69514286 C47.84512,-0.561857143 38.6875733,4.23685714 34.2250667,12.9441429 Z" id="Path" fill="url(#linearGradient-11)"></path>
            <path d="M34.2250667,12.9441429 C36.1309867,12.9994286 37.8692267,12.9171429 39.4449067,12.7255714 C44.4578133,0.304285714 51.51616,3.69514286 51.51616,3.69514286 C47.84512,-0.561857143 38.6875733,4.23685714 34.2250667,12.9441429 Z" id="Path" fill="#003400" opacity="0.3"></path>
            <path d="M50.9674667,3.15728571 C51.8331733,5.53628571 49.9413333,7.93242857 48.1437867,9.25928571 C44.4253867,12.003 38.92992,12.6578571 34.4311467,12.5502857 C34.3616,12.6801429 34.29248,12.8117143 34.2250667,12.9441429 C46.9038933,13.311 52.17536,7.63714286 51.51616,3.69514286 C51.3454933,3.49585714 51.1620267,3.31757143 50.9674667,3.15728571 Z" id="Path" fill="#FEF7A2" opacity="0.3"></path>
            <path d="M9.18186667,32.8007143 C3.41589333,37.872 4.95317333,50.7925714 12.2013867,59.511 C12.84352,57.7624286 13.69856,56.0614286 14.7767467,54.4444286 C16.8904533,51.2738571 19.6706133,48.4624286 20.99968,45.0137143 C24.1809067,36.7598571 16.1954133,29.8247143 9.18186667,32.8007143 Z" id="Path" fill="#B6FFFF" opacity="0.3"></path>
            <path d="M47.9735467,13.9628571 C38.64576,23.3322857 38.64576,38.5225714 47.9735467,47.892 C53.1387733,53.0807143 55.44192,60.0544286 54.8859733,66.8361429 C78.47424,58.9735714 94.92224,35.2992857 81.6081067,13.8222857 C72.2688,4.59557143 57.2535467,4.64142857 47.9735467,13.9628571 Z" id="Path" fill="#FEF163" opacity="0.2"></path>
            <path d="M19.3578667,86.2508571 C19.49312,86.3635714 19.6352,86.4694286 19.7730133,86.5795714 C19.63264,86.4711429 19.4952533,86.361 19.3578667,86.2508571 Z" id="Path" fill="#B6FFFF" opacity="0.3"></path>
            <path d="M21.0001067,45.0132857 C24.63872,35.5718571 13.66528,27.855 6.25066667,34.7262857 C6.208,34.7661429 6.16618667,34.8064286 6.12394667,34.8467143 C13.7937067,27.8695714 23.2285867,35.7737143 19.88736,44.4428571 C17.60512,50.3652857 12.28928,53.4595714 10.27456,62.2967143 C8.29909333,70.9624286 11.5323733,79.9675714 19.3578667,86.2508571 C10.0411733,78.4954286 7.89717333,64.7601429 14.7767467,54.444 C16.89088,51.2734286 19.6706133,48.4624286 21.0001067,45.0132857 Z" id="Path" fill="#B6FFFF" opacity="0.3"></path>
            <path d="M20.2013867,86.946 C20.57216,87.2108571 20.9476267,87.4718571 21.3290667,87.7281429 C20.7889067,87.3647143 20.27392,86.9777143 19.7730133,86.5795714 C19.9470933,86.7137143 20.1096533,86.8547143 20.2871467,86.9867143 C20.27264,86.9695714 20.2423467,86.9562857 20.2013867,86.946 Z" id="Path" fill="#B6FFFF" opacity="0.3"></path>
            <path d="M45.1456,0.060428572 C33.35168,0.759857143 22.7093333,5.76 14.7515733,13.5222857 C12.60288,15.618 11.34976,18.0055714 10.88512,20.3207143 C10.45248,26.0862857 17.8986667,28.7292857 23.2456533,23.7981429 C26.24128,21.036 31.8843733,9.42728571 39.0203733,4.15628571 C42.8398933,1.33542857 49.28512,-0.157285714 51.5157333,3.69514286 L51.5157333,3.693 C51.14752,1.49657143 48.93952,-0.162428571 45.1456,0.060428572 Z" id="Path" fill="#ECF955" opacity="0.3"></path>
        </g>
    </g>
</svg>