<?xml version="1.0" encoding="UTF-8"?>
<svg width="120px" height="97px" viewBox="0 0 120 97" version="1.1" xmlns="http://www.w3.org/2000/svg" xmlns:xlink="http://www.w3.org/1999/xlink">
    <!-- Generator: Sketch 52.6 (67491) - http://www.bohemiancoding.com/sketch -->
    <title>BO_Brand_logo</title>
    <desc>Created with Sketch.</desc>
    <g id="BO_Brand_logo" stroke="none" stroke-width="1" fill="none" fill-rule="evenodd">
        <g id="Group-41" transform="translate(2.000000, 8.000000)" fill-rule="nonzero" stroke-width="0.535211268">
            <g id="Group" transform="translate(3.000000, 0.000000)" fill="#E9E9E9" stroke="#FF6116">
                <path d="M17.6368605,0.656657143 C19.7365814,0.656657143 21.7196512,0.917842857 23.5840814,1.4382 C25.4485116,1.95922857 27.0882558,2.7636 28.5026512,3.84795714 C29.9170465,4.93365714 31.0418023,6.32351429 31.8782442,8.01618571 C32.7140233,9.70952857 33.1315814,11.7513429 33.1315814,14.1382714 C33.1315814,17.6552143 32.2639884,20.4557429 30.5281395,22.5405286 C28.7922907,24.6246429 26.5739302,26.1011143 23.8737209,26.9692714 L33.5816163,44.0980857 C33.7095349,44.3586 33.7744884,44.5976286 33.7744884,44.8145 C33.7744884,45.2052714 33.6346395,45.5416571 33.3562674,45.8236571 C33.0772326,46.107 32.7458372,46.2473286 32.360093,46.2473286 L29.5949302,46.2473286 C28.7372791,46.2473286 28.1056395,46.0304571 27.698686,45.5960429 C27.2910698,45.1623 27.0014302,44.7930143 26.8304302,44.4888571 L17.5089419,27.8810714 L6.45027907,27.8810714 L6.45027907,44.4881857 C6.45027907,44.9669143 6.27861628,45.3785 5.93661628,45.7256286 C5.59262791,46.0741 5.18567442,46.2466571 4.71509302,46.2466571 L2.07851163,46.2466571 C1.60660465,46.2466571 1.19965116,46.0734286 0.856988372,45.7256286 C0.513,45.3785 0.342662791,44.9669143 0.342662791,44.4881857 L0.342662791,2.41512857 C0.342662791,1.93774286 0.513662791,1.52615714 0.856988372,1.17768571 C1.19965116,0.831228571 1.60660465,0.656657143 2.07851163,0.656657143 L17.6368605,0.656657143 Z M6.45027907,22.0188286 L17.3160698,22.0188286 C20.4020233,22.0188286 22.7907209,21.3997714 24.4841512,20.1623286 C26.1769186,18.9248857 27.0233023,16.9173143 27.0233023,14.1376 C27.0233023,11.3592286 26.1769186,9.39462857 24.4841512,8.2438 C22.7900581,7.09364286 20.4020233,6.51822857 17.3160698,6.51822857 L6.45027907,6.51822857 L6.45027907,22.0188286 Z M40.8477907,46.2466571 C40.3752209,46.2466571 39.9676047,46.0734286 39.6236163,45.7256286 C39.2802907,45.3785 39.1086279,44.9669143 39.1086279,44.4881857 L39.1086279,2.41512857 C39.1086279,1.93774286 39.2796279,1.52615714 39.6229535,1.17768571 C39.9656163,0.830557143 40.3725698,0.656657143 40.8444767,0.656657143 L58.0743837,0.656657143 C60.8170116,0.656657143 63.0890581,1.08032857 64.8891977,1.927 C66.6893372,2.77434286 68.1249419,3.81572857 69.1966744,5.05317143 C70.2670814,6.29061429 71.0292907,7.62541429 71.4786628,9.05891429 C71.9286977,10.4917429 72.1540465,11.7728286 72.1540465,12.9015 C72.1540465,14.3343286 71.9419535,15.5946 71.519093,16.6789571 C71.094907,17.7646571 70.597814,18.6771286 70.0271512,19.4143571 C69.4558256,20.1536 68.8838372,20.7397571 68.3125116,21.1728286 C67.741186,21.6065714 67.3282674,21.9114 67.0750814,22.0839571 C68.7035581,23.2139714 70.1285581,24.7005143 71.3500814,26.5456 C72.5716047,28.3920286 73.1826977,30.5513429 73.1826977,33.0255571 C73.1826977,34.6766 72.8811279,36.2826571 72.2806395,37.8457429 C71.6801512,39.4088286 70.7893605,40.8201714 69.6076047,42.0791 C68.4265116,43.3387 66.9458372,44.3485286 65.163593,45.1079143 C63.3820116,45.8679714 61.3306744,46.2473286 59.0122326,46.2473286 L40.8477907,46.2473286 L40.8477907,46.2466571 Z M45.2162442,6.51822857 L45.2162442,19.6742 L57.4321395,19.6742 C60.302686,19.6742 62.4567558,19.1102 63.8930233,17.9815286 C65.3286279,16.8521857 66.047093,15.2246429 66.047093,13.0968857 C66.047093,10.9698 65.3286279,9.34158571 63.8930233,8.21224286 C62.4567558,7.08357143 60.302686,6.51957143 57.4321395,6.51957143 L45.2162442,6.51957143 L45.2162442,6.51822857 Z M45.2162442,25.5357714 L45.2162442,40.3844143 L58.371314,40.3844143 C59.789686,40.3844143 61.0463372,40.1890286 62.1419302,39.7989286 C63.2375233,39.4081571 64.1508488,38.8649714 64.8825698,38.1700429 C65.6142907,37.4764571 66.1617558,36.6949143 66.5262907,35.8260857 C66.8921512,34.9579286 67.0750814,34.0239714 67.0750814,33.0248857 C67.0750814,32.0707857 66.902093,31.1361571 66.5587674,30.2243571 C66.2147791,29.3132286 65.6885233,28.5095286 64.9793372,27.8146 C64.270814,27.1210143 63.3667674,26.5670857 62.2711744,26.1534857 C61.1742558,25.7419 59.8745233,25.5351 58.3706512,25.5351 L45.2162442,25.5351 L45.2162442,25.5357714 Z M83.3412907,17.9815286 C83.2544651,19.9347143 83.2127093,21.7589857 83.2127093,23.4516571 C83.2127093,25.145 83.2544651,26.9686 83.3412907,28.9224571 C83.4692093,32.5266857 84.5515465,35.4467286 86.5876395,37.6819143 C88.622407,39.9191143 91.5479651,41.0363714 95.3629884,41.0363714 C97.4202907,41.0363714 99.1568023,40.7751857 100.570535,40.2548286 C101.98493,39.7338 103.152105,39.0610286 104.074047,38.2358429 C104.995326,37.4113286 105.702523,36.4666286 106.19564,35.4024143 C106.68743,34.3388714 107.063895,33.2639143 107.320395,32.1782143 C107.405895,31.7008286 107.619977,31.3429571 107.963302,31.1032571 C108.306628,30.8655714 108.648628,30.7453857 108.992616,30.7453857 L111.949988,30.7453857 C112.335733,30.7453857 112.667128,30.8870571 112.946163,31.1690571 C113.224535,31.4517286 113.364384,31.7874429 113.364384,32.1782143 C113.321302,33.6110429 112.956767,35.1741286 112.271442,36.8674714 C111.585453,38.5601429 110.524988,40.1561286 109.089384,41.6540857 C107.652453,43.1520429 105.810558,44.4009 103.559721,45.3993143 C101.309547,46.3970571 98.5775233,46.8966 95.3629884,46.8966 C92.5766163,46.8966 90.0911512,46.4514429 87.9052674,45.5618 C85.7193837,44.6728286 83.843686,43.4454571 82.2801628,41.8823714 C80.715314,40.3192857 79.5043953,38.4627857 78.6480698,36.3135429 C77.7897558,34.1649714 77.3191744,31.8096 77.2336744,29.2474286 C77.105093,25.3833571 77.105093,21.5199571 77.2336744,17.6545429 C77.3191744,15.1366857 77.7897558,12.7927286 78.6480698,10.6206571 C79.5050581,8.44992857 80.715314,6.58201429 82.2801628,5.01892857 C83.843686,3.45651429 85.7193837,2.22981429 87.9052674,1.3395 C90.0911512,0.450528571 92.5766163,0.0047 95.3629884,0.0047 C98.578186,0.0047 101.310209,0.504242857 103.559721,1.50265714 C105.810558,2.50174286 107.652453,3.74925714 109.089384,5.24721429 C110.524988,6.74517143 111.585453,8.34048571 112.271442,10.0345 C112.956767,11.7271714 113.321302,13.2909286 113.364384,14.7230857 C113.364384,15.1138571 113.224535,15.4509143 112.946163,15.7329143 C112.667128,16.0155857 112.335733,16.1559143 111.949988,16.1559143 L108.992616,16.1559143 C108.648628,16.1559143 108.306628,16.0370714 107.963302,15.7980429 C107.619977,15.5603571 107.405895,15.2018143 107.320395,14.7230857 C107.063233,13.6387286 106.68743,12.5637714 106.19564,11.4995571 C105.702523,10.4360143 104.994663,9.49131429 104.074047,8.66612857 C103.151442,7.84161429 101.98493,7.16817143 100.570535,6.64714286 C99.1561395,6.12611429 97.4202907,5.8656 95.3629884,5.8656 C91.5479651,5.8656 88.622407,6.98352857 86.5876395,9.21938571 C84.5515465,11.4579286 83.4692093,14.3773 83.3412907,17.9815286 Z" id="Shape"></path>
            </g>
            <g id="Group" transform="translate(1.000000, 0.000000)" fill="#E9E9E9" stroke="#E9E9E9">
                <path d="M17.6566667,0.656657143 C19.7686667,0.656657143 21.7633333,0.917842857 23.6386667,1.4382 C25.514,1.95922857 27.1633333,2.7636 28.586,3.84795714 C30.0086667,4.93365714 31.14,6.32351429 31.9813333,8.01618571 C32.822,9.70952857 33.242,11.7513429 33.242,14.1382714 C33.242,17.6552143 32.3693333,20.4557429 30.6233333,22.5405286 C28.8773333,24.6246429 26.646,26.1011143 23.93,26.9692714 L33.6946667,44.0980857 C33.8233333,44.3586 33.8886667,44.5976286 33.8886667,44.8145 C33.8886667,45.2052714 33.748,45.5416571 33.468,45.8236571 C33.1873333,46.107 32.854,46.2473286 32.466,46.2473286 L29.6846667,46.2473286 C28.822,46.2473286 28.1866667,46.0304571 27.7773333,45.5960429 C27.3673333,45.1623 27.076,44.7930143 26.904,44.4888571 L17.528,27.8810714 L6.40466667,27.8810714 L6.40466667,44.4881857 C6.40466667,44.9669143 6.232,45.3785 5.888,45.7256286 C5.542,46.0741 5.13266667,46.2466571 4.65933333,46.2466571 L2.00733333,46.2466571 C1.53266667,46.2466571 1.12333333,46.0734286 0.778666667,45.7256286 C0.432666667,45.3785 0.261333333,44.9669143 0.261333333,44.4881857 L0.261333333,2.41512857 C0.261333333,1.93774286 0.433333333,1.52615714 0.778666667,1.17768571 C1.12333333,0.830557143 1.53266667,0.656657143 2.00733333,0.656657143 L17.6566667,0.656657143 Z M6.40466667,22.0188286 L17.3333333,22.0188286 C20.4373333,22.0188286 22.84,21.3997714 24.5433333,20.1623286 C26.246,18.9248857 27.0973333,16.9173143 27.0973333,14.1376 C27.0973333,11.3592286 26.246,9.39462857 24.5433333,8.2438 C22.84,7.09431429 20.438,6.51822857 17.3333333,6.51822857 L6.40466667,6.51822857 L6.40466667,22.0188286 Z M41.0033333,46.2466571 C40.528,46.2466571 40.118,46.0734286 39.772,45.7256286 C39.4266667,45.3785 39.254,44.9669143 39.254,44.4881857 L39.254,2.41512857 C39.254,1.93774286 39.426,1.52615714 39.7713333,1.17768571 C40.116,0.830557143 40.5253333,0.656657143 41,0.656657143 L58.3306667,0.656657143 C61.0893333,0.656657143 63.3746667,1.08032857 65.1853333,1.927 C66.996,2.77434286 68.44,3.81572857 69.518,5.05317143 C70.5946667,6.29061429 71.3613333,7.62541429 71.8133333,9.05891429 C72.266,10.4917429 72.4926667,11.7728286 72.4926667,12.9015 C72.4926667,14.3343286 72.2793333,15.5946 71.854,16.6789571 C71.4273333,17.7646571 70.9273333,18.6771286 70.3533333,19.4143571 C69.7786667,20.1536 69.2033333,20.7397571 68.6286667,21.1728286 C68.054,21.6065714 67.6386667,21.9114 67.384,22.0839571 C69.022,23.2139714 70.4553333,24.7005143 71.684,26.5456 C72.9126667,28.3920286 73.5273333,30.5513429 73.5273333,33.0255571 C73.5273333,34.6766 73.224,36.2826571 72.62,37.8457429 C72.016,39.4088286 71.12,40.8201714 69.9313333,42.0791 C68.7433333,43.3387 67.254,44.3485286 65.4613333,45.1079143 C63.6693333,45.8679714 61.606,46.2473286 59.274,46.2473286 L41.0033333,46.2473286 L41.0033333,46.2466571 Z M45.3973333,6.51822857 L45.3973333,19.6742 L57.6846667,19.6742 C60.572,19.6742 62.7386667,19.1102 64.1833333,17.9815286 C65.6273333,16.8521857 66.35,15.2246429 66.35,13.0968857 C66.35,10.9698 65.6273333,9.34158571 64.1833333,8.21224286 C62.7386667,7.08357143 60.572,6.51957143 57.6846667,6.51957143 L45.3973333,6.51957143 L45.3973333,6.51822857 Z M45.3973333,25.5357714 L45.3973333,40.3844143 L58.6293333,40.3844143 C60.056,40.3844143 61.32,40.1890286 62.422,39.7989286 C63.524,39.4081571 64.4426667,38.8649714 65.1786667,38.1700429 C65.9146667,37.4764571 66.4653333,36.6949143 66.832,35.8260857 C67.2,34.9579286 67.384,34.0239714 67.384,33.0248857 C67.384,32.0707857 67.21,31.1361571 66.8646667,30.2243571 C66.5186667,29.3132286 65.9893333,28.5095286 65.276,27.8146 C64.5633333,27.1210143 63.654,26.5670857 62.552,26.1534857 C61.4486667,25.7419 60.1413333,25.5351 58.6286667,25.5351 L45.3973333,25.5351 L45.3973333,25.5357714 Z M83.7453333,17.9815286 C83.658,19.9347143 83.616,21.7589857 83.616,23.4516571 C83.616,25.145 83.658,26.9686 83.7453333,28.9224571 C83.874,32.5266857 84.9626667,35.4467286 87.0106667,37.6819143 C89.0573333,39.9191143 92,41.0363714 95.8373333,41.0363714 C97.9066667,41.0363714 99.6533333,40.7751857 101.075333,40.2548286 C102.498,39.7338 103.672,39.0610286 104.599333,38.2358429 C105.526,37.4113286 106.237333,36.4666286 106.733333,35.4024143 C107.228,34.3388714 107.606667,33.2639143 107.864667,32.1782143 C107.950667,31.7008286 108.166,31.3429571 108.511333,31.1032571 C108.856667,30.8655714 109.200667,30.7453857 109.546667,30.7453857 L112.521333,30.7453857 C112.909333,30.7453857 113.242667,30.8870571 113.523333,31.1690571 C113.803333,31.4517286 113.944,31.7874429 113.944,32.1782143 C113.900667,33.6110429 113.534,35.1741286 112.844667,36.8674714 C112.154667,38.5601429 111.088,40.1561286 109.644,41.6540857 C108.198667,43.1520429 106.346,44.4009 104.082,45.3993143 C101.818667,46.3970571 99.0706667,46.8966 95.8373333,46.8966 C93.0346667,46.8966 90.5346667,46.4514429 88.336,45.5618 C86.1373333,44.6728286 84.2506667,43.4454571 82.678,41.8823714 C81.104,40.3192857 79.886,38.4627857 79.0246667,36.3135429 C78.1613333,34.1649714 77.688,31.8096 77.602,29.2474286 C77.4726667,25.3833571 77.4726667,21.5199571 77.602,17.6545429 C77.688,15.1366857 78.1613333,12.7927286 79.0246667,10.6206571 C79.8866667,8.44992857 81.104,6.58201429 82.678,5.01892857 C84.2506667,3.45651429 86.1373333,2.22981429 88.336,1.3395 C90.5346667,0.450528571 93.0346667,0.0047 95.8373333,0.0047 C99.0713333,0.0047 101.819333,0.504242857 104.082,1.50265714 C106.346,2.50174286 108.198667,3.74925714 109.644,5.24721429 C111.088,6.74517143 112.154667,8.34048571 112.844667,10.0345 C113.534,11.7271714 113.900667,13.2909286 113.944,14.7230857 C113.944,15.1138571 113.803333,15.4509143 113.523333,15.7329143 C113.242667,16.0155857 112.909333,16.1559143 112.521333,16.1559143 L109.546667,16.1559143 C109.200667,16.1559143 108.856667,16.0370714 108.511333,15.7980429 C108.166,15.5603571 107.950667,15.2018143 107.864667,14.7230857 C107.606,13.6387286 107.228,12.5637714 106.733333,11.4995571 C106.237333,10.4360143 105.525333,9.49131429 104.599333,8.66612857 C103.671333,7.84161429 102.498,7.16817143 101.075333,6.64714286 C99.6526667,6.12611429 97.9066667,5.8656 95.8373333,5.8656 C92,5.8656 89.0573333,6.98352857 87.0106667,9.21938571 C84.9626667,11.4579286 83.874,14.3773 83.7453333,17.9815286 Z" id="Shape"></path>
            </g>
            <g id="Group" fill="#116611" stroke="#116611">
                <path d="M17.6400161,0.661183099 C19.7401127,0.661183099 21.7235373,0.924169014 23.5883011,1.44811268 C25.4530649,1.97273239 27.0931025,2.78264789 28.5077509,3.87447887 C29.9223994,4.96766197 31.0473564,6.36709859 31.8839479,8.07143662 C32.7198765,9.7764507 33.1375094,11.832338 33.1375094,14.2357183 C33.1375094,17.7769014 32.2697611,20.5967324 30.5336017,22.6958873 C28.7974423,24.7943662 26.5786849,26.2810141 23.8779925,27.1551549 L33.5876248,44.4020282 C33.7155663,44.664338 33.7805314,44.9050141 33.7805314,45.1233803 C33.7805314,45.5168451 33.6406575,45.8555493 33.3622356,46.139493 C33.0831508,46.4247887 32.7516962,46.5660845 32.365883,46.5660845 L29.6002254,46.5660845 C28.7424208,46.5660845 28.1106683,46.3477183 27.703642,45.9103099 C27.2959528,45.4735775 27.0062614,45.1017465 26.8352308,44.795493 L17.5120746,28.0732394 L6.45143317,28.0732394 L6.45143317,44.7948169 C6.45143317,45.2768451 6.27973967,45.6912676 5.93767848,46.0407887 C5.59362856,46.391662 5.18660225,46.5654085 4.71593666,46.5654085 L2.07888352,46.5654085 C1.60689211,46.5654085 1.19986581,46.3909859 0.857141707,46.0407887 C0.513091787,45.6912676 0.342724101,45.2768451 0.342724101,44.7948169 L0.342724101,2.43177465 C0.342724101,1.95109859 0.513754697,1.53667606 0.857141707,1.18580282 C1.19986581,0.836957746 1.60689211,0.661183099 2.07888352,0.661183099 L17.6400161,0.661183099 Z M6.45143317,22.1705915 L17.319168,22.1705915 C20.4056736,22.1705915 22.7947987,21.5472676 24.4885319,20.3012958 C26.1816023,19.0553239 27.0281374,17.0339155 27.0281374,14.2350423 C27.0281374,11.4375211 26.1816023,9.45938028 24.4885319,8.30061972 C22.7941358,7.14253521 20.4056736,6.56315493 17.319168,6.56315493 L6.45143317,6.56315493 L6.45143317,22.1705915 Z M40.8550993,46.5654085 C40.382445,46.5654085 39.9747558,46.3909859 39.6307059,46.0407887 C39.2873188,45.6912676 39.1156253,45.2768451 39.1156253,44.7948169 L39.1156253,2.43177465 C39.1156253,1.95109859 39.2866559,1.53667606 39.6300429,1.18580282 C39.972767,0.83628169 40.3797933,0.661183099 40.8517848,0.661183099 L58.0847746,0.661183099 C60.8278932,0.661183099 63.1003462,1.08777465 64.9008078,1.94028169 C66.7012695,2.79346479 68.137131,3.84202817 69.2090553,5.088 C70.2796538,6.33397183 71.0419995,7.67797183 71.491452,9.12135211 C71.9415674,10.5640563 72.1669565,11.8539718 72.1669565,12.9904225 C72.1669565,14.4331268 71.9548256,15.7020845 71.5318894,16.7939155 C71.1076275,17.8870986 70.6104455,18.8058592 70.0396806,19.548169 C69.4682528,20.292507 68.8961621,20.8827042 68.3247343,21.3187606 C67.7533065,21.755493 67.340314,22.0624225 67.0870827,22.236169 C68.7158508,23.3739718 70.1411057,24.8707606 71.3628476,26.7285634 C72.5845894,28.5877183 73.1957917,30.7619155 73.1957917,33.2531831 C73.1957917,34.9156056 72.894168,36.5327324 72.2935722,38.1065915 C71.6929764,39.6804507 70.8020263,41.1015211 69.620059,42.3691268 C68.4387547,43.6374085 66.9578154,44.6541972 65.1752523,45.4188169 C63.3933521,46.1841127 61.3416479,46.5660845 59.0227912,46.5660845 L40.8550993,46.5660845 L40.8550993,46.5654085 Z M45.2243344,6.56315493 L45.2243344,19.8098028 L57.4424155,19.8098028 C60.3134756,19.8098028 62.4679308,19.2419155 63.9044552,18.1054648 C65.3403167,16.968338 66.0589104,15.3295775 66.0589104,13.1871549 C66.0589104,11.0454085 65.3403167,9.40597183 63.9044552,8.26884507 C62.4679308,7.13239437 60.3134756,6.56450704 57.4424155,6.56450704 L45.2243344,6.56450704 L45.2243344,6.56315493 Z M45.2243344,25.7117746 L45.2243344,40.6627606 L58.3817579,40.6627606 C59.8003838,40.6627606 61.0572598,40.4660282 62.1530488,40.0732394 C63.2488379,39.6797746 64.1623269,39.1328451 64.8941787,38.4331268 C65.6260306,37.7347606 66.1735937,36.947831 66.5381938,36.0730141 C66.9041197,35.1988732 67.0870827,34.2584789 67.0870827,33.252507 C67.0870827,32.291831 66.9140633,31.3507606 66.5706763,30.4326761 C66.2266264,29.5152676 65.7002764,28.7060282 64.9909635,28.0063099 C64.2823135,27.3079437 63.3781052,26.7501972 62.2823162,26.3337465 C61.1852013,25.9193239 59.8852362,25.7110986 58.381095,25.7110986 L45.2243344,25.7110986 L45.2243344,25.7117746 Z M83.3562024,18.1054648 C83.2693612,20.0721127 83.227598,21.9089577 83.227598,23.6132958 C83.227598,25.3183099 83.2693612,27.1544789 83.3562024,29.1218028 C83.4841439,32.7508732 84.5666747,35.6910423 86.603132,37.9416338 C88.6382636,40.1942535 91.5643451,41.3192113 95.380051,41.3192113 C97.4377214,41.3192113 99.1745437,41.0562254 100.588529,40.5322817 C102.003178,40.007662 103.170561,39.3302535 104.092668,38.4993803 C105.014112,37.6691831 105.721436,36.7179718 106.21464,35.6464225 C106.706519,34.5755493 107.083052,33.4931831 107.339597,32.4 C107.425113,31.9193239 107.639232,31.5589859 107.982619,31.3176338 C108.326006,31.0783099 108.668068,30.9572958 109.012118,30.9572958 L111.970019,30.9572958 C112.355832,30.9572958 112.687287,31.0999437 112.966371,31.3838873 C113.244793,31.668507 113.384667,32.0065352 113.384667,32.4 C113.341578,33.8427042 112.976978,35.4165634 112.29153,37.1215775 C111.605419,38.8259155 110.544764,40.4329014 109.108902,41.9411831 C107.671715,43.4494648 105.82949,44.7069296 103.57825,45.7122254 C101.327673,46.7168451 98.595161,47.219831 95.380051,47.219831 C92.5931804,47.219831 90.1072705,46.7716056 87.9209957,45.875831 C85.7347209,44.9807324 83.8586876,43.7449014 82.2948846,42.1710423 C80.7297558,40.5971831 79.5186205,38.7278873 78.6621417,36.563831 C77.8036742,34.4004507 77.3330086,32.0288451 77.2474933,29.4490141 C77.1188889,25.5583099 77.1188889,21.6682817 77.2474933,17.7762254 C77.3330086,15.2410141 77.8036742,12.8809014 78.6621417,10.6938592 C79.5192834,8.50816901 80.7297558,6.62738028 82.2948846,5.05352113 C83.8586876,3.48033803 85.7347209,2.2451831 87.9209957,1.34873239 C90.1072705,0.453633803 92.5931804,0.00473239437 95.380051,0.00473239437 C98.5958239,0.00473239437 101.328336,0.50771831 103.57825,1.51301408 C105.82949,2.51898592 107.671715,3.77509859 109.108902,5.28338028 C110.544764,6.79166197 111.605419,8.39797183 112.29153,10.103662 C112.976978,11.808 113.341578,13.3825352 113.384667,14.8245634 C113.384667,15.2180282 113.244793,15.5574085 112.966371,15.8413521 C112.687287,16.1259718 112.355832,16.2672676 111.970019,16.2672676 L109.012118,16.2672676 C108.668068,16.2672676 108.326006,16.1476056 107.982619,15.9069296 C107.639232,15.6676056 107.425113,15.3065915 107.339597,14.8245634 C107.082389,13.7327324 106.706519,12.6503662 106.21464,11.5788169 C105.721436,10.5079437 105.013449,9.55673239 104.092668,8.72585915 C103.169898,7.89566197 102.003178,7.21757746 100.588529,6.69295775 C99.1738808,6.16833803 97.4377214,5.90602817 95.380051,5.90602817 C91.5643451,5.90602817 88.6382636,7.03166197 86.603132,9.28292958 C84.5666747,11.5369014 83.4841439,14.4763944 83.3562024,18.1054648 Z" id="Shape"></path>
            </g>
        </g>
        <g id="Group-2" transform="translate(-1.000000, 61.000000)">
            <polygon id="Path" fill="#116611" points="116.151416 0.00709859155 0.84534121 7.10542736e-15 0.84534121 27.983831 120.677529 27.983831 120.677529 4.77616901"></polygon>
            <g id="Group" transform="translate(0.669015, 2.366197)">
                <path d="M0.182680704,18.8317746 L1.13500316,18.8317746 L8.6086296,17.355662 L16.5552402,18.3845634 L33.3042808,14.0362817 M116.225038,2.01047887 L92.3776606,6.54332394 L78.2794759,3.02715493 L68.5012926,8.69971831 L60.4085375,3.02715493 L53.8530801,11.739493 L47.4838777,9.32676056 L40.2183484,12.1630423 L36.1211379,12.1630423" id="Shape" stroke="#E9E9E9" stroke-width="1.58408605"></path>
                <polyline id="Path" stroke="#FF6116" stroke-width="1.58408605" points="0.189431947 9.89385915 1.60401601 9.91870423 10.5597389 14.0453521 22.4852147 7.78242254 30.5283284 17.0957746 36.2315406 12.3503662 51.7939509 17.5102535 64.830999 18.9421972 67.4163281 16.984169 75.5734187 11.7576338 76.961792 19.5475493 100.965639 15.6697465 107.120391 19.0190986 107.266138 21.0248451 117.486329 14.0780845"></polyline>
                <polygon id="Path" fill="#E9E9E9" points="115.559842 0.225183099 117.771867 1.5995493 116.387862 3.79616901"></polygon>
                <polygon id="Path" fill="#FF6116" points="116.142435 12.6717746 118.66462 13.3350986 117.996644 15.8397183"></polygon>
            </g>
            <g id="Group" transform="translate(5.831730, 2.760563)" fill="#FFFFFF" fill-rule="nonzero" stroke="#FFFFFF" stroke-width="0.524999976">
                <path d="M18.297061,0.252394366 C18.5297804,0.252394366 18.7307291,0.336788732 18.9007016,0.504788732 C19.0698798,0.673183099 19.1548661,0.873126761 19.1548661,1.10422535 L19.1548661,4.4484507 C19.1548661,4.67994366 19.0698798,4.87988732 18.9007016,5.04788732 C18.7307291,5.21628169 18.5297804,5.30028169 18.297061,5.30028169 L12.705443,5.30028169 L12.705443,21.4850704 C12.705443,21.7169577 12.6204567,21.916507 12.4512785,22.084507 C12.281306,22.2532958 12.0803572,22.3369014 11.8476379,22.3369014 L7.68569492,22.3369014 C7.45257845,22.3369014 7.25123255,22.2532958 7.08205433,22.084507 C6.91247898,21.916507 6.82788987,21.7169577 6.82788987,21.4850704 L6.82788987,5.30028169 L1.23627181,5.30028169 C1.00315534,5.30028169 0.801809437,5.21667606 0.63263122,5.04788732 C0.462658739,4.87988732 0.378466763,4.67994366 0.378466763,4.4484507 L0.378466763,1.10422535 C0.378466763,0.873126761 0.462658739,0.673183099 0.63263122,0.504788732 C0.801809437,0.336788732 1.00275821,0.252394366 1.23627181,0.252394366 L18.297061,0.252394366 Z M31.4818423,0.252394366 C32.8797468,0.252394366 34.1291239,0.399887324 35.2303709,0.694084507 C36.3312207,0.989070423 37.2688493,1.4303662 38.0420652,2.01915493 C38.814884,2.60833803 39.4081991,3.36 39.8212164,4.27492958 C40.2342336,5.18985915 40.4407423,6.25740845 40.4407423,7.4771831 C40.4407423,9.05464789 40.1123141,10.3639437 39.455855,11.4050704 C38.7993958,12.4461972 37.8673271,13.2404507 36.6604431,13.7870423 L40.5999922,21.2957746 C40.6631362,21.4219718 40.6949067,21.5379155 40.6949067,21.6428169 C40.6949067,21.8321127 40.6258058,21.9953803 40.4883981,22.131831 C40.3501962,22.2690704 40.1865778,22.3369014 39.9959545,22.3369014 L35.6751587,22.3369014 C35.2514189,22.3369014 34.9495986,22.2422535 34.7696978,22.0529577 C34.589797,21.863662 34.4468295,21.6743662 34.3407953,21.4850704 L30.8142634,14.7335211 L27.8917693,14.7335211 L27.8917693,21.4850704 C27.8917693,21.7169577 27.8067831,21.916507 27.6372077,22.084507 C27.4672352,22.2532958 27.2662865,22.3369014 27.0335671,22.3369014 L22.8716241,22.3369014 C22.6385077,22.3369014 22.4371618,22.2532958 22.2679835,22.084507 C22.0980111,21.916507 22.0138191,21.7169577 22.0138191,21.4850704 L22.0138191,1.10461972 C22.0138191,0.873521127 22.0980111,0.673577465 22.2679835,0.505183099 C22.4371618,0.337183099 22.6381105,0.252788732 22.8716241,0.252788732 L31.4818423,0.252788732 L31.4818423,0.252394366 Z M27.8917693,9.81222535 L31.4818423,9.81222535 C32.3710207,9.81222535 33.1069063,9.64422535 33.689896,9.30743662 C34.2720914,8.97104225 34.5635863,8.36095775 34.5635863,7.47757746 C34.5635863,6.59419718 34.2720914,5.98450704 33.689896,5.64771831 C33.1069063,5.31132394 32.3714179,5.14292958 31.4818423,5.14292958 L27.8917693,5.14292958 L27.8917693,9.81222535 Z M55.6910068,0.252394366 C56.1143495,0.252394366 56.4376149,0.368338028 56.6596117,0.59943662 C56.8824027,0.830929577 57.0352985,1.06242254 57.1202848,1.29352113 L64.0462663,21.1695775 C64.1304582,21.380169 64.1729513,21.5379155 64.1729513,21.6428169 C64.1729513,21.8321127 64.1042475,21.9953803 63.9664427,22.131831 C63.8282408,22.2690704 63.6646224,22.3369014 63.4739991,22.3369014 L59.4709089,22.3369014 C59.0471691,22.3369014 58.7453488,22.2477746 58.5658451,22.0687324 C58.3855472,21.8904789 58.2743503,21.7169577 58.2318572,21.548169 L57.3434729,18.9295775 L48.8925047,18.9295775 L48.0029291,21.548169 C47.960436,21.7169577 47.8488419,21.8904789 47.6693383,22.0687324 C47.4890404,22.2477746 47.1872201,22.3369014 46.7638774,22.3369014 L42.7607872,22.3369014 C42.570561,22.3369014 42.4057512,22.2690704 42.2687407,22.131831 C42.1305388,21.9953803 42.0618349,21.8321127 42.0618349,21.6428169 C42.0618349,21.5375211 42.1039309,21.3797746 42.1889172,21.1695775 L49.1145015,1.29352113 C49.1990906,1.06242254 49.3531778,0.830929577 49.5751746,0.59943662 C49.7979656,0.368338028 50.1204368,0.252394366 50.5441766,0.252394366 L55.6910068,0.252394366 Z M50.5441766,14.0394366 L55.6910068,14.0394366 L53.1175917,6.46760563 L50.5441766,14.0394366 Z M76.0241634,0.252394366 C77.4856091,0.252394366 78.8199725,0.468112676 80.0272537,0.89915493 C81.2345348,1.33059155 82.2774034,1.93515493 83.1566535,2.71323944 C84.0355066,3.49171831 84.7237363,4.42202817 85.2217398,5.50535211 C85.718949,6.58907042 86.0001184,7.77216901 86.0636595,9.05464789 C86.0847075,9.49633803 86.0954301,9.90135211 86.0954301,10.2692958 L86.0954301,12.3673239 C86.0954301,12.7250141 86.0847075,13.1142535 86.0636595,13.5346479 C86.0001184,14.8388169 85.7245088,16.0270423 85.237625,17.0997183 C84.749947,18.1723944 84.0779997,19.0979718 83.2201947,19.8760563 C82.3623896,20.6545352 81.3405691,21.259493 80.1543359,21.6901408 C78.9677056,22.1215775 77.6444619,22.3369014 76.1830162,22.3369014 L67.6045687,22.3369014 C67.3714522,22.3369014 67.1701063,22.2532958 67.0009281,22.084507 C66.8309556,21.916507 66.7463665,21.7169577 66.7463665,21.4850704 L66.7463665,1.10461972 C66.7463665,0.873521127 66.8309556,0.673577465 67.0009281,0.505183099 C67.1701063,0.337183099 67.3714522,0.252788732 67.6045687,0.252788732 L76.0241634,0.252788732 L76.0241634,0.252394366 Z M80.1861064,8.9284507 C80.0590242,6.51019718 78.6182294,5.30028169 75.8649135,5.30028169 L72.6247138,5.30028169 L72.6247138,17.2890141 L76.0241634,17.2890141 C78.6928903,17.2890141 80.0800722,16.0798873 80.1861064,13.6608451 C80.2067573,13.2191549 80.2174799,12.8042817 80.2174799,12.4146479 L80.2174799,11.2788732 L80.2174799,10.1588732 C80.2174799,9.78028169 80.2067573,9.37014085 80.1861064,8.9284507 Z M105.633926,17.2894085 C105.867042,17.2894085 106.067991,17.3734085 106.237963,17.5418028 C106.407142,17.7105915 106.492128,17.9101408 106.492128,18.1412394 L106.492128,21.4854648 C106.492128,21.7173521 106.407142,21.9169014 106.237963,22.0849014 C106.067991,22.2536901 105.867042,22.3372958 105.633926,22.3372958 L90.5746815,22.3372958 C90.341565,22.3372958 90.1402191,22.2536901 89.9710409,22.0849014 C89.8010684,21.9169014 89.7164793,21.7173521 89.7164793,21.4854648 L89.7164793,1.10461972 C89.7164793,0.873521127 89.8010684,0.673577465 89.9710409,0.505183099 C90.1402191,0.337183099 90.341565,0.252788732 90.5746815,0.252788732 L105.379761,0.252788732 C105.61248,0.252788732 105.813826,0.337183099 105.983402,0.505183099 C106.152977,0.673577465 106.237963,0.873521127 106.237963,1.10461972 L106.237963,4.44884507 C106.237963,4.68033803 106.152977,4.88028169 105.983402,5.04828169 C105.813826,5.21667606 105.61248,5.30067606 105.379761,5.30067606 L95.5944295,5.30067606 L95.5944295,8.708 L104.680809,8.708 C104.913528,8.708 105.114477,8.79239437 105.284449,8.96039437 C105.454025,9.12878873 105.539011,9.32873239 105.539011,9.55983099 L105.539011,12.9040563 C105.539011,13.1355493 105.454025,13.335493 105.284449,13.503493 C105.114477,13.6718873 104.913528,13.7558873 104.680809,13.7558873 L95.5944295,13.7558873 L95.5944295,17.2894085 L105.633926,17.2894085 Z" id="Shape"></path>
            </g>
        </g>
    </g>
</svg>