<?xml version="1.0" encoding="UTF-8"?>
<svg width="120px" height="97px" viewBox="0 0 120 97" version="1.1" xmlns="http://www.w3.org/2000/svg" xmlns:xlink="http://www.w3.org/1999/xlink">
    <!-- Generator: Sketch 53.2 (72643) - https://sketchapp.com -->
    <title>BO_Brand_logo</title>
    <desc>Created with Sketch.</desc>
    <defs>
        <path d="M27.1597255,37.531811 C28.62442,37.531811 29.7830806,37.2385216 30.635742,36.6519341 C31.4884035,36.0653466 31.9147278,35.00741 31.9147278,33.4780925 C31.9147278,31.8335525 31.3183968,30.7127682 30.125717,30.1157059 C29.4875287,29.8014626 28.6348801,29.6443433 27.5677455,29.6443433 L19.9409103,29.6443433 L19.9409103,37.531811 L27.1597255,37.531811 Z M16.817988,26.9575764 L27.4892802,26.9575764 C29.2469135,26.9575764 30.6958931,27.2142046 31.8362624,27.7274686 C34.0019178,28.7120977 35.0847293,30.5294442 35.0847293,33.1795629 C35.0847293,34.5622334 34.7996412,35.6934924 34.2294566,36.5733737 C33.659272,37.4532549 32.8615485,38.1602918 31.8362624,38.6945054 C32.7360033,39.0611226 33.4134143,39.5429551 33.8685158,40.1400174 C34.3236173,40.7370797 34.5773195,41.7059821 34.6296301,43.0467535 L34.7394816,46.1420347 C34.7708679,47.021916 34.8441015,47.6765797 34.9591847,48.1060456 C35.1475025,48.83928 35.4822848,49.3106379 35.9635416,49.5201334 L35.9635416,50.0386323 L32.1344309,50.0386323 C32.0298098,49.8396115 31.9461143,49.5829833 31.8833416,49.26874 C31.820569,48.9544967 31.7682593,48.3469687 31.7264109,47.4461379 L31.5380939,43.5966766 C31.4648592,42.0883087 30.9051451,41.0775079 29.8589347,40.5642438 C29.2625948,40.2814248 28.3262506,40.1400174 27.049874,40.1400174 L19.9409103,40.1400174 L19.9409103,50.0386323 L16.817988,50.0386323 L16.817988,26.9575764 Z" id="path-1"></path>
        <path d="M52.4787167,37.097788 C53.7969417,37.097788 54.8222125,36.9144821 55.5545597,36.5478649 C56.7053911,35.9717522 57.2807982,34.9347648 57.2807982,33.4368717 C57.2807982,31.9285038 56.6687743,30.9124656 55.4447082,30.3887268 C54.7542094,30.095433 53.7289386,29.9487883 52.3688652,29.9487883 L46.797823,29.9487883 L46.797823,37.097788 L52.4787167,37.097788 Z M53.5301529,47.750583 C55.4447178,47.750583 56.8100018,47.1954281 57.6260459,46.0851018 C58.1386889,45.3832917 58.3950066,44.5348475 58.3950066,43.5397437 C58.3950066,41.8637793 57.6469775,40.7220457 56.1508967,40.1145087 C55.3557768,39.7897906 54.3043512,39.627434 52.9965882,39.627434 L46.797823,39.627434 L46.797823,47.750583 L53.5301529,47.750583 Z M43.737673,27.3405819 L53.6400044,27.3405819 C56.3392271,27.3405819 58.2589943,28.1471276 59.3993635,29.7602433 C60.0689382,30.713448 60.4037204,31.8132831 60.4037204,33.0597816 C60.4037204,34.5157756 59.9904736,35.7098823 59.1639674,36.6421374 C58.7350211,37.134452 58.1177663,37.5848606 57.3121843,37.9933769 C58.494402,38.4437923 59.3784365,38.9518114 59.9643143,39.5174494 C61.0000625,40.523028 61.5179289,41.9109151 61.5179289,43.6811524 C61.5179289,45.1685708 61.0523723,46.5145595 60.1212451,47.7191588 C58.7297853,49.5208205 56.5170836,50.4216378 53.4830736,50.4216378 L43.737673,50.4216378 L43.737673,27.3405819 Z" id="path-2"></path>
    </defs>
    <g id="BO_Brand_logo" stroke="none" stroke-width="1" fill="none" fill-rule="evenodd">
        <g id="Group-8-Copy" transform="translate(21.000000, 5.000000)" fill-rule="nonzero">
            <g id="Group">
                <g fill="#E9A854" id="Path" stroke="#E9A854" stroke-width="0.719999992">
                    <path d="M74.3240789,45.2317795 C74.3240789,45.2317795 62.4899737,26.8114134 71.9372105,12.3409843 L60.1362895,0.127074803 C60.1362895,0.127074803 47.5396316,5.57039764 38.9209737,5.30494488 C30.3023158,5.57039764 17.7056579,0.127074803 17.7056579,0.127074803 L5.90473684,12.3406417 C15.3519737,26.8110709 3.51786842,45.231437 3.51786842,45.231437 C-8.91286842,65.4435236 17.1422105,74.802874 17.1422105,74.802874 C36.0370263,81.1747677 38.9209737,86.9499921 38.9209737,86.9499921 C38.9209737,86.9499921 41.8049211,81.1751102 60.6997368,74.802874 C60.6997368,74.8032165 86.7551579,65.4438661 74.3240789,45.2317795 Z"></path>
                </g>
                <path d="M70.6108684,45.0714803 C70.6108684,45.0714803 59.8964737,26.1989882 68.4504737,13.0982953 L59.2119211,3.59337402 C59.2119211,3.59337402 46.3617632,9.16377165 38.5590263,8.92332283 C30.7556053,9.16377165 18.3505263,3.23372835 18.3505263,3.23372835 L8.66723684,13.0982953 C17.2205526,26.1989882 6.5065,45.0714803 6.5065,45.0714803 C-4.74807895,63.3705945 18.8414474,71.844189 18.8414474,71.844189 C35.9480789,77.613248 38.5593684,82.841811 38.5593684,82.841811 C38.5593684,82.841811 41.1699737,77.613248 58.2769474,71.844189 C58.2759211,71.844189 81.8651053,63.3705945 70.6108684,45.0714803 Z" id="Path" fill="#FFFFFF"></path>
                <path d="M19.3522105,5.51216929 C20.1260526,5.8707874 22.6408684,7.0069252 25.7615526,8.13004724 C30.8151316,9.94951181 34.9696579,10.8715748 38.1095,10.8715748 C38.2603684,10.8715748 38.4105526,10.8691772 38.5586842,10.8643819 C38.7163947,10.8695197 38.8747895,10.8715748 39.0369474,10.8715748 C42.1805526,10.8715748 46.4000789,10.0084252 51.5788684,8.30575984 C54.7960263,7.24805906 57.3991053,6.17768504 58.1815,5.84886614 L66.0478684,13.7004449 C62.7978684,18.8827677 62.2306579,25.9283976 64.4112368,34.1012598 C66.0779737,40.3471063 68.7881316,45.1228583 68.8216579,45.1804016 C71.6423158,49.7670827 72.3696316,54.1009843 70.9830789,58.0635945 C68.1487368,66.1638425 57.3553158,70.1285079 57.2543947,70.1651575 C43.8004211,74.7025157 39.6534211,78.8932441 38.5586842,80.3331969 C37.4639474,78.8935866 33.3179737,74.7032008 19.8701579,70.1678976 C19.7617105,70.1288504 8.96828947,66.164185 6.13394737,58.063937 C4.74773684,54.1013268 5.47471053,49.7674252 8.30152632,45.1704685 C8.32889474,45.1235433 11.0390526,40.3608071 12.7057895,34.1266063 C14.8867105,25.9705276 14.3198421,18.9344882 11.0695,13.7514803 L19.3522105,5.51216929 L19.3522105,5.51216929 Z M19.2714737,5.04908268 L10.5775526,13.6970197 C18.7408684,26.2007008 7.96728947,44.978315 7.96728947,44.978315 C-2.77378947,62.4430512 19.7398158,70.5299409 19.7398158,70.5299409 C36.0664474,76.0362874 38.5583421,81.0261142 38.5583421,81.0261142 C38.5583421,81.0261142 41.0498947,76.0359449 57.3765263,70.5299409 C57.3765263,70.5299409 79.8901316,62.4430512 69.1487105,44.978315 C69.1487105,44.978315 58.3754737,26.1500079 66.5384474,13.6466693 L58.2690789,5.39297244 C58.2690789,5.39297244 46.5174211,10.4862402 39.0362632,10.4862402 C38.8741053,10.4862402 38.7157105,10.484185 38.558,10.4790472 C38.4098684,10.4835 38.2600263,10.4862402 38.1088158,10.4862402 C30.6454474,10.4862402 19.2714737,5.04908268 19.2714737,5.04908268 L19.2714737,5.04908268 Z" id="Shape" stroke="#D89B21" stroke-width="0.719999992" fill="#E9A854"></path>
            </g>
            <path d="M19.3292895,5.51216929 C20.1031316,5.8707874 22.6179474,7.0069252 25.7386316,8.13004724 C30.7922105,9.94951181 34.9467368,10.8715748 38.0865789,10.8715748 C38.2374474,10.8715748 38.3876316,10.8691772 38.5357632,10.8643819 C38.6934737,10.8695197 38.8518684,10.8715748 39.0140263,10.8715748 C42.1572895,10.8715748 46.3771579,10.0084252 51.5559474,8.30575984 C54.7731053,7.24805906 57.3761842,6.17768504 58.1585789,5.84886614 L66.0249474,13.7004449 C62.7749474,18.8827677 62.2077368,25.9283976 64.3883158,34.1012598 C66.0550526,40.3471063 68.7652105,45.1228583 68.7987368,45.1804016 C71.6193947,49.7670827 72.3467105,54.1009843 70.9601579,58.0635945 C68.1258158,66.1638425 57.3323947,70.1285079 57.2314737,70.1651575 C43.7775,74.7025157 39.6305,78.8932441 38.5357632,80.3331969 C37.4410263,78.8935866 33.2950526,74.7032008 19.8472368,70.1678976 C19.7387895,70.1288504 8.94536842,66.164185 6.11102632,58.063937 C4.72481579,54.1013268 5.45178947,49.7674252 8.27860526,45.1704685 C8.30597368,45.1235433 11.0161316,40.3608071 12.6828684,34.1266063 C14.8637895,25.9705276 14.2969211,18.9344882 11.0465789,13.7514803 L19.3292895,5.51216929 L19.3292895,5.51216929 Z M19.2485526,5.04908268 L10.5546316,13.6970197 C18.7179474,26.2007008 7.94436842,44.978315 7.94436842,44.978315 C-2.79671053,62.4430512 19.7168947,70.5299409 19.7168947,70.5299409 C36.0435263,76.0362874 38.5354211,81.0261142 38.5354211,81.0261142 C38.5354211,81.0261142 41.0269737,76.0359449 57.3536053,70.5299409 C57.3536053,70.5299409 79.8672105,62.4430512 69.1257895,44.978315 C69.1257895,44.978315 58.3525526,26.1500079 66.5155263,13.6466693 L58.2461579,5.39297244 C58.2461579,5.39297244 46.4945,10.4862402 39.0133421,10.4862402 C38.8511842,10.4862402 38.6927895,10.484185 38.5350789,10.4790472 C38.3869474,10.4835 38.2371053,10.4862402 38.0858947,10.4862402 C30.6225263,10.4862402 19.2485526,5.04908268 19.2485526,5.04908268 L19.2485526,5.04908268 Z" id="Shape" stroke="#29313F" stroke-width="0.719999992" fill="#29313F"></path>
            <polyline id="Path" fill="#29313F" points="38.558 10.8643819 38.5583421 79.7584488 38.558 11.1058583 48.4448421 9.2829685 58.2991842 5.84886614 66.2127632 13.7004449 64.1207895 17.8918583 63.1646053 24.9213898 64.4509211 32.3393386 66.0738684 38.7571299 71.4127632 50.6209843 71.8137105 55.148752 70.3655789 59.8861417 67.7891842 63.4106693 62.7592105 67.9110354 49.8916053 73.0118386 43.8856053 76.3383898 38.5583421 80.3331969"></polyline>
            <g id="R">
                <use fill="#000000" xlink:href="#path-1"></use>
                <use fill="#29313F" xlink:href="#path-1"></use>
            </g>
            <g id="B">
                <use fill="#000000" xlink:href="#path-2"></use>
                <use stroke="#E9A854" stroke-width="0.719999992" fill="#E9A854" xlink:href="#path-2"></use>
            </g>
        </g>
    </g>
</svg>