<svg xmlns="http://www.w3.org/2000/svg" viewBox="0 0 120 97">
  <defs>
    <style>.cls-1{isolation:isolate;}.cls-2{fill:#003526;}.cls-3{fill:#009d7a;}.cls-4{fill:#fff;}.cls-5{fill:none;}.cls-6{fill:#eb8b00;}.cls-7{fill:#e24f0e;}.cls-8{fill:#e50c12;}.cls-9{fill:#c00072;}.cls-10{fill:#692e8c;}.cls-11{fill:#356696;}.cls-12{fill:#13b4b6;}.cls-13{fill:#393f96;}.cls-14{fill:#962488;}.cls-15{fill:#ce0948;}.cls-16{fill:#2f9687;}.cls-17{fill:#b9d32c;}.cls-18{fill:#e77800;}.cls-19{fill:#f7b200;}.cls-20{fill:#e23a11;}.cls-21{fill:#d4de37;}.cls-22{mix-blend-mode:color;}</style>
  </defs>
  <title>RoyaltyFinanceAsset 1</title>
  <g class="cls-1">
    <g id="Layer_2" data-name="Layer 2">
      <g id="Layer_1-2" data-name="Layer 1">
        <rect class="cls-2" width="120" height="97" />
        <path class="cls-3" d="M81.72,23.77h28v7H89.87v12.5h19.87v7.16H89.87V74H81.72Z" />
        <path class="cls-4" d="M63.61,74H56V23.77H67.33c5.41,0,9.42.42,12.51,2.81s4.85,6.32,4.85,11c0,8.08-3.94,12.64-11.52,13.56L90.45,74h-9.2L64.52,51.52h-.91Zm2-28.81c7.16,0,10.75-.84,10.75-6.88s-3.44-7.52-10.75-7.52H64.1v14.4Z" />
        <path class="cls-5" d="M31.2,33.28h0a7,7,0,0,1,1.16-.72,1.91,1.91,0,0,1,1.49-.24c.48.2.55.8.27,1.41a2.55,2.55,0,0,1-.62.8,3,3,0,0,1-1.32.67h0a2.66,2.66,0,0,0,1.55-.27,2.78,2.78,0,0,0,1.13-1.2c.49-1,.37-2.22-.4-2.47-.49-.16-1.25.07-2.29,1A11.09,11.09,0,0,0,31.2,33.28Z" />
        <polygon class="cls-5" points="21.02 32.39 22.43 31.05 20.26 32.19 21.17 33.5 21.02 32.39" />
        <path class="cls-6" d="M23.18,65.14l1.66-2.88H22.59A17.33,17.33,0,0,0,23.18,65.14Z" />
        <path class="cls-6" d="M29,62.26H25.83c-.11.4-.2.81-.28,1.23l1.35,2.34,1,1.72a25.4,25.4,0,0,1,3.29-5.29Z" />
        <path class="cls-7" d="M23.32,55.13a14.67,14.67,0,0,0-.74,3.22l.2.35,2.06,3.56c.53-2.53,2.47-5.2,4.12-7.13H23.32Z" />
        <path class="cls-7" d="M32.76,61.73l.31.53,1.47-2.54C34,60.39,33.34,61.06,32.76,61.73Z" />
        <path class="cls-7" d="M32.28,60.89c1.63-2,3.33-3.88,4.64-5.76H29.84c-.19.19-.37.38-.55.58l1.72,3Z" />
        <path class="cls-8" d="M21.77,48.94c.28.46.31.39.9.3A3.33,3.33,0,0,0,24.78,48H21.19Z" />
        <path class="cls-8" d="M33.07,48H28.52a11.7,11.7,0,0,1-2.08,2.38l-.15.13.61,1.06L29,55.13,31,51.57Z" />
        <path class="cls-8" d="M37.07,54.92c1.56-2.29,2.52-4.55,2-6.92H35.66a9.12,9.12,0,0,1-1.17,2.45l.64,1.12Z" />
        <path class="cls-8" d="M39.72,50.74,41.31,48h-2A6.47,6.47,0,0,1,39.72,50.74Z" />
        <path class="cls-8" d="M34.16,49.89A11.56,11.56,0,0,0,35.55,48H33.07Z" />
        <path class="cls-9" d="M25,47.78,26.37,46A15.12,15.12,0,0,0,25,47.78Z" />
        <path class="cls-9" d="M29,40.87H25.68c.69,1.37.21,3-2.69,3.92L24.82,48l.15-.18,1.93-3.35Z" />
        <polygon class="cls-9" points="28.95 40.87 31.01 44.43 33.07 48 35.13 44.43 37.19 40.87 33.07 40.87 28.95 40.87" />
        <polygon class="cls-9" points="37.19 40.87 39.25 44.43 41.31 48 43.37 44.43 45.42 40.87 41.31 40.87 37.19 40.87" />
        <path class="cls-10" d="M16.22,33.74a14.32,14.32,0,0,1-2,1.92.69.69,0,0,0-.07,1l.37.6,2-3.54Z" />
        <path class="cls-10" d="M24.84,33.74H16.6l2.06,3.56,1.19,2.07a3.45,3.45,0,0,1,2.14-.7l.79-1.37Z" />
        <polygon class="cls-10" points="32.22 35.21 32.21 35.21 32.22 35.21 33.07 33.74 28.95 33.74 24.84 33.74 26.9 37.3 28.95 40.87 31.01 37.3 32.22 35.21" />
        <path class="cls-10" d="M31.09,33.4l.15-.11h0Z" />
        <path class="cls-10" d="M34.16,33.74H33.07l.47.8A2.55,2.55,0,0,0,34.16,33.74Z" />
        <path class="cls-10" d="M34.9,33.74a2.78,2.78,0,0,1-1.13,1.2l1.36,2.36,2.06,3.57,2.06-3.57,2.06-3.56H34.9Z" />
        <path class="cls-11" d="M24.84,33.74l2.06-3.57L29,26.61h-5.8A17.94,17.94,0,0,0,22,28.8l.79,1.37Z" />
        <path class="cls-11" d="M32.4,32.57l.67,1.17.82-1.41A1.91,1.91,0,0,0,32.4,32.57Z" />
        <path class="cls-11" d="M29,26.61,31,30.17l1.2,2.08c1-.91,1.8-1.14,2.29-1l.63-1.1,2.06-3.56H29Z" />
        <path class="cls-11" d="M41.31,33.74l4.11-7.13H37.19l2.06,3.56Z" />
        <path class="cls-12" d="M29,26.61,31,23l.93-1.61a11.72,11.72,0,0,0-5.11,1.5l.07.11Z" />
        <path class="cls-12" d="M37.19,26.61,39.25,23l.55-1a10.92,10.92,0,0,0-4.83.69l.16.27Z" />
        <path class="cls-9" d="M17.63,42.22c.16.26.36.16.44-.08a7.13,7.13,0,0,1,.53-1.27H16.79Z" />
        <path class="cls-13" d="M16.42,33.41l-.08.14-.12.19h.38Z" />
        <path class="cls-11" d="M18.07,31.19a11.24,11.24,0,0,0-1.65,2.22l.18.33Z" />
        <path class="cls-14" d="M16.6,33.74l-2,3.54,2.23,3.59H18.6a4.65,4.65,0,0,1,1.25-1.5L18.66,37.3Z" />
        <path class="cls-15" d="M20.21,45.31c-.39,0-.42.39-.24.68l1.22,2h3.59l0,0L23,44.79A13.15,13.15,0,0,1,20.21,45.31Z" />
        <path class="cls-13" d="M20.72,33.74h4.12l-2.06-3.57L22,28.8l0,.05a9,9,0,0,0-3.9,2.34L16.6,33.74Zm1.71-2.69L21,32.39l.15,1.11-.91-1.31Z" />
        <path class="cls-14" d="M26.9,37.3l-2.06-3.56L22.78,37.3,22,38.67a4.33,4.33,0,0,1,3.69,2.2H29Z" />
        <path class="cls-15" d="M33.07,48,31,44.43,29,40.87,26.9,44.43,25,47.78A15.12,15.12,0,0,1,26.37,46a3.73,3.73,0,0,1,3.34-.91A8.07,8.07,0,0,1,28.52,48h4.55Z" />
        <path class="cls-16" d="M29,26.61,26.9,23l-.07-.11a10.84,10.84,0,0,0-3.67,3.68H29Z" />
        <path class="cls-13" d="M29,33.74h4.11l-.67-1.17a7,7,0,0,0-1.16.72l-.15.11.11-.12a11.09,11.09,0,0,1,1-1L31,30.17,29,26.61,26.9,30.17l-2.06,3.57Z" />
        <path class="cls-14" d="M33.07,33.74l-.85,1.47a3,3,0,0,0,1.32-.67Z" />
        <path class="cls-14" d="M33.77,34.94a2.66,2.66,0,0,1-1.55.27L31,37.3,29,40.87h8.23L35.13,37.3Z" />
        <path class="cls-15" d="M39.11,48a5.48,5.48,0,0,0-.34-1.14A7.35,7.35,0,0,1,39.31,48h2l-2.06-3.57-2.06-3.56-2.06,3.56L33.07,48h2.48c.09-.16.17-.32.25-.48,0,.16-.09.32-.14.48h3.45Z" />
        <path class="cls-16" d="M29,26.61h8.23L35.13,23,35,22.77a11.92,11.92,0,0,0-2.71,1.45,8.07,8.07,0,0,1,2.39-2l-.46-.79a18.57,18.57,0,0,0-2.25,0L31,23Z" />
        <path class="cls-13" d="M34.5,31.27c.77.25.89,1.45.4,2.47h6.41l-2.06-3.57-2.06-3.56-2.06,3.56Z" />
        <path class="cls-13" d="M33.89,32.33l-.82,1.41h1.09C34.44,33.13,34.37,32.53,33.89,32.33Z" />
        <path class="cls-14" d="M37.19,40.87h8.23L43.37,37.3l-2.06-3.56L39.25,37.3Z" />
        <polygon class="cls-15" points="43.31 48.87 47.43 48.87 51.55 48.87 49.49 45.31 47.43 41.74 45.37 45.31 43.31 48.87" />
        <polygon class="cls-16" points="45.83 25.4 41.47 21.9 39.45 25.4 45.83 25.4" />
        <path class="cls-17" d="M26.62,73.45l.18-.33a11.85,11.85,0,0,1,.43-3.73H25.55A23.81,23.81,0,0,0,26.62,73.45Z" />
        <path class="cls-18" d="M22.58,58.35a16.5,16.5,0,0,0,0,3.91h2.25L22.78,58.7Z" />
        <path class="cls-19" d="M25.55,63.49a16.67,16.67,0,0,0,0,5.9h1.68a15.54,15.54,0,0,1,.66-1.84l-1-1.72Z" />
        <path class="cls-19" d="M24.55,68.51a13,13,0,0,1,.29-6.25l-1.66,2.88A17.93,17.93,0,0,0,24.55,68.51Z" />
        <path class="cls-20" d="M26.29,50.51a11.49,11.49,0,0,0-3,4.62H29L26.9,51.57Z" />
        <path class="cls-18" d="M32.3,62.26h.77l-.31-.53Z" />
        <path class="cls-18" d="M31.18,62.26c.36-.46.73-.92,1.1-1.37L31,58.7l-1.72-3a7.9,7.9,0,0,0-.77,1,18.31,18.31,0,0,0-2.69,5.59h5.35Z" />
        <path class="cls-20" d="M36.92,55.13l.15-.21-1.94-3.35-.64-1.12c-1.31,2-3.15,3.22-4.65,4.68h7.08Z" />
        <path class="cls-20" d="M31,51.57,29,55.13s4.77-4.75,5.2-5.24L33.07,48Z" />
        <path class="cls-18" d="M37.64,55.91a44.25,44.25,0,0,1-3.1,3.81l-1.47,2.54H38a12.35,12.35,0,0,0,2.28-1.84l-1-1.72Z" />
        <path class="cls-19" d="M41.22,62.45h0l0,.05Z" />
        <path class="cls-20" d="M38.15,55.13,44,52.69,41.31,48l-1.59,2.74A9.5,9.5,0,0,1,38.15,55.13Z" />
        <path class="cls-7" d="M45.79,54.38,39.6,56.79l2,3.52C42.63,59.15,45,55.57,45.79,54.38Z" />
        <polygon class="cls-20" points="52.62 49.97 48.5 57.1 54.64 53.38 52.62 49.97" />
        <path class="cls-14" d="M48.81,35.07h-5l3.87,4.57C48.12,38.16,48.49,36.64,48.81,35.07Z" />
        <polygon class="cls-19" points="52.98 55.44 48.76 58.29 52.64 60.19 52.98 55.44" />
        <polygon class="cls-15" points="45.91 56.35 44.65 58.53 46.78 58.53 45.91 56.35" />
        <polygon class="cls-14" points="49.17 41.68 53.52 39.97 50.13 35.35 49.17 41.68" />
        <polygon class="cls-17" points="39.14 72.22 39.54 67.56 35.95 67.56 39.14 72.22" />
        <polygon class="cls-18" points="32.41 63.39 30.39 66.56 36.86 65.61 32.41 63.39" />
        <path class="cls-21" d="M34.08,67.1,31,70.44l-.25.28c1.52.82,3.27,1.7,5.3,2.69l-.61-2Z" />
        <polygon class="cls-8" points="48.6 53.52 50.16 51.95 47.59 50.95 45.02 49.94 46.03 52.51 47.04 55.08 48.6 53.52" />
        <path class="cls-12" d="M49.48,23c-1.2-.18-2.3-.33-3.28-.43L48,25.66Z" />
        <polygon class="cls-7" points="52.19 66.51 53.8 61.32 49.2 61.32 52.19 66.51" />
        <polygon class="cls-8" points="53.07 48.74 53.81 42.58 49.16 42.87 53.07 48.74" />
        <polygon class="cls-19" points="44.02 63.85 47.86 65.78 48.04 62.35 48.22 58.92 44.2 60.42 40.18 61.93 41.2 62.44 41.22 62.45 44.02 63.85" />
        <path class="cls-13" d="M53.87,32.37,51,34.72l3.53,1.36C54.29,34.84,54.09,33.6,53.87,32.37Z" />
        <polygon class="cls-11" points="49.73 32.45 50.71 27.11 47.84 27.2 49.73 32.45" />
        <path class="cls-13" d="M52,31.22c.86-.33,1.71-.66,2.56-1l-2.18-1.7Z" />
        <polygon class="cls-17" points="41.93 65.16 42.46 68.58 42.98 72 45.32 70.52 47.66 69.04 44.79 67.1 41.93 65.16" />
        <polygon class="cls-18" points="37.06 66.95 40.11 64.92 37.55 62.99 37.06 66.95" />
        <polygon class="cls-17" points="51.18 67.58 49.47 69.14 47.76 70.71 50.07 70.9 52.38 71.09 51.78 69.33 51.18 67.58" />
        <polygon class="cls-16" points="54.34 23.02 50.75 22.36 52.06 26.83 54.34 23.02" />
        <path class="cls-13" d="M46.21,28.14l-3.53,5.18L49,33.8C48.08,31.9,47.16,30,46.21,28.14Z" />
        <g class="cls-22">
          <polygon class="cls-3" points="43.31 48.87 47.43 48.87 51.55 48.87 49.49 45.31 47.43 41.74 45.37 45.31 43.31 48.87" />
          <polygon class="cls-3" points="45.83 25.4 41.47 21.9 39.45 25.4 45.83 25.4" />
          <path class="cls-3" d="M32.28,60.89c1.63-2,3.33-3.88,4.64-5.76l.15-.21c1.56-2.29,2.52-4.55,2-6.92a5.48,5.48,0,0,0-.34-1.14A7.35,7.35,0,0,1,39.31,48a6.47,6.47,0,0,1,.41,2.74,9.5,9.5,0,0,1-1.57,4.39L44,52.69,41.31,48l2.06-3.57,2.05-3.56L43.37,37.3l-2.06-3.56,4.11-7.13H37.19L39.25,23l.55-1a10.92,10.92,0,0,0-4.83.69,11.92,11.92,0,0,0-2.71,1.45,8.07,8.07,0,0,1,2.39-2l-.46-.79a18.57,18.57,0,0,0-2.25,0,11.72,11.72,0,0,0-5.11,1.5,10.84,10.84,0,0,0-3.67,3.68A17.94,17.94,0,0,0,22,28.8l0,.05a9,9,0,0,0-3.9,2.34,11.24,11.24,0,0,0-1.65,2.22l-.08.14-.12.19a14.32,14.32,0,0,1-2,1.92.69.69,0,0,0-.07,1l.37.6,2.23,3.59.84,1.35c.16.26.36.16.44-.08a7.13,7.13,0,0,1,.53-1.27,4.65,4.65,0,0,1,1.25-1.5,3.45,3.45,0,0,1,2.14-.7,4.33,4.33,0,0,1,3.69,2.2c.69,1.37.21,3-2.69,3.92a13.15,13.15,0,0,1-2.78.52c-.39,0-.42.39-.24.68l1.22,2,.58.94c.28.46.31.39.9.3A3.33,3.33,0,0,0,24.78,48l0,0,.15-.18L26.37,46a3.73,3.73,0,0,1,3.34-.91A8.07,8.07,0,0,1,28.52,48a11.7,11.7,0,0,1-2.08,2.38l-.15.13a11.49,11.49,0,0,0-3,4.62,14.67,14.67,0,0,0-.74,3.22,16.5,16.5,0,0,0,0,3.91,17.33,17.33,0,0,0,.59,2.88,17.93,17.93,0,0,0,1.37,3.37,13,13,0,0,1,.29-6.25c.53-2.53,2.47-5.2,4.12-7.13,0,0,4.77-4.75,5.2-5.24A11.56,11.56,0,0,0,35.55,48c.09-.16.17-.32.25-.48,0,.16-.09.32-.14.48a9.12,9.12,0,0,1-1.17,2.45c-1.31,2-3.15,3.22-4.65,4.68-.19.19-.37.38-.55.58a7.9,7.9,0,0,0-.77,1,18.31,18.31,0,0,0-2.69,5.59c-.11.4-.2.81-.28,1.23a16.67,16.67,0,0,0,0,5.9,23.81,23.81,0,0,0,1.07,4.06l.18-.33a11.85,11.85,0,0,1,.43-3.73,15.54,15.54,0,0,1,.66-1.84,25.4,25.4,0,0,1,3.29-5.29C31.54,61.8,31.91,61.34,32.28,60.89Z" />
          <path class="cls-3" d="M37.64,55.91a44.25,44.25,0,0,1-3.1,3.81c-.59.67-1.2,1.34-1.78,2l-.46.53H38a12.35,12.35,0,0,0,2.28-1.84l-1-1.72Z" />
          <path class="cls-3" d="M45.79,54.38,39.6,56.79l2,3.52C42.63,59.15,45,55.57,45.79,54.38Z" />
          <polygon class="cls-3" points="52.62 49.97 48.5 57.1 54.64 53.38 52.62 49.97" />
          <path class="cls-3" d="M48.81,35.07h-5l3.87,4.57C48.12,38.16,48.49,36.64,48.81,35.07Z" />
          <polygon class="cls-3" points="52.98 55.44 48.76 58.29 52.64 60.19 52.98 55.44" />
          <polygon class="cls-3" points="45.91 56.35 44.65 58.53 46.78 58.53 45.91 56.35" />
          <polygon class="cls-3" points="49.17 41.68 53.52 39.97 50.13 35.35 49.17 41.68" />
          <polygon class="cls-3" points="39.14 72.22 39.54 67.56 35.95 67.56 39.14 72.22" />
          <polygon class="cls-3" points="32.41 63.39 30.39 66.56 36.86 65.61 32.41 63.39" />
          <path class="cls-3" d="M34.08,67.1,31,70.44l-.25.28c1.52.82,3.27,1.7,5.3,2.69l-.61-2Z" />
          <polygon class="cls-3" points="48.6 53.52 50.16 51.95 47.59 50.95 45.02 49.94 46.03 52.51 47.04 55.08 48.6 53.52" />
          <path class="cls-3" d="M49.48,23c-1.2-.18-2.3-.33-3.28-.43L48,25.66Z" />
          <polygon class="cls-3" points="52.19 66.51 53.8 61.32 49.2 61.32 52.19 66.51" />
          <polygon class="cls-3" points="53.07 48.74 53.81 42.58 49.16 42.87 53.07 48.74" />
          <path class="cls-3" d="M47.86,65.78,48,62.35l.18-3.43-4,1.5-4,1.51,1,.51,0,.05,0,0,2.8,1.4Z" />
          <path class="cls-3" d="M53.87,32.37,51,34.72l3.53,1.36C54.29,34.84,54.09,33.6,53.87,32.37Z" />
          <polygon class="cls-3" points="49.73 32.45 50.71 27.11 47.84 27.2 49.73 32.45" />
          <path class="cls-3" d="M52,31.22c.86-.33,1.71-.66,2.56-1l-2.18-1.7Z" />
          <polygon class="cls-3" points="41.93 65.16 42.46 68.58 42.98 72 45.32 70.52 47.66 69.04 44.79 67.1 41.93 65.16" />
          <polygon class="cls-3" points="37.06 66.95 40.11 64.92 37.55 62.99 37.06 66.95" />
          <polygon class="cls-3" points="51.18 67.58 49.47 69.14 47.76 70.71 50.07 70.9 52.38 71.09 51.78 69.33 51.18 67.58" />
          <polygon class="cls-3" points="54.34 23.02 50.75 22.36 52.06 26.83 54.34 23.02" />
          <path class="cls-3" d="M46.21,28.14l-3.53,5.18L49,33.8C48.08,31.9,47.16,30,46.21,28.14Z" />
        </g>
      </g>
    </g>
  </g>
</svg>
