<svg id="Layer_1" data-name="Layer 1" xmlns="http://www.w3.org/2000/svg" viewBox="0 0 120 97"><defs><style>.cls-1{fill:#fff;}.cls-2{fill:#0b1639;}.cls-3{fill:#f5bd1f;}</style></defs><title>Royalsfx  - Max-EcoSales -App</title><rect class="cls-1" width="120" height="97"/><path class="cls-2" d="M73,66.14c3.17-.83,6.74,3.07,9-2.36l.55.89c-1.22,2.66-2.41,5.33-3.67,8-1.68,3.53-1.68,3.62,1.47,5.91a4.72,4.72,0,0,0,1.12.76c1.23.41,2.49.74,3.73,1.1a38.84,38.84,0,0,1-.2-4,9.64,9.64,0,0,1,.64-3.94c1.7-3.28,3.75-6.38,5.54-9.61,1-1.85.16-3.08-1.63-3.85A12.59,12.59,0,0,0,73,66.14Z"/><path class="cls-2" d="M87.5,47.7c.52-2.34,1-4.64,1.55-7C90.41,44,90.05,45.48,87.5,47.7Z"/><path class="cls-2" d="M74.58,29.88l-1.06-.15c.41-3.14.83-6.27,1.25-9.41l1.11.15Q75.22,25.17,74.58,29.88Z"/><path class="cls-2" d="M77.7,26.45l1.77,8.67C77,32.68,76.78,29.68,77.7,26.45Z"/><path class="cls-2" d="M76.17,13,70.78,23.15C69.91,18.46,73.53,16,76.17,13Z"/><path class="cls-2" d="M86.12,43,82,33.24l.68-.25C84.44,35.85,86.86,38.46,86.12,43Z"/><path class="cls-2" d="M2.94,97H117l0-.28c-2.76-.82-5.55-1.53-8.26-2.48-1.52-.53-3.36-1.09-4.28-2.24-1.88-2.39-4.26-2.35-6.81-2.4-6.18-.14-12.35-.36-18.52-.51-1.48,0-2.66-.18-2.83-2.08A4.57,4.57,0,0,0,75.2,84.9c-8.45-10.66-5.07-24.77,7.36-30.77a59.32,59.32,0,0,0,7.43-4c4.38-3,5.08-6.12,2.66-10.77-1.09-2.08-2.34-4.07-3.52-6.11,2.25-1.26,2.4-1.19,3.26,1.5,2.4-2,3.45-4.3,2.45-6.82-1.71,0-3.52.51-4.61-.16-.83-.51-1.16-2.57-1-3.83.27-2,2-2.62,3.89-2.71,1.17-.05,2.34,0,3.72,0-.23.9-.42,1.62-.61,2.35,2.32-1.89,5.28-3.34,4.2-7.16-.27-1,.26-2.81-.12-3A24.94,24.94,0,0,0,94.58,12c-.48-.07-1.06.83-1.67,1.08a19,19,0,0,1-2.59.7l-.21-.94a8.1,8.1,0,0,0,1.38-.5c.52-.3,1.4-.82,1.35-1.08a2.81,2.81,0,0,0-1.16-1.6,9.34,9.34,0,0,0-2.5-1c-2.42-.71-4.47-1.41-5.37-4.43-.44-1.48-2.82-3-4.57-3.36A47.81,47.81,0,0,0,69.58,0c-.82,0-2.72-.31-2,1.85,0,.13-.9.74-1.45.88-3.88,1-6.39,3.59-8.19,7.35l2.62.44a28.48,28.48,0,0,0-7.53,24l3.34-1.22a27.53,27.53,0,0,1-1,4.45,15.54,15.54,0,0,1-8.8,8.81c-2.6,1.08-5.24,2-7.85,3.1-3.91,1.61-7.49,3.68-10.18,7.06a3.93,3.93,0,0,1-1,.94C24,59.9,13.79,59,10.56,56.2a7.78,7.78,0,0,1-.88-10.79c1.9-2.19,3.82-2,5.54.29,1.47,1.93,3.29,3.6,5.31,5.76.78-4.67-.92-7.64-4.46-8.88a7.74,7.74,0,0,0-9.79,3.61,10.65,10.65,0,0,0,5.2,14.68c3.66,1.5,7.89,1.6,11.88,2.24A20.43,20.43,0,0,0,26.84,63c-.77,2.94-1.39,5.6-2.2,8.19-.17.52-1.27,1.26-1.59,1.12-2.26-1-2.94.79-3.77,2.06a29,29,0,0,0-4.91,17.27c.11,2.79-.89,3.63-3.44,3.83A39.11,39.11,0,0,0,2.94,97ZM70.31,13C66,17.41,59.52,19.6,57.09,26,58,18.07,64.4,15.81,70.31,13Zm.8-5.76h-6V6.58h6ZM76.17,13,70.78,23.15C69.91,18.46,73.53,16,76.17,13Zm-1.4,7.32,1.11.15q-.66,4.7-1.3,9.41l-1.06-.15C73.93,26.59,74.35,23.46,74.77,20.32ZM87.5,47.7c.52-2.34,1-4.64,1.55-7C90.41,44,90.05,45.48,87.5,47.7ZM82,33.24l.68-.25c1.76,2.86,4.18,5.47,3.44,10Zm-2.53,1.88c-2.48-2.44-2.69-5.44-1.77-8.67Zm-6.26,6.34c-1.51-2.57-2.4-5.52-3.56-8.3l.84-.36c2.11,3.86,4.29,7.67,6.3,11.58,1.26,2.44,1.74,5,.11,7.61C77.24,47.89,75.15,44.76,73.21,41.46Zm-7,1.73c-1.15-1.94-2.54-3.76-3.55-5.77-2.08-4.13-1.39-8,1.82-11.63a12,12,0,0,1-.14,1.58,17.89,17.89,0,0,0,3.4,15.38,55,55,0,0,1,3.44,4.88c1.45,2.35,2.19,4.89,1.66,7C70.73,51.05,68.47,47.11,66.16,43.19Zm-24,34.53c7.47-5,8-6.8,4.41-14.85,2.36,1.39,2.36,1.39,4.09,7.72l7-.78-1.22-5.4a69.23,69.23,0,0,1,5.93,9.15c.15.26.19.85,0,1-1.83,1.4,0,2.1.53,3a57.7,57.7,0,0,1,3.32,6.06,41.51,41.51,0,0,1,1.4,6.11c-5.41,0-11.1,0-16.78,0-1.89,0-3.46-.05-4.52-2.07a4.48,4.48,0,0,0-2.84-1.85c-2-.4-3.73-.85-4.11-3.21S40.38,78.89,42.11,77.72ZM20.35,88.57c.77-4.81,2.86-8.17,7.88-10,2.41-.9,4.25-4,5.68-6.44.48-.83-1.12-2.86-1.75-4.28,4.82,2,5.11,2.88,2.26,7.33-1.18,1.83-2.5,3.58-3.55,5.48a3.67,3.67,0,0,0,0,2.29c3.33.55,3.58,4.14,5.76,5.85.75.59.81,2.53.56,3.71-.13.65-1.55,1.3-2.46,1.44-2.33.37-4.69.48-7,.64-2,.14-4.28.86-4.91-2.2-.06-.34-.62-.73-1-.82C20,91.12,20.14,89.9,20.35,88.57Z"/><path class="cls-3" d="M48.72,20.44,36.38,15.81l2.94-6-6,3L28.71.43,24.08,12.76l-6-2.93,3,6L8.7,20.44,21,25.07l-2.93,6,6-3,4.65,12.39,4.62-12.34,6,2.94-3-6Zm-32.9,0,6.26-2.35,4.12,2.35ZM28.71,33.33l-2.35-6.27,2.35-4.12Zm0-15.39V7.55l2.35,6.26Zm2.5,2.5H41.59l-6.26,2.35Z"/></svg>