<?xml version="1.0" encoding="UTF-8"?>
<svg width="120px" height="97px" viewBox="0 0 120 97" version="1.1" xmlns="http://www.w3.org/2000/svg" xmlns:xlink="http://www.w3.org/1999/xlink">
    <!-- Generator: Sketch 54.1 (76490) - https://sketchapp.com -->
    <title>BO_Brand_logo</title>
    <desc>Created with Sketch.</desc>
    <g id="BO_Brand_logo" stroke="none" stroke-width="1" fill="none" fill-rule="evenodd">
        <g id="Group-7" transform="translate(0.000000, 14.000000)" fill-rule="nonzero">
            <polygon id="Path" fill="#957541" points="1.70530257e-13 67.7806452 12 67.7806452 1.70530257e-13 54.2119816"></polygon>
            <polygon id="Path" fill="#957541" points="23.9685039 67.7806452 3.62376795e-13 40.6746544 3.62376795e-13 27.1059908 35.9685039 67.7806452"></polygon>
            <polygon id="Path" fill="#957541" points="47.9685039 67.7806452 59.9685039 67.7806452 -1.84741111e-13 8.52651283e-14 -1.84741111e-13 13.5686636"></polygon>
            <polygon id="Path" fill="#957541" points="119.905512 67.7806452 107.937008 67.7806452 119.905512 54.2119816"></polygon>
            <polygon id="Path" fill="#957541" points="95.9370079 67.7806452 119.905512 40.6746544 119.905512 27.1059908 83.9370079 67.7806452"></polygon>
            <polygon id="Path" fill="#957541" points="71.9370079 67.7806452 59.9685039 67.7806452 119.905512 8.52651283e-14 119.905512 13.5686636"></polygon>
            <polygon id="Path" fill="#BF9250" points="59.9685039 54.2119816 47.9685039 67.7806452 71.9370079 67.7806452"></polygon>
            <polygon id="Path" fill="#BF9250" points="59.9685039 27.1059908 23.9685039 67.7806452 35.9685039 67.7806452 59.9685039 40.6746544 83.9370079 67.7806452 95.9370079 67.7806452"></polygon>
            <polygon id="Path" fill="#BF9250" points="59.9685039 8.52651283e-14 4.26325641e-13 67.7806452 12 67.7806452 59.9685039 13.5686636 107.937008 67.7806452 119.905512 67.7806452"></polygon>
        </g>
    </g>
</svg>