<?xml version="1.0" encoding="utf-8"?>
<!-- Generator: Adobe Illustrator 20.1.0, SVG Export Plug-In . SVG Version: 6.00 Build 0)  -->
<svg version="1.1" id="Layer_1" xmlns="http://www.w3.org/2000/svg" xmlns:xlink="http://www.w3.org/1999/xlink" x="0px" y="0px"
	 width="120px" height="97px" viewBox="0 0 120 97" style="enable-background:new 0 0 120 97;" xml:space="preserve">
<style type="text/css">
	.st0{fill:#167E67;}
	.st1{fill:#48A45E;}
	.st2{fill:#FFFFFF;}
	.st3{enable-background:new    ;}
	.st4{fill:#79BEC0;}
</style>
<g>
	<path class="st0" d="M19.2,40.6h-0.4c-3,0-6.8,2-6.8,2s0,3.1,0,5.4c0.1,2.2,0.9,4.4,2.4,6.1c1.2,1.5,3.6,2.8,4.7,3.5
		c1.1-0.5,3.5-1.9,4.7-3.5c1.5-1.7,2.4-3.8,2.4-6.1c0-2.4,0-5.4,0-5.4S22.2,40.6,19.2,40.6z"/>
	<path class="st1" d="M8.9,47.3H3.5C3.8,44,5,40.9,7.2,38.4l3.8,3.8C9.8,43.7,9.1,45.4,8.9,47.3z"/>
	<path class="st1" d="M11,54.7l-3.8,3.8C5,56.1,3.8,53,3.5,49.7h5.4C9.1,51.5,9.8,53.3,11,54.7z"/>
	<path class="st1" d="M12.7,56.5c1.5,1.2,3.2,1.9,5.1,2.1V64c-3.3-0.2-6.4-1.5-8.9-3.7L12.7,56.5z"/>
	<path class="st1" d="M25.3,56.5l3.8,3.8c-2.5,2.1-5.6,3.5-8.9,3.7v-5.4C22.1,58.4,23.9,57.6,25.3,56.5z"/>
	<path class="st1" d="M12.7,40.5l-3.8-3.8c2.5-2.2,5.6-3.5,8.9-3.7v5.4C15.9,38.6,14.2,39.4,12.7,40.5z"/>
	<path class="st1" d="M25.2,40.5c-1.5-1.2-3.2-1.9-5.1-2.1V33c3.3,0.2,6.4,1.5,8.9,3.7L25.2,40.5z"/>
	<path class="st1" d="M34.4,47.3H29c-0.2-1.9-1-3.6-2.1-5.1l3.8-3.8C32.9,40.9,34.2,44,34.4,47.3z"/>
	<path class="st1" d="M29.1,49.7h5.4c-0.3,3.3-1.6,6.4-3.8,8.8L27,54.8C28.2,53.3,28.9,51.5,29.1,49.7z"/>
	<path class="st2" d="M21.6,52.9c-2.4,3-4.1,1.4-4.1,1.4s2.1,0.8,2.5-1.1c0-0.1,0-0.1,0-0.1c0-0.1,0-0.2,0-0.4c0-1-0.8-2-1.6-2.9
		c-1.1-0.8-1.9-2-2.6-3.2l0,0c-0.3-0.7-0.3-1.4,0-2c0.1-0.2,0.2-0.3,0.2-0.4c2.4-3,4.1-1.4,4.1-1.4S18,42,17.6,43.9
		c0,0.1,0,0.1,0,0.1c0,0.1,0,0.2,0,0.4c0.1,1,0.8,2,1.7,2.9c1,0.8,1.9,1.9,2.5,3.2l0,0c0.3,0.7,0.3,1.4,0,2
		C21.8,52.6,21.7,52.8,21.6,52.9z"/>
	<ellipse transform="matrix(0.5886 -0.8084 0.8084 0.5886 -27.4969 35.3204)" class="st2" cx="21" cy="44.7" rx="1.2" ry="1.2"/>
	<ellipse transform="matrix(0.5886 -0.8084 0.8084 0.5886 -35.4816 35.1592)" class="st2" cx="16.8" cy="52.4" rx="1.2" ry="1.2"/>
	<g class="st3">
		<path class="st4" d="M41.4,47l0.6-1.4c0.7,0.5,1.7,0.8,2.7,0.8c1.1,0,1.6-0.4,1.6-0.8c0-1.5-4.7-0.5-4.7-3.5
			c0-1.4,1.1-2.5,3.4-2.5c1,0,2.1,0.2,2.8,0.7l-0.6,1.3C46.5,41.2,45.7,41,45,41c-1.1,0-1.5,0.4-1.5,0.9c0,1.5,4.7,0.5,4.7,3.4
			c0,1.3-1.1,2.5-3.4,2.5C43.3,47.9,42.1,47.5,41.4,47z"/>
		<path class="st4" d="M54.7,44.3v3.5H53V47c-0.4,0.5-1,0.8-1.9,0.8c-1.5,0-2.3-0.8-2.3-1.9c0-1.1,0.8-1.9,2.7-1.9H53
			c0-0.8-0.5-1.2-1.5-1.2c-0.7,0-1.3,0.2-1.8,0.5L49,42.1c0.7-0.5,1.7-0.7,2.7-0.7C53.6,41.5,54.7,42.4,54.7,44.3z M52.9,45.8v-0.6
			h-1.2c-0.8,0-1.1,0.3-1.1,0.7s0.4,0.7,1,0.7C52.1,46.6,52.7,46.4,52.9,45.8z"/>
	</g>
	<g class="st3">
		<path class="st4" d="M58,41.7h1.6v1.4h-1.5v4.7h-1.8v-4.7h-1v-1.4h1v-0.3c0-1.4,0.8-2.3,2.4-2.3c0.5,0,1,0.1,1.4,0.4l-0.5,1.3
			c-0.2-0.1-0.4-0.2-0.7-0.2c-0.5,0.1-0.8,0.4-0.8,1v0.1H58z"/>
	</g>
	<g class="st3">
		<path class="st4" d="M66.2,45.2h-4.7c0.2,0.8,0.8,1.2,1.8,1.2c0.7,0,1.2-0.2,1.6-0.6l1,1c-0.5,0.7-1.5,1-2.5,1
			c-2.1,0-3.5-1.3-3.5-3.2s1.4-3.2,3.3-3.2c1.8,0,3.2,1.2,3.2,3.2C66.3,44.8,66.2,45,66.2,45.2z M61.5,44.1h3
			c-0.1-0.8-0.7-1.3-1.5-1.3C62.2,42.9,61.6,43.4,61.5,44.1z"/>
		<path class="st4" d="M70.8,39.7h3.6c2.6,0,4.4,1.6,4.4,4s-1.8,4-4.4,4h-3.6V39.7z M74.4,46.3c1.6,0,2.7-1,2.7-2.5s-1-2.5-2.7-2.5
			h-1.7v5C72.7,46.3,74.4,46.3,74.4,46.3z"/>
		<path class="st4" d="M86.2,45.2h-4.7c0.2,0.8,0.8,1.2,1.8,1.2c0.7,0,1.2-0.2,1.6-0.6l1,1c-0.5,0.7-1.5,1-2.5,1
			c-2.1,0-3.5-1.3-3.5-3.2s1.4-3.2,3.3-3.2c1.8,0,3.2,1.2,3.2,3.2C86.3,44.8,86.2,45,86.2,45.2z M81.6,44.1h3
			c-0.1-0.8-0.7-1.3-1.5-1.3C82.2,42.9,81.7,43.4,81.6,44.1z"/>
		<path class="st4" d="M94.2,44.7c0,1.9-1.3,3.2-3.1,3.2c-0.8,0-1.4-0.2-1.9-0.7v2.9h-1.8v-8.5h1.7v0.7c0.4-0.5,1.1-0.8,1.9-0.8
			C92.8,41.5,94.2,42.7,94.2,44.7z M92.4,44.7c0-1.1-0.7-1.7-1.6-1.7s-1.6,0.7-1.6,1.7c0,1.1,0.7,1.7,1.6,1.7S92.4,45.7,92.4,44.7z"
			/>
		<path class="st4" d="M94.9,44.7c0-1.9,1.5-3.2,3.4-3.2s3.4,1.3,3.4,3.2s-1.5,3.2-3.4,3.2S94.9,46.6,94.9,44.7z M99.9,44.7
			c0-1.1-0.7-1.7-1.6-1.7s-1.6,0.7-1.6,1.7c0,1.1,0.7,1.7,1.6,1.7S99.9,45.7,99.9,44.7z"/>
		<path class="st4" d="M102.3,47.2l0.6-1.3c0.5,0.4,1.4,0.6,2.1,0.6c0.8,0,1.2-0.2,1.2-0.5c0-1-3.8,0-3.8-2.4c0-1.2,1-2,2.8-2
			c0.8,0,1.8,0.2,2.4,0.5l-0.6,1.3c-0.6-0.4-1.2-0.5-1.8-0.5c-0.8,0-1.2,0.2-1.2,0.5c0,1,3.8,0.1,3.8,2.5c0,1.2-1.1,1.9-2.9,1.9
			C104,47.8,102.9,47.6,102.3,47.2z"/>
		<path class="st4" d="M108.8,39.7c0-0.5,0.4-1,1.1-1s1.1,0.4,1.1,1s-0.4,1-1.1,1C109.2,40.7,108.8,40.3,108.8,39.7z M109,41.6h1.8
			v6.2H109V41.6z"/>
		<path class="st4" d="M116.5,47.5c-0.4,0.2-0.9,0.4-1.5,0.4c-1.5,0-2.3-0.7-2.3-2.2v-2.5h-1v-1.4h1v-1.5h1.8v1.5h1.5v1.4h-1.5v2.5
			c0,0.5,0.3,0.8,0.8,0.8c0.2,0,0.5-0.1,0.7-0.2L116.5,47.5z"/>
	</g>
	<g class="st3">
		<path class="st2" d="M41.6,55c0-1.8,1.3-3,3-3c1,0,1.8,0.4,2.3,1.1l-0.4,0.3c-0.4-0.6-1.1-0.9-1.9-0.9c-1.4,0-2.4,1-2.4,2.5
			s1,2.5,2.4,2.5c0.7,0,1.4-0.3,1.9-0.9l0.4,0.3c-0.5,0.7-1.3,1.1-2.3,1.1C42.9,58.1,41.6,56.9,41.6,55z"/>
		<path class="st2" d="M61.2,55.2h-5.1c0.1,1.5,1.1,2.4,2.5,2.4c0.8,0,1.5-0.3,1.9-0.8l0.4,0.4c-0.5,0.7-1.3,1-2.2,1
			c-1.8,0-3.1-1.3-3.1-3c0-1.8,1.2-3,2.8-3S61.2,53.4,61.2,55.2C61.3,55.1,61.2,55.2,61.2,55.2z M56.1,54.7h4.6
			c-0.1-1.3-1-2.2-2.3-2.2S56.2,53.5,56.1,54.7z"/>
		<path class="st2" d="M75.9,54.6v3.5h-0.5v-3.5c0-1.3-0.7-2.1-1.9-2.1c-1.4,0-2.3,0.9-2.3,2.4v3.2h-0.5v-6h0.5v1.3
			c0.4-0.8,1.2-1.3,2.4-1.3C75,52,75.9,52.9,75.9,54.6z"/>
		<path class="st2" d="M88.8,57.7c-0.3,0.3-0.8,0.4-1.2,0.4c-1,0-1.6-0.6-1.6-1.6v-3.9h-1.1v-0.5H86v-1.3h0.5v1.3h1.9v0.5h-1.9v3.9
			c0,0.8,0.4,1.2,1.1,1.2c0.4,0,0.7-0.1,0.9-0.4L88.8,57.7z"/>
		<path class="st2" d="M100.8,52v0.5c-0.1,0-0.1,0-0.1,0c-1.3,0-2.1,0.9-2.1,2.4V58H98v-6h0.5v1.3C98.9,52.5,99.7,52,100.8,52z"/>
		<path class="st2" d="M115.2,55.2H110c0.1,1.5,1.1,2.4,2.5,2.4c0.8,0,1.5-0.3,1.9-0.8l0.4,0.4c-0.5,0.7-1.3,1-2.2,1
			c-1.8,0-3.1-1.3-3.1-3c0-1.8,1.2-3,2.8-3S115.1,53.4,115.2,55.2C115.2,55.1,115.2,55.2,115.2,55.2z M110,54.7h4.6
			c-0.1-1.3-1-2.2-2.3-2.2C111,52.5,110.1,53.5,110,54.7z"/>
	</g>
</g>
</svg>
