<svg xmlns="http://www.w3.org/2000/svg" viewBox="0 0 120 97"><defs><style>.cls-1{fill:#0a1d27;}.cls-2{fill:#29abe2;}.cls-3{fill:none;}</style></defs><title>SKYKAPITALSAsset 6</title><g id="Layer_2" data-name="Layer 2"><g id="Layer_1-2" data-name="Layer 1"><path class="cls-1" d="M26.53,52.42a4.17,4.17,0,0,1,.2-1.24,4,4,0,0,1,.6-1.13,3.11,3.11,0,0,1,.94-.83,2.42,2.42,0,0,1,1.26-.33H39a.79.79,0,0,1,.56.23.77.77,0,0,1,0,1.1.79.79,0,0,1-.56.23H29.87a1.77,1.77,0,0,0-.92.2,1.64,1.64,0,0,0-.55.49,1.74,1.74,0,0,0-.28.64,3.19,3.19,0,0,0-.08.64,3,3,0,0,0,.08.64A1.73,1.73,0,0,0,29,54.2a1.87,1.87,0,0,0,.92.2H39a.78.78,0,0,1,.56.22.79.79,0,0,1,.23.56.76.76,0,0,1-.23.55A.78.78,0,0,1,39,56H29.37a2.23,2.23,0,0,1-1.19-.32,3.1,3.1,0,0,1-.89-.84,3.81,3.81,0,0,1-.57-1.14A4.14,4.14,0,0,1,26.53,52.42Z"/><path class="cls-1" d="M42.12,55.66a.73.73,0,0,1-.6.29.77.77,0,0,1-.79-.77.64.64,0,0,1,.17-.47l4-5.3a2.13,2.13,0,0,1,.74-.61,2.16,2.16,0,0,1,1-.23,2.11,2.11,0,0,1,.93.21,1.8,1.8,0,0,1,.72.58l4,5.26a1.13,1.13,0,0,1,.16.26.73.73,0,0,1,.07.3.77.77,0,0,1-.79.77.74.74,0,0,1-.62-.3l-3.8-5-.28-.28a.53.53,0,0,0-.36-.16.51.51,0,0,0-.35.16,2.3,2.3,0,0,0-.27.28Z"/><path class="cls-1" d="M53.14,49.67a.75.75,0,0,1,.23-.55.76.76,0,0,1,.55-.23H63.7a2.27,2.27,0,0,1,.86.17,2.57,2.57,0,0,1,.7.46,2.13,2.13,0,0,1,.47.68,2.19,2.19,0,0,1,0,1.69,2.13,2.13,0,0,1-.47.68,2.36,2.36,0,0,1-.7.46,2.27,2.27,0,0,1-.86.17H55.21a.57.57,0,0,0-.5.6v1.38a.74.74,0,0,1-.24.55.77.77,0,0,1-.55.22.75.75,0,0,1-.55-.22.76.76,0,0,1-.23-.55V53.62a2,2,0,0,1,.15-.77,2.08,2.08,0,0,1,.41-.63,1.92,1.92,0,0,1,1.4-.57h8.66a.66.66,0,0,0,.44-.17.58.58,0,0,0,.18-.43.54.54,0,0,0-.18-.42.62.62,0,0,0-.44-.18H53.92a.76.76,0,0,1-.55-.23A.75.75,0,0,1,53.14,49.67Z"/><path class="cls-1" d="M68,55.73a.78.78,0,0,1-.56.22.74.74,0,0,1-.55-.22.73.73,0,0,1-.23-.55V49.67a.71.71,0,0,1,.23-.55.75.75,0,0,1,.55-.23.79.79,0,0,1,.56.23.74.74,0,0,1,.22.55v5.51A.75.75,0,0,1,68,55.73Z"/><path class="cls-1" d="M81.85,49.12a.8.8,0,0,1,0,1.1.79.79,0,0,1-.56.23H76.46v4.73a.73.73,0,0,1-.23.55.74.74,0,0,1-.55.22.78.78,0,0,1-.56-.22.75.75,0,0,1-.22-.55V50.45H70a.85.85,0,0,1-.51-.25.76.76,0,0,1-.21-.53.75.75,0,0,1,.23-.55.77.77,0,0,1,.56-.23H81.29A.79.79,0,0,1,81.85,49.12Z"/><path class="cls-1" d="M81.24,55.66a.73.73,0,0,1-.6.29.78.78,0,0,1-.56-.22.76.76,0,0,1-.23-.55.64.64,0,0,1,.17-.47l4-5.3a2.13,2.13,0,0,1,.74-.61,2.18,2.18,0,0,1,1.91,0,1.84,1.84,0,0,1,.71.58l4,5.26a1.13,1.13,0,0,1,.16.26.6.6,0,0,1,.07.3.77.77,0,0,1-.79.77.75.75,0,0,1-.62-.3l-3.8-5a2.46,2.46,0,0,0-.28-.28.51.51,0,0,0-.35-.16.49.49,0,0,0-.35.16,1.39,1.39,0,0,0-.27.28Z"/><path class="cls-1" d="M94,55.78a2,2,0,0,1-.71-.46,2,2,0,0,1-.48-.68,2,2,0,0,1-.18-.84V49.67a.74.74,0,0,1,.22-.55.78.78,0,0,1,1.11,0,.75.75,0,0,1,.23.55V53.8a.55.55,0,0,0,.19.42.6.6,0,0,0,.43.18h9.79a.76.76,0,0,1,.56.22.79.79,0,0,1,.23.56.77.77,0,0,1-.79.77H94.86A2.1,2.1,0,0,1,94,55.78Z"/><path class="cls-2" d="M27.81,44.38a1.92,1.92,0,0,1-.65-.44,2,2,0,0,1-.44-.64,2,2,0,0,1,0-1.61,2,2,0,0,1,.44-.64,1.92,1.92,0,0,1,.65-.44,2,2,0,0,1,.81-.17h9.43a.73.73,0,0,1,.53.22.69.69,0,0,1,.22.52.71.71,0,0,1-.22.53.72.72,0,0,1-.53.21H28.59a.58.58,0,0,0-.41.17.5.5,0,0,0-.18.4.55.55,0,0,0,.18.41.58.58,0,0,0,.41.17h8.59a2.07,2.07,0,0,1,.82.16,2.12,2.12,0,0,1,.66.44,2,2,0,0,1,.6,1.46,1.91,1.91,0,0,1-.16.8,2,2,0,0,1-.44.65A1.93,1.93,0,0,1,38,47a2.07,2.07,0,0,1-.82.16H27.77a.75.75,0,0,1-.75-.74.71.71,0,0,1,.22-.53.72.72,0,0,1,.53-.21h9.47a.62.62,0,0,0,.41-.16.54.54,0,0,0,.17-.4.57.57,0,0,0-.17-.41.54.54,0,0,0-.41-.17H28.62A2,2,0,0,1,27.81,44.38Z"/><path class="cls-1" d="M107.05,52.84a2.31,2.31,0,0,1-.66-.44,2.26,2.26,0,0,1-.44-.65,2.08,2.08,0,0,1,0-1.6,2.26,2.26,0,0,1,.44-.65,2.31,2.31,0,0,1,.66-.44,1.94,1.94,0,0,1,.8-.16h9.44a.76.76,0,0,1,.53.21.74.74,0,0,1,.21.53.72.72,0,0,1-.21.52.73.73,0,0,1-.53.22h-9.47a.59.59,0,0,0-.41.16.54.54,0,0,0-.18.41.53.53,0,0,0,.18.4.6.6,0,0,0,.41.17h8.6a2,2,0,0,1,.81.16,2.06,2.06,0,0,1,.66.44,2.15,2.15,0,0,1,.45.66,2.11,2.11,0,0,1,0,1.61,2.1,2.1,0,0,1-.45.65,1.89,1.89,0,0,1-.66.43,2.16,2.16,0,0,1-.81.15H107a.74.74,0,0,1-.53-.21.75.75,0,0,1-.22-.53.73.73,0,0,1,.22-.52.71.71,0,0,1,.53-.22h9.48a.54.54,0,0,0,.4-.16.5.5,0,0,0,.17-.39.54.54,0,0,0-.17-.42.54.54,0,0,0-.4-.17h-8.63A1.94,1.94,0,0,1,107.05,52.84Z"/><path class="cls-2" d="M41.39,43.07H45a6,6,0,0,0,1.58-.21,9.2,9.2,0,0,0,1.52-.55,12,12,0,0,0,1.41-.77c.45-.29.89-.58,1.3-.88a.87.87,0,0,1,.53-.22.75.75,0,0,1,.53.22.73.73,0,0,1,.22.52.62.62,0,0,1-.13.38,1.33,1.33,0,0,1-.29.29l-.78.58c-.25.18-.5.34-.75.5s-.5.3-.77.44-.54.29-.84.44c.3.14.58.28.84.43s.52.29.77.44l.75.51.78.57a1.59,1.59,0,0,1,.29.29.62.62,0,0,1,.13.38.73.73,0,0,1-.22.52.71.71,0,0,1-.53.22.81.81,0,0,1-.53-.22c-.42-.31-.86-.6-1.31-.89a10.69,10.69,0,0,0-1.41-.77,8.24,8.24,0,0,0-1.51-.54,6,6,0,0,0-1.58-.2H41.39v1.88a.69.69,0,0,1-.22.52.67.67,0,0,1-.51.22.71.71,0,0,1-.53-.22.73.73,0,0,1-.22-.52V41.18a.73.73,0,0,1,.22-.52.72.72,0,0,1,1,0,.69.69,0,0,1,.22.52Z"/><path class="cls-2" d="M59.49,47a.75.75,0,0,1-1.06,0,.73.73,0,0,1-.22-.52V44.55a4.49,4.49,0,0,1-1.15-.16,5.57,5.57,0,0,1-1.17-.48,10.06,10.06,0,0,1-1.31-.86c-.47-.35-1-.78-1.57-1.28a1.09,1.09,0,0,1-.21-.26.63.63,0,0,1-.09-.33.73.73,0,0,1,.22-.52.75.75,0,0,1,.53-.22.53.53,0,0,1,.28.07l.25.15c.66.58,1.22,1,1.67,1.35a7.19,7.19,0,0,0,1.21.72,3.56,3.56,0,0,0,1,.28,8.83,8.83,0,0,0,1.09.06c.4,0,.76,0,1.07,0a3.1,3.1,0,0,0,1-.28A6.34,6.34,0,0,0,62.25,42a21.51,21.51,0,0,0,1.68-1.36.89.89,0,0,1,.53-.22.75.75,0,0,1,.53.22.73.73,0,0,1,.22.52.63.63,0,0,1-.09.33,1.09,1.09,0,0,1-.21.26c-.57.49-1.09.92-1.57,1.27a9.42,9.42,0,0,1-1.34.87,5.77,5.77,0,0,1-1.2.48,4.29,4.29,0,0,1-1.09.16v1.88A.73.73,0,0,1,59.49,47Z"/><path class="cls-1" d="M17.63,54.86a.85.85,0,0,1-.84-.85V47.42a.85.85,0,0,1,1.69,0V54A.85.85,0,0,1,17.63,54.86Z"/><path class="cls-1" d="M4.71,54.86A.84.84,0,0,1,3.87,54V50.46a.84.84,0,1,1,1.68,0V54A.84.84,0,0,1,4.71,54.86Z"/><path class="cls-1" d="M11.81,50a.85.85,0,0,1-.85-.85V41.68a.85.85,0,1,1,1.69,0v7.43A.85.85,0,0,1,11.81,50Z"/><path class="cls-2" d="M5.08,51.31H4a2.5,2.5,0,0,1-2.5-2.5V43A2.5,2.5,0,0,1,4,40.5H5.08A2.5,2.5,0,0,1,7.58,43v5.81A2.5,2.5,0,0,1,5.08,51.31ZM4,42.19a.81.81,0,0,0-.81.81v5.81a.81.81,0,0,0,.81.81H5.08a.81.81,0,0,0,.81-.81V43a.81.81,0,0,0-.81-.81Z"/><path class="cls-2" d="M12.18,55H11.1a2.5,2.5,0,0,1-2.5-2.5V50.77a2.5,2.5,0,0,1,2.5-2.5h1.08a2.5,2.5,0,0,1,2.5,2.5v1.75A2.5,2.5,0,0,1,12.18,55ZM11.1,50a.82.82,0,0,0-.82.81v1.75a.82.82,0,0,0,.82.82h1.08a.82.82,0,0,0,.81-.82V50.77a.81.81,0,0,0-.81-.81Z"/><path class="cls-2" d="M18.17,47.93H17.09a2.5,2.5,0,0,1-2.5-2.5V43.67a2.5,2.5,0,0,1,2.5-2.5h1.08a2.5,2.5,0,0,1,2.5,2.5v1.76A2.5,2.5,0,0,1,18.17,47.93Zm-1.08-5.07a.81.81,0,0,0-.81.81v1.76a.81.81,0,0,0,.81.81h1.08a.82.82,0,0,0,.82-.81V43.67a.82.82,0,0,0-.82-.81Z"/><rect class="cls-3" width="120" height="97"/></g></g></svg>