<svg xmlns="http://www.w3.org/2000/svg" viewBox="0 0 120 97"><defs><style>.cls-1{fill:#0a1d27;}.cls-2{fill:#29abe2;}.cls-3{fill:none;}</style></defs><title>SKYKAPITALAsset 1</title><g id="Layer_2" data-name="Layer 2"><g id="Layer_1-2" data-name="Layer 1"><path class="cls-1" d="M29.93,53.6a4.34,4.34,0,0,1,.23-1.41,4,4,0,0,1,.68-1.28A3.48,3.48,0,0,1,31.91,50a2.75,2.75,0,0,1,1.43-.37h10.8a.86.86,0,0,1,.63.26.88.88,0,0,1,0,1.25.86.86,0,0,1-.63.26H33.73a2,2,0,0,0-1,.23,1.82,1.82,0,0,0-.63.56,1.94,1.94,0,0,0-.32.72,3.37,3.37,0,0,0,0,1.46,1.94,1.94,0,0,0,.32.72,1.82,1.82,0,0,0,.63.56,2,2,0,0,0,1,.23H44.14a.86.86,0,0,1,.63.26.88.88,0,0,1,0,1.25.86.86,0,0,1-.63.26h-11a2.47,2.47,0,0,1-1.35-.37,3.38,3.38,0,0,1-1-1A4.33,4.33,0,0,1,30.15,55,4.69,4.69,0,0,1,29.93,53.6Z"/><path class="cls-1" d="M47.64,57.28a.88.88,0,0,1-.69.33.89.89,0,0,1-.63-.26.85.85,0,0,1-.26-.62.76.76,0,0,1,.19-.54l4.5-6a2.4,2.4,0,0,1,.84-.69,2.34,2.34,0,0,1,1.11-.27,2.38,2.38,0,0,1,1,.24,2.14,2.14,0,0,1,.82.66l4.5,6a1.12,1.12,0,0,1,.19.29.74.74,0,0,1,.07.34.82.82,0,0,1-.26.62.86.86,0,0,1-.63.26.84.84,0,0,1-.7-.35l-4.32-5.72a3.21,3.21,0,0,0-.32-.32.6.6,0,0,0-.4-.18.58.58,0,0,0-.4.18,2.28,2.28,0,0,0-.31.32Z"/><path class="cls-1" d="M60.16,50.47a.82.82,0,0,1,.26-.62.86.86,0,0,1,.63-.26h11.1a2.4,2.4,0,0,1,1,.19,2.6,2.6,0,0,1,.8.53,2.44,2.44,0,0,1,.54.77,2.5,2.5,0,0,1,0,1.91,2.48,2.48,0,0,1-.54.78,2.57,2.57,0,0,1-.8.52,2.4,2.4,0,0,1-1,.19H62.51a.72.72,0,0,0-.41.22.68.68,0,0,0-.16.46v1.57a.83.83,0,0,1-.27.62.89.89,0,0,1-.62.26.86.86,0,0,1-.63-.26.82.82,0,0,1-.26-.62V55a2.28,2.28,0,0,1,.16-.87,2.11,2.11,0,0,1,.48-.72,2.42,2.42,0,0,1,.7-.48,2.3,2.3,0,0,1,.88-.17h9.84a.7.7,0,0,0,.49-.2.59.59,0,0,0,.22-.48.61.61,0,0,0-.22-.48.66.66,0,0,0-.49-.2H61.05a.86.86,0,0,1-.63-.26A.82.82,0,0,1,60.16,50.47Z"/><path class="cls-1" d="M77,57.35a.89.89,0,0,1-.63.26.86.86,0,0,1-.63-.26.82.82,0,0,1-.26-.62V50.47a.82.82,0,0,1,.26-.62.86.86,0,0,1,.63-.26.89.89,0,0,1,.63.26.84.84,0,0,1,.25.62v6.26A.84.84,0,0,1,77,57.35Z"/><path class="cls-1" d="M92.76,49.85a.89.89,0,0,1-.63,1.51H86.65v5.37a.85.85,0,0,1-.26.62.89.89,0,0,1-.63.26.86.86,0,0,1-.63-.26.82.82,0,0,1-.26-.62V51.36H79.31a.92.92,0,0,1-.58-.29.81.81,0,0,1-.24-.6.89.89,0,0,1,.89-.88H92.13A.86.86,0,0,1,92.76,49.85Z"/><path class="cls-1" d="M92.08,57.28a.88.88,0,0,1-.69.33.89.89,0,0,1-.89-.88.76.76,0,0,1,.19-.54l4.5-6a2.46,2.46,0,0,1,.83-.69,2.4,2.4,0,0,1,1.12-.27,2.38,2.38,0,0,1,1,.24,2.14,2.14,0,0,1,.82.66l4.5,6a1.12,1.12,0,0,1,.19.29.74.74,0,0,1,.07.34.89.89,0,0,1-.89.88.82.82,0,0,1-.7-.35l-4.32-5.72a3.4,3.4,0,0,0-.33-.32.52.52,0,0,0-.79,0,1.83,1.83,0,0,0-.31.32Z"/><path class="cls-1" d="M106.56,57.42a2.6,2.6,0,0,1-.8-.53,2.64,2.64,0,0,1-.55-.77,2.17,2.17,0,0,1-.2-1V50.47a.82.82,0,0,1,.26-.62.86.86,0,0,1,.63-.26.89.89,0,0,1,.62.26.83.83,0,0,1,.27.62v4.69a.63.63,0,0,0,.21.48.66.66,0,0,0,.49.2h11.12a.89.89,0,1,1,0,1.77H107.55A2.53,2.53,0,0,1,106.56,57.42Z"/><path class="cls-2" d="M31.39,43.87a2.41,2.41,0,0,1-.74-.5,2.39,2.39,0,0,1-.51-.74,2.39,2.39,0,0,1,0-1.82,2.39,2.39,0,0,1,.51-.74,2.41,2.41,0,0,1,.74-.5,2.27,2.27,0,0,1,.91-.18H43a.85.85,0,0,1,.85.84.86.86,0,0,1-.25.6.85.85,0,0,1-.6.24H32.27a.66.66,0,0,0-.47.19.6.6,0,0,0-.2.46.63.63,0,0,0,.2.46.7.7,0,0,0,.47.19H42a2.41,2.41,0,0,1,.93.18,2.3,2.3,0,0,1,1.25,1.25,2.31,2.31,0,0,1-.5,2.56,2.12,2.12,0,0,1-.75.49A2.41,2.41,0,0,1,42,47H31.33a.82.82,0,0,1-.6-.25.81.81,0,0,1-.24-.59.83.83,0,0,1,.24-.6.85.85,0,0,1,.6-.24H42.1a.66.66,0,0,0,.46-.19.58.58,0,0,0,.19-.44.65.65,0,0,0-.19-.48.62.62,0,0,0-.46-.19H32.3A2.27,2.27,0,0,1,31.39,43.87Z"/><path class="cls-2" d="M46.81,42.37h4.08a6.85,6.85,0,0,0,1.8-.24,11.07,11.07,0,0,0,1.72-.62,13,13,0,0,0,1.6-.88c.52-.32,1-.66,1.48-1a.92.92,0,0,1,.6-.25.85.85,0,0,1,.85.84.66.66,0,0,1-.15.43,1.44,1.44,0,0,1-.33.32l-.88.66c-.29.21-.57.4-.85.57s-.57.35-.87.51-.63.33-1,.49c.34.16.66.33,1,.49s.59.33.87.51.56.36.85.57l.88.65a1.72,1.72,0,0,1,.33.33.64.64,0,0,1,.15.43.85.85,0,0,1-.85.84.92.92,0,0,1-.6-.25c-.48-.35-1-.69-1.49-1a14.68,14.68,0,0,0-1.6-.88,9.69,9.69,0,0,0-1.71-.61,7.28,7.28,0,0,0-1.8-.23H46.81v2.14a.84.84,0,0,1-1.68,0v-6a.84.84,0,0,1,1.68,0Z"/><path class="cls-2" d="M67.37,46.78a.82.82,0,0,1-.6.25.85.85,0,0,1-.85-.84V44.05a4.82,4.82,0,0,1-1.31-.18,6.27,6.27,0,0,1-1.33-.55,12,12,0,0,1-1.49-1c-.53-.4-1.12-.88-1.78-1.45a.89.89,0,0,1-.24-.3.71.71,0,0,1-.1-.37.85.85,0,0,1,.85-.84.68.68,0,0,1,.32.07l.28.18c.75.65,1.38,1.16,1.9,1.53a7.23,7.23,0,0,0,1.37.81,3.93,3.93,0,0,0,1.16.33,11.38,11.38,0,0,0,1.23.06c.46,0,.87,0,1.22,0A3.73,3.73,0,0,0,69.13,42a7.81,7.81,0,0,0,1.37-.81c.51-.37,1.15-.89,1.92-1.55a.92.92,0,0,1,.6-.25.82.82,0,0,1,.6.25.83.83,0,0,1,.15,1,1.22,1.22,0,0,1-.24.3c-.65.56-1.24,1-1.79,1.44a12.34,12.34,0,0,1-1.52,1,6.46,6.46,0,0,1-1.36.55,4.66,4.66,0,0,1-1.25.18v2.14A.81.81,0,0,1,67.37,46.78Z"/><path class="cls-1" d="M19.83,55.76a1,1,0,0,1-1-1V47.32a1,1,0,0,1,1.92,0V54.8A1,1,0,0,1,19.83,55.76Z"/><path class="cls-1" d="M5.15,55.76a1,1,0,0,1-1-1v-4a1,1,0,0,1,1.92,0v4A1,1,0,0,1,5.15,55.76Z"/><path class="cls-1" d="M13.21,50.2a1,1,0,0,1-1-1V40.79a1,1,0,1,1,1.91,0v8.45A1,1,0,0,1,13.21,50.2Z"/><path class="cls-2" d="M5.57,51.73H4.34A2.84,2.84,0,0,1,1.5,48.89v-6.6a2.84,2.84,0,0,1,2.84-2.84H5.57a2.84,2.84,0,0,1,2.84,2.84v6.6A2.84,2.84,0,0,1,5.57,51.73ZM4.34,41.37a.92.92,0,0,0-.92.92v6.6a.92.92,0,0,0,.92.92H5.57a.92.92,0,0,0,.92-.92v-6.6a.92.92,0,0,0-.92-.92Z"/><path class="cls-2" d="M13.63,56H12.4a2.84,2.84,0,0,1-2.84-2.84v-2a2.84,2.84,0,0,1,2.84-2.84h1.23a2.84,2.84,0,0,1,2.84,2.84v2A2.84,2.84,0,0,1,13.63,56ZM12.4,50.2a.92.92,0,0,0-.92.92v2a.92.92,0,0,0,.92.92h1.23a.92.92,0,0,0,.92-.92v-2a.92.92,0,0,0-.92-.92Z"/><path class="cls-2" d="M20.44,47.89H19.21a2.84,2.84,0,0,1-2.84-2.84v-2a2.84,2.84,0,0,1,2.84-2.84h1.23a2.84,2.84,0,0,1,2.84,2.84v2A2.84,2.84,0,0,1,20.44,47.89Zm-1.23-5.75a.92.92,0,0,0-.92.92v2a.92.92,0,0,0,.92.92h1.23a.92.92,0,0,0,.92-.92v-2a.92.92,0,0,0-.92-.92Z"/><rect class="cls-3" width="120" height="97"/></g></g></svg>