<?xml version="1.0" encoding="UTF-8"?>
<svg width="120px" height="97px" viewBox="0 0 120 97" version="1.1" xmlns="http://www.w3.org/2000/svg" xmlns:xlink="http://www.w3.org/1999/xlink">
    <!-- Generator: Sketch 52.6 (67491) - http://www.bohemiancoding.com/sketch -->
    <title>BO_Brand_logo</title>
    <desc>Created with Sketch.</desc>
    <defs>
        <linearGradient x1="-0.000206583246%" y1="50.0001491%" x2="100.000106%" y2="50.0001491%" id="linearGradient-1">
            <stop stop-color="#673539" offset="0%"></stop>
            <stop stop-color="#5C3239" offset="10.88%"></stop>
            <stop stop-color="#412738" offset="33.16%"></stop>
            <stop stop-color="#382337" offset="40.82%"></stop>
            <stop stop-color="#332A48" offset="55.77%"></stop>
            <stop stop-color="#2E3055" offset="68.88%"></stop>
        </linearGradient>
    </defs>
    <g id="BO_Brand_logo" stroke="none" stroke-width="1" fill="none" fill-rule="evenodd">
        <g id="Group-40-Copy" transform="translate(1.000000, 12.000000)">
            <path d="M80.7376462,72.9145649 C73.3946683,72.8633844 66.265615,70.6210884 59.8743367,66.1587488 C59.3610691,65.8004858 59.0239301,65.7411462 58.4743784,66.1224033 C50.6687794,71.5289847 42.0120178,73.7379021 32.5139205,72.6289929 C16.951857,70.8139422 3.99619541,59.046895 0.813784796,44.070316 C-3.25380464,24.9318042 8.85598587,5.99727241 28.3314317,1.35543042 C39.1085405,-1.21323349 49.1864261,0.770193396 58.3269746,7.00901297 C58.9400233,7.42735731 59.3262969,7.46221934 59.9559757,7.02310613 C67.1772509,1.99333137 75.2549801,-0.229679245 84.05461,0.42528184 C101.352259,1.71295165 114.988246,14.5525625 117.763973,30.6439847 C120.709026,47.7189611 110.60166,64.7375649 94.0077693,70.6767193 C89.8759269,72.1565012 85.6276733,72.8975047 80.7376462,72.9145649 Z M72.6107824,49.7335413 C73.4324642,50.4352323 74.3236904,51.1970047 75.2224757,51.9654528 C73.7937925,53.5631722 72.4550635,55.0614976 71.0195771,56.6666344 C75.4946058,56.6666344 79.7640251,56.6666344 84.0969414,56.6666344 C84.0969414,53.3450991 84.0969414,50.089579 84.0969414,46.7257642 C85.1166734,46.7257642 86.0774439,46.7294729 87.0374585,46.7250224 C90.176026,46.7109292 93.3145934,46.8021639 96.4176327,46.126434 C103.214083,44.6459104 108.380019,40.1642854 108.88346,32.990125 C109.176,28.8207748 108.206158,25.0252642 105.228601,21.9158679 C101.893496,18.4333738 97.5636029,16.9365318 92.8686024,16.7889245 C85.6820993,16.5619505 78.4842576,16.6813715 71.2917072,16.6576356 C71.1178463,16.6568939 70.9432295,16.6984316 70.747447,16.7229092 C70.7194781,16.8645825 70.6771467,16.9765861 70.6771467,17.0885896 C70.6726112,25.1261415 70.6673198,33.1636934 70.6952887,41.2005035 C70.6960446,41.4400873 71.0074824,41.8109599 71.2539114,41.8947771 C72.5253638,42.3272146 73.8225174,42.6862193 75.1997982,43.0971462 C74.946566,43.9442193 74.7772406,44.7267606 74.4801652,45.4603467 C73.9124715,46.8592783 73.2729657,48.2300236 72.6107824,49.7335413 Z M45.771949,53.3154292 C43.3069036,49.1127005 45.188381,44.6347842 47.9361394,42.5875672 C48.5423848,42.1358443 49.4721627,41.682638 49.5742115,41.1129776 C49.6823077,40.5106804 48.9044691,39.7948962 48.6444336,39.0828208 C47.9421867,37.1594752 46.3857536,36.0364729 44.7310512,35.0529186 C41.7867545,33.3031415 38.4236797,32.7683432 35.1354407,32.0206639 C32.9644471,31.5266616 30.7979889,31.0022476 28.6579879,30.3947583 C27.772809,30.1433066 27.1794142,29.4623844 27.1491775,28.4825389 C27.117429,27.4492877 27.6488387,26.6786144 28.5861757,26.3181262 C29.4448975,25.9880495 30.3746754,25.7425318 31.2908468,25.6661321 C34.0892516,25.4332241 36.845325,25.7618172 39.5091765,26.6415271 C41.0966023,27.165941 42.6492558,27.7912323 44.2737215,28.3927877 C45.5829697,25.2952594 46.8839029,22.2185 48.1969307,19.114296 C47.8990994,18.951112 47.6723243,18.8079552 47.429675,18.6981769 C46.827965,18.4259564 46.2292788,18.1411262 45.6101827,17.9097017 C40.2265418,15.8943797 34.6493861,15.343263 28.9535514,15.9262748 C25.0492401,16.3260755 21.4147911,17.4824564 18.2936097,19.9524682 C12.9114806,24.2123113 11.5833344,34.251092 19.5053447,38.5762087 C22.1230853,40.0055519 25.0280744,40.6026568 27.8929998,41.3102818 C30.2590201,41.8940354 32.6409146,42.4258667 34.9819896,43.0941792 C36.3146713,43.4746946 36.9284759,44.3766568 36.8657348,45.4032323 C36.8060173,46.3808526 36.0999908,47.0714175 34.7718446,47.4452571 C34.6274645,47.4860531 34.4777929,47.5083054 34.3296332,47.5312995 C30.29606,48.1580743 26.3834336,47.579513 22.5675645,46.2933267 C20.896232,45.730342 19.283861,45.0004646 17.5838037,44.3225094 C16.1929164,47.4155873 14.7982495,50.5160825 13.4035826,53.6188031 C13.5850027,53.7434163 13.6764686,53.819816 13.7807852,53.8747052 C14.1247274,54.058658 14.4633782,54.2574458 14.8216829,54.410987 C22.317356,57.6249693 30.0987657,58.4661085 38.1099742,56.9210531 C40.9446629,56.3773538 43.5457734,55.1831439 45.771949,53.3154292 Z M50.9809731,41.2131132 C50.0277617,41.8710413 49.1244409,42.4132571 48.3148538,43.0682182 C45.7916028,45.1109847 44.7318072,47.7471474 45.4355659,50.8973396 C45.9987241,53.4170483 47.8507207,54.9769387 50.1509762,55.9530755 C55.4922858,58.2198491 60.7466649,57.835625 65.8181122,55.1178703 C66.5883916,54.7054599 67.0366504,54.6854328 67.6444077,55.3144328 C68.2763543,55.9686521 69.044366,56.4967748 69.7897001,57.1116816 C71.3506688,55.3759976 72.842093,53.7189387 74.3705572,52.0196002 C73.4415352,51.231125 72.5820576,50.5005059 71.8654482,49.8922748 C72.8171478,47.7182193 73.7144212,45.6702606 74.6479788,43.5384847 C72.1640355,42.8100908 69.918206,42.151421 67.6466754,41.4853337 C67.2271415,42.7388833 66.8189463,43.9590542 66.366152,45.3119976 C65.0410295,44.201605 63.8625549,43.2150837 62.6583791,42.2070519 C63.4664543,41.6692866 64.2102767,41.2212724 64.9026967,40.7057594 C67.1016592,39.0687276 68.1720377,36.918408 67.7426769,34.1947193 C67.3375053,31.6230884 65.6729761,30.0179517 63.2721837,29.172362 C59.4865513,27.8394458 55.7334233,27.992987 52.1375261,29.8236144 C49.2597501,31.2885613 47.8983435,34.0893915 48.5280224,37.0904929 C48.8674291,38.7074976 49.8229082,40.0040684 50.9809731,41.2131132 Z" id="Shape" fill="url(#linearGradient-1)" fill-rule="nonzero"></path>
            <path d="M84.1302017,36.6409953 C84.1302017,33.2994328 84.1302017,30.0231439 84.1302017,26.5443585 C86.6330429,26.6444941 89.1169862,26.5473255 91.5351648,26.8929788 C94.2058196,27.2749776 95.5800767,29.2784316 95.4440116,31.9286875 C95.3079466,34.5900696 93.7484898,36.3962193 91.0612048,36.6046498 C88.7889183,36.7811851 86.4901746,36.6409953 84.1302017,36.6409953 Z" id="Path" fill="#2E3055"></path>
            <path d="M61.5471811,50.211967 C59.5772613,51.1413738 57.6965398,51.4284292 55.7485417,50.8142642 C54.6811868,50.4775118 53.9048601,49.7735955 53.805835,48.5994127 C53.6924474,47.2575955 54.3916706,46.2851675 55.4363479,45.5226533 C55.554271,45.4366108 55.8679766,45.4455118 55.9806082,45.53823 C57.8121951,47.0558408 59.6263959,48.5934788 61.5471811,50.211967 Z" id="Path" fill="#2E3055"></path>
            <path d="M56.2905342,35.63148 C56.2867546,34.478066 57.1590828,33.7185189 58.5136861,33.6984917 C59.708035,33.6799481 60.6128676,34.4216934 60.6249623,35.4282417 C60.6347892,36.3250118 58.9664804,38.1430295 58.0873489,38.1934682 C57.5272144,38.2246215 56.2928019,36.4652017 56.2905342,35.63148 Z" id="Path" fill="#2E3055"></path>
        </g>
    </g>
</svg>