<?xml version="1.0" encoding="utf-8"?>
<!-- Generator: Adobe Illustrator 24.1.1, SVG Export Plug-In . SVG Version: 6.00 Build 0)  -->
<svg version="1.1" id="Layer_1" xmlns="http://www.w3.org/2000/svg" xmlns:xlink="http://www.w3.org/1999/xlink" x="0px" y="0px"
	 viewBox="0 0 120 97" style="enable-background:new 0 0 120 97;" xml:space="preserve">
<style type="text/css">
	.st0{fill:#FFFFFF;}
	.st1{fill:#FF931E;}
</style>
<rect class="st0" width="120" height="97"/>
<path d="M77.2,29.7c-3.4-1.2-7-1.9-10.6-2c-2.3-0.1-4.6,0.4-6.6,1.5c-1.6,0.9-2.5,2.7-2.5,4.5c-0.1,2.4,1.3,4.7,3.5,5.8
	c3.5,1.8,7.1,3.2,10.9,4.2c4.1,1.1,8.2,2.6,12.1,4.3c3.2,1.4,6,3.7,8.1,6.4c2.3,2.9,3.4,6.6,3.4,11.3c0.1,4.2-1.2,8.4-3.6,11.8
	c-2.5,3.4-6,6-9.9,7.6c-4.6,1.8-9.5,2.6-14.4,2.5c-5.8,0-11.6-1-17-3.1c-5.3-1.9-10.2-4.7-14.5-8.4l6.4-13.2c3.7,3.3,7.9,6,12.4,7.8
	c4,1.8,8.4,2.9,12.8,3c3.3,0,5.9-0.6,7.8-1.8c2.9-2,3.7-6,1.7-8.9c-0.2-0.3-0.5-0.7-0.8-0.9c-1.4-1.3-3-2.2-4.8-2.9
	c-1.9-0.7-4.6-1.6-8-2.5c-4.1-1.1-8.1-2.4-12-4.1c-3.1-1.4-5.9-3.5-8-6.2c-2.2-2.8-3.4-6.5-3.4-11.1c-0.1-4,1.1-8,3.5-11.3
	c2.5-3.3,5.8-5.9,9.7-7.4c4.6-1.8,9.5-2.7,14.4-2.6c4.9,0,9.8,0.7,14.5,2.1c4.5,1.3,8.7,3.2,12.6,5.7l-6.2,13.4
	C85.3,32.8,81.3,31,77.2,29.7z"/>
<polygon class="st1" points="36.2,9.5 43.5,9.5 43.4,19.9 53,16.3 55.4,23.5 45.5,26.4 51.8,34.7 45.7,39 39.9,30.5 34.1,39 
	28.1,34.5 34.4,26.5 24.5,23.4 26.9,16.5 36.4,19.9 "/>
</svg>
