<svg id="Слой_1" data-name="Слой 1" xmlns="http://www.w3.org/2000/svg" xmlns:xlink="http://www.w3.org/1999/xlink" viewBox="0 0 120 97"><defs><style>.cls-1{fill:#27343a;}.cls-2{fill:url(#Безымянный_градиент_24);}.cls-3{fill:url(#Безымянный_градиент_20);}.cls-4{fill:url(#Безымянный_градиент_20-2);}.cls-5{fill:url(#Безымянный_градиент_20-3);}</style><linearGradient id="Безымянный_градиент_24" x1="35.58" y1="68.44" x2="119.93" y2="68.44" gradientUnits="userSpaceOnUse"><stop offset="0" stop-color="#ffa300"/><stop offset="1" stop-color="#ff0"/></linearGradient><linearGradient id="Безымянный_градиент_20" x1="4.25" y1="61.48" x2="16.48" y2="61.48" gradientUnits="userSpaceOnUse"><stop offset="0" stop-color="#ff0"/><stop offset="1" stop-color="#ffa300"/></linearGradient><linearGradient id="Безымянный_градиент_20-2" x1="11.97" y1="56.47" x2="28.63" y2="56.47" xlink:href="#Безымянный_градиент_20"/><linearGradient id="Безымянный_градиент_20-3" x1="19.16" y1="51.67" x2="41.14" y2="51.67" xlink:href="#Безымянный_градиент_20"/></defs><path class="cls-1" d="M43.09,37.54a7.86,7.86,0,0,1,1.67-5.38,6.36,6.36,0,0,1,5-1.88,6.34,6.34,0,0,1,5,1.87,7.81,7.81,0,0,1,1.67,5.38v1.12H52.16V37.24a3.2,3.2,0,0,0-.6-2.2,2.5,2.5,0,0,0-3.34,0,3.2,3.2,0,0,0-.6,2.2,5.1,5.1,0,0,0,.66,2.62A11,11,0,0,0,49.93,42c.66.67,1.37,1.34,2.12,2a19.29,19.29,0,0,1,2.13,2.2A11.22,11.22,0,0,1,55.83,49a9.17,9.17,0,0,1,.65,3.59,7.72,7.72,0,0,1-1.71,5.38,6.49,6.49,0,0,1-5.05,1.87,6.48,6.48,0,0,1-5-1.87A7.72,7.72,0,0,1,43,52.54v-2h4.28v2.28a3,3,0,0,0,.64,2.21,2.38,2.38,0,0,0,1.71.62,2.35,2.35,0,0,0,1.71-.62A3,3,0,0,0,52,52.86a5.13,5.13,0,0,0-.66-2.62,11,11,0,0,0-1.65-2.15c-.66-.67-1.36-1.35-2.12-2a19.31,19.31,0,0,1-2.12-2.21,11.22,11.22,0,0,1-1.65-2.72A9,9,0,0,1,43.09,37.54Z"/><path class="cls-1" d="M62.79,30.61V52.9a3,3,0,0,0,.64,2.19,2.67,2.67,0,0,0,3.42,0,3,3,0,0,0,.64-2.19V30.61h4.29v22A7.72,7.72,0,0,1,70.07,58a6.5,6.5,0,0,1-5,1.87A6.49,6.49,0,0,1,60,58a7.72,7.72,0,0,1-1.71-5.38v-22Z"/><path class="cls-1" d="M80.47,30.61a6.58,6.58,0,0,1,5.09,1.81,7.56,7.56,0,0,1,1.67,5.32v3.75a7.56,7.56,0,0,1-1.67,5.32,6.58,6.58,0,0,1-5.09,1.81H78.33V59.46H73.8V30.61Zm-2.14,4.12V44.5h2.14a2.2,2.2,0,0,0,1.65-.58,3,3,0,0,0,.58-2.14V37.45a3,3,0,0,0-.58-2.14,2.2,2.2,0,0,0-1.65-.58Z"/><path class="cls-1" d="M98.07,59.46c0-.19-.11-.37-.16-.53a3.76,3.76,0,0,1-.15-.62,7.36,7.36,0,0,1-.08-1c0-.39,0-.87,0-1.44V51.38a4.42,4.42,0,0,0-.7-2.84,2.82,2.82,0,0,0-2.27-.83H93.13V59.46H88.59V30.61h6.84q3.55,0,5.14,1.65a7,7,0,0,1,1.58,5v2.27q0,4.45-3,5.85a4.09,4.09,0,0,1,2.37,2.29,10.51,10.51,0,0,1,.63,3.86V56a17,17,0,0,0,.09,1.87,5.83,5.83,0,0,0,.41,1.63ZM93.13,34.73v8.86H94.9a2.86,2.86,0,0,0,2-.66,3.16,3.16,0,0,0,.72-2.39V37.7a3.67,3.67,0,0,0-.56-2.27,2.08,2.08,0,0,0-1.75-.7Z"/><path class="cls-1" d="M120,59.46h-4.58l-.78-5.23h-5.56l-.79,5.23h-4.16l4.62-28.85h6.63Zm-10.35-9.15H114l-2.18-14.59Z"/><polygon class="cls-2" points="119.93 64.89 35.58 64.89 35.58 71.99 116.25 71.99 119.93 64.89"/><polygon class="cls-1" points="-0.04 66.19 11.64 66.22 14.66 67.66 11.12 71.99 -0.04 66.19"/><polygon class="cls-1" points="33.71 37.16 23.65 37.13 20.63 35.69 24.17 31.36 33.71 37.16"/><polygon class="cls-3" points="16.48 65.68 11.07 71.99 4.25 56.8 9.39 50.96 16.48 65.68"/><polygon class="cls-4" points="28.63 65.11 23.48 71.99 11.97 46.79 17.11 40.95 28.63 65.11"/><polygon class="cls-5" points="41.14 65.22 35.65 71.99 19.16 37.48 24.17 31.36 41.14 65.22"/><path class="cls-1" d="M47,66h2.52v.74h-.85v4.44h-.82V66.69H47Z"/><path class="cls-1" d="M64.94,71.13l0-.1a.27.27,0,0,1,0-.11s0-.1,0-.17V69.68a.76.76,0,0,0-.13-.51.49.49,0,0,0-.4-.15h-.29v2.11h-.81V66h1.23a1,1,0,0,1,1.21,1.19v.41a1,1,0,0,1-.54,1,.73.73,0,0,1,.43.41,1.78,1.78,0,0,1,.11.69v.8a3.28,3.28,0,0,0,0,.34,1.11,1.11,0,0,0,.07.29Zm-.89-4.44v1.59h.32a.49.49,0,0,0,.36-.12.55.55,0,0,0,.13-.43v-.51a.65.65,0,0,0-.1-.41.39.39,0,0,0-.31-.12Z"/><path class="cls-1" d="M82.18,71.13h-.82l-.14-.94h-1l-.14.94h-.75L80.16,66h1.2Zm-1.85-1.64h.78l-.39-2.62Z"/><path class="cls-1" d="M95.89,66h1.29a1.22,1.22,0,0,1,.92.32,1.38,1.38,0,0,1,.3,1v2.62a1.38,1.38,0,0,1-.3,1,1.22,1.22,0,0,1-.92.32H95.89Zm.82.74v3.7h.46a.41.41,0,0,0,.3-.11.52.52,0,0,0,.11-.39v-2.7a.51.51,0,0,0-.11-.39.37.37,0,0,0-.3-.11Z"/><path class="cls-1" d="M113.06,68.13h1.12v.74h-1.12v1.52h1.41v.74h-2.22V66h2.22v.74h-1.41Z"/></svg>