<svg xmlns="http://www.w3.org/2000/svg" width="120" height="35">
  <g fill="none" fill-rule="evenodd" transform="translate(0 1)">
    <path fill="#3A1F5D" d="M22.041.245c1.177 0 2.325.126 3.431.365-.079.038-.097.107-.097.107l-.129.225.402.225s-.273.161.032.37c.306.209.515.097.692.129.177.032.209-.129.338.129.129.257.209.418.434.466.225.048.418.032.579.145.161.112.08.08.209.354.129.273.254.203.383.316.129.113.233.065.33.242.097.178.25.17.467.145.217-.024.241-.057.37.186.129.242.201.452.33.452s.217.073.314-.008c.097-.081.121-.097.145-.307.024-.21-.064-.436.153-.178s.121.275.169.557c.048.283-.072.299.161.315.234.016.37.153.531.299.161.146.217.105.241.355.024.25-.055.52.218.6.273.08.45.225.45.466v.643c0 .096-.37.113-.145.418.225.306.483.547.692.515.209-.032-.129-.145.193.273.322.418.547.467.434.643-.112.177-.418.611-.643.45-.225-.161-.29.177-.209.418.08.241.161.29.37.499.209.209.161.306.338.563.177.257.161.466.209.708.048.241-.113.37.466.257.579-.113.901.273.901-.225 0-.499.016-.386 0-.66-.016-.273.418-.29-.048-.74-.467-.45-.483-.29-.467-.708.016-.418-.273-.386-.08-.595.193-.209-.113-.402.112-.563.225-.161.29.097.531.225.241.129.483.338.692.547.209.209.396.447.396.568 0 .121.121.154.161.024.04-.129.209-.089.04-.291-.169-.202-.145-.21-.217-.323-.072-.113-.169-.259-.04-.21.129.049.161.057.282.218.121.162.064.194.137.331.072.137.056.363.177.25.051-.047.107-.059.155-.072.056.115.111.23.164.346-.221.231-.448.465-.681.702a1.39 1.39 0 0 0-.107-.161c-.402-.531-.032-.241-.402.129s-.352.341-.328.64c.01.12.012.171.005.216-.169.164-.34.329-.515.495-.225.024-.15.088-.279.203-.064.057.698.501.695.547-2.775 2.594-6.079 5.509-9.962 8.227l-3.038 2.164-.437-.417c-.428.299-.408-.414-1.07-.877l-1.101-.652s-3.087-2.238-4.694-3.517l.84-2.202-.241-.193v-.322l.386-.081.322-.305-.145-.338.161-.273.837-.048.032-.965.45-.257.225-.547.08.724.643-.402.708-.483.064-.611-.418-.016-.129.338-.643-.29s-.08-.74.852-.837c0 0-.129-.305-1.239.177l-.338.499-.274-.418.113-.306.386-.048.885-.209.643-.45.434-.097.064.66-.322.305.048.434.305.032.209-.145.305.129.708.113v-.515l-.354-.29v-.29l-.515-.032.016-.837-.418-.483-.129-.386-.499.016s0-.692-.402-.901l-.129-.257.032-.563-.354.08-.45.515-.37-.177.032-.225.209-.145.032-.305-.402.032-.209-.402-.418-.048s-.804-.064-.788 1.206l.161 1.094-.306.209-.129.338-.225.097.016.997-.354-.161-.048-1.014-.45.016-.097-.45-.483-.241-.306-.016.113-.611-.209-.225.338-.338.209-.45.435-.257.499-.257.032-.29s.241-.145.402.273l.386-.08.354-.274-.064-.499-.273-.113.161-.225.418-.048.273-.225.081-.402s.29-.354.402-.338c.113.016.274.772.177.933-.097.161-.322.29-.322.29l-.322.29.37.354s.113.499.418.499.209.37.547.193c.338-.177.547-.305.29-.338-.257-.032-.338-.129-.145-.177.193-.048.338-.209.29-.322-.048-.112-.177-.145-.37-.386-.193-.241-.209-.434.145-.338.354.097.209.466.402.402.193-.064.37-.016.225-.499s-.016-.257-.402-.547c-.386-.29-.595-.209-.386-.45.209-.241.514.113.418-.209-.097-.322-.129-.193-.37-.29-.241-.097-.193-.209-.177-.354.016-.145-.064-.242-.499-.242-.434 0-.676.081-.869.081-.193 0-.434-.064-.434-.064s-.129.08.064-.225c.193-.306.064-.37-.129-.193s-.756.579-.869.692c-.112.113-.209.547-.643.563-.434.016-.627.032-.724-.145-.097-.177-.322-.016.29-.338.555-.292.328-.345.209-.425a16.107 16.107 0 0 1 5.23-1.791c-.011.019-.022.04-.036.06-.113.17-.065.137-.322.153-.258.016-.121.008-.145.065a.43.43 0 0 1-.193.218c-.137.089-.153.057-.314.113-.161.057-.121.089-.306.073s-.105.008-.201.089c-.097.081-.064.113-.137.21-.072.097-.101.061-.294.061-.193 0-.515-.016-.547.112-.032.129-.386.29-.386.29l-.238.167s.048.105.29.089c.241-.016.225-.008.434 0s.177-.057.234-.097c.056-.04.161-.024.37.057s.177-.073.419-.057c.241.016.201-.17.338-.259s.137-.081.193-.113c.056-.032.241-.057.306.081.064.137.081.073.056.21-.024.137.092.228.333.276.241.048.161.064-.048.305-.209.241-.081.676-.081.676s.298-.052.418.113c.121.165-.016.466-.048.917-.032.45.129.386.306.627s.354.45.563.676c.209.225.289.257.643.418.354.161.611.129.467-.177-.145-.306.129-.402-.048-.885-.177-.482 0-.499.081-.692.08-.193.112-.354.161-.611.048-.257.145-.322.499-.595.354-.274.008-.434.04-.531.032-.097-.145-.218-.258-.283-.112-.064-.193-.194-.37-.202-.177-.008-.137-.17-.241-.299-.105-.129-.29-.266-.443-.396-.153-.129-.37-.129-.58-.129-.21 0-.419.024-.676-.097-.258-.121.024-.089.153-.194.129-.105.193-.032.395-.032.201 0 .41.073.741.065.33-.008.563.008.861.008.298 0 .298.016.402-.073.105-.089.121-.194.081-.283-.04-.089-.201-.008-.306-.008h-.716c-.072 0-.555 0-.62-.016-.064-.016-.426.008-.62.065-.157.046-.171-.096-.27-.215a17.216 17.216 0 0 1 2.235-.148zm15.32 11.229c.061.093.005.047-.13.182-.04.04-.075.058-.109.059l.239-.241zm-2.959 2.811c.132.416.194.15-.179.523-.418.418-.161.418.064.997s-.129.483-.193 1.062c-.064.579-.129.483.225.965.354.483.032.322.032.997 0 .676 0 .483-.097 1.255-.097.772-.064.322.418.74.483.418.225.129.225.676s.032.515.386.804c.354.29.547.322.772.193.225-.129.29-.418.483-.676.193-.257.032-.547.483-.547.451 0 .054 1.389-.322 1.93-.06.086-.045.279-.132.497-.673 1.35-2.589 3.82-3.772 4.915-2.332 2.16-6.912-3.12-10.081-5.49.235.176 2.233-1.417 2.475-1.587l.001.001.001-.001.016-.012.003-.002-.001-.001c3.454-2.414 6.572-4.889 9.193-7.239zM32.59 28.684a16.174 16.174 0 0 1-7.987 3.842c.122-.052.257-.121.326-.198.145-.161.097-.402.305-.659.209-.257 1.367-.724 1.544-1.963.177-1.238.547-.772.852-1.48.305-.708-.161-1.287-.869-1.287s-.965.097-1.335-.129c-.37-.225-.756-.161-1.158.306 0 0-.885.145-.322-.611s-.241-.707-.241-.707l-.515-.354-1.206.048s-.257-.515-.933-.547c-.335-.016-.543-.34-.568-.547.732-.46 1.581-1.815 2.311-1.298 3.143 2.225 6.823 4.163 9.796 5.584zm-13.859-4.717l-.175-.28-.169.396-.218.132-.095-.544s-.885.965-1.11.901c-.141-.04-.118.179-.081.348l-.09.052-.183-.174-.531.37s-.981-.434-.997-.885c-.016-.45.048-1.094-.08-1.255-.129-.161-.869-.016-1.158-.016-.29 0-.29-1.158-.225-1.689.064-.531-.869-1.013-1.045.74 0 0-.241.917-1.464-1.448 0 0-.129-.531-.129-.611 0-.08.032-1.094.032-1.094l.241-.225.08-.29 1.142.064.306.129.161-.643.418-.08.386.305.45.45.241.611.145.434.515-.016.048-.579-.306-.628-.209-.257.032-.321.008-.617c1.608 1.277 4.06 3.232 4.06 3.232l.45.238.397.212.582.397c.479.335.84.514 1.316.836-.268.176-.483.242-.75.413l.017-.046-.45.161.01.156c-.45.396-1.572 1.121-1.572 1.121zm10.345-19.47v.45s.306.032.483.177.257.338.257.579c0 .241-.209.531-.032.595.177.064.322.097.467.193.145.097.241.225.322.354.08.129.161.209.305.096.145-.112.129-.273.225-.29.097-.016.112.097.177.257.064.161.257.483.386.209s.209-.37.29-.467c.081-.097.064-.161-.064-.338-.129-.177-.048-.193-.306-.386-.257-.193-.306-.306-.708-.579-.402-.274-.193-.257-.611-.435-.418-.177-.386-.193-.627-.305-.243-.11-.564-.11-.564-.11zm-4.327-1.222s.29-.225.466-.081c.177.145.338.048.338-.161 0-.209.096-.29.225-.145s.274.483.402.531c.129.048.193.386.161.499-.032.112-.113.257-.386.209-.274-.048-.627-.161-.788-.29-.161-.129-.097-.305-.37-.273-.273.032-.37-.064-.209-.177l.161-.112zm-4.552 19.013l.08.209.225-.016.113-.241-.129-.161-.289.209zm-.531-.595l.048.418.37-.113.016-.322-.434.017zm-.917-.065s-.112.209-.048.29c.064.08.402.08.402.08l.097-.241-.145-.161-.306.032zm-3.442-1.978h.418l.145.305-.29.209-.37-.161.097-.353zm.08-.692v.37h.306l.225-.209-.193-.177-.338.016zm.402 2.912c.112-.032.29-.209.386-.048.097.161.225.209.161.354s-.274.257-.274.257l-.273-.209v-.354zm-1.962-1.11c.161-.145.161-.322.643-.45.483-.129.45-.257.676-.081.225.177.257.257.466.386.209.129.177.209.45.274.274.064.161.225.483.225.322 0 .306-.048.386.048.081.097-.08.209.29.161.37-.048.74.064.74.064s.547.129.483.257c-.064.129-.081.322-.354.354-.274.032-.241 0-.547.032-.306.032-.676-.016-.676-.016s.032-.177.177-.274c.145-.097.048-.37-.531-.322-.579.048-.386.113-.386.113s-.193.129-.273-.048c-.081-.177-.37-.29-.531-.434-.161-.145-.048.016-.386-.225s-.321-.209-.499-.129c-.177.081-.611.065-.611.065zm8.181 11.934c-3.741-.008-7.307-1.372-10.048-3.505 1.606-.752 3.375-1.599 5.171-2.621.039.239.124.47.041.626-.129.241-.354.868.161 1.383.514.515.418.45.74.74s1.416 1.287 1.705 1.319c.29.032 1.598.437 1.93 1.448.089.269.192.466.3.61zm-10.722-4.068c-.696-.676-1.455-1.409-2.106-2.244-.789-1.012-1.447-2.157-1.99-3.328-.963-2.076-1.374-4.335-1.374-6.584 0-2.245.121-3.724.945-5.668.206.219.495.482.713.705-.36.851-.635 1.847-.114 3.591l.032 1.802.257.515s-.257 1.673 1.03 2.927c0 0-.772-1.963-.579-2.702 0 0 .515 2.316.933 2.638 0 0 .032 1.158.837 1.319 0 0 .032 1.512 2.542 1.608 0 0 .418.611 1.19.644.772.032 1.158 1.158 1.158 1.158l1.88.915c-1.793 1-3.77 1.988-5.354 2.704zM7.864 8.575a16.23 16.23 0 0 1 1.418-2.128l.008.029s.014-.034.04-.09c.222-.28.454-.553.693-.817a.263.263 0 0 1 .039.006s.29.45-.515 1.19c0 0-.706 1.24-1.173 2.358a48.996 48.996 0 0 1-.51-.548z"/>
    <circle cx="21.993" cy="16.476" r="16.195" stroke="#3A1F5D" stroke-width=".75"/>
    <path fill="#132743" d="M42.1 6.792c-.708 1.259-1.779 2.674-3.159 4.184-3.142 3.437-7.923 7.516-13.599 11.421l.001.001-.004.002-.016.012-.001.001-.001-.001c-5.674 3.902-11.171 6.896-15.474 8.582-4.625 1.812-8.044 2.093-9.161.415-1.116-1.679.414-4.802 3.79-8.495.569-.623.971-1.05 1.644-1.711.161.582.361 1.129.58 1.685-.448.452-.657.702-1.053 1.135-2.841 3.108-4.278 5.512-3.637 6.476.64.963 3.37.499 7.265-1.027 4.213-1.651 9.601-4.586 15.165-8.415v-.001l.002-.002.002-.001.011-.009.001-.001.001.001c5.561-3.827 10.241-7.819 13.312-11.18 1.387-1.517 2.439-2.867 3.078-3.963l1.253.891z"/>
    <path fill="#132743" d="M10.46 2.481l-.325-.134C5.413.416 1.884.021.67 1.621l-.082.108-.008.02c-1.046 1.632.437 4.669 3.713 8.295 3.131 3.465 7.936 7.614 13.674 11.626l-.001.001.003.002.016.012.001.001.001-.001c5.735 4.008 11.32 7.124 15.714 8.921 4.723 1.931 8.251 2.326 9.466.726 1.214-1.599-.26-4.7-3.625-8.424-.714-.791-1.323-1.517-1.745-1.945.047.048-.439 1.427-.589 1.813.615.614.561.595 1.084 1.174 2.831 3.133 4.234 5.531 3.537 6.449-.696.917-3.505.369-7.483-1.257-4.302-1.759-9.775-4.814-15.4-8.746l.001-.001-.002-.002-.003-.001-.011-.008-.001-.001-.001.001c-5.621-3.931-10.325-7.992-13.386-11.38-2.831-3.133-4.234-5.53-3.537-6.448.664-.874 3.25-.416 6.938 1.039.485-.398.99-.769 1.516-1.114zM39.406 5.11l3.199-.893 1.001 3.659z"/>
    <path fill="#132743" d="M10.734.653l.934 3.219-3.647 1.057z"/>
    <g fill="#3A1F5D" stroke="#3A1F5D">
      <path d="M53.589 6.187h-3.564V4.08h9.699v2.107h-3.599V16.76h-2.536zM65.21 4.08h7.779v2.107h-5.243v2.93h4.455v2.125h-4.455v3.393h5.432v2.125H65.21z"/>
      <path fill-rule="nonzero" d="M86.083 16.76l-2.604-4.798h-1.765v4.798h-2.536V4.08h4.421c2.656 0 4.764.925 4.764 3.838 0 1.902-.96 3.084-2.416 3.65l2.964 5.192h-2.828zm-4.369-6.803h1.645c1.628 0 2.52-.686 2.52-2.039 0-1.371-.892-1.833-2.52-1.833h-1.645v3.872zM101.199 16.76l-2.604-4.798H96.83v4.798h-2.536V4.08h4.421c2.656 0 4.764.925 4.764 3.838 0 1.902-.96 3.084-2.416 3.65l2.964 5.192h-2.828zM96.83 9.957h1.645c1.628 0 2.52-.686 2.52-2.039 0-1.371-.892-1.833-2.52-1.833H96.83v3.872zM115.22 13.504h-4.113l-.891 3.256h-2.57l4.061-12.68h2.982l4.078 12.68h-2.656l-.891-3.256zm-.549-1.971l-.377-1.388c-.395-1.319-.737-2.776-1.114-4.147h-.068a90.414 90.414 0 0 1-1.079 4.147l-.377 1.388h3.015z"/>
    </g>
    <g fill="#3A1F5D">
      <path d="M50.412 21.998h6.932v.927h-5.088v2.149h4.325V26h-4.325v3.028h-1.844zM60.206 21.998h1.844v7.03h-1.844z"/>
      <path fill-rule="nonzero" d="M83.147 27.022h-4.07l-1.002 2.006h-1.876l3.88-7.03h2.13l3.88 7.03h-1.956l-.986-2.006zm-.445-.869l-.461-.946c-.397-.764-.747-1.547-1.113-2.34h-.063a36.965 36.965 0 0 1-1.081 2.34l-.478.946h3.196z"/>
      <path d="M100.907 25.532c0-2.292 2.321-3.668 5.278-3.668 1.463 0 2.608.42 3.323.889l-1.002.707c-.604-.373-1.335-.631-2.289-.631-2.02 0-3.419 1.013-3.419 2.665 0 1.672 1.305 2.693 3.371 2.693 1.065 0 1.893-.286 2.592-.745l.985.697c-.938.649-2.13 1.013-3.641 1.013-2.94 0-5.198-1.318-5.198-3.62zM112.608 21.998h6.917v.927h-5.072v1.958h4.293v.936h-4.293v2.273h5.247v.937h-7.092z"/>
    </g>
    <path fill="#3A1F5D" stroke="#3A1F5D" stroke-width=".5" d="M73.253 28.54h-1.448l-5.19-5.401a2.147 2.147 0 0 1-.323-.426h-.042c.037.146.057.456.057.932v4.896h-1.182v-6.776h1.533l5.049 5.316c.211.221.347.371.408.453h.027c-.047-.195-.07-.527-.07-.997v-4.772h1.182v6.775h-.001zM96.839 28.54h-1.448l-5.19-5.401a2.147 2.147 0 0 1-.323-.426h-.042c.037.146.057.456.057.932v4.896H88.71v-6.776h1.533l5.049 5.316c.211.221.347.371.408.453h.027c-.047-.195-.07-.527-.07-.997v-4.772h1.182v6.775z"/>
  </g>
</svg>
