<svg id="Layer_1" data-name="Layer 1" xmlns="http://www.w3.org/2000/svg" viewBox="0 0 120 97"><defs><style>.cls-1{fill:#231f20;}.cls-2{fill:none;}.cls-3{fill:#f1f1f2;}.cls-4{fill:#eaa906;}</style></defs><title>thecapitalstocks - Max-EcoSales -App</title><rect class="cls-1" width="120" height="97"/><rect class="cls-2" width="120" height="97"/><path class="cls-3" d="M10.69,26.25V24.72c.42,0,1,0,1.82,0v1.58h1.77a14.64,14.64,0,0,0,0,1.48c-.58,0-1.14.07-1.72.09V30c0,.56.19.88.67.88a3.07,3.07,0,0,0,1-.23A8.63,8.63,0,0,0,14.57,32a3.76,3.76,0,0,1-2,.49c-1.3,0-1.91-.67-1.91-2V27.8c-.22,0-.46,0-.69-.06V26.25Z"/><path class="cls-3" d="M22.3,32.63a11.8,11.8,0,0,0-2.76-.19A13,13,0,0,1,19.6,31l.43-.19c0-.34,0-.77,0-1.15,0-.92-.22-1.81-1.34-1.81-1,0-1.32.69-1.32,2v2.61H15A13.5,13.5,0,0,1,15,31l.55-.19v-6L15,24.68c0-.53-.06-.77-.06-1.34a17.43,17.43,0,0,0,2.44-.16v3.54a2.9,2.9,0,0,1,1.8-.59c1.91,0,2.78,1.32,2.78,3.1,0,.55,0,1.25-.06,1.8l.45.18A13.37,13.37,0,0,1,22.3,32.63Z"/><path class="cls-3" d="M26.27,30.92A2.6,2.6,0,0,0,28,30.39a6.32,6.32,0,0,0,.91,1.13,3.66,3.66,0,0,1-2.74,1,3,3,0,0,1-3.21-3.22,3.08,3.08,0,0,1,3.21-3.17,2.9,2.9,0,0,1,2.95,3.11,2.43,2.43,0,0,1-.09.69H24.76A1.5,1.5,0,0,0,26.27,30.92Zm-.16-3.18c-1,0-1.37.61-1.37.92h2.58A1.1,1.1,0,0,0,26.11,27.74Z"/><path class="cls-3" d="M24.24,38.26c0,.81,0,1.67,0,2.52-.85,0-1.75,0-2.56.07-.13-.79-.24-1.58-.32-2.37A6,6,0,0,0,18.86,38c-2.89,0-4.68,1.84-4.68,5.07,0,3,1.79,4.74,4.85,4.74a5.32,5.32,0,0,0,3.89-1.32l1.71,2.12C23.92,49.7,21.53,51,18.71,51c-4.34,0-8-2.4-8-7.93s3.57-8.17,8.42-8.17A11.45,11.45,0,0,1,24.28,36C24.26,36.68,24.24,37.45,24.24,38.26Z"/><path class="cls-3" d="M42,50.72c-1.83,0-2.82,0-3.78.13l-1.35-3.33H30.9l-1.36,3.33c-1.22-.06-2.42-.11-3.74-.13,0-.94,0-1.47.1-2.41L27.14,48l5.65-12.85H35L40.63,48l1.22.32A21.48,21.48,0,0,1,42,50.72Zm-9.91-6h3.63l-1.82-4.42Z"/><path class="cls-3" d="M45.92,50.66q-1.19,0-2.37.06a19.15,19.15,0,0,1,.11-2.41c.45-.11.9-.22,1.34-.35V37.88l-1.36-.32c0-.43-.09-1.88-.09-2.42h2.39c1.44-.13,2.85-.28,4.28-.28,4,0,7.42,2,7.42,6.35,0,4.15-3,6.43-6.57,6.43-1.11,0-1.92,0-2.8-.1v3.18C47.48,50.68,46.71,50.66,45.92,50.66Zm5.13-6.22a2.88,2.88,0,0,0,3.1-3.23c0-1.94-1.28-3.12-3.46-3.12-.62,0-1.52,0-2.42.06v6.16A26.09,26.09,0,0,0,51.05,44.44Z"/><path class="cls-3" d="M65.64,48.31c.07.94.11,1.47.11,2.41-1,0-2.07-.06-3.1-.06s-2.07,0-3.1.06c0-.94,0-1.47.11-2.41.45-.13.9-.22,1.35-.32V37.88c-.45-.11-.92-.2-1.37-.32,0-.92-.09-1.46-.09-2.42,1,0,2.08,0,3.1,0s2.08,0,3.12,0c0,1,0,1.5-.08,2.42-.47.12-.94.23-1.41.32V48C64.73,48.09,65.17,48.18,65.64,48.31Z"/><path class="cls-3" d="M77.59,38.3h-1.9V48l1.64.32a20.64,20.64,0,0,1,.11,2.41c-1.13,0-2.27-.06-3.4-.06s-2.24,0-3.38.06a17.17,17.17,0,0,1,.11-2.41L72.42,48V38.3H70.51a12.07,12.07,0,0,1-.42,1.24c-.84-.06-1.61-.06-2.48-.06,0-.77,0-1.28,0-2s0-1.54,0-2.31H80.49c0,.77,0,1.54,0,2.31s0,1.26,0,2c-.87,0-1.64,0-2.47.06A12.16,12.16,0,0,1,77.59,38.3Z"/><path class="cls-3" d="M96.67,50.72c-1.84,0-2.82,0-3.78.13l-1.35-3.33H85.62l-1.37,3.33c-1.22-.06-2.41-.11-3.74-.13,0-.94,0-1.47.11-2.41L81.86,48,87.5,35.14h2.2L95.34,48l1.22.32A19.15,19.15,0,0,1,96.67,50.72Zm-9.92-6h3.64l-1.82-4.42Z"/><path class="cls-3" d="M98.35,37.56c0-.62-.08-1.46-.08-2.42,1,0,2.07,0,3.1,0s2.07,0,3.12,0c0,1,0,1.8-.09,2.42-.47.12-.94.23-1.41.32v9.61h4.23c.13-.44.24-.89.36-1.36.6,0,1.5.06,2.42.06,0,.77,0,1.52,0,2.27s0,1.51,0,2.26H98.27c0-.94,0-1.47.1-2.41A12.26,12.26,0,0,1,99.72,48V37.88C99.27,37.79,98.8,37.68,98.35,37.56Z"/><path class="cls-4" d="M20.51,61.19,20,59.5a20.85,20.85,0,0,0-2.76-.19c-1,0-2.8.11-2.8,1.5,0,1.11,1,1.32,4,2,3.22.81,5.34,1.77,5.34,4.94,0,2.88-2.5,4.55-6.84,4.55a31.72,31.72,0,0,1-5.71-.54c0-.72,0-1.45,0-2.18s0-1.47,0-2.2c.9,0,1.89,0,2.48-.06.15.55.28,1.11.41,1.67a13.5,13.5,0,0,0,2.74.25c2,0,3.44-.4,3.44-1.47s-1.14-1.35-3.87-2C14.33,65.23,11,64.25,11,61.19c0-3.22,2.31-4.93,6.22-4.93a46,46,0,0,1,5.7.42c0,.75,0,1.5,0,2.23s0,1.47,0,2.22C22.05,61.13,21.34,61.13,20.51,61.19Z"/><path class="cls-4" d="M34.7,59.7H32.79v9.68l1.65.32a23.09,23.09,0,0,1,.11,2.41c-1.14,0-2.27-.06-3.4-.06s-2.25,0-3.38.06a17.17,17.17,0,0,1,.11-2.41l1.64-.32V59.7h-1.9c-.13.47-.26.77-.43,1.24-.83-.07-1.6-.07-2.48-.07,0-.77.05-1.28.05-2s0-1.54-.05-2.31H37.6c0,.77,0,1.54,0,2.31s0,1.26,0,2c-.87,0-1.64,0-2.48.07A12.07,12.07,0,0,1,34.7,59.7Z"/><path class="cls-4" d="M47,56.26c4.83,0,8.21,3.31,8.21,8.05s-3.35,8-8.23,8-8.23-3.31-8.23-8S42.17,56.26,47,56.26Zm0,12.88a4.45,4.45,0,0,0,4.75-4.83A4.47,4.47,0,0,0,47,59.46a4.48,4.48,0,0,0-4.76,4.85A4.45,4.45,0,0,0,47,69.14Z"/><path class="cls-4" d="M70.72,59.65c0,.82,0,1.67,0,2.53-.85,0-1.75,0-2.56.06-.13-.79-.24-1.58-.32-2.37a6.14,6.14,0,0,0-2.55-.47c-2.88,0-4.68,1.84-4.68,5.06,0,3,1.8,4.75,4.85,4.75a5.31,5.31,0,0,0,3.89-1.33L71.1,70c-.7,1.09-3.1,2.35-5.92,2.35-4.34,0-8-2.4-8-7.93s3.57-8.16,8.42-8.16a11.52,11.52,0,0,1,5.17,1.13C70.74,58.07,70.72,58.84,70.72,59.65Z"/><path class="cls-4" d="M76.12,56.58c1,0,2.07,0,3.12,0,0,.94,0,1.65-.09,2.42l-1.41.32v4.34l4.13-4.34-1-.32c-.07-.77-.09-1.48-.09-2.42,1,0,2.05,0,3.08,0s2,0,3.08,0c0,.94,0,1.65-.09,2.42l-1.28.32L82,63.05l4.21,6.33,1.22.32c.06.85.1,1.49.1,2.41-1,0-2.07-.06-3.1-.06s-2.07,0-3.09.06c0-.92,0-1.56.1-2.41l1.11-.32-2.71-4.11-2.12,2.21v1.9l1.37.32c.07.85.11,1.49.11,2.41-1,0-2.07-.06-3.1-.06s-2.07,0-3.1.06a20.85,20.85,0,0,1,.11-2.41,13,13,0,0,1,1.34-.32V59.27L73.11,59c0-.77-.09-1.54-.09-2.42C74.05,56.58,75.09,56.58,76.12,56.58Z"/><path class="cls-4" d="M101.85,67.8c0-3.17-2.12-4.13-5.35-4.94-3-.73-4-.94-4-2,0-1.39,1.77-1.5,2.8-1.5a20.59,20.59,0,0,1,2.75.19l.48,1.69c.83-.06,1.53-.06,2.41-.06,0-.75,0-1.48,0-2.22s0-1.48,0-2.23c-1-.14-2.11-.25-3.17-.32V55h1.53l-3.24-3.72L92.86,55h1.53v1.33C91,56.55,89,58.22,89,61.19s3.34,4,5.46,4.58c2.73.7,3.86,1,3.86,2s-1.47,1.47-3.44,1.47A13.4,13.4,0,0,1,92.19,69c-.13-.56-.26-1.12-.41-1.67-.6,0-1.58.06-2.48.06,0,.73,0,1.48,0,2.2s0,1.46,0,2.18a31.49,31.49,0,0,0,5.09.52v1.49H97.8V72.07C100.4,71.48,101.85,70,101.85,67.8Z"/></svg>