<svg xmlns="http://www.w3.org/2000/svg" viewBox="0 0 120 97"><defs><style>.cls-1{fill:none;}.cls-2{fill:#523ab3;}</style></defs><title>Top InvestusAsset 9</title><g id="Layer_2" data-name="Layer 2"><g id="Layer_1-2" data-name="Layer 1"><rect class="cls-1" width="120" height="97"/><path class="cls-2" d="M41.6,72.79h1.68v9.87H41.6Z"/><path class="cls-2" d="M44.78,72.79h1.67v1.52A4,4,0,0,1,50,72.44c2.3,0,3.71,1.28,3.71,3.51v6.71H52.06V76.85c0-2-.86-3-2.63-3A3,3,0,0,0,47,75a3.79,3.79,0,0,0-.58,2.61v5.1H44.78Z"/><path class="cls-2" d="M54.53,72.84h1.9l3,6.89,3-6.89h1.9L59.41,83.33Z"/><path class="cls-2" d="M66,78v.15a3.24,3.24,0,0,0,3.27,3.53,3.6,3.6,0,0,0,3.2-2.14l1.28.86a4.92,4.92,0,0,1-4.57,2.7c-3,0-5-2.17-5-5.39s2-5.28,4.92-5.28,4.75,2,4.75,5.24V78Zm3-4.09a2.89,2.89,0,0,0-3,2.72h6A2.71,2.71,0,0,0,69,73.89Z"/><path class="cls-2" d="M76.4,80a2.66,2.66,0,0,0,2.51,1.57c1.13,0,1.86-.62,1.86-1.48s-.51-1.15-1.55-1.5c-2.43-.84-3.88-1.26-3.88-3.2,0-1.73,1.39-3,3.48-3a3.52,3.52,0,0,1,3.51,2L81,75.24a2.34,2.34,0,0,0-2.26-1.41A1.51,1.51,0,0,0,77,75.31c0,1,.9,1.17,2.53,1.69,1.93.62,2.87,1.33,2.87,2.94,0,1.83-1.41,3.14-3.59,3.14A4.07,4.07,0,0,1,75,81Z"/><path class="cls-2" d="M83.18,74.18V72.79H85v-4h1.68v4h1.85v1.39H86.67v8.48H85V74.18Z"/><path class="cls-2" d="M91,77.65c0,2.6.64,3.81,2.8,3.81s2.74-1.21,2.79-3.81V72.79h1.67v5.76c0,3-1.54,4.53-4.5,4.53s-4.44-1.51-4.44-4.4V72.79H91Z"/><path class="cls-2" d="M100.45,80A2.66,2.66,0,0,0,103,81.6c1.12,0,1.85-.62,1.85-1.48s-.51-1.15-1.54-1.5c-2.43-.84-3.89-1.26-3.89-3.2,0-1.73,1.39-3,3.49-3a3.52,3.52,0,0,1,3.51,2l-1.37.84a2.32,2.32,0,0,0-2.25-1.41,1.52,1.52,0,0,0-1.68,1.48c0,1,.91,1.17,2.54,1.69,1.92.62,2.87,1.33,2.87,2.94,0,1.83-1.41,3.14-3.6,3.14A4.06,4.06,0,0,1,99,81Z"/><path d="M13.5,73.58v-1.4h1.81v-4H17v4h1.85v1.4H17v8.47H15.31V73.58Z"/><path d="M20.37,73.38a5.4,5.4,0,0,1,7.59,0,5.26,5.26,0,0,1,0,7.5,5.41,5.41,0,0,1-3.79,1.57,5.26,5.26,0,0,1-3.8-1.57,5.29,5.29,0,0,1,0-7.52Zm3.8,7.5a3.73,3.73,0,1,0-3.58-3.73A3.62,3.62,0,0,0,24.17,80.88Z"/><path d="M30.73,72.18h1.61V74a4,4,0,0,1,3.6-2.21c2.83,0,4.73,2.08,4.73,5.32s-1.9,5.32-4.66,5.32a3.8,3.8,0,0,1-3.6-2.21v6.61H30.73Zm5,8.64c2,0,3.18-1.28,3.18-3.47,0-2.47-1.24-3.89-3.2-3.89s-3.32,1.35-3.32,3.69S33.71,80.82,35.7,80.82Z"/><path class="cls-2" d="M88.88,62.88c-4.22-3.55-13.23-15.62-6.41-51.28a1.24,1.24,0,0,0-1.22-1.47,82.14,82.14,0,0,0-20.7,2.78,1.25,1.25,0,0,0-.89,1,55.28,55.28,0,0,0,7.78,34.93c7,11.09,16.54,14.16,21,15A.56.56,0,0,0,88.88,62.88Z"/><path class="cls-2" d="M78.71,64.13a.53.53,0,0,0,.27-1c-5.77-2.88-19.82-12.35-24.09-37.6a1.21,1.21,0,0,0-1.54-1,68.66,68.66,0,0,0-13.68,5.59,1.22,1.22,0,0,0-.59,1.28C40.08,36.54,45.84,62.74,78.71,64.13Z"/><path class="cls-2" d="M58.92,63C54.57,61.25,44.67,56.14,40,44.73a.42.42,0,0,0-.66-.18l-8.27,6.69a.42.42,0,0,0-.13.47c.66,1.86,5.35,12.14,27.82,12.1A.41.41,0,0,0,58.92,63Z"/></g></g></svg>