<svg xmlns="http://www.w3.org/2000/svg" width="120" height="97"><path fill="#002E45" d="M28.578 44.225l-.371 2.125c-.041.227-.289.392-.516.392h-3.342l-2.104 12.007a.527.527 0 01-.495.413h-2.703c-.206 0-.33-.144-.33-.33v-.083l2.104-12.007h-3.363c-.206 0-.33-.124-.33-.309v-.083l.371-2.125a.486.486 0 01.475-.392h10.233c.206 0 .371.144.371.33v.062z"/><path fill="#3CADE7" d="M21.749 59.293h-2.703a.447.447 0 01-.462-.462l.002-.105 2.077-11.853h-3.206c-.276 0-.462-.177-.462-.441l.002-.105.371-2.125a.62.62 0 01.604-.501h10.233c.282 0 .503.203.503.462l-.002.085-.371 2.125c-.05.277-.34.501-.646.501H24.46l-2.085 11.898a.66.66 0 01-.626.521zm-2.901-.533v.071c0 .124.074.198.198.198h2.703a.395.395 0 00.365-.304l2.123-12.116h3.453c.158 0 .356-.117.386-.284l.369-2.113v-.05c0-.111-.105-.198-.239-.198H17.974a.354.354 0 00-.345.284l-.369 2.113v.071c0 .147.108.178.198.178h3.52l-2.13 12.15z"/><path fill="#002E45" d="M35.565 54.279l1.63 4.552c.016.048.032.081.032.129 0 .129-.097.242-.291.242h-2.34c-.178 0-.194-.161-.258-.323l-1.453-4.084h-.016c-.065 0-.161.016-.291.016-.339 0-.839-.032-1.146-.032l-.71 4.1a.412.412 0 01-.387.323h-2.098c-.161 0-.258-.113-.258-.258v-.064l1.905-10.83c.097-.549.339-.694.855-.775.775-.129 2.163-.21 3.325-.21 2.421 0 4.229.904 4.229 3.083 0 1.92-.839 3.485-2.728 4.131zm-1.921-4.875c-.226 0-1.065.032-1.259.048l-.549 3.099c.178.016.952.032 1.13.032 1.582 0 2.566-.387 2.566-2.082.001-.838-.628-1.097-1.888-1.097z"/><path fill="#3CADE7" d="M36.937 59.334h-2.34c-.239 0-.307-.195-.351-.324a1.627 1.627 0 00-.03-.081l-1.422-3.996-.01.001a2.182 2.182 0 01-.205.011c-.176 0-.394-.009-.606-.017-.155-.006-.303-.012-.43-.014l-.691 3.989a.546.546 0 01-.517.432h-2.098a.377.377 0 01-.39-.39l.002-.087 1.905-10.83c.112-.632.425-.798.965-.882.746-.124 2.123-.211 3.345-.211 1.304 0 2.345.251 3.095.746.84.555 1.266 1.385 1.266 2.469 0 2.074-.954 3.565-2.691 4.212l1.586 4.427.01.028c.014.039.03.084.03.145 0 .178-.133.372-.423.372zm-4.067-4.67h.109l1.484 4.171c.011.027.022.058.032.089.051.147.062.147.102.147h2.34c.048 0 .159-.011.159-.11 0-.014-.004-.025-.015-.056l-.011-.031-1.674-4.675.127-.043c1.702-.582 2.639-2.005 2.639-4.007 0-2.568-2.567-2.951-4.097-2.951-1.21 0-2.568.086-3.303.208-.478.075-.662.187-.747.668l-1.903 10.819v.053c0 .038.012.126.126.126h2.098a.284.284 0 00.258-.215l.729-4.208h.111c.152 0 .346.008.551.016.209.008.424.017.595.017.07 0 .13-.005.182-.01a.873.873 0 01.108-.008zm.097-1.948c-.175 0-.955-.016-1.142-.033l-.143-.013.592-3.34.101-.008c.197-.016 1.04-.049 1.27-.049 1.049 0 2.02.149 2.02 1.23 0 1.945-1.297 2.213-2.698 2.213zm-.974-.287c.282.012.817.023.974.023 1.503 0 2.434-.326 2.434-1.95 0-.704-.476-.966-1.757-.966-.192 0-.856.025-1.147.041l-.504 2.852z"/><path fill="#002E45" d="M47.977 59.202h-2.211c-.161 0-.274-.129-.274-.291l-.113-2.647H42.07l-1.049 2.647c-.065.161-.21.291-.371.291h-2.308c-.145 0-.226-.081-.226-.194 0-.048.016-.097.032-.145l4.164-10.007c.646-1.55 1.888-1.792 3.002-1.792 1.114 0 2.244.242 2.34 1.792l.646 10.007v.016a.314.314 0 01-.323.323zm-2.857-9.604c0-.161-.016-.242-.161-.242-.145 0-.21.081-.274.242l-1.776 4.455h2.405l-.194-4.455z"/><path fill="#3CADE7" d="M47.977 59.334h-2.211a.404.404 0 01-.406-.419l-.108-2.518h-3.093l-1.016 2.564c-.089.224-.288.374-.494.374h-2.308c-.211 0-.358-.134-.358-.326 0-.07.021-.132.039-.187l.003-.009 4.164-10.007c.692-1.66 2.033-1.873 3.124-1.873 1.01 0 2.365.199 2.472 1.915l.646 10.016v.016a.444.444 0 01-.454.454zm-5.997-3.202h3.525l.119 2.779c0 .076.045.159.142.159h2.211a.183.183 0 00.191-.191v-.012l-.645-10.003c-.092-1.47-1.168-1.668-2.209-1.668-1.009 0-2.249.194-2.88 1.71l-4.162 10.003c-.012.038-.024.073-.024.099 0 .019 0 .062.094.062h2.308c.098 0 .2-.085.249-.208l1.081-2.73zm3.472-1.947h-2.737l1.848-4.636c.067-.169.162-.325.397-.325.291 0 .293.249.293.371l.199 4.59zm-2.349-.264h2.073l-.188-4.323a.504.504 0 00-.007-.109l-.023-.001c-.053 0-.088 0-.152.159l-1.703 4.274z"/><path fill="#002E45" d="M59.985 52.165l-.371 2.082c-.646 3.648-2.47 5.1-6.053 5.1-1.34 0-2.744-.129-3.39-.242-.242-.048-.387-.145-.387-.403 0-.048 0-.097.016-.161l1.888-10.669c.065-.371.242-.517.565-.565.678-.113 2.147-.242 3.486-.242 2.679 0 4.358 1.437 4.358 3.938a5.8 5.8 0 01-.112 1.162zm-4.665-2.761c-.404 0-.92.016-1.146.032l-1.34 7.538c.226.016.743.032 1.146.032 1.549 0 2.486-.581 2.873-2.76l.371-2.082c.065-.355.097-.678.097-.952.001-1.404-.79-1.808-2.001-1.808z"/><path fill="#3CADE7" d="M53.561 59.479c-1.311 0-2.736-.126-3.412-.244-.215-.043-.497-.144-.497-.533 0-.052 0-.111.019-.189l1.888-10.665c.071-.405.279-.613.675-.672.707-.118 2.178-.244 3.506-.244 1.358 0 2.489.368 3.272 1.064.797.71 1.218 1.749 1.218 3.006 0 .41-.038.799-.116 1.188l-.371 2.079c-.646 3.652-2.495 5.21-6.182 5.21zm2.179-12.283c-1.314 0-2.766.124-3.465.24-.286.043-.405.163-.457.457l-1.889 10.674-.001.005c-.012.049-.012.084-.012.129 0 .148.042.226.281.274.662.116 2.068.24 3.364.24 3.579 0 5.295-1.446 5.923-4.992l.371-2.082c.075-.375.111-.746.111-1.139 0-2.383-1.58-3.806-4.226-3.806zm-1.759 9.943c-.419 0-.936-.017-1.155-.033l-.146-.01 1.383-7.783.103-.007c.22-.016.737-.033 1.155-.033.916 0 2.133.201 2.133 1.94 0 .287-.033.615-.099.976l-.371 2.082c-.195 1.097-.527 1.82-1.044 2.273-.463.405-1.086.595-1.959.595zm-.99-.288c.253.012.653.023.99.023 1.403 0 2.351-.444 2.743-2.651l.371-2.082a5.27 5.27 0 00.095-.929c0-1.175-.559-1.676-1.869-1.676-.357 0-.785.012-1.034.026l-1.296 7.289z"/><path fill="#002E45" d="M70.072 47.597l-.274 1.501a.394.394 0 01-.371.323H66.15c-.662 0-1.065.129-1.227 1.081l-.258 1.485h4.18c.161 0 .258.113.258.274v.048l-.258 1.533a.412.412 0 01-.387.323h-4.18l-.307 1.711a2.248 2.248 0 00-.048.42c0 .517.274.678.888.678h3.277c.161 0 .274.113.274.274v.048l-.274 1.501c-.032.21-.145.307-.371.339-.581.081-1.388.21-3.131.21-1.679 0-3.438-.597-3.438-2.679 0-.242.032-.517.081-.791l.952-5.359c.549-3.131 2.34-3.454 4.552-3.454 1.743 0 2.518.129 3.067.21.194.032.291.081.291.226-.002.033-.019.065-.019.098z"/><path fill="#3CADE7" d="M64.585 59.479c-2.269 0-3.57-1.025-3.57-2.811 0-.229.028-.502.083-.814l.952-5.359c.577-3.29 2.544-3.563 4.682-3.563 1.663 0 2.467.119 2.999.198l.087.013c.133.022.403.067.403.357 0 .032-.007.06-.012.081a.058.058 0 00-.004.019l-.002.021-.274 1.501a.529.529 0 01-.501.431H66.15c-.58 0-.943.065-1.097.972l-.231 1.331h4.024c.23 0 .39.167.39.406l-.002.07-.258 1.533a.548.548 0 01-.518.433h-4.07l-.287 1.602a2.066 2.066 0 00-.046.396c0 .362.117.546.756.546h3.277c.235 0 .406.171.406.406l-.002.072-.274 1.501c-.04.262-.194.405-.482.446l-.107.015c-.59.084-1.397.197-3.044.197zm2.146-12.283c-2.099 0-3.88.252-4.422 3.345l-.952 5.359a4.56 4.56 0 00-.079.768c0 2.216 2.071 2.547 3.306 2.547 1.629 0 2.425-.112 3.006-.194l.107-.015c.193-.028.239-.099.259-.228l.273-1.493v-.036c0-.089-.053-.142-.142-.142H64.81c-.504 0-1.02-.096-1.02-.81 0-.124.018-.278.051-.445l.326-1.817h4.291a.285.285 0 00.258-.214l.256-1.521v-.037c0-.065-.022-.142-.126-.142h-4.337l.285-1.639c.17-1.001.608-1.191 1.357-1.191h3.277c.112 0 .22-.096.241-.214l.273-1.492a.327.327 0 01.012-.066.058.058 0 00.004-.019c0-.036 0-.064-.18-.094l-.085-.012c-.557-.085-1.318-.198-2.962-.198z"/><path fill="#002E45" d="M77.723 54.279l1.63 4.552c.016.048.032.081.032.129 0 .129-.097.242-.291.242h-2.34c-.178 0-.194-.161-.258-.323l-1.453-4.084h-.016c-.065 0-.161.016-.29.016-.339 0-.839-.032-1.146-.032l-.71 4.1a.412.412 0 01-.387.323h-2.098c-.161 0-.258-.113-.258-.258v-.064l1.905-10.83c.097-.549.339-.694.855-.775.775-.129 2.163-.21 3.325-.21 2.421 0 4.229.904 4.229 3.083-.002 1.92-.841 3.485-2.729 4.131zm-1.921-4.875c-.226 0-1.065.032-1.259.048l-.549 3.099c.178.016.952.032 1.13.032 1.582 0 2.566-.387 2.566-2.082 0-.838-.629-1.097-1.888-1.097z"/><path fill="#3CADE7" d="M79.095 59.334h-2.34c-.239 0-.307-.195-.351-.325a4.082 4.082 0 00-.029-.081l-1.422-3.996-.01.001a2.182 2.182 0 01-.205.011c-.176 0-.395-.009-.606-.017-.155-.006-.303-.012-.429-.014l-.691 3.989a.545.545 0 01-.517.432h-2.098a.377.377 0 01-.39-.39l.002-.087 1.905-10.83c.112-.632.425-.798.965-.882.746-.124 2.122-.211 3.345-.211 1.304 0 2.345.251 3.095.746.84.555 1.266 1.385 1.266 2.469 0 2.074-.954 3.565-2.691 4.212l1.586 4.427.01.028c.014.039.03.084.03.145-.003.179-.135.373-.425.373zm-4.068-4.67h.109l1.484 4.171c.011.027.022.058.032.088.051.147.063.147.102.147h2.34c.048 0 .159-.011.159-.11 0-.014-.004-.025-.015-.056l-.011-.031-1.674-4.675.127-.043c1.701-.582 2.638-2.005 2.638-4.007 0-2.568-2.567-2.951-4.097-2.951-1.21 0-2.568.086-3.303.208-.478.075-.662.187-.747.668l-1.903 10.819v.053c0 .038.012.126.126.126h2.098a.282.282 0 00.257-.214l.729-4.208h.111c.152 0 .346.008.551.016.209.008.424.017.596.017.07 0 .13-.005.182-.01a.932.932 0 01.109-.008zm.097-1.948c-.175 0-.955-.016-1.142-.033l-.143-.013.592-3.34.101-.008c.197-.016 1.04-.049 1.27-.049 1.049 0 2.02.149 2.02 1.23 0 1.945-1.297 2.213-2.698 2.213zm-.974-.287c.282.012.817.023.974.023 1.503 0 2.435-.326 2.435-1.95 0-.704-.476-.966-1.757-.966-.192 0-.856.025-1.147.041l-.505 2.852z"/><g><path fill="#002E45" d="M95.051 44.348l-6.375 6.973 3.631 7.407c.041.062.041.124.041.186 0 .144-.124.248-.33.248h-3.322c-.248 0-.33-.124-.413-.289l-2.971-6.808-1.176 6.684a.527.527 0 01-.495.413h-2.703c-.206 0-.33-.144-.33-.33v-.083l2.558-14.524a.486.486 0 01.474-.392h2.703c.206 0 .351.124.351.33v.062l-1.114 6.251 5.447-6.396c.144-.165.268-.248.495-.248h3.383c.206 0 .31.083.31.206.001.083-.061.187-.164.31z"/><path fill="#3CADE7" d="M92.018 59.293h-3.322c-.322 0-.439-.179-.531-.362l-.003-.006-2.796-6.407-1.1 6.254a.66.66 0 01-.625.522h-2.703a.447.447 0 01-.462-.462l.002-.105 2.558-14.524a.62.62 0 01.604-.501h2.703c.284 0 .483.19.483.462l-.002.085-1.029 5.772 5.131-6.025c.159-.182.314-.294.596-.294h3.383c.326 0 .441.175.441.338 0 .11-.06.232-.196.394l-.004.005-6.314 6.907 3.588 7.319a.44.44 0 01.058.251c.002.221-.188.377-.46.377zm-3.614-.476c.076.151.125.213.293.213h3.322c.033 0 .198-.006.198-.116 0-.055-.001-.085-.019-.113l-.009-.015-3.671-7.487.061-.066 6.373-6.971c.12-.144.133-.204.133-.223 0-.067-.124-.074-.178-.074h-3.383c-.168 0-.26.047-.396.202l-5.761 6.765 1.197-6.719v-.05c0-.172-.137-.198-.219-.198h-2.703a.354.354 0 00-.345.284L80.741 58.76v.071c0 .124.074.198.198.198h2.703a.395.395 0 00.365-.304l1.252-7.115 3.145 7.207z"/></g><g><path fill="#002E45" d="M97.595 47.516l-2.002 11.363a.394.394 0 01-.371.323h-2.163c-.145 0-.226-.113-.226-.242v-.081l2.001-11.363c.032-.178.161-.307.339-.307h2.163c.161 0 .258.097.258.242l.001.065z"/><path fill="#3CADE7" d="M95.222 59.334h-2.163c-.207 0-.358-.157-.358-.374l.002-.104 2.001-11.363c.045-.249.234-.416.469-.416h2.163c.23 0 .39.154.39.374l-.002.087-2.002 11.363a.528.528 0 01-.5.433zm-2.257-.443v.069c0 .033.009.11.094.11h2.163c.112 0 .22-.096.241-.214l1.999-11.351v-.053c0-.047-.013-.11-.126-.11h-2.163c-.128 0-.192.102-.209.198l-1.999 11.351z"/></g><g><path fill="#002E45" d="M109.361 47.516l-1.953 11.073c-.065.339-.371.613-.71.613h-1.356c-.339 0-.71-.065-.888-.5l-2.679-6.359c-.048-.097-.081-.129-.129-.129s-.081.032-.097.129l-1.146 6.537a.412.412 0 01-.387.323h-1.905c-.161 0-.258-.113-.258-.274v-.048l1.937-11.056c.065-.339.387-.613.726-.613h1.227c.323 0 .71.097.872.5l2.776 6.65c.048.097.048.129.097.129.032 0 .097-.032.113-.145l1.211-6.828a.38.38 0 01.371-.307h1.905c.162 0 .274.113.274.258l-.001.047z"/><path fill="#3CADE7" d="M106.698 59.334h-1.356c-.332 0-.797-.06-1.01-.583l-2.664-6.324-1.135 6.474a.545.545 0 01-.517.432h-1.905c-.23 0-.39-.167-.39-.406l.002-.071L99.66 47.8a.9.9 0 01.856-.722h1.227c.491 0 .844.207.994.583l2.748 6.581 1.197-6.749a.514.514 0 01.501-.416h1.904c.232 0 .406.168.406.39l-.002.071-1.953 11.073c-.077.406-.446.723-.84.723zm-5.052-7.253c.146 0 .212.131.247.202l.004.008 2.679 6.359c.15.369.457.42.766.42h1.356c.271 0 .527-.222.581-.506l1.951-11.059v-.037c0-.076-.057-.126-.142-.126h-1.904a.246.246 0 00-.241.198l-1.211 6.827c-.025.173-.143.254-.243.254-.122 0-.163-.09-.19-.149a7.398 7.398 0 00-.025-.053l-.004-.008-2.776-6.65c-.111-.279-.364-.419-.75-.419h-1.227a.639.639 0 00-.597.506l-1.935 11.043v.037c0 .065.022.142.126.142h1.905a.285.285 0 00.258-.214l1.146-6.536c.033-.208.156-.239.226-.239z"/></g><g><path fill="#002E45" d="M119.82 47.677l-.307 1.711c-.032.178-.129.21-.274.21h-.048c-.775-.032-1.969-.129-3.341-.129-1.307 0-2.211.517-2.599 2.744l-.355 2.018c-.065.404-.113.759-.113 1.065 0 1.34.662 1.679 1.437 1.679.452 0 .872-.016 1.259-.048l.646-3.712a.394.394 0 01.371-.323h2.066c.161 0 .258.113.258.258v.065l-.952 5.423c-.032.226-.129.323-.387.371-.904.178-2.066.339-3.68.339-1.646 0-3.809-1.017-3.809-3.922 0-.371.032-.775.113-1.211l.355-2.001c.791-4.455 3.196-5.149 5.827-5.149 1.614 0 2.728.242 3.309.371.113.032.226.081.226.194-.002.015-.002.031-.002.047z"/><path fill="#3CADE7" d="M113.799 59.479c-.963 0-1.913-.329-2.606-.902-.873-.722-1.335-1.812-1.335-3.152 0-.406.039-.822.115-1.235l.355-2c.371-2.089 1.116-3.505 2.277-4.33 1.159-.823 2.575-.928 3.68-.928 1.652 0 2.791.253 3.338.374l.008.002c.08.023.322.092.322.321l-.002.072-.307 1.711c-.058.318-.31.318-.404.318h-.054c-.216-.009-.457-.023-.737-.038-.717-.04-1.61-.091-2.598-.091-1.207 0-2.088.448-2.469 2.635l-.355 2.018c-.067.416-.111.753-.111 1.042 0 1.386.745 1.547 1.305 1.547.407 0 .792-.013 1.146-.04l.628-3.612a.529.529 0 01.501-.432h2.066c.226 0 .39.164.39.39l-.002.087-.952 5.423c-.04.28-.183.42-.493.478-.747.147-1.942.342-3.706.342zm2.486-12.283c-2.494 0-4.91.611-5.697 5.04l-.355 2.001a6.511 6.511 0 00-.111 1.188c0 2.992 2.311 3.79 3.677 3.79 1.741 0 2.919-.192 3.655-.336.215-.04.259-.1.282-.26l.951-5.416v-.053c0-.038-.012-.126-.126-.126h-2.066c-.112 0-.22.096-.241.214l-.663 3.812-.102.008a15.6 15.6 0 01-1.27.049c-1.041 0-1.569-.609-1.569-1.811 0-.307.046-.656.115-1.086l.355-2.02c.352-2.026 1.143-2.853 2.729-2.853.996 0 1.892.051 2.613.091.278.016.518.029.731.038h.046c.116 0 .129-.017.145-.102l.304-1.699v-.037c0-.005-.006-.031-.127-.066-.539-.119-1.657-.366-3.276-.366z"/></g><g><path fill-rule="evenodd" clip-rule="evenodd" fill="#002E45" d="M2.857 52.969c-.454.685-2.011.667-2.564.553.479-.058.953-.126 1.35-.418.426.049.817-.011 1.214-.135M4.8 52.33c.073.376-.285.6-.285.6s-.112-.199-.099-.453c.013-.255.311-.523.311-.523l.073.376zm11.757-7.743v.547c-.225.02-.798.083-1.033.218-.296.169-2.335.492-2.603.492-.267 0-.281.028-.281.028s-.31-.661-.816-.605c-.506.056-.549 1.097-.549 1.097s-.985.886-1.336 1.449c-.352.563-.295.872-.295.872l-1.168 1.083s-.401.239-.359.387c.042.148.471.886.556.872.085-.014.232-.091.387-.098.155-.007.288.049.288.049s-.239.063-.309.105c-.07.042-.091.091-.091.091s.204.183.352.239c.147.056.83-.141 1.097-.155.267-.014.324.211.52.324.197.113.464.141.464.141s.071-.225.169-.239c.098-.014.464-.056.464-.056l.169-.014.675-.112s.45.324.844.436c.394.113.521.197.647.352.828 1.08 1.685 2.519 2.154 3.244l.308 1.175-.633 1.609.13.871-.09.133c-.006.014-.012.024-.021.03a.037.037 0 01-.023.007H13.97l.144-.688.713-1.805-1.165-2.3a.235.235 0 00-.14-.015c-.254.04-.509.075-.764.104a2.22 2.22 0 01-.316.007 2.562 2.562 0 01-.708-.091c-.049-.015-.097-.021-.143-.015l-.624.326.406.835.339.114.112-.067.588-.157.536 1.725-.574.208-.474-.266-1.43-.263-1.431-2.558.591-.769-.897-.531-.781.525-.475.474s-.035.415-.035.881-1.174 1.07-1.174 1.07l-.604-.069s-.069-.19-.224-.656c-.156-.466-.95-1.183-1.502-1.476-.553-.294-.846-.898-.846-.898s.155-.129.328-.354c.173-.224.242-.587.242-.587s-.518.622-1.191.812c-.675.19-2.471.103-2.471.103s.622 0 1.364-.363c.1-.049.191-.099.273-.148 1.375-.576 1.673-2.196 1.673-2.196s-.043.138-.19.345c-.147.207-.38.354-.38.354s-.129-.121-.086-.449c.043-.328.63-1.036.803-1.071.173-.035.704-.497.704-.497.518-.328.484-.915 3.281-2.987 2.489-1.842 6.292-2.273 9.115-1.179zm-6.077 4.169c.218-.021.45-.317.45-.317s-.26-.007-.415.007c-.155.014-.338.218-.338.218s.085.113.303.092z"/><g fill="#3CADE7"><path d="M10.852 35.729l.964 7.33.016-.002c.187-.023.374-.042.562-.055l-1.02-7.754-.522.481zM6.856 39.412l1.525 4.676c.173-.088.35-.171.53-.249l-1.586-4.86-.469.433zM8.107 38.259l1.399 5.346a9.92 9.92 0 01.553-.18l-1.468-5.611-.484.445zM9.434 37.036l1.226 6.23c.188-.044.378-.083.57-.117l-1.294-6.575-.502.462zM12.374 34.326l.57 8.648c.195-.005.389-.004.583.001l-.604-9.155-.549.506zM.681 37.154l4.712 9.099c.136-.121.286-.251.452-.39l-4.34-8.381-.824-.328zM5.041 38.888l2.278 5.834c.161-.113.327-.22.498-.323L5.78 39.182l-.739-.294zM2.963 38.062l3.366 7.409c.147-.116.304-.238.472-.366l-3.059-6.733-.779-.31zM21.3 38.979l-1.336 4.095h.611l1.195-3.662zM14.022 32.807V43c.196.014.39.034.582.059V32.807l-.291-.268-.291.268zM20.036 37.813l-1.377 5.261h.6l1.26-4.815zM15.703 33.82l-.614 9.313c.194.034.386.074.575.12l.589-8.926-.55-.507zM17.253 35.248l-1.071 8.145c.191.058.378.121.56.191l1.033-7.854-.522-.482zM21.949 43.081l1.637-4.193-.739.294-1.522 3.899zM17.439 43.081v-.007h.565l1.188-6.038-.502-.463-1.28 6.508zM23.383 43.081l2.281-5.019-.78.31-2.139 4.709zM24.876 43.081l3.069-5.927-.823.328-2.9 5.599z"/></g></g></svg>