<svg xmlns="http://www.w3.org/2000/svg" xmlns:xlink="http://www.w3.org/1999/xlink" viewBox="0 0 120 97"><defs><style>.cls-1{fill:none;}.cls-2{isolation:isolate;}.cls-3{fill:#fff;}.cls-4{opacity:0.1;}.cls-5{opacity:0.4;}.cls-6{clip-path:url(#clip-path);}.cls-7{fill:#daefff;mix-blend-mode:multiply;}.cls-8{fill:#adafb1;}.cls-9{fill:#6a6d6e;}.cls-10{fill:#787b7c;}.cls-11{fill:#545356;}.cls-12{fill:#8a8c8e;}.cls-13{fill:#f14e23;mix-blend-mode:color;}</style><clipPath id="clip-path"><rect class="cls-1" x="0.5" y="-1388.5" width="1920" height="1080"/></clipPath></defs><g class="cls-2"><g id="Layer_1" data-name="Layer 1"><rect class="cls-3" width="120" height="97"/><g class="cls-4"><rect class="cls-3" width="120" height="97"/></g><g class="cls-5"><g class="cls-6"><path class="cls-7" d="M-1132.61-1404.75C-770.66-718.19-336.19-287.39,95.46-90.12,421.88,57,696.37,42.6,898.19-164.5c99.73-104.65,130-258.69,167.93-385,30-101.92,75.18-198.19,138.34-283.59,126.94-169.29,291.56-286.24,381.61-337.53,47.74-28.26,91.48-41.38,139-52,40.69-9.16,82.57-15.7,129.52-28.91,69.07-19.28,138.8-58.61,210.7-106.76.25-3,.52-6,.77-9-72.61,49.1-142.93,89.77-212.41,109.58-46.31,13.36-87.76,20.08-127.92,29.2-47.31,10.67-90.83,23.73-138.63,52.12a1276.81,1276.81,0,0,0-192.58,138c-63.53,55.2-133.48,124.3-192,203C1138-749,1091.84-652.36,1061.12-550.27c-38.59,125.46-68.73,276.91-166.22,379C697,31.72,424.44,48.33,101.75-94.78-328.65-288-765.53-716.76-1129-1407c-132.48-251.49-239-520.61-323.33-801.22-2.25-2.29-4.52-4.6-6.78-6.92C-1374.26-1931.28-1266.54-1658.83-1132.61-1404.75Z"/><path class="cls-7" d="M-1161.32-1462.81C-799.69-753.08-362-306.73,71.6-95.42,414.43,67,682.69,55,887.44-147.92c103.23-105.62,134-264.53,171.13-393.05,29.49-103.42,74.49-200.67,138.15-287.12,115.85-153.19,251.24-262.09,383.15-339.25,47.79-27.91,91.6-40.54,139.31-50.64,41.11-8.92,83.64-15,131.15-28,70.62-19.09,141.53-59,214.55-108.28l.81-9.29c-73.85,50.31-145.44,91.55-216.28,111.33-46.84,13.06-88.89,19.45-129.52,28.25-47.55,10.18-91.1,22.68-138.92,50.69a1295.13,1295.13,0,0,0-194.59,139.1c-66,57.28-133.63,125.38-191.68,203.69-64.89,87.58-110.94,185.18-141.13,288.91C1015.77-414,985.08-258,884.28-154.85,683.67,44.34,417.63,58.66,78.15-99.84-355-307.7-794.5-751.86-1158.09-1465.94c-120.18-236.34-217.42-485.6-295.61-743.69l-6.84-7C-1381.69-1955.09-1283.21-1702.22-1161.32-1462.81Z"/><path class="cls-7" d="M-1189.43-1522.09c361.29,734,802.16,1195.43,1237,1420.71C341.06,52,649,92,876.19-131.19c107-106.71,138.49-270.38,174.82-401,28.88-105.16,73.82-203.4,137.93-290.8C1307.2-980.35,1449-1092.65,1573.76-1164c47.85-27.54,91.76-39.7,139.74-49.44,41.53-8.44,84.6-14.32,132.66-26.89,72-18.8,144.17-59.15,218.37-109.81q.42-4.71.82-9.4c-75,51.68-147.74,93.59-220.07,112.94-47.38,12.87-90,18.79-131,27.23-47.83,9.83-91.44,21.81-139.34,49.49a1240.83,1240.83,0,0,0-193.18,137.48c-66.39,57.59-135.93,127.28-194.88,207.16-65.36,88.46-111.26,187.17-140.95,292.45-37,129.63-68.34,290.44-172.67,394.5-223,217.06-515.58,186.82-818.84,32.8C-381.06-327.57-823.79-787.9-1186.06-1525c-108-219.93-196.81-450.1-268.8-685.82l-6.9-7.06C-1389-1978.61-1299.06-1745-1189.43-1522.09Z"/><path class="cls-7" d="M-1217.59-1583.69C-858.19-826.62-413.47-347.91,23-108.22c311.65,169.79,610.5,212.4,841.5-6.12,111-107.56,143.44-276.55,178.94-409.27,28.42-106.65,73.18-206,137.76-294.38,120.93-161.26,263-273.29,386.44-342.78,48-27.28,92-38.82,140.3-48.14,41.89-8.16,85.51-13.56,134.06-25.87,73.44-18.78,146.76-59.78,222.26-111.69.27-3.15.55-6.31.82-9.45-76.28,53-150.27,95.55-224,114.86-47.9,12.5-91,18.08-132.4,26.2-48.11,9.36-91.81,20.87-139.82,48.12-62.74,35.5-126.71,79.29-192.45,136-66.64,57.81-137.19,128.61-197.34,210.42-65.9,89.55-111.62,189.26-140.85,296.14C1002-392.41,969.78-226.51,861.65-121.68,635.5,92.68,338.39,53.88,30.23-112-407.3-348.48-853.26-825.55-1214.15-1586.5c-95.41-201.27-176.29-412.54-241.81-625.43-2.29-2.32-4.59-4.69-6.89-7.06C-1396.59-2002.7-1314.55-1788-1217.59-1583.69Z"/><path class="cls-7" d="M-1244.92-1646.33c358.44,783,806,1276.27,1242.71,1530.54,3.1,1.81,6.2,3.61,9.35,5.41,312,176.47,610.42,227.83,845.13,12.95C967.39-205.87,1001-380,1035.67-514.76c28-108.51,72.54-208.76,137.66-298.16,123.94-165.9,272.79-281,388.15-344.61,48-26.76,92-37.89,140.59-46.86,42.33-7.82,86.51-12.93,135.67-24.94,74.88-18.4,149.46-60,226.12-113.19.29-3.19.56-6.38.84-9.56-77.41,54.31-152.55,97.44-227.84,116.48-48.42,12.3-92.12,17.44-133.95,25.23-48.37,9-92.1,20-140.12,46.85-59.21,32.88-123.64,76.3-191,134.43-67,58.11-139.52,130.51-200.65,213.93-66.4,90.53-112,191.27-140.69,299.82-35.39,133.83-68.7,304.68-181,410.42-229.6,211.42-526.23,163.43-834.66-9-3.08-1.74-6.18-3.52-9.24-5.28C-432.07-370-881.89-862.52-1241.76-1649.43c-83.88-183.82-153.26-369.79-212.65-560.92l-6.89-7.05C-1401.09-2022.83-1330.39-1833.24-1244.92-1646.33Z"/><path class="cls-7" d="M-1271.94-1710.37C-915.75-903.9-466-393.54-27.4-124.18q11.37,7.09,22.7,13.9c309,180,604.45,241.72,844.16,29.89C959-189.44,994.09-369,1027.87-506c27.52-110.14,72-211.54,137.64-302,126.42-169.51,275.61-284.55,389.87-346.23,48.06-26.4,92.11-37,140.94-45.51,42.72-7.58,87.5-12.27,137.22-24,76.35-18.29,152.13-60.37,230-114.91q.43-4.81.84-9.61c-78.59,55.63-155,99.43-231.63,118.2-49,12-93.32,16.83-135.53,24.27-48.63,8.54-92.35,19.06-140.39,45.43-58.83,32.18-122.83,74.88-190.35,133.13-67.31,58.35-140.82,131.77-203.12,217.1-67,91.58-112.45,193.35-140.74,303.68C988-370.55,953.35-194.38,837-88.1,603.13,120,309,62.5,3.22-113.63c-7.53-4.47-15-9-22.58-13.66-439.24-265.66-892-775.33-1249.74-1587.25-72.76-165.91-130.72-325.71-183.56-494l-6.93-7.07C-1405.78-2043.54-1346.45-1879.89-1271.94-1710.37Z"/><path class="cls-7" d="M-1298.22-1775.6C-945.71-946.35-492.85-418-53-133.46q17.28,11.4,34.58,22.17C288.73,73.2,581,145.39,826.05-63.29c124.22-109.66,161-294.75,194-433.92C1047.11-609,1091.36-711.46,1157.65-803c129.78-174.7,287-292.9,391.64-348,48-26,92.13-36.08,141.26-44.25,43.16-7.17,88.57-11.42,138.83-22.9,77.91-17.82,154.83-60.44,233.78-116.42q.45-4.94.87-9.86c-79.78,57.12-157.32,101.51-235.46,120-49.52,11.77-94.43,16.17-137.06,23.31-48.9,8.17-92.68,18.1-140.75,44.08-54.66,29.35-119.43,71.65-189.06,131.73-67.62,58.7-143.1,133.58-206.3,220.35-67.52,92.53-112.8,195.33-140.7,307.45-33.69,138-70,319.46-190.92,426.37C584.65,133.82,294,66-10-114.36Q-27.33-125-44.65-136.2C-485.84-417.42-941.26-945-1295.29-1779.67c-56.59-132.88-109.33-276.77-157.27-428.79-2.33-2.39-4.67-4.75-7-7.16C-1410.52-2059.43-1356.36-1911.74-1298.22-1775.6Z"/><path class="cls-7" d="M-1324.42-1843.29C-975.67-990.2-520.56-444-79.15-143.74Q-56.08-127.8-33-112.95C272.05,76.42,561.27,159.58,812.06-46.14c129.16-109.95,168-300.9,200-442.13,26.71-113.75,70.87-217.23,137.71-309.79,132.34-178.35,289.8-296.26,393.46-349.69,48-25.47,92.13-35.13,141.47-42.93,43.61-6.87,89.62-10.85,140.47-22,79.33-17.45,157.43-60.8,237.66-118.23.3-3.22.58-6.44.86-9.66C1982.7-1282,1904-1236.94,1824.36-1219c-50.1,11.49-95.58,15.63-138.62,22.51-49.14,7.72-93,17.23-141,42.67-54.33,28.73-118.71,70.37-188.56,130.59-67.86,58.77-144.33,134.64-208.68,223.19-68.13,93.64-113.32,197.51-140.79,311.4C973.91-348.44,935.58-161.42,810-54.23,565.27,147.87,277.37,69.31-24.56-115.74q-23-14.67-46-30.41C-512.91-442.52-971.44-989.26-1321.31-1847.07c-46.29-113.07-89-233.39-129-359.09l-7-7.07C-1416.16-2083.61-1372.15-1959.62-1324.42-1843.29Z"/><path class="cls-7" d="M-1349.45-1911.2C-1005.34-1035.59-547.8-470.73-105.77-155q28.17,20.44,56.29,39.26c303.86,195,589.88,288.93,846.84,86.8C931.75-139.19,973-336,1004.06-479.44c26.37-115.48,70.36-220.06,137.75-313.56,102.53-136.5,232.65-263.73,395.35-351.37,48.11-25.11,92.29-34.33,141.94-41.67,44-6.61,90.53-10.14,141.87-21,80.79-17.33,160.13-61.14,241.52-119.88l.87-9.83c-82.09,60-162,105.49-243.12,123.31-50.61,11.24-96.69,15-140.12,21.51-49.39,7.36-93.23,16.34-141.32,41.41-70.65,37.07-130.71,81-188.75,130.53-79.18,68.41-152.58,144.88-210.48,225-68.78,94.68-113.79,199.58-140.9,315.19-32,142.45-72.47,335.26-203.06,442.6C545.07,161.25,259.88,72.37-40.67-118.36q-27.84-18.42-55.78-38.39C-540-468.87-1000.64-1032.93-1346.73-1916.3c-37.77-96.6-68.61-187.54-100.57-286.84q-3.5-3.53-7-7.08C-1421.12-2106.71-1388.91-2011.79-1349.45-1911.2Z"/><path class="cls-7" d="M-1374.24-1981.51C-1036-1084-576.06-498.77-132.79-167.2q33.42,25.45,66.59,48.36C236.36,82,518.66,186.62,782-11.69,921.93-121.94,965.85-324.88,996-470.48c26-117.33,69.87-223,137.93-317.64,104.16-139,235.81-267.69,397.21-353,48.11-24.69,92.3-33.37,142.26-40.32,44.39-6.3,91.53-9.52,143.39-20.17,82.26-16.79,162.77-61.18,245.37-121.49.3-3.35.59-6.7.89-10-83.29,61.52-164.36,107.81-246.92,125.34-51.21,10.79-97.8,14.28-141.65,20.4-49.7,7-93.53,15.39-141.65,40.08-70.17,36.16-130.06,79.67-188.29,129.3-79.55,68.65-154,146.16-212.91,227.87-69.4,95.78-114.3,201.75-141.1,319.37-31,144.59-74.15,343.22-210,450.53C523.94,174.63,242,75.18-57-121.07c-21.85-15-44-30.87-66.12-47.47-444.89-328.06-907.74-911.72-1248.31-1818-27.42-73.14-49.32-139.78-73.45-214.15-2.3-2.32-4.6-4.63-6.92-7C-1426.44-2129.11-1403.27-2058.69-1374.24-1981.51Z"/><path class="cls-7" d="M-1398.27-2053.09c332.12,920,794.59,1525.34,1238.38,1872.86q38.1,30.18,75.77,57.48C217,83.56,495.53,200,766,5.31c145.58-109.92,192.54-319,221.78-466.74,25.73-119.27,69.44-226.08,138.16-321.69,105.84-141.41,238.84-271.46,399.17-354.69,48.13-24.29,92.34-32.44,142.52-39,44.81-5.87,92.58-8.82,145-19.13,83.86-16.27,165.53-61.2,249.18-123,.3-3.4.61-6.79.91-10.19-84.48,62.91-166.75,109.7-250.73,127-51.74,10.57-99,13.55-143.2,19.45-50,6.52-93.8,14.51-141.94,38.7-69.66,35.27-129.29,78.23-187.69,127.95-80,69-155.63,147.77-215.51,231-70.12,96.83-114.84,203.94-141.36,323.36C952.08-315,906-110.4,764.77-3.22,501,187.8,223.06,77-74.67-124.71c-25.08-17.89-50-36.54-75.34-56.49C-595.86-524.81-1061.23-1129.53-1395.4-2058c-17.63-49.13-30.88-90.87-47-140.14-2.29-2.3-4.57-4.58-6.86-6.9C-1431.87-2151.72-1417.44-2106.33-1398.27-2053.09Z"/><path class="cls-7" d="M-1421.21-2125C-1095.64-1182.5-631.36-557.42-187.36-194.29c28.1,23.36,55.89,45.31,83.67,66.13,300,213,574.41,341.29,852.92,150.64,151.61-109.63,201.95-325,230.33-474.93,25.42-121.17,69-229.08,138.43-325.82,107.42-143.78,242-275,401.1-356.34,48.11-23.67,92.29-31.47,142.72-37.62,45.22-5.58,93.62-8.15,146.59-18.27,85.3-15.78,168.22-61.18,253-124.52.32-3.51.62-7,.94-10.49-85.62,64.51-169.08,111.91-254.61,128.81-52.25,10.35-100.1,13.08-144.74,18.56-50.17,6.14-94,13.62-142.09,37.32-69.22,34.41-128.71,77-187.36,126.9-80.34,69.2-157.08,149-218,233.72-70.74,97.78-115.38,206.1-141.66,327.44C944.71-303.87,895.42-93,748.22,13.76,477.67,200.84,203,78.81-93.72-129.7c-27.66-20.4-55.66-42.13-83.54-65.16-446.34-359.81-914.1-985.57-1241.16-1935.3-8-23.33-13.81-42.27-21.46-65.53-2.23-2.24-4.47-4.47-6.69-6.72C-1437.6-2175-1430.68-2152.45-1421.21-2125Z"/><path class="cls-7" d="M-1443.46-2198.3c318.49,964,783.29,1608.79,1228,1988.68q46.26,40.29,91.62,75.73C175.42,85.78,445.7,225.19,731.65,39.57c158-108.85,212.16-330.91,239.59-483C996.43-566.55,1039.9-675.56,1110-773.39c107.37-143.72,247-279.25,403.14-357.93,48.12-23.26,92.35-30.45,143.1-36.31,45.58-5.23,94.52-7.5,148-17.2,86.82-15.6,170.88-61.51,256.91-126.35q.46-5.17.93-10.3c-86.71,66.15-171.37,114.06-258.41,130.4-52.78,10-101.19,12.4-146.16,17.52-50.48,5.83-94.38,12.82-142.46,36.12-67.62,32.88-127,75.47-186,125.52-81.61,70.24-160.3,151.51-221.43,236.79-71.43,98.81-115.9,208.21-141.88,331.46C937.21-292.49,884.23-75.53,731,30.67,452.82,213.22,182.08,79.56-113.42-135c-30.44-23.36-60.81-48.12-91.95-74.62C-648.7-583.76-1116.3-1224.07-1437-2192.84c-2.3-2.28-4.59-4.58-6.9-6.89C-1443.76-2199.26-1443.61-2198.78-1443.46-2198.3Z"/><path class="cls-7" d="M-244-226c33,30.1,66.15,58.54,98.8,84.92C153,85.62,418.07,237.42,713.22,56.59,877.84-51.17,936.35-280,962.78-434.38c25-125.11,68.37-235.31,139.15-334.16,109-146.09,250.37-283,405.13-359.45,48.18-22.87,92.42-29.57,143.46-35,46-5,95.45-6.88,149.5-16.22,88.22-15,173.39-61.62,260.7-128.07q.47-5.13.92-10.24c-88,67.73-173.84,116.19-262.21,132.06-53.3,9.59-102.27,11.73-147.62,16.52-50.8,5.44-94.66,11.88-142.76,34.75-67.18,32-126.39,74.12-185.6,124.3-82,70.44-161.86,152.9-223.93,239.59-72.21,99.85-116.58,210.45-142.45,335.69-27.41,153.45-84.6,377-244.15,482.09C427.07,224.82,160.5,80.08-134.56-141.75c-32.69-26.13-65.39-53.85-98.48-83.4-433.71-382.27-887.22-1016.46-1200.68-1964.42l-6.85-6.8C-1129.14-1251.07-676.74-612.07-244-226Z"/><path class="cls-7" d="M-272.86-243.54c35.65,33.72,70.86,65.41,106.3,95.08C130.89,85.09,391.05,248.35,693.93,73.46,865.55-33.08,928.71-268.64,954.27-425.2c24.88-127.11,68.06-238.55,139.59-338.42,110.86-148.61,253.77-287,407.24-361,48.09-22.39,92.33-28.62,143.57-33.71,46.38-4.73,96.55-6.26,151.15-15.38,89.68-14.64,176.12-61.55,264.53-129.61.33-3.48.64-7,1-10.42-89,69.33-176,118.3-266.08,133.78-53.86,9.37-103.43,11.15-149.24,15.78-51,5.1-94.82,10.94-142.86,33.33-66.78,31.17-125.8,72.8-185.25,123.1-82.36,70.7-163.42,154.26-226.5,242.38-72.91,100.94-117.19,212.7-142.85,339.89C922-269.86,860.28-39.7,694.05,64.14,400.19,235.94,138.54,79.82-155.62-148.74q-52.81-43.83-106-93.44C-684.3-630.89-1123.91-1258.36-1430.45-2186.35q-3.36-3.29-6.71-6.63C-1132.39-1266.68-693.57-635.66-272.86-243.54Z"/><path class="cls-7" d="M-301.82-262c37.33,37,74.81,71.74,111.79,104.26C106.87,84,362.3,258.69,673.79,90.13,852.63-14.69,921.09-257.21,945.58-416.1c24.87-129.15,67.92-241.73,140.2-342.72,112.43-150.75,256.94-290.49,409.36-362.48,48-21.81,92.3-27.65,143.86-32.32,46.75-4.42,97.49-5.67,152.62-14.4,90.6-14.1,180.24-63,268.39-131.41.32-3.53.63-7,1-10.56-90.27,71-178.36,120.63-269.84,135.63-54.4,9.13-104.6,10.55-150.78,14.75-51.29,4.8-95.13,10.2-143.15,32.07-66.31,30.28-125.21,71.58-184.86,121.95-82.8,71-165,155.53-229,245-73.71,102.08-117.87,214.94-143.45,344.28-25.67,157.87-92.4,394.6-265.59,496.93C372,246.67,115.11,78.93-178.68-157.77c-37.08-31.92-74-65.92-111.64-102.41C-701-653.9-1127.45-1274.33-1427-2183c-2.23-2.18-4.47-4.37-6.69-6.6C-1136.26-1284-711.81-660.1-301.82-262Z"/><path class="cls-7" d="M-331.14-281.71q59.11,60.76,117.31,113.8c297,249.84,545.67,436.18,866.51,274.53C839,4,913.34-245.7,936.85-406.9c24.79-131.32,67.76-245,140.77-347,142.31-191.7,309.07-320,411.52-364,48.1-21.46,92.36-26.65,144.21-31.13,47.13-4,98.51-4.88,154.12-13.31,91.9-13.81,182.75-63.37,272.19-133.36.32-3.46.64-6.94,1-10.4-91.37,72.77-180.64,123-273.64,137.42-54.88,8.72-105.7,9.91-152.2,13.74-51.6,4.4-95.43,9.28-143.44,30.71-64.73,28.86-123.57,70.09-183.6,120.7-84,71.93-168.35,158.1-232.6,247.92-74.46,103.07-118.55,217.18-144.06,348.54C906.32-246.95,834-3.26,653.62,96.94,342.31,256.51,91.51,77.3-202-167.28q-58.1-52.17-117.35-112c-399.61-399.14-812.38-1013-1104.2-1900.26-2.24-2.18-4.47-4.38-6.72-6.59C-1140.6-1302.28-729.79-684.95-331.14-281.71Z"/><path class="cls-7" d="M-361-302.82c41,44,82.12,85.4,122.91,124C57.8,78.78,300.3,276.9,630.6,122.8,825,22.66,905.44-234.36,928-397.8c24.79-133.37,67.7-248.38,141.52-351.39,144.38-194.16,311.91-322.62,413.69-365.47,48.07-21,92.33-25.65,144.5-29.78,47.5-3.65,99.47-4.28,155.61-12.3,93.37-13.15,185.45-63,276-134.81q.51-5.46,1-10.9c-92.58,74.37-183,125.18-277.46,139.36-55.41,8.32-106.79,9.14-153.68,12.77-51.86,4.06-95.7,8.43-143.67,29.3-52.32,22.69-113.7,60.73-183.89,120.18C1227.4-937.4,1139.43-851.67,1067-750.9,991.69-646.73,947.77-531.36,922.15-398,898.26-235.58,820.13,15.1,632,113,311.15,265.38,66.64,74.36-226.06-177.7c-40.73-38-81.35-78.49-122.92-122.19C-736.91-702.82-1136.45-1310.6-1420.14-2176.26q-3.27-3.18-6.53-6.38C-1144.45-1319.36-748-710.53-361-302.82Z"/><path class="cls-7" d="M-391.26-325.18c43,47.87,85.51,92.38,127.64,134,295.56,265.84,530,476,871,329.86C810.25,41.52,897.45-223,919.16-388.8,944-524.12,986.73-640.35,1061.32-744.32c146.65-197.11,315.14-326.09,416-367,47.93-20.34,92.09-24.55,144.4-28.29,48-3.46,100.66-3.73,157.44-11.55,95-12.58,188.18-63.16,279.8-136.61.34-3.69.69-7.38,1-11.06-92.23,74.68-186.13,127.59-281.33,141.3-56,8.14-108.1,8.66-155.44,12-52,3.69-95.77,7.52-143.61,27.86-52,22-113.11,59.51-183.57,119.05C1221.44-935,1132.27-848.33,1058.74-746,982.67-640.9,938.88-524.42,913.28-389c-23,164.88-107.89,422.72-303.95,517.68C278.41,273.55,41.08,70.6-251-189.42c-42.09-40.93-84.79-85-127.47-131.83C-755.3-728.56-1141-1328.53-1417-2173.27l-6.49-6.29C-1149.35-1337.83-766.17-736.33-391.26-325.18Z"/><path class="cls-7" d="M-421.86-348.9q66.6,77.11,131.89,144C5.5,69.92,231.83,291.48,583.29,154.18c211.35-93.64,306-365.54,326.77-533.74,25-137.55,67.61-255,143.08-360.14,149-199.68,318.21-328.77,418.18-368.29,47.92-19.91,92.11-23.63,144.72-27.07,48.33-3,101.64-3.06,158.91-10.47,96.47-12.15,190.88-63.19,283.61-138.27q.51-5.51,1-11c-93.28,76.54-188.39,130-285.07,142.85-56.54,7.89-109.25,8-157,11-52.32,3.31-96,6.66-143.83,26.44-51.7,21.34-112.55,58.29-183.31,118-75,63.88-165.24,151.41-239.88,255.24C973.63-635.09,929.9-517.32,904.1-379.73,882-212.55,790,52.44,585.73,144.07,244.23,280.84,14.41,65.78-276.81-202.43c-43.83-44.2-87.53-91.3-131.91-141.87C-774.19-755-1146-1347.09-1414-2170.32l-6.49-6.27C-1154.26-1356-785-762.88-421.86-348.9Z"/><path class="cls-7" d="M-452.57-373.61c45.75,55,91.9,107.29,136.36,154.69C-22.12,63.82,195.63,296.91,558.06,169.24c220.33-89.5,323-369,342.85-539.61,25.15-139.64,67.62-258.3,144-364.55,151.3-202.4,321.52-331.92,420.51-369.68,47.9-19.45,92.07-22.61,145-25.65,48.74-2.84,102.6-2.59,160.38-9.58,98-11.59,193.48-63.29,287.46-140.24l1-11c-94.43,78.2-190.67,132.33-288.91,144.86-57,7.44-110.34,7.37-158.4,10.06-52.59,3-96.3,5.8-144.07,25.12-51.41,20.63-112,57.11-183.11,116.89-75.33,64.09-166.83,152.56-242.53,257.78C964.46-629.28,920.86-510.26,894.89-370.59,873.65-200.92,773.81,71.41,561.08,159,210.39,286.09-12,61.05-303-216.12c-44.45-46.65-90.55-98.06-136.23-152.31-352.31-411.93-711.29-995.51-971.72-1799-2.13-2-4.27-4.1-6.4-6.15C-1159.06-1373.94-802.9-789.23-452.57-373.61Z"/><path class="cls-7" d="M-483.46-399.71c46.81,58.58,93.91,114.13,139.75,164.86C-50.13,57.06,158.44,301,531.85,183.64c229.43-84.7,340.81-371.83,359.81-544.83C917-503.11,959.42-623,1036.66-730.26c153.66-205.2,324.65-334.72,422.84-371,47.79-18.92,91.94-21.63,145.12-24.39,49.11-2.45,103.64-1.9,162-8.59,99.53-10.94,196.19-63.08,291.27-141.85.34-3.75.7-7.5,1-11.24-95.64,80-193.1,134.68-292.75,146.64-57.55,7.19-111.5,6.8-159.94,9.2-52.83,2.66-96.53,4.94-144.21,23.74-51.1,20-111.47,55.88-182.9,115.83-75.69,64.25-168.32,153.58-245.12,260.2C955.29-623.51,911.82-503.21,885.54-361.41,865.11-189.29,756.94,90.18,535.22,173.34,174.09,290.78-40.18,54.14-329.95-231.31c-45.53-49.66-93-104.61-139.91-162.58-340.6-413.89-686-989.38-937.94-1770.5q-3.23-3.09-6.46-6.2C-1164.52-1393.55-822-817-483.46-399.71Z"/><path class="cls-7" d="M-515-427.51c47.76,62.21,96.21,121.46,143,175.38C-79.28,48.14,117.87,303.09,504.52,197.62c238.85-79.42,359.6-374.1,377.63-549.56,25.73-144.08,68-265.33,146.16-373.54,156-207.85,328.07-338,425.28-372.47,47.8-18.48,91.93-20.66,145.4-23,49.48-2.24,104.6-1.36,163.46-7.64,101-10.38,198.91-62.91,295-143.47q.54-5.68,1.05-11.36c-96.56,82-195.08,137.21-296.53,148.4-58,6.74-112.57,6.12-161.35,8.17-53.16,2.32-96.8,4.1-144.45,22.32-50.82,19.43-110.88,54.64-182.63,114.72-76.1,64.48-170,154.75-247.94,262.82C946-617.69,902.63-496.17,876-352.12,856.43-177.59,739.26,109.16,508.38,187.23,135.54,294-68.61,46.46-357.82-248c-46.6-52.81-95-111.14-143.21-173-328.59-414.87-660.22-981.64-903.68-1740.49-2.13-2-4.28-4.09-6.43-6.15C-1170-1413.12-841.6-845.66-515-427.51Z"/><path class="cls-7" d="M-546.55-456.65c48.68,65.91,97.82,128.39,145,185.09C-108.82,39.33,79.12,304.32,475.9,210.9c248.82-73.4,379.53-375.65,396.78-553.57C898.78-489,940.92-611.57,1020-720.9c166.58-221.48,349.31-348.78,427.64-373.72,47.72-17.88,91.82-19.57,145.54-21.61,49.89-1.89,105.62-.77,165.08-6.68,102.47-9.7,201.52-62.72,298.8-145.16q.54-5.76,1.07-11.5c-97.77,83.83-197.47,139.63-300.32,150.2-58.6,6.38-113.78,5.43-163,7.25-53.43,2-97,3.17-144.55,20.9-43.34,15.91-105.15,49.8-182.36,114.45-75.23,63.6-171.2,154.45-250.69,264.41C936.76-612,893.47-489.2,866.45-342.85c-18.87,177-145.83,471.07-386.11,543.32C95.62,295.38-98,37.27-386.94-266.55c-47.25-55.84-96.33-117.38-145-182.32-317.17-415.62-635.27-973.57-870.1-1710.06l-6.2-5.89C-1175.62-1432.28-860.45-874.14-546.55-456.65Z"/><path class="cls-7" d="M-578.52-487.29c49.8,70,99.72,136.08,148,196.36C-138.69,28.9,36.08,303.63,446.05,223.38c259-66.39,400.66-376.44,417-557,26.62-148.4,68.63-272.27,148.62-382.53,169-224.2,352.61-351.74,430.12-375.09,47.69-17.4,91.73-18.53,145.78-20.19,50.25-1.68,106.62-.27,166.56-5.71,104-9.24,204.14-62.8,302.62-147q.54-5.88,1.09-11.75c-99,85.7-199.91,142.16-304.09,152.24-59.12,6.09-114.9,4.81-164.46,6.29-53.74,1.63-97.31,2.37-144.81,19.51-43.08,15.4-104.51,48.51-182.12,113.39-75.6,63.77-172.78,155.42-253.49,266.86C927.4-606.35,884.3-482.28,856.8-333.78c-18.07,179.59-155.44,481-405.68,546.8C55.83,295-127.56,27.64-415.22-285c-48.41-59.39-98.71-124.8-148.58-193.86-304.3-414.59-609.5-962.92-835.95-1677.94q-3.18-3-6.37-6C-1182-1452.13-880.43-904.31-578.52-487.29Z"/><path class="cls-7" d="M-610.42-519.09c50.1,73.27,100.87,143.1,149.75,206.57C-170.23,16.47-8,300.92,414.89,235.1c269.62-58.75,422.74-376.3,438.35-559.53,27.13-150.64,69-275.86,150-387.2,171.56-226.84,355.94-354.28,432.61-376.22,47.56-16.86,91.61-17.53,145.84-19,50.66-1.31,107.7.37,168.21-4.8,105.54-8.64,206.78-62.81,306.44-148.87.37-3.9.75-7.78,1.11-11.67-100,87.64-202,144.68-307.91,154-59.7,5.71-116.16,4.31-166.11,5.52-53.93,1.27-97.44,1.53-144.77,18.06-42.9,14.85-104.1,47.4-182.1,112.36-76,63.94-174.39,156.42-256.1,269.11C918-600.75,875-475.31,846.89-324.56,829.59-142.26,681,166.26,420.54,224.86,15.06,292.87-158,16.9-445.22-305.93c-49-62.54-99.76-131.35-150.19-203.89-293-414.21-584.36-952.36-802.1-1644.82-2.12-2-4.25-4-6.39-6C-1188.5-1472.45-900-934.39-610.42-519.09Z"/><path class="cls-7" d="M-642.54-552.39C-592.17-475.78-541.18-402.79-492-336.3-201.91,3.46-52.43,295.88,382.4,245.92c280.53-50.17,446-375.24,460.86-561.09,27.8-153,69.61-279.53,151.59-391.93C1169-936.45,1354.07-1063.87,1430-1084.51c47.47-16.23,91.47-16.42,146-17.59,51-1,108.76.92,169.78-3.81,107.21-7.66,209.5-62.22,310.18-150.4q.58-6,1.13-12c-101.25,89.5-204.31,147-311.68,155.81-60.18,5.39-117.33,3.69-167.65,4.52-54.24,1.11-97.7.76-144.94,16.69-42.62,14.23-103.56,46.26-181.91,111.31-76.45,64.2-176.06,157.49-259,271.6-83.38,113.28-126.37,240.06-155,393-16.72,185-177.3,500.62-448.16,551.13C-30.54,289.26-190.24,3.5-476-328.72c-49.55-65.82-100.66-137.82-151.26-213.63-280.69-411.81-559-939.74-768.1-1610.32q-3.13-2.92-6.29-5.92C-1194.85-1492.18-919.23-964.76-642.54-552.39Z"/><path class="cls-7" d="M-675.25-587.59c51,80.63,103,157.87,152.61,227.84C-234.32-11.09-99.29,289.12,348.56,255.69,640.33,215,819-117.26,833.1-306.07c28.57-155.15,70.23-283,153.33-396.53,176.61-231.76,362.39-359.14,437.67-378.57,47.41-15.76,91.36-15.37,146.22-16.13,51.4-.73,109.75,1.42,171.35-2.9,108.6-6.79,212-61.92,313.95-152.28.38-4,.75-7.94,1.13-11.9-102.3,91.66-206.51,149.69-315.45,157.63-60.76,5-118.5,3-169.17,3.59-54.51.7-98-.21-145.13,15.23-42.36,13.71-103,45.14-181.77,110.31-76.87,64.36-177.67,158.39-261.71,273.77C899-589.58,856.14-461.39,826.69-306.17c-16.08,187.61-189.3,510.27-471,551.77-431.25,37.84-577.65-255.65-862-597-50.22-69.42-101.88-145.12-153.59-225.42-267.86-408.61-533-925.45-733.31-1573.75-2.11-2-4.23-3.95-6.32-5.94C-1201.53-1513-939.6-997.1-675.25-587.59Z"/><path class="cls-7" d="M-708-624.36c51.51,84.53,103.37,164.91,153.24,238C-267.39-27.08-147.51,279.15,313.36,264.36c303.24-30.14,496.1-369.68,509.51-561.27,29.38-157.44,71-286.69,155-401.08,179.25-234.39,365.91-361.89,440.42-380,47.21-15,91-14.08,146.14-14.55,51.8-.38,110.94,2.1,173.08-1.9,110.1-6.25,214.65-61.78,317.74-154.13q.57-6,1.13-11.93c-103.34,93.78-208.63,152.33-319.17,159.45-61.38,4.57-119.87,2.36-171,2.66-54.72.36-98-1.13-145.08,13.87-42.11,13.1-102.45,43.78-181.52,109C1162.27-910.86,1060.16-815.9,975-699.28,889.48-584,846.64-454.52,816.38-297.22,801-106.59,614,222.81,321.31,254.41-121.64,275-254.44-25.1-538.23-377.24c-50-72.08-102.15-151.49-153.62-234.84-255.46-404.57-507.71-910.59-699.2-1536.54l-6.22-5.8C-1208.32-1533.79-959.58-1029.33-708-624.36Z"/><path class="cls-7" d="M-740.65-662.31c51.54,88,103.3,171.42,152.74,247.3C-301.35-44.66-197.48,267.74,276.77,271.77,592,253.15,799.62-93.32,812.48-287.81c30.29-159.71,71.79-290.34,156.88-405.74,182-236.92,369.45-364.54,443-381.08,47.19-14.56,91-13,146.35-13.19,52.19-.11,111.93,2.56,174.56-1,111.71-5.41,217.35-61.47,321.6-155.88.38-4,.76-8.08,1.15-12.12-104.63,95.88-211.06,155.08-323,161.35-61.84,4.28-120.93,1.84-172.41,1.74-55,.1-98.25-1.89-145.19,12.44-41.85,12.49-102,42.68-181.47,108.09-77.8,64.8-181.09,160.45-267.45,278.33C879.87-578.56,837.17-447.61,805.92-288,791-94.66,589.74,241.39,285.54,262-172.3,263.9-288.24-42.9-570.76-404.8c-50-75.24-102-157.62-153.46-244.35-243.51-400.46-483.16-894.88-665.86-1498.56-2-1.89-4.07-3.79-6.1-5.7C-1215.88-1554.86-979.87-1062.69-740.65-662.31Z"/><path class="cls-7" d="M-773.56-702.16c51.58,91.77,103.35,178.8,153.27,258.51,284.9,380.13,370.6,696.64,859,721.48,327.46-5.95,550.91-359.11,563.19-556.68,31.3-161.81,72.73-293.85,159-410.31,184.31-239,372.82-366.94,445.67-382.14,47.06-13.91,90.79-11.86,146.41-11.72,52.58.14,113,3,176.24-.06,113.2-4.53,220-61.1,325.34-157.66q.59-6.19,1.18-12.36c-105.83,98-213.39,157.67-326.81,163.37-62.43,3.85-122.19,1.17-174,.8-55.29-.22-98.45-2.8-145.29,11-41.65,12-101.47,41.55-181.39,107.11-78.27,65-182.73,161.3-270.32,280.43C870.11-573.11,827.5-440.8,795.27-279,780.73-82.66,564.21,259.7,248.33,268.33c-470.74-17.51-570.71-329.58-851.19-701-50.24-78.62-102.51-165-154.3-255.61C-988.09-1083.4-1215.08-1565-1389.28-2147c-2.1-2-4.2-3.91-6.3-5.88C-1224-1576.52-1000.56-1096.94-773.56-702.16Z"/><path class="cls-7" d="M-806.45-743.36c51.12,94.88,103,185.74,152.71,268.5,282.86,390.53,352,710.45,852.89,757.25,340,8,580.13-351.57,591.94-552.2C823.55-433.9,864.9-567.33,952.24-684.69c187.17-241.75,376.41-369.53,448.4-383.2,47-13.37,90.71-10.88,146.64-10.45,53,.54,114,3.74,177.76,1,114.77-3.8,222.59-60.9,329.08-159.55q.6-6.19,1.19-12.39c-106.88,100.18-215.5,160.57-330.57,165.28-62.87,3.49-123.32.52-175.53-.15-55.58-.51-98.74-3.57-145.47,9.58-41.38,11.39-100.93,40.24-181.29,105.94-78.66,65.14-184.44,162.26-273.23,282.7C860.42-567.68,817.91-434,784.45-270,770.37-70.48,537.36,277.78,209.7,273.18-271.61,235.72-356.77-80.21-635.76-462.59c-50.45-82.21-102.6-171.93-154.18-266-218.47-388.85-433.16-857.64-598.73-1417.77-2.1-1.95-4.19-3.89-6.28-5.86C-1232-1597.88-1020.93-1131.47-806.45-743.36Z"/><path class="cls-7" d="M-839.73-786.69C-788.85-688.23-737.17-594-687.75-508c281.07,401.53,332.09,723.76,845.83,793.3,352.7,23.12,610.64-342.16,622.07-546,33.77-166.38,75-301.32,163.46-419.63,189.66-243.77,379.95-372,451.13-384.21,46.89-12.84,90.53-9.72,146.77-9,53.3.74,115.11,4.16,179.33,1.72,116.29-2.63,225.21-60,332.88-161q.63-6.42,1.24-12.83c-108.1,102.23-217.8,163.21-334.34,167.34-63.48,2.94-124.57-.15-177.16-1.09-55.87-.9-98.88-4.52-145.51,8.08-41.17,10.88-100.5,39.17-181.23,104.94C1137.53-901,1030.53-803.12,940.6-681.62c-90,119.27-132.43,254.36-167.14,420.5-13.75,202.88-264,556.5-603.85,537.62-495.46-59.22-562.09-378.64-839.17-771.37C-719.65-580.2-771.55-673.32-823-771c-206.1-381.7-408.26-837-565.15-1374.89-2.05-1.93-4.13-3.84-6.19-5.78C-1240.24-1620.15-1041.91-1167.62-839.73-786.69Z"/><path class="cls-7" d="M-872.65-831.16c50.58,102,101.75,199.59,150.83,288.75C-443-130.4-411.51,191.88,115.71,286.46,481.21,326.24,758-44.63,769.08-252c35.08-168.41,76.24-304.74,165.82-423.94,192.49-246.25,383.68-374.6,454-385.3,46.74-12.25,90.33-8.62,146.77-7.57,53.73,1.06,116.23,4.71,181,2.73,117.86-1.81,227.78-59.74,336.69-163,.41-4.24.83-8.51,1.23-12.75-109.16,104.53-219.92,166-338.06,169.21-64,2.62-125.91-.77-178.89-2.08-56.08-1.12-99-5.39-145.52,6.66-40.86,10.23-99.95,38-181.12,103.9C1131.36-898.52,1023.06-800,931.88-677.21,840.74-557.08,798.38-420.49,762.3-252.28,748.82-46.18,480.45,312.66,128.22,278.08c-510.51-83.6-556.69-404-831.63-806.44-49.41-88.12-101.25-185-152.39-286.25-193.56-373.58-383.34-815.13-531.52-1330.53l-6.38-5.94C-1248.42-1642.27-1062.64-1203.87-872.65-831.16Z"/><path class="cls-7" d="M-905.89-877.78c50.26,105.66,100.37,205.72,148.78,297.83C-480.54-156.95-471,164.54,71.53,285.74,450.37,343.44,747-32.34,757.73-243c36.6-170.76,77.69-308.52,168.54-428.8,195.09-248.3,387.11-376.61,456.78-386.15,46.61-11.59,90.12-7.43,146.86-6.1,54.11,1.46,117.34,5.22,182.65,3.73,119.44-.81,230.4-59,340.4-164.56.41-4.35.84-8.7,1.26-13.05-110.37,106.73-222.26,168.6-341.81,171.08-64.6,2.17-127.13-1.47-180.5-3-56.34-1.45-99.22-6.21-145.58,5.16-39.23,9.33-98.12,36.23-180.65,103-3.28,2.62-6.6,5.36-9.93,8.08-93.11,77.51-194.84,175.26-272.6,280.74-92.29,121.05-134.62,259-172.2,429.46C737.64-33.83,449.89,329.48,85,277.89-438.66,169.21-465.81-151.6-738.13-564.55c-48.88-91.05-100-190.89-150.19-294.86-182.15-365.69-359.44-793.17-498.75-1285.51q-3.2-3-6.39-5.94C-1256.75-1664.39-1083.2-1240.83-905.89-877.78Z"/><path class="cls-7" d="M-939.25-926.24c49.5,108.83,99.34,212.72,147.06,307.87C-518.28-184.6-529.79,133.78,25.82,283,418.09,360.19,735.65-19.83,746.23-234.21c38.22-172.75,79.23-312,171.25-433.19,205.57-260.32,405.61-384.06,459.71-387.18,46.45-11,89.85-6.27,146.85-4.63,54.54,1.77,118.49,5.75,184.4,4.7,120.88-.09,232.92-58.75,344.14-166.5q.63-6.54,1.27-13c-111.48,109.11-224.43,171.58-345.56,173-65.17,1.72-128.47-2-182.22-3.91-56.61-1.86-99.36-7.17-145.56,3.58-39,8.79-97.49,35-180.46,101.91-3.44,2.74-6.91,5.59-10.38,8.4-93.86,78-196.68,176.26-275.34,282.58-93.51,122-135.72,261.33-175,433.94C726-21.58,418.21,345.55,40.43,275.73-496.77,140.14-503.28-178.64-773-602-821.16-696-871.78-799.3-921.48-906.78c-170.15-356.41-336-768.84-467-1239.42-2.21-2-4.39-4.08-6.58-6.13C-1266.81-1687.9-1104.51-1279.41-939.25-926.24Z"/><path class="cls-7" d="M-972-975.74c48.8,112.33,97.65,219.09,144.62,317.35,271,444.61,237.49,758,806,936.5C384.41,376.05,723.88-7.16,734.55-225.41c39.93-175,80.87-315.75,174.16-437.81,208.22-262.2,409.19-386,462.57-388,46.39-10.46,89.68-5.19,146.9-3.19,55,2,119.66,6.27,186.1,5.54,122.43,1,235.52-58.16,347.92-168.33q.65-6.48,1.27-13c-112.69,111.5-226.71,174.39-349.33,174.77-65.69,1.38-129.72-2.61-183.9-4.8-56.82-2.2-99.49-8-145.51,2.09-33.75,7.23-93.64,31.61-181.38,102.2-80.52,65.61-193.11,165.67-287.8,291.6C810.82-541.54,768.57-400.49,727.6-226,714.23-9.1,384.76,361.28-6.06,271.33-555.5,108.66-540.48-206.48-808-641c-47.49-97.28-97.16-203.42-146.39-314.52-158.18-346-313-743.14-435.63-1192.12l-6.6-6.16C-1276.82-1711.74-1125.95-1319-972-975.74Z"/><path class="cls-7" d="M-1005-1027.42c47.77,115.32,95.8,225.35,141.37,325.83C-595-245.1-652.06,61.94-70.25,270.76c419.4,120.62,782.33-265.41,792.9-487.6C764.46-393.77,805.32-536,899.84-658.93c211.35-264.64,413-388.28,465.59-388.88,46.22-9.88,89.46-4.07,147-1.8,55.31,2.3,120.74,6.78,187.76,6.54,124,2.11,238.14-57.39,351.62-170.07.44-4.48.89-8.95,1.32-13.41-113.77,113.92-228.79,177.3-353.1,176.92-66.26.92-131-3.27-185.52-5.77-57.1-2.39-99.69-8.9-145.59.67-33.47,6.59-93.12,30.4-181.34,101.09C1106.5-887.82,992.64-787.1,896.66-660c-96,123.65-138.16,266.14-181.07,442.73C702.18,3.39,350.22,376-53.89,264.75-614.54,73.66-579.41-237.2-843.75-682.71c-46.47-100-95-209-143.65-323.7-146.27-334.36-289.91-715.66-404.31-1142.82l-6.53-6.1C-1286.68-1735.29-1147-1358.73-1005-1027.42Z"/><path class="cls-7" d="M-1037.64-1080.45c46.69,118.25,93.53,231.14,138.12,334.62,265,467.1,182.79,764.31,778.67,1006.69C312.21,405.8,699.73,18.2,710.48-208.2c43.9-179,84.71-322.8,180.51-446.63,214.16-266.57,416.63-390.34,468.57-389.66,46.13-9.31,89.3-2.8,147.16-.25,55.68,2.61,121.77,7.21,189.31,7.49,125.37,3,240.56-57.11,355.4-172.14q.66-6.64,1.3-13.27c-114.93,116.41-231,180.24-356.85,178.84-66.75.42-132.14-3.94-187-6.73-57.43-2.78-99.94-9.81-145.76-.86-33.32,6.21-92.63,29.27-181.41,100.13C1100.16-885.33,985-783.92,887.82-656,790.47-531.4,748.36-387.48,703.37-208.76,689.48,16.08,314,389.94-103.26,255.74c-573.62-222-515.09-525.41-776.11-981.58-45.39-102.67-93.09-214.91-140.61-332.63-134.91-322.76-267.06-687.47-373.19-1092.12q-3.37-3.15-6.76-6.34C-1296.59-1759.3-1168.3-1399.6-1037.64-1080.45Z"/><path class="cls-7" d="M-1070.24-1135.32c45.66,121.39,91.08,236.83,134.44,342.95C-681.87-331.87-778.59-25.74-172.85,248.22,274,419.1,687,31,698-199.67c46.12-180.94,86.88-326.25,184.05-451,217-268.57,420.29-392.21,471.6-390.5,46-8.73,89-1.69,147.09,1.18,56.1,2.94,123,7.69,191.06,8.43,127,3.9,243.33-56.21,359.17-173.59.46-4.65.93-9.29,1.38-13.92-116.27,118.79-233.37,183.39-360.62,180.87-67.33.1-133.56-4.48-188.85-7.59-57.66-3-100-10.66-145.66-2.33-33.11,5.78-92.2,28.28-181.41,99.18-82.07,66.15-198.48,168-297,297.18C780.2-526.38,738.07-380.82,690.88-200.17,676.58,28.76,276.36,403-154.59,244.08c-586.27-254.79-503.74-548.46-760.67-1015-44.38-105.68-90.92-220.77-137.23-341.37-122.52-306.59-245.17-656-344-1041.4l-5.21-4.91C-1306.66-1784.18-1190-1442-1070.24-1135.32Z"/><path class="cls-7" d="M-1102.74-1192.29c44.27,124.18,88.63,242.89,130.61,351.68C-722-369.3-843.06-75.54-226.72,232.68,234.19,431.62,674.19,43.88,685.53-191.45,734-374.27,774.7-521.18,873.15-646.63,1093-917.18,1297.34-1041,1347.83-1037.86c45.76-8,88.75-.43,147,2.72,56.52,3.29,124.2,8.17,192.88,9.4,128.5,5.29,245.81-55.33,362.86-175.4q.69-6.87,1.36-13.72c-117.27,121.21-235.62,186.11-364.3,182.47-67.91-.37-134.92-5.11-190.6-8.59-57.9-3.35-100.16-11.46-145.57-3.89-32.94,5.33-91.8,27.24-181.52,98.26-82.61,66.32-200.36,168.85-300.12,298.88-100,126.3-142,273.2-191.53,455.66-14.75,233.42-441,607.18-885.58,421.69C-805.78-59-698.12-340.94-951.44-818-994.33-926-1039.79-1044.32-1085-1168.32c-111.51-293.29-223.24-624.9-314.09-987.85l-5.81-5.49C-1317.88-1809.63-1211.54-1485.14-1102.74-1192.29Z"/><path class="cls-7" d="M-1135.06-1251.12c42.93,127.07,85.85,248.4,126.13,359.26,246.39,482.66,99,760.67,726.69,1105.9C192.41,442.52,660.44,57.2,672.63-183c51-184.79,91.68-333.23,191.49-459.48,222.77-272.42,428.05-396.49,477.83-392,45.68-7.42,88.55.68,147.25,4.25,56.87,3.5,125.28,8.7,194.45,10.37,130,6.32,248.26-54.9,366.58-177.42.46-4.58.91-9.14,1.37-13.71-118.43,123.9-237.81,189.32-368,184.47-68.42-.87-136.09-5.74-192.16-9.54-58.24-3.74-100.42-12.47-145.73-5.44-32.74,4.81-91.3,26.1-181.53,97.22C1081-877.83,961.84-774.62,860.83-643.65,759.46-516.62,717.36-368,665.37-183.72,649.74,54.43,196.15,425.67-261.5,212.2-872.93-112.64-738.8-379.87-988.22-868.15c-41-110-85-230.88-128.51-356.77-101.5-280.08-203.8-594.47-287-935.65-2-1.83-3.89-3.69-5.84-5.55C-1330.17-1835.88-1233.09-1529.07-1135.06-1251.12Z"/><path class="cls-7" d="M-1166.88-1311.41c41.34,129.67,82.34,252.94,121,366.13,241.52,492.19,65.21,751.7,706.52,1137.41,488.63,260.39,986.25-121.86,999-367.19C713.25-361.48,754-511.55,855.12-638.59c225.92-274.44,432-398.38,481-392.63,45.5-6.81,88.26,2,147.17,5.73,57.3,3.93,126.53,9.26,196.31,11.41,131.41,7.4,250.77-54.21,370.29-179.37q.69-6.94,1.38-13.85c-119.65,126.41-240,192.39-371.77,186.51-69-1.34-137.51-6.32-194-10.44-58.44-4.09-100.48-13.43-145.6-7-32.56,4.42-90.79,24.95-181.57,96.2C1074.59-875.4,954.19-771.7,851.8-639.73,749.07-511.85,707-361.7,652.37-175.89,636,67.2,153.85,435.31-317.42,191.58-937-168.28-780.77-421.09-1024.94-920.1c-39.71-112.77-81.79-235.66-123.94-364.44-91-265.25-183.64-561.35-259.26-880.18q-3.72-3.54-7.42-7.11C-1342.75-1861-1253.9-1571.43-1166.88-1311.41Z"/><path class="cls-7" d="M-1198.19-1372.94c39.46,131.73,79,257.88,115.62,372.88,237.23,503.43,34.27,742.57,684.35,1166.71C104.05,460.83,632.62,83.67,646.3-166.94,702.65-355.14,743.38-506.75,846-634.67c228.81-276,435.83-400.11,484.2-393.16,45.35-6.19,88,3.08,147.15,7.17,57.71,4.21,127.71,9.66,198.07,12.29,132.85,8.61,253.19-53.33,374-181.11q.71-7.07,1.4-14.09c-120.82,129-242.22,195.5-375.53,188.5-69.57-1.7-138.85-6.93-195.73-11.33-58.7-4.34-100.64-14.25-145.59-8.48-32.4,3.94-90.39,23.9-181.71,95.24-84.23,66.82-205.94,171-309.64,304C738.52-507.18,696.33-355.39,638.83-167.82,621.32,80.44,109.27,443.1-375,167.59-1008.91-232.87-822.53-465.3-1061.56-973.9c-37.86-114.67-78.18-239.84-118.71-371.2-81.42-250.36-164.36-527.73-232.56-824.11q-3.74-3.57-7.47-7.21C-1354.91-1888.24-1275.75-1617.76-1198.19-1372.94Z"/><path class="cls-7" d="M-1229.34-1436.5c37.6,133.82,75.24,262.18,109.92,378.93,231.79,513.3-1.44,728.07,660.75,1195.07C57.62,467.68,618,97,632.85-159.29c59.27-189.63,100-342.87,204.06-471.52,232-277.9,439.91-402,487.4-393.78,45.2-5.51,87.75,4.43,147.23,8.82,58.1,4.49,128.88,10.1,199.8,13.22,134.39,9.87,255.64-52.42,377.71-183q.7-7.05,1.41-14c-122,131.79-244.4,198.52-379.23,190.31-70.1-2.21-140.15-7.6-197.42-12.29-59-4.62-100.8-15.24-145.66-10-32.16,3.32-89.88,22.6-181.76,94-84.81,67-207.81,171.75-312.84,305.64C728-502.55,685.8-349.25,625.32-160.16,606.69,93.4,63.56,449.67-434,140.1c-643.36-439.94-430.74-651.31-664.25-1170-35.89-116.59-74.52-244.21-113.2-377.68-72.1-234.66-145.24-492.52-206.15-766.25q-3.69-3.55-7.36-7.15C-1366.85-1915.72-1297.55-1665.15-1229.34-1436.5Z"/><path class="cls-7" d="M-1260.1-1502c35.82,136.29,71.34,266.52,103.72,384.87,226.23,524.22-32.54,714.29,636.05,1221.73C8.74,472.23,602.75,110.66,618.87-151.48c62.56-191.24,103.32-346,208.88-475.44,234.83-279.42,443.76-403.64,490.68-394.36,45-4.9,87.48,5.62,147.26,10.32,58.46,4.9,130.08,10.6,201.52,14.31,136.15,11.06,258.31-51.54,381.42-184.83q.73-7.17,1.45-14.3c-123.33,134.61-246.62,201.88-382.89,192.34-70.68-2.72-141.56-8.23-199.21-13.31-59.27-5-101-16-145.68-11.45-32,2.94-89.42,21.57-181.87,93.13-85.36,67.14-209.71,172.4-316.17,307.2C717.27-497.95,675-343,611.27-152.43,591.25,106.84,15.57,454-494.36,108.9c-653.79-482.22-413.27-668.75-640.74-1197-33.52-117.87-70.21-247.62-107.25-384-63-218.07-126.12-455.35-180-706.29-2.64-2.58-5.26-5.14-7.91-7.75C-1370.4-1911.13-1302.26-1674.72-1260.1-1502Z"/><path class="cls-7" d="M-1290.17-1568.69c33.72,138.07,67,269.82,96.94,389.21,220.64,533.69-73.54,689.3,609.34,1247C-41.76,475.32,587.24,124.38,604.72-144c65.9-192.57,106.76-349.06,213.84-479.15,237.79-281,447.72-405.4,494-394.84,44.84-4.25,87.15,6.8,147.1,11.91,58.93,5.2,131.36,11,203.41,15.17,137.52,12.47,260.68-50.51,385.17-186.71.49-4.88,1-9.75,1.47-14.62C1925.16-1054.8,1801-986.81,1663.06-997.72c-71.29-3.18-143-8.75-201.06-14.19-59.5-5.23-101.06-16.95-145.51-13-31.79,2.43-89,20.51-182,92.15-86,67.29-211.59,173-319.44,308.66-108.59,130.6-150.85,287.25-218,479.07C575.47,120.14-33.84,456.81-556.5,73.71c-665.21-526.83-393.87-684.57-615.27-1222.48-31.31-119.52-65.71-250.63-100.76-389-54.6-201.26-110-419.31-157.17-647.86q-3.21-3.13-6.41-6.33C-1384-1943.6-1326.08-1728.47-1290.17-1568.69Z"/><path class="cls-7" d="M-1319.91-1637.5c31.56,140,62.64,273.55,90.1,394.26C-1016.26-700-1336.58-574.67-649.09,25.92-94.42,476.19,571.4,138.33,590.49-136.77c69.32-193.82,110.27-352,218.77-482.58,241-282.59,451.73-407,497.42-395.35,44.69-3.64,86.85,8.11,147.14,13.51,59.35,5.49,132.56,11.45,205.15,16.17,138.91,13.5,263.11-49.88,388.88-188.73q.75-7.34,1.49-14.65c-125.77,140.21-251.09,208.59-390.41,196.56-71.78-3.59-144.35-9.42-202.77-15.16-59.75-5.6-101.18-18-145.54-14.65-31.61,2-88.59,19.52-182.12,91.23C1042-863,915-756.81,805.77-620.37c-110,131.22-152.51,289.47-223.16,482.44C559.2,133.59-85.36,457.44-620.24,34.3c-672.26-569.66-373.34-697.54-588.11-1245.58-29-121-61.15-253.87-94.15-394.46-46.3-183.17-94.88-381.94-135.6-588.19-1.28-1.26-2.57-2.55-3.84-3.83C-1397.34-1976-1349.93-1784-1319.91-1637.5Z"/><path class="cls-7" d="M-1349.11-1708.09c29.37,142,57.9,276.61,82.67,398,206.78,553-143.8,641.94,550.86,1290.08C-148.8,474.56,554.73,152.38,575.84-129.57,648.83-324.63,689.92-484.5,800-615.71c244-284.09,456-408.94,500.83-395.73,44.51-3,86.59,9.31,147.13,15,59.69,6,133.84,12.17,207,17.33,140.66,15.08,265.66-48.76,392.54-190.66.52-5,1-10,1.53-14.94C1922-1041.52,1795.85-972.57,1654.86-986c-72.36-4.12-145.73-10.08-204.55-16.2-60.07-5.91-101.34-18.94-145.51-16.22-31.4,1.51-88.08,18.29-182.31,90.26-87.16,67.61-215.47,174.27-326,311.4C684.88-484.94,642.29-325,567.87-130.85,542.38,147.21-138.83,455.76-685.41-9.46c-682-617.95-351.95-710.17-559.58-1267.3-26.46-122-56.06-256-86.58-397.43-39-165.54-80.65-344.54-115.28-528.5-1-1-2-1.95-2.94-3C-1412.54-2010.74-1373.47-1839.87-1349.11-1708.09Z"/><path class="cls-7" d="M-1377.41-1779.5c27,143.37,52.79,278.7,74.94,401,199.66,562.81-181,612.42,518.82,1307.62C-205.46,470.38,537.29,166.69,560.7-122.56c77-196,118.24-357.64,229.88-489.44,247.15-285.44,460.12-410.45,504.25-396,44.42-2.45,86.38,10.47,147.24,16.47,60.12,6.27,135.06,12.57,208.76,18.28,142.05,16.44,268-47.78,396.21-192.57l1.53-15c-128.14,146.24-255.18,215.76-397.78,200.75-72.9-4.66-147.11-10.74-206.34-17.14-60.34-6.27-101.53-19.85-145.53-17.76-31.24,1-87.74,17.27-182.44,89.14C1028.71-858.1,899-751,787.05-613,673.87-480.66,631.08-319,552.84-124,524.91,161.23-194.61,451.33-752-57.82c-688.19-664.48-329.13-719.72-529-1285.65-23.9-123-51-258.4-79.09-401.06-32-147.08-66.52-305.27-95.33-466.82l-4.19-4.28C-1429.5-2048-1396.74-1896.14-1377.41-1779.5Z"/><path class="cls-7" d="M-1405.18-1852.91c24.36,144.28,47.56,280.74,66.89,403.44C-1146.15-878-1562.17-876.75-853-126.65-264.17,463.5,519.5,181.12,545.25-115.78,626.59-312.61,667.9-476,781.2-608.47c250.39-286.87,464.5-412.25,507.7-396.23,44.26-1.82,86.07,11.76,147.16,18,60.55,6.62,136.36,13,210.66,19.19,143.55,18,270.39-46.7,399.92-194.51.53-5,1-10.06,1.55-15.09-129.48,149.14-257.45,219-401.51,202.73-73.52-5.14-148.53-11.31-208.19-18.08-60.59-6.62-101.62-20.76-145.45-19.31-31,.61-87.26,16.16-182.58,88.13-88.39,67.9-219.33,175.42-332.78,314.06C662.77-476.48,619.83-313.13,537.33-117.21,506.61,175.15-252.06,444.34-820-111c-685.07-703.89-307.6-745.21-497.08-1302.69-20.83-122.88-45.26-258.93-71.1-403.53-23.09-125.92-48-259.53-71.31-398.35q-4.56-4.66-9.11-9.39C-1447.63-2095.5-1425.7-1970.93-1405.18-1852.91Z"/><path class="cls-7" d="M-1432.07-1927.33c21.82,145.34,42.1,282.07,58.3,404.6,183,579.34-260.26,536.06,450.3,1335.47C-324.55,453.8,501.59,195.58,529.88-109.61,615.3-307,656.9-472,771.76-604.9,1025.19-893,1240.44-1018.58,1283-1001.45c44.07-1.18,85.75,13,147.11,19.65,61,7,137.65,13.48,212.48,20.26,145.12,19.26,272.8-45.85,403.62-196.57.53-5.12,1.06-10.21,1.58-15.31C1917-1021.38,1788-950.9,1642.65-968.48c-74.14-5.66-150-11.9-210.08-19.07-60.86-6.89-101.79-21.64-145.38-20.94-30.92.24-87,15.24-182.82,87.26-89,68-221.35,176-336.26,315.29C651.78-472.59,608.63-307.53,521.87-111.16c-33.38,300.08-833,546.12-1411.32-58.3-690-753-281.34-750.25-463.17-1315.82-17.75-122.76-39.64-260-62.74-405.42-17.57-106.62-37.2-219.94-55.33-336.42q-5-5.25-10.09-10.59C-1464.85-2130.61-1447.36-2025.85-1432.07-1927.33Z"/><path class="cls-7" d="M-1458.26-2003.31c19,145.51,36.22,282.35,49.68,405.47,174.44,586.76-303.31,488.87,413.23,1344.19,608,694.32,1477.63,464,1509.32,150.42C603.88-301.27,645.68-468,762.3-601.58c256.61-289,472.91-415,514.79-396.58,43.9-.55,85.43,14.29,147.07,21.29,61.38,7.29,139,13.88,214.41,21.26,146.67,21,275.24-44.39,407.24-198.37q.81-7.77,1.61-15.52c-132,155.32-261.83,226.15-408.82,206.92-74.72-6.19-151.53-12.51-212-20.14-61.07-7.21-101.86-22.59-145.29-22.5-30.71-.27-86.53,14.16-183,86.24C1008.65-850.81,875-742.57,758.6-602.46,640.54-468.6,597.13-301.81,505.72-104.91,469,203.24-373,421.86-959.85-232.8-1656.28-1040-1215-987.54-1387.61-1559.07c-15-123.39-33.63-260.13-54.19-406.49-12.68-87.24-27.52-180-40.82-274.1q-5.16-5.49-10.35-11.05C-1481.6-2165.9-1469-2082.23-1458.26-2003.31Z"/><path class="cls-7" d="M-1483.56-2080.95c16.1,146.3,30.65,283.94,40.17,405,165.4,595.34-342.75,441.31,375.11,1350.34C-452.45,424.12,462.65,225.32,497.58-97.25c94.82-198.35,136.84-367,255.15-500.86,259.56-290,477.13-416.28,518.37-396.73,43.73.1,85.1,15.48,147,22.79,61.81,7.75,140.37,14.37,216.4,22.25,148.17,22.33,277.6-43.27,410.94-200.28q.81-7.82,1.61-15.61C1913.74-1007.27,1783.1-936,1634.5-956.79c-75.31-6.58-153.07-13-214-21-61.29-7.59-101.92-23.54-145.12-24.12-30.5-.8-86.19,13.21-183.25,85.32C1001.86-848.33,866.88-739.73,749-599,629.24-464.73,585.48-296.19,489.43-99.12c-40.28,316.65-926,504.74-1520.87-202.49C-1727.32-1156-1258.64-1055.54-1422.3-1635c-11.55-122.55-27.67-260.74-45.4-407.75-8.48-67.44-18.11-138.12-27.13-209.92-3.42-3.69-6.85-7.43-10.29-11.18C-1497.78-2201.35-1490.43-2140.15-1483.56-2080.95Z"/><path class="cls-7" d="M-1507.85-2159.25c13.2,146.14,24.21,282.47,30.71,403.22,154.8,601.08-383.65,387.77,335.34,1353,622.44,807,1584.51,643.44,1623,311.26,99.58-198.56,142-368.68,261.92-503.06,263.12-291.44,481.43-417.53,522-396.65,43.55.73,84.88,16.67,147.06,24.34,62.2,8.11,141.6,14.82,218.22,23.27,149.72,24.19,279.87-42,414.58-202.37.54-5.27,1.1-10.55,1.64-15.81-134.59,161.62-266.15,233.56-416.2,211.16-75.84-7.16-154.47-13.7-215.74-22-61.63-7.93-102.14-24.48-145.19-25.7-30.38-1.15-85.8,12.09-183.54,84.3C995-845.9,858.76-736.94,739.4-595.74,618-461,574-290.86,472.84-93.62,428.66,231.66-501.86,386.25-1104.57-376.5c-695-905-198-751-352-1337.79-8.29-122-20.92-258.58-35.87-406.11-5-47.63-11.43-98-16.84-148q-5.91-6.5-11.82-13.11C-1517-2240.62-1511.67-2198.6-1507.85-2159.25Z"/><path class="cls-7" d="M-1531.53-2240.24c10.2,146.61,18.13,282.88,21.25,402.87,145.51,608.8-428.67,324.18,293.48,1350.18C-588.66,379.94,421.58,255.54,464.19-86.4,569-284.8,611.78-456.85,733.44-591.46c266-292.1,485.81-419,525.74-396.73,43.38,1.36,84.57,18,147,25.9,62.63,8.47,143,15.33,220.19,24.39,151.13,25.53,282.17-40.77,418.2-204.32q.84-8.05,1.67-16.06c-135.85,164.74-268.34,237-419.86,213.34-76.44-7.74-156-14.43-217.68-23-61.89-8.34-102.27-25.51-145.12-27.36-30.18-1.67-85.38,11-183.75,83.28C988.22-843.54,850.6-734.21,729.69-592.41,606.53-457.37,562.1-285.57,455.88-88.6c-48.37,334.84-1025.81,451-1634-368.42-695.14-960.29-168.24-745.45-311.91-1337.43-4.64-120.42-14.39-257.88-26-404.61-2.4-27.77-6.54-58.44-9.09-87.1q-6.09-6.86-12.21-13.84C-1535.91-2280.63-1533-2259.35-1531.53-2240.24Z"/><path class="cls-7" d="M-1542.63-1920.56c32.76,400-134.4,489-57.37,823.08,38.93,111.94,124.9,286.14,307.67,520.32C-660.19,351.6,399.88,271,447-81.4c110.2-198,153.38-371.9,276.79-506.9,269.51-293,490.31-420.09,529.45-396.62,43.29,1.93,84.31,19.17,147.1,27.57,63,8.84,144.27,15.77,222,25.43,152.65,27.32,284.52-39.47,421.88-206.47q.84-8.1,1.69-16.16c-137.21,168.06-270.36,241-423.56,215.57-77-8.31-157.42-15.09-219.48-24.17-62.2-8.61-102.44-26.49-145.19-28.92-30-2.09-85,10.06-184,82.35C981.37-841.11,842.47-731.59,720-589.29c-125,135.37-169.91,309-281.64,505.68C385.59,260.77-639.89,335-1252.51-543.42c-694.92-1016.44-137.49-736.64-270.26-1333.06-1.09-118.89-7.5-255.49-16.23-402.72-.54-8-1.87-17.26-2.41-25.37-4.19-4.81-8.39-9.7-12.6-14.61C-1546.84-2173.3-1542.07-2038-1542.63-1920.56Z"/><path class="cls-7" d="M-1574.17-2007.25c121.52,616.94-506.44,196,206.19,1334.16C-733.51,318.85,377.53,286.51,429.64-76.9,545.17-274.31,589-450,714-585.08c272.66-293.78,494.7-421.15,533.32-396.6,43,2.62,83.88,20.46,146.88,29.2,63.48,9.3,145.67,16.25,224.07,26.42,154,29,286.69-38.07,425.54-208.41.59-5.46,1.15-10.92,1.72-16.37-138.58,171.38-272.58,244.93-427.26,217.71-77.6-8.85-159-15.65-221.5-25.18-62.4-8.94-102.48-27.41-145-30.54-29.8-2.59-84.77,9.17-184.36,81.47-93,68.74-233.27,178.62-357.22,321.29C583.52-450.55,538.08-275.21,421-79.24c-58,354.66-1132.59,382-1747.88-556.12-690.65-1069.89-106.31-725.06-227.64-1325.94,2-108.13-1.82-233.25-6.47-366.12q-7.49-8.85-15-17.93C-1573.46-2223.38-1570.56-2106.53-1574.17-2007.25Z"/><path class="cls-7" d="M-1605-2095.18c109.87,622.26-545.75,124.56,160.4,1319C-809.46,281.17,354,302.24,411.51-72.45,533-269.14,577.24-446.6,704.23-582.08c276-294.58,499.17-422.29,537.07-396.34,42.84,3.26,83.59,21.73,146.85,30.77,63.89,9.71,147.08,16.82,226,27.47,155.75,31,289.07-36.56,429.24-210.38.59-5.57,1.17-11.11,1.76-16.66-140,174.86-275,249-430.83,220.16-78.25-9.59-160.63-16.44-223.58-26.3-62.68-9.34-102.57-28.49-144.92-32.23-29.67-3-84.32,8-184.59,80.36-93.63,68.84-235.28,179-360.87,322.17C571.79-447.25,525.85-270,402.75-75,339,290.11-785.71,266-1402.35-734.23c-685.08-1125-74.13-709.55-183.48-1313.79,4.83-89.94,3-196.6,2.46-306.19q-7.61-9.26-15.24-18.74C-1599.59-2273.85-1599.14-2176.63-1605-2095.18Z"/><path class="cls-7" d="M-1634.65-2185.23c97.19,625.41-587.8,41.15,113.24,1299.47C-887,238.81,329.74,317.86,393.18-68.42c127.61-195.71,172.3-375,301.15-510.58C973.65-874.26,1198-1002.17,1235.24-975.13c42.73,3.88,83.3,23,146.88,32.45,64.27,10.06,148.5,17.23,228,28.5,157.07,32.62,291.22-35.33,432.86-212.53q.87-8.34,1.76-16.69c-141.35,178-277.14,252.56-434.46,222.31-78.83-10-162.23-17-225.55-27.44-62.94-9.64-102.72-29.43-144.85-33.83-29.51-3.45-84,7.08-184.93,79.46C960.58-834,817.61-723.58,690.41-580,560-444.09,513.59-265,384.16-71.14c-69.65,375.91-1246,295.7-1862.27-768.52-681.64-1185.91-40.72-689.65-137.83-1297.31,6.41-72.54,7.67-157.94,10-245.14q-7.66-9.58-15.36-19.46C-1624.76-2324.76-1627.72-2249.87-1634.65-2185.23Z"/><path class="cls-7" d="M-1663.27-2275.48c83.06,625.93-623.36-38,64.92,1273C-966.07,193,307.1,333.37,375.61-66c133.19-194,178.66-374.66,308.82-510.13,283-295.69,508.33-424.19,544.84-395.8,42.55,4.52,83,24.29,146.83,34C1440.84-927.32,1526-920,1606-908.27c158.64,34.65,293.45-33.81,436.51-214.53q.89-8.39,1.77-16.76c-142.6,181.69-279.14,256.68-438.13,224.34-79.36-10.62-163.71-17.66-227.42-28.42-63.27-10-102.85-30.4-144.94-35.27-29.22-4-83.49,5.91-185,78.3-95,69-239.27,179.63-368.27,323.46C548.78-441.41,501.56-261,366.7-68.75,291.44,319.15-938.54,180.26-1554-951.69c-674.46-1245.31-7-665.74-91.18-1274.6,7-56.45,12-119.06,16.17-185.19q-9-11.58-18-23.51C-1651.75-2379-1656.38-2324.27-1663.27-2275.48Z"/><path class="cls-7" d="M-1690.65-2369.24c69.24,627.58-663.35-133.08,15.42,1242.95C-1047.85,140.07,281.08,349.17,356.59-62.76c139.6-192.4,185.76-374.87,317.82-510.5,286.27-296,512.69-424.67,548.83-395.39,42.39,5.15,82.69,25.49,146.79,35.67,65.15,11,151.31,18.24,232,30.73,160.21,36.59,295.8-31.91,440.06-216.41q.93-8.61,1.83-17.2c-144,185.06-281.27,260.7-441.75,226.64-80-11.2-165.33-18.36-229.52-29.5-63.49-10.47-103-31.4-144.82-36.94-29.1-4.4-83.24,5-185.43,77.39-95.75,69.06-241.3,179.88-371.93,323.92C536.84-438.47,488.85-256.27,347.6-65.86c-82.3,400-1366.55,194.09-1977.53-1004.85-664.28-1302.91,27.73-637.68-43.23-1248.44,6.46-39.51,9.69-86.48,14.63-131.29q-9.45-12.73-19-25.88C-1682.34-2440.67-1684.8-2401.28-1690.65-2369.24Z"/><path class="cls-7" d="M-1716.89-2463.91c55.4,629.55-702.78-235.58-34.71,1206.88C-1132.26,80.41,253.71,365.25,337-60,483.41-250.5,530.36-434.78,664.39-570.43c289.68-296.45,517.55-425.78,552.81-395,42.25,5.76,82.38,26.79,146.85,37.33,65.54,11.39,152.69,18.75,234,31.87,161.58,38.48,297.83-30.95,443.69-218.89q.91-8.49,1.81-17c-145.41,188.73-283.38,264.94-445.36,228.86-80.61-11.8-166.88-19-231.48-30.62-63.78-10.79-103.1-32.46-144.85-38.59-28.89-4.94-82.87,4-185.81,76.41-96.41,69.09-243.29,180.06-375.59,324.47C524.8-435.68,476-251.57,327.87-63.18c-90.13,411.94-1429,133.7-2033.53-1133.62-652.08-1360.4,62.34-605.66,5.85-1215.14,4.94-23.61,6.41-54.61,10.66-80.55q-9.74-13.68-19.55-27.77C-1712.2-2502.79-1713.1-2480.27-1716.89-2463.91Z"/><path class="cls-7" d="M-1741.93-2560.23c39.8,627.77-737.63-338.51-85.59,1164.94C-1218.79,14.41,225.5,381.33,317-57.59,470.5-246,518.27-432.19,654.33-567.78c293-296.63,522.06-426.28,556.86-394.42,42,6.43,82,28.12,146.72,39.05,66,11.8,154.24,19.21,236.11,33,163,40.64,300-29.28,447.26-220.9q.95-8.68,1.85-17.36c-146.68,192.47-285.49,269.25-449,231.25-81.2-12.43-168.56-19.72-233.55-31.77-64.06-11.22-103.2-33.48-144.76-40.27-28.74-5.32-82.69,3.17-186.26,75.54-97.17,69.16-245.32,180.22-379.27,324.84C512.68-433,463.07-247.15,307.75-61,208.91,363.48-1185.55,6.22-1780.82-1329.77c-636.78-1417,97-568.79,55.15-1178,2.27-8.5,2.59-21.29,4.73-30.27q-9.87-14.41-19.82-29.31C-1741.33-2565.38-1741.37-2562.23-1741.93-2560.23Z"/><path class="cls-7" d="M-1902.5-1540.78C-1306.89-57.66,196.1,397,296.52-55.82,457.44-241.46,506.06-429.52,644.1-565.17c296.3-296.58,526.73-426.78,561-393.76,41.9,7,81.69,29.27,146.61,40.68,66.42,12.32,155.74,19.69,238.28,34,164.39,42.35,302.11-28,450.92-223.15q.93-8.7,1.86-17.37c-148.07,196.28-287.59,273.84-452.64,233.49-81.84-13-170.28-20.22-235.72-32.78-64.28-11.61-103.18-34.6-144.54-42-28.62-5.77-82.38,2.18-186.69,74.59C925.22-822.21,775.69-710.93,640-566.14,500.5-430.53,449.91-242.71,287.23-59.43,179.61,378-1271.67-63.77-1855.33-1470c-615.24-1460.29,117.22-539.95,101.39-1117.24q-10.53-16.07-21.13-32.68C-1775.06-2063.54-2521-3062.16-1902.5-1540.78Z"/><path class="cls-7" d="M-1976.42-1693.77C-1397.12-136.78,165.79,413,275.88-54.54c168.41-182.71,217.91-372.67,358-508.13C744-681.82,878.69-787.29,993.76-869.75,1083-932,1150.13-965.44,1199-955.69c41.78,7.56,81.43,30.54,146.63,42.29,66.86,12.8,157.23,20.27,240.32,35.28,165.94,44.62,304.31-26.16,454.53-225.35q.94-8.87,1.9-17.68c-149.67,199.65-290,277.94-456.31,236-82.39-13.69-171.88-21-237.73-33.93-64.56-12-103.35-35.6-144.52-43.7-44.92-9.42-104.9,18-185.81,72.85-6.87,4.64-13.91,9.48-21,14.41-117.56,84.61-255,191.76-367.18,311.85C488.23-428.16,436.54-238.61,266.54-58.4,149.27,392.73-1360.1-140.85-1928.92-1617.63c-586.35-1487.52,115.89-527.74,139.68-1024.75q-11.57-18.47-23.19-37.61C-1851.82-2206-2563.08-3239-1976.42-1693.77Z"/><path class="cls-7" d="M-2049-1854.43C-1489.14-223.21,133.78,428.68,254.59-53.73,430.89-233,481.44-424.94,623.65-560.15,722-665.78,839-758.81,945.41-837.76,1082.14-939.49,1154-962.9,1192.89-952.38c41.62,8.19,81.15,31.83,146.69,43.91,67.26,13.28,158.69,20.76,242.38,36.45,167.51,46.86,306.41-24.72,458.1-227.69q1-9,1.92-17.89c-151.07,203.73-292.1,282.72-459.87,238.48-83-14.28-173.53-21.64-239.79-35.06-64.87-12.39-103.53-36.68-144.61-45.28-33.26-7.69-86.33,3.5-185.55,71.32-19.84,13.31-41.38,28.5-64.35,45.28-108.78,81-228,175.21-328.26,281.66C475.85-426,423.08-234.47,244.94-57.84,116.94,406.84-1450-225.19-2001.19-1772.39-2549.66-3261.14-1891.7-2298-1830.3-2709.75q-12.57-21.18-25.23-43.21C-1931.83-2367.74-2597.33-3405.23-2049-1854.43Z"/><path class="cls-7" d="M-2322.09-2756.58c2.06,105.62,44.69,333,202.77,735.57C-1857.25-1301.07-1294-510.74-790.52-190.37-285.09,171.55,160.5,63.5,232.86-53.5,417.34-229.08,469.15-422.85,613.34-557.84c99.78-105.82,218-198.82,325.44-278,137.49-101.59,209.3-124.49,248-113.31,41.47,8.82,80.81,33,146.58,45.57,67.7,13.73,160.22,21.26,244.56,37.58,169,48.94,308.57-22.64,461.72-229.6.64-6,1.3-12,1.93-17.91C1889.07-906,1747.35-826.78,1578.08-873.16c-83.69-14.88-175.3-22.26-242-36.23-65.1-12.78-103.58-37.6-144.46-46.87-33.06-8.2-86.16,2.59-186,70.37-19.8,13.18-41.34,28.27-64.39,45-109.8,81-230.35,175.36-332,281.94-145.85,135-199.81,328.34-385.92,501.1C147.85,57.46-285.85,156.49-776.8-189.8-1266-497-1812.36-1249.56-2072.13-1935.22c-513.43-1497.71,101-529.64,196.09-853.94q-17.09-30.57-34.32-62.8C-2032.5-2720.69-2278-2967.45-2322.09-2756.58Z"/><path class="cls-7" d="M-2188.18-2196.58C-1937.38-1448-1367.68-598.36-850.41-243-331.72,156.64,134.55,62,211-54.09,403.48-225.4,456.52-420.86,602.84-555.47,704.18-661.53,823.82-754.81,932.36-834c138.14-101.27,209.86-123.56,248.28-111.89,41.3,9.45,80.53,34.3,146.54,47.27,68.16,14.19,161.8,21.79,246.73,38.81,170.55,51.37,310.67-20.82,465.27-231.78q1-9.22,2-18.38c-154.11,211.27-296.43,291.44-467.08,242.95-84.3-15.52-177-23-244.12-37.34-65.36-13.27-103.71-38.73-144.44-48.61-32.85-8.75-85.91,1.69-186.51,69.44-19.82,13.1-41.35,28.06-64.29,44.56-111,81.2-232.92,175.64-336,282.43-147.88,134.54-203,329.66-397.58,498C121.41,55.59-332.14,141.18-836.07-241.5c-502.68-341-1055.75-1150.35-1305.62-1864.51-471.72-1484.55,91.92-537.2,215.49-775.93q-15.35-29.28-30.76-60C-2093.18-2735.91-2657.62-3745.9-2188.18-2196.58Z"/><path class="cls-7" d="M-2426.5-3147.12c-5.46,99.79,25.79,333.15,171.65,767.13,238,776.6,812.47,1687.37,1343.14,2079.66C-380.32,139.08,107.3,60,188.35-55,389.54-221.71,443.88-419.09,592.41-553.32,695.26-659.5,816.22-752.88,925.82-832.25,1064.63-932.88,1136.37-955,1174.53-942.77c41.15,10,80.2,35.56,146.49,48.91,68.55,14.82,163.36,22.3,248.93,40.14,171.79,53.55,312.6-19.44,468.82-234.18q1-9.22,2-18.43c-155.42,215.44-298.41,296.25-470.66,245.38-84.91-16.21-178.8-23.68-246.29-38.65-65.63-13.56-103.8-39.74-144.36-50.24-32.65-9.28-85.68.71-186.94,68.4-19.82,13-41.35,27.85-64.32,44.23-112,81.31-235.23,175.84-340,282.73-150,134.15-206.59,331.14-409.81,494.61-84.38,113-558.56,183.2-1075-237.71-515.8-376.67-1073.84-1244.5-1312.09-1985.64-430.1-1469,79-560.18,226.26-710.15q-18.62-38.39-37.38-79C-2160.59-3049-2372.68-3316.92-2426.5-3147.12Z"/><path class="cls-7" d="M-2318.14-2569.13c223.61,803.28,801.06,1776.69,1344.61,2207.47,543.46,480.73,1053,418.84,1138.87,305C375.4-218.18,431.19-417.47,581.88-551.18,686.22-657.42,808.47-750.87,919.1-830.29c22.48-15.83,43.59-30.24,63-42.79,100.39-66.17,153.39-75.65,186.25-66.45,41,10.66,79.89,36.87,146.48,50.6,69,15.3,165,23,251.17,41.36,173.21,55.85,314.65-17.6,472.35-236.34q1.05-9.45,2.06-18.87c-157,219.24-300.72,301-474.25,248-85.55-16.83-180.58-24.3-248.52-39.85-65.91-14-103.9-40.82-144.28-52-32.5-9.74-85.57-.07-187.53,67.56-19.76,12.85-41.31,27.59-64.26,43.83-113,81.29-237.67,176-343.95,282.93C425.46-418.69,367.29-220,155.24-61.72,66,49.81-429.39,103.09-957.7-357.74c-528.49-413.88-1089.9-1341.85-1314.89-2108.88-389.78-1453.48,65.19-593.44,230.38-655.36q-17.09-38.25-34.22-78.57C-2250.39-3173.3-2699.61-4073.61-2318.14-2569.13Z"/><path class="cls-7" d="M-2379-2767.35c207.53,829.83,786.66,1868.59,1342.9,2339.87C-480.93,96.72,51.4,53.44,141.83-59.06,361-214.84,418.56-416,571.47-549.27c105.73-106.3,229.34-199.79,341-279.24C1053-928.79,1124.61-949.89,1162.14-936.33c40.83,11.3,79.6,38,146.4,52.29,69.42,15.79,166.6,23.48,253.43,42.5,174.62,58.4,316.65-15.44,475.93-238.5.7-6.27,1.38-12.51,2.06-18.76-158.41,223.37-302.71,305.56-477.82,250-86.17-17.51-182.37-25-250.73-41-66.18-14.43-104-41.95-144.17-53.67-32.33-10.22-85.36-1-188,66.56-19.82,12.8-41.3,27.36-64.21,43.37C800.76-752,674.9-657.42,567-550.42c-154.41,133.08-214,333.66-435.38,486-94,110-611.34,144.87-1151.21-357.79-540.9-452.95-1104.36-1443.39-1314.61-2236-345-1414.45,52.77-630.54,228.72-612q-17.48-42.89-34.94-88.11C-2322.65-3409.48-2713.48-4225-2379-2767.35Z"/><path class="cls-7" d="M-2436.5-2972.79c189.77,855.6,768.67,1961.36,1337,2474.93C-533.2,71.59,22.52,48.84,117.89-62.19,346.44-211.74,405.68-414.77,560.8-547.3,668.08-653.58,793-747.16,905.75-826.66,1047.52-927.29,1118.68-947.33,1155.93-933c40.75,11.77,79.31,39.24,146.42,53.9,69.9,16.4,168.2,23.94,255.65,43.81,176,60.91,318.58-13.9,479.5-241q1-9.37,2-18.73c-159.88,227.52-304.7,310.64-481.38,252.45-86.83-18.19-184.13-25.77-253-42.31-66.4-14.86-104.06-43-144.18-55.27-32.18-10.73-85.25-1.9-188.69,65.63-19.75,12.63-41.29,27.12-64.13,43C792.94-750.14,665.75-655.42,556.34-548.51,399.7-416.16,338.41-213.75,107.51-67.73,8.63,40.56-531.35,55.23-1082.2-491.16-1635.11-985-2198.9-2039.94-2392.72-2857.38c-300.59-1368.36,41.36-675.89,221.22-583.62q-18-48.9-35.82-100.49C-2390.8-3666-2723.88-4376-2436.5-2972.79Z"/></g></g><polygon class="cls-8" points="89.64 73.84 59.94 90.39 59.94 6.5 89.64 23.28 89.64 73.84"/><polygon class="cls-9" points="30.36 6.61 30.36 40.62 45.09 48.78 75.02 31.78 30.36 6.61"/><polygon class="cls-10" points="75.02 65.33 75.02 31.78 30.36 57.17 30.36 90.5 75.02 65.33"/><polygon class="cls-11" points="75.02 31.78 30.36 40.62 45.09 48.78 75.02 31.78"/><polygon class="cls-12" points="75.13 65.22 59.94 90.39 59.94 73.83 75.13 65.22"/><polygon class="cls-13" points="59.94 6.5 59.94 23.28 30.36 6.61 30.36 40.62 45.09 48.78 59.94 40.35 59.94 40.35 30.36 57.17 30.36 90.5 59.94 73.83 59.94 90.39 89.64 73.84 89.64 23.28 59.94 6.5"/></g></g></svg>