<svg id="Слой_1" data-name="Слой 1" xmlns="http://www.w3.org/2000/svg" viewBox="0 0 120 64.28"><defs><style>.cls-1{fill:#6bf;}.cls-2{fill:#fff;}</style></defs><title>120x97</title><path class="cls-1" d="M60.74,44.22V17.56a0.53,0.53,0,0,0-1-.31l-2.94,4.09a5.1,5.1,0,0,0-1,3V47.73c1.18-.77,2.4-1.63,3.66-2.58Z" transform="translate(0 -17.03)"/><path class="cls-1" d="M78.16,30.28c-1.23-1.63-5.95-1.76-10.7,1.34V25.23a3.62,3.62,0,0,0-1.24-2.72l-2.39-2.09a0.75,0.75,0,0,0-1.24.56V42.71a48.89,48.89,0,0,0,4.82-4.65l0,0V33.54c2.45-1.4,4.06-1.05,4.53-.43,1.39,1.84-3.63,8-11.2,13.68s-14.84,8.86-16.22,7c-0.78-1,1.4-4.86,4.61-8V51.4A38.64,38.64,0,0,0,54,48.89v-22a0.53,0.53,0,0,0-1-.31l-2.94,4.09a5.1,5.1,0,0,0-1,3V43.95c-5.27,5.35-8.79,11.78-7.32,13.73,1,1.38,3.74,1.33,7.32.12v1.75a3.62,3.62,0,0,0,1.24,2.72l2.39,2.09A0.75,0.75,0,0,0,54,63.8V55.74q0.91-.46,1.85-1v11.7a0.53,0.53,0,0,0,1,.31l2.94-4.09a5.1,5.1,0,0,0,1-3V51.77q0.92-.62,1.85-1.29v7a0.53,0.53,0,0,0,1,.31l2.94-4.09a5.1,5.1,0,0,0,1-3v-4C75.47,39.89,80.15,32.91,78.16,30.28Z" transform="translate(0 -17.03)"/><path class="cls-2" d="M4.46,81.17H2.8V74H0V72.67H7.25V74H4.46v7.21Z" transform="translate(0 -17.03)"/><path class="cls-2" d="M13.38,78v3.2H11.71v-8.5h3.71a3.62,3.62,0,0,1,2.37.71,2.37,2.37,0,0,1,.86,1.93,2.47,2.47,0,0,1-1.76,2.43l2,3.43H17L15.19,78H13.38Zm0-4.07v2.9h1.88a1.83,1.83,0,0,0,1.24-.38,1.34,1.34,0,0,0,.44-1.07,1.31,1.31,0,0,0-.46-1.06,1.87,1.87,0,0,0-1.25-.39H13.38Z" transform="translate(0 -17.03)"/><path class="cls-2" d="M22.93,78.78h1.62a1.28,1.28,0,0,0,.66.94,2.72,2.72,0,0,0,1.44.36A2.52,2.52,0,0,0,28,79.73a1,1,0,0,0,.53-0.87,0.88,0.88,0,0,0-.39-0.74,3.44,3.44,0,0,0-1.27-.47l-1.21-.26a4,4,0,0,1-1.91-.84,1.92,1.92,0,0,1-.63-1.48,2.15,2.15,0,0,1,1-1.83,4.18,4.18,0,0,1,2.51-.7,4.1,4.1,0,0,1,2.48.69,2.24,2.24,0,0,1,1,1.82H28.5a1.22,1.22,0,0,0-.56-0.93,2.32,2.32,0,0,0-1.31-.34,2.28,2.28,0,0,0-1.28.32,1,1,0,0,0-.49.85,0.81,0.81,0,0,0,.38.69,3.6,3.6,0,0,0,1.24.45l1.08,0.22a4.52,4.52,0,0,1,2.06.86,1.92,1.92,0,0,1,.64,1.51,2.24,2.24,0,0,1-1,1.92,4.55,4.55,0,0,1-2.69.71,4.48,4.48,0,0,1-2.6-.68A2.27,2.27,0,0,1,22.93,78.78Z" transform="translate(0 -17.03)"/><path class="cls-2" d="M50.44,81.17h-1.5v-6h0l-2.7,6H45l-2.7-6h0v6H40.79v-8.5h1.94l2.86,6.41h0.05l2.86-6.41h1.93v8.5Z" transform="translate(0 -17.03)"/><path class="cls-2" d="M61.51,81.17L60.72,79H57.28l-0.8,2.2H54.76l3.32-8.5H60l3.32,8.5H61.51Zm-2.54-7L57.67,77.8h2.66L59,74.17h0Z" transform="translate(0 -17.03)"/><path class="cls-2" d="M69.26,78v3.2H67.59v-8.5H71.3a3.62,3.62,0,0,1,2.37.71,2.37,2.37,0,0,1,.86,1.93,2.47,2.47,0,0,1-1.76,2.43l2,3.43H72.9L71.06,78H69.26Zm0-4.07v2.9h1.88a1.83,1.83,0,0,0,1.24-.38,1.34,1.34,0,0,0,.44-1.07,1.31,1.31,0,0,0-.46-1.06,1.88,1.88,0,0,0-1.25-.39H69.26Z" transform="translate(0 -17.03)"/><path class="cls-2" d="M80.86,81.17H79.19v-8.5h1.67v4h0.06l3.73-4h1.92L83,76.44l3.88,4.73h-2l-3-3.71-0.92,1v2.73Z" transform="translate(0 -17.03)"/><path class="cls-2" d="M97.1,79.88v1.28h-6v-8.5h6V74H92.72v2.3h4.14v1.21H92.72v2.43H97.1Z" transform="translate(0 -17.03)"/><path class="cls-2" d="M105.82,81.17h-1.66V74h-2.8V72.67h7.25V74h-2.79v7.21Z" transform="translate(0 -17.03)"/><path class="cls-2" d="M112.68,78.78h1.62a1.28,1.28,0,0,0,.66.94,2.72,2.72,0,0,0,1.44.36,2.52,2.52,0,0,0,1.38-.34,1,1,0,0,0,.53-0.87,0.88,0.88,0,0,0-.39-0.74,3.44,3.44,0,0,0-1.27-.47l-1.21-.26a4,4,0,0,1-1.91-.84,1.92,1.92,0,0,1-.63-1.48,2.15,2.15,0,0,1,1-1.83,4.18,4.18,0,0,1,2.51-.7,4.1,4.1,0,0,1,2.48.69,2.24,2.24,0,0,1,1,1.82h-1.59a1.22,1.22,0,0,0-.56-0.93,2.32,2.32,0,0,0-1.31-.34,2.28,2.28,0,0,0-1.28.32,1,1,0,0,0-.49.85,0.81,0.81,0,0,0,.38.69,3.61,3.61,0,0,0,1.24.45l1.07,0.22a4.52,4.52,0,0,1,2.06.86,1.92,1.92,0,0,1,.64,1.51,2.24,2.24,0,0,1-1,1.92,4.55,4.55,0,0,1-2.69.71,4.48,4.48,0,0,1-2.6-.68A2.27,2.27,0,0,1,112.68,78.78Z" transform="translate(0 -17.03)"/></svg>