<?xml version="1.0" encoding="UTF-8"?>
<svg width="120px" height="97px" viewBox="0 0 120 97" version="1.1" xmlns="http://www.w3.org/2000/svg" xmlns:xlink="http://www.w3.org/1999/xlink">
    <!-- Generator: Sketch 53.2 (72643) - https://sketchapp.com -->
    <title>BO_Brand_logo</title>
    <desc>Created with Sketch.</desc>
    <g id="BO_Brand_logo" stroke="none" stroke-width="1" fill="none" fill-rule="evenodd">
        <g id="Group" transform="translate(20.000000, 4.000000)" fill="#065C73" fill-rule="nonzero">
            <path d="M65.4911529,51.0280893 C65.9270118,51.3403571 66.3157647,51.2849464 66.6807059,51.3419107 C68.4505412,51.6179286 69.8440471,52.4278571 70.5449412,54.1580179 C70.8384471,54.8819821 70.8120471,55.6173393 70.4833412,56.3480357 C70.3523765,56.6390714 70.2058824,56.7219286 69.8973647,56.6706607 C68.5432,56.4453929 67.4861647,55.7509464 66.6439529,54.68675 C65.9901647,53.8607679 65.5553412,52.9653929 65.4999529,51.8835893 C65.4621647,51.1394286 65.0252706,50.8924107 64.3155765,51.1415 C63.9842824,51.2580179 63.6043294,51.2160714 63.3387765,51.4983036 C63.0747765,51.0477679 63.2683765,50.8975893 63.6617882,50.8380357 C63.9345882,50.7966071 64.1996235,50.7065 64.4724235,50.6619643 C65.0237176,50.572375 65.3762353,50.2440536 65.2768471,49.7106607 C64.8787765,47.5801964 66.6993412,45.6346071 68.8988235,45.0561607 C69.7073882,44.8433214 70.5294118,44.7609821 71.3617882,44.8961429 C72.0994353,45.0157679 72.3587765,45.4543929 72.16,46.2161607 C71.8680471,47.3347321 71.0501647,47.9996607 70.1308235,48.575 C68.9640471,49.3056964 67.6808,49.7360357 66.3437176,50.0182679 C65.9963765,50.0918036 65.6852706,50.2191964 65.3513882,50.5335357 C66.2872941,50.5029821 67.1264,50.4677679 67.9660235,50.4506786 C68.3775529,50.4423929 68.7916706,50.4480893 69.2016471,50.4822679 C69.8580235,50.5376786 70.4486588,50.2595893 70.6174118,49.619 C71.2225412,47.3259286 74.1218824,46.2073571 76.1805647,46.2208214 C77.2924706,46.2280714 78.3246588,46.4750893 79.3345882,46.911125 C79.7160941,47.0758036 79.7782118,47.2715536 79.6374118,47.6438929 C79.2528,48.662 78.4100706,49.136875 77.4788235,49.4905714 C75.5169412,50.2357679 73.4675765,50.3678214 71.3944,50.3030893 C71.0641412,50.2927321 70.7235294,50.2409464 70.3653176,50.5718571 C71.4368471,50.644875 72.3965647,50.9032857 73.3697412,51.0948929 C74.0644235,51.2316071 74.7290824,51.5252321 75.4512,51.2217679 C75.6147765,51.1528929 75.7788706,51.1062857 75.9129412,50.982 C77.7997647,49.231125 80.0308235,48.9861786 82.4032,49.5915536 C83.9654588,49.9903036 85.4117647,50.6640357 86.5769882,51.8400893 C87.0941176,52.3615714 87.0682353,52.6500179 86.3911529,52.9876607 C85.2714824,53.5453929 84.0746824,53.45425 82.9094588,53.2724821 C80.6903059,52.9260357 78.4711529,52.5490357 76.3731294,51.681625 C76.0816941,51.5609643 75.7472941,51.5231607 75.3885647,51.6531429 C75.5671529,51.7303036 75.7431529,51.81575 75.9253647,51.8835893 C77.0134588,52.2885536 78.0984471,52.6961071 79.0866353,53.3268571 C79.2916235,53.4573571 79.5395765,53.5531607 79.8118588,53.5495357 C81.0304,53.5334821 82.1314353,53.9311964 83.1801882,54.5179286 C84.3909647,55.1952857 85.4329882,56.0538929 86.284,57.1652143 C87.1293176,58.2698036 87.6604235,59.4924643 87.8897412,60.8518393 C87.9968941,61.4882857 87.7308235,61.6985357 87.1603765,61.4862143 C85.5106353,60.8730714 84.2677647,59.6902857 83.0580235,58.489375 C81.7261176,57.1678036 80.4185412,55.8146429 79.4883294,54.1528393 C79.1668706,53.5780179 78.4934118,53.479625 77.9747294,53.1927321 C77.1496,52.7365 76.2918588,52.3206607 75.3321412,52.0695 C75.5443765,52.4532321 75.9274353,52.5107143 76.252,52.65675 C78.6461176,53.7344107 80.1757647,55.5163571 80.7167059,58.1139286 C80.8782118,58.8901964 80.7037647,59.6032857 80.3548706,60.2894464 C80.0882824,60.8145536 79.9055529,60.8580536 79.4117176,60.48675 C78.8329882,60.05175 78.3448471,59.5354464 77.9089882,58.9466429 C76.5864,57.1610714 75.6008,55.2408571 75.2803765,53.0130357 C75.1732235,52.2668036 74.6975059,51.8561429 73.9857412,51.6748929 C72.8960941,51.3978393 71.8048941,51.1440893 70.6841882,51.0317143 C70.5889412,51.021875 70.4926588,50.9669821 70.3891294,51.1471964 C70.6531294,51.2476607 70.9047059,51.3740179 71.1718118,51.4397857 C73.1864941,51.9369286 74.6043294,53.1264464 75.4082353,55.0461429 C75.7938824,55.966375 75.6717176,56.8519107 75.2767529,57.7338214 C75.1483765,58.0201964 74.9868706,58.0331429 74.7140706,57.9399286 C73.9919529,57.6923929 73.3376471,57.34025 72.8127529,56.7814821 C71.4943059,55.3780893 70.4559059,53.834875 70.3192471,51.8276607 C70.2793882,51.2398929 69.8828706,50.9027679 69.3160471,50.9017321 C68.0809412,50.898625 66.8416941,50.7852143 65.4911529,51.0280893 Z" id="Path"></path>
            <path d="M14.564,83.3408214 C12.9349647,83.48375 11.3768471,84.1481607 9.71157647,84.0119643 C6.77082353,83.7716786 4.54908235,82.4174821 3.0976,79.4796786 C5.71689412,80.3533036 8.2632,80.7261607 10.8783529,80.0239464 C6.05854118,78.9468036 1.07256471,78.1896964 -8.8817842e-15,71.7340893 C9.856,77.3751071 19.2569882,78.2264643 28.2392,69.9640536 C27.8949647,72.0836429 26.7820235,73.6009643 25.9496471,75.2047679 C24.3175059,78.3491964 22.6035765,81.4811964 20.0836706,84.0280179 C17.2542118,86.887625 12.5524235,87.5126786 8.68042353,85.5127143 C11.0046588,85.2102857 12.9789647,84.495125 14.8989176,83.6209821 C15.3384,83.045125 16.0356706,82.90375 16.5124235,82.59925 C15.9311059,82.8110536 15.3052706,83.2346607 14.564,83.3408214 Z" id="Path"></path>
            <path d="M37.9916706,58.9052143 C35.6420706,59.0124107 33.9783529,60.4370357 32.3596706,61.8989464 C31.4444706,62.7254464 30.6571294,63.69125 29.7652235,64.5457143 C26.7007529,67.4835179 21.7908706,67.5244286 18.4297882,64.5881786 C21.3120471,64.4944464 23.3329412,62.7275179 25.4004235,61.1708393 C27.2468706,59.7803929 29.0632941,58.3707857 31.5526588,57.2661964 C29.7150118,57.0673393 28.5637647,57.7089643 27.4280471,58.373375 C24.9754353,59.8078393 22.4705412,61.0952321 19.6716235,61.7560179 C16.5719529,62.4872321 11.5632,59.8637679 10.7101176,56.9627321 C10.4347294,56.0254107 11.2018824,56.1895714 11.5740706,56.3599464 C14.0686118,57.5023393 16.5745412,56.9347679 19.0494118,56.4132857 C20.8316706,56.0373214 22.4477647,54.9896964 24.3511529,55.0316429 C24.6757176,55.0388929 24.8838118,54.8146607 24.8253176,54.487375 C24.7393882,54.0078393 24.3107765,54.146625 24.0162353,54.1455893 C21.0941176,54.132125 18.1647529,54.0047321 15.2519529,54.1694107 C10.6883765,54.4273036 7.69223529,52.1435536 5.51552941,48.4781607 C4.73232941,47.1591786 3.99312941,45.7770179 3.56814118,44.0649821 C7.12489412,46.3611607 10.6899294,48.1705536 15.0107294,47.8821071 C7.91430588,45.8324286 4.72611765,40.5508036 3.10847059,33.7140536 C5.83543529,36.6042143 8.58931765,39.1774464 12.4618353,40.2116071 C6.38207059,35.4773571 2.31388235,29.8404821 3.86630588,21.5713393 C5.75054118,24.2636786 7.52037647,27.0202321 10.4269647,29.1916071 C7.79369412,24.3594821 4.884,19.8401429 4.98028235,14.3467143 C5.07811765,8.75385714 8.01887059,4.30028571 11.2562353,1.98951966e-13 C10.4098824,3.20657143 10.2390588,6.4525 10.3244706,9.747625 C10.5222118,17.39275 13.3739294,23.9985357 18.0011765,29.9347321 C21.9927529,35.0553036 27.1775059,38.7191429 32.6733647,42.0406786 C36.8466353,44.5626429 40.8314824,47.3228214 43.1546824,51.8908393 C44.1527059,53.8535179 44.5067765,55.86125 44.5968471,58.0129464 C44.6527529,59.3371071 44.0647059,59.4158214 43.0801412,59.1827857 C41.3289412,58.9476786 39.9551059,58.8368571 37.9916706,58.9052143 Z" id="Path"></path>
            <path d="M65.4274824,50.6516071 C59.5527059,53.2067143 56.4872,57.7835357 53.7912941,62.723375 C51.0876235,67.6782321 48.5692706,72.7656607 44.0284706,76.4212143 C39.5135529,80.0555357 34.5275765,82.1616607 28.5948235,81.4925893 C27.5766118,81.377625 26.6298353,81.1756607 25.5769412,80.6065357 C29.7962824,79.7142679 33.8090824,78.6221071 37.1220235,75.9282143 C43.4197176,70.8076429 46.9733647,64.4789107 45.8857882,56.0502679 C45.6740706,54.4107321 45.9794824,52.7028393 46.0648941,51.0275714 C46.0757647,50.8173214 46.1772235,50.5998214 46.2776471,50.4076964 C49.1164235,44.9924643 56.3940235,43.7739464 60.8085176,47.9468393 C62.0187765,49.0902679 63.3061647,50.1539464 65.4274824,50.6516071 Z" id="Path"></path>
            <path d="M35.9195294,32.1480536 C36.1887059,30.4997143 35.5411294,28.9435536 35.4319059,27.3309464 C34.9121882,19.6832321 37.6220706,13.3829821 43.2499294,8.27276786 C42.9326118,10.3141607 42.0500235,12.1753393 41.6602353,14.20275 C40.3650824,20.9328214 40.9489882,27.4319286 44.3054118,33.4199107 C47.2565176,38.6849643 47.0318588,43.8635357 44.8044235,49.5351071 C42.1784,46.3860179 39.0331765,44.0453036 35.8936471,41.6973393 C35.8739765,41.5305893 35.8486118,41.3622857 35.7849412,41.2079643 C35.1596235,39.690125 34.0632471,38.40325 35.6819294,36.5648571 C36.5344941,35.5964643 35.7683765,33.6482857 35.9195294,32.1480536 Z" id="Path"></path>
            <path d="M35.9195294,32.1480536 C36.8057412,34.12575 36.4879059,36.9827679 35.1363294,38.1665893 C34.5239529,38.7030893 35.0089882,38.798375 35.2652235,39.1443036 C35.8165176,39.8889821 36.7576,40.5875714 35.8936471,41.6973393 C33.6579294,40.4405 32.7225412,38.2080179 31.7711059,36.0381964 C29.5540235,30.9823571 30.5712,26.1725 33.1314824,21.4734643 C33.0631529,25.3123393 33.8913882,28.8917679 35.9195294,32.1480536 Z" id="Path"></path>
        </g>
    </g>
</svg>