<svg id="Layer_1" data-name="Layer 1" xmlns="http://www.w3.org/2000/svg" xmlns:xlink="http://www.w3.org/1999/xlink" viewBox="0 0 120 97"><defs><style>.cls-1{fill:#222527;}.cls-2{fill:url(#New_Gradient_Swatch_copy_40);}.cls-3{fill:url(#New_Gradient_Swatch_8);}.cls-4{fill:url(#New_Gradient_Swatch_8-2);}.cls-5{fill:url(#radial-gradient);}.cls-6{fill:url(#New_Gradient_Swatch_copy_38);}.cls-7{fill:url(#New_Gradient_Swatch_copy_38-2);}</style><radialGradient id="New_Gradient_Swatch_copy_40" cx="12.41" cy="89.4" r="89.3" gradientTransform="translate(27.76 3.65) scale(0.99 0.99)" gradientUnits="userSpaceOnUse"><stop offset="0" stop-color="#f1a41f"/><stop offset="1" stop-color="#f05530"/></radialGradient><linearGradient id="New_Gradient_Swatch_8" x1="11.81" y1="92.24" x2="48.15" y2="29.24" gradientUnits="userSpaceOnUse"><stop offset="0" stop-color="#2aa5de"/><stop offset="0.54" stop-color="#2177b8"/><stop offset="1" stop-color="#29418f"/></linearGradient><linearGradient id="New_Gradient_Swatch_8-2" x1="460.23" y1="-1273.54" x2="364.53" y2="-1239.01" gradientTransform="translate(-1235.41 -402.59) rotate(90)" xlink:href="#New_Gradient_Swatch_8"/><radialGradient id="radial-gradient" cx="62.7" cy="52.3" r="79.87" gradientTransform="translate(27.76 3.65) scale(0.99 0.99)" gradientUnits="userSpaceOnUse"><stop offset="0" stop-color="#f1a41f"/><stop offset="0.18" stop-color="#f19622"/><stop offset="1" stop-color="#f05530"/></radialGradient><radialGradient id="New_Gradient_Swatch_copy_38" cx="34.28" cy="83.57" r="105.81" gradientTransform="translate(27.76 3.65) scale(0.99 0.99)" gradientUnits="userSpaceOnUse"><stop offset="0" stop-color="#8dc63f"/><stop offset="1" stop-color="#52853f"/></radialGradient><radialGradient id="New_Gradient_Swatch_copy_38-2" cx="83.04" cy="48.62" r="66.75" xlink:href="#New_Gradient_Swatch_copy_38"/></defs><rect class="cls-1" width="120" height="97" rx="4.32"/><path class="cls-2" d="M70.17,59.14,80.81,48.5H59.52L43.4,64.63a15,15,0,0,0,0,21.28Z"/><path class="cls-3" d="M40.75,59.14,51.39,48.5H30.11L14,64.63a15,15,0,0,0,0,21.28Z"/><path class="cls-4" d="M40.75,37.86,14,11.09a15,15,0,0,0,0,21.28L30.11,48.5H51.39Z"/><path class="cls-5" d="M43.4,32.37,59.52,48.5H80.81L70.17,37.86,43.4,11.09A15,15,0,0,0,43.4,32.37Z"/><path class="cls-6" d="M99.79,59.14,110.43,48.5H89.14L73,64.63a15,15,0,0,0,0,21.28Z"/><path class="cls-7" d="M99.79,37.86,73,11.09a15,15,0,0,0,0,21.28L89.14,48.5h21.29Z"/></svg>