<svg id="Layer_1" data-name="Layer 1" xmlns="http://www.w3.org/2000/svg" viewBox="0 0 120 97"><defs><style>.cls-1{fill:#111923;}.cls-2{fill:#fff;}.cls-3{fill:#00c65e;}</style></defs><rect class="cls-1" width="120" height="97" rx="4.32"/><path class="cls-2" d="M55.81,61.41H46.33V56.67a14.22,14.22,0,0,1-11.9,5.59c-9.91,0-15.93-6.44-15.93-17.7V20h9.7V43.57C28.2,50,31,54,37.05,54c5.31,0,9.2-4,9.2-11.26V35.91h9.56Z"/><path class="cls-2" d="M63.1,20h9.49v5.1A15.15,15.15,0,0,1,85,19.14c10.41,0,16.43,6.44,16.43,17.7V61.41h-9.7V37.83c0-6.44-3.12-10.41-9.35-10.41-5.45,0-9.7,4-9.7,11.26V61.41H63.1Z"/><rect class="cls-3" x="18.37" y="69.33" width="83.26" height="8.53"/><path class="cls-3" d="M46.18,20h9.63v9.12H46.18Z"/></svg>