<svg id="Layer_1" data-name="Layer 1" xmlns="http://www.w3.org/2000/svg" xmlns:xlink="http://www.w3.org/1999/xlink" viewBox="0 0 120 97"><defs><style>.cls-1{fill:url(#linear-gradient);}.cls-2{opacity:0.1;}.cls-3{fill:#14a54a;}.cls-4{fill:url(#New_Gradient_Swatch_copy_40);}.cls-5{fill:url(#New_Gradient_Swatch_8);}.cls-6{fill:url(#New_Gradient_Swatch_8-2);}.cls-7{fill:url(#radial-gradient);}.cls-8{fill:url(#New_Gradient_Swatch_copy_38);}.cls-9{fill:url(#New_Gradient_Swatch_copy_38-2);}</style><linearGradient id="linear-gradient" x1="44.62" y1="75.13" x2="96" y2="-13.85" gradientUnits="userSpaceOnUse"><stop offset="0" stop-color="#1a1a1a"/><stop offset="1" stop-opacity="0"/></linearGradient><radialGradient id="New_Gradient_Swatch_copy_40" cx="36.98" cy="43.39" r="39.23" gradientUnits="userSpaceOnUse"><stop offset="0" stop-color="#f1a41f"/><stop offset="1" stop-color="#f05530"/></radialGradient><linearGradient id="New_Gradient_Swatch_8" x1="24.43" y1="43.52" x2="40.6" y2="15.5" gradientUnits="userSpaceOnUse"><stop offset="0" stop-color="#2aa5de"/><stop offset="0.54" stop-color="#2177b8"/><stop offset="1" stop-color="#29418f"/></linearGradient><linearGradient id="New_Gradient_Swatch_8-2" x1="-28.08" y1="-5260.47" x2="-70.65" y2="-5245.11" gradientTransform="translate(-5224.33 56.22) rotate(90)" xlink:href="#New_Gradient_Swatch_8"/><radialGradient id="radial-gradient" cx="59.07" cy="27.09" r="35.09" gradientUnits="userSpaceOnUse"><stop offset="0" stop-color="#f1a41f"/><stop offset="0.18" stop-color="#f19622"/><stop offset="1" stop-color="#f05530"/></radialGradient><radialGradient id="New_Gradient_Swatch_copy_38" cx="46.59" cy="40.83" r="46.48" gradientUnits="userSpaceOnUse"><stop offset="0" stop-color="#8dc63f"/><stop offset="1" stop-color="#52853f"/></radialGradient><radialGradient id="New_Gradient_Swatch_copy_38-2" cx="68" cy="25.48" r="29.32" xlink:href="#New_Gradient_Swatch_copy_38"/></defs><rect width="120" height="97"/><path class="cls-1" d="M0,0S77,33.74,82.5,97H120V0Z"/><path class="cls-3" d="M76.16,24.07v32.2c0,11-4.91,16.53-14.88,16.53S46.53,67.29,46.53,56.27V42.48a11.68,11.68,0,0,1-.92-1.66l-3.5,3.51a5.13,5.13,0,0,1-7.25,0,11.7,11.7,0,0,1-2.39-3.44L29,44.33a5.15,5.15,0,0,1-3,1.45V59.7c0,19.5,12.65,30.37,35.29,30.37S96.56,79.2,96.56,59.7V24.07Z"/><path class="cls-4" d="M50.39,28.8l4.73-4.73H45.65l-7.17,7.17a6.71,6.71,0,0,0,0,9.47Z"/><path class="cls-5" d="M37.3,28.8,42,24.07H32.57L25.4,31.24a6.69,6.69,0,0,0,0,9.47Z"/><path class="cls-6" d="M37.3,19.34,25.4,7.43a6.69,6.69,0,0,0,0,9.47l7.17,7.17H42Z"/><path class="cls-7" d="M38.48,16.9l7.17,7.17h9.47l-4.73-4.73L38.48,7.43A6.71,6.71,0,0,0,38.48,16.9Z"/><path class="cls-8" d="M63.56,28.8l4.73-4.73H58.83l-7.18,7.17a6.71,6.71,0,0,0,0,9.47Z"/><path class="cls-9" d="M63.56,19.34,51.65,7.43a6.71,6.71,0,0,0,0,9.47l7.18,7.17h9.46Z"/></svg>