<?xml version="1.0" encoding="UTF-8"?>
<svg width="120px" height="97px" viewBox="0 0 120 97" version="1.1" xmlns="http://www.w3.org/2000/svg" xmlns:xlink="http://www.w3.org/1999/xlink">
    <!-- Generator: Sketch 54.1 (76490) - https://sketchapp.com -->
    <title>BO_Brand_logo</title>
    <desc>Created with Sketch.</desc>
    <g id="BO_Brand_logo" stroke="none" stroke-width="1" fill="none" fill-rule="evenodd">
        <g id="Group-8" transform="translate(1.000000, 2.000000)" fill="#E9F8FF" fill-rule="nonzero">
            <path d="M117.882975,20.8521921 C117.882975,32.3655532 108.520992,41.6849687 96.9550413,41.6849687 C85.3890909,41.6849687 76.0076033,32.3655532 76.0076033,20.8521921 C76.0076033,9.3388309 85.3890909,3.55271368e-13 96.9550413,3.55271368e-13 C108.520992,3.55271368e-13 117.882975,9.3388309 117.882975,20.8521921 Z" id="Path"></path>
            <path d="M71.3071074,92.5728601 L71.677686,92.5534447 L78.913719,73.9340292 L42.2654545,3.26179541 L1.70530257e-13,3.26179541 L44.547438,92.8640919 L44.6059504,92.8640919 C48.2727273,90.6313152 53.0122314,89.2916493 58.2003306,89.2916493 C63.1738843,89.2916493 67.7183471,90.5148225 71.3071074,92.5728601 Z" id="Path"></path>
        </g>
    </g>
</svg>