<?xml version="1.0" encoding="utf-8"?>
<!-- Generator: Adobe Illustrator 22.0.1, SVG Export Plug-In . SVG Version: 6.00 Build 0)  -->
<svg version="1.1" id="Слой_1" xmlns="http://www.w3.org/2000/svg" xmlns:xlink="http://www.w3.org/1999/xlink" x="0px" y="0px"
	 viewBox="0 0 120 97" style="enable-background:new 0 0 120 97;" xml:space="preserve">
<style type="text/css">
	.st0{fill:#FFFFFF;}
	.st1{fill:url(#SVGID_1_);}
	.st2{fill:url(#SVGID_2_);}
	.st3{fill:url(#SVGID_3_);}
	.st4{fill:url(#SVGID_4_);}
	.st5{fill:#261E4F;}
</style>
<title>WinMaker-Logo-whiteМонтажная область 1</title>
<g>
	<polygon class="st0" points="60,12.8 64.5,21.9 74.5,23.4 67.3,30.5 69,40.5 60,35.8 51,40.5 52.7,30.5 45.5,23.4 55.5,21.9 	"/>

		<linearGradient id="SVGID_1_" gradientUnits="userSpaceOnUse" x1="51.3223" y1="69.7499" x2="68.661" y2="69.7499" gradientTransform="matrix(1 0 0 -1 0 97)">
		<stop  offset="0" style="stop-color:#68C8EA"/>
		<stop  offset="1" style="stop-color:#3F158C"/>
	</linearGradient>
	<polygon class="st1" points="60,32.7 54.6,35.5 55.7,29.5 51.3,25.3 57.3,24.4 60,19 62.7,24.4 68.7,25.3 64.3,29.5 65.4,35.5 	"/>
	<polygon class="st0" points="92.5,22.4 93.6,28.9 99.6,31.8 93.6,34.8 92.8,41.4 88.1,36.7 81.5,37.9 84.6,32 81.4,26.1 88,27.2
		"/>

		<linearGradient id="SVGID_2_" gradientUnits="userSpaceOnUse" x1="86.4231" y1="65.0921" x2="93.4" y2="65.0921" gradientTransform="matrix(1 0 0 -1 0 97)">
		<stop  offset="0" style="stop-color:#68C8EA"/>
		<stop  offset="1" style="stop-color:#3F158C"/>
	</linearGradient>
	<polygon class="st2" points="89,33.8 86.5,34.2 87.6,31.9 86.4,29.7 88.9,30.1 90.7,28.3 91.1,30.8 93.4,31.9 91.1,33 90.8,35.6
		"/>
	<polygon class="st0" points="27.4,22.4 26.4,28.9 20.4,31.8 26.3,34.8 27.2,41.4 31.9,36.7 38.4,37.9 35.4,32 38.6,26.1 32,27.2
		"/>

		<linearGradient id="SVGID_3_" gradientUnits="userSpaceOnUse" x1="26.5819" y1="65.0921" x2="33.5574" y2="65.0921" gradientTransform="matrix(1 0 0 -1 0 97)">
		<stop  offset="0" style="stop-color:#68C8EA"/>
		<stop  offset="1" style="stop-color:#3F158C"/>
	</linearGradient>
	<polygon class="st3" points="28.9,33 26.6,31.9 28.9,30.8 29.3,28.3 31,30.1 33.6,29.7 32.3,31.9 33.5,34.2 31,33.8 29.2,35.6 	"/>
	<path class="st0" d="M108.2,84c-32-3.8-64.4-3.8-96.5,0l-1.4,0.2L0,73.8V53.8l10.7-10.7l1.4,0.2C28,45.2,44,46.1,60,46.1
		c16,0,32-0.9,47.9-2.8l1.4-0.2L120,53.8v19.9l-10.4,10.4L108.2,84z"/>

		<linearGradient id="SVGID_4_" gradientUnits="userSpaceOnUse" x1="2.8833" y1="33.3475" x2="117.0972" y2="33.3475" gradientTransform="matrix(1 0 0 -1 0 97)">
		<stop  offset="0" style="stop-color:#110833"/>
		<stop  offset="1" style="stop-color:#5627B0"/>
	</linearGradient>
	<path class="st4" d="M108.2,46.2C92.2,48,76.1,49,60,49c-16.1,0-32.2-0.9-48.2-2.8L2.9,55v17.6l8.5,8.5c32.3-3.8,64.9-3.8,97.1,0
		l8.5-8.5V55L108.2,46.2z"/>
	<path class="st5" d="M21.5,71.5c-1.3,0.1-2.5,0.1-3.8,0.2c-0.2-1.2-0.5-2.4-0.7-3.5c-0.6-2.8-0.6-3.6-0.7-4.1h0
		c-0.2,1.6-0.3,2.2-0.7,4.1c-0.2,1.2-0.5,2.5-0.7,3.7c-1.3,0.1-2.6,0.2-3.8,0.3c-1.1-4.3-2.2-8.8-3.3-13.5c1.2,0.1,2.5,0.2,3.7,0.3
		c0.3,1.2,0.5,2.4,0.8,3.6c0.2,1,0.7,3.6,0.8,4.9h0c0.2-1.7,0.5-3.6,0.7-4.7c0.2-1.2,0.5-2.3,0.7-3.5c1.3,0.1,2.6,0.2,3.9,0.3
		c0.3,1.4,0.6,2.7,0.9,4.1c0.2,1,0.5,2.2,0.6,3.7h0c0.2-1.6,0.4-3.2,0.8-4.7c0.2-1,0.5-2,0.7-2.9c1.3,0.1,2.5,0.1,3.8,0.2
		C23.8,63.6,22.6,67.5,21.5,71.5z"/>
	<path class="st5" d="M25.6,71.3V59.9c1.2,0.1,2.4,0.1,3.6,0.2v11C28,71.2,26.8,71.2,25.6,71.3z"/>
	<path class="st5" d="M37.7,70.8c-0.8-1.2-1.6-2.4-2.4-3.6c-0.4-0.6-0.8-1.3-1.1-2c0.2,0.9,0.2,1.8,0.2,2.7v3
		c-1.1,0-2.2,0.1-3.3,0.1V60.2c1.1,0.1,2.3,0.1,3.4,0.1c0.8,1.2,1.7,2.5,2.5,3.7c0.4,0.6,0.8,1.3,1.1,2C38,65.1,38,64.6,38,63.6
		v-3.2c1.1,0,2.2,0.1,3.3,0.1v10.1C40.1,70.7,38.9,70.7,37.7,70.8z"/>
	<path class="st5" d="M56.6,60.8c0.4,3.2,0.8,6.4,1.3,9.6c-1.1,0-2.3,0-3.4,0l-0.3-3.9C54,65.9,54,65.2,54,64.6h0
		c-0.1,0.6-0.3,1.2-0.5,1.8c-0.6,1.3-1.1,2.7-1.7,4c-1,0-2,0-3,0c-0.5-1.3-1-2.6-1.5-4c-0.2-0.6-0.4-1.3-0.5-2h0c0,0.7,0,1.4-0.1,2
		c-0.1,1.3-0.2,2.6-0.3,3.9c-1.2,0-2.4,0.1-3.5,0.1c0.4-3.4,0.9-6.7,1.3-10c1.4,0,2.9,0.1,4.3,0.1c0.4,1.3,0.9,2.6,1.3,3.9
		c0.2,0.6,0.4,1.2,0.5,1.8h0c0.1-0.7,0.3-1.3,0.5-2c0.5-1.2,0.9-2.5,1.4-3.7C53.8,60.8,55.2,60.8,56.6,60.8z"/>
	<path class="st5" d="M66.4,70.4c-0.2-0.6-0.5-1.2-0.7-1.9l-3.2,0l-0.7,1.8c-1.2,0-2.5,0-3.7,0c1.5-3.2,2.9-6.4,4.4-9.6
		c1.2,0,2.4,0,3.7,0c1.4,3.2,2.8,6.4,4.2,9.7C68.9,70.4,67.7,70.4,66.4,70.4z M64.4,64.9c-0.1-0.4-0.2-0.9-0.3-1.4
		c-0.1,0.5-0.2,1-0.4,1.5l-0.6,1.6H65C64.8,66.1,64.6,65.5,64.4,64.9L64.4,64.9z"/>
	<path class="st5" d="M77.2,70.6c-0.5-0.9-1-1.9-1.4-2.8c-0.1-0.3-0.3-0.5-0.5-0.8c-0.2-0.2-0.4-0.4-1.1-0.4v3.9
		c-1.2,0-2.3,0-3.5-0.1v-9.8c1.6,0,3.2-0.1,4.7-0.1c0.9,0,3.3,0,4.5,0.9c0.6,0.5,0.9,1.1,0.8,1.9c0,1-0.4,1.6-0.8,2
		c-0.3,0.3-0.9,0.7-2,0.8c0.4,0.1,0.9,0.3,1.4,1.1c0.2,0.2,0.3,0.5,0.5,0.7c0.7,1.1,0.7,1.2,1.6,2.7C80,70.7,78.6,70.6,77.2,70.6z
		 M75.2,64.7c0.1,0,0.8,0,1.2-0.2c0.3-0.2,0.5-0.5,0.5-0.9c0-0.3-0.1-0.5-0.3-0.7c-0.4-0.3-1-0.3-1.3-0.3l-1,0v2L75.2,64.7z"/>
	<path class="st5" d="M82.1,70.7V60.4c1.2,0,2.3-0.1,3.5-0.1v10.6C84.5,70.8,83.3,70.8,82.1,70.7z M89.1,71c-1.1-2-2.3-3.9-3.4-5.8
		c1-1.6,2-3.3,3-5c1.5-0.1,2.9-0.1,4.4-0.2c-1.2,1.8-2.4,3.5-3.6,5.1c1.4,2,2.9,4,4.3,6.1C92.2,71.1,90.7,71.1,89.1,71L89.1,71z"/>
	<path class="st5" d="M94,71.2V59.9c2.7-0.1,5.3-0.3,8-0.4c-0.1,0.9-0.2,1.7-0.3,2.6c-1.4,0.1-2.8,0.1-4.2,0.1v2l3.4,0v2.5l-3.4,0
		v2.4c1.6,0.1,3.1,0.1,4.7,0.2v2.6C99.5,71.5,96.8,71.4,94,71.2z"/>
	<path class="st5" d="M112.3,61.7c-1.1,0-2.1,0.1-3.2,0.1v10.4c-1.2-0.1-2.4-0.2-3.6-0.3v-10l-3.2,0.1v-2.6
		c3.4-0.2,6.9-0.5,10.3-0.7C112.6,59.7,112.4,60.7,112.3,61.7z"/>
	<path class="st0" d="M21.5,70.3c-1.3,0.1-2.5,0.1-3.8,0.2c-0.2-1.2-0.5-2.4-0.7-3.5c-0.6-2.8-0.6-3.6-0.7-4.1h0
		c-0.2,1.6-0.3,2.2-0.7,4.1c-0.2,1.2-0.5,2.5-0.7,3.7c-1.3,0.1-2.6,0.2-3.8,0.3c-1.1-4.3-2.2-8.8-3.3-13.5c1.2,0.1,2.5,0.2,3.7,0.3
		c0.3,1.2,0.5,2.4,0.8,3.6c0.2,1,0.7,3.6,0.8,4.9h0c0.2-1.7,0.5-3.6,0.7-4.7c0.2-1.2,0.5-2.3,0.7-3.5c1.3,0.1,2.6,0.2,3.9,0.3
		c0.3,1.4,0.6,2.7,0.9,4.1c0.2,1,0.5,2.2,0.6,3.7h0c0.2-1.6,0.4-3.2,0.8-4.7c0.2-1,0.5-2,0.7-2.9c1.3,0.1,2.5,0.1,3.8,0.2
		C23.8,62.4,22.6,66.3,21.5,70.3z"/>
	<path class="st0" d="M25.6,70.1V58.7c1.2,0.1,2.4,0.1,3.6,0.2v11C28,70,26.8,70,25.6,70.1z"/>
	<path class="st0" d="M37.7,69.6c-0.8-1.2-1.6-2.4-2.4-3.6c-0.4-0.6-0.8-1.3-1.1-2c0.2,0.9,0.2,1.8,0.2,2.7v3
		c-1.1,0-2.2,0.1-3.3,0.1V59c1.1,0,2.3,0.1,3.4,0.1c0.8,1.2,1.7,2.5,2.5,3.7c0.4,0.6,0.8,1.3,1.1,2C38,63.9,38,63.4,38,62.4v-3.2
		c1.1,0,2.2,0.1,3.3,0.1v10.1C40.1,69.5,38.9,69.5,37.7,69.6z"/>
	<path class="st0" d="M56.6,59.6c0.4,3.2,0.8,6.4,1.3,9.6c-1.1,0-2.3,0-3.4,0l-0.3-3.9C54,64.7,54,64,54,63.4h0
		c-0.1,0.6-0.3,1.2-0.5,1.8c-0.6,1.3-1.1,2.7-1.7,4c-1,0-2,0-3,0c-0.5-1.3-1-2.6-1.5-4c-0.2-0.6-0.4-1.3-0.5-2h0c0,0.7,0,1.4-0.1,2
		l-0.3,3.9c-1.2,0-2.4,0.1-3.5,0.1c0.5-3.4,0.9-6.7,1.3-10c1.4,0,2.9,0.1,4.3,0.1c0.4,1.3,0.9,2.6,1.3,3.9c0.2,0.6,0.4,1.2,0.5,1.8
		h0c0.1-0.7,0.3-1.3,0.5-2c0.5-1.2,0.9-2.5,1.4-3.7C53.8,59.6,55.2,59.6,56.6,59.6z"/>
	<path class="st0" d="M66.4,69.2c-0.2-0.6-0.5-1.2-0.7-1.9c-1.1,0-2.2,0-3.2,0l-0.7,1.8c-1.2,0-2.5,0-3.7,0c1.5-3.2,2.9-6.4,4.4-9.6
		c1.2,0,2.4,0,3.7,0c1.4,3.2,2.8,6.4,4.2,9.7C68.9,69.2,67.7,69.2,66.4,69.2z M64.4,63.7c-0.1-0.4-0.2-0.9-0.3-1.4
		c-0.1,0.5-0.2,1-0.4,1.5c-0.2,0.5-0.4,1-0.6,1.6H65C64.8,64.9,64.6,64.3,64.4,63.7L64.4,63.7z"/>
	<path class="st0" d="M77.2,69.4c-0.5-0.9-1-1.9-1.4-2.8c-0.1-0.3-0.3-0.5-0.5-0.8c-0.2-0.2-0.4-0.4-1.1-0.4v3.9
		c-1.2,0-2.3,0-3.5-0.1v-9.8c1.6,0,3.2-0.1,4.7-0.1c0.9,0,3.3,0,4.5,0.9c0.6,0.5,0.9,1.1,0.8,1.9c0,1-0.4,1.6-0.8,2
		c-0.3,0.3-0.9,0.7-2,0.8c0.4,0.1,0.9,0.3,1.4,1.1c0.2,0.2,0.3,0.5,0.5,0.7c0.7,1.1,0.7,1.2,1.6,2.7C80,69.5,78.6,69.4,77.2,69.4z
		 M75.2,63.5c0.1,0,0.8,0,1.2-0.2c0.3-0.2,0.5-0.5,0.5-0.9c0-0.3-0.1-0.5-0.3-0.7c-0.4-0.3-1-0.3-1.3-0.3l-1,0v2H75.2z"/>
	<path class="st0" d="M82.1,69.5V59.2c1.2,0,2.3-0.1,3.5-0.1v10.6C84.5,69.6,83.3,69.6,82.1,69.5z M89.1,69.8
		c-1.1-2-2.3-3.9-3.4-5.8c1-1.6,2-3.3,3-5c1.5-0.1,2.9-0.1,4.4-0.2c-1.2,1.8-2.4,3.5-3.6,5.1c1.4,2,2.9,4,4.3,6.1
		C92.2,69.9,90.7,69.9,89.1,69.8L89.1,69.8z"/>
	<path class="st0" d="M94,70V58.7c2.7-0.1,5.3-0.3,8-0.5c-0.1,0.9-0.2,1.7-0.3,2.6c-1.4,0.1-2.8,0.1-4.2,0.1v2c1.1,0,2.3,0,3.4,0
		v2.5c-1.1,0-2.3,0-3.4,0v2.4c1.6,0.1,3.1,0.1,4.7,0.2v2.6C99.5,70.3,96.8,70.2,94,70z"/>
	<path class="st0" d="M112.3,60.5c-1.1,0-2.1,0.1-3.2,0.1V71c-1.2-0.1-2.4-0.2-3.6-0.3v-10c-1.1,0-2.1,0.1-3.2,0.1v-2.6
		c3.4-0.2,6.9-0.5,10.3-0.7C112.6,58.5,112.4,59.5,112.3,60.5z"/>
</g>
</svg>
