<?xml version="1.0" encoding="UTF-8"?>
<svg width="120px" height="97px" viewBox="0 0 120 97" version="1.1" xmlns="http://www.w3.org/2000/svg" xmlns:xlink="http://www.w3.org/1999/xlink">
    <!-- Generator: Sketch 54.1 (76490) - https://sketchapp.com -->
    <title>BO_Brand_logo</title>
    <desc>Created with Sketch.</desc>
    <g id="BO_Brand_logo" stroke="none" stroke-width="1" fill="none" fill-rule="evenodd">
        <path d="M113.474916,10.1352695 L113.474916,53.4597844 L96.1103679,62.756246 L71.4337659,75.9684971 L71.0004415,75.7404692 L29.4147157,53.8395688 L29.4147157,33.984629 L29.4147157,27.758681 L29.4147157,10.1352695 L65.287505,29.026988 L71.1977659,32.139962 L71.4448161,32.269702 L90.5852843,22.1900824 L96.1103679,19.2799746 L113.474916,10.1352695 Z M48.5441338,87.7630438 L6.52508361,65.6341154 L6.52508361,21.9298161 L23.8896321,31.0745212 L23.8896321,57.1561953 L65.1383278,78.8786049 L48.5441338,87.7630438 Z M71.4448161,26.043754 L71.1977659,25.914014 L23.8896321,1 L23.8896321,24.8485732 L1,12.7945466 L1,68.9507419 L48.5662341,94 L71.0217525,81.9774255 L71.4558662,82.2054534 L119,56.7496766 L119,1 L96.1103679,13.0540266 L71.4448161,26.043754 Z" id="Fill-55" fill="#FFFFFF"></path>
    </g>
</svg>