<svg id="Layer_1" data-name="Layer 1" xmlns="http://www.w3.org/2000/svg" xmlns:xlink="http://www.w3.org/1999/xlink" viewBox="0 0 120 97"><defs><style>.cls-1{fill:url(#linear-gradient);}.cls-2{fill:#365abb;}.cls-3{fill:#fff;}.cls-4{fill:#23262f;}.cls-5{fill:none;}</style><linearGradient id="linear-gradient" x1="10.83" y1="46.62" x2="107.12" y2="12.12" gradientUnits="userSpaceOnUse"><stop offset="0.01" stop-color="#365abb"/><stop offset="1" stop-color="#23262f"/></linearGradient></defs><title>Capitalfunds  - Max-EcoSales -App</title><path class="cls-1" d="M116,29.76c-5.31-6-20.78-20.16-48.49-20.16C31.1,9.6,10.7,38.28,4,49.73H23.31C28.8,38.53,44.8,10.91,69.69,10.91c18.3,0,31.82,13.13,36.83,18.85H116"/><polygon class="cls-2" points="28.95 50.23 28.95 34.08 24.5 34.08 24.5 28.52 39.78 28.52 39.78 34.08 35.33 34.08 35.33 50.23 28.95 50.23"/><path class="cls-3" d="M39.28,29v4.56H34.83V49.73H29.45V33.58H25V29H39.28m1-1H24v6.56h4.45V50.73h7.38V34.58h4.45V28Z"/><path class="cls-2" d="M52,50.23l-4.36-6.84v6.84H41.28V28.52h8.55a8.57,8.57,0,0,1,5.53,1.7,6.27,6.27,0,0,1,2.17,5.17,6.79,6.79,0,0,1-1.3,4.14,5.43,5.43,0,0,1-2.87,2L60,50.23ZM47.69,37.8c2.9,0,3.23-1.19,3.23-2.08s-.33-2.08-3.23-2.08h0V37.8Z"/><path class="cls-3" d="M49.83,29a8.09,8.09,0,0,1,5.22,1.59,5.77,5.77,0,0,1,2,4.78,6.3,6.3,0,0,1-1.2,3.85,5.07,5.07,0,0,1-3.34,2L59,49.73H52.3l-5.08-8h0v8H41.78V29h8M47.17,38.3h.52q3.73,0,3.73-2.58t-3.73-2.58h-.52V38.3M49.83,28h-9V50.73h7.39V45.11l3.29,5.16.29.46H61L59.8,49.12l-5.63-7.33a6,6,0,0,0,2.47-2A7.33,7.33,0,0,0,58,35.39a6.75,6.75,0,0,0-2.35-5.56A9.12,9.12,0,0,0,49.83,28Zm-1.66,9.27V34.15c2.25.12,2.25,1.09,2.25,1.57s0,1.45-2.25,1.57Z"/><path class="cls-2" d="M74.7,50.23l-1.35-3.6H66.62l-1.43,3.6H58.41l8.35-21.71h6.57l8.18,21.71Zm-3.15-8.72L70,36.91l-1.56,4.6Z"/><path class="cls-3" d="M73,29l7.8,20.71H75.05l-1.35-3.6H66.28l-1.43,3.6H59.14l8-20.71H73M67.77,42h4.47l-2.19-6.59H70L67.77,42m5.91-14H66.42l-.25.64-8,20.71-.52,1.36h7.84l.25-.63,1.18-3H73l1.1,2.95.24.65h7.88l-.51-1.35-7.8-20.71L73.68,28ZM69.16,41,70,38.48,70.86,41Z"/><path class="cls-2" d="M82.51,50.23V28.52h8.14a10.81,10.81,0,0,1,7.78,3.15,10.78,10.78,0,0,1,0,15.41,10.81,10.81,0,0,1-7.78,3.15Zm7.09-5.56a5.9,5.9,0,0,0,4-1.33,4.92,4.92,0,0,0,1.51-4,5.08,5.08,0,0,0-1.46-3.89,5.52,5.52,0,0,0-3.94-1.4H88.9V44.67Z"/><path class="cls-3" d="M90.65,29a10.26,10.26,0,0,1,7.43,3,10.27,10.27,0,0,1,0,14.69,10.26,10.26,0,0,1-7.43,3H83V29h7.64M88.4,45.17h1.2a6.3,6.3,0,0,0,4.27-1.46,5.39,5.39,0,0,0,1.69-4.34,5.57,5.57,0,0,0-1.62-4.25,6,6,0,0,0-4.28-1.54H88.4V45.17M90.65,28H82V50.73h8.64a11.27,11.27,0,0,0,8.12-3.29,11.27,11.27,0,0,0,0-16.13A11.27,11.27,0,0,0,90.65,28ZM89.4,34.58h.26a5,5,0,0,1,3.59,1.26,4.57,4.57,0,0,1,1.31,3.53A4.46,4.46,0,0,1,93.22,43a5.33,5.33,0,0,1-3.62,1.21h-.2V34.58Z"/><polygon class="cls-2" points="103.72 50.23 103.72 28.52 116.5 28.52 116.5 34.08 110.1 34.08 110.1 36.54 116.17 36.54 116.17 42.1 110.1 42.1 110.1 44.67 116.5 44.67 116.5 50.23 103.72 50.23"/><path class="cls-3" d="M116,29v4.56h-6.4V37h6.07V41.6H109.6v3.57H116v4.56H104.22V29H116m1-1H103.22V50.73H117V44.17h-6.4V42.6h6.07V36H110.6V34.58H117V28Z"/><path class="cls-4" d="M18.05,58.22H7.9v7.94h9.81v3.22H7.9V83.24H4.38V55H18.05Z"/><path class="cls-4" d="M26.33,55V83.24H22.8V55Z"/><path class="cls-4" d="M32,83.24V53.65l21.2,22.21V55h3.52V84.4L35.54,62.19v21Z"/><path class="cls-4" d="M83.07,56.31v4.08a10.85,10.85,0,0,0-7.45-2.77A10.54,10.54,0,0,0,67.7,61a11.82,11.82,0,0,0,0,16.22,10.4,10.4,0,0,0,7.88,3.39,10.92,10.92,0,0,0,7.53-2.92v4.16a14.88,14.88,0,0,1-17.81-2.25,13.93,13.93,0,0,1-4.33-10.34,14.24,14.24,0,0,1,4.39-10.56A14.61,14.61,0,0,1,76,54.4,13.32,13.32,0,0,1,83.07,56.31Z"/><path class="cls-4" d="M90.4,58.73a14.73,14.73,0,0,1,20.86,0,14.74,14.74,0,0,1,0,20.88,15.11,15.11,0,0,1-21,0,14.73,14.73,0,0,1,.06-20.88Zm2.49,18.5a11.18,11.18,0,0,0,15.88,0,11,11,0,0,0,3.33-8.11A11.26,11.26,0,0,0,108.9,61a11.44,11.44,0,0,0-16.14,0,11.23,11.23,0,0,0-3.21,8.09A11,11,0,0,0,92.89,77.23Z"/><path class="cls-4" d="M53.85,24H57v1.64h-6.4l3.53-5.83H51.18V18.21h6.19Z"/><path class="cls-4" d="M62.85,18.21h1.94v4.2a7.25,7.25,0,0,1-.14,1.53A2.29,2.29,0,0,1,64,25.05a4.12,4.12,0,0,1-5,0,2.29,2.29,0,0,1-.64-1.11,7.25,7.25,0,0,1-.14-1.53v-4.2h1.94v3.93c0,.24,0,.44,0,.6a2.8,2.8,0,0,0,.09.53,1.18,1.18,0,0,0,.2.48,1,1,0,0,0,.4.3,1.5,1.5,0,0,0,1.22,0,1,1,0,0,0,.4-.3,1.33,1.33,0,0,0,.2-.48,2.8,2.8,0,0,0,.09-.53c0-.16,0-.36,0-.6Z"/><path class="cls-4" d="M70.08,22.62l2.35,3.06H70l-1.84-2.87h0v2.87H66.22V18.21h2.9a3,3,0,0,1,1.89.57,2.11,2.11,0,0,1,.71,1.73,2.27,2.27,0,0,1-.43,1.39A1.83,1.83,0,0,1,70.08,22.62Zm-1.92-2.93v1.87h.19q1.35,0,1.35-.93c0-.62-.45-.94-1.35-.94Z"/><path class="cls-4" d="M75.1,18.21v7.47H73.16V18.21Z"/><path class="cls-4" d="M81.91,18.39v2.33a1.93,1.93,0,0,0-.75-.61,2.1,2.1,0,0,0-1-.22,1.87,1.87,0,0,0-1.44.6A2.08,2.08,0,0,0,78.21,22a2,2,0,0,0,.56,1.46,2,2,0,0,0,1.47.57,2,2,0,0,0,.92-.22,2.14,2.14,0,0,0,.75-.58v2.33a6.47,6.47,0,0,1-1.71.35,4.06,4.06,0,0,1-2.81-1.1A3.62,3.62,0,0,1,76.19,22a3.78,3.78,0,0,1,1.1-2.74,4.11,4.11,0,0,1,1.31-.89A3.93,3.93,0,0,1,80.14,18,4.67,4.67,0,0,1,81.91,18.39Z"/><path class="cls-4" d="M85.25,21.09h2.81V18.21H90v7.47H88.06V22.62H85.25v3.06H83.31V18.21h1.94Z"/><rect class="cls-5" width="120" height="97"/></svg>