<svg viewBox="0 0 5 10" fill="none" xmlns="http://www.w3.org/2000/svg">
  <path d="M2.24746 0.109835C2.38694 -0.0366116 2.61306 -0.0366116 2.75254 0.109835L4.89539 2.35984C4.99753 2.46708 5.02808 2.62838 4.9728 2.76851C4.91752 2.90863 4.7873 3 4.64285 3H0.357152C0.212702 3 0.0824749 2.90863 0.0271962 2.76851C-0.0280825 2.62838 0.00247302 2.46708 0.104615 2.35984L2.24746 0.109835Z"/>
  <path d="M2.75254 9.89016C2.61306 10.0366 2.38694 10.0366 2.24746 9.89016L0.104615 7.64016C0.00247312 7.53292 -0.0280822 7.37162 0.0271966 7.23149C0.0824755 7.09137 0.212702 7 0.357152 7L4.64285 7C4.7873 7 4.91753 7.09137 4.9728 7.23149C5.02808 7.37162 4.99753 7.53292 4.89539 7.64016L2.75254 9.89016Z"/>
</svg>