<svg width="26" height="19" viewBox="0 0 26 19" fill="none" xmlns="http://www.w3.org/2000/svg">
<mask id="path-1-inside-1" fill="white">
<path fill-rule="evenodd" clip-rule="evenodd" d="M0 2C0 0.89543 0.895431 0 2 0H24C25.1046 0 26 0.89543 26 2V8C26 9.10457 25.1046 10 24 10H20V17C20 18.1046 19.1046 19 18 19H17V5H15V19H8C6.89543 19 6 18.1046 6 17V10H2C0.895432 10 0 9.10457 0 8V2ZM20 8H24V2H2V8H6V6H5C4.44772 6 4 5.55228 4 5C4 4.44772 4.44772 4 5 4H21C21.5523 4 22 4.44772 22 5C22 5.55228 21.5523 6 21 6H20V8ZM13 15C13 16.1046 12.1046 17 11 17C9.89543 17 9 16.1046 9 15C9 14.4027 9.26188 13.8665 9.67709 13.5C9.26188 13.1335 9 12.5973 9 12C9 10.8954 9.89543 10 11 10C12.1046 10 13 10.8954 13 12C13 12.5973 12.7381 13.1335 12.3229 13.5C12.7381 13.8665 13 14.4027 13 15Z"/>
</mask>
<path fill-rule="evenodd" clip-rule="evenodd" d="M0 2C0 0.89543 0.895431 0 2 0H24C25.1046 0 26 0.89543 26 2V8C26 9.10457 25.1046 10 24 10H20V17C20 18.1046 19.1046 19 18 19H17V5H15V19H8C6.89543 19 6 18.1046 6 17V10H2C0.895432 10 0 9.10457 0 8V2ZM20 8H24V2H2V8H6V6H5C4.44772 6 4 5.55228 4 5C4 4.44772 4.44772 4 5 4H21C21.5523 4 22 4.44772 22 5C22 5.55228 21.5523 6 21 6H20V8ZM13 15C13 16.1046 12.1046 17 11 17C9.89543 17 9 16.1046 9 15C9 14.4027 9.26188 13.8665 9.67709 13.5C9.26188 13.1335 9 12.5973 9 12C9 10.8954 9.89543 10 11 10C12.1046 10 13 10.8954 13 12C13 12.5973 12.7381 13.1335 12.3229 13.5C12.7381 13.8665 13 14.4027 13 15Z" fill="white"/>
<path d="M20 10V9H19V10H20ZM17 19H16V20H17V19ZM17 5H18V4H17V5ZM15 5V4H14V5H15ZM15 19V20H16V19H15ZM6 10H7V9H6V10ZM24 8V9H25V8H24ZM20 8H19V9H20V8ZM24 2H25V1H24V2ZM2 2V1H1V2H2ZM2 8H1V9H2V8ZM6 8V9H7V8H6ZM6 6H7V5H6V6ZM20 6V5H19V6H20ZM9.67709 13.5L10.3388 14.2497L11.1883 13.5L10.3388 12.7503L9.67709 13.5ZM12.3229 13.5L11.6612 12.7503L10.8117 13.5L11.6612 14.2497L12.3229 13.5ZM2 -1C0.343146 -1 -1 0.343146 -1 2H1C1 1.44772 1.44772 1 2 1V-1ZM24 -1H2V1H24V-1ZM27 2C27 0.343145 25.6569 -1 24 -1V1C24.5523 1 25 1.44772 25 2H27ZM27 8V2H25V8H27ZM24 11C25.6569 11 27 9.65685 27 8H25C25 8.55228 24.5523 9 24 9V11ZM20 11H24V9H20V11ZM21 17V10H19V17H21ZM18 20C19.6569 20 21 18.6569 21 17H19C19 17.5523 18.5523 18 18 18V20ZM17 20H18V18H17V20ZM16 5V19H18V5H16ZM15 6H17V4H15V6ZM16 19V5H14V19H16ZM8 20H15V18H8V20ZM5 17C5 18.6569 6.34315 20 8 20V18C7.44772 18 7 17.5523 7 17H5ZM5 10V17H7V10H5ZM2 11H6V9H2V11ZM-1 8C-1 9.65686 0.343148 11 2 11V9C1.44772 9 1 8.55229 1 8H-1ZM-1 2V8H1V2H-1ZM24 7H20V9H24V7ZM23 2V8H25V2H23ZM2 3H24V1H2V3ZM3 8V2H1V8H3ZM6 7H2V9H6V7ZM5 6V8H7V6H5ZM5 7H6V5H5V7ZM3 5C3 6.10457 3.89543 7 5 7V5H5H3ZM5 3C3.89543 3 3 3.89543 3 5H5V3ZM21 3H5V5H21V3ZM23 5C23 3.89543 22.1046 3 21 3V5H23ZM21 7C22.1046 7 23 6.10457 23 5H21V7ZM20 7H21V5H20V7ZM21 8V6H19V8H21ZM11 18C12.6569 18 14 16.6569 14 15H12C12 15.5523 11.5523 16 11 16V18ZM8 15C8 16.6569 9.34315 18 11 18V16C10.4477 16 10 15.5523 10 15H8ZM9.01536 12.7503C8.3942 13.2985 8 14.1038 8 15H10C10 14.7015 10.1296 14.4344 10.3388 14.2497L9.01536 12.7503ZM10.3388 12.7503C10.1296 12.5656 10 12.2985 10 12H8C8 12.8962 8.3942 13.7015 9.01536 14.2497L10.3388 12.7503ZM10 12C10 11.4477 10.4477 11 11 11V9C9.34315 9 8 10.3431 8 12H10ZM11 11C11.5523 11 12 11.4477 12 12H14C14 10.3431 12.6569 9 11 9V11ZM12 12C12 12.2985 11.8704 12.5656 11.6612 12.7503L12.9846 14.2497C13.6058 13.7015 14 12.8962 14 12H12ZM14 15C14 14.1038 13.6058 13.2985 12.9846 12.7503L11.6612 14.2497C11.8704 14.4344 12 14.7015 12 15H14Z" fill="white" mask="url(#path-1-inside-1)"/>
</svg>
