<?xml version="1.0" standalone="no"?>
<!DOCTYPE svg PUBLIC "-//W3C//DTD SVG 1.1//EN" "http://www.w3.org/Graphics/SVG/1.1/DTD/svg11.dtd" >
<svg xmlns="http://www.w3.org/2000/svg">
<metadata>Generated by IcoMoon</metadata>
<defs>
<font id="backofficeMonolith" horiz-adv-x="1024">
<font-face units-per-em="1024" ascent="960" descent="-64" />
<missing-glyph horiz-adv-x="1024" />
<glyph unicode="&#x20;" horiz-adv-x="512" d="" />
<glyph unicode="&#xe8fa;" glyph-name="filter" d="M776.859 792.104c6.271-15.146 3.689-28.075-7.746-38.788l-272.782-273.177v-411.152c0-15.515-7.193-26.413-21.579-32.693-4.795-1.847-9.406-2.771-13.833-2.771-9.96 0-18.259 3.509-24.899 10.528l-141.647 141.853c-7.009 7.019-10.513 15.33-10.513 24.935v269.299l-272.782 273.177c-11.435 10.713-14.017 23.642-7.746 38.788 6.271 14.407 17.153 21.61 32.645 21.61h708.237c15.493 0 26.374-7.203 32.645-21.61zM988.571 326.095c9.905 0 18.286-3.619 25.143-10.857s10.286-15.809 10.286-25.714c0-9.905-3.429-18.476-10.286-25.714s-15.238-10.857-25.143-10.857h-147.429v-147.429c0-9.905-3.619-18.286-10.857-25.143s-15.809-10.286-25.714-10.286c-9.905 0-18.476 3.429-25.714 10.286s-10.857 15.238-10.857 25.143v147.429h-147.429c-9.905 0-18.286 3.619-25.143 10.857s-10.286 15.809-10.286 25.714c0 9.905 3.429 18.476 10.286 25.714s15.238 10.857 25.143 10.857h147.429v147.429c0 9.905 3.619 18.286 10.857 25.143s15.809 10.286 25.714 10.286c9.905 0 18.476-3.429 25.714-10.286s10.857-15.238 10.857-25.143v-147.429h147.429z" />
<glyph unicode="&#xe900;" glyph-name="reports" d="M95.748 960c-2.68 0-5.293-1.074-7.25-3.25l-88.498-98c64.835 0 57.173-0.155 63.999-0.25v-858.625h858.484c0.082-6.87 0.25 0.835 0.25-63.875l97.998 88.5c4.359 3.91 4.359 10.721 0 14.625l-98.498 88.875h-0.125c0-64.6 0.168-56.831 0.25-63.75h-793.985v794.125c6.962-0.094-0.849-0.25 63.624-0.25v0.125l-88.873 98.5c-1.951 2.176-4.695 3.25-7.375 3.25zM863.984 768c-52.639 0-95.998-43.36-95.998-96 0-25.334 10.213-48.264 26.499-65.5l-96.623-162.375c-8.282 2.362-16.88 3.875-25.875 3.875-17.856 0-34.484-5.227-48.874-13.875l-117.123 77.75c3.675 10.127 6 20.799 6 32.125 0 52.64-43.359 96-95.998 96s-95.998-43.36-95.998-96c0-24.985 9.983-47.59 25.875-64.75l-75.999-161c-44.101-8.588-77.874-47.805-77.874-94.25 0-52.64 43.359-96 95.998-96s95.998 43.36 95.998 96c0 35.377-19.801 66.225-48.624 82.875l67.249 142.5c4.409-0.632 8.804-1.375 13.375-1.375 18.010 0 34.777 5.339 49.249 14.125l116.873-77.625c-3.735-10.2-6.125-21.078-6.125-32.5 0-52.64 43.359-96 95.998-96s95.998 43.36 95.998 96c0 20.439-6.671 39.479-17.75 55.125l101.373 170.125c4.091-0.542 8.146-1.25 12.375-1.25 52.639 0 95.998 43.36 95.998 96s-43.359 96-95.998 96zM863.984 704c18.052 0 31.999-13.952 31.999-32 0-18.054-13.948-32-31.999-32s-31.999 13.946-31.999 32c0 18.048 13.948 32 31.999 32zM415.992 576c18.052 0 31.999-13.952 31.999-32 0-18.054-13.948-32-31.999-32s-31.999 13.946-31.999 32c0 18.048 13.948 32 31.999 32zM671.987 384c18.052 0 31.999-13.952 31.999-32 0-18.054-13.948-32-31.999-32s-31.999 13.946-31.999 32c0 18.048 13.948 32 31.999 32zM287.995 256c18.052 0 31.999-13.952 31.999-32 0-18.054-13.948-32-31.999-32s-31.999 13.946-31.999 32c0 18.048 13.948 32 31.999 32z" />
<glyph unicode="&#xe901;" glyph-name="tags" horiz-adv-x="808" d="M779.775 960h-331.858c-9.514-0.512-31.152-15.802-33.951-18.681l-395.779-407.143c-24.25-24.951-24.25-65.383 0-90.334l49.371-50.797-49.371-50.797c-24.25-24.951-24.25-65.383 0-90.334l288.891-297.233c12.125-12.475 27.981-18.681 43.899-18.681 15.856 0 31.774 6.206 43.899 18.681l395.717 407.207c2.86 2.879 17.784 22.584 17.784 34.867v531.449c0.871 17.849-11.566 31.796-28.603 31.796zM746.881 407.567c-0.187-0.32-0.311-0.512-0.249-0.512l-395.593-407.207-288.891 297.105 49.371 50.797 195.558-201.205c12.125-12.475 27.981-18.681 43.899-18.681 15.856 0 31.774 6.206 43.899 18.681l352.004 362.168v-101.146zM746.881 704.096v-104.601c-0.187-0.32-0.311-0.512-0.249-0.512l-395.593-407.207-288.891 297.105 393.105 404.392c1.181 0.896 2.612 1.855 4.042 2.751h287.585v-191.928zM592.842 798.316c0-29.765 24.129-53.895 53.895-53.895s53.895 24.129 53.895 53.895c0 29.765-24.129 53.895-53.895 53.895s-53.895-24.129-53.895-53.895z" />
<glyph unicode="&#xe902;" glyph-name="support" d="M95.933 552.413l234.981-39.181c20.367 48.522 58.19 86.344 105.42 106.229l1.292 0.483-39.181 234.981c-147.431-41.321-261.191-155.081-301.781-299.47l-0.73-3.041zM95.933 325.301c41.321-147.431 155.081-261.191 299.47-301.781l3.041-0.73 39.181 234.981c-48.522 20.367-86.344 58.19-106.229 105.42l-0.483 1.292-234.981-39.181zM928.067 552.413c-41.321 147.431-155.081 261.191-299.47 301.781l-3.041 0.73-39.181-234.981c48.522-20.367 86.344-58.19 106.229-105.42l0.483-1.292 234.981 39.181zM928.067 325.301l-234.981 39.181c-20.367-48.522-58.19-86.344-105.42-106.229l-1.292-0.483 39.181-234.981c147.431 41.321 261.191 155.081 301.781 299.47l0.73 3.041zM512-46.196c-267.887 0-485.053 217.165-485.053 485.053s217.165 485.053 485.053 485.053v0c267.887 0 485.053-217.165 485.053-485.053s-217.165-485.053-485.053-485.053v0zM512 297.006c78.342 0 141.851 63.509 141.851 141.851s-63.509 141.851-141.851 141.851v0c-78.342 0-141.851-63.509-141.851-141.851s63.509-141.851 141.851-141.851v0z" />
<glyph unicode="&#xe903;" glyph-name="callbacks" horiz-adv-x="922" d="M446.413 853.782c-42.415 0-76.8-34.385-76.8-76.8v0-606.771c0-42.415 34.385-76.8 76.8-76.8v0h322.714c42.415 0 76.8 34.385 76.8 76.8v0 606.72c0 42.415-34.385 76.8-76.8 76.8v0h-322.714zM140.032 378.902l-70.758-70.554-36.147 36.25 133.837 133.427 133.837-133.427-36.147-36.25-73.421 73.165v-293.376c0-49.152 39.782-88.883 88.883-88.883h241.357c41.728 0 67.072 13.773 67.072 42.035h51.2c0-64.973-52.019-93.235-118.272-93.235h-241.357c-0.015 0-0.033 0-0.051 0-77.338 0-140.032 62.694-140.032 140.032 0 0 0 0 0 0v0 290.816zM446.464 904.982h322.714c70.692 0 128-57.308 128-128v0-606.771c0-70.692-57.308-128-128-128v0h-322.765c-70.692 0-128 57.308-128 128v0 606.72c0 70.692 57.308 128 128 128v0zM607.744 123.363c-47.76 0-86.477 38.717-86.477 86.477s38.717 86.477 86.477 86.477v0c47.76 0 86.477-38.717 86.477-86.477s-38.717-86.477-86.477-86.477v0zM607.744 174.563c19.483 0 35.277 15.794 35.277 35.277s-15.794 35.277-35.277 35.277v0c-19.483 0-35.277-15.794-35.277-35.277s15.794-35.277 35.277-35.277v0z" />
<glyph unicode="&#xe904;" glyph-name="campaigns" d="M516.312 619.566c1.348-10.122 9.927-17.849 20.31-17.849 0.934 0 1.853 0.063 2.754 0.184l-0.105-0.012c60.901 8.569 120.509 23.175 177.314 43.331 8.044 2.998 13.669 10.613 13.669 19.542 0 2.46-0.427 4.821-1.211 7.012l0.045-0.145c-2.783 8.124-10.354 13.86-19.265 13.86-2.405 0-4.713-0.418-6.854-1.185l0.142 0.044c-48.557-17.867-105.709-32.326-164.783-40.84l-4.662-0.551c-10.028-1.551-17.616-10.122-17.616-20.465 0-1.032 0.076-2.046 0.221-3.038l-0.014 0.112zM779.21 672.329c0.026 0 0.057 0 0.087 0 3.037 0 5.917 0.675 8.497 1.884l-0.123-0.052c15.629 7.222 31.097 14.983 46.026 23.067 6.489 3.634 10.804 10.466 10.804 18.306 0 3.554-0.887 6.901-2.451 9.832l0.055-0.113c-3.423 6.581-10.19 10.998-17.989 10.998-3.519 0-6.829-0.9-9.71-2.481l0.105 0.053c-14.174-7.707-28.888-15.091-43.709-21.881-7.144-3.412-11.991-10.58-11.991-18.879 0-3.12 0.685-6.079 1.912-8.737l-0.054 0.129c3.395-7.653 10.779-12.126 18.54-12.126zM953.128 950.857c-38.265 0-69.524-30.989-70.818-69.632-102.077-89.088-213.208-128.323-289.199-145.516-84.615-19.24-145.516-16.115-146.055-16.061h-292.056c-11.277-0.122-20.372-9.292-20.372-20.587 0-0.038 0-0.077 0-0.115v0.006-59.608c-74.267 0-134.629-61.278-134.629-136.731 0-75.399 60.362-136.731 134.575-136.731v-59.554c0-11.48 9.162-20.749 20.48-20.749h35.247l46.727-253.521c10.933-59.904 62.52-104.782 124.667-105.202h98.133c6.036 0 11.803 2.695 15.629 7.491 2.958 3.594 4.751 8.242 4.751 13.31 0 1.315-0.121 2.602-0.352 3.85l0.020-0.13-61.656 334.201h28.78c0.593 0.054 61.44 3.234 146.055-16.007 75.992-17.246 187.123-56.428 289.199-145.516 1.016-38.456 32.26-69.285 70.784-69.632h0.033c39.074 0 70.872 32.337 70.872 72.003v752.371c0.054 39.72-31.744 72.057-70.818 72.057zM134.629 407.329c-51.739 0-93.831 42.739-93.831 95.286s42.038 95.34 93.777 95.34v-190.626zM418.439 59.546h-51.254c-11.301-0.091-20.427-9.273-20.427-20.587 0-0.057 0-0.114 0.001-0.171v0.009c0-11.48 9.162-20.749 20.426-20.749h58.853l9.162-49.745h-73.405c-42.208 0.282-77.217 30.75-84.535 70.881l-0.080 0.529-45.433 245.868h144.977l8.785-47.805h-52.979c-11.277-0.122-20.372-9.292-20.372-20.587 0-0.038 0-0.077 0-0.115v0.006c0-11.48 9.162-20.749 20.372-20.749h60.739l8.785-47.697h-53.194c-11.277-0.122-20.372-9.292-20.372-20.587 0-0.038 0-0.077 0-0.115v0.006c0-11.48 9.162-20.749 20.372-20.749h60.847l8.785-47.643zM425.445 327.025h-250.072v351.178h250.072v-351.178zM882.257 177.575c-101.268 79.603-207.333 116.089-281.708 132.797-39.877 9.563-86.027 15.645-133.39 16.852l-0.862 0.017v350.747c48.209 1.23 94.34 7.311 138.779 17.779l-4.581-0.91c74.429 16.707 180.547 53.194 281.762 132.797v-650.078zM983.202 126.429c0-16.869-13.474-30.558-30.073-30.558-16.642 0.152-30.074 13.678-30.074 30.342 0 0.076 0 0.152 0.001 0.228v-0.012 752.371c0 16.869 13.474 30.612 30.073 30.612s30.073-13.743 30.073-30.558v-752.424z" />
<glyph unicode="&#xe905;" glyph-name="users" horiz-adv-x="1132" d="M728.711 636.327c-4.851 4.851-9.162 9.809-12.719 14.659-0.431 0.377-0.431 0.377-3.018 3.234-26.462 33.954-42.253 77.608-42.253 118.029 2.256 82.061 69.317 147.723 151.714 147.723s149.457-65.662 151.709-147.515l0.005-0.208c0-52.116-24.953-105.472-62.356-140.019 124.704-42.306 212.853-158.311 212.884-294.908v-0.004c0-14.883-12.065-26.947-26.947-26.947v0h-402.324c-14.883 0-26.947 12.065-26.947 26.947s12.065 26.947 26.947 26.947v0h373.976c-14.222 129.783-123.24 229.861-255.633 229.861-0.091 0-0.182 0-0.274 0h0.014c-0.113 0-0.247 0-0.381 0-54.734 0-105.459-17.166-147.084-46.409l0.817 0.544c-4.465-3.407-10.123-5.459-16.26-5.459-14.883 0-26.947 12.065-26.947 26.947 0 9.494 4.909 17.841 12.328 22.641l0.106 0.064c26.553 18.709 57.387 33.706 90.509 43.325l2.19 0.545zM920.253 772.25c0 54.024-43.795 97.819-97.819 97.819s-97.819-43.795-97.819-97.819v0c0-28.133 11.587-60.147 28.672-82.351l3.234-3.557c7.815-10.348 17.408-19.294 28.349-26.301 12.396-8.030 25.115-12.072 37.672-12.072 48.236 0 97.711 64.027 97.711 124.281zM594.459 596.769c-0.245 82.405-67.073 149.12-149.498 149.181h-0.006c-82.45-0.061-149.289-66.806-149.504-149.214v-0.021c0-33.738 11.21-71.572 31.097-104.771 17.192-28.726 39.559-52.008 63.919-66.291 12.719-7.384 99.921-5.497 113.718 3.395 14.983 9.162 29.48 22.582 44.517 41.283 28.51 37.080 45.757 84.615 45.757 126.383zM322.075 410.832c-15.798 15.59-29.622 33.118-41.102 52.215l-0.666 1.195c-24.684 41.337-38.804 88.603-38.804 132.473 0.215 112.212 91.215 203.099 203.45 203.129h0.003c112.101 0 203.399-91.136 203.399-203.129 0-54.272-21.558-113.502-57.344-159.798l-2.21-2.533c-5.43-6.815-10.754-12.873-16.349-18.669l0.073 0.076c179.631-50.877 311.242-215.848 311.242-411.54 0-14.883-12.065-26.947-26.947-26.947v0h-802.924c-14.883 0-26.947 12.065-26.947 26.947v0c0.073 188.796 122.398 349.002 292.107 405.76l3.020 0.876zM455.357 378.064c-0.090 0-0.196 0-0.302 0-197.055 0-358.539-152.298-373.166-345.609l-0.076-1.258h747.089c-14.703 194.568-176.187 346.867-373.242 346.867-0.106 0-0.213 0-0.319 0h0.017z" />
<glyph unicode="&#xe906;" glyph-name="operators" horiz-adv-x="791" d="M395.636 555.221c-102.825 0-186.182 83.356-186.182 186.182s83.356 186.182 186.182 186.182v0c102.825 0 186.182-83.356 186.182-186.182s-83.356-186.182-186.182-186.182v0zM395.636 601.766c77.119 0 139.636 62.517 139.636 139.636s-62.517 139.636-139.636 139.636v0c-77.119 0-139.636-62.517-139.636-139.636s62.517-139.636 139.636-139.636v0zM395.636-49.87c-51.413 0-93.091 41.678-93.091 93.091s41.678 93.091 93.091 93.091v0c51.413 0 93.091-41.678 93.091-93.091s-41.678-93.091-93.091-93.091v0zM395.636-3.325c25.706 0 46.545 20.839 46.545 46.545s-20.839 46.545-46.545 46.545v0c-25.706 0-46.545-20.839-46.545-46.545s20.839-46.545 46.545-46.545v0zM674.909-49.87c-51.413 0-93.091 41.678-93.091 93.091s41.678 93.091 93.091 93.091v0c51.413 0 93.091-41.678 93.091-93.091s-41.678-93.091-93.091-93.091v0zM674.909-3.325c25.706 0 46.545 20.839 46.545 46.545s-20.839 46.545-46.545 46.545v0c-25.706 0-46.545-20.839-46.545-46.545s20.839-46.545 46.545-46.545v0zM116.364-49.87c-51.413 0-93.091 41.678-93.091 93.091s41.678 93.091 93.091 93.091v0c51.413 0 93.091-41.678 93.091-93.091s-41.678-93.091-93.091-93.091v0zM116.364-3.325c25.706 0 46.545 20.839 46.545 46.545s-20.839 46.545-46.545 46.545v0c-25.706 0-46.545-20.839-46.545-46.545s20.839-46.545 46.545-46.545v0zM418.909 545.493v-176.454h-46.545v176.454c-95.092-4.282-172.311-35.328-232.727-93.091v-83.363h-46.545v93.091c0 5.911 2.234 11.823 6.703 16.384 75.217 76.055 174.359 114.036 295.843 114.036s220.625-37.981 295.843-114.036c4.143-4.186 6.703-9.946 6.703-16.304 0-0.028 0-0.057 0-0.085v0.004-93.091h-46.545v83.316c-60.416 57.809-137.635 88.902-232.727 93.137zM651.636 252.675h-232.727v-162.909h-46.545v162.909h-232.727v-162.909h-46.545v209.455h605.091v-209.455h-46.545z" />
<glyph unicode="&#xe907;" glyph-name="payments" horiz-adv-x="1502" d="M68.267 677.79v-682.667h1092.267v682.667h-1092.267zM1228.8 199.924h204.8v682.667h-1092.267v-136.533h819.2c37.703 0 68.267-30.564 68.267-68.267v0-477.867zM273.067 746.057v136.533c0 37.703 30.564 68.267 68.267 68.267v0h1092.267c37.703 0 68.267-30.564 68.267-68.267v0-682.667c0-37.703-30.564-68.267-68.267-68.267v0h-204.8v-136.533c0-37.703-30.564-68.267-68.267-68.267v0h-1092.267c-37.703 0-68.267 30.564-68.267 68.267v0 682.667c0 37.703 30.564 68.267 68.267 68.267v0h204.8zM204.8 336.457h136.533v-68.267h-136.533v68.267zM408.781 336.457h136.533v-68.267h-136.533v68.267zM612.693 336.457h136.533v-68.267h-136.533v68.267zM816.674 336.457h136.533v-68.267h-136.533v68.267zM204.8 199.924h68.267v-68.267h-68.267v68.267zM341.333 199.924h68.267v-68.267h-68.267v68.267z" />
<glyph unicode="&#xe908;" glyph-name="settings" d="M512 358.015c44.648 0 80.842 36.194 80.842 80.842s-36.194 80.842-80.842 80.842v0c-44.648 0-80.842-36.194-80.842-80.842s36.194-80.842 80.842-80.842v0zM512 304.12c-74.413 0-134.737 60.324-134.737 134.737s60.324 134.737 134.737 134.737v0c74.413 0 134.737-60.324 134.737-134.737s-60.324-134.737-134.737-134.737v0zM614.292 759.477l-36.702 12.342v125.144h-131.18v-121.694l-39.020-11.21c-21.484-6.239-39.844-13.464-57.361-22.135l2.011 0.9-34.493-16.707-83.106 82.998-92.699-92.699 79.603-79.603-20.211-35.678c-10.779-19.079-19.779-39.181-26.786-59.985l-12.396-36.702h-108.059v-131.18h104.664l11.156-39.020c6.467-22.582 15.306-44.409 26.193-65.159l18.486-35.139-72.704-72.65 92.699-92.699 72.758 72.65 35.085-18.486c20.749-10.887 42.577-19.672 65.213-26.193l38.966-11.156v-104.664h131.18v108.113l36.648 12.342c20.857 7.006 40.96 15.953 60.039 26.786l35.678 20.211 79.603-79.656 92.699 92.699-82.998 83.106 16.707 34.547c8.623 17.785 15.737 36.325 21.235 55.35l11.21 39.020h121.694v131.18h-125.144l-12.396 36.648c-6.676 19.712-13.963 36.379-22.462 52.3l0.904-1.855-18.432 35.139 89.681 89.735-92.699 92.699-89.789-89.681-35.139 18.432c-14.051 7.592-30.699 14.878-47.968 20.831l-2.424 0.727zM631.485 810.515c20.211-6.791 39.667-15.144 58.314-24.953l61.656 61.709c9.752 9.75 23.224 15.78 38.104 15.78s28.351-6.030 38.104-15.78l92.699-92.699c9.766-9.755 15.807-23.237 15.807-38.131s-6.041-28.375-15.806-38.13l-61.657-61.657c9.809-18.648 18.163-38.104 24.953-58.314h86.447c29.765 0 53.895-24.129 53.895-53.895v0-131.18c0-29.765-24.129-53.895-53.895-53.895v0h-81.112c-7.202-24.851-15.546-46.091-25.563-66.356l1.041 2.329 55.943-55.943c9.75-9.752 15.78-23.224 15.78-38.104s-6.030-28.351-15.78-38.104l-92.699-92.699c-9.755-9.766-23.237-15.807-38.131-15.807s-28.375 6.041-38.13 15.806l-0.001 0.001-50.661 50.607c-21.881-12.396-45.11-22.851-69.309-30.989v-69.363c0-29.765-24.129-53.895-53.895-53.895v0h-131.18c-29.765 0-53.895 24.129-53.895 53.895v0 64.027c-28.922 8.418-53.911 18.725-77.483 31.333l2.138-1.044-44.625-44.625c-9.752-9.75-23.224-15.78-38.104-15.78s-28.351 6.030-38.104 15.78l-92.699 92.699c-9.766 9.755-15.807 23.237-15.807 38.131s6.041 28.375 15.806 38.13l0.001 0.001 44.571 44.625c-11.564 21.434-21.87 46.423-29.575 72.527l-0.713 2.818h-64.027c-29.765 0-53.895 24.129-53.895 53.895v0 131.18c0 29.765 24.129 53.895 53.895 53.895v0h69.363c8.138 24.253 18.54 47.427 30.989 69.309l-50.661 50.661c-9.75 9.752-15.78 23.224-15.78 38.104s6.030 28.351 15.78 38.104l92.699 92.699c9.755 9.766 23.237 15.807 38.131 15.807s28.375-6.041 38.13-15.806l55.944-55.89c17.936 8.977 39.176 17.321 61.21 23.811l2.817 0.711v81.112c0 29.765 24.129 53.895 53.895 53.895v0h131.18c29.765 0 53.895-24.129 53.895-53.895v0-86.447z" />
<glyph unicode="&#xe909;" glyph-name="minimize-popup-profile" d="M66.783 69.565h890.435c36.883 0 66.783-29.9 66.783-66.783s-29.9-66.783-66.783-66.783h-890.435c-36.883 0-66.783 29.9-66.783 66.783s29.9 66.783 66.783 66.783z" />
<glyph unicode="&#xe90a;" glyph-name="currencies" d="M1024 499.725c0 144.82-117.382 262.637-261.666 262.637-87.825 0-165.621-43.697-213.105-110.521-21.315 4.56-43.378 7.071-65.968 7.33-21.64 112.875-120.733 198.429-239.409 198.429-134.464 0-243.851-109.797-243.851-244.756 0-101.829 62.292-189.301 150.622-226.125-3.938-20.576-6.024-41.801-6.024-63.511 0-185.277 150.177-336.008 334.766-336.008 156.138 0 287.641 107.849 324.475 253.224 124.626 20.028 220.162 128.658 220.162 259.301zM479.364 24.734c-163.972 0-297.371 133.897-297.371 298.475s133.402 298.475 297.371 298.475c163.969 0 297.371-133.897 297.371-298.475s-133.398-298.475-297.371-298.475v0zM229.641 819.586c104.747 7.075 194.397-64.794 215.779-162.081-53.493-5.431-103.303-23.552-146.393-51.312 0 2.976-2.404 5.39-5.37 5.39h-20.485l40.779 82.078c7.438 14.972-3.41 32.572-20.081 32.572-8.507 0-16.282-4.831-20.081-12.472l-29.942-60.271-29.942 60.271c-3.796 7.642-11.574 12.472-20.081 12.472-16.671 0-27.519-17.599-20.081-32.572l40.779-82.078h-14.113c-6.484 0-11.738-5.277-11.738-11.782v-0.435c0-6.508 5.258-11.782 11.738-11.782h72.546c-4.611-3.633-9.113-7.394-13.526-11.26h-59.020c-6.484 0-11.738-5.277-11.738-11.782 0-6.508 5.258-11.782 11.738-11.782h34.717c-3.433-3.678-6.787-7.432-10.055-11.26l-3.661-4.343c-27.313-33.12-48.426-71.565-61.544-113.528-75.1 33.713-126.641 111.111-122.206 199.844 5.205 104.122 88.334 189.109 191.981 196.113v0zM811.377 366.379c2.232-0.199 4.457-0.315 6.671-0.315 8.283 0 16.629 1.385 25.511 4.234 0.572 0.184 1.141 0.372 1.705 0.563 10.699 3.622 15.878 15.794 11.218 26.116l-2.55 5.653c-4.113 9.113-14.378 13.681-23.869 10.626l-0.15-0.049c-8.81-2.823-14.906-2.823-23.731 0-1.526 0.488-3.111 1.081-4.723 1.715-7.285 25.744-17.576 50.231-30.439 73.074h20.216c7.483 0 13.548 6.088 13.548 13.598s-6.065 13.598-13.548 13.598h-37.286c-9.539 13.7-20.059 26.664-31.471 38.772-0.022 0.049-0.041 0.098-0.064 0.146-1.189 24.663 18.458 45.112 42.776 45.112 18.574 0 34.426-11.932 40.345-28.559 3.122-8.772 11.652-14.428 20.93-14.428 15.366 0 26.472 15.254 21.263 29.764-12.183 33.934-44.586 58.263-82.542 58.263-36.8 0-68.358-22.877-81.352-55.197-28.648 22.25-60.968 39.947-95.884 51.999 43.404 53.846 110.976 87.299 186.020 83.467 115.385-5.893 208.412-100.819 212.488-216.708 3.893-110.754-72.426-204.622-175.075-227.712 1.81 14.116 2.745 28.503 2.745 43.104 0.004 14.619-0.939 29.028-2.752 43.164v0zM400.364 269.311c6.364-64.242 27.273-96.363 62.727-96.363 13.273 0 25.409 3.132 36.409 9.395s21.591 20.937 31.773 44.021c6.545 15.032 12.182 24.382 16.909 28.050s9.818 5.503 15.273 5.503c10.909 0 19.409-3.087 25.5-9.261s9.136-14.808 9.136-25.903c0-26.305-13.091-50.597-39.273-72.876s-57.909-33.418-95.182-33.418c-34.909 0-65.364 12.481-91.364 37.445s-41.545 62.766-46.636 113.408h-34.636c-3.273 0-4.909 2.326-4.909 6.979 0 4.474 1.727 10.11 5.182 16.911s6.364 10.2 8.727 10.2h23.455v9.663c0 7.874 0.364 19.237 1.091 34.089h-33.545c-3.273 0-4.909 2.237-4.909 6.711 0 4.653 1.727 10.379 5.182 17.179s6.364 10.2 8.727 10.2h27.273c11.818 93.232 56.545 139.847 134.182 139.847 34.182 0 63.636-8.679 88.364-26.037s37.091-38.921 37.091-64.689c0-8.768-2.909-16.195-8.727-22.279s-12.909-9.126-21.273-9.126c-9.273 0-16.045 2.326-20.318 6.979s-8.5 11.81-12.682 21.474c-5.273 12.705-11.545 22.413-18.818 29.124s-19.636 10.066-37.091 10.066c-20 0-35.409-6.889-46.227-20.668s-17.773-35.342-20.864-64.689h87.818c3.636 0 5.455-2.326 5.455-6.979 0-5.011-1.682-10.782-5.045-17.313s-6.318-9.797-8.864-9.797h-81.545l-0.545-26.305c0-8.053 0.182-13.868 0.545-17.447h90c3.636 0 5.455-2.237 5.455-6.711 0-5.189-1.682-11.050-5.045-17.582s-6.318-9.797-8.864-9.797h-79.909z" />
<glyph unicode="&#xe90b;" glyph-name="union" d="M257.044 624.9c11.754 130.453 121.428 232.7 254.956 232.7 117.304 0 216.243-78.921 246.492-186.612 2.934-10.456 12.15-17.921 22.989-18.623 106.813-6.928 191.319-95.787 191.319-204.365 0-105.595-79.836-193.659-182.011-204.954-14.054-1.556-24.187-14.208-22.636-28.257 1.556-14.054 14.208-24.187 28.257-22.636 128.22 14.177 227.589 124.252 227.589 255.846 0 129.681-96.41 236.825-221.481 253.691-41.513 120.503-155.873 207.109-290.519 207.109-152.568 0-279.137-111.202-303.114-256.991-117.159-10.849-208.886-109.417-208.886-229.409 0-127.247 103.154-230.4 230.4-230.4 14.138 0 25.6 11.464 25.6 25.6s-11.462 25.6-25.6 25.6c-98.97 0-179.2 80.23-179.2 179.2s80.23 179.2 179.2 179.2l1.078-0.003c13.275-0.036 24.375 10.081 25.567 23.303zM394.604 345.6l58.698 58.696c9.998 9.999 9.998 26.209 0 36.209-9.997 9.995-26.206 9.995-36.204 0l-102.4-102.4c-9.998-9.999-9.998-26.209 0-36.209l102.4-102.4c9.997-9.994 26.206-9.994 36.204 0 9.998 9.999 9.998 26.209 0 36.209l-58.698 58.696h296.596c14.136 0 25.6 11.464 25.6 25.6s-11.464 25.6-25.6 25.6h-296.596zM606.904 235.704c-9.999 9.994-26.209 9.994-36.209 0-9.994-9.999-9.994-26.209 0-36.209l58.701-58.696h-296.596c-14.138 0-25.6-11.464-25.6-25.6s11.462-25.6 25.6-25.6h296.596l-58.701-58.696c-9.994-9.999-9.994-26.209 0-36.209 9.999-9.994 26.209-9.994 36.209 0l102.4 102.4c9.994 9.999 9.994 26.209 0 36.209l-102.4 102.4z" />
<glyph unicode="&#xe90c;" glyph-name="close-popup-profile" d="M20.703-43.297c27.603-27.603 72.437-27.603 100.040 0l391.702 391.702 391.658-391.702c12.591-11.701 29.523-18.882 48.132-18.882 39.096 0 70.79 31.694 70.79 70.79 0 18.609-7.181 35.541-18.922 48.177l0.041-0.044-391.658 391.702 391.658 391.658c11.701 12.591 18.882 29.523 18.882 48.132 0 39.096-31.694 70.79-70.79 70.79-18.609 0-35.541-7.181-48.177-18.922l0.044 0.041-391.658-391.658-391.702 391.658c-12.591 11.701-29.523 18.882-48.132 18.882-39.096 0-70.79-31.694-70.79-70.79 0-18.609 7.181-35.541 18.922-48.177l-0.041 0.044 391.702-391.658-391.702-391.702c-12.789-12.807-20.698-30.49-20.698-50.020s7.909-37.213 20.699-50.021l-0.001 0.001z" />
<glyph unicode="&#xe90d;" glyph-name="calendar" d="M120.029 9.143h160.352v164.571h-160.352v-164.571zM316.015 9.143h178.168v164.571h-178.168v-164.571zM120.029 210.286h160.352v182.857h-160.352v-182.857zM316.015 210.286h178.168v182.857h-178.168v-182.857zM120.029 429.714h160.352v164.571h-160.352v-164.571zM529.817 9.143h178.168v164.571h-178.168v-164.571zM316.015 429.714h178.168v164.571h-178.168v-164.571zM743.619 9.143h160.352v164.571h-160.352v-164.571zM529.817 210.286h178.168v182.857h-178.168v-182.857zM333.832 704v164.571c0 4.952-1.763 9.238-5.289 12.857s-7.702 5.429-12.527 5.429h-35.634c-4.825 0-9.001-1.81-12.527-5.429s-5.289-7.905-5.289-12.857v-164.571c0-4.952 1.763-9.238 5.289-12.857s7.702-5.429 12.527-5.429h35.634c4.825 0 9.001 1.81 12.527 5.429s5.289 7.905 5.289 12.857zM743.619 210.286h160.352v182.857h-160.352v-182.857zM529.817 429.714h178.168v164.571h-178.168v-164.571zM743.619 429.714h160.352v164.571h-160.352v-164.571zM761.436 704v164.571c0 4.952-1.763 9.238-5.289 12.857s-7.702 5.429-12.527 5.429h-35.634c-4.825 0-9.001-1.81-12.527-5.429s-5.289-7.905-5.289-12.857v-164.571c0-4.952 1.763-9.238 5.289-12.857s7.702-5.429 12.527-5.429h35.634c4.825 0 9.001 1.81 12.527 5.429s5.289 7.905 5.289 12.857zM975.238 740.571v-731.429c0-19.81-7.052-36.952-21.158-51.429s-30.808-21.714-50.11-21.714h-783.941c-19.302 0-36.005 7.238-50.11 21.714s-21.158 31.619-21.158 51.429v731.429c0 19.81 7.052 36.952 21.158 51.429s30.808 21.714 50.11 21.714h71.267v54.857c0 25.143 8.723 46.667 26.168 64.571s38.417 26.857 62.916 26.857h35.634c24.498 0 45.47-8.952 62.916-26.857s26.168-39.428 26.168-64.571v-54.857h213.802v54.857c0 25.143 8.723 46.667 26.168 64.571s38.417 26.857 62.916 26.857h35.634c24.498 0 45.47-8.952 62.916-26.857s26.169-39.428 26.169-64.571v-54.857h71.267c19.302 0 36.005-7.238 50.11-21.714s21.158-31.619 21.158-51.429z" />
<glyph unicode="&#xe90e;" glyph-name="times" d="M512 960c70.667 0 137.166-13.333 199.5-40s116.666-63.166 163-109.5c46.334-46.334 82.833-100.666 109.5-163s40-128.833 40-199.5c0-70.667-13.333-137.166-40-199.5s-63.166-116.666-109.5-163c-46.334-46.334-100.666-82.833-163-109.5s-128.833-40-199.5-40c-70.667 0-137.166 13.333-199.5 40s-116.666 63.166-163 109.5c-46.334 46.334-82.833 100.666-109.5 163s-40 128.833-40 199.5c0 70.667 13.333 137.166 40 199.5s63.166 116.666 109.5 163c46.334 46.334 100.666 82.833 163 109.5s128.833 40 199.5 40zM512-1c62 0 120.166 11.833 174.5 35.5s101.666 55.833 142 96.5c40.334 40.667 72.333 88.166 96 142.5s35.5 112.5 35.5 174.5c0 62-11.833 120.166-35.5 174.5s-55.666 101.666-96 142c-40.334 40.334-87.666 72.333-142 96s-112.5 35.5-174.5 35.5c-62 0-120.166-11.833-174.5-35.5s-101.666-55.666-142-96c-40.334-40.334-72.333-87.666-96-142s-35.5-112.5-35.5-174.5c0-62 11.833-120.166 35.5-174.5s55.666-101.833 96-142.5c40.334-40.667 87.666-72.833 142-96.5s112.5-35.5 174.5-35.5zM693 629c6-6 9-13.5 9-22.5s-3-16.5-9-22.5l-136-136 136-136c6-6 9-13.5 9-22.5s-3-16.5-9-22.5c-6-6-13.5-9-22.5-9s-16.5 3-22.5 9l-136 136-136-136c-6-6-13.5-9-22.5-9s-16.5 3-22.5 9c-6 6-9 13.5-9 22.5s3 16.5 9 22.5l136 136-136 136c-6 6-9 13.5-9 22.5s3 16.5 9 22.5c6 6 13.5 9 22.5 9s16.5-3 22.5-9l136-136 136 136c6 6 13.5 9 22.5 9s16.5-3 22.5-9z" />
<glyph unicode="&#xe90f;" glyph-name="arrow-down" d="M0 687.876c0 4.023 0.842 8.214 2.527 12.572s4.212 8.214 7.581 11.566c6.739 6.035 14.826 9.052 24.261 9.052s17.522-3.017 24.261-9.052l456.908-454.608 449.832 447.568c6.739 6.705 14.826 10.058 24.261 10.058s17.522-3.353 24.261-10.058c6.739-6.705 10.109-14.751 10.109-24.138s-3.369-17.433-10.109-24.138l-474.093-471.706c-6.739-6.705-14.826-10.058-24.261-10.058s-17.522 3.353-24.261 10.058l-481.169 477.741c-3.37 3.353-5.897 7.208-7.581 11.566s-2.527 8.884-2.527 13.578z" />
<glyph unicode="&#xe910;" glyph-name="alert" d="M512 960c141.129 0 261.743-50.051 361.846-150.154s150.154-220.717 150.154-361.846c0-141.129-50.051-261.743-150.154-361.846s-220.717-150.154-361.846-150.154c-141.129 0-261.743 50.051-361.846 150.154s-150.154 220.717-150.154 361.846c0 141.129 50.051 261.743 150.154 361.846s220.717 150.154 361.846 150.154zM571.077 192v98.462h-118.154v-98.462h118.154zM571.077 408.615v315.077h-118.154v-315.077h118.154z" />
<glyph unicode="&#xe911;" glyph-name="search" d="M708.923 526.769c0 75.898-26.974 140.82-80.923 194.769s-118.871 80.923-194.769 80.923c-75.898 0-140.82-26.974-194.769-80.923s-80.923-118.871-80.923-194.769c0-75.898 26.974-140.82 80.923-194.769s118.871-80.923 194.769-80.923c75.898 0 140.82 26.974 194.769 80.923s80.923 118.871 80.923 194.769zM1024 14.769c0-21.333-7.795-39.795-23.385-55.385s-34.051-23.385-55.385-23.385c-22.154 0-40.615 7.795-55.385 23.385l-211.077 210.462c-73.436-50.872-155.282-76.308-245.538-76.308-58.667 0-114.769 11.384-168.308 34.154s-99.692 53.538-138.462 92.308c-38.769 38.769-69.538 84.923-92.308 138.462s-34.154 109.641-34.154 168.308c0 58.667 11.385 114.769 34.154 168.308s53.538 99.692 92.308 138.462c38.769 38.769 84.923 69.538 138.462 92.308s109.641 34.154 168.308 34.154c58.667 0 114.769-11.385 168.308-34.154s99.692-53.538 138.462-92.308c38.769-38.769 69.538-84.923 92.308-138.462s34.154-109.641 34.154-168.308c0-90.257-25.436-172.102-76.308-245.538l211.077-211.077c15.18-15.18 22.769-33.641 22.769-55.385z" />
<glyph unicode="&#xe912;" glyph-name="nav-arrow-v" horiz-adv-x="585" d="M12.288 889.563l481.28-450.706-481.134-450.706c-6.715-6.476-10.885-15.551-10.885-25.6s4.17-19.124 10.874-25.59l0.011-0.010c7.268-6.316 16.825-10.166 27.282-10.166s20.015 3.85 27.333 10.209l-0.051-0.043 507.026 476.306c6.844 6.256 11.12 15.222 11.12 25.187 0 0.145-0.001 0.29-0.003 0.435v-0.022c0.001 0.084 0.001 0.182 0.001 0.281 0 10.034-4.336 19.055-11.236 25.292l-0.030 0.026-508.635 476.16c-7.268 6.316-16.825 10.166-27.282 10.166s-20.015-3.85-27.333-10.209l0.051 0.043c-6.653-6.26-10.796-15.122-10.796-24.951 0-10.517 4.743-19.927 12.207-26.206l0.052-0.043z" />
<glyph unicode="&#xe913;" glyph-name="nav-arrow-h" horiz-adv-x="1792" d="M1684.736 929.353l-788.736-842.24-788.736 841.984c-11.332 11.751-27.214 19.048-44.8 19.048s-33.468-7.297-44.782-19.029l-0.018-0.019c-11.053-12.718-17.791-29.444-17.791-47.744s6.737-35.026 17.866-47.833l-0.076 0.089 833.536-887.296c10.948-11.977 26.639-19.46 44.078-19.46 0.254 0 0.508 0.002 0.761 0.005h-0.038c0.146-0.001 0.319-0.002 0.492-0.002 17.559 0 33.346 7.587 44.262 19.662l0.046 0.052 833.28 890.112c11.053 12.718 17.791 29.444 17.791 47.744s-6.737 35.026-17.866 47.833l0.076-0.089c-10.954 11.643-26.463 18.893-43.665 18.893-18.405 0-34.872-8.3-45.86-21.362l-0.075-0.091z" />
<glyph unicode="&#xe914;" glyph-name="leads" horiz-adv-x="725" d="M367.659 600.917c-18.293 18.24-29.611 43.467-29.611 71.337 0 0.091 0 0.181 0 0.272v-0.014c0 55.339 44.075 100.181 98.475 100.181 54.357 0 98.432-44.843 98.432-100.181 0-28.075-11.307-53.419-29.611-71.637h143.616l3.541 0.213c2.347 0 2.347 0 4.139-0.171 1.707-0.299 1.707-0.299 5.376-0.597 2.261-0.427 2.261-0.427 4.48-0.939 1.863-0.477 3.44-1.017 4.961-1.664l-0.225 0.085c2.048-0.725 2.133-0.768 4.181-1.707 6.528-3.243 11.819-7.253 16.171-12.16 9.088-10.667 13.397-23.936 12.203-37.333-1.068-13.213-7.305-24.79-16.662-32.843l-0.063-0.053-215.296-212.309v-294.144c0-17.451-9.173-33.579-24.107-42.624-14.891-8.96-33.365-9.728-48.896-1.963l-114.731 57.216c-16.576 8.318-27.766 25.161-27.819 44.622v235.655l-211.456 208.64c-14.145 8.955-23.4 24.52-23.4 42.246 0 4.008 0.473 7.906 1.367 11.641l-0.069-0.339c5.36 21.654 24.172 37.621 46.87 38.61l0.106 0.004c0.862 0.087 1.863 0.136 2.876 0.136 0.249 0 0.497-0.003 0.745-0.009l-0.037 0.001c2.304 0 2.347 0 2.987-0.128l291.413-0.043zM651.136 558.293l-576.896 0.085c-0.311 0.008-0.678 0.013-1.046 0.013-1.013 0-2.018-0.036-3.014-0.106l0.134 0.008c-2.56-0.128-5.419-2.56-6.187-5.675-0.725-3.115 0.725-6.315 5.291-8.917l3.456-2.773 225.963-222.891v-253.44c0.026-2.848 1.691-5.302 4.095-6.466l0.043-0.019 114.859-57.259c1.040-0.527 2.267-0.836 3.566-0.836 1.519 0 2.939 0.422 4.149 1.155l-0.036-0.020c2.105 1.26 3.502 3.513 3.541 6.096v311.985l6.4 6.272 223.147 219.947c1.636 1.301 2.676 3.291 2.676 5.524 0 1.777-0.658 3.4-1.744 4.639l0.007-0.008c-0.635 0.777-1.417 1.409-2.306 1.859l-0.041 0.019c-1.707 0.64-1.792 0.683-1.664 0.683l-2.133 0.213c-0.085 0.043-0.512 0-2.304-0.085zM436.523 622.421c27.179 0 49.237 22.4 49.237 50.091 0 27.648-22.059 50.091-49.237 50.091s-49.237-22.443-49.237-50.091c0-27.691 22.059-50.091 49.237-50.091zM165.76 697.515c-54.4 0-98.475 44.885-98.475 100.224s44.075 100.181 98.475 100.181c54.357 0 98.432-44.843 98.432-100.181s-44.032-100.181-98.432-100.181zM165.76 747.648c27.179 0 49.195 22.4 49.195 50.091 0 27.648-22.016 50.091-49.195 50.091-27.221 0-49.237-22.443-49.237-50.091 0-27.691 22.016-50.091 49.237-50.091zM362.667 809.728c-40.789 0-73.813 33.621-73.813 75.136s32.981 75.136 73.813 75.136 73.813-33.621 73.813-75.136c0-41.515-33.024-75.136-73.813-75.136zM362.667 847.275c20.425 0.192 36.908 16.794 36.908 37.246 0 0.121-0.001 0.241-0.002 0.361v-0.018c0.001 0.089 0.001 0.195 0.001 0.3 0 20.452-16.483 37.054-36.89 37.246h-0.018c-20.425-0.192-36.908-16.795-36.908-37.246 0-0.106 0-0.211 0.001-0.316v0.016c0-20.736 16.512-37.547 36.907-37.547zM608.853 709.547c-40.832 0-73.899 33.621-73.899 75.136s33.067 75.136 73.856 75.136c40.789 0 73.856-33.621 73.856-75.136s-33.067-75.093-73.813-75.093zM608.853 747.093c20.425 0.192 36.908 16.794 36.908 37.246 0 0.121-0.001 0.241-0.002 0.361v-0.018c0.001 0.089 0.001 0.194 0.001 0.3 0 20.467-16.507 37.078-36.935 37.247h-0.016c-20.425-0.192-36.908-16.795-36.908-37.246 0-0.106 0-0.211 0.001-0.316v0.016c0-20.736 16.512-37.547 36.907-37.547z" />
<glyph unicode="&#xe915;" glyph-name="generate-password" d="M832.022 192h-128c-64.022 0-108.811 76.8-153.6 172.789-19.233-44.789-38.422-95.989-64.022-147.189 51.2-89.578 115.178-153.6 217.578-153.6h128.045v-128l191.978 192.022-192.022 191.978v-128zM345.622 537.578c19.144 44.833 38.378 96.033 63.978 140.822-51.2 89.622-121.589 153.6-217.578 153.6h-192.022v-128h192.022c63.978 0 108.767-76.8 153.6-166.422zM1024 767.978l-192.022 192.022v-128h-128c-172.744 0-249.589-192.022-319.978-364.811-51.2-134.367-108.811-275.189-192.022-275.189h-191.978v-128h192.022c166.378 0 243.178 179.2 313.567 358.4 57.611 140.778 115.222 281.6 198.433 281.6h127.955v-128l192.022 192.022z" />
<glyph unicode="&#xe916;" glyph-name="dashboard" horiz-adv-x="1126" d="M78.131 397.722v-384.512h192v384.512h-192zM56.73 448.922h234.803c16.435 0 29.798-13.312 29.798-29.798v-427.366c0-16.435-13.312-29.798-29.798-29.798h-234.803c-16.457 0-29.798 13.341-29.798 29.798v0 427.366c0 16.486 13.312 29.798 29.798 29.798zM467.2 13.158h192v626.637h-192v-626.637zM445.798 690.995h234.803c16.435 0 29.798-13.312 29.798-29.798v-669.389c0-16.435-13.312-29.798-29.798-29.798h-234.803c-16.457 0-29.798 13.341-29.798 29.798v0 669.389c0 16.486 13.312 29.798 29.798 29.798zM856.269 881.869v-868.71h192v868.71h-192zM834.867 933.069h234.803c16.486 0 29.798-13.312 29.798-29.747v-911.565c0-16.435-13.312-29.798-29.798-29.798h-234.803c-16.457 0-29.798 13.341-29.798 29.798v0 911.565c0 16.384 13.312 29.747 29.798 29.747z" />
<glyph unicode="&#xe917;" glyph-name="organization" d="M578.081 96.175c-0.183 0.062-16.105 4.948-16.105 4.948-5.816 1.786-12.091 1.327-17.587-1.283l-32.389-15.401-32.389 15.401c-5.496 2.61-11.771 3.065-17.587 1.283 0 0-15.919-4.889-16.105-4.948-27.758-9.25-46.404-35.119-46.404-64.374v-71.47c0-13.44 10.892-24.331 24.331-24.331h176.304c13.44 0 24.331 10.892 24.331 24.331v71.47c0 29.255-18.646 55.124-46.401 64.374zM435.579 192.303c0-42.139 34.282-76.421 76.421-76.421s76.421 34.282 76.421 76.421-34.282 76.421-76.421 76.421-76.421-34.282-76.421-76.421zM423.85 624.238h176.304c13.44 0 24.331 10.892 24.331 24.331v71.47c0 29.255-18.646 55.124-46.404 64.374-0.183 0.062-16.105 4.948-16.105 4.948-5.816 1.789-12.091 1.331-17.587-1.283l-32.389-15.398-32.389 15.401c-5.496 2.61-11.771 3.069-17.587 1.283 0 0-15.919-4.889-16.105-4.948-27.758-9.25-46.404-35.119-46.404-64.374v-71.47c0.003-13.443 10.895-24.335 24.335-24.335zM512 807.159c42.139 0 76.421 34.282 76.421 76.421s-34.282 76.421-76.421 76.421-76.421-34.282-76.421-76.421 34.282-76.421 76.421-76.421zM207.407 96.175c-0.183 0.062-16.108 4.951-16.108 4.951-5.816 1.779-12.091 1.327-17.587-1.289l-32.385-15.398-32.389 15.401c-5.496 2.61-11.767 3.065-17.587 1.283 0 0-15.919-4.889-16.105-4.948-27.758-9.25-46.404-35.119-46.404-64.374v-71.47c0-13.44 10.892-24.331 24.331-24.331h176.3c13.44 0 24.331 10.892 24.331 24.331v71.47c0.003 29.255-18.646 55.127-46.397 64.374zM141.326 115.883c42.139 0 76.421 34.282 76.421 76.421s-34.282 76.421-76.421 76.421-76.421-34.282-76.421-76.421 34.282-76.421 76.421-76.421zM948.755 96.175c-0.183 0.062-16.105 4.948-16.105 4.948-5.82 1.786-12.091 1.327-17.587-1.283l-32.389-15.401-32.385 15.398c-5.496 2.613-11.771 3.065-17.587 1.289 0 0-15.922-4.892-16.108-4.951-27.755-9.247-46.401-35.119-46.401-64.374v-71.47c0-13.44 10.892-24.331 24.331-24.331h176.3c13.44 0 24.331 10.892 24.331 24.331v71.47c0 29.255-18.646 55.124-46.401 64.374zM806.253 192.303c0-42.139 34.282-76.421 76.421-76.421s76.421 34.282 76.421 76.421-34.282 76.421-76.421 76.421c-42.139 0-76.421-34.282-76.421-76.421zM141.326 332.257c16.318 0 29.544 13.229 29.544 29.544v59.137h311.582v-59.133c0-16.318 13.229-29.544 29.544-29.544s29.544 13.229 29.544 29.544v59.137h311.582v-59.137c0-16.318 13.229-29.544 29.544-29.544 16.318 0 29.544 13.229 29.544 29.544v88.681c0 16.318-13.229 29.544-29.544 29.544h-341.13v81.641c0 16.318-13.229 29.544-29.544 29.544s-29.544-13.229-29.544-29.544v-81.641h-341.123c-16.318 0-29.544-13.229-29.544-29.544v-88.681c0-16.318 13.226-29.548 29.544-29.548z" />
<glyph unicode="&#xe918;" glyph-name="notifications" horiz-adv-x="922" d="M460.799 960c-47.062 0-85.334-38.272-85.334-85.334v-76.422c-123.221-36.816-213.331-151.229-213.331-286.241v-106.964c0-65.751-17.878-130.263-51.67-186.624l-73.302-122.112c-3.968-6.569-4.054-14.807-0.298-21.463 3.798-6.697 10.922-10.839 18.602-10.839h300.819c-1.426-6.979-2.154-14.126-2.154-21.33 0.002-58.839 47.83-106.665 106.668-106.665 58.84 0 106.666 47.826 106.753 106.665 0 7.204-0.727 14.351-2.156 21.33h300.733c7.68 0 14.807 4.137 18.606 10.839 3.753 6.656 3.671 14.894-0.297 21.463l-73.303 122.112c-33.792 56.361-51.671 120.873-51.671 186.624v106.964c0 135.012-90.112 249.426-213.33 286.242v76.422c0 47.062-38.274 85.334-85.336 85.334zM521.155 64h-120.628c-2.41-6.81-3.685-14.106-3.685-21.33 0-35.287 28.714-64 64-64s64 28.713 64 64c0 7.224-1.275 14.52-3.686 21.33zM460.799 810.669c-14.483 0-28.728-1.037-42.666-3.040v67.038c0 23.552 19.114 42.666 42.666 42.666s42.666-19.114 42.666-42.666v-67.037c-13.938 2.003-28.183 3.040-42.665 3.040zM93.142 106.67l53.888 89.815c37.802 62.976 57.77 135.081 57.77 208.553v106.964c0 141.184 114.816 256 256 256s256.001-114.816 256.001-256v-106.964c0-73.472 19.968-145.577 57.728-208.553l53.929-89.815h-735.315z" />
<glyph unicode="&#xe919;" glyph-name="Group-181" d="M512 960c-282.77 0-512-229.23-512-512s229.23-512 512-512c282.769 0 512 229.231 512 512-0.303 282.644-229.355 511.698-512 512zM512 9.143c-242.375 0-438.858 196.484-438.858 438.857 0 242.375 196.483 438.858 438.858 438.858 242.372 0 438.857-196.483 438.857-438.858-0.26-242.266-196.591-438.596-438.857-438.857zM727.578 464.346c-3.546 7.113-9.31 12.877-16.418 16.418l-292.573 146.288c-18.069 9.028-40.033 1.701-49.063-16.367-2.539-5.081-3.859-10.684-3.857-16.365v-292.573c-0.009-20.198 16.357-36.578 36.555-36.591 5.681 0 11.284 1.318 16.365 3.857l292.573 146.287c18.074 9.011 25.429 30.967 16.418 49.045zM438.81 360.922v174.225l174.229-87.113-174.229-87.113z" />
<glyph unicode="&#xe91a;" glyph-name="Group-182" d="M512 960c-282.77 0-512-229.23-512-512s229.23-512 512-512c282.769 0 512 229.231 512 512-0.303 282.644-229.355 511.698-512 512zM512 9.143c-242.375 0-438.858 196.484-438.858 438.857 0 242.375 196.483 438.858 438.858 438.858 242.372 0 438.857-196.483 438.857-438.858-0.26-242.266-196.591-438.596-438.857-438.857zM384 618.667c23.564 0 42.667-19.103 42.667-42.667v-256c0-23.564-19.103-42.667-42.667-42.667s-42.667 19.103-42.667 42.667v256c0 23.564 19.103 42.667 42.667 42.667zM640 618.667c23.564 0 42.667-19.103 42.667-42.667v-256c0-23.564-19.103-42.667-42.667-42.667s-42.667 19.103-42.667 42.667v256c0 23.564 19.103 42.667 42.667 42.667z" />
<glyph unicode="&#xe91b;" glyph-name="icon-24px-time" d="M68.003 524.442c16.258 92.256 60.529 176.152 128.027 242.615 78.783 77.577 183.316 124.363 294.342 131.738 84.343 5.595 168.038-11.703 242.061-49.236 6.468 16.179 16.277 31.033 29.129 43.687 2.082 2.050 4.245 3.994 6.438 5.888-85.7 45.234-183.334 66.232-281.745 59.698-125.778-8.354-244.195-61.351-333.436-149.227-76.453-75.281-126.603-170.331-145.027-274.876-18.008-102.191-4.663-205.947 38.591-300.061l55.674 24.811c-38.185 83.081-49.959 174.703-34.054 264.964zM979.925 661.333l-57.314-24.197c37.175-83.341 47.983-174.839 31.249-264.605-17.122-91.827-62.165-175.381-130.266-241.638-80.457-78.276-187.209-125.53-300.591-133.047-10.748-0.713-21.466-1.067-32.175-1.067-68.016 0.004-134.913 14.302-196.102 41.545-6.478-14.541-15.78-28.173-27.979-40.038-3.431-3.341-7.025-6.451-10.748-9.374 72.721-34.675 153.071-52.911 234.833-52.911 12.117 0 24.265 0.401 36.425 1.207 128.444 8.516 249.378 62.042 340.514 150.711 77.137 75.042 128.162 169.711 147.563 273.766 18.94 101.632 6.699 205.247-35.409 299.648zM149.333 64c35.346 0 64 28.655 64 64s-28.654 64-64 64c-35.346 0-64-28.655-64-64s28.654-64 64-64zM874.667 704c35.345 0 64 28.654 64 64s-28.655 64-64 64c-35.345 0-64-28.654-64-64s28.655-64 64-64zM728.188 325.461l-16.734-7.031-15.386 36.599c-21.205 50.453-69.116 84.442-134.639 96.188-3.302 0.649-7.953 4.514-10.97 11.686s-2.261 13.308-0.674 16.013c37.815 54.889 46.801 112.793 25.591 163.244l-15.381 36.602 16.734 7.034c14.413 6.060 21.321 22.059 15.501 35.908-5.824 13.85-22.084 20.109-36.501 14.049l-316.394-132.991c-14.417-6.060-21.324-22.058-15.502-35.908s22.084-20.109 36.501-14.049l16.733 7.034 15.385-36.601c21.207-50.453 69.118-84.442 134.641-96.188 3.302-0.649 7.953-4.514 10.97-11.686 3.012-7.172 2.261-13.308 0.67-16.013-37.71-55.138-46.693-113.041-25.486-163.49l15.387-36.604-16.735-7.036c-14.417-6.059-21.324-22.059-15.502-35.904 5.821-13.85 22.084-20.113 36.5-14.050l316.395 132.992c14.417 6.059 21.325 22.054 15.501 35.904-5.82 13.85-22.187 20.356-36.604 14.298zM490.321 437.333c-9.771 23.249-29.056 39.586-51.601 43.494-27.191 4.868-75.449 19.503-94.265 64.268l-15.385 36.602 178.919 75.207 15.386-36.602c18.816-44.763-4.493-89.482-20.041-112.313-12.979-18.842-14.801-44.053-5.030-67.302 9.771-23.245 29.060-39.586 51.605-43.494 27.187-4.868 75.447-19.503 94.263-64.269l15.381-36.599-178.918-75.209-15.386 36.604c-18.816 44.762 4.493 89.481 20.041 112.311 12.877 19.089 14.805 44.053 5.030 67.302z" />
<glyph unicode="&#xe91c;" glyph-name="trading-engine" d="M204.8 844.8c0-35.346-28.654-64-64-64s-64 28.654-64 64c0 35.346 28.654 64 64 64s64-28.654 64-64zM25.6 678.4c0 42.415 34.385 76.8 76.8 76.8h76.8c42.415 0 76.8-34.385 76.8-76.8v-76.8h-102.4v-153.6h135.498l213.85 213.852c4.803 4.8 13.302 4.8 18.104 0l213.85-213.852h148.298c7.068 0 12.8-5.732 12.8-12.8v-142.080c29.212-5.929 51.2-31.757 51.2-62.72 0-35.346-28.654-64-64-64s-64 28.654-64 64c0 30.963 21.988 56.791 51.2 62.72v129.28h-135.498l-213.85-213.852c-5-4.997-13.105-4.997-18.104 0l-213.85 213.852h-148.298c-7.069 0-12.8 5.732-12.8 12.8v166.4h-102.4v76.8zM499.2 550.4c-7.068 0-12.8-5.732-12.8-12.8v-51.2c0-7.068 5.732-12.8 12.8-12.8s12.8 5.732 12.8 12.8v20.298l80.548-80.55c5-4.997 13.105-4.997 18.104 0 4.997 5 4.997 13.105 0 18.104l-80.55 80.548h20.298c7.068 0 12.8 5.732 12.8 12.8s-5.732 12.8-12.8 12.8h-51.2zM431.452 444.252c-5 4.997-13.105 4.997-18.104 0-4.997-5-4.997-13.105 0-18.104l80.55-80.548h-20.298c-7.068 0-12.8-5.732-12.8-12.8s5.732-12.8 12.8-12.8h51.2c7.068 0 12.8 5.732 12.8 12.8v51.2c0 7.068-5.732 12.8-12.8 12.8s-12.8-5.732-12.8-12.8v-20.298l-80.548 80.55zM844.8 140.8c-42.417 0-76.8-34.383-76.8-76.8v-76.8h230.4v76.8c0 42.417-34.383 76.8-76.8 76.8h-76.8z" />
</font>
</defs>
</svg>
