<svg width="21" height="19" viewBox="0 0 21 19" fill="none" xmlns="http://www.w3.org/2000/svg">
<path d="M15 13.88C15.56 13.88 16 14.32 16 14.88C16 15.44 15.56 15.88 15 15.88C14.44 15.88 14 15.43 14 14.88C14 14.33 14.44 13.88 15 13.88ZM15 10.88C17.73 10.88 20.06 12.54 21 14.88C20.06 17.22 17.73 18.88 15 18.88C12.27 18.88 9.94 17.22 9 14.88C9.94 12.54 12.27 10.88 15 10.88ZM15 12.38C13.62 12.38 12.5 13.5 12.5 14.88C12.5 16.26 13.62 17.38 15 17.38C16.38 17.38 17.5 16.26 17.5 14.88C17.5 13.5 16.38 12.38 15 12.38ZM16 0H2C0.9 0 0 0.9 0 2V14C0 15.1 0.9 16 2 16H7.42C7.26 15.68 7.12 15.34 7 15C7.12 14.66 7.26 14.32 7.42 14H2V10H8V12.97C8.55 12.11 9.23 11.37 10 10.76V10H11.15C12.31 9.36 13.62 9 15 9C16.06 9 17.07 9.21 18 9.59V2C18 0.9 17.1 0 16 0ZM8 8H2V4H8V8ZM16 8H10V4H16V8Z" fill="#9B9B9B"/>
</svg>
