<svg xmlns="http://www.w3.org/2000/svg" width="80" height="81" viewBox="0 0 80 81">
    <path fill="#4990E2" fill-rule="evenodd" d="M40 .875c11.071 0 20.506 3.899 28.304 11.696C76.1 20.37 80 29.804 80 40.875c0 11.071-3.899 20.506-11.696 28.304C60.506 76.976 51.07 80.875 40 80.875c-11.071 0-20.506-3.899-28.304-11.696C3.9 61.38 0 51.946 0 40.875c0-11.071 3.899-20.506 11.696-28.304C19.494 4.774 28.93.875 40 .875zm31.786 27.143c-1.905-4.524-4.405-8.333-7.5-11.429-3.096-3.095-6.965-5.595-11.607-7.5l-3.393 10.893c2.5 1.072 4.762 2.62 6.785 4.643 2.262 2.262 3.87 4.524 4.822 6.786l10.893-3.393zM40 58.018c4.762 0 8.81-1.667 12.143-5s5-7.381 5-12.143c0-4.762-1.667-8.81-5-12.143s-7.381-5-12.143-5c-4.762 0-8.81 1.667-12.143 5s-5 7.381-5 12.143c0 4.762 1.667 8.81 5 12.143s7.381 5 12.143 5zM15.714 16.589c-3.095 3.096-5.595 6.965-7.5 11.607l10.893 3.393c1.072-2.5 2.62-4.762 4.643-6.785 2.262-2.262 4.524-3.87 6.786-4.822L27.143 9.09c-4.524 1.905-8.333 4.405-11.429 7.5zm-7.5 37.143c1.905 4.524 4.405 8.333 7.5 11.429 3.096 3.095 6.965 5.595 11.607 7.5l3.393-10.893c-2.5-1.072-4.762-2.62-6.785-4.643-2.262-2.262-3.87-4.524-4.822-6.786L8.214 53.732zm56.072 11.429c3.095-3.096 5.595-6.965 7.5-11.607L60.893 50.16c-1.072 2.5-2.62 4.762-4.643 6.785-2.262 2.262-4.524 3.87-6.786 4.822l3.393 10.893c4.524-1.905 8.333-4.405 11.429-7.5z"/>
</svg>
