<svg width="48" height="48" viewBox="0 0 48 48" fill="none" xmlns="http://www.w3.org/2000/svg">
  <rect width="48" height="48" rx="10" fill="#3BB477"/>
  <path d="M21 36H15V12H25.5V19.5H33V24.15L36 21.15V18L27 9H15C13.35 9 12 10.35 12 12V36C12 37.65 13.35 39 15 39H21V36ZM36.3 25.5C36.45 25.5 36.75 25.65 36.9 25.8L38.85 27.75C39.15 28.05 39.15 28.65 38.85 28.95L37.35 30.45L34.2 27.3L35.7 25.8C35.85 25.65 36 25.5 36.3 25.5ZM36.3 31.35L27.15 40.5H24V37.35L33.15 28.2L36.3 31.35Z" fill="white"/>
</svg>
