<svg width="164" height="24" viewBox="0 0 164 24" fill="none" xmlns="http://www.w3.org/2000/svg">
<path d="M18.7172 6.7581C19.0942 6.53776 19.0943 5.98574 18.7173 5.76526L10.6699 1.0575C10.539 0.980834 10.3778 0.980834 10.2469 1.0575L1.21199 6.34289C1.08082 6.41955 1 6.56154 1 6.71515V17.2848C1 17.4384 1.08082 17.5804 1.21199 17.6572L2.76462 18.5654V21.859C2.76462 22.0269 2.9459 22.13 3.08699 22.0422L5.81201 20.3481L10.2469 22.9426C10.3778 23.0191 10.539 23.0191 10.6699 22.9426L18.7173 18.2348C19.0943 18.0142 19.0942 17.4623 18.7172 17.2419L16.1048 15.7143C15.974 15.6378 15.8128 15.6378 15.682 15.7143L15.2581 15.9621V17.9167C15.2581 18.0852 15.0757 18.1881 14.9346 18.0991L13.3316 17.0887L10.5641 18.7069C10.4987 18.7452 10.4181 18.7452 10.3526 18.7069L4.77644 15.4463C4.71084 15.408 4.67041 15.337 4.67041 15.2601V8.73986C4.67041 8.66306 4.71084 8.59199 4.77644 8.55366L10.3526 5.29311C10.4181 5.25478 10.4987 5.25478 10.5641 5.29311L15.682 8.28562C15.8128 8.36214 15.974 8.36214 16.1048 8.28562L18.7172 6.7581Z" fill="white"/>
<path d="M7.77615 10.0303C7.77615 9.67422 8.06056 9.38562 8.41141 9.38562H12.5759C12.9268 9.38562 13.2112 9.67422 13.2112 10.0303C13.2112 10.3863 12.9268 10.6749 12.5759 10.6749H8.41141C8.06056 10.6749 7.77615 10.3863 7.77615 10.0303Z" fill="white"/>
<path d="M8.41141 11.3195C8.06056 11.3195 7.77615 11.6081 7.77615 11.9642C7.77615 12.3202 8.06056 12.6088 8.41141 12.6088H10.529C10.8798 12.6088 11.1642 12.3202 11.1642 11.9642C11.1642 11.6081 10.8798 11.3195 10.529 11.3195H8.41141Z" fill="white"/>
<path d="M8.41141 13.2534C8.06056 13.2534 7.77615 13.5421 7.77615 13.8981C7.77615 14.2541 8.06056 14.5427 8.41141 14.5427H12.5053C12.8562 14.5427 13.1406 14.2541 13.1406 13.8981C13.1406 13.5421 12.8562 13.2534 12.5053 13.2534H8.41141Z" fill="white"/>
<path d="M107.006 18.9136C109.312 14.2595 111.565 9.71186 113.844 5.09772C113.553 5.09772 113.26 5.07216 112.973 5.04718C112.312 4.98961 111.687 4.93514 111.209 5.20409C110.82 5.4095 110.614 5.97547 110.407 6.54296C110.319 6.7837 110.231 7.0247 110.129 7.23857C109.281 9.02633 108.442 10.8141 107.576 12.6615L107.019 13.8473C106.972 13.7559 106.929 13.6744 106.889 13.5992L106.888 13.5978C106.806 13.4439 106.738 13.3162 106.677 13.1824L106.105 11.9642C105.109 9.84047 104.11 7.71041 103.093 5.58971C103.001 5.37696 102.777 5.11101 102.592 5.09772C102.014 5.05817 101.436 5.06273 100.81 5.06767C100.594 5.06937 100.371 5.07112 100.142 5.07112C101.292 7.38726 102.43 9.68352 103.568 11.9797L103.568 11.9814L103.573 11.9898L103.574 11.9918C104.713 14.2922 105.853 16.5932 107.006 18.9136Z" fill="white"/>
<path d="M82.6184 11.0283V13.2888C83.0118 13.2888 83.4002 13.2897 83.7849 13.2905H83.7913C84.9373 13.293 86.0509 13.2954 87.1639 13.2755C87.546 13.2755 87.7436 13.4085 87.9149 13.7409C88.7581 15.3366 89.6145 16.9323 90.4841 18.5146C90.5763 18.6875 90.7476 18.9535 90.8925 18.9668C91.4512 19.0063 92.0099 19.0017 92.612 18.9968C92.8193 18.9951 93.0316 18.9934 93.2509 18.9934C92.199 17.0426 91.2127 15.211 90.2265 13.3796L90.2206 13.3686C91.9993 12.4644 92.6844 11.7198 92.9347 10.0975C93.3959 7.14549 91.8412 5.09772 88.8767 5.05782C87.9715 5.04895 87.0604 5.05192 86.1513 5.05487H86.1502C85.6971 5.05635 85.2436 5.05782 84.7923 5.05782H82.6316V7.35825H83.3826C83.9974 7.35825 84.6123 7.35677 85.2271 7.35529C86.4568 7.35234 87.6865 7.34938 88.9162 7.35825C90.1152 7.35825 90.774 8.04971 90.7608 9.20657C90.7344 10.3767 90.0757 11.0283 88.8767 11.0283H82.6184Z" fill="white"/>
<path fill-rule="evenodd" clip-rule="evenodd" d="M122.527 18.9801C126.229 18.9535 129.351 15.7887 129.351 12.0522C129.365 8.28906 126.268 5.09772 122.579 5.08442C118.798 5.05782 115.636 8.19598 115.623 12.0123C115.61 15.8153 118.772 19.0066 122.527 18.9801ZM122.513 16.7062C119.944 16.6663 117.849 14.5787 117.849 12.0256C117.849 9.44592 119.944 7.31836 122.487 7.31836C124.977 7.30506 127.138 9.51241 127.138 12.0389C127.138 14.5388 124.951 16.7328 122.513 16.7062Z" fill="white"/>
<path d="M38.6654 7.1322C38.1383 7.62419 37.6509 8.0896 37.1502 8.5683C34.054 6.83966 31.8537 7.02582 30.1936 9.19327C28.8761 10.9086 28.9946 13.5282 30.4571 15.1238C32.1831 17.0121 34.4624 17.1184 36.9921 15.4031C37.5191 15.8685 38.0725 16.3472 38.6127 16.8126C36.9789 18.9136 32.9604 19.9109 29.8642 17.5572C26.5967 15.0441 26.0434 10.6161 28.6257 7.62419C31.3794 4.43285 35.7404 4.1802 38.6654 7.1322Z" fill="white"/>
<path d="M66.1549 18.9818L66.1492 18.9934C66.4215 18.9934 66.6798 18.9902 66.9294 18.9871C67.4043 18.9813 67.8477 18.9759 68.2968 18.9934C68.7447 19.0199 68.9819 18.8737 69.1795 18.4349C70.0082 16.6177 70.8606 14.8085 71.7123 13.0012C71.9575 12.4808 72.2026 11.9607 72.447 11.4405C72.6315 11.0549 72.8159 10.6826 73.0399 10.2305L73.0924 10.3295L73.093 10.3306C73.1685 10.4729 73.2206 10.5711 73.2639 10.6693C74.4892 13.2754 75.7145 15.8819 76.953 18.4881C77.0452 18.6875 77.2824 18.9535 77.4668 18.9668C78.0542 19.0063 78.6344 19.0017 79.2667 18.9968C79.4853 18.9951 79.7102 18.9934 79.9438 18.9934C78.7844 16.6597 77.6381 14.3459 76.4918 12.0322C75.3456 9.71847 74.1993 7.40477 73.0399 5.07112C70.7372 9.73242 68.4739 14.3009 66.1582 18.9752L66.1549 18.9818Z" fill="white"/>
<path d="M147.402 15.4297L147.577 15.5843L147.585 15.5913C148.053 16.0054 148.531 16.4275 149.009 16.8392C146.993 19.1263 142.83 19.9109 139.694 17.052C136.848 14.459 136.664 10.1108 139.312 7.33165C142.079 4.41955 146.295 4.29988 149.035 7.1056C148.522 7.53091 148.007 7.95686 147.415 8.44862C146.255 7.5843 144.793 6.98593 143.08 7.46463C142.026 7.75717 141.183 8.35554 140.537 9.25976C139.246 11.0815 139.431 13.6479 140.959 15.2302C142.672 17.0254 144.898 17.1051 147.402 15.4297Z" fill="white"/>
<path d="M51.6167 16.7461V18.9535H42.4599V5.11101H44.6865V16.7461H51.6167Z" fill="white"/>
<path d="M132.593 5.11101V18.9003C132.797 18.741 132.991 18.5845 133.179 18.4326L133.18 18.4319C133.572 18.1149 133.94 17.8178 134.332 17.5572C134.674 17.3179 134.793 17.052 134.793 16.6264C134.78 12.9963 134.78 9.35284 134.78 5.72269C134.78 5.59898 134.77 5.48038 134.759 5.35421L134.759 5.35245L134.758 5.35045L134.758 5.34901L134.758 5.34776C134.752 5.2725 134.745 5.19447 134.74 5.11101H132.593Z" fill="white"/>
<path d="M54.3029 18.434L54.3028 18.4328C54.3004 17.9393 54.298 17.4624 54.3177 16.9855C54.3177 16.8658 54.5153 16.6663 54.6207 16.6663C57.5588 16.653 60.4838 16.653 63.4482 16.653V18.9269C60.4442 18.9402 57.4271 18.9402 54.3045 18.9402C54.3045 18.7691 54.3037 18.6006 54.3029 18.434Z" fill="white"/>
<path d="M162 7.29176V5.11101H152.896V7.29176H162Z" fill="white"/>
<path d="M54.344 5.08442H63.4482V7.30506H54.344V5.08442Z" fill="white"/>
<path d="M162 18.9402V16.7594H152.896V18.9402H162Z" fill="white"/>
<path d="M54.3309 13.116V10.9352H62.4206V13.116H54.3309Z" fill="white"/>
<path d="M160.946 10.9352H152.896V13.1027H160.946V10.9352Z" fill="white"/>
</svg>
