<svg width="126" height="24" viewBox="0 0 126 24" fill="none" xmlns="http://www.w3.org/2000/svg">
<g clip-path="url(#clip0_2587_7757)">
<path d="M16.2612 11.6855C15.5393 12.1001 14.6175 11.8536 14.1994 11.1342L10.3734 4.50841L3.62604 16.1803H11.2707C12.1059 16.1803 12.783 16.8565 12.783 17.6906C12.783 18.5248 12.1059 19.201 11.2707 19.201H1.11689C0.815916 19.2199 0.516166 19.1485 0.256148 18.9959C-0.0267456 18.8314 -0.248026 18.579 -0.373973 18.2772L-0.390357 18.2483L-0.40548 18.2118C-0.409792 18.2003 -0.413695 18.1884 -0.417657 18.1763L-0.418226 18.1746C-0.421024 18.1661 -0.423862 18.1574 -0.426904 18.1488C-0.475602 17.9997 -0.500274 17.8438 -0.499998 17.6869C-0.497704 17.3939 -0.410131 17.1079 -0.247949 16.8637L9.0602 0.752485C9.33295 0.286455 9.83289 0 10.3734 0C10.9138 0 11.4138 0.286455 11.6865 0.752485L16.817 9.62874C17.2297 10.3503 16.9814 11.2693 16.2612 11.6855Z" fill="#FFFCF0"/>
<path d="M30.3469 18.3489L30.3545 18.3326C30.5669 17.8859 30.5457 17.3635 30.2978 16.9354L23.7168 5.55186C23.3609 4.94022 22.6277 4.65722 21.9524 4.87091L21.921 4.88224C21.5774 5.00026 21.2882 5.23858 21.1069 5.55312L11.7407 21.7398C11.3256 22.461 11.5724 23.3815 12.2927 23.7991C13.015 24.2134 13.9369 23.9664 14.3545 23.2465L22.4074 9.31157L26.3797 16.1828H20.3759C19.5407 16.1828 18.8636 16.859 18.8636 17.6932C18.8636 18.5273 19.5407 19.2036 20.3759 19.2036H28.9897C29.5635 19.2033 30.0878 18.8786 30.3432 18.3653C30.3438 18.3597 30.345 18.3542 30.3469 18.3489Z" fill="#FFFCF0"/>
<path d="M125.021 18.6414C125.199 18.4939 125.301 18.2734 125.298 18.0419C125.292 17.8055 125.194 17.5808 125.024 17.4162L121.592 13.6984L124.685 10.9451C124.891 10.7942 125.016 10.5571 125.024 10.3022C125.017 10.0947 124.928 9.89874 124.776 9.75721C124.635 9.59692 124.435 9.50288 124.221 9.49779C123.988 9.50717 123.767 9.60274 123.6 9.76586L119.225 13.7878V6.53099C119.229 6.30419 119.142 6.08511 118.984 5.92274C118.828 5.75934 118.611 5.66922 118.384 5.67448C118.152 5.66522 117.926 5.75551 117.764 5.92274C117.603 6.08365 117.513 6.30303 117.515 6.53099V18.0419C117.513 18.2698 117.603 18.4892 117.764 18.6501C117.926 18.8174 118.152 18.9078 118.384 18.8984C118.611 18.9038 118.828 18.8136 118.984 18.6501C119.142 18.4878 119.229 18.2686 119.225 18.0419V15.8261L120.297 14.8603L123.819 18.5967C123.97 18.7838 124.2 18.8895 124.44 18.8822C124.656 18.8763 124.864 18.7906 125.021 18.6414Z" fill="#FFFCF0"/>
<path d="M46.38 10.9101C46.38 10.445 46.0672 10.0636 45.4416 9.76559C44.8152 9.4677 44.0323 9.31876 43.093 9.31876C42.2455 9.30341 41.4103 9.52298 40.6799 9.95308C39.9798 10.3731 39.4104 10.9796 39.0351 11.7046C38.636 12.4745 38.4334 13.3312 38.4455 14.1984C38.4326 15.0616 38.6249 15.9154 39.0066 16.6897C39.3623 17.4136 39.9169 18.0212 40.6054 18.4412C41.3288 18.8731 42.1589 19.0929 43.0011 19.0756C43.5783 19.0801 44.1531 19.0019 44.708 18.8435C45.1647 18.7245 45.5953 18.5216 45.9779 18.2452C46.2931 17.9969 46.4508 17.7486 46.4508 17.5004C46.46 17.2875 46.3867 17.0793 46.246 16.9194C46.0994 16.7668 45.8938 16.6852 45.6824 16.6959C45.5681 16.6926 45.4547 16.7173 45.3523 16.7679C45.2416 16.8298 45.1368 16.9017 45.0394 16.9827C44.9304 17.0663 44.8169 17.1439 44.6993 17.2148C44.3178 17.4052 43.8171 17.5004 43.1973 17.5004C42.6373 17.5121 42.0853 17.3659 41.6047 17.0782C41.1411 16.7934 40.7666 16.3845 40.5235 15.8978C40.0073 14.8269 40.0105 13.5785 40.5322 12.5102C40.7817 12.0172 41.1661 11.6052 41.6407 11.3222C42.1382 11.0299 42.7072 10.8812 43.2842 10.8927C43.5242 10.8956 43.7635 10.9197 43.9992 10.9647C44.2092 10.9958 44.4139 11.056 44.6075 11.1435C44.7293 11.214 44.8432 11.2972 44.9475 11.3918C45.0672 11.4764 45.1916 11.5543 45.32 11.6252C45.4346 11.6776 45.5602 11.7019 45.6862 11.6958C45.8802 11.6977 46.0639 11.6086 46.1827 11.455C46.3111 11.3026 46.3811 11.1094 46.38 10.9101Z" fill="#FFFCF0"/>
<path fill-rule="evenodd" clip-rule="evenodd" d="M55.5858 16.7195C55.1852 17.4435 54.5947 18.0444 53.8777 18.4574C52.3965 19.2915 50.5872 19.2915 49.106 18.4574C48.3888 18.0447 47.7981 17.4437 47.3979 16.7195C46.9761 15.9538 46.7621 15.0911 46.7773 14.217C46.7634 13.3372 46.9772 12.4687 47.3979 11.6959C47.795 10.9658 48.3861 10.3596 49.106 9.9443C50.5872 9.11019 52.3965 9.11019 53.8777 9.9443C54.5973 10.36 55.1883 10.966 55.5858 11.6959C56.006 12.4689 56.2197 13.3372 56.2064 14.217C56.221 15.091 56.0071 15.9536 55.5858 16.7195ZM54.1111 12.4916C53.8622 12.006 53.4848 11.598 53.02 11.3123C52.0788 10.75 50.9049 10.75 49.9638 11.3123C49.4989 11.598 49.1215 12.006 48.8727 12.4916C48.5981 13.0247 48.46 13.6175 48.4704 14.217C48.4608 14.8077 48.599 15.3915 48.8727 15.9151C49.1237 16.3969 49.5008 16.8015 49.9638 17.0857C50.9057 17.645 52.078 17.645 53.02 17.0857C53.4829 16.8015 53.86 16.3969 54.1111 15.9151C54.3847 15.3915 54.5229 14.8077 54.5133 14.217C54.5237 13.6175 54.3856 13.0247 54.1111 12.4916Z" fill="#FFFCF0"/>
<path d="M71.1546 13.2686V18.0414C71.1636 18.2711 71.08 18.4948 70.9224 18.6621C70.763 18.8249 70.5419 18.9125 70.3141 18.903C70.0814 18.9118 69.8559 18.8217 69.6935 18.6547C69.5351 18.4923 69.4483 18.2732 69.4527 18.0465V13.2921C69.4527 11.7305 68.7973 10.9497 67.4864 10.9497C67.0465 10.944 66.6126 11.0518 66.2265 11.2625C65.8624 11.4603 65.5592 11.754 65.3501 12.1116C65.1413 12.4697 65.0333 12.8777 65.0373 13.2921V18.0465C65.0416 18.2732 64.9549 18.4923 64.7965 18.6547C64.634 18.8215 64.4085 18.9117 64.1758 18.903C63.9481 18.9125 63.727 18.8249 63.5675 18.6621C63.4096 18.495 63.3259 18.2712 63.3355 18.0414V13.2686C63.3355 12.566 63.1864 12.0032 62.8885 11.5804C62.5907 11.1574 62.0941 10.9456 61.3989 10.9448C60.7529 10.9244 60.1261 11.1662 59.6611 11.6151C59.2092 12.0449 58.9592 12.6451 58.9722 13.2686V18.0414C58.9771 18.2684 58.8902 18.4876 58.7313 18.6497C58.569 18.8167 58.3434 18.9069 58.1107 18.898C57.8833 18.9075 57.6627 18.8199 57.5037 18.6572C57.3453 18.4902 57.2612 18.2664 57.2703 18.0365V10.3911C57.2659 10.1641 57.3531 9.94487 57.5123 9.7829C57.6677 9.61919 57.8851 9.52894 58.1107 9.53461C58.3434 9.52574 58.569 9.61592 58.7313 9.7829C58.8902 9.94494 58.9771 10.1643 58.9722 10.3911V11.0118C59.295 10.5353 59.7188 10.1356 60.2135 9.84123C60.7213 9.5285 61.3065 9.36421 61.9029 9.36705C63.3801 9.36705 64.3392 10.0225 64.7803 11.3333C65.0419 10.8368 65.4771 10.3841 66.0862 9.97534C66.6536 9.58276 67.3264 9.37076 68.0165 9.36705C70.1086 9.37039 71.1546 10.6709 71.1546 13.2686Z" fill="#FFFCF0"/>
<path d="M86.2767 18.0414V13.2686C86.2767 10.6709 85.2301 9.37039 83.1371 9.36704C82.4469 9.3709 81.7741 9.5829 81.2069 9.97534C80.5989 10.3841 80.164 10.8368 79.9021 11.3333C79.4614 10.0225 78.5014 9.36704 77.0236 9.36704C76.4272 9.36428 75.8425 9.5285 75.3356 9.84123C74.8403 10.135 74.4163 10.5347 74.094 11.0118V10.3911C74.0968 10.1632 74.0072 9.94377 73.8458 9.7829C73.6837 9.61555 73.4579 9.52523 73.2251 9.53461C72.9991 9.52894 72.7813 9.61912 72.6255 9.7829C72.4671 9.9453 72.3804 10.1644 72.3847 10.3911V18.0365C72.3751 18.2662 72.4588 18.4901 72.6168 18.6572C72.7763 18.82 72.9973 18.9075 73.2251 18.898C73.4579 18.9074 73.6837 18.8171 73.8458 18.6497C74.0072 18.4888 74.0968 18.2694 74.094 18.0414V13.2686C74.0805 12.6452 74.3302 12.045 74.7814 11.6151C75.2469 11.1665 75.8738 10.9248 76.5196 10.9448C77.2105 10.9456 77.7051 11.1574 78.0032 11.5804C78.3007 12.0032 78.4498 12.566 78.4498 13.2686V18.0414C78.4411 18.2713 78.5247 18.4952 78.6832 18.6621C78.8425 18.8249 79.0629 18.9124 79.2905 18.903C79.5232 18.9118 79.7487 18.8217 79.9109 18.6547C80.0694 18.4926 80.1567 18.2733 80.1516 18.0465V13.2921C80.1414 12.4475 80.5989 11.6665 81.3407 11.2625C81.7269 11.0519 82.1611 10.9442 82.6011 10.9497C83.9116 10.9497 84.5669 11.7305 84.5669 13.2921V18.0465C84.5647 18.2744 84.6541 18.4938 84.8156 18.6547C84.9778 18.822 85.2032 18.9124 85.436 18.903C85.6636 18.9125 85.8847 18.8249 86.044 18.6621C86.2025 18.495 86.2861 18.2712 86.2767 18.0414Z" fill="#FFFCF0"/>
<path fill-rule="evenodd" clip-rule="evenodd" d="M95.9749 11.7148C95.6287 11.0083 95.0934 10.4111 94.4294 9.98935C93.7676 9.57545 93.0003 9.3612 92.22 9.3724C91.6076 9.37058 91.0047 9.5244 90.4687 9.81924C89.972 10.0727 89.5436 10.4403 89.2171 10.8917V10.3741C89.2222 10.1435 89.1356 9.92018 88.9763 9.75349C88.8142 9.58615 88.5887 9.49582 88.356 9.5052C88.1262 9.49567 87.9043 9.58629 87.7472 9.75349C87.5923 9.92258 87.5094 10.1451 87.5152 10.3741V21.6107C87.508 21.8431 87.5982 22.0681 87.7632 22.2313C87.9211 22.3912 88.1378 22.4784 88.3618 22.4721C88.5945 22.4811 88.82 22.3908 88.9822 22.2239C89.1407 22.0615 89.228 21.8424 89.2236 21.6156V17.6434C89.5872 18.0605 90.0309 18.401 90.5276 18.6451C91.0658 18.9199 91.6622 19.0608 92.2658 19.056C93.0316 19.0633 93.7836 18.8477 94.4294 18.4353C95.092 18.0108 95.6265 17.4144 95.9763 16.7099C96.3618 15.9363 96.5545 15.0813 96.54 14.2173C96.5538 13.35 96.3603 12.492 95.9749 11.7148ZM94.5451 15.8944C94.316 16.3712 93.9603 16.7761 93.5174 17.0649L93.516 17.0587C93.076 17.3472 92.5596 17.4988 92.0338 17.4944C91.5029 17.5027 90.9807 17.3565 90.532 17.0736C90.0854 16.788 89.7298 16.3822 89.5036 15.903C89.0156 14.8361 89.0156 13.6096 89.5036 12.5427C89.7298 12.0636 90.0854 11.6579 90.532 11.3722C90.9807 11.0893 91.5029 10.943 92.0338 10.9514C92.5596 10.9454 93.076 11.0949 93.5174 11.3808C93.9603 11.6696 94.316 12.0746 94.5451 12.5515C95.0331 13.6123 95.0331 14.8336 94.5451 15.8944Z" fill="#FFFCF0"/>
<path fill-rule="evenodd" clip-rule="evenodd" d="M105.957 14.4048C105.796 14.5516 105.585 14.6315 105.367 14.6282H99.076C99.1589 15.4988 99.4898 16.196 100.069 16.7198C100.648 17.2421 101.405 17.5217 102.185 17.5006C102.662 17.5189 103.138 17.4343 103.579 17.2524C103.928 17.0907 104.249 16.8731 104.528 16.6081C104.683 16.5086 104.861 16.4533 105.045 16.448C105.238 16.4437 105.424 16.5213 105.555 16.6615C105.687 16.7935 105.76 16.972 105.76 17.1581C105.751 17.427 105.619 17.6771 105.403 17.8371C105.005 18.2157 104.538 18.5131 104.027 18.7122C103.472 18.947 102.877 19.0685 102.275 19.0697C101.388 19.0885 100.511 18.8795 99.7276 18.4627C99.0113 18.0743 98.4214 17.4878 98.0294 16.7732C97.6229 16.0156 97.4163 15.1665 97.4309 14.3067C97.4112 13.3895 97.6251 12.4823 98.052 11.6701C98.4265 10.9545 98.9887 10.3539 99.6782 9.93226C101 9.12935 102.657 9.12033 103.988 9.90869C104.658 10.3043 105.214 10.8672 105.602 11.5423C106.008 12.249 106.223 13.0504 106.222 13.866C106.211 14.074 106.115 14.2684 105.957 14.4048ZM100.112 11.4554C99.6229 11.8302 99.3014 12.4096 99.1465 13.1932H104.42V13.0505C104.369 12.4352 104.061 11.8701 103.571 11.4951C103.085 11.0971 102.475 10.8819 101.846 10.8869C101.221 10.874 100.609 11.0745 100.112 11.4554Z" fill="#FFFCF0"/>
<path fill-rule="evenodd" clip-rule="evenodd" d="M116.145 10.2847C116.156 10.0487 116.069 9.81886 115.904 9.64911C115.737 9.48795 115.511 9.40344 115.279 9.41573C115.05 9.4062 114.828 9.49682 114.672 9.66402C114.516 9.83268 114.432 10.0553 114.438 10.2847V10.7327C114.088 10.3053 113.645 9.96315 113.142 9.73224C112.594 9.46839 111.992 9.33377 111.382 9.33879C110.616 9.33137 109.865 9.54708 109.22 9.95944C108.555 10.3861 108.02 10.9873 107.673 11.6973C107.29 12.4781 107.096 13.3386 107.109 14.2085C107.096 15.0783 107.29 15.9389 107.673 16.7197C108.021 17.4317 108.559 18.0334 109.229 18.4576C109.889 18.8732 110.656 19.0887 111.436 19.0782C112.043 19.0826 112.641 18.9322 113.173 18.6413C113.67 18.3822 114.104 18.0173 114.443 17.5725V18.0368C114.435 18.2666 114.518 18.4905 114.677 18.6574C114.836 18.8202 115.056 18.9077 115.284 18.8982C115.517 18.9072 115.742 18.817 115.904 18.65C116.064 18.4879 116.15 18.2686 116.145 18.0417V10.2847ZM114.153 15.8967C113.927 16.3754 113.574 16.7836 113.133 17.0772C112.222 17.6457 111.067 17.6457 110.155 17.0772C109.714 16.7836 109.362 16.3754 109.136 15.8967C108.647 14.8173 108.647 13.5799 109.136 12.5005C109.361 12.0218 109.714 11.614 110.155 11.3212C110.597 11.0328 111.116 10.8832 111.644 10.8917C112.173 10.8837 112.693 11.0365 113.133 11.3298C113.574 11.6277 113.926 12.0384 114.153 12.5191C114.404 13.0429 114.531 13.6175 114.525 14.1986C114.533 14.7857 114.405 15.3666 114.153 15.8967Z" fill="#FFFCF0"/>
</g>
<defs>
<clipPath id="clip0_2587_7757">
<rect width="126" height="24" fill="white"/>
</clipPath>
</defs>
</svg>
