<svg width="170" height="24" viewBox="0 0 170 24" fill="none" xmlns="http://www.w3.org/2000/svg">
<path d="M19.8187 0.726005C18.5877 0.457865 15.958 0.00627432 12.9944 0.00627228C12.1191 0.00627228 11.9039 0.00491949 11.9399 0.00347041C12.5031 0.000414866 12.5209 -0.000301903 12.389 0.0001036C12.2571 0.000509102 11.9756 0.00203687 11.9399 0.00347041L11.3986 0.00627228C11.3008 0.0276354 10.907 0.0328292 10.3473 0.0402104C9.42816 0.0523335 8.06159 0.0703572 6.82436 0.175612L6.39735 0.265852C5.00224 0.56059 3.59694 0.857481 2.20415 1.17761C0.532361 1.55865 -0.288339 2.88524 0.0916131 4.46585C0.144806 4.69165 0.167603 4.92099 0.1904 5.15032C0.213196 5.37965 0.235993 5.60898 0.289186 5.83478C0.645146 7.34762 1.01344 8.86046 1.40517 10.4661C8.08882 5.23495 15.6667 3.51377 23.9471 4.1793L23.9807 4.182C24.1286 2.64889 23.4135 1.79743 22.3112 1.37519C21.6205 1.11618 20.8718 0.95418 20.136 0.794991C20.03 0.772047 19.924 0.749114 19.8187 0.726005Z" fill="#333333"/>
<path d="M22.4501 9.57034C22.0538 10.6918 21.6652 11.7914 21.1914 12.8505C20.0256 15.4975 18.3664 17.8884 16.4532 20.1085C15.4817 21.2328 14.4205 22.3286 13.2695 23.2679C12.1037 24.2214 11.1919 24.3637 9.72713 22.969C8.61631 21.9114 7.60971 20.7545 6.60312 19.5976C6.13337 19.0577 5.66361 18.5178 5.18327 17.988C4.92917 17.7034 4.94411 17.4899 5.19821 17.1484C6.87226 14.8571 9.00968 13.0639 11.5058 11.655C13.0005 10.8154 14.5699 10.0469 16.1842 9.44916C18.1572 8.72336 20.19 8.11141 22.3274 8.01179C22.4683 7.98943 22.5999 8.0022 22.8093 8.0225C22.8665 8.02804 22.9295 8.03415 23 8.04025C22.8094 8.55359 22.629 9.06422 22.4501 9.57034Z" fill="#333333"/>
<path d="M2.44245 13C1.71523 11.8746 1.83901 11.5677 3.15419 10.5884C5.3668 8.93681 7.76509 7.56293 10.4109 6.7006C12.345 6.07212 14.372 5.63365 16.3989 5.3121C17.8026 5.08694 19.2517 5.05448 20.6879 5.02232C20.9297 5.0169 21.1712 5.01149 21.4121 5.00517C22.0122 4.98456 22.6123 5.02935 23.1961 5.07294C23.4402 5.09116 23.6815 5.10917 23.9187 5.1221C23.9467 5.17507 23.9684 5.20705 23.9823 5.22754C23.9991 5.25227 24.0045 5.26026 23.9961 5.26825C23.728 6.22781 23.7044 6.22734 22.7638 6.20872C22.6729 6.20692 22.5734 6.20495 22.4643 6.20366C20.9324 6.18905 19.4006 6.26213 17.8843 6.46675C16.1204 6.71522 14.3565 7.06599 12.639 7.50447C10.0396 8.16218 7.64131 9.28759 5.45964 10.7784C4.72749 11.2678 4.01173 11.8115 3.27656 12.3699C3.00186 12.5786 2.72444 12.7893 2.44245 13Z" fill="#333333"/>
<path fill-rule="evenodd" clip-rule="evenodd" d="M64.5046 6.11548C62.858 4.66946 60.9108 4.13389 58.7807 4.18745C58.7676 4.13398 58.7546 4.06715 58.7415 4.00031C58.3886 4.07891 58.0312 4.14567 57.6739 4.21271C56.8139 4.37407 55.9547 4.5353 55.1607 4.8569C53.3573 5.57992 51.9328 6.81172 51.0965 8.71297C49.9595 11.3105 50.0771 13.8276 51.5016 16.2109C52.5601 17.9782 54.1806 19.1029 56.2062 19.5849C58.5062 20.1339 60.7409 20.0937 62.9103 19.036C64.57 18.2192 65.8507 17.0142 66.5433 15.2603C67.1837 13.6402 67.3274 12.0067 66.9876 10.2527C66.6479 8.49875 65.7592 7.22678 64.5046 6.11548ZM59.2511 17.0678H58.7284C56.8596 17.1347 55.2522 16.5724 54.0369 15.0059C53.0567 13.7741 52.7562 12.2879 53.1351 10.8552C53.6317 8.99414 54.9124 7.72218 56.8074 7.18661C59.2511 6.50377 61.4205 6.91883 63.2762 8.75314C64.5046 9.97155 64.5831 11.5247 64.374 13.118C64.0734 15.3808 61.7603 17.0946 59.2511 17.0678Z" fill="#333333"/>
<path fill-rule="evenodd" clip-rule="evenodd" d="M116.371 15.7611C116.003 15.1477 115.631 14.528 115.249 13.8812C116.386 13.4259 117.262 12.8502 117.771 11.8192C118.203 10.9356 118.281 9.98494 118.242 9.02092C118.163 6.67782 116.621 4.65607 114.086 4.68285C111.506 4.70425 108.934 4.69143 106.357 4.67859C105.71 4.67537 105.063 4.67214 104.416 4.66946C103.697 4.66946 103.527 4.81674 103.527 5.55314C103.514 7.49513 103.504 9.43712 103.494 11.3791C103.484 13.32 103.475 15.2608 103.462 17.2017C103.462 17.6971 103.462 18.1791 103.488 18.6745C103.527 19.2234 103.723 19.6251 104.376 19.5448C104.703 19.5046 105.03 19.518 105.356 19.5314C105.866 19.5582 106.023 19.2904 106.023 18.795C106.017 18.2334 106.019 17.6693 106.021 17.1048V17.1037C106.023 16.35 106.025 15.5951 106.01 14.8452C105.997 14.2962 106.193 14.1088 106.729 14.1222C108.336 14.1623 109.957 14.1623 111.564 14.1356C112.074 14.1222 112.348 14.3632 112.596 14.7649C113.433 16.1439 114.282 17.5364 115.171 18.8887C115.354 19.1699 115.707 19.451 116.02 19.5046C116.508 19.5841 117.015 19.5576 117.516 19.5314C117.606 19.5267 117.695 19.5221 117.785 19.518C118.242 19.4912 118.425 19.1163 118.19 18.7146C117.975 18.3512 117.748 17.9963 117.521 17.6403C117.346 17.3668 117.171 17.0926 117 16.8134C116.791 16.4621 116.581 16.1127 116.371 15.7611ZM110.86 11.3C110.649 11.2985 110.44 11.2971 110.231 11.2971C109.937 11.2971 109.643 11.2962 109.348 11.2954C108.467 11.2929 107.588 11.2904 106.716 11.3105C106.18 11.3238 105.997 11.1096 106.023 10.5607C106.049 9.6636 106.036 8.77992 106.01 7.88284C105.997 7.45439 106.167 7.28033 106.572 7.28033C107.255 7.28416 107.938 7.2858 108.621 7.28744C110.329 7.29154 112.038 7.29564 113.746 7.33389C114.452 7.34728 115.066 7.65523 115.458 8.36485C116.177 9.69038 115.511 11.1096 114.021 11.2569C113.498 11.3016 112.966 11.2997 112.44 11.2978C112.335 11.2974 112.23 11.2971 112.126 11.2971C111.707 11.306 111.283 11.303 110.86 11.3Z" fill="#333333"/>
<path d="M89.6482 10.4402H96.1563C97.0711 10.4402 97.0972 10.4803 97.0972 11.431C97.0972 11.5858 97.0984 11.7268 97.0995 11.8552C97.1049 12.4972 97.1077 12.8245 96.9454 12.9907C96.7767 13.1635 96.4294 13.1621 95.7209 13.159L95.5412 13.1584L95.3983 13.1582H90.563C89.6613 13.1582 89.6613 13.1715 89.6613 14.1222V16.8669H90.4977C91.3051 16.8669 92.1116 16.8678 92.9178 16.8686C95.3346 16.8711 97.7478 16.8736 100.168 16.8536C100.704 16.8536 100.913 17.0276 100.913 17.5632C100.913 17.6723 100.913 17.7756 100.914 17.8733C100.915 18.8609 100.916 19.2818 100.71 19.4542C100.556 19.5823 100.288 19.5734 99.8219 19.5579C99.6136 19.551 99.3657 19.5427 99.0706 19.5448C97.4635 19.5505 95.8588 19.5489 94.2544 19.5472H94.2523C92.1133 19.545 89.9744 19.5429 87.8317 19.5582C87.2045 19.5582 87.0084 19.3573 87.0084 18.728C87.0346 14.3096 87.0346 9.89121 87.0084 5.4728C87.0084 4.87029 87.1653 4.65607 87.7795 4.66946C91.7 4.69623 95.6205 4.69623 99.541 4.66946C100.168 4.66946 100.43 4.8569 100.377 5.51297C100.351 5.8477 100.338 6.18243 100.377 6.51716C100.443 7.18661 100.129 7.37406 99.528 7.37406C98.3099 7.3687 97.0897 7.36763 95.8692 7.36656C94.0385 7.36495 92.207 7.36335 90.3801 7.34728C89.8181 7.34728 89.609 7.49456 89.6482 8.09707C89.674 8.58163 89.6659 9.07778 89.6573 9.60078V9.60395C89.6528 9.8746 89.6482 10.153 89.6482 10.4402Z" fill="#333333"/>
<path fill-rule="evenodd" clip-rule="evenodd" d="M153.618 16.7197C155.356 18.9021 157.656 19.9197 160.414 20C160.705 19.9531 160.997 19.9144 161.29 19.8756C161.918 19.7925 162.547 19.7091 163.171 19.5448C166.098 18.7682 168.006 16.8937 168.79 13.8544C169.548 10.9088 168.189 7.38745 165.693 5.71381C163.315 4.10711 160.714 3.8795 158.061 4.52218C155.474 5.15147 153.5 6.74477 152.638 9.39582C152.297 10.4299 152.274 11.5799 152.251 12.684L152.246 12.9305C152.207 14.3498 152.742 15.6218 153.618 16.7197ZM160.518 17.282L160.479 17.1213C159.146 17.0946 157.878 16.8803 156.741 16.0502C155.016 14.7515 154.559 12.7297 155.003 10.6544C155.474 8.37824 157.826 6.94561 160.244 6.86527C162.335 6.78494 164.23 7.40084 165.406 9.22176C166.974 11.6452 166.451 15.1531 163.419 16.5188C162.791 16.7988 162.099 16.9421 161.41 17.0849C161.11 17.147 160.811 17.209 160.518 17.282Z" fill="#333333"/>
<path fill-rule="evenodd" clip-rule="evenodd" d="M72.9468 14.1356V18.4736C72.9468 19.518 72.8946 19.5582 71.8752 19.5582C71.7111 19.5582 71.5638 19.5605 71.4317 19.5625C70.2914 19.5804 70.2809 19.5806 70.2809 17.9247C70.2874 15.8628 70.2874 13.8008 70.2874 11.7372C70.2874 9.67364 70.2874 7.60837 70.2939 5.53975C70.2939 4.69623 70.3201 4.68285 71.1303 4.68285C72.2537 4.68285 73.3771 4.68433 74.501 4.68582C76.7502 4.6888 79.0014 4.69177 81.2583 4.68285C82.9442 4.66946 84.3948 6.0887 84.826 7.56151C85.1789 8.72636 85.1527 9.89121 84.8783 11.0962C84.4732 12.8636 82.6436 13.9749 81.2453 14.0151C79.589 14.0687 77.9385 14.0865 76.286 14.1044C75.4613 14.1133 74.636 14.1222 73.8093 14.1356H72.9468ZM72.9468 11.19C73.0176 11.202 73.075 11.2168 73.1239 11.2294C73.1835 11.2448 73.2305 11.2569 73.2735 11.2569C73.8971 11.2569 74.5215 11.2577 75.1463 11.2586C77.0224 11.2611 78.9024 11.2636 80.7748 11.2435C81.8203 11.2301 82.3953 10.5071 82.4084 9.34226C82.4084 8.20418 81.8072 7.42762 80.7879 7.40084C79.384 7.37789 77.98 7.37242 76.5761 7.36695C75.5232 7.36286 74.4702 7.35876 73.4173 7.34728C73.0906 7.34728 72.9338 7.441 72.9468 7.80251C72.9555 8.53951 72.9527 9.27651 72.9498 10.0291C72.9483 10.4114 72.9468 10.7976 72.9468 11.19Z" fill="#333333"/>
<path d="M45.3333 5.43264C43.8043 4.3749 42.0401 4.1205 40.3542 4.20084C38.5769 4.16067 37.0479 4.53557 35.6496 5.43264C33.9638 6.49038 32.7484 7.97657 32.278 9.94477C31.6638 12.5021 32.0297 14.8987 33.7547 17.0142C35.0615 18.6209 36.7474 19.518 38.7338 19.7992C40.2628 20.0134 41.7787 19.9732 43.3077 19.5849C44.902 19.1699 46.2089 18.3398 47.3066 17.1347C48.1169 16.251 48.0515 16.0234 47.0322 15.3941C46.9473 15.3406 46.8656 15.287 46.7839 15.2335C46.7022 15.1799 46.6205 15.1264 46.5356 15.0728C46.0913 14.7916 45.7515 14.8184 45.2941 15.2201C44.5492 15.8628 43.7128 16.5724 42.8111 16.8C41.6349 17.0946 40.3412 17.0946 39.1258 16.9607C36.9565 16.7331 35.4275 15.3941 34.8655 13.3188C34.3951 11.6184 34.8132 9.9046 36.1331 8.5523C37.2962 7.37406 38.7599 6.93222 40.2758 6.89205C42.2622 6.82511 44.0657 7.49456 45.5685 8.90042C45.7254 9.0477 46.0259 9.12803 46.235 9.08787C46.5427 9.02483 46.8342 8.89583 47.1286 8.76557C47.2094 8.72985 47.2904 8.69399 47.372 8.65942C47.947 8.41841 48.0907 8.08368 47.6595 7.60167C46.9407 6.81172 46.1958 6.03515 45.3333 5.43264Z" fill="#333333"/>
<path d="M127.664 7.61506L127.539 7.84094C127.385 8.11916 127.272 8.32234 127.168 8.52553C126.756 9.40251 126.344 10.2828 125.933 11.1632C125.521 12.0435 125.109 12.9239 124.698 13.8008C124.406 14.4294 124.11 15.0561 123.815 15.683L123.814 15.6839C123.342 16.6858 122.869 17.6885 122.411 18.7013C122.136 19.3038 121.77 19.5983 121.104 19.518C120.921 19.4964 120.735 19.5019 120.547 19.5074C120.385 19.5122 120.222 19.517 120.058 19.5046C119.496 19.4778 119.287 19.1565 119.523 18.6611C119.928 17.7908 120.343 16.9272 120.758 16.0636C121.173 15.2 121.587 14.3364 121.993 13.4661C122.602 12.1718 123.201 10.8775 123.799 9.58326C124.098 8.93612 124.397 8.28898 124.698 7.64184L124.698 7.64093C125.064 6.86466 125.43 6.0884 125.809 5.32552C126.018 4.89707 126.305 4.65607 126.828 4.65607L126.871 4.65582C129.102 4.64259 129.121 4.64248 130.108 6.71799C131.61 9.86357 133.1 13.0091 134.589 16.1547L134.59 16.1573C134.969 16.9473 135.335 17.7506 135.688 18.554C135.963 19.1833 135.78 19.4644 135.113 19.518C133.237 19.6373 133.231 19.6253 132.482 17.9083L132.46 17.8577C132.044 16.9099 131.601 15.979 131.159 15.0504C130.92 14.5492 130.681 14.0486 130.448 13.5464C130.193 12.992 129.944 12.4353 129.694 11.8782L129.693 11.8767L129.692 11.8748L129.691 11.8725C129.338 11.0861 128.985 10.2989 128.618 9.51632C128.477 9.21936 128.325 8.9224 128.16 8.60155C128.006 8.30036 127.841 7.97811 127.664 7.61506Z" fill="#333333"/>
<path d="M144.666 7.3205C144.782 7.31486 144.888 7.30685 144.986 7.29946C145.121 7.28931 145.24 7.28033 145.346 7.28033C146.679 7.26695 147.998 7.26695 149.331 7.26695C150.769 7.26695 150.769 7.26695 150.782 5.80753C150.795 4.7364 150.743 4.66946 149.684 4.66946H137.609C135.963 4.66946 135.923 4.70962 136.028 6.42343C136.067 7.05272 136.302 7.29372 136.917 7.28033C137.79 7.26503 138.66 7.26722 139.53 7.2694C140.182 7.27104 140.835 7.27269 141.491 7.26695C141.987 7.26695 142.17 7.44101 142.17 7.97657C142.153 10.1808 142.147 12.3792 142.141 14.5795V14.5911C142.138 15.6881 142.135 16.7856 142.131 17.8845C142.131 18.7391 142.131 19.1644 142.343 19.3707C142.554 19.5748 142.972 19.5647 143.804 19.5448C144.601 19.5314 144.666 19.4644 144.666 18.6611V7.3205Z" fill="#333333"/>
</svg>
