<svg width="100" height="24" viewBox="0 0 100 24" fill="none" xmlns="http://www.w3.org/2000/svg">
<g clip-path="url(#clip0_2568_6455)">
<path d="M41.6535 0C41.7063 0.0343792 41.759 0.0678976 41.8116 0.101266C41.9498 0.18905 42.0864 0.275799 42.2171 0.374463C42.7919 0.782968 43.0286 1.48651 42.8144 2.12196C42.6228 2.70067 41.9578 3.19996 41.3605 3.2113C40.7631 3.2113 40.0868 2.71202 39.9065 2.1333C39.6923 1.45246 39.9403 0.737579 40.5377 0.340421C40.6353 0.272337 40.733 0.194166 40.8307 0.115996C40.8795 0.0769137 40.9284 0.0378212 40.9772 0H41.6535Z" fill="#333333"/>
<path d="M99.6644 17.1677C99.7521 17.0807 99.8393 16.9941 99.9252 16.9076C100.042 16.7903 100.007 16.6367 99.9252 16.5785C99.8043 16.492 99.6815 16.4082 99.559 16.3245C99.2477 16.112 98.9379 15.9004 98.6629 15.648C98.3022 15.3189 98.1106 15.3076 97.7612 15.7048C97.4005 16.1246 96.9046 16.5331 96.3861 16.6806C95.4619 16.9416 94.6503 16.3969 94.2671 15.3643C93.6698 13.7417 93.7036 12.0623 93.8952 10.3828C93.9628 9.80413 94.0868 9.21406 94.3009 8.68074C94.9321 7.16019 96.4537 6.93324 97.5358 8.1701C98.1782 8.90768 98.1782 8.90768 98.8996 8.26088C99.1045 8.07517 99.3137 7.89779 99.5219 7.72117L99.5231 7.72014L99.5256 7.71801L99.5276 7.71627C99.661 7.60316 99.794 7.49033 99.9252 7.37579C99.9528 7.35171 99.9476 7.28734 99.9252 7.26231C99.7859 7.10643 99.6518 6.9452 99.5195 6.78596C99.4592 6.71343 99.3991 6.64113 99.3391 6.57013C97.254 4.08505 93.4218 4.53895 92.1369 7.5233C90.8745 10.4623 90.8633 13.5261 92.0805 16.465C93.3204 19.4607 96.882 20.0281 99.1363 17.7019C99.3092 17.5203 99.4871 17.3437 99.6633 17.1687L99.6644 17.1677Z" fill="#333333"/>
<path fill-rule="evenodd" clip-rule="evenodd" d="M77.4337 23.0918C77.5295 23.3387 77.6253 23.5855 77.7211 23.8295C77.8299 24.1066 78.1143 23.9896 78.4004 23.8718C78.4257 23.8614 78.4511 23.851 78.4763 23.8408C78.5446 23.8133 78.6123 23.7851 78.6797 23.757C78.89 23.6695 79.0969 23.5833 79.3103 23.5231C80.7756 23.0919 81.9929 22.377 82.6241 20.8792C83.0524 19.8806 83.1425 18.8366 83.1425 17.77V11.6991C83.1425 9.77008 83.1425 7.84103 83.1538 5.91198C83.1651 5.48078 83.0073 5.28787 82.5677 5.31057C82.4248 5.31493 82.2803 5.31091 82.1354 5.30689C81.903 5.30044 81.6697 5.29396 81.4406 5.32192C81.2001 5.35531 80.9658 5.43783 80.733 5.51979C80.6494 5.54923 80.5659 5.57861 80.4825 5.6056C80.4938 5.67368 80.4938 5.73042 80.4938 5.78716C80.4262 5.74177 80.3557 5.69921 80.2853 5.65666C80.2149 5.61411 80.1444 5.57156 80.0768 5.52617C79.0849 4.84533 78.0367 4.84533 76.9659 5.26518C75.5458 5.8212 74.847 7.03537 74.5314 8.39705C73.8889 11.1431 73.8777 13.9119 74.8132 16.6125C75.6698 19.0636 78.1832 19.8238 80.2571 18.292C80.3213 18.2489 80.3946 18.2194 80.4911 18.1806C80.5471 18.1581 80.6109 18.1324 80.6854 18.0991C80.6629 19.0863 80.584 19.9487 79.9641 20.6636C79.3375 21.3718 78.4645 21.5404 77.6062 21.7062L77.5408 21.7189C77.1125 21.7983 76.9772 21.9458 77.1463 22.3543C77.2421 22.5983 77.3379 22.845 77.4337 23.0918ZM80.6854 9.16867V12.0643C80.6854 13.0735 80.6854 14.0941 80.6741 15.1147C80.6741 15.7501 80.1782 16.3969 79.5245 16.6466C78.8144 16.9303 78.0592 16.8395 77.6648 16.3062C77.3492 15.875 77.0561 15.3757 76.9434 14.8651C76.5038 12.97 76.4587 11.0523 76.8983 9.13463C76.9772 8.80556 77.0899 8.47648 77.259 8.18145C77.7098 7.39848 78.3748 7.17154 79.2878 7.43253C80.1782 7.68217 80.6854 8.31762 80.6854 9.16867Z" fill="#333333"/>
<path d="M88.0726 0.284371C87.964 0.190816 87.8555 0.0972605 87.7524 0H87.0874C86.9941 0.0776038 86.8979 0.150797 86.8019 0.223813C86.6312 0.353639 86.4612 0.482946 86.3097 0.635453C85.8138 1.13474 85.78 2.03118 86.2083 2.55316C86.7831 3.25669 87.527 3.40421 88.2371 2.95032C88.9021 2.51912 89.1951 1.67941 88.8006 1.04396C88.6155 0.752165 88.344 0.518269 88.0726 0.284371Z" fill="#333333"/>
<path fill-rule="evenodd" clip-rule="evenodd" d="M34.2556 18.3029C34.0095 18.4798 33.7965 18.6329 33.5721 18.7458C31.8927 19.5969 29.8188 18.9161 29.0298 17.1913C28.6579 16.3743 28.4099 15.4892 28.2521 14.6041C27.8464 12.3459 27.9027 10.0765 28.6241 7.88642C29.0073 6.75168 29.6497 5.77581 30.8219 5.29922C31.9716 4.82263 33.0762 4.83398 34.1244 5.6056C34.1878 5.65524 34.26 5.68716 34.3548 5.72905C34.4116 5.75418 34.4766 5.7829 34.5527 5.8212C34.5589 5.77536 34.5651 5.73143 34.5711 5.68906L34.5717 5.68479L34.5719 5.68369C34.5982 5.4979 34.6203 5.34161 34.6203 5.18575C34.6203 4.88463 34.6222 4.5826 34.624 4.28016C34.6286 3.52277 34.6332 2.76257 34.609 2.00848C34.5978 1.52055 34.7443 1.24821 35.1839 1.04396C35.5755 0.861995 35.957 0.649637 36.3688 0.420424C36.5734 0.306591 36.7854 0.188572 37.0098 0.0680842C37.0258 0.164557 37.0446 0.252487 37.0622 0.334899C37.0943 0.485116 37.1225 0.617038 37.1225 0.748926C37.1225 6.57013 37.1225 12.3913 37.1338 18.2125C37.1338 18.7232 36.9422 18.8934 36.4688 18.8593C36.2492 18.8423 36.0233 18.8444 35.7957 18.8466C35.7198 18.8473 35.6432 18.848 35.5671 18.848C35.5177 18.848 35.4676 18.8492 35.4175 18.8503C34.9762 18.8607 34.5348 18.8711 34.5752 18.0764C34.4613 18.155 34.3557 18.2309 34.2556 18.3029ZM34.6203 9.08924C34.6203 8.35166 34.0906 7.70486 33.2565 7.44387C32.3999 7.17154 31.7011 7.35309 31.2841 8.05663C31.0248 8.49918 30.8219 9.00981 30.7318 9.52044C30.4275 11.1545 30.4613 12.7885 30.7543 14.4225C30.8558 14.9672 31.0586 15.5118 31.3291 15.9998C31.7349 16.7374 32.445 16.9416 33.3241 16.692C34.0342 16.4877 34.609 15.7501 34.6203 15.0353V9.08924Z" fill="#333333"/>
<path fill-rule="evenodd" clip-rule="evenodd" d="M51.3425 18.3612C51.4341 18.2949 51.5251 18.2289 51.6172 18.1671C51.6735 18.1217 51.7186 18.0877 51.7637 18.065C51.6662 18.909 52.0998 18.8873 52.5251 18.866C52.5915 18.8626 52.6578 18.8593 52.7218 18.8593C52.8425 18.8642 52.9632 18.8628 53.0839 18.8614C53.245 18.8596 53.4061 18.8577 53.5671 18.8707C54.0968 18.9161 54.2997 18.7232 54.2997 18.1671C54.2884 12.38 54.2884 6.60417 54.2884 0.81701C54.2884 0.663821 54.2631 0.504249 54.2314 0.304783L54.2307 0.300546L54.2305 0.299379C54.2202 0.234499 54.2092 0.165243 54.1983 0.0907789C54.0175 0.189016 53.8432 0.285047 53.6734 0.378683C53.1761 0.652782 52.716 0.906373 52.2371 1.13474C51.8651 1.30495 51.7637 1.56594 51.775 1.9404C51.7919 2.74888 51.7898 3.55735 51.7877 4.36583C51.787 4.63535 51.7862 4.90488 51.7862 5.1744C51.7862 5.28712 51.7747 5.39985 51.7606 5.53748C51.7506 5.63538 51.7393 5.74587 51.7299 5.87794C51.4707 5.71907 51.3241 5.62829 51.1776 5.52617C50.197 4.89072 49.1713 4.86802 48.1119 5.26518C46.8495 5.74177 46.1732 6.78573 45.7675 7.99989C45.1025 9.99703 45.1137 12.0623 45.3617 14.1161C45.4857 15.126 45.7562 16.1586 46.1507 17.1005C46.8946 18.882 48.9572 19.6083 50.6817 18.7799C50.9175 18.6691 51.1314 18.5141 51.3425 18.3612ZM51.7887 11.0734V11.081C51.7875 11.4126 51.7862 11.7437 51.7862 12.0736V14.9672C51.7862 15.7615 51.2565 16.4877 50.5126 16.692C49.5771 16.953 48.8783 16.7147 48.4387 15.909C48.2358 15.5459 48.0893 15.1374 48.0104 14.7402C47.6047 12.6977 47.5145 10.6552 48.1569 8.63535C48.3936 7.92046 48.8332 7.37579 49.6222 7.3304C50.4901 7.28501 51.1889 7.69351 51.6735 8.4084C51.7881 8.56562 51.7872 8.8003 51.7864 9.01406L51.7862 9.06655C51.7938 9.73268 51.7913 10.4039 51.7887 11.0734Z" fill="#333333"/>
<path fill-rule="evenodd" clip-rule="evenodd" d="M62.3022 12.1303C62.4037 10.5757 62.5276 9.06655 63.1926 7.63678C64.0267 5.83255 65.5483 4.90206 67.6335 5.00419C69.3805 5.09497 70.9472 6.36587 71.5107 8.13606C72.3223 10.7006 72.3335 13.2651 71.5333 15.8296C70.7105 18.4281 67.9941 19.7785 65.4919 18.7685C63.8689 18.1104 63.0799 16.7147 62.708 15.0807C62.547 14.3998 62.4722 13.6901 62.3975 12.9803C62.3676 12.6964 62.3376 12.4124 62.3022 12.1303ZM69.5946 11.9261C69.5819 11.7388 69.5723 11.5509 69.5628 11.363C69.5135 10.3897 69.4641 9.41593 68.9634 8.52187C68.5577 7.78429 67.9716 7.3304 67.115 7.38714C66.2471 7.43253 65.661 7.96585 65.4018 8.73747C64.6579 10.9275 64.6466 13.1629 65.3905 15.353C65.6497 16.1133 66.1908 16.6693 67.0812 16.726C68.0054 16.7941 68.5351 16.2835 68.9409 15.5232C69.4908 14.5083 69.5347 13.4101 69.5796 12.2871C69.5844 12.167 69.5892 12.0467 69.5946 11.9261Z" fill="#333333"/>
<path d="M59.749 0.390902C59.7363 0.294891 59.7223 0.189169 59.7099 0.0680842C59.4283 0.214392 59.1705 0.358857 58.924 0.497026C58.5589 0.701618 58.2178 0.892809 57.8614 1.05531C57.4105 1.25956 57.2978 1.55459 57.2978 2.03118C57.3147 4.32838 57.3126 6.61919 57.3105 8.9132V8.91426C57.3098 9.67943 57.3091 10.445 57.3091 11.2112C57.3091 11.7893 57.3098 12.3682 57.3105 12.9476C57.3126 14.688 57.3147 16.4332 57.2978 18.1785C57.2978 18.7005 57.4669 18.9047 57.9854 18.8593C58.2426 18.835 58.4941 18.8396 58.748 18.8442C58.8502 18.8461 58.9527 18.848 59.0561 18.848C59.7549 18.848 59.7887 18.8139 59.7887 18.1217V0.828358C59.7887 0.692141 59.7707 0.555738 59.749 0.390902Z" fill="#333333"/>
<path d="M86.2196 12.0849C86.2196 11.5744 86.2203 11.0639 86.221 10.5533C86.2231 9.02133 86.2252 7.48935 86.2083 5.95737C86.2083 5.44674 86.3886 5.27653 86.862 5.31057C87.2565 5.33326 87.651 5.33326 88.0455 5.31057C88.5414 5.27653 88.6879 5.48078 88.6879 5.96871C88.671 8.40954 88.6731 10.844 88.6752 13.2816L88.6753 13.3097C88.676 14.1152 88.6767 14.921 88.6767 15.7275C88.6767 15.9403 88.6759 16.1531 88.6752 16.366C88.6731 17.0042 88.671 17.6424 88.6879 18.2806C88.6992 18.7005 88.5301 18.8707 88.1244 18.848C87.6961 18.8253 87.2565 18.8253 86.8282 18.848C86.3548 18.882 86.2083 18.6664 86.2083 18.2125C86.2195 16.17 86.2196 14.1275 86.2196 12.0849Z" fill="#333333"/>
<path d="M40.1333 10.4964C40.1326 11.007 40.1319 11.5176 40.1319 12.0282C40.1319 12.4414 40.1324 12.8541 40.1328 13.2666C40.1346 14.9161 40.1364 16.5627 40.1094 18.2239C40.0981 18.6778 40.2333 18.8934 40.718 18.8593C41.135 18.8253 41.5521 18.8253 41.9578 18.8593C42.4538 18.8934 42.6228 18.7005 42.6115 18.2012C42.5946 16.6859 42.5968 15.1642 42.5989 13.6458C42.5996 13.1402 42.6003 12.6349 42.6003 12.1303C42.6003 11.6137 42.5996 11.0978 42.5989 10.5823V10.5812C42.5968 9.03619 42.5947 7.49423 42.6115 5.94602C42.6115 5.48078 42.4763 5.27653 42.0029 5.31057C41.5746 5.33326 41.135 5.33326 40.7067 5.31057C40.2784 5.28787 40.1206 5.44674 40.1206 5.90063C40.1375 7.43257 40.1354 8.96451 40.1333 10.4964Z" fill="#333333"/>
<path fill-rule="evenodd" clip-rule="evenodd" d="M9.4855 1.14251C9.80219 0.952498 10.1978 0.952497 10.5145 1.14251L19.5145 6.54251C19.8157 6.72323 20 7.04874 20 7.4V17.2676C20 17.6189 19.8157 17.9444 19.5145 18.1251L10.5145 23.5251C10.1978 23.7151 9.80219 23.7151 9.4855 23.5251L0.485505 18.1251C0.184299 17.9444 0 17.6189 0 17.2676V7.4C0 7.04874 0.184299 6.72323 0.485504 6.54251L9.4855 1.14251ZM9 10.6018L4.87084 8.21778C4.63169 8.07971 4.32589 8.16165 4.18782 8.4008L3.68782 9.26682C3.54975 9.50597 3.63169 9.81176 3.87084 9.94983L8 12.3338L3.87083 14.7178C3.63169 14.8559 3.54975 15.1617 3.68782 15.4008L4.18782 16.2668C4.32589 16.506 4.63169 16.5879 4.87083 16.4498L9 14.0659V18.8338C9 19.11 9.22386 19.3338 9.5 19.3338H10.5C10.7761 19.3338 11 19.11 11 18.8338V14.0659L15.1292 16.4498C15.3683 16.5879 15.6741 16.506 15.8122 16.2668L16.3122 15.4008C16.4502 15.1617 16.3683 14.8559 16.1292 14.7178L12 12.3338L16.1292 9.94983C16.3683 9.81176 16.4502 9.50597 16.3122 9.26682L15.8122 8.4008C15.6741 8.16165 15.3683 8.07971 15.1292 8.21778L11 10.6018V5.83381C11 5.55767 10.7761 5.33381 10.5 5.33381H9.5C9.22386 5.33381 9 5.55767 9 5.83381V10.6018Z" fill="#333333"/>
</g>
<defs>
<clipPath id="clip0_2568_6455">
<rect width="100" height="24" fill="white"/>
</clipPath>
</defs>
</svg>
