<svg width="114" height="25" viewBox="0 0 114 25" fill="none" xmlns="http://www.w3.org/2000/svg">
<path d="M14.1176 5.6567C15.4431 5.6567 16.5176 6.73122 16.5176 8.0567V14.9273H13.9765V7.91552H9.97647V14.9273H7.43529V5.6567H14.1176Z" fill="#FFFCF0"/>
<path d="M4.56471 15.492C4.35679 15.492 4.18823 15.6605 4.18823 15.8685C4.18823 16.0764 4.35679 16.2449 4.56471 16.2449H6.01748C5.87405 16.5042 5.81176 16.7866 5.81176 17.0214V18.4096C5.81176 18.6176 5.98032 18.7861 6.18823 18.7861C6.39615 18.7861 6.56471 18.6176 6.56471 18.4096V17.0214C6.56471 16.8741 6.61883 16.6688 6.74233 16.5085C6.85505 16.3622 7.02999 16.2449 7.31766 16.2449H8.8C9.00792 16.2449 9.17647 16.0764 9.17647 15.8685C9.17647 15.6605 9.00792 15.492 8.8 15.492H4.56471Z" fill="#FFFCF0"/>
<path d="M16.4706 15.8685C16.4706 15.6605 16.302 15.492 16.0941 15.492C15.8862 15.492 15.7176 15.6605 15.7176 15.8685V17.7508C15.7176 18.3226 16.1812 18.7861 16.7529 18.7861H19.2C19.4079 18.7861 19.5765 18.6176 19.5765 18.4096C19.5765 18.2017 19.4079 18.0332 19.2 18.0332H16.7529C16.597 18.0332 16.4706 17.9068 16.4706 17.7508V15.8685Z" fill="#FFFCF0"/>
<path d="M9.92941 17.1391C9.92941 16.6161 10.2749 16.245 10.6824 16.2449H14.9176C15.1256 16.2449 15.2941 16.0764 15.2941 15.8685C15.2941 15.6605 15.1256 15.492 14.9176 15.492H10.6823C9.74826 15.4921 9.17647 16.3204 9.17647 17.1391C9.17647 17.9576 9.74824 18.7861 10.6824 18.7861H14.9176C15.1256 18.7861 15.2941 18.6176 15.2941 18.4096C15.2941 18.2017 15.1256 18.0332 14.9176 18.0332H10.6824C10.2749 18.0332 9.92941 17.662 9.92941 17.1391Z" fill="#FFFCF0"/>
<path d="M10.8235 16.7626C10.6156 16.7626 10.4471 16.9311 10.4471 17.1391C10.4471 17.347 10.6156 17.5155 10.8235 17.5155H14.6353C14.8432 17.5155 15.0118 17.347 15.0118 17.1391C15.0118 16.9311 14.8432 16.7626 14.6353 16.7626H10.8235Z" fill="#FFFCF0"/>
<path fill-rule="evenodd" clip-rule="evenodd" d="M12 24.998C18.6274 24.998 24 19.6254 24 12.998C24 6.37066 18.6274 0.998047 12 0.998047C5.37258 0.998047 0 6.37066 0 12.998C0 19.6254 5.37258 24.998 12 24.998ZM11.9529 23.4451C17.7227 23.4451 22.4 18.7678 22.4 12.998C22.4 7.22829 17.7227 2.55099 11.9529 2.55099C6.18319 2.55099 1.50588 7.22829 1.50588 12.998C1.50588 18.7678 6.18319 23.4451 11.9529 23.4451Z" fill="#FFFCF0"/>
<path d="M114 20.6155V1.66992H111.471V20.6155H114Z" fill="#FFFCF0"/>
<path d="M32 2.1186V20.6155H34.6194V8.48989L47.278 21.6699V3.29639H44.6586V15.3323L32 2.1186Z" fill="#FFFCF0"/>
<path fill-rule="evenodd" clip-rule="evenodd" d="M53.36 15.7473H61.207L61.2183 15.1528C61.2183 13.3506 60.7536 11.941 59.8242 10.924C58.8874 9.8995 57.6133 9.38725 56.0019 9.38725C54.4055 9.38725 53.1239 9.91445 52.1571 10.9689C51.1978 12.0382 50.7181 13.4366 50.7181 15.164C50.7181 16.9064 51.2128 18.3048 52.2021 19.3592C53.1914 20.4061 54.503 20.9296 56.1368 20.9296C56.7064 20.9296 57.2348 20.8698 57.722 20.7501C58.2091 20.6305 58.6626 20.4435 59.0823 20.1893C59.502 19.9275 59.8954 19.5985 60.2627 19.2022C60.6299 18.7984 60.9784 18.316 61.3082 17.7552L59.1722 16.5662C58.6551 17.3738 58.1941 17.9272 57.7894 18.2263C57.3772 18.5254 56.8563 18.675 56.2268 18.675C55.4173 18.675 54.754 18.4132 54.2369 17.8898C53.7198 17.3588 53.4275 16.6447 53.36 15.7473ZM56.0581 11.6643C57.4072 11.6643 58.2578 12.3373 58.6101 13.6834H53.5287C53.6111 13.3693 53.731 13.0889 53.8884 12.8421C54.0458 12.5953 54.2332 12.3859 54.4505 12.2139C54.6754 12.0345 54.9227 11.8999 55.1925 11.8101C55.4623 11.7129 55.7508 11.6643 56.0581 11.6643Z" fill="#FFFCF0"/>
<path d="M64.9956 9.69011L67.8624 15.9268L70.9539 8.69179L74.068 15.9268L76.901 9.69011H79.734L74.0005 21.4344L70.9539 14.4013L67.8736 21.4344L62.1514 9.69011H64.9956Z" fill="#FFFCF0"/>
<path d="M93.8316 20.6155V5.75293H97.8114V3.29639H87.2213V5.75293H91.2122V20.6155H93.8316Z" fill="#FFFCF0"/>
<path fill-rule="evenodd" clip-rule="evenodd" d="M108.694 15.7473H100.847C100.914 16.6447 101.206 17.3588 101.724 17.8898C102.241 18.4132 102.904 18.675 103.713 18.675C104.343 18.675 104.864 18.5254 105.276 18.2263C105.681 17.9272 106.142 17.3738 106.659 16.5662L108.795 17.7552C108.465 18.316 108.117 18.7984 107.749 19.2022C107.382 19.5985 106.989 19.9275 106.569 20.1893C106.149 20.4435 105.696 20.6305 105.209 20.7501C104.721 20.8698 104.193 20.9296 103.624 20.9296C101.99 20.9296 100.678 20.4061 99.6888 19.3592C98.6995 18.3048 98.2048 16.9064 98.2048 15.164C98.2048 13.4366 98.6845 12.0382 99.6438 10.9689C100.611 9.91445 101.892 9.38725 103.489 9.38725C105.1 9.38725 106.374 9.8995 107.311 10.924C108.24 11.941 108.705 13.3506 108.705 15.1528L108.694 15.7473ZM106.097 13.6834C105.745 12.3373 104.894 11.6643 103.545 11.6643C103.238 11.6643 102.949 11.7129 102.679 11.8101C102.409 11.8999 102.162 12.0345 101.937 12.2139C101.72 12.3859 101.533 12.5953 101.375 12.8421C101.218 13.0889 101.098 13.3693 101.015 13.6834H106.097Z" fill="#FFFCF0"/>
</svg>
