<?xml version="1.0" encoding="utf-8"?>
<!-- Svg Vector Icons : http://www.onlinewebfonts.com/icon -->
<!DOCTYPE svg PUBLIC "-//W3C//DTD SVG 1.1//EN" "http://www.w3.org/Graphics/SVG/1.1/DTD/svg11.dtd">
<svg version="1.1" xmlns="http://www.w3.org/2000/svg" xmlns:xlink="http://www.w3.org/1999/xlink" x="0px" y="0px" viewBox="0 0 1000 1000" enable-background="new 0 0 1000 1000" xml:space="preserve">
<metadata> Svg Vector Icons : http://www.onlinewebfonts.com/icon </metadata>
<g><g><g id="c144_ray"><path d="M500,10C229.4,10,10,229.4,10,499.9c0,270.7,219.4,490,490,490c270.7,0,490-219.4,490-490C990,229.4,770.7,10,500,10z M500,939.8c-242.9,0-439.9-197-439.9-439.9C60.1,257.1,257.1,60.2,500,60.2c242.9,0,439.9,197,439.9,439.8C939.9,742.9,742.9,939.8,500,939.8z"/><polygon points="668.2,169.7 290.4,545.4 430.5,545.4 322.8,830.3 709.7,454.7 569.5,454.7 "/></g></g><g></g><g></g><g></g><g></g><g></g><g></g><g></g><g></g><g></g><g></g><g></g><g></g><g></g><g></g><g></g></g>
</svg>