<?xml version="1.0" encoding="UTF-8"?>
<svg width="93px" height="72px" viewBox="0 0 93 72" version="1.1" xmlns="http://www.w3.org/2000/svg" xmlns:xlink="http://www.w3.org/1999/xlink">
    <!-- Generator: Sketch 51 (57462) - http://www.bohemiancoding.com/sketch -->
    <title>BO_Header_logo-999DK</title>
    <desc>Created with Sketch.</desc>
    <defs></defs>
    <g id="Brands" stroke="none" stroke-width="1" fill="none" fill-rule="evenodd">
        <g id="BO_Header_logo-999DK" transform="translate(-14.000000, -12.000000)">
            <g transform="translate(14.000000, 12.000000)">
                <path d="M28.2291658,23.5699868 C27.903362,22.153351 27.4746478,21.0888477 26.5624446,20.2474967 C26.2805081,20.736 26.3672943,21.118649 26.5849711,21.5375364 C27.1796697,22.6819073 27.3418603,23.9233113 27.3722117,25.2026225 C27.402326,26.4800265 27.1505039,27.7090331 26.8308652,29.0193377 C27.290168,29.0584371 27.697067,29.1709669 28.1566069,29.0870464 C28.6061877,28.074755 28.8596697,26.9909404 28.9621059,25.9076026 C29.0844601,24.6163709 29.1963811,23.2981987 28.8082145,22.0141192 C28.7486972,21.8176689 28.7105208,21.6295629 28.3500974,21.7127682 C28.3169005,22.2205828 28.2820438,22.7581987 28.2291658,23.5699868 Z M38.191554,20.2386755 C37.2148539,21.1098278 36.9860325,22.2727947 36.3358476,23.2636291 C36.3358476,22.5269404 36.3358476,21.7902517 36.3358476,21.0538013 C35.3520339,23.6801325 35.6299393,27.5636026 36.8032124,29.1268609 C37.169801,29.0102781 37.5838137,29.1795497 37.9435258,28.9518675 C37.0749527,26.1708079 37.0453126,23.4517351 38.5327706,20.8668874 C38.4125505,20.6451656 38.3200734,20.4749404 38.191554,20.2386755 Z M38.8848948,24.5083709 C38.4545208,26.3808477 38.651331,27.3876556 39.7235907,28.9997881 C42.7428483,29.5090331 45.084415,31.1369007 47.0534651,33.6569007 C47.041609,32.4431523 46.6351842,31.6749934 45.7028257,31.1845828 C43.3470318,29.9458013 41.6037205,28.1379338 40.6452788,25.6141192 C40.5760395,25.4322119 40.5442653,25.2247947 40.2620917,25.3032318 C39.9931969,25.7848212 40.3275371,26.3639205 40.0576937,26.900106 C39.3323416,26.2590199 39.3892505,25.2791523 38.8848948,24.5083709 Z M17.4318758,33.5174305 C17.504909,33.5789404 17.5779421,33.6402119 17.6509753,33.7014834 C18.3329344,32.9764768 18.9650981,32.1968742 19.7208017,31.5531656 C20.5082795,30.882755 21.3706874,30.3401325 22.2930868,29.8900132 C23.2105067,29.4425166 24.2094961,29.2341457 25.1494425,28.9795232 C26.1797318,27.1201589 26.4279972,25.6486887 25.8510826,24.7429669 C25.4980099,25.5027815 25.4214199,26.3975364 24.5692082,27.0650861 C24.6133126,26.1686623 24.8646606,25.4314967 24.629674,24.6979073 C24.4781538,24.9286887 24.3413352,25.1511258 24.2436415,25.4188609 C23.2920762,28.0287417 21.4951757,29.8902517 19.0649259,31.1416689 C18.6122625,31.374596 18.2798193,31.6544901 18.0685448,32.0917351 C17.8418574,32.5599735 17.6429132,33.0418013 17.4318758,33.5174305 Z M36.289609,32.1234437 C40.0773747,31.0422517 42.964319,32.391894 45.3433507,35.2680795 C45.7483529,35.2091921 46.1972223,35.1972715 46.4039915,34.7161589 C44.4494058,30.5535099 38.6968582,29.1430728 35.9958165,30.4862781 C36.0100438,31.0403444 36.087108,31.6001325 36.289609,32.1234437 Z M56.8332703,3.84365563 C56.553705,4.61324503 56.968192,5.27984106 56.9795737,5.98243709 C57.013482,8.02513907 56.6193874,9.97176159 55.7271023,11.8022781 C54.7060607,13.8969536 53.1974989,15.5818013 51.3757008,17.0191788 C49.6131828,18.4095894 47.7593733,19.62 45.7300946,20.5915232 C44.9279153,20.9753642 44.0600536,21.2309404 43.3245053,21.6977483 C42.7072802,24.9351258 43.2626168,26.537245 45.3473818,27.5979338 C51.9217897,25.9586225 55.7470205,21.2471523 57.6340268,17.4042119 C57.9005505,19.0547285 57.3015836,20.5402649 57.1242174,22.1063841 C57.3124912,22.0224636 57.3945349,21.8863311 57.4896203,21.7602119 C58.9732844,19.790702 59.8679407,17.5391523 60.5152802,15.1886623 C61.1412788,12.9144636 61.2228483,10.6397881 60.3625745,8.36916556 C60.1821256,7.89329801 59.7640819,7.61817219 59.6357996,7.18116556 C59.1855074,5.64603974 58.0852675,4.70264901 56.8332703,3.84365563 Z M43.71694,49.5653245 C44.7595596,48.3472848 45.3160819,46.9239735 45.4962936,45.2643974 C44.5907297,44.0687682 44.3230205,42.624 44.3868059,40.9014834 C43.6707015,41.2569536 43.1528299,40.5653245 42.5009852,40.8628609 C42.361084,40.8058808 42.2214199,40.7486623 42.0307749,40.670702 C42.8109019,40.1531126 43.4632209,39.6078675 43.8698829,38.8046623 C44.40459,37.7487417 44.2129965,36.6403709 44.147314,35.5420132 C44.1302414,35.2542517 43.9068737,35.0513642 43.650072,34.9164238 C42.8180155,34.4791788 42.0013719,34.0071258 41.1479746,33.6170861 C40.2514213,33.2074967 39.3181143,33.2039205 38.4165815,33.6406887 C37.1833169,34.2376689 36.2177615,35.1624636 35.4006436,36.243894 C34.8683077,36.9486358 34.248,37.5425166 33.4901623,37.9845298 C32.638662,38.4811391 31.8296062,38.5402649 30.9754975,37.8910728 C30.0163444,37.1617748 29.3481383,36.1833377 28.5599492,35.3071788 C27.8281948,34.4939603 27.2752294,33.5129007 26.405945,32.9066225 C25.3185095,32.9104371 23.4568751,33.3808212 22.7431418,33.8969801 C22.16765,34.313245 21.5376203,34.8141457 21.4700409,35.546543 C21.2917262,37.4836291 21.0510487,38.9033642 23.3399746,40.5112053 C23.3684291,40.6029934 23.3968836,40.6947815 23.425338,40.7868079 C23.3174481,40.8120795 23.2095582,40.837351 23.1016683,40.8623841 C22.4099873,40.5798675 21.8489598,41.044053 21.2348172,41.1146225 C21.185259,42.8605033 21.3524291,43.0068874 20.1051743,45.373351 C20.3524912,46.8834437 20.7404206,48.3010331 21.8408977,49.4017748 C22.1012562,50.0330861 22.5373211,50.534702 23.0115625,51.0081854 C23.4874637,51.4833377 23.8993423,52.0028344 24.2550233,52.5797881 C24.9016514,53.6292715 25.2471362,54.7850861 25.5098659,55.9995497 C26.0950797,55.3842119 26.1157092,54.5466755 26.5083811,53.8855629 C27.2453522,54.3614305 27.4646888,55.2223311 28.0354382,55.9020397 C28.6531376,55.3136424 28.897609,54.6341722 29.0363246,53.8984371 C29.6997883,53.9020132 30.3082399,53.5792053 30.9890134,53.6180662 C32.8511221,53.7246358 34.7310148,53.4557086 36.578422,53.8881854 C36.784717,54.6518146 37.0706845,55.3725298 37.6518673,55.9552053 C38.0886436,55.2218543 38.4329428,54.4601325 39.1194072,53.8710199 C39.4762738,54.5543046 39.5789471,55.3355762 40.0707354,55.9742781 C40.1693776,55.7427815 40.2836697,55.5699338 40.3163924,55.3823046 C40.6253606,53.6097219 41.512192,52.1566093 42.7395286,50.8861192 C43.1227156,50.489404 43.4546845,50.0531126 43.71694,49.5653245 Z M21.6300974,24.2890331 C21.6751503,23.3837881 21.7761637,22.4730596 21.4064926,21.6002384 C18.1648158,20.3357086 15.1887142,18.6687417 12.6100268,16.3497219 C9.35625688,13.4237086 7.49225124,9.87949669 7.88041778,5.35708609 C7.91669725,4.93343046 8.03383486,4.49022517 7.82516867,4.06776159 C7.5135921,4.0815894 7.32270995,4.25539073 7.19751023,4.52050331 C5.0309386,6.08018543 4.10403387,8.34055629 3.90793507,10.8798675 C3.68172195,13.8042119 4.5400988,16.5523709 5.75723924,19.1765563 C6.21345942,20.1607152 6.87241778,21.0356821 7.60203811,21.8856159 C7.49177699,20.4873377 6.91865632,19.1524768 7.2499139,17.7513377 C10.1795399,22.5426755 13.8812308,26.3093245 19.5303938,27.5998411 C20.9462414,26.9313377 21.5269499,25.7619338 21.6300974,24.2890331 Z M35.6145265,33.8442914 C35.189132,32.3258543 34.9048243,30.7857219 34.9029273,29.2017219 C34.9005561,26.9525563 34.8716274,24.7083974 35.110645,22.4597086 C35.2306281,21.3329801 35.4236443,20.1964768 35.371952,19.0501987 C35.4468821,18.6263046 35.1613888,18.3793113 34.8903599,18.1633113 C34.2349584,17.6402384 33.4593366,17.3543841 32.6595286,17.1481589 C32.4404291,17.0916556 32.1696373,17.0914172 31.9604968,17.1691391 C31.0831503,17.4952848 30.1557713,17.7463311 29.4821115,18.5984106 C29.3543035,20.3283179 29.6983656,22.0904106 29.8136062,23.8603709 C30.0225095,27.0686623 30.1612251,30.2609801 29.3125702,33.4075232 C29.2395371,33.6776424 29.1323585,33.9642119 29.2608779,34.2205033 C29.9890755,35.6717086 30.6980663,37.1498543 32.5054001,37.6903311 C34.2152773,36.9762914 35.1274806,35.589457 35.6145265,33.8442914 Z M37.1007989,61.7669404 C37.4159323,61.7087682 37.2824333,61.4350728 37.3443218,61.2553113 C37.4560056,61.2829669 37.5679266,61.3110993 37.7516951,61.3566358 C37.7566747,62.5124503 37.4313451,63.6475232 37.3559407,64.8381457 C38.0604263,64.8171656 38.5458123,64.4636026 39.0202908,64.1429404 C41.5112435,62.4597616 43.1635004,60.0830464 44.3988991,57.3911523 C45.1460663,55.7630464 45.7312802,54.0674702 46.1884488,52.3058543 C46.7267128,53.6352318 47.7641157,54.6735099 47.8343035,56.1397351 C47.9595032,55.8491126 48.0270826,55.5849536 48.0887339,55.3193642 C48.3204008,54.319947 48.5345208,53.3186225 48.4470233,52.2815364 C48.3412675,51.0310728 47.1698913,50.0357086 45.8050247,50.1093775 C45.3886408,51.9267815 45.0023712,53.7890066 43.9922371,55.6164238 C43.8909866,54.7657748 44.0503317,54.0607947 43.8703571,53.3884768 C43.545976,53.4352053 43.4174566,53.5896954 43.3112265,53.7534834 C42.8175413,54.5135364 42.3153197,55.2747815 42.0155992,56.1361589 C41.5674411,57.4245298 40.7254255,58.4711523 39.9808666,59.5769007 C39.8262639,59.8067285 39.6579083,60.1266755 39.2116471,60.0317881 C39.1545011,58.7753642 39.3522597,57.465298 38.6354439,56.3199735 C38.0103938,56.6184636 37.9916613,57.3847152 37.4159323,57.6352848 C37.3379195,57.5821192 37.2781651,57.5213245 37.2065547,57.4977219 C37.1392124,57.4757881 37.0593028,57.4931921 36.9573409,57.4931921 C36.0131263,59.3759205 34.84341,61.074596 32.8089146,61.9645828 C30.7822442,61.034543 29.5952181,59.354702 28.6585914,57.4464636 C28.4556161,57.5151258 28.2879718,57.5716291 28.0925843,57.6376689 C27.7553987,57.1503576 27.5569287,56.5595762 26.997561,56.3476291 C26.5676613,56.9837086 26.6534989,57.729457 26.453132,58.4084503 C26.2525279,59.0872053 26.7952971,59.7666755 26.5520113,60.5951523 C25.3751814,59.297245 24.3901821,57.987894 23.8106591,56.4189139 C23.4801129,55.5246358 23.0345632,54.702596 22.5062583,53.9213245 C22.3381397,53.6731391 22.1825886,53.3534305 21.7410699,53.4166093 C21.5229188,54.0741457 21.7844629,54.7948609 21.5542188,55.5692185 C21.1895272,54.5960265 20.8208045,53.7351258 20.5459817,52.8449007 C20.261674,51.9234437 20.0681835,50.9731391 19.8372279,50.044053 C18.2558701,50.098649 17.235777,51.0959205 17.15729,52.6148344 C17.0939788,53.8343046 17.4506083,54.977245 17.782103,56.1480795 C17.8070007,54.6220132 18.9840677,53.6037616 19.4158645,52.2293245 C19.4606803,52.3630728 19.5021764,52.4684503 19.5313423,52.5769272 C20.3728836,55.7210861 21.5769824,58.7069404 23.5834975,61.2901192 C24.6744898,62.694596 25.922693,63.9708079 27.602693,64.7048742 C27.8170501,64.7985695 28.0159944,64.9192053 28.2829922,64.7120265 C28.3460663,64.183947 27.9849315,63.6906755 28.0465829,63.1287417 C28.1025434,62.6190199 28.0586761,62.0980927 28.0586761,61.3902517 C28.2481355,61.7192583 28.3221171,61.848 28.3960988,61.9765033 C28.8179365,63.5891126 29.4579252,65.1015894 30.4189753,66.4695894 C31.043314,67.3583841 31.7831306,68.085298 32.9419393,68.3520795 C35.4940692,66.9070728 36.6061651,64.5279735 37.1150261,61.7559735 L37.1007989,61.7669404 Z M49.3677629,38.5908079 C49.56647,37.7082119 49.794343,36.828 49.5773776,35.9308609 C49.1138066,35.0182252 48.3467212,34.8940132 47.4271673,35.0673377 C46.6313903,35.6068609 46.2088412,36.3802649 46.090518,37.4287947 C47.3508144,36.7643444 47.5568723,36.7571921 48.3891658,37.301245 C48.2741623,37.4557351 47.9976796,37.4068609 47.9545236,37.6500397 C47.7259393,38.0720265 48.1489626,38.3948344 48.1288073,38.776053 C47.839283,39.7087152 47.839283,39.7087152 47.2965138,40.1404768 C47.1357459,39.7168212 47.5099224,39.0588079 46.7637036,38.8797616 C46.1305914,39.5818808 45.6411743,40.3173775 45.9100692,41.3530331 C46.1379421,41.6820397 46.3786196,42.0382252 46.8753874,42.2203709 C47.5791616,41.3544636 48.277482,40.5131126 48.9537502,39.6541192 C49.1927678,39.3503841 49.430837,39.024 49.3677629,38.5908079 Z M16.2301482,38.5915232 C16.1976627,39.0626225 16.4404742,39.4254834 16.7281016,39.7470993 C17.278933,40.3626755 17.7972788,40.9994702 18.2487565,41.6937219 C18.3945857,41.9175894 18.5793028,42.1455099 18.9499224,42.1707815 C19.6766972,42.0289272 19.5192491,41.2910464 19.7800819,40.8738278 C19.5076302,40.130702 19.4815469,39.3458543 18.7934227,38.8792848 C18.064988,39.0673907 18.5081665,39.8043179 18.24188,40.2513377 C17.6697078,39.8117086 17.6213352,39.213298 17.4880734,38.6701987 C17.6085307,38.3206887 17.7365759,37.9940662 17.8278673,37.6574305 C17.8582188,37.5449007 17.7560198,37.4495364 17.613036,37.4612185 C17.4719492,37.4159205 17.3306253,37.3703841 17.1368977,37.3076821 C17.9642117,36.585298 18.7194411,36.9810596 19.4547523,37.399947 C19.489609,37.2218543 19.5365589,37.134596 19.5128469,37.0776159 C19.3333465,36.6530066 19.147681,36.230543 18.9470769,35.8157086 C18.8500946,35.6149669 18.640717,35.4449801 18.8472491,35.1991788 C19.0393169,35.2323179 19.2316217,35.265457 19.4578349,35.3047947 C19.6828624,35.0403974 19.9083641,34.7695629 20.1405053,34.5042119 C21.1798052,33.314543 22.4365448,32.454596 23.9671588,32.0519205 C25.4686069,31.6566358 26.9766944,31.3886623 28.4160169,32.3156026 C28.7837911,31.7036026 28.8300296,31.0570331 28.7401609,30.3773245 C27.4186874,30.0220927 26.1690614,29.9922914 24.8528045,30.2104371 C22.0673479,30.6724768 19.9920677,32.1024636 18.4868257,34.4581987 C18.3661313,34.6472583 18.375379,34.8224901 18.3746676,35.0151258 C18.1844968,35.0220397 17.9938518,35.0392053 17.8039181,35.0346755 C16.5550035,35.0043974 15.9648102,35.6054305 15.946789,36.8675762 C15.9384898,37.4664636 16.1713423,38.0114702 16.2301482,38.5915232 Z M2.20588285,20.2179338 C1.99271136,19.2523709 1.68635145,18.3178013 1.27470995,17.4189934 C1.37856881,16.8131921 1.12461256,16.2472053 0.977360621,15.701245 C0.447395907,13.7362649 0.476324629,11.741245 0.596307692,9.75504636 C0.651082569,8.85003974 0.85808892,7.92095364 1.20309951,7.05003974 C1.2718645,6.876 1.25242061,6.6666755 1.27352435,6.47380132 C1.43737474,6.41276821 1.49143825,6.26376159 1.56210021,6.1221457 C2.82002541,3.60953642 4.6363698,1.65909934 7.20320113,0.465377483 C7.39716584,0.446066225 7.61365702,0.476344371 7.78106422,0.399337748 C9.18529287,-0.246278146 10.5771912,0.0216953642 11.9712237,0.422701987 C12.2104785,0.512344371 12.478662,0.558119205 12.5939026,0.83205298 C12.3570191,1.17321854 11.9792858,1.40996026 11.8998504,1.85268874 C11.0014001,2.74815894 10.8491687,3.94116556 10.7758984,5.09507285 C10.6554411,6.9818543 11.2380466,8.73107285 12.1438476,10.3725298 C12.8492816,11.6511258 13.6607085,12.8417483 14.7054622,13.8800265 C16.3098207,15.4742781 18.3063769,16.3380397 20.3655328,17.1061987 C20.4369061,17.1326623 20.5196613,17.1510199 20.5941171,17.1438675 C21.9321891,17.0139338 23.2275794,17.4902781 24.5699195,17.406596 C25.1907015,17.3677351 25.6822526,17.1956026 26.1688243,16.816053 C27.7788737,15.560106 29.5032152,14.5196821 31.500957,13.9741987 C32.1362032,13.8008742 32.7057671,13.7910993 33.3317657,13.9689536 C35.5969795,14.6136159 37.5425547,15.8154437 39.3650642,17.3908609 C40.453211,17.3908609 41.6004008,17.4676291 42.7328892,17.3717881 C44.2118109,17.2466225 45.6207819,16.7504901 46.9441524,16.0993907 C48.3917742,15.3872583 49.7184644,14.4641325 50.7907241,13.2270199 C51.3790205,12.5480265 51.9369654,11.8418543 52.260398,10.984053 C53.7250924,8.76063576 54.4091856,6.36580132 53.8412816,3.6517351 C52.9210162,2.95581457 53.1275483,1.57327152 52.1378066,0.871390728 C52.4270939,0.702119205 52.6293578,0.583629139 52.8313846,0.465377483 C53.1512604,0.492317881 53.3684629,0.208609272 53.7020917,0.212662252 C54.8872209,0.226966887 56.0789894,0.0927417219 57.2434891,0.433430464 C60.9046323,2.0114702 63.1017925,4.81541722 63.9845928,8.67528477 C64.2032181,9.63059603 64.2392604,10.6278675 64.3587692,11.6058278 C64.1832999,13.5269404 64.0384192,15.4528212 63.4316274,17.3045563 C63.3604912,17.5222252 63.3766154,17.7687417 63.352192,18.0019073 C63.0135836,18.7149934 62.6721299,19.4271258 62.597674,20.2308079 C62.0520593,21.123894 61.6316443,22.0784901 61.2330445,23.0435762 C61.0369457,23.332053 60.8218772,23.6095629 60.6475935,23.9109139 C59.4809598,25.9271523 58.068669,27.7493245 56.4066902,29.376 C55.7074213,30.0602384 55.0076782,30.7437616 54.3081722,31.4277616 C53.6409146,31.7596291 53.0623402,32.2114172 52.5103232,32.7218543 C52.6672971,33.0315497 52.7901256,33.318596 52.9511306,33.5822781 C53.3326577,34.2073907 53.4441044,34.878755 53.4616514,35.6090066 C53.5104982,37.6247682 52.7996104,39.362543 51.6654622,40.9675232 C51.6284714,41.0199735 51.629657,41.0996026 51.6142442,41.1615894 C51.7389697,41.4455364 52.1027128,41.4069139 52.3130388,41.7430728 C51.8876443,42.6325828 51.4935498,43.6072053 50.9711729,44.5064901 C50.4535385,45.3971921 50.1801383,46.376106 49.8982018,47.331894 C49.5916048,48.3720795 50.2289852,49.3071258 50.6792773,50.2097483 C50.9344192,50.7209007 51.0356697,51.2210861 51.0759802,51.785404 C51.1670346,53.0609007 50.7463825,54.2872848 50.7949922,55.5518146 C50.4189188,55.7887947 50.4423938,56.2167417 50.3134001,56.5717351 C49.5878109,58.5686623 48.5542018,60.3655629 47.0088864,61.7969801 C46.38929,61.8663576 46.1820466,61.3373245 45.7400536,61.0395497 C45.5809457,61.2927417 45.4216006,61.5404503 45.2677092,61.7914967 C43.9260805,63.9815364 42.2036359,65.8244503 40.1302526,67.3149934 C38.7492618,68.3074967 37.4628821,69.4175364 36.1039435,70.4357881 C35.4369231,70.9359735 34.7253239,71.3472318 33.9743627,71.7015099 C33.0462724,72.138755 32.1622865,72.0925033 31.2647848,71.5827815 C30.3371687,71.055894 29.4285222,70.5111258 28.6092703,69.8192583 C27.5827749,68.9523974 26.541578,68.1031788 25.431379,67.3433642 C23.3440056,65.9155232 21.7111927,64.0542517 20.3413465,61.9405033 C20.1521242,61.6484503 20.0508737,61.2851126 19.7077601,61.0791258 C19.3831418,61.3332715 19.1510007,61.7204503 18.5691066,61.8449007 C15.8562089,59.2459868 14.559633,55.9814305 14.4896824,52.173298 C14.5119718,51.6993377 14.534024,51.2253775 14.5570247,50.7342517 C14.7832378,50.2953377 15.0222555,49.8442649 15.2496542,49.3874702 C15.6366351,48.6104901 15.7646803,47.7872583 15.4927029,46.9604503 C15.2636443,46.2623841 15.0919689,45.5435762 14.7336796,44.8843709 C14.2091687,43.9192848 13.7422781,42.9227285 13.2535723,41.9380927 C13.2035399,41.837245 13.1741369,41.7263841 13.1373832,41.6262517 C13.3510289,41.3794967 13.7534227,41.3861722 13.8451884,40.9699073 C13.5435709,40.4668609 13.2282004,39.9282914 12.9004996,39.397351 C12.3826281,38.5581457 12.3866591,37.5389404 11.9607904,36.6687417 C11.9451404,35.7599205 11.8332195,34.8391788 12.0146168,33.9465695 C12.2666761,32.706596 12.276398,32.6365033 11.2729033,31.8812185 C9.52745801,30.5675762 7.96506987,29.0660662 6.56510939,27.3812185 C5.44684827,26.0356291 4.55527452,24.5429404 3.62339026,23.0738543 C3.06615667,22.1643179 2.8314072,21.0931391 2.20588285,20.2179338 Z" id="Fill-1" fill="#2E2D2C"></path>
                <path d="M70.4375473,31.0381122 C70.8487778,32.4288812 72.043835,48.1088025 71.8248281,49.1038396 C71.5870966,49.2210847 71.2811031,48.9994368 70.9850646,49.3164503 C71.2829993,51.6894142 71.3322996,54.1598841 71.6318934,56.5751799 C72.9362171,56.7835099 74.0914549,57.0291775 75.2594917,57.1373854 C76.4481494,57.2472581 77.6038612,57.6841326 78.8889862,57.6054144 C78.6623947,55.030066 78.4448099,52.5600717 78.2258029,50.0715275 C77.1755652,49.8451233 76.9461294,49.0957538 76.9302491,48.1723003 C77.1909716,47.7756172 77.2300799,47.2260161 77.6903737,46.8740431 C78.4019092,47.8298401 78.9231172,48.8450919 79.4993139,49.8054074 C79.1921354,50.613994 79.6382079,56.4807655 80.1091676,57.8715345 C82.9396661,58.3195866 85.7592616,58.9452899 88.6864644,59.3833536 C88.414602,56.6191765 88.1571977,54.0012585 87.9035858,51.4216294 C87.2408766,51.1980789 86.8042849,50.7340929 86.2510791,50.66679 C84.3210214,47.3254247 82.4305461,44.053265 80.5471814,40.7929962 C81.874022,37.6680468 83.1634134,34.6318041 84.4686851,31.5579859 C84.9334823,31.5579859 85.3553787,31.5579859 85.8936522,31.5579859 C85.625108,28.8389945 85.3641485,26.1934894 85.1081664,23.6022071 C83.7007388,22.9103899 82.3051623,23.2219336 80.9491682,23.1945843 C79.5967294,23.1669972 78.2163221,22.9969562 76.8854522,23.6007802 C76.8285673,25.2498212 77.1298203,26.888636 77.2518858,28.5374392 C77.2957346,29.1248536 77.3765586,29.7170244 77.3843803,30.306817 C77.3910168,30.7936337 77.5109492,31.2069642 77.8961075,31.4816458 C77.2220213,32.9544625 76.5891766,34.3373834 75.9563319,35.7200665 C75.8572574,34.1830385 75.3919862,32.7309121 75.4986454,31.282353 C75.876456,31.1769989 76.1793682,31.3427591 76.4768289,30.9993476 C76.2590071,28.5735878 76.0338376,26.0662559 75.7998984,23.4623692 C73.4493664,23.0166953 71.1900873,23.0321535 68.8400293,23.5308612 C69.2282688,26.0277291 69.1436525,28.5134195 69.5646009,30.9515459 C69.8995108,30.9848407 70.1296577,31.0076713 70.4375473,31.0381122 Z M61.9488961,23.1134878 C62.3473275,22.1507941 62.7675648,21.1985645 63.3129489,20.3076923 C71.6745571,20.3076923 80.0361653,20.3076923 88.5222093,20.3076923 C88.8962276,22.9370257 89.0619049,25.5623162 89.341115,28.1730996 C89.6167698,30.7517775 89.8587677,33.3342604 90.1216234,35.9800033 C89.06309,35.9800033 88.0512496,35.9800033 86.9687771,35.9800033 C86.2418353,37.6946826 85.5246113,39.3860555 84.8047802,41.0836118 C86.1678849,43.4266104 87.4949625,45.7077759 88.8466903,48.0310355 C89.5859571,48.4022718 90.4897162,48.3095222 91.390631,48.6039429 C91.92369,53.9063684 92.4541419,59.1859634 93,64.6153846 C86.1100519,63.3057121 79.3362439,62.0317126 72.5121875,61.0690189 C65.6625329,60.1029957 58.7806435,59.4142702 51.8150858,58.8116353 C51.4375122,57.7397824 51.6349503,56.6217925 51.515255,55.5411403 C51.4666658,54.2797452 51.8871401,53.0564012 51.7961242,51.7840664 C51.7558307,51.2211474 51.654623,50.7222019 51.399589,50.2123167 C50.9494871,49.3119318 50.3123761,48.3792033 50.6188435,47.3415965 C50.9006609,46.3881777 51.1739455,45.4116905 51.6913612,44.5231965 C52.2135173,43.626141 52.6074453,42.6539345 53.03266,41.7666296 C52.8224229,41.431304 52.4588334,41.4698308 52.3341607,41.1865876 C52.349567,41.1247545 52.3483819,41.0453228 52.3853571,40.9930025 C53.519026,39.392001 54.2296134,37.658534 54.1807872,35.6477694 C54.1632477,34.919328 54.051848,34.249628 53.6704821,33.626065 C53.5095452,33.3630366 53.3867686,33.0767018 53.229861,32.7677741 C53.7816447,32.2586024 54.3599747,31.8079343 55.0269503,31.4768894 C55.2111152,34.6712821 55.3900656,37.8663883 55.5818152,41.0605433 C55.6974812,42.9914005 55.8212059,44.9217821 55.9683956,46.850499 C55.9982602,47.2402853 55.8965784,47.5389867 55.6645353,47.804869 C55.4125826,47.9244923 55.128158,47.5401758 54.8525032,47.9649216 C55.0435417,49.7338237 55.0987675,51.5881031 55.1587336,53.4426202 C55.1724808,53.8654635 55.2938353,54.2852151 55.3753704,54.7653728 C57.2720082,54.9494452 59.1468401,55.1135407 61.0166946,55.3185412 C62.9266056,55.5278224 64.8320131,55.7770573 66.7734478,56.0127366 C67.5842948,54.4752329 68.361722,52.9750669 69.1678286,51.4910727 C69.3773547,51.1060428 69.3249732,50.7202994 69.2943975,50.3355073 C69.1694878,48.7625685 68.9846118,47.1939105 68.8871964,45.6195448 C68.7016093,42.6244449 68.4370945,39.6367174 68.1818234,36.6475629 C67.9597353,34.0512865 67.7999835,31.4495401 67.609419,28.8002299 C66.6665516,27.2555917 65.6933455,25.6788478 64.7409973,24.0894994 C64.4885705,23.6678453 64.193954,23.3249095 63.5904999,23.1134878 C63.1304432,23.1134878 62.5397881,23.1134878 61.9488961,23.1134878 Z" id="Fill-5" fill="#CF2431"></path>
                <path d="M63.9826905,47.594542 C64.5209315,47.2703838 64.5876975,46.8740606 64.5482668,46.4198187 C64.3293419,43.9082931 64.1009826,41.397001 63.9110864,38.8831399 C63.726512,36.4449469 63.5845132,34.0034842 63.4270324,31.609898 C63.1689187,31.2345938 62.9495099,30.9155735 62.7552593,30.6332195 C61.9064111,30.6332195 61.1199746,30.6332195 60.2479033,30.6332195 C60.7263935,36.2553096 60.9757986,41.8185468 61.4721898,47.3820175 C62.3769183,47.487112 63.1858521,47.4070066 63.9826905,47.594542 Z M62.3965127,23.0769231 C62.9995844,23.0769231 63.6024143,23.0769231 64.0719539,23.0769231 C64.6878466,23.2845432 64.9885358,23.6213127 65.2461657,24.0353852 C66.2181442,25.5961557 67.2114103,27.1445483 68.1737125,28.6614127 C68.368205,31.2630861 68.5312496,33.8180508 68.7579156,36.367644 C69.0184484,39.3030509 69.2884155,42.2370566 69.4778279,45.178302 C69.5772513,46.7243593 69.765938,48.2648115 69.8934225,49.8094675 C69.9246284,50.1873407 69.9780896,50.5661481 69.7642447,50.9442549 C68.9415222,52.4015656 68.1480705,53.8747574 67.3205099,55.3846154 C65.3390576,55.1531739 63.3943751,54.9084204 61.4450963,54.7029022 C59.5366996,54.5015878 57.6232229,54.3404429 55.6874909,54.1596803 C55.6042752,53.6881562 55.4804193,53.2759521 55.4663887,52.8607119 C55.4051865,51.0395406 55.3488224,49.2186027 55.1538462,47.481507 C55.4351829,47.0643985 55.7254701,47.4418046 55.9826162,47.3243323 C56.2194422,47.0632308 56.3232199,46.7699003 56.2927397,46.3871226 C56.1425161,44.4930857 56.0162412,42.597414 55.898191,40.7012752 C55.702489,37.5645539 55.51985,34.4268984 55.331889,31.2899436 C56.0455118,30.6199076 56.7593765,29.9503387 57.4727574,29.2800691 C59.1682767,27.6866026 60.609069,25.9016304 61.7992467,23.9265539 C61.9770476,23.6313551 62.1964564,23.3595106 62.3965127,23.0769231 Z" id="Fill-6" fill="#FFFCFC"></path>
                <path d="M39.5447388,43.4544785 C39.3260741,41.767463 38.9353963,41.2716744 37.5978094,40.9312217 C37.4446963,40.8923877 37.2846452,40.8721369 37.126508,40.8626071 C36.237734,40.8087636 35.6829381,40.3630065 35.5465717,39.436232 C34.7068418,40.3429939 35.5262364,41.1244387 35.595855,41.9609182 C35.3506347,43.104496 34.4250179,43.4261273 33.4702139,43.6746172 C32.4343077,43.3963466 31.5754387,42.965599 31.384765,41.8055822 C31.9338191,40.0995071 31.9338191,40.0995071 31.3706498,39.491505 C31.294811,40.3649125 30.7436036,40.7539672 29.9598557,40.8502183 C28.4421216,41.0370027 27.4315749,41.7095694 27.4808581,43.4470929 C25.9669519,43.4837826 24.5721868,43.4606728 23.4953707,42.3151891 C21.8821802,44.3955477 22.8353095,47.1725357 24.9310458,48.2646525 C25.5458907,48.5850925 26.2418378,48.7871246 26.7389771,49.3110262 C26.5612223,49.638137 26.4504545,49.9600065 26.6365827,50.4286352 C30.9048509,48.0878744 35.2422593,47.5875591 39.6497648,50.1301137 C39.5770361,49.4692211 39.5770361,49.4692211 38.7495074,48.7811685 C39.6294295,48.5958136 40.4825568,48.4531046 41.3153488,48.2339188 C44.1309561,47.493214 45.2044228,44.5382566 43.4522342,42.3240042 C42.4058015,43.4668672 41.0478793,43.5755071 39.5447388,43.4544785 Z M28.2193899,38.4994512 C28.8844751,38.9811834 29.6160689,38.5213698 30.4797227,38.8086937 C29.5395123,36.7624042 28.3184349,35.3891579 26.2064304,35.010586 C24.6764951,34.7366039 23.3915409,35.2221479 22.1013234,36.2387409 C22.7235848,36.4317197 23.1202435,36.6802096 23.51762,36.942756 C24.0047112,37.264149 24.4779265,37.6341441 25.0750678,37.7549345 C25.4521089,37.9431483 25.7772351,38.1823467 26.2238949,38.2955132 C26.8947219,38.4656204 27.5535869,38.4501344 28.2193899,38.4994512 Z M41.0749133,37.5266954 C41.5060225,37.6286644 41.869427,37.4364004 42.182352,37.201014 C42.719205,36.7969498 43.3287867,36.530115 43.980953,36.1863269 C42.5268566,34.9515012 40.9067281,34.5993745 39.1798989,35.1968939 C37.4190977,35.8063256 36.2638111,37.0880857 35.5477679,39.1222246 C36.2159633,38.6876651 36.708557,38.6388248 37.221486,38.6907623 C37.4576152,38.7148251 37.7054671,38.704104 37.8506854,38.4556141 C39.0313313,38.5106488 40.1425978,38.3264851 41.0749133,37.5266954 Z M23.9183458,39.9070049 C21.6089689,38.3002781 21.8517968,36.8815269 22.0317047,34.9457833 C22.0998879,34.2138935 22.7355467,33.71334 23.3161805,33.2973636 C24.0362908,32.7815623 25.9145585,32.3115042 27.0117099,32.3076923 C27.8887611,32.9135503 28.4466672,33.89393 29.1849596,34.7065849 C29.9801911,35.5821367 30.6543674,36.5598957 31.6220903,37.2886883 C32.4838303,37.9374304 33.3001147,37.8783456 34.159223,37.3820805 C34.9238318,36.9403735 35.5496818,36.3469043 36.086774,35.642651 C36.9111926,34.56197 37.8853751,33.6378162 39.1296586,33.0412498 C40.0392464,32.6047843 40.9808923,32.608358 41.8854561,33.0176635 C42.7464783,33.4074329 43.5704184,33.8791588 44.4099091,34.3161008 C44.6690052,34.4509477 44.8943687,34.6536945 44.9115939,34.9412566 C44.9778632,36.0388531 45.1711685,37.1464558 44.6316839,38.2016445 C44.2213885,39.0042932 43.5632412,39.5491603 42.7761439,40.066391 C42.9684923,40.1442973 43.1094043,40.2014762 43.2505555,40.2584168 C43.2507947,40.5790951 43.5118048,40.7289514 43.6981722,40.9231214 C44.8505879,42.1224486 45.1362396,43.6236327 44.9005889,45.1553122 C44.7060873,46.4208716 44.4099091,47.6637977 44.4773746,48.9548493 C44.2127759,49.4422994 43.8778409,49.8782884 43.4912302,50.2747287 C42.2529276,51.5443383 41.3581726,52.9964438 41.0464438,54.7677981 C41.0134288,54.9552972 40.8981155,55.1280251 40.7985919,55.3593614 C40.3024096,54.721102 40.198819,53.9403719 39.8387639,53.2575607 C39.1461661,53.846265 38.7987907,54.607459 38.3581119,55.3403017 C37.7717364,54.7580301 37.4832138,54.0378143 37.2750756,53.2747144 C37.4676632,52.8897099 37.6310637,52.485884 37.8607334,52.124704 C38.1100208,51.7335051 38.2250949,51.3449269 38.1049967,50.9058407 C37.4918264,50.9058407 36.897556,50.9058407 36.3035248,50.9058407 C34.4898518,50.9051259 32.6759394,50.9048877 30.8620271,50.9041729 C30.159142,50.9041729 29.4567355,50.9041729 28.7969135,50.9041729 C28.623465,51.2153214 28.7481087,51.4078237 28.8215552,51.6348715 C29.0158175,52.2342969 29.5986044,52.6288312 29.6655914,53.2849589 C29.5256364,54.0201841 29.2789807,54.6991835 28.6557623,55.287173 C28.0799133,54.6079355 27.858617,53.7476314 27.1150613,53.2720937 C26.718881,53.9327481 26.6980672,54.7697041 26.1076246,55.3846154 C25.8425475,54.1709935 25.4939758,53.0159799 24.8415703,51.9672238 C24.4827113,51.39067 24.0671527,50.8715333 23.5869994,50.3967103 C23.1085208,49.923555 22.6685597,49.4222867 22.405875,48.791413 C22.6015727,47.6147191 22.248934,46.4871038 22.0666337,45.3497204 C21.8001211,43.6874824 22.0513224,42.189872 23.2338822,40.9202625 C23.4169003,40.7234718 23.6783888,40.5774274 23.6779103,40.2579403 C23.7867642,40.2329246 23.8956181,40.2076705 24.004472,40.1824165 L24.1039955,40.1812253 C24.1585421,40.2684231 24.1867723,40.4268563 24.3329475,40.2643729 C24.2762478,40.2169621 24.2197873,40.1695513 24.1633269,40.1219022 C24.1291156,39.9968234 24.0556692,39.91582 23.9183458,39.9070049 Z" id="Fill-8" fill="#EBB07D"></path>
                <path d="M57.3237562,3.69230769 C58.6143356,4.56018677 59.7484811,5.51333624 60.2126497,7.0643419 C60.3448852,7.50586906 60.7758116,7.78384087 60.9618213,8.26463095 C61.8486058,10.5587415 61.7645225,12.856947 61.1192329,15.1546707 C60.4519446,17.529475 59.5297181,19.8043154 58.0003327,21.7941986 C57.9023171,21.9216224 57.817745,22.059163 57.6236692,22.1439517 C57.8065013,20.561632 58.4239262,19.0607287 58.1491893,17.3931387 C56.2040319,21.2758317 52.2609208,26.0360389 45.4839124,27.6923077 C43.3349022,26.6206468 42.762452,25.0019548 43.3986979,21.7310889 C44.1569133,21.2594521 45.0515195,21.0012322 45.8784191,20.6134205 C47.9702332,19.6318476 49.8811706,18.4089161 51.6980033,17.0041227 C53.575943,15.5518765 55.1309934,13.8496002 56.1835,11.7332567 C57.1032822,9.88380474 57.5095214,7.91704574 57.4745682,5.85321339 C57.4628357,5.14334948 57.0355757,4.46985798 57.3237562,3.69230769" id="Fill-9" fill="#88938E"></path>
                <path d="M39.3131266,60.7739997 C39.3364145,60.7453458 39.3770496,60.7171903 39.3777625,60.6875397 C39.378713,60.6581383 39.3395038,60.6277403 39.3176416,60.5978406 C39.2943537,60.6414443 39.2686895,60.6840514 39.2508671,60.7298976 C39.248966,60.7348809 39.2912645,60.7590499 39.3131266,60.7739997 Z M28.5781073,62.3168248 C28.5039662,62.1825252 28.429825,62.0479765 28.2399572,61.7041299 C28.2399572,62.4438985 28.283919,62.9883224 28.2278379,63.5210356 C28.1660536,64.1083158 28.527967,64.6238366 28.4647569,65.1757354 C28.1971834,65.3922592 27.9978103,65.2661821 27.7829911,65.1682605 C26.0993693,64.4010838 24.8484752,63.0673075 23.755131,61.5994809 C21.7442902,58.8997862 20.5375956,55.7792531 19.6942402,52.4932749 C19.6650114,52.3799051 19.6234259,52.2697745 19.5785134,52.1299934 C19.1457858,53.5664253 17.9661813,54.6306059 17.9412299,56.2255063 C17.6090206,55.0018606 17.2516223,53.8073672 17.31507,52.532892 C17.3937261,50.9454665 18.4160184,49.9032125 20.0007853,49.8461538 C20.2322387,50.8171469 20.4261463,51.8103157 20.7110669,52.7733355 C20.9864822,53.7037148 21.3559998,54.603447 21.7214776,55.6205354 C21.9522181,54.8112499 21.6901102,54.0580264 21.9087315,53.3708314 C22.351202,53.3048029 22.5070885,53.6389321 22.6755695,53.8983121 C23.2050133,54.7148234 23.6515235,55.5739417 23.9827824,56.5085568 C24.5635546,58.1483068 25.5506774,59.5167169 26.7300443,60.8731671 C26.9738546,60.0073213 26.4299153,59.2972032 26.6309518,58.5878325 C26.8317507,57.8782127 26.745728,57.098827 27.1765546,56.4340567 C27.7371281,56.6555638 27.936026,57.2729928 28.2739385,57.7822845 C28.4697472,57.713266 28.6377529,57.6542141 28.8411658,57.5824548 C29.7798116,59.5767655 30.9693967,61.3323768 33.0004362,62.3043666 C35.0393176,61.3742364 36.2115556,59.5989411 37.1578056,57.631291 C37.2599873,57.631291 37.3400693,57.613102 37.4075567,57.6360251 C37.4793216,57.6606924 37.5392048,57.7242292 37.6173857,57.7797929 C38.1943558,57.5179212 38.2131287,56.7171073 38.8395263,56.4051537 C39.5578874,57.6021388 39.3597025,58.9712963 39.4169717,60.284392 C39.8641949,60.3835593 40.0329135,60.0491809 40.1878495,59.8089866 C40.9340136,58.6533627 41.7778443,57.5595317 42.2269685,56.213048 C42.5273352,55.3128176 43.0306395,54.5172361 43.525389,53.7229005 C43.6318481,53.5517246 43.7606445,53.3902662 44.0857249,53.34143 C44.2660875,54.0440732 44.1063989,54.7808519 44.2078677,55.66987 C45.2201794,53.760026 45.6072817,51.813804 46.0245633,49.9144249 C47.3923723,49.8374331 48.5662737,50.8776939 48.6722575,52.1845604 C48.7599436,53.2684249 48.5453621,54.3149147 48.3131957,55.3594113 C48.2514115,55.6369803 48.1836864,55.9130543 48.0582168,56.2167855 C47.9878777,54.6844253 46.9482383,53.599315 46.408814,52.2099751 C45.9506598,54.0510498 45.3641843,55.823106 44.6154063,57.5246487 C43.3773444,60.3379623 41.7215255,62.8218807 39.2252028,64.5809804 C38.7497015,64.9161063 38.2632691,65.2856169 37.5572648,65.3075433 C37.6328317,64.063217 37.9588626,62.876946 37.9538724,61.6689977 C37.7697077,61.6214073 37.6575454,61.592006 37.5456208,61.5631029 C37.2343231,61.6261415 37.2592744,61.8576151 37.3015729,62.0978094 L37.3158308,62.0863478 C37.0256823,62.0838562 36.9408478,62.3342663 36.8068234,62.5318535 C36.1155523,63.5521811 35.2888311,64.4334751 34.2620238,65.0768172 C33.4502733,65.5853615 32.6382853,65.7567865 31.7331455,65.1607856 C30.753627,64.5156993 29.8591807,63.8023421 29.1938114,62.8069309 C29.0310336,62.5632482 28.9096037,62.3078549 28.5781073,62.3168248 Z" id="Fill-10" fill="#97A49E"></path>
                <path d="M22.8461538,24.3818461 C22.7389224,25.8545927 22.1352215,27.0238743 20.6633153,27.6923077 C14.7904813,26.4019262 10.9422269,22.6356712 7.89660638,17.8448348 C7.5522331,19.2458273 8.14804572,20.5805485 8.26267247,21.9786804 C7.50416382,21.1288355 6.81911489,20.2539602 6.34483128,19.2699042 C5.07949981,16.6459933 4.18713668,13.8981219 4.42230641,10.9740835 C4.62616948,8.43503792 5.58977375,6.17490355 7.84212786,4.61538462 C7.84237437,4.85067125 7.83867673,5.07451538 7.73366384,5.30574946 C7.12601878,6.64118589 6.835631,8.0316894 6.82601714,9.50300565 C6.82059394,10.3228139 7.15239526,11.0274819 7.35872342,11.7712451 C7.81649091,13.4213506 8.30778365,15.0709793 9.54230148,16.5537381 C9.51124132,15.836674 9.84033104,15.3022134 9.89653513,14.5861029 C10.2096017,15.4278426 10.4896361,16.1511047 10.7474847,16.8817567 C11.3437904,18.571911 12.4824161,19.9097313 13.8887508,20.9786526 C15.3446339,22.0857155 16.9481759,23.0330601 18.7398044,23.5648985 C20.0746515,23.9610955 21.3954475,24.4993703 22.8461538,24.3818461" id="Fill-11" fill="#97A49E"></path>
                <path d="M21.8749911,23.9835188 C20.4583316,24.1014617 19.1685335,23.5612686 17.8650142,23.1636598 C16.1154336,22.6299261 14.5495254,21.6792054 13.1278107,20.5681972 C11.7544815,19.4954666 10.6425783,18.1528787 10.0602674,16.4567012 C9.80847032,15.7234454 9.5350081,14.9976058 9.22928888,14.1528664 C9.17440386,14.8715289 8.8530376,15.4078942 8.8833688,16.1275136 C7.67782405,14.6394707 7.19806154,12.9839632 6.75103746,11.3279772 C6.54955164,10.5815634 6.22553742,9.87438422 6.23083334,9.05165441 C6.24022157,7.57509482 6.5237942,6.17963596 7.11717834,4.83944043 C7.21972668,4.60738229 7.22333753,4.38274045 7.22309681,4.14661532 C7.35019897,3.88058579 7.54398162,3.70618333 7.86029268,3.69230769 C8.07212962,4.11623245 7.95321207,4.56097067 7.91638133,4.9860916 C7.52231648,9.52414391 9.4146462,13.0806142 12.7178581,16.0167477 C15.3357293,18.3437884 18.3570536,20.0165208 21.6479885,21.2854243 C22.0232769,22.1612643 21.9207286,23.0751427 21.8749911,23.9835188" id="Fill-12" fill="#E1DFD5"></path>
                <path d="M35.5323238,18.4312603 C35.5828084,19.540064 35.3943018,20.6394125 35.277122,21.7293057 C35.0436887,23.9044798 35.0719415,26.0752722 35.0742573,28.2509076 C35.07611,29.7831231 35.3537751,31.2729052 35.7692308,32.7417012 C35.2981958,32.7043413 35.0793521,33.053264 34.8952455,33.3740514 C34.3695575,34.2905211 33.5499937,34.769742 32.5627656,35.0769231 C31.5718321,34.3659326 30.9553645,33.441622 31.2121874,32.2518719 C31.4567365,31.1195453 31.663538,29.9803001 31.9094766,28.8525858 C32.2936689,27.0909069 32.0215617,25.4154786 31.6714118,23.7165274 C31.6616854,23.6692511 31.7520018,23.6014498 31.795539,23.5433345 C32.2795425,23.5122013 31.9539401,24.094969 32.3001531,24.1828339 C32.4309962,24.1819114 32.5903236,24.2411798 32.8008304,23.9787383 C32.8008304,21.9306339 32.8008304,19.764915 32.8008304,17.6561585 C33.1192538,17.4578283 33.3077604,17.5484606 33.5279936,17.6497012 C34.1796614,17.9495025 34.8521715,18.2017969 35.5323238,18.4312603" id="Fill-13" fill="#E1DFD5"></path>
                <path d="M35.5248434,18.5316563 C34.8232152,18.2976029 34.1294705,18.0402618 33.4572261,17.7344634 C33.230039,17.6311976 33.0355803,17.5387524 32.7071026,17.7410498 C32.7071026,19.8919886 32.7071026,22.1010291 32.7071026,24.1901026 C32.4899491,24.4577938 32.3255908,24.3973398 32.1906164,24.3982807 C31.8334716,24.3086582 32.1693549,23.7142332 31.6700689,23.7459892 C31.6251571,23.805267 31.5319889,23.8744245 31.5420224,23.9226466 C31.9032283,25.6555825 32.1839274,27.364525 31.7876042,29.1614434 C31.5339,30.3117158 31.3205687,31.4737497 31.0682979,32.6287267 C30.8033658,33.8422758 31.4392984,34.7850757 32.4615208,35.5102884 C33.4799209,35.1969626 34.3253626,34.7081557 34.8676493,33.7733535 C35.0575691,33.4461493 35.2833228,33.090247 35.7692308,33.1283542 C35.2785449,34.8502343 34.3595243,36.2185645 32.6368681,36.9230769 C30.8160271,36.3898116 30.1017376,34.9313885 29.3680977,33.4995464 C29.2386178,33.2466746 29.3465974,32.9639287 29.4201763,32.6974137 C30.2751737,29.5928544 30.1354214,26.443131 29.9249569,23.2776472 C29.808855,21.5313032 29.4622215,19.7927218 29.5909847,18.0858963 C30.2696792,17.245186 31.203989,16.9974893 32.0878924,16.6756953 C32.2985959,16.5990104 32.5714115,16.5992457 32.7921485,16.6549951 C33.5979339,16.8584686 34.3793524,17.1405088 35.0396521,17.6566024 C35.3127066,17.8697204 35.6003335,18.1134182 35.5248434,18.5316563" id="Fill-14" fill="#FFFCFC"></path>
                <path d="M28.3846154,62.0622178 C28.6997971,62.0538101 28.8152507,62.2931943 28.9700174,62.5216018 C29.6026401,63.4546162 30.4530658,64.1232571 31.3843769,64.7279064 C32.2449698,65.2865474 33.0169955,65.125868 33.7887952,64.6492016 C34.7650677,64.0461871 35.5511014,63.2201365 36.2083513,62.2637676 C36.3357796,62.078566 36.416439,61.8438527 36.6923077,61.8461709 C36.2074475,64.561622 35.1478044,66.8921729 32.7160478,68.3076923 C31.6118951,68.0463549 30.9069727,67.3342745 30.3120813,66.4636168 C29.3963599,65.1235326 28.7865568,63.6419197 28.3846154,62.0622178" id="Fill-15" fill="#FFF8F7"></path>
                <path d="M36.9789212,31.7741167 C36.7813684,31.2244836 36.7061873,30.636539 36.6923077,30.054604 C39.3273481,28.6438375 44.9393294,30.1252175 46.8461538,34.4972417 C46.6444371,35.0025536 46.206536,35.0150737 45.8114303,35.0769231 C43.4905314,32.0560697 40.674131,30.6385422 36.9789212,31.7741167" id="Fill-16" fill="#E1DFD5"></path>
                <path d="M19.1840692,34.7703049 C19.1847614,34.5663975 19.1757637,34.3809125 19.2931953,34.1807905 C20.7577455,31.6872152 22.7769237,30.1735561 25.4870799,29.6844812 C26.7677539,29.4535713 27.9835982,29.4851164 29.2693478,29.8611337 C29.356787,30.5806138 29.3117985,31.2650158 28.9539665,31.9128256 C27.5535538,30.9316475 26.0862351,31.2153008 24.6253762,31.6337147 C23.13614,32.0599518 21.9133744,32.9702166 20.9021703,34.2294961 C20.6763047,34.5103735 20.456899,34.7970551 20.2379548,35.0769231 C20.017857,35.0352836 19.8307507,35.0002054 19.6438752,34.9651273 L19.6348775,35.0143376 C19.5735085,34.7082242 19.3497194,34.7624817 19.1538462,34.7546586 L19.1840692,34.7703049" id="Fill-17" fill="#FFF8F7"></path>
                <path d="M17.3076923,33.9651488 C17.5086686,33.4775178 17.6981284,32.9835318 17.9140086,32.503478 C18.1152107,32.0551997 18.4318049,31.7682429 18.8628879,31.5294381 C21.1772772,30.2464431 22.8885117,28.3379605 23.7947117,25.6622229 C23.887748,25.3877318 24.0180439,25.1596818 24.1623404,24.9230769 C24.3861241,25.6751775 24.1467591,26.4309444 24.1047573,27.3499883 C24.9163404,26.6655939 24.989279,25.748261 25.3255192,24.9692735 C25.8749298,25.8978501 25.6385003,27.4064508 24.6573293,29.3127336 C23.7621942,29.5737812 22.8108309,29.78741 21.9371484,30.2461987 C21.0587237,30.707676 20.2374305,31.2639909 19.4874952,31.9513184 C18.7678193,32.6112701 18.1657935,33.410545 17.5163464,34.1538462 C17.446795,34.0910285 17.3772437,34.0282109 17.3076923,33.9651488" id="Fill-18" fill="#FFF8F7"></path>
                <path d="M39.6720488,24.9230769 C40.1719968,25.7007872 40.1155851,26.6894631 40.8345982,27.3363122 C41.1020832,26.7953068 40.770665,26.2110017 41.0372099,25.7250831 C41.3169175,25.645941 41.3484139,25.8552227 41.4170481,26.0387652 C42.3671137,28.5852673 44.0951894,30.4093864 46.4303951,31.6593037 C47.3546054,32.1541228 47.7574783,32.929187 47.7692308,34.1538462 C45.817389,31.611193 43.4962861,29.9686919 40.503415,29.4548691 C39.4405262,27.8282446 39.245436,26.8123861 39.6720488,24.9230769" id="Fill-19" fill="#FFF8F7"></path>
                <path d="M39.1235955,20.3076923 C39.2508819,20.5285266 39.3424717,20.6876342 39.4615385,20.8948753 C37.9883515,23.3109049 38.0177072,25.8523934 38.8779469,28.4518202 C38.521686,28.6646322 38.1116455,28.5064159 37.7485741,28.6153846 C36.5865576,27.1542237 36.3113185,23.5243855 37.2856932,21.0695817 C37.2856932,21.757934 37.2856932,22.4465092 37.2856932,23.1350843 C37.9296401,22.2089619 38.1562662,21.1219491 39.1235955,20.3076923" id="Fill-20" fill="#E1DFD5"></path>
                <path d="M28.4358575,23.4195866 C28.4902366,22.6592536 28.5260829,22.1557145 28.5602222,21.6800877 C28.9308777,21.6021564 28.9701379,21.7783392 29.0313448,21.9623376 C29.430531,23.1650258 29.3154327,24.3996457 29.189605,25.6090329 C29.0842608,26.6237033 28.8235827,27.6388204 28.3612387,28.5869478 C27.8886529,28.665549 27.4702024,28.5601519 26.9978605,28.5235308 C27.3265734,27.2962798 27.5855445,26.1451737 27.5545753,24.9487378 C27.5233622,23.7505156 27.3565672,22.587798 26.7449857,21.515963 C26.5211292,21.1236267 26.4318793,20.7652319 26.7218197,20.3076923 C27.6599195,21.0957143 28.1008044,22.0927442 28.4358575,23.4195866" id="Fill-21" fill="#FFF8F7"></path>
                <path d="M29.3195218,53.5384387 C29.2540453,53.0296581 28.6843996,52.7237246 28.4945177,52.2589127 C28.4227273,52.0828532 28.3008942,51.9335813 28.4704317,51.6923077 C29.1153754,51.6923077 29.8019435,51.6923077 30.4889792,51.6923077 C30.1014985,52.01339 29.5203944,51.6529576 29.0679049,51.9614774 C30.4485241,52.2910579 31.788922,52.610847 33.0413943,52.9097602 C34.3962906,52.5811035 35.6602213,52.2744311 37.024939,51.9433726 C36.5577173,51.7163242 36.1085016,51.9690518 35.8077773,51.6936009 C36.3884137,51.6936009 36.969284,51.6936009 37.568628,51.6936009 C37.686018,52.0340812 37.5735387,52.3353961 37.3298725,52.6387431 C37.1053816,52.9188126 36.9456657,53.231951 36.7574207,53.5304948 C34.9355365,53.195372 33.0816156,53.4037615 31.245233,53.3211816 C30.5738649,53.2910686 29.9738193,53.5412098 29.3195218,53.5384387" id="Fill-22" fill="#CB7D4E"></path>
                <path d="M44.65275,48.9230769 C44.570322,47.7004792 44.9321869,46.5234553 45.1698251,45.3249981 C45.4577386,43.874531 45.1087348,42.4529424 43.7007356,41.3172058 C43.4730355,41.133331 43.1541385,40.9914203 43.1538462,40.687745 C43.9573732,40.4061798 44.5957519,41.0606836 45.4784917,40.7242943 C45.3998636,42.3543495 45.729868,43.7215653 46.8461538,44.8530153 C46.6240074,46.4235086 45.9379841,47.7704192 44.65275,48.9230769" id="Fill-23" fill="#CB7D4E"></path>
                <path d="M23.76923,40.7023245 C23.7698143,41.0101035 23.4504592,41.150796 23.2269397,41.340375 C21.782683,42.5634581 21.4758916,44.0061866 21.8013826,45.6075096 C22.0240255,46.7032121 22.4547021,47.7895045 22.215697,48.9230769 C20.8596793,47.8634082 20.3816691,46.4987147 20.0769231,45.0449694 C21.6138016,42.766808 21.4078132,42.625886 21.4688792,40.9451509 C22.2256312,40.8772146 22.9169344,40.4303498 23.76923,40.7023245" id="Fill-24" fill="#CB7D4E"></path>
                <path d="M49.6046692,38.796196 C49.6703949,39.2336584 49.4223175,39.5632599 49.1732517,39.8699892 C48.4685536,40.7374503 47.7408762,41.5870952 47.0075157,42.4615385 C46.4898641,42.2775972 46.2390686,41.9179006 46.001616,41.5856507 C45.721417,40.5397857 46.2314089,39.7970386 46.8911368,39.0879981 C47.6687261,39.2688094 47.2788195,39.9333093 47.446346,40.3611412 C48.0119329,39.9251234 48.0119329,39.9251234 48.3136287,38.9832671 C48.3346313,38.5982906 47.8938243,38.2723005 48.1320182,37.8461538 C48.83301,37.8536174 49.2293409,38.3091369 49.6046692,38.796196" id="Fill-25" fill="#CB7D4E"></path>
                <path d="M17.8248206,37.8471055 C17.9734164,37.8356594 18.0796268,37.9290973 18.048084,38.0393541 C17.9532094,38.36919 17.8201384,38.689215 17.6949532,39.0316651 C17.8334455,39.5637942 17.8837168,40.1501173 18.4783467,40.5808662 C18.755085,40.1428758 18.2945117,39.4208341 19.0515375,39.2365278 C19.7666706,39.6936729 19.7937777,40.4626672 20.0769231,41.1907824 C19.8058526,41.5995734 19.9694806,42.3225495 19.2141798,42.4615385 C18.8290133,42.4367774 18.6370462,42.2134607 18.4854932,41.9941151 C18.0162949,41.3138869 17.477604,40.689955 16.9051525,40.0868131 C16.6062357,39.7716936 16.3538938,39.4161622 16.3876544,38.9545788 C16.6934711,38.3832057 17.342808,38.2126815 17.8248206,37.8471055" id="Fill-26" fill="#CB7D4E"></path>
                <path d="M50.2309828,38.7692308 C49.8589725,38.2731915 49.4661452,37.8092733 48.7713503,37.8016721 C48.815923,37.5515683 49.101482,37.6018342 49.2202608,37.4429447 C48.360645,36.8833986 48.1478228,36.8907546 46.8461538,37.5741266 C46.9683613,36.4957377 47.4047817,35.7003093 48.2266821,35.145422 C49.1764228,34.9671617 49.9686898,35.0949109 50.4474787,36.0335359 C50.6715665,36.956223 50.436213,37.8615009 50.2309828,38.7692308" id="Fill-27" fill="#EBB07D"></path>
                <path d="M18.1068664,37.6070963 C17.6275316,37.9907159 16.981802,38.1696567 16.6776841,38.7692308 C16.6169096,38.1728433 16.376262,37.6124891 16.384839,36.9967368 C16.4034635,35.6990486 17.0134145,35.0810902 18.3041387,35.112221 C18.5004307,35.1168783 18.6974579,35.0992294 18.8939949,35.0921208 L18.8618923,35.0769231 C18.8849278,35.4595621 19.0880814,35.4772111 19.3728396,35.329156 L19.3823969,35.2813568 C19.1689508,35.5340799 19.3853376,35.7088536 19.4855666,35.9152483 C19.6928863,36.3417646 19.8847672,36.7761249 20.0702767,37.2126913 C20.0947825,37.271276 20.0462609,37.3609915 20.0102373,37.5440994 C19.2503103,37.113416 18.4697984,36.7065096 17.6147886,37.4492363 C17.8150015,37.513704 17.9610565,37.5605227 18.1068664,37.6070963" id="Fill-28" fill="#EBB07D"></path>
                <path d="M37.6580236,61.8461538 C37.5854198,61.4315005 37.5425917,61.0319019 38.0769231,60.9230769 C37.9704647,61.2474012 38.2001048,61.7412001 37.6580236,61.8461538" id="Fill-29" fill="#FFF8F7"></path>
                <path d="M23.7692308,40.6153846 C24.0279447,40.6449295 24.1663161,40.9164227 24.2307692,41.3356401 L24.1189904,41.534469 L23.9314904,41.5384615 C23.8774038,41.2302369 23.8233173,40.9228108 23.7692308,40.6153846" id="Fill-30" fill="#CB7D4E"></path>
                <path d="M69.7115695,31.1217478 C69.3965241,31.0907345 69.1610283,31.0674745 68.8183347,31.0335536 C68.3876029,28.5495801 68.4741858,26.0171482 68.0769231,23.4733286 C70.4815995,22.9652431 72.7933872,22.9494941 75.1985487,23.4035486 C75.4379249,26.0563994 75.6683276,28.6108799 75.8912119,31.0822543 C75.5868378,31.4321233 75.2768856,31.2632461 74.8902941,31.3705813 C74.781156,32.8463795 75.2572407,34.325812 75.3586179,35.8917427 C76.0061707,34.4830593 76.6537235,33.0741336 77.3434764,31.5736216 C76.9493665,31.2937748 76.8266468,30.872672 76.819856,30.3767011 C76.8118525,29.7758179 76.7291501,29.1725118 76.6842822,28.5740515 C76.5593797,26.8942438 76.2511251,25.2246123 76.3093321,23.5445623 C77.6711332,22.9293839 79.0836229,23.1026224 80.4674942,23.1307283 C81.8550034,23.1585918 83.283015,22.8411898 84.723153,23.5460161 C84.9850845,26.1860254 85.252109,28.8812773 85.5268946,31.6513972 C84.9761109,31.6513972 84.544409,31.6513972 84.0688094,31.6513972 C82.7332014,34.7830163 81.4138429,37.8763532 80.0561648,41.060065 C81.9833013,44.3816406 83.9177137,47.7153309 85.8926285,51.119528 C86.4586915,51.1880965 86.9054302,51.6608074 87.5835416,51.8885615 C87.8430478,54.5166986 88.1064345,57.1838446 88.3846154,60 C85.3893805,59.5536989 82.5042539,58.9162296 79.6079709,58.4597522 C79.1260655,57.0428309 78.6696257,51.0657392 78.9839435,50.2419478 C78.3943551,49.2635743 77.8610336,48.2292314 77.1329611,47.2554614 C76.6619695,47.614053 76.6219522,48.1739889 76.3551701,48.5781313 C76.3714196,49.5189496 76.6061878,50.2824105 77.6808344,50.5130721 C77.9049313,53.0484115 78.1275731,55.5648521 78.3594309,58.1886279 C77.044438,58.2688265 75.8618659,57.8237368 74.6455822,57.7117981 C73.4503987,57.6015554 72.2683116,57.3512681 70.9336738,57.1390207 C70.627117,54.6783071 70.5766709,52.1613819 70.2718118,49.7437962 C70.5747307,49.4208215 70.8878358,49.6466373 71.1310925,49.5271875 C71.3551894,48.5134394 70.1323575,32.5386691 69.7115695,31.1217478" id="Fill-33" fill="#FFFDFC"></path>
                <path d="M63.7689168,48 C62.9155606,47.8060834 62.0492513,47.8889145 61.0803527,47.780244 C60.5487537,42.0274663 60.281659,36.2749301 59.7692308,30.4615385 C60.7031558,30.4615385 61.5453722,30.4615385 62.454427,30.4615385 C62.6624553,30.7535 62.8974261,31.0833755 63.1738472,31.4714501 C63.3424977,33.9464824 63.4945682,36.4710201 63.6922339,38.992177 C63.895599,41.5915767 64.1401552,44.1883199 64.3746079,46.7853047 C64.4168353,47.255003 64.3453337,47.6648117 63.7689168,48" id="Fill-34" fill="#CF2431"></path>
                <path d="M35.787971,46.140782 C35.8189833,46.3193994 35.936689,46.3638137 36.0971541,46.4231128 C36.9600948,46.7412151 37.9076143,46.6420632 38.9230321,47.0595575 C38.1954178,47.1157356 37.6238049,47.1599098 36.9563357,47.2115264 C37.1334817,47.3810209 37.2100726,47.5207458 37.2993505,47.5296287 C38.6056259,47.6604708 39.9149556,47.7435375 41.1725982,47.238415 C42.5317355,46.6922393 43.1000593,45.7785054 42.9962151,44.2652987 C42.5930552,44.689035 42.0691354,44.8172362 41.6514092,45.1365389 C40.0258481,45.2885078 38.4047508,45.3213984 36.7831837,45.0505913 C36.3283367,44.9744868 35.8528149,44.9984945 35.3885702,45.018661 C35.10758,45.031145 34.8632407,45.1607867 34.8566623,45.5773207 C35.1428213,45.7693825 35.3237263,46.1748729 35.787971,46.140782 Z M25.4573526,45.2280083 C24.936487,44.919269 24.3498378,44.7360901 23.8719665,44.2775426 C23.6609889,45.0911643 23.9720516,45.6474233 24.3787356,46.2173666 C24.7891786,46.7925916 25.3408216,47.2468177 25.9573084,47.3118787 C26.7258025,47.3930248 27.4651638,47.6782365 28.2585616,47.6165367 C28.7984575,47.5745231 29.3209677,47.5723624 29.778399,47.176235 C29.3042868,47.057877 28.8109094,47.2345738 28.2587966,47.0057802 C28.7505294,46.8855015 29.0766284,46.6156547 29.4739147,46.6579083 C30.0976847,46.7246498 30.6044538,46.4502415 31.1015903,46.128538 C31.5989617,46.1251769 31.8207466,45.7756245 32.0347784,45.4464786 C31.8343732,44.9653639 31.4793764,44.9915323 31.126729,44.9680047 C30.3084274,44.9135072 29.516909,45.1293366 28.7129388,45.186475 C27.6319723,45.2630596 26.5427829,45.2198457 25.4573526,45.2280083 Z M39.4044275,43.7414502 C40.8805657,43.8634094 42.2140944,43.7539342 43.2417291,42.6022837 C44.9624416,44.8335615 43.9082585,47.8112393 41.1432305,48.5576394 C40.3253986,48.7785104 39.4875968,48.9223167 38.6234815,49.1090968 C39.4361446,49.8024398 39.4361446,49.8024398 39.5075668,50.468414 C35.1792372,47.9063099 30.9197455,48.410472 26.7281519,50.7692308 C26.5453673,50.2969989 26.6541453,49.9726545 26.8287069,49.6430285 C26.3404982,49.1150987 25.657053,48.9115132 25.053253,48.5886093 C22.9951643,47.4880953 22.0591569,44.6897552 23.6433683,42.5934009 C24.7008406,43.7476922 26.0705503,43.7709797 27.5572609,43.7340078 C27.5088629,41.9831246 28.5012563,41.3053866 29.991726,41.117166 C30.7613948,41.0201748 31.3027003,40.6281287 31.3771768,39.7480056 C31.9302294,40.3606827 31.9302294,40.3606827 31.3910384,42.0798757 C31.5782869,43.2488117 32.4217273,43.6828713 33.4390246,43.9632815 C34.3766766,43.712881 35.2856658,43.3887767 35.5264809,42.236406 C35.4581129,41.3934949 34.6534378,40.6060416 35.478083,39.6923077 C35.6119997,40.6262081 36.1568293,41.0753926 37.0296375,41.12965 C37.1849339,41.1392531 37.3421098,41.1596597 37.4924725,41.1987923 C38.8060311,41.5418626 39.1896908,42.0414633 39.4044275,43.7414502 Z" id="Fill-36" fill="#1D1E1D"></path>
                <path d="M24.8717253,37.7647975 C24.2796234,37.6496613 23.8104017,37.2969855 23.3274211,36.9906368 C22.9333982,36.7403801 22.5400869,36.5035219 21.9230769,36.3195764 C23.202406,35.3505697 24.4765163,34.8877537 25.9935401,35.1489109 C28.087721,35.509762 29.2984934,36.8187272 30.2307692,38.7692308 C29.3744039,38.4953564 28.6489842,38.9336462 27.9895118,38.4744638 C28.1980284,38.2712154 28.5718876,38.2871119 28.7341463,37.9360258 C27.5874234,36.4115491 25.975037,36.2369144 24.1996802,36.4676411 C24.2046618,37.0380993 24.8859585,37.2311285 24.8717253,37.7647975" id="Fill-37" fill="#2E2D2C"></path>
                <path d="M37.114802,38.9614081 C36.9717447,39.2338628 36.727581,39.2456178 36.4949656,39.2192344 C35.9896694,39.162288 35.5044059,39.2158385 34.8461538,39.6923077 C35.5515417,37.461993 36.6896367,36.0566179 38.4242357,35.3884116 C40.1253682,34.7332665 41.7213879,35.1193528 43.1538462,36.4732672 C42.5113846,36.8502107 41.910874,37.1427796 41.3820098,37.5858123 C41.0737414,37.8438998 40.7157447,38.0547061 40.2910507,37.942903 C40.5168314,37.5463678 40.7426121,37.1500938 40.9745205,36.7428484 C38.8555286,36.315489 37.5154566,36.7948317 36.3686416,38.3731359 C36.5074566,38.740153 36.9123535,38.6928718 37.114802,38.9614081" id="Fill-38" fill="#2E2D2C"></path>
                <path d="M36.3445838,51.6942687 C36.6585607,52.1119645 37.1275729,51.7287265 37.6153846,52.0730244 C36.1905252,52.5750438 34.8708944,53.040084 33.4562892,53.5384615 C32.1486218,53.0851873 30.749154,52.6002568 29.3076923,52.1004786 C29.7801226,51.6326369 30.3868353,52.1791993 30.7913919,51.6923077 C32.6425373,51.6931481 34.4936826,51.6934283 36.3445838,51.6942687" id="Fill-39" fill="#2E2D2C"></path>
                <path d="M25.3763456,38.1424355 C25.3908328,37.6710855 24.6973782,37.5005972 24.6923077,36.9967541 C26.4993461,36.7929704 28.1405058,36.9472122 29.3076923,38.2936687 C29.1425381,38.6037568 28.7620073,38.5897166 28.5497696,38.7692308 C27.8778044,38.7277119 27.2128413,38.7407492 26.5358055,38.597539 C26.0850118,38.5022661 25.7568764,38.3008894 25.3763456,38.1424355" id="Fill-40" fill="#FFF8F7"></path>
                <path d="M37.440008,38.7615754 C37.2371418,38.5530157 36.8314092,38.5897368 36.6923077,38.3046916 C37.8414896,37.0788957 39.1843273,36.7066125 41.3076923,37.0385228 C41.0753053,37.3548114 40.8490587,37.662579 40.622812,37.9705496 C39.7024746,38.6516149 38.6054853,38.8084405 37.440008,38.7615754" id="Fill-41" fill="#FFF8F7"></path>
                <path d="M23.8836923,40.6153846 C23.9926154,40.7076923 24.1015385,40.7995385 24.2109231,40.8913846 C23.9289231,41.2061538 23.8744615,40.8992308 23.7692308,40.7303077 L23.8836923,40.6153846" id="Fill-42" fill="#CB7D4E"></path>
                <path d="M39.5825819,61.2493846 C39.5401204,61.2216923 39.4579665,61.1769231 39.4616588,61.1676923 C39.4962742,61.0827692 39.5461204,61.0038462 39.5913512,60.9230769 C39.6338127,60.9784615 39.7099665,61.0347692 39.7081204,61.0892308 C39.7067358,61.1441538 39.6278127,61.1963077 39.5825819,61.2493846" id="Fill-43" fill="#2E2D2C"></path>
                <path d="M20.0769231,35.7648836 C19.5624792,36.168701 19.1954621,36.1205638 19.1538462,35.0769231 C19.5297178,35.0976488 19.9591588,34.9539058 20.0769231,35.7648836" id="Fill-44" fill="#2E2D2C"></path>
                <path d="M41.7661703,45.263981 C42.1934075,44.9135087 42.7292561,44.7727928 43.1415953,44.3076923 C43.2478039,45.9686148 42.6665402,46.9715453 41.2764575,47.5710375 C39.9901804,48.1254688 38.6510393,48.0342933 37.315022,47.8906787 C37.2237115,47.8809288 37.1453766,47.7275642 36.9641973,47.541524 C37.6468637,47.4848687 38.2314914,47.4363823 38.9756723,47.3747203 C37.9371351,46.9164711 36.968042,47.025302 36.0854536,46.6761473 C35.9213349,46.6110595 35.8009492,46.5623096 35.7692308,46.366256 C35.8593398,46.0924659 36.0782448,46.1788982 36.2627882,46.1377902 C36.7971952,46.0184188 37.2551896,46.3638843 37.7658077,46.4034113 C39.0028252,46.4990665 40.1627092,46.0558376 41.3521491,45.8273718 C41.5688915,45.7857368 41.7762625,45.5828318 41.7661703,45.263981" id="Fill-47" fill="#506869"></path>
                <path d="M30.2307692,46.3492512 C29.7277061,46.7040747 29.2148954,47.0067338 28.583689,46.9331212 C28.1816664,46.8865175 27.8516798,47.1841455 27.3540847,47.3168072 C27.9127796,47.5691555 28.4120389,47.3742674 28.8918033,47.5048106 C28.4289187,47.9417201 27.9001793,47.9441033 27.353847,47.9904422 C26.5509905,48.0584941 25.8028148,47.7439193 25.025159,47.654419 C24.4013226,47.58266 23.8431031,47.0816704 23.427767,46.4472249 C23.0162347,45.8186048 22.7014636,45.2050779 22.9149563,44.3076923 C23.3985246,44.8134481 23.9921677,45.0154857 24.5192429,45.3560103 C24.5335074,45.4841704 24.5475342,45.6123305 24.5627498,45.7471105 C25.3522927,46.0269974 26.1706024,46.0561247 26.9634737,46.218708 C27.7137891,46.3725531 28.4022915,46.4596702 29.1397688,46.2126177 C29.4902013,46.0953141 29.905062,45.9475593 30.2307692,46.3492512" id="Fill-48" fill="#506869"></path>
                <path d="M42.2303932,45.3380273 C42.2411168,45.5636833 42.0207718,45.7072826 41.7904691,45.7367484 C40.5266129,45.8984374 39.2941616,46.2121178 37.9797512,46.1444211 C37.4371867,46.1164472 36.9505382,45.8719555 36.3826966,45.9564366 C36.1866074,45.9855294 35.9540068,45.9243599 35.8582601,46.1181256 C35.3537389,46.1446075 35.1571391,45.8296217 34.8461538,45.6804276 C34.8533029,45.3568631 35.1188404,45.2561571 35.4242085,45.2464595 C35.9287296,45.2307941 36.4455064,45.2121449 36.9398146,45.271263 C38.7020642,45.4816266 40.4638031,45.4560771 42.2303932,45.3380273" id="Fill-49" fill="#97A49E"></path>
                <path d="M30.2370998,46.1409654 C29.9209008,45.8574644 29.5181509,45.961745 29.1779485,46.044534 C28.4620001,46.2188955 27.7935969,46.1574111 27.0651851,46.0488323 C26.2954598,45.9340863 25.5010386,45.9135292 24.7345445,45.7159943 C24.7197732,45.620871 24.7061558,45.5304198 24.6923077,45.4399686 C25.7586139,45.4336145 26.8286129,45.4672534 27.8905338,45.4076379 C28.6803389,45.3631598 29.4579116,45.1951523 30.2617956,45.2375746 C30.6082297,45.2558891 30.9569719,45.2355189 31.1538462,45.6100318 C30.9435853,45.8662479 30.7257081,46.1383491 30.2370998,46.1409654" id="Fill-50" fill="#97A49E"></path>
            </g>
        </g>
    </g>
</svg>