<?xml version="1.0" encoding="UTF-8"?>
<svg width="65px" height="65px" viewBox="0 0 65 65" version="1.1" xmlns="http://www.w3.org/2000/svg" xmlns:xlink="http://www.w3.org/1999/xlink">
    <!-- Generator: Sketch 51 (57462) - http://www.bohemiancoding.com/sketch -->
    <title>BO_Header_logo-Cerberus</title>
    <desc>Created with Sketch.</desc>
    <defs></defs>
    <g id="Brands" stroke="none" stroke-width="1" fill="none" fill-rule="evenodd">
        <g id="BO_Header_logo-Cerberus" transform="translate(-27.000000, -16.000000)">
            <g transform="translate(27.000000, 16.000000)" id="Group-3">
                <g transform="translate(-0.454545, 0.000000)">
                    <g>
                        <ellipse id="Oval" fill="#FFFFFF" cx="34.1818182" cy="32.5" rx="32.7272727" ry="32.5"></ellipse>
                        <path d="M36.9905717,0 C37.5068717,0.350259692 38.1264998,0.219271007 38.6856971,0.297594138 C41.2370667,0.655112224 43.6982157,1.31697644 46.0984233,2.22360045 C48.7805276,3.23673715 51.2704451,4.61515674 53.5680055,6.30551846 C56.0071952,8.10019848 58.1740209,10.1850454 60.0426081,12.5774457 C61.5909973,14.5598312 62.8976635,16.6782693 63.9779272,18.9393434 C64.1920734,19.3878446 64.3677481,19.8545761 64.5745745,20.3446021 C62.5437606,20.6816954 60.5774628,21.0083231 58.5852905,21.339002 C58.052819,20.5495251 57.4308077,19.9561937 56.4959183,19.6910091 C55.5354949,19.4189037 54.7250418,19.7301707 53.8485404,20.1614543 C50.3917308,17.4567743 46.9340701,14.7515878 43.4862825,12.0541662 C44.1091449,9.74262104 43.6359125,8.04668893 42.0958644,7.10157856 C40.5200685,6.13452421 38.9219728,6.27530328 37.5941984,7.2838824 C36.0161896,8.48236134 35.7480813,10.1362623 36.6678204,12.4532091 C36.5721526,12.757724 36.2946818,12.9287182 36.0832592,13.1468076 C34.2955301,14.990946 32.4567328,16.7884956 30.7217742,18.6800668 C29.1194229,20.4271452 27.3429288,22.0069431 25.8013487,23.8087127 C25.6544423,23.9802133 25.5167283,24.1594788 25.3781631,24.3309794 C24.3673523,24.0305157 23.4762114,24.0608996 22.6194564,24.5819848 C21.9807629,24.9707308 21.5502576,25.5097088 21.3240253,26.1898034 C20.8518142,27.6100853 21.2217185,28.914233 22.9068004,30.036752 C22.7146136,32.1661621 22.2961944,34.299961 21.9715706,36.5044871 C19.8888373,36.9811779 19.0358274,38.3300575 19.3092127,40.4257077 C17.4047076,41.5728715 15.5288006,42.7026489 13.7036215,43.8018735 C11.0327522,42.5255778 9.73408667,42.8911983 8.46895597,45.2601354 C7.01657504,45.258785 5.52555246,45.2673938 4.10994066,45.4039529 C3.70292674,45.1132795 3.66547669,44.7282471 3.53508243,44.3987498 C2.66726269,42.2085717 2.11453404,39.9410833 1.72215967,37.6190725 C1.28314298,35.0203988 1.3204228,32.4117659 1.45796661,29.8100538 C1.56214584,27.8356019 1.98958706,25.8879892 2.51627091,23.9716045 C3.45218165,20.5670803 4.93877831,17.4091727 6.90082034,14.4774569 C7.79111011,13.1469764 8.8060064,11.9051159 9.88592959,10.7096754 C11.9419372,8.43374699 14.2966941,6.52715266 16.8911312,4.90228529 C19.9456933,2.98927657 23.246915,1.65035615 26.764666,0.844674457 C28.2739029,0.498972361 29.791481,0.184329438 31.3504244,0.151244667 C31.4920536,0.14820627 31.6358959,0.153101465 31.7135196,0 C33.4724802,0 35.2316111,0 36.9905717,0" id="Fill-1" fill="#009898"></path>
                        <path d="M37.9038422,13.5828177 C39.4736801,14.4301929 40.9694691,14.3353274 42.4507887,13.2722259 C45.9154288,15.9833203 49.3783666,18.6930644 52.876201,21.4298164 C52.4989769,22.5195882 52.587325,23.5484233 53.2747036,24.4781729 C53.7263171,25.0892283 54.3331781,25.5043072 55.0872859,25.6428919 C56.5216227,25.906726 58.2719017,25.3837841 58.8702514,22.9176183 C60.931536,22.576305 63.0181846,22.2307717 65.0932577,21.887264 C70.2281699,35.2594194 65.3753246,54.3533834 47.7445231,62.4051363 C30.9651996,70.068312 12.0578621,62.287314 4.70063005,46.9616379 C5.95333414,46.9616379 7.18782389,46.9616379 8.49619237,46.9616379 C8.87682104,47.8637043 9.46138223,48.6568948 10.5079408,49.0025969 C11.1490176,49.2142719 11.7945202,49.2271007 12.4279367,49.0304489 C13.9650909,48.5534205 14.622169,47.3540976 14.5217348,45.1835003 C16.3418071,44.083094 18.1962654,42.9619254 20.1111544,41.8041272 C21.4436952,42.8537247 22.8521574,43.0201614 24.3504998,41.912328 C25.9065493,42.9634446 27.4668544,44.0174309 29.0343091,45.0763124 C28.972857,45.8403005 28.8591451,46.5668151 29.1558516,47.2713856 C29.439791,47.9459098 29.92545,48.4379614 30.5837197,48.8670506 C30.3544233,50.3778093 29.9278332,51.8559896 29.6108696,53.4129994 C28.6106129,53.5736969 27.7227063,53.9594046 27.1536358,54.854719 C26.7971795,55.4156409 26.5959706,56.0293971 26.649422,56.6921054 C26.7661981,58.1375385 27.8350565,59.3044519 29.2324539,59.5512372 C30.5326515,59.780805 31.9462206,59.0336969 32.5239727,57.8114172 C33.1880301,56.4068336 32.7609293,55.0736524 31.1817289,53.726292 C31.5126512,52.2546949 31.8498718,50.7554146 32.1945825,49.2223743 C33.8132757,48.9560082 34.8572809,48.0649137 35.0717675,46.4525376 C35.2324622,45.2424114 34.7163325,44.2402467 33.6810089,43.5711241 C32.4434551,42.7713504 31.2127103,42.9327231 29.9875831,43.7887071 C28.424384,42.7338768 26.8623766,41.6798906 25.2504925,40.5921443 C25.4569785,39.8539826 25.471618,39.1193656 25.1418874,38.3950454 C24.8121567,37.6710629 24.269812,37.1646633 23.5584313,36.7791245 C23.8930985,34.5992432 24.224191,32.4423187 24.5574964,30.2705398 C25.7434713,30.0247672 26.624739,29.4221517 27.0739694,28.3188759 C27.5129861,27.2405825 27.2928819,26.2237321 26.6152063,25.229501 C30.3808086,21.3444036 34.1283668,17.4782118 37.9038422,13.5828177" id="Fill-10" fill="#003F45"></path>
                    </g>
                    <g transform="translate(7.272727, 5.777778)" fill="#FFFFFF">
                        <ellipse id="Oval-2-Copy" cx="15.0545455" cy="33.7277778" rx="3.27272727" ry="3.25"></ellipse>
                        <ellipse id="Oval-2-Copy-5" cx="24.6545455" cy="40.3722222" rx="3.27272727" ry="3.25"></ellipse>
                        <ellipse id="Oval-2-Copy-6" cx="22.6181818" cy="50.6277778" rx="3.27272727" ry="3.25"></ellipse>
                        <ellipse id="Oval-2-Copy-2" cx="17.0909091" cy="21.3055556" rx="3.27272727" ry="3.25"></ellipse>
                        <ellipse id="Oval-2-Copy-4" cx="48.5090909" cy="16.8277778" rx="3.27272727" ry="3.25"></ellipse>
                        <ellipse id="Oval-2-Copy-3" cx="32.6545455" cy="4.40555556" rx="4" ry="3.97222222"></ellipse>
                        <ellipse id="Oval-2" cx="4.29090909" cy="40.2277778" rx="3.27272727" ry="3.25"></ellipse>
                    </g>
                </g>
            </g>
        </g>
    </g>
</svg>