<?xml version="1.0" encoding="UTF-8"?>
<svg width="120px" height="96px" viewBox="0 0 120 96" version="1.1" xmlns="http://www.w3.org/2000/svg" xmlns:xlink="http://www.w3.org/1999/xlink">
    <!-- Generator: Sketch 48.2 (47327) - http://www.bohemiancoding.com/sketch -->
    <title>BO_Header_logo-Loki</title>
    <desc>Created with Sketch.</desc>
    <defs>
        <linearGradient x1="50%" y1="4.034%" x2="50%" y2="100%" id="linearGradient-1">
            <stop stop-color="#FFC700" offset="0%"></stop>
            <stop stop-color="#D49A27" offset="100%"></stop>
        </linearGradient>
    </defs>
    <g id="Brands" stroke="none" stroke-width="1" fill="none" fill-rule="evenodd">
        <g id="BO_Header_logo-Loki" fill="url(#linearGradient-1)">
            <path d="M57.2645333,73.5430054 C55.2288,74.7319329 53.0885333,74.7525627 51.088,73.4849163 C49.1178667,72.235728 48.5952,70.2134655 48.7397333,67.9876195 C48.8704,65.9745861 49.6794667,64.3258314 51.5594667,63.4474365 C54.6826667,61.9881502 59.6592,63.1602481 59.6373333,68.9773066 C59.5952,70.7520117 59.0368,72.5093442 57.2645333,73.5430054 Z M53.9952,61.2753366 C52.1258667,61.2986808 50.4357333,61.8296265 49.0608,63.1765348 C47.768,64.4430954 47.1712,66.0440759 47.0314667,67.8258385 C46.8325333,70.3529881 47.3962667,72.6314943 49.3717333,74.3421384 C51.0378667,75.7840523 53.0325333,76.1537599 55.1472,75.9469191 C56.9962667,75.7655941 58.5952,75.0223787 59.7925333,73.5283474 C60.9072,72.1363793 61.3221333,70.4935964 61.3706667,68.3274682 C61.3674667,66.8399516 60.9461333,65.0831619 59.688,63.6287615 C58.1808,61.8855441 56.2133333,61.2476492 53.9946667,61.2753366 L53.9952,61.2753366 Z M51.5349333,56.6108319 L37.8586667,56.6108319 L42.8042667,47.8920302 C44.6313122,51.7422979 47.7182028,54.8249934 51.5349333,56.6108319 Z M42.6837333,39.9777904 C42.6837333,32.4332582 47.6512,26.0477946 54.432,24.0315039 L43.1493333,43.9224239 C42.8392481,42.6313069 42.6827479,41.3069301 42.6832,39.9777904 L42.6837333,39.9777904 Z M59.0128,19.3154248 L60.4410667,21.7481116 C59.5077023,21.6721941 58.5699617,21.670016 57.6362667,21.7415969 L59.0122667,19.3154248 L59.0128,19.3154248 Z M75.3168,39.9777904 C75.3168,44.4729136 73.5514667,48.5565267 70.6912,51.5500181 C70.1557534,52.1105536 69.5824431,52.6322768 68.9754667,53.1113677 C66.1225101,55.3670742 62.6119463,56.5897509 58.9994667,56.585859 C52.1216,56.585859 46.224,52.2308013 43.8277333,46.0874663 L56.6128,23.5467038 C57.4031815,23.4279141 58.2010497,23.3682175 59,23.3680932 C67.9973333,23.3680932 75.3168,30.8197913 75.3168,39.9777904 Z M80.1413333,56.6108319 L66.4666667,56.6108319 C67.9399516,55.9225963 69.3149258,55.0345086 70.5541333,53.9707614 C72.5049417,52.2996654 74.0865588,50.2275553 75.1952,47.8904016 L80.1418667,56.6108319 L80.1413333,56.6108319 Z M83,58.2905313 L75.9888,45.9289426 C76.6376602,44.0144034 76.9680657,42.0030558 76.9664,39.9777904 C76.9664,31.1265238 70.7568,23.7242286 62.5386667,22.0461578 L58.9877333,16 L55.5696,22.0260709 C47.2986667,23.6590818 41.0336,31.0868928 41.0336,39.9777904 C41.0336,42.0608566 41.3781333,44.0630322 42.0112,45.9294855 L35,58.2910742 L83,58.2910742 L83,58.2905313 Z M76.08,61.7997676 C75.7733333,61.8214832 75.4266667,61.9246321 75.1845333,62.1086716 C72.0389333,64.4952128 68.9088,66.9012981 65.7738667,69.3014115 C65.6250667,69.4154183 65.4698667,69.5185672 65.2384,69.6825198 L65.2384,61.8138827 L63.608,61.8138827 L63.608,75.4908921 L65.256,75.4908921 L65.256,74.9724329 C65.256,73.9952322 65.2506667,73.0180315 65.2624,72.0392021 C65.2650667,71.8882789 65.3029333,71.6754663 65.4032,71.5967474 C66.6608,70.6146607 67.9333333,69.6532038 69.2218667,68.6722029 C69.3413333,68.8171543 69.4373333,68.9289895 69.5264,69.0457107 C70.3882667,70.1787206 71.2064,71.3475612 72.1221333,72.4333397 C72.8837333,73.3361646 73.7077333,74.2004443 74.5957333,74.9724329 C75.4629333,75.7248774 76.5248,75.9941505 77.6672,75.682532 C77.7898667,75.6488729 77.9616,75.4968639 77.9690667,75.3893718 C78.0037333,74.942574 77.9834667,74.4919759 77.9834667,73.9800313 C76.7504,74.3057648 75.8730667,73.7780765 75.0672,73.0967504 C73.2490667,71.5603738 71.9493333,69.5869713 70.6128,67.5885959 L78.0229333,61.9012879 C77.38173,61.7873675 76.7292925,61.753277 76.08,61.7997676 Z M36.6661333,61.8209403 L35.0501333,61.8209403 L35.0501333,75.491435 L46.3616,75.491435 L46.3616,73.844309 L36.6661333,73.844309 L36.6661333,61.8209403 Z M81.3653333,75.4794914 L82.9493333,75.4794914 L82.9493333,61.8149685 L81.3653333,61.8149685 L81.3653333,75.4794914 Z" id="Shape"></path>
            <path d="M58.665998,33.8210227 L58.665998,38.4276661 C58.665998,38.8811044 59.0381365,39.2486888 59.4971927,39.2486888 C59.9562488,39.2486888 60.3283873,38.8811044 60.3283873,38.4276661 L60.3283873,33.8210227 C60.3283873,33.3675844 59.9562488,33 59.4971927,33 C59.0381365,33 58.665998,33.3675844 58.665998,33.8210227 Z M49.3955182,42.4457418 C49.0582737,42.1379782 48.5323003,42.1585316 48.2207238,42.491649 C47.9091472,42.8247664 47.9299552,43.3443031 48.2671997,43.6520667 L48.7991213,44.1382055 C48.9597724,44.2841533 49.1617951,44.3558004 49.3632806,44.3558004 C49.7053783,44.355457 50.0123718,44.1482444 50.1370052,43.8335565 C50.2616386,43.5188686 50.1784886,43.1608968 49.9274398,42.9313499 L49.3955182,42.4457418 Z M53.3553789,40.2894293 C53.5030897,40.5438829 53.7770113,40.7011693 54.0739601,40.7020403 C54.370909,40.7029112 54.6457714,40.5472344 54.7950094,40.2936518 C54.9442474,40.0400692 54.9451882,39.7271059 54.7974774,39.4726523 L53.275322,36.8519605 C53.1275153,36.597507 52.853505,36.4402711 52.5565082,36.4394823 C52.2595113,36.4386934 51.9846489,36.5944714 51.8354589,36.8481361 C51.6862689,37.1018009 51.6854167,37.4148146 51.8332235,37.6692682 L53.3553789,40.28996 L53.3553789,40.2894293 Z M55.938691,39.0172952 C56.0663962,39.439997 56.5092609,39.6876362 56.9419046,39.5782679 C57.3745482,39.4688996 57.6425317,39.0415646 57.5489627,38.6102335 L56.584519,34.8882992 C56.4598814,34.4617384 56.0147032,34.2101551 55.5792559,34.3201955 C55.1438085,34.4302358 54.8756441,34.8620853 54.97371,35.2953609 L55.938691,39.0172952 Z M50.9810744,42.0408029 C51.128631,42.2029334 51.3355135,42.300299 51.5559433,42.3113549 C51.7763731,42.3224108 51.9921762,42.2462456 52.1556002,42.0997128 C52.3191922,41.9537509 52.417381,41.749575 52.4285657,41.5321028 C52.4397503,41.3146307 52.3630146,41.1016772 52.2152399,40.9400912 L50.8768393,39.4768981 C50.5691203,39.1404099 50.0435077,39.1140351 49.7028507,39.4179883 C49.3621937,39.7219414 49.3354921,40.2411217 49.643211,40.5776099 L50.9810744,42.0413337 L50.9810744,42.0408029 Z M69.0196636,44.0925637 C69.169009,44.2531251 69.3770136,44.3482265 69.5975845,44.3567939 C69.8181555,44.3653613 70.0330781,44.2866873 70.1947267,44.1382055 L70.7271856,43.651536 C70.9485342,43.4532401 71.0450845,43.1528412 70.9800662,42.8647439 C70.9150479,42.5766466 70.698469,42.3451962 70.4128116,42.2585389 C70.1271543,42.1718816 69.8163886,42.243356 69.5988671,42.4457418 L69.0658709,42.9318806 C68.9038382,43.079697 68.8079284,43.2850661 68.7992618,43.5027639 C68.7905951,43.7204617 68.8698823,43.9326358 69.0196636,44.0925637 Z M64.5047777,40.5935315 C64.6960048,40.7019436 64.9230048,40.7308654 65.1358236,40.6739323 C65.3486425,40.6169993 65.5298408,40.4788767 65.6395437,40.28996 L67.1611618,37.6692682 C67.3896513,37.2759171 67.2520538,36.7740824 66.8538293,36.5483891 C66.4556048,36.3226958 65.9475528,36.4586094 65.7190633,36.8519605 L64.1969079,39.4726523 C64.0871526,39.6615393 64.0578725,39.8857613 64.1155109,40.0959758 C64.1731493,40.3061902 64.3129832,40.485171 64.5042404,40.5935315 L64.5047777,40.5935315 Z M62.0439687,39.6090472 C62.4887542,39.7214135 62.9415931,39.4565508 63.0556943,39.0172952 L64.020138,35.2953609 C64.0992883,35.0093441 64.0161613,34.7033944 63.8026666,34.4949555 C63.5891718,34.2865167 63.278484,34.2079777 62.9898656,34.289487 C62.7012472,34.3709963 62.4795463,34.5998884 62.4098663,34.8882992 L61.4448853,38.6102335 C61.3902849,38.8212271 61.4227878,39.0450039 61.5352419,39.2323236 C61.6476961,39.4196432 61.8308874,39.5551574 62.044506,39.6090472 L62.0439687,39.6090472 Z M66.8387851,42.0997128 C67.0020499,42.2462802 67.2177242,42.3225244 67.4380646,42.3115675 C67.6584051,42.3006106 67.8652368,42.2033563 68.0127736,42.0413337 L69.3511743,40.5776099 C69.6393619,40.2390089 69.6043887,39.7358079 69.2720589,39.4392848 C68.9397291,39.1427617 68.4293723,39.1593888 68.1175461,39.4768981 L66.7791454,40.9400912 C66.4712826,41.2764344 66.4977435,41.795611 66.8382478,42.0997128 L66.8387851,42.0997128 Z M61.7592026,48.0883492 C62.7669226,46.9042994 62.6645311,45.1493336 61.5257761,44.0874711 C60.387021,43.0256085 58.6073643,43.0256085 57.4686093,44.0874711 C56.3298542,45.1493336 56.2274627,46.9042994 57.2351827,48.0883492 C55.3770771,47.6386339 53.7245253,46.5882124 52.5403031,45.1041146 C53.6089819,44.0639048 56.4190323,41.6517857 59.4971927,41.6517857 C62.5758903,41.6517857 65.3859407,44.0644356 66.4540822,45.1041146 C65.2698038,46.5881513 63.6172752,47.638558 61.7592026,48.0883492 Z M59.4971927,40.0097403 C54.8286405,40.0097403 50.9918203,44.3106893 50.8306319,44.4943182 C50.5834764,44.774538 50.5587609,45.1842532 50.7693804,45.4920704 C52.7288935,48.3568931 55.9075279,50 59.4907451,50 L59.5036402,50 C63.0868574,50 66.2654918,48.3568931 68.225005,45.4920704 C68.4353336,45.1840644 68.4102191,44.7749639 68.1637534,44.4943182 C68.002565,44.3106893 64.1652075,40.0097403 59.4971927,40.0097403 Z" id="Shape"></path>
        </g>
    </g>
</svg>