<?xml version="1.0" encoding="UTF-8"?>
<svg width="55px" height="70px" viewBox="0 0 55 70" version="1.1" xmlns="http://www.w3.org/2000/svg" xmlns:xlink="http://www.w3.org/1999/xlink">
    <!-- Generator: Sketch 51 (57462) - http://www.bohemiancoding.com/sketch -->
    <title>BO_Header_logo-NasFX</title>
    <desc>Created with Sketch.</desc>
    <defs></defs>
    <g id="Brands" stroke="none" stroke-width="1" fill="none" fill-rule="evenodd">
        <g id="BO_Header_logo-NasFX" transform="translate(-33.000000, -14.000000)">
            <g transform="translate(32.000000, 14.000000)">
                <g id="Group-7-Copy-2" transform="translate(3.000000, 0.000000)">
                    <g id="Group-7" transform="translate(6.805871, 0.198770)">
                        <path d="M3.72585217,29.7540976 L3.72585217,26.0348354 C3.72585217,25.3501381 4.28189245,24.7950813 4.9678029,24.7950813 C5.65371334,24.7950813 6.20975362,25.3501381 6.20975362,26.0348354 L6.20975362,29.7540976 L8.69365507,29.7540976 C9.37956552,29.7540976 9.9356058,30.3091544 9.9356058,30.9938516 L9.9356058,45.8709004 C9.9356058,46.5555977 9.37956552,47.1106545 8.69365507,47.1106545 L6.20975362,47.1106545 L6.20975362,50.8299167 C6.20975362,51.514614 5.65371334,52.0696708 4.9678029,52.0696708 C4.28189245,52.0696708 3.72585217,51.514614 3.72585217,50.8299167 L3.72585217,47.1106545 L1.24195072,47.1106545 C0.556040279,47.1106545 0,46.5555977 0,45.8709004 L0,30.9938516 C0,30.3091544 0.556040279,29.7540976 1.24195072,29.7540976 L3.72585217,29.7540976 Z" id="Combined-Shape" fill="#2196F3"></path>
                        <path d="M17.3873101,4.95901626 L17.3873101,1.23975407 C17.3873101,0.555056802 17.9433504,0 18.6292609,0 C19.3151713,0 19.8712116,0.555056802 19.8712116,1.23975407 L19.8712116,4.95901626 L22.355113,4.95901626 C23.0410235,4.95901626 23.5970638,5.51407306 23.5970638,6.19877033 L23.5970638,58.2684411 C23.5970638,58.9531383 23.0410235,59.5081951 22.355113,59.5081951 L19.8712116,59.5081951 L19.8712116,63.2274573 C19.8712116,63.9121546 19.3151713,64.4672114 18.6292609,64.4672114 C17.9433504,64.4672114 17.3873101,63.9121546 17.3873101,63.2274573 L17.3873101,59.5081951 L14.9034087,59.5081951 C14.2174983,59.5081951 13.661458,58.9531383 13.661458,58.2684411 L13.661458,6.19877033 C13.661458,5.51407306 14.2174983,4.95901626 14.9034087,4.95901626 L17.3873101,4.95901626 Z" id="Combined-Shape" fill="#73909D"></path>
                        <path d="M31.0487681,17.3565569 L31.0487681,13.6372947 C31.0487681,12.9525975 31.6048084,12.3975407 32.2907188,12.3975407 C32.9766293,12.3975407 33.5326696,12.9525975 33.5326696,13.6372947 L33.5326696,17.3565569 L36.016571,17.3565569 C36.7024815,17.3565569 37.2585217,17.9116137 37.2585217,18.596311 L37.2585217,33.4733598 C37.2585217,34.158057 36.7024815,34.7131138 36.016571,34.7131138 L33.5326696,34.7131138 L33.5326696,38.432376 C33.5326696,39.1170733 32.9766293,39.6721301 32.2907188,39.6721301 C31.6048084,39.6721301 31.0487681,39.1170733 31.0487681,38.432376 L31.0487681,34.7131138 L28.5648667,34.7131138 C27.8789562,34.7131138 27.3229159,34.158057 27.3229159,33.4733598 L27.3229159,18.596311 C27.3229159,17.9116137 27.8789562,17.3565569 28.5648667,17.3565569 L31.0487681,17.3565569 Z" id="Combined-Shape" fill="#2196F3"></path>
                    </g>
                </g>
                <path d="M7.64677104,27.9882789 C8.1498975,27.8943212 8.63318798,28.2300298 8.72623053,28.7381051 C8.81927307,29.2461803 8.48683438,29.7342244 7.98370791,29.8281822 C6.0559256,30.1881911 4.54477202,30.5940556 3.53963935,31.018504 C2.75295394,31.3507062 2.43032732,31.6301356 2.43032732,31.6268288 C2.43032732,33.0292016 14.5665637,34.9275979 28.5862058,34.9275979 C42.6058478,34.9275979 54.7420842,33.0292016 54.7420842,31.6268288 C54.7420842,31.4264549 53.1954266,30.6841966 50.4405342,30.081072 C49.9404931,29.9715987 49.6230109,29.4735025 49.7314179,28.968543 C49.8398249,28.4635835 50.3330695,28.1429785 50.8331106,28.2524518 C54.5873042,29.074352 56.5949591,30.0378481 56.5949591,31.6268288 C56.5949591,34.9037648 44.4808638,36.7986978 28.5862058,36.7986978 C12.6915478,36.7986978 0.577452469,34.9037648 0.577452469,31.6268288 C0.577452469,29.8883052 3.03930146,28.8487134 7.64677104,27.9882789 Z" id="Oval-Copy-2" fill="#546E7A" fill-rule="nonzero" transform="translate(28.586206, 32.385606) rotate(-13.000000) translate(-28.586206, -32.385606) "></path>
                <g id="Group-7-Copy-3" transform="translate(3.596117, 27.473360)">
                    <path d="M9.9356058,7.43852439 L9.9356058,3.7192622 C9.9356058,3.03456493 10.4916461,2.47950813 11.1775565,2.47950813 C11.863467,2.47950813 12.4195072,3.03456493 12.4195072,3.7192622 L12.4195072,7.43852439 L14.9034087,7.43852439 C15.5893191,7.43852439 16.1453594,7.99358119 16.1453594,8.67827846 L16.1453594,23.5553272 C16.1453594,24.2400245 15.5893191,24.7950813 14.9034087,24.7950813 L12.4195072,24.7950813 L12.4195072,28.5143435 C12.4195072,29.1990408 11.863467,29.7540976 11.1775565,29.7540976 C10.4916461,29.7540976 9.9356058,29.1990408 9.9356058,28.5143435 L9.9356058,24.7950813 L7.45170435,24.7950813 C6.7657939,24.7950813 6.20975362,24.2400245 6.20975362,23.5553272 L6.20975362,8.67827846 C6.20975362,7.99358119 6.7657939,7.43852439 7.45170435,7.43852439 L9.9356058,7.43852439 Z" id="Combined-Shape" fill="#2196F3"></path>
                    <path d="M23.5970638,-17.3565569 L23.5970638,-21.0758191 C23.5970638,-21.7605164 24.153104,-22.3155732 24.8390145,-22.3155732 C25.5249249,-22.3155732 26.0809652,-21.7605164 26.0809652,-21.0758191 L26.0809652,-17.3565569 L28.5648667,-17.3565569 C29.2507771,-17.3565569 29.8068174,-16.8015001 29.8068174,-16.1168029 L29.8068174,35.9528679 C29.8068174,36.6375652 29.2507771,37.192622 28.5648667,37.192622 L26.0809652,37.192622 L26.0809652,40.9118842 C26.0809652,41.5965814 25.5249249,42.1516382 24.8390145,42.1516382 C24.153104,42.1516382 23.5970638,41.5965814 23.5970638,40.9118842 L23.5970638,37.192622 L21.1131623,37.192622 C20.4272519,37.192622 19.8712116,36.6375652 19.8712116,35.9528679 L19.8712116,-16.1168029 C19.8712116,-16.8015001 20.4272519,-17.3565569 21.1131623,-17.3565569 L23.5970638,-17.3565569 Z" id="Combined-Shape" fill="#73909D"></path>
                    <path d="M37.2585217,-4.95901626 L37.2585217,-8.67827846 C37.2585217,-9.36297572 37.814562,-9.91803252 38.5004725,-9.91803252 C39.1863829,-9.91803252 39.7424232,-9.36297572 39.7424232,-8.67827846 L39.7424232,-4.95901626 L42.2263246,-4.95901626 C42.9122351,-4.95901626 43.4682754,-4.40395946 43.4682754,-3.7192622 L43.4682754,11.1577866 C43.4682754,11.8424839 42.9122351,12.3975407 42.2263246,12.3975407 L39.7424232,12.3975407 L39.7424232,16.1168029 C39.7424232,16.8015001 39.1863829,17.3565569 38.5004725,17.3565569 C37.814562,17.3565569 37.2585217,16.8015001 37.2585217,16.1168029 L37.2585217,12.3975407 L34.7746203,12.3975407 C34.0887098,12.3975407 33.5326696,11.8424839 33.5326696,11.1577866 L33.5326696,-3.7192622 C33.5326696,-4.40395946 34.0887098,-4.95901626 34.7746203,-4.95901626 L37.2585217,-4.95901626 Z" id="Combined-Shape" fill="#2196F3"></path>
                </g>
            </g>
        </g>
    </g>
</svg>