<?xml version="1.0" encoding="UTF-8"?>
<svg width="120px" height="96px" viewBox="0 0 120 96" version="1.1" xmlns="http://www.w3.org/2000/svg" xmlns:xlink="http://www.w3.org/1999/xlink">
    <!-- Generator: Sketch 48.2 (47327) - http://www.bohemiancoding.com/sketch -->
    <title>BO_Header_logo-RedBox</title>
    <desc>Created with Sketch.</desc>
    <defs>
        <radialGradient cx="5.80284848%" cy="1.45369231%" fx="5.80284848%" fy="1.45369231%" r="1.51515152%" gradientTransform="translate(0.058028,0.014537),scale(0.491071,1.000000),translate(-0.058028,-0.014537)" id="radialGradient-1">
            <stop stop-color="#FFFFFF" offset="66.47%"></stop>
            <stop stop-color="#F1D0AF" offset="100%"></stop>
        </radialGradient>
        <radialGradient cx="52.351657%" cy="53.2180489%" fx="52.351657%" fy="53.2180489%" r="13.6692705%" gradientTransform="translate(0.523517,0.532180),scale(0.381388,1.000000),translate(-0.523517,-0.532180)" id="radialGradient-2">
            <stop stop-color="#FFFFFF" offset="66.47%"></stop>
            <stop stop-color="#F1D0AF" offset="100%"></stop>
        </radialGradient>
        <radialGradient cx="12.9136364%" cy="10.0447038%" fx="12.9136364%" fy="10.0447038%" r="1.51515152%" gradientTransform="translate(0.129136,0.100447),scale(1.000000,0.833058),translate(-0.129136,-0.100447)" id="radialGradient-3">
            <stop stop-color="#FFFFFF" offset="66.47%"></stop>
            <stop stop-color="#F1D0AF" offset="100%"></stop>
        </radialGradient>
        <radialGradient cx="50.7321451%" cy="50.8152918%" fx="50.7321451%" fy="50.8152918%" r="5.95238068%" gradientTransform="translate(0.507321,0.508153),scale(1.000000,0.832068),translate(-0.507321,-0.508153)" id="radialGradient-4">
            <stop stop-color="#FFFFFF" offset="66.47%"></stop>
            <stop stop-color="#F1D0AF" offset="100%"></stop>
        </radialGradient>
        <radialGradient cx="6.0730303%" cy="1.41480769%" fx="6.0730303%" fy="1.41480769%" r="1.51515152%" gradientTransform="translate(0.060730,0.014148),scale(0.491071,1.000000),translate(-0.060730,-0.014148)" id="radialGradient-5">
            <stop stop-color="#FFFFFF" offset="66.47%"></stop>
            <stop stop-color="#F1D0AF" offset="100%"></stop>
        </radialGradient>
        <radialGradient cx="51.1196725%" cy="55.7295319%" fx="51.1196725%" fy="55.7295319%" r="12.7537753%" gradientTransform="translate(0.511197,0.557295),scale(0.330719,1.000000),translate(-0.511197,-0.557295)" id="radialGradient-6">
            <stop stop-color="#FFFFFF" offset="66.47%"></stop>
            <stop stop-color="#F1D0AF" offset="100%"></stop>
        </radialGradient>
        <radialGradient cx="22.199697%" cy="16.3200577%" fx="22.199697%" fy="16.3200577%" r="1.51515152%" gradientTransform="translate(0.221997,0.163201),scale(0.873016,1.000000),translate(-0.221997,-0.163201)" id="radialGradient-7">
            <stop stop-color="#FFFFFF" offset="48.97%"></stop>
            <stop stop-color="#F1D0AF" offset="78.61%"></stop>
            <stop stop-color="#D49D7B" offset="100%"></stop>
        </radialGradient>
        <radialGradient cx="43.0209315%" cy="53.4041546%" fx="43.0209315%" fy="53.4041546%" r="2.93622129%" gradientTransform="translate(0.430209,0.534042),scale(0.916523,1.000000),translate(-0.430209,-0.534042)" id="radialGradient-8">
            <stop stop-color="#FFFFFF" offset="48.97%"></stop>
            <stop stop-color="#F1D0AF" offset="78.61%"></stop>
            <stop stop-color="#D49D7B" offset="100%"></stop>
        </radialGradient>
        <radialGradient cx="6.72454545%" cy="4.21634615%" fx="6.72454545%" fy="4.21634615%" r="1.51515152%" gradientTransform="translate(0.067245,0.042163),scale(0.982143,1.000000),translate(-0.067245,-0.042163)" id="radialGradient-9">
            <stop stop-color="#FFFFFF" offset="66.47%"></stop>
            <stop stop-color="#F1D0AF" offset="100%"></stop>
        </radialGradient>
        <radialGradient cx="50.4340909%" cy="49.8295455%" fx="50.4340909%" fy="49.8295455%" r="11.3636364%" gradientTransform="translate(0.504341,0.498295),scale(0.982143,1.000000),translate(-0.504341,-0.498295)" id="radialGradient-10">
            <stop stop-color="#FFFFFF" offset="66.47%"></stop>
            <stop stop-color="#F1D0AF" offset="100%"></stop>
        </radialGradient>
        <radialGradient cx="3.51824242%" cy="2.37274865%" fx="3.51824242%" fy="2.37274865%" r="1.51515152%" gradientTransform="translate(0.035182,0.023727),scale(0.982143,1.000000),translate(-0.035182,-0.023727)" id="radialGradient-11">
            <stop stop-color="#FFFFFF" offset="66.47%"></stop>
            <stop stop-color="#F1D0AF" offset="100%"></stop>
        </radialGradient>
        <radialGradient cx="50.6191413%" cy="49.8384006%" fx="50.6191413%" fy="49.8384006%" r="21.7994338%" gradientTransform="translate(0.506191,0.498384),scale(1.000000,0.943321),translate(-0.506191,-0.498384)" id="radialGradient-12">
            <stop stop-color="#FFFFFF" offset="66.47%"></stop>
            <stop stop-color="#F1D0AF" offset="100%"></stop>
        </radialGradient>
    </defs>
    <g id="Brands" stroke="none" stroke-width="1" fill="none" fill-rule="evenodd">
        <g id="BO_Header_logo-RedBox" fill-rule="nonzero">
            <g id="RedBox_Cat" transform="translate(37.000000, 16.000000)">
                <g id="Vector" transform="translate(15.272727, 40.000000)" fill="#722328">
                    <g id="path0_fill-link" transform="translate(0.509091, 0.375000)">
                        <polygon id="path0_fill" points="10.9454545 -9.5367375e-07 2.42753636e-07 5.625 2.42753636e-07 18.375 10.9454545 12.75"></polygon>
                    </g>
                </g>
                <g id="Vector" transform="translate(26.727273, 40.000000)" fill="#8F2328">
                    <g id="path1_fill-link" transform="translate(0.000000, 0.375000)">
                        <polygon id="path1_fill" points="10.8181818 5.625 -4.85507273e-07 -9.5367375e-07 -4.85507273e-07 12.75 10.8181818 18.375"></polygon>
                    </g>
                </g>
                <g id="Group">
                    <g id="Vector" transform="translate(2.545455, 15.000000)" fill="#8F2328">
                        <g id="path2_fill-link" transform="translate(0.967273, 0.375000)">
                            <path d="M21.1781818,8.25 C21.1781818,8.375 19.0145455,12.375 16.0872727,14.5 C13.16,16.75 8.95998727,17.75 9.08726,17.375 C9.21453273,17.125 8.83271455,15.875 6.66907818,14.75 C4.50544182,13.625 5.77816909,12.25 5.65089636,10.875 C5.52362364,9.375 4.50544182,8.875 2.21453273,8 C-0.0763822171,7.125 -0.330928181,6.25 0.687253637,4.125 C1.83271455,2 1.45089636,1.25 0.941799092,0.75 C0.55998091,0.1249995 -0.203655453,2.3841875e-07 0.0508905102,2.3841875e-07 C0.305435456,2.3841875e-07 5.52361091,0.375 8.32362364,1.875 C11.1236236,3.5 13.9236364,4.25 16.7236364,4.875 C19.6509091,5.375 21.1781818,8.25 21.1781818,8.25 Z" id="path2_fill"></path>
                        </g>
                    </g>
                    <g id="Vector" transform="translate(3.818182, 22.500000)" fill="#A9272C">
                        <g id="path3_fill-link" transform="translate(0.763636, 0.201250)">
                            <path d="M3.94545455,0.29916875 C5.09090909,0.29916875 6.36363636,-0.45083125 7.50909091,0.42416875 C7.63636364,0.54916875 7.89090909,0.67416875 7.76363636,0.92416875 C7.63636364,1.17416875 7.38181818,1.2991625 7.12727273,1.4241625 C6.10909091,1.6741625 5.09090909,1.924175 4.2,2.299175 C3.69090909,1.549175 2.67272727,1.17417 1.14545455,0.54917 C0.763636364,0.42417 0.381818182,0.17417 1.33227e-15,0.049169875 C1.4,0.42417 2.8,0.29916875 3.94545455,0.29916875 Z" id="path3_fill"></path>
                        </g>
                    </g>
                    <g id="Vector" transform="translate(8.909091, 27.500000)" fill="#A9272C">
                        <g id="path4_fill-link" transform="translate(0.381818, 0.341250)">
                            <path d="M2.03636364,1.2840625 C3.43636364,1.15906625 4.58181818,0.6590675 5.85454545,0.2840675 C6.49090909,0.1590675 7.25454545,-0.090933125 7.89090909,0.034066875 C8.14545455,0.15906625 8.27272727,0.5340675 8.14545455,0.7840675 C7.38181818,1.7840625 6.10909091,1.7840625 4.96363636,2.1590625 C4.07272727,2.5340625 3.30909091,2.9090625 2.54545455,3.1590625 C2.41818182,3.1590625 2.41818182,3.1590625 2.29090909,3.1590625 C1.90909091,2.7840625 1.52727273,2.5340625 0.890909091,2.1590625 C0.381818182,1.9090625 0.127272473,1.6590625 -2.42753636e-07,1.4090625 C0.381818182,1.4090625 0.636363636,1.2840625 1.01818182,1.2840625 C1.4,1.4090625 1.65454545,1.4090625 2.03636364,1.2840625 Z" id="path4_fill"></path>
                        </g>
                    </g>
                    <g id="Vector" transform="translate(30.545455, 0.000000)" fill="#9F5E3C">
                        <g id="path5_fill-link" transform="translate(0.381818, 0.000000)">
                            <path d="M1.14545455,0 C1.4,0 1.4,0.375 1.52727273,1.5 C1.78181818,2.75 2.41818182,4.625 2.41818182,4.625 C2.41818182,4.625 1.14545582,4.125 9.71013273e-07,3.75 C9.71013273e-07,2.375 0.254545455,1 1.14545455,0 Z" id="path5_fill"></path>
                        </g>
                    </g>
                    <g id="Vector" transform="translate(29.272727, 0.000000)" fill="#F1D0AF">
                        <g id="path6_fill-link" transform="translate(0.127273, 0.000000)">
                            <path d="M0.636363636,2 C1.14545455,0.875 2.29090909,0.125 2.67272727,0 C1.78181818,1 1.52727273,2.375 1.52727273,3.75 C0.763637636,3.5 0.127272727,3.25 -3.55271e-15,3.25 C-8.07435364e-15,3.375 9.68920909e-16,3.125 0.636363636,2 Z" id="path6_fill"></path>
                        </g>
                    </g>
                    <g id="Vector" transform="translate(14.000000, 0.000000)" fill="#F1D0AF">
                        <g id="path7_fill-link" transform="translate(0.763636, 0.897500)">
                            <path d="M3.81818182,0.4770625 C6.87272727,1.2270625 8.14545455,2.6020625 8.14545455,2.6020625 C8.14545455,2.6020625 7.89090909,2.6020625 6.49090909,3.4770625 L6.36363636,3.6020625 C4.45454545,1.9770625 2.41818182,0.7270625 3.55271e-15,0.102062125 C8.07435364e-15,-0.022937875 0.890909091,-0.1479375 3.81818182,0.4770625 Z" id="path7_fill"></path>
                        </g>
                    </g>
                    <g id="Vector" transform="translate(14.000000, 0.000000)" fill="#9F5E3C">
                        <g id="path8_fill-link" transform="translate(0.636364, 1.000000)">
                            <path d="M6.36363636,3.5 C4.96363636,4.5 3.56363636,6.875 3.56363636,6.875 C3.56363636,6.875 2.03636364,5.25 1.14545455,3.375 C0.127272727,1.5 -4.85507273e-07,0.249999999 -4.85507273e-07,1.39841327e-08 C2.41818182,0.624999999 4.58181818,1.875 6.36363636,3.5 Z" id="path8_fill"></path>
                        </g>
                    </g>
                    <g id="Vector" transform="translate(0.000000, 31.250000)" fill="#D39D7B">
                        <g id="path9_fill-link" transform="translate(0.229091, 0.752500)">
                            <path d="M22.4308,4.7481125 C22.3035273,4.8731125 18.8671636,9.1231125 15.6853455,10.8731125 C12.5035273,12.623125 6.39443636,12.998125 4.10352727,9.7481125 C1.68534545,6.4981125 2.95807273,4.2481125 4.2308,3.8731125 C5.50352727,3.3731125 8.4308,3.8731125 8.30352727,1.8731125 C8.17625455,-0.12689 4.48534545,-0.75189 2.06716364,1.12311 C-0.351019455,2.9981125 -0.860110364,8.1231125 1.68534545,11.1231125 C4.2308,14.123125 11.4853455,14.623125 15.6853455,12.748125 C19.8853455,10.8731125 22.3035273,8.4981125 22.3035273,8.4981125 L22.4308,4.7481125 Z" id="path9_fill"></path>
                        </g>
                    </g>
                    <g id="Vector" transform="translate(0.000000, 31.250000)" fill="#F1D0AF">
                        <g id="path10_fill-link" transform="translate(0.000000, 0.747500)">
                            <path d="M2.16363636,1.12694625 C4.2,-0.49805375 7.25454545,-0.24805375 8.14545455,1.12694625 C7.89090909,1.25195 7.50909091,1.37695 7.25454545,1.50195 C5.98181818,1.75195 4.70909091,1.62695 3.43636364,2.12695 C2.03636364,2.75195 0.890909091,3.87695 0.254545455,5.25195 C0.127272728,5.62695 -1.49012e-09,5.87695 -1.49012e-09,6.25195 C0.127272728,4.25195 0.890909091,2.12695 2.16363636,1.12694625 Z" id="path10_fill"></path>
                        </g>
                    </g>
                    <g id="Vector" transform="translate(2.545455, 38.750000)" fill="#F1D0AF">
                        <g id="path11_fill-link" transform="translate(0.407273, 0.625000)">
                            <path d="M15.6227273,3.125 C14.35,4.75 12.3136364,5.5 10.4045455,5.625 C7.09545455,5.75 2.51363637,6 0.731818184,2.625 C0.477272729,2.25 0.222727274,1.75 0.0954545472,1.375 C-0.0318183074,0.8749975 -0.0318183074,0.375 0.0954545472,0 C0.222727274,0.75 0.604545456,1.625 1.36818182,2.5 C3.78636364,5.75 9.76818182,5.375 12.95,3.625 C14.0954545,3 15.2409091,2.125 16.2590909,1.1250025 C16.2590909,1.75 16.1318182,2.5 15.6227273,3.125 Z" id="path11_fill"></path>
                        </g>
                    </g>
                    <g id="Vector" transform="translate(26.727273, 41.250000)" fill="#D39D7B">
                        <g id="path12_fill-link">
                            <path d="M5.73060727,0.5000025 C5.98515273,0.3750025 6.23969818,0.125 6.49424364,0 C5.34878909,2 2.03969818,11.5 2.29424364,11.625 C2.54878909,11.75 3.69424364,11.375 4.58515273,11.625 C5.47606182,11.875 6.23969818,12.875 5.47606182,13.5 C4.83969818,14 1.14879291,13.75 0.639702,13.75 C0.00333892364,13.75 -0.123933345,13.5 0.130612364,12.5 C0.512430545,11.625 1.65788,2.125 1.65788,2 C3.43969818,2 -0.123933855,2 0.00333889818,2 C2.03969818,2.25 3.94878909,1.375 5.73060727,0.5000025 Z" id="path12_fill"></path>
                        </g>
                    </g>
                    <g id="Vector" transform="translate(26.727273, 52.500000)" fill="url(#radialGradient-2)">
                        <g id="path13_fill-link" transform="translate(0.916364, 0.162500)">
                            <path d="M4.55997818,0.838025 C4.30543273,1.213025 3.92361455,0.588025 3.66906909,0.463025 C3.41452364,0.338025 3.15997818,0.3380275 2.77816,0.3380275 C3.15997818,0.4630275 3.54179636,0.96302375 3.15997818,1.21302375 C2.39634182,1.963025 0.869074182,1.963025 0.105437182,1.21302375 C-0.149108909,0.96302375 0.105435655,0.713025 0.359980727,0.463025 C0.614526182,0.338025 0.996345636,0.21302625 1.25089109,0.0880265 C1.50543273,0.21302625 2.65088727,-0.16197375 3.54179636,0.0880265 C4.05088727,0.33802625 4.43270545,0.588025 4.55997818,0.838025 C4.68725091,0.838025 4.68725091,0.838025 4.55997818,0.838025 Z" id="path13_fill"></path>
                        </g>
                    </g>
                    <g id="Vector" transform="translate(20.363636, 33.750000)" fill="#A9272C">
                        <g id="path14_fill-link" transform="translate(1.145455, 1.125000)">
                            <path d="M1.01818182,0.25 C2.03636364,0.875 3.18181818,1.25 4.45454545,1.25 C7.50909091,1.5 10.8181818,1.75 13.6181818,0.125 C13.6181818,0.125 13.7454545,0.1249995 13.7454545,-4.768375e-07 C13.6181818,0.875 13.3636364,2.25 12.8545455,3.625 C12.6,4.5 12.0909091,5.375 11.7090909,6.25 C11.4545455,6.5 11.2,6.625 10.9454545,6.75 C9.16363636,7.75 7.25454545,8.5 5.21818182,8.25 L4.58181818,8.25 C4.32727273,7.625 4.07272727,7 3.69090909,6.375 C3.05454545,5.375 1.90909091,4.5 0.509092182,4.75 C0.381819455,4.75 0.127271709,4.875 -9.71013273e-07,5 C0.127271709,4 0.127272727,3 0.254545455,2.25 C0.381818182,1.25 0.509089636,0.5 0.636362364,-4.768375e-07 C0.763635091,-4.768375e-07 0.890909091,0.125 1.01818182,0.25 Z" id="path14_fill"></path>
                        </g>
                    </g>
                    <g id="Vector" transform="translate(24.181818, 35.000000)" fill="#CD3334">
                        <g id="path15_fill-link" transform="translate(0.763636, 0.875000)">
                            <path d="M7.50909091,2.125 C6.61818182,3.875 4.2,4.625 2.54545455,3.375 C2.29090909,3.125 2.16363636,3 1.90909091,2.75 L1.78181818,2.625 C1.01818182,2 0.381818182,1.125 0,0.25 C0.254545455,0.25 0.636364909,0.375 0.890910364,0.375 C3.43636364,0.625 6.10909091,0.87500125 8.52727273,9.5367375e-07 C8.4,0.50000125 8.27272727,0.99999875 8.01818182,1.375 C7.89090909,1.5 7.63636364,1.75 7.50909091,2.125 Z" id="path15_fill"></path>
                        </g>
                    </g>
                    <g id="Vector" transform="translate(34.363636, 21.250000)" fill="#F1D0AF">
                        <g id="path16_fill-link" transform="translate(0.585455, 0.820000)">
                            <path d="M0.0565652182,0.0555565 C0.0565652182,0.0555565 -0.0707075091,-0.0694435 0.0565652182,0.0555565 Z" id="path16_fill"></path>
                        </g>
                    </g>
                    <g id="Vector" transform="translate(21.636364, 17.500000)" fill="#F1D0AF">
                        <g id="path17_fill-link" transform="translate(0.381818, 1.125000)">
                            <path d="M0.763635091,10.625 C0.763635091,10.25 0.763635091,9.75 0.763635091,8.875 C1.78181818,5.625 3.81818182,2.625 6.61818182,0.25 C9.29090909,0.125 11.7090909,-4.768375e-07 11.7090909,-4.768375e-07 C11.7090909,-4.768375e-07 11.7090909,0.125 11.8363636,0.125 L11.8363636,0.25 C11.7090909,0.25 11.7090909,0.25 11.5818182,0.25 C12.0909091,1.25 12.4727273,2.75 12.8545455,3.875 C12.9818182,4.625 13.2363636,6.375 13.2363636,7.75 C13.2363636,8.5 13.2363636,9 13.2363636,9.375 C13.4909091,13.375 13.6181818,12.75 13.2363636,15.25 C13.2363636,15.5 13.2363636,15.5 13.1090909,16.25 C13.1090909,16.25 12.9818182,16.25 12.9818182,16.375 C10.1818182,18.125 6.87272727,17.875 3.81818182,17.5 C2.67272727,17.375 1.52727273,17.125 0.381818182,16.5 C0.254545455,16.375 0.127274,16.25 9.71013273e-07,16.125 C0.127274,15.625 0.127272218,15.375 0.254545455,15.125 L0.763635091,10.625 Z" id="path17_fill"></path>
                        </g>
                    </g>
                    <g id="Vector" transform="translate(12.727273, 18.750000)" fill="#D39D7B">
                        <g id="path18_fill-link" transform="translate(0.534545, 0.125000)">
                            <path d="M0.232103455,6.75 C1.37756182,3 6.97756182,0.875 8.75938,0.5 C9.65028909,0.25 12.7048345,0.125 15.5048727,4.768375e-07 C12.5775618,2.375 10.6684709,5.5 9.65028909,8.625 L9.65028909,8.5 C9.52301636,7.125 9.26847091,4.625 9.26847091,4.625 C9.26847091,4.625 4.43210727,5.625 2.90483455,7.75 C1.37756182,9.875 3.03210727,12.375 4.68665273,13.125 C6.34119818,13.875 8.50483455,12.875 8.63210727,12.75 C8.75938,12.625 8.63210727,12.375 8.63210727,11.625 C8.63210727,10.875 9.52301636,10.625 9.52301636,10.625 C9.52301636,10.625 10.15938,10.125 10.5411982,10.625 C10.7957436,10.625 10.9230164,11.5 10.9230164,11.5 C10.9230164,11.5 11.55938,11.625 11.6866527,11.875 C12.3230164,12.625 11.3048345,13 11.3048345,13 C12.0684709,13 12.0684709,13.625 11.9411982,14 C11.55938,14.5 10.7957436,14.625 9.90483455,14.75 L9.26847091,14.75 C9.26847091,14.75 8.37756182,14.875 5.45028909,14.5 C2.39574364,14 -0.913351091,10.625 0.232103455,6.75 Z" id="path18_fill"></path>
                        </g>
                    </g>
                    <g id="Vector" transform="translate(33.090909, 18.750000)" fill="#D39D7B">
                        <g id="path19_fill-link" transform="translate(0.725455, 0.250000)">
                            <path d="M0.549016365,10.625 C0.549016365,10.625 0.676289092,10.25 0.549016365,9.875 C1.18538,9.25 1.56719818,9.5 1.56719818,9.5 C1.56719818,9.5 2.58538,9.625 2.71265273,10.5 C2.96719818,11.25 2.20356182,12.375 2.71265273,12.625 C3.22174364,12.75 4.87628909,12.125 5.51265273,9.625 C6.14901636,7.125 5.00356182,5.375 3.47628909,4.375 C2.45810727,3.625 1.43992546,3.625 1.05810727,3.5 C1.05810727,3.25 1.05810727,3.125 1.05810727,3.125 C0.676289092,2 0.42174491,1 0.0399264737,-2.3841875e-07 C0.930835819,0.12499975 3.85810727,0.875 5.38538,2.75 C7.16719818,5 7.54901636,8.75 6.27628909,11.25 C5.00356182,13.75 3.34901636,14.125 2.58538,14.125 C1.82174364,14.25 1.69447091,14.25 1.69447091,14.25 C1.69447091,14.25 0.930837092,14.125 0.930837092,14.25 C0.294473456,14 0.42174491,13.875 0.167199456,13.5 C-0.0873457444,13.125 -0.0873471444,12.625 0.421743637,12.25 C0.421743637,12.25 -0.0873462535,11.5 0.0399264737,11.25 C0.0399264737,11 0.29447091,10.875 0.549016365,10.625 Z" id="path19_fill"></path>
                        </g>
                    </g>
                    <g id="Vector" transform="translate(33.090909, 18.750000)" fill="#F1D0AF">
                        <g id="path20_fill-link" transform="translate(0.636364, 0.125000)">
                            <path d="M1.27272727,3.25 C1.27272727,3.25 1.27272727,3.375 1.27272727,3.625 C0.890909091,2.5 0.509090909,1 -4.85507273e-07,4.768375e-07 C-4.85507273e-07,4.768375e-07 0.127272727,4.768375e-07 0.254545455,4.768375e-07 C0.636363636,1 0.763636364,2.125 1.27272727,3.25 C1.27272727,3.25 1.14545455,3.125 1.27272727,3.25 Z" id="path20_fill"></path>
                        </g>
                    </g>
                    <g id="Vector" transform="translate(33.090909, 27.500000)" fill="#F1D0AF">
                        <g id="path21_fill-link" transform="translate(0.916364, 1.125000)">
                            <path d="M1.37519455,2.75 C0.993372545,2.25 -0.152084545,2.125 0.229733636,1.375 C0.484279091,0.875 1.24791673,1.25 1.75701273,1.25 C1.37519455,0.875 0.611553091,0.5 1.120644,0.125 C1.24791673,1.05879118e-22 1.247918,-4.768375e-07 1.37519455,-4.768375e-07 C1.37519455,-4.768375e-07 2.01155818,0.1249995 2.39337636,0.625 C2.39337636,0.875 2.39337636,1.25 2.39337636,1.5 C2.26610364,2 2.13883091,2.5 2.13883091,3 C2.26610364,3.875 1.24791673,4.125 0.484280364,3.875 C0.102462309,3.75 -0.152082,3.375 0.102463327,3 C0.484281636,2.5 0.993372545,2.5 1.37519455,2.75 Z" id="path21_fill"></path>
                        </g>
                    </g>
                    <g id="Vector" transform="translate(21.636364, 28.750000)" fill="#F1D0AF">
                        <g id="path22_fill-link" transform="translate(0.254545, 0.625000)">
                            <path d="M4.85507273e-07,1.125 C4.85507273e-07,0.375 0.890907818,0.125 0.890907818,0.125 C0.890907818,0.125 0.890907818,0.125 0.890907818,3.55271e-15 C1.14545327,3.55271e-15 1.4,9.49948749e-07 1.52727273,0.25000125 C1.78181818,0.50000125 1.4,1 1.27272727,1.25 C1.78181818,1.125 2.54545455,1.00000125 2.8,1.5 C3.05454545,2 2.41818182,2.25 2.03636364,2.5 C2.41818182,2.5 3.18181818,2.875 2.8,3.25 C2.41818182,3.5 2.03636364,3.625 1.65454545,3.625 C1.52727273,3.625 1.52727273,3.5 1.4,3.5 C1.01818309,3 0.381818182,2.5 4.85507273e-07,2 C4.85507273e-07,1.75 4.85507273e-07,1.5 4.85507273e-07,1.125 Z" id="path22_fill"></path>
                        </g>
                    </g>
                    <g id="Vector" transform="translate(24.181818, 22.500000)" fill="url(#radialGradient-4)">
                        <g id="path23_fill-link" transform="translate(0.000000, 0.875000)">
                            <path d="M0.890909091,9.25 C0.890909091,9.125 0.763636364,9 0.636363636,8.875 C0.763636364,8.75 1.01818309,8.625 1.01818309,8.375 C1.27272727,7.75 0.763636364,7.125 0.127272727,7 C0.127272727,6.75 -4.85507273e-07,6.625 -4.85507273e-07,6.5 C0.127272218,4.5 0.763636364,2.625 2.16363636,1 C2.16363636,0.875 2.29090909,0.87499875 2.41818182,0.74999875 C2.54545455,0.87499875 2.8,1 2.92727273,1.125 C4.07272727,1.75 5.47272727,2.25 6.74545455,1.375 C7.25454545,0.99999875 7.50909091,0.50000125 7.63636364,9.5367375e-07 C8.65454545,0.37500125 9.41818182,1.12499875 9.92727273,2 C10.4363636,2.875 10.6909091,3.875 10.6909091,4.875 C10.4363636,4.875 10.3090909,5 10.0545455,5.25 C9.8,5.5 9.67272727,5.875 9.8,6.125 C9.41818182,6.375 9.16363636,6.875 9.29090909,7.25 C9.41818182,7.375 9.41818182,7.625 9.54545455,7.75 C8.90909091,8.125 9.03636364,9.25 9.41818182,9.875 C9.67272727,10.25 9.92727273,10.375 10.1818182,10.5 C10.0545455,11 9.92727273,11.375 9.67272727,11.75 C9.54545455,11.875 9.54545455,12 9.41818182,12.125 C6.87272727,13.125 4.2,12.875 1.52727273,12.625 C1.27272727,12.625 1.14545455,12.625 0.890909091,12.5 C0.381818182,11.875 0.127272218,11.25 -4.85507273e-07,10.5 C-4.85507273e-07,10.5 0.127272727,10.5 0.127272727,10.375 C0.890909091,10.375 1.01818182,9.75 0.890909091,9.25 Z" id="path23_fill"></path>
                        </g>
                    </g>
                    <g id="Vector" transform="translate(34.363636, 18.750000)" fill="#F1D0AF">
                        <g id="path24_fill-link" transform="translate(0.890909, 0.625000)">
                            <path d="M0.254544182,0.75 C0.127271709,0.625 4.85507273e-07,0.5 4.85507273e-07,0.25 C4.85507273e-07,0.12499975 4.85507273e-07,-1.77636e-15 0.127274,-1.77636e-15 C1.4,0.375 2.92727273,1.125 3.94545455,2.375 C4.45454545,3.125 4.96363636,4 5.21818182,5 C4.70909091,4.25 4.2,3.5 3.69090909,2.875 C2.8,1.625 1.52727273,1.375 0.254544182,0.75 Z" id="path24_fill"></path>
                        </g>
                    </g>
                    <g id="Vector" opacity="0.34" transform="translate(35.636364, 25.000000)" fill="#F1D0AF">
                        <g id="path25_fill-link" transform="translate(0.763636, 0.875000)">
                            <path d="M2.92727273,2.75 C3.18181818,1.625 3.05454545,0.75000125 2.8,9.5367375e-07 C3.56363636,0.75000125 3.81818182,2 3.56363636,3 C3.18181818,4.375 2.67272727,5.875 1.27272727,6.5 C0.890909091,6.625 0.509092182,6.75 0.254546727,6.375 C0.127274,6.125 0.127272727,6 0,5.75 C0,5.75 0.127272727,5.75 0.127272727,5.875 C0.763636364,5.875 2.41818182,5.25 2.92727273,2.75 Z" id="path25_fill"></path>
                        </g>
                    </g>
                    <g id="Vector" opacity="0.34" transform="translate(15.272727, 28.750000)" fill="#F1D0AF">
                        <g id="path26_fill-link" transform="translate(0.381818, 0.750000)">
                            <path d="M2.29090909,2.5 C3.94545455,3.25 5.98181818,2.25 6.23636364,2.125 C6.36363636,2.375 6.49090909,2.625 6.36363636,2.875 C5.21818182,3.375 3.81818182,3.375 2.54545455,3.125 C1.4,2.875 0.636363636,2 0.254545455,0.87499875 C0.127272218,0.62499875 0.127272473,0.25 -2.42753636e-07,4.768375e-07 C0.509090909,1.25 1.4,2.125 2.29090909,2.5 Z" id="path26_fill"></path>
                        </g>
                    </g>
                    <g id="Vector" transform="translate(12.727273, 20.000000)" fill="#F1D0AF">
                        <g id="path27_fill-link" transform="translate(0.483636, 1.000000)">
                            <path d="M0.286363636,4.625 C0.922727273,2.625 2.70454545,1.12499875 4.61363636,-9.5367375e-07 C4.99545455,0.124999 5.25,0.25000125 5.50454545,0.50000125 C5.75909091,0.87500125 5.88636364,1.375 5.63181818,1.625 C3.34090909,3.25 1.17727273,4.625 0.540909091,7.375 C0.540909091,7.5 0.413636364,7.625 0.286363636,7.625 C-0.0954545455,6.875 -0.0954545455,5.75 0.286363636,4.625 Z" id="path27_fill"></path>
                        </g>
                    </g>
                    <g id="Vector" transform="translate(20.363636, 38.750000)" fill="#F1D0AF">
                        <g id="path28_fill-link" transform="translate(0.763636, 0.707500)">
                            <path d="M4.07272727,1.79295 C4.45454545,2.41795 4.70909091,3.16795 4.83636364,3.79295 C4.70909091,4.16795 4.83636364,13.418 4.83636364,13.418 C4.83636364,13.418 5.21818182,13.668 5.09090909,14.543 C4.96363636,15.418 5.09090909,15.543 3.69090909,15.543 C2.41818182,15.543 0,15.668 0,15.418 C0,15.168 0.127272727,13.418 0.763636364,13.293 C1.4,13.168 1.52727273,13.418 1.52727273,13.418 C1.52727273,13.418 1.65454545,13.043 1.90909091,12.793 C2.29090909,12.668 2.29090909,12.668 2.29090909,12.668 C2.29090909,12.668 0.127274,2.54295 0.254546727,0.29295125 C0.381819455,0.16795125 0.636363636,0.04295275 0.763636364,0.04295275 C2.16363636,-0.2070475 3.30909091,0.6679525 4.07272727,1.79295 Z" id="path28_fill"></path>
                        </g>
                    </g>
                    <g id="Vector" transform="translate(20.363636, 51.250000)" fill="url(#radialGradient-6)">
                        <g id="path29_fill-link" transform="translate(0.890909, 1.000000)">
                            <path d="M0.763637636,0.62499875 C1.4,0.49999875 1.52727273,0.7500025 1.52727273,0.7500025 C1.52727273,0.7500025 1.65454545,0.3750025 1.90909091,0.1250025 C2.29090909,1.9092125e-06 2.29090909,-9.5367375e-07 2.29090909,-9.5367375e-07 L2.41818182,-9.5367375e-07 C2.8,0.124999 3.43636364,0.2500025 3.30909091,0.7500025 C3.69090909,0.2500025 4.2,0.37500125 4.70909091,0.50000125 C4.70909091,0.50000125 5.09090909,0.75 4.96363636,1.5 C4.83636364,1.625 4.83636364,1.625 4.70909091,1.625 C4.32727273,1.75 3.81818182,1.375 3.43636364,1.24999875 C3.05454545,1.12499875 2.54545455,1.75 2.03636364,1.625 C1.65454545,1.5 1.4,1.375 1.27272727,0.9999975 C1.01818182,1.375 0.636362364,1.5 0.254544182,1.375 C0.127271709,1.375 0.127272727,1.375 4.85507273e-07,1.375 C0.127272727,1.1250025 0.381819455,0.62499875 0.763637636,0.62499875 Z" id="path29_fill"></path>
                        </g>
                    </g>
                    <g id="Vector" transform="translate(1.272727, 15.000000)" fill="#CD3334">
                        <g id="path30_fill-link" transform="translate(0.127273, 0.006250)">
                            <path d="M32.8391636,3.4933375 C32.8391636,3.6183375 32.8391636,5.7433375 31.1846182,6.9933375 C29.5300727,8.2433375 25.9664364,8.6183375 22.9118909,7.6183375 C19.8573455,6.6183375 17.8209818,5.6183375 15.0209818,5.2433375 C12.2210073,4.8683375 9.29373455,2.3683375 6.62100727,1.6183375 C4.07555273,0.8683375 -0.124445872,0.49333625 0.00282680406,0.49333625 C0.130099455,0.36833625 2.54828,-0.2566625 5.34828,0.118337375 C8.14828,0.4933375 11.4573709,1.6183375 14.1300727,2.8683375 C16.9300727,3.9933375 18.8391636,3.7433375 18.8391636,3.7433375 L32.8391636,3.4933375 Z" id="path30_fill"></path>
                        </g>
                    </g>
                    <g id="Vector" transform="translate(25.454545, 20.000000)" fill="#D4B53F">
                        <g id="path31_fill-link" transform="translate(1.260000, 0.625000)">
                            <path d="M4.98046182,0 C4.98046182,0.125 6.12591636,2 4.85318909,3.5 C3.58046182,5 0.144102,4 0.0168290182,2.25 C-0.110443709,0.49999875 0.525918909,0.25000125 0.525918909,0.25000125 L4.98046182,0 Z" id="path31_fill"></path>
                        </g>
                    </g>
                    <g id="Vector" transform="translate(26.727273, 21.250000)" fill="#E2DE3A">
                        <g id="path32_fill-link" transform="translate(0.789091, 0.000000)">
                            <path d="M0.0954550545,0.75 C1.49545455,0.75 3.27727273,0.75 4.55,0 C4.67727273,0.5 4.80454545,1.125 4.55,1.875 C4.29545455,2.375 3.91363636,2.75 3.40454545,3 C2.38636364,3.375 0.986363636,3.125 0.477272727,2.125 C0.222727273,1.75 -0.0318176727,1.25 0.0954550545,0.75 C-0.0318176727,0.75 -0.0318176727,0.75 0.0954550545,0.75 Z" id="path32_fill"></path>
                        </g>
                    </g>
                    <g id="Vector" transform="translate(15.272727, 1.250000)" fill="url(#radialGradient-8)">
                        <g id="path33_fill-link" transform="translate(0.992727, 0.620000)">
                            <path d="M17.9654364,3.0052875 C16.9472545,2.0052875 13.5108909,-0.119717001 10.2018382,0.00528302446 C6.89274727,0.255282499 3.96547455,2.1302875 2.18365636,4.5052875 C0.401833091,7.0052875 -0.489076,9.5052875 0.274560364,13.00525 C1.16546945,16.38025 4.34729273,19.13025 9.18365636,19.75525 C14.1472545,20.38025 18.4745273,18.25525 20.6381636,14.63025 C22.8018,11.0052875 21.0199818,7.1302875 20.2563455,5.6302875 C19.4927091,4.2552875 17.9654364,3.0052875 17.9654364,3.0052875 Z" id="path33_fill"></path>
                        </g>
                    </g>
                    <g id="Vector" transform="translate(22.909091, 1.250000)" fill="#F1D0AF">
                        <g id="path34_fill-link" transform="translate(0.000000, 0.611250)">
                            <path d="M8.90909091,2.138725 C8.78181818,2.638725 8.14545455,2.888725 7.63636364,2.888725 C5.34545455,3.138725 2.92727273,2.888725 0.890909091,1.888725 C0.509090909,1.638725 0.127272218,1.263725 -4.85507273e-07,0.88873 C1.14545455,0.38873 2.29090909,0.13873 3.56363636,0.013730125 C5.47272727,-0.111269875 7.50909091,0.63873 9.03636364,1.388725 C9.03636364,1.638725 9.03636364,1.888725 8.90909091,2.138725 Z" id="path34_fill"></path>
                        </g>
                    </g>
                    <g id="Vector" transform="translate(34.363636, 12.500000)" fill="#F3DCA8">
                        <g id="path35_fill-link" transform="translate(0.890909, 1.000000)">
                            <path d="M0.127274,2.3841875e-07 L4.85507273e-07,2.3841875e-07 L0.127274,2.3841875e-07 Z" id="path35_fill"></path>
                        </g>
                    </g>
                    <g id="Vector" transform="translate(31.818182, 13.750000)" fill="#F1D0AF">
                        <g id="path36_fill-link" transform="translate(0.050909, 0.951250)">
                            <path d="M0.591510182,0.17423375 C1.48242182,-0.075765875 2.50060364,-0.075765375 3.26424,0.299235 C3.39151273,0.299235 3.51878545,0.424235 3.39151273,0.674235 C3.39151273,0.674235 3.39151273,0.67423375 3.39151273,0.79923375 C2.24605818,0.92423375 1.10060109,1.2992375 0.0824192731,0.79923375 C-0.172126181,0.54923375 0.209692,0.29923375 0.591510182,0.17423375 Z" id="path36_fill"></path>
                        </g>
                    </g>
                    <g id="Vector" transform="translate(29.272727, 11.250000)" fill="#F1D0AF">
                        <g id="path37_fill-link" transform="translate(0.992727, 0.227500)">
                            <path d="M2.69585273,0.0229705 C3.84130727,-0.1020295 5.36858,0.27297125 5.87767091,1.397975 C6.00494364,1.772975 5.62312545,1.897975 5.36858,2.022975 C5.24130727,2.022975 5.24130727,2.022975 5.11403455,2.022975 C5.24130727,2.022975 5.24130727,1.897975 5.36858,1.897975 C5.24130727,1.897975 5.24130727,2.022975 5.11403455,2.022975 L4.98676182,2.022975 C3.96858,1.522975 2.95039818,1.772975 1.93221636,2.022975 C1.29585273,2.272975 0.150398182,2.272975 0.0231248182,1.647975 C-0.23142,0.39797125 1.67767091,0.14797 2.69585273,0.0229705 Z" id="path37_fill"></path>
                        </g>
                    </g>
                    <g id="Vector" transform="translate(15.272727, 3.750000)" fill="#CD3334">
                        <g id="path38_fill-link" transform="translate(0.636364, 0.466250)">
                            <path d="M18.333,0.28336 C18.2057273,0.28336 18.0784545,0.0333605 17.8239091,0.53336 C17.4420909,1.03336 16.9331273,1.9083625 13.8784545,0.90836 C10.8239727,-0.0916395 5.22397273,-0.59163875 3.31488182,1.15836125 C1.40579091,2.9083625 0.769427273,4.1583625 0.387609091,5.5333625 C0.00579122727,6.9083625 -0.248754545,9.0333625 0.387609091,9.2833625 C1.02397273,9.5333625 5.60579091,11.0333625 9.16942727,9.7833625 C12.7331273,8.5333625 15.7876727,6.5333625 17.5694909,6.4083625 C19.2240364,6.4083625 21.7694909,7.4083625 22.0240364,6.7833625 C22.2785818,6.1583625 21.3876727,2.9083625 18.333,0.28336 Z" id="path38_fill"></path>
                        </g>
                    </g>
                    <g id="Vector" transform="translate(21.636364, 5.000000)" fill="#A9272C">
                        <g id="path39_fill-link" transform="translate(0.929091, 0.563750)">
                            <path d="M12.6836055,0.93566 C12.5563327,1.06066 12.3017873,1.06066 12.1745145,1.18566 C12.0472418,1.18566 11.9199691,1.3106625 11.9199691,1.3106625 C11.5381509,1.5606625 11.4108782,1.8106625 11.4108782,2.1856625 C11.5381509,2.6856625 11.9199691,3.0606625 12.1745145,3.3106625 C12.3017873,3.4356625 12.3017873,3.6856625 12.0472418,3.5606625 C11.02906,3.3106625 10.0108655,3.5606625 9.11995636,3.6856625 C9.24722909,2.9356625 10.2654236,3.4356625 10.7745145,2.9356625 C10.7745145,2.8106625 10.7745145,2.6856625 10.6472418,2.6856625 C9.37451455,2.4356625 8.35633273,2.9356625 7.33815091,3.5606625 C6.31995636,4.0606625 5.55633273,5.1856625 4.28360545,4.9356625 C4.15633273,4.9356625 4.02906,4.8106625 3.90178727,4.8106625 C3.90178727,3.9356625 3.90178727,2.9356625 3.26542364,2.1856625 C2.50178727,1.3106625 1.22905364,1.3106625 0.210871818,1.4356625 C-0.0436740182,1.4356625 -0.0436721091,1.18566 0.0836006182,1.06066 C0.338145818,0.68566 0.59269,0.43566 1.10178091,0.31066 C4.02906,-0.43934 6.70178727,0.31066 9.50178727,1.06066 C10.2654236,1.18566 11.0290473,1.06066 11.6654109,0.43566 C11.9199564,0.18566 12.42906,0.31066 12.6836055,0.43566 C12.6836055,0.56066 12.8108909,0.81066 12.6836055,0.93566 Z" id="path39_fill"></path>
                        </g>
                    </g>
                    <g id="Vector" transform="translate(15.272727, 10.000000)" fill="#8F2328">
                        <g id="path40_fill-link" transform="translate(0.763636, 0.312500)">
                            <path d="M15.0181818,0.6875 C16.6727273,-0.3125 18.5818182,-0.0624995 20.3636364,0.4375 C20.8727273,0.5625 21.3818182,0.6875 21.8909091,0.4375 C21.8909091,0.5625 21.8909091,0.6875 21.8909091,0.8125 C21.6363636,1.4375 19.2181818,0.4375 17.4363636,0.4375 C15.7818182,0.4375 12.6,2.5625 9.03636364,3.8125 C5.47272727,5.0625 1.01818182,3.5625 0.254545455,3.3125 C0.127272473,3.3125 -1.77636e-15,3.0625 -1.77636e-15,2.9375 C0.890909091,3.3125 1.78181818,3.5625 2.8,3.6875 C7.12727273,4.1875 11.2,2.9375 15.0181818,0.6875 Z" id="path40_fill"></path>
                        </g>
                    </g>
                    <g id="Vector" transform="translate(31.818182, 11.250000)" fill="#401B14">
                        <g id="path41_fill-link" transform="translate(1.018182, 0.167500)">
                            <path d="M1.14545455,1.33245 C2.03636364,1.45745 3.18181818,0.332445 2.16363636,0.082445375 C1.27272727,-0.167555 0.127274,0.207445 9.71013273e-07,0.457445 C9.71013273e-07,0.832445 0.127272727,1.207445 1.14545455,1.33245 Z" id="path41_fill"></path>
                        </g>
                    </g>
                    <g id="Vector" transform="translate(21.636364, 6.250000)" fill="url(#radialGradient-10)">
                        <g id="path42_fill-link" transform="translate(1.145455, 0.250000)">
                            <path d="M2.8,5.5 C4.34640182,5.5 5.6,4.2687875 5.6,2.75 C5.6,1.2312175 4.34640182,0 2.8,0 C1.25360327,0 0,1.2312175 0,2.75 C0,4.2687875 1.25360327,5.5 2.8,5.5 Z" id="path42_fill"></path>
                        </g>
                    </g>
                    <g id="Vector" transform="translate(22.909091, 7.500000)" fill="#401B14">
                        <g id="path43_fill-link" transform="translate(2.668527, 1.757375) rotate(-23.604115) translate(-2.668527, -1.757375) translate(1.395847, 0.507421)">
                            <path d="M0.763608051,1.74993512 C1.18533732,1.74993512 1.5272161,1.35819964 1.5272161,0.874967559 C1.5272161,0.391736726 1.18533732,0 0.763608051,0 C0.341878779,0 0,0.391736726 0,0.874967559 C0,1.35819964 0.341878779,1.74993512 0.763608051,1.74993512 Z" id="path43_fill"></path>
                        </g>
                    </g>
                    <g id="Vector" transform="translate(33.090909, 6.250000)" fill="url(#radialGradient-12)">
                        <g id="path44_fill-link" transform="translate(0.445455, 0.202500)">
                            <path d="M0.314132,2.2972875 C-0.194958909,1.5472875 -0.0676852909,0.5472875 0.568678727,0.1722875 C1.20504236,-0.2027125 2.09595273,0.047286875 2.60504364,0.7972875 C3.11413455,1.5472875 2.98686182,2.5472875 2.35049818,2.9222875 C1.71413455,3.2972875 0.823222909,3.0472875 0.314132,2.2972875 Z" id="path44_fill"></path>
                        </g>
                    </g>
                    <g id="Vector" transform="translate(33.090909, 6.250000)" fill="#401B14">
                        <g id="path45_fill-link" transform="translate(1.790855, 1.927625) rotate(-45.234983) translate(-1.790855, -1.927625) translate(1.154492, 1.302626)">
                            <path d="M0.381819004,1.24999852 C0.592690573,1.24999852 0.763635463,0.970176355 0.763635463,0.624999262 C0.763635463,0.27982092 0.592690573,0 0.381819004,0 C0.170946162,0 0,0.27982092 0,0.624999262 C0,0.970176355 0.170946162,1.24999852 0.381819004,1.24999852 Z" id="path45_fill"></path>
                        </g>
                    </g>
                    <g id="Vector" transform="translate(28.000000, 12.500000)" fill="#401B14">
                        <g id="path46_fill-link" transform="translate(0.178182, 0.875000)">
                            <path d="M0.0761192716,-2.3841875e-07 C0.0761192716,-2.3841875e-07 0.203391999,-2.3841875e-07 0.0761192716,-2.3841875e-07 C0.203391999,0.12499975 0.330663453,0.25 0.330663453,0.375 C0.330663453,0.5 0.585210181,0.5 0.712482908,0.5 C1.09430109,0.625 1.47612182,0.625 1.85794,0.625 C2.62157636,0.625 3.38521273,0.625 4.14884909,0.625 C4.91248545,0.625 5.67612182,0.625 6.43975818,0.625 C6.82157636,0.625 7.20339454,0.625 7.58521273,0.5 C7.71248545,0.5 7.96703091,0.5 8.09430364,0.375 C8.22157636,0.25 8.09430364,0.12499975 8.09430364,-2.3841875e-07 L8.22157636,-2.3841875e-07 C8.22157636,0.12499975 8.34884909,0.25 8.34884909,0.375 C8.34884909,0.5 8.22157636,0.625 8.09430364,0.625 C7.71248545,0.75 7.33066727,0.875 6.94884909,0.875 C6.05794,1 5.16703091,0.875 4.40339454,0.875 C3.51248545,0.875 2.62157636,0.875 1.73066727,0.875 C1.34884909,0.875 0.967028363,0.875 0.585210181,0.75 C0.457937453,0.75 0.330663453,0.625 0.330663453,0.375 C-0.0511548557,0.375 -0.0511534557,0.12499975 0.0761192716,-2.3841875e-07 Z" id="path46_fill"></path>
                        </g>
                    </g>
                    <g id="Vector" transform="translate(22.909091, 28.750000)" fill="#763421">
                        <g id="path47_fill-link" transform="translate(0.178182, 0.500000)">
                            <path d="M0.201659818,-4.768375e-07 C0.456205273,-4.768375e-07 0.583478,0 0.838023455,0.125 C1.09256891,0.25 1.09256764,0.625 1.21984036,0.75 C1.21984036,0.875 1.21984036,0.99999875 1.21984036,1.12499875 C1.21984036,1.12499875 1.21984036,1.12499875 1.34711818,1.12499875 C1.60166364,1.12499875 1.98348182,1.125 2.23802727,1.5 C2.3653,1.75 2.3653,2.125 2.23802727,2.375 C2.23802727,2.5 2.11075455,2.625 1.98348182,2.75 C2.49257273,2.875 2.61984545,3.5 2.23802727,3.875 C1.98348182,4.125 1.72893636,4.25 1.47439091,4.25 C1.09256891,4.375 0.710748182,4.375 0.32893,4.375 C0.838020909,4.375 1.47439091,4.25 1.98348182,4 C2.23802727,3.875 2.3653,3.625 2.3653,3.375 C2.3653,3.125 2.11075455,3 1.85620909,2.875 C1.85620909,2.875 1.72893636,2.875 1.60166364,2.875 C1.72893636,2.75 1.72893636,2.75 1.85620909,2.75 C1.98348182,2.75 1.98348182,2.625 2.11075455,2.5 C2.23802727,2.25 2.3653,2 2.11075455,1.75 C1.85620909,1.5 1.60166364,1.5 1.34711818,1.625 C1.21984036,1.625 1.09256764,1.625 1.09256764,1.75 C0.965294909,1.75 0.965296182,1.875 0.838023455,1.875 C0.838023455,1.875 0.838023455,1.875 0.838023455,1.75 C0.838023455,1.625 0.965294909,1.625 1.09256764,1.625 C1.21984036,1.625 1.21984036,1.625 1.34711818,1.5 C1.47439091,1.25 1.34711818,0.75 1.09256764,0.625 C0.965294909,0.5 0.456202727,0.37499875 0.32893,0.49999875 L0.201659818,0.49999875 C-0.180158364,-9.68575e-07 0.0743867091,-4.768375e-07 0.201659818,-4.768375e-07 Z" id="path47_fill"></path>
                        </g>
                    </g>
                    <g id="Vector" transform="translate(33.090909, 27.500000)" fill="#763421">
                        <g id="path48_fill-link" transform="translate(0.254545, 0.953750)">
                            <path d="M0.763637636,2.796875 C0.636364909,2.671875 0.509090909,2.546875 0.381818182,2.421875 C0.254545455,2.171875 0.254545455,1.796875 0.381818182,1.546875 C0.509090909,1.296875 0.636362364,1.296875 0.890907818,1.17187625 L0.890907818,1.046875 C0.890907818,0.921875 0.890909091,0.671875 1.01818182,0.421875 C1.14545455,0.0468755 1.65454545,-0.078126 1.90909091,0.046874 C1.65454545,0.17187375 1.4,0.046875 1.14545455,0.296875 C1.01818182,0.421875 1.01818182,0.54687375 1.01818182,0.67187375 C1.01818182,0.79687375 1.01818182,0.796875 1.01818182,0.921875 L1.01818182,1.046875 C1.01818182,1.046875 1.01818182,1.04687625 1.01818182,1.17187625 L1.14545455,1.17187625 C1.4,1.17187625 1.52727273,1.17187375 1.78181818,1.296875 C1.90909091,1.296875 1.90909091,1.421875 2.03636364,1.421875 C2.16363636,1.421875 2.16363636,1.546875 2.29090909,1.546875 C2.16363636,1.546875 2.16363636,1.546875 2.03636364,1.421875 C1.90909091,1.296875 1.78181818,1.296875 1.52727273,1.296875 C1.4,1.296875 1.27272727,1.296875 1.14545455,1.296875 C1.14545455,1.296875 1.14545455,1.296875 1.01818182,1.296875 C0.890909091,1.296875 0.763636364,1.296875 0.636363636,1.421875 C0.381818182,1.546875 0.381818182,1.796875 0.509090909,2.046875 C0.509090909,2.171875 0.636364909,2.296875 0.763637636,2.421875 C0.890910364,2.546875 1.01818182,2.546875 1.01818182,2.546875 C1.14545455,2.546875 1.27272727,2.546875 1.4,2.546875 C1.52727273,2.546875 1.65454545,2.546875 1.78181818,2.671875 C1.90909091,2.671875 2.03636364,2.796875 2.03636364,2.796875 C1.90909091,2.796875 1.90909091,2.796875 1.78181818,2.796875 C1.65454545,2.796875 1.52727273,2.796875 1.4,2.796875 C1.14545582,2.796875 1.01818309,2.796875 0.763637636,2.796875 C0.381819455,2.921875 0.127274,3.046875 0.127274,3.421875 C0.127274,3.796875 0.381818182,4.046875 0.636363636,4.296875 C0.890909091,4.546875 1.27272727,4.671875 1.65454545,4.671875 C1.78181818,4.671875 1.78181818,4.671875 1.78181818,4.796875 C1.78181818,4.796875 1.78181818,4.796875 1.65454545,4.796875 C1.4,4.796875 1.27272727,4.796875 1.01818182,4.671875 C0.763636364,4.546875 0.636363636,4.546875 0.509090909,4.421875 C0.127272727,4.171875 4.85507273e-07,3.796875 4.85507273e-07,3.421875 C0.127272727,3.171875 0.381819455,2.921875 0.763637636,2.796875 Z" id="path48_fill"></path>
                        </g>
                    </g>
                    <g id="Vector" transform="translate(34.363636, 18.750000)" fill="#763421">
                        <g id="path49_fill-link" transform="translate(0.127273, 1.000000)">
                            <path d="M0,2.3841875e-07 C0.254545455,0.5 0.381818182,0.875 0.509090909,1.375 C0.636363636,1.625 0.636363636,1.875 0.636363636,2 C0.636363636,2.125 0.763636364,2.25 0.636363636,2.375 L0.509090909,2.375 C0.509090909,2.25 0.509089636,2.125 0.381816909,2 C0.381816909,1.75 0.254546727,1.625 0.254546727,1.375 C0.127274,0.875 0,0.5 0,2.3841875e-07 Z" id="path49_fill"></path>
                        </g>
                    </g>
                    <g id="Vector" transform="translate(21.636364, 22.500000)" fill="#763421">
                        <g id="path50_fill-link" transform="translate(0.636364, 0.750000)">
                            <path d="M0.127272727,0.12500125 C0.254545455,0.12500125 0.381816909,0.125 0.509089636,4.768375e-07 C0.763635091,4.768375e-07 1.14545455,4.768375e-07 1.4,4.768375e-07 C1.14545455,4.768375e-07 0.890909091,0.12500125 0.636363636,0.12500125 C0.509090909,0.12500125 0.381818182,0.12500125 0.254545455,0.12500125 L0.127272727,0.12500125 C0.127272727,0.12500125 1.05879118e-22,0.12500125 0.127272727,0.12500125 C0.127272727,0.12500125 0.127272218,0.12500125 -4.85507273e-07,0.12500125 C-4.85507273e-07,0.25000125 0.127272727,0.25000125 0.127272727,0.12500125 Z" id="path50_fill"></path>
                        </g>
                    </g>
                    <g id="Vector" transform="translate(22.909091, 51.250000)" fill="#763421">
                        <g id="path51_fill-link" transform="translate(0.763636, 1.073750)">
                            <path d="M0,0.051778625 C0.127272727,-0.073221375 0.509090909,0.05177675 0.636363636,0.17677625 C0.763636364,0.30177625 0.890910364,0.42677625 0.890910364,0.55177625 C1.01818309,0.42677625 1.27272727,0.301775 1.52727273,0.301775 C1.78181818,0.301775 1.90909091,0.3017775 2.03636364,0.4267775 C2.16363636,0.4267775 2.29090909,0.55177875 2.29090909,0.67677875 C2.03636364,0.42677875 1.52727273,0.42677625 1.14545455,0.55177625 C1.01818182,0.67677625 1.01818309,0.67677625 0.890910364,0.80177625 L0.890910364,0.926775 L0.890910364,0.80177625 C0.890910364,0.80177625 0.890910364,0.80177875 0.890910364,0.67677875 C0.890910364,0.55177875 0.763636364,0.426775 0.636363636,0.301775 C0.509090909,0.176775 0.381819455,0.17677625 0.254546727,0.17677625 C0.127274,0.05177675 0.127272727,0.17677875 0,0.051778625 Z" id="path51_fill"></path>
                        </g>
                    </g>
                    <g id="Vector" transform="translate(30.545455, 52.500000)" fill="#763421">
                        <g id="path52_fill-link" transform="translate(0.025455, 0.750000)">
                            <path d="M0.350001273,0.24999875 C0.222728545,0.124999 0.0954545455,-1.90735e-06 0.0954545455,-1.90735e-06 C0.222727273,0.124998125 0.349998727,0.2500025 0.477271455,0.3750025 C0.604544182,0.5000025 0.604545455,0.74999875 0.604545455,0.87499875 C0.604545455,1.12499875 0.477272727,1.75 0.0954545455,1.75 C-0.0318181818,1.75 -0.0318181818,1.625 0.0954545455,1.625 C0.477272727,1.5 0.477271455,1.12500125 0.477271455,0.75000125 C0.604544182,0.50000125 0.477274,0.37499875 0.350001273,0.24999875 Z" id="path52_fill"></path>
                        </g>
                    </g>
                    <g id="Vector" transform="translate(24.181818, 6.250000)" fill="#FFFFFF">
                        <g id="path53_fill-link" transform="translate(0.509091, 0.625000)">
                            <path d="M0.509092182,0 L0.636362364,0 C0.763635091,0 0.890909091,-1.21071875e-07 1.01818182,0.124999875 C1.14545455,0.25 1.14545582,0.375 1.14545582,0.5 C1.14545582,0.625 1.01818182,0.75 0.890909091,0.875 C0.763636364,0.875 0.636364909,1 0.509092182,0.875 L0.381818182,0.875 C0.254545455,0.875 0.127271709,0.75 -9.71013273e-07,0.625 C0.127271709,0.25 0.254546727,0.125 0.509092182,0 Z" id="path53_fill"></path>
                        </g>
                    </g>
                </g>
                <g id="Group" transform="translate(11.454545, 45.000000)">
                    <g id="Vector" transform="translate(15.272727, 0.000000)" fill="#A9272C">
                        <g id="path54_fill-link" transform="translate(0.000000, 1.000000)">
                            <polygon id="path54_fill" points="-4.85507273e-07 18.375 10.8181818 12.75 10.8181818 -9.5367375e-07 -4.85507273e-07 5.625"></polygon>
                        </g>
                    </g>
                    <g id="Vector" transform="translate(3.818182, 0.000000)" fill="#8F2328">
                        <g id="path55_fill-link" transform="translate(0.509091, 1.000000)">
                            <polygon id="path55_fill" points="2.42753636e-07 12.75 10.9454545 18.375 10.9454545 5.625 2.42753636e-07 -9.5367375e-07"></polygon>
                        </g>
                    </g>
                    <g id="Vector" transform="translate(15.272727, 0.000000)" fill="#CD3334">
                        <g id="path56_fill-link" transform="translate(0.000000, 1.000000)">
                            <polygon id="path56_fill" points="-4.85507273e-07 5.625 10.8181818 -9.5367375e-07 15.1454545 5.625 4.2 11.25"></polygon>
                        </g>
                    </g>
                    <g id="Vector" fill="#A9272C">
                        <g id="path57_fill-link" transform="translate(0.000000, 1.000000)">
                            <polygon id="path57_fill" points="15.2727273 5.625 4.32727273 -9.5367375e-07 -4.85507273e-07 5.625 10.9454545 11.25"></polygon>
                        </g>
                    </g>
                </g>
            </g>
        </g>
    </g>
</svg>