<?xml version="1.0" encoding="UTF-8"?>
<svg width="120px" height="96px" viewBox="0 0 120 96" version="1.1" xmlns="http://www.w3.org/2000/svg" xmlns:xlink="http://www.w3.org/1999/xlink">
    <!-- Generator: Sketch 48.2 (47327) - http://www.bohemiancoding.com/sketch -->
    <title>BO_Header_logo-Slottica</title>
    <desc>Created with Sketch.</desc>
    <defs></defs>
    <g id="Brands" stroke="none" stroke-width="1" fill="none" fill-rule="evenodd">
        <g id="BO_Header_logo-Slottica" fill-rule="nonzero">
            <g id="Slottica_logo-Copy" transform="translate(30.000000, 25.000000)">
                <polygon id="Shape" fill="#1957BB" points="18.8262774 23.7237113 18.8262774 0.408247423 25.1167883 0.408247423 25.1167883 23.7237113"></polygon>
                <path d="M28.1036496,15.2412371 C28.1036496,10.5237113 31.5883212,6.39587629 37.5620438,6.39587629 C43.5357664,6.39587629 47.020438,10.5237113 47.020438,15.2412371 C47.020438,19.9587629 43.5357664,24.1319588 37.5620438,24.1319588 C31.5883212,24.1319588 28.1036496,19.9587629 28.1036496,15.2412371 Z M40.5489051,15.2412371 C40.5489051,13.3814433 39.4627737,11.9752577 37.5167883,11.9752577 C35.6160584,11.9752577 34.529927,13.4268041 34.529927,15.2412371 C34.529927,17.1463918 35.6160584,18.5525773 37.5167883,18.5525773 C39.4627737,18.5979381 40.5489051,17.1463918 40.5489051,15.2412371 Z" id="Shape" fill="#1957BB"></path>
                <path d="M50.9576642,18.8247423 L50.9576642,12.2927835 L48.1518248,12.2927835 L48.1518248,6.84948454 L50.9576642,6.84948454 L50.9576642,2.22268041 L57.2481752,2.22268041 L57.2481752,6.84948454 L60.6423358,6.84948454 L60.6423358,12.2927835 L57.2481752,12.2927835 L57.2481752,17.0103093 C57.2481752,17.8721649 57.7912409,18.5979381 58.6510949,18.5979381 C59.1941606,18.5979381 59.7824818,18.4164948 59.9182482,18.2804124 L61.049635,23.043299 C60.3708029,23.6329897 58.9226277,24.1773196 56.7956204,24.1773196 C53.0394161,24.1319588 50.9576642,22.3628866 50.9576642,18.8247423 Z" id="Shape" fill="#1957BB"></path>
                <g id="Group-2" transform="translate(2.534296, 23.319588)" fill="#FFFFFF">
                    <path d="M2.80583942,16.6020619 L2.80583942,10.0701031 L0,10.0701031 L0,4.62680412 L2.80583942,4.62680412 L2.80583942,0 L9.09635036,0 L9.09635036,4.62680412 L12.4905109,4.62680412 L12.4905109,10.0701031 L9.09635036,10.0701031 L9.09635036,14.7876289 C9.09635036,15.6494845 9.63941606,16.3752577 10.4992701,16.3752577 C11.0423358,16.3752577 11.6306569,16.1938144 11.7664234,16.057732 L12.8978102,20.8206186 C12.2189781,21.4103093 10.7708029,21.9546392 8.64379562,21.9546392 C4.88759124,21.9092784 2.80583942,20.1402062 2.80583942,16.6020619 Z" id="Shape"></path>
                    <polygon id="Shape" points="16.2919708 21.4103093 16.2919708 4.53608247 22.5824818 4.53608247 22.5824818 21.4103093"></polygon>
                    <path d="M24.8905109,12.9278351 C24.8905109,7.57525773 29.0087591,4.08247423 34.3489051,4.08247423 C38.1956204,4.08247423 40.5489051,5.85154639 41.4992701,7.25773196 L37.4715328,11.0680412 C36.9284672,10.2515464 35.9781022,9.61649485 34.6656934,9.61649485 C32.9007299,9.61649485 31.3620438,10.7505155 31.3620438,12.8824742 C31.3620438,15.014433 32.9007299,16.1938144 34.6656934,16.1938144 C35.9781022,16.1938144 36.9737226,15.5134021 37.4715328,14.742268 L41.4992701,18.5979381 C40.5489051,20.0041237 38.1956204,21.7731959 34.3489051,21.7731959 C29.0087591,21.8185567 24.8905109,18.3257732 24.8905109,12.9278351 Z" id="Shape"></path>
                    <path d="M52.9489051,21.7278351 L52.9489051,20.1402062 C51.9985401,21.3195876 49.9620438,22.1814433 47.880292,22.1814433 C45.3912409,22.1814433 42.0875912,20.457732 42.0875912,16.6474227 C42.0875912,12.4742268 45.3459854,11.2494845 47.880292,11.2494845 C50.0978102,11.2494845 52.0437956,11.9298969 52.9489051,13.1092784 L52.9489051,11.385567 C52.9489051,10.2061856 51.8627737,9.29896907 49.8262774,9.29896907 C48.2423358,9.29896907 46.4773723,9.93402062 45.1649635,10.9319588 L43.0379562,7.07628866 C45.3007299,5.26185567 48.4233577,4.53608247 51.0029197,4.53608247 C55.1664234,4.53608247 59.2394161,5.98762887 59.2394161,11.6123711 L59.2394161,21.8185567 L52.9489051,21.8185567 L52.9489051,21.7278351 Z M52.9489051,17.1463918 L52.9489051,16.1938144 C52.5416058,15.6041237 51.4554745,15.2865979 50.459854,15.2865979 C49.4189781,15.2865979 48.2423358,15.6494845 48.2423358,16.6927835 C48.2423358,17.7360825 49.3737226,18.0536082 50.459854,18.0536082 C51.4554745,18.0536082 52.5416058,17.7360825 52.9489051,17.1463918 Z" id="Shape"></path>
                </g>
                <path d="M0.316788321,21.5463918 L2.80583942,17.3278351 C4.11824818,18.371134 6.96934307,19.4597938 8.87007299,19.4597938 C10.1372263,19.4597938 10.5445255,19.142268 10.5445255,18.7340206 C10.5445255,17.1463918 0.995620438,19.1876289 0.995620438,12.1113402 C0.995620438,9.07216495 3.66569343,6.39587629 8.5080292,6.39587629 C11.3138686,6.39587629 13.8481752,7.25773196 15.7941606,8.57319588 L13.4861314,12.6556701 C12.4452555,11.7938144 10.4992701,10.9319588 8.55328467,10.9319588 C7.64817518,10.9319588 6.96934307,11.2041237 6.96934307,11.657732 C6.96934307,13.0639175 16.5182482,11.2948454 16.5182482,18.3257732 C16.5182482,21.6824742 13.5313869,24.1319588 8.55328467,24.1319588 C5.47591241,24.1319588 2.1270073,23.043299 0.316788321,21.5463918 Z" id="Shape" fill="#1957BB"></path>
            </g>
        </g>
    </g>
</svg>