<svg viewBox="0 0 235 165" fill="none" xmlns="http://www.w3.org/2000/svg" id="r1EZR4X0G"><style>@-webkit-keyframes rygl4Z0N7Af_Animation{0%{opacity:  0;}16.67%{opacity:  1;}50%{opacity:  0;}100%{opacity:  0;}}@keyframes rygl4Z0N7Af_Animation{0%{opacity:  0;}16.67%{opacity:  1;}50%{opacity:  0;}100%{opacity:  0;}}@-webkit-keyframes rkkeV-REm0f_Animation{0%{opacity:  0;}16.67%{opacity:  1;}50%{opacity:  0;}100%{opacity:  0;}}@keyframes rkkeV-REm0f_Animation{0%{opacity:  0;}16.67%{opacity:  1;}50%{opacity:  0;}100%{opacity:  0;}}@-webkit-keyframes BkAEZANmRf_Animation{0%{opacity:  0;}16.67%{opacity:  1;}50%{opacity:  0;}100%{opacity:  0;}}@keyframes BkAEZANmRf_Animation{0%{opacity:  0;}16.67%{opacity:  1;}50%{opacity:  0;}100%{opacity:  0;}}@-webkit-keyframes S1nVZAVm0G_Animation{0%{opacity:  0;}50%{opacity:  1;}100%{opacity:  0;}}@keyframes S1nVZAVm0G_Animation{0%{opacity:  0;}50%{opacity:  1;}100%{opacity:  0;}}@-webkit-keyframes SkPVbAV7AM_Animation{16.67%{opacity:  1;}23.33%{opacity:  0;}30%{opacity:  1;}0%{opacity:  1;}100%{opacity:  1;}}@keyframes SkPVbAV7AM_Animation{16.67%{opacity:  1;}23.33%{opacity:  0;}30%{opacity:  1;}0%{opacity:  1;}100%{opacity:  1;}}@-webkit-keyframes SkLNW0VXAz_Animation{50%{opacity:  1;}56.67%{opacity:  0;}63.33%{opacity:  1;}0%{opacity:  1;}100%{opacity:  1;}}@keyframes SkLNW0VXAz_Animation{50%{opacity:  1;}56.67%{opacity:  0;}63.33%{opacity:  1;}0%{opacity:  1;}100%{opacity:  1;}}@-webkit-keyframes SkSNbCVQCf_Animation{66.67%{opacity:  1;}73.33%{opacity:  0;}80%{opacity:  1;}0%{opacity:  1;}100%{opacity:  1;}}@keyframes SkSNbCVQCf_Animation{66.67%{opacity:  1;}73.33%{opacity:  0;}80%{opacity:  1;}0%{opacity:  1;}100%{opacity:  1;}}@-webkit-keyframes SyVVZC4QRf_Animation{33.33%{opacity:  1;}40%{opacity:  0;}46.67%{opacity:  1;}0%{opacity:  1;}100%{opacity:  1;}}@keyframes SyVVZC4QRf_Animation{33.33%{opacity:  1;}40%{opacity:  0;}46.67%{opacity:  1;}0%{opacity:  1;}100%{opacity:  1;}}@-webkit-keyframes H1mNb0NmCM_Animation{0%{opacity:  1;}6.67%{opacity:  0;}13.33%{opacity:  1;}100%{opacity:  1;}}@keyframes H1mNb0NmCM_Animation{0%{opacity:  1;}6.67%{opacity:  0;}13.33%{opacity:  1;}100%{opacity:  1;}}#r1EZR4X0G *{-webkit-animation-duration:  3s;animation-duration:  3s;-webkit-animation-iteration-count:  infinite;animation-iteration-count:  infinite;-webkit-animation-timing-function:  cubic-bezier(0, 0, 1, 1);animation-timing-function:  cubic-bezier(0, 0, 1, 1);}#BkgVbRVQAM{-webkit-transform:  translate(160.786px, 20.2111px);transform:  translate(160.786px, 20.2111px);stroke: #FFD600;stroke-width: 2;}#rJ-VZREX0G{-webkit-transform:  translate(21.0248px, 8.09528px);transform:  translate(21.0248px, 8.09528px);stroke: #FFD600;stroke-width: 2;}#HkzEbCEQRf{-webkit-transform:  translate(1px, 1px);transform:  translate(1px, 1px);stroke: #FFD600;stroke-width: 2;}#H1mNb0NmCM{-webkit-transform:  translate(101.124px, 52.8658px);transform:  translate(101.124px, 52.8658px);fill: url(#paint0_linear);-webkit-animation-name:  H1mNb0NmCM_Animation;animation-name:  H1mNb0NmCM_Animation;-webkit-transform-origin:  50% 50%;transform-origin:  50% 50%;transform-box:  fill-box;opacity:  1;}#SyVVZC4QRf{-webkit-transform:  translate(107.14px, 37.8869px);transform:  translate(107.14px, 37.8869px);fill: url(#paint1_linear);-webkit-animation-name:  SyVVZC4QRf_Animation;animation-name:  SyVVZC4QRf_Animation;-webkit-transform-origin:  50% 50%;transform-origin:  50% 50%;transform-box:  fill-box;opacity:  1;}#SkSNbCVQCf{-webkit-transform:  translate(117.317px, 28.3436px);transform:  translate(117.317px, 28.3436px);fill: url(#paint2_linear);-webkit-animation-name:  SkSNbCVQCf_Animation;animation-name:  SkSNbCVQCf_Animation;-webkit-transform-origin:  50% 50%;transform-origin:  50% 50%;transform-box:  fill-box;opacity:  1;}#SkLNW0VXAz{-webkit-transform:  translate(138.289px, 16.2278px);transform:  translate(138.289px, 16.2278px);fill: url(#paint3_linear);-webkit-animation-name:  SkLNW0VXAz_Animation;animation-name:  SkLNW0VXAz_Animation;-webkit-transform-origin:  50% 50%;transform-origin:  50% 50%;transform-box:  fill-box;opacity:  1;}#SkPVbAV7AM{-webkit-transform:  translate(132.768px, 37.8869px);transform:  translate(132.768px, 37.8869px);fill: url(#paint4_linear);-webkit-animation-name:  SkPVbAV7AM_Animation;animation-name:  SkPVbAV7AM_Animation;-webkit-transform-origin:  50% 50%;transform-origin:  50% 50%;transform-box:  fill-box;opacity:  1;}#BJO4-04mCf{-webkit-transform:  translate(125.351px, 93.6115px);transform:  translate(125.351px, 93.6115px);fill: #E30000;}#HkF4ZC47Rz{-webkit-transform:  translate(48.8782px, 69.9608px);transform:  translate(48.8782px, 69.9608px);fill: #E30000;}#B19VbRE7RM{-webkit-transform:  translate(7.88092px, 93.6115px);transform:  translate(7.88092px, 93.6115px);fill: #E30000;}#S1nVZAVm0G{-webkit-transform:  translate(111px, 128px);transform:  translate(111px, 128px);fill: url(#paint5_linear);-webkit-animation-name:  S1nVZAVm0G_Animation;animation-name:  S1nVZAVm0G_Animation;-webkit-transform-origin:  50% 50%;transform-origin:  50% 50%;transform-box:  fill-box;opacity:  0;}#ByTEW0E70G{-webkit-transform:  translate(111px, 128px);transform:  translate(111px, 128px);fill: #FAFF00;}#BkAEZANmRf{-webkit-transform:  translate(125.351px, 93.6508px);transform:  translate(125.351px, 93.6508px);fill: #FFF500;-webkit-animation-name:  BkAEZANmRf_Animation;animation-name:  BkAEZANmRf_Animation;-webkit-transform-origin:  50% 50%;transform-origin:  50% 50%;transform-box:  fill-box;opacity:  0;}#rkkeV-REm0f{-webkit-transform:  translate(48.8782px, 70px);transform:  translate(48.8782px, 70px);fill: #FFF500;-webkit-animation-name:  rkkeV-REm0f_Animation;animation-name:  rkkeV-REm0f_Animation;-webkit-transform-origin:  50% 50%;transform-origin:  50% 50%;transform-box:  fill-box;opacity:  0;}#rygl4Z0N7Af{-webkit-transform:  translate(7.88092px, 93.6508px);transform:  translate(7.88092px, 93.6508px);fill: #FFF500;-webkit-animation-name:  rygl4Z0N7Af_Animation;animation-name:  rygl4Z0N7Af_Animation;-webkit-transform-origin:  50% 50%;transform-origin:  50% 50%;transform-box:  fill-box;opacity:  0;}</style>
<path d="M-5.0297e-06 -3.16564e-07C23.9391 12.5723 41.7801 35.3102 47.9194 62.5294" stroke-miterlimit="10" stroke-linecap="round" stroke-linejoin="round" id="BkgVbRVQAM"/>
<path d="M106.469 1.28627C101.484 0.456419 96.3333 1.58282e-07 91.1005 1.58282e-07C53.5231 1.58282e-07 21.1785 22.323 6.3041 54.5213L6.34531 54.4798C3.62589 60.4132 1.48332 66.6786 -6.28712e-07 73.1515" stroke-miterlimit="10" stroke-linecap="round" stroke-linejoin="round" id="rJ-VZREX0G"/>
<path d="M225.382 123.648H107.87L92.5426 102.819L53.1522 141.905L37.083 145.971L49.5675 124.021H0V86.4291H0.494439H73.8363L93.4078 56.1395L95.1796 57.8822L99.5471 49.6667L93.4078 44.895L103.873 38.4222L111.826 26.7627L114.38 33.4845L119.242 31.3684L134.694 6.7633L135.888 16.597L146.189 0L147.796 12.7797L159.209 8.87942L148.126 27.8001L147.425 34.6878L158.262 31.9493L146.354 51.6168L144.953 67.7575L136.383 63.8157L123.033 74.8112L124.516 64.438L122.168 63.1933L105.398 80.4957L108.529 86.4291H225.382V123.648Z" stroke-miterlimit="10" stroke-linecap="round" stroke-linejoin="round" id="HkzEbCEQRf"/>
<path d="M9.10593 0L9.02352 6.14091L13.3499 4.31523L8.7351 10.8296L8.52908 17.5099L5.72725 15.3108L0 21.1197L2.80182 13.0287L0.123611 11.1615L4.94439 8.38151L9.10593 0Z" id="H1mNb0NmCM"/>
<path d="M5.85086 6.33127e-07L5.80967 3.9418L8.57028 2.78L5.64484 6.97076L5.48003 11.286L3.66709 9.87524L2.51485e-06 13.6096L1.81294 8.38151L0.0824015 7.17822L3.17265 5.39404L5.85086 6.33127e-07Z" id="SyVVZC4QRf"/>
<path d="M13.8855 6.33127e-07L13.7619 9.37733L20.3132 6.55583L13.3087 16.4726L13.0202 26.6798L8.7351 23.3189L-5.0297e-06 32.1568L4.32634 19.8335L0.206011 17.012L7.58141 12.7797L13.8855 6.33127e-07Z" id="SkSNbCVQCf"/>
<path d="M6.67493 3.16564e-07L6.63372 4.5227L9.80638 3.15344L6.42771 7.92509L6.2629 12.8627L4.20273 11.2445L5.0297e-06 15.4767L2.10136 9.5433L0.12361 8.17405L3.66709 6.14091L6.67493 3.16564e-07Z" id="SkLNW0VXAz"/>
<path d="M10.1772 6.33127e-07L10.0948 6.84628L14.9156 4.81314L9.76518 12.0744L9.55916 19.5845L6.42771 17.095L-5.0297e-06 23.6093L3.17265 14.5224L0.123612 12.4478L5.56244 9.37733L10.1772 6.33127e-07Z" id="SkPVbAV7AM"/>
<path d="M82.2417 -1.26625e-06V8.96241H71.6113V-1.26625e-06H60.0332V23.7338L47.7134 -1.26625e-06H40.7088H37.4126H30.408L19.7364 20.5389L12.6906 12.9872L21.1785 0.0414939H9.22954L-5.0297e-06 12.9872L11.6605 24.3977H23.3211H29.9136L32.427 18.6717H45.6532L48.1666 24.3977H60.0332H60.3628H71.6113V14.3564H82.2417V24.3977H93.8199V-1.26625e-06H82.2417ZM35.064 12.7382L39.0195 3.77583L42.975 12.7382H35.064Z" id="BJO4-04mCf"/>
<path d="M64.8952 23.6508V38.3807L45.3236 -1.26625e-06L-1.25742e-06 68.4213L3.17265 67.1351L45.3236 22.5305L64.8952 48.0485H76.4733V36.638V23.6508H64.8952Z" id="HkF4ZC47Rz"/>
<path d="M49.5263 24.3977L65.3484 -1.26625e-06H53.2346L47.7134 9.08689L41.7389 -1.26625e-06H28.7599H11.5781H3.14356e-07V5.02061V9.16987V14.1905V19.377V24.3977H11.5781H23.1562C29.9548 24.2732 32.3858 22.1571 32.3858 18.3812C32.3858 14.9788 29.1719 12.5723 24.9692 11.9084C28.7599 10.7466 30.8613 8.38151 30.8613 5.80897C30.8613 5.56001 30.8201 5.31105 30.7789 5.0621H31.8501L41.1621 19.875L38.4015 24.4392H49.5263V24.3977ZM11.5781 5.02061H17.3878C18.5415 5.02061 19.448 5.93344 19.448 7.09524C19.448 8.21554 18.5415 9.16987 17.429 9.16987H11.5781V5.02061ZM18.2119 19.377H11.5781V14.1905H18.2119C19.654 14.1905 20.8077 15.3523 20.8077 16.8045C20.7665 18.2153 19.6128 19.377 18.2119 19.377Z" id="B19VbRE7RM"/>
<g filter="url(#filter0_d)" id="ryjVbRVX0f">
<path d="M11.13 6.52C12.63 6.52 14 6.77 15.24 7.27C16.5 7.77 17.6 8.43 18.54 9.25L15.54 12.37C14.8 11.83 14.13 11.44 13.53 11.2C12.93 10.96 12.25 10.84 11.49 10.84C10.03 10.84 8.91 11.4 8.13 12.52C7.35 13.62 6.96 15.3 6.96 17.56C6.96 19.26 7.08 20.6 7.32 21.58C7.56 22.54 7.93 23.22 8.43 23.62C8.95 24.02 9.63 24.22 10.47 24.22C11.21 24.22 11.92 24.05 12.6 23.71V19.9H10.5L9.93 15.73H18.54V26.2C17.44 26.96 16.18 27.55 14.76 27.97C13.34 28.39 11.97 28.6 10.65 28.6C7.23 28.6 4.7 27.67 3.06 25.81C1.42 23.93 0.6 21.17 0.6 17.53C0.6 15.23 1.05 13.25 1.95 11.59C2.85 9.93 4.1 8.67 5.7 7.81C7.3 6.95 9.11 6.52 11.13 6.52ZM43.4496 6.52C46.5696 6.52 48.9696 7.49 50.6496 9.43C52.3496 11.35 53.1996 14.05 53.1996 17.53C53.1996 19.79 52.8196 21.75 52.0596 23.41C51.2996 25.07 50.1896 26.35 48.7296 27.25C47.2696 28.15 45.5096 28.6 43.4496 28.6C40.3296 28.6 37.9196 27.63 36.2196 25.69C34.5396 23.73 33.6996 21.01 33.6996 17.53C33.6996 15.27 34.0796 13.32 34.8396 11.68C35.5996 10.02 36.7096 8.75 38.1696 7.87C39.6296 6.97 41.3896 6.52 43.4496 6.52ZM43.4496 10.9C42.2696 10.9 41.4196 11.41 40.8996 12.43C40.3796 13.43 40.1196 15.13 40.1196 17.53C40.1196 19.93 40.3796 21.65 40.8996 22.69C41.4196 23.71 42.2696 24.22 43.4496 24.22C44.6496 24.22 45.4996 23.71 45.9996 22.69C46.5196 21.67 46.7796 19.95 46.7796 17.53C46.7796 15.13 46.5196 13.43 45.9996 12.43C45.4796 11.41 44.6296 10.9 43.4496 10.9ZM74.7825 7.12V23.26H82.6725L82.0425 28H68.6025V7.12H74.7825ZM104.466 7.12C107.826 7.12 110.516 7.87 112.536 9.37C114.556 10.85 115.566 13.55 115.566 17.47C115.566 21.33 114.596 24.05 112.656 25.63C110.716 27.21 108.106 28 104.826 28H97.7763V7.12H104.466ZM103.956 11.47V23.65H105.186C106.146 23.65 106.916 23.46 107.496 23.08C108.076 22.7 108.506 22.07 108.786 21.19C109.066 20.29 109.206 19.05 109.206 17.47C109.206 15.91 109.056 14.7 108.756 13.84C108.476 12.96 108.046 12.35 107.466 12.01C106.886 11.65 106.136 11.47 105.216 11.47H103.956Z" id="S1nVZAVm0G"/>
<path d="M15.24 7.27L14.866 8.19746L14.8712 8.19949L15.24 7.27ZM18.54 9.25L19.2608 9.94311L19.9884 9.18646L19.1974 8.49643L18.54 9.25ZM15.54 12.37L14.9505 13.1778L15.6557 13.6924L16.2608 13.0631L15.54 12.37ZM8.13 12.52L8.94576 13.0985L8.95061 13.0915L8.13 12.52ZM7.32 21.58L6.34869 21.8179L6.34986 21.8225L7.32 21.58ZM8.43 23.62L7.8053 24.4009L7.81274 24.4068L7.82029 24.4126L8.43 23.62ZM12.6 23.71L13.0472 24.6044L13.6 24.328V23.71H12.6ZM12.6 19.9H13.6V18.9H12.6V19.9ZM10.5 19.9L9.50921 20.0354L9.62739 20.9H10.5V19.9ZM9.93 15.73V14.73H8.78401L8.93921 15.8654L9.93 15.73ZM18.54 15.73H19.54V14.73H18.54V15.73ZM18.54 26.2L19.1084 27.0227L19.54 26.7246V26.2H18.54ZM14.76 27.97L15.0436 28.9289L14.76 27.97ZM3.06 25.81L2.30642 26.4674L2.30993 26.4714L3.06 25.81ZM1.95 11.59L1.07089 11.1134L1.07089 11.1134L1.95 11.59ZM5.7 7.81L6.17344 8.69083L6.17344 8.69082L5.7 7.81ZM11.13 7.52C12.5174 7.52 13.7585 7.75087 14.866 8.19744L15.614 6.34256C14.2415 5.78913 12.7426 5.52 11.13 5.52V7.52ZM14.8712 8.19949C16.0348 8.66127 17.0352 9.26436 17.8826 10.0036L19.1974 8.49643C18.1648 7.59564 16.9652 6.87873 15.6088 6.34051L14.8712 8.19949ZM17.8192 8.55689L14.8192 11.6769L16.2608 13.0631L19.2608 9.94311L17.8192 8.55689ZM16.1295 11.5622C15.3477 10.9917 14.6036 10.5524 13.9014 10.2715L13.1586 12.1285C13.6564 12.3276 14.2523 12.6683 14.9505 13.1778L16.1295 11.5622ZM13.9014 10.2715C13.1644 9.97674 12.3552 9.84 11.49 9.84V11.84C12.1448 11.84 12.6956 11.9433 13.1586 12.1285L13.9014 10.2715ZM11.49 9.84C9.72974 9.84 8.29123 10.5387 7.30939 11.9485L8.95061 13.0915C9.52877 12.2613 10.3303 11.84 11.49 11.84V9.84ZM7.31427 11.9416C6.35765 13.2906 5.96 15.2192 5.96 17.56H7.96C7.96 15.3808 8.34235 13.9494 8.94573 13.0984L7.31427 11.9416ZM5.96 17.56C5.96 19.2936 6.08106 20.725 6.3487 21.8179L8.2913 21.3421C8.07894 20.475 7.96 19.2264 7.96 17.56H5.96ZM6.34986 21.8225C6.61571 22.8859 7.06353 23.8075 7.8053 24.4009L9.05469 22.8391C8.79647 22.6325 8.50429 22.1941 8.29014 21.3375L6.34986 21.8225ZM7.82029 24.4126C8.55888 24.9808 9.47192 25.22 10.47 25.22V23.22C9.78808 23.22 9.34113 23.0592 9.03971 22.8274L7.82029 24.4126ZM10.47 25.22C11.3696 25.22 12.2323 25.0119 13.0472 24.6044L12.1528 22.8156C11.6077 23.0881 11.0504 23.22 10.47 23.22V25.22ZM13.6 23.71V19.9H11.6V23.71H13.6ZM12.6 18.9H10.5V20.9H12.6V18.9ZM11.4908 19.7646L10.9208 15.5946L8.93921 15.8654L9.50921 20.0354L11.4908 19.7646ZM9.93 16.73H18.54V14.73H9.93V16.73ZM17.54 15.73V26.2H19.54V15.73H17.54ZM17.9716 25.3773C16.9675 26.071 15.8057 26.6179 14.4764 27.0111L15.0436 28.9289C16.5543 28.4821 17.9125 27.849 19.1084 27.0227L17.9716 25.3773ZM14.4764 27.0111C13.1374 27.4071 11.8631 27.6 10.65 27.6V29.6C12.0769 29.6 13.5426 29.3729 15.0436 28.9289L14.4764 27.0111ZM10.65 27.6C7.40369 27.6 5.19633 26.7209 3.81007 25.1486L2.30993 26.4714C4.20367 28.6191 7.05631 29.6 10.65 29.6V27.6ZM3.81357 25.1526C2.39171 23.5227 1.6 21.037 1.6 17.53H-0.4C-0.4 21.303 0.448289 24.3373 2.30643 26.4674L3.81357 25.1526ZM1.6 17.53C1.6 15.3605 2.02399 13.5516 2.82911 12.0666L1.07089 11.1134C0.0760147 12.9484 -0.4 15.0995 -0.4 17.53H1.6ZM2.82911 12.0666C3.64006 10.5709 4.75221 9.45474 6.17344 8.69083L5.22656 6.92918C3.44779 7.88526 2.05994 9.28913 1.07089 11.1134L2.82911 12.0666ZM6.17344 8.69082C7.61216 7.91752 9.25639 7.52 11.13 7.52V5.52C8.96361 5.52 6.98784 5.98248 5.22656 6.92918L6.17344 8.69082ZM50.6496 9.43L49.8936 10.0847L49.9009 10.0929L50.6496 9.43ZM52.0596 23.41L52.9688 23.8263L52.9688 23.8263L52.0596 23.41ZM48.7296 27.25L49.2544 28.1013L49.2544 28.1013L48.7296 27.25ZM36.2196 25.69L35.4603 26.3408L35.4675 26.3491L36.2196 25.69ZM34.8396 11.68L35.7469 12.1005L35.7488 12.0963L34.8396 11.68ZM38.1696 7.87L38.6859 8.7265L38.6944 8.72126L38.1696 7.87ZM40.8996 12.43L41.7869 12.8914L41.7905 12.8842L40.8996 12.43ZM40.8996 22.69L40.0052 23.1372L40.0087 23.1442L40.8996 22.69ZM45.9996 22.69L45.1087 22.2358L45.1051 22.2428L45.1017 22.2498L45.9996 22.69ZM45.9996 12.43L45.1087 12.8842L45.1124 12.8914L45.9996 12.43ZM43.4496 7.52C46.3478 7.52 48.4442 8.41082 49.8937 10.0846L51.4056 8.77537C49.495 6.56917 46.7914 5.52 43.4496 5.52V7.52ZM49.9009 10.0929C51.3889 11.7735 52.1996 14.2063 52.1996 17.53H54.1996C54.1996 13.8937 53.3103 10.9265 51.3983 8.76709L49.9009 10.0929ZM52.1996 17.53C52.1996 19.6796 51.8381 21.4916 51.1504 22.9937L52.9688 23.8263C53.8011 22.0084 54.1996 19.9004 54.1996 17.53H52.1996ZM51.1504 22.9937C50.4671 24.4861 49.4854 25.6093 48.2049 26.3987L49.2544 28.1013C50.8938 27.0907 52.1321 25.6539 52.9688 23.8263L51.1504 22.9937ZM48.2049 26.3987C46.9318 27.1835 45.3618 27.6 43.4496 27.6V29.6C45.6574 29.6 47.6075 29.1165 49.2544 28.1013L48.2049 26.3987ZM43.4496 27.6C40.5519 27.6 38.4423 26.7092 36.9717 25.0309L35.4675 26.3491C37.3969 28.5508 40.1074 29.6 43.4496 29.6V27.6ZM36.9789 25.0392C35.5011 23.3152 34.6996 20.8549 34.6996 17.53H32.6996C32.6996 21.1651 33.5781 24.1448 35.4604 26.3408L36.9789 25.0392ZM34.6996 17.53C34.6996 15.3799 35.0613 13.58 35.7469 12.1005L33.9323 11.2595C33.0979 13.06 32.6996 15.1601 32.6996 17.53H34.6996ZM35.7488 12.0963C36.4314 10.6055 37.4106 9.49511 38.6858 8.72646L37.6534 7.01354C36.0087 8.00489 34.7679 9.43446 33.9304 11.2637L35.7488 12.0963ZM38.6944 8.72126C39.9675 7.93647 41.5374 7.52 43.4496 7.52V5.52C41.2418 5.52 39.2918 6.00353 37.6449 7.01874L38.6944 8.72126ZM43.4496 9.9C42.7131 9.9 42.0203 10.0604 41.4126 10.425C40.8031 10.7907 40.3404 11.3252 40.0087 11.9758L41.7905 12.8842C41.9788 12.5148 42.2011 12.2843 42.4416 12.14C42.6839 11.9946 43.0061 11.9 43.4496 11.9V9.9ZM40.0124 11.9686C39.3727 13.1989 39.1196 15.1117 39.1196 17.53H41.1196C41.1196 15.1483 41.3866 13.6611 41.7868 12.8914L40.0124 11.9686ZM39.1196 17.53C39.1196 19.9539 39.3744 21.8756 40.0052 23.1372L41.794 22.2428C41.3848 21.4244 41.1196 19.9061 41.1196 17.53H39.1196ZM40.0087 23.1442C40.3404 23.7948 40.8031 24.3293 41.4126 24.695C42.0203 25.0596 42.7131 25.22 43.4496 25.22V23.22C43.0061 23.22 42.6839 23.1254 42.4416 22.98C42.2011 22.8357 41.9788 22.6052 41.7905 22.2358L40.0087 23.1442ZM43.4496 25.22C44.1926 25.22 44.8914 25.0611 45.5016 24.695C46.1151 24.3269 46.5754 23.7874 46.8975 23.1302L45.1017 22.2498C44.9239 22.6126 44.7091 22.8381 44.4726 22.98C44.2328 23.1239 43.9066 23.22 43.4496 23.22V25.22ZM46.8905 23.1442C47.526 21.8976 47.7796 19.9696 47.7796 17.53H45.7796C45.7796 19.9304 45.5132 21.4424 45.1087 22.2358L46.8905 23.1442ZM47.7796 17.53C47.7796 15.1117 47.5266 13.1989 46.8868 11.9686L45.1124 12.8914C45.5127 13.6611 45.7796 15.1483 45.7796 17.53H47.7796ZM46.8905 11.9758C46.5588 11.3252 46.0961 10.7907 45.4866 10.425C44.8789 10.0604 44.1861 9.9 43.4496 9.9V11.9C43.8931 11.9 44.2153 11.9946 44.4576 12.14C44.6981 12.2843 44.9204 12.5148 45.1087 12.8842L46.8905 11.9758ZM74.7825 7.12H75.7825V6.12H74.7825V7.12ZM74.7825 23.26H73.7825V24.26H74.7825V23.26ZM82.6725 23.26L83.6638 23.3918L83.8142 22.26H82.6725V23.26ZM82.0425 28V29H82.9184L83.0338 28.1318L82.0425 28ZM68.6025 28H67.6025V29H68.6025V28ZM68.6025 7.12V6.12H67.6025V7.12H68.6025ZM73.7825 7.12V23.26H75.7825V7.12H73.7825ZM74.7825 24.26H82.6725V22.26H74.7825V24.26ZM81.6812 23.1282L81.0512 27.8682L83.0338 28.1318L83.6638 23.3918L81.6812 23.1282ZM82.0425 27H68.6025V29H82.0425V27ZM69.6025 28V7.12H67.6025V28H69.6025ZM68.6025 8.12H74.7825V6.12H68.6025V8.12ZM112.536 9.37L111.94 10.1729L111.945 10.1767L112.536 9.37ZM112.656 25.63L112.025 24.8546L112.025 24.8546L112.656 25.63ZM97.7763 28H96.7763V29H97.7763V28ZM97.7763 7.12V6.12H96.7763V7.12H97.7763ZM103.956 11.47V10.47H102.956V11.47H103.956ZM103.956 23.65H102.956V24.65H103.956V23.65ZM107.496 23.08L108.044 23.9165L108.044 23.9165L107.496 23.08ZM108.786 21.19L109.739 21.4932L109.741 21.4871L108.786 21.19ZM108.756 13.84L107.803 14.1432L107.808 14.1563L107.812 14.1694L108.756 13.84ZM107.466 12.01L106.939 12.8596L106.95 12.8663L106.961 12.8727L107.466 12.01ZM104.466 8.12C107.683 8.12 110.142 8.83775 111.94 10.1729L113.133 8.56715C110.89 6.90226 107.97 6.12 104.466 6.12V8.12ZM111.945 10.1767C113.589 11.381 114.566 13.6844 114.566 17.47H116.566C116.566 13.4156 115.524 10.319 113.127 8.56334L111.945 10.1767ZM114.566 17.47C114.566 21.1941 113.628 23.5486 112.025 24.8546L113.288 26.4054C115.564 24.5514 116.566 21.4659 116.566 17.47H114.566ZM112.025 24.8546C110.312 26.2495 107.948 27 104.826 27V29C108.264 29 111.121 28.1705 113.288 26.4054L112.025 24.8546ZM104.826 27H97.7763V29H104.826V27ZM98.7763 28V7.12H96.7763V28H98.7763ZM97.7763 8.12H104.466V6.12H97.7763V8.12ZM102.956 11.47V23.65H104.956V11.47H102.956ZM103.956 24.65H105.186V22.65H103.956V24.65ZM105.186 24.65C106.269 24.65 107.25 24.4369 108.044 23.9165L106.948 22.2435C106.583 22.4831 106.024 22.65 105.186 22.65V24.65ZM108.044 23.9165C108.872 23.3741 109.413 22.5193 109.739 21.4932L107.833 20.8868C107.6 21.6207 107.281 22.0259 106.948 22.2435L108.044 23.9165ZM109.741 21.4871C110.065 20.4477 110.206 19.0924 110.206 17.47H108.206C108.206 19.0076 108.068 20.1323 107.831 20.8929L109.741 21.4871ZM110.206 17.47C110.206 15.8659 110.055 14.5258 109.701 13.5106L107.812 14.1694C108.058 14.8742 108.206 15.9541 108.206 17.47H110.206ZM109.709 13.5368C109.383 12.5099 108.833 11.6523 107.972 11.1473L106.961 12.8727C107.259 13.0477 107.57 13.4101 107.803 14.1432L109.709 13.5368ZM107.994 11.1604C107.209 10.6735 106.26 10.47 105.216 10.47V12.47C106.013 12.47 106.563 12.6265 106.939 12.8596L107.994 11.1604ZM105.216 10.47H103.956V12.47H105.216V10.47Z" id="ByTEW0E70G"/>
</g>
<path d="M82.2417 -1.26625e-06V8.96241H71.6113V-1.26625e-06H60.0332V23.7338L47.7134 -1.26625e-06H40.7088H37.4126H30.408L19.7364 20.5389L12.6906 12.9872L21.1785 0.0414939H9.22954L-5.0297e-06 12.9872L11.6605 24.3977H23.3211H29.9136L32.427 18.6717H45.6532L48.1666 24.3977H60.0332H60.3628H71.6113V14.3564H82.2417V24.3977H93.8199V-1.26625e-06H82.2417ZM35.064 12.7382L39.0195 3.77583L42.975 12.7382H35.064Z" id="BkAEZANmRf"/>
<path d="M64.8952 23.6508V38.3807L45.3236 -1.26625e-06L-1.25742e-06 68.4213L3.17265 67.1351L45.3236 22.5305L64.8952 48.0485H76.4733V36.638V23.6508H64.8952Z" id="rkkeV-REm0f"/>
<path d="M49.5263 24.3977L65.3484 -1.26625e-06H53.2346L47.7134 9.08689L41.7389 -1.26625e-06H28.7599H11.5781H3.14356e-07V5.02061V9.16987V14.1905V19.377V24.3977H11.5781H23.1562C29.9548 24.2732 32.3858 22.1571 32.3858 18.3812C32.3858 14.9788 29.1719 12.5723 24.9692 11.9084C28.7599 10.7466 30.8613 8.38151 30.8613 5.80897C30.8613 5.56001 30.8201 5.31105 30.7789 5.0621H31.8501L41.1621 19.875L38.4015 24.4392H49.5263V24.3977ZM11.5781 5.02061H17.3878C18.5415 5.02061 19.448 5.93345 19.448 7.09524C19.448 8.21554 18.5415 9.16987 17.429 9.16987H11.5781V5.02061ZM18.2119 19.377H11.5781V14.1905H18.2119C19.654 14.1905 20.8077 15.3523 20.8077 16.8045C20.7665 18.2153 19.6128 19.377 18.2119 19.377Z" id="rygl4Z0N7Af"/>
<defs>
<filter id="filter0_d" x="103.6" y="126.52" width="130.966" height="38.08" filterUnits="userSpaceOnUse" color-interpolation-filters="sRGB">
<feFlood flood-opacity="0" result="BackgroundImageFix"/>
<feColorMatrix in="SourceAlpha" type="matrix" values="0 0 0 0 0 0 0 0 0 0 0 0 0 0 0 0 0 0 255 0"/>
<feOffset/>
<feGaussianBlur stdDeviation="4"/>
<feColorMatrix type="matrix" values="0 0 0 0 1 0 0 0 0 0.78 0 0 0 0 0 0 0 0 1 0"/>
<feBlend mode="normal" in2="BackgroundImageFix" result="effect1_dropShadow"/>
<feBlend mode="normal" in="SourceGraphic" in2="effect1_dropShadow" result="shape"/>
</filter>
<linearGradient id="paint0_linear" x2="1" gradientUnits="userSpaceOnUse" gradientTransform="translate(-3.82622 21.1231) scale(20.9629 21.1101) rotate(-90)">
<stop stop-color="#FFF359"/>
<stop offset="0.0470611" stop-color="#FAE353"/>
<stop offset="0.1218" stop-color="#F5D04B"/>
<stop offset="0.1988" stop-color="#F1C546"/>
<stop offset="0.2809" stop-color="#F0C145"/>
<stop offset="0.6685" stop-color="#DC8A52"/>
<stop offset="0.8876" stop-color="#D46D50"/>
<stop offset="1" stop-color="#CF584F"/>
</linearGradient>
<linearGradient id="paint1_linear" x2="1" gradientUnits="userSpaceOnUse" gradientTransform="translate(-2.47438 13.6028) scale(13.5155 13.6104) rotate(-90)">
<stop stop-color="#FFF359"/>
<stop offset="0.0470611" stop-color="#FAE353"/>
<stop offset="0.1218" stop-color="#F5D04B"/>
<stop offset="0.1988" stop-color="#F1C546"/>
<stop offset="0.2809" stop-color="#F0C145"/>
<stop offset="0.6685" stop-color="#DC8A52"/>
<stop offset="0.8876" stop-color="#D46D50"/>
<stop offset="1" stop-color="#CF584F"/>
</linearGradient>
<linearGradient id="paint2_linear" x2="1" gradientUnits="userSpaceOnUse" gradientTransform="translate(-5.80622 32.1705) scale(31.9294 32.1536) rotate(-90)">
<stop stop-color="#FFF359"/>
<stop offset="0.0470611" stop-color="#FAE353"/>
<stop offset="0.1218" stop-color="#F5D04B"/>
<stop offset="0.1988" stop-color="#F1C546"/>
<stop offset="0.2809" stop-color="#F0C145"/>
<stop offset="0.6685" stop-color="#DC8A52"/>
<stop offset="0.8876" stop-color="#D46D50"/>
<stop offset="1" stop-color="#CF584F"/>
</linearGradient>
<linearGradient id="paint3_linear" x2="1" gradientUnits="userSpaceOnUse" gradientTransform="translate(-2.77947 15.4826) scale(15.3569 15.4648) rotate(-90)">
<stop stop-color="#FFF359"/>
<stop offset="0.0470611" stop-color="#FAE353"/>
<stop offset="0.1218" stop-color="#F5D04B"/>
<stop offset="0.1988" stop-color="#F1C546"/>
<stop offset="0.2809" stop-color="#F0C145"/>
<stop offset="0.6685" stop-color="#DC8A52"/>
<stop offset="0.8876" stop-color="#D46D50"/>
<stop offset="1" stop-color="#CF584F"/>
</linearGradient>
<linearGradient id="paint4_linear" x2="1" gradientUnits="userSpaceOnUse" gradientTransform="translate(-4.2734 23.604) scale(23.447 23.6116) rotate(-90)">
<stop stop-color="#FFF359"/>
<stop offset="0.0470611" stop-color="#FAE353"/>
<stop offset="0.1218" stop-color="#F5D04B"/>
<stop offset="0.1988" stop-color="#F1C546"/>
<stop offset="0.2809" stop-color="#F0C145"/>
<stop offset="0.6685" stop-color="#DC8A52"/>
<stop offset="0.8876" stop-color="#D46D50"/>
<stop offset="1" stop-color="#CF584F"/>
</linearGradient>
<linearGradient id="paint5_linear" x2="1" gradientUnits="userSpaceOnUse" gradientTransform="translate(126) scale(126 72) rotate(90)">
<stop stop-color="#FFD600"/>
<stop offset="0.469613" stop-color="white"/>
<stop offset="0.679558" stop-color="#FFC700"/>
<stop offset="1" stop-color="#874B20"/>
</linearGradient>
</defs>
<script>(function(){var a=document.querySelector('#r1EZR4X0G'),b=a.querySelectorAll('style'),c=function(d){b.forEach(function(f){var g=f.textContent;g&amp;&amp;(f.textContent=g.replace(/transform-box:[^;\r\n]*/gi,'transform-box: '+d))})};c('initial'),window.requestAnimationFrame(function(){return c('fill-box')})})();</script></svg>