<svg width="960" height="1080" viewBox="0 0 960 1080" fill="none" xmlns="http://www.w3.org/2000/svg">
<g clip-path="url(#clip0_160_1531)">
<rect width="960" height="1080" fill="black"/>
<g style="mix-blend-mode:luminosity" opacity="0.25">
<path d="M600.049 379.051L599.955 411.564L599.768 382.893L599.861 350.379L600.049 379.051Z" fill="url(#paint0_linear_160_1531)"/>
<path d="M747.49 511.634L374.714 296.784C355.698 287.132 334.667 282.101 313.335 282.101C292.003 282.101 270.972 287.132 251.957 296.784L-118.379 511.634C-152.259 531.31 -152.071 563.074 -118.379 582.657L254.397 797.506C273.406 807.181 294.439 812.224 315.775 812.224C337.112 812.224 358.145 807.181 377.154 797.506L747.49 582.657C781.651 563.074 781.464 531.217 747.49 511.634Z" fill="url(#paint1_linear_160_1531)"/>
<path d="M772.828 549.956C772.92 550.86 772.92 551.77 772.828 552.673C772.685 553.433 772.497 554.184 772.265 554.922C772.058 555.778 771.807 556.622 771.514 557.452C771.274 558.186 770.992 558.905 770.67 559.607C770.67 560.544 769.825 561.387 769.356 562.324L768.229 564.198L766.165 567.29L764.757 568.977C763.636 570.377 762.412 571.692 761.097 572.912L759.689 574.318L756.967 576.566L754.527 578.44C753.589 579.19 752.463 579.846 751.43 580.596L748.145 582.657L377.528 797.506C374.884 799.029 372.158 800.405 369.363 801.629L366.829 802.753C364.621 803.709 362.365 804.553 360.072 805.283L357.538 806.126L353.127 807.438L349.654 808.375L345.056 809.781L341.771 810.437C338.58 810.999 335.201 811.467 332.386 811.748H329.289H323.47H314.93H310.894H306.577H302.541L298.224 811.28L294.282 810.718L288.745 809.781L285.179 809.031L279.735 807.719L276.826 806.876C273.635 805.939 270.444 804.908 267.441 803.784L266.221 803.222C262.18 801.632 258.26 799.753 254.49 797.6L-118.005 582.657C-127.256 577.794 -134.911 570.378 -140.06 561.294C-142.402 556.844 -143.626 551.892 -143.626 546.864V613.39C-143.626 626.32 -135.086 639.25 -118.005 649.182L254.771 864.032C258.561 866.148 262.479 868.025 266.503 869.654H267.253H267.723C270.726 870.872 273.917 871.902 277.108 872.839H277.858L280.111 873.402L285.46 874.713H286.868H289.027L293.625 875.557H295.502H297.567H301.884H303.949H305.92H310.237H322.813H328.726H331.072H331.729C334.982 875.182 338.267 874.713 341.583 874.151L344.399 873.495L349.185 872.465L352.658 871.621L357.069 870.31H358.007L359.603 869.747C361.855 868.904 364.201 868.061 366.36 867.124L368.894 866.093C371.709 864.781 374.431 863.47 377.059 861.97L747.676 649.182L748.708 648.527L750.961 647.027C752.029 646.395 753.062 645.707 754.058 644.966L756.498 642.998L759.22 640.843H759.689L760.628 639.906C761.941 638.595 763.161 637.283 764.288 635.971L765.132 635.128L765.696 634.191C766.437 633.229 767.126 632.228 767.76 631.192L768.605 629.881V629.225C769.074 628.381 769.45 627.444 769.919 626.601C770.112 626.045 770.364 625.511 770.67 625.008C770.67 625.008 770.67 625.008 770.67 624.446C770.975 623.588 771.226 622.712 771.42 621.823L771.984 620.136C772.076 619.201 772.076 618.26 771.984 617.325V615.639V614.795V548.363C772.286 548.883 772.567 549.415 772.828 549.956Z" fill="url(#paint2_linear_160_1531)"/>
<path style="mix-blend-mode:screen" d="M747.865 579.471L377.529 794.32C358.521 803.995 337.487 809.038 316.151 809.038C294.815 809.038 273.781 803.995 254.772 794.32L-118.003 579.471C-134.333 570.101 -142.78 557.827 -143.531 545.458C-144.188 558.857 -135.741 572.444 -118.003 582.938L254.772 797.787C273.781 807.462 294.815 812.505 316.151 812.505C337.487 812.505 358.521 807.462 377.529 797.787L747.865 582.938C765.415 572.725 773.674 559.326 772.923 545.458C771.959 552.778 769.156 559.735 764.775 565.682C760.394 571.629 754.577 576.372 747.865 579.471Z" fill="url(#paint3_linear_160_1531)"/>
<path d="M746.927 789.167V873.12L885.826 792.446V708.586L746.927 789.167Z" fill="url(#paint4_linear_160_1531)"/>
<path d="M996.382 793.196V796.1V798.724C996.382 799.661 996.382 800.692 995.913 801.629L995.35 804.252C995.35 805.189 995.35 806.22 994.693 807.157C994.387 808.015 994.136 808.891 993.942 809.78C993.942 810.717 993.285 811.654 993.003 812.591L991.971 815.121C991.971 816.152 991.22 817.089 990.751 818.119C990.401 818.959 989.994 819.773 989.531 820.556L988.029 823.554L986.34 826.646C986.205 826.909 986.048 827.159 985.871 827.396C984.932 828.895 983.994 830.394 982.962 831.893L982.398 832.736C981.366 834.235 980.24 835.641 979.114 837.14C978.888 837.413 978.636 837.664 978.363 837.89L975.172 841.731L974.233 842.762L970.198 846.978L969.353 847.728L965.975 850.914L963.159 853.35L960.437 855.599L957.34 858.035L954.431 860.19L951.052 862.532L947.955 864.687L944.389 866.936L939.79 869.747V953.607L941.949 952.201L944.107 950.889L947.674 948.641L950.865 946.486L954.149 944.143L957.059 941.988L960.156 939.552L962.877 937.303L965.787 934.773L966.913 933.743L969.165 931.681C969.366 931.386 969.621 931.132 969.916 930.932L974.046 926.622L974.984 925.591C976.016 924.373 977.143 923.155 978.175 921.843L978.832 921C979.864 919.688 980.897 918.376 981.835 916.971L982.398 916.127C983.454 914.718 984.426 913.248 985.308 911.724C985.497 911.496 985.655 911.244 985.777 910.974L986.809 909.288L987.56 907.882C987.56 906.851 988.593 905.914 989.062 904.884L990.188 902.354C990.188 901.417 991.127 900.386 991.502 899.449L992.065 898.044C992.025 897.67 992.025 897.293 992.065 896.919C992.065 895.889 992.722 894.952 993.003 894.015C993.309 893.157 993.56 892.281 993.754 891.391C993.754 890.454 994.224 889.517 994.505 888.58C994.787 887.643 994.505 887.55 994.505 886.987C994.505 886.425 994.505 886.332 994.505 885.957C994.505 885.582 994.505 883.989 994.974 883.052C995.444 882.115 994.974 881.272 994.974 880.429C994.974 879.585 994.974 878.461 994.974 877.43C994.974 876.4 994.974 876.306 994.974 875.744C995.021 875.151 995.021 874.556 994.974 873.963V789.635C996.476 791.041 996.382 791.978 996.382 793.196Z" fill="url(#paint5_linear_160_1531)"/>
<path d="M938.289 708.493L799.39 789.167L939.227 869.747C1016 825.241 1015.53 753 938.289 708.493Z" fill="url(#paint6_linear_160_1531)"/>
<path d="M799.39 789.167V873.12L939.228 953.701V869.747L799.39 789.167Z" fill="url(#paint7_linear_160_1531)"/>
<path d="M855.043 968.504C858.422 967.193 861.707 965.881 864.429 964.475L866.963 963.351L874.283 959.884L876.911 958.572C880.008 956.98 883.011 955.387 886.296 953.606V869.747C883.386 871.433 880.289 873.026 876.911 874.619L874.189 876.025L866.869 879.398L864.429 880.522L855.043 884.551L853.26 885.207L844.72 888.205L841.154 889.33L836.367 890.829L832.238 891.953L827.357 893.265L823.697 894.108L818.629 895.326L814.5 896.17L809.338 897.2L805.302 897.95L794.134 899.73H792.539L783.154 900.948H779.4H773.018H769.076H762.413H758.002H752.277H738.387H732.756H728.814H722.808H719.335L712.015 900.199H709.856L700.471 898.981H698.969L690.992 897.669L687.613 897.107L681.513 895.889L678.416 895.233L671.753 893.733L668.092 892.797L662.086 891.204L658.801 890.267L649.416 887.362H647.821C644.254 886.144 640.782 884.832 637.403 883.52L633.274 881.834L629.989 880.522L625.39 878.461L622.387 877.055C620.698 876.306 619.102 875.462 617.507 874.619C616.666 874.27 615.851 873.863 615.067 873.401C612.627 872.183 610.28 870.871 607.934 869.559C569.08 847.166 549.653 817.744 549.746 788.417V872.745C549.746 902.166 569.08 931.494 607.934 953.981C610.28 955.293 612.627 956.605 615.067 957.823L617.507 959.041L622.387 961.477L625.39 962.883L629.989 964.85L633.274 966.256L636.371 967.567H637.403C640.876 968.879 644.348 970.191 647.821 971.315L649.51 971.878L658.895 974.782H660.491H662.274L668.28 976.375L671.94 977.312L678.51 978.811L681.044 979.373H681.701L687.801 980.498L691.086 981.154L699.157 982.372H700.565L709.95 983.59H712.296L719.429 984.246H722.714H728.814H732.756H738.387H759.034H761.756H768.325H772.361L778.649 983.683H780.901H782.403C785.688 983.683 788.973 982.934 791.788 982.559H793.383L804.552 980.779H805.584L808.493 980.217L813.655 979.186L817.785 978.249L823.697 978.436L827.827 977.406L832.707 976.094L836.836 974.876L841.623 973.47L843.688 972.815L845.189 972.252C848.098 971.315 850.914 970.378 853.73 969.254L855.043 968.504Z" fill="url(#paint8_linear_160_1531)"/>
<path style="mix-blend-mode:screen" d="M939.227 867.311L801.548 787.855L799.39 789.167L939.227 869.747C978.082 847.166 997.134 817.557 996.477 788.042C996.007 816.808 976.956 845.385 939.227 867.311Z" fill="url(#paint9_linear_160_1531)"/>
<g style="mix-blend-mode:screen">
<path style="mix-blend-mode:screen" d="M885.826 708.494L883.761 707.463L746.833 786.919L748.804 788.044L885.826 708.494Z" fill="url(#paint10_linear_160_1531)"/>
<path style="mix-blend-mode:screen" d="M884.7 868.53C807.836 912.006 684.516 911.631 607.934 867.5C569.736 845.481 550.403 816.715 549.746 787.856C549.746 817.465 568.516 847.167 607.934 869.748C685.173 914.255 809.995 914.255 886.671 869.748L884.7 868.53Z" fill="url(#paint11_linear_160_1531)"/>
</g>
<path style="mix-blend-mode:multiply" d="M21.2712 594.276L370.303 393.575L620.134 525.595C621.204 526.224 622.092 527.121 622.708 528.197C623.325 529.274 623.649 530.492 623.649 531.732C623.649 532.972 623.325 534.191 622.708 535.267C622.092 536.344 621.204 537.241 620.134 537.87L288.746 728.732C284.118 731.379 278.876 732.771 273.543 732.771C268.209 732.771 262.967 731.379 258.339 728.732L21.4589 604.208C20.6354 603.674 19.9555 602.946 19.4788 602.089C19.0021 601.232 18.7432 600.272 18.7247 599.291C18.7062 598.311 18.9286 597.342 19.3726 596.467C19.8165 595.593 20.4685 594.84 21.2712 594.276Z" fill="url(#paint12_linear_160_1531)"/>
<path d="M29.7177 265.396L364.578 72.3779C366.241 71.4609 368.112 70.9865 370.012 71.0003C371.912 71.0141 373.776 71.5157 375.426 72.4567C377.076 73.3978 378.455 74.7468 379.431 76.3739C380.408 78.001 380.949 79.8516 381.002 81.7477V368.651L36.3812 572.538L257.869 700.623C262.489 703.296 267.734 704.704 273.073 704.704C278.413 704.704 283.658 703.296 288.277 700.623L620.04 509.385C621.525 508.552 622.657 507.211 623.226 505.608C623.796 504.006 623.764 502.252 623.137 500.671C623.818 502.059 624.216 503.568 624.306 505.111C624.396 506.654 624.176 508.199 623.661 509.656C623.145 511.113 622.343 512.453 621.303 513.597C620.262 514.741 619.003 515.667 617.6 516.319L288.746 706.713C284.118 709.359 278.876 710.751 273.542 710.751C268.209 710.751 262.967 709.359 258.339 706.713L23.1482 581.158C21.7335 580.32 20.564 579.127 19.7569 577.696C18.9498 576.265 18.5334 574.648 18.5495 573.006V285.541C18.4883 281.502 19.487 277.517 21.4463 273.983C23.4056 270.449 26.2572 267.488 29.7177 265.396Z" fill="url(#paint13_linear_160_1531)"/>
<path d="M34.3162 268.206L369.176 75.095C370.377 74.4032 371.738 74.0395 373.124 74.0405C374.51 74.0416 375.871 74.4073 377.07 75.101C378.269 75.7946 379.264 76.7915 379.954 77.9913C380.644 79.1911 381.006 80.5514 381.002 81.935V358.438L22.6787 564.573V288.258C22.6819 284.189 23.7594 280.193 25.8025 276.673C27.8456 273.153 30.7822 270.233 34.3162 268.206Z" fill="url(#paint14_linear_160_1531)"/>
<path d="M366.173 95.6147V351.691L37.5068 540.493V285.072L366.173 95.6147Z" fill="url(#paint15_linear_160_1531)"/>
<path d="M381.002 358.438L620.134 497.111C621.204 497.74 622.091 498.637 622.708 499.713C623.325 500.79 623.649 502.008 623.649 503.248C623.649 504.488 623.325 505.707 622.708 506.783C622.091 507.859 621.204 508.757 620.134 509.385L288.746 700.623C284.127 703.297 278.882 704.705 273.542 704.705C268.203 704.705 262.958 703.297 258.338 700.623L22.6787 564.573L381.002 358.438Z" fill="url(#paint16_linear_160_1531)"/>
<path d="M378.374 373.336L509.296 449.044L185.134 635.503L53.7432 559.701L378.374 373.336Z" fill="url(#paint17_linear_160_1531)"/>
<path d="M102.545 542.741L117.749 552.111L137.552 540.68L122.348 531.872L102.545 543.21M130.7 526.906L145.998 535.714L165.707 524.283L150.503 515.475L130.7 526.906ZM158.856 510.509L174.06 519.317L193.862 507.979L178.658 499.078L159.325 509.947M187.48 493.55L202.684 502.358L223.05 491.208L207.752 482.4L188.043 493.737M216.199 477.434L231.402 486.242L251.205 474.717L236.001 465.909L216.199 477.34M244.354 460.943L259.558 469.751L279.36 458.32L264.063 449.512L244.354 460.943ZM272.509 444.546L287.713 453.354L307.516 442.016L292.312 433.209L272.885 444.359M301.04 428.055L316.244 436.863L336.328 425.619L321.03 416.811L301.321 428.242M329.477 411.845L344.774 420.653L364.483 409.222L349.279 400.414L329.477 411.845ZM357.632 395.448L372.836 404.256L392.638 392.918L377.434 384.017L357.632 395.448ZM97.5711 572.725L112.869 582.094L132.577 570.663L117.374 561.856L97.5711 573.193M125.726 556.89L140.93 565.697L160.733 554.266L145.529 545.459L126.008 556.796M154.163 540.399L169.367 549.207L189.17 537.869L173.872 528.499L154.163 539.93M182.318 523.533L197.522 532.903L217.325 521.472L202.121 512.664L182.318 524.002M210.474 507.698L225.678 516.506L245.48 505.075L230.182 496.267L210.474 507.698ZM238.629 491.301L253.833 500.109L273.635 488.771L258.432 479.402L239.567 491.208M267.723 474.81L282.927 484.18L303.011 472.468L287.807 463.098L268.004 474.436M296.16 458.132L311.457 466.94L331.166 455.509L315.962 446.701L296.16 458.132ZM324.315 441.735L339.519 450.543L359.321 439.205L344.117 429.835L324.315 441.267M352.47 424.869L367.674 433.677L387.383 422.34L373.211 414.094L353.221 425.619M381.376 409.222L396.58 418.592L416.57 406.879L401.367 397.51L381.564 408.847M121.128 586.405L136.331 595.212L156.134 583.781L140.836 574.973L121.128 586.405ZM149.283 570.008L164.487 578.815L184.289 567.478L169.085 558.108L149.283 569.539M177.438 553.142L192.642 562.512L212.445 551.08L197.241 542.273L177.438 553.61M205.593 537.307L220.891 546.115L240.6 534.683L225.396 525.876L205.593 537.307ZM233.749 520.91L248.953 529.717L269.975 518.38L254.771 509.01L234.969 520.441M263.124 504.044L278.422 513.414L298.13 501.983L282.927 493.175L263.124 504.513M291.279 488.209L306.483 497.017L326.286 485.586L311.082 476.778L291.279 488.209ZM319.435 471.812L334.638 480.62L354.441 469.282L339.143 460.381L319.435 471.812ZM347.59 455.415L362.794 464.785L382.596 453.354L368.049 444.359L348.247 455.696M376.402 439.393L391.606 448.2L411.409 436.769L396.111 427.961L376.402 439.393ZM404.557 422.995L419.855 431.803L439.564 420.466L424.36 411.096L404.557 422.527M144.59 599.991L159.794 608.798L207.94 580.689L192.736 571.881L144.59 599.991ZM201.37 567.29L216.574 576.098L236.377 564.667L221.173 555.859L201.37 567.29ZM229.525 550.893L244.729 559.701L264.438 548.363L249.234 539.462L229.525 550.893ZM257.681 534.496L272.885 543.397L292.687 531.966L277.483 523.159L257.681 534.496ZM285.836 518.193L301.04 527L320.842 515.569L305.545 506.761L285.836 518.193ZM313.991 501.795L329.195 510.603L348.998 499.266L333.794 489.896L313.991 501.327M342.147 484.93L357.35 494.3L377.153 482.868L361.949 474.061L342.147 485.398M370.302 469.095L385.6 477.902L405.308 466.471L391.981 457.664L372.179 469.095M400.334 452.698L415.538 461.505L463.684 433.396L448.292 424.963L400.146 453.072M168.053 613.671L183.257 622.478L203.059 611.047L187.856 602.24L168.053 613.671ZM196.208 597.274L211.412 606.081L231.496 594.275L216.199 585.468L196.49 596.899M224.645 580.502L239.849 589.309L259.652 577.972L244.448 568.602L224.645 580.033M252.8 563.636L268.004 573.006L401.367 496.08L386.163 487.272L252.8 564.105M394.797 482.306L410.752 491.208L430.46 479.87L415.256 470.969L395.548 482.4M423.703 466.003L438.907 475.373L458.709 463.941L443.506 455.134L423.703 466.471M451.858 450.168L467.062 458.975L486.865 447.544L471.567 438.737L451.858 450.168ZM74.1084 559.139L89.406 567.946L109.115 556.609L93.9109 547.239L74.1084 558.67" fill="url(#paint18_linear_160_1531)"/>
<path d="M407.467 522.035L487.804 567.759L383.254 628.007L302.636 582.282L407.467 522.035Z" fill="url(#paint19_linear_160_1531)"/>
<path d="M44.7333 580.877V588.842L30.2803 580.596V572.538L44.7333 580.877Z" fill="url(#paint20_linear_160_1531)"/>
<path style="mix-blend-mode:multiply" d="M30.2803 580.596L37.1314 576.567L30.2803 572.538V580.596Z" fill="url(#paint21_linear_160_1531)"/>
<path style="mix-blend-mode:multiply" d="M407.467 523.065L303.574 582.751L302.636 582.282L407.467 522.035L487.804 567.759L486.959 568.321L407.467 523.065Z" fill="url(#paint22_linear_160_1531)"/>
<path d="M325.16 179.569V388.14C324.974 391.725 323.942 395.214 322.148 398.324C320.354 401.435 317.848 404.077 314.837 406.037L17.7985 576.848C11.9797 580.128 7.38103 577.504 7.38103 570.945L7.19336 362.748L325.16 179.569Z" fill="url(#paint23_linear_160_1531)"/>
<path d="M17.0483 324.144C14.0365 326.103 11.5313 328.746 9.73714 331.856C7.94303 334.966 6.91078 338.456 6.72461 342.04V362.747L325.067 179.568V158.86C325.067 152.208 319.717 149.491 313.993 152.864L17.0483 324.144Z" fill="url(#paint24_linear_160_1531)"/>
<path d="M62.6596 445.577C65.6756 446.946 69.0008 447.494 72.2976 447.165C75.5943 446.836 78.7451 445.641 81.4298 443.703C89.0775 438.729 95.437 432.019 99.9881 424.12C104.539 416.222 107.152 407.36 107.614 398.259C107.723 394.691 107.05 391.141 105.643 387.859L121.598 370.993C123.952 376.431 125.104 382.311 124.977 388.234C124.914 395.414 123.807 402.547 121.692 409.409C119.433 416.97 116.283 424.235 112.307 431.054C108.318 437.822 103.563 444.11 98.1352 449.793C93.3028 455.092 87.7036 459.64 81.5236 463.286C76.3735 466.333 70.6592 468.309 64.7243 469.095C59.8306 469.738 54.8598 468.785 50.5527 466.378L62.6596 445.577Z" fill="url(#paint25_linear_160_1531)"/>
<path d="M97.8534 357.501C102.744 356.954 107.685 357.901 112.025 360.218C116.204 362.743 119.486 366.511 121.41 370.994L105.455 387.859C104.304 385.226 102.352 383.022 99.8759 381.559C97.3996 380.096 94.5249 379.448 91.6592 379.708L97.8534 357.501Z" fill="url(#paint26_linear_160_1531)"/>
<path d="M97.8535 357.5L91.6593 379.707C88.1054 380.204 84.6892 381.415 81.6172 383.267V363.31C86.5861 360.31 92.107 358.334 97.8535 357.5Z" fill="url(#paint27_linear_160_1531)"/>
<path d="M40.886 417.561C43.1258 409.964 46.277 402.665 50.2711 395.823L62.5655 402.85C57.843 410.639 55.2239 419.516 54.9636 428.617C54.655 431.868 55.2027 435.144 56.5526 438.118C57.9025 441.093 60.0077 443.664 62.6595 445.576L50.4588 466.658C46.2793 464.134 42.9972 460.366 41.0737 455.883C38.72 450.445 37.5676 444.565 37.6951 438.643C37.7207 431.497 38.7958 424.395 40.886 417.561Z" fill="url(#paint28_linear_160_1531)"/>
<path d="M81.1475 363.31V383.267C77.4484 385.484 74.0698 388.195 71.1054 391.325C67.8454 394.844 64.9814 398.708 62.565 402.85L50.2705 395.823C54.2591 389.054 59.0142 382.767 64.4421 377.083C69.2925 371.687 74.9232 367.045 81.1475 363.31Z" fill="url(#paint29_linear_160_1531)"/>
<path d="M186.73 348.037L164.018 361.155V405.568L186.73 392.544V348.037Z" fill="url(#paint30_linear_160_1531)"/>
<path d="M196.209 306.623V387.016L218.639 374.085V293.692L196.209 306.623Z" fill="url(#paint31_linear_160_1531)"/>
<path d="M250.549 293.692V355.72L228.024 368.651V306.623L250.549 293.692Z" fill="url(#paint32_linear_160_1531)"/>
<path d="M282.364 239.535V337.262L259.934 350.286V252.465L282.364 239.535Z" fill="url(#paint33_linear_160_1531)"/>
<path d="M300.008 386.36L300.102 393.762L33.8467 546.958V539.462L300.008 386.36Z" fill="url(#paint34_linear_160_1531)"/>
<path d="M300.008 367.714L300.102 375.21L33.8467 528.406V520.91L300.008 367.714Z" fill="url(#paint35_linear_160_1531)"/>
<path d="M300.101 356.844L154.914 440.329V432.833L300.101 349.255V356.844Z" fill="url(#paint36_linear_160_1531)"/>
<path d="M287.056 1097.9C279.068 1097.9 271.225 1095.77 264.344 1091.72L52.1475 968.037C49.4348 966.499 47.1788 964.272 45.6093 961.581C44.0398 958.889 43.2129 955.831 43.2129 952.717C43.2129 949.603 44.0398 946.544 45.6093 943.853C47.1788 941.162 49.4348 938.934 52.1475 937.397L117.843 901.605C121.131 899.71 123.855 896.975 125.736 893.682C127.616 890.389 128.584 886.655 128.542 882.865V840.701C128.54 835.114 130.014 829.625 132.815 824.789C135.616 819.952 139.646 815.939 144.497 813.154L188.231 787.949C188.761 787.71 189.36 787.676 189.913 787.853C190.466 788.03 190.934 788.405 191.226 788.906C191.518 789.408 191.613 789.999 191.493 790.567C191.374 791.134 191.047 791.637 190.578 791.978L146.843 817.183C142.708 819.567 139.273 822.995 136.885 827.123C134.496 831.251 133.237 835.934 133.235 840.701V882.865C133.239 887.441 132.035 891.938 129.745 895.902C127.455 899.866 124.159 903.158 120.189 905.446L54.4937 941.145C52.5071 942.279 50.8542 943.915 49.7011 945.889C48.548 947.862 47.9352 950.104 47.9242 952.389C47.899 954.694 48.4957 956.962 49.6517 958.957C50.8076 960.952 52.4801 962.599 54.4937 963.726L266.597 1087.41C272.738 1090.93 279.695 1092.78 286.775 1092.78C293.855 1092.78 300.812 1090.93 306.953 1087.41L416.664 1025.47C417.194 1025.23 417.793 1025.2 418.346 1025.38C418.899 1025.55 419.367 1025.93 419.659 1026.43C419.951 1026.93 420.046 1027.52 419.927 1028.09C419.807 1028.66 419.481 1029.16 419.011 1029.5L309.299 1091.53C302.569 1095.56 294.9 1097.75 287.056 1097.9Z" fill="white"/>
<path d="M-25.0913 967.1C-25.5042 967.11 -25.9125 967.012 -26.275 966.815C-26.6375 966.617 -26.9415 966.328 -27.1561 965.975C-27.4687 965.426 -27.5553 964.777 -27.3977 964.165C-27.2401 963.553 -26.8506 963.027 -26.3114 962.696L98.8858 890.736C102.198 888.86 104.946 886.133 106.845 882.837C108.743 879.541 109.721 875.798 109.679 871.996V829.832C109.676 824.256 111.14 818.778 113.923 813.944C116.707 809.11 120.712 805.089 125.539 802.285L169.368 777.08C169.904 776.773 170.539 776.689 171.137 776.847C171.734 777.005 172.245 777.392 172.559 777.924C172.867 778.459 172.951 779.093 172.792 779.69C172.634 780.286 172.247 780.796 171.714 781.109L127.886 806.408C123.775 808.788 120.363 812.205 117.991 816.316C115.619 820.427 114.371 825.088 114.371 829.832V871.996C114.366 876.582 113.148 881.085 110.841 885.05C108.534 889.015 105.219 892.301 101.232 894.578L-23.9651 966.631C-24.2967 966.877 -24.6833 967.038 -25.0913 967.1Z" fill="white"/>
<path d="M37.8823 997.176L-160.143 882.303C-163.917 880.363 -168.099 879.351 -172.344 879.351C-176.588 879.351 -180.771 880.363 -184.544 882.303L-264.975 928.027C-266.443 928.541 -267.716 929.498 -268.616 930.765C-269.516 932.032 -270 933.548 -270 935.101C-270 936.655 -269.516 938.17 -268.616 939.438C-267.716 940.705 -266.443 941.662 -264.975 942.176L-66.9492 1057.05C-63.1591 1058.99 -58.961 1060 -54.7016 1060C-50.4423 1060 -46.2442 1058.99 -42.4541 1057.05L37.6946 1010.86C44.7334 1006.55 44.7334 1000.64 37.8823 997.176Z" fill="url(#paint37_linear_160_1531)"/>
<path d="M42.9504 1003.74C42.899 1005.09 42.4412 1006.39 41.6365 1007.48C40.5992 1008.86 39.2894 1010.01 37.7886 1010.86L-42.36 1057.05C-43.2218 1057.55 -44.134 1057.96 -45.0817 1058.27L-47.5218 1059.02L-50.3373 1059.49H-58.5023H-60.6609H-62.3503H-63.6642C-64.8531 1059.14 -65.9896 1058.64 -67.0428 1057.99L-264.974 942.176L-266.101 941.426L-267.227 940.583C-267.748 940.1 -268.219 939.566 -268.635 938.99C-269.006 938.511 -269.292 937.973 -269.479 937.397C-269.577 936.808 -269.577 936.206 -269.479 935.617V950.327C-269.479 950.327 -269.479 950.983 -269.479 951.264C-269.439 951.481 -269.439 951.703 -269.479 951.92C-269.479 951.92 -269.479 952.576 -269.479 952.857V953.326L-268.447 954.45L-267.227 955.387L-266.382 956.043L-66.8551 1072.13C-65.7306 1072.71 -64.5707 1073.21 -63.3826 1073.63H-62.5379L-60.7547 1074.1H-60.1917H-58.5962H-50.9004H-49.1172H-48.2726H-46.771C-45.8919 1073.77 -45.0439 1073.36 -44.237 1072.88L36.0056 1026.6C37.4091 1025.97 38.619 1024.98 39.5099 1023.73C40.4009 1022.47 40.9407 1021.01 41.0735 1019.48L42.9504 1003.74Z" fill="url(#paint38_linear_160_1531)"/>
<path d="M9.16479 986.121L-155.262 890.83C-158.67 889.124 -162.43 888.235 -166.243 888.235C-170.055 888.235 -173.815 889.124 -177.223 890.83L-249.113 932.338C-250.449 932.774 -251.614 933.62 -252.44 934.756C-253.265 935.892 -253.71 937.259 -253.71 938.663C-253.71 940.066 -253.265 941.434 -252.44 942.57C-251.614 943.706 -250.449 944.552 -249.113 944.988L-84.78 1040.28C-81.3719 1041.98 -77.6119 1042.87 -73.7994 1042.87C-69.9868 1042.87 -66.2269 1041.98 -62.8188 1040.28L9.07092 998.864C10.3995 998.413 11.5547 997.561 12.376 996.425C13.1974 995.289 13.6443 993.927 13.6546 992.526C13.6649 991.125 13.2382 989.756 12.4337 988.608C11.6291 987.46 10.4866 986.591 9.16479 986.121Z" fill="url(#paint39_linear_160_1531)"/>
<path d="M674.849 1023.13C675.42 1023.83 675.833 1024.65 676.059 1025.52C676.285 1026.4 676.319 1027.31 676.158 1028.2C675.998 1029.09 675.647 1029.94 675.129 1030.68C674.612 1031.42 673.94 1032.04 673.16 1032.5L500.38 1132.57C496.885 1134.62 492.888 1135.66 488.836 1135.57C484.827 1135.55 480.888 1134.52 477.387 1132.57L242.759 997.271C241.959 996.832 241.266 996.222 240.73 995.485C240.194 994.747 239.827 993.901 239.657 993.005C239.486 992.11 239.516 991.188 239.744 990.306C239.972 989.423 240.393 988.602 240.976 987.901C238.583 991.128 237.292 995.036 237.292 999.051C237.292 1003.07 238.583 1006.97 240.976 1010.2C241.458 1011.01 242.135 1011.69 242.947 1012.17L477.574 1147.38C481.066 1149.4 485.033 1150.47 489.071 1150.47C493.109 1150.47 497.075 1149.4 500.568 1147.38L673.535 1047.59C674.245 1047.13 674.879 1046.56 675.412 1045.9C678.145 1042.7 679.6 1038.61 679.496 1034.41C679.392 1030.21 677.737 1026.19 674.849 1023.13Z" fill="url(#paint40_linear_160_1531)"/>
<path d="M673.534 1021.73L438.907 886.426C435.451 884.445 431.535 883.402 427.55 883.402C423.566 883.402 419.65 884.445 416.195 886.426L243.227 986.495C242.294 987.052 241.522 987.842 240.985 988.786C240.449 989.73 240.167 990.797 240.167 991.883C240.167 992.968 240.449 994.035 240.985 994.98C241.522 995.924 242.294 996.713 243.227 997.27L477.855 1132.57C481.362 1134.55 485.323 1135.59 489.351 1135.59C493.38 1135.59 497.341 1134.55 500.848 1132.57L673.534 1032.5C674.467 1031.94 675.239 1031.15 675.776 1030.21C676.312 1029.27 676.594 1028.2 676.594 1027.11C676.594 1026.03 676.312 1024.96 675.776 1024.02C675.239 1023.07 674.467 1022.28 673.534 1021.73Z" fill="url(#paint41_linear_160_1531)"/>
<path d="M438.062 898.888L266.597 997.739L472.036 1116.17L643.596 1017.23L438.062 898.888Z" fill="url(#paint42_linear_160_1531)"/>
<g style="mix-blend-mode:multiply">
<path d="M240.507 1007.02C241.015 1007.8 241.687 1008.48 242.478 1008.98L477.105 1144.19C480.597 1146.21 484.563 1147.28 488.602 1147.28C492.64 1147.28 496.606 1146.21 500.098 1144.19L673.535 1044.03C674.262 1043.63 674.901 1043.09 675.412 1042.43C677.633 1039.75 679.062 1036.51 679.541 1033.06C679.761 1035.43 679.509 1037.81 678.8 1040.08C678.091 1042.35 676.94 1044.45 675.412 1046.27C674.879 1046.93 674.245 1047.5 673.535 1047.96L500.755 1147.94C497.263 1149.96 493.297 1151.03 489.259 1151.03C485.22 1151.03 481.254 1149.96 477.762 1147.94L243.134 1012.73C242.323 1012.25 241.645 1011.57 241.164 1010.76C238.408 1007.3 237.127 1002.89 237.597 998.489C237.751 1001.55 238.759 1004.5 240.507 1007.02Z" fill="#E3F0FC"/>
</g>
<path style="mix-blend-mode:multiply" d="M256.555 1005.33L253.833 1003.74C252.668 1004.61 251.721 1005.74 251.07 1007.04C250.418 1008.34 250.079 1009.78 250.079 1011.23C249.928 1013.28 250.249 1015.33 251.018 1017.23L255.429 1019.76C254.485 1018.71 253.766 1017.48 253.314 1016.14C252.862 1014.8 252.688 1013.39 252.801 1011.98C253.176 1007.3 255.335 1005.8 256.555 1005.33Z" fill="url(#paint43_linear_160_1531)"/>
<path d="M563.354 1069.14C562.25 1069.5 561.289 1070.21 560.608 1071.15C559.927 1072.09 559.561 1073.22 559.561 1074.38C559.561 1075.55 559.927 1076.68 560.608 1077.62C561.289 1078.56 562.25 1079.27 563.354 1079.63C566.158 1081.06 569.262 1081.81 572.411 1081.81C575.56 1081.81 578.664 1081.06 581.468 1079.63C582.572 1079.27 583.533 1078.56 584.214 1077.62C584.895 1076.68 585.262 1075.55 585.262 1074.38C585.262 1073.22 584.895 1072.09 584.214 1071.15C583.533 1070.21 582.572 1069.5 581.468 1069.14C578.66 1067.72 575.557 1066.98 572.411 1066.98C569.265 1066.98 566.163 1067.72 563.354 1069.14Z" fill="url(#paint44_linear_160_1531)"/>
<path style="mix-blend-mode:multiply" opacity="0.5" d="M438.062 899.45L267.066 998.02L266.597 997.739L438.062 898.888L643.596 1017.23L643.033 1017.51L438.062 899.45Z" fill="url(#paint45_linear_160_1531)"/>
</g>
</g>
<defs>
<linearGradient id="paint0_linear_160_1531" x1="599.768" y1="381.019" x2="600.049" y2="381.019" gradientUnits="userSpaceOnUse">
<stop stop-color="#DD59B4"/>
<stop offset="0.08" stop-color="#B642AE"/>
<stop offset="0.2" stop-color="#8627A6"/>
<stop offset="0.29" stop-color="#6413A1"/>
<stop offset="0.38" stop-color="#4F069D"/>
<stop offset="0.43" stop-color="#47029C"/>
<stop offset="0.5" stop-color="#470A9E"/>
<stop offset="0.61" stop-color="#451EA4"/>
<stop offset="0.74" stop-color="#4341AD"/>
<stop offset="0.88" stop-color="#4070BA"/>
<stop offset="1" stop-color="#3D9AC5"/>
</linearGradient>
<linearGradient id="paint1_linear_160_1531" x1="174.248" y1="341.666" x2="466.786" y2="771.059" gradientUnits="userSpaceOnUse">
<stop stop-color="#00A0E4"/>
<stop offset="0.03" stop-color="#0594DE"/>
<stop offset="0.18" stop-color="#1E60C4"/>
<stop offset="0.31" stop-color="#2F3BB1"/>
<stop offset="0.41" stop-color="#3A23A5"/>
<stop offset="0.48" stop-color="#3E1BA1"/>
<stop offset="0.54" stop-color="#4F20A3"/>
<stop offset="0.67" stop-color="#7B2FA7"/>
<stop offset="0.86" stop-color="#C245AE"/>
<stop offset="1" stop-color="#FF59B4"/>
</linearGradient>
<linearGradient id="paint2_linear_160_1531" x1="-143.814" y1="712.803" x2="773.11" y2="712.803" gradientUnits="userSpaceOnUse">
<stop stop-color="#3D9AC5"/>
<stop offset="0.12" stop-color="#4070BA"/>
<stop offset="0.26" stop-color="#4341AD"/>
<stop offset="0.39" stop-color="#451EA4"/>
<stop offset="0.5" stop-color="#470A9E"/>
<stop offset="0.57" stop-color="#47029C"/>
<stop offset="0.62" stop-color="#4F069D"/>
<stop offset="0.71" stop-color="#6413A1"/>
<stop offset="0.8" stop-color="#8627A6"/>
<stop offset="0.92" stop-color="#B642AE"/>
<stop offset="1" stop-color="#DD59B4"/>
</linearGradient>
<linearGradient id="paint3_linear_160_1531" x1="179.973" y1="354.034" x2="464.926" y2="772.359" gradientUnits="userSpaceOnUse">
<stop stop-color="#00A0E4"/>
<stop offset="0.09" stop-color="#099EE2"/>
<stop offset="0.22" stop-color="#2097DE"/>
<stop offset="0.39" stop-color="#468CD7"/>
<stop offset="0.59" stop-color="#7B7ECD"/>
<stop offset="0.81" stop-color="#BE6BC0"/>
<stop offset="1" stop-color="#FF59B4"/>
</linearGradient>
<linearGradient id="paint4_linear_160_1531" x1="708.354" y1="815.215" x2="990.894" y2="751.208" gradientUnits="userSpaceOnUse">
<stop stop-color="#3D9AC5"/>
<stop offset="0.12" stop-color="#4070BA"/>
<stop offset="0.26" stop-color="#4341AD"/>
<stop offset="0.39" stop-color="#451EA4"/>
<stop offset="0.5" stop-color="#470A9E"/>
<stop offset="0.57" stop-color="#47029C"/>
<stop offset="0.62" stop-color="#4F069D"/>
<stop offset="0.71" stop-color="#6413A1"/>
<stop offset="0.8" stop-color="#8627A6"/>
<stop offset="0.92" stop-color="#B642AE"/>
<stop offset="1" stop-color="#DD59B4"/>
</linearGradient>
<linearGradient id="paint5_linear_160_1531" x1="566.17" y1="871.715" x2="1001.73" y2="871.715" gradientUnits="userSpaceOnUse">
<stop stop-color="#3D9AC5"/>
<stop offset="0.12" stop-color="#4070BA"/>
<stop offset="0.26" stop-color="#4341AD"/>
<stop offset="0.39" stop-color="#451EA4"/>
<stop offset="0.5" stop-color="#470A9E"/>
<stop offset="0.57" stop-color="#47029C"/>
<stop offset="0.62" stop-color="#4F069D"/>
<stop offset="0.71" stop-color="#6413A1"/>
<stop offset="0.8" stop-color="#8627A6"/>
<stop offset="0.92" stop-color="#B642AE"/>
<stop offset="1" stop-color="#DD59B4"/>
</linearGradient>
<linearGradient id="paint6_linear_160_1531" x1="871.843" y1="739.507" x2="972.224" y2="890.418" gradientUnits="userSpaceOnUse">
<stop stop-color="#00A0E4"/>
<stop offset="0.03" stop-color="#0594DE"/>
<stop offset="0.18" stop-color="#1E60C4"/>
<stop offset="0.31" stop-color="#2F3BB1"/>
<stop offset="0.41" stop-color="#3A23A5"/>
<stop offset="0.48" stop-color="#3E1BA1"/>
<stop offset="0.54" stop-color="#4F20A3"/>
<stop offset="0.67" stop-color="#7B2FA7"/>
<stop offset="0.86" stop-color="#C245AE"/>
<stop offset="1" stop-color="#FF59B4"/>
</linearGradient>
<linearGradient id="paint7_linear_160_1531" x1="816.846" y1="871.434" x2="1003.89" y2="871.434" gradientUnits="userSpaceOnUse">
<stop stop-color="#3D9AC5"/>
<stop offset="0.12" stop-color="#4070BA"/>
<stop offset="0.26" stop-color="#4341AD"/>
<stop offset="0.39" stop-color="#451EA4"/>
<stop offset="0.5" stop-color="#470A9E"/>
<stop offset="0.57" stop-color="#47029C"/>
<stop offset="0.62" stop-color="#4F069D"/>
<stop offset="0.71" stop-color="#6413A1"/>
<stop offset="0.8" stop-color="#8627A6"/>
<stop offset="0.92" stop-color="#B642AE"/>
<stop offset="1" stop-color="#DD59B4"/>
</linearGradient>
<linearGradient id="paint8_linear_160_1531" x1="566.17" y1="887.831" x2="1001.73" y2="887.831" gradientUnits="userSpaceOnUse">
<stop stop-color="#3D9AC5"/>
<stop offset="0.12" stop-color="#4070BA"/>
<stop offset="0.26" stop-color="#4341AD"/>
<stop offset="0.39" stop-color="#451EA4"/>
<stop offset="0.5" stop-color="#470A9E"/>
<stop offset="0.57" stop-color="#47029C"/>
<stop offset="0.62" stop-color="#4F069D"/>
<stop offset="0.71" stop-color="#6413A1"/>
<stop offset="0.8" stop-color="#8627A6"/>
<stop offset="0.92" stop-color="#B642AE"/>
<stop offset="1" stop-color="#DD59B4"/>
</linearGradient>
<linearGradient id="paint9_linear_160_1531" x1="814.593" y1="692.283" x2="957.542" y2="858.078" gradientUnits="userSpaceOnUse">
<stop stop-color="#00A0E4"/>
<stop offset="0.09" stop-color="#099EE2"/>
<stop offset="0.22" stop-color="#2097DE"/>
<stop offset="0.39" stop-color="#468CD7"/>
<stop offset="0.59" stop-color="#7B7ECD"/>
<stop offset="0.81" stop-color="#BE6BC0"/>
<stop offset="1" stop-color="#FF59B4"/>
</linearGradient>
<linearGradient id="paint10_linear_160_1531" x1="884.888" y1="712.242" x2="683.154" y2="817.078" gradientUnits="userSpaceOnUse">
<stop stop-color="#00A0E4"/>
<stop offset="0.09" stop-color="#099EE2"/>
<stop offset="0.22" stop-color="#2097DE"/>
<stop offset="0.39" stop-color="#468CD7"/>
<stop offset="0.59" stop-color="#7B7ECD"/>
<stop offset="0.81" stop-color="#BE6BC0"/>
<stop offset="1" stop-color="#FF59B4"/>
</linearGradient>
<linearGradient id="paint11_linear_160_1531" x1="878.224" y1="852.227" x2="445.103" y2="839.63" gradientUnits="userSpaceOnUse">
<stop stop-color="#00A0E4"/>
<stop offset="0.09" stop-color="#099EE2"/>
<stop offset="0.22" stop-color="#2097DE"/>
<stop offset="0.39" stop-color="#468CD7"/>
<stop offset="0.59" stop-color="#7B7ECD"/>
<stop offset="0.81" stop-color="#BE6BC0"/>
<stop offset="1" stop-color="#FF59B4"/>
</linearGradient>
<linearGradient id="paint12_linear_160_1531" x1="320.937" y1="845.48" x2="320.937" y2="417.655" gradientUnits="userSpaceOnUse">
<stop stop-color="#3D9AC5"/>
<stop offset="0.12" stop-color="#4070BA"/>
<stop offset="0.26" stop-color="#4341AD"/>
<stop offset="0.39" stop-color="#451EA4"/>
<stop offset="0.5" stop-color="#470A9E"/>
<stop offset="0.57" stop-color="#47029C"/>
<stop offset="0.62" stop-color="#4F069D"/>
<stop offset="0.71" stop-color="#6413A1"/>
<stop offset="0.8" stop-color="#8627A6"/>
<stop offset="0.92" stop-color="#B642AE"/>
<stop offset="1" stop-color="#DD59B4"/>
</linearGradient>
<linearGradient id="paint13_linear_160_1531" x1="64.818" y1="193.248" x2="428.743" y2="555.891" gradientUnits="userSpaceOnUse">
<stop stop-color="#4743B7"/>
<stop offset="0.08" stop-color="#493EB5"/>
<stop offset="1" stop-color="#66019C"/>
</linearGradient>
<linearGradient id="paint14_linear_160_1531" x1="103.578" y1="133.656" x2="352.675" y2="613.348" gradientUnits="userSpaceOnUse">
<stop stop-color="#00D6FF"/>
<stop offset="0.14" stop-color="#23B8F2"/>
<stop offset="0.74" stop-color="#BC35B9"/>
<stop offset="1" stop-color="#F900A2"/>
</linearGradient>
<linearGradient id="paint15_linear_160_1531" x1="157.73" y1="217.516" x2="258.437" y2="447.665" gradientUnits="userSpaceOnUse">
<stop stop-color="#4743B7"/>
<stop offset="0.08" stop-color="#493EB5"/>
<stop offset="1" stop-color="#66019C"/>
</linearGradient>
<linearGradient id="paint16_linear_160_1531" x1="57.0281" y1="531.592" x2="656.642" y2="531.592" gradientUnits="userSpaceOnUse">
<stop stop-color="#00D6FF"/>
<stop offset="0.14" stop-color="#23B8F2"/>
<stop offset="0.74" stop-color="#BC35B9"/>
<stop offset="1" stop-color="#F900A2"/>
</linearGradient>
<linearGradient id="paint17_linear_160_1531" x1="69.8855" y1="504.326" x2="555.658" y2="504.326" gradientUnits="userSpaceOnUse">
<stop stop-color="#4743B7"/>
<stop offset="0.08" stop-color="#493EB5"/>
<stop offset="1" stop-color="#66019C"/>
</linearGradient>
<linearGradient id="paint18_linear_160_1531" x1="234.124" y1="450.355" x2="402.744" y2="643.083" gradientUnits="userSpaceOnUse">
<stop stop-color="#00D6FF"/>
<stop offset="0.14" stop-color="#23B8F2"/>
<stop offset="0.74" stop-color="#BC35B9"/>
<stop offset="1" stop-color="#F900A2"/>
</linearGradient>
<linearGradient id="paint19_linear_160_1531" x1="345.056" y1="506.387" x2="447.698" y2="647.094" gradientUnits="userSpaceOnUse">
<stop stop-color="#4743B7"/>
<stop offset="0.08" stop-color="#493EB5"/>
<stop offset="1" stop-color="#66019C"/>
</linearGradient>
<linearGradient id="paint20_linear_160_1531" x1="42.9502" y1="583.782" x2="10.3157" y2="565.371" gradientUnits="userSpaceOnUse">
<stop stop-color="#4743B7"/>
<stop offset="0.08" stop-color="#493EB5"/>
<stop offset="1" stop-color="#66019C"/>
</linearGradient>
<linearGradient id="paint21_linear_160_1531" x1="38.8207" y1="564.199" x2="32.8299" y2="576.294" gradientUnits="userSpaceOnUse">
<stop stop-color="#4743B7"/>
<stop offset="0.08" stop-color="#493EB5"/>
<stop offset="1" stop-color="#66019C"/>
</linearGradient>
<linearGradient id="paint22_linear_160_1531" x1="303.011" y1="471.719" x2="438.66" y2="624.104" gradientUnits="userSpaceOnUse">
<stop stop-color="#4743B7"/>
<stop offset="0.08" stop-color="#493EB5"/>
<stop offset="1" stop-color="#66019C"/>
</linearGradient>
<linearGradient id="paint23_linear_160_1531" x1="8.31957" y1="378.958" x2="699.156" y2="378.958" gradientUnits="userSpaceOnUse">
<stop stop-color="white"/>
<stop offset="0.12" stop-color="#EAFBFF"/>
<stop offset="0.38" stop-color="#B5F1FE"/>
<stop offset="0.74" stop-color="#61E0FE"/>
<stop offset="1" stop-color="#21D4FD"/>
</linearGradient>
<linearGradient id="paint24_linear_160_1531" x1="-0.408063" y1="305.966" x2="518.165" y2="149.68" gradientUnits="userSpaceOnUse">
<stop stop-color="#00D6FF"/>
<stop offset="0.14" stop-color="#23B8F2"/>
<stop offset="0.74" stop-color="#BC35B9"/>
<stop offset="1" stop-color="#F900A2"/>
</linearGradient>
<linearGradient id="paint25_linear_160_1531" x1="57.967" y1="465.815" x2="165.614" y2="350.579" gradientUnits="userSpaceOnUse">
<stop stop-color="#00D6FF"/>
<stop offset="0.14" stop-color="#23B8F2"/>
<stop offset="0.74" stop-color="#BC35B9"/>
<stop offset="1" stop-color="#F900A2"/>
</linearGradient>
<linearGradient id="paint26_linear_160_1531" x1="77.4877" y1="358.438" x2="125.789" y2="382.581" gradientUnits="userSpaceOnUse">
<stop stop-color="#4743B7"/>
<stop offset="0.08" stop-color="#493EB5"/>
<stop offset="1" stop-color="#66019C"/>
</linearGradient>
<linearGradient id="paint27_linear_160_1531" x1="113.245" y1="371.087" x2="69.792" y2="369.865" gradientUnits="userSpaceOnUse">
<stop stop-color="#00D6FF"/>
<stop offset="0.14" stop-color="#23B8F2"/>
<stop offset="0.74" stop-color="#BC35B9"/>
<stop offset="1" stop-color="#F900A2"/>
</linearGradient>
<linearGradient id="paint28_linear_160_1531" x1="32.721" y1="399.477" x2="64.7432" y2="450.215" gradientUnits="userSpaceOnUse">
<stop stop-color="#4743B7"/>
<stop offset="0.08" stop-color="#493EB5"/>
<stop offset="1" stop-color="#66019C"/>
</linearGradient>
<linearGradient id="paint29_linear_160_1531" x1="79.6459" y1="380.644" x2="-27.4072" y2="414.1" gradientUnits="userSpaceOnUse">
<stop stop-color="#00D6FF"/>
<stop offset="0.14" stop-color="#23B8F2"/>
<stop offset="0.74" stop-color="#BC35B9"/>
<stop offset="1" stop-color="#F900A2"/>
</linearGradient>
<linearGradient id="paint30_linear_160_1531" x1="171.713" y1="356.845" x2="182.098" y2="413.632" gradientUnits="userSpaceOnUse">
<stop stop-color="#4743B7"/>
<stop offset="0.08" stop-color="#493EB5"/>
<stop offset="1" stop-color="#66019C"/>
</linearGradient>
<linearGradient id="paint31_linear_160_1531" x1="197.147" y1="301.001" x2="231.299" y2="432.393" gradientUnits="userSpaceOnUse">
<stop stop-color="#00D6FF"/>
<stop offset="0.14" stop-color="#23B8F2"/>
<stop offset="0.74" stop-color="#BC35B9"/>
<stop offset="1" stop-color="#F900A2"/>
</linearGradient>
<linearGradient id="paint32_linear_160_1531" x1="230.183" y1="305.498" x2="255.262" y2="376.453" gradientUnits="userSpaceOnUse">
<stop stop-color="#4743B7"/>
<stop offset="0.08" stop-color="#493EB5"/>
<stop offset="1" stop-color="#66019C"/>
</linearGradient>
<linearGradient id="paint33_linear_160_1531" x1="260.309" y1="244.689" x2="294.458" y2="402.405" gradientUnits="userSpaceOnUse">
<stop stop-color="#00D6FF"/>
<stop offset="0.14" stop-color="#23B8F2"/>
<stop offset="0.74" stop-color="#BC35B9"/>
<stop offset="1" stop-color="#F900A2"/>
</linearGradient>
<linearGradient id="paint34_linear_160_1531" x1="19.2998" y1="466.659" x2="704.693" y2="466.659" gradientUnits="userSpaceOnUse">
<stop stop-color="#00D6FF"/>
<stop offset="0.14" stop-color="#23B8F2"/>
<stop offset="0.74" stop-color="#BC35B9"/>
<stop offset="1" stop-color="#F900A2"/>
</linearGradient>
<linearGradient id="paint35_linear_160_1531" x1="19.2998" y1="448.013" x2="704.693" y2="448.013" gradientUnits="userSpaceOnUse">
<stop stop-color="#00D6FF"/>
<stop offset="0.14" stop-color="#23B8F2"/>
<stop offset="0.74" stop-color="#BC35B9"/>
<stop offset="1" stop-color="#F900A2"/>
</linearGradient>
<linearGradient id="paint36_linear_160_1531" x1="19.2995" y1="394.792" x2="704.693" y2="394.792" gradientUnits="userSpaceOnUse">
<stop stop-color="#00D6FF"/>
<stop offset="0.14" stop-color="#23B8F2"/>
<stop offset="0.74" stop-color="#BC35B9"/>
<stop offset="1" stop-color="#F900A2"/>
</linearGradient>
<linearGradient id="paint37_linear_160_1531" x1="-192.146" y1="877.337" x2="-44.3294" y2="1051.1" gradientUnits="userSpaceOnUse">
<stop stop-color="#00A0E4"/>
<stop offset="0.03" stop-color="#0594DE"/>
<stop offset="0.18" stop-color="#1E60C4"/>
<stop offset="0.31" stop-color="#2F3BB1"/>
<stop offset="0.41" stop-color="#3A23A5"/>
<stop offset="0.48" stop-color="#3E1BA1"/>
<stop offset="0.54" stop-color="#4F20A3"/>
<stop offset="0.67" stop-color="#7B2FA7"/>
<stop offset="0.86" stop-color="#C245AE"/>
<stop offset="1" stop-color="#FF59B4"/>
</linearGradient>
<linearGradient id="paint38_linear_160_1531" x1="-256.903" y1="1005.14" x2="99.4487" y2="1005.14" gradientUnits="userSpaceOnUse">
<stop stop-color="#3D9AC5"/>
<stop offset="0.12" stop-color="#4070BA"/>
<stop offset="0.26" stop-color="#4341AD"/>
<stop offset="0.39" stop-color="#451EA4"/>
<stop offset="0.5" stop-color="#470A9E"/>
<stop offset="0.57" stop-color="#47029C"/>
<stop offset="0.62" stop-color="#4F069D"/>
<stop offset="0.71" stop-color="#6413A1"/>
<stop offset="0.8" stop-color="#8627A6"/>
<stop offset="0.92" stop-color="#B642AE"/>
<stop offset="1" stop-color="#DD59B4"/>
</linearGradient>
<linearGradient id="paint39_linear_160_1531" x1="-39.1684" y1="1089" x2="-184.492" y2="866.345" gradientUnits="userSpaceOnUse">
<stop stop-color="white"/>
<stop offset="0.12" stop-color="#EAFBFF"/>
<stop offset="0.38" stop-color="#B5F1FE"/>
<stop offset="0.74" stop-color="#61E0FE"/>
<stop offset="1" stop-color="#21D4FD"/>
</linearGradient>
<linearGradient id="paint40_linear_160_1531" x1="283.866" y1="1069.42" x2="694.276" y2="1069.42" gradientUnits="userSpaceOnUse">
<stop stop-color="#3D9AC5"/>
<stop offset="0.12" stop-color="#4070BA"/>
<stop offset="0.26" stop-color="#4341AD"/>
<stop offset="0.39" stop-color="#451EA4"/>
<stop offset="0.5" stop-color="#470A9E"/>
<stop offset="0.57" stop-color="#47029C"/>
<stop offset="0.62" stop-color="#4F069D"/>
<stop offset="0.71" stop-color="#6413A1"/>
<stop offset="0.8" stop-color="#8627A6"/>
<stop offset="0.92" stop-color="#B642AE"/>
<stop offset="1" stop-color="#DD59B4"/>
</linearGradient>
<linearGradient id="paint41_linear_160_1531" x1="362.324" y1="900.574" x2="550.148" y2="1115.35" gradientUnits="userSpaceOnUse">
<stop stop-color="#3D9AC5"/>
<stop offset="0.12" stop-color="#4070BA"/>
<stop offset="0.26" stop-color="#4341AD"/>
<stop offset="0.39" stop-color="#451EA4"/>
<stop offset="0.5" stop-color="#470A9E"/>
<stop offset="0.57" stop-color="#47029C"/>
<stop offset="0.62" stop-color="#4F069D"/>
<stop offset="0.71" stop-color="#6413A1"/>
<stop offset="0.8" stop-color="#8627A6"/>
<stop offset="0.92" stop-color="#B642AE"/>
<stop offset="1" stop-color="#DD59B4"/>
</linearGradient>
<linearGradient id="paint42_linear_160_1531" x1="525.907" y1="1078.98" x2="193.192" y2="742.057" gradientUnits="userSpaceOnUse">
<stop stop-color="white"/>
<stop offset="0.12" stop-color="#EAFBFF"/>
<stop offset="0.38" stop-color="#B5F1FE"/>
<stop offset="0.74" stop-color="#61E0FE"/>
<stop offset="1" stop-color="#21D4FD"/>
</linearGradient>
<linearGradient id="paint43_linear_160_1531" x1="259.464" y1="998.863" x2="255.253" y2="1008.89" gradientUnits="userSpaceOnUse">
<stop stop-color="#FBFCFC"/>
<stop offset="1" stop-color="#D8E0E7"/>
</linearGradient>
<linearGradient id="paint44_linear_160_1531" x1="566.17" y1="1079.63" x2="505.623" y2="1130.14" gradientUnits="userSpaceOnUse">
<stop stop-color="white"/>
<stop offset="0.12" stop-color="#EAFBFF"/>
<stop offset="0.38" stop-color="#B5F1FE"/>
<stop offset="0.74" stop-color="#61E0FE"/>
<stop offset="1" stop-color="#21D4FD"/>
</linearGradient>
<linearGradient id="paint45_linear_160_1531" x1="439.845" y1="901.699" x2="461.643" y2="1053.78" gradientUnits="userSpaceOnUse">
<stop stop-color="#78C0FF"/>
<stop offset="1" stop-color="#458BFE"/>
</linearGradient>
<clipPath id="clip0_160_1531">
<rect width="960" height="1080" fill="white"/>
</clipPath>
</defs>
</svg>
