<svg width="48" height="48" viewBox="0 0 48 48" fill="none" xmlns="http://www.w3.org/2000/svg">
<circle opacity="0.1" cx="15.5998" cy="31.1999" r="10.8" fill="#7DB3F3"/>
<path opacity="0.1" d="M36.5996 20.9998L31.1996 15.5998L30.5996 14.9998L37.7996 7.7998L43.7996 13.7998L36.5996 20.9998Z" fill="#7DB3F3"/>
<path d="M41.9996 4L37.9996 8M37.9996 8L43.9996 14L36.9996 21L30.9996 15M37.9996 8L30.9996 15M22.7796 23.22C23.8123 24.2389 24.6332 25.4521 25.1951 26.7896C25.757 28.1271 26.0488 29.5625 26.0536 31.0133C26.0585 32.464 25.7763 33.9014 25.2234 35.2426C24.6705 36.5838 23.8577 37.8025 22.8319 38.8283C21.806 39.8541 20.5874 40.6669 19.2462 41.2198C17.9049 41.7728 16.4676 42.0549 15.0168 42.0501C13.5661 42.0452 12.1307 41.7534 10.7932 41.1915C9.45565 40.6296 8.24251 39.8087 7.22357 38.776C5.21983 36.7014 4.1111 33.9228 4.13616 31.0386C4.16122 28.1544 5.31808 25.3955 7.35757 23.356C9.39706 21.3165 12.156 20.1596 15.0402 20.1346C17.9243 20.1095 20.7029 21.2183 22.7776 23.222L22.7796 23.22ZM22.7796 23.22L30.9996 15" stroke="#7DB3F3" stroke-width="4" stroke-linecap="round" stroke-linejoin="round"/>
</svg>
