<svg width="14" height="14" viewBox="0 0 14 14" fill="none" xmlns="http://www.w3.org/2000/svg">
<g id="interface-user-check--actions-close-checkmark-check-geometric-human-person-single-success-up-user" clip-path="url(#clip0_1236_700)">
<g id="Group">
<path id="Vector" d="M13.5 8L9.38 13.5L6.63 11.44" stroke="#9B9B9B" stroke-linecap="round" stroke-linejoin="round"/>
<path id="Vector_2" d="M5 5C6.24264 5 7.25 3.99264 7.25 2.75C7.25 1.50736 6.24264 0.5 5 0.5C3.75736 0.5 2.75 1.50736 2.75 2.75C2.75 3.99264 3.75736 5 5 5Z" stroke="#9B9B9B" stroke-linecap="round" stroke-linejoin="round"/>
<path id="Vector_3" d="M3 12.5H0.5V11C0.500782 10.1105 0.765127 9.24125 1.25965 8.50196C1.75417 7.76266 2.45668 7.1865 3.27846 6.84623C4.10024 6.50596 5.00442 6.41685 5.87682 6.59016C6.74921 6.76346 7.55068 7.19141 8.18 7.81995" stroke="#9B9B9B" stroke-linecap="round" stroke-linejoin="round"/>
</g>
</g>
<defs>
<clipPath id="clip0_1236_700">
<rect width="14" height="14" fill="white"/>
</clipPath>
</defs>
</svg>
