<?xml version="1.0" encoding="UTF-8"?>
<svg width="88px" height="74px" viewBox="0 0 88 74" version="1.1" xmlns="http://www.w3.org/2000/svg" xmlns:xlink="http://www.w3.org/1999/xlink">
    <title>administration_dep_logo</title>
    <defs></defs>
    <g id="Screens" stroke="none" stroke-width="1" fill="none" fill-rule="evenodd">
        <g id="Multidepartment" transform="translate(-1227.000000, -491.000000)" fill="#F5A623">
            <g id="Group-5" transform="translate(317.000000, 467.000000)">
                <g id="Group-2-Copy-2" transform="translate(828.000000, 0.000000)">
                    <g id="administration_crm_dep_logo" transform="translate(82.000000, 24.000000)">
                        <path d="M54.7283951,10.8654548 L54.7283951,8 C54.7283951,6.8954305 55.6238256,6 56.7283951,6 L64.2716049,6 C65.3761744,6 66.2716049,6.8954305 66.2716049,8 L66.2716049,10.6069576 C68.473256,11.1232546 70.5530786,11.9558551 72.4605161,13.0542025 L74.4350288,11.0796898 C75.2160774,10.2986412 76.4824074,10.2986412 77.263456,11.0796898 L82.9203102,16.736544 C83.7013588,17.5175926 83.7013588,18.7839226 82.9203102,19.5649712 L80.9457975,21.5394839 C81.9606442,23.3019105 82.7486144,25.2115077 83.2698275,27.2283951 L85.5,27.2283951 C86.6045695,27.2283951 87.5,28.1238256 87.5,29.2283951 L87.5,36.7716049 C87.5,37.8761744 86.6045695,38.7716049 85.5,38.7716049 L83.2698275,38.7716049 C82.7486144,40.7884923 81.9606442,42.6980895 80.9457975,44.4605161 L82.9203102,46.4350288 C83.7013588,47.2160774 83.7013588,48.4824074 82.9203102,49.263456 L77.263456,54.9203102 C76.4824074,55.7013588 75.2160774,55.7013588 74.4350288,54.9203102 L72.4605161,52.9457975 C70.5530786,54.0441449 68.473256,54.8767454 66.2716049,55.3930424 L66.2716049,58 C66.2716049,59.1045695 65.3761744,60 64.2716049,60 L56.7283951,60 C55.6238256,60 54.7283951,59.1045695 54.7283951,58 L54.7283951,55.1345452 C52.8955061,54.6162389 51.1556187,53.876406 49.5394839,52.9457975 L47.5649712,54.9203102 C46.7839226,55.7013588 45.5175926,55.7013588 44.736544,54.9203102 L39.0796898,49.263456 C38.2986412,48.4824074 38.2986412,47.2160774 39.0796898,46.4350288 L41.0542025,44.4605161 C40.0393558,42.6980895 39.2513856,40.7884923 38.7301725,38.7716049 L35.5,38.7716049 C34.3954305,38.7716049 33.5,37.8761744 33.5,36.7716049 L33.5,29.2283951 C33.5,28.1238256 34.3954305,27.2283951 35.5,27.2283951 L38.7301725,27.2283951 C39.2513856,25.2115077 40.0393558,23.3019105 41.0542025,21.5394839 L39.0796898,19.5649712 C38.2986412,18.7839226 38.2986412,17.5175926 39.0796898,16.736544 L44.736544,11.0796898 C45.5175926,10.2986412 46.7839226,10.2986412 47.5649712,11.0796898 L49.5394839,13.0542025 C51.1556187,12.123594 52.8955061,11.3837611 54.7283951,10.8654548 L54.7283951,10.8654548 Z M60.5,47 C67.9558441,47 74,40.9558441 74,33.5 C74,26.0441559 67.9558441,20 60.5,20 C53.0441559,20 47,26.0441559 47,33.5 C47,40.9558441 53.0441559,47 60.5,47 Z" id="Combined-Shape"></path>
                        <path d="M15.4074074,38.5115163 L15.4074074,36.5 C15.4074074,35.6715729 16.0789803,35 16.9074074,35 L22.0925926,35 C22.9210197,35 23.5925926,35.6715729 23.5925926,36.5 L23.5925926,38.5115163 C25.0402924,38.8809772 26.4114331,39.4418869 27.6774576,40.1656881 L28.8994949,38.9436508 C29.4852814,38.3578644 30.4350288,38.3578644 31.0208153,38.9436508 L34.5563492,42.4791847 C35.1421356,43.0649712 35.1421356,44.0147186 34.5563492,44.6005051 L33.4587612,45.698093 C34.3657195,47.1334045 35.057413,48.7182953 35.4884837,50.4074074 L37.5,50.4074074 C38.3284271,50.4074074 39,51.0789803 39,51.9074074 L39,57.0925926 C39,57.9210197 38.3284271,58.5925926 37.5,58.5925926 L35.4884837,58.5925926 C35.057413,60.2817047 34.3657195,61.8665955 33.4587612,63.301907 L34.5563492,64.3994949 C35.1421356,64.9852814 35.1421356,65.9350288 34.5563492,66.5208153 L31.0208153,70.0563492 C30.4350288,70.6421356 29.4852814,70.6421356 28.8994949,70.0563492 L27.6774576,68.8343119 C26.4114331,69.5581131 25.0402924,70.1190228 23.5925926,70.4884837 L23.5925926,72.5 C23.5925926,73.3284271 22.9210197,74 22.0925926,74 L16.9074074,74 C16.0789803,74 15.4074074,73.3284271 15.4074074,72.5 L15.4074074,70.4884837 C13.7182953,70.057413 12.1334045,69.3657195 10.698093,68.4587612 L9.10050506,70.0563492 C8.51471863,70.6421356 7.56497116,70.6421356 6.97918472,70.0563492 L3.44365081,66.5208153 C2.85786438,65.9350288 2.85786438,64.9852814 3.44365081,64.3994949 L5.16568814,62.6774576 C4.44188686,61.4114331 3.88097724,60.0402924 3.51151632,58.5925926 L1.5,58.5925926 C0.671572875,58.5925926 0,57.9210197 0,57.0925926 L0,51.9074074 C0,51.0789803 0.671572875,50.4074074 1.5,50.4074074 L3.51151632,50.4074074 C3.88097724,48.9597076 4.44188686,47.5885669 5.16568814,46.3225424 L3.44365081,44.6005051 C2.85786438,44.0147186 2.85786438,43.0649712 3.44365081,42.4791847 L6.97918472,38.9436508 C7.56497116,38.3578644 8.51471863,38.3578644 9.10050506,38.9436508 L10.698093,40.5412388 C12.1334045,39.6342805 13.7182953,38.942587 15.4074074,38.5115163 Z M19.5,64 C24.7467051,64 29,59.7467051 29,54.5 C29,49.2532949 24.7467051,45 19.5,45 C14.2532949,45 10,49.2532949 10,54.5 C10,59.7467051 14.2532949,64 19.5,64 Z" id="Combined-Shape"></path>
                        <path d="M22.6666667,2.35165965 L22.6666667,1 C22.6666667,0.44771525 23.1143819,0 23.6666667,0 L27.3333333,0 C27.8856181,0 28.3333333,0.44771525 28.3333333,1 L28.3333333,2.35165965 C29.2394406,2.5812396 30.1026748,2.91838449 30.9086504,3.34870893 L31.7175144,2.53984489 C32.1080387,2.1493206 32.7412037,2.1493206 33.131728,2.53984489 L35.9601551,5.36827202 C36.3506794,5.75879631 36.3506794,6.39196129 35.9601551,6.78248558 L35.2859574,7.45668331 C35.8934081,8.43824172 36.3573045,9.51800491 36.6483403,10.6666667 L38,10.6666667 C38.5522847,10.6666667 39,11.1143819 39,11.6666667 L39,15.3333333 C39,15.8856181 38.5522847,16.3333333 38,16.3333333 L36.6483403,16.3333333 C36.3573045,17.4819951 35.8934081,18.5617583 35.2859574,19.5433167 L35.9601551,20.2175144 C36.3506794,20.6080387 36.3506794,21.2412037 35.9601551,21.631728 L33.131728,24.4601551 C32.7412037,24.8506794 32.1080387,24.8506794 31.7175144,24.4601551 L30.9086504,23.6512911 C30.1026748,24.0816155 29.2394406,24.4187604 28.3333333,24.6483403 L28.3333333,26 C28.3333333,26.5522847 27.8856181,27 27.3333333,27 L23.6666667,27 C23.1143819,27 22.6666667,26.5522847 22.6666667,26 L22.6666667,24.6483403 C21.5180049,24.3573045 20.4382417,23.8934081 19.4566833,23.2859574 L18.2824856,24.4601551 C17.8919613,24.8506794 17.2587963,24.8506794 16.868272,24.4601551 L14.0398449,21.631728 C13.6493206,21.2412037 13.6493206,20.6080387 14.0398449,20.2175144 L15.3487089,18.9086504 C14.9183845,18.1026748 14.5812396,17.2394406 14.3516597,16.3333333 L13,16.3333333 C12.4477153,16.3333333 12,15.8856181 12,15.3333333 L12,11.6666667 C12,11.1143819 12.4477153,10.6666667 13,10.6666667 L14.3516597,10.6666667 C14.5812396,9.76055939 14.9183845,8.89732524 15.3487089,8.09134961 L14.0398449,6.78248558 C13.6493206,6.39196129 13.6493206,5.75879631 14.0398449,5.36827202 L16.868272,2.53984489 C17.2587963,2.1493206 17.8919613,2.1493206 18.2824856,2.53984489 L19.4566833,3.71404262 C20.4382417,3.10659189 21.5180049,2.64269551 22.6666667,2.35165965 Z M25.5,20 C29.0898509,20 32,17.0898509 32,13.5 C32,9.91014913 29.0898509,7 25.5,7 C21.9101491,7 19,9.91014913 19,13.5 C19,17.0898509 21.9101491,20 25.5,20 Z" id="Combined-Shape"></path>
                    </g>
                </g>
            </g>
        </g>
    </g>
</svg>
