<svg xmlns="http://www.w3.org/2000/svg" xmlns:xlink="http://www.w3.org/1999/xlink" width="18" height="28" viewBox="0 0 18 28">
    <defs>
        <path id="b" d="M10.688 4.25a.654.654 0 0 1 .468.195c.13.13.196.29.196.479a.65.65 0 0 1-.196.478L2.25 14.31l8.79 8.789a.64.64 0 0 1 .194.468.64.64 0 0 1-.195.47.65.65 0 0 1-.478.194.65.65 0 0 1-.479-.195L.824 14.777a.64.64 0 0 1-.195-.468.64.64 0 0 1 .195-.47l9.395-9.394a.68.68 0 0 1 .469-.195z"/>
        <filter id="a" width="230.6%" height="170.1%" x="-65.3%" y="-25%" filterUnits="objectBoundingBox">
            <feOffset dy="2" in="SourceAlpha" result="shadowOffsetOuter1"/>
            <feGaussianBlur in="shadowOffsetOuter1" result="shadowBlurOuter1" stdDeviation="2"/>
            <feColorMatrix in="shadowBlurOuter1" values="0 0 0 0 0 0 0 0 0 0 0 0 0 0 0 0 0 0 1 0"/>
        </filter>
    </defs>
    <g fill="none" fill-rule="evenodd" transform="translate(3 -2)">
        <use fill="#000" filter="url(#a)"/>
        <use fill="#9B9B9B" xlink:href="#b"/>
    </g>
</svg>
