<?xml version="1.0" encoding="UTF-8"?>
<svg width="109px" height="73px" viewBox="0 0 109 73" version="1.1" xmlns="http://www.w3.org/2000/svg" xmlns:xlink="http://www.w3.org/1999/xlink">
    <!-- Generator: Sketch 48.2 (47327) - http://www.bohemiancoding.com/sketch -->
    <title>bi_crm_dep_logo</title>
    <desc>Created with Sketch.</desc>
    <defs></defs>
    <g id="Multidepartment" stroke="none" stroke-width="1" fill="none" fill-rule="evenodd" transform="translate(-1197.000000, -496.000000)">
        <g id="Group-5" transform="translate(43.000000, 467.000000)">
            <g id="Group-2-Copy-3" transform="translate(1104.000000, 0.000000)">
                <g id="bi_crm_dep_logo" transform="translate(46.000000, 30.000000)">
                    <g id="Group-7">
                        <g id="Group-6" transform="translate(55.704225, 0.000000)" fill="#DB392E">
                            <path d="M26.7380282,3.81818182 L26.7380282,30.5454545 L53.4760563,30.5454545 C53.4760563,45.3065197 41.5050334,57.2727273 26.7380282,57.2727273 C11.971023,57.2727273 0,45.3065197 0,30.5454545 C0,15.7843894 11.971023,3.81818182 26.7380282,3.81818182 Z" id="Combined-Shape"></path>
                            <path d="M57.2957746,26.7272727 L30.5577465,26.7272727 L30.5577465,0 C45.3247517,0 57.2957746,11.9662076 57.2957746,26.7272727 Z" id="Combined-Shape"></path>
                        </g>
                        <polyline id="Path-2" stroke="#000000" stroke-width="7.95454545" transform="translate(42.025229, 34.641950) rotate(-8.000000) translate(-42.025229, -34.641950) " points="3.74941424 64.2471954 11.7199325 41.9964555 23.2780092 53.1218255 36.1513038 19.4454982 51.2061772 60.8887176 56.2987278 45.1124499 64.5035761 53.1218255 80.3010443 5.03670488"></polyline>
                        <polyline id="Path-2" stroke="#DB392E" stroke-width="3.18181818" transform="translate(42.025229, 34.641950) rotate(-8.000000) translate(-42.025229, -34.641950) " points="3.74941424 64.2471954 11.7199325 41.9964555 23.2780092 53.1218255 36.1513038 19.4454982 51.2061772 60.8887176 56.2987278 45.1124499 64.5035761 53.1218255 80.3010443 5.03670488"></polyline>
                    </g>
                </g>
            </g>
        </g>
    </g>
</svg>