<svg xmlns="http://www.w3.org/2000/svg" width="86" height="80" viewBox="0 0 86 80">
    <g fill="#4A90E2" fill-rule="nonzero">
        <path d="M84.142 15.43c1.118-.783 1.676-1.9 1.676-3.355 0-1.23-.419-2.264-1.257-3.102-.838-.839-1.844-1.258-3.017-1.258-1.173 0-2.179.42-3.017 1.258-.838.838-1.257 1.873-1.257 3.102 0 1.454.559 2.572 1.676 3.355v26.666h-3.352V9.56H65.202V6.038H44.418c-.447-1.677-1.37-3.103-2.766-4.277C40.255.587 38.662 0 36.875 0c-1.788 0-3.38.587-4.777 1.761-1.397 1.174-2.319 2.6-2.766 4.277H8.548V9.56H0V80h75.594V55.85h5.028v-.504c2.905-1.118 4.358-3.243 4.358-6.373a6.47 6.47 0 0 0-.838-3.187V15.43zm-56.653 1.006h20.616V40.42H27.49V16.436zm-24.137 0H23.97V40.42H3.352V16.436zm61.85 54.843H8.548V59.37h56.654V71.28zm6.872-30.86H51.457V16.436h20.617V40.42z"/>
        <path d="M37.818 19.636c-2.281 0-4.62.565-7.016 1.695v-1.695h-1.711v10.507h1.711c0-.113.029-.254.086-.424.057-.17.142-.452.256-.847.115-.395.286-.763.514-1.101.228-.34.57-.622 1.026-.848.457-.226 1.027-.339 1.712-.339l2.395.085c1.598.056 2.567.028 2.91-.085-.57.34-1.255.82-2.054 1.44-.799.622-1.854 1.837-3.166 3.644-1.312 1.808-1.968 3.615-1.968 5.423h8.899c0-.791.028-1.78.085-2.966.057-1.186.542-3.163 1.455-5.93.912-2.769 2.11-5.056 3.593-6.864l-1.71-1.695c-2.282 1.13-4.621 1.13-7.017 0zM55.463 27.94c.678-.904 1.639-1.356 2.881-1.356l2.457.085c1.639.056 2.57.028 2.797-.085-.565.34-1.215.82-1.95 1.44-.734.622-1.75 1.837-3.05 3.644-1.299 1.808-1.948 3.615-1.948 5.423h8.642c0-.791.057-1.78.17-2.966.113-1.186.593-3.163 1.44-5.93.847-2.769 2.062-5.056 3.643-6.864l-1.694-1.695c-2.373 1.13-4.689 1.13-6.948 0-2.373 0-4.689.565-6.948 1.695v-1.695h-1.864v10.507h1.864l.508-2.203zM13.818 19.636c-2.396 0-4.734.565-7.016 1.695v-1.695H5.091v10.507h1.711c0-.339.029-.706.086-1.102.057-.395.37-.903.94-1.525.571-.621 1.37-.932 2.397-.932.114 0 .97.029 2.566.085 1.598.056 2.51.028 2.738-.085-.456.34-1.083.82-1.882 1.44-.799.622-1.854 1.837-3.166 3.644-1.312 1.808-1.968 3.615-1.968 5.423h8.728c0-.791.057-1.78.17-2.966.115-1.186.6-3.163 1.455-5.93.856-2.769 2.082-5.056 3.68-6.864l-1.712-1.695c-2.395 1.13-4.734 1.13-7.016 0z"/>
    </g>
</svg>
