<?xml version="1.0" encoding="UTF-8"?>
<svg width="123px" height="70px" viewBox="0 0 123 70" version="1.1" xmlns="http://www.w3.org/2000/svg" xmlns:xlink="http://www.w3.org/1999/xlink">
    <!-- Generator: Sketch 51 (57462) - http://www.bohemiancoding.com/sketch -->
    <title>Cerberus_brand_logo</title>
    <desc>Created with Sketch.</desc>
    <defs></defs>
    <g id="Login" stroke="none" stroke-width="1" fill="none" fill-rule="evenodd">
        <g id="Cerberus_brand_logo">
            <g id="Group-4" transform="translate(39.000000, 0.000000)">
                <g transform="translate(-1.000000, 0.000000)" id="Group-3">
                    <g>
                        <circle id="Oval" fill="#FFFFFF" cx="23.5" cy="22.5" r="22.5"></circle>
                        <path d="M25.4310181,0 C25.7859743,0.242487479 26.2119686,0.151803005 26.5964167,0.206026711 C28.3504833,0.453539232 30.0425233,0.911752922 31.692666,1.53941569 C33.5366127,2.24081803 35.248431,3.19510851 36.8280038,4.36535893 C38.5049467,5.60782972 39.9946394,7.05118531 41.2792931,8.70746244 C42.3438107,10.0798831 43.2421437,11.5464942 43.9848249,13.1118531 C44.1320504,13.4223539 44.2528268,13.7454758 44.39502,14.0847245 C42.9988354,14.3180968 41.6470057,14.5442237 40.2773873,14.7731553 C39.911313,14.2265943 39.4836803,13.8158264 38.8409439,13.6322371 C38.1806527,13.4438564 37.6234662,13.6593489 37.0208716,13.9579299 C34.6443149,12.0854591 32.2671732,10.2126377 29.8968192,8.34519199 C30.3250371,6.74489149 29.9996898,5.57078464 28.9409068,4.91647746 C27.8575471,4.2469783 26.7588563,4.34444073 25.8460114,5.04268781 C24.7611304,5.87240401 24.5768059,7.01741235 25.2091265,8.62145242 C25.1433549,8.83227045 24.9525937,8.95065109 24.8072407,9.10163606 C23.578177,10.3783472 22.3140038,11.6228047 21.1212198,12.9323539 C20.0196032,14.1418698 18.7982636,15.235576 17.7384272,16.4829549 C17.6374291,16.6016861 17.5427507,16.725793 17.4474872,16.8445242 C16.7525547,16.6365109 16.1398953,16.6575459 15.5508763,17.0182972 C15.1117745,17.287429 14.8158021,17.6605676 14.6602674,18.1314023 C14.3356223,19.1146745 14.5899315,20.0175459 15.7484253,20.7946745 C15.6162969,22.2688815 15.3286337,23.7461269 15.1054548,25.2723372 C13.6735756,25.6023539 13.0871313,26.5361937 13.2750837,27.9870284 C11.9657364,28.7812187 10.6760504,29.5633723 9.42123977,30.324374 C7.58501713,29.4407846 6.69218459,29.6939065 5.82240723,31.3339399 C4.82389534,31.333005 3.79881732,31.3389649 2.82558421,31.4335058 C2.54576213,31.2322705 2.52001522,30.9657095 2.43036917,30.737596 C1.8337431,29.2213189 1.45374215,27.6515192 1.18398478,26.0439733 C0.882160799,24.2448915 0.907790676,22.4389149 1.00235205,20.6377295 C1.07397526,19.2708013 1.3678411,17.9224541 1.72993625,16.5957262 C2.37337488,14.2387479 3.39541009,12.0525042 4.74431399,10.0228548 C5.3563882,9.10175292 6.0541294,8.24200334 6.79657659,7.41439065 C8.21008183,5.83874791 9.82897716,4.518798 11.6126527,3.39388982 C13.7126641,2.06949917 15.982254,1.14255426 18.4007079,0.584774624 C19.4383083,0.345442404 20.4816432,0.127612688 21.5534167,0.104707846 C21.6507869,0.102604341 21.7496784,0.105993322 21.8030447,0 C23.0123302,0 24.2217326,0 25.4310181,0" id="Fill-1" fill="#009898"></path>
                        <path d="M26.0588915,9.40348915 C27.1381551,9.99013356 28.16651,9.92445743 29.1849172,9.18846411 C31.5668573,11.0653756 33.947627,12.9413523 36.3523882,14.8360267 C36.0930466,15.5904841 36.1537859,16.3027546 36.6263587,16.9464274 C36.936843,17.3694658 37.3540599,17.656828 37.872509,17.7527713 C38.8586156,17.9354257 40.0619324,17.573389 40.4732978,15.8660434 C41.890431,15.6297496 43.3250019,15.3905342 44.7516147,15.1527212 C48.2818668,24.4103673 44.9455357,37.6292654 32.8243597,43.2035559 C21.2885747,48.5088314 8.28978021,43.1219866 3.23168316,32.5119032 C4.09291722,32.5119032 4.94162892,32.5119032 5.84113225,32.5119032 C6.10281446,33.1364107 6.50470029,33.6855426 7.22420932,33.9248748 C7.66494957,34.071419 8.10873264,34.0803005 8.54420647,33.9441569 C9.601,33.6139065 10.0527412,32.783606 9.98369267,31.2808848 C11.2349924,30.5190651 12.5099324,29.7428715 13.8264186,28.9413189 C14.7425404,29.6679633 15.7108582,29.7831886 16.7409686,29.016227 C17.8107526,29.7439232 18.8834624,30.473606 19.9610875,31.2066778 C19.9188392,31.7355927 19.8406622,32.2385643 20.044648,32.7263439 C20.2398563,33.1933222 20.5737469,33.5339733 21.0263073,33.8310351 C20.868666,34.8769449 20.5753853,35.9003005 20.3574729,36.9782304 C19.6697964,37.0894825 19.0593606,37.3565109 18.6681246,37.9763439 C18.4230609,38.3646745 18.2847298,38.7895826 18.3214776,39.2483806 C18.4017612,40.2490651 19.1366013,41.0569282 20.0973121,41.2277796 C20.9911979,41.3867112 21.9630266,40.8694825 22.3602312,40.0232888 C22.8167707,39.0508848 22.5231389,38.1279132 21.4374386,37.1951252 C21.6649477,36.1763272 21.8967869,35.1383639 22.1337755,34.0770284 C23.246627,33.892621 23.9643806,33.2757095 24.1118402,32.1594491 C24.2223178,31.3216694 23.8674786,30.6278631 23.1556936,30.1646244 C22.3048754,29.6109349 21.4587383,29.7226544 20.6164634,30.3152588 C19.541764,29.5849917 18.4678839,28.8553088 17.3597136,28.1022538 C17.5016727,27.5912187 17.5117374,27.0826377 17.2850476,26.5811853 C17.0583578,26.0799666 16.6854957,25.7293823 16.1964215,25.4624708 C16.4265052,23.9533222 16.6541313,22.4600668 16.8832788,20.9565275 C17.6986365,20.7863773 18.3045081,20.369182 18.6133539,19.6053756 C18.9151779,18.8588648 18.7638563,18.1548915 18.2979543,17.4665776 C20.8868059,14.7768948 23.4632521,12.1003005 26.0588915,9.40348915" id="Fill-10" fill="#003F45"></path>
                    </g>
                    <g transform="translate(5.000000, 4.000000)" fill="#FFFFFF">
                        <circle id="Oval-2-Copy" cx="10.35" cy="23.35" r="2.25"></circle>
                        <circle id="Oval-2-Copy-5" cx="16.95" cy="27.95" r="2.25"></circle>
                        <circle id="Oval-2-Copy-6" cx="15.55" cy="35.05" r="2.25"></circle>
                        <circle id="Oval-2-Copy-2" cx="11.75" cy="14.75" r="2.25"></circle>
                        <circle id="Oval-2-Copy-4" cx="33.35" cy="11.65" r="2.25"></circle>
                        <circle id="Oval-2-Copy-3" cx="22.45" cy="3.05" r="2.75"></circle>
                        <circle id="Oval-2" cx="2.95" cy="27.85" r="2.25"></circle>
                    </g>
                </g>
            </g>
            <path d="M52.8099505,69.2044073 C56.2766546,69.2096661 59.0969943,66.3868781 59.0793225,62.9292988 C59.0618849,59.5053756 56.2238735,56.6821202 52.8108868,56.6934558 C49.3846755,56.7046745 46.5823587,59.5226711 46.5803692,62.9583973 C46.5784967,66.4019533 49.3682912,69.1992654 52.8099505,69.2044073 Z M51.6108468,70 C51.52951,69.7863773 51.3126508,69.841419 51.1632017,69.8022705 C48.0024177,68.9741903 45.8367517,66.3054257 45.7993016,63.0551586 C45.7585747,59.5315526 45.7893539,56.0071285 45.789705,52.4829382 C45.789705,52.3860601 45.7853749,52.2862604 45.8060894,52.1927713 C45.8539553,51.9768114 45.9850304,51.8525876 46.2202636,51.8692988 C46.4254196,51.8837896 46.5439724,52.0018197 46.5687831,52.1968614 C46.5883273,52.3504174 46.5801351,52.507596 46.5801351,52.6632554 C46.5807203,54.9604007 46.5804862,57.257429 46.5804862,59.5709349 C46.7804929,59.4931052 46.8171237,59.3078798 46.903844,59.172788 C48.4334443,56.7906845 51.2362293,55.4818364 54.1189467,56.0476795 C57.0997364,56.6330384 59.3130343,58.8985142 59.7650095,61.8513689 C60.3603482,65.7406344 57.8236927,69.0575125 54.3019838,69.8587145 C54.1078287,69.9028881 53.8684995,69.7814691 53.717412,70 C53.0152236,70 52.3130352,70 51.6108468,70 Z" id="Fill-3" fill="#FFFFFF"></path>
            <path d="M76.8088773,61.3972454 C76.3498801,58.8481469 73.3536422,56.0210351 69.5401741,56.8301836 C65.6653815,57.652187 64.142803,61.4299666 64.6864139,63.7480301 C68.7132303,62.9670451 72.7410999,62.1860601 76.8088773,61.3972454 Z M69.6336822,70 C69.4933616,69.8021536 69.25649,69.8353422 69.0652607,69.7853255 C65.808745,68.9358598 63.6383977,65.995626 63.7927621,62.5687813 C63.9232521,59.6702671 65.9942398,56.6479967 69.655216,56.0066611 C73.2833064,55.3710518 76.8817878,57.7925376 77.6715157,61.3687312 C77.7846851,61.8815192 77.6990181,62.0281803 77.1653549,62.1326544 C74.8930733,62.5769616 72.6190362,63.0127379 70.3457012,63.4524875 C68.5129895,63.8069282 66.6806289,64.1627713 64.8243939,64.5224708 C64.802392,64.6899332 64.8485024,64.8299332 64.9006984,64.9711018 C65.7614643,67.3059933 67.4215547,68.7599833 69.8690324,69.136394 C72.2146927,69.497379 74.2015347,68.6980467 75.7183787,66.8342237 C75.8042797,66.7288147 75.8791798,66.6144073 75.9622721,66.5065442 C76.181706,66.2221035 76.3983311,66.1438063 76.5924862,66.2759766 C76.7997488,66.4170284 76.8140266,66.6402337 76.6133178,66.9401002 C76.1650875,67.6097162 75.615157,68.1857262 74.9594301,68.6546912 C74.0282112,69.3206845 73.0151874,69.79 71.8575128,69.8948247 C71.7906879,69.9007846 71.7597916,69.9433222 71.7402474,70 C71.038059,70 70.3358706,70 69.6336822,70 Z" id="Fill-4" fill="#FFFFFF"></path>
            <path d="M29.877999,61.3916361 C29.1459676,58.1735058 25.706883,56.1073957 22.4969458,56.8460768 C18.7882207,57.6996327 17.1896889,61.3340234 17.7199581,63.7496661 C21.7589458,62.9663439 25.7989867,62.182788 29.877999,61.3916361 Z M22.7040913,70 C22.6240419,69.8079967 22.4357383,69.8792821 22.2982265,69.844808 C19.3685794,69.1083472 17.2559286,66.8219533 16.8842369,63.8757596 C16.4120152,60.1339733 18.8171275,56.9500835 22.1594272,56.1187312 C25.9776936,55.1688815 29.7902255,57.5114858 30.694059,61.3417362 C30.8266556,61.9033723 30.7556175,62.0271285 30.1862598,62.1380301 C26.9208497,62.7730551 23.6545033,63.403172 20.3886251,64.0353923 C19.549627,64.1978297 18.7110971,64.3617863 17.8706946,64.5253923 C17.8533739,64.85798 17.9863216,65.1208013 18.1024167,65.3822204 C19.0626594,67.5442738 20.7195899,68.8598998 23.0588135,69.1569616 C25.420039,69.4569449 27.3752826,68.6038564 28.8543254,66.7181803 C28.9141284,66.6418698 28.9622284,66.5559766 29.0222655,66.479783 C29.3175357,66.1051252 29.505137,66.1214858 29.8083654,66.5491987 C29.8063758,66.776611 29.6625442,66.9415025 29.5353311,67.1104841 C28.3725071,68.6544574 26.869941,69.6392487 24.9253473,69.8923706 C24.8591075,69.9010184 24.8282112,69.9422705 24.8106565,70 C24.1084681,70 23.4062797,70 22.7040913,70 Z" id="Fill-5" fill="#FFFFFF"></path>
            <path d="M116.095147,70 C115.889523,69.7862604 115.598583,69.8381469 115.348487,69.7696661 C113.916374,69.3777129 112.746411,68.6523539 112.073129,67.2718698 C111.918999,66.9559933 111.805947,66.6280801 111.742282,66.2812354 C111.69781,66.0388648 111.744739,65.8490818 112.001272,65.7766277 C112.255815,65.7045242 112.406201,65.8321369 112.479696,66.0698331 C112.491283,66.1071119 112.503103,66.1441569 112.512933,66.1817863 C112.921256,67.7402504 114.003445,68.5968447 115.502032,68.9766444 C117.051294,69.3694157 118.590257,69.2987145 120.090599,68.7227045 C120.659372,68.5042905 121.166118,68.1857262 121.58509,67.7332387 C122.43942,66.811202 122.575176,65.1562104 121.109943,64.2840735 C120.158478,63.7182304 119.100514,63.4634725 118.037869,63.2189983 C116.921272,62.9617863 115.782791,62.7935058 114.69475,62.4135893 C114.345528,62.2917028 114.008127,62.147379 113.680088,61.9760601 C111.566618,60.8723038 111.857206,58.3276461 113.132966,57.1992321 C113.873189,56.5445743 114.756074,56.216778 115.710582,56.0562104 C117.093425,55.8233055 118.463863,55.8467947 119.801532,56.323823 C120.525956,56.5819699 121.180162,56.9549917 121.718506,57.5105509 C122.077793,57.8798331 122.336432,58.3102337 122.47804,58.8053756 C122.571665,59.1328214 122.481551,59.3487813 122.236955,59.4283639 C122.021618,59.4983639 121.821494,59.3859432 121.73255,59.0734558 C121.496147,58.2398831 120.906308,57.7380801 120.180714,57.3497496 C119.446927,56.9565109 118.653454,56.7737396 117.831893,56.7189316 C116.670591,56.6414524 115.535152,56.7697663 114.469113,57.2654925 C113.580962,57.6784808 112.995688,58.3298664 112.933076,59.3580134 C112.883338,60.1779132 113.231389,60.7848915 113.920002,61.2082805 C114.387308,61.4956427 114.898267,61.6881135 115.428069,61.8149082 C116.619331,62.1000501 117.81785,62.3571452 119.009229,62.6395993 C119.786318,62.823773 120.542341,63.0771285 121.24687,63.4605509 C122.040343,63.893172 122.678164,64.4663773 122.913397,65.3852588 C122.919248,65.4101503 122.969572,65.4235893 123,65.442404 C123,65.9098497 123,66.3772955 123,66.8447412 C122.933292,66.8518698 122.908716,66.8952254 122.892331,66.954591 C122.66412,67.8242738 122.118754,68.4594157 121.387307,68.9483639 C120.784596,69.3507179 120.111665,69.5822204 119.417669,69.7784307 C119.092322,69.8704007 118.728354,69.7792487 118.435775,70 C117.655176,70 116.875396,70 116.095147,70" id="Fill-6" fill="#FFFFFF"></path>
            <path d="M0,61.8196995 C0.18994196,61.7369616 0.115392959,61.5492821 0.152725975,61.4117362 C0.936719315,58.5219866 2.76100476,56.6921703 5.70153568,56.045576 C8.76834348,55.3710518 12.1417735,57.1251419 13.4057127,60.008581 C13.4284167,60.0603506 13.4341513,60.1194825 13.4460885,60.1680968 C13.1384129,60.6730551 12.9015414,60.6805342 12.6304967,60.1872621 C12.4430124,59.8460267 12.2614967,59.5007012 12.0160818,59.1980301 C10.3742483,57.1737563 8.25399049,56.2954257 5.70059943,56.8601002 C3.13410086,57.4275793 1.49847003,59.0871285 0.930750714,61.6626377 C0.151321598,65.1985142 2.52518649,68.6288648 6.10763463,69.1503005 C8.88420457,69.5545242 11.2705918,68.1628214 12.5008259,65.9790317 C12.5484577,65.8945409 12.5857907,65.804207 12.6342417,65.7201836 C12.9131275,65.237429 13.1508183,65.2466611 13.4627069,65.7846912 C12.9063397,67.0686477 12.0300086,68.1073122 10.8335966,68.8722871 C9.98991722,69.4116027 9.08608373,69.8035559 8.07270885,69.8924875 C8.00600095,69.8984474 7.97557279,69.9421536 7.95813511,70 C7.25594672,70 6.55375833,70 5.85156993,70 C5.77982969,69.8019199 5.58625975,69.8708681 5.45202474,69.8346411 C2.67533777,69.084975 0.923377735,67.3215359 0.168057088,64.5548414 C0.131426261,64.4210351 0.198134158,64.2276294 0,64.1569282 C0,63.377813 0,62.5988147 0,61.8196995" id="Fill-7" fill="#FFFFFF"></path>
            <path d="M98.8915319,70 C98.7940447,69.7966611 98.5836223,69.8714524 98.429726,69.8292654 C95.5583606,69.0404508 93.7790152,67.2087646 93.1119363,64.3079132 C92.9936175,63.7932554 92.9729029,63.2676127 92.9723178,62.7420868 C92.9698601,60.7181636 92.9712645,58.6943573 92.9713815,56.6704341 C92.9713815,56.5730885 92.9644767,56.4750417 92.9743073,56.3786311 C93.0212369,55.9211185 93.2279144,55.8361603 93.6906565,56.0862437 C93.7973892,56.2822204 93.7501085,56.5005175 93.7504596,56.7104007 C93.7542046,58.7926377 93.7386394,60.8749917 93.7563111,62.9571119 C93.7790152,65.6195659 95.4251789,67.9521202 97.8734757,68.8359432 C101.938093,70.3032554 106.188206,67.3496995 106.251754,62.9928715 C106.282416,60.891586 106.257722,58.7894825 106.258892,56.6877295 C106.25901,56.532187 106.247423,56.3737229 106.272468,56.221803 C106.305354,56.0224374 106.459367,55.9246244 106.64849,55.9187813 C106.817015,55.9135225 106.953123,56.006778 106.997946,56.1747078 C107.032236,56.3038397 107.043237,56.4424374 107.043354,56.576828 C107.045461,58.69798 107.060909,60.8192487 107.039492,62.9402838 C107.005319,66.3249416 104.845036,68.7120701 102.341383,69.6013856 C101.99263,69.7252588 101.63744,69.8266945 101.270897,69.8832554 C101.195646,69.8948247 101.115948,69.8927212 101.115128,70 C100.373969,70 99.6326917,70 98.8915319,70" id="Fill-8" fill="#FFFFFF"></path>
            <path d="M82.5014015,58.4794491 C82.7209524,58.1999165 82.8533149,58.0101336 83.0069772,57.8392821 C84.5245233,56.150985 86.3931637,55.5852588 88.5979182,56.1103172 C88.7108535,56.1371953 88.8237888,56.1742404 88.9279467,56.2246077 C89.126666,56.3206678 89.2283663,56.4862604 89.15253,56.700818 C89.0800875,56.9059098 88.9137859,57.0039566 88.6901389,56.9562771 C88.4054015,56.8955092 88.1253454,56.8090317 87.8386185,56.7625209 C85.1023073,56.3190317 82.5505547,58.4406511 82.5093597,61.2203172 C82.4805699,63.1457262 82.5022207,65.0717195 82.5014015,66.9974791 C82.5011675,67.7171119 82.5015186,68.4367446 82.5012845,69.1564942 C82.5011675,69.2731219 82.5090086,69.3910351 82.495667,69.5062604 C82.4708563,69.7232721 82.3569848,69.8681803 82.1258478,69.883606 C81.8862845,69.899616 81.7677317,69.7467613 81.7213873,69.5424875 C81.6918953,69.4123038 81.7046518,69.2719533 81.7046518,69.1359265 C81.7039496,64.9733222 81.7035985,60.8107179 81.705588,56.6481135 C81.705588,56.4943239 81.7114396,56.3360935 81.7474853,56.1880301 C81.7878611,56.0220868 81.9235005,55.9238063 82.0920257,55.9211185 C82.2852445,55.918197 82.43247,56.0254758 82.4793996,56.2139733 C82.5114662,56.3431052 82.5002312,56.4840401 82.5005823,56.6198331 C82.5024548,57.2027379 82.5014015,57.7856427 82.5014015,58.4794491" id="Fill-11" fill="#FFFFFF"></path>
            <path d="M35.4010618,58.3286978 C35.6642655,58.2463105 35.7241855,58.0423873 35.8471855,57.9028548 C37.3464748,56.204975 39.1973264,55.5895826 41.4129648,56.0926711 C41.5450932,56.1227045 41.6768706,56.1620868 41.8016261,56.2140902 C42.0029201,56.2982304 42.1118763,56.4481636 42.0516051,56.673823 C41.9827907,56.9311519 41.8004558,56.9995159 41.5559772,56.9426043 C41.4612988,56.9205175 41.3668544,56.8970284 41.2729952,56.8715526 C38.4762959,56.1135893 35.6955128,58.0344407 35.4325433,60.9100501 C35.4078497,61.1805843 35.4025833,61.4536895 35.4023492,61.725626 C35.4001256,64.1767947 35.401647,66.6279633 35.3998915,69.0788982 C35.3997745,69.2530217 35.4014129,69.4306511 35.3691123,69.6003339 C35.3317793,69.7965442 35.1866603,69.8949416 34.9852493,69.8831386 C34.7843064,69.8713356 34.6611893,69.7564608 34.6368468,69.5577963 C34.6204624,69.4234057 34.6259629,69.2860935 34.6259629,69.1500668 C34.6254948,64.9871119 34.6254948,60.8240401 34.6259629,56.6609683 C34.6259629,56.5249416 34.6242074,56.3882137 34.6373149,56.2531219 C34.6574443,56.0461603 34.7994034,55.9401669 34.9887602,55.9303506 C35.1791703,55.9205342 35.33845,56.0123873 35.3687612,56.217596 C35.3968487,56.4083139 35.3982531,56.6039399 35.3997745,56.7975793 C35.4036365,57.2999666 35.4010618,57.8023539 35.4010618,58.3286978" id="Fill-12" fill="#FFFFFF"></path>
        </g>
    </g>
</svg>