<svg xmlns="http://www.w3.org/2000/svg" width="165" height="53" viewBox="0 0 165 53">
    <g fill="#FFF" fill-rule="evenodd">
        <path d="M89.376 19.884h11.853v2.106h-9.585v6.318h8.91v2.106h-8.91V39h-2.268V19.884zm14.472 8.1a5.936 5.936 0 0 1 2.309-1.472 8.087 8.087 0 0 1 2.713-.472c1.872 0 3.222.441 4.05 1.323.828.882 1.242 2.223 1.242 4.023v5.427c0 .36.018.733.054 1.12.036.388.081.743.135 1.067h-2.025a4.424 4.424 0 0 1-.122-.959 36.813 36.813 0 0 1-.013-.931h-.054a4.943 4.943 0 0 1-1.66 1.593c-.694.414-1.526.621-2.498.621a6.607 6.607 0 0 1-1.822-.243 4.555 4.555 0 0 1-1.486-.715 3.537 3.537 0 0 1-1.012-1.175c-.252-.468-.378-1.008-.378-1.62 0-1.044.27-1.863.81-2.457a4.915 4.915 0 0 1 2.011-1.323 9.892 9.892 0 0 1 2.592-.54 33.15 33.15 0 0 1 2.552-.108h.81v-.378c0-.918-.274-1.611-.824-2.079-.549-.468-1.318-.702-2.308-.702-.684 0-1.354.112-2.012.338a4.83 4.83 0 0 0-1.741 1.039l-1.323-1.377zm6.102 4.941c-1.35 0-2.421.189-3.213.567-.792.378-1.188.999-1.188 1.863 0 .792.265 1.354.797 1.688.53.333 1.192.499 1.984.499.612 0 1.147-.103 1.607-.31a3.379 3.379 0 0 0 1.147-.824c.306-.342.54-.742.702-1.202.162-.459.252-.949.27-1.471v-.81h-2.106zm8.262-14.337h2.106V39h-2.106V18.588zm15.282 10.935c-.45-.54-.936-.931-1.458-1.174a4.044 4.044 0 0 0-1.728-.365c-.702 0-1.323.121-1.863.364-.54.244-.985.581-1.336 1.013a4.517 4.517 0 0 0-.797 1.499 5.99 5.99 0 0 0-.27 1.822c0 .648.103 1.255.31 1.822.208.568.495 1.067.865 1.499.369.432.814.77 1.336 1.012.522.244 1.107.365 1.755.365 1.386 0 2.457-.522 3.213-1.566l1.566 1.485a5.493 5.493 0 0 1-2.16 1.539 7.123 7.123 0 0 1-2.619.486c-.972 0-1.863-.162-2.673-.486a5.78 5.78 0 0 1-2.065-1.377 6.34 6.34 0 0 1-1.323-2.106c-.316-.81-.473-1.701-.473-2.673 0-.954.157-1.836.473-2.646.315-.81.76-1.512 1.336-2.106a6.103 6.103 0 0 1 2.066-1.39c.8-.334 1.687-.5 2.659-.5.936 0 1.822.162 2.66.486.837.324 1.57.828 2.2 1.512l-1.674 1.485zm3.294 3.159c0-.99.171-1.89.513-2.7.342-.81.81-1.507 1.404-2.092a6.238 6.238 0 0 1 2.133-1.364 7.345 7.345 0 0 1 2.7-.486c.972 0 1.872.162 2.7.486a6.238 6.238 0 0 1 2.133 1.363 6.387 6.387 0 0 1 1.404 2.093c.342.81.513 1.71.513 2.7 0 .99-.171 1.89-.513 2.7a6.387 6.387 0 0 1-1.404 2.093 6.238 6.238 0 0 1-2.133 1.363 7.345 7.345 0 0 1-2.7.486 7.345 7.345 0 0 1-2.7-.486 6.238 6.238 0 0 1-2.133-1.363 6.387 6.387 0 0 1-1.404-2.093c-.342-.81-.513-1.71-.513-2.7zm2.268 0c0 .666.103 1.282.31 1.85.208.567.509 1.061.905 1.485.396.423.868.755 1.418.998.549.244 1.165.365 1.849.365.684 0 1.3-.121 1.85-.364a4.305 4.305 0 0 0 1.417-1c.396-.423.697-.917.904-1.484.208-.568.311-1.184.311-1.85 0-.666-.103-1.282-.31-1.85a4.308 4.308 0 0 0-.905-1.484 4.305 4.305 0 0 0-1.417-1c-.55-.243-1.166-.364-1.85-.364-.684 0-1.3.121-1.85.365a4.305 4.305 0 0 0-1.417.999 4.308 4.308 0 0 0-.904 1.485 5.354 5.354 0 0 0-.311 1.849zm14.499-3.321c0-.576-.018-1.116-.054-1.62a19.468 19.468 0 0 1-.054-1.377h1.998c0 .342.009.684.027 1.026.018.342.027.693.027 1.053h.054c.144-.306.346-.603.607-.891.262-.288.572-.544.932-.77a4.98 4.98 0 0 1 1.215-.54c.45-.135.936-.202 1.458-.202.828 0 1.543.126 2.146.378a4.03 4.03 0 0 1 1.499 1.053c.396.45.688.994.877 1.634.19.639.284 1.336.284 2.092V39h-2.106v-7.587c0-1.062-.234-1.899-.702-2.511-.468-.612-1.197-.918-2.187-.918-.684 0-1.273.117-1.769.351-.495.234-.9.567-1.215.999a4.479 4.479 0 0 0-.702 1.539 7.899 7.899 0 0 0-.229 1.971V39h-2.106v-9.639zM89.52 43.504h2.448c.296 0 .606.034.93.102.324.068.62.186.888.354.268.168.488.398.66.69.172.292.258.658.258 1.098 0 .384-.07.716-.21.996-.14.28-.328.51-.564.69-.236.18-.508.314-.816.402a3.5 3.5 0 0 1-.966.132h-1.836V52h-.792v-8.496zm.792 3.744h1.8c.224 0 .444-.026.66-.078.216-.052.408-.136.576-.252.168-.116.304-.27.408-.462a1.47 1.47 0 0 0 .156-.708 1.4 1.4 0 0 0-.162-.696 1.455 1.455 0 0 0-.42-.474 1.716 1.716 0 0 0-.594-.27 2.761 2.761 0 0 0-.672-.084h-1.752v3.024zm6.096-3.744h.792v7.776h3.96V52h-4.752v-8.496zm8.604 0h.816L109.404 52h-.888l-.924-2.256h-4.5l-.96 2.256h-.828l3.708-8.496zm.372.864l-1.98 4.656h3.9l-1.92-4.656zm6.312-.144h-2.904v-.72h6.6v.72h-2.904V52h-.792v-7.776zm5.004-.72h5.088v.72h-4.296v3.024h3.996v.72h-3.996V52h-.792v-8.496zm6.12 4.248c0-.648.108-1.244.324-1.788a4.256 4.256 0 0 1 .9-1.41 4.084 4.084 0 0 1 1.386-.93 4.607 4.607 0 0 1 1.782-.336c.648 0 1.242.112 1.782.336.54.224 1.002.534 1.386.93.384.396.684.866.9 1.41.216.544.324 1.14.324 1.788a4.85 4.85 0 0 1-.324 1.794 4.242 4.242 0 0 1-.9 1.416 4.013 4.013 0 0 1-1.386.924 4.68 4.68 0 0 1-1.782.33 4.68 4.68 0 0 1-1.782-.33 4.013 4.013 0 0 1-1.386-.924 4.242 4.242 0 0 1-.9-1.416 4.85 4.85 0 0 1-.324-1.794zm.792 0c0 .528.084 1.02.252 1.476.168.456.408.852.72 1.188.312.336.69.6 1.134.792.444.192.942.288 1.494.288s1.05-.096 1.494-.288a3.33 3.33 0 0 0 1.134-.792c.312-.336.552-.732.72-1.188.168-.456.252-.948.252-1.476s-.084-1.02-.252-1.476a3.505 3.505 0 0 0-.72-1.188 3.33 3.33 0 0 0-1.134-.792 3.728 3.728 0 0 0-1.494-.288c-.552 0-1.05.096-1.494.288a3.33 3.33 0 0 0-1.134.792 3.505 3.505 0 0 0-.72 1.188 4.237 4.237 0 0 0-.252 1.476zm10.56-.504h1.68c.416 0 .754-.052 1.014-.156.26-.104.462-.232.606-.384.144-.152.242-.316.294-.492.052-.176.078-.336.078-.48 0-.144-.026-.304-.078-.48a1.215 1.215 0 0 0-.294-.492 1.682 1.682 0 0 0-.606-.384c-.26-.104-.598-.156-1.014-.156h-1.68v3.024zm-.792-3.744h2.232c.112 0 .264.004.456.012s.4.032.624.072c.224.04.452.104.684.192.232.088.44.216.624.384s.336.38.456.636.18.568.18.936c0 .408-.07.744-.21 1.008-.14.264-.316.478-.528.642a2.221 2.221 0 0 1-.702.366c-.256.08-.5.136-.732.168l2.472 4.08h-.9l-2.388-4.032h-1.476V52h-.792v-8.496zm7.032 0h1.188l3.096 7.128 3.096-7.128h1.128V52h-.792v-7.488h-.024L144.864 52h-.348l-3.288-7.488h-.024V52h-.792v-8.496z"/>
        <path fill-rule="nonzero" d="M15 1l98.873-.006c10.074 0 17.504 5.57 17.504 14.479v1.592l-1.434-.691c-5.997-2.89-12.554-2.632-18.632.682-.006.003-.816-.305-2.432-.925l.901-.51c6.282-3.626 13.143-4.236 19.503-1.719-.822-6.74-6.973-10.908-15.41-10.908l-23.322.002L90.55 3h-72.96C18.815 5.989 22.025 8 26 8h62.025l-1.077 2h-54.36c1.226 2.989 4.436 5 8.412 5h43.261l-1.077 2H48.589c1.226 2.989 4.436 5 8.412 5h23.49l-1.078 2H43c-5.082 0-9.243-2.823-10.535-7H27c-5.082 0-9.243-2.823-10.535-7H11C5.605 10 1.247 6.817.259 2.21L0 1h15zm.466 2H2.589C3.815 5.989 7.025 8 11 8h8.213c-1.787-1.224-3.114-2.949-3.748-5zm15 7H18.589c1.226 2.989 4.436 5 8.412 5h7.213c-1.787-1.224-3.114-2.949-3.748-5zm19.748 12c-1.787-1.224-3.114-2.949-3.748-5H34.589c1.226 2.989 4.436 5 8.412 5h7.213z"/>
        <path d="M108.167 6.596c2.49.028 4.74 0 6.681 0-.212 2.154-4.75 3.804-7.495 3.653-2.745-.15-2.378-3.69.814-3.653z"/>
    </g>
</svg>
