<?xml version="1.0" encoding="UTF-8"?>
<svg width="165px" height="53px" viewBox="0 0 165 53" version="1.1" xmlns="http://www.w3.org/2000/svg" xmlns:xlink="http://www.w3.org/1999/xlink">
    <!-- Generator: Sketch 50.2 (55047) - http://www.bohemiancoding.com/sketch -->
    <title>Falcon_full_logo</title>
    <desc>Created with Sketch.</desc>
    <defs>
        <polygon id="path-1" points="40.5 62.1028857 75.5 40.1028857 0.0689856232 0.784749417 0.0689856232 23.3210135"></polygon>
        <polygon id="path-3" points="40.5 62.1028857 75.5 40.1028857 0.0689856232 0.784749417 0.0689856232 23.3210135"></polygon>
    </defs>
    <g id="Backoffice" stroke="none" stroke-width="1" fill="none" fill-rule="evenodd">
        <g id="Login" transform="translate(-639.000000, -176.000000)">
            <g id="Falcon_full_logo" transform="translate(639.000000, 176.000000)">
                <g id="Group-15" transform="translate(-5.000000, -58.000000)">
                    <g id="Group-Copy" transform="translate(69.500000, 65.000000) rotate(-30.000000) translate(-69.500000, -65.000000) translate(14.000000, 23.000000)">
                        <path d="M44.1003683,29.2541001 L91.0141264,73.0035464 C97.908327,73.1265671 104.227695,76.4438317 108.545965,81.9680138 C111.638663,75.0404231 109.055247,66.7558168 102.34039,62.8789925 L44.1003683,29.2541001 Z" id="Rectangle-Copy-11" stroke="#FFFFFF" stroke-width="2"></path>
                        <path d="M97.2136785,66.7773434 C96.5816664,66.4155942 96.0304729,66.1004852 96.0873462,66.1330825 C94.9019434,65.4536624 93.9596838,64.9068418 93.0091049,64.3436023 C92.1612876,63.8412513 91.4587324,63.9246134 91.1336506,64.3215467 C90.8814555,64.6294834 90.9553271,65.0252408 91.5340759,65.4031974 C93.1241409,66.4416024 95.6482401,66.9583097 97.2136785,66.7773434 Z" id="Rectangle-Copy-13" stroke="#FFFFFF" stroke-width="2"></path>
                        <g id="Group-2-Copy-5" transform="translate(12.000000, 7.000000)">
                            <mask id="mask-2" fill="white">
                                <use xlink:href="#path-1"></use>
                            </mask>
                            <g id="Mask"></g>
                            <g id="Group-2" mask="url(#mask-2)" stroke="#FFFFFF" stroke-width="2">
                                <g transform="translate(-1.000000, 4.000000)">
                                    <path d="M-2.58298848,23 C-2.09089039,26.9463116 1.27550011,30 5.35511777,30 L83.3551178,30 L83.3551178,23 L-2.58298848,23 Z" id="Rectangle-Copy-6" transform="translate(40.355118, 26.500000) rotate(-330.000000) translate(-40.355118, -26.500000) "></path>
                                    <path d="M7.41701152,37 C7.90910961,40.9463116 11.2755001,44 15.3551178,44 L93.3551178,44 L93.3551178,37 L7.41701152,37 Z" id="Rectangle-Copy-7" transform="translate(50.355118, 40.500000) rotate(-330.000000) translate(-50.355118, -40.500000) "></path>
                                    <path d="M17.4170115,51 C17.9091096,54.9463116 21.2755001,58 25.3551178,58 L103.355118,58 L103.355118,51 L17.4170115,51 Z" id="Rectangle-Copy-8" transform="translate(60.355118, 54.500000) rotate(-330.000000) translate(-60.355118, -54.500000) "></path>
                                </g>
                            </g>
                        </g>
                        <g id="Group-2-Copy-7">
                            <mask id="mask-4" fill="white">
                                <use xlink:href="#path-3"></use>
                            </mask>
                            <g id="Mask"></g>
                            <g id="Group-2" mask="url(#mask-4)" stroke="#FFFFFF" stroke-width="2">
                                <g transform="translate(-1.000000, 4.000000)">
                                    <path d="M-2.58298848,23 C-2.09089039,26.9463116 1.27550011,30 5.35511777,30 L83.3551178,30 L83.3551178,23 L-2.58298848,23 Z" id="Rectangle-Copy-6" transform="translate(40.355118, 26.500000) rotate(-330.000000) translate(-40.355118, -26.500000) "></path>
                                    <path d="M7.41701152,37 C7.90910961,40.9463116 11.2755001,44 15.3551178,44 L93.3551178,44 L93.3551178,37 L7.41701152,37 Z" id="Rectangle-Copy-7" transform="translate(50.355118, 40.500000) rotate(-330.000000) translate(-50.355118, -40.500000) "></path>
                                    <path d="M17.4170115,51 C17.9091096,54.9463116 21.2755001,58 25.3551178,58 L103.355118,58 L103.355118,51 L17.4170115,51 Z" id="Rectangle-Copy-8" transform="translate(60.355118, 54.500000) rotate(-330.000000) translate(-60.355118, -54.500000) "></path>
                                </g>
                            </g>
                        </g>
                    </g>
                    <path d="M94.376,77.884 L106.229,77.884 L106.229,79.99 L96.644,79.99 L96.644,86.308 L105.554,86.308 L105.554,88.414 L96.644,88.414 L96.644,97 L94.376,97 L94.376,77.884 Z M108.848,85.984 C109.496003,85.3179967 110.265496,84.8275016 111.1565,84.5125 C112.047504,84.1974984 112.951995,84.04 113.87,84.04 C115.742009,84.04 117.091996,84.4809956 117.92,85.363 C118.748004,86.2450044 119.162,87.585991 119.162,89.386 L119.162,94.813 C119.162,95.1730018 119.18,95.5464981 119.216,95.9335 C119.252,96.3205019 119.297,96.6759984 119.351,97 L117.326,97 C117.254,96.7119986 117.2135,96.3925018 117.2045,96.0415 C117.1955,95.6904982 117.191,95.3800014 117.191,95.11 L117.137,95.11 C116.722998,95.7580032 116.169503,96.2889979 115.4765,96.703 C114.783497,97.1170021 113.951005,97.324 112.979,97.324 C112.330997,97.324 111.723503,97.2430008 111.1565,97.081 C110.589497,96.9189992 110.094502,96.6805016 109.6715,96.3655 C109.248498,96.0504984 108.911001,95.6590023 108.659,95.191 C108.406999,94.7229977 108.281,94.1830031 108.281,93.571 C108.281,92.5269948 108.550997,91.708003 109.091,91.114 C109.631003,90.519997 110.301496,90.0790014 111.1025,89.791 C111.903504,89.5029986 112.767495,89.3230004 113.6945,89.251 C114.621505,89.1789996 115.471996,89.143 116.246,89.143 L117.056,89.143 L117.056,88.765 C117.056,87.8469954 116.781503,87.1540023 116.2325,86.686 C115.683497,86.2179977 114.914005,85.984 113.924,85.984 C113.239997,85.984 112.569503,86.0964989 111.9125,86.3215 C111.255497,86.5465011 110.675003,86.8929977 110.171,87.361 L108.848,85.984 Z M114.95,90.925 C113.599993,90.925 112.529004,91.1139981 111.737,91.492 C110.944996,91.8700019 110.549,92.4909957 110.549,93.355 C110.549,94.147004 110.814497,94.7094983 111.3455,95.0425 C111.876503,95.3755017 112.537996,95.542 113.33,95.542 C113.942003,95.542 114.477498,95.438501 114.9365,95.2315 C115.395502,95.024499 115.777998,94.7500017 116.084,94.408 C116.390002,94.0659983 116.623999,93.6655023 116.786,93.2065 C116.948001,92.7474977 117.038,92.2570026 117.056,91.735 L117.056,90.925 L114.95,90.925 Z M123.212,76.588 L125.318,76.588 L125.318,97 L123.212,97 L123.212,76.588 Z M138.494,87.523 C138.043998,86.9829973 137.558003,86.5915012 137.036,86.3485 C136.513997,86.1054988 135.938003,85.984 135.308,85.984 C134.605996,85.984 133.985003,86.1054988 133.445,86.3485 C132.904997,86.5915012 132.459502,86.9289978 132.1085,87.361 C131.757498,87.7930022 131.492001,88.2924972 131.312,88.8595 C131.131999,89.4265028 131.042,90.0339968 131.042,90.682 C131.042,91.3300032 131.145499,91.9374972 131.3525,92.5045 C131.559501,93.0715028 131.847498,93.5709978 132.2165,94.003 C132.585502,94.4350022 133.030997,94.7724988 133.553,95.0155 C134.075003,95.2585012 134.659997,95.38 135.308,95.38 C136.694007,95.38 137.764996,94.8580052 138.521,93.814 L140.087,95.299 C139.474997,96.0010035 138.755004,96.5139984 137.927,96.838 C137.098996,97.1620016 136.226005,97.324 135.308,97.324 C134.335995,97.324 133.445004,97.1620016 132.635,96.838 C131.824996,96.5139984 131.136503,96.055003 130.5695,95.461 C130.002497,94.866997 129.561502,94.165004 129.2465,93.355 C128.931498,92.544996 128.774,91.6540049 128.774,90.682 C128.774,89.7279952 128.931498,88.8460041 129.2465,88.036 C129.561502,87.2259959 130.006997,86.524003 130.583,85.93 C131.159003,85.335997 131.847496,84.8725017 132.6485,84.5395 C133.449504,84.2064983 134.335995,84.04 135.308,84.04 C136.244005,84.04 137.130496,84.2019984 137.9675,84.526 C138.804504,84.8500016 139.537997,85.3539966 140.168,86.038 L138.494,87.523 Z M141.788,90.682 C141.788,89.6919951 141.958998,88.7920041 142.301,87.982 C142.643002,87.1719959 143.110997,86.4745029 143.705,85.8895 C144.299003,85.3044971 145.009996,84.8500016 145.838,84.526 C146.666004,84.2019984 147.565995,84.04 148.538,84.04 C149.510005,84.04 150.409996,84.2019984 151.238,84.526 C152.066004,84.8500016 152.776997,85.3044971 153.371,85.8895 C153.965003,86.4745029 154.432998,87.1719959 154.775,87.982 C155.117002,88.7920041 155.288,89.6919951 155.288,90.682 C155.288,91.672005 155.117002,92.571996 154.775,93.382 C154.432998,94.192004 153.965003,94.8894971 153.371,95.4745 C152.776997,96.0595029 152.066004,96.5139984 151.238,96.838 C150.409996,97.1620016 149.510005,97.324 148.538,97.324 C147.565995,97.324 146.666004,97.1620016 145.838,96.838 C145.009996,96.5139984 144.299003,96.0595029 143.705,95.4745 C143.110997,94.8894971 142.643002,94.192004 142.301,93.382 C141.958998,92.571996 141.788,91.672005 141.788,90.682 Z M144.056,90.682 C144.056,91.3480033 144.159499,91.9644972 144.3665,92.5315 C144.573501,93.0985028 144.874998,93.5934979 145.271,94.0165 C145.667002,94.4395021 146.139497,94.7724988 146.6885,95.0155 C147.237503,95.2585012 147.853997,95.38 148.538,95.38 C149.222003,95.38 149.838497,95.2585012 150.3875,95.0155 C150.936503,94.7724988 151.408998,94.4395021 151.805,94.0165 C152.201002,93.5934979 152.502499,93.0985028 152.7095,92.5315 C152.916501,91.9644972 153.02,91.3480033 153.02,90.682 C153.02,90.0159967 152.916501,89.3995028 152.7095,88.8325 C152.502499,88.2654972 152.201002,87.7705021 151.805,87.3475 C151.408998,86.9244979 150.936503,86.5915012 150.3875,86.3485 C149.838497,86.1054988 149.222003,85.984 148.538,85.984 C147.853997,85.984 147.237503,86.1054988 146.6885,86.3485 C146.139497,86.5915012 145.667002,86.9244979 145.271,87.3475 C144.874998,87.7705021 144.573501,88.2654972 144.3665,88.8325 C144.159499,89.3995028 144.056,90.0159967 144.056,90.682 Z M158.555,87.361 C158.555,86.7849971 158.537,86.2450025 158.501,85.741 C158.465,85.2369975 158.447,84.7780021 158.447,84.364 L160.445,84.364 C160.445,84.7060017 160.454,85.0479983 160.472,85.39 C160.49,85.7320017 160.499,86.0829982 160.499,86.443 L160.553,86.443 C160.697001,86.1369985 160.899499,85.8400014 161.1605,85.552 C161.421501,85.2639986 161.731998,85.0075011 162.092,84.7825 C162.452002,84.5574989 162.856998,84.3775007 163.307,84.2425 C163.757002,84.1074993 164.242997,84.04 164.765,84.04 C165.593004,84.04 166.308497,84.1659987 166.9115,84.418 C167.514503,84.6700013 168.013998,85.0209977 168.41,85.471 C168.806002,85.9210023 169.098499,86.4654968 169.2875,87.1045 C169.476501,87.7435032 169.571,88.4409962 169.571,89.197 L169.571,97 L167.465,97 L167.465,89.413 C167.465,88.3509947 167.231002,87.5140031 166.763,86.902 C166.294998,86.2899969 165.566005,85.984 164.576,85.984 C163.891997,85.984 163.302502,86.1009988 162.8075,86.335 C162.312498,86.5690012 161.907502,86.9019978 161.5925,87.334 C161.277498,87.7660022 161.043501,88.278997 160.8905,88.873 C160.737499,89.467003 160.661,90.1239964 160.661,90.844 L160.661,97 L158.555,97 L158.555,87.361 Z" id="Falcon" fill="#FFFFFF"></path>
                    <path d="M94.52,101.504 L96.968,101.504 C97.2640015,101.504 97.5739984,101.538 97.898,101.606 C98.2220016,101.674 98.5179987,101.791999 98.786,101.96 C99.0540013,102.128001 99.2739991,102.357999 99.446,102.65 C99.6180009,102.942001 99.704,103.307998 99.704,103.748 C99.704,104.132002 99.6340007,104.463999 99.494,104.744 C99.3539993,105.024001 99.1660012,105.253999 98.93,105.434 C98.6939988,105.614001 98.4220015,105.748 98.114,105.836 C97.8059985,105.924 97.4840017,105.968 97.148,105.968 L95.312,105.968 L95.312,110 L94.52,110 L94.52,101.504 Z M95.312,105.248 L97.112,105.248 C97.3360011,105.248 97.5559989,105.222 97.772,105.17 C97.9880011,105.118 98.1799992,105.034001 98.348,104.918 C98.5160008,104.801999 98.6519995,104.648001 98.756,104.456 C98.8600005,104.263999 98.912,104.028001 98.912,103.748 C98.912,103.475999 98.8580005,103.244001 98.75,103.052 C98.6419995,102.859999 98.5020009,102.702001 98.33,102.578 C98.1579991,102.453999 97.9600011,102.364 97.736,102.308 C97.5119989,102.252 97.2880011,102.224 97.064,102.224 L95.312,102.224 L95.312,105.248 Z M101.408,101.504 L102.2,101.504 L102.2,109.28 L106.16,109.28 L106.16,110 L101.408,110 L101.408,101.504 Z M110.012,101.504 L110.828,101.504 L114.404,110 L113.516,110 L112.592,107.744 L108.092,107.744 L107.132,110 L106.304,110 L110.012,101.504 Z M110.384,102.368 L108.404,107.024 L112.304,107.024 L110.384,102.368 Z M116.696,102.224 L113.792,102.224 L113.792,101.504 L120.392,101.504 L120.392,102.224 L117.488,102.224 L117.488,110 L116.696,110 L116.696,102.224 Z M121.7,101.504 L126.788,101.504 L126.788,102.224 L122.492,102.224 L122.492,105.248 L126.488,105.248 L126.488,105.968 L122.492,105.968 L122.492,110 L121.7,110 L121.7,101.504 Z M127.82,105.752 C127.82,105.103997 127.927999,104.508003 128.144,103.964 C128.360001,103.419997 128.659998,102.950002 129.044,102.554 C129.428002,102.157998 129.889997,101.848001 130.43,101.624 C130.970003,101.399999 131.563997,101.288 132.212,101.288 C132.860003,101.288 133.453997,101.399999 133.994,101.624 C134.534003,101.848001 134.995998,102.157998 135.38,102.554 C135.764002,102.950002 136.063999,103.419997 136.28,103.964 C136.496001,104.508003 136.604,105.103997 136.604,105.752 C136.604,106.400003 136.496001,106.997997 136.28,107.546 C136.063999,108.094003 135.764002,108.565998 135.38,108.962 C134.995998,109.358002 134.534003,109.665999 133.994,109.886 C133.453997,110.106001 132.860003,110.216 132.212,110.216 C131.563997,110.216 130.970003,110.106001 130.43,109.886 C129.889997,109.665999 129.428002,109.358002 129.044,108.962 C128.659998,108.565998 128.360001,108.094003 128.144,107.546 C127.927999,106.997997 127.82,106.400003 127.82,105.752 Z M128.612,105.752 C128.612,106.280003 128.695999,106.771998 128.864,107.228 C129.032001,107.684002 129.271998,108.079998 129.584,108.416 C129.896002,108.752002 130.273998,109.015999 130.718,109.208 C131.162002,109.400001 131.659997,109.496 132.212,109.496 C132.764003,109.496 133.261998,109.400001 133.706,109.208 C134.150002,109.015999 134.527998,108.752002 134.84,108.416 C135.152002,108.079998 135.391999,107.684002 135.56,107.228 C135.728001,106.771998 135.812,106.280003 135.812,105.752 C135.812,105.223997 135.728001,104.732002 135.56,104.276 C135.391999,103.819998 135.152002,103.424002 134.84,103.088 C134.527998,102.751998 134.150002,102.488001 133.706,102.296 C133.261998,102.103999 132.764003,102.008 132.212,102.008 C131.659997,102.008 131.162002,102.103999 130.718,102.296 C130.273998,102.488001 129.896002,102.751998 129.584,103.088 C129.271998,103.424002 129.032001,103.819998 128.864,104.276 C128.695999,104.732002 128.612,105.223997 128.612,105.752 Z M139.172,105.248 L140.852,105.248 C141.268002,105.248 141.605999,105.196001 141.866,105.092 C142.126001,104.987999 142.327999,104.860001 142.472,104.708 C142.616001,104.555999 142.714,104.392001 142.766,104.216 C142.818,104.039999 142.844,103.880001 142.844,103.736 C142.844,103.591999 142.818,103.432001 142.766,103.256 C142.714,103.079999 142.616001,102.916001 142.472,102.764 C142.327999,102.611999 142.126001,102.484001 141.866,102.38 C141.605999,102.275999 141.268002,102.224 140.852,102.224 L139.172,102.224 L139.172,105.248 Z M138.38,101.504 L140.612,101.504 C140.724001,101.504 140.875999,101.508 141.068,101.516 C141.260001,101.524 141.467999,101.548 141.692,101.588 C141.916001,101.628 142.143999,101.692 142.376,101.78 C142.608001,101.868 142.815999,101.995999 143,102.164 C143.184001,102.332001 143.335999,102.543999 143.456,102.8 C143.576001,103.056001 143.636,103.367998 143.636,103.736 C143.636,104.144002 143.566001,104.479999 143.426,104.744 C143.285999,105.008001 143.110001,105.221999 142.898,105.386 C142.685999,105.550001 142.452001,105.672 142.196,105.752 C141.939999,105.832 141.696001,105.888 141.464,105.92 L143.936,110 L143.036,110 L140.648,105.968 L139.172,105.968 L139.172,110 L138.38,110 L138.38,101.504 Z M145.412,101.504 L146.6,101.504 L149.696,108.632 L152.792,101.504 L153.92,101.504 L153.92,110 L153.128,110 L153.128,102.512 L153.104,102.512 L149.864,110 L149.516,110 L146.228,102.512 L146.204,102.512 L146.204,110 L145.412,110 L145.412,101.504 Z" id="PLATFORM" fill="#FFFFFF"></path>
                </g>
            </g>
        </g>
    </g>
</svg>