<svg xmlns="http://www.w3.org/2000/svg" xmlns:xlink="http://www.w3.org/1999/xlink" width="165" height="53" viewBox="0 0 165 53">
    <defs>
        <path id="a" d="M40.5 62.103l35-22L.069.785V23.32z"/>
        <path id="c" d="M40.5 62.103l35-22L.069.785V23.32z"/>
    </defs>
    <g fill="none" fill-rule="evenodd">
        <path stroke="#FFF" stroke-width="2" d="M48.255 1.662l62.503 14.43c6.032-3.34 13.163-3.627 19.665-1.002-.785-7.545-7.165-13.428-14.919-13.428h-67.25z"/>
        <path stroke="#FFF" stroke-width="2" d="M113.014 7.601l-1.298.005c-1.366.004-2.456.002-3.56-.01-.986-.012-1.553.412-1.636.918-.064.393.198.699.888.737 1.896.104 4.34-.71 5.606-1.65z"/>
        <g transform="rotate(-30 1.751 -18.187)">
            <mask id="b" fill="#fff">
                <use xlink:href="#a"/>
            </mask>
            <g stroke="#FFF" stroke-width="2" mask="url(#b)">
                <path d="M3.92 6A8.001 8.001 0 0 0 7.294 16.03l67.55 39 3.5-6.062L3.92 5.999zM13.92 20a8.001 8.001 0 0 0 3.374 10.031l67.55 39 3.5-6.062-74.424-42.97zM23.92 34a8.001 8.001 0 0 0 3.374 10.031l67.55 39 3.5-6.062-74.424-42.97z"/>
            </g>
        </g>
        <g transform="rotate(-30 -5.31 7.706)">
            <mask id="d" fill="#fff">
                <use xlink:href="#c"/>
            </mask>
            <g stroke="#FFF" stroke-width="2" mask="url(#d)">
                <path d="M3.92 6A8.001 8.001 0 0 0 7.294 16.03l67.55 39 3.5-6.062L3.92 5.999zM13.92 20a8.001 8.001 0 0 0 3.374 10.031l67.55 39 3.5-6.062-74.424-42.97zM23.92 34a8.001 8.001 0 0 0 3.374 10.031l67.55 39 3.5-6.062-74.424-42.97z"/>
            </g>
        </g>
        <text fill="#FFF" font-family="Avenir-Roman, Avenir" font-size="27" transform="translate(-5 -58)">
            <tspan x="92" y="97">Falcon</tspan>
        </text>
        <text fill="#FFF" font-family="Avenir-Light, Avenir" font-size="12" font-weight="300" transform="translate(-5 -58)">
            <tspan x="93.356" y="110">PLATFORM</tspan>
        </text>
    </g>
</svg>
