<svg xmlns="http://www.w3.org/2000/svg" width="121" height="47" viewBox="0 0 121 47">
    <g fill="#FFF" fill-rule="evenodd">
        <path d="M11.65 37.325c0-.517.18-.954.537-1.313a1.786 1.786 0 0 1 1.313-.537c.517 0 .958.18 1.325.538.367.358.55.795.55 1.312s-.183.958-.55 1.325c-.367.367-.808.55-1.325.55-.517 0-.954-.183-1.313-.55a1.827 1.827 0 0 1-.537-1.325zM21.825 31.8V39h-2.8V20.475h2.8v7.65a4.438 4.438 0 0 1 1.813-1.925c.808-.467 1.679-.7 2.612-.7 1.5 0 2.712.458 3.637 1.375.926.917 1.388 2.242 1.388 3.975V39h-2.8v-7.3c0-2.45-1.017-3.675-3.05-3.675-.967 0-1.808.32-2.525.963-.717.641-1.075 1.579-1.075 2.812zM41.3 36.7c1.217 0 2.22-.404 3.013-1.213.791-.808 1.187-1.854 1.187-3.137s-.396-2.33-1.188-3.138C43.522 28.404 42.517 28 41.3 28s-2.22.404-3.012 1.212c-.792.809-1.188 1.855-1.188 3.138s.396 2.33 1.188 3.137c.791.809 1.795 1.213 3.012 1.213zm0 2.5c-2 0-3.667-.662-5-1.988-1.333-1.325-2-2.945-2-4.862 0-1.917.667-3.537 2-4.863 1.333-1.325 3-1.987 5-1.987s3.667.662 5 1.988c1.333 1.325 2 2.945 2 4.862 0 1.917-.667 3.537-2 4.862-1.333 1.326-3 1.988-5 1.988zm17.15-10.875c-1.383 0-2.425.45-3.125 1.35-.7.9-1.05 2.108-1.05 3.625V39h-2.8V25.7h2.8v2.675a5.795 5.795 0 0 1 1.837-2.05c.776-.533 1.596-.808 2.463-.825l.025 2.825h-.15zM64.2 39h-2.8V25.7h2.8V39zm-3.15-17.2c0-.483.175-.9.525-1.25.35-.35.767-.525 1.25-.525s.9.175 1.25.525c.35.35.525.767.525 1.25s-.175.9-.525 1.25c-.35.35-.767.525-1.25.525s-.9-.175-1.25-.525a1.707 1.707 0 0 1-.525-1.25zm6.775 6.35v-2.4h10.4v2.525l-7.475 8.3h7.875V39h-11.3v-2.725L74.6 28.15h-6.775zm19.9 8.55c1.217 0 2.22-.404 3.013-1.213.791-.808 1.187-1.854 1.187-3.137s-.396-2.33-1.188-3.138C89.947 28.404 88.942 28 87.725 28s-2.22.404-3.012 1.212c-.792.809-1.188 1.855-1.188 3.138s.396 2.33 1.188 3.137c.791.809 1.795 1.213 3.012 1.213zm0 2.5c-2 0-3.667-.662-5-1.988-1.333-1.325-2-2.945-2-4.862 0-1.917.667-3.537 2-4.863 1.333-1.325 3-1.987 5-1.987s3.667.662 5 1.988c1.333 1.325 2 2.945 2 4.862 0 1.917-.667 3.537-2 4.862-1.333 1.326-3 1.988-5 1.988zm12.975-7.4V39h-2.8V25.7h2.8v2.425a4.983 4.983 0 0 1 1.862-1.925 4.96 4.96 0 0 1 2.563-.7c1.5 0 2.712.458 3.638 1.375.925.917 1.387 2.242 1.387 3.975V39h-2.8v-7.3c0-2.45-1.017-3.675-3.05-3.675-.967 0-1.808.32-2.525.963-.717.641-1.075 1.579-1.075 2.812z"/>
        <path fill-rule="nonzero" d="M1.004 45.98V1.019H121V0H0v47l121-.182-.001-1.018z"/>
    </g>
</svg>
