<?xml version="1.0" encoding="UTF-8" standalone="no"?>
<svg xmlns="http://www.w3.org/2000/svg" xmlns:xlink="http://www.w3.org/1999/xlink" viewBox="0 0 80 80" text-rendering="geometricPrecision" shape-rendering="geometricPrecision" style="white-space: pre;">
    <style>
@keyframes a0_da { 0% { stroke-dasharray: 0px 10px 0px 0px; animation-timing-function: cubic-bezier(0.42,0,0.58,1); } 33.3333% { stroke-dasharray: 0px 10px 40px 0px; animation-timing-function: cubic-bezier(0.42,0,0.58,1); } 50% { stroke-dasharray: 0px 10px 100px 0px; animation-timing-function: cubic-bezier(0.42,0,0.58,1); } 66.6667% { stroke-dasharray: 0px 10px 40px 0px; animation-timing-function: cubic-bezier(0.42,0,0.58,1); } 100% { stroke-dasharray: 0px 10px 0px 0px; } }
@keyframes a1_da { 0% { stroke-dasharray: 0px 10px 10px 0px; animation-timing-function: cubic-bezier(0.42,0,0.58,1); } 25% { stroke-dasharray: 0px 10px 40px 0px; animation-timing-function: cubic-bezier(0.42,0,0.58,1); } 41.6667% { stroke-dasharray: 0px 10px 100px 0px; animation-timing-function: cubic-bezier(0.42,0,0.58,1); } 75% { stroke-dasharray: 0px 10px 40px 0px; animation-timing-function: cubic-bezier(0.42,0,0.58,1); } 100% { stroke-dasharray: 0px 10px 10px 0px; } }
@keyframes a2_da { 0% { stroke-dasharray: 0px 10px 20px 0px; animation-timing-function: cubic-bezier(0.42,0,0.58,1); } 33.3333% { stroke-dasharray: 0px 10px 40px 0px; animation-timing-function: cubic-bezier(0.42,0,0.58,1); } 50% { stroke-dasharray: 0px 10px 100px 0px; animation-timing-function: cubic-bezier(0.42,0,0.58,1); } 66.6667% { stroke-dasharray: 0px 10px 40px 0px; animation-timing-function: cubic-bezier(0.42,0,0.58,1); } 100% { stroke-dasharray: 0px 10px 20px 0px; } }
    </style>
    <path fill="none" fill-rule="evenodd" stroke="#ffffff" stroke-dasharray="0 10 0 0" stroke-dashoffset="19" stroke-linecap="round" stroke-linejoin="miter" stroke-miterlimit="1" stroke-width="1" d="M14,0C14,-7.73199,7.73199,-14,0,-14C-7.73199,-14,-14,-7.73199,-14,0C-14,7.73199,-7.73199,14,0,14C7.73199,14,14,7.73199,14,0Z" opacity="0.9" transform="translate(-15.5,39.5) rotate(-90) translate(-0.5,55.5)" style="animation: a0_da 6s linear infinite both;"/>
    <path fill="none" fill-rule="evenodd" stroke="#ffffff" stroke-dasharray="0 10 10 0" stroke-dashoffset="19" stroke-linecap="round" stroke-linejoin="miter" stroke-miterlimit="1" stroke-width="1" d="M40,13C40,-1.9117,27.9117,-14,13,-14C-1.9117,-14,-14,-1.9117,-14,13C-14,27.9117,-1.9117,40,13,40C27.9117,40,40,27.9117,40,13Z" opacity="0.5" transform="translate(26.5,108.5) rotate(180) translate(-26.5,55.5)" style="animation: a1_da 6s linear infinite both;"/>
    <path fill="none" fill-rule="evenodd" stroke="#ffffff" stroke-dasharray="0 10 20 0" stroke-dashoffset="19" stroke-linecap="round" stroke-linejoin="miter" stroke-miterlimit="1" stroke-width="1" d="M62,24C62,3.01316,44.9868,-14,24,-14C3.01316,-14,-14,3.01316,-14,24C-14,44.9868,3.01316,62,24,62C44.9868,62,62,44.9868,62,24Z" opacity="0.75" transform="translate(119.5,64.5) rotate(90) translate(-48.5,55.5)" style="animation: a2_da 6s linear infinite both;"/>
</svg>
