<?xml version="1.0" encoding="UTF-8"?>
<svg width="65px" height="65px" viewBox="0 0 65 65" version="1.1" xmlns="http://www.w3.org/2000/svg" xmlns:xlink="http://www.w3.org/1999/xlink">
    <!-- Generator: Sketch 51 (57462) - http://www.bohemiancoding.com/sketch -->
    <title>BO_Header_logo-PlaceHolder</title>
    <desc>Created with Sketch.</desc>
    <defs>
        <circle id="path-1" cx="32.5" cy="32.5" r="32.5"></circle>
    </defs>
    <g id="Brands" stroke="none" stroke-width="1" fill="none" fill-rule="evenodd">
        <g id="BO_Header_logo-PlaceHolder" transform="translate(-27.000000, -16.000000)">
            <g transform="translate(27.000000, 16.000000)">
                <mask id="mask-2" fill="white">
                    <use xlink:href="#path-1"></use>
                </mask>
                <use id="Mask" fill="#2E2D2C" xlink:href="#path-1"></use>
                <g id="Group-5" mask="url(#mask-2)">
                    <g transform="translate(-0.822785, 0.000000)">
                        <circle id="Oval-3" fill="#2E2D2C" cx="33.3227848" cy="32.5" r="32.5"></circle>
                        <circle id="Oval-4" fill="#000000" cx="26.3291139" cy="17.278481" r="9.87341772"></circle>
                        <rect id="Rectangle" fill="#000000" x="0" y="31.2658228" width="66.6455696" height="1.64556962"></rect>
                        <path d="M7.40506329,45.5399529 L7.40506329,37.9026534 L11.048184,37.9026534 C11.9524298,37.9026534 12.6362087,38.1281333 13.0995413,38.5790999 C13.4582503,38.9282354 13.6376022,39.3682849 13.6376022,39.8992617 C13.6376022,40.6193536 13.2938445,41.1685063 12.6063188,41.5467363 C13.0920706,41.7285777 13.4582473,41.9667863 13.7048598,42.2613694 C13.9514723,42.5559524 14.0747767,42.9505422 14.0747767,43.4451508 C14.0747767,44.1288744 13.8132219,44.6489329 13.2901045,45.005342 C12.7669871,45.3617511 12.0495797,45.5399529 11.1378609,45.5399529 L7.40506329,45.5399529 Z M9.08650364,40.9903045 L10.6782672,40.9903045 C11.5077819,40.9903045 11.922533,40.7139098 11.922533,40.161112 C11.922533,39.9065341 11.8253841,39.7119667 11.6310834,39.5774041 C11.4367826,39.4428415 11.1565454,39.3755612 10.7903632,39.3755612 L9.08650364,39.3755612 L9.08650364,40.9903045 Z M9.08650364,44.0670452 L11.1378609,44.0670452 C11.9524294,44.0670452 12.3597075,43.7833769 12.3597075,43.2160318 C12.3597075,42.663234 11.9337469,42.3868393 11.0818129,42.3868393 L9.08650364,42.3868393 L9.08650364,44.0670452 Z M15.4983962,45.5399529 L15.4983962,37.9026534 L19.0854689,37.9026534 C20.0793919,37.9026534 20.8416373,38.1608643 21.3722278,38.6772938 C21.8206141,39.1137131 22.0448039,39.7028703 22.0448039,40.4447831 C22.0448039,41.6158416 21.4843294,42.4050213 20.3633636,42.812346 L22.2802056,45.5399529 L20.2624771,45.5399529 L18.5586176,43.0960171 L17.2246749,43.0960171 L17.2246749,45.5399529 L15.4983962,45.5399529 Z M17.2246749,41.6121989 L18.9733729,41.6121989 C19.3918668,41.6121989 19.716942,41.5121876 19.9486083,41.3121621 C20.1802746,41.1121366 20.296106,40.8448338 20.296106,40.5102457 C20.296106,40.1538366 20.1765381,39.882897 19.9373987,39.6974188 C19.6982593,39.5119406 19.3657111,39.4192029 18.9397441,39.4192029 L17.2246749,39.4192029 L17.2246749,41.6121989 Z M22.9303625,45.5399529 L26.2932432,37.8481013 L27.8850067,37.8481013 L31.2478874,45.5399529 L29.4431414,45.5399529 L28.7257269,43.8270158 L25.4076846,43.8270158 L24.6902701,45.5399529 L22.9303625,45.5399529 Z M26.0242127,42.3431976 L28.1091988,42.3431976 L27.0667058,39.8665304 L26.0242127,42.3431976 Z M32.4585245,45.5399529 L32.4585245,37.9026534 L34.050288,37.9026534 L37.7270376,42.6050478 L37.7270376,37.9026534 L39.4308971,37.9026534 L39.4308971,45.5399529 L37.9624392,45.5399529 L34.162384,40.6848125 L34.162384,45.5399529 L32.4585245,45.5399529 Z M41.3141103,45.5399529 L41.3141103,37.9026534 L44.3743317,37.9026534 C45.599921,37.9026534 46.6013022,38.2645123 47.3785052,38.988241 C48.1557081,39.7119697 48.5443038,40.6229813 48.5443038,41.7213032 C48.5443038,42.8123514 48.1538399,43.7215447 47.3729004,44.4489102 C46.5919608,45.1762757 45.5924479,45.5399529 44.3743317,45.5399529 L41.3141103,45.5399529 Z M43.0403891,44.0234035 L44.3743317,44.0234035 C45.0842768,44.0234035 45.6559608,43.8106523 46.0894009,43.3851434 C46.522841,42.9596346 46.7395578,42.4050267 46.7395578,41.7213032 C46.7395578,41.0448533 46.5209728,40.4920638 46.0837961,40.0629181 C45.6466194,39.6337725 45.0768037,39.4192029 44.3743317,39.4192029 L43.0403891,39.4192029 L43.0403891,44.0234035 Z M7.40506329,54.9956571 L7.40506329,47.3583576 L9.13134205,47.3583576 L9.13134205,53.4681972 L13.0434933,53.4681972 L13.0434933,54.9956571 L7.40506329,54.9956571 Z M20.688442,53.9809873 C19.8962928,54.7447211 18.9023847,55.1265823 17.7066878,55.1265823 C16.5109909,55.1265823 15.518951,54.7447211 14.7305384,53.9809873 C13.9421258,53.2172536 13.5479254,52.2826029 13.5479254,51.1770074 C13.5479254,50.0786855 13.9458623,49.1458532 14.741748,48.3784826 C15.5376338,47.611112 16.5334101,47.2274325 17.729107,47.2274325 C18.9248039,47.2274325 19.9168438,47.6092936 20.7052564,48.3730274 C21.4936691,49.1367612 21.8878695,50.0714118 21.8878695,51.1770074 C21.8878695,52.2753293 21.4880643,53.2099799 20.688442,53.9809873 Z M16.0252475,52.8790341 C16.4736338,53.344548 17.0415813,53.5773015 17.729107,53.5773015 C18.4166327,53.5773015 18.9808437,53.3463664 19.421757,52.8844893 C19.8626702,52.4226123 20.0831235,51.8534573 20.0831235,51.1770074 C20.0831235,50.5078311 19.8589337,49.9404945 19.4105474,49.4749806 C18.962161,49.0094667 18.3942135,48.7767132 17.7066878,48.7767132 C17.0191621,48.7767132 16.4549511,49.0076483 16.0140379,49.4695254 C15.5731246,49.9314025 15.3526713,50.5005575 15.3526713,51.1770074 C15.3526713,51.8461836 15.5768611,52.4135202 16.0252475,52.8790341 Z M27.201221,55.1265823 C25.9831048,55.1265823 24.9910649,54.7556314 24.2250716,54.0137186 C23.4590782,53.2718058 23.0760873,52.3262449 23.0760873,51.1770074 C23.0760873,50.0786855 23.4684195,49.1458532 24.2530956,48.3784826 C25.0377717,47.611112 26.0167338,47.2274325 27.1900114,47.2274325 C27.870064,47.2274325 28.4454845,47.3128966 28.9162901,47.4838275 C29.3870958,47.6547584 29.8392119,47.9184245 30.272652,48.2748335 L29.1853206,49.5513536 C28.8565039,49.2822284 28.5389017,49.0858426 28.2325044,48.9621905 C27.9261071,48.8385384 27.5599304,48.7767132 27.1339634,48.7767132 C26.5062225,48.7767132 25.9737717,49.0112851 25.536595,49.4804358 C25.0994184,49.9495866 24.8808333,50.5151048 24.8808333,51.1770074 C24.8808333,51.8752783 25.1031549,52.4535251 25.5478046,52.9117654 C25.9924544,53.3700057 26.5622702,53.5991224 27.257269,53.5991224 C27.8999561,53.5991224 28.4417481,53.4463779 28.8826613,53.1408844 L28.8826613,52.0498416 L27.145173,52.0498416 L27.145173,50.5987547 L30.5528921,50.5987547 L30.5528921,53.9155248 C29.5739152,54.7229005 28.4567027,55.1265823 27.201221,55.1265823 Z M39.0049322,53.9809873 C38.212783,54.7447211 37.2188749,55.1265823 36.023178,55.1265823 C34.8274811,55.1265823 33.8354412,54.7447211 33.0470286,53.9809873 C32.258616,53.2172536 31.8644155,52.2826029 31.8644155,51.1770074 C31.8644155,50.0786855 32.2623525,49.1458532 33.0582382,48.3784826 C33.8541239,47.611112 34.8499003,47.2274325 36.0455972,47.2274325 C37.2412941,47.2274325 38.233334,47.6092936 39.0217466,48.3730274 C39.8101593,49.1367612 40.2043597,50.0714118 40.2043597,51.1770074 C40.2043597,52.2753293 39.8045545,53.2099799 39.0049322,53.9809873 Z M34.3417377,52.8790341 C34.790124,53.344548 35.3580715,53.5773015 36.0455972,53.5773015 C36.7331229,53.5773015 37.2973339,53.3463664 37.7382472,52.8844893 C38.1791604,52.4226123 38.3996137,51.8534573 38.3996137,51.1770074 C38.3996137,50.5078311 38.1754239,49.9404945 37.7270376,49.4749806 C37.2786512,49.0094667 36.7107037,48.7767132 36.023178,48.7767132 C35.3356523,48.7767132 34.7714413,49.0076483 34.3305281,49.4695254 C33.8896148,49.9314025 33.6691615,50.5005575 33.6691615,51.1770074 C33.6691615,51.8461836 33.8933513,52.4135202 34.3417377,52.8790341 Z" id="BRAND-LOGO" fill="#000000"></path>
                    </g>
                </g>
            </g>
        </g>
    </g>
</svg>