<?xml version="1.0" encoding="UTF-8"?>
<svg width="1440px" height="476px" viewBox="0 0 1440 476" version="1.1" xmlns="http://www.w3.org/2000/svg" xmlns:xlink="http://www.w3.org/1999/xlink">
    <!-- Generator: Sketch 50.2 (55047) - http://www.bohemiancoding.com/sketch -->
    <title>Mountain</title>
    <desc>Created with Sketch.</desc>
    <defs></defs>
    <g id="Backoffice" stroke="none" stroke-width="1" fill="none" fill-rule="evenodd">
        <g id="Login" transform="translate(0.000000, -425.000000)">
            <g id="Mountain" transform="translate(0.000000, 425.000000)">
                <g transform="translate(-558.000000, 0.000000)" id="Path-2">
                    <polygon fill="#150707" points="0 360.541378 155.179361 256.661869 308.757921 286.154844 534.01744 118.043572 718.63462 177.944767 935.807028 0.00802813902 1160.268 110.405945 1397.95344 157.108418 1581.97567 22.7254681 1776.36784 118.043572 2006.35861 22.7254681 2006.35861 484.294409 3.62210904 484.294409"></polygon>
                    <polygon fill="#2A120C" transform="translate(1481.667128, 413.149418) scale(-1, 1) rotate(-4.000000) translate(-1481.667128, -413.149418) " points="452.23575 580.983937 611.475981 449.730174 835.427151 116.960487 1085.82622 88.9505597 1224.16551 253.564877 1394.68387 210.9928 1642.86666 264.932993 1893.06067 236.132174 2126.77269 350.269598 2511.09851 154.14702 2511.09851 737.348277 455.952645 737.348277"></polygon>
                    <polygon fill="#3D2310" transform="translate(1338.891221, 462.809002) scale(-1, 1) rotate(7.000000) translate(-1338.891221, -462.809002) " points="556.229351 510.054633 670.096802 371.724563 802.664344 422.703316 912.861413 354.22402 1097.32352 394.394454 1253.92763 337.17584 1393.28207 412.506961 1564.96689 371.724563 1874.86123 433.54913 2121.55309 354.22402 2066.91212 588.442164 558.956609 588.442164"></polygon>
                </g>
            </g>
        </g>
    </g>
</svg>