<svg xmlns="http://www.w3.org/2000/svg" width="1440" height="476" viewBox="0 0 1440 476">
    <g fill="none" fill-rule="evenodd" opacity=".09">
        <path fill="#E95153" d="M-558 360.541l155.18-103.88 153.578 29.494 225.26-168.111 184.617 59.9L377.807.009l224.461 110.398 237.685 46.702 184.023-134.383 194.392 95.319 229.99-95.319v461.57H-554.377z"/>
        <path fill="#FF8041" d="M1938.883 652.385l-149.696-142.042-200.193-347.582-247.835-45.408-149.485 154.563-167.134-54.363-251.34 36.496-247.576-46.183-241.105 97.556L-85.19 82.968l-40.682 581.781 2050.14 143.36z"/>
        <path fill="#FFD046" d="M1563.477 414.32L1433.6 290.898l-125.367 66.755-117.72-54.54-178.192 62.352-162.41-37.707-129.135 91.752L545.4 399.955l-300.05 99.13-254.52-48.67L73.608 676.23l1496.715-183.773z"/>
    </g>
</svg>
