<?xml version="1.0" encoding="UTF-8"?>
<svg width="66px" height="81px" viewBox="0 0 66 81" version="1.1" xmlns="http://www.w3.org/2000/svg" xmlns:xlink="http://www.w3.org/1999/xlink">
    <title>rfp_dep_logo</title>
    <defs></defs>
    <g id="Screens" stroke="none" stroke-width="1" fill="none" fill-rule="evenodd">
        <g id="Multidepartment" transform="translate(-553.000000, -485.000000)" fill="#D0021B">
            <g id="Group-5" transform="translate(179.000000, 467.000000)">
                <g id="Group-2" transform="translate(276.000000, 0.000000)">
                    <path d="M130.929739,18.19 L163.609477,32.8305229 L163.609477,54.6170153 C163.609477,61.240142 162.186107,67.6307826 159.339325,73.7891285 C156.492542,79.8312793 152.629109,85.0018885 147.748911,89.3011111 C142.694419,93.716529 137.088085,96.6794623 130.929739,98.19 C124.771393,96.6794623 119.165058,93.716529 114.110566,89.3011111 C109.230368,85.0018885 105.366935,79.8312793 102.520153,73.7891285 C99.6733699,67.6307826 98.25,61.240142 98.25,54.6170153 L98.25,32.8305229 L130.929739,18.19 Z M130.929739,58.19 L130.929739,90.6954466 C135.345156,89.3011041 139.368355,86.991759 142.999455,83.767342 C146.630556,80.5429251 149.608013,76.7085407 151.931917,72.2640741 C154.255821,67.8196074 155.70824,63.1282963 156.289216,58.19 L130.929739,58.19 Z M130.929739,58.19 L130.929739,26.2074292 L105.570261,37.4492593 L105.570261,58.19 L130.929739,58.19 Z" id="rfp_dep_logo"></path>
                </g>
            </g>
        </g>
    </g>
</svg>
