<svg xmlns="http://www.w3.org/2000/svg" width="66" height="81" viewBox="0 0 66 81">
    <path fill="#4990E2" fill-rule="evenodd" d="M32.93.19l32.68 14.64v21.787c0 6.623-1.424 13.014-4.27 19.172-2.847 6.042-6.71 11.213-11.591 15.512-5.055 4.416-10.66 7.378-16.82 8.889-6.158-1.51-11.764-4.473-16.818-8.889-4.88-4.3-8.744-9.47-11.59-15.512C1.672 49.631.25 43.24.25 36.617V14.831L32.93.19zm0 40v32.505c4.415-1.394 8.438-3.703 12.07-6.928 3.63-3.224 6.608-7.058 8.932-11.503a40.292 40.292 0 0 0 4.357-14.074H32.93zm0 0V8.207L7.57 19.45V40.19h25.36z"/>
</svg>
