<?xml version="1.0" encoding="UTF-8"?>
<svg width="500px" height="150px" viewBox="0 0 500 150" version="1.1" xmlns="http://www.w3.org/2000/svg" xmlns:xlink="http://www.w3.org/1999/xlink">
    <!-- Generator: Sketch 51.2 (57519) - http://www.bohemiancoding.com/sketch -->
    <title>BO_sprite</title>
    <desc>Created with Sketch.</desc>
    <defs>
        <linearGradient x1="27.2650256%" y1="0%" x2="64.6426304%" y2="92.9366886%" id="linearGradient-1">
            <stop stop-color="#FBFAE1" offset="0%"></stop>
            <stop stop-color="#FFF48E" offset="57.0154444%"></stop>
            <stop stop-color="#F8D85B" offset="100%"></stop>
        </linearGradient>
    </defs>
    <g id="BO_sprite" stroke="none" stroke-width="1" fill="none" fill-rule="evenodd">
        <g id="Checkboxes">
            <g id="Checkbox_hover" transform="translate(25.000000, 0.000000)">
                <rect id="Check-box_bg" fill="#FFFFFF" x="0" y="0" width="25" height="25" rx="3"></rect>
                <path d="M1.38888889,2.99075223 L1.38888889,22.0092478 C1.38888889,22.8909578 2.10819444,23.6111111 2.99075223,23.6111111 L22.0092478,23.6111111 C22.8909578,23.6111111 23.6111111,22.8918056 23.6111111,22.0092478 L23.6111111,2.99075223 C23.6111111,2.10904223 22.8918056,1.38888889 22.0092478,1.38888889 L2.99075223,1.38888889 C2.10904223,1.38888889 1.38888889,2.10819444 1.38888889,2.99075223 Z M0,2.99075223 C0,1.33900538 1.34410858,0 2.99075223,0 L22.0092478,0 C23.6609946,0 25,1.34410858 25,2.99075223 L25,22.0092478 C25,23.6609946 23.6558914,25 22.0092478,25 L2.99075223,25 C1.33900538,25 0,23.6558914 0,22.0092478 L0,2.99075223 Z" id="Check-box_idle" fill="#9B9B9B" fill-rule="nonzero"></path>
                <path d="M17.1518805,6.47019495 C17.4444838,6.00179151 18.0614016,5.8592773 18.529805,6.15188055 C18.9982085,6.44448379 19.1407227,7.06140161 18.8481195,7.52980505 L11.9766163,18.529805 C11.6044204,19.1256215 10.7500326,19.1620206 10.3285107,18.6000185 L6.20001388,13.0956214 C5.86863281,12.6538012 5.95816136,12.0269978 6.3999815,11.6956167 C6.84180163,11.3642357 7.46860505,11.4537642 7.79998612,11.8955844 L11.053219,16.2330191 L17.1518805,6.47019495 Z" id="Path-2-Copy-3" fill="#CFCFCF" fill-rule="nonzero"></path>
            </g>
            <g id="Checkbox_active">
                <rect id="Check-box_bg" fill="#FFFFFF" x="0" y="0" width="25" height="25" rx="3"></rect>
                <path d="M1.38888889,2.99075223 L1.38888889,22.0092478 C1.38888889,22.8909578 2.10819444,23.6111111 2.99075223,23.6111111 L22.0092478,23.6111111 C22.8909578,23.6111111 23.6111111,22.8918056 23.6111111,22.0092478 L23.6111111,2.99075223 C23.6111111,2.10904223 22.8918056,1.38888889 22.0092478,1.38888889 L2.99075223,1.38888889 C2.10904223,1.38888889 1.38888889,2.10819444 1.38888889,2.99075223 Z M0,2.99075223 C0,1.33900538 1.34410858,0 2.99075223,0 L22.0092478,0 C23.6609946,0 25,1.34410858 25,2.99075223 L25,22.0092478 C25,23.6609946 23.6558914,25 22.0092478,25 L2.99075223,25 C1.33900538,25 0,23.6558914 0,22.0092478 L0,2.99075223 Z" id="Check-box" fill="#5187BD" fill-rule="nonzero"></path>
                <path d="M11.01558,15.3495287 L16.7278208,6.20529243 C17.1667257,5.50268726 18.0921024,5.28891594 18.7947076,5.72782082 C19.4973127,6.16672569 19.7110841,7.09210241 19.2721792,7.79470757 L12.400676,18.7947076 C11.8423821,19.6884323 10.5608004,19.7430309 9.92851762,18.9000278 L5.80002082,13.3956306 C5.30294921,12.7329004 5.43724204,11.7926953 6.09997224,11.2956237 C6.76270245,10.7985521 7.70290758,10.9328449 8.19997918,11.5955751 L11.01558,15.3495287 Z" id="Path-2" fill="#5187BD" fill-rule="nonzero"></path>
            </g>
            <g id="Checkbox_idle" transform="translate(50.000000, 0.000000)">
                <rect id="Check-box_bg" fill="#FFFFFF" x="0" y="0" width="25" height="25" rx="3"></rect>
                <path d="M1.38888889,2.99075223 L1.38888889,22.0092478 C1.38888889,22.8909578 2.10819444,23.6111111 2.99075223,23.6111111 L22.0092478,23.6111111 C22.8909578,23.6111111 23.6111111,22.8918056 23.6111111,22.0092478 L23.6111111,2.99075223 C23.6111111,2.10904223 22.8918056,1.38888889 22.0092478,1.38888889 L2.99075223,1.38888889 C2.10904223,1.38888889 1.38888889,2.10819444 1.38888889,2.99075223 Z M0,2.99075223 C0,1.33900538 1.34410858,0 2.99075223,0 L22.0092478,0 C23.6609946,0 25,1.34410858 25,2.99075223 L25,22.0092478 C25,23.6609946 23.6558914,25 22.0092478,25 L2.99075223,25 C1.33900538,25 0,23.6558914 0,22.0092478 L0,2.99075223 Z" id="Check-box_idle" fill="#CCCCCC" fill-rule="nonzero"></path>
                <path d="M17.1518805,6.47019495 C17.4444838,6.00179151 18.0614016,5.8592773 18.529805,6.15188055 C18.9982085,6.44448379 19.1407227,7.06140161 18.8481195,7.52980505 L11.9766163,18.529805 C11.6044204,19.1256215 10.7500326,19.1620206 10.3285107,18.6000185 L6.20001388,13.0956214 C5.86863281,12.6538012 5.95816136,12.0269978 6.3999815,11.6956167 C6.84180163,11.3642357 7.46860505,11.4537642 7.79998612,11.8955844 L11.053219,16.2330191 L17.1518805,6.47019495 Z" id="Path-2-Copy-4" fill="#EFEFEF" fill-rule="nonzero"></path>
            </g>
            <g id="Checkbox_minus_idle" transform="translate(100.000000, 0.000000)">
                <rect id="Check-box_bg" fill="#FFFFFF" x="0" y="0" width="25" height="25" rx="3"></rect>
                <path d="M1.38888889,2.99075223 L1.38888889,22.0092478 C1.38888889,22.8909578 2.10819444,23.6111111 2.99075223,23.6111111 L22.0092478,23.6111111 C22.8909578,23.6111111 23.6111111,22.8918056 23.6111111,22.0092478 L23.6111111,2.99075223 C23.6111111,2.10904223 22.8918056,1.38888889 22.0092478,1.38888889 L2.99075223,1.38888889 C2.10904223,1.38888889 1.38888889,2.10819444 1.38888889,2.99075223 Z M0,2.99075223 C0,1.33900538 1.34410858,0 2.99075223,0 L22.0092478,0 C23.6609946,0 25,1.34410858 25,2.99075223 L25,22.0092478 C25,23.6609946 23.6558914,25 22.0092478,25 L2.99075223,25 C1.33900538,25 0,23.6558914 0,22.0092478 L0,2.99075223 Z" id="Check-box_idle" fill="#CCCCCC" fill-rule="nonzero"></path>
                <path d="M6,13.5 C5.17157288,13.5 4.5,12.8284271 4.5,12 C4.5,11.1715729 5.17157288,10.5 6,10.5 L19,10.5 C19.8284271,10.5 20.5,11.1715729 20.5,12 C20.5,12.8284271 19.8284271,13.5 19,13.5 L6,13.5 Z" id="Line" fill="#EFEFEF" fill-rule="nonzero"></path>
            </g>
            <g id="Checkbox_minus_hover" transform="translate(75.000000, 0.000000)">
                <rect id="Check-box_bg" fill="#FFFFFF" x="0" y="0" width="25" height="25" rx="3"></rect>
                <path d="M1.38888889,2.99075223 L1.38888889,22.0092478 C1.38888889,22.8909578 2.10819444,23.6111111 2.99075223,23.6111111 L22.0092478,23.6111111 C22.8909578,23.6111111 23.6111111,22.8918056 23.6111111,22.0092478 L23.6111111,2.99075223 C23.6111111,2.10904223 22.8918056,1.38888889 22.0092478,1.38888889 L2.99075223,1.38888889 C2.10904223,1.38888889 1.38888889,2.10819444 1.38888889,2.99075223 Z M0,2.99075223 C0,1.33900538 1.34410858,0 2.99075223,0 L22.0092478,0 C23.6609946,0 25,1.34410858 25,2.99075223 L25,22.0092478 C25,23.6609946 23.6558914,25 22.0092478,25 L2.99075223,25 C1.33900538,25 0,23.6558914 0,22.0092478 L0,2.99075223 Z" id="Check-box_idle" fill="#9B9B9B" fill-rule="nonzero"></path>
                <path d="M6,13.5 C5.17157288,13.5 4.5,12.8284271 4.5,12 C4.5,11.1715729 5.17157288,10.5 6,10.5 L19,10.5 C19.8284271,10.5 20.5,11.1715729 20.5,12 C20.5,12.8284271 19.8284271,13.5 19,13.5 L6,13.5 Z" id="Line" fill="#CFCFCF" fill-rule="nonzero"></path>
            </g>
        </g>
        <g id="note_icon" transform="translate(0.000000, 27.000000)" stroke-linecap="round" stroke-linejoin="round">
            <g id="Group-18">
                <path d="M17.5573124,14.9191158 L18.757582,18.2763635 C18.2182465,19.1371942 16.9675416,19.7606262 15.0054672,20.1466593 C12.0623556,20.7257091 10.4404753,20.7486935 8.39574285,20.1466593 C7.03258785,19.7453032 7.53843987,18.4178772 9.91329893,16.1643812 L17.5573124,14.9191158 Z" id="Path-4" stroke="#B88C3E" fill="#B88C3E"></path>
                <path d="M6.72138715,0.462008258 L23.7312449,3.08488855 C20.8383456,12.1484339 19.195663,17.1834284 18.803197,18.1898719 C17.3975975,18.8016311 15.5387416,16.9887081 14.8076872,15.1622238 C13.6168105,19.2888003 10.5337474,20.7714361 8.48901488,20.169402 C7.12585988,19.7680459 4.58440341,19.1082025 0.864645481,18.1898719 L6.72138715,0.462008258 Z" id="Path-4" stroke="#B88C3E" fill="url(#linearGradient-1)"></path>
                <g id="Group-17" transform="translate(7.000000, 4.000000)" stroke="#A59F68">
                    <path d="M2.5,0.5 L11.5194193,2.30388386" id="Line-4"></path>
                    <path d="M1.5,3.5 L10.5194193,5.30388386" id="Line-4-Copy"></path>
                    <path d="M0.5,6.5 L9.5194193,8.30388386" id="Line-4-Copy-2"></path>
                </g>
            </g>
        </g>
        <g id="addNote_icon" transform="translate(26.000000, 27.000000)">
            <g id="Group-21">
                <g id="Group-18-Copy" stroke-linecap="round" stroke-linejoin="round">
                    <path d="M17.5573124,14.9191158 L18.757582,18.2763635 C18.2182465,19.1371942 16.9675416,19.7606262 15.0054672,20.1466593 C12.0623556,20.7257091 10.4404753,20.7486935 8.39574285,20.1466593 C7.03258785,19.7453032 7.53843987,18.4178772 9.91329893,16.1643812 L17.5573124,14.9191158 Z" id="Path-4" stroke="#B88C3E" fill="#B88C3E"></path>
                    <path d="M6.72138715,0.462008258 L23.7312449,3.08488855 C20.8383456,12.1484339 19.195663,17.1834284 18.803197,18.1898719 C17.3975975,18.8016311 15.5387416,16.9887081 14.8076872,15.1622238 C13.6168105,19.2888003 10.5337474,20.7714361 8.48901488,20.169402 C7.12585988,19.7680459 4.58440341,19.1082025 0.864645481,18.1898719 L6.72138715,0.462008258 Z" id="Path-4" stroke="#B88C3E" fill="url(#linearGradient-1)"></path>
                    <g id="Group-17" transform="translate(7.000000, 4.000000)" stroke="#A59F68">
                        <path d="M2.5,0.5 L11.5194193,2.30388386" id="Line-4"></path>
                        <path d="M1.5,3.5 L10.5194193,5.30388386" id="Line-4-Copy"></path>
                        <path d="M0.5,6.5 L9.5194193,8.30388386" id="Line-4-Copy-2"></path>
                    </g>
                </g>
                <g id="Group-19" transform="translate(13.000000, 10.000000)" fill="#3EAD06" fill-rule="nonzero" stroke="#FFFFFF">
                    <path d="M7,4 L11.5,4 L11.5,7 L7,7 L7,11.5 L4,11.5 L4,7 L-0.5,7 L-0.5,4 L4,4 L4,-0.5 L7,-0.5 L7,4 Z" id="Combined-Shape"></path>
                </g>
            </g>
        </g>
        <g id="pinnedNote_icon" transform="translate(52.000000, 27.000000)">
            <g id="Group-18-Copy-2">
                <path d="M17.5573124,14.9191158 L18.757582,18.2763635 C18.2182465,19.1371942 16.9675416,19.7606262 15.0054672,20.1466593 C12.0623556,20.7257091 10.4404753,20.7486935 8.39574285,20.1466593 C7.03258785,19.7453032 7.53843987,18.4178772 9.91329893,16.1643812 L17.5573124,14.9191158 Z" id="Path-4" stroke="#B88C3E" fill="#B88C3E" stroke-linecap="round" stroke-linejoin="round"></path>
                <path d="M6.72138715,0.462008258 L23.7312449,3.08488855 C20.8383456,12.1484339 19.195663,17.1834284 18.803197,18.1898719 C17.3975975,18.8016311 15.5387416,16.9887081 14.8076872,15.1622238 C13.6168105,19.2888003 10.5337474,20.7714361 8.48901488,20.169402 C7.12585988,19.7680459 4.58440341,19.1082025 0.864645481,18.1898719 L6.72138715,0.462008258 Z" id="Path-4" stroke="#B88C3E" fill="url(#linearGradient-1)" stroke-linecap="round" stroke-linejoin="round"></path>
                <g id="Group-17" transform="translate(7.000000, 4.000000)" stroke="#A59F68" stroke-linecap="round" stroke-linejoin="round">
                    <path d="M2.5,0.5 L11.5194193,2.30388386" id="Line-4"></path>
                    <path d="M1.5,3.5 L10.5194193,5.30388386" id="Line-4-Copy"></path>
                    <path d="M0.5,6.5 L9.5194193,8.30388386" id="Line-4-Copy-2"></path>
                </g>
                <g id="Group-20" transform="translate(1.000000, 3.000000)">
                    <circle id="Oval-2" fill="#D0021B" cx="4" cy="4.16176836" r="4"></circle>
                    <path d="M4,4 L4,12" id="Line-6" stroke="#D0021B" stroke-linecap="square"></path>
                </g>
            </g>
        </g>
    </g>
</svg>