<svg width="20" height="15" viewBox="0 0 20 15" fill="none" xmlns="http://www.w3.org/2000/svg">
<rect width="20" height="15" fill="#D8EAFB"/>
<path d="M8.96533 9.1626C8.96533 8.57015 9.03727 8.09831 9.18115 7.74707C9.32503 7.39583 9.5874 7.05094 9.96826 6.7124C10.3534 6.36963 10.6094 6.09245 10.7363 5.88086C10.8633 5.66504 10.9268 5.43864 10.9268 5.20166C10.9268 4.48649 10.5967 4.12891 9.93652 4.12891C9.62337 4.12891 9.37158 4.22624 9.18115 4.4209C8.99495 4.61133 8.89762 4.87581 8.88916 5.21436H7.04834C7.0568 4.40609 7.31706 3.77344 7.8291 3.31641C8.34538 2.85938 9.04785 2.63086 9.93652 2.63086C10.8337 2.63086 11.5298 2.8488 12.0249 3.28467C12.52 3.71631 12.7676 4.3278 12.7676 5.11914C12.7676 5.47884 12.6872 5.8195 12.5264 6.14111C12.3656 6.4585 12.0841 6.81185 11.6821 7.20117L11.168 7.68994C10.8464 7.99886 10.6623 8.36068 10.6157 8.77539L10.5903 9.1626H8.96533ZM8.78125 11.1113C8.78125 10.8278 8.87646 10.5951 9.06689 10.4131C9.26156 10.2269 9.50911 10.1338 9.80957 10.1338C10.11 10.1338 10.3555 10.2269 10.5459 10.4131C10.7406 10.5951 10.8379 10.8278 10.8379 11.1113C10.8379 11.3906 10.7427 11.6213 10.5522 11.8032C10.366 11.9852 10.1185 12.0762 9.80957 12.0762C9.50065 12.0762 9.25098 11.9852 9.06055 11.8032C8.87435 11.6213 8.78125 11.3906 8.78125 11.1113Z" fill="#295AA4"/>
</svg>
