<svg xmlns="http://www.w3.org/2000/svg" width="80" height="69" viewBox="0 0 80 69">
    <g fill="none" fill-rule="evenodd" stroke="#5187BD" stroke-linecap="round" stroke-linejoin="round" stroke-width="2">
        <path d="M33.575 52H20.217C9.604 52 1 43.562 1 33.152c0-9.951 7.864-18.102 17.83-18.8C23.23 6.4 31.82 1 41.696 1 55.384 1 66.602 11.375 67.62 24.545 74.108 25.8 79 31.411 79 38.141 79 45.795 72.674 52 64.87 52c-.19 0-.378-.004-.566-.01-8.051.006-14.81.01-18.013.01M39.5 67.446V37.472"/>
        <path d="M31.515 44L40 35.515 48.485 44"/>
    </g>
</svg>
