<svg width="36" height="18" viewBox="0 0 36 18" fill="none" xmlns="http://www.w3.org/2000/svg">
<path fill-rule="evenodd" clip-rule="evenodd" d="M27 0H9C4.02945 0 0 4.02945 0 9C0 13.9706 4.02945 18 9 18H27C31.9706 18 36 13.9706 36 9C36 4.02945 31.9706 0 27 0ZM15.1339 9.72519L10.1623 6.2095C10.4687 5.49805 11.1762 5 12 5H20C20.8238 5 21.5313 5.49805 21.8377 6.2095L16.8661 9.72519C16.347 10.0922 15.653 10.0922 15.1339 9.72519ZM17.4434 10.5417L22 7.31952V11C22 12.1046 21.1046 13 20 13H12C10.8954 13 10 12.1046 10 11V7.31952L14.5566 10.5417C15.4216 11.1534 16.5784 11.1534 17.4434 10.5417ZM26 10H24V8H26V6L29 9L26 12V10Z" fill="#0190DA"/>
</svg>
