<svg width="18" height="20" viewBox="0 0 18 20" xmlns="http://www.w3.org/2000/svg">
  <path fill-rule="evenodd" clip-rule="evenodd" d="M8.99998 0C8.0808 0 7.3333 0.7475 7.3333 1.66668V3.1593C4.92664 3.87836 3.16667 6.113 3.16667 8.74995V10.8391C3.16667 12.1233 2.81749 13.3833 2.15749 14.4841L0.725808 16.8691C0.648308 16.9974 0.646628 17.1583 0.719987 17.2883C0.794167 17.4191 0.933308 17.5 1.08331 17.5H6.95869C6.93084 17.6363 6.91662 17.7759 6.91662 17.9166C6.91666 19.0658 7.8508 19.9999 8.99998 19.9999C10.1492 19.9999 11.0833 19.0658 11.085 17.9166C11.085 17.7759 11.0708 17.6363 11.0429 17.5H16.9166C17.0666 17.5 17.2058 17.4192 17.28 17.2883C17.3533 17.1583 17.3517 16.9974 17.2742 16.8691L15.8425 14.4841C15.1825 13.3833 14.8333 12.1233 14.8333 10.8391V8.74995C14.8333 6.113 13.0733 3.87835 10.6667 3.15929V1.66668C10.6667 0.7475 9.91916 0 8.99998 0ZM10.1788 17.5H7.82278C7.77571 17.633 7.7508 17.7755 7.7508 17.9166C7.7508 18.6058 8.31162 19.1666 9.0008 19.1666C9.68998 19.1666 10.2508 18.6058 10.2508 17.9166C10.2508 17.7755 10.2259 17.633 10.1788 17.5ZM8.99999 2.91663C8.71712 2.91663 8.43889 2.93688 8.16666 2.97601V1.66668C8.16666 1.20668 8.53998 0.833359 8.99998 0.833359C9.45998 0.833359 9.8333 1.20668 9.8333 1.66668V2.976C9.56108 2.93688 9.28285 2.91663 8.99999 2.91663ZM1.81917 16.6666L2.87167 14.9124C3.60999 13.6824 3.99999 12.2741 3.99999 10.8391V8.74995C3.99999 5.99245 6.24249 3.74995 8.99999 3.74995C11.7575 3.74995 14 5.99245 14 8.74995V10.8391C14 12.2741 14.39 13.6824 15.1275 14.9124L16.1808 16.6666H1.81917Z" />
</svg>
