<svg width="22" height="20" viewBox="0 0 22 20" fill="none" xmlns="http://www.w3.org/2000/svg">
<path d="M2 2C2 0.89543 2.89543 0 4 0H20C21.1046 0 22 0.895431 22 2V3H2V2Z" fill="white"/>
<path fill-rule="evenodd" clip-rule="evenodd" d="M2 5H22V12C22 13.1046 21.1046 14 20 14H8.5L4 9.5L2 11.5V5ZM15 11C15.5973 11 16.1335 10.7381 16.5 10.3229C16.8665 10.7381 17.4027 11 18 11C19.1046 11 20 10.1046 20 9C20 7.89543 19.1046 7 18 7C17.4027 7 16.8665 7.26188 16.5 7.67709C16.1335 7.26188 15.5973 7 15 7C13.8954 7 13 7.89543 13 9C13 10.1046 13.8954 11 15 11Z" fill="white"/>
<path d="M8 16L4 12L0 16L1.5 17.5L3.00001 16V20H5.00001L5 16L6.5 17.5L8 16Z" fill="white"/>
</svg>
