<svg width="21" height="18" viewBox="0 0 21 18" fill="none" xmlns="http://www.w3.org/2000/svg">
<path d="M18.8975 9.28836L20.2975 10.6984L13.7675 17.2884L10.2975 13.7884L11.6975 12.3784L13.7675 14.4584L18.8975 9.28836ZM7.79749 13.7884L10.7975 16.7884H0.797485V14.7884C0.797485 12.5784 4.37749 10.7884 8.79749 10.7884L10.6875 10.8984L7.79749 13.7884ZM8.79749 0.788361C9.85835 0.788361 10.8758 1.20979 11.6259 1.95993C12.3761 2.71008 12.7975 3.72749 12.7975 4.78836C12.7975 5.84923 12.3761 6.86664 11.6259 7.61679C10.8758 8.36693 9.85835 8.78836 8.79749 8.78836C7.73662 8.78836 6.7192 8.36693 5.96906 7.61679C5.21891 6.86664 4.79749 5.84923 4.79749 4.78836C4.79749 3.72749 5.21891 2.71008 5.96906 1.95993C6.7192 1.20979 7.73662 0.788361 8.79749 0.788361Z" fill="white"/>
</svg>
