<svg id="Capa_1" enable-background="new 0 0 512 512" height="512" viewBox="0 0 512 512" width="512" xmlns="http://www.w3.org/2000/svg"><g fill="#233d91"><path d="m406 304.25v-242h-53.5v-62h-137v39.228l-89 16v33.772h-20.5v215c-65.258 47.385-106 122.874-106 207.5h15c0-6.365.253-12.672.74-18.914l81.437.431 24.03-24.991 41.255 12.694 17.897-46.023-32.384-51.368-19.476-7.082v-27.563l-34.263-15.675c82.514-74.85 205.878-83.645 298.126-20.107l-97.674 7.403-32.861 51.639 48.208 61.661 44.537 4.949 32.377 51.601 63.96-2.369 9.398-37.593 26.088-9.445c6.888 22.383 10.605 46.141 10.605 70.752h15c0-84.601-40.723-160.101-106-207.5zm-292.5 54.316v28.437l24.524 8.918 25.616 40.632-10.103 25.977-36.745-11.306-25.97 27.009-73.427-.388c7.274-51.429 30.834-97.688 65.29-133.374zm102-99.632c-33.691 5.324-65.708 17.274-94.5 35.212v-189.896h94.5zm0-169.684h-74v-21.228l74-13.303zm122 179.693c-33.012-11.046-69.498-15.631-107-11.947v-241.746h107zm53.5-176.693h-22v15h22v13.2h-22v15h22v13.2h-22v15h22v13.2h-22v15h22v13.2h-22v15h22v13.2h-22v15h22v45.896c-12.287-7.655-25.159-14.221-38.5-19.646v-197.25h38.5zm56.692 346.807-8.602 34.407-44.04 1.631-31.623-50.399-45.463-5.051-37.792-48.339 23.139-36.361 107.055-8.115c31.603 26.425 56.349 60.78 71.161 99.978z"/><path d="m322.5 82.25h-77v45h77zm-15 30h-47v-15h47z"/><path d="m322.5 141.25h-77v45h77zm-15 30h-47v-15h47z"/><path d="m322.5 200.25h-77v45h77zm-15 30h-47v-15h47z"/><path d="m200.5 119.25h-64.5v45h64.5zm-15 30h-34.5v-15h34.5z"/><path d="m200.5 180.25h-64.5v45h64.5zm-15 30h-34.5v-15h34.5z"/><path d="m245.5 29.75h15v33h-15z"/><path d="m276.5 29.75h15v33h-15z"/><path d="m307.5 29.75h15v33h-15z"/><path d="m239.601 309.754-60.967-4.877-18.21 35.12 42.747 71.995 38.847-6.475-17.996-38.11 22.175-10.164zm-35.622 50.339 16.004 33.89-9.153 1.525-33.253-56.005 9.79-18.88 39.033 3.123 3.404 24.51z"/></g></svg>