<svg id="Layer_1" data-name="Layer 1" xmlns="http://www.w3.org/2000/svg" viewBox="0 0 65 65"><defs><style>.cls-1{fill:#fff;}.cls-2,.cls-3{fill:#f5bd1f;}.cls-2{stroke:#f5bd1f;stroke-miterlimit:10;}</style></defs><title>10 cryptomarket - Logo</title><rect class="cls-1" width="65" height="65"/><path d="M24,44.1v2.37a1.92,1.92,0,0,0-.76-.62,2.13,2.13,0,0,0-1-.22,1.93,1.93,0,0,0-1.46.6,2.16,2.16,0,0,0-.56,1.5,2,2,0,0,0,.57,1.49,2,2,0,0,0,1.48.58,2.06,2.06,0,0,0,.94-.22A2.11,2.11,0,0,0,24,49v2.37a6.63,6.63,0,0,1-1.74.35,4,4,0,0,1-2.84-1.12,3.64,3.64,0,0,1-1.22-2.87,4,4,0,0,1,2.44-3.67,3.9,3.9,0,0,1,1.56-.33A4.73,4.73,0,0,1,24,44.1Z"/><path d="M30.1,48.4l2.39,3.11H30l-1.86-2.92h0v2.92h-2V43.92h2.95A2.94,2.94,0,0,1,31,44.5a2.13,2.13,0,0,1,.72,1.75,2.29,2.29,0,0,1-.43,1.41A1.9,1.9,0,0,1,30.1,48.4Zm-2-3v1.89h.19c.91,0,1.37-.31,1.37-.94s-.46-1-1.37-1Z"/><path d="M35.59,47.86l-2.8-3.94h2.37L36.57,46,38,43.92h2.37l-2.8,3.94v3.65h-2Z"/><path d="M41.82,51.51V43.92h3a3,3,0,0,1,2,.62,2.29,2.29,0,0,1,.74,1.88c0,1.71-.89,2.57-2.68,2.57H43.79v2.52Zm2-6V47.4h.76a2.15,2.15,0,0,0,.37-.06.77.77,0,0,0,.34-.14.86.86,0,0,0,.2-.27,1.17,1.17,0,0,0,.08-.45,1.24,1.24,0,0,0-.08-.47.81.81,0,0,0-.19-.29.63.63,0,0,0-.33-.14l-.37-.06h-.78Z"/><path d="M52.5,45.59v5.92h-2V45.59H48.89V43.92h5.24v1.67Z"/><path d="M57.61,44.16a4.53,4.53,0,0,1,4.1,0,3.92,3.92,0,0,1,1.55,1.39,3.58,3.58,0,0,1,.6,2,4.2,4.2,0,1,1-8.4,0,3.58,3.58,0,0,1,.6-2A3.92,3.92,0,0,1,57.61,44.16Zm3.56,2a2.2,2.2,0,0,0-3,0,1.9,1.9,0,0,0-.63,1.4,2.26,2.26,0,0,0,.62,1.62,2.1,2.1,0,0,0,3,0,2.22,2.22,0,0,0,.62-1.62A1.9,1.9,0,0,0,61.17,46.18Z"/><path d="M1.14,64,2.9,53.6H5.56l2.1,5.54L9.89,53.6h2.68L14.14,64H11.45l-.76-6h0L8.17,64H7.1L4.72,58h0l-.86,6Z"/><path d="M22.46,62.17H18.75L18,64H15.17l4-10.37h2.95L26,64H23.14Zm-.72-2.07-1.1-3.3h0l-1.12,3.3Z"/><path d="M33,59.72,36.3,64H33L30.4,60h0v4H27.68V53.6h4a4,4,0,0,1,2.61.79,2.91,2.91,0,0,1,1,2.4,3.14,3.14,0,0,1-.6,1.92A2.49,2.49,0,0,1,33,59.72Zm-2.67-4.06v2.59h.27c1.24,0,1.87-.43,1.87-1.3s-.63-1.29-1.87-1.29Z"/><path d="M40.58,57.88l3.26-4.28h3.34l-4.12,4.91L47.56,64h-3.5l-3.48-4.5h0V64H37.86V53.6h2.69v4.28Z"/><path d="M55,55.88h-3.2v1.73h3V59.9h-3v1.79H55V64h-5.9V53.6H55Z"/><path d="M61.63,55.88V64h-2.7V55.88H56.7V53.6h7.16v2.28Z"/><polygon class="cls-2" points="1.14 10.21 17.07 2.34 17.07 37.23 3.97 50.33 3.97 13.94 1.14 10.21"/><path class="cls-3" d="M42.58,1A20.77,20.77,0,0,0,23.94,31L36.83,18.07,33.1,14.34H50.65V31.68l-4.24-4L33.55,40.51A20.77,20.77,0,1,0,42.58,1Z"/></svg>