<svg id="Слой_1" data-name="Слой 1" xmlns="http://www.w3.org/2000/svg" xmlns:xlink="http://www.w3.org/1999/xlink" viewBox="0 0 65 65"><defs><style>.cls-1{fill:url(#linear-gradient);}.cls-2{fill:url(#linear-gradient-2);}.cls-3{fill:url(#linear-gradient-3);}.cls-4{fill:url(#linear-gradient-4);}.cls-5{fill:url(#linear-gradient-5);}.cls-6{fill:url(#linear-gradient-6);}.cls-7{fill:url(#linear-gradient-7);}.cls-8{fill:url(#linear-gradient-8);}.cls-9{fill:url(#linear-gradient-9);}.cls-10{fill:url(#linear-gradient-10);}.cls-11{fill:url(#linear-gradient-11);}.cls-12{fill:url(#linear-gradient-12);}.cls-13{fill:url(#linear-gradient-13);}</style><linearGradient id="linear-gradient" x1="21.47" y1="24.08" x2="20.19" y2="30.37" gradientUnits="userSpaceOnUse"><stop offset="0" stop-color="#274684"/><stop offset="1" stop-color="#071739"/></linearGradient><linearGradient id="linear-gradient-2" x1="26.44" y1="25.1" x2="25.15" y2="31.38" xlink:href="#linear-gradient"/><linearGradient id="linear-gradient-3" x1="31.14" y1="26.06" x2="29.85" y2="32.35" xlink:href="#linear-gradient"/><linearGradient id="linear-gradient-4" x1="39.44" y1="27.76" x2="38.15" y2="34.05" xlink:href="#linear-gradient"/><linearGradient id="linear-gradient-5" x1="45.22" y1="28.95" x2="43.93" y2="35.23" xlink:href="#linear-gradient"/><linearGradient id="linear-gradient-6" x1="51.46" y1="30.22" x2="50.18" y2="36.51" xlink:href="#linear-gradient"/><linearGradient id="linear-gradient-7" x1="61" y1="32.18" x2="59.72" y2="38.46" xlink:href="#linear-gradient"/><linearGradient id="linear-gradient-8" x1="7.37" y1="27.15" x2="5.73" y2="34.53" gradientUnits="userSpaceOnUse"><stop offset="0" stop-color="#b9d5fd"/><stop offset="1" stop-color="#709fdc"/></linearGradient><linearGradient id="linear-gradient-9" x1="13.66" y1="28.55" x2="12.02" y2="35.93" xlink:href="#linear-gradient-8"/><linearGradient id="linear-gradient-10" x1="-0.86" y1="26.39" x2="16.2" y2="26.39" xlink:href="#linear-gradient-8"/><linearGradient id="linear-gradient-11" x1="-1.36" y1="31.39" x2="15.68" y2="31.39" xlink:href="#linear-gradient-8"/><linearGradient id="linear-gradient-12" x1="-0.86" y1="31.39" x2="16.19" y2="31.39" xlink:href="#linear-gradient-8"/><linearGradient id="linear-gradient-13" x1="-0.86" y1="33.43" x2="16.19" y2="33.43" xlink:href="#linear-gradient-8"/></defs><title>24FinTime-Logo-65x65Монтажная область 1</title><path class="cls-1" d="M17.09,33.43h-.81v-4H24v.8H17.09v1H24V32H17.09Z"/><path class="cls-2" d="M24.74,33.42v-4h.81v4Z"/><path class="cls-3" d="M27,30.34v3.09h-.8v-4H27l6.08,3.06v-3h.81v4h-.81Z"/><path class="cls-4" d="M39.5,33.43h-1v-3.2h-4v-.81h9v.8h-4Z"/><path class="cls-5" d="M44.3,33.42v-4h.82v4Z"/><path class="cls-6" d="M51.3,32.15l-4.72-1.78v3.06h-.81v-4h.81l4.7,1.76,4.57-1.76h.81v4h-.81V30.38Z"/><path class="cls-7" d="M65,33.43H57.32v-4H65v.8H58.13V31H65v.8H58.13v.8H65Z"/><path class="cls-8" d="M3.37,32c0-.63.26-.95.76-.95H8.57c.16,0,.24-.1.25-.3v-.2c0-.2-.08-.3-.26-.3H3.37v-.81H8.7c.51,0,.76.32.76,1v.48c0,.64-.25,1-.75,1H4.25c-.16,0-.24.1-.24.31v.49H9.45v.81H3.37Z"/><path class="cls-9" d="M15.41,33.45V31.92H10v-2.5h.63v1.67h4.8V29.42h.66v4Z"/><polygon class="cls-10" points="9.99 26 9.75 26 8.97 26 8.72 26 7.95 26 2.81 26 2.04 26 1.79 26 1.02 26 0.77 26 0 26 0 26.77 0.77 26.77 1.02 26.77 1.79 26.77 2.04 26.77 2.81 26.77 7.95 26.77 8.72 26.77 8.97 26.77 9.75 26.77 9.99 26.77 16.08 26.77 16.08 26 9.99 26"/><polygon class="cls-11" points="7.95 33.97 2.81 33.97 2.81 30.09 2.81 29.84 2.81 29.07 2.81 28.82 2.83 28.82 2.83 28.77 10.57 28.77 10.57 28.04 8.97 28.04 8.72 28.04 7.95 28.04 2.81 28.04 2.04 28.04 1.79 28.04 1.02 28.04 1.02 28.82 1.79 28.82 2.04 28.82 2.04 29.07 2.04 29.84 2.04 30.09 2.04 34.74 14.04 34.74 14.04 33.94 7.95 33.97"/><polygon class="cls-12" points="14.27 33.94 14.27 34.99 1.79 34.99 1.79 30.09 1.79 29.84 1.79 29.07 1.02 29.07 0.77 29.07 0.77 28.82 0.77 28.04 0.77 27.8 1.02 27.8 1.79 27.8 2.04 27.8 2.81 27.8 7.95 27.8 8.72 27.8 8.97 27.8 9.75 27.8 15.43 27.8 15.43 28.04 15.43 28.77 16.07 28.77 16.07 28.04 16.07 27.8 16.07 27.02 15.29 27.02 9.75 27.02 8.97 27.02 8.72 27.02 7.95 27.02 2.81 27.02 2.04 27.02 1.79 27.02 1.02 27.02 0.77 27.02 0 27.02 0 27.8 0 28.04 0 28.82 0 29.07 0 29.84 0.77 29.84 1.02 29.84 1.02 30.09 1.02 35.76 15.05 35.76 15.05 33.94 14.27 33.94"/><polygon class="cls-13" points="15.29 33.94 15.29 36.01 0.77 36.01 0.77 30.09 0 30.09 0 36.78 16.07 36.78 16.07 33.94 15.29 33.94"/></svg>