<svg xmlns="http://www.w3.org/2000/svg"  viewBox="0 0 73 60">
  <g fill="none" fill-rule="evenodd">
    <path fill="#DC291B" fill-rule="nonzero" stroke="#DC291B" stroke-width=".5" d="M8.478 46.949v12.706H5.365V46.95H.348v-2.88h13.147v2.88H8.478zm11.914 6.705h-1.613v6.001h-3.113V44.07h6.204c3.09 0 5.062 2.089 5.062 4.793 0 2.176-1.3 3.825-3.383 4.418l3.405 6.375h-3.45l-3.112-6.001zm.895-2.616c1.568 0 2.487-.88 2.487-2.154 0-1.32-.919-2.177-2.487-2.177H18.78v4.331h2.508zm17.783 5.056h-6.45l-1.322 3.562h-3.27l6.092-15.587h3.584l6.047 15.587h-3.36l-1.321-3.562zm-5.42-2.77h4.39l-2.196-5.891-2.194 5.891zm12.137 6.331V44.07h5.69c4.524 0 7.839 2.88 7.839 7.804s-3.338 7.782-7.862 7.782h-5.667zm5.555-2.813c2.598 0 4.77-1.583 4.77-4.969 0-3.385-2.15-4.99-4.748-4.99h-2.486v9.959h2.464zm10.66 2.813V44.07h9.944v2.858h-6.854v3.562h6.204v2.703h-6.204v3.606h6.854v2.857H62z"/>
    <path fill="#0092C9" d="M37 0c14.328 0 26.418 9.74 30 23h-1.008C62.485 10.264 50.806.899 37 .899c-11.791 0-21.978 6.78-26.903 16.67.56-.038 1.604-.862 1.94-1.65.56-1.31 5.746-6.255 4.142-3.52-.746 1.198.187 1.048.821-.188.784-1.536 2.873-2.81 1.604.038-.597 1.348 1.53.374 1.792-1.949-.41.225 1.679-1.348 2.052-2.247.597-1.573 1.53-.75 2.463-1.798 3.283-3.634 6.754-3.147 3.06-1.76-.784.261.596.449-1.493 1.31-1.343.6-4.03 4.609-1.343 2.399 1.044-.862.037-.974 2.014-1.087 1.045-.075-1.194 1.012 2.202.3.037 0 1.045-.787 2.164-1.124 1.306-.374 2.388-2.51 4.067-1.948.523.187-.522 1.236.71.824.149-.037.56 0 .708.113 1.269.674.187-.375 2.239-.787.373-.075 4.366-2.697 5.82-1.61.262.187-.82 1.61.411 2.284.075.562-.447-.187-.634 1.536 0 .038-1.38 1.61-1.604 2.585-.112.6-2.09 1.273-1.866-1.61.037-.113-2.724-.488-2.798.374-.037.711-1.343.973-2.165 1.835-.41.45-1.119.524-.783 1.723 1.343.337.522-.937 1.716.824.896 1.274 1.232-1.798 1.381-2.023 0 0 .15-1.423 1.418-.899.56.225-.71 3.971-1.456 3.933-.41-.037-2.723-.224-2.798.075-.373 1.087-2.985 1.799-2.91-.599 0-.262-1.157-.524-1.12.225.037.6-2.948-.075-1.79.861 0 0 2.089-.224 1.902 1.424 0 .187-.709.3.56.936.224.15.672 1.349-1.38 1.349-.896 0-.224.337-1.008-.15-.635-.375-1.568 1.124-1.568 2.172 0 .6-.485 1.386.112 1.386.112.637 3.321 1.461 4.067-1.011.598-2.023 1.456-.412 2.762-2.098.074-.075 1.38-1.086 1.38.225 0 1.948.597 1.536.746 1.76.41.525 1.045.375.821 1.386 1.418-.45-.335-3.371.71-3.558 1.977-.337.522 1.498 1.753 2.472.037.038.634 1.873.97-.636.037-.038.672-1.2 1.082.224.187.674 2.538 1.611 3.023.524.597-.074.746-1.086 1.567-.299.597.6-.448 1.274-.448 2.435V23h-2.798c-.485-.263-1.12-.413-1.754 0h-4.926c-.26-.712-.298-1.986-2.574-.975-1.12.488 0 .525-2.09.525-.522 0-4.29-.15-4.403-.075 0 .075-.335.262-.634.525H7C10.582 9.74 22.672 0 37 0zm28.134 23c-.037-.225-.037-.45-.112-.712-.298-1.573-.522-.786-.671.712h.783zm-6.082 0h-.298.298zm-5.224 0c-.82-.749-1.082-1.498-1.119 0h1.12zm-5-7.042c.373.561.112.524.784 1.16.186.226.224.712.933 1.125.672.337.447 1.873 2.276 1.76.373 0 .074-.75-.15-1.011-.67-.787-.41-1.012-1.268-1.874-.186-.187-.746-1.048-.597-1.348 1.12-2.398-1.53-1.573-1.045-.412.187.45-.522.374-.783.374l-.15.226zm-5.037.487c-.485.412-.783 1.498-.635 2.172.075.188.822.862 1.008.862 1.082 0 .709-1.91 2.164-.862.299.188 2.277.225 2.277.15.074-1.573-1.903-.6-1.903-2.734 0-.75-1.306-.75-1.343-.562-.112.637.037 2.66-.896 1.46-.262-.336-.15-.973-.672-.486z"/>
    <path fill="#000" fill-rule="nonzero" d="M6.042 37.471h3.99l-.236 3.343H1l.235-3.528a78.318 78.318 0 002.812-2.507 26.337 26.337 0 001.523-1.542c.339-.383.55-.671.635-.863a1.27 1.27 0 00.127-.492c0-.1-.043-.214-.127-.344-.085-.13-.272-.195-.562-.195H1.834l.182-2.841a10.51 10.51 0 012.04-.409A20.877 20.877 0 016.006 28c.664 0 1.263.084 1.795.251.532.167.985.403 1.36.706.365.291.663.662.87 1.086.206.421.309.886.309 1.393 0 .36-.036.715-.109 1.068-.072.353-.254.752-.544 1.197-.29.446-.722.966-1.296 1.56-.575.595-1.358 1.32-2.349 2.174v.036zm14.055-4.085l-.146 2.043h.907l-.217 3.343h-.907l-.145 2.042H15.78l.145-2.042h-5.078l.236-3.436 4.643-7.243h3.808l-4.751 7.336h1.36l1.233-2.043h2.72zm4.932 7.429l.87-12.629h3.809l2.085 5.943h.036l.418-5.943h3.627l-.87 12.629h-3.809l-2.158-5.386h-.018l-.363 5.386H25.03zm20.584-9.286h-4.716l-.09 1.207h3.88l-.217 3.343h-3.881l-.09 1.393h4.715l-.236 3.343h-8.524l.87-12.629h8.525l-.236 3.343zm8.451 4.123l-1.142 5.255h-4.426l-1.922-12.721h4.661l.399 6.648h.036l1.18-6.741h3.826l.526 6.741h.036l1.125-6.648h4.352l-3.627 12.721h-4.552l-.435-5.255h-.037zm13.928 1.504a.455.455 0 00-.118-.316 1.094 1.094 0 00-.38-.241 8.523 8.523 0 00-.663-.242c-.317-.104-.63-.216-.943-.334-.87-.322-1.557-.805-2.058-1.449-.502-.644-.753-1.449-.753-2.414 0-.656.118-1.241.354-1.755.23-.506.568-.954.988-1.31.423-.359.93-.63 1.524-.816A6.591 6.591 0 0167.919 28c.641 0 1.288.031 1.941.093a9.557 9.557 0 011.977.408l-.182 2.842h-3.899c-.29 0-.474.055-.553.167a.555.555 0 00-.118.316c0 .1.022.183.064.25.042.07.127.14.254.214.127.075.305.155.535.242.23.086.537.186.925.297.99.31 1.762.764 2.312 1.365.55.6.825 1.402.825 2.405 0 .631-.112 1.213-.336 1.745a4.092 4.092 0 01-.96 1.393 4.427 4.427 0 01-1.524.929c-.599.223-1.279.334-2.04.334-.315 0-.671-.007-1.07-.018a21.595 21.595 0 01-1.225-.075c-.413-.037-.824-.09-1.233-.158a9.604 9.604 0 01-1.115-.25l.2-2.842h4.533c.29 0 .49-.046.599-.14a.451.451 0 00.163-.361z"/>
    <path fill="#0092C9" d="M.362 23H72l-.362 3H0z"/>
  </g>
</svg>
