<?xml version="1.0" encoding="UTF-8"?>
<svg width="65px" height="65px" viewBox="0 0 65 65" version="1.1" xmlns="http://www.w3.org/2000/svg" xmlns:xlink="http://www.w3.org/1999/xlink">
    <!-- Generator: Sketch 53.2 (72643) - https://sketchapp.com -->
    <title>BO_Brand_header_logo</title>
    <desc>Created with Sketch.</desc>
    <g id="BO_Brand_header_logo" stroke="none" stroke-width="1" fill="none" fill-rule="evenodd">
        <g id="512X512_logo_365GCC-01-Copy-2" fill-rule="nonzero">
            <g id="Слой_1">
                <g id="Group" transform="translate(17.221116, 38.121272)" fill="#39B54A" stroke="#39B54A" stroke-width="0.5">
                    <path d="M7.78756972,2.91207753 C7.51306773,2.32152087 7.09937251,1.84868787 6.54635458,1.49332008 C5.99320717,1.13833996 5.33919323,0.960656064 4.5847012,0.960656064 C4.06146414,0.960656064 3.58134462,1.04852883 3.14408367,1.22375746 C2.70669323,1.39924453 2.33145418,1.64322068 2.01849602,1.95555666 C1.70540837,2.26802187 1.46314741,2.64031809 1.29171315,3.07244533 C1.12001992,3.50483101 1.03443227,3.9733996 1.03443227,4.47828032 C1.03443227,4.98329026 1.12001992,5.45185885 1.29171315,5.88398608 C1.46314741,6.31624254 1.70527888,6.68853877 2.01849602,7.00087475 C2.33145418,7.31346918 2.70669323,7.55744533 3.14408367,7.73267396 C3.58134462,7.90816103 4.06159363,7.99577535 4.5847012,7.99577535 C5.03918327,7.99577535 5.4614243,7.93387674 5.85181275,7.80969185 C6.24194223,7.68576541 6.58701195,7.50808151 6.88728088,7.27702783 C7.18742032,7.04584493 7.43822709,6.76568588 7.63983068,6.4360338 C7.8411753,6.10664016 7.9849004,5.73641153 8.07074701,5.32560636 L8.07074701,5.29989066 L4.05732072,5.29989066 L4.05732072,4.45256461 L9.04833665,4.45256461 L9.04833665,4.88908549 C8.99693227,5.46258449 8.85320717,5.99111332 8.61742032,6.47454274 C8.38150398,6.95823062 8.06854582,7.37549702 7.67841633,7.72634195 C7.28802789,8.07744533 6.82940239,8.35114314 6.30202191,8.54795229 C5.77464143,8.74463221 5.2022012,8.84310139 4.5847012,8.84310139 C3.92421315,8.84310139 3.32186255,8.73403579 2.77739044,8.51577535 C2.23265936,8.29764414 1.76121514,7.99383698 1.36241036,7.60435388 C0.963605578,7.21487078 0.654920319,6.75508946 0.4362251,6.22423459 C0.21752988,5.69363817 0.108247012,5.11173956 0.108247012,4.47828032 C0.108247012,3.85360835 0.21752988,3.27364811 0.4362251,2.73865805 C0.654920319,2.20392644 0.963605578,1.74168986 1.36241036,1.35220676 C1.76121514,0.962852883 2.23265936,0.659045726 2.77739044,0.440785288 C3.32186255,0.222524851 3.92421315,0.113459245 4.5847012,0.113459245 C5.09058765,0.113459245 5.56876494,0.179880716 6.0189741,0.312335984 C6.46918327,0.445178926 6.87433267,0.63333002 7.23455179,0.877176938 C7.59464143,1.12115308 7.9098008,1.41643141 8.18002988,1.76301193 C8.45012948,2.10959245 8.65794821,2.49261431 8.8038745,2.91207753 L7.78756972,2.91207753 L7.78756972,2.91207753 Z" id="Path"></path>
                    <path d="M17.4478386,3.09182903 C17.3192629,2.77522863 17.1497709,2.48421471 16.939751,2.21878728 C16.7294721,1.95361829 16.4831972,1.72902584 16.2001494,1.54475149 C15.9169721,1.36086481 15.6040139,1.21742545 15.2611454,1.11469185 C14.9180179,1.01208748 14.5491235,0.960785288 14.1548506,0.960785288 C13.6316135,0.960785288 13.151494,1.04865805 12.7142331,1.22388668 C12.2768426,1.39937376 11.9016036,1.6433499 11.5886454,1.95568588 C11.2755578,2.26815109 11.0332968,2.64044732 10.8618625,3.07257455 C10.6901693,3.50496024 10.6045817,3.97352883 10.6045817,4.47840954 C10.6045817,4.98341948 10.6901693,5.45198807 10.8618625,5.88411531 C11.0332968,6.31637177 11.2754283,6.68866799 11.5886454,7.00100398 C11.9016036,7.31359841 12.2768426,7.55757455 12.7142331,7.73280318 C13.151494,7.90829026 13.631743,7.99590457 14.1548506,7.99590457 C14.5491235,7.99590457 14.9180179,7.94460239 15.2611454,7.84199801 C15.6040139,7.73926441 15.9171016,7.5960835 16.2001494,7.41193837 C16.4831972,7.22792247 16.7294721,7.00539761 16.939751,6.74436382 C17.1497709,6.48333002 17.3192629,6.19024851 17.4478386,5.86486083 L18.4255578,5.86486083 C18.2881773,6.30991054 18.0887749,6.71658052 17.8273506,7.0844831 C17.5656673,7.45251491 17.250508,7.76704771 16.8818725,8.02808151 C16.5129781,8.28924453 16.0972112,8.49018887 15.6340538,8.63143141 C15.1710259,8.77267396 14.6778287,8.84323062 14.1548506,8.84323062 C13.4943625,8.84323062 12.892012,8.73416501 12.3475398,8.51590457 C11.8028088,8.29777336 11.3313645,7.9939662 10.9325598,7.6044831 C10.533755,7.215 10.2250697,6.75521869 10.0063745,6.22436382 C9.78767928,5.6937674 9.67839641,5.11186879 9.67839641,4.47840954 C9.67839641,3.85373757 9.78767928,3.27377734 10.0063745,2.73878728 C10.2250697,2.20405567 10.533755,1.74181909 10.9325598,1.35233598 C11.3313645,0.962982107 11.8028088,0.65917495 12.3475398,0.440914513 C12.892012,0.222654076 13.4943625,0.113588469 14.1548506,0.113588469 C14.6778287,0.113588469 15.1710259,0.184145129 15.6340538,0.325387674 C16.0972112,0.466630219 16.5129781,0.667703777 16.8818725,0.928737575 C17.250508,1.1899006 17.5656673,1.5044334 17.8273506,1.87233598 C18.0889044,2.24049702 18.2883068,2.64703777 18.4255578,3.09195825 L17.4478386,3.09195825 L17.4478386,3.09182903 Z" id="Path"></path>
                    <path d="M26.9408167,3.09182903 C26.812241,2.77522863 26.642749,2.48421471 26.4327291,2.21878728 C26.2224502,1.95361829 25.9761753,1.72902584 25.6931275,1.54475149 C25.4100797,1.36086481 25.096992,1.21742545 24.753994,1.11469185 C24.410996,1.01208748 24.0421016,0.960785288 23.6478287,0.960785288 C23.1245916,0.960785288 22.6444721,1.04865805 22.2070817,1.22388668 C21.7696912,1.39937376 21.3944522,1.6433499 21.0816235,1.95568588 C20.7684064,2.26815109 20.5262749,2.64044732 20.3548406,3.07257455 C20.1831474,3.50496024 20.0975598,3.97352883 20.0975598,4.47840954 C20.0975598,4.98341948 20.1831474,5.45198807 20.3548406,5.88411531 C20.5262749,6.31637177 20.7684064,6.68866799 21.0816235,7.00100398 C21.3944522,7.31359841 21.7696912,7.55757455 22.2070817,7.73280318 C22.6444721,7.90829026 23.1245916,7.99590457 23.6478287,7.99590457 C24.0421016,7.99590457 24.410996,7.94460239 24.753994,7.84199801 C25.0968625,7.73926441 25.4100797,7.5960835 25.6931275,7.41193837 C25.9761753,7.22792247 26.2224502,7.00539761 26.4327291,6.74436382 C26.642749,6.48333002 26.812241,6.19024851 26.9408167,5.86486083 L27.9185359,5.86486083 C27.7811554,6.30991054 27.581753,6.71658052 27.3203287,7.0844831 C27.0586454,7.45251491 26.7434861,7.76704771 26.3748506,8.02808151 C26.0059562,8.28924453 25.5901892,8.49018887 25.1270319,8.63143141 C24.664004,8.77267396 24.1708068,8.84323062 23.6478287,8.84323062 C22.9872112,8.84323062 22.38499,8.73416501 21.8405179,8.51590457 C21.2957869,8.29777336 20.8242131,7.9939662 20.4254084,7.6044831 C20.0267331,7.215 19.7179183,6.75521869 19.4993526,6.22436382 C19.2806574,5.6937674 19.1713745,5.11186879 19.1713745,4.47840954 C19.1713745,3.85373757 19.2806574,3.27377734 19.4993526,2.73878728 C19.7179183,2.20405567 20.0267331,1.74181909 20.4254084,1.35233598 C20.8242131,0.962982107 21.2957869,0.65917495 21.8405179,0.440914513 C22.38499,0.222654076 22.9872112,0.113588469 23.6478287,0.113588469 C24.1708068,0.113588469 24.664004,0.184145129 25.1270319,0.325387674 C25.5901892,0.466630219 26.0059562,0.667703777 26.3748506,0.928737575 C26.7434861,1.1899006 27.0586454,1.5044334 27.3203287,1.87233598 C27.5818825,2.24049702 27.7812849,2.64703777 27.9185359,3.09195825 L26.9408167,3.09195825 L26.9408167,3.09182903 Z" id="Path"></path>
                </g>
                <g id="Group" transform="translate(16.185259, 21.322068)" fill="#FFFFFF" stroke="#FFFFFF" stroke-width="0.5">
                    <path d="M16.2152988,0.322286282 C15.282251,1.86109344 14.3593028,3.38297217 13.426255,4.92177932 C13.3515438,5.09002982 13.4272908,5.09002982 13.5174104,5.06302187 C13.7638147,4.97295229 14.0104781,4.88365805 14.2566235,4.79255467 C16.4760757,3.97055666 19.030498,4.87487078 20.1867729,6.89219682 C21.3462849,8.9154672 20.8999602,11.5927435 19.1626992,13.0341153 C17.3193924,14.5634891 14.6546514,14.5795129 12.8689641,13.0719781 C11.0549203,11.5405368 10.5731175,8.92683897 11.7806673,6.89465209 C13.0347012,4.78415507 14.3393625,2.7037674 15.6097112,0.602703777 C15.7267629,0.409125249 15.7460558,0.351878728 15.8790339,0.138270378 C15.9518028,0.189701789 16.0376494,0.215934394 16.2152988,0.322286282 Z M13.8360657,13.2717594 C15.7064343,14.4027336 18.6537052,13.7056958 19.8664343,11.6466302 C21.085249,9.57696819 20.3846215,6.60312127 18.4065239,5.66960239 C18.1685359,6.05068588 17.9251096,6.44352883 17.7008466,6.83895626 C17.6543625,6.92101392 17.5231972,7.09029821 17.5295418,7.20414513 C17.5379582,7.35533797 17.7096514,7.45329026 17.7834562,7.54684891 C18.5845618,8.5632008 18.7306175,9.6587674 18.1366833,10.6314414 C17.9125498,10.9984394 17.6073606,11.3246024 17.2261653,11.5286481 C16.8434163,11.7335984 16.4118526,11.8430517 15.9770518,11.8303877 C15.834492,11.8262525 15.6925797,11.8107455 15.5515737,11.7896819 C15.3568327,11.7606064 15.1658466,11.7273956 14.975508,11.6763519 C14.8787849,11.650507 14.8224602,11.6335785 14.7684661,11.7272664 C14.7341534,11.7864513 14.0890737,12.8391153 13.8360657,13.2717594 Z M18.0548506,5.44371769 C15.967988,4.20574553 13.2155876,5.03950298 12.047012,7.18863817 C10.9268625,9.24873757 11.6720319,12.0005765 13.5281574,13.0874851 C13.6891036,12.8245129 13.9480677,12.4416203 14.1090139,12.1785189 C14.1861853,12.0522664 14.484253,11.5783996 14.4846414,11.4759245 C14.4849004,11.3965805 14.3744522,11.2995328 14.3046614,11.2254871 C14.2096215,11.1245626 14.0866135,10.9625149 14.0082769,10.8481511 C13.8552291,10.6247217 13.7049004,10.3968986 13.606753,10.1431014 C13.4490438,9.73513917 13.3870219,9.24641153 13.4873705,8.81777336 C13.5464143,8.56578529 13.6531076,8.30720676 13.7767629,8.0799006 C14.3282271,7.06639165 15.2571315,6.72459245 16.7890339,6.92592445 C16.8914542,6.93936382 17.0771315,6.96624254 17.1928884,6.90615308 C17.275757,6.86312127 17.3245717,6.75121272 17.3634163,6.68879722 C17.6104681,6.29168986 17.8057271,5.88993042 18.0548506,5.44371769 Z M15.9489542,7.19729622 C14.7639343,7.2040159 13.7779283,8.20227634 13.7995518,9.37331014 C13.8209163,10.5359443 14.8648008,11.5451889 16.0170618,11.5174056 C17.2133466,11.4885885 18.1496315,10.5079026 18.1335757,9.30068588 C18.1168725,8.05470179 17.2190438,7.19018887 15.9489542,7.19729622 Z" id="Shape"></path>
                    <path d="M0.195517928,11.2792445 C0.343904382,11.4637773 0.675766932,11.9213618 0.878276892,12.1017594 C2.51285857,13.5583797 4.7962749,14.0592545 6.72646414,13.1704473 C8.44844622,12.3775249 9.33798805,11.0189861 9.35987052,9.129334 C9.38149402,7.25635189 8.46204183,5.94666004 6.825,5.10075547 C6.65486056,5.0128827 6.44134462,4.94723658 6.19960159,4.83351889 C6.18186255,4.82511928 6.16904382,4.80664016 6.18341633,4.79604374 C6.94231076,3.84908549 7.40106574,3.28682903 8.13030876,2.36455268 C8.2723506,2.18493042 8.52289841,1.8184493 8.6038247,1.57576541 C8.66804781,1.38322068 8.67478088,1.03276342 8.66584661,0.830656064 C8.65432271,0.566003976 8.68436255,0.465467197 8.43964143,0.408479125 C8.33100598,0.383151093 8.00794821,0.375914513 7.89672311,0.372296223 C7.66313745,0.364671968 7.482251,0.353300199 7.28077689,0.465984095 C7.15750996,0.53499006 7.04175299,0.637723658 6.95189243,0.746530815 C5.94115538,1.97158052 4.8887251,3.16161034 3.88148406,4.38950298 C3.63106574,4.69473161 3.18564741,5.16355865 3.01641434,5.52487078 C2.93535857,5.69790258 2.88757968,6.21234592 2.89729084,6.41135189 C2.90130478,6.4921173 2.9510259,6.49328032 2.925,6.49651093 C4.3261255,6.3217992 5.54765936,6.25641153 6.47578685,7.34590457 C6.83626494,7.76898608 7.07153386,8.38965209 7.14249004,8.94829026 C7.29346614,10.1370278 6.39123506,11.2723956 5.19469124,11.58667 C3.89145418,11.9289861 2.43141434,11.3563917 1.83501992,10.1459443 C1.82763944,10.1309543 1.80549801,10.1026541 1.81223108,10.0771968 C1.83087649,10.0072863 1.88020916,9.93052684 1.94844622,9.90002982 C2.07818725,10.0650497 2.24625498,10.2679324 2.40577689,10.4122763 C3.43231076,11.3412724 4.9450498,11.6152286 5.92212151,10.8277336 C6.71623506,10.1876839 6.94502988,9.13786282 6.55075697,8.21287276 C6.16593625,7.30985089 5.08644422,6.77563618 3.99659363,6.85821074 C3.25168327,6.91468191 2.86893426,6.90163022 2.54898406,6.9817495 C2.37055777,5.9705666 2.49499004,5.29627237 3.27175299,4.49275348 C4.27718127,3.4528827 5.16141434,2.29619284 6.09472112,1.18705765 C6.26939243,0.979522863 6.42917331,0.75945328 6.72633466,0.377594433 C4.55517928,0.377594433 2.58498008,0.377594433 0.614780876,0.377594433 C0.614262948,0.30083499 0.613874502,0.224204771 0.613356574,0.147445328 C3.38686255,0.147445328 6.16036853,0.147445328 9.02101594,0.147445328 C9.05131474,0.47360835 9.01039841,0.804940358 9.00146414,1.1333002 C8.98799801,1.62706759 9.02036853,2.00130219 8.48275896,2.56859841 C7.90138446,3.18215706 7.4013247,3.87880716 6.817749,4.60207753 C9.31312749,6.01114314 10.3210159,8.05431412 9.46229084,10.7854771 C8.85074701,12.7303082 6.96911355,13.9459245 4.68453187,13.9833996 C4.58988048,13.9849503 4.49315737,13.9746123 4.39863546,13.9695726 C4.30359562,13.9645328 4.20868526,13.9588469 4.11390438,13.9518688 C4.01951195,13.9448907 3.92537849,13.9366203 3.83124502,13.9265408 C3.73775896,13.9165905 3.64453187,13.9047018 3.55156375,13.8907455 C3.45924303,13.8769185 3.36718127,13.8608946 3.27550797,13.8425447 C3.18435259,13.8243241 3.09371514,13.8037773 3.0037251,13.7807753 C2.91399402,13.7579026 2.82503984,13.7327038 2.73660359,13.7051789 C2.64855578,13.6777833 2.56128486,13.6480616 2.47479084,13.6162724 C2.38868526,13.5844831 2.30335657,13.5506262 2.21893426,13.5145726 C2.13502988,13.4787773 2.05203187,13.4407853 1.97006972,13.4008549 C1.88875498,13.3611829 1.80860558,13.3194433 1.72949203,13.2756362 C1.65128486,13.2323459 1.57437251,13.1868588 1.49875498,13.139175 C1.42417331,13.0921372 1.35088645,13.0429026 1.27941235,12.9913419 C1.20884462,12.9405567 1.13983068,12.8874453 1.07275896,12.832008 C1.00646414,12.7772167 0.942111554,12.7200994 0.879830677,12.6609145 C0.818067729,12.6021173 0.758505976,12.540994 0.701015936,12.4780616 C0.643784861,12.4152584 0.588625498,12.3505169 0.535667331,12.2840954 C0.482579681,12.217674 0.431563745,12.1495726 0.382101594,12.0804374 C0.33250996,12.0110437 0.284601594,11.9404871 0.237858566,11.8691551 C0.190856574,11.7976938 0.14501992,11.7254573 0.0994422311,11.6530915 C0.0885657371,11.6356461 0.077559761,11.61833 0.0666832669,11.6008847 C0.054123506,11.5807256 0.0384561753,11.5613419 0.0336653386,11.5375646 C0.0286155378,11.5127535 0.036125498,11.4861332 0.0436354582,11.4624851 C0.0512749004,11.4383201 0.0644820717,11.4168688 0.0817031873,11.3983897 C0.118476096,11.3589761 0.155896414,11.3209841 0.195517928,11.2792445 Z" id="Path"></path>
                    <path d="M22.5665239,7.12686879 C23.3155777,7.35740557 23.8868526,7.39384692 24.5272709,7.02904573 C25.6893725,6.36715706 27.1939542,6.62573559 27.9665737,7.49683897 C28.7315538,8.35928429 28.7768725,9.72841948 28.0737849,10.7352087 C27.1104382,12.1148111 24.4820817,11.7246819 23.5793327,10.4077535 C23.5298705,10.3355169 23.5631474,10.3207853 23.6234861,10.2802087 C23.6234861,10.2802087 23.6461454,10.2662525 23.6554681,10.2588867 C23.8182271,10.3709245 23.9928984,10.527674 24.1586355,10.6251093 C24.3835458,10.7573062 24.5859263,10.885497 24.8593924,10.9984394 C25.2319124,11.1522167 25.7323606,11.2250994 26.1363446,11.2521074 C27.0719821,11.3146521 27.7977291,10.7473559 28.1058964,9.85131213 C28.3897211,9.02582505 28.1354183,8.1056163 27.4344024,7.53664016 C26.6228088,6.87785288 25.6524701,6.80135189 24.8148506,7.31760437 C23.9211653,7.86835984 23.1130677,7.67710736 22.1608566,7.4466998 C22.4554283,5.0034493 22.7481873,2.57544732 23.0452191,0.112683897 C25.5482371,0.112683897 28.0113745,0.112683897 30.474512,0.112683897 C30.4840936,0.179105368 30.4579382,0.322803181 30.4675199,0.389224652 C30.1835657,0.408349901 30.0138147,0.403180915 29.7687052,0.405248509 C28.6277092,0.415328032 27.4863247,0.425019881 26.3457171,0.402534791 C25.8956375,0.393747515 25.6972709,0.532534791 25.6636056,1.00485089 C25.5852689,2.10455268 25.4569522,3.20076541 25.3404183,4.38342942 C27.1548506,4.3009841 28.7499402,4.58993042 29.9543825,5.94368787 C30.6662749,6.74384692 31.0684462,7.68692843 31.1463944,8.7466998 C31.323008,11.1462724 29.9744522,13.0693936 27.6439044,13.7895626 C25.4999402,14.4520974 22.7339442,13.6169185 21.883506,11.9150298 C21.883506,11.9044334 21.8968426,11.8942247 21.9048705,11.8867296 C21.9318028,11.8614016 21.9605478,11.8408549 21.9829482,11.8373658 C21.9999104,11.8346521 22.0066434,11.8477038 22.0256773,11.8690258 C22.1448008,12.0027734 22.3482171,12.2245229 22.4821016,12.3410835 C24.3633466,13.9779722 27.3766534,14.0978926 29.1523705,12.5999205 C30.7289442,11.2699404 31.2270618,9.34746521 30.4761952,7.49063618 C29.7514841,5.69867793 28.036753,4.74939364 25.9659462,4.72419483 C25.8274004,4.72251491 25.5873406,4.70584493 24.9326793,4.74267396 C25.068506,3.27687873 25.1911255,1.95271372 25.3287649,0.465854871 C24.6628386,0.465854871 24.05751,0.465854871 23.3814841,0.465854871 C23.1097012,2.68619284 22.8410259,4.88210736 22.5665239,7.12686879 Z" id="Path"></path>
                </g>
                <g id="Group">
                    <path d="M32.1669721,64.8707753 L32.1669721,61.7835984 L32.4763048,61.7835984 C48.6790438,61.7835984 61.8609661,48.6278827 61.8609661,32.459165 L61.8609661,32.1503181 L64.9526096,32.1503181 L64.9526096,32.459165 C64.9526096,50.3305467 50.3835458,64.8707753 32.4763048,64.8707753 L32.1669721,64.8707753 Z" id="Path" fill="#39B54A"></path>
                    <path d="M0,32.7669781 L0,32.459165 C0,14.587008 14.5695817,0.0476838966 32.4763048,0.0476838966 L32.7856375,0.0476838966 L32.7856375,3.13537773 L32.4763048,3.13537773 C16.2747311,3.13537773 3.09267928,16.2887674 3.09267928,32.459165 L3.09267928,32.7669781 L0,32.7669781 Z" id="Path" fill="#39B54A"></path>
                    <path d="M32.4763048,60.2393638 C17.1262052,60.2393638 4.63986056,47.7762922 4.63986056,32.459165 L4.63986056,32.1503181 L7.73202191,32.1503181 L7.73202191,32.459165 C7.73202191,46.074662 18.832261,57.1545129 32.4763048,57.1545129 L32.7856375,57.1545129 L32.7856375,60.239493 L32.4763048,60.239493 L32.4763048,60.2393638 Z" id="Path" fill="#FFFFFF"></path>
                    <path d="M57.2205876,32.7669781 L57.2205876,32.459165 C57.2205876,18.8416004 46.1213845,7.76446322 32.4763048,7.76446322 L32.1669721,7.76446322 L32.1669721,4.67728628 L32.4763048,4.67728628 C47.8269223,4.67728628 60.3139143,17.1395825 60.3139143,32.459165 L60.3139143,32.7669781 L57.2205876,32.7669781 Z" id="Path" fill="#FFFFFF"></path>
                    <path d="M32.1669721,55.6104076 L32.1669721,52.5227137 L32.4763048,52.5227137 C43.5625598,52.5227137 52.5811155,43.5219583 52.5811155,32.459165 L52.5811155,32.1503181 L55.6743127,32.1503181 L55.6743127,32.459165 C55.6743127,45.2243638 45.2671912,55.6104076 32.4761753,55.6104076 L32.1669721,55.6104076 Z" id="Path" fill="#FFFFFF"></path>
                    <path d="M9.27933267,32.7669781 L9.27933267,32.459165 C9.27933267,19.6934493 19.6860657,9.30831014 32.4763048,9.30831014 L32.7856375,9.30831014 L32.7856375,12.3947117 L32.4763048,12.3947117 C21.3905677,12.3947117 12.372012,21.3952087 12.372012,32.459165 L12.372012,32.7669781 L9.27933267,32.7669781 Z" id="Path" fill="#FFFFFF"></path>
                </g>
            </g>
        </g>
    </g>
</svg>