<svg id="Layer_1" xmlns="http://www.w3.org/2000/svg" xmlns:xlink="http://www.w3.org/1999/xlink" viewBox="0 0 65 65"><defs><style>.cls-1{fill:none;}.cls-2{fill:#0c1e41;}.cls-3{fill:#e75727;}.cls-4{clip-path:url(#clip-path);}.cls-5{fill:#fff;fill-rule:evenodd;}</style><clipPath id="clip-path"><path class="cls-1" d="M1922.44,1273.5V879.27c-.65-.43-1.29-.85-1.92-1.25-53.2-34-83.52-10.71-111.18,43.85-15.73,31-37.13,127-68.52,55.89,0,0-20.6-204.61-94.88-258.79-73.25-53.43-125.08,90.58-158.73,326.07-7,48.69-51.32,34.18-72.76,6.58-30.3-39-43.18-90.28-75.15-128.37-45.93-54.72-105-9.33-158.59-.51-78,12.86-103.64-70.7-127.15-128.41-13.47-33.1-39.22-82.87-82.68-57.81-39.54,22.81-45.52,85.58-65.27,122.68-26.08,49-113.76,377.1-182.38,319.46C681,1143.17,645.49,1082.45,589,1068.48c-47.15-11.67-87.1,32.86-131.78,34.23-46.87,1.45-75.27-54.81-100.68-85.63C321.84,975,263.48,939.56,209,967.88c-47.12,24.5-75.66,80.21-95.42,127.15,0,0-14,53.07-63.66,18.35C30.22,1099.6,24.38,872.82,0,869.83V1273.5Z"/></clipPath></defs><title>ADVANCE INVESTMENT - App for Deborah</title><rect class="cls-2" width="65" height="65"/><path class="cls-3" d="M48.9,12l5.54,9.6,3.63,6.29H39.73L48.9,12H32.79l0,5.85a16.48,16.48,0,0,0-5.23-4.32,17.66,17.66,0,0,0-8-1.53,17.18,17.18,0,0,0-9.15,2.62A19.07,19.07,0,0,0,3.57,22,22.86,22.86,0,0,0,1,33q0,9.95,5.28,15T20,53a17.08,17.08,0,0,0,12.73-5.76v5.64H45V32h7.8V52.92H64V12ZM32.74,37.34A9.65,9.65,0,0,1,23.5,43.1a9.58,9.58,0,0,1-5-1.4,10.31,10.31,0,0,1-3.7-3.88,11,11,0,0,1-1.4-5.45,10.43,10.43,0,0,1,2.84-7.5,9.11,9.11,0,0,1,6.84-3,11,11,0,0,1,6.06,1.66A8.86,8.86,0,0,1,32.74,28Z"/><g class="cls-4"><path class="cls-5" d="M33.51,15.67c.22-.55.44-1.14,1.21-.83a1.16,1.16,0,0,1,.76,1.38c-.06.24-.64.45-1,.48C33.8,16.76,33.39,16.43,33.51,15.67Z"/><path class="cls-5" d="M64.38,9.3c.67,0,1.1.27.93,1-.07.32-.49.85-.56.82-.47-.2-1.09-.42-1.28-.82C63.09,9.48,63.91,9.48,64.38,9.3Z"/><path class="cls-5" d="M38.34,45.66A7.88,7.88,0,0,1,40.05,45c.2,0,.66.45.66.69s-.46.73-.66.7A7.5,7.5,0,0,1,38.34,45.66Z"/></g></svg>
