<?xml version="1.0" encoding="UTF-8"?>
<svg width="65px" height="65px" viewBox="0 0 65 65" version="1.1" xmlns="http://www.w3.org/2000/svg" xmlns:xlink="http://www.w3.org/1999/xlink">
    <!-- Generator: Sketch 54.1 (76490) - https://sketchapp.com -->
    <title>BO_Brand_header_logo</title>
    <desc>Created with Sketch.</desc>
    <g id="BO_Brand_header_logo" stroke="none" stroke-width="1" fill="none" fill-rule="evenodd">
        <g id="Group-7" transform="translate(1.000000, 1.000000)" fill-rule="nonzero">
            <path d="M32.8831218,63.0000125 L30.7964467,63.0000125 C30.6445431,62.8701749 30.4488274,62.9350937 30.2751777,62.9136673 C29.4106106,62.7580791 28.5994773,62.3862317 27.9173147,61.8327536 C26.8402325,61.0352174 26.0724234,59.889436 25.7442944,58.5900125 C25.5775273,57.735229 25.5518168,56.85891 25.6681827,55.9958196 C25.7649171,54.9785126 26.1663864,54.0140724 26.8200914,53.2286166 C27.8322255,51.8790621 29.3670174,51.0194579 31.0465279,50.8614795 L32.7197056,50.8614795 C34.0912444,50.824408 35.4016572,50.2860443 36.4031269,49.3482003 C37.7024916,48.159805 38.4136433,46.4602214 38.3478122,44.7005912 C38.426691,43.6487389 38.3012631,42.5915614 37.9784467,41.5873678 C37.3245234,39.7305253 35.7674143,38.3363638 33.849868,37.8908348 C33.1576763,37.7417808 32.4489878,37.6837268 31.7417665,37.7181445 C30.6571293,37.6985269 29.5981987,37.384606 28.6781117,36.8099211 C27.2248035,36.0516837 26.173637,34.6982659 25.7986599,33.102515 C25.3387445,31.4199077 25.6236274,29.6208127 26.5808832,28.1626115 C27.6793846,26.447711 29.5747281,25.4093085 31.6112893,25.4066013 C32.3730457,25.4318653 33.134802,25.3701445 33.8821675,25.2227181 C35.1246391,24.9283101 36.2357181,24.2332536 37.044,23.2447739 C37.959297,22.1254286 38.4379476,20.7123131 38.3913046,19.2671394 C38.4200863,18.4017688 38.3321421,17.5367181 38.1306701,16.6943729 C37.6628557,14.7469077 36.2326087,13.1733707 34.3385178,12.5223018 C33.6157313,12.2765949 32.8504123,12.1809436 32.0893858,12.2412003 C29.189467,12.4186876 26.5549797,10.5667435 25.7551675,7.78802773 C25.6575991,7.43613364 25.6100162,7.07226412 25.6138173,6.70711402 C25.5746215,5.98595381 25.5964454,5.26277102 25.6790558,4.54528661 C25.7932501,3.95189218 26.0221305,3.38648054 26.352868,2.88074347 C27.1733225,1.54981792 28.4716813,0.583027977 29.9819239,0.178459202 C30.2071568,0.10681794 30.4412424,0.0667812234 30.6774822,0.0594947352 C32.1837259,-0.140698158 33.7139543,0.167586106 35.0235228,0.935098796 C36.5459463,1.88699257 37.5562863,3.47626493 37.7721777,5.25875362 C37.8284619,5.77170793 37.8463706,6.28849981 37.8265431,6.8043323 C37.813324,8.35365834 38.4334222,9.84117781 39.5432132,10.9223577 C40.3903145,11.8209253 41.508588,12.4170757 42.7267919,12.6195201 C43.2934721,12.6751648 43.8633503,12.6930734 44.4325888,12.6735658 C47.0750711,12.6697282 49.429736,14.3313932 50.2999036,16.8133374 C50.4191878,17.1484846 50.3865685,17.5050582 50.5061726,17.8293323 L50.5061726,19.774977 C50.4612611,19.825408 50.4378481,19.8914005 50.440934,19.9588602 C50.3506537,21.0388077 49.8900735,22.0544113 49.1371218,22.8338348 C48.2651619,23.8597321 47.0693907,24.5575661 45.7472741,24.8120988 C45.0305329,24.9404509 44.3011668,24.983923 43.5742538,24.9416166 C42.4755054,24.9335089 41.3999413,25.2575492 40.488533,25.8712663 C38.9925568,26.8775585 38.0522188,28.5246284 37.9461472,30.3244389 C37.7683401,31.5172815 37.8310203,32.7337892 38.1309898,33.9023272 C38.6887157,35.8722765 40.2640355,37.3938704 42.2595685,37.8908348 C42.9714365,38.0552105 43.7028122,38.1207688 44.4325888,38.0852714 C45.2746665,38.0656445 46.1113944,38.2240975 46.8879898,38.5502562 C48.530016,39.2308599 49.7949883,40.591773 50.3539492,42.2790886 C50.4626802,42.5710633 50.3539492,42.8953374 50.5279188,43.187312 L50.5279188,45.3491394 C50.3994967,46.6861145 49.7471467,47.9179223 48.7133909,48.775444 C47.9004331,49.5216332 46.9025703,50.0366306 45.8233858,50.266977 C45.1039345,50.370265 44.3767925,50.4100733 43.6503655,50.3859414 C42.6615533,50.4137638 41.6964061,50.6929465 40.8470254,51.1966267 C39.6954464,51.8538991 38.7967105,52.8773594 38.2937665,54.1042206 C38.0734396,54.6807037 37.9593494,55.2923268 37.9570203,55.9094744 C37.9750716,56.6022127 37.9496512,57.2954012 37.8809086,57.9849567 C37.6946761,59.1142697 37.1851559,60.165412 36.414,61.0111952 C35.8726806,61.6414442 35.2068896,62.1529546 34.4584416,62.5136013 C34.0245561,62.7307902 33.5517623,62.8593979 33.0676447,62.8919211 C32.9925589,62.8969215 32.9242033,62.9369634 32.8831218,63.0000125 Z" id="Path" fill="#85CEF1"></path>
            <path d="M19.7839188,12.4720937 C19.7084467,12.6230379 19.7839188,12.6124846 19.9022437,12.6230379 C22.0728551,13.0465441 23.8108318,14.6727457 24.3774822,16.8104592 C25.2207868,19.6627282 23.8453401,22.7030379 21.1500914,23.9441699 C20.1918191,24.3616931 19.1494255,24.5501342 18.1056244,24.4945404 C16.000669,24.3924823 14.0079459,25.4478357 12.9095635,27.2463932 C12.4126614,28.0030408 12.1096415,28.8703655 12.0272437,29.7718298 C11.875896,30.9324159 11.9158678,32.1099651 12.1455685,33.2576166 C12.5528833,35.1674697 13.8838938,36.7494083 15.6959543,37.4773374 C16.5446463,37.806995 17.4551719,37.9470339 18.3637005,37.8876369 C20.103716,37.7818261 21.8000918,38.4585 22.9895635,39.7328653 C24.2244382,41.00185 24.8006879,42.7719453 24.549533,44.5247029 C24.3256751,46.9660328 22.6077259,49.0082562 20.2463452,49.6401749 C19.4919331,49.8956024 18.6849646,49.9550273 17.9012741,49.8128653 C15.5753909,49.5394389 13.6236701,47.9276622 12.9092437,45.6903628 C12.666026,44.9574177 12.5710154,44.1834179 12.6297411,43.4134084 C12.7606509,41.9504559 12.2907774,40.497196 11.3281675,39.3878044 C10.5682828,38.4413519 9.54108842,37.7455609 8.38027919,37.3909922 C7.75349516,37.2197742 7.1039195,37.1469518 6.45478173,37.1751293 C3.6958934,37.3689262 1.16118274,35.6496978 0.312121827,33.0094541 C0.217053879,32.7827691 0.158861757,32.5423353 0.139751269,32.2972663 C0.139751269,32.2109211 0.139751269,32.1137029 3.97903932e-13,32.1137029 L3.97903932e-13,30.2358551 C0.12919797,30.2358551 0.12919797,30.14951 0.139751269,30.0631648 C0.217781726,29.5431749 0.38119797,29.0398145 0.623923858,28.5738704 C1.61506943,26.459171 3.76521542,25.132894 6.09980711,25.1961749 C6.74436332,25.2179451 7.38947024,25.1745523 8.02530457,25.0666572 C10.8308832,24.4257841 12.7864416,21.8750836 12.683467,18.990515 C12.4650457,16.1443221 14.2581472,13.5312612 16.9866548,12.7202562 C17.2233046,12.6556572 17.5245533,12.7202562 17.6966041,12.4720937 L19.7839188,12.4720937 L19.7839188,12.4720937 Z M63,31.5105658 C62.9881675,34.7756927 60.3380102,37.4162562 57.073203,37.4162562 C53.8055178,37.4104998 51.1617563,34.7568247 51.1675127,31.4894592 C51.173269,28.2217739 53.8269442,25.5780125 57.0943096,25.5837688 C60.3619949,25.5895252 63.0057563,28.2432003 63,31.5105658 Z" id="Shape" fill="#229BD8"></path>
        </g>
    </g>
</svg>