<?xml version="1.0" encoding="UTF-8"?>
<svg width="65px" height="65px" viewBox="0 0 65 65" version="1.1" xmlns="http://www.w3.org/2000/svg" xmlns:xlink="http://www.w3.org/1999/xlink">
    <!-- Generator: Sketch 54.1 (76490) - https://sketchapp.com -->
    <title>BO_Brand_header_logo</title>
    <desc>Created with Sketch.</desc>
    <defs>
        <linearGradient x1="2.64078699e-05%" y1="49.9998808%" x2="99.9999748%" y2="49.9998808%" id="linearGradient-1">
            <stop stop-color="#FCEECC" offset="0%"></stop>
            <stop stop-color="#FCEDC5" offset="9.24%"></stop>
            <stop stop-color="#FCEBB1" offset="22.73%"></stop>
            <stop stop-color="#FDE791" offset="38.82%"></stop>
            <stop stop-color="#FEE265" offset="56.92%"></stop>
            <stop stop-color="#FEDB2D" offset="76.44%"></stop>
            <stop stop-color="#FFD600" offset="90.36%"></stop>
        </linearGradient>
        <linearGradient x1="4.41809508e-05%" y1="49.9998876%" x2="100%" y2="49.9998876%" id="linearGradient-2">
            <stop stop-color="#FCEECC" offset="0%"></stop>
            <stop stop-color="#FCEDC5" offset="9.24%"></stop>
            <stop stop-color="#FCEBB1" offset="22.73%"></stop>
            <stop stop-color="#FDE791" offset="38.82%"></stop>
            <stop stop-color="#FEE265" offset="56.92%"></stop>
            <stop stop-color="#FEDB2D" offset="76.44%"></stop>
            <stop stop-color="#FFD600" offset="90.36%"></stop>
        </linearGradient>
    </defs>
    <g id="BO_Brand_header_logo" stroke="none" stroke-width="1" fill="none" fill-rule="evenodd">
        <g id="logo-alliance-capital" transform="translate(-2.000000, -2.000000)" fill-rule="nonzero">
            <g id="Слой_1" transform="translate(2.690058, 3.212237)">
                <g id="Group">
                    <path d="M52.761193,11.0950669 C59.3132339,18.4264627 61.9684561,28.8871128 58.8509474,38.9470363 C54.1060877,54.2582983 37.7860409,62.8428681 22.3993099,58.1212811 C18.2785439,56.8567304 14.6434678,54.7654302 11.6194386,52.0877629 C15.0395789,55.9147419 19.5213509,58.8892734 24.7984386,60.5086424 C40.1851696,65.2302294 56.5050819,56.6456597 61.250076,41.3343977 C64.7242865,30.1235564 61.0289532,18.4157553 52.761193,11.0950669 Z" id="Path" fill="url(#linearGradient-1)"></path>
                    <path d="M3.13055556,21.8484321 C7.87554971,6.53717017 24.195462,-2.04753346 39.582193,2.67418738 C43.9735789,4.02172084 47.8132339,6.30869981 50.9497076,9.24334608 C47.6026023,5.69797323 43.3134386,2.94214149 38.3079123,1.40615679 C22.9211813,-3.31556405 6.60126901,5.26900574 1.85627485,20.5804015 C-1.53440936,31.5218164 1.9044269,42.9362333 9.75751462,50.2840918 C2.81581871,42.9308795 -0.070748538,32.1787189 3.13055556,21.8484321 Z" id="Path" fill="url(#linearGradient-2)"></path>
                    <g transform="translate(8.608187, 19.674952)" fill="#FFFFFF">
                        <path d="M4.42232164,0.306099426 L4.95038012,0.306099426 C5.083,0.306099426 5.26148538,1.04732314 5.48597076,2.52963671 C5.55739181,2.69720841 6.1594269,5.57068834 7.29207602,11.1499426 L7.1850117,11.2032122 L5.21817544,11.2032122 C5.09053216,11.2032122 4.91460234,10.411262 4.69011696,8.82736138 L2.56268421,8.82736138 C2.31264327,10.411262 2.13402339,11.2032122 2.02695906,11.2032122 L0.113923977,11.2032122 L0.00685964912,11.1499426 C1.28221637,4.97160612 1.99145029,1.65644359 2.1342924,1.20458891 C2.39939766,0.605640535 3.16216374,0.306099426 4.42232164,0.306099426 Z M3.57293567,2.78862333 L3.57293567,2.84189293 C3.10863158,5.6799044 2.87647953,7.16221797 2.87647953,7.28910134 L4.31512281,7.28910134 L4.42232164,7.23583174 C3.96312865,4.49954111 3.73353216,3.01695985 3.73353216,2.78848948 L3.57293567,2.78848948 L3.57293567,2.78862333 Z" id="Shape"></path>
                        <path d="M10.1637135,0.306099426 L10.5845731,0.306099426 C10.6559942,0.316271511 10.6916374,0.351739962 10.6916374,0.412638623 L10.6916374,9.61931166 L13.8293216,9.61931166 C13.9007427,9.62961759 13.936386,9.6649522 13.936386,9.7259847 L13.936386,11.096673 C13.936386,11.1677438 13.9006082,11.2032122 13.8293216,11.2032122 L8.56420468,11.2032122 L8.56420468,1.83659656 C8.56433918,0.907724665 9.09750877,0.39751434 10.1637135,0.306099426 Z" id="Path"></path>
                        <path d="M16.8082924,0.306099426 L17.229152,0.306099426 C17.3005731,0.316271511 17.3362164,0.351739962 17.3362164,0.412638623 L17.3362164,9.61931166 L20.4739006,9.61931166 C20.5453216,9.62961759 20.5809649,9.6649522 20.5809649,9.7259847 L20.5809649,11.096673 C20.5809649,11.1677438 20.5451871,11.2032122 20.4739006,11.2032122 L15.2087836,11.2032122 L15.2087836,1.83659656 C15.2089181,0.907724665 15.7419532,0.39751434 16.8082924,0.306099426 Z" id="Path"></path>
                        <path d="M23.6136023,0.306099426 L23.9273977,0.306099426 C23.9986842,0.316271511 24.034462,0.351739962 24.034462,0.412638623 L24.034462,11.096673 C24.034462,11.1677438 23.9986842,11.2032122 23.9273977,11.2032122 L21.9605614,11.2032122 C21.8891404,11.2032122 21.8534971,11.1677438 21.8534971,11.096673 L21.8534971,2.42296367 C21.8534971,1.37724665 22.1391813,0.722217973 22.7106842,0.458279159 C23.0420994,0.356959847 23.3429825,0.306099426 23.6136023,0.306099426 Z" id="Path"></path>
                        <path d="M29.7223216,0.306099426 L30.2503801,0.306099426 C30.3828655,0.306099426 30.5614854,1.04732314 30.7859708,2.52963671 C30.8573918,2.69720841 31.4594269,5.57068834 32.592076,11.1499426 L32.4848772,11.2032122 L30.5181754,11.2032122 C30.3906667,11.2032122 30.2146023,10.411262 29.990117,8.82736138 L27.8626842,8.82736138 C27.6127778,10.411262 27.4341579,11.2032122 27.3270936,11.2032122 L25.413924,11.2032122 L25.3067251,11.1499426 C26.5820819,4.97160612 27.2913158,1.65644359 27.4341579,1.20458891 C27.6993977,0.605640535 28.4621637,0.306099426 29.7223216,0.306099426 Z M28.8729357,2.78862333 L28.8729357,2.84189293 C28.4086316,5.6799044 28.1764795,7.16221797 28.1764795,7.28910134 L29.6151228,7.28910134 L29.7223216,7.23583174 C29.2631287,4.49954111 29.0335322,3.01695985 29.0335322,2.78848948 L28.8729357,2.78848948 L28.8729357,2.78862333 Z" id="Shape"></path>
                        <path d="M35.349117,0.306099426 L35.7241111,0.306099426 C36.0455731,0.823938815 37.0376667,3.20500956 38.7009298,7.44904398 L38.7009298,7.50231358 L38.754462,7.50231358 L38.754462,7.44904398 C38.6472632,6.96680688 38.5938655,6.52512428 38.5938655,6.12399618 L38.5938655,0.412638623 C38.6090643,0.341567878 38.6447076,0.306099426 38.7009298,0.306099426 L40.5145673,0.306099426 C40.5808772,0.316271511 40.6140994,0.351739962 40.6140994,0.412638623 L40.6140994,11.096673 C40.6140994,11.1677438 40.5808772,11.2032122 40.5145673,11.2032122 L38.7009298,11.2032122 C38.5938655,11.2032122 37.6192573,8.96428298 35.7776433,4.48669216 L35.7242456,4.48669216 L35.7242456,4.53996176 C35.8313099,5.01724665 35.8848421,5.45638623 35.8848421,5.8573805 L35.8848421,11.096673 C35.8848421,11.1677438 35.8490643,11.2032122 35.7776433,11.2032122 L33.9716725,11.2032122 C33.900117,11.2032122 33.8644737,11.1677438 33.8644737,11.096673 L33.8644737,2.20975143 C33.8643392,0.940783939 34.3591754,0.306099426 35.349117,0.306099426 Z" id="Path"></path>
                        <path d="M44.916848,0.0928871893 L45.4449064,0.0928871893 C46.965193,0.0928871893 47.9243333,0.7808413 48.3223275,2.15661568 C48.393614,2.30892925 48.4295263,2.59066922 48.4295263,3.00183556 L48.4295263,3.84705545 C48.4295263,3.91826004 48.393614,3.95359465 48.3223275,3.95359465 L47.9473333,3.95359465 C47.197345,3.95359465 46.6820643,3.70745698 46.4014912,3.21491396 C46.3045146,3.0118738 46.1642281,2.57032505 45.9806316,1.88986616 C45.7152573,1.71225621 45.4832398,1.62338432 45.2841754,1.62338432 L45.1311111,1.62338432 C44.4220117,1.62338432 44.067462,1.99413002 44.067462,2.73521989 L44.067462,8.77409178 C44.067462,9.51544933 44.3860994,9.88592734 45.0239123,9.88592734 L45.1311111,9.88592734 C45.840076,9.88592734 46.1947602,9.53311663 46.1947602,8.82736138 L46.1947602,7.39577438 C46.2049825,7.32470363 46.2407602,7.28910134 46.3019591,7.28910134 L48.3223275,7.28910134 C48.393614,7.29940727 48.4295263,7.33474187 48.4295263,7.39577438 L48.4295263,8.13445507 C48.4295263,10.3226577 47.381076,11.4165583 45.2841754,11.4165583 L44.9703801,11.4165583 C43.5112924,11.4165583 42.552152,10.8530784 42.0929591,9.7259847 C41.9552281,9.34024857 41.8863626,8.88076482 41.8863626,8.3476673 L41.8863626,2.89516252 C41.8863626,1.70730402 42.3811988,0.879751434 43.3710058,0.412638623 C43.8810409,0.199426386 44.3964561,0.0928871893 44.916848,0.0928871893 Z" id="Path"></path>
                        <path d="M49.8088538,0.306099426 L55.1273684,0.306099426 C55.1987895,0.316271511 55.2345673,0.351739962 55.2345673,0.412638623 C55.2345673,1.39759082 54.9156608,1.89 54.2779825,1.89 L51.8292222,1.89 L51.8292222,4.70003824 L54.1709181,4.70003824 C54.2422047,4.71034417 54.2779825,4.7432696 54.2779825,4.79908222 L54.2779825,6.23080306 C54.2779825,6.3018738 54.2422047,6.33734226 54.1709181,6.33734226 L51.8292222,6.33734226 L51.8292222,9.51290631 L55.1273684,9.51290631 C55.1987895,9.52307839 55.2345673,9.55854685 55.2345673,9.61944551 L55.2345673,11.0968069 C55.2345673,11.1678776 55.1987895,11.2033461 55.1273684,11.2033461 L49.8088538,11.2033461 C49.7372982,11.2033461 49.701655,11.1678776 49.701655,11.0968069 L49.701655,0.412772467 C49.7118772,0.341701721 49.747655,0.306099426 49.8088538,0.306099426 Z" id="Path"></path>
                        <path d="M3.03721053,18.807782 L3.56526901,18.807782 C5.08555556,18.807782 6.04483041,19.4957361 6.44269006,20.8713767 C6.51411111,21.0238241 6.54975439,21.3054302 6.54975439,21.7165966 L6.54975439,22.5618164 C6.54975439,22.633021 6.51397661,22.6684895 6.44269006,22.6684895 L6.06769591,22.6684895 C5.3177076,22.6684895 4.8024269,22.4223518 4.5218538,21.9298088 C4.42487719,21.7267686 4.28459064,21.2852199 4.10099415,20.604761 C3.83561988,20.4271511 3.60360234,20.3382792 3.40453801,20.3382792 L3.25147368,20.3382792 C2.54223977,20.3382792 2.18769006,20.7090249 2.18769006,21.4501147 L2.18769006,27.4889866 C2.18769006,28.2302103 2.50646199,28.6008222 3.14427485,28.6008222 L3.25147368,28.6008222 C3.9604386,28.6008222 4.31512281,28.2480115 4.31512281,27.5422562 L4.31512281,26.1106692 C4.32534503,26.0397323 4.36112281,26.00413 4.42232164,26.00413 L6.44269006,26.00413 C6.51411111,26.0143021 6.54975439,26.0497706 6.54975439,26.1106692 L6.54975439,26.8494837 C6.54975439,29.0376864 5.50130409,30.1314532 3.40453801,30.1314532 L3.09074269,30.1314532 C1.63152047,30.1314532 0.67251462,29.5679732 0.213321637,28.4408795 C0.0755906433,28.0551434 0.0067251462,27.5956597 0.0067251462,27.0625621 L0.0067251462,21.6101912 C0.0067251462,20.4221989 0.501561404,19.5946463 1.49136842,19.1275335 C2.00140351,18.9143212 2.51681871,18.807782 3.03721053,18.807782 Z" id="Path"></path>
                        <path d="M12.2377485,19.0209943 L12.765807,19.0209943 C12.8984269,19.0209943 13.0769123,19.762218 13.3013977,21.2445315 C13.3728187,21.4121033 13.9748538,24.285717 15.1075029,29.8648375 L15.0004386,29.9181071 L13.0336023,29.9181071 C12.9059591,29.9181071 12.7300292,29.1261568 12.5055439,27.5421224 L10.3781111,27.5421224 C10.1280702,29.1261568 9.94945029,29.9181071 9.84238596,29.9181071 L7.92921637,29.9181071 L7.82215205,29.8648375 C9.09750877,23.686501 9.80674269,20.3713384 9.9495848,19.9194837 C10.2148246,19.3206692 10.9775906,19.0209943 12.2377485,19.0209943 Z M11.3882281,21.5035182 L11.3882281,21.5567878 C10.923924,24.3946654 10.6917719,25.8771128 10.6917719,26.00413 L12.1304152,26.00413 L12.237614,25.9508604 C11.7784211,23.2145698 11.5488246,21.7319885 11.5488246,21.5035182 L11.3882281,21.5035182 Z" id="Shape"></path>
                        <path d="M18.4536667,19.0209943 L19.6245146,19.0209943 C21.2008889,19.0209943 22.193117,19.5668069 22.6013333,20.6581644 C22.7441754,21.1151052 22.8155965,21.6456597 22.8155965,22.2498279 C22.8155965,23.8439006 22.1777836,24.8846654 20.9024269,25.3719885 C20.6319415,25.4430593 20.3820351,25.4786616 20.1524386,25.4786616 L18.560731,25.4786616 L18.560731,29.8115679 C18.560731,29.8827725 18.5249532,29.9182409 18.4536667,29.9182409 L16.4868304,29.9182409 C16.4154094,29.9182409 16.3797661,29.8827725 16.3797661,29.8115679 L16.3797661,20.8713767 C16.3797661,19.6378776 17.0709766,19.0209943 18.4536667,19.0209943 Z M18.560731,20.6048948 L18.560731,23.8869981 L19.4637836,23.8869981 C20.2443041,23.8869981 20.6346316,23.3742447 20.6346316,22.348738 L20.6346316,22.2498279 C20.6346316,21.1532505 20.2264152,20.6048948 19.410117,20.6048948 L18.560731,20.6048948 Z" id="Shape"></path>
                        <path d="M25.8480994,19.0209943 L26.1618947,19.0209943 C26.2331813,19.0311663 26.2690936,19.0666348 26.2690936,19.1275335 L26.2690936,29.8115679 C26.2690936,29.8827725 26.2331813,29.9182409 26.1618947,29.9182409 L24.1950585,29.9182409 C24.1236374,29.9182409 24.0879942,29.8827725 24.0879942,29.8115679 L24.0879942,21.1379924 C24.0879942,20.0922753 24.3736784,19.4372467 24.9450468,19.173174 C25.276731,19.0718547 25.577614,19.0209943 25.8480994,19.0209943 Z" id="Path"></path>
                        <path d="M29.1865965,19.0209943 L33.9771871,19.0209943 C34.0484737,19.0311663 34.084386,19.0666348 34.084386,19.1275335 L34.084386,20.4983556 C34.084386,20.5694264 34.0484737,20.6048948 33.9771871,20.6048948 L31.9032865,20.6048948 L31.9032865,29.8115679 C31.9032865,29.8827725 31.8675088,29.9182409 31.7960877,29.9182409 L29.829386,29.9182409 C29.7579649,29.9182409 29.7223216,29.8827725 29.7223216,29.8115679 L29.7223216,20.6048948 L27.6484211,20.6048948 C27.5768655,20.6048948 27.5412222,20.5694264 27.5412222,20.4983556 L27.5412222,20.445086 C27.5413567,19.4957361 28.0897251,19.0209943 29.1865965,19.0209943 Z" id="Path"></path>
                        <path d="M39.7722456,19.0209943 L40.3003041,19.0209943 C40.4327895,19.0209943 40.6114094,19.762218 40.8358947,21.2445315 C40.9073158,21.4121033 41.5093509,24.285717 42.642,29.8648375 L42.5348012,29.9181071 L40.5680994,29.9181071 C40.4405906,29.9181071 40.2645263,29.1261568 40.0400409,27.5421224 L37.9126082,27.5421224 C37.6627018,29.1261568 37.4840819,29.9181071 37.3770175,29.9181071 L35.463848,29.9181071 L35.3566491,29.8648375 C36.6320058,23.686501 37.3412398,20.3713384 37.4840819,19.9194837 C37.7493216,19.3206692 38.5120877,19.0209943 39.7722456,19.0209943 Z M38.9228596,21.5035182 L38.9228596,21.5567878 C38.4585556,24.3946654 38.2264035,25.8771128 38.2264035,26.00413 L39.6650468,26.00413 L39.7722456,25.9508604 C39.3130526,23.2145698 39.0834561,21.7319885 39.0834561,21.5035182 L38.9228596,21.5035182 Z" id="Shape"></path>
                        <path d="M45.5137719,19.0209943 L45.9346316,19.0209943 C46.0060526,19.0311663 46.0418304,19.0666348 46.0418304,19.1275335 L46.0418304,28.3343403 L49.1793801,28.3343403 C49.2506667,28.3445124 49.2865789,28.3799809 49.2865789,28.4408795 L49.2865789,29.8115679 C49.2865789,29.8827725 49.2506667,29.9182409 49.1793801,29.9182409 L43.9142632,29.9182409 L43.9142632,20.5516252 C43.9142632,19.6224857 44.4472982,19.1124092 45.5137719,19.0209943 Z" id="Path"></path>
                    </g>
                </g>
            </g>
        </g>
    </g>
</svg>