<?xml version="1.0" encoding="UTF-8"?>
<svg width="65px" height="65px" viewBox="0 0 65 65" version="1.1" xmlns="http://www.w3.org/2000/svg" xmlns:xlink="http://www.w3.org/1999/xlink">
    <!-- Generator: Sketch 54.1 (76490) - https://sketchapp.com -->
    <title>BO_Brand_header_logo</title>
    <desc>Created with Sketch.</desc>
    <g id="BO_Brand_header_logo" stroke="none" stroke-width="1" fill="none" fill-rule="evenodd">
        <rect id="Rectangle" fill="#16111E" x="0" y="0" width="65" height="65"></rect>
        <g id="Group-2" transform="translate(8.000000, 21.000000)" fill="#F2B705">
            <path d="M4.32899667,11.4952412 C5.72248419,11.2621252 8.88674043,10.6789439 8.88674043,6.74178618 C8.88674043,5.51675359 8.4802579,4.14621904 7.49325291,3.12574967 C6.56387188,2.16316819 5.4900416,1.98833116 4.44502329,1.87177314 C4.38662063,2.60084746 4.32899667,3.59237288 4.32899667,4.32105606 L4.32899667,11.4952412 Z M1.07752579,6.27516297 C1.07752579,2.39667536 0.58421797,1.22992177 0.235748752,0.413233377 L4.9679218,0.413233377 C9.35084692,0.413233377 12.3122512,2.83396349 12.3122512,6.53761408 C12.3122512,11.3204042 7.92854742,12.7781617 5.17077371,12.5743807 L4.32899667,12.5157106 L4.32899667,16.1028031 C4.32899667,17.7944589 4.76429118,20.5941982 5.17077371,22.2854628 L0.0905207987,22.2854628 C0.497003328,20.7686441 1.07752579,18.7566493 1.07752579,15.1406128 L1.07752579,6.27516297 Z" id="Fill-61"></path>
            <path d="M17.6794559,11.8451108 C19.7406805,11.2619296 23.0497754,10.3286832 23.0497754,6.97509778 C23.0497754,5.34211213 22.0339584,2.71720991 17.6794559,2.27992177 L17.6794559,11.8451108 Z M14.4571864,4.99204694 C14.4571864,2.42542373 14.1087171,1.23011734 13.8762745,0.471707953 L18.1147504,0.413428944 C23.7179018,0.325814863 26.3592596,3.70873533 26.3592596,6.65436767 C26.3592596,10.2121252 23.2238153,11.9616688 22.2371997,12.4869622 C24.1820083,15.9277705 26.8529567,19.1647979 29.4363012,22.2852673 L26.4464742,22.2852673 C23.5142712,19.7483703 22.1791864,18.1732725 17.6794559,12.1658409 L17.6794559,17.5611473 C17.6794559,19.252412 17.7082679,19.9525424 18.2887903,22.2852673 L13.8762745,22.2852673 C14.3411597,20.1273794 14.4571864,18.5233377 14.4571864,16.6279009 L14.4571864,4.99204694 Z" id="Fill-63"></path>
            <path d="M40.2139285,20.0690613 C45.0617388,20.0690613 47.326594,15.4904433 47.326594,12.0785789 C47.326594,7.52929596 43.8722712,2.57166884 38.791629,2.57166884 C34.4079251,2.57166884 31.5921381,6.39187744 31.5921381,10.6204302 C31.5921381,16.5406389 36.0626672,20.0690613 40.2139285,20.0690613 M39.8658486,0.238552803 C47.0653394,0.238552803 50.6940915,5.72108214 50.6940915,11.2618905 C50.6940915,18.0860104 45.4682213,22.4311213 39.3141381,22.4311213 C32.2890765,22.4311213 27.934574,16.7150847 27.934574,11.1159974 C27.934574,6.24598435 32.2890765,0.238552803 39.8658486,0.238552803" id="Fill-65"></path>
        </g>
    </g>
</svg>