<svg xmlns="http://www.w3.org/2000/svg" viewBox="0 0 65 65"><defs><style>.a{fill:#fff;}.b,.c,.d{fill:#006cfe;}.b{opacity:0.7;}.c{opacity:0.5;}.d{opacity:0.8;}</style></defs><title>65Х65</title><path class="a" d="M57.55,58.49l5-7.93a56.59,56.59,0,0,0-28.24-8.45c-6.89,0-20.45.58-31.76,7.52L7.1,58c9.57-4.12,13.64-6.09,25.47-6.38C40.55,51.38,47.39,53.08,57.55,58.49Z"/><path class="a" d="M28.82,6.56l9.35,0A52.31,52.31,0,0,1,31,34.42C27.53,40.4,18.75,51.63,7.1,58L2.5,49.63C11.73,43.3,16,41,22.2,30.87,26.35,24.06,28.45,18.06,28.82,6.56Z"/><path class="a" d="M38.17,6.51l-9.37,0c-.34,13.91,3.92,24.07,6.4,28.39,3.43,6,10.69,17.22,22.35,23.55l5-7.93c-8.36-6.24-12.1-8.78-18.26-18.89C40.09,24.86,38.55,18,38.17,6.51Z"/><path class="b" d="M57.55,58.49l5-7.93a56.59,56.59,0,0,0-28.24-8.45c-6.89,0-20.45.58-31.76,7.52L7.1,58c9.57-4.12,13.64-6.09,25.47-6.38C40.55,51.38,47.39,53.08,57.55,58.49Z"/><path class="c" d="M28.82,6.56l9.35,0A52.31,52.31,0,0,1,31,34.42C27.53,40.4,18.75,51.63,7.1,58L2.5,49.63C11.73,43.3,16,41,22.2,30.87,26.35,24.06,28.45,18.06,28.82,6.56Z"/><path class="d" d="M38.17,6.51l-9.37,0c-.34,13.91,3.92,24.07,6.4,28.39,3.43,6,10.69,17.22,22.35,23.55l5-7.93c-8.36-6.24-12.1-8.78-18.26-18.89C40.09,24.86,38.55,18,38.17,6.51Z"/></svg>