<svg id="Слой_1" data-name="Слой 1" xmlns="http://www.w3.org/2000/svg" viewBox="0 0 65 65"><defs><style>.cls-1{fill:#fff;}</style></defs><title>Bit-Broker-Stocks-Logo-65x65Монтажная область 1</title><path d="M4.21,44.45a1.18,1.18,0,0,1-.28,1.69,2.73,2.73,0,0,1-1.5.34H-.25V41.72H2.29a2.47,2.47,0,0,1,1.44.34,1,1,0,0,1,.49.9,1,1,0,0,1-.17.6,1.15,1.15,0,0,1-.49.43A1.38,1.38,0,0,1,4.21,44.45ZM1.33,42.84v.71h.75c.35,0,.52-.12.52-.36s-.17-.35-.52-.35ZM2.83,45c0-.25-.18-.37-.54-.37h-1v.75h1C2.65,45.36,2.83,45.23,2.83,45Z"/><path d="M5.06,42.24a.76.76,0,0,1,0-1.13,1,1,0,0,1,.67-.22,1,1,0,0,1,.68.21.71.71,0,0,1,.25.55.78.78,0,0,1-.25.58,1,1,0,0,1-.68.23A1,1,0,0,1,5.06,42.24Zm-.1.52H6.5v3.72H5Z"/><path d="M9.93,46.35a2,2,0,0,1-.95.2,1.79,1.79,0,0,1-1.21-.38A1.44,1.44,0,0,1,7.35,45v-1H6.84V43h.51v-1H8.89v1h.76v1.12H8.89V45a.37.37,0,0,0,.09.27.32.32,0,0,0,.23.09.6.6,0,0,0,.35-.1Z"/><path d="M10.21,43.94h2v1.15h-2Z"/><path d="M17.41,44.45a1.2,1.2,0,0,1-.28,1.69,2.73,2.73,0,0,1-1.5.34H13V41.72h2.54a2.47,2.47,0,0,1,1.44.34,1,1,0,0,1,.49.9,1.13,1.13,0,0,1-.17.6,1.15,1.15,0,0,1-.49.43A1.38,1.38,0,0,1,17.41,44.45Zm-2.88-1.61v.71h.75c.34,0,.52-.12.52-.36s-.18-.35-.52-.35ZM16,45c0-.25-.17-.37-.53-.37h-1v.75h1C15.85,45.36,16,45.23,16,45Z"/><path d="M20.83,42.69v1.36l-.34,0a.71.71,0,0,0-.79.81v1.65H18.16V42.76h1.47v.4A1.51,1.51,0,0,1,20.83,42.69Z"/><path d="M22.09,46.3a1.94,1.94,0,0,1-.78-.69,1.91,1.91,0,0,1,0-2,2,2,0,0,1,.78-.69,2.48,2.48,0,0,1,1.11-.24,2.52,2.52,0,0,1,1.12.24,2,2,0,0,1,.77.69,2,2,0,0,1,0,2,1.91,1.91,0,0,1-.77.69,2.4,2.4,0,0,1-1.12.25A2.36,2.36,0,0,1,22.09,46.3Zm1.54-1.14a.76.76,0,0,0,.17-.54.75.75,0,0,0-.17-.54.53.53,0,0,0-.43-.19.56.56,0,0,0-.44.19.79.79,0,0,0-.17.54.81.81,0,0,0,.17.54.56.56,0,0,0,.44.19A.53.53,0,0,0,23.63,45.16Z"/><path d="M27.63,45.34l-.24.26v.88H25.85v-5h1.54v2.41l1.06-1.08h1.82l-1.54,1.61,1.66,2.11H28.54Z"/><path d="M34.47,45H31.88a.63.63,0,0,0,.28.32.93.93,0,0,0,.47.11,1.18,1.18,0,0,0,.41-.06,1.28,1.28,0,0,0,.37-.21l.8.81a2.07,2.07,0,0,1-1.62.6,2.64,2.64,0,0,1-1.19-.25,2,2,0,0,1-.79-.69,1.9,1.9,0,0,1-.28-1,1.77,1.77,0,0,1,.28-1,1.92,1.92,0,0,1,.75-.69,2.38,2.38,0,0,1,1.08-.24,2.32,2.32,0,0,1,1,.22,1.84,1.84,0,0,1,.75.66,2,2,0,0,1,.27,1S34.48,44.76,34.47,45Zm-2.41-1.11a.61.61,0,0,0-.2.36h1.2a.65.65,0,0,0-.21-.36.58.58,0,0,0-.39-.13A.6.6,0,0,0,32.06,43.87Z"/><path d="M37.64,42.69v1.36l-.34,0a.71.71,0,0,0-.79.81v1.65H35V42.76h1.47v.4A1.51,1.51,0,0,1,37.64,42.69Z"/><path d="M38,43.94h2v1.15H38Z"/><path d="M41.27,46.46a3,3,0,0,1-.92-.36l.51-1.17a3.2,3.2,0,0,0,1.58.43,1.29,1.29,0,0,0,.47-.06.2.2,0,0,0,.14-.19.25.25,0,0,0-.18-.23,4.36,4.36,0,0,0-.62-.16,7.32,7.32,0,0,1-.92-.25,1.54,1.54,0,0,1-.64-.44,1.18,1.18,0,0,1-.27-.82,1.36,1.36,0,0,1,.25-.81,1.65,1.65,0,0,1,.75-.58,3.17,3.17,0,0,1,1.22-.21,4.34,4.34,0,0,1,1,.1,3.19,3.19,0,0,1,.84.31L44,43.19a2.89,2.89,0,0,0-1.32-.36c-.42,0-.62.1-.62.3s.06.17.18.22a4.1,4.1,0,0,0,.61.15,7.46,7.46,0,0,1,.91.23,1.6,1.6,0,0,1,.65.44,1.13,1.13,0,0,1,.28.81,1.42,1.42,0,0,1-.25.82,1.8,1.8,0,0,1-.75.58,3.17,3.17,0,0,1-1.22.21A4.89,4.89,0,0,1,41.27,46.46Z"/><path d="M47.81,46.35a1.9,1.9,0,0,1-.94.2,1.75,1.75,0,0,1-1.21-.38A1.44,1.44,0,0,1,45.24,45v-1h-.51V43h.51v-1h1.54v1h.76v1.12h-.76V45a.37.37,0,0,0,.09.27.3.3,0,0,0,.23.09.6.6,0,0,0,.35-.1Z"/><path d="M49,46.3a1.91,1.91,0,0,1-.77-.69,1.91,1.91,0,0,1,0-2,2,2,0,0,1,.77-.69,2.52,2.52,0,0,1,1.12-.24,2.56,2.56,0,0,1,1.12.24,2,2,0,0,1,.76.69,1.91,1.91,0,0,1,0,2,1.88,1.88,0,0,1-.76.69,2.43,2.43,0,0,1-1.12.25A2.4,2.4,0,0,1,49,46.3Zm1.55-1.14a.81.81,0,0,0,.17-.54.79.79,0,0,0-.17-.54.54.54,0,0,0-.43-.19.55.55,0,0,0-.44.19.79.79,0,0,0-.17.54.81.81,0,0,0,.17.54.55.55,0,0,0,.44.19A.54.54,0,0,0,50.5,45.16Z"/><path d="M53.58,46.3a1.91,1.91,0,0,1-.78-.68,1.82,1.82,0,0,1-.28-1,1.77,1.77,0,0,1,.28-1,2,2,0,0,1,.78-.69,2.57,2.57,0,0,1,1.13-.24,2.25,2.25,0,0,1,1.17.29,1.61,1.61,0,0,1,.67.81l-1.2.59a.69.69,0,0,0-.64-.49.58.58,0,0,0-.45.19.71.71,0,0,0-.19.54.73.73,0,0,0,.19.54.58.58,0,0,0,.45.19.69.69,0,0,0,.64-.49l1.2.59a1.61,1.61,0,0,1-.67.81,2.25,2.25,0,0,1-1.17.29A2.44,2.44,0,0,1,53.58,46.3Z"/><path d="M58.68,45.34l-.24.26v.88H56.9v-5h1.54v2.41l1.07-1.08h1.81l-1.53,1.61,1.66,2.11H59.59Z"/><path d="M62.13,46.45a2.74,2.74,0,0,1-.74-.27l.42-1a2.28,2.28,0,0,0,.61.24,2.84,2.84,0,0,0,.69.09,1.1,1.1,0,0,0,.37,0,.15.15,0,0,0,.1-.14c0-.06,0-.1-.13-.12L63,45.13a4.78,4.78,0,0,1-.78-.14,1.12,1.12,0,0,1-.56-.33.94.94,0,0,1-.24-.7,1,1,0,0,1,.22-.64,1.41,1.41,0,0,1,.65-.46,2.9,2.9,0,0,1,1-.17,4.47,4.47,0,0,1,.82.08,2.43,2.43,0,0,1,.69.23l-.42,1a2.15,2.15,0,0,0-1.07-.27c-.34,0-.51.06-.51.17s0,.11.14.13a2.22,2.22,0,0,0,.43.07,5.54,5.54,0,0,1,.77.15,1.19,1.19,0,0,1,.56.33,1,1,0,0,1,.24.7,1,1,0,0,1-.22.63,1.41,1.41,0,0,1-.65.46,3,3,0,0,1-1.06.17A5,5,0,0,1,62.13,46.45Z"/><rect x="-0.23" y="18.23" width="20.66" height="20.66"/><path class="cls-1" d="M15.88,29.51a3.14,3.14,0,0,1,.63,2,3,3,0,0,1-1.41,2.65,7.45,7.45,0,0,1-4.09.94H3.69v-13h7a6.87,6.87,0,0,1,3.93.93,2.87,2.87,0,0,1,1.33,2.47,2.93,2.93,0,0,1-.46,1.63,3.15,3.15,0,0,1-1.34,1.17A3.93,3.93,0,0,1,15.88,29.51ZM8,25.12v1.94h2c1,0,1.43-.33,1.43-1s-.47-1-1.43-1ZM12.09,31c0-.68-.49-1-1.45-1H8v2h2.64C11.6,32,12.09,31.66,12.09,31Z"/><rect x="22.06" y="18.23" width="20.66" height="20.66"/><path class="cls-1" d="M38.17,29.51a3.14,3.14,0,0,1,.63,2,3,3,0,0,1-1.42,2.65,7.41,7.41,0,0,1-4.08.94H26v-13h7a6.88,6.88,0,0,1,3.94.93,2.88,2.88,0,0,1,1.32,2.47,3,3,0,0,1-.45,1.63,3.18,3.18,0,0,1-1.35,1.17A4,4,0,0,1,38.17,29.51Zm-7.89-4.39v1.94h2c1,0,1.43-.33,1.43-1s-.48-1-1.43-1ZM34.37,31c0-.68-.48-1-1.45-1H30.28v2h2.64C33.89,32,34.37,31.66,34.37,31Z"/><rect x="44.34" y="18.23" width="20.66" height="20.66"/><path class="cls-1" d="M51.32,35a8.27,8.27,0,0,1-2.51-1l1.41-3.2a8.65,8.65,0,0,0,2.08.86,8.06,8.06,0,0,0,2.21.33,3.35,3.35,0,0,0,1.3-.18.56.56,0,0,0,.39-.53c0-.27-.17-.47-.51-.61A10.32,10.32,0,0,0,54,30.25a19.58,19.58,0,0,1-2.51-.67,4.41,4.41,0,0,1-1.75-1.19A3.27,3.27,0,0,1,49,26.15a3.82,3.82,0,0,1,.69-2.23,4.51,4.51,0,0,1,2-1.58,8.43,8.43,0,0,1,3.32-.58,12.18,12.18,0,0,1,2.63.29,8.3,8.3,0,0,1,2.28.84l-1.32,3.18a8.16,8.16,0,0,0-3.63-1c-1.12,0-1.69.28-1.69.82,0,.26.17.46.5.59a11,11,0,0,0,1.66.42,16.51,16.51,0,0,1,2.51.64,4.28,4.28,0,0,1,1.77,1.18A3.17,3.17,0,0,1,60.53,31a3.78,3.78,0,0,1-.68,2.22,4.68,4.68,0,0,1-2.06,1.58,8.38,8.38,0,0,1-3.31.58A13.86,13.86,0,0,1,51.32,35Z"/></svg>