<?xml version="1.0" encoding="utf-8"?>
<!-- Generator: Adobe Illustrator 17.0.0, SVG Export Plug-In . SVG Version: 6.00 Build 0)  -->
<!DOCTYPE svg PUBLIC "-//W3C//DTD SVG 1.1//EN" "http://www.w3.org/Graphics/SVG/1.1/DTD/svg11.dtd">
<svg version="1.1" id="Слой_1" xmlns="http://www.w3.org/2000/svg" xmlns:xlink="http://www.w3.org/1999/xlink" x="0px" y="0px"
	 width="65px" height="65px" viewBox="0 0 65 65" enable-background="new 0 0 65 65" xml:space="preserve">
<g>
	<g>
		<rect x="0" y="20.11" width="20.622" height="20.622"/>
		<path fill="#FFFFFF" d="M16.082,31.368c0.42,0.544,0.631,1.2,0.631,1.967c0,1.138-0.47,2.019-1.41,2.644
			c-0.94,0.625-2.3,0.937-4.082,0.937H3.91V23.927h6.939c1.732,0,3.04,0.309,3.924,0.928c0.884,0.619,1.327,1.441,1.327,2.468
			c0,0.606-0.152,1.15-0.455,1.633c-0.303,0.482-0.751,0.872-1.345,1.169C15.067,30.409,15.661,30.824,16.082,31.368z M8.214,26.989
			v1.93h2.041c0.952,0,1.429-0.322,1.429-0.965c0-0.643-0.476-0.965-1.429-0.965H8.214z M12.297,32.833
			c0-0.68-0.483-1.021-1.447-1.021H8.214v2.041h2.635C11.814,33.854,12.297,33.514,12.297,32.833z"/>
	</g>
	<g>
		<rect x="22.246" y="20.11" width="20.622" height="20.622"/>
		<path fill="#FFFFFF" d="M38.327,31.368c0.42,0.544,0.631,1.2,0.631,1.967c0,1.138-0.47,2.019-1.41,2.644
			c-0.94,0.625-2.3,0.937-4.082,0.937h-7.31V23.927h6.939c1.732,0,3.04,0.309,3.924,0.928c0.884,0.619,1.327,1.441,1.327,2.468
			c0,0.606-0.152,1.15-0.455,1.633c-0.303,0.482-0.751,0.872-1.345,1.169C37.313,30.409,37.906,30.824,38.327,31.368z M30.46,26.989
			v1.93h2.041c0.952,0,1.429-0.322,1.429-0.965c0-0.643-0.476-0.965-1.429-0.965H30.46z M34.542,32.833
			c0-0.68-0.483-1.021-1.447-1.021H30.46v2.041h2.635C34.06,33.854,34.542,33.514,34.542,32.833z"/>
	</g>
	<g>
		<rect x="44.492" y="20.11" width="20.622" height="20.622"/>
		<path fill="#FFFFFF" d="M51.463,36.85c-1.021-0.241-1.859-0.566-2.514-0.974l1.41-3.191c0.618,0.359,1.311,0.646,2.078,0.863
			c0.767,0.217,1.503,0.325,2.208,0.325c0.606,0,1.039-0.058,1.299-0.176c0.26-0.117,0.39-0.294,0.39-0.529
			c0-0.272-0.17-0.476-0.51-0.612c-0.34-0.136-0.9-0.284-1.679-0.445c-1.002-0.21-1.837-0.436-2.504-0.677
			c-0.668-0.241-1.25-0.637-1.744-1.187c-0.495-0.55-0.742-1.296-0.742-2.236c0-0.816,0.229-1.558,0.687-2.226
			c0.457-0.668,1.141-1.194,2.05-1.577c0.909-0.383,2.013-0.575,3.312-0.575c0.891,0,1.766,0.096,2.625,0.288
			c0.86,0.192,1.617,0.473,2.273,0.844l-1.317,3.173c-1.274-0.643-2.48-0.965-3.618-0.965c-1.126,0-1.688,0.272-1.688,0.816
			c0,0.26,0.167,0.455,0.501,0.585s0.884,0.269,1.651,0.417c0.989,0.185,1.824,0.399,2.504,0.64c0.68,0.241,1.271,0.634,1.772,1.178
			c0.501,0.544,0.752,1.287,0.752,2.226c0,0.816-0.229,1.556-0.687,2.217c-0.458,0.662-1.141,1.187-2.05,1.577
			c-0.909,0.39-2.013,0.584-3.312,0.584C53.532,37.212,52.483,37.091,51.463,36.85z"/>
	</g>
	<g>
		<path d="M4.578,47.177c0,0.805-0.68,1.274-1.954,1.274H0.023V43.83h2.469c1.274,0,1.868,0.508,1.868,1.208
			c0,0.429-0.218,0.786-0.64,0.997C4.261,46.233,4.578,46.629,4.578,47.177z M1.554,44.919v0.687H2.28
			c0.35,0,0.508-0.119,0.508-0.343S2.63,44.919,2.28,44.919H1.554z M3.006,46.998c0-0.238-0.172-0.363-0.515-0.363H1.554v0.726
			h0.937C2.835,47.361,3.006,47.236,3.006,46.998z"/>
		<path d="M4.927,43.79c0-0.429,0.35-0.759,0.898-0.759s0.898,0.304,0.898,0.733c0,0.456-0.35,0.786-0.898,0.786
			S4.927,44.219,4.927,43.79z M5.079,44.84h1.492v3.611H5.079V44.84z"/>
		<path d="M11.225,43.552v4.898H9.806v-0.297c-0.218,0.244-0.541,0.363-0.99,0.363c-0.944,0-1.743-0.713-1.743-1.875
			c0-1.162,0.799-1.868,1.743-1.868c0.396,0,0.7,0.099,0.918,0.31v-1.532H11.225z M9.759,46.642c0-0.469-0.257-0.706-0.588-0.706
			c-0.33,0-0.588,0.238-0.588,0.706c0,0.469,0.257,0.713,0.588,0.713C9.502,47.355,9.759,47.111,9.759,46.642z"/>
		<path d="M11.852,45.982h1.98v1.122h-1.98V45.982z"/>
		<path d="M19.061,47.177c0,0.805-0.68,1.274-1.954,1.274h-2.601V43.83h2.469c1.274,0,1.868,0.508,1.868,1.208
			c0,0.429-0.218,0.786-0.64,0.997C18.744,46.233,19.061,46.629,19.061,47.177z M16.037,44.919v0.687h0.726
			c0.35,0,0.508-0.119,0.508-0.343s-0.158-0.343-0.508-0.343H16.037z M17.49,46.998c0-0.238-0.172-0.363-0.515-0.363h-0.937v0.726
			h0.937C17.318,47.361,17.49,47.236,17.49,46.998z"/>
		<path d="M22.15,44.774v1.32c-0.132-0.02-0.224-0.026-0.33-0.026c-0.449,0-0.766,0.205-0.766,0.779v1.604h-1.492V44.84h1.419v0.389
			C21.246,44.925,21.648,44.774,22.15,44.774z"/>
		<path d="M22.348,46.642c0-1.096,0.878-1.868,2.099-1.868c1.228,0,2.099,0.772,2.099,1.868s-0.871,1.875-2.099,1.875
			C23.226,48.517,22.348,47.738,22.348,46.642z M25.035,46.642c0-0.469-0.257-0.706-0.588-0.706c-0.33,0-0.588,0.238-0.588,0.706
			c0,0.469,0.257,0.713,0.588,0.713C24.777,47.355,25.035,47.111,25.035,46.642z"/>
		<path d="M28.745,47.342l-0.238,0.257v0.852h-1.492v-4.898h1.492v2.337l1.036-1.05h1.763l-1.492,1.565l1.611,2.046h-1.802
			L28.745,47.342z"/>
		<path d="M35.379,46.992H32.87c0.106,0.277,0.356,0.422,0.726,0.422c0.33,0,0.515-0.086,0.753-0.264l0.779,0.786
			c-0.35,0.383-0.858,0.581-1.578,0.581c-1.327,0-2.185-0.799-2.185-1.875c0-1.096,0.878-1.868,2.046-1.868
			c1.069,0,1.987,0.647,1.987,1.868C35.399,46.747,35.386,46.886,35.379,46.992z M32.844,46.272h1.162
			c-0.059-0.304-0.277-0.482-0.581-0.482C33.115,45.79,32.903,45.969,32.844,46.272z"/>
		<path d="M38.455,44.774v1.32c-0.132-0.02-0.224-0.026-0.33-0.026c-0.449,0-0.766,0.205-0.766,0.779v1.604h-1.492V44.84h1.419
			v0.389C37.551,44.925,37.953,44.774,38.455,44.774z"/>
		<path d="M38.778,45.982h1.98v1.122h-1.98V45.982z"/>
		<path d="M41.076,48.081l0.502-1.135c0.436,0.257,1.017,0.422,1.525,0.422c0.442,0,0.601-0.092,0.601-0.251
			c0-0.581-2.555-0.112-2.555-1.835c0-0.858,0.72-1.558,2.152-1.558c0.621,0,1.261,0.132,1.743,0.403l-0.469,1.129
			c-0.456-0.231-0.885-0.343-1.287-0.343c-0.456,0-0.601,0.132-0.601,0.29c0,0.555,2.555,0.092,2.555,1.796
			c0,0.845-0.72,1.558-2.152,1.558C42.317,48.556,41.538,48.365,41.076,48.081z"/>
		<path d="M48.318,48.325c-0.231,0.132-0.568,0.191-0.918,0.191c-0.997,0-1.578-0.469-1.578-1.466v-0.924h-0.495v-1.089h0.495v-1.01
			h1.492v1.01h0.739v1.089h-0.739v0.911c0,0.224,0.132,0.35,0.31,0.35c0.119,0,0.238-0.033,0.337-0.099L48.318,48.325z"/>
		<path d="M48.403,46.642c0-1.096,0.878-1.868,2.099-1.868c1.228,0,2.099,0.772,2.099,1.868s-0.871,1.875-2.099,1.875
			C49.281,48.517,48.403,47.738,48.403,46.642z M51.09,46.642c0-0.469-0.257-0.706-0.588-0.706c-0.33,0-0.588,0.238-0.588,0.706
			c0,0.469,0.257,0.713,0.588,0.713C50.833,47.355,51.09,47.111,51.09,46.642z"/>
		<path d="M52.879,46.642c0-1.096,0.885-1.868,2.132-1.868c0.878,0,1.538,0.403,1.776,1.069l-1.155,0.568
			c-0.152-0.337-0.37-0.475-0.627-0.475c-0.337,0-0.614,0.238-0.614,0.706c0,0.475,0.277,0.713,0.614,0.713
			c0.257,0,0.475-0.139,0.627-0.475l1.155,0.568c-0.238,0.667-0.898,1.069-1.776,1.069C53.763,48.517,52.879,47.744,52.879,46.642z"
			/>
		<path d="M58.86,47.342l-0.238,0.257v0.852H57.13v-4.898h1.492v2.337l1.036-1.05h1.763l-1.492,1.565l1.611,2.046h-1.802
			L58.86,47.342z"/>
		<path d="M61.48,48.16l0.409-0.984c0.343,0.205,0.832,0.323,1.261,0.323c0.363,0,0.462-0.066,0.462-0.172
			c0-0.37-2.08,0.125-2.08-1.32c0-0.68,0.634-1.234,1.848-1.234c0.528,0,1.089,0.099,1.472,0.297l-0.409,0.984
			c-0.37-0.205-0.739-0.264-1.043-0.264c-0.383,0-0.489,0.086-0.489,0.172c0,0.376,2.073-0.112,2.073,1.334
			c0,0.654-0.614,1.221-1.868,1.221C62.497,48.517,61.85,48.371,61.48,48.16z"/>
	</g>
</g>
</svg>
