<svg id="Layer_1" xmlns="http://www.w3.org/2000/svg" viewBox="0 0 65 65"><defs><style>.cls-1{fill:#fff;}.cls-2{fill:#053c50;}.cls-3{fill:#0ab35b;}</style></defs><rect class="cls-1" width="65" height="65"/><path class="cls-2" d="M9.36,17.14h5.19a45.55,45.55,0,0,1,10.28-11,25.77,25.77,0,0,0-7.09-.91H0v45.8A136.61,136.61,0,0,1,9.36,25.94Z"/><path class="cls-2" d="M21.6,20.21A5.84,5.84,0,0,1,22,22.29v.07a4.65,4.65,0,0,1-3.92,4.88c-1.53,3.35-3,6.94-4.28,10.73H17c4.3,0,6.56,2.14,6.56,5.39v.08c0,3.41-2.41,5.39-6.49,5.39H10.36c-1.08,3.84-2.08,7.81-3,11.88H17.81c12,0,18.87-5.86,18.87-15.37V45c0-7.29-3.86-10.94-9.32-13.16a12.8,12.8,0,0,0,7.57-12.2v-.32a12.75,12.75,0,0,0-3.35-9.19A12.48,12.48,0,0,0,30,8.73,53.46,53.46,0,0,0,21.6,20.21Z"/><polygon class="cls-3" points="65 51.67 65 41.87 50.63 41.87 50.63 23.65 65 23.65 65 13.75 39.91 13.75 39.91 65 50.63 65 50.63 51.67 65 51.67"/><path class="cls-3" d="M9.36,38V48.83h1c1.06-3.76,2.19-7.39,3.41-10.86Z"/><path class="cls-3" d="M47.21.78a23.12,23.12,0,0,0-4.9-.53A28.82,28.82,0,0,0,24.83,6.16,14.94,14.94,0,0,1,30,8.73C35,3.67,40.75.78,47.21.78Z"/><path class="cls-3" d="M0,60.71V65H6.43q.45-2.16.93-4.29Z"/><path class="cls-3" d="M15.85,17.14h-1.3a75,75,0,0,0-5.19,8.8v1.57h6.27a10.6,10.6,0,0,0,2.42-.27c1.13-2.48,2.31-4.83,3.55-7C20.84,18.21,18.86,17.14,15.85,17.14Z"/><path class="cls-3" d="M10.36,48.83h-1V38h4.41c1.33-3.79,2.75-7.38,4.28-10.73a10.6,10.6,0,0,1-2.42.27H9.36V25.94A136.61,136.61,0,0,0,0,51.05v9.66H7.36C8.28,56.64,9.28,52.67,10.36,48.83Z"/><path class="cls-2" d="M14.55,17.14h1.3c3,0,5,1.07,5.75,3.07A53.46,53.46,0,0,1,30,8.73a14.94,14.94,0,0,0-5.19-2.57A45.55,45.55,0,0,0,14.55,17.14Z"/><path class="cls-2" d="M53.87,12.35h6.74c-4.77-6-10.17-9.41-15.9-9.41a14.72,14.72,0,0,0-3.37.4C45.82,4.39,50.05,7.54,53.87,12.35Z"/></svg>
