<svg xmlns="http://www.w3.org/2000/svg" width="65" height="65" baseProfile="basic"><defs/><switch><g><g fill="#172358"><path d="M29.65 42.59h1.96v1.53c-.381.578-1.128.839-1.974.839-1.791 0-2.608-1.149-2.608-2.538 0-1.431.853-2.503 2.453-2.503 1.065 0 1.974.465 2.129 1.551h-.705c-.099-.797-.642-1.297-1.452-1.297-1.206 0-1.692 1.135-1.692 2.27 0 1.17.564 2.263 1.819 2.263.508 0 1.036-.169 1.325-.543v-1.297H29.65v-.275zM34.426 39.967h.705v4.66h2.58v.275h-3.285v-4.935zM42.43 39.918c1.445 0 2.503 1.072 2.503 2.517 0 1.445-1.057 2.524-2.503 2.524-1.445 0-2.503-1.079-2.503-2.524s1.058-2.517 2.503-2.517zm0 4.787c1.022 0 1.777-.938 1.777-2.27s-.754-2.263-1.777-2.263c-1.015 0-1.769.931-1.769 2.263 0 1.332.754 2.27 1.769 2.27zM47.684 39.967h1.805c1.057 0 1.685.451 1.685 1.227 0 .578-.352.973-.973 1.135.783.134 1.255.592 1.255 1.269 0 .811-.663 1.304-1.748 1.304h-2.023v-4.935zm.705.275v1.967h.881c.74 0 1.213-.331 1.213-.98 0-.642-.472-.987-1.22-.987h-.874zm0 2.242v2.143h1.086c.768 0 1.255-.381 1.255-1.065 0-.684-.493-1.079-1.255-1.079h-1.086zM57.286 43.429h-2.383l-.656 1.473h-.36l2.171-4.935h.388l2.305 4.935h-.797l-.668-1.473zm-2.256-.275h2.136l-1.072-2.376-1.064 2.376zM61.429 39.967h.705v4.66h2.58v.275h-3.285v-4.935z"/></g><g fill="#172358"><path d="M38.125 31.525a3.44 3.44 0 00-.748-1.15 4.138 4.138 0 00-1.182-.831 5.732 5.732 0 00-1.083-.384c1.586-.574 2.453-1.748 2.453-3.347 0-.588-.116-1.125-.346-1.596a3.253 3.253 0 00-1.001-1.191 4.71 4.71 0 00-1.581-.755A8.074 8.074 0 0032.544 22H27v15h6.179c1.576 0 2.889-.39 3.799-1.083.92-.701 1.407-1.73 1.407-2.952a3.958 3.958 0 00-.26-1.44zm-2.104 1.496c0 1.9-1.315 2.979-3.518 2.979H29v-6h3.503c2.203 0 3.518 1.094 3.518 3.021zM29 29v-6h2.889c2.171 0 3.416 1.228 3.416 3.011 0 1.769-1.238 2.989-3.396 2.989H29zM51.315 31.71a3.497 3.497 0 00-.879-1.176c-.762-.689-1.869-1.248-3.408-1.927-1.298-.566-2.323-1.013-3.003-1.524-.698-.526-.996-1.087-.996-1.877 0-1.442 1.026-2.303 2.743-2.303l.117.001c2.007.038 3.111 1.191 3.111 3.244V27h2.325l-.002-.491c-.021-1.37-.502-2.614-1.428-3.339-.926-.725-2.28-1.183-4.023-1.183-1.694 0-2.992.302-3.859.987-.839.663-1.264 1.603-1.264 2.84 0 .593.102 1.089.311 1.541.194.42.482.787.881 1.134.747.65 1.833 1.159 3.091 1.751l.164.076c3.078 1.452 4.115 1.941 4.115 3.432 0 2.134-1.884 2.365-2.776 2.365-2.745 0-3.533-1.893-3.533-3.663V32h-2.686l.005.293c.053 1.498.591 2.743 1.599 3.539 1.015.801 2.483 1.248 4.364 1.248 1.75 0 3.095-.324 3.998-1.002.883-.664 1.33-1.62 1.33-2.863-.002-.575-.099-1.06-.297-1.505zM64.486 31.525a3.44 3.44 0 00-.748-1.15 4.138 4.138 0 00-1.182-.831 5.732 5.732 0 00-1.083-.384c1.586-.574 2.453-1.748 2.453-3.347 0-.588-.116-1.125-.346-1.596a3.253 3.253 0 00-1.001-1.191 4.71 4.71 0 00-1.581-.755A8.082 8.082 0 0058.904 22H54v15h5.539c1.576 0 2.889-.39 3.799-1.083.92-.701 1.407-1.73 1.407-2.952a3.98 3.98 0 00-.259-1.44zM58.269 29H56v-6h2.249c2.171 0 3.416 1.228 3.416 3.011 0 1.769-1.238 2.989-3.396 2.989zm4.113 4.021c0 1.9-1.315 2.979-3.518 2.979H56v-6h2.863c2.203 0 3.519 1.094 3.519 3.021z"/></g><path fill="#172358" d="M0 22h23v23H0z"/><path fill="#FFF" d="M12.011 43.87l-1.008-8.099-3.707 2.425 2.429-3.704-8.097-1.012 8.099-1.008-2.425-3.707 3.704 2.429 1.013-8.097 1.008 8.099 3.707-2.425-2.429 3.704 8.097 1.013-8.099 1.008 2.425 3.707-3.704-2.429-1.013 8.096zm-.95-8.224l.95 7.636.955-7.634 3.509 2.301-2.298-3.512 7.636-.95-7.634-.955 2.301-3.509-3.512 2.298-.95-7.636-.955 7.634-3.509-2.301 2.298 3.512-7.636.95 7.634.955-2.301 3.509 3.512-2.298z"/><g fill="#FFF"><path d="M12.955 32.537l.788.111 1.7-2.593-2.597 1.699zM12.954 34.424l-.109.783 2.594 1.702-1.697-2.595zM11.069 32.536l.11-.786-2.59-1.699 1.698 2.595zM11.068 34.423l-.783-.109-1.7 2.591 2.592-1.696z"/></g><path fill="#FFF" d="M18.828 33.483l-5.98-.838-.001-.006-.833-5.976-.838 5.981-.006.001-5.976.833 5.981.838.001.006.833 5.975.838-5.98.006-.001z"/><path fill="#172358" d="M12.847 34.317l4.011-.834-4.01-.838-.834-4.011-.838 4.01-4.011.833 4.01.838.834 4.012z"/></g></switch></svg>