<svg id="Layer_1" data-name="Layer 1" xmlns="http://www.w3.org/2000/svg" viewBox="0 0 65 65"><defs><style>.cls-1{fill:none;}.cls-2{fill:#0a0d15;}.cls-3{fill:#ffb41d;}</style></defs><title>Capitalfunds  - Max-EcoSales -App</title><rect class="cls-1" width="65" height="65"/><path class="cls-2" d="M40.91,11.43c-.87,1.36-1.74,2.72-2.6,4.1A318.71,318.71,0,0,0,16.45,57.38h8a284.3,284.3,0,0,1,16-41.85c.65-1.37,1.32-2.74,2-4.1Q45.15,6.12,48,.92,44.36,6.08,40.91,11.43Z"/><path class="cls-2" d="M33,16.88c-1,1.19-2,2.4-3,3.61a291.44,291.44,0,0,0-22.42,32v4.88h5.3A272,272,0,0,1,32.54,20.49c.77-1.21,1.56-2.42,2.35-3.61Q38.33,11.68,42,6.69,37.42,11.63,33,16.88Z"/><path class="cls-2" d="M42,16.25c-.59,1.22-1.16,2.44-1.73,3.67A238.91,238.91,0,0,0,26.67,57.38h6.51A213.22,213.22,0,0,1,41.92,20q.63-1.89,1.29-3.78,1.57-4.46,3.34-8.84Q44.21,11.78,42,16.25Z"/><path class="cls-3" d="M51.8.88,50,6.05h8.94V58.94H6.06V6.06H38.41L42.9.88H.87V63.73l.71.4H64.13V.88Z"/><path class="cls-2" d="M43.24,51.8v2.05h2.07V51.8H44.6l.16-.77h.39a.85.85,0,0,1,.61.17,1,1,0,0,1,.16.65V53.8a.91.91,0,0,1-.16.64.85.85,0,0,1-.61.17H43.42a.87.87,0,0,1-.61-.17.91.91,0,0,1-.16-.64V51.85a1,1,0,0,1,.16-.65.87.87,0,0,1,.61-.17h.31l.12.77Z"/><path class="cls-2" d="M45.92,50.58l-3.27-1.85V48l3.27-1.88V47l-.71.4v2.07l.71.38Zm-1.3-1.46V47.68l-1.33.71Z"/><path class="cls-2" d="M45.92,45.45H42.65v-2.8a.88.88,0,0,1,.15-.57.63.63,0,0,1,.49-.17H44a.62.62,0,0,1,.48.17.88.88,0,0,1,.15.57V44.7h1.27ZM43.22,43V44.7h.86V43a.58.58,0,0,0,0-.28.29.29,0,0,0-.21-.07h-.35a.28.28,0,0,0-.2.07A.58.58,0,0,0,43.22,43Z"/><path class="cls-2" d="M45.92,41.12H42.65v-.77h3.27Z"/><path class="cls-2" d="M43.24,37.54h2.68v.76H43.24v1.5h-.59V36h.59Z"/><path class="cls-2" d="M45.92,36.53l-3.27-1.85V34l3.27-1.88v.86l-.71.39V35.4l.71.38Zm-1.3-1.46V33.64l-1.33.7Z"/><path class="cls-2" d="M45.92,31.4H42.65v-.76h2.66V28.18h.61Z"/><path class="cls-2" d="M55,54.59H48.83V48.36h1.08v4.8h1.62v-2.6h1.13v2.6H55Z"/><path class="cls-2" d="M48.83,45.62h5V41.53h-5V40.1h4.71a1.6,1.6,0,0,1,1.15.31A1.76,1.76,0,0,1,55,41.63v3.9a1.74,1.74,0,0,1-.31,1.21,1.6,1.6,0,0,1-1.15.32H48.83Z"/><path class="cls-2" d="M55,37.43H48.83v-1l3.64-4.34a4.75,4.75,0,0,1,.34-.39c.11-.11.22-.22.33-.31l-.74.05H48.83V30.18H55v1l-3.81,4.53-.26.28a2.55,2.55,0,0,1-.24.23l.54,0,.44,0H55Z"/><path class="cls-2" d="M55,27.51H48.83v-4a3.86,3.86,0,0,1,.8-2.61A2.8,2.8,0,0,1,51.88,20a3.43,3.43,0,0,1,1.55.35,2.73,2.73,0,0,1,1.09,1,2.94,2.94,0,0,1,.37,1A9.08,9.08,0,0,1,55,23.91Zm-1.16-1.43V24.22a3.66,3.66,0,0,0-.46-2.1,1.8,1.8,0,0,0-1.53-.62,1.89,1.89,0,0,0-1.43.51,2.17,2.17,0,0,0-.49,1.52v2.55Z"/><path class="cls-2" d="M49.91,12.52v4h1.33V12.71a1.82,1.82,0,0,1,.3-1.22,1.61,1.61,0,0,1,1.15-.32h.85a1.61,1.61,0,0,1,1.15.32A1.76,1.76,0,0,1,55,12.71v3.81a1.79,1.79,0,0,1-.31,1.23,1.62,1.62,0,0,1-1.15.31h-.17l-.26-1.26h.73V12.44H52.43v3.84a1.76,1.76,0,0,1-.31,1.22,1.6,1.6,0,0,1-1.15.31h-.68a1.62,1.62,0,0,1-1.15-.31,1.76,1.76,0,0,1-.31-1.22v-3.5a1.81,1.81,0,0,1,.3-1.2,1.39,1.39,0,0,1,1.06-.33h.12l.3,1.27Z"/></svg>