<svg width="65" height="65" viewBox="0 0 65 65" fill="none" xmlns="http://www.w3.org/2000/svg">
<path d="M33.1546 51.1413H31.6194C31.0217 51.1413 30.4995 50.7371 30.3497 50.1584L30.0277 48.9094L28.9176 49.5648C28.4014 49.8679 27.7471 49.7847 27.3244 49.3624L26.2389 48.2767C25.8162 47.8545 25.7326 47.1994 26.0355 46.684L26.6914 45.5731L25.4432 45.2514C24.8638 45.1014 24.4595 44.5793 24.4595 43.9814V42.4463C24.4595 41.8483 24.8638 41.326 25.4424 41.1762L26.6914 40.8543L26.036 39.7442C25.7324 39.2283 25.8159 38.5729 26.2392 38.1504L27.3241 37.0655C27.7471 36.6425 28.4027 36.5597 28.9171 36.8626L30.0277 37.518L30.3494 36.2698C30.4997 35.6903 31.0217 35.2861 31.6194 35.2861H33.1546C33.7523 35.2861 34.2743 35.6903 34.4243 36.269L34.7466 37.5182L35.8566 36.8629C36.3721 36.5592 37.0277 36.6422 37.4502 37.0658L38.5353 38.1507C38.9584 38.5737 39.0416 39.2288 38.738 39.744L38.0829 40.8543L39.3311 41.176C39.3313 41.176 39.3316 41.1762 39.3319 41.1762C39.9105 41.3263 40.3147 41.8483 40.3147 42.4463V43.9814C40.3147 44.5791 39.9105 45.1011 39.3319 45.2512L38.0829 45.5731L38.738 46.6832C39.0416 47.1989 38.9581 47.854 38.5353 48.2767L37.4499 49.3622C37.0276 49.7847 36.3731 49.8687 35.8571 49.565L34.7466 48.9094L34.4246 50.1577C34.2745 50.7371 33.7525 51.1413 33.1546 51.1413V51.1413ZM30.4319 47.2989C30.5142 47.2989 30.5967 47.3149 30.6749 47.3472C30.8592 47.4236 30.9969 47.582 31.0466 47.7752L31.5788 49.8408C31.5836 49.8585 31.6001 49.8718 31.6194 49.8718H33.1546C33.1739 49.8718 33.1906 49.8585 33.1954 49.84L33.7276 47.7752C33.7774 47.582 33.915 47.4236 34.0993 47.3472C34.2839 47.2702 34.4932 47.2855 34.665 47.3868L36.5018 48.4712C36.5178 48.4803 36.5389 48.4778 36.5523 48.4646L37.6378 47.3792C37.6515 47.3654 37.654 47.3444 37.6441 47.3279L36.5602 45.4916C36.4589 45.3197 36.4442 45.1103 36.5206 44.9259C36.597 44.7416 36.7555 44.604 36.9487 44.5542L39.0142 44.022C39.032 44.0172 39.0452 44.0007 39.0452 43.9814V42.4463C39.0452 42.427 39.032 42.41 39.0135 42.4051L36.9487 41.8732C36.7555 41.8234 36.597 41.6858 36.5206 41.5015C36.4442 41.3172 36.4589 41.1077 36.5602 40.9358L37.6444 39.099C37.654 39.083 37.6512 39.062 37.6378 39.0483L36.5523 37.9631C36.5386 37.9494 36.5181 37.9471 36.5016 37.9565L34.665 39.0406C34.4934 39.1417 34.2842 39.1572 34.0993 39.0802C33.915 39.0038 33.7774 38.8454 33.7276 38.6522L33.1952 36.5866C33.1904 36.5689 33.1739 36.5557 33.1546 36.5557H31.6194C31.6001 36.5557 31.5834 36.5689 31.5786 36.5874L31.0466 38.6522C30.9969 38.8454 30.8592 39.0038 30.6749 39.0802C30.4901 39.1564 30.2808 39.1414 30.1092 39.0406L28.2724 37.9565C28.2562 37.9471 28.2351 37.9496 28.2217 37.9631L27.1365 39.0483C27.1228 39.0622 27.1202 39.0833 27.1299 39.0995L28.214 40.9358C28.3154 41.1074 28.3301 41.3169 28.2537 41.5015C28.1772 41.6858 28.0188 41.8234 27.8256 41.8732L25.76 42.4054C25.7423 42.4102 25.7291 42.427 25.7291 42.4463V43.9814C25.7291 44.0007 25.7423 44.0174 25.7608 44.0223L27.8256 44.5542C28.0188 44.604 28.1772 44.7416 28.2537 44.9259C28.3301 45.1105 28.3154 45.32 28.214 45.4916L27.1296 47.3284C27.1202 47.3444 27.123 47.3654 27.1362 47.3789L28.2217 48.4646C28.2354 48.4778 28.2565 48.4809 28.2732 48.4707L30.1092 47.3868C30.2085 47.3286 30.32 47.2989 30.4319 47.2989V47.2989Z" fill="#65C1D6"/>
<path d="M53.6379 44.7875C54.4956 43.8359 54.989 42.5885 54.989 41.2572C54.989 38.3477 52.6218 35.9806 49.7123 35.9806C46.8028 35.9806 44.4356 38.3477 44.4356 41.2572C44.4356 42.5885 44.9289 43.8359 45.7866 44.7875C43.0254 45.1026 40.873 47.4541 40.873 50.2983V53.8647H24.1267V50.2983C24.1267 47.4541 21.9743 45.1026 19.2131 44.7875C20.0708 43.8359 20.5641 42.5885 20.5641 41.2572C20.5641 38.3477 18.1969 35.9806 15.2874 35.9806C12.3779 35.9806 10.0107 38.3477 10.0107 41.2572C10.0107 42.5885 10.5041 43.8359 11.3618 44.7875C8.60054 45.1026 6.44818 47.4541 6.44818 50.2983V57.9091C6.44818 58.2598 6.7323 58.5439 7.08295 58.5439H23.4916C23.8423 58.5439 24.1264 58.2598 24.1264 57.9091V55.1342H40.8728V57.9091C40.8728 58.2598 41.1569 58.5439 41.5076 58.5439H57.9162C58.2669 58.5439 58.551 58.2598 58.551 57.9091V50.2983C58.5515 47.4541 56.3992 45.1026 53.6379 44.7875V44.7875ZM22.8571 57.2741H7.71797V50.2981C7.71797 47.9395 9.63674 46.0208 11.995 46.0208H13.1648C13.4578 46.0208 13.7127 45.8202 13.7818 45.5356C13.8508 45.2509 13.716 44.9559 13.4555 44.8216C12.1138 44.1304 11.2805 42.7644 11.2805 41.2567C11.2805 39.0472 13.0782 37.2496 15.2877 37.2496C17.4972 37.2496 19.2948 39.0472 19.2948 41.2567C19.2948 42.7644 18.4615 44.1304 17.1199 44.8216C16.8594 44.9556 16.7245 45.2507 16.7936 45.5356C16.8627 45.8204 17.1173 46.0208 17.4106 46.0208H18.5803C20.9386 46.0208 22.8574 47.9395 22.8574 50.2981V57.2741H22.8571ZM57.282 57.2741H42.1428V50.2981C42.1428 47.9395 44.0616 46.0208 46.4199 46.0208H47.5896C47.8826 46.0208 48.1376 45.8202 48.2066 45.5356C48.2757 45.2509 48.1409 44.9559 47.8803 44.8216C46.5387 44.1304 45.7054 42.7644 45.7054 41.2567C45.7054 39.0472 47.503 37.2496 49.7125 37.2496C51.922 37.2496 53.7197 39.0472 53.7197 41.2567C53.7197 42.7644 52.8864 44.1304 51.5447 44.8216C51.2842 44.9556 51.1494 45.2507 51.2185 45.5356C51.2875 45.8204 51.5422 46.0208 51.8354 46.0208H53.0052C55.3635 46.0208 57.2822 47.9395 57.2822 50.2981V57.2741H57.282Z" fill="#846F75"/>
<path d="M15.2877 34.7107C15.6383 34.7107 15.9224 34.4266 15.9224 34.076V30.2339C15.9224 28.8844 17.0203 27.7862 18.3701 27.7862H21.6244V33.377C21.6244 33.7276 21.9085 34.0117 22.2592 34.0117H42.5148C42.8654 34.0117 43.1496 33.7276 43.1496 33.377V27.7862H46.6298C47.9794 27.7862 49.0775 28.8841 49.0775 30.2339V34.076C49.0775 34.4266 49.3616 34.7107 49.7123 34.7107C50.0629 34.7107 50.347 34.4266 50.347 34.076V30.2339C50.347 28.1843 48.6796 26.5167 46.6298 26.5167H43.1496V23.9819C43.1496 20.444 40.3926 17.5383 36.9141 17.2999C38.0768 16.1279 38.7519 14.5321 38.7519 12.8212C38.7519 9.31176 35.8965 6.45633 32.387 6.45633C28.8775 6.45633 26.0221 9.31176 26.0221 12.8212C26.0221 14.5318 26.6974 16.1276 27.8596 17.2999C24.3813 17.5383 21.6241 20.4443 21.6241 23.9819V26.5167H18.3701C16.3205 26.5167 14.6529 28.1841 14.6529 30.2339V34.076C14.6529 34.4266 14.937 34.7107 15.2877 34.7107V34.7107ZM22.8939 23.9819C22.8939 20.9886 25.3294 18.5534 28.3227 18.5534H29.7669C30.0599 18.5534 30.3148 18.3528 30.3839 18.0682C30.453 17.7836 30.3181 17.4886 30.0576 17.3542C28.3516 16.4755 27.2918 14.7385 27.2918 12.821C27.2918 10.0115 29.5778 7.72561 32.3872 7.72561C35.1967 7.72561 37.4826 10.0115 37.4826 12.821C37.4826 14.7382 36.4228 16.4755 34.7168 17.3542C34.4563 17.4883 34.3215 17.7833 34.3905 18.0682C34.4596 18.3531 34.7143 18.5534 35.0075 18.5534H36.4518C39.4451 18.5534 41.8803 20.9886 41.8803 23.9819V32.7422H22.8939V23.9819Z" fill="#846F75"/>
<path d="M29.3259 43.2136C29.3259 44.9015 30.699 46.2749 32.3872 46.2749C34.0754 46.2749 35.4486 44.9018 35.4486 43.2136C35.4486 41.5253 34.0754 40.1522 32.3872 40.1522C30.699 40.1522 29.3259 41.5256 29.3259 43.2136ZM34.1788 43.2136C34.1788 44.2015 33.3749 45.0054 32.387 45.0054C31.399 45.0054 30.5951 44.2015 30.5951 43.2136C30.5951 42.2256 31.399 41.4218 32.387 41.4218C33.3749 41.4218 34.1788 42.2259 34.1788 43.2136Z" fill="#846F75"/>
<path d="M35.2036 30.9662C34.9761 30.9662 34.7486 30.8956 34.5543 30.7547L32.5 29.2614L30.4456 30.7544C30.0569 31.0365 29.5351 31.0368 29.1464 30.7542C28.7582 30.4721 28.5969 29.9757 28.7452 29.5189L29.53 27.104L27.4754 25.6113C27.087 25.3289 26.9257 24.8326 27.0743 24.3758C27.2225 23.919 27.645 23.6123 28.1252 23.6123H30.6645L31.4493 21.1971C31.5976 20.7406 32.0198 20.4336 32.5002 20.4336C32.9806 20.4336 33.4029 20.7406 33.5512 21.1971L34.336 23.6123H36.8753C37.3554 23.6123 37.7779 23.919 37.9262 24.3758C38.0747 24.8326 37.9135 25.3289 37.525 25.6113L35.4704 27.104L36.2552 29.5192C36.4035 29.9757 36.2423 30.4721 35.8541 30.7542C35.6591 30.8956 35.4316 30.9659 35.2036 30.9662ZM28.6315 24.8818L30.373 26.147C30.7615 26.4291 30.923 26.9258 30.7742 27.3825L30.1092 29.4295L31.8502 28.1643C32.239 27.8822 32.761 27.8822 33.1492 28.1643L34.8905 29.4295L34.2253 27.3823C34.0767 26.9258 34.2382 26.4291 34.627 26.147L36.3682 24.8818H34.2154C33.735 24.8818 33.3127 24.5751 33.1645 24.1183L32.5 22.0716L31.835 24.1186C31.6867 24.5753 31.2645 24.8821 30.7841 24.8821H28.6315V24.8818ZM36.8748 24.8818H36.8773H36.8748Z" fill="#65C1D6"/>
</svg>
