<svg xmlns="http://www.w3.org/2000/svg" viewBox="0 0 65 65"><defs><style>.cls-1{fill:none;}.cls-2{fill:#262261;}.cls-3{opacity:0.1;}</style></defs><title>cmarket 65x65Asset 2</title><g id="Layer_2" data-name="Layer 2"><g id="Layer_1-2" data-name="Layer 1"><rect class="cls-1" width="65" height="65"/><rect class="cls-1" width="65" height="65"/><rect class="cls-2" x="1.19" y="26.56" width="0.96" height="2.95" rx="0.4"/><rect class="cls-2" x="5.64" y="27.91" width="1.15" height="1.59" rx="0.4"/><rect class="cls-2" x="10.1" y="24.62" width="1.34" height="4.89" rx="0.4"/><rect class="cls-2" x="14.56" y="25.59" width="1.54" height="3.92" rx="0.4"/><rect class="cls-2" x="19.02" y="26.9" width="1.73" height="2.61" rx="0.4"/><rect class="cls-2" x="23.48" y="25.81" width="1.92" height="3.7" rx="0.4"/><rect class="cls-2" x="27.94" y="25.11" width="2.11" height="4.4" rx="0.4"/><rect class="cls-2" x="32.4" y="26.9" width="2.3" height="2.61" rx="0.4"/><rect class="cls-2" x="36.85" y="24.62" width="2.49" height="4.89" rx="0.4"/><path class="cls-2" d="M8,33a.41.41,0,0,1-.67.3,3,3,0,0,0-2.12-.8A3,3,0,0,0,3,33.42a3.21,3.21,0,0,0-.9,2.33,3.32,3.32,0,0,0,.88,2.34,3,3,0,0,0,2.2.92,3.11,3.11,0,0,0,1.45-.32,4.56,4.56,0,0,0,.77-.57.4.4,0,0,1,.66.3v.83a.38.38,0,0,1-.2.35,5.08,5.08,0,0,1-2.62.78,4.6,4.6,0,0,1-3.33-1.32A4.43,4.43,0,0,1,.51,35.77a4.54,4.54,0,0,1,1.33-3.31,4.6,4.6,0,0,1,3.37-1.35,5.15,5.15,0,0,1,2.54.7.42.42,0,0,1,.21.36Z"/><path class="cls-2" d="M10.33,39.73v-8a.4.4,0,0,1,.4-.4h.72a.4.4,0,0,1,.4.4v.56A2.59,2.59,0,0,1,14,31.09a2.52,2.52,0,0,1,2.41,1.43A2.79,2.79,0,0,1,19,31.09a2.61,2.61,0,0,1,2.22,1,3.89,3.89,0,0,1,.64,2.48v5.2a.4.4,0,0,1-.4.41h-.7a.4.4,0,0,1-.4-.41V34.78c0-1.64-.47-2.32-1.58-2.32s-1.9.92-1.9,2.77v4.5a.4.4,0,0,1-.4.41h-.72a.41.41,0,0,1-.41-.41V34.89c0-1.62-.54-2.43-1.61-2.43q-1.92,0-1.92,2.88v4.39a.4.4,0,0,1-.4.41h-.72A.4.4,0,0,1,10.33,39.73Z"/><path class="cls-2" d="M31.92,31.3h.72a.4.4,0,0,1,.41.4v8a.41.41,0,0,1-.41.41h-.72a.4.4,0,0,1-.4-.41v-.82a3.84,3.84,0,0,1-3,1.47,3.93,3.93,0,0,1-3.05-1.32,4.78,4.78,0,0,1-1.21-3.36,4.65,4.65,0,0,1,1.19-3.31,4.07,4.07,0,0,1,6.11.17V31.7A.4.4,0,0,1,31.92,31.3Zm-5.34,6.77a2.65,2.65,0,0,0,2.08.94,2.68,2.68,0,0,0,2.13-.92,3.49,3.49,0,0,0,.83-2.37,3.39,3.39,0,0,0-.83-2.34,2.83,2.83,0,0,0-4.18,0,3.23,3.23,0,0,0-.84,2.28A3.57,3.57,0,0,0,26.58,38.07Z"/><path class="cls-2" d="M35.94,39.73v-8a.4.4,0,0,1,.4-.4h.72a.4.4,0,0,1,.41.4v.56a4.34,4.34,0,0,1,1-.94,2.13,2.13,0,0,1,1-.23,2.89,2.89,0,0,1,1.35.38l-.73,1.37a1.43,1.43,0,0,0-.87-.3c-1.22,0-1.74.88-1.74,2.93v4.26a.41.41,0,0,1-.41.41h-.72A.4.4,0,0,1,35.94,39.73Z"/><path class="cls-2" d="M42.78,24.62h.72a.4.4,0,0,1,.4.4v9.55L47,31.42a.38.38,0,0,1,.28-.12h.87a.4.4,0,0,1,.29.68l-3.09,3.08,3.9,4.41a.4.4,0,0,1-.3.67H48a.37.37,0,0,1-.3-.14l-3.46-3.89-.37.4v3.22a.4.4,0,0,1-.4.41h-.72a.41.41,0,0,1-.41-.41V25A.4.4,0,0,1,42.78,24.62Z"/><path class="cls-2" d="M58.41,36h-6.5a2.8,2.8,0,0,0,2.8,3,2.75,2.75,0,0,0,2.53-1.53.4.4,0,0,1,.53-.13l.58.32a.41.41,0,0,1,.14.58,4.4,4.4,0,0,1-3.83,2.13,4.14,4.14,0,0,1-3.15-1.28,4.69,4.69,0,0,1-1.2-3.33,4.87,4.87,0,0,1,1.17-3.36,4,4,0,0,1,3.1-1.3,4,4,0,0,1,3.05,1.28,4.83,4.83,0,0,1,1.18,3.24A.4.4,0,0,1,58.41,36Zm-1.22-1.28a2.64,2.64,0,0,0-2.59-2.28A2.7,2.7,0,0,0,52,34.76Z"/><path class="cls-2" d="M64.09,32.71H62.63v3.85c0,1.61.38,2.28,1.41,2.42a.4.4,0,0,1,.34.49l-.13.59a.42.42,0,0,1-.43.31q-2.72-.19-2.71-3.54V32.71h-.52a.39.39,0,0,1-.4-.4V31.7a.39.39,0,0,1,.4-.4h.52V28.52a.4.4,0,0,1,.4-.4h.72a.4.4,0,0,1,.4.4V31.3h1.46a.4.4,0,0,1,.4.4v.61A.4.4,0,0,1,64.09,32.71Z"/><g class="cls-3"><path class="cls-2" d="M23.41,29.86a1.13,1.13,0,0,1-1.86.85,8.26,8.26,0,0,0-5.94-2.24A8.32,8.32,0,0,0,9.39,31.1a9,9,0,0,0-2.53,6.54,9.22,9.22,0,0,0,2.48,6.53,8.22,8.22,0,0,0,6.16,2.58,8.53,8.53,0,0,0,4.06-.89,13.9,13.9,0,0,0,2.14-1.59,1.13,1.13,0,0,1,1.87.85v2.32a1.15,1.15,0,0,1-.56,1,14.33,14.33,0,0,1-7.35,2.18,13,13,0,0,1-9.33-3.69,12.42,12.42,0,0,1-3.79-9.22,12.64,12.64,0,0,1,3.74-9.28,12.82,12.82,0,0,1,9.43-3.79,14.25,14.25,0,0,1,7.12,2,1.12,1.12,0,0,1,.58,1Z"/><path class="cls-2" d="M30.05,48.79V26.27a1.12,1.12,0,0,1,1.12-1.12h2a1.13,1.13,0,0,1,1.13,1.12v1.56a7.3,7.3,0,0,1,6.11-3.26,7.07,7.07,0,0,1,6.75,4,7.83,7.83,0,0,1,7.27-4c2.79,0,4.85.89,6.22,2.69,1.21,1.52,1.79,3.84,1.79,7V48.79a1.13,1.13,0,0,1-1.12,1.13h-2a1.14,1.14,0,0,1-1.13-1.13V34.9c0-4.59-1.31-6.49-4.42-6.49-3.53,0-5.33,2.59-5.33,7.75V48.79a1.13,1.13,0,0,1-1.12,1.13h-2a1.13,1.13,0,0,1-1.12-1.13V35.21c0-4.53-1.53-6.8-4.54-6.8q-5.37,0-5.37,8.07V48.79a1.14,1.14,0,0,1-1.13,1.13h-2A1.13,1.13,0,0,1,30.05,48.79Z"/><rect class="cls-2" x="2.54" y="17.45" width="1.51" height="4.63" rx="0.63"/><rect class="cls-2" x="9.54" y="19.57" width="1.81" height="2.5" rx="0.63"/><rect class="cls-2" x="16.54" y="14.4" width="2.11" height="7.68" rx="0.63"/><rect class="cls-2" x="23.54" y="15.92" width="2.41" height="6.15" rx="0.63"/><rect class="cls-2" x="30.55" y="17.98" width="2.71" height="4.1" rx="0.63"/><rect class="cls-2" x="37.55" y="16.27" width="3.01" height="5.8" rx="0.63"/><rect class="cls-2" x="44.55" y="15.16" width="3.31" height="6.92" rx="0.63"/><rect class="cls-2" x="51.55" y="17.98" width="3.61" height="4.1" rx="0.63"/><rect class="cls-2" x="58.55" y="14.4" width="3.91" height="7.68" rx="0.63"/></g></g></g></svg>