<svg width="65" height="65" viewBox="0 0 65 65" fill="none" xmlns="http://www.w3.org/2000/svg">
<path d="M5.17588 48.6153V49.5985C4.67708 49.7842 4.18933 49.877 3.71249 49.877C2.92627 49.877 2.29925 49.644 1.83155 49.1778C1.36373 48.7117 1.12988 48.0872 1.12988 47.3043C1.12988 46.5141 1.35738 45.8769 1.81238 45.3925C2.26726 44.9083 2.86622 44.666 3.60877 44.666C3.86725 44.666 4.09919 44.6905 4.30485 44.7398C4.51052 44.7889 4.76442 44.8809 5.06657 45.0156V46.0753C4.56422 45.755 4.0983 45.5946 3.66882 45.5946C3.22105 45.5946 2.8534 45.7522 2.56585 46.0672C2.2783 46.3821 2.13459 46.7837 2.13459 47.2715C2.13459 47.785 2.29023 48.1929 2.6014 48.495C2.91256 48.7974 3.33214 48.9484 3.86001 48.9484C4.24214 48.9485 4.68076 48.8374 5.17588 48.6153Z" fill="#1AB99F" stroke="#1AB99F" stroke-width="0.5" stroke-miterlimit="10"/>
<path d="M10.9821 46.141V49.7897H9.98281V46.993C9.98281 46.4359 9.90816 46.0472 9.75886 45.8268C9.60956 45.6066 9.34931 45.4963 8.9781 45.4963C8.77053 45.4963 8.58036 45.5437 8.40745 45.6383C8.23454 45.7329 8.037 45.9004 7.81496 46.1407V49.7894H6.82117V44.7643H7.81496V45.4252C8.32086 44.9191 8.81598 44.6659 9.30005 44.6659C9.9371 44.6659 10.4303 44.9683 10.7798 45.5726C11.3112 44.961 11.8664 44.6549 12.4452 44.6549C12.9329 44.6549 13.3342 44.8334 13.6491 45.1902C13.9639 45.5472 14.1214 46.0916 14.1214 46.8235V49.7894H13.1276V46.8127C13.1276 46.3938 13.042 46.0735 12.871 45.8513C12.6999 45.6293 12.4542 45.5182 12.1339 45.5182C11.7228 45.5183 11.3388 45.7258 10.9821 46.141Z" fill="#1AB99F" stroke="#1AB99F" stroke-width="0.5" stroke-miterlimit="10"/>
<path d="M15.7893 46.5015C15.7893 45.9662 15.9849 45.5429 16.3763 45.2316C16.7676 44.9202 17.3018 44.7645 17.9789 44.7645H20.0482V45.5401H19.0326C19.2291 45.7404 19.3657 45.9225 19.4421 46.0864C19.5185 46.2502 19.5568 46.4379 19.5568 46.649C19.5568 46.9111 19.4821 47.1689 19.3328 47.4219C19.1835 47.675 18.9916 47.869 18.7568 48.0037C18.522 48.1384 18.137 48.2457 17.6019 48.3259C17.2269 48.3805 17.0395 48.5098 17.0395 48.7137C17.0395 48.8303 17.1096 48.9259 17.2498 49.0005C17.3899 49.0752 17.6438 49.1525 18.0115 49.2326C18.6266 49.3674 19.0224 49.4731 19.199 49.5494C19.3756 49.626 19.5348 49.7352 19.6769 49.8772C19.917 50.1175 20.0371 50.4196 20.0371 50.7839C20.0371 51.261 19.825 51.6414 19.401 51.9254C18.977 52.2094 18.41 52.3514 17.7002 52.3514C16.983 52.3514 16.4106 52.2085 15.983 51.9226C15.5552 51.6368 15.3414 51.2535 15.3414 50.7728C15.3414 50.0919 15.7619 49.6531 16.6027 49.4564C16.2678 49.2417 16.1003 49.0287 16.1003 48.8175C16.1003 48.6572 16.1722 48.5115 16.316 48.3805C16.4597 48.2494 16.6536 48.153 16.8976 48.091C16.1586 47.7633 15.7893 47.2334 15.7893 46.5015ZM17.4218 50.0246C17.0869 50.0246 16.813 50.0956 16.6 50.2376C16.387 50.3796 16.2806 50.5617 16.2806 50.7839C16.2806 51.3008 16.7465 51.5594 17.6784 51.5594C18.1188 51.5594 18.46 51.4948 18.7021 51.3656C18.9441 51.2362 19.0652 51.0533 19.0652 50.8167C19.0652 50.5835 18.9123 50.3934 18.6065 50.2458C18.3009 50.0983 17.9059 50.0246 17.4218 50.0246ZM17.6566 45.6276C17.3873 45.6276 17.1578 45.7187 16.9687 45.9007C16.7794 46.0828 16.6847 46.3012 16.6847 46.5561C16.6847 46.8147 16.7775 47.0286 16.9632 47.1979C17.1488 47.3673 17.3837 47.4519 17.6676 47.4519C17.9479 47.4519 18.1817 47.3654 18.3692 47.1924C18.5566 47.0195 18.6504 46.8038 18.6504 46.5451C18.6504 46.2831 18.5557 46.0645 18.3666 45.8898C18.1772 45.7149 17.9405 45.6276 17.6566 45.6276Z" fill="#1AB99F" stroke="#1AB99F" stroke-width="0.5" stroke-miterlimit="10"/>
<path d="M29.16 46.141V49.7897H28.1608V46.993C28.1608 46.4359 28.0861 46.0472 27.9368 45.8268C27.7875 45.6066 27.5273 45.4963 27.156 45.4963C26.9485 45.4963 26.7583 45.5437 26.5854 45.6383C26.4125 45.7329 26.2149 45.9004 25.9929 46.1407V49.7894H24.9991V44.7643H25.9929V45.4252C26.4988 44.9191 26.9939 44.6659 27.478 44.6659C28.1151 44.6659 28.6083 44.9683 28.9578 45.5726C29.4892 44.961 30.0444 44.6549 30.6231 44.6549C31.1109 44.6549 31.5122 44.8334 31.827 45.1902C32.1419 45.5472 32.2993 46.0916 32.2993 46.8235V49.7894H31.3055V46.8127C31.3055 46.3938 31.2199 46.0735 31.0489 45.8513C30.8778 45.6293 30.6321 45.5182 30.3118 45.5182C29.9006 45.5183 29.5167 45.7258 29.16 46.141Z" fill="#1AB99F" stroke="#1AB99F" stroke-width="0.5" stroke-miterlimit="10"/>
<path d="M37.3797 46.7691V48.9047C37.3797 49.0761 37.4378 49.1614 37.5544 49.1614C37.6745 49.1614 37.862 49.0723 38.1169 48.8938V49.5001C37.8912 49.6457 37.7101 49.7451 37.5737 49.7978C37.4372 49.8505 37.2942 49.877 37.1449 49.877C36.7191 49.877 36.4679 49.7097 36.3915 49.3745C35.9691 49.7022 35.5197 49.8661 35.0429 49.8661C34.6934 49.8661 34.4021 49.7506 34.1692 49.5193C33.9362 49.2881 33.8197 48.9977 33.8197 48.6481C33.8197 48.3313 33.9334 48.0481 34.1609 47.7987C34.3883 47.5493 34.7114 47.3517 35.1301 47.206L36.4023 46.7691V46.5015C36.4023 45.8971 36.1 45.5947 35.4958 45.5947C34.9535 45.5947 34.4256 45.8753 33.9123 46.436V45.3489C34.2982 44.8938 34.8533 44.6661 35.5777 44.6661C36.1199 44.6661 36.555 44.8081 36.8825 45.0922C36.9917 45.1833 37.0901 45.3043 37.1775 45.4553C37.2648 45.6064 37.3203 45.7577 37.344 45.9087C37.3678 46.0597 37.3797 46.3468 37.3797 46.7691ZM36.4023 48.7955V47.3044L35.7362 47.5611C35.3976 47.696 35.1581 47.8315 35.0181 47.968C34.8781 48.1045 34.808 48.2748 34.808 48.4787C34.808 48.6863 34.8743 48.8556 35.0072 48.9867C35.1401 49.1177 35.312 49.1832 35.5231 49.1832C35.84 49.1834 36.1329 49.0542 36.4023 48.7955Z" fill="#1AB99F" stroke="#1AB99F" stroke-width="0.5" stroke-miterlimit="10"/>
<path d="M40.6197 44.7645V45.9171L40.6744 45.8297C41.1548 45.0541 41.6353 44.6662 42.1158 44.6662C42.4906 44.6662 42.882 44.8556 43.2897 45.2344L42.7656 46.1083C42.4196 45.7807 42.0994 45.6167 41.8045 45.6167C41.4842 45.6167 41.2067 45.7697 40.9718 46.0756C40.737 46.3814 40.6197 46.7438 40.6197 47.1626V49.7899H39.6205V44.7648H40.6197V44.7645Z" fill="#1AB99F" stroke="#1AB99F" stroke-width="0.5" stroke-miterlimit="10"/>
<path d="M44.5423 42.159H45.5361V49.7897H44.5423V42.159ZM47.8122 44.7645H48.9922L46.8489 47.2225L49.4289 49.7897H48.0958L45.5796 47.2253L47.8122 44.7645Z" fill="#1AB99F" stroke="#1AB99F" stroke-width="0.5" stroke-miterlimit="10"/>
<path d="M54.4055 47.3645H50.8728C50.8982 47.845 51.0593 48.2274 51.3561 48.5114C51.6527 48.7954 52.0358 48.9375 52.5054 48.9375C53.1606 48.9375 53.7649 48.7337 54.3182 48.3257V49.2979C54.0125 49.5019 53.7093 49.6476 53.4091 49.7349C53.1088 49.8223 52.7565 49.866 52.3526 49.866C51.7993 49.866 51.3514 49.7513 51.0094 49.5218C50.6673 49.2923 50.3932 48.9839 50.1876 48.596C49.982 48.2081 49.879 47.7595 49.879 47.2495C49.879 46.4849 50.0956 45.8631 50.5287 45.3842C50.9619 44.9053 51.5243 44.6659 52.216 44.6659C52.8821 44.6659 53.4136 44.899 53.8104 45.3651C54.2071 45.8312 54.4055 46.4557 54.4055 47.2386V47.3645V47.3645ZM50.8946 46.7691H53.4226C53.3971 46.3722 53.2788 46.0664 53.0678 45.8514C52.8566 45.6366 52.5727 45.5292 52.216 45.5292C51.8591 45.5292 51.5671 45.6366 51.3396 45.8514C51.1121 46.0664 50.9638 46.3722 50.8946 46.7691Z" fill="#1AB99F" stroke="#1AB99F" stroke-width="0.5" stroke-miterlimit="10"/>
<path d="M55.3358 45.562L57.2032 43.7267V44.7645H58.7921V45.6604H57.2032V48.1197C57.2032 48.694 57.4416 48.9813 57.9186 48.9813C58.2753 48.9813 58.6518 48.8629 59.0487 48.6262V49.5548C58.6664 49.7697 58.2496 49.8772 57.7983 49.8772C57.3432 49.8772 56.9648 49.7442 56.6626 49.4784C56.5679 49.3982 56.4897 49.3081 56.4277 49.208C56.3659 49.1078 56.314 48.9767 56.2721 48.8147C56.2302 48.6528 56.2094 48.344 56.2094 47.8889V45.6603H55.3357V45.562H55.3358Z" fill="#1AB99F" stroke="#1AB99F" stroke-width="0.5" stroke-miterlimit="10"/>
<path d="M60.0774 49.4291V48.3585C60.3577 48.5552 60.6444 48.7145 60.9374 48.8365C61.2304 48.9586 61.4769 49.0194 61.6773 49.0194C61.8847 49.0194 62.0629 48.9685 62.2124 48.8665C62.3615 48.7645 62.4362 48.6425 62.4362 48.5005C62.4362 48.355 62.3879 48.2338 62.2915 48.1374C62.195 48.041 61.9866 47.9017 61.6662 47.7194C61.0256 47.3626 60.606 47.0577 60.4077 46.8045C60.2093 46.5516 60.1101 46.2757 60.1101 45.977C60.1101 45.5911 60.2603 45.276 60.5606 45.0321C60.8608 44.7883 61.2476 44.6661 61.7209 44.6661C62.2124 44.6661 62.7165 44.8046 63.2333 45.0813V46.0645C62.6436 45.7076 62.1613 45.5292 61.7864 45.5292C61.5935 45.5292 61.438 45.5702 61.3196 45.6523C61.2012 45.7343 61.1423 45.8428 61.1423 45.9776C61.1423 46.0945 61.1959 46.2056 61.303 46.3113C61.4101 46.4171 61.5985 46.5444 61.8679 46.6937L62.2229 46.8957C63.0604 47.3691 63.4792 47.8932 63.4792 48.4684C63.4792 48.8797 63.3181 49.2174 62.996 49.4814C62.6738 49.7453 62.2597 49.8773 61.7538 49.8773C61.4552 49.8773 61.1896 49.8453 60.9567 49.7817C60.7237 49.718 60.4304 49.6004 60.0774 49.4291Z" fill="#1AB99F" stroke="#1AB99F" stroke-width="0.5" stroke-miterlimit="10"/>
<path d="M14.8666 14.9275C13.3948 14.9275 12.0192 15.1603 10.7398 15.6251C9.46029 16.0903 8.3497 16.7845 7.40834 17.7081C6.46673 18.6318 5.72418 19.7782 5.18057 21.1472C4.63696 22.5163 4.3654 24.1115 4.3654 25.9323C4.3654 27.7402 4.61703 29.3092 5.12103 30.6387C5.62478 31.9687 6.34054 33.0691 7.2687 33.9402C8.1966 34.8116 9.31353 35.4567 10.6192 35.8758C11.925 36.2953 13.3798 36.5046 14.9839 36.5046C15.4212 36.5046 15.8854 36.4819 16.3758 36.4359C16.8662 36.3902 17.3598 36.3246 17.8571 36.2393C18.3544 36.1542 18.8381 36.056 19.3089 35.9445C19.7795 35.8334 20.2003 35.7121 20.5717 35.5811V38.4109C19.7988 38.7124 18.902 38.9445 17.8805 39.1085C16.859 39.272 15.8111 39.3541 14.7375 39.3541C12.5502 39.3541 10.6123 39.0495 8.92289 38.4403C7.23353 37.8311 5.81572 36.9567 4.66997 35.817C3.52383 34.6772 2.65649 33.2853 2.06717 31.641C1.47786 29.9971 1.1832 28.1333 1.1832 26.0504C1.1832 24.0067 1.49411 22.1268 2.1163 20.4104C2.73787 18.694 3.63504 17.2202 4.80733 15.9885C5.97923 14.7573 7.40035 13.7974 9.07003 13.1097C10.7397 12.4219 12.6158 12.078 14.6981 12.078C15.2482 12.078 15.7914 12.101 16.3286 12.1468C16.8655 12.1929 17.3795 12.2582 17.8707 12.3433C18.3617 12.4286 18.8166 12.53 19.2359 12.6478C19.6549 12.7657 20.0149 12.8904 20.3163 13.0212V15.851C19.5207 15.589 18.6521 15.3696 17.7107 15.1926C16.7694 15.0157 15.8211 14.9275 14.8666 14.9275Z" fill="#056855" stroke="#056855" stroke-miterlimit="10"/>
<path d="M36.43 38.6158H34.8683L27.8512 22.9146C26.8794 20.7529 25.9076 18.4015 24.9361 15.8598H24.7696C24.9638 19.5149 25.061 22.8624 25.061 25.9016V38.6158H21.6671V12.3226H26.5604L33.1191 27.1984C33.8688 28.9018 34.6945 30.9519 35.597 33.3494H35.7011C36.7006 30.69 37.5263 28.6399 38.1789 27.1984L44.7379 12.3226H48.0788C48.0788 12.3226 44.363 20.8972 43.4468 22.9146L36.43 38.6158Z" fill="#1AB99F" stroke="#1AB99F" stroke-miterlimit="10"/>
<path d="M49.9934 16.1535C50.496 15.9107 51.0231 15.7015 51.576 15.5275C53.0127 15.0756 54.5222 14.8495 56.1048 14.8495C57.1876 14.8495 58.094 14.9379 59.1768 15.1148C60.2596 15.2916 61.3662 15.5112 61.874 15.773V12.9434C61.874 12.8125 61.3351 12.6878 60.8634 12.57C60.3913 12.452 59.9658 12.3508 59.4106 12.2653C58.8553 12.1803 58.3163 12.1149 57.7057 12.0688C57.0946 12.023 56.5061 12 55.8953 12C54.4475 12 53.0898 12.1398 51.7983 12.4161L49.9934 16.1535Z" fill="#056855" stroke="#056855" stroke-miterlimit="10"/>
<path d="M53.4951 24.862V27.656H59.7158V35.9746C59.7158 36.1189 58.5907 36.2302 57.8101 36.3088C57.0294 36.3873 56.3247 36.4265 55.5231 36.4265C53.7928 36.4265 52.2638 36.2201 50.8502 35.8075C49.4367 35.3949 48.2558 34.7561 47.2641 33.8916C46.2725 33.0268 45.5164 31.9331 44.9751 30.6098C44.6417 29.7951 44.4172 28.8854 44.2891 27.882L42.096 32.401C42.7116 33.6823 43.5345 34.7965 44.568 35.7387C45.8033 36.8655 47.3345 37.7368 49.1599 38.3523C50.9851 38.9678 53.0921 39.2759 55.4798 39.2759C56.2847 39.2759 57.1006 39.2366 57.9266 39.158C58.7524 39.0794 59.5264 38.9745 60.2484 38.8436C60.97 38.7128 61.647 38.5719 62.2093 38.4212C62.7715 38.2705 63.5246 38.1233 63.5246 37.979V24.862H53.4951Z" fill="#056855" stroke="#056855" stroke-miterlimit="10"/>
<path d="M1 41.118H62.6992" stroke="#056855" stroke-width="3" stroke-miterlimit="10"/>
</svg>
