<?xml version="1.0" encoding="UTF-8"?>
<svg width="65px" height="65px" viewBox="0 0 65 65" version="1.1" xmlns="http://www.w3.org/2000/svg" xmlns:xlink="http://www.w3.org/1999/xlink">
    <!-- Generator: Sketch 54.1 (76490) - https://sketchapp.com -->
    <title>BO_Brand_header_logo</title>
    <desc>Created with Sketch.</desc>
    <g id="BO_Brand_header_logo" stroke="none" stroke-width="1" fill="none" fill-rule="evenodd">
        <g id="Group" transform="translate(11.000000, 1.000000)" fill-rule="nonzero">
            <path d="M33.5488172,63.6329412 C40.2300942,53.7878289 43.7340386,42.1502263 43.5931183,30.2729412 L33.8989247,30.7435294 C33.9434903,42.4649408 30.440307,53.9283704 23.8451613,63.6423529 L33.5488172,63.6329412 Z" id="Path" fill="#100E2D"></path>
            <path d="M20.6752688,41.5294118 C19.3244943,49.4240261 16.3443293,56.9547681 11.9225806,63.6470588 L21.6262366,63.6470588 C34.361604,44.3384131 34.4210005,19.3683704 21.7776344,0 L12.2537634,0.268235294 C20.1604473,12.486189 23.1660114,27.2119543 20.6752688,41.5294118 L20.6752688,41.5294118 Z" id="Path" fill="#F15A24"></path>
            <path d="M8.30322581,42.2070588 C6.99859339,49.8280134 4.17554408,57.1126909 8.52651283e-14,63.6329412 L9.70365591,63.6329412 C18.1569892,50.3947795 20.8972612,34.3294062 17.3066667,19.0588235 L7.71182796,19.5294118 C9.40851957,26.9761244 9.6094995,34.6828688 8.30322581,42.2070588 L8.30322581,42.2070588 Z" id="Path" fill="#009EE2"></path>
        </g>
    </g>
</svg>