<svg id="Layer_1" data-name="Layer 1" xmlns="http://www.w3.org/2000/svg" viewBox="0 0 65 65"><defs><style>.cls-1{fill:#fff;}.cls-2{fill:#3199d5;}</style></defs><path class="cls-1" d="M42.43,15.94H37.17L35.39,26h5.88a12.55,12.55,0,0,1,0,25.09H30.93l-1.78,10H42.43A22.58,22.58,0,0,0,65,38.51h0A22.58,22.58,0,0,0,42.43,15.94Z"/><path class="cls-2" d="M29.21,13.94h8.4l1.78-10H28.05A22.6,22.6,0,0,0,6.9,18.57H1.45L0,26.59H5.48A21.4,21.4,0,0,0,5.62,29H2.35L.91,37H8.09a22.57,22.57,0,0,0,20,12h3.33l1.78-10H29.21a12.55,12.55,0,0,1,0-25.09Z"/></svg>
