<?xml version="1.0" encoding="UTF-8"?>
<svg width="65px" height="65px" viewBox="0 0 65 65" version="1.1" xmlns="http://www.w3.org/2000/svg" xmlns:xlink="http://www.w3.org/1999/xlink">
    <!-- Generator: Sketch 53.2 (72643) - https://sketchapp.com -->
    <title>BO_Brand_header_logo</title>
    <desc>Created with Sketch.</desc>
    <defs>
        <linearGradient x1="50.0000191%" y1="11.8191355%" x2="50.0000191%" y2="50.1261356%" id="linearGradient-1">
            <stop stop-color="#18052C" offset="0%"></stop>
            <stop stop-color="#542583" offset="100%"></stop>
        </linearGradient>
    </defs>
    <g id="BO_Brand_header_logo" stroke="none" stroke-width="1" fill="none" fill-rule="evenodd">
        <g id="logo-crypto-bull-text" transform="translate(0.000000, 15.000000)" fill-rule="nonzero">
            <path d="M27.3433333,16.1928545 C26.3219048,16.1928545 25.7152381,16.194944 25.1085714,16.1925933 C19.4613095,16.1703918 18.5083631,17.2907836 19.4062401,23.1070522 C19.6154266,24.4622575 19.9048313,25.8697015 20.4902183,27.089347 C23.436627,33.2279291 29.9947917,36.0127799 36.4887302,34.000541 C42.6795933,32.0822015 46.4458532,25.9986007 45.6572123,19.1911007 C44.9294444,12.9096455 39.4907242,7.93912313 32.9188889,7.70744403 C29.10375,7.5729291 25.281131,7.665 21.461994,7.63522388 C17.6444048,7.60544776 13.808244,7.76020522 10.018125,7.41177239 C8.33186508,7.25675373 6.23045635,6.47565299 5.24900794,5.22766791 C4.30973214,4.03309701 4.57811508,1.86466418 4.30392857,0.0463619403 C4.346875,0.0318656716 3.98034722,0.0842350746 3.69197421,0.264589552 C1.23293651,1.8026306 -0.491884921,6.06779851 0.127162698,9.02072761 C0.680823413,11.6619216 2.69427579,13.3045709 6.15552579,13.8623507 C7.13181548,14.0197201 8.1302877,14.0936381 9.11934524,14.1010821 C12.5567361,14.1269403 15.9946429,14.0860634 19.4320337,14.1093097 C24.0892063,14.1407836 28.7565675,14.0325187 33.3994246,14.3182649 C36.7772321,14.5261754 39.2015774,17.510709 39.3131349,20.9083209 C39.4252083,24.3242164 37.1936706,27.2135448 33.8674504,27.9587313 C30.7546726,28.6561194 27.5527778,26.9275373 26.162629,23.914403 C24.9191171,21.2190112 25.7291667,18.8290858 27.3433333,16.1928545 Z M40.2156548,7.66800373 C41.3350992,8.90593284 43.0040774,10.2377612 43.8364385,11.2099254 C46.5019544,14.323097 48.4062996,14.2985448 51.902371,14.3809515 C53.2736905,14.413209 54.3741766,14.3092537 55.7338889,14.164944 C57.5447321,13.9728358 59.4022619,13.7859515 61.1175397,13.2182463 C63.899127,12.2977985 65.219246,9.85628731 64.927004,6.82761194 C64.6094841,3.53800373 62.4998214,0.560652985 60.1540179,0.0915485075 C61.1402381,4.87401119 59.8781548,6.8511194 55.3767758,7.43410448 C54.0182242,7.61001866 52.6354266,7.63914179 51.2630754,7.6516791 C47.9926984,7.68132463 43.6944444,7.66800373 40.2156548,7.66800373 Z" id="Shape" fill="url(#linearGradient-1)"></path>
            <g id="LkW7Tg.tif_3_" transform="translate(28.373016, 15.932836)" fill="#D5963C">
                <path d="M2.47116071,10.769291 C2.47090278,10.3724067 2.47064484,9.97539179 2.47025794,9.57850746 C2.47012897,9.46436567 2.46974206,9.46397388 2.35947421,9.46397388 C1.65388889,9.46384328 0.948303571,9.46397388 0.242718254,9.46384328 C0.122003968,9.46384328 0.120456349,9.46240672 0.120327381,9.34121269 C0.120069444,9.04345149 0.119811508,8.7458209 0.120456349,8.4480597 C0.120714286,8.3386194 0.127420635,8.33287313 0.23485119,8.33222015 C0.388710317,8.33130597 0.542440476,8.33248134 0.696170635,8.31863806 C0.914771825,8.29891791 1.02465278,8.19052239 1.04451389,7.96850746 C1.05637897,7.8355597 1.05741071,7.70248134 1.05741071,7.56927239 C1.05753968,6.14315299 1.05779762,4.71703358 1.05676587,3.29091418 C1.0566369,3.16632463 1.0505754,3.04160448 1.04296627,2.91727612 C1.03097222,2.72125 0.89968254,2.59274254 0.704295635,2.5726306 C0.542311508,2.55591418 0.380069444,2.5548694 0.217827381,2.55852612 C0.144573413,2.56022388 0.118779762,2.5333209 0.119295635,2.46005597 C0.121617063,2.1481903 0.122003968,1.83632463 0.119037698,1.52445896 C0.118263889,1.44414179 0.150505952,1.42429104 0.224662698,1.42442164 C0.933085317,1.42651119 1.64137897,1.42572761 2.34980159,1.42559701 C2.47,1.42559701 2.47025794,1.42533582 2.47025794,1.3036194 C2.4703869,0.943563433 2.4724504,0.583507463 2.46883929,0.223451493 C2.46793651,0.138041045 2.49514881,0.111007463 2.58000992,0.112182836 C2.88514881,0.116753731 3.19041667,0.117014925 3.49555556,0.112052239 C3.58338294,0.110615672 3.60414683,0.142481343 3.60337302,0.225279851 C3.59989087,0.590951493 3.60414683,0.956753731 3.60014881,1.32242537 C3.59924603,1.40587687 3.62632937,1.42977612 3.70590278,1.42716418 C3.86530754,1.4218097 4.02509921,1.42572761 4.18463294,1.42546642 C4.29735119,1.42533582 4.29760913,1.42520522 4.29760913,1.31445896 C4.2977381,0.960018657 4.29760913,0.605708955 4.29760913,0.251268657 C4.29760913,0.114011194 4.2977381,0.113880597 4.43702381,0.113880597 C4.72539683,0.113880597 5.01376984,0.11375 5.30214286,0.113880597 C5.42878968,0.113880597 5.42917659,0.114141791 5.42930556,0.239384328 C5.42956349,0.61641791 5.43175595,0.99358209 5.42762897,1.37061567 C5.42672619,1.45511194 5.4575496,1.48436567 5.53609127,1.49350746 C6.05454365,1.55384328 6.5239881,1.73341418 6.91875992,2.08902985 C7.10808532,2.25958955 7.24866071,2.4675 7.34448413,2.70283582 C7.56063492,3.23371269 7.53097222,3.75570896 7.25626984,4.25759328 C7.05740079,4.62104478 6.75677579,4.8779291 6.39205357,5.0620709 C6.28565476,5.11574627 6.17409722,5.15766791 6.06666667,5.22152985 C6.20066468,5.26541045 6.33543651,5.30720149 6.46866071,5.35343284 C6.76412698,5.45595149 7.03147817,5.60953358 7.24878968,5.83794776 C7.52607143,6.1293097 7.69837302,6.47617537 7.75112103,6.88115672 C7.85468254,7.67544776 7.56811508,8.30988806 6.96673611,8.80432836 C6.55365079,9.1438806 6.06331349,9.30725746 5.54112103,9.37608209 C5.45703373,9.38718284 5.42659722,9.41395522 5.42737103,9.50210821 C5.43085317,9.92445896 5.42827381,10.3469403 5.4278869,10.7694216 C5.05271825,10.7694216 4.6775496,10.7694216 4.30238095,10.7694216 C4.30070437,10.7327239 4.2977381,10.6958955 4.2977381,10.6591978 C4.29735119,10.2963993 4.29477183,9.93360075 4.29941468,9.57093284 C4.3005754,9.48251866 4.27207341,9.45875 4.18888889,9.46227612 C4.04637897,9.46841418 3.90348214,9.46345149 3.76071429,9.46410448 C3.58454365,9.46501866 3.60259921,9.44516791 3.60169643,9.62186567 C3.59989087,10.0043843 3.59834325,10.386903 3.59666667,10.7694216 C3.22162698,10.769291 2.84645833,10.769291 2.47116071,10.769291 Z M3.03810516,6.90858209 C3.0391369,6.90858209 3.04003968,6.90858209 3.04107143,6.90858209 C3.04107143,7.13255597 3.0383631,7.35639925 3.04210317,7.58037313 C3.04429563,7.71031716 3.03268849,7.84156716 3.05990079,7.97020522 C3.08595238,8.09335821 3.1390873,8.13645522 3.26109127,8.14703358 C3.55733135,8.17276119 3.85421627,8.16610075 4.15045635,8.1593097 C4.39614087,8.15369403 4.64156746,8.13776119 4.88170635,8.07115672 C5.6497123,7.85802239 5.90365079,6.95585821 5.53196429,6.36934701 C5.35837302,6.09548507 5.07954365,5.98395522 4.77659722,5.92727612 C4.59746032,5.89371269 4.41535714,5.89136194 4.23364087,5.88248134 C3.85589286,5.86406716 3.47814484,5.87921642 3.10039683,5.87360075 C3.0553869,5.87294776 3.03681548,5.88979478 3.03707341,5.93942164 C3.0391369,6.26238806 3.03810516,6.58548507 3.03810516,6.90858209 Z M3.04145833,3.70791045 C3.04145833,3.99404851 3.04429563,4.28031716 3.03978175,4.56645522 C3.0383631,4.65382463 3.06802579,4.67876866 3.15133929,4.6766791 C3.3499504,4.67158582 3.54869048,4.6723694 3.74730159,4.67563433 C4.06959325,4.68098881 4.39020833,4.66348881 4.70798611,4.6068097 C5.17252976,4.5238806 5.46670635,4.25054104 5.53209325,3.82257463 C5.59515873,3.40949627 5.42053571,3.02149254 5.02034722,2.86634328 C4.77130952,2.76970149 4.5069246,2.75442164 4.24486111,2.7473694 C3.8784623,2.73757463 3.51180556,2.74593284 3.14514881,2.74162313 C3.06364087,2.74070896 3.03900794,2.76865672 3.04003968,2.84923507 C3.04377976,3.13550373 3.04145833,3.42164179 3.04145833,3.70791045 Z" id="Shape"></path>
            </g>
        </g>
    </g>
</svg>