<?xml version="1.0" encoding="UTF-8"?>
<svg width="65px" height="65px" viewBox="0 0 65 65" version="1.1" xmlns="http://www.w3.org/2000/svg" xmlns:xlink="http://www.w3.org/1999/xlink">
    <!-- Generator: Sketch 54.1 (76490) - https://sketchapp.com -->
    <title>BO_Brand_header_logo</title>
    <desc>Created with Sketch.</desc>
    <defs>
        <linearGradient x1="0%" y1="50%" x2="100%" y2="50%" id="linearGradient-1">
            <stop stop-color="#3FD0E8" offset="0%"></stop>
            <stop stop-color="#26508E" offset="100%"></stop>
        </linearGradient>
    </defs>
    <g id="BO_Brand_header_logo" stroke="none" stroke-width="1" fill="none" fill-rule="evenodd">
        <path d="M18.119994,43.5998536 L22.1465513,43.5998536 C23.2539275,43.5998536 24.159992,44.4999158 24.159992,45.5999561 C24.159992,46.6999963 23.2539275,47.6000586 22.1465513,47.6000586 L18.119994,47.6000586 C17.0126178,47.6000586 16.1065533,46.6999963 16.1065533,45.5999561 C16.1065533,44.4999158 17.0126178,43.5998536 18.119994,43.5998536 L18.119994,43.5998536 Z M13.2878659,35.6000878 L15.70393,35.6000878 C16.8113062,35.6000878 17.7173707,36.50015 17.7173707,37.6001903 C17.7173707,38.7002305 16.8113062,39.6002928 15.70393,39.6002928 L13.2878659,39.6002928 C12.1804898,39.6002928 11.2744252,38.7002305 11.2744252,37.6001903 C11.2747494,36.499828 12.1808139,35.6000878 13.2878659,35.6000878 Z M8.54715476,27.6 L17.4058401,27.6 C18.5132163,27.6 19.4192808,28.5000622 19.4192808,29.6001025 C19.4192808,30.7001427 18.5132163,31.6002049 17.4058401,31.6002049 L8.54715476,31.6002049 C7.43977856,31.6002049 6.53371403,30.7001427 6.53371403,29.6001025 C6.5340382,28.5000622 7.43977856,27.6 8.54715476,27.6 Z M11.2747494,19.5999122 L16.1068775,19.5999122 C17.2142537,19.5999122 18.1203182,20.4999744 18.1203182,21.6000146 C18.1203182,22.7000549 17.2142537,23.6001171 16.1068775,23.6001171 L11.2747494,23.6001171 C10.1673732,23.6001171 9.26130866,22.7000549 9.26130866,21.6000146 C9.26130866,20.4999744 10.1673732,19.5999122 11.2747494,19.5999122 Z M2.01344073,19.5999122 L4.27908832,19.5999122 C5.38646452,19.5999122 6.29252905,20.4999744 6.29252905,21.6000146 C6.29252905,22.7000549 5.38646452,23.6001171 4.27908832,23.6001171 L2.01344073,23.6001171 C0.906064535,23.6001171 0,22.7000549 0,21.6000146 C0,20.4999744 0.906064535,19.5999122 2.01344073,19.5999122 Z M47.1117899,10 C54.4601516,10 60.9714977,13.5561313 65,19.0296044 L57.3796569,23.4001391 L57.2535534,23.4722728 C54.816094,20.6146156 51.1775722,18.8 47.1117899,18.8 C39.7731535,18.8 33.823924,24.7098181 33.823924,31.999839 C33.823924,39.2898598 39.7731535,45.199678 47.1117899,45.199678 C51.1775722,45.199678 54.816094,43.3850624 57.2535534,40.5274051 L57.3796569,40.5998609 L65,44.9703956 C60.9714977,50.4438687 54.4601516,54 47.1117899,54 C41.0189517,54 35.5018453,51.5551799 31.4979802,47.6000586 L27.783926,47.6000586 C26.6765498,47.6000586 25.7704853,46.6999963 25.7704853,45.5999561 C25.7704853,44.4999158 26.6765498,43.5998536 27.783926,43.5998536 L31.0052366,43.5998536 C32.1126128,43.5998536 33.0186774,42.6997914 33.0186774,41.5997512 C33.0186774,40.4997109 32.1126128,39.5996487 31.0052366,39.5996487 L21.3413047,39.5996487 C20.2339285,39.5996487 19.3278639,38.6995865 19.3278639,37.5995462 C19.3278639,36.499506 20.2339285,35.5994438 21.3413047,35.5994438 L30.19999,35.5994438 C31.3073662,35.5994438 32.2134308,34.6993816 32.2134308,33.5993413 C32.2134308,32.4993011 31.3073662,31.5992388 30.19999,31.5992388 L22.9521221,31.5992388 C21.8447459,31.5992388 20.9386814,30.6991766 20.9386814,29.5991364 C20.9386814,28.4990961 21.8447459,27.5990339 22.9521221,27.5990339 L28.5891726,27.5990339 C29.6965488,27.5990339 30.6026133,26.6989717 30.6026133,25.5989315 C30.6026133,24.4988912 29.6965488,23.598829 28.5891726,23.598829 L21.3413047,23.598829 C20.2339285,23.598829 19.3278639,22.6987668 19.3278639,21.5987265 C19.3278639,20.4986863 20.2339285,19.5986241 21.3413047,19.5986241 L35.0317939,19.5986241 C36.1391701,19.5986241 37.0452347,18.6985619 37.0452347,17.5985216 C37.0452347,16.4984814 36.1391701,15.5984191 35.0317939,15.5984191 L32.3521769,15.5984191 C36.2694878,12.1179639 41.4413496,10 47.1117899,10 L47.1117899,10 Z" id="a" fill="url(#linearGradient-1)" fill-rule="nonzero"></path>
    </g>
</svg>