<svg id="Layer_1" data-name="Layer 1" xmlns="http://www.w3.org/2000/svg" viewBox="0 0 54.7 63.85"><defs><style>.cls-1{fill:#80858b;}.cls-2{fill:#ffc031;}</style></defs><title>cmb0001</title><path id="Oval-Copy-2" class="cls-1" d="M6.11,33.66a.94.94,0,0,1,.75,1.72,23,23,0,0,0-4.07,2.16,4.71,4.71,0,0,0-.94.84c.32,1.37,12.57.49,26.23-2.67S53.14,28,52.82,26.61c0-.19-1.72-.57-4.54-.54a.94.94,0,0,1-.84-1,1,1,0,0,1,.84-.84c3.85,0,6,.45,6.38,2C55.39,29.39,44,34,28.53,37.54S.78,42,0,38.85C-.35,37.1,1.82,35.54,6.11,33.66Z" transform="translate(0)"/><rect class="cls-2" x="8.42" y="18.31" width="11.27" height="27.23"/><rect class="cls-2" x="13.59" y="14.09" width="0.94" height="33.8"/><rect class="cls-1" x="21.57" y="4.23" width="11.27" height="52.12"/><rect class="cls-1" x="26.73" width="0.94" height="63.85"/><rect class="cls-2" x="35.65" y="15.49" width="11.27" height="27.23"/><rect class="cls-2" x="40.82" y="11.27" width="0.94" height="33.8"/></svg>