<svg width="128" height="128" viewBox="0 0 128 128" fill="none" xmlns="http://www.w3.org/2000/svg">
<path d="M64 128C99.3462 128 128 99.3462 128 64C128 28.6538 99.3462 0 64 0C28.6538 0 0 28.6538 0 64C0 99.3462 28.6538 128 64 128Z" fill="url(#paint0_radial)"/>
<path d="M70.7143 19.3208L72.7714 10L73.8 19.3208L81 20.7925L73.8 22.7547L71.7429 36L70.7143 21.7736L63 20.7925L70.7143 19.3208Z" fill="white"/>
<path d="M106.714 37.7358L107.971 32L108.6 37.7358L113 38.6415L108.6 39.8491L107.343 48L106.714 39.2453L102 38.6415L106.714 37.7358Z" fill="#FFEACE"/>
<path d="M19.7143 43.4528L20.9714 37L21.6 43.4528L26 44.4717L21.6 45.8302L20.3429 55L19.7143 45.1509L15 44.4717L19.7143 43.4528Z" fill="#FFEACE"/>
<path d="M33.4286 28.3019L34.3429 24L34.8 28.3019L38 28.9811L34.8 29.8868L33.8857 36L33.4286 29.434L30 28.9811L33.4286 28.3019Z" fill="#FFEACE"/>
<path d="M41 32.5849L41.8 29L42.2 32.5849L45 33.1509L42.2 33.9057L41.4 39L41 33.5283L38 33.1509L41 32.5849Z" fill="#FFEACE"/>
<path d="M102.143 30.8679L102.714 28L103 30.8679L105 31.3208L103 31.9245L102.429 36L102.143 31.6226L100 31.3208L102.143 30.8679Z" fill="#FFEACE"/>
<path d="M24.1429 40.8679L24.7143 38L25 40.8679L27 41.3208L25 41.9245L24.4286 46L24.1429 41.6226L22 41.3208L24.1429 40.8679Z" fill="#FFEACE"/>
<path d="M63.5714 13.2264L64.2571 10L64.6 13.2264L67 13.7358L64.6 14.4151L63.9143 19L63.5714 14.0755L61 13.7358L63.5714 13.2264Z" fill="#FFEACE"/>
<path fill-rule="evenodd" clip-rule="evenodd" d="M106.195 98.7338C116.656 87.0423 117.072 72.3373 104.573 63.8426C103.405 55.1396 93.451 47.8665 79.8503 45.0045C80.6736 38.6689 80.911 35.5742 80.2042 35.3409C79.3501 35.0591 77.1176 38.9543 72.8746 46.3574L72.8745 46.3575V46.3576C70.2259 50.9789 66.7939 56.967 62.4247 64.1591C61.2924 62.7356 60.8388 60.6492 61.3388 58.0237C64.8776 53.5511 68.4564 48.7279 71.7309 43.8708C70.179 43.7579 68.5978 43.6998 66.9931 43.6998C47.2206 43.6998 31.0037 52.5296 29.4246 63.7616C15.3965 72.1962 9.27599 87.8878 21.7595 100.996C21.7595 95.4976 24.7295 87.0298 29.4661 83.2128C31.0396 81.9447 31.9989 79.6258 31.3186 77.7229C30.9813 76.7794 30.7858 75.9301 30.7237 75.1578C30.6774 75.0872 30.6394 75.0094 30.6114 74.9255C30.3713 74.2052 29.8415 73.958 29.3979 74.0023C28.9652 74.0456 28.3052 74.4124 28.0069 75.6057C27.8729 76.1415 27.33 76.4673 26.7942 76.3333C26.2584 76.1994 25.9326 75.6565 26.0666 75.1207C26.5221 73.2985 27.7469 72.1575 29.1989 72.0122C29.7167 71.9605 30.2233 72.0413 30.6838 72.2377C34.7897 82.3471 47.6796 91.9488 64.7314 91.9488C81.2829 91.9488 96.7723 82.9024 102.426 73.1261C102.876 72.9692 103.35 72.9615 103.799 73.0737C104.985 73.3702 105.942 74.4576 106.39 75.8008C106.565 76.3248 106.282 76.8911 105.758 77.0657C105.234 77.2404 104.667 76.9572 104.493 76.4333C104.187 75.5148 103.636 75.0945 103.314 75.014C103.178 74.9799 103.089 75.0018 103.014 75.05C102.926 75.1066 102.758 75.2666 102.621 75.6794C102.563 75.8534 102.462 76.0008 102.333 76.1137C102.241 76.6664 102.079 77.234 101.848 77.8044C101.059 79.7561 101.526 82.3698 102.892 83.9718C106.195 87.8454 106.195 93.9894 106.195 98.7338ZM49.8997 66.3165C49.8997 65.7642 49.452 65.3165 48.8997 65.3165C48.3474 65.3165 47.8997 65.7642 47.8997 66.3165C47.8997 69.285 50.4472 71.2021 53.9407 72.3549C57.5159 73.5347 62.5654 74.1015 68.6037 74.1015C74.6711 74.1015 79.0907 73.3406 82.1396 72.1481C85.1641 70.9652 87.0048 69.2846 87.5562 67.3437C87.7071 66.8124 87.3988 66.2594 86.8676 66.1085C86.3363 65.9576 85.7833 66.2659 85.6323 66.7971C85.327 67.8718 84.1694 69.2067 81.4111 70.2855C78.6774 71.3547 74.53 72.1015 68.6037 72.1015C62.6482 72.1015 57.8457 71.5375 54.5674 70.4557C51.2074 69.3468 49.8997 67.8713 49.8997 66.3165ZM49.2039 53.1473C47.8275 53.8806 46.421 54.956 45.1261 56.4237C44.7607 56.8378 44.1287 56.8773 43.7146 56.5119C43.3005 56.1465 43.261 55.5145 43.6264 55.1004C46.6044 51.7253 50.2371 50.0677 53.229 49.9102C54.7203 49.8317 56.1245 50.125 57.1878 50.8565C58.2872 51.6128 58.9463 52.7914 58.9463 54.2543C58.9463 54.6439 58.7234 54.9815 58.3982 55.1465C58.1986 55.4166 57.9075 55.6217 57.5562 55.7095C56.7525 55.9104 55.9381 55.4218 55.7372 54.6181C55.5682 53.9423 55.0016 53.5093 54.0838 53.5389C53.1556 53.5689 52.0304 54.1199 51.3417 55.3597C50.9393 56.0839 50.0261 56.3448 49.302 55.9424C48.5778 55.5401 48.3169 54.6269 48.7192 53.9027C48.8677 53.6353 49.0299 53.3835 49.2039 53.1473ZM89.5736 55.2523C90.3003 55.9721 91.0551 56.8432 91.8251 57.8698C92.1565 58.3116 92.7833 58.4012 93.2251 58.0698C93.6669 57.7384 93.7565 57.1116 93.4251 56.6698C91.124 53.6016 88.6966 51.4995 86.3975 50.8426C85.2145 50.5046 84.0339 50.5427 82.9597 51.072C81.8977 51.5953 81.0549 52.5417 80.4223 53.807C80.1762 54.2992 80.3741 54.8973 80.8641 55.146C81.0002 55.3304 81.1808 55.4864 81.3999 55.5959C82.1409 55.9664 83.0419 55.666 83.4123 54.9251C83.7766 54.1967 84.4598 53.966 85.2396 54.1888C86.0811 54.4292 86.6018 55.0822 86.6018 55.762C86.6018 56.5905 87.2734 57.262 88.1018 57.262C88.9303 57.262 89.6018 56.5905 89.6018 55.762C89.6018 55.588 89.5922 55.4181 89.5736 55.2523Z" fill="url(#paint1_linear)"/>
<path fill-rule="evenodd" clip-rule="evenodd" d="M106.195 98.7338C116.656 87.0423 117.072 72.3373 104.573 63.8426C103.405 55.1396 93.451 47.8665 79.8503 45.0045C80.6736 38.6689 80.911 35.5742 80.2042 35.3409C79.3501 35.0591 77.1176 38.9543 72.8746 46.3574L72.8745 46.3575V46.3576C70.2259 50.9789 66.7939 56.967 62.4247 64.1591C61.2924 62.7356 60.8388 60.6492 61.3388 58.0237C64.8776 53.5511 68.4564 48.7279 71.7309 43.8708C70.179 43.7579 68.5978 43.6998 66.9931 43.6998C47.2206 43.6998 31.0037 52.5296 29.4246 63.7616C15.3965 72.1962 9.27599 87.8878 21.7595 100.996C21.7595 95.4976 24.7295 87.0298 29.4661 83.2128C31.0396 81.9447 31.9989 79.6258 31.3186 77.7229C30.9813 76.7794 30.7858 75.9301 30.7237 75.1578C30.6774 75.0872 30.6394 75.0094 30.6114 74.9255C30.3713 74.2052 29.8415 73.958 29.3979 74.0023C28.9652 74.0456 28.3052 74.4124 28.0069 75.6057C27.8729 76.1415 27.33 76.4673 26.7942 76.3333C26.2584 76.1994 25.9326 75.6565 26.0666 75.1207C26.5221 73.2985 27.7469 72.1575 29.1989 72.0122C29.7167 71.9605 30.2233 72.0413 30.6838 72.2377C34.7897 82.3471 47.6796 91.9488 64.7314 91.9488C81.2829 91.9488 96.7723 82.9024 102.426 73.1261C102.876 72.9692 103.35 72.9615 103.799 73.0737C104.985 73.3702 105.942 74.4576 106.39 75.8008C106.565 76.3248 106.282 76.8911 105.758 77.0657C105.234 77.2404 104.667 76.9572 104.493 76.4333C104.187 75.5148 103.636 75.0945 103.314 75.014C103.178 74.9799 103.089 75.0018 103.014 75.05C102.926 75.1066 102.758 75.2666 102.621 75.6794C102.563 75.8534 102.462 76.0008 102.333 76.1137C102.241 76.6664 102.079 77.234 101.848 77.8044C101.059 79.7561 101.526 82.3698 102.892 83.9718C106.195 87.8454 106.195 93.9894 106.195 98.7338ZM49.8997 66.3165C49.8997 65.7642 49.452 65.3165 48.8997 65.3165C48.3474 65.3165 47.8997 65.7642 47.8997 66.3165C47.8997 69.285 50.4472 71.2021 53.9407 72.3549C57.5159 73.5347 62.5654 74.1015 68.6037 74.1015C74.6711 74.1015 79.0907 73.3406 82.1396 72.1481C85.1641 70.9652 87.0048 69.2846 87.5562 67.3437C87.7071 66.8124 87.3988 66.2594 86.8676 66.1085C86.3363 65.9576 85.7833 66.2659 85.6323 66.7971C85.327 67.8718 84.1694 69.2067 81.4111 70.2855C78.6774 71.3547 74.53 72.1015 68.6037 72.1015C62.6482 72.1015 57.8457 71.5375 54.5674 70.4557C51.2074 69.3468 49.8997 67.8713 49.8997 66.3165ZM49.2039 53.1473C47.8275 53.8806 46.421 54.956 45.1261 56.4237C44.7607 56.8378 44.1287 56.8773 43.7146 56.5119C43.3005 56.1465 43.261 55.5145 43.6264 55.1004C46.6044 51.7253 50.2371 50.0677 53.229 49.9102C54.7203 49.8317 56.1245 50.125 57.1878 50.8565C58.2872 51.6128 58.9463 52.7914 58.9463 54.2543C58.9463 54.6439 58.7234 54.9815 58.3982 55.1465C58.1986 55.4166 57.9075 55.6217 57.5562 55.7095C56.7525 55.9104 55.9381 55.4218 55.7372 54.6181C55.5682 53.9423 55.0016 53.5093 54.0838 53.5389C53.1556 53.5689 52.0304 54.1199 51.3417 55.3597C50.9393 56.0839 50.0261 56.3448 49.302 55.9424C48.5778 55.5401 48.3169 54.6269 48.7192 53.9027C48.8677 53.6353 49.0299 53.3835 49.2039 53.1473ZM89.5736 55.2523C90.3003 55.9721 91.0551 56.8432 91.8251 57.8698C92.1565 58.3116 92.7833 58.4012 93.2251 58.0698C93.6669 57.7384 93.7565 57.1116 93.4251 56.6698C91.124 53.6016 88.6966 51.4995 86.3975 50.8426C85.2145 50.5046 84.0339 50.5427 82.9597 51.072C81.8977 51.5953 81.0549 52.5417 80.4223 53.807C80.1762 54.2992 80.3741 54.8973 80.8641 55.146C81.0002 55.3304 81.1808 55.4864 81.3999 55.5959C82.1409 55.9664 83.0419 55.666 83.4123 54.9251C83.7766 54.1967 84.4598 53.966 85.2396 54.1888C86.0811 54.4292 86.6018 55.0822 86.6018 55.762C86.6018 56.5905 87.2734 57.262 88.1018 57.262C88.9303 57.262 89.6018 56.5905 89.6018 55.762C89.6018 55.588 89.5922 55.4181 89.5736 55.2523Z" fill="url(#paint2_radial)"/>
<defs>
<radialGradient id="paint0_radial" cx="0" cy="0" r="1" gradientUnits="userSpaceOnUse" gradientTransform="translate(72 20.5) rotate(101.709) scale(98.5508 196.503)">
<stop stop-color="#FFDFAF"/>
<stop offset="1" stop-color="#9D4936"/>
</radialGradient>
<linearGradient id="paint1_linear" x1="72.2703" y1="44.4537" x2="66.993" y2="91.9488" gradientUnits="userSpaceOnUse">
<stop stop-color="#DAD08E"/>
<stop offset="1" stop-color="#96800C"/>
</linearGradient>
<radialGradient id="paint2_radial" cx="0" cy="0" r="1" gradientUnits="userSpaceOnUse" gradientTransform="translate(69.5 48.5) rotate(106.449) scale(54.7403 82.5238)">
<stop offset="0.286458" stop-color="white"/>
<stop offset="1" stop-color="#CC9B80"/>
</radialGradient>
</defs>
</svg>
