<svg xmlns="http://www.w3.org/2000/svg" width="65" height="65"><path fill="#93BCE2" d="M10.401 44.303c.003.012.051-.039.121-.117-.086.051-.13.081-.13.081l.009.036zM11.1 43.682c-.042-.119-.389.292-.578.504.06-.035.14-.081.24-.133.18-.152.359-.311.338-.371z"/><linearGradient id="a" gradientUnits="userSpaceOnUse" x1="-3.896" y1="70.378" x2="3.864" y2="70.378" gradientTransform="rotate(-18.066 -74.913 11.815)"><stop offset="0" stop-color="#5b0079"/><stop offset="1" stop-color="#8f004a"/></linearGradient><path fill="url(#a)" d="M17.437 44.663c.272-.318.533-.647.795-.974a.237.237 0 00-.158-.384c-1.145-.132-2.761-.242-4.098-.14-1.539.118-2.667.602-3.214.888-.177.149-.356.29-.349.321.115.541.397.245.424.245.066.001-.042.324.031.325 1.482.021 4.271.031 5.944.031a.776.776 0 00.591-.272l.034-.04z"/><linearGradient id="b" gradientUnits="userSpaceOnUse" x1="-3.896" y1="70.378" x2="3.864" y2="70.378" gradientTransform="rotate(-18.066 -74.913 11.815)"><stop offset="0" stop-color="#5b0079"/><stop offset="1" stop-color="#8f004a"/></linearGradient><path fill="url(#b)" d="M17.437 44.663c.272-.318.533-.647.795-.974a.237.237 0 00-.158-.384c-1.145-.132-2.761-.242-4.098-.14-1.539.118-2.667.602-3.214.888-.177.149-.356.29-.349.321.115.541.397.245.424.245.066.001-.042.324.031.325 1.482.021 4.271.031 5.944.031a.776.776 0 00.591-.272l.034-.04z"/><linearGradient id="c" gradientUnits="userSpaceOnUse" x1="-4.133" y1="67.037" x2="5.044" y2="67.037" gradientTransform="rotate(-18.066 -74.913 11.815)"><stop offset="0" stop-color="#5b0079"/><stop offset="1" stop-color="#8f004a"/></linearGradient><path fill="url(#c)" d="M17.95 40.491s.563-.703.26-.873c-.148-.094-3.306-.084-5.555.426-2.172.492-3.385 1.613-3.385 1.613l.015.034c.019.043.053-.011.133.141.058.11.151.322.19.372.027.034.089.081.115.078 2.097-.273 7.409-1.071 7.409-1.071l.818-.72z"/><linearGradient id="d" gradientUnits="userSpaceOnUse" x1="-4.133" y1="67.037" x2="5.044" y2="67.037" gradientTransform="rotate(-18.066 -74.913 11.815)"><stop offset="0" stop-color="#5b0079"/><stop offset="1" stop-color="#8f004a"/></linearGradient><path fill="url(#d)" d="M17.95 40.491s.563-.703.26-.873c-.148-.094-3.306-.084-5.555.426-2.172.492-3.385 1.613-3.385 1.613l.015.034c.019.043.053-.011.133.141.058.11.151.322.19.372.027.034.089.081.115.078 2.097-.273 7.409-1.071 7.409-1.071l.818-.72z"/><path fill="#8A0080" d="M17.943 32.546c.056.904-.685 3.923-1.847 5.606-.158.126-.319.249-.481.367l-.001.001h-.001l-.286.206-.002.001a18.93 18.93 0 01-.584.391h-.001l-.01.007h-.001c-.023.015-.045.03-.069.044-.491.313-.986.594-1.466.846h-.001c-.23.12-.455.234-.675.341h-.001l-.221.106-.003.001-.003.002a7.678 7.678 0 01-.131.061h-.001a.034.034 0 00-.012.006l-.002.001-.128.059-.01.005-.135.061h-.001l-.203.09-.004.002c-.201.088-.393.169-.576.244l-.005.002c-.37.152-.699.277-.973.376l-.002.002c-.923.375-.482.885-.381.904-.203.01-.445-.582-.502-.731v-.001l-.032-.074a.008.008 0 00-.002-.004l-.002-.007a.39.39 0 01-.009-.02l-.004-.011-.003-.008v-.001l-.041-.1-.005-.011c-.001-.004-.002-.007-.004-.009l-.023-.056-.001-.002-.006-.015a.196.196 0 01-.006-.014l-.028-.069-.002-.003-.005-.012c-.011-.02-.021-.044-.031-.068l-.005-.011-.002-.005a.744.744 0 01-.028-.069l-.007-.017-.003-.006a37.29 37.29 0 00-.085-.207v-.001a.43.43 0 00-.013-.032l-.005-.012-.044-.106-.003-.006v-.001a21.704 21.704 0 00-.057-.141l-.004-.009-.006-.015-.104-.255a.197.197 0 00-.007-.016l-.008-.021-.061-.151-.015-.036a.195.195 0 01-.01-.038v-.011a.14.14 0 010-.029l.002-.01a.14.14 0 01.009-.029l.002-.007a.202.202 0 01.03-.048l.009-.009.012-.011.015-.01.01-.007a.134.134 0 01.03-.012h.001c.114-.033.228-.068.343-.103l.097-.031.266-.086.086-.029a15.427 15.427 0 00.688-.248l.1-.038.285-.112.061-.025a16.273 16.273 0 00.686-.298l.096-.044a18.902 18.902 0 001.14-.579l.105-.06a15.75 15.75 0 001.181-.733c.042-.028.082-.058.123-.087l.125-.087c.093-.066.185-.134.276-.202l.084-.065a5.63 5.63 0 00.19-.147l.094-.074.185-.151.082-.069c.087-.073.172-.147.256-.222l.036-.032a10.551 10.551 0 00.469-.445l.069-.069c.185-.188.363-.381.534-.578l.063-.075.073-.088c.06-.071.117-.142.175-.215l.006-.008c.005-.007.009-.014.015-.02l.001-.001c.054-.07.107-.142.159-.214l.073-.102c.052-.075.105-.151.154-.228l.046-.073c.043-.069.086-.138.127-.208l.042-.072c.013-.021.134-.251.178-.334l.015-.029c.013.083.48-.999.486-.897zM18.356 39.805c-.076-.256-.323-.214-.323-.214.585.082-.281.511-.281.511l-.007.008c-1.229.608-4.166 1.991-7.222 2.908-.313.094-.514.341-.436.538.211.535.347.898.432 1.133a.387.387 0 00.085.136c.125.154.28.129.804.126-.232.005-.102-.119.01-.175 1.561-.565 5.097-1.879 6.888-2.808.293-.152.458-.401.409-.613l-.357-1.551-.002.001z"/><linearGradient id="e" gradientUnits="userSpaceOnUse" x1="3.992" y1="63.912" x2="7.694" y2="56.563" gradientTransform="rotate(-18.066 -74.913 11.815)"><stop offset="0" stop-color="#8000a4"/><stop offset="1" stop-color="#8000a4"/></linearGradient><path fill="url(#e)" d="M20.228 28.007c.099.507.158 1.014.177 1.518l.001.028a9.853 9.853 0 01-.95 4.591l-.035.073a9.962 9.962 0 01-2.706 3.409v.001c-.057.052-.118.104-.176.155l-.086.074c-.087.076-.176.15-.265.222l-.093.076.057-.084c1.136-1.725 1.273-4.395 1.29-4.582a.065.065 0 01.002-.01l.016-.032c.043-.084.085-.17.124-.257l.005-.011a8.808 8.808 0 00.265-.65l.019-.056c.024-.068.045-.137.067-.206.008-.026.018-.052.025-.078l.025-.088.016-.057c.019-.066.039-.133.055-.2l.025-.106c.019-.081.038-.161.055-.243l.022-.115.016-.091.026-.145c.006-.036.01-.074.015-.111.012-.081.024-.162.034-.243.005-.041.007-.082.011-.123.008-.077.016-.155.022-.232.003-.039.003-.079.005-.118l.003-.063c.003-.059.007-.118.008-.176v-.109a7.28 7.28 0 000-.209l.001-.04-.005-.097-.009-.207-.002-.055v-.003a7.754 7.754 0 00-1.519-4.111 7.756 7.756 0 00-1.69-1.662c.137.077.302.171.486.282 1.242.739 3.397 2.187 4.508 3.891.054.08.106.165.155.25z"/><linearGradient id="f" gradientUnits="userSpaceOnUse" x1="8.836" y1="57.434" x2="4.124" y2="46.462" gradientTransform="rotate(-18.066 -74.913 11.815)"><stop offset="0" stop-color="#5290cb"/><stop offset="1" stop-color="#5290cb"/></linearGradient><path fill="url(#f)" d="M19.922 26.835c.127.389.228.779.306 1.171-1.2-2.07-4.04-3.805-5.149-4.426a7.689 7.689 0 00-1.014-.621l-.029-.014a9.451 9.451 0 00-.414-.195l-.046-.021a7.73 7.73 0 00-2.031-.561h-.003a3.286 3.286 0 00-.098-.013h-.001l-.003-.001h-.001a7.765 7.765 0 00-2.658.14l-.196.047c1.303-.455 3.21-.973 5.985-1.474.281.126.556.266.824.418l.066.037a9.836 9.836 0 012.552 2.111h.001l.033.039.098.116.021.025.018.021.04.05.058.074.091.117.036.048.013.017.026.035.131.179c.009.011.016.023.024.034l.024.034.022.032a.74.74 0 01.031.046l.04.058.012.018.125.195.081.126v.001l.034.056.054.091a6.688 6.688 0 01.174.304l.053.098.035.066a1.53 1.53 0 01.046.09l.02.039v.001a.008.008 0 01.002.005l.049.099.045.093.003.006.003.007.027.058.018.039.013.03.034.073.023.053.022.051.04.095c.046.109.089.219.132.331l.04.103c.041.121.081.234.118.349z"/><linearGradient id="g" gradientUnits="userSpaceOnUse" x1="5.307" y1="47.633" x2="-2.72" y2="48.859" gradientTransform="rotate(-18.066 -74.913 11.815)"><stop offset=".309" stop-color="#acd34a"/><stop offset="1" stop-color="#acd34a"/></linearGradient><path fill="url(#g)" d="M14.568 20.87c-2.775.5-4.682 1.018-5.985 1.474a8.132 8.132 0 00-.861.273 7.786 7.786 0 00-4.311 4.059 7.806 7.806 0 00-.656 2.365c-.284-3.065.453-5.22 1.209-6.567.133-.117.27-.231.409-.342v-.001a9.724 9.724 0 012.698-1.51 9.863 9.863 0 017.497.249z"/><linearGradient id="h" gradientUnits="userSpaceOnUse" x1="-2.472" y1="59.059" x2="-7.177" y2="48.103" gradientTransform="rotate(-18.066 -74.913 11.815)"><stop offset="0" stop-color="#f0d34a"/><stop offset="1" stop-color="#f0d34a"/></linearGradient><path fill="url(#h)" d="M3.184 32.517l.001.004a6.998 6.998 0 00.146.407l.024.062.046.114.028.066.048.11.028.062.079.164.047.09.048.09.069.12.033.056c.299.511.653.979 1.049 1.398a8.962 8.962 0 001.272 1.203C4.374 35.387 2.113 33.68.784 31.771l-.003-.014a4.474 4.474 0 01-.03-.167l-.023-.132a5.826 5.826 0 01-.027-.184l-.015-.111-.025-.204-.009-.085a17.988 17.988 0 01-.02-.231l-.001-.018-.001-.027c-.007-.094-.012-.189-.017-.283l-.003-.074a20.846 20.846 0 01-.005-.25v-.096a8.59 8.59 0 01.006-.339c.002-.07.006-.14.01-.211l.007-.122c.005-.067.01-.134.017-.2l.012-.128.023-.198.015-.126.032-.21.017-.11a9 9 0 01.15-.719l.026-.1c.026-.098.051-.195.079-.292.016-.058.035-.115.054-.172.022-.07.043-.141.067-.21.025-.075.053-.149.08-.223.016-.044.03-.089.046-.131l.009-.021a5.92 5.92 0 01.073-.185l.04-.095.05-.122c.036-.082.074-.163.111-.244l.069-.15.09-.177c.1-.195.203-.386.314-.574l.001-.002a9.4 9.4 0 01.337-.527c.018-.026.036-.053.055-.078a10.551 10.551 0 01.463-.612l.053-.063a9.834 9.834 0 011.052-1.081c-.755 1.348-1.492 3.502-1.209 6.567a7.626 7.626 0 00-.033 1.366c.004.076.011.153.017.229.013.081.027.162.042.242l.016.089a7.934 7.934 0 00.049.252l.046.218.022.1.034.141.023.1.056.213.019.072.047.163.023.077.069.215z"/><linearGradient id="i" gradientUnits="userSpaceOnUse" x1="-3.554" y1="64.648" x2="-8.188" y2="53.857" gradientTransform="rotate(-18.066 -74.913 11.815)"><stop offset="0" stop-color="#da242b"/><stop offset=".717" stop-color="#da242b"/></linearGradient><path fill="url(#i)" d="M11.113 38.333a18.29 18.29 0 01-3.155 1.14l-.041-.011-.021-.006a10.059 10.059 0 01-2.12-.855 9.875 9.875 0 01-4.773-5.93l-.03-.108a14.235 14.235 0 01-.053-.196l-.033-.135c-.013-.056-.028-.112-.04-.169-.012-.05-.022-.101-.032-.152l-.027-.137c1.329 1.909 3.59 3.616 5.318 4.692l.093.07a8.734 8.734 0 002.369 1.266 9.173 9.173 0 001.297.356c.393.08.809.139 1.248.175z"/><linearGradient id="j" gradientUnits="userSpaceOnUse" x1="-9.135" y1="56.908" x2="-5.534" y2="56.908" gradientTransform="rotate(-18.066 -74.913 11.815)"><stop offset="0" stop-color="#f0d34a"/><stop offset="1" stop-color="#f0d34a"/></linearGradient><path fill="url(#j)" d="M6.104 36.466C4.376 35.39 2.115 33.683.786 31.774l-.003-.014a4.474 4.474 0 01-.03-.167l-.023-.132a5.826 5.826 0 01-.027-.184l-.015-.111c-.009-.068-.064-.26-.025-.204 2.055 2.935 2.612 3.392 5.029 5.164.131.115.268.229.412.34z"/><linearGradient id="k" gradientUnits="userSpaceOnUse" x1="-6.415" y1="49.076" x2="-1.631" y2="49.076" gradientTransform="rotate(-18.066 -74.913 11.815)"><stop offset="0" stop-color="#66a36b"/><stop offset=".222" stop-color="#6fa967"/><stop offset=".588" stop-color="#88bb5b"/><stop offset="1" stop-color="#acd34a"/></linearGradient><path opacity=".5" fill="url(#k)" d="M5.318 21.471c-.51.388-2.47 2.224-2.563 7.57-.284-3.065.453-5.22 1.209-6.567.133-.117.27-.231.409-.342v-.001c.3-.237.614-.457.945-.66z"/><linearGradient id="l" gradientUnits="userSpaceOnUse" x1="1.202" y1="48.269" x2="8.003" y2="48.269" gradientTransform="rotate(-18.066 -74.913 11.815)"><stop offset="0" stop-color="#5290cb"/><stop offset="1" stop-color="#5290cb"/></linearGradient><path opacity=".5" fill="url(#l)" d="M15.392 21.288c-1.822-.103-5.699.79-6.613 1.008l-.196.047c1.303-.455 3.21-.973 5.985-1.474.281.127.556.267.824.419z"/><linearGradient id="m" gradientUnits="userSpaceOnUse" x1="6.995" y1="54.572" x2="10.517" y2="54.572" gradientTransform="rotate(-18.066 -74.913 11.815)"><stop offset="0" stop-color="#8000a4"/><stop offset="1" stop-color="#5a93cb"/></linearGradient><path opacity=".5" fill="url(#m)" d="M20.228 28.007c.099.507.158 1.014.177 1.518l.001.028c-1.056-2.816-3.897-4.977-5.06-5.77a5.818 5.818 0 00-.267-.201c.137.077.302.171.486.282 1.242.739 3.397 2.187 4.508 3.891.054.082.106.167.155.252z"/><linearGradient id="n" gradientUnits="userSpaceOnUse" x1="2.005" y1="63.296" x2="6.17" y2="63.296" gradientTransform="rotate(-18.066 -74.913 11.815)"><stop offset="0" stop-color="#8f004a"/><stop offset="1" stop-color="#5b0079"/></linearGradient><path fill="url(#n)" d="M17.442 33.486c-.017.187-.154 2.857-1.29 4.582l-.057.084c-.158.126-.319.249-.481.367l-.001.001h-.001l-.286.206-.002.001c-.15.105-.301.206-.453.306 1.935-2.092 2.534-5.339 2.571-5.547z"/><g><path fill="#CEB12C" d="M9.31 27.476l-1.078 5.751a.212.212 0 00.294.234l2.318-1.018a.212.212 0 01.293.151l.591 2.86c.046.225.367.226.415.002l1.371-6.373a.212.212 0 00-.325-.221l-2.19 1.456c-.118.079-.341.231-.382.095l-.896-2.959c-.064-.211-.37-.195-.411.022z"/><linearGradient id="o" gradientUnits="userSpaceOnUse" x1=".203" y1="48.169" x2="6.25" y2="48.169" gradientTransform="rotate(-11.678 -76.541 2.637)"><stop offset="0" stop-color="#f0d34a"/><stop offset="1" stop-color="#f0d34a"/></linearGradient><path fill="url(#o)" d="M9.248 27.028l-1.14 5.961a.212.212 0 00.294.234l2.318-1.018a.212.212 0 01.293.151l.591 2.86c.046.225.367.226.415.002l1.371-6.373a.212.212 0 00-.325-.221l-2.19 1.456a.212.212 0 01-.32-.115l-.895-2.958c-.065-.213-.37-.196-.412.021z"/></g><g><path d="M28.941 29.775h-2.523l-.049.552h2.326l-.177 2.02h-2.326l-.049.572h2.621l-.177 2.04h-5.085l.631-7.224h4.987l-.179 2.04zM35.327 30.366c0 .066-.007.158-.02.276l-.374 4.316h-2.365l.325-3.725c.006-.053.01-.085.01-.099v-.049c0-.079-.049-.118-.148-.118-.191 0-.457.085-.798.256l-.325 3.735h-2.365l.522-6.021h2.365l-.039.493h.138c.223-.125.417-.228.581-.31.164-.082.314-.144.448-.187.135-.043.258-.072.37-.089a2.36 2.36 0 01.335-.025c.453 0 .79.108 1.01.325.22.217.33.558.33 1.025v.197zM41.358 31.036c0 .145-.007.325-.02.542a7.127 7.127 0 01-.069.65l-3.055.365a.267.267 0 00-.01.069c0 .112.036.197.108.256.072.059.22.089.443.089.099 0 .306-.021.621-.064a15.43 15.43 0 001.35-.271l.168 2.001c-.296.085-.558.154-.788.207-.23.053-.434.094-.611.123a5.104 5.104 0 01-.847.074c-.959 0-1.684-.215-2.173-.645-.49-.43-.734-1.102-.734-2.015 0-.617.071-1.153.212-1.606.141-.453.343-.828.606-1.123.263-.296.581-.514.956-.655a3.585 3.585 0 011.271-.212c.874 0 1.521.189 1.941.567.421.375.631.925.631 1.648zm-2.256-.266c0-.131-.03-.225-.089-.281a.33.33 0 00-.237-.084.32.32 0 00-.31.197c-.063.132-.107.378-.133.739l.749-.079c.013-.131.02-.233.02-.306v-.186zM45.98 31.243a1.753 1.753 0 00-.641-.108c-.184 0-.348.013-.493.039a3.15 3.15 0 00-.532.158L44 34.958h-2.365l.522-6.021h2.365l-.049.621h.128a3.44 3.44 0 01.34-.379c.102-.095.197-.169.286-.222a.894.894 0 01.261-.108 1.16 1.16 0 01.527 0c.082.02.169.049.261.089l-.296 2.305zM52.327 30.366h-.483v.099a.65.65 0 01.064.192c.016.082.025.172.025.271 0 .302-.061.557-.182.764a1.408 1.408 0 01-.527.508c-.23.132-.516.227-.857.286a6.951 6.951 0 01-1.173.089h-.148a6.032 6.032 0 01-.354-.015 2.434 2.434 0 00-.118-.005 2.447 2.447 0 01-.044.138.403.403 0 00-.025.089c0 .039.03.059.089.059l1.744.069a3.7 3.7 0 01.729.103 1.4 1.4 0 01.552.271c.151.125.266.286.345.483.079.197.118.443.118.739 0 .716-.287 1.25-.862 1.601s-1.408.527-2.498.527c-.907 0-1.559-.105-1.956-.315-.398-.21-.596-.503-.596-.877 0-.276.071-.494.212-.655.141-.161.346-.307.616-.439v-.118c-.184-.066-.31-.148-.379-.246a.586.586 0 01-.103-.345c0-.085.008-.171.025-.256.016-.085.046-.186.089-.301.043-.115.103-.251.182-.409.079-.158.181-.351.306-.581a1.21 1.21 0 01-.399-.478 1.696 1.696 0 01-.163-.774c0-.637.225-1.133.675-1.488.45-.355 1.171-.532 2.163-.532.177 0 .37.01.577.03.207.02.373.049.498.089h1.991l-.133 1.427zm-2.326 4.563c0-.053-.007-.085-.02-.099-.013-.013-.036-.02-.069-.02l-1.606-.059a.56.56 0 00-.039.207c0 .066.01.117.03.153.02.036.056.064.108.084.053.02.123.031.212.034.089.003.205.005.35.005.374 0 .641-.015.798-.044.157-.03.236-.117.236-.261zm-.325-4.258c0-.151-.028-.255-.084-.31-.056-.056-.156-.084-.301-.084-.191 0-.314.051-.37.153-.056.102-.084.258-.084.468 0 .151.028.255.084.31.056.056.156.084.301.084.19 0 .314-.051.37-.153.056-.101.084-.257.084-.468zM57.057 34.426c-.151.493-.33.928-.537 1.306a5.473 5.473 0 01-.596.902l-2.178-.601a7.66 7.66 0 00.409-.443c.128-.151.228-.299.301-.443l.148-.306h-.877l-.986-5.903h2.345l.315 2.779.02.251a14.366 14.366 0 01.025.542c.003.082.005.146.005.192h.128a3.379 3.379 0 01.04-.453c.013-.092.028-.186.044-.281.016-.095.034-.182.054-.261l.739-2.769h2.316l-1.715 5.488z"/></g><g><path d="M31.157 44.668H28.89l.148-3.203.015-.37c.003-.121.011-.241.025-.36h-.118c-.007.079-.02.189-.039.33-.02.141-.046.274-.079.399l-.936 3.203h-2.483l-.365-3.203a3.86 3.86 0 01-.025-.35 16.25 16.25 0 01-.005-.379h-.118c-.007.145-.013.274-.02.389a5.367 5.367 0 01-.03.34l-.424 3.203h-2.168l1.114-7.224h3.035l.463 3.627c.02.151.031.317.034.498.003.181.005.343.005.488h.118c.006-.144.02-.307.039-.488a2.76 2.76 0 01.099-.498l1.114-3.627h3.035l-.167 7.225zM37.366 40.056a5.48 5.48 0 01-.02.424l-.365 4.188h-2.109v-.424h-.128c-.256.21-.508.353-.754.429a2.31 2.31 0 01-.665.113c-.539 0-.936-.141-1.192-.424-.256-.282-.384-.673-.384-1.173 0-.296.034-.56.103-.793.069-.233.192-.434.37-.601a1.97 1.97 0 01.719-.409 5.08 5.08 0 011.143-.227l.897-.089.01-.128c.006-.066.01-.115.01-.148v-.069c0-.085-.056-.128-.168-.128-.099 0-.227.008-.384.025a8.363 8.363 0 00-.532.074c-.197.033-.407.072-.631.118-.223.046-.45.102-.68.168l-.276-1.991a12.74 12.74 0 011.572-.355 9.45 9.45 0 011.414-.108c.677 0 1.188.122 1.532.365.346.243.518.631.518 1.163zm-2.503 2.355l-.769.079a.722.722 0 00-.109.374c0 .23.125.345.374.345.053 0 .117-.01.192-.03.075-.02.159-.056.251-.108l.061-.66zM42.096 40.953a1.753 1.753 0 00-.641-.108c-.184 0-.348.013-.493.039a3.15 3.15 0 00-.532.158l-.315 3.627H37.75l.522-6.021h2.365l-.049.621h.128a3.44 3.44 0 01.34-.379c.102-.095.197-.169.286-.222a.894.894 0 01.261-.108 1.16 1.16 0 01.527 0c.082.02.169.049.261.089l-.295 2.304zM47.339 40.893l.512 1.212a.73.73 0 00.158.237c.053.046.141.069.266.069a1.363 1.363 0 00.216-.02l-.197 2.247c-.072.02-.189.039-.35.059a3.4 3.4 0 01-.409.03c-.237 0-.437-.02-.601-.059a1.248 1.248 0 01-.429-.187 1.165 1.165 0 01-.315-.335 3.474 3.474 0 01-.261-.503l-.345-.808-.7.897-.079.936H42.46l.68-7.776 2.365-.207-.355 4.011h.118c.085-.177.189-.366.31-.567.121-.2.251-.396.389-.586l.71-.936 2.434.089-1.772 2.197zM54.602 40.746c0 .145-.007.325-.02.542a7.127 7.127 0 01-.069.65l-3.055.365a.267.267 0 00-.01.069c0 .112.036.197.108.256.072.059.22.089.443.089.099 0 .306-.021.621-.064a15.43 15.43 0 001.35-.271l.168 2.001c-.296.085-.558.154-.788.207-.23.053-.434.094-.611.123a5.104 5.104 0 01-.847.074c-.959 0-1.684-.215-2.173-.645-.49-.43-.734-1.102-.734-2.015 0-.617.071-1.153.212-1.606.141-.453.343-.828.606-1.123.263-.296.581-.514.956-.655a3.585 3.585 0 011.271-.212c.874 0 1.521.189 1.941.567.421.375.631.925.631 1.648zm-2.257-.266c0-.131-.03-.225-.089-.281a.33.33 0 00-.237-.084.32.32 0 00-.31.197c-.063.132-.107.378-.133.739l.749-.079c.013-.131.02-.233.02-.306v-.186zM59.441 40.677h-1.528l-.128 1.518c-.007.053-.01.105-.01.158v.089c0 .053.013.092.039.118.026.026.082.039.168.039.046 0 .097-.003.153-.01.056-.006.128-.021.217-.044a12.172 12.172 0 00.813-.252l.089 2.04a9.22 9.22 0 01-.665.237 5.774 5.774 0 01-.537.138 3.641 3.641 0 01-.453.064 5.86 5.86 0 01-.424.015c-.644 0-1.109-.133-1.394-.399-.286-.266-.429-.688-.429-1.266 0-.131.01-.306.03-.522l.168-1.922h-.552l.177-2.03h.562l.099-1.133 2.395-.374-.128 1.508h1.518l-.18 2.028z"/></g><path d="M64.24 40.637c-.512-.112-.91-.189-1.192-.232a4.627 4.627 0 00-.591-.064c-.053 0-.089.007-.108.02-.02.013-.03.046-.03.099 0 .039.01.066.03.079.02.013.062.033.128.059l.946.345c.19.072.361.153.512.241a1.346 1.346 0 01.625.778c.056.174.084.379.084.616 0 .368-.066.688-.197.961a1.974 1.974 0 01-.547.69 2.344 2.344 0 01-.828.419 3.78 3.78 0 01-1.05.138c-.329 0-.687-.031-1.074-.094a8.343 8.343 0 01-1.153-.271l.365-1.872c.296.085.552.156.769.212.217.056.404.1.562.133.158.033.291.056.399.069.108.013.202.02.281.02a.361.361 0 00.143-.02c.03-.013.044-.046.044-.099 0-.046-.01-.077-.03-.094a.758.758 0 00-.148-.074l-.946-.345c-.401-.144-.701-.335-.902-.572-.2-.237-.301-.572-.301-1.005 0-.368.061-.693.182-.976.121-.282.294-.517.517-.705.223-.187.494-.328.813-.424a3.737 3.737 0 011.069-.143c.348 0 .701.021 1.059.064s.668.1.931.172l-.362 1.875z"/></svg>