<svg id="Слой_1" data-name="Слой 1" xmlns="http://www.w3.org/2000/svg" xmlns:xlink="http://www.w3.org/1999/xlink" viewBox="0 0 65 65"><defs><style>.cls-1{fill:url(#Безымянный_градиент_12);}.cls-2{fill:url(#Безымянный_градиент_12-2);}.cls-3{fill:url(#Безымянный_градиент_12-3);}.cls-4{fill:url(#Безымянный_градиент_9);}.cls-5{fill:url(#Безымянный_градиент_9-2);}.cls-6{fill:url(#Безымянный_градиент_9-3);}.cls-7{fill:url(#Безымянный_градиент_9-4);}.cls-8{fill:url(#Безымянный_градиент_9-5);}.cls-9{fill:url(#Безымянный_градиент_9-6);}.cls-10{fill:url(#Безымянный_градиент_9-7);}.cls-11{fill:url(#Безымянный_градиент_9-8);}.cls-12{fill:url(#Безымянный_градиент_9-9);}</style><linearGradient id="Безымянный_градиент_12" x1="19.05" y1="18.92" x2="20.26" y2="31.45" gradientUnits="userSpaceOnUse"><stop offset="0" stop-color="#fff"/><stop offset="1"/></linearGradient><linearGradient id="Безымянный_градиент_12-2" x1="27.8" y1="18.07" x2="29.01" y2="30.6" xlink:href="#Безымянный_градиент_12"/><linearGradient id="Безымянный_градиент_12-3" x1="37.19" y1="17.16" x2="38.4" y2="29.7" xlink:href="#Безымянный_градиент_12"/><linearGradient id="Безымянный_градиент_9" x1="44.35" y1="30.71" x2="52.92" y2="30.71" gradientUnits="userSpaceOnUse"><stop offset="0" stop-color="#910"/><stop offset="1" stop-color="#ff1010"/></linearGradient><linearGradient id="Безымянный_градиент_9-2" x1="53.1" y1="30.71" x2="65" y2="30.71" xlink:href="#Безымянный_градиент_9"/><linearGradient id="Безымянный_градиент_9-3" x1="17.84" y1="31.17" x2="7.51" y2="30.82" xlink:href="#Безымянный_градиент_9"/><linearGradient id="Безымянный_градиент_9-4" x1="4.07" y1="25.98" x2="3.98" y2="36.3" xlink:href="#Безымянный_градиент_9"/><linearGradient id="Безымянный_градиент_9-5" x1="12.46" y1="41.96" x2="0.06" y2="30.84" xlink:href="#Безымянный_градиент_9"/><linearGradient id="Безымянный_градиент_9-6" x1="14.49" y1="39.7" x2="2.1" y2="28.57" xlink:href="#Безымянный_градиент_9"/><linearGradient id="Безымянный_градиент_9-7" x1="1.07" y1="25.96" x2="0.98" y2="36.27" xlink:href="#Безымянный_градиент_9"/><linearGradient id="Безымянный_градиент_9-8" x1="11.08" y1="34.82" x2="15.34" y2="34.82" xlink:href="#Безымянный_градиент_9"/><linearGradient id="Безымянный_градиент_9-9" x1="6.74" y1="28.83" x2="15.2" y2="28.83" xlink:href="#Безымянный_градиент_9"/></defs><title>EuroFx-Logo-65x65Монтажная область 1</title><path class="cls-1" d="M19.28,33.5a1.21,1.21,0,0,0,.89.4,1.05,1.05,0,0,0,.84-.39,1.53,1.53,0,0,0,.33-1V27.43h2.87v5.06a3.89,3.89,0,0,1-.5,2,3.41,3.41,0,0,1-1.41,1.33,4.69,4.69,0,0,1-2.14.47A4.8,4.8,0,0,1,18,35.81a3.43,3.43,0,0,1-1.44-1.33,3.8,3.8,0,0,1-.51-2V27.43h2.86v5.06A1.44,1.44,0,0,0,19.28,33.5Z"/><path class="cls-2" d="M30.3,36.08l-1-2.25H28.19v2.25H25.32V27.43h4.19a4.15,4.15,0,0,1,2.73.8,2.84,2.84,0,0,1,1,2.29,3.64,3.64,0,0,1-.35,1.64,2.8,2.8,0,0,1-1,1.11l1.7,2.81Zm-2.11-4.42h1.32a.91.91,0,0,0,.72-.28,1.08,1.08,0,0,0,.25-.77,1,1,0,0,0-.25-.75,1,1,0,0,0-.72-.26H28.19Z"/><path class="cls-3" d="M41,27.82a4.32,4.32,0,0,1,1.7,1.61,4.37,4.37,0,0,1,.61,2.3,4.49,4.49,0,0,1-.61,2.34A4.35,4.35,0,0,1,41,35.69a5.36,5.36,0,0,1-4.89,0,4.35,4.35,0,0,1-1.7-1.62,4.49,4.49,0,0,1-.61-2.34,4.44,4.44,0,0,1,.61-2.32,4.37,4.37,0,0,1,1.7-1.6,5.18,5.18,0,0,1,2.45-.57A5.06,5.06,0,0,1,41,27.82ZM37.71,29.9a2.09,2.09,0,0,0-.68.76,2.28,2.28,0,0,0-.25,1.09A2.33,2.33,0,0,0,37,32.84a2,2,0,0,0,.68.77,1.64,1.64,0,0,0,.92.29,1.6,1.6,0,0,0,.9-.28,1.89,1.89,0,0,0,.65-.77,2.64,2.64,0,0,0,.23-1.1,2.61,2.61,0,0,0-.23-1.1,1.93,1.93,0,0,0-.65-.76,1.59,1.59,0,0,0-.9-.27A1.71,1.71,0,0,0,37.71,29.9Z"/><path class="cls-4" d="M44.35,25.38h8.57v2.68H47.87V29.9H52.6v2.67H47.87V36H44.35Z"/><path class="cls-5" d="M53.33,25.38h4.1L59,27.89l1.55-2.51h4.15l-3.45,5.08L65,36H60.78L59,33.29,57.22,36H53.1l3.74-5.41Z"/><polygon class="cls-6" points="11.31 36.12 6.21 36.12 6.21 25.42 11.31 34.8 11.31 36.12"/><polygon class="cls-7" points="5.13 36.12 2.9 36.12 2.9 28.38 5.13 34.16 5.13 36.12"/><polygon class="cls-8" points="2.67 31.55 2.62 35.53 0.33 30.07 1.87 30.07 2.67 31.55"/><polygon class="cls-9" points="5.96 28.98 5.96 35.47 3 27.94 5.21 27.94 5.96 28.98"/><polygon class="cls-10" points="1.8 36.12 0.22 36.12 0.22 30.54 1.8 34.28 1.8 36.12"/><polygon class="cls-11" points="11.08 33.48 11.76 34.73 11.76 36.16 15.34 36.16 15.34 33.48 11.08 33.48"/><polygon class="cls-12" points="15.21 28.18 15.21 25.5 6.74 25.5 10.36 32.16 14.7 32.16 14.7 29.49 9.72 29.49 9.72 28.18 15.21 28.18"/></svg>