<?xml version="1.0" encoding="UTF-8"?>
<svg width="65px" height="65px" viewBox="0 0 65 65" version="1.1" xmlns="http://www.w3.org/2000/svg" xmlns:xlink="http://www.w3.org/1999/xlink">
    <!-- Generator: Sketch 54.1 (76490) - https://sketchapp.com -->
    <title>BO_Brand_header_logo</title>
    <desc>Created with Sketch.</desc>
    <g id="BO_Brand_header_logo" stroke="none" stroke-width="1" fill="none" fill-rule="evenodd">
        <g id="Group-2" transform="translate(1.000000, 10.000000)" fill-rule="nonzero">
            <g id="Group">
                <path d="M48.7414634,1.85818966 L19.3186341,44.3118105 L30.944,44.3118103 C32.3519098,44.3122092 33.6715256,43.6299601 34.4796098,42.4838793 L63.8907317,1.27897692e-13 L52.2770732,1.27897692e-13 C50.8660324,0.00362670431 49.5458388,0.692548091 48.7414634,1.845 L48.7414634,1.85818966 Z M2.91322522e-13,44.3079325 L11.6253659,44.307931 C13.0325264,44.3090852 14.3519412,43.6283877 15.1609756,42.4838793 L22.2883902,32.1850862 L29.2339512,22.1609483 L22.2922927,12.1399138 L15.1742439,1.84112069 C14.3725714,0.694964233 13.060083,0.00816831515 11.6558049,1.27897692e-13 L2.91322522e-13,1.27897692e-13 L15.3506341,22.1601724 L2.91322522e-13,44.3079325 Z" id="Shape" fill="#003552"></path>
                <path d="M34.4920976,1.85431034 L63.8946341,44.3374175 L52.2692683,44.3374138 C50.8568687,44.3392589 49.534275,43.6490851 48.7336585,42.4924138 L19.331122,1.17239551e-13 L30.9564878,1.17239551e-13 C32.3675286,0.00362670431 33.6877222,0.692548091 34.4920976,1.845" id="Path" fill="#168D50"></path>
            </g>
        </g>
    </g>
</svg>