<svg id="Layer_1" data-name="Layer 1" xmlns="http://www.w3.org/2000/svg" viewBox="0 0 65 65"><defs><style>.cls-1{fill:#001a22;}.cls-2{fill:#c9aa5d;}</style></defs><rect class="cls-1" width="65" height="65"/><path class="cls-2" d="M51.53,8.77C47.25,8.41,40.68,8,32.63,8s-14.79.41-19.15.78a6,6,0,0,0-5.48,6V17.8H25.18A9.76,9.76,0,0,1,31.35,20l7.14,5.83L33.57,30l-5.94-5a9.71,9.71,0,0,0-6.29-2.3H13.61v6.63h9.86v5.15H13.61V47.2H8v3.14a3.57,3.57,0,0,0,6,2.49L54.06,16.62a4.51,4.51,0,0,0-2.45-7.84Z"/><path class="cls-2" d="M24.18,52.5a2.55,2.55,0,0,0,1.67,4.41c2,.06,4.22.09,6.52.09,8.09,0,14.79-.41,19.15-.78a6,6,0,0,0,5.4-5L41,36.79Z"/><path class="cls-2" d="M57,26.81h0a1.76,1.76,0,0,0-2.91-1.33l-8.16,7.06L57,42V26.81Z"/></svg>