<svg id="Layer_1" data-name="Layer 1" xmlns="http://www.w3.org/2000/svg" xmlns:xlink="http://www.w3.org/1999/xlink" viewBox="0 0 65 65"><defs><style>.cls-1{fill:none;}.cls-2{clip-path:url(#clip-path);}.cls-3{clip-path:url(#clip-path-2);}.cls-4{fill:#fff;}.cls-5{clip-path:url(#clip-path-3);}.cls-6{clip-path:url(#clip-path-4);}.cls-7{clip-path:url(#clip-path-6);}.cls-8{clip-path:url(#clip-path-9);}.cls-9{clip-path:url(#clip-path-10);}.cls-10{clip-path:url(#clip-path-11);}.cls-11{fill:url(#linear-gradient);}.cls-12{opacity:0.1;fill:url(#New_Pattern);}.cls-13{fill:#eec91b;}</style><clipPath id="clip-path"><rect class="cls-1" x="81.44" y="128.56" width="210" height="210"/></clipPath><clipPath id="clip-path-2"><rect id="SVGID" class="cls-1" x="85.19" y="117.31" width="210" height="210"/></clipPath><clipPath id="clip-path-3"><rect id="SVGID-2" data-name="SVGID" class="cls-1" x="-124.81" y="117.31" width="210" height="210"/></clipPath><clipPath id="clip-path-4"><rect class="cls-1" x="-128.56" y="128.56" width="210" height="210"/></clipPath><clipPath id="clip-path-6"><rect class="cls-1" x="81.44" y="-81.44" width="210" height="210"/></clipPath><clipPath id="clip-path-9"><rect id="SVGID-6" data-name="SVGID" class="cls-1" x="85.19" y="-92.69" width="210" height="210"/></clipPath><clipPath id="clip-path-10"><rect id="SVGID-7" data-name="SVGID" class="cls-1" x="-124.81" y="-92.69" width="210" height="210"/></clipPath><clipPath id="clip-path-11"><rect class="cls-1" x="-128.56" y="-81.44" width="210" height="210"/></clipPath><linearGradient id="linear-gradient" x1="3.07" y1="-2.57" x2="61.93" y2="67.57" gradientUnits="userSpaceOnUse"><stop offset="0" stop-color="#1f0f8b"/><stop offset="1" stop-color="#0f0c33"/></linearGradient><pattern id="New_Pattern" data-name="New Pattern" width="210" height="210" patternUnits="userSpaceOnUse" viewBox="0 0 210 210"><rect class="cls-1" width="210" height="210"/><g class="cls-2"><g class="cls-3"><path class="cls-4" d="M199.81,199.81l-24.62-24.62-9.62,9.62,24.62,24.62Zm-24.62-20.38,20.38,20.38-5.38,5.38-20.38-20.38Z"/><path class="cls-4" d="M259.81,184.81l-9.62-9.62-22.5,22.5-12.88-12.88,5.88-5.88,7.5,7.5,9.62-9.62-17.12-17.12-15.5,15.5-30-30-32.12,32.12,9.62,9.62,22.5-22.5,52.5,52.5Zm-107.12-2.12-5.38-5.38,27.88-27.88,30,30,15.5-15.5,12.88,12.88-5.38,5.38-7.5-7.5-10.12,10.12,17.12,17.12,22.5-22.5,5.38,5.38-27.88,27.88-52.5-52.5Z"/><path class="cls-4" d="M169.81,199.81l-9.62-9.62-7.5,7.5-23-23-9.62,9.62,32.62,32.62Zm-40.12-20.88,23,23,7.5-7.5,5.38,5.38-12.88,12.88-28.38-28.38Z"/><path class="cls-4" d="M175.19,224.43l15,15,9.62-9.62-24.62-24.62-32.12,32.12,9.62,9.62Zm0-15,20.38,20.38-5.38,5.38-15-15-22.5,22.5-5.38-5.38Z"/><path class="cls-4" d="M214.81,214.81l-9.62-9.62-9.62,9.62,9.62,9.62Zm-9.62-5.38,5.38,5.38-5.38,5.38-5.38-5.38Z"/><path class="cls-4" d="M169.81,139.81l-9.62-9.62-9.62,9.62,9.62,9.62Zm-9.62-5.38,5.38,5.38-5.38,5.38-5.38-5.38Z"/><path class="cls-4" d="M79.81,184.81l-9.62-9.62L38.07,207.31l9.62,9.62Zm-9.62-5.38,5.38,5.38L47.69,212.69l-5.38-5.38Z"/><path class="cls-4" d="M87.29,222.33l-7.48-7.74,7.56-7.3-9.71-9L53.06,222.3l17.13,17.13Zm-9.58-20,5.3,5-7.44,7.19,7.51,7.77-12.89,12.9L57.32,222.32Z"/><path class="cls-4" d="M109.81,155.31l-9.62-9.62-15,15-22.5-22.5-9.62,9.62,32.12,32.12ZM62.69,142.43l22.5,22.5,15-15,5.38,5.38L85.19,175.69,57.31,147.81Z"/><path class="cls-4" d="M124.81,169.81l-9.62-9.62L83.07,192.31l9.62,9.62Zm-9.62-5.38,5.38,5.38L92.69,197.69l-5.38-5.38Z"/><path class="cls-4" d="M124.81,199.81l-9.62-9.62L90.57,214.81l9.62,9.62Zm-9.62-5.38,5.38,5.38-20.38,20.38-5.38-5.38Z"/><path class="cls-4" d="M130.19,224.43l7.5,7.5,9.62-9.62-17.12-17.12-24.62,24.62,9.62,9.62Zm0-15,12.88,12.88-5.38,5.38-7.5-7.5-15,15-5.38-5.38Z"/><path class="cls-4" d="M94.77,139.78,77.11,121.84l-9.48,11.07,17.61,17Zm-17.5-13.5,13.34,13.56-5.47,5.83-13.39-13Z"/><path class="cls-4" d="M222.31,102.31l-9.62-9.62-25.12,25.12,9.62,9.62Zm-9.62-5.38,5.38,5.38-20.88,20.88-5.38-5.38Z"/><path class="cls-4" d="M214.8,154.82l-46.65-47.44-9.53,10.48,46.57,46.57Zm-46.57-43.08,42.35,43.06-5.39,5.39-42.43-42.43Z"/><path class="cls-4" d="M109.81,124.81,92.19,107.19l-9.62,9.62,17.62,17.62ZM92.19,111.43l13.38,13.38-5.38,5.38L86.81,116.81Z"/><path class="cls-4" d="M154.81,124.81l-9.62-9.62-7.5,7.5-15-15-9.62,9.62,24.62,24.62Zm-32.12-12.88,15,15,7.5-7.5,5.38,5.38-12.88,12.88-20.38-20.38Z"/><path class="cls-4" d="M244.85,139.78l-10.21-9.57-7.2,7.44-5.15-5.32,15-15-9.62-9.62L202.94,132.3l24.49,24.63Zm-17.16-27.85,5.38,5.38-15,15,9.35,9.68,7.3-7.56,5.78,5.43-13.07,12.85-20.26-20.37Z"/><path class="cls-4" d="M154.81,154.81l-9.62-9.62-7.5,7.5-22.5-22.5-9.62,9.62,32.12,32.12Zm-39.62-20.38,22.5,22.5,7.5-7.5,5.38,5.38-12.88,12.88-27.88-27.88Z"/></g><g class="cls-5"><path class="cls-4" d="M87.29,222.33l-7.48-7.74,7.56-7.3-9.71-9L53.06,222.3l17.13,17.13Zm-9.58-20,5.3,5-7.44,7.19,7.51,7.77-12.89,12.9L57.32,222.32Z"/><path class="cls-4" d="M109.81,155.31l-9.62-9.62-15,15-22.5-22.5-9.62,9.62,32.12,32.12ZM62.69,142.43l22.5,22.5,15-15,5.38,5.38L85.19,175.69,57.31,147.81Z"/><path class="cls-4" d="M124.81,169.81l-9.62-9.62L83.07,192.31l9.62,9.62Zm-9.62-5.38,5.38,5.38L92.69,197.69l-5.38-5.38Z"/><path class="cls-4" d="M94.77,139.78,77.11,121.84l-9.48,11.07,17.61,17Zm-17.5-13.5,13.34,13.56-5.47,5.83-13.39-13Z"/><path class="cls-4" d="M109.81,124.81,92.19,107.19l-9.62,9.62,17.62,17.62ZM92.19,111.43l13.38,13.38-5.38,5.38L86.81,116.81Z"/></g></g><g class="cls-6"><g class="cls-5"><path class="cls-4" d="M49.81,184.81l-9.62-9.62-22.5,22.5L4.81,184.81l5.88-5.88,7.5,7.5,9.62-9.62L10.69,159.69l-15.5,15.5-30-30-32.12,32.12,9.62,9.62,22.5-22.5,52.5,52.5Zm-107.12-2.12-5.38-5.38,27.88-27.88,30,30,15.5-15.5,12.88,12.88-5.38,5.38-7.5-7.5L.57,184.81l17.12,17.12,22.5-22.5,5.38,5.38L17.69,212.69l-52.5-52.5Z"/><path class="cls-4" d="M4.81,214.81l-9.62-9.62-9.62,9.62,9.62,9.62Zm-9.62-5.38,5.38,5.38-5.38,5.38-5.38-5.38Z"/><path class="cls-4" d="M79.81,184.81l-9.62-9.62L38.07,207.31l9.62,9.62Zm-9.62-5.38,5.38,5.38L47.69,212.69l-5.38-5.38Z"/><path class="cls-4" d="M64.83,169.9,39.67,146,23.06,162.3,32.72,172l7.08-7.5,15.4,15.22Zm-32.17-2.24-5.34-5.34L39.71,150.2,60.55,170l-5.38,5.47L39.73,160.16Z"/><path class="cls-4" d="M79.81,184.81l-9.62-9.62L38.07,207.31l9.62,9.62Zm-9.62-5.38,5.38,5.38L47.69,212.69l-5.38-5.38Z"/><path class="cls-4" d="M72.27,117.55l-9.63-9.35-7,7-15-15-10.15,9.52,7,7.55-7.29,7.54,17.23,17.09Zm-30.51-.22-6.95-7.45,5.85-5.48,15,15,7-7L68,117.57,47.57,137.7l-13-12.91Z"/><path class="cls-4" d="M12.31,102.31,2.69,92.69l-25.12,25.12,9.62,9.62ZM2.69,96.93l5.38,5.38-20.88,20.88-5.38-5.38Z"/><path class="cls-4" d="M4.8,154.82l-46.65-47.44-9.53,10.48,46.57,46.57Zm-46.57-43.08L.58,154.8l-5.39,5.39-42.43-42.43Z"/><path class="cls-4" d="M79.81,184.81l-9.62-9.62L38.07,207.31l9.62,9.62Zm-9.62-5.38,5.38,5.38L47.69,212.69l-5.38-5.38Z"/><path class="cls-4" d="M87.29,222.33l-7.48-7.74,7.56-7.3-9.71-9L53.06,222.3l17.13,17.13Zm-9.58-20,5.3,5-7.44,7.19,7.51,7.77-12.89,12.9L57.32,222.32Z"/><path class="cls-4" d="M109.81,155.31l-9.62-9.62-15,15-22.5-22.5-9.62,9.62,32.12,32.12ZM62.69,142.43l22.5,22.5,15-15,5.38,5.38L85.19,175.69,57.31,147.81Z"/><path class="cls-4" d="M124.81,169.81l-9.62-9.62L83.07,192.31l9.62,9.62Zm-9.62-5.38,5.38,5.38L92.69,197.69l-5.38-5.38Z"/><path class="cls-4" d="M94.77,139.78,77.11,121.84l-9.48,11.07,17.61,17Zm-17.5-13.5,13.34,13.56-5.47,5.83-13.39-13Z"/><path class="cls-4" d="M109.81,124.81,92.19,107.19l-9.62,9.62,17.62,17.62ZM92.19,111.43l13.38,13.38-5.38,5.38L86.81,116.81Z"/><path class="cls-4" d="M34.85,139.78l-10.21-9.57-7.2,7.44-5.15-5.32,15-15-9.62-9.62L-7.06,132.3l24.49,24.63ZM17.69,111.93l5.38,5.38-15,15L17.44,142l7.3-7.56,5.78,5.43L17.45,152.69-2.81,132.32Z"/></g></g><g class="cls-7"><g class="cls-3"><path class="cls-4" d="M94.77,139.78,77.11,121.84l-9.48,11.07,17.61,17Zm-17.5-13.5,13.34,13.56-5.47,5.83-13.39-13Z"/><path class="cls-4" d="M282.27,117.55l-9.63-9.35-7,7-15-15-10.15,9.52,7.05,7.55-7.29,7.54,17.23,17.09Zm-30.51-.22-6.95-7.45,5.85-5.48,15,15,7-7,5.31,5.15L257.57,137.7l-13-12.91Z"/><path class="cls-4" d="M222.31,102.31l-9.62-9.62-25.12,25.12,9.62,9.62Zm-9.62-5.38,5.38,5.38-20.88,20.88-5.38-5.38Z"/><path class="cls-4" d="M214.8,154.82l-46.65-47.44-9.53,10.48,46.57,46.57Zm-46.57-43.08,42.35,43.06-5.39,5.39-42.43-42.43Z"/><path class="cls-4" d="M109.81,124.81,92.19,107.19l-9.62,9.62,17.62,17.62ZM92.19,111.43l13.38,13.38-5.38,5.38L86.81,116.81Z"/><path class="cls-4" d="M304.77,139.78l-17.66-17.94-9.48,11.07,17.61,17Zm-17.5-13.5,13.34,13.56-5.47,5.83-13.39-13Z"/><path class="cls-4" d="M154.81,124.81l-9.62-9.62-7.5,7.5-15-15-9.62,9.62,24.62,24.62Zm-32.12-12.88,15,15,7.5-7.5,5.38,5.38-12.88,12.88-20.38-20.38Z"/><path class="cls-4" d="M244.85,139.78l-10.21-9.57-7.2,7.44-5.15-5.32,15-15-9.62-9.62L202.94,132.3l24.49,24.63Zm-17.16-27.85,5.38,5.38-15,15,9.35,9.68,7.3-7.56,5.78,5.43-13.07,12.85-20.26-20.37Z"/></g><g class="cls-5"><path class="cls-4" d="M94.77,139.78,77.11,121.84l-9.48,11.07,17.61,17Zm-17.5-13.5,13.34,13.56-5.47,5.83-13.39-13Z"/><path class="cls-4" d="M109.81,124.81,92.19,107.19l-9.62,9.62,17.62,17.62ZM92.19,111.43l13.38,13.38-5.38,5.38L86.81,116.81Z"/></g><g class="cls-8"><path class="cls-4" d="M199.81-10.19,175.19-34.81l-9.62,9.62L190.19-.57ZM175.19-30.57l20.38,20.38-5.38,5.38L169.81-25.19Z"/><path class="cls-4" d="M259.81-25.19l-9.62-9.62-22.5,22.5L214.81-25.19l5.88-5.88,7.5,7.5,9.62-9.62L220.69-50.31l-15.5,15.5-30-30L143.07-32.69l9.62,9.62,22.5-22.5,52.5,52.5ZM152.69-27.31l-5.38-5.38,27.88-27.88,30,30,15.5-15.5,12.88,12.88-5.38,5.38-7.5-7.5L210.57-25.19,227.69-8.07l22.5-22.5,5.38,5.38L227.69,2.69l-52.5-52.5Z"/><path class="cls-4" d="M169.81-10.19l-9.62-9.62-7.5,7.5-23-23-9.62,9.62L152.69,6.93ZM129.69-31.07l23,23,7.5-7.5,5.38,5.38L152.69,2.69,124.31-25.69Z"/><path class="cls-4" d="M175.19,14.43l15,15,9.62-9.62L175.19-4.81,143.07,27.31l9.62,9.62Zm0-15,20.38,20.38-5.38,5.38-15-15-22.5,22.5-5.38-5.38Z"/><path class="cls-4" d="M229.81,19.81l-9.62-9.62-30,30-15-15-9.62,9.62,24.62,24.62Zm-54.62,9.62,15,15,30-30,5.38,5.38L190.19,55.19,169.81,34.81Z"/><path class="cls-4" d="M177.31,57.31,160.19,40.19l-9.62,9.62,17.12,17.12ZM160.19,44.43l12.88,12.88-5.38,5.38L154.81,49.81Z"/><path class="cls-4" d="M274.81,34.81,242.69,2.69l-9.62,9.62,32.12,32.12ZM242.69,6.93l27.88,27.88-5.38,5.38L237.31,12.31Z"/><path class="cls-4" d="M274.81,64.81,235.19,25.19,210.57,49.81l9.62,9.62,15-15,5.38,5.38-15,15,9.62,9.62,15-15,15,15Zm-39.62,5.38-5.38-5.38,15-15-9.62-9.62-15,15-5.38-5.38,20.38-20.38,35.38,35.38-5.38,5.38-15-15Z"/><path class="cls-4" d="M259.81,79.81l-9.62-9.62-15,15-30-30-9.62,9.62,39.62,39.62ZM205.19,59.43l30,30,15-15,5.38,5.38-20.38,20.38L199.81,64.81Z"/><path class="cls-4" d="M154.81,64.81l-9.62-9.62L120.57,79.81l9.62,9.62Zm-9.62-5.38,5.38,5.38L130.19,85.19l-5.38-5.38Z"/><path class="cls-4" d="M214.81,4.81l-9.62-9.62-9.62,9.62,9.62,9.62ZM205.19-.57l5.38,5.38-5.38,5.38-5.38-5.38Z"/><path class="cls-4" d="M192.31,72.31l-9.62-9.62-9.62,9.62,9.62,9.62Zm-9.62-5.38,5.38,5.38-5.38,5.38-5.38-5.38Z"/><path class="cls-4" d="M207.31,87.31l-9.62-9.62-15,15-22.5-22.5-9.62,9.62,32.12,32.12ZM160.19,74.43l22.5,22.5,15-15,5.38,5.38-20.38,20.38L154.81,79.81Z"/><path class="cls-4" d="M289.81-25.19l-9.62-9.62L248.07-2.69l9.62,9.62Zm-9.62-5.38,5.38,5.38L257.69,2.69l-5.38-5.38Z"/><path class="cls-4" d="M222.31,102.31l-9.62-9.62-25.12,25.12,9.62,9.62Zm-9.62-5.38,5.38,5.38-20.88,20.88-5.38-5.38Z"/><path class="cls-4" d="M162.31,102.31,145.19,85.19l-17.12,17.12,9.62,9.62,7.5-7.5,7.5,7.5Zm-24.62,5.38-5.38-5.38,12.88-12.88,12.88,12.88-5.38,5.38-7.5-7.5Z"/><path class="cls-4" d="M274.83-40.1,249.67-64,233.06-47.7,242.72-38l7.08-7.5,15.4,15.22Zm-32.17-2.24-5.34-5.34L249.71-59.8,270.55-40l-5.38,5.47L249.73-49.84Z"/><path class="cls-4" d="M169.81-70.19l-9.62-9.62-9.62,9.62,9.62,9.62Zm-9.62-5.38,5.38,5.38-5.38,5.38-5.38-5.38Z"/><path class="cls-4" d="M101.81,27.81l-9.62-9.62L60.57,49.81l9.62,9.62Zm-9.62-5.38,5.38,5.38L70.19,55.19l-5.38-5.38Z"/><path class="cls-4" d="M79.81-25.19l-9.62-9.62L38.07-2.69l9.62,9.62Zm-9.62-5.38,5.38,5.38L47.69,2.69,42.31-2.69Z"/><path class="cls-4" d="M87.29,12.33,79.81,4.59l7.56-7.3-9.71-9L53.06,12.3,70.19,29.43ZM77.71-7.62l5.3,5L75.57,4.52l7.51,7.77L70.19,25.19,57.32,12.32Z"/><path class="cls-4" d="M109.81-54.69l-9.62-9.62-15,15-22.5-22.5-9.62,9.62L85.19-30.07ZM62.69-67.57l22.5,22.5,15-15,5.38,5.38L85.19-34.31,57.31-62.19Z"/><path class="cls-4" d="M94.81,94.81l-9.64-9.64L77.69,92.9l-5.4-5.57L85.2,74.42l15,14.73,9.65-9.32L85.19,55.19,45.57,94.81l9.62,9.62,7.5-7.5,15,15Zm-39.62,5.38-5.38-5.38L85.19,59.43l20.36,20.36L100.2,85l-15-14.77L68.08,87.29l9.61,9.93,7.52-7.77,5.36,5.36L77.69,107.69l-15-15Z"/><path class="cls-4" d="M124.81-40.19l-9.62-9.62L83.07-17.69l9.62,9.62Zm-9.62-5.38,5.38,5.38L92.69-12.31l-5.38-5.38Z"/><path class="cls-4" d="M124.81-10.19l-9.62-9.62L90.57,4.81l9.62,9.62Zm-9.62-5.38,5.38,5.38L100.19,10.19,94.81,4.81Z"/><path class="cls-4" d="M130.19,14.43l7.5,7.5,9.62-9.62L130.19-4.81,105.57,19.81l9.62,9.62Zm0-15,12.88,12.88-5.38,5.38-7.5-7.5-15,15-5.38-5.38Z"/><path class="cls-4" d="M124.31,64.31l-14.5-14.5,7.5-7.5-9.62-9.62L90.57,49.81l24.12,24.12ZM107.69,36.93l5.38,5.38-7.5,7.5,14.5,14.5-5.38,5.38L94.81,49.81Z"/><path class="cls-4" d="M147.31,42.31,130.19,25.19l-9.62,9.62,7.5,7.5-7.5,7.5,9.62,9.62Zm-15,0-7.5-7.5,5.38-5.38,12.88,12.88L130.19,55.19l-5.38-5.38Z"/><path class="cls-4" d="M124.81,94.81l-9.62-9.62L98.57,101.81l9.62,9.62Zm-9.62-5.38,5.38,5.38-12.38,12.38-5.38-5.38Z"/><path class="cls-4" d="M289.81-25.19l-9.62-9.62L248.07-2.69l9.62,9.62Zm-9.62-5.38,5.38,5.38L257.69,2.69l-5.38-5.38Z"/><path class="cls-4" d="M94.77-70.22,77.11-88.16,67.63-77.09,85.24-60Zm-17.5-13.5L90.61-70.16l-5.47,5.83-13.39-13Z"/><path class="cls-4" d="M214.8,154.82l-46.65-47.44-9.53,10.48,46.57,46.57Zm-46.57-43.08,42.35,43.06-5.39,5.39-42.43-42.43Z"/><path class="cls-4" d="M282.27,117.55l-9.63-9.35-7,7-15-15-10.15,9.52,7.05,7.55-7.29,7.54,17.23,17.09Zm-30.51-.22-6.95-7.45,5.85-5.48,15,15,7-7,5.31,5.15L257.57,137.7l-13-12.91Z"/><path class="cls-4" d="M282.27-92.45l-9.63-9.35-7,7-15-15-10.15,9.52,7.05,7.55-7.29,7.54,17.23,17.09Zm-30.51-.22-6.95-7.45,5.85-5.48,15,15,7-7L278-92.43,257.57-72.3l-13-12.91Z"/><path class="cls-4" d="M154.81,124.81l-9.62-9.62-7.5,7.5-15-15-9.62,9.62,24.62,24.62Zm-32.12-12.88,15,15,7.5-7.5,5.38,5.38-12.88,12.88-20.38-20.38Z"/><path class="cls-4" d="M244.85,139.78l-10.21-9.57-7.2,7.44-5.15-5.32,15-15-9.62-9.62L202.94,132.3l24.49,24.63Zm-17.16-27.85,5.38,5.38-15,15,9.35,9.68,7.3-7.56,5.78,5.43-13.07,12.85-20.26-20.37Z"/><path class="cls-4" d="M222.31-107.69l-9.62-9.62L187.57-92.19l9.62,9.62Zm-9.62-5.38,5.38,5.38L197.19-86.81l-5.38-5.38Z"/><path class="cls-4" d="M214.8-55.18l-46.65-47.44-9.53,10.48,46.57,46.57ZM168.23-98.26,210.58-55.2l-5.39,5.39L162.76-92.24Z"/><path class="cls-4" d="M109.81-85.19,92.19-102.81l-9.62,9.62,17.62,17.62ZM92.19-98.57l13.38,13.38-5.38,5.38L86.81-93.19Z"/><path class="cls-4" d="M109.81,124.81,92.19,107.19l-9.62,9.62,17.62,17.62ZM92.19,111.43l13.38,13.38-5.38,5.38L86.81,116.81Z"/><path class="cls-4" d="M311.81,27.81l-9.62-9.62L270.57,49.81l9.62,9.62Zm-9.62-5.38,5.38,5.38L280.19,55.19l-5.38-5.38Z"/><path class="cls-4" d="M289.81-25.19l-9.62-9.62L248.07-2.69l9.62,9.62Zm-9.62-5.38,5.38,5.38L257.69,2.69l-5.38-5.38Z"/><path class="cls-4" d="M297.29,12.33l-7.48-7.74,7.56-7.3-9.71-9L263.06,12.3l17.13,17.13ZM287.71-7.62l5.3,5-7.44,7.19,7.51,7.77-12.89,12.9L267.32,12.32Z"/><path class="cls-4" d="M319.81-54.69l-9.62-9.62-15,15-22.5-22.5-9.62,9.62,32.12,32.12ZM272.69-67.57l22.5,22.5,15-15,5.38,5.38L295.19-34.31,267.31-62.19Z"/><path class="cls-4" d="M304.81,94.81l-9.64-9.64-7.48,7.73-5.4-5.57L295.2,74.42l15,14.73,9.65-9.32L295.19,55.19,255.57,94.81l9.62,9.62,7.5-7.5,15,15Zm-39.62,5.38-5.38-5.38,35.38-35.38,20.36,20.36L310.2,85l-15-14.77-17.1,17.09,9.61,9.93,7.52-7.77,5.36,5.36-12.88,12.88-15-15Z"/><path class="cls-4" d="M334.81-40.19l-9.62-9.62L293.07-17.69l9.62,9.62Zm-9.62-5.38,5.38,5.38L302.69-12.31l-5.38-5.38Z"/><path class="cls-4" d="M304.77-70.22,287.11-88.16l-9.48,11.07,17.61,17Zm-17.5-13.5,13.34,13.56-5.47,5.83-13.39-13Z"/><path class="cls-4" d="M319.81-85.19l-17.62-17.62-9.62,9.62,17.62,17.62ZM302.19-98.57l13.38,13.38-5.38,5.38L296.81-93.19Z"/><path class="cls-4" d="M319.81,124.81l-17.62-17.62-9.62,9.62,17.62,17.62Zm-17.62-13.38,13.38,13.38-5.38,5.38-13.38-13.38Z"/><path class="cls-4" d="M154.81-85.19l-9.62-9.62-7.5,7.5-15-15-9.62,9.62,24.62,24.62ZM122.69-98.07l15,15,7.5-7.5,5.38,5.38L137.69-72.31,117.31-92.69Z"/><path class="cls-4" d="M244.85-70.22l-10.21-9.57-7.2,7.44-5.15-5.32,15-15-9.62-9.62L202.94-77.7l24.49,24.63ZM227.69-98.07l5.38,5.38-15,15L227.44-68l7.3-7.56,5.78,5.43L227.45-57.31,207.19-77.68Z"/><path class="cls-4" d="M154.81-55.19l-9.62-9.62-7.5,7.5-22.5-22.5-9.62,9.62,32.12,32.12ZM115.19-75.57l22.5,22.5,7.5-7.5,5.38,5.38L137.69-42.31,109.81-70.19Z"/></g><g class="cls-9"><path class="cls-4" d="M101.81,27.81l-9.62-9.62L60.57,49.81l9.62,9.62Zm-9.62-5.38,5.38,5.38L70.19,55.19l-5.38-5.38Z"/><path class="cls-4" d="M87.29,12.33,79.81,4.59l7.56-7.3-9.71-9L53.06,12.3,70.19,29.43ZM77.71-7.62l5.3,5L75.57,4.52l7.51,7.77L70.19,25.19,57.32,12.32Z"/><path class="cls-4" d="M109.81-54.69l-9.62-9.62-15,15-22.5-22.5-9.62,9.62L85.19-30.07ZM62.69-67.57l22.5,22.5,15-15,5.38,5.38L85.19-34.31,57.31-62.19Z"/><path class="cls-4" d="M94.81,94.81l-9.64-9.64L77.69,92.9l-5.4-5.57L85.2,74.42l15,14.73,9.65-9.32L85.19,55.19,45.57,94.81l9.62,9.62,7.5-7.5,15,15Zm-39.62,5.38-5.38-5.38L85.19,59.43l20.36,20.36L100.2,85l-15-14.77L68.08,87.29l9.61,9.93,7.52-7.77,5.36,5.36L77.69,107.69l-15-15Z"/><path class="cls-4" d="M124.81-40.19l-9.62-9.62L83.07-17.69l9.62,9.62Zm-9.62-5.38,5.38,5.38L92.69-12.31l-5.38-5.38Z"/><path class="cls-4" d="M94.77-70.22,77.11-88.16,67.63-77.09,85.24-60Zm-17.5-13.5L90.61-70.16l-5.47,5.83-13.39-13Z"/><path class="cls-4" d="M109.81-85.19,92.19-102.81l-9.62,9.62,17.62,17.62ZM92.19-98.57l13.38,13.38-5.38,5.38L86.81-93.19Z"/><path class="cls-4" d="M109.81,124.81,92.19,107.19l-9.62,9.62,17.62,17.62ZM92.19,111.43l13.38,13.38-5.38,5.38L86.81,116.81Z"/></g></g><g class="cls-10"><g class="cls-5"><path class="cls-4" d="M72.27,117.55l-9.63-9.35-7,7-15-15-10.15,9.52,7,7.55-7.29,7.54,17.23,17.09Zm-30.51-.22-6.95-7.45,5.85-5.48,15,15,7-7L68,117.57,47.57,137.7l-13-12.91Z"/><path class="cls-4" d="M12.31,102.31,2.69,92.69l-25.12,25.12,9.62,9.62ZM2.69,96.93l5.38,5.38-20.88,20.88-5.38-5.38Z"/><path class="cls-4" d="M4.8,154.82l-46.65-47.44-9.53,10.48,46.57,46.57Zm-46.57-43.08L.58,154.8l-5.39,5.39-42.43-42.43Z"/><path class="cls-4" d="M94.77,139.78,77.11,121.84l-9.48,11.07,17.61,17Zm-17.5-13.5,13.34,13.56-5.47,5.83-13.39-13Z"/><path class="cls-4" d="M34.85,139.78l-10.21-9.57-7.2,7.44-5.15-5.32,15-15-9.62-9.62L-7.06,132.3l24.49,24.63ZM17.69,111.93l5.38,5.38-15,15L17.44,142l7.3-7.56,5.78,5.43L17.45,152.69-2.81,132.32Z"/></g><g class="cls-9"><path class="cls-4" d="M49.81-25.19l-9.62-9.62-22.5,22.5L4.81-25.19l5.88-5.88,7.5,7.5,9.62-9.62L10.69-50.31l-15.5,15.5-30-30L-66.93-32.69l9.62,9.62,22.5-22.5,52.5,52.5ZM-57.31-27.31l-5.38-5.38,27.88-27.88,30,30,15.5-15.5L23.57-33.19l-5.38,5.38-7.5-7.5L.57-25.19,17.69-8.07l22.5-22.5,5.38,5.38L17.69,2.69l-52.5-52.5Z"/><path class="cls-4" d="M19.81,19.81l-9.62-9.62-30,30-15-15-9.62,9.62,24.62,24.62Zm-54.62,9.62,15,15,30-30,5.38,5.38L-19.81,55.19-40.19,34.81Z"/><path class="cls-4" d="M64.81,34.81,32.69,2.69l-9.62,9.62L55.19,44.43ZM32.69,6.93,60.57,34.81l-5.38,5.38L27.31,12.31Z"/><path class="cls-4" d="M64.81,64.81,25.19,25.19.57,49.81l9.62,9.62,15-15,5.38,5.38-15,15,9.62,9.62,15-15,15,15ZM25.19,70.19l-5.38-5.38,15-15-9.62-9.62-15,15L4.81,49.81,25.19,29.43,60.57,64.81l-5.38,5.38-15-15Z"/><path class="cls-4" d="M49.81,79.81l-9.62-9.62-15,15-30-30-9.62,9.62,39.62,39.62ZM-4.81,59.43l30,30,15-15,5.38,5.38L25.19,100.19-10.19,64.81Z"/><path class="cls-4" d="M4.81,4.81-4.81-4.81l-9.62,9.62,9.62,9.62ZM-4.81-.57.57,4.81l-5.38,5.38-5.38-5.38Z"/><path class="cls-4" d="M79.81-25.19l-9.62-9.62L38.07-2.69l9.62,9.62Zm-9.62-5.38,5.38,5.38L47.69,2.69,42.31-2.69Z"/><path class="cls-4" d="M12.31,102.31,2.69,92.69l-25.12,25.12,9.62,9.62ZM2.69,96.93l5.38,5.38-20.88,20.88-5.38-5.38Z"/><path class="cls-4" d="M79.81-25.19l-9.62-9.62L38.07-2.69l9.62,9.62Zm-9.62-5.38,5.38,5.38L47.69,2.69,42.31-2.69Z"/><path class="cls-4" d="M4.8,154.82l-46.65-47.44-9.53,10.48,46.57,46.57Zm-46.57-43.08L.58,154.8l-5.39,5.39-42.43-42.43Z"/><path class="cls-4" d="M72.27,117.55l-9.63-9.35-7,7-15-15-10.15,9.52,7,7.55-7.29,7.54,17.23,17.09Zm-30.51-.22-6.95-7.45,5.85-5.48,15,15,7-7L68,117.57,47.57,137.7l-13-12.91Z"/><path class="cls-4" d="M34.85,139.78l-10.21-9.57-7.2,7.44-5.15-5.32,15-15-9.62-9.62L-7.06,132.3l24.49,24.63ZM17.69,111.93l5.38,5.38-15,15L17.44,142l7.3-7.56,5.78,5.43L17.45,152.69-2.81,132.32Z"/><path class="cls-4" d="M101.81,27.81l-9.62-9.62L60.57,49.81l9.62,9.62Zm-9.62-5.38,5.38,5.38L70.19,55.19l-5.38-5.38Z"/><path class="cls-4" d="M79.81-25.19l-9.62-9.62L38.07-2.69l9.62,9.62Zm-9.62-5.38,5.38,5.38L47.69,2.69,42.31-2.69Z"/><path class="cls-4" d="M87.29,12.33,79.81,4.59l7.56-7.3-9.71-9L53.06,12.3,70.19,29.43ZM77.71-7.62l5.3,5L75.57,4.52l7.51,7.77L70.19,25.19,57.32,12.32Z"/><path class="cls-4" d="M94.81,94.81l-9.64-9.64L77.69,92.9l-5.4-5.57L85.2,74.42l15,14.73,9.65-9.32L85.19,55.19,45.57,94.81l9.62,9.62,7.5-7.5,15,15Zm-39.62,5.38-5.38-5.38L85.19,59.43l20.36,20.36L100.2,85l-15-14.77L68.08,87.29l9.61,9.93,7.52-7.77,5.36,5.36L77.69,107.69l-15-15Z"/><path class="cls-4" d="M109.81,124.81,92.19,107.19l-9.62,9.62,17.62,17.62ZM92.19,111.43l13.38,13.38-5.38,5.38L86.81,116.81Z"/></g></g></pattern></defs><rect class="cls-11" width="65" height="65"/><rect class="cls-12" width="65" height="65"/><polygon class="cls-13" points="9.7 36.3 17.3 36.3 19.22 25.32 11.62 25.32 9.7 36.3"/><polygon class="cls-4" points="13.01 60.79 20.61 60.79 24.9 36.3 17.3 36.3 13.01 60.79"/><polygon class="cls-13" points="24.9 36.3 32.5 36.3 38.12 4.21 30.52 4.21 24.9 36.3"/><polygon class="cls-4" points="30.53 47.56 38.13 47.56 40.1 36.3 32.5 36.3 30.53 47.56"/><polygon class="cls-13" points="40.1 36.3 47.7 36.3 50.66 19.41 43.06 19.41 40.1 36.3"/><polygon class="cls-4" points="45.04 51.5 52.64 51.5 55.3 36.3 47.7 36.3 45.04 51.5"/></svg>