<?xml version="1.0" encoding="UTF-8"?>
<svg width="65px" height="65px" viewBox="0 0 65 65" version="1.1" xmlns="http://www.w3.org/2000/svg" xmlns:xlink="http://www.w3.org/1999/xlink">
    <!-- Generator: Sketch 53.2 (72643) - https://sketchapp.com -->
    <title>BO_Brand_header_logo</title>
    <desc>Created with Sketch.</desc>
    <g id="BO_Brand_header_logo" stroke="none" stroke-width="1" fill="none" fill-rule="evenodd">
        <g id="512X512_X-Copy" transform="translate(1.000000, 6.000000)" fill-rule="nonzero" stroke-width="0.5">
            <path d="M52.2808228,0.257111111 C53.6807126,0.604405797 55.0244232,0.982724638 56.321752,1.52771981 C58.2963307,2.35720773 59.8931575,3.76284058 61.2889547,5.38765217 C61.4810551,5.61135266 61.6275177,6.00210628 61.7426043,6.56091787 C60.9570886,6.02069565 60.472063,5.67214493 59.9866654,5.4664058 C58.432748,4.80786473 56.5458484,4.52751691 54.9155374,4.70298551 C52.6708524,4.94452174 50.4037205,5.52606763 48.2930965,6.34864734 C45.6928583,7.36201932 43.2377185,8.76061836 40.7329724,10.0192947 C39.9482008,10.4136908 39.2053465,10.8938744 38.2593543,11.4411304 C39.3137362,12.2918454 40.257,13.0434589 41.1900945,13.8078841 C42.9844783,15.2779517 44.7977126,16.725913 46.5509232,18.2448406 C47.1865039,18.7954879 47.470376,19.123314 48.1515945,18.1684734 C50.0472992,15.5117005 51.8485039,12.8128502 52.9977579,9.73542995 C53.3969646,8.66628986 53.5554567,7.50495652 53.8671083,6.20520773 C54.4639961,6.11891787 55.0729134,6.10007729 55.7455748,6.12921739 C56.4465118,6.15961353 57.1908543,6.14730435 57.8863346,6.21889855 C60.6172854,6.5 61.8290433,9.75075362 61.1717598,11.8163092 C60.7189783,13.8858841 59.9721555,16.0603382 58.9947874,17.9869758 C57.9349488,20.0760193 56.510752,21.9957488 55.0956083,23.8735266 C53.8783937,25.4884155 53.7970394,25.7191498 55.0612559,27.0688889 C58.0929449,30.3055749 60.5229094,33.9858937 62.070626,38.1394879 C63.1366654,41.0004928 63.5517461,44.0419903 61.8540945,46.9516039 C60.4850846,49.2981353 58.3831417,50.5504058 55.8735591,51.2040483 C54.8398878,51.473343 53.7748406,51.6288406 52.7174823,51.792 C52.140437,51.8810531 51.549502,51.877913 50.9648917,51.9164734 C50.7652264,51.8103382 51.1532717,51.2544155 51.3156083,51.2428599 C54.4615157,51.0197874 55.8034902,47.4000097 55.3112717,44.8589179 C54.7493563,41.9582222 53.5397067,39.4693816 52.0154291,36.9938551 C48.9223524,31.9707053 44.8943209,27.7965121 40.682374,23.802058 C37.7805295,21.0502029 34.6152756,18.5832174 31.4443169,15.8839903 C28.389313,18.5348599 25.3788307,21.0277198 22.5082382,23.6762029 C20.254128,25.7559517 18.0526004,27.9211111 16.0457776,30.2417681 C13.5359469,33.143971 11.1501319,36.1499227 9.40771063,39.6528889 C8.3923937,41.6939517 7.79848228,43.7910338 7.48075394,46.0029179 C7.18460433,48.0643285 9.26819291,50.8585121 11.3077559,51.2230145 C11.5756299,51.2708696 11.8382953,51.3491208 12.1034409,51.4131787 C12.1776024,51.4909275 12.2284488,51.5939227 12.1008366,51.7097295 C11.852185,51.8412367 11.4379724,51.9211208 11.1173917,51.8941159 C7.67409449,51.6051014 4.35617717,50.9826087 1.95399213,48.1056522 C0.876791339,46.8155749 0.251751969,45.3537971 0.140385827,43.6411884 C-0.0765177165,40.3048986 0.905438976,37.3082415 2.67005906,34.572715 C4.65852756,31.4902705 6.7630748,28.48457 8.9318622,25.2757681 C8.78403543,25.0917585 8.631,24.901971 8.47387205,24.7071594 C7.77045472,23.8354686 6.98456693,22.86543 6.21579331,21.8817005 C5.96800984,21.5646763 5.70993307,21.27943 5.49563386,20.9381643 C5.19216732,20.4549662 3.83741929,18.1096908 2.89527165,15.6983478 C2.1238937,13.7238551 1.85589567,11.5378454 1.75717913,10.9601932 C1.32882874,8.45251208 2.94500197,6.39311111 5.46066142,6.23761353 C6.52074803,6.17204831 7.59323622,6.17003865 8.64873425,6.26650242 C8.93384646,6.29250242 9.37261417,6.7601256 9.40932283,7.06597101 C9.7201063,9.65089855 10.7847815,11.9292271 12.1237795,14.0884831 C13.1607992,15.7606473 14.2910787,17.3735266 15.4087087,19.0561159 C18.4938484,16.5081159 21.5404193,13.9917681 24.6390768,11.4325894 C20.0369764,8.58703382 15.2896535,6.06654106 9.98289567,4.9367343 C7.67223425,4.44474396 5.24363386,4.16276329 2.98195866,5.362657 C2.49519685,5.62089855 2.07155906,6.00110145 1.61890157,6.32503382 C1.53903543,6.36233816 1.37632677,6.37263768 1.36640551,6.1652657 C1.86370866,5.4631401 2.26427953,4.65513043 2.8775374,4.07973913 C4.40714764,2.64458937 6.17201575,1.55510145 8.1947126,0.956096618 C8.6742815,0.814038647 10.8630354,0.554541063 12.7981772,0.459835749 C14.3444055,0.384222222 15.757813,0.457449275 15.7931575,0.458830918 C19.2101634,0.598251208 22.2263504,2.11818357 25.2853228,3.40097585 C27.2213327,4.21287923 28.9909134,5.42583575 30.870248,6.38846377 C31.2280335,6.57171981 31.8259134,6.58227053 32.1845669,6.40529469 C34.4282598,5.29797101 36.6023799,4.04205797 38.8662874,2.98171014 C40.4250413,2.25157488 42.0794114,1.72052174 43.714311,1.17100483 C44.8113543,0.802357488 45.9488268,0.557178744 47.0681929,0.2567343 C47.903811,0.0960869565 48.7869272,0 49.6531772,0 C50.5246358,0 51.2126752,0.0960869565 52.2808228,0.257111111 Z" id="Path" stroke="#555555" fill="#555555"></path>
            <path d="M39.7613091,39.6219903 C42.4704331,41.6391884 45.4825276,42.7521643 48.4899094,43.8501932 C50.0711102,44.4275942 51.7134508,44.8327923 53.3270197,45.3198841 C54.3582106,45.631256 54.211376,46.482599 54.022128,47.189372 C53.5611614,48.9098937 52.1607756,50.0232464 49.8894272,50.0564058 C46.0658976,50.1121739 42.5390138,48.9227053 39.1567323,47.2242899 C37.4185276,46.3514686 35.6923524,45.454029 33.9602244,44.5687729 C33.7949114,44.4842415 33.602811,44.4224444 33.4655256,44.3213333 C31.7662618,43.0701932 30.6503681,43.5937101 29.2099252,44.3956908 C26.9654882,45.6451981 24.7284921,46.9431884 22.3736811,47.9441256 C20.380872,48.7911981 18.2526378,49.3758841 16.1327126,49.829314 C14.7199252,50.1315169 13.2042047,50.1462126 11.757065,50.0211111 C10.2623031,49.8919903 8.8082185,47.77657 9.02152559,46.2541256 C9.07162795,45.8961546 9.44640354,45.363971 9.75346654,45.2971498 C13.4998583,44.4829855 17.0065276,43.0320097 20.4231614,41.3229179 C21.0503091,41.0091594 21.7000276,40.7333333 22.2981555,40.3704638 C23.3169449,39.7526184 23.2561772,39.5458744 22.3373445,38.8007923 C20.3000138,37.1487246 18.3307677,35.410744 16.3080709,33.7397101 C15.6439665,33.1910725 15.7096949,32.6449469 16.2078661,32.1077391 C17.9435906,30.2358647 19.7007697,28.384087 21.4648937,26.5395942 C21.8789823,26.1067633 22.1593819,26.1017391 22.7219173,26.603401 C25.1849941,28.7995845 27.7689862,30.8563478 30.2879941,32.9893527 C30.6568169,33.3016039 30.8641713,33.6051884 31.4404724,34.0483188 C33.728315,32.2092271 35.7376181,30.7371498 37.8209587,28.9920097 C38.6910531,28.2631304 39.4388681,27.3844058 40.2393898,26.570744 C40.6652598,26.1377874 40.9885689,26.0033913 41.5038543,26.5752657 C43.3072913,28.5766377 45.1904705,30.504029 47.0069291,32.4937198 C47.1422303,32.6419324 47.1056457,33.1942126 46.951122,33.3336329 C45.0704232,35.0296618 43.1531398,36.6841159 41.2439173,38.3476135 C40.768937,38.7614783 40.2885,39.1691884 39.7613091,39.6219903 Z" id="Path" stroke="#A33431" fill="#A33431"></path>
        </g>
    </g>
</svg>