<?xml version="1.0" encoding="UTF-8"?>
<svg width="65px" height="65px" viewBox="0 0 65 65" version="1.1" xmlns="http://www.w3.org/2000/svg" xmlns:xlink="http://www.w3.org/1999/xlink">
    <!-- Generator: Sketch 53.2 (72643) - https://sketchapp.com -->
    <title>BO_Brand_header_logo</title>
    <desc>Created with Sketch.</desc>
    <g id="BO_Brand_header_logo" stroke="none" stroke-width="1" fill="none" fill-rule="evenodd">
        <g id="Group-7-Copy" transform="translate(5.000000, 1.000000)" fill-rule="nonzero">
            <path d="M8.00720227,52.1159932 C-1.91367225,41.6011097 -3.15463803,23.3765758 7.33230874,11.0485563 C19.8737612,-3.69466697 40.9790464,-3.16110386 52.8842973,9.54450779 L47.3999057,14.8489447 C45.7774608,13.7116825 44.2184951,12.4761486 42.5289437,11.4634592 C38.8344608,9.24928449 34.899362,8.20682818 30.4987498,8.25086702 C23.822765,8.31753692 18.5100692,11.0499835 14.0665331,15.7580612 C10.1737536,19.8826243 8.08398174,24.8912262 8.02473459,30.6319738 C7.95178402,37.6847117 8.00720227,44.7386728 8.00720227,52.1159932 Z" id="Path" fill="#0C005A"></path>
            <path d="M23.4066243,61.8298185 L15.5406585,58.7230418 C15.5406585,52.4450612 15.5733049,46.3982845 15.525343,40.3523233 C15.5049893,37.7795175 15.2323316,35.2085466 15.2218525,32.6361486 C15.2033125,28.0738476 16.5264989,23.8960709 19.6226662,20.5544204 C21.7337992,18.2760224 24.3862175,16.7326243 27.5396167,16.0771389 C32.9121643,14.9602651 37.5544,16.2683816 41.6186738,19.9052554 C41.7323316,20.0069932 41.780092,20.184168 41.8353087,20.2840709 L36.3589779,25.7540612 C36.1407308,25.6457991 35.723381,25.4994107 35.3723316,25.2553622 C31.4055939,22.4968185 26.1035787,23.6915758 23.8666966,28.3034204 C22.8226167,30.4562262 23.3588639,31.3559641 25.7755027,31.3616728 C30.0421034,31.3720709 34.3089057,31.3645272 38.773803,31.3645272 L38.773803,39.4715466 C34.1513163,39.4715466 29.5562365,39.5673719 24.969822,39.4093622 C23.6992327,39.3655272 23.3778068,39.5404592 23.3935255,40.790469 C23.4465255,45.0232942 23.4090426,49.2573427 23.4072289,53.4909835 C23.4058182,56.1047699 23.4066243,58.7183525 23.4066243,61.8298185 Z" id="Path" fill="#FF0000"></path>
            <path d="M47.1024608,47.7276049 C48.8415863,49.4218767 50.6091262,51.0745563 52.2607916,52.8385563 C52.4725901,53.064867 52.2676433,54.1042651 51.9407764,54.3689059 C49.4199513,56.4103913 46.722997,58.3073233 43.808803,59.7294107 C42.9900236,60.1290224 42.1504874,60.4868379 41.2916053,60.7883816 C39.5101604,61.4136923 37.6781338,61.8298185 35.8442935,62.2620515 C35.2483962,62.4025272 34.6512897,62.539333 34.0487422,62.6484107 C33.4937536,62.7489253 32.8885863,62.8247699 32.3291643,62.8987796 C31.974689,62.9456728 31.6093316,63.0005175 31.252438,62.929566 C30.5858068,62.7972457 30.4475635,62.0257505 30.4665065,61.4318379 C30.5364342,59.2394787 30.4858525,57.0430418 30.4858525,54.7552651 C36.8446433,54.5024495 42.440476,52.4717699 47.1024608,47.7276049 Z" id="Path" fill="#0C005A"></path>
        </g>
    </g>
</svg>