<svg id="Слой_1" data-name="Слой 1" xmlns="http://www.w3.org/2000/svg" xmlns:xlink="http://www.w3.org/1999/xlink" viewBox="0 0 65 65"><defs><style>.cls-1{fill:url(#linear-gradient);}.cls-2{fill:url(#linear-gradient-2);}.cls-3{fill:url(#linear-gradient-3);}.cls-4{fill:url(#linear-gradient-4);}.cls-5{fill:url(#linear-gradient-5);}.cls-6{fill:url(#linear-gradient-6);}.cls-7{fill:url(#linear-gradient-7);}.cls-8{fill:url(#linear-gradient-8);}.cls-9{fill:url(#linear-gradient-9);}.cls-10{fill:none;clip-rule:evenodd;}.cls-11{fill:url(#Безымянный_градиент_26);}.cls-12{fill:url(#Безымянный_градиент_26-2);}.cls-13{fill:url(#Безымянный_градиент_26-3);}.cls-14{fill:url(#Безымянный_градиент_26-4);}.cls-15{fill:url(#Безымянный_градиент_26-5);}.cls-16{fill:url(#Безымянный_градиент_26-6);}.cls-17{fill:url(#Безымянный_градиент_26-7);}.cls-18{fill:url(#Безымянный_градиент_26-8);}.cls-19{fill:url(#Безымянный_градиент_26-9);}.cls-20{fill:url(#Безымянный_градиент_26-10);}.cls-21{fill:url(#Безымянный_градиент_26-11);}.cls-22{clip-path:url(#clip-path);}.cls-23{fill:url(#linear-gradient-10);}.cls-24{mask:url(#mask);}.cls-25{fill:#f9fcba;}.cls-25,.cls-27,.cls-31,.cls-35,.cls-37{fill-rule:evenodd;}.cls-26{mask:url(#mask-2);}.cls-27,.cls-31{fill:#cc0680;}.cls-28{mask:url(#mask-3);}.cls-29{mask:url(#mask-4);}.cls-30{mask:url(#mask-5);}.cls-31{opacity:0.3;}.cls-32{clip-path:url(#clip-path-2);}.cls-33{fill:url(#linear-gradient-11);}.cls-34{mask:url(#mask-6);}.cls-35{fill:#ffc2ff;}.cls-36{mask:url(#mask-7);}.cls-37{fill:#3702c9;}.cls-38{clip-path:url(#clip-path-3);}.cls-39{fill:url(#linear-gradient-12);}.cls-40{mask:url(#mask-8);}.cls-41{mask:url(#mask-9);}</style><linearGradient id="linear-gradient" x1="-404.2" y1="354.73" x2="-409.65" y2="364.18" gradientTransform="translate(416.88 -328.83)" gradientUnits="userSpaceOnUse"><stop offset="0" stop-color="#fff"/><stop offset="1"/></linearGradient><linearGradient id="linear-gradient-2" x1="-388.93" y1="352.34" x2="-384.54" y2="344.75" gradientTransform="translate(391.21 -310.6)" xlink:href="#linear-gradient"/><linearGradient id="linear-gradient-3" x1="-391.01" y1="356.85" x2="-382.52" y2="348.36" gradientTransform="translate(391.21 -316.34)" xlink:href="#linear-gradient"/><linearGradient id="linear-gradient-4" x1="-379.23" y1="332.75" x2="-394.4" y2="347.92" gradientTransform="translate(398.96 -310.6)" xlink:href="#linear-gradient"/><linearGradient id="linear-gradient-5" x1="-385.23" y1="348.27" x2="-388.23" y2="347.47" gradientTransform="translate(391.21 -310.6)" xlink:href="#linear-gradient"/><linearGradient id="linear-gradient-6" x1="-362.59" y1="377.47" x2="-365.1" y2="386.84" gradientTransform="translate(367.38 -353.66)" xlink:href="#linear-gradient"/><linearGradient id="linear-gradient-7" x1="-365.16" y1="359.84" x2="-367.27" y2="351.99" gradientTransform="translate(367.38 -320.92)" xlink:href="#linear-gradient"/><linearGradient id="linear-gradient-8" x1="-387.97" y1="358.08" x2="-378.13" y2="341.03" gradientTransform="translate(387.84 -311.74)" xlink:href="#linear-gradient"/><linearGradient id="linear-gradient-9" x1="-357.33" y1="319.46" x2="-374.91" y2="349.91" gradientTransform="translate(377.88 -310.6)" xlink:href="#linear-gradient"/><linearGradient id="Безымянный_градиент_26" x1="12.97" y1="36.71" x2="13.14" y2="29.81" gradientUnits="userSpaceOnUse"><stop offset="0" stop-color="#4a0072"/><stop offset="1" stop-color="#a700f8"/></linearGradient><linearGradient id="Безымянный_градиент_26-2" x1="16.57" y1="36.8" x2="16.74" y2="29.9" xlink:href="#Безымянный_градиент_26"/><linearGradient id="Безымянный_градиент_26-3" x1="20.87" y1="36.91" x2="21.04" y2="30" xlink:href="#Безымянный_градиент_26"/><linearGradient id="Безымянный_градиент_26-4" x1="27.03" y1="37.06" x2="27.19" y2="30.15" xlink:href="#Безымянный_градиент_26"/><linearGradient id="Безымянный_градиент_26-5" x1="33.04" y1="37.21" x2="33.21" y2="30.3" xlink:href="#Безымянный_градиент_26"/><linearGradient id="Безымянный_градиент_26-6" x1="38.72" y1="37.35" x2="38.89" y2="30.44" xlink:href="#Безымянный_градиент_26"/><linearGradient id="Безымянный_градиент_26-7" x1="44.49" y1="37.49" x2="44.66" y2="30.58" xlink:href="#Безымянный_градиент_26"/><linearGradient id="Безымянный_градиент_26-8" x1="48.42" y1="37.58" x2="48.59" y2="30.68" xlink:href="#Безымянный_градиент_26"/><linearGradient id="Безымянный_градиент_26-9" x1="52.12" y1="37.67" x2="52.29" y2="30.77" xlink:href="#Безымянный_градиент_26"/><linearGradient id="Безымянный_градиент_26-10" x1="57.41" y1="37.8" x2="57.58" y2="30.9" xlink:href="#Безымянный_градиент_26"/><linearGradient id="Безымянный_градиент_26-11" x1="62.83" y1="37.94" x2="63" y2="31.03" xlink:href="#Безымянный_градиент_26"/><clipPath id="clip-path"><path class="cls-10" d="M9.21,31v5.23L4.6,38.92a6.48,6.48,0,0,1-1.13-3.53L4.6,36l2.11-1.22v-2c.51-.4,1.5-1.16,2.5-1.84"/></clipPath><linearGradient id="linear-gradient-10" x1="7.36" y1="38.78" x2="5.36" y2="31.33" gradientUnits="userSpaceOnUse"><stop offset="0" stop-color="#ff057e"/><stop offset="1" stop-color="#fadf44"/></linearGradient><mask id="mask" x="7.22" y="31.03" width="1.99" height="5.23" maskUnits="userSpaceOnUse"><rect class="cls-1" x="7.22" y="31.03" width="1.99" height="5.23"/></mask><mask id="mask-2" x="3.47" y="34.82" width="3.24" height="4.1" maskUnits="userSpaceOnUse"><rect class="cls-2" x="3.47" y="34.82" width="3.24" height="4.1"/></mask><mask id="mask-3" x="3.47" y="32.29" width="4.09" height="5.8" maskUnits="userSpaceOnUse"><rect class="cls-3" x="3.47" y="32.29" width="4.09" height="5.8"/></mask><mask id="mask-4" x="4.6" y="31.03" width="4.6" height="7.89" maskUnits="userSpaceOnUse"><rect class="cls-4" x="4.6" y="31.03" width="4.6" height="7.89"/></mask><mask id="mask-5" x="3.47" y="35.39" width="1.13" height="3.53" maskUnits="userSpaceOnUse"><rect class="cls-5" x="3.47" y="35.39" width="1.13" height="3.53"/></mask><clipPath id="clip-path-2"><path class="cls-10" d="M4.6,28.29,6,29.1c-.2.06-3.94.47-4.91,3.77A5.27,5.27,0,0,0,2,37.42L0,36.26V31Z"/></clipPath><linearGradient id="linear-gradient-11" x1="3.01" y1="38.44" x2="3.01" y2="25.45" gradientUnits="userSpaceOnUse"><stop offset="0" stop-color="#0049e7"/><stop offset="0.49" stop-color="#9d15f8"/><stop offset="1" stop-color="#ff4cf9"/></linearGradient><mask id="mask-6" x="0" y="28.29" width="6.01" height="4.35" maskUnits="userSpaceOnUse"><rect class="cls-6" y="28.29" width="6.01" height="4.35"/></mask><mask id="mask-7" x="0" y="31.34" width="2" height="6.08" maskUnits="userSpaceOnUse"><rect class="cls-7" y="31.34" width="2" height="6.08"/></mask><clipPath id="clip-path-3"><path class="cls-10" d="M6.38,33.13a15.9,15.9,0,0,0,4-2.88,10.07,10.07,0,0,0-3.8-1l-.06.61c-6.06.3-6.56,6.37-2,9-1-1.26-2.55-6.28,1.73-6.88,0,.37,0,.73,0,1.09"/></clipPath><linearGradient id="linear-gradient-12" x1="5.21" y1="40" x2="5.21" y2="26.28" xlink:href="#linear-gradient-11"/><mask id="mask-8" x="2.98" y="30.25" width="7.44" height="8.5" maskUnits="userSpaceOnUse"><rect class="cls-8" x="2.98" y="30.25" width="7.44" height="8.5"/></mask><mask id="mask-9" x="1.53" y="29.28" width="8.89" height="9.64" maskUnits="userSpaceOnUse"><rect class="cls-9" x="1.53" y="29.28" width="8.89" height="9.64"/></mask></defs><title>Finocapital-Logo-65x65Монтажная область 1</title><path class="cls-11" d="M12.74,32v.9h2.17v1.33H12.74v1.67H11V30.64h4.24V32Z"/><path class="cls-12" d="M15.78,30.64h1.76v5.22H15.78Z"/><path class="cls-13" d="M23.53,30.64v5.22H22.09l-2-2.38v2.38H18.39V30.64h1.45l2,2.37V30.64Z"/><path class="cls-14" d="M25.61,35.62a2.61,2.61,0,0,1-1.06-1,2.65,2.65,0,0,1-.38-1.4,2.59,2.59,0,0,1,1.44-2.38,3.43,3.43,0,0,1,3,0,2.61,2.61,0,0,1,1.43,2.38,2.56,2.56,0,0,1-.38,1.4,2.53,2.53,0,0,1-1.05,1,3.43,3.43,0,0,1-3,0Zm2.1-1.23a1.14,1.14,0,0,0,.42-.45,1.41,1.41,0,0,0,.16-.69,1.35,1.35,0,0,0-.16-.69,1.1,1.1,0,0,0-.42-.46,1.17,1.17,0,0,0-1.18,0,1.1,1.1,0,0,0-.42.46,1.35,1.35,0,0,0-.16.69,1.41,1.41,0,0,0,.16.69,1.14,1.14,0,0,0,.42.45,1.17,1.17,0,0,0,1.18,0Z"/><path class="cls-15" d="M31.91,35.63a2.63,2.63,0,0,1-1-1,2.69,2.69,0,0,1,1-3.8,3.2,3.2,0,0,1,1.49-.34,3.27,3.27,0,0,1,1.36.27,2.33,2.33,0,0,1,1,.77l-1.11,1a1.44,1.44,0,0,0-1.14-.61,1.15,1.15,0,0,0-.88.36,1.29,1.29,0,0,0-.34,1,1.32,1.32,0,0,0,.34,1,1.17,1.17,0,0,0,.88.35,1.41,1.41,0,0,0,1.14-.61l1.11,1a2.43,2.43,0,0,1-1,.78A3.27,3.27,0,0,1,33.4,36,3.2,3.2,0,0,1,31.91,35.63Z"/><path class="cls-16" d="M39.73,35h-2l-.35.91H35.61l2.28-5.22h1.73l2.28,5.22H40.08Zm-.48-1.27-.51-1.31-.5,1.31Z"/><path class="cls-17" d="M46,30.88a1.81,1.81,0,0,1,.83.68,2,2,0,0,1,0,2.09,1.81,1.81,0,0,1-.83.68,3.08,3.08,0,0,1-1.26.24H44v1.29H42.19V30.64H44.7A3.08,3.08,0,0,1,46,30.88Zm-.84,2.18a.58.58,0,0,0,.18-.45.59.59,0,0,0-.18-.46.8.8,0,0,0-.53-.16H44v1.23h.64A.8.8,0,0,0,45.12,33.06Z"/><path class="cls-18" d="M47.65,30.64h1.76v5.22H47.65Z"/><path class="cls-19" d="M51.39,32H49.87V30.64h4.81V32H53.15v3.86H51.39Z"/><path class="cls-20" d="M58.43,35h-2l-.35.91H54.31l2.28-5.22h1.73l2.28,5.22H58.78ZM58,33.68l-.51-1.31-.51,1.31Z"/><path class="cls-21" d="M60.88,30.64h1.76v3.85H65v1.37H60.88Z"/><g class="cls-22"><rect class="cls-23" x="3.47" y="31.03" width="5.73" height="7.89"/></g><g class="cls-24"><path class="cls-25" d="M9.21,31v5.23l-2-3.78c.53-.41,1.26-1,2-1.45"/></g><g class="cls-26"><path class="cls-27" d="M4.6,38.92a6.48,6.48,0,0,1-1.13-3.53L4.6,36l2.11-1.22Z"/></g><g class="cls-28"><path class="cls-27" d="M4.11,38.08a7,7,0,0,1-.64-2.69L4.6,36l2.11-1.22v-2l.76-.58.09,2.8Z"/></g><g class="cls-29"><path class="cls-25" d="M9.21,31v5.23L4.6,38.92c0-.09,3.56-3.44,3.56-3.44l0-3.69c.34-.25.71-.51,1.08-.76"/></g><g class="cls-30"><path class="cls-27" d="M4.6,38.92a6.48,6.48,0,0,1-1.13-3.53L4.6,36a4.93,4.93,0,0,0,0,2.88"/></g><path class="cls-31" d="M9.21,31v1a19.35,19.35,0,0,1-1.65,1.07c-.28.16-.56.32-.85.46v-.66c.51-.4,1.5-1.16,2.5-1.84"/><g class="cls-32"><rect class="cls-33" y="28.29" width="6.01" height="9.13"/></g><g class="cls-34"><path class="cls-35" d="M4.6,28.29,6,29.1s-.2,0-.54.11l-.37.09A9,9,0,0,0,0,32.64V31Z"/></g><g class="cls-36"><path class="cls-37" d="M1.86,31.34a4.57,4.57,0,0,0-.76,1.53A5.27,5.27,0,0,0,2,37.42L0,36.26a8,8,0,0,1,1.86-4.92"/></g><g class="cls-38"><rect class="cls-39" y="29.28" width="10.42" height="9.64"/></g><g class="cls-40"><path class="cls-37" d="M6.38,33.13a15.9,15.9,0,0,0,4-2.88c-1.87.11-4.63.66-6.19,2s-1.87,3.63.25,6.51c-1-1.48-2.26-6.13,1.85-6.71,0,.37,0,.73,0,1.09"/></g><g class="cls-41"><path class="cls-35" d="M10.42,30.25a10.07,10.07,0,0,0-3.8-1l-.06.61c-6.06.3-6.56,6.37-2,9-2.62-2.16-3-6.39.89-7.93a9,9,0,0,0-2.58,1.1c2.32-2.1,5.94-2,7.51-1.84"/></g></svg>