<?xml version="1.0" encoding="iso-8859-1"?>
<!-- Generator: Adobe Illustrator 24.0.2, SVG Export Plug-In . SVG Version: 6.00 Build 0)  -->
<svg version="1.1" id="Layer_1" xmlns="http://www.w3.org/2000/svg" xmlns:xlink="http://www.w3.org/1999/xlink" x="0px" y="0px"
	 width="65px" height="65px" viewBox="0 0 50 38" enable-background="new 0 0 50 38" xml:space="preserve">
<g>
	<path fill="#FFFFFF" d="M8.265,24.309h6.09c0.74,0,1.433-0.364,1.852-0.974l3.733-5.421l3.635-5.28l-3.635-5.28l-3.733-5.421
		c-0.42-0.61-1.112-0.974-1.852-0.974h-6.09l8.038,11.675L8.265,24.309z"/>
	<path fill="#FFFFFF" d="M26.328,1.933l15.407,22.376h-6.09c-0.74,0-1.433-0.364-1.852-0.973L18.385,0.959h6.09
		C25.214,0.959,25.908,1.324,26.328,1.933"/>
	<path fill="#FFFFFF" d="M41.734,0.959h-6.09c-0.74,0-1.432,0.364-1.852,0.974l-2.815,4.089l3.636,5.28L41.734,0.959z"/>
	<path fill="#FFFFFF" d="M18.385,24.309h6.09c0.74,0,1.433-0.364,1.853-0.974l2.815-4.089l-3.636-5.28L18.385,24.309z"/>
</g>
<g>
	<path fill="#009ADE" d="M13.446,29.126c0-0.832,0.229-1.43,0.687-1.795c0.457-0.365,1.01-0.548,1.656-0.548
		c1.839,0,3.317,0.061,4.436,0.181v1.719h-3.867c-0.277,0-0.49,0.076-0.638,0.229s-0.222,0.349-0.222,0.589v1.761l4.062,0.11v1.622
		l-4.062,0.111v3.937h-2.052V29.126z"/>
	<path fill="#009ADE" d="M22.928,37.027c-0.601-0.064-1.108-0.147-1.524-0.25v-1.621c0.822,0.083,1.862,0.124,3.119,0.124
		c0.563,0,0.988-0.076,1.275-0.229c0.286-0.152,0.43-0.423,0.43-0.811v-0.375c0-0.305-0.091-0.538-0.271-0.699
		c-0.181-0.162-0.437-0.243-0.77-0.243h-0.873c-1.017,0-1.777-0.222-2.28-0.665c-0.504-0.443-0.756-1.169-0.756-2.177v-0.499
		c0-1.922,1.104-2.883,3.313-2.883c0.518,0,1.053,0.034,1.607,0.104s1.054,0.15,1.497,0.243v1.621
		c-1.266-0.083-2.223-0.124-2.869-0.124c-0.526,0-0.924,0.081-1.192,0.242c-0.268,0.162-0.401,0.46-0.401,0.895v0.277
		c0,0.351,0.099,0.607,0.298,0.769c0.198,0.162,0.501,0.243,0.908,0.243h1.012c0.887,0,1.563,0.242,2.03,0.728s0.7,1.121,0.7,1.906
		v0.582c0,0.776-0.144,1.379-0.43,1.809s-0.688,0.726-1.206,0.888c-0.518,0.161-1.16,0.242-1.927,0.242
		C24.093,37.124,23.528,37.092,22.928,37.027z"/>
	<path fill="#009ADE" d="M32.257,26.783h2.592l3.217,10.258H35.93l-0.651-2.148h-3.493l-0.638,2.148h-2.106L32.257,26.783z
		 M34.793,33.049l-1.261-4.505l-1.262,4.505H34.793z"/>
</g>
</svg>
