<svg id="Layer_1" data-name="Layer 1" xmlns="http://www.w3.org/2000/svg" viewBox="0 0 59.83 41.74"><defs><style>.cls-1{fill:#003552;}.cls-2{fill:#1c8a51;}</style></defs><title>65x65-everfx-x</title><path class="cls-1" d="M46.5,7.15,19,47.15H29.84a4,4,0,0,0,3.31-1.75L60.7,5.4H49.81A4,4,0,0,0,46.5,7.15Z" transform="translate(-0.86 -5.4)"/><path class="cls-1" d="M.86,47.15H11.75a4,4,0,0,0,3.31-1.75l6.67-9.69,6.5-9.43-6.5-9.44L15.06,7.15A4,4,0,0,0,11.75,5.4H.86L15.23,26.28Z" transform="translate(-0.86 -5.4)"/><path class="cls-2" d="M33.15,7.15l27.55,40H49.81A4,4,0,0,1,46.5,45.4L19,5.4H29.84A4,4,0,0,1,33.15,7.15Z" transform="translate(-0.86 -5.4)"/></svg>