<svg xmlns="http://www.w3.org/2000/svg" xmlns:xlink="http://www.w3.org/1999/xlink" viewBox="0 0 65 65"><defs><style>.a{fill:#fff;}.b{fill:url(#a);}.c{fill:url(#b);}.d{fill:url(#c);}.e{fill:url(#d);}.f{fill:url(#e);}.g{fill:url(#f);}.h{fill:url(#g);}.i{fill:url(#h);}.j{fill:url(#i);}.k{fill:url(#j);}.l{fill:url(#k);}.m{fill:url(#l);}.n{fill:url(#m);}.o{fill:url(#n);}.p{fill:url(#o);}.q{fill:url(#p);}.r{fill:url(#q);}.s{fill:url(#r);}.t{fill:url(#s);}.u{fill:url(#t);}.v{fill:url(#u);}.w{fill:url(#v);}.x{fill:url(#w);}.y{fill:url(#x);}.z{fill:url(#y);}.aa{fill:url(#z);}.ab{fill:url(#aa);}.ac{fill:url(#ab);}.ad{fill:url(#ac);}.ae{fill:url(#ad);}.af{fill:url(#ae);}.ag{fill:url(#af);}.ah{fill:url(#ag);}.ai{fill:url(#ah);}.aj{fill:url(#ai);}.ak{fill:url(#aj);}.al{fill:url(#ak);}.am{fill:url(#al);}.an{fill:url(#am);}.ao{fill:url(#an);}.ap{fill:url(#ao);}</style><linearGradient id="a" x1="28.08" y1="36.25" x2="24.55" y2="26.65" gradientTransform="matrix(1, 0, 0, -1, 0, 65)" gradientUnits="userSpaceOnUse"><stop offset="0" stop-color="#004486"/><stop offset="1" stop-color="#001037"/></linearGradient><linearGradient id="b" x1="34.87" y1="28.53" x2="38.86" y2="35.25" gradientTransform="matrix(1, 0, 0, -1, 0, 65)" gradientUnits="userSpaceOnUse"><stop offset="0" stop-color="#004934"/><stop offset="1" stop-color="#00e900"/></linearGradient><linearGradient id="c" x1="40.53" y1="25.17" x2="44.52" y2="31.89" xlink:href="#b"/><linearGradient id="d" x1="44.69" y1="22.7" x2="48.68" y2="29.42" xlink:href="#b"/><linearGradient id="e" x1="47.44" y1="21.07" x2="51.43" y2="27.78" xlink:href="#b"/><linearGradient id="f" x1="50.88" y1="19.03" x2="54.86" y2="25.74" xlink:href="#b"/><linearGradient id="g" x1="19.21" y1="38.38" x2="13.75" y2="26.62" xlink:href="#a"/><linearGradient id="h" x1="18.65" y1="38.64" x2="13.19" y2="26.88" xlink:href="#a"/><linearGradient id="i" x1="19.2" y1="38.38" x2="13.74" y2="26.63" xlink:href="#a"/><linearGradient id="j" x1="14.79" y1="40.43" x2="9.33" y2="28.68" xlink:href="#a"/><linearGradient id="k" x1="11.69" y1="41.87" x2="6.24" y2="30.11" xlink:href="#a"/><linearGradient id="l" x1="7.47" y1="30.81" x2="13.79" y2="39.17" xlink:href="#b"/><linearGradient id="m" x1="10.92" y1="28.2" x2="17.24" y2="36.56" xlink:href="#b"/><linearGradient id="n" x1="9.21" y1="29.5" x2="15.52" y2="37.86" xlink:href="#b"/><linearGradient id="o" x1="9.03" y1="29.64" x2="15.34" y2="37.99" xlink:href="#b"/><linearGradient id="p" x1="9.64" y1="29.18" x2="15.95" y2="37.53" xlink:href="#b"/><linearGradient id="q" x1="9.03" y1="29.64" x2="15.35" y2="37.99" xlink:href="#b"/><linearGradient id="r" x1="8.9" y1="29.73" x2="15.22" y2="38.09" xlink:href="#b"/><linearGradient id="s" x1="8.23" y1="30.24" x2="14.55" y2="38.6" xlink:href="#b"/><linearGradient id="t" x1="7.98" y1="30.43" x2="14.3" y2="38.78" xlink:href="#b"/><linearGradient id="u" x1="7.59" y1="30.72" x2="13.91" y2="39.08" xlink:href="#b"/><linearGradient id="v" x1="7.18" y1="31.03" x2="13.5" y2="39.39" xlink:href="#b"/><linearGradient id="w" x1="7.61" y1="30.71" x2="13.93" y2="39.06" xlink:href="#b"/><linearGradient id="x" x1="7.16" y1="31.05" x2="13.48" y2="39.4" xlink:href="#b"/><linearGradient id="y" x1="7.67" y1="30.66" x2="13.99" y2="39.02" xlink:href="#b"/><linearGradient id="z" x1="7.22" y1="31" x2="13.54" y2="39.36" xlink:href="#b"/><linearGradient id="aa" x1="7.46" y1="30.82" x2="13.78" y2="39.17" xlink:href="#b"/><linearGradient id="ab" x1="6.68" y1="31.41" x2="13" y2="39.77" xlink:href="#b"/><linearGradient id="ac" x1="6.72" y1="31.38" x2="13.04" y2="39.74" xlink:href="#b"/><linearGradient id="ad" x1="9.64" y1="29.18" x2="15.96" y2="37.53" xlink:href="#b"/><linearGradient id="ae" x1="8.84" y1="29.78" x2="15.16" y2="38.13" xlink:href="#b"/><linearGradient id="af" x1="9.81" y1="29.04" x2="16.13" y2="37.4" xlink:href="#b"/><linearGradient id="ag" x1="10.34" y1="28.64" x2="16.66" y2="37" xlink:href="#b"/><linearGradient id="ah" x1="9.71" y1="29.12" x2="16.03" y2="37.47" xlink:href="#b"/><linearGradient id="ai" x1="10.28" y1="28.69" x2="16.59" y2="37.05" xlink:href="#b"/><linearGradient id="aj" x1="9.42" y1="29.34" x2="15.74" y2="37.69" xlink:href="#b"/><linearGradient id="ak" x1="8.16" y1="30.29" x2="14.48" y2="38.65" xlink:href="#b"/><linearGradient id="al" x1="8.94" y1="29.7" x2="15.26" y2="38.06" xlink:href="#b"/><linearGradient id="am" x1="10.3" y1="28.68" x2="16.62" y2="37.03" xlink:href="#b"/><linearGradient id="an" x1="9.58" y1="29.22" x2="15.9" y2="37.57" xlink:href="#b"/><linearGradient id="ao" x1="10.7" y1="28.37" x2="17.02" y2="36.73" xlink:href="#b"/></defs><title>logo 65x65</title><rect class="a" width="65" height="65"/><polygon class="b" points="34.52 27.17 29.62 27.17 27.42 29.35 26.42 27.17 21.83 27.17 24.3 32.3 18.62 37.81 23.59 37.81 25.91 35.51 26.94 37.81 31.57 37.81 29 32.54 34.52 27.17"/><path class="c" d="M38.45,27.18H35.38L27.8,37.81h3.94l1.35-2h3.27l.29,2h3.7Zm-2.29,6H34.9l1-1.51Z"/><path class="d" d="M41.3,37.42a2,2,0,0,1-.86-1.06,2.49,2.49,0,0,1,0-1.53,3.77,3.77,0,0,1,.82-1.54,4.27,4.27,0,0,1,3.19-1.43,2.62,2.62,0,0,1,1.49.38,1.52,1.52,0,0,1,.7,1.09L45.16,34a1,1,0,0,0-1.09-.79,1.9,1.9,0,0,0-1.2.43,2.1,2.1,0,0,0-.74,1.17A1.34,1.34,0,0,0,42.25,36a1.14,1.14,0,0,0,1,.43,1.93,1.93,0,0,0,1.51-.8l1.1.71a3.35,3.35,0,0,1-1.28,1.07,3.72,3.72,0,0,1-1.69.39A3,3,0,0,1,41.3,37.42Z"/><path class="e" d="M50.66,37.43a2.38,2.38,0,0,1-.68.28,3.39,3.39,0,0,1-.78.09,1.76,1.76,0,0,1-1.45-.53,1.69,1.69,0,0,1-.15-1.54l.63-2.37h-.89l.35-1.29h.89L49,30.66h1.67l-.38,1.41h1.44l-.34,1.29H49.91l-.63,2.35a.65.65,0,0,0,0,.56.53.53,0,0,0,.47.2,1.39,1.39,0,0,0,.74-.22Z"/><path class="f" d="M53.57,30.87a.7.7,0,0,1-.11-.67,1.22,1.22,0,0,1,.47-.66,1.32,1.32,0,0,1,.82-.27.85.85,0,0,1,.68.26.65.65,0,0,1,.12.64,1.23,1.23,0,0,1-.48.69,1.33,1.33,0,0,1-.82.28A.83.83,0,0,1,53.57,30.87Zm-.37,1.07h1.67l-1.55,5.77H51.65Z"/><path class="g" d="M62.5,31.94l-4,5.77H56.79l-.88-5.77h1.73l.55,3.93,2.7-3.93Z"/><path class="h" d="M14.47,37.83l.9-3.36h4.27l.84-3.15h-3l-.31.06-.36.13-.68.4a2.93,2.93,0,0,1-.28-.12s-1-.58-1-.58-.17.23-.17.23l-1.48,1.43h-.93l-1.33,5Z"/><polygon class="i" points="13.77 27.17 13.34 28.77 13.34 28.77 13.45 28.7 15.08 28.13 15.91 27.91 16.11 27.77 16.3 27.48 16.42 27.64 16.9 27.81 17.36 27.93 17.43 28.21 17.56 28.34 17.75 28.39 17.73 28.77 17.71 28.92 17.6 28.94 17.5 28.96 17.43 29.11 16.98 29.16 16.72 29.3 15.98 29.32 15.87 29.75 16.49 30.32 21.32 30.32 22.16 27.17 13.77 27.17"/><path class="j" d="M19.68,30.71h.1a10.06,10.06,0,0,0-3.53.25,9.53,9.53,0,0,0-.84-1.5c.49,1,.6,1.71.34,2a9.88,9.88,0,0,1,2-.53,16.23,16.23,0,0,1,2-.2"/><path class="k" d="M5.78,35.31a6,6,0,0,0-2.56,1.85,7.87,7.87,0,0,0,1.46-1l1.24-.57L8,35.19l1.71-1.92,1.65-.22,2-.07,1.62-1.54c.71.34,1.13.57,1.13.57.24,0,.63-.41,1.31-.66a3.74,3.74,0,0,0-1.31.37s-1.54-.82-1.67-.89l.23.52-1.43,1.29L10.12,33l.51-.59-.83.42L7.86,34.9l-2.08.41"/><path class="l" d="M6.25,34.54a.91.91,0,0,0,.4-.07l.54-2.12c-.62,1.46-.94,2.19-.94,2.19"/><path class="m" d="M14.76,28.31,15.92,28a1.29,1.29,0,0,0,.33.37.58.58,0,0,1,.06-.66l1,.31.13.4.25.13v.33l-.19.09.25,0,.08-.3h.09l0-.27-.4-.23-.1-.27-.89-.29-.25-.28a3.62,3.62,0,0,0-.38.5l-1.54.38-1.44.53c-.79,1.09-1.27,1.67-1.21,1.66a8.14,8.14,0,0,1-1.71.72,3.75,3.75,0,0,0-3.64,1.28c-2.33,1.78-4.64,1-3.34-.48-1.09.54-.84,3.42,3.66.7a2.89,2.89,0,0,1,3.35-1.09,8.54,8.54,0,0,1,1.35-.56,3.55,3.55,0,0,0-.32.79L13,29.08a8.14,8.14,0,0,1,1.5-.62,4.92,4.92,0,0,1,.6.23c-.13-.13-.31-.39-.36-.38"/><path class="n" d="M15.81,29.14a1.59,1.59,0,0,1,.06.61l.18-.4h.69l.24-.15.68-.11-1.85.06"/><path class="o" d="M14,29a.16.16,0,1,1-.16.16h0A.16.16,0,0,1,14,29"/><path class="p" d="M12.94,30a.16.16,0,1,1-.16.16h0a.16.16,0,0,1,.16-.16h0"/><path class="q" d="M13.29,30.83a.17.17,0,0,1,.16.17.16.16,0,0,1-.16.16.17.17,0,0,1-.17-.16h0a.18.18,0,0,1,.17-.17"/><path class="r" d="M12.45,30.67a.17.17,0,0,1,.16.17.16.16,0,0,1-.32,0h0a.16.16,0,0,1,.16-.16h0"/><path class="s" d="M11.65,31.48a.16.16,0,1,1-.16.16h0a.16.16,0,0,1,.16-.16h0"/><path class="t" d="M10.63,31.43a.16.16,0,1,1-.16.16h0a.16.16,0,0,1,.16-.16h0"/><path class="u" d="M9.45,32.47a.16.16,0,1,1-.16.16h0a.16.16,0,0,1,.16-.16"/><path class="v" d="M9.45,31.67a.16.16,0,1,1-.16.16h0a.16.16,0,0,1,.16-.16"/><path class="w" d="M8.8,31.67a.16.16,0,1,1-.16.16.16.16,0,0,1,.16-.16h0"/><path class="x" d="M8.4,33.09a.16.16,0,1,1-.16.16h0a.16.16,0,0,1,.16-.16"/><path class="y" d="M7.33,33.57a.16.16,0,1,1-.16.16h0a.16.16,0,0,1,.16-.16"/><path class="z" d="M7.94,33.81a.17.17,0,1,1,0,.33A.17.17,0,0,1,7.78,34h0a.17.17,0,0,1,.16-.17"/><path class="aa" d="M7.81,33.06a.16.16,0,1,1-.16.16h0a.16.16,0,0,1,.16-.16h0"/><path class="ab" d="M8.7,32.39a.16.16,0,0,1,.16.16.16.16,0,0,1-.16.16.17.17,0,0,1-.17-.16h0a.17.17,0,0,1,.17-.16"/><path class="ac" d="M7.89,31.83a.16.16,0,1,1-.16.16h0a.16.16,0,0,1,.16-.16h0"/><path class="ad" d="M7.41,32.55a.16.16,0,1,1-.16.16h0a.16.16,0,0,1,.16-.16h0"/><path class="ae" d="M13.8,30.16a.17.17,0,0,1,.16.16.17.17,0,0,1-.16.17.18.18,0,0,1-.17-.17h0a.17.17,0,0,1,.17-.16"/><path class="af" d="M13.23,29.25a.16.16,0,1,1-.16.16h0a.16.16,0,0,1,.16-.16h0"/><path class="ag" d="M14.76,29.25a.16.16,0,1,1-.16.16h0a.16.16,0,0,1,.16-.16"/><path class="ah" d="M15.08,29.92a.16.16,0,1,1,0,.32.16.16,0,0,1-.16-.16h0a.16.16,0,0,1,.16-.16"/><path class="ai" d="M15.3,28.34a.16.16,0,1,1-.16.16h0a.16.16,0,0,1,.16-.16h0"/><path class="aj" d="M15.92,28.69a.16.16,0,1,1-.16.16h0a.16.16,0,0,1,.16-.16"/><path class="ak" d="M12.59,31.32a.16.16,0,1,1-.16.16h0a.16.16,0,0,1,.16-.16"/><path class="al" d="M10.09,32a.16.16,0,1,1-.16.16h0a.16.16,0,0,1,.16-.16"/><path class="am" d="M11.3,32a.16.16,0,1,1-.16.16h0A.16.16,0,0,1,11.3,32h0"/><path class="an" d="M14.65,30.41a.16.16,0,1,1,0,.32.16.16,0,0,1-.16-.16h0a.16.16,0,0,1,.16-.16h0"/><path class="ao" d="M14.09,29.65a.16.16,0,0,1,.16.16.16.16,0,1,1-.32,0h0a.16.16,0,0,1,.16-.16"/><path class="ap" d="M16.9,28.07q.2.27.33.27c0-.15,0-.22,0-.22s0-.05-.11-.06H16.9"/></svg>