<svg id="Слой_1" data-name="Слой 1" xmlns="http://www.w3.org/2000/svg" xmlns:xlink="http://www.w3.org/1999/xlink" viewBox="0 0 65 65"><defs><style>.cls-1{fill:url(#linear-gradient);}.cls-2{fill:url(#linear-gradient-2);}.cls-3{fill:url(#linear-gradient-3);}.cls-4{fill:url(#linear-gradient-4);}.cls-5{fill:url(#linear-gradient-5);}.cls-6{fill:url(#linear-gradient-6);}.cls-7{fill:url(#linear-gradient-7);}.cls-8{fill:url(#linear-gradient-8);}.cls-9{fill:url(#linear-gradient-9);}.cls-10,.cls-11,.cls-12,.cls-13,.cls-14,.cls-15,.cls-16,.cls-17,.cls-18,.cls-19,.cls-20,.cls-21,.cls-22,.cls-23,.cls-24,.cls-25,.cls-26,.cls-27,.cls-28,.cls-29,.cls-30,.cls-31,.cls-32,.cls-33,.cls-34,.cls-35,.cls-36,.cls-37,.cls-38,.cls-39,.cls-40,.cls-41,.cls-42{fill-rule:evenodd;}.cls-10{fill:url(#linear-gradient-10);}.cls-11{fill:url(#linear-gradient-11);}.cls-12{fill:url(#linear-gradient-12);}.cls-13{fill:url(#linear-gradient-13);}.cls-14{fill:url(#linear-gradient-14);}.cls-15{fill:url(#linear-gradient-15);}.cls-16{fill:url(#linear-gradient-16);}.cls-17{fill:url(#linear-gradient-17);}.cls-18{fill:url(#linear-gradient-18);}.cls-19{fill:url(#linear-gradient-19);}.cls-20{fill:url(#linear-gradient-20);}.cls-21{fill:url(#linear-gradient-21);}.cls-22{fill:url(#linear-gradient-22);}.cls-23{fill:url(#linear-gradient-23);}.cls-24{fill:url(#linear-gradient-24);}.cls-25{fill:url(#linear-gradient-25);}.cls-26{fill:url(#linear-gradient-26);}.cls-27{fill:url(#linear-gradient-27);}.cls-28{fill:url(#linear-gradient-28);}.cls-29{fill:url(#linear-gradient-29);}.cls-30{fill:url(#linear-gradient-30);}.cls-31{fill:url(#linear-gradient-31);}.cls-32{fill:url(#linear-gradient-32);}.cls-33{fill:url(#linear-gradient-33);}.cls-34{fill:url(#linear-gradient-34);}.cls-35{fill:url(#linear-gradient-35);}.cls-36{fill:url(#linear-gradient-36);}.cls-37{fill:url(#linear-gradient-37);}.cls-38{fill:url(#linear-gradient-38);}.cls-39{fill:url(#linear-gradient-39);}.cls-40{fill:url(#linear-gradient-40);}.cls-41{fill:url(#linear-gradient-41);}.cls-42{fill:url(#linear-gradient-42);}</style><linearGradient id="linear-gradient" x1="25.33" y1="28.82" x2="21.82" y2="38.36" gradientUnits="userSpaceOnUse"><stop offset="0" stop-color="#274684"/><stop offset="1" stop-color="#071739"/></linearGradient><linearGradient id="linear-gradient-2" x1="32.06" y1="36.49" x2="36.02" y2="29.82" gradientUnits="userSpaceOnUse"><stop offset="0" stop-color="#004a38"/><stop offset="1" stop-color="#4ae901"/></linearGradient><linearGradient id="linear-gradient-3" x1="37.64" y1="39.84" x2="41.61" y2="33.16" xlink:href="#linear-gradient-2"/><linearGradient id="linear-gradient-4" x1="41.76" y1="42.3" x2="45.72" y2="35.62" xlink:href="#linear-gradient-2"/><linearGradient id="linear-gradient-5" x1="44.47" y1="43.92" x2="48.44" y2="37.24" xlink:href="#linear-gradient-2"/><linearGradient id="linear-gradient-6" x1="47.87" y1="45.93" x2="51.83" y2="39.26" xlink:href="#linear-gradient-2"/><linearGradient id="linear-gradient-7" x1="53.38" y1="49.23" x2="57.35" y2="42.55" xlink:href="#linear-gradient-2"/><linearGradient id="linear-gradient-8" x1="16.56" y1="26.71" x2="11.13" y2="38.39" xlink:href="#linear-gradient"/><linearGradient id="linear-gradient-9" x1="15.99" y1="26.45" x2="10.57" y2="38.12" xlink:href="#linear-gradient"/><linearGradient id="linear-gradient-10" x1="16.53" y1="26.71" x2="11.12" y2="38.36" xlink:href="#linear-gradient"/><linearGradient id="linear-gradient-11" x1="12.18" y1="24.68" x2="6.76" y2="36.35" xlink:href="#linear-gradient"/><linearGradient id="linear-gradient-12" x1="9.12" y1="23.23" x2="3.7" y2="34.92" xlink:href="#linear-gradient"/><linearGradient id="linear-gradient-13" x1="4.92" y1="34.21" x2="11.19" y2="25.93" xlink:href="#linear-gradient-2"/><linearGradient id="linear-gradient-14" x1="8.33" y1="36.8" x2="14.6" y2="28.51" xlink:href="#linear-gradient-2"/><linearGradient id="linear-gradient-15" x1="6.62" y1="35.52" x2="12.9" y2="27.22" xlink:href="#linear-gradient-2"/><linearGradient id="linear-gradient-16" x1="6.45" y1="35.39" x2="12.73" y2="27.09" xlink:href="#linear-gradient-2"/><linearGradient id="linear-gradient-17" x1="7.05" y1="35.85" x2="13.33" y2="27.55" xlink:href="#linear-gradient-2"/><linearGradient id="linear-gradient-18" x1="6.45" y1="35.39" x2="12.73" y2="27.09" xlink:href="#linear-gradient-2"/><linearGradient id="linear-gradient-19" x1="6.33" y1="35.3" x2="12.61" y2="27" xlink:href="#linear-gradient-2"/><linearGradient id="linear-gradient-20" x1="5.66" y1="34.79" x2="11.94" y2="26.49" xlink:href="#linear-gradient-2"/><linearGradient id="linear-gradient-21" x1="5.42" y1="34.61" x2="11.7" y2="26.31" xlink:href="#linear-gradient-2"/><linearGradient id="linear-gradient-22" x1="5.04" y1="34.31" x2="11.31" y2="26.01" xlink:href="#linear-gradient-2"/><linearGradient id="linear-gradient-23" x1="4.63" y1="34.01" x2="10.91" y2="25.71" xlink:href="#linear-gradient-2"/><linearGradient id="linear-gradient-24" x1="5.06" y1="34.33" x2="11.34" y2="26.03" xlink:href="#linear-gradient-2"/><linearGradient id="linear-gradient-25" x1="4.62" y1="33.99" x2="10.89" y2="25.69" xlink:href="#linear-gradient-2"/><linearGradient id="linear-gradient-26" x1="5.12" y1="34.37" x2="11.4" y2="26.07" xlink:href="#linear-gradient-2"/><linearGradient id="linear-gradient-27" x1="4.68" y1="34.04" x2="10.95" y2="25.74" xlink:href="#linear-gradient-2"/><linearGradient id="linear-gradient-28" x1="4.91" y1="34.22" x2="11.19" y2="25.92" xlink:href="#linear-gradient-2"/><linearGradient id="linear-gradient-29" x1="4.14" y1="33.63" x2="10.41" y2="25.33" xlink:href="#linear-gradient-2"/><linearGradient id="linear-gradient-30" x1="4.18" y1="33.66" x2="10.46" y2="25.36" xlink:href="#linear-gradient-2"/><linearGradient id="linear-gradient-31" x1="7.05" y1="35.85" x2="13.33" y2="27.55" xlink:href="#linear-gradient-2"/><linearGradient id="linear-gradient-32" x1="6.26" y1="35.24" x2="12.54" y2="26.94" xlink:href="#linear-gradient-2"/><linearGradient id="linear-gradient-33" x1="7.22" y1="35.98" x2="13.5" y2="27.68" xlink:href="#linear-gradient-2"/><linearGradient id="linear-gradient-34" x1="7.75" y1="36.37" x2="14.02" y2="28.07" xlink:href="#linear-gradient-2"/><linearGradient id="linear-gradient-35" x1="7.12" y1="35.9" x2="13.4" y2="27.6" xlink:href="#linear-gradient-2"/><linearGradient id="linear-gradient-36" x1="7.68" y1="36.32" x2="13.96" y2="28.02" xlink:href="#linear-gradient-2"/><linearGradient id="linear-gradient-37" x1="6.84" y1="35.69" x2="13.12" y2="27.39" xlink:href="#linear-gradient-2"/><linearGradient id="linear-gradient-38" x1="5.6" y1="34.74" x2="11.87" y2="26.44" xlink:href="#linear-gradient-2"/><linearGradient id="linear-gradient-39" x1="6.37" y1="35.33" x2="12.65" y2="27.02" xlink:href="#linear-gradient-2"/><linearGradient id="linear-gradient-40" x1="7.71" y1="36.34" x2="13.99" y2="28.04" xlink:href="#linear-gradient-2"/><linearGradient id="linear-gradient-41" x1="6.99" y1="35.8" x2="13.27" y2="27.5" xlink:href="#linear-gradient-2"/><linearGradient id="linear-gradient-42" x1="8.09" y1="36.64" x2="14.37" y2="28.34" xlink:href="#linear-gradient-2"/></defs><title>FXActive-Logo-65x65Монтажная область 1</title><polygon class="cls-1" points="31.7 27.25 26.86 27.25 24.67 29.41 23.69 27.25 19.14 27.25 21.59 32.35 15.96 37.83 20.88 37.83 23.18 35.54 24.19 37.83 28.78 37.83 26.24 32.59 31.7 27.25"/><path class="cls-2" d="M35.6,27.26h-3L25.05,37.83H29l1.33-2h3.24l.28,2h3.67Zm-2.28,6H32.08l1-1.5Z"/><path class="cls-3" d="M38.42,37.44a1.93,1.93,0,0,1-.86-1,2.65,2.65,0,0,1,0-1.53,3.64,3.64,0,0,1,.82-1.52,4.19,4.19,0,0,1,3.16-1.43,2.55,2.55,0,0,1,1.47.38,1.56,1.56,0,0,1,.7,1.08l-1.47.69a1,1,0,0,0-1.08-.79A1.91,1.91,0,0,0,40,33.7a2.1,2.1,0,0,0-.73,1.16A1.38,1.38,0,0,0,39.35,36a1.12,1.12,0,0,0,1,.42,1.89,1.89,0,0,0,1.5-.79l1.1.71a3.48,3.48,0,0,1-1.27,1.07,3.83,3.83,0,0,1-1.68.38A3,3,0,0,1,38.42,37.44Z"/><path class="cls-4" d="M47.68,37.46a2.24,2.24,0,0,1-.67.27,3.31,3.31,0,0,1-.77.09,1.74,1.74,0,0,1-1.44-.52,1.69,1.69,0,0,1-.15-1.54l.63-2.36H44.4l.34-1.28h.88l.38-1.4h1.65l-.37,1.4H48.7l-.34,1.28H46.94l-.62,2.34a.65.65,0,0,0,0,.56.54.54,0,0,0,.47.2,1.26,1.26,0,0,0,.73-.22Z"/><path class="cls-5" d="M50.56,30.92a.71.71,0,0,1-.11-.66,1.22,1.22,0,0,1,.47-.66,1.32,1.32,0,0,1,.81-.27.85.85,0,0,1,.68.26.67.67,0,0,1,.11.64,1.22,1.22,0,0,1-.47.69,1.32,1.32,0,0,1-.81.27A.83.83,0,0,1,50.56,30.92ZM50.2,32h1.65l-1.53,5.75H48.66Z"/><path class="cls-6" d="M59.41,32l-3.95,5.75H53.75L52.88,32h1.71l.55,3.91L57.81,32Z"/><path class="cls-7" d="M64.72,35.33H60.4a1,1,0,0,0,.33.85,1.48,1.48,0,0,0,1,.31,2.43,2.43,0,0,0,.82-.14,2.74,2.74,0,0,0,.76-.42l.62,1a3.79,3.79,0,0,1-2.6.93,3.14,3.14,0,0,1-1.61-.38,1.87,1.87,0,0,1-.87-1,2.57,2.57,0,0,1,0-1.53,3.78,3.78,0,0,1,.8-1.52A4.12,4.12,0,0,1,61,32.29a3.76,3.76,0,0,1,1.66-.38,2.63,2.63,0,0,1,1.42.36,1.76,1.76,0,0,1,.79,1,2.81,2.81,0,0,1,0,1.57A3.29,3.29,0,0,1,64.72,35.33Zm-3.38-1.84a1.83,1.83,0,0,0-.7.87h2.81a1,1,0,0,0-1.08-1.19A1.72,1.72,0,0,0,61.34,33.49Z"/><path class="cls-8" d="M11.85,37.85l.9-3.35H17l.84-3.12h-3l-.31.05-.35.14-.67.39-.28-.11s-1-.58-1-.58-.17.22-.17.22l-1.47,1.42H9.64L8.33,37.85Z"/><polygon class="cls-9" points="11.15 27.25 10.73 28.83 10.73 28.83 10.84 28.76 12.46 28.2 13.28 27.98 13.48 27.84 13.67 27.55 13.78 27.71 14.26 27.88 14.71 28 14.78 28.27 14.91 28.41 15.1 28.46 15.08 28.84 15.06 28.98 14.95 29 14.85 29.03 14.78 29.17 14.34 29.23 14.08 29.36 13.35 29.38 13.24 29.81 13.85 30.37 18.64 30.37 19.47 27.25 11.15 27.25"/><path class="cls-10" d="M17,30.76h.09a9.84,9.84,0,0,0-3.48.26,9.09,9.09,0,0,0-.84-1.5c.49,1,.6,1.7.34,2A8.52,8.52,0,0,1,15.06,31a16.58,16.58,0,0,1,2-.21"/><path class="cls-11" d="M3.25,35.35A5.92,5.92,0,0,0,.71,37.18a7.43,7.43,0,0,0,1.45-1l1.23-.56,2-.44,1.69-1.91,1.63-.21L10.69,33l1.61-1.53c.7.34,1.11.57,1.11.57.24,0,.63-.41,1.31-.66a3.59,3.59,0,0,0-1.3.37s-1.53-.82-1.66-.89l.23.52-1.41,1.29-3,.32.51-.58-.82.42L5.31,34.94l-2.06.41"/><path class="cls-12" d="M3.72,34.57a.7.7,0,0,0,.38-.06l.55-2.11-.93,2.17"/><path class="cls-13" d="M12.14,28.37l1.15-.31a1,1,0,0,0,.32.36.6.6,0,0,1,.06-.65l1,.31.14.39.25.14,0,.32-.18.1.24,0,.08-.3h.08l0-.26-.4-.23-.1-.27-.88-.29-.24-.28a2.51,2.51,0,0,0-.38.5l-1.53.38-1.43.52c-.78,1.09-1.25,1.67-1.19,1.66a9.68,9.68,0,0,1-1.69.72,3.69,3.69,0,0,0-3.6,1.26c-2.31,1.78-4.6,1-3.32-.47-1.07.54-.83,3.4,3.63.7a2.85,2.85,0,0,1,3.31-1.09A7.86,7.86,0,0,1,8.81,31a3.37,3.37,0,0,0-.32.78c1.27-1.74,1.93-2.62,1.93-2.62a6.37,6.37,0,0,1,1.48-.62,3.5,3.5,0,0,1,.59.23c-.12-.14-.3-.39-.35-.39"/><path class="cls-14" d="M13.18,29.21a1.54,1.54,0,0,1,.06.6l.18-.39.68,0,.24-.15.67-.1-1.83.06"/><path class="cls-15" d="M11.4,29.05a.16.16,0,0,1,0,.32.16.16,0,1,1,0-.32"/><path class="cls-16" d="M10.33,30.09a.16.16,0,0,1,0,.32.16.16,0,1,1,0-.32"/><path class="cls-17" d="M10.68,30.89a.16.16,0,1,1-.16.16.16.16,0,0,1,.16-.16"/><path class="cls-18" d="M9.86,30.73a.16.16,0,0,1,0,.32.16.16,0,0,1,0-.32"/><path class="cls-19" d="M9.06,31.53a.16.16,0,1,1-.16.16.16.16,0,0,1,.16-.16"/><path class="cls-20" d="M8.05,31.48a.16.16,0,1,1-.16.16.16.16,0,0,1,.16-.16"/><path class="cls-21" d="M6.88,32.52a.16.16,0,1,1-.16.16.16.16,0,0,1,.16-.16"/><path class="cls-22" d="M6.88,31.72a.16.16,0,1,1-.16.16.16.16,0,0,1,.16-.16"/><path class="cls-23" d="M6.24,31.72a.16.16,0,1,1-.16.16.16.16,0,0,1,.16-.16"/><path class="cls-24" d="M5.84,33.13a.16.16,0,0,1,.16.16.16.16,0,1,1-.32,0,.16.16,0,0,1,.16-.16"/><path class="cls-25" d="M4.78,33.62a.16.16,0,0,1,.16.16.16.16,0,0,1-.32,0,.16.16,0,0,1,.16-.16"/><path class="cls-26" d="M5.39,33.86a.16.16,0,0,1,.16.16.16.16,0,0,1-.32,0,.16.16,0,0,1,.16-.16"/><path class="cls-27" d="M5.26,33.11a.16.16,0,1,1-.16.16.16.16,0,0,1,.16-.16"/><path class="cls-28" d="M6.13,32.44a.16.16,0,0,1,0,.32.16.16,0,0,1,0-.32"/><path class="cls-29" d="M5.34,31.88a.16.16,0,1,1-.16.16.16.16,0,0,1,.16-.16"/><path class="cls-30" d="M4.86,32.6a.16.16,0,1,1-.16.16.16.16,0,0,1,.16-.16"/><path class="cls-31" d="M11.18,30.22a.16.16,0,0,1,0,.32.16.16,0,0,1,0-.32"/><path class="cls-32" d="M10.63,29.31a.17.17,0,0,1,.16.16.16.16,0,0,1-.16.16.16.16,0,0,1-.16-.16.16.16,0,0,1,.16-.16"/><path class="cls-33" d="M12.14,29.31a.16.16,0,0,1,.16.16.16.16,0,0,1-.32,0,.16.16,0,0,1,.16-.16"/><path class="cls-34" d="M12.46,30a.16.16,0,1,1-.16.16.16.16,0,0,1,.16-.16"/><path class="cls-35" d="M12.67,28.41a.16.16,0,0,1,.16.16.16.16,0,0,1-.32,0,.16.16,0,0,1,.16-.16"/><path class="cls-36" d="M13.28,28.75a.16.16,0,0,1,0,.32.16.16,0,0,1,0-.32"/><path class="cls-37" d="M10,31.37a.16.16,0,1,1-.16.16.16.16,0,0,1,.16-.16"/><path class="cls-38" d="M7.52,32a.16.16,0,1,1,0,.32.16.16,0,0,1,0-.32"/><path class="cls-39" d="M8.71,32.07a.16.16,0,0,1,.16.16.16.16,0,1,1-.32,0,.16.16,0,0,1,.16-.16"/><path class="cls-40" d="M12,30.46a.16.16,0,0,1,0,.32.16.16,0,0,1,0-.32"/><path class="cls-41" d="M11.48,29.71a.17.17,0,0,1,.16.16.16.16,0,0,1-.16.16.16.16,0,0,1-.16-.16.16.16,0,0,1,.16-.16"/><path class="cls-42" d="M14.25,28.14c.13.18.24.27.34.27l0-.22s0-.06-.1-.06h-.22"/></svg>