<svg xmlns="http://www.w3.org/2000/svg" width="65" height="65" baseProfile="basic"><defs/><switch><g><linearGradient id="a" x1="15.106" x2="15.106" y1="41.291" y2="12.416" gradientUnits="userSpaceOnUse"><stop offset="0" stop-color="#3da8e0"/><stop offset="1" stop-color="#026"/></linearGradient><path fill="url(#a)" d="M16.947 33.65c0 .092-.055.147-.147.147h-2.283v1.851h1.731c.092 0 .147.055.147.147v.921c0 .101-.055.147-.147.147h-1.731V39.8c0 .092-.055.147-.147.147h-.958c-.101 0-.147-.055-.147-.147v-7.07c0-.092.046-.147.147-.147H16.8c.092 0 .147.055.147.147v.92z"/><linearGradient id="b" x1="19.986" x2="19.986" y1="41.291" y2="12.416" gradientUnits="userSpaceOnUse"><stop offset="0" stop-color="#3da8e0"/><stop offset="1" stop-color="#026"/></linearGradient><path fill="url(#b)" d="M22.26 39.727c.064.129.009.221-.138.221h-.948c-.101 0-.166-.037-.212-.129l-.976-1.998-.976 1.998c-.046.092-.11.129-.212.129h-.948c-.147 0-.203-.092-.138-.221l1.556-3.075-1.464-2.928c-.064-.12-.009-.221.138-.221h.948c.101 0 .166.037.212.129l.884 1.86.884-1.86c.046-.092.11-.129.212-.129h.948c.147 0 .203.101.138.221l-1.455 2.928 1.547 3.075z"/><linearGradient id="c" x1="25.008" x2="25.008" y1="41.291" y2="12.416" gradientUnits="userSpaceOnUse"><stop offset="0" stop-color="#026"/><stop offset="1" stop-color="#3da8e0"/></linearGradient><path fill="url(#c)" d="M26.9 36.155c0 .617-.23 1.022-.672 1.215l.635 2.412c.028.11-.028.166-.129.166h-.958c-.092 0-.138-.046-.157-.129l-.617-2.339h-.635v2.32c0 .092-.055.147-.147.147h-.958c-.092 0-.147-.055-.147-.147v-7.07c0-.092.055-.147.147-.147h2.311c.865 0 1.326.46 1.326 1.326v2.246zm-1.62.11c.239 0 .368-.129.368-.368v-1.731c0-.239-.129-.368-.368-.368h-.911v2.467h.911z"/><linearGradient id="d" x1="29.657" x2="29.657" y1="41.291" y2="12.416" gradientUnits="userSpaceOnUse"><stop offset="0" stop-color="#026"/><stop offset="1" stop-color="#3da8e0"/></linearGradient><path fill="url(#d)" d="M31.494 34.571c0 .092-.037.157-.147.157h-2.274v1.418h1.731c.092 0 .147.055.147.157v.911c0 .101-.055.157-.147.157h-1.731v1.363h2.274c.11 0 .147.046.147.147v.921c0 .092-.037.147-.147.147h-3.388c-.083 0-.138-.055-.138-.147v-6.15c0-.092.055-.147.138-.147h3.388c.11 0 .147.055.147.147v.919z"/><linearGradient id="e" x1="34.362" x2="34.362" y1="41.291" y2="12.416" gradientUnits="userSpaceOnUse"><stop offset="0" stop-color="#026"/><stop offset="1" stop-color="#3da8e0"/></linearGradient><path fill="url(#e)" d="M36.319 33.503c.138 0 .193.074.166.203l-1.464 6.077c-.028.11-.092.166-.203.166h-.921c-.11 0-.175-.055-.203-.166l-1.455-6.077c-.028-.129.028-.203.166-.203h.838c.11 0 .175.055.203.166l.912 4.162.921-4.162c.028-.11.092-.166.203-.166h.837z"/><linearGradient id="f" x1="38.611" x2="38.611" y1="41.291" y2="12.416" gradientUnits="userSpaceOnUse"><stop offset="0" stop-color="#026"/><stop offset="1" stop-color="#3da8e0"/></linearGradient><path fill="url(#f)" d="M36.77 34.829c0-.865.46-1.326 1.326-1.326h1.031c.865 0 1.326.46 1.326 1.326v3.793c0 .865-.46 1.326-1.326 1.326h-1.031c-.865 0-1.326-.46-1.326-1.326v-3.793zm2.154 3.931c.239 0 .368-.12.368-.368v-3.333c0-.239-.129-.368-.368-.368h-.589c-.239 0-.368.129-.368.368v3.333c0 .249.129.368.368.368h.589z"/><linearGradient id="g" x1="42.985" x2="42.985" y1="41.291" y2="12.416" gradientUnits="userSpaceOnUse"><stop offset="0" stop-color="#026"/><stop offset="1" stop-color="#3da8e0"/></linearGradient><path fill="url(#g)" d="M42.626 38.733h1.823c.101 0 .147.055.147.147v.921c0 .101-.046.147-.147.147h-2.928c-.092 0-.147-.046-.147-.147v-6.15c0-.092.055-.147.147-.147h.958c.101 0 .147.055.147.147v5.082z"/><linearGradient id="h" x1="47.174" x2="47.174" y1="41.291" y2="12.416" gradientUnits="userSpaceOnUse"><stop offset="0" stop-color="#026"/><stop offset="1" stop-color="#3da8e0"/></linearGradient><path fill="url(#h)" d="M48.831 33.503c.101 0 .184.083.184.184v4.935c0 .865-.46 1.326-1.326 1.326h-1.031c-.865 0-1.326-.46-1.326-1.326v-4.935c0-.101.083-.184.184-.184h.884c.101 0 .184.083.184.184v4.677c0 .249.129.368.368.368h.479c.239 0 .368-.12.368-.368v-4.677c0-.101.083-.184.184-.184h.848z"/><linearGradient id="i" x1="51.593" x2="51.593" y1="41.291" y2="12.416" gradientUnits="userSpaceOnUse"><stop offset="0" stop-color="#026"/><stop offset="1" stop-color="#3da8e0"/></linearGradient><path fill="url(#i)" d="M53.287 33.503c.101 0 .147.055.147.147v.921c0 .092-.046.147-.147.147h-1.068V39.8c0 .101-.046.147-.147.147h-.958c-.092 0-.147-.046-.147-.147v-5.082h-1.068c-.092 0-.147-.055-.147-.147v-.921c0-.092.055-.147.147-.147h3.388z"/><linearGradient id="j" x1="54.705" x2="54.705" y1="41.291" y2="12.416" gradientUnits="userSpaceOnUse"><stop offset="0" stop-color="#026"/><stop offset="1" stop-color="#3da8e0"/></linearGradient><path fill="url(#j)" d="M54.226 39.948c-.101 0-.147-.055-.147-.147v-6.15c0-.092.046-.147.147-.147h.958c.092 0 .147.055.147.147v6.15c0 .092-.055.147-.147.147h-.958z"/><linearGradient id="k" x1="58.093" x2="58.093" y1="41.291" y2="12.416" gradientUnits="userSpaceOnUse"><stop offset="0" stop-color="#026"/><stop offset="1" stop-color="#3da8e0"/></linearGradient><path fill="url(#k)" d="M56.252 34.829c0-.865.46-1.326 1.326-1.326h1.031c.865 0 1.326.46 1.326 1.326v3.793c0 .865-.46 1.326-1.326 1.326h-1.031c-.865 0-1.326-.46-1.326-1.326v-3.793zm2.154 3.931c.239 0 .368-.12.368-.368v-3.333c0-.239-.129-.368-.368-.368h-.589c-.239 0-.368.129-.368.368v3.333c0 .249.129.368.368.368h.589z"/><linearGradient id="l" x1="62.821" x2="62.821" y1="41.291" y2="12.416" gradientUnits="userSpaceOnUse"><stop offset="0" stop-color="#026"/><stop offset="1" stop-color="#3da8e0"/></linearGradient><path fill="url(#l)" d="M64.64 33.503c.092 0 .147.055.147.147v6.15c0 .092-.055.147-.147.147h-.727c-.083 0-.129-.037-.166-.12l-1.731-3.517v3.489c0 .092-.046.147-.147.147h-.865c-.092 0-.147-.055-.147-.147v-6.15c0-.092.055-.147.147-.147h.727c.083 0 .129.037.166.12l1.731 3.517V33.65c0-.092.046-.147.147-.147h.865z"/><g><linearGradient id="m" x1="3.211" x2="22.472" y1="35.363" y2="35.363" gradientUnits="userSpaceOnUse"><stop offset="0" stop-color="#3da8e0"/><stop offset="1" stop-color="#026"/></linearGradient><path fill="url(#m)" d="M22.472 30.08l-.853 1.074s-4.581-.278-9.274 1.284a6.185 6.185 0 01-8.582 6.905c-.203.413-.387.847-.55 1.303 0 0-.031-.587.182-1.483.488-2.062 2.261-5.765 8.646-7.746 2.622-.814 6.022-1.337 10.431-1.337z"/><linearGradient id="n" x1="3.211" x2="22.472" y1="35.363" y2="35.363" gradientUnits="userSpaceOnUse"><stop offset="0" stop-color="#026"/><stop offset="1" stop-color="#3da8e0"/></linearGradient><path fill="url(#n)" d="M6.207 36.546c-1.327 2.537-.555 3.265.777 3.295a6.165 6.165 0 01-3.221-.498c-.203.413-.387.847-.55 1.303 0 0-.031-.587.182-1.483.488-2.062 2.261-5.765 8.646-7.746 2.622-.814 6.023-1.337 10.432-1.337-.001 0-12.922.073-16.266 6.466z"/><g><linearGradient id="o" x1=".005" x2="25.948" y1="31.515" y2="31.515" gradientUnits="userSpaceOnUse"><stop offset="0" stop-color="#3da8e0"/><stop offset="1" stop-color="#026"/></linearGradient><path fill="url(#o)" d="M25.948 24.961l-1.01 1.506S17 25.875 10 28.766V29h-.003c-3.781 1-7.185 4.132-8.639 8.558-.062.189-.218.316-.273.511 0 0-.085-.354-.085-.857v-.002c-1-.998-.995-2.209-.995-3.514 0-3.416 2.979-6.181 6.395-6.181.848 0 1.6.146 2.6.458v-.026.025l-.159.008c3.674-1.752 8.981-3.019 17.107-3.019z"/><linearGradient id="p" x1=".005" x2="24.936" y1="32.202" y2="32.202" gradientUnits="userSpaceOnUse"><stop offset="0" stop-color="#026"/><stop offset="1" stop-color="#3da8e0"/></linearGradient><path fill="url(#p)" d="M24.936 26.467c-.16-.012-7.936-.563-14.936 2.299V29h-.003c-3.781 1-7.185 4.132-8.639 8.558-.062.189-.218.316-.273.511 0 0-.085-.354-.085-.857v-.002c-1-.998-.995-2.209-.995-3.514 0-.184.056-.367.072-.547.457 2.359 2.708-.412 2.708-.412 7.87-7.805 21.939-6.293 22.151-6.27z"/></g><g><linearGradient id="q" x1="2.172" x2="24.178" y1="34.016" y2="34.016" gradientUnits="userSpaceOnUse"><stop offset="0" stop-color="#3da8e0"/><stop offset="1" stop-color="#026"/></linearGradient><path fill="url(#q)" d="M2.254 39.921S-.38 28.132 24.179 28.111l-.853 1.137c-.001 0-19.954-.307-21.072 10.673z"/><linearGradient id="r" x1="2.172" x2="24.178" y1="34.016" y2="34.016" gradientUnits="userSpaceOnUse"><stop offset="0" stop-color="#026"/><stop offset="1" stop-color="#3da8e0"/></linearGradient><path fill="url(#r)" d="M24.178 28.111c-10.074.529-15.52 3.123-18.464 5.745-2.402 2.139-3.137 4.298-3.362 5.37-.092.439-.098.696-.098.696S-.38 28.132 24.178 28.111z"/></g></g></g></switch></svg>