<svg id="Layer_1" data-name="Layer 1" xmlns="http://www.w3.org/2000/svg" viewBox="0 0 65 65"><defs><style>.cls-1{fill:#0d111e;}.cls-2{fill:#fff;}.cls-3{fill:#5fa800;}</style></defs><title>FXWLBrands - App for Deborah</title><rect class="cls-1" width="65" height="65"/><path class="cls-2" d="M2.77,50.18h9.07V48.45H4.34Z"/><polygon class="cls-2" points="8.52 54.39 8.06 55.97 6.72 51.52 5.12 51.52 3.78 55.97 3.32 54.39 2.35 51.52 1.56 51.52 0.5 52.69 2.65 58.55 4.68 58.55 5.91 55.05 7.16 58.55 9.18 58.55 11.77 51.52 9.49 51.52 8.52 54.39"/><rect class="cls-2" x="12.79" y="48.62" width="2.02" height="9.89"/><path class="cls-2" d="M20.81,51.38a2.66,2.66,0,0,0-2.19,1V48.62H16.57v9.89H18.4l.12-.9a2.67,2.67,0,0,0,2.32,1A3.37,3.37,0,0,0,24.29,55,3.34,3.34,0,0,0,20.81,51.38Zm-.28,5.43A1.71,1.71,0,0,1,18.65,55a1.79,1.79,0,0,1,1.88-1.79,1.8,1.8,0,0,1,0,3.59Z"/><path class="cls-2" d="M27.68,52.3l-.16-.77H25.63v7h2V54.87a1.53,1.53,0,0,1,1.62-1.61,1.84,1.84,0,0,1,1.12.35L31.26,52a2.46,2.46,0,0,0-1.71-.64A2.16,2.16,0,0,0,27.68,52.3Z"/><path class="cls-2" d="M37.2,52.32a2.36,2.36,0,0,0-2.06-1A3.44,3.44,0,0,0,31.47,55a3.4,3.4,0,0,0,3.61,3.65,2.7,2.7,0,0,0,2.15-1l.11.88h1.84v-7H37.27Zm-1.85,4.53a1.85,1.85,0,0,1,0-3.69,1.85,1.85,0,1,1,0,3.69Z"/><path class="cls-2" d="M45.08,51.35a2.61,2.61,0,0,0-2.26,1.06l-.07-.89H40.91v7h2V54.9a1.62,1.62,0,0,1,1.59-1.71c1,0,1.44.55,1.44,1.62v3.7h2V54.8C48,52.08,46.65,51.35,45.08,51.35Z"/><path class="cls-2" d="M54.91,52.37a2.68,2.68,0,0,0-2.2-1A3.34,3.34,0,0,0,49.23,55a3.35,3.35,0,0,0,3.45,3.62,2.64,2.64,0,0,0,2.32-1l.13.9H57V48.62H54.91ZM53,56.81a1.8,1.8,0,0,1,0-3.59A1.79,1.79,0,0,1,54.88,55,1.71,1.71,0,0,1,53,56.81Z"/><path class="cls-2" d="M61.46,54.18c-.68,0-1-.23-1-.61s.33-.58,1-.58a2.68,2.68,0,0,1,1.66.51l1-1.27a3.85,3.85,0,0,0-2.67-.91c-1.52,0-3,.66-3,2.25S60,55.75,61.33,55.8c1,0,1.19.3,1.19.63s-.45.6-1.05.59A3.7,3.7,0,0,1,59,56.14l-.88,1.45a4.73,4.73,0,0,0,3.28,1.18c2.22,0,3.07-1.21,3.06-2.34C64.48,54.5,62.83,54.22,61.46,54.18Z"/><rect class="cls-2" x="19.45" y="48.45" width="34.49" height="1.74"/><rect class="cls-2" x="58.08" y="48.45" width="6.2" height="1.74"/><path class="cls-2" d="M7.77,29.28V47h7V29.28h6.69V23.37H14.79V22c0-2.54,1.47-3.71,3.57-3.71l31.68,0,7.81-6-40.32,0C12.84,12.25,7.77,15,7.77,22v1.41H.84v5.91H7.77Z"/><polygon class="cls-2" points="22.52 46.93 31.02 46.93 36.51 40.94 32.39 36.18 22.52 46.93"/><polygon class="cls-2" points="44.02 46.93 52.52 46.93 42.69 36.22 38.48 40.89 44.02 46.93"/><polygon class="cls-3" points="64.19 8.81 63.82 9.11 37.54 30.59 30.98 23.02 22.9 23.02 37.54 39.93 64.19 8.81"/><path class="cls-3" d="M4.86,6.84a2,2,0,0,1,2-2H58.19a2,2,0,0,1,2,2V10l4-3.28a6,6,0,0,0-6-5.93H6.87a6,6,0,0,0-6,6V20.93h4Z"/><polygon class="cls-3" points="60.2 15.55 60.2 47.09 64.23 47.09 64.23 10.81 60.2 15.55"/><rect class="cls-3" x="0.84" y="31.66" width="4.02" height="15.43"/><path class="cls-3" d="M6.87,60.17H1.19a6,6,0,0,0,5.68,4H58.19a6,6,0,0,0,5.69-4h-57Z"/></svg>