<?xml version="1.0" encoding="UTF-8"?>
<svg width="65px" height="65px" viewBox="0 0 65 65" version="1.1" xmlns="http://www.w3.org/2000/svg" xmlns:xlink="http://www.w3.org/1999/xlink">
    <!-- Generator: Sketch 54.1 (76490) - https://sketchapp.com -->
    <title>BO_Brand_header_logo</title>
    <desc>Created with Sketch.</desc>
    <defs>
        <polygon id="path-1" points="0 0 63 0 63 62 0 62"></polygon>
    </defs>
    <g id="BO_Brand_header_logo" stroke="none" stroke-width="1" fill="none" fill-rule="evenodd">
        <g id="Clipped" transform="translate(1.000000, 2.000000)">
            <mask id="mask-2" fill="white">
                <use xlink:href="#path-1"></use>
            </mask>
            <g id="a"></g>
            <path d="M62.5209231,25.6436796 C62.2076538,23.9015138 59.8991538,23.2726077 58.7329615,24.614 C58.1458846,25.2891492 58.1808462,26.048221 58.3085769,26.8703204 C58.4688462,27.9065083 58.5744231,28.9516022 58.6180385,29.9990939 C58.7742581,33.7854403 58.1195504,37.5616772 56.6968846,41.0799669 C54.0027692,47.7262983 48.555,53.1148177 41.8513846,55.8267182 C40.1511955,56.5132871 38.3860865,57.0304547 36.5822308,57.3705525 C35.1152308,57.647326 33.003,57.4609834 32.4290769,59.1839669 C31.9351154,60.6668287 33.1819615,62.0962541 34.7136923,61.9948619 C36.4243846,61.8814807 38.1575769,61.474884 39.8118462,61.0449945 C46.5396923,59.296663 52.6157308,55.1669834 56.7668077,49.670221 C61.9314231,42.8306961 64.0315385,34.0472486 62.5209231,25.6436796 M21.6941538,46.4143646 C23.3567308,47.4471271 25.4779615,45.7967624 24.9331154,43.9669061 C24.6593077,43.0464972 23.8160769,42.6467514 23.0919231,42.1113591 C22.319055,41.5401458 21.6073414,40.8921014 20.9679231,40.1773702 C18.5908846,37.5110276 17.3263846,33.9688066 17.4973846,30.4200773 C17.5704231,28.8974807 18.5316923,26.8576464 17.0311154,25.738221 C15.7776923,24.8027403 13.9884231,25.4614475 13.5868846,26.9282099 C11.5791923,34.2746961 15.2979231,42.4384862 21.6941538,46.4143646 M8.75492308,45.0167956 C8.76011538,45.9406298 9.432,46.665105 9.97684615,47.3542983 C12.1624615,50.1216906 14.8458462,52.4999558 17.9349231,54.2448619 C19.670887,55.2275064 21.5081121,56.0235358 23.4152308,56.6193591 C24.3110769,56.8992155 25.4575385,56.9882762 26.2291154,57.5380552 C26.9906538,58.0816685 27.4005,59.089768 27.0920769,59.9896243 C26.3208462,62.2445746 23.6260385,61.2035912 22.0198846,60.6969724 C20.1999347,60.1217521 18.4337252,59.3916968 16.7410385,58.5149834 C13.6360385,56.9105193 10.8304615,54.7367514 8.43853846,52.2139337 C3.13269231,46.6209171 -0.081,38.8270718 0.00138461539,31.132221 C0.0183461539,29.5161105 1.57015385,28.1181989 3.19880769,28.9981878 C4.83542308,29.8829724 4.347,32.2256133 4.51834615,33.7581436 C4.63430769,34.7929613 4.79042308,35.8202431 5.01265385,36.8386188 C5.20615385,37.7210055 5.37126923,38.7684972 5.82957692,39.5638785 C6.6195,40.9357569 8.65765385,40.9617901 9.54380769,39.6734917 C10.0772308,38.8993481 9.88476923,38.1416464 9.63934615,37.3089282 C9.3123558,36.1952 9.07359414,35.0579431 8.92523077,33.9074917 C8.67798046,32.0000085 8.68030734,30.0689385 8.93215385,28.1620442 C9.40223077,24.614 10.7318077,21.1885856 12.8056154,18.2516354 C16.7798077,12.6236796 23.1673846,9.07734807 30.0859615,8.61594475 C31.7956154,8.50153591 33.5225769,8.60772376 35.2118077,8.87833149 C36.1256538,9.02493923 37.0277308,9.23731492 37.9156154,9.49422099 C38.8003846,9.74941436 39.6955385,10.2358232 40.6038462,10.3790055 C42.2487692,10.639337 43.6143462,8.97527072 42.9327692,7.45061878 C42.5630769,6.62338122 41.8115769,6.28358011 41.0001923,5.9859116 C40.0079259,5.62043412 38.9958123,5.31006528 37.9685769,5.05625414 C30.8187692,3.29524862 23.1161538,4.5558011 16.9047692,8.45974586 C16.060205,8.99217616 15.2457536,9.56999606 14.4650769,10.1906077 C13.8229615,10.6996243 13.2438462,11.2336464 12.3687692,11.217547 C10.6511538,11.1867182 9.65942308,9.23662983 10.6321154,7.8441989 C11.1319615,7.12897238 12.0645,6.56103867 12.7602692,6.05339227 C13.5532967,5.47548449 14.3725726,4.933705 15.2155385,4.42974586 C16.7192308,3.52886188 18.306,2.73485083 19.9491923,2.1121105 C27.2312308,-0.648773481 35.1695769,-0.702895028 42.4959231,1.94940331 C46.1187692,3.26030939 49.5096923,5.29055249 52.4028462,7.80549171 C53.9826923,9.1801105 55.4496923,10.7146961 56.7017308,12.3886961 C57.3238558,13.219128 57.9091784,14.0759491 58.4560385,14.9567293 C58.9088077,15.6873702 59.5128462,16.4889171 59.4858462,17.3843204 C59.4315,19.1696464 57.2123077,20.1092376 55.8626538,18.9154807 C55.1440385,18.2793812 54.7300385,17.1781105 54.2028462,16.3875249 C53.6367234,15.537123 53.0236788,14.7182354 52.3665,13.9345856 C51.4159615,12.8041989 50.0725385,10.817116 48.3556154,11.0777901 C46.5639231,11.350453 45.9796154,13.5064088 47.1679615,14.7464088 C49.7841923,17.4761215 51.9251538,20.3812155 53.1107308,24.0049613 C53.6575395,25.6692594 54.0135443,27.3891124 54.1720385,29.1321215 C54.3108462,30.6632818 54.6756923,32.9353591 52.7895,33.571116 C52.0441181,33.8205732 51.220536,33.6458203 50.6440385,33.1158785 C49.9783846,32.4989613 49.9191923,31.7248177 49.9070769,30.8766851 C49.8783462,28.8899448 49.5366923,26.9172486 48.8713846,25.0404641 C47.6131154,21.493105 45.2139231,18.384884 42.0964615,16.2292707 C35.9885769,12.0050497 27.7677692,11.7738343 21.5006538,15.8086298 C20.7462618,16.2929257 20.0277807,16.829912 19.3506923,17.4154917 C18.6639231,18.0101436 17.8203462,18.6873481 17.3803846,19.488895 C16.5956538,20.918663 17.7618462,22.5820442 19.3593462,22.5710829 C20.2991538,22.564232 20.8485,22.0038343 21.4629231,21.386232 C22.188428,20.655668 22.9906207,20.0037769 23.8558846,19.4416243 C25.2806538,18.5181326 26.8708846,17.8707293 28.5341538,17.5090055 C29.3410385,17.3332818 30.1725,17.2445635 31.0056923,17.2144199 L31.0063846,17.2109945 C31.0617692,17.2075691 31.1150769,17.2075691 31.1701154,17.2041436 C31.8548077,17.1870166 32.5391538,17.2106519 33.2127692,17.294232 C33.3841154,17.3154696 33.5675769,17.3373923 33.7569231,17.3627403 C33.9331154,17.3918564 34.1089615,17.4209724 34.2823846,17.4586519 C34.9968462,17.6145083 35.6908846,17.8217459 36.3620769,18.0745414 C37.5507651,18.5204598 38.6744753,19.1203364 39.7038462,19.8584972 C40.8516923,20.6840221 40.8537692,22.3806298 39.7381154,23.2472597 C38.9713846,23.8432818 37.9055769,23.8456796 37.1149615,23.2825414 C36.3973846,22.7714696 34.7351538,21.8699006 32.8119231,21.5920994 C32.0240769,21.4776906 31.2334615,21.4818011 30.4407692,21.5646961 C27.4354615,21.8791492 24.7181538,23.6353591 23.1812308,26.2009945 C21.2368846,29.4472597 21.4414615,33.612221 23.6980385,36.6512486 C25.8192692,39.5094144 29.5144615,41.0580442 33.0718846,40.474011 C36.5929615,39.8961436 39.5775,37.361337 40.6879615,34.008884 L33.8375769,34.008884 C32.9341154,34.008884 31.9614231,34.1130166 31.0635,33.9783978 C29.0187692,33.6735359 28.4202692,30.9160773 30.3192692,29.9446298 C31.2178846,29.4849392 32.5699615,29.7045083 33.5447308,29.7045083 L35.7244615,29.7045083 C37.7342308,29.7045083 39.7446923,29.7206077 41.7537692,29.6966298 C43.1214231,29.6812155 44.739,29.5116575 45.3347308,31.0726188 C45.6445385,31.8827293 45.4212692,32.8665083 45.2561538,33.6858674 C45.0349857,34.7830782 44.6785512,35.8492755 44.1948462,36.8605414 C42.2778462,40.8696464 38.6470385,43.6719779 34.2823846,44.6225304 C33.399,44.8150387 32.4754615,44.8886851 31.572,44.8958785 C30.7145769,44.9027293 29.691,44.6194475 28.9343077,45.1301768 C27.1221923,46.3523646 28.7674615,48.9522541 30.4951154,49.1844972 C32.5983462,49.467779 34.9944231,49.0193923 36.9924231,48.3918564 C38.9696538,47.7694586 40.8243462,46.8490497 42.4914231,45.6265193 C42.9625572,45.2819478 43.4165505,44.9149986 43.8518077,44.5269613 C44.235,44.1847624 44.5832308,43.7809061 45.0668077,43.5729834 C45.9875769,43.1783757 47.1257308,43.4750166 47.7079615,44.288895 C49.1950385,46.3688066 46.2745385,48.2332597 44.8224231,49.2673923 C41.3823462,51.7175912 37.2797308,53.1905193 33.0448846,53.4741436 C29.4303462,53.7173481 25.7777308,53.0795359 22.4546538,51.6573039 C19.0966154,50.22 16.1470385,47.9777238 13.8285,45.1866961 C13.2518077,44.4927072 12.7682308,43.4914586 11.9295,43.0749282 C11.2368462,42.7313591 10.4413846,42.7995249 9.79269231,43.2037238 C9.15369231,43.6010718 8.75007692,44.2638895 8.75492308,45.0174807 M50.8254231,37.3599669 C48.1070769,36.4947072 46.7896154,40.704884 49.4975769,41.5239006 C52.1941154,42.3398343 53.4658846,38.2026188 50.8254231,37.3599669 M6.26157692,15.8332928 C8.98511538,16.9458674 7.00823077,21.1169945 4.39719231,19.7872486 C1.9665,18.5486188 3.76996154,14.8169724 6.26123077,15.8332928" id="Shape" fill="#33328F" fill-rule="nonzero" mask="url(#mask-2)"></path>
        </g>
    </g>
</svg>