<svg id="Layer_1" data-name="Layer 1" xmlns="http://www.w3.org/2000/svg" viewBox="0 0 65 65"><defs><style>.cls-1{fill:#414042;}.cls-2{fill:#fff;}</style></defs><rect class="cls-1" width="65" height="65" rx="4.32"/><path class="cls-2" d="M8.56,35.93H20.85V46.48l2.9-.24a3.34,3.34,0,0,0,3.07-3.33V17.11h-6V30.23H8.56V17.11h-6V48.33q2.51-.3,6-.68Z"/><path class="cls-2" d="M61.13,39.55a16.72,16.72,0,0,0,0-12.83,16.42,16.42,0,0,0-3.51-5.23A16.65,16.65,0,0,0,52.4,18a16.55,16.55,0,0,0-12.81,0,16.34,16.34,0,0,0-5.2,3.53,16.7,16.7,0,0,0-3.49,5.23,16.84,16.84,0,0,0,0,12.83,16.11,16.11,0,0,0,3.49,5.22h0a2.13,2.13,0,0,0,1.63.59c6.34-.4,13.39-.75,21.08-1a2.21,2.21,0,0,0,1.63-.81A16.1,16.1,0,0,0,61.13,39.55Zm-5.46-2.3a10.36,10.36,0,0,1-2.24,3.36,10.84,10.84,0,0,1-3.33,2.26,10.57,10.57,0,0,1-8.21,0,10.62,10.62,0,0,1,0-19.49,10.57,10.57,0,0,1,8.21,0,10.84,10.84,0,0,1,3.33,2.26A10.36,10.36,0,0,1,55.67,29a10.91,10.91,0,0,1,0,8.25Z"/></svg>