<svg width="65" height="65" viewBox="0 0 65 65" fill="none" xmlns="http://www.w3.org/2000/svg">
<path d="M20.9143 31.5007C20.0187 31.5007 19.3072 31.2047 18.7799 30.6125C18.2555 30.0204 17.9933 29.2176 17.9933 28.2042C17.9933 27.1967 18.257 26.3968 18.7843 25.8047C19.3117 25.2096 20.0216 24.9121 20.9143 24.9121C21.639 24.9121 22.2503 25.1168 22.7481 25.5263C23.246 25.9328 23.5362 26.4675 23.6187 27.1304H22.6377C22.5493 26.7209 22.3475 26.3939 22.0323 26.1494C21.72 25.9019 21.3473 25.7782 20.9143 25.7782C20.3339 25.7782 19.8699 25.9991 19.5223 26.441C19.1776 26.88 19.0053 27.4677 19.0053 28.2042C19.0053 28.9495 19.1776 29.5417 19.5223 29.9806C19.867 30.4166 20.3324 30.6346 20.9187 30.6346C21.3606 30.6346 21.7318 30.5271 22.0323 30.312C22.3357 30.097 22.5375 29.7965 22.6377 29.4106H23.6231C23.5023 30.0705 23.2033 30.5845 22.726 30.9528C22.2517 31.3181 21.6478 31.5007 20.9143 31.5007Z" fill="black"/>
<path d="M27.2731 24.9121C28.1893 24.9121 28.9155 25.2081 29.4517 25.8003C29.9908 26.3924 30.2603 27.1952 30.2603 28.2086C30.2603 29.222 29.9923 30.0248 29.4561 30.6169C28.9199 31.2061 28.1923 31.5007 27.2731 31.5007C26.354 31.5007 25.6263 31.2061 25.0902 30.6169C24.554 30.0248 24.2859 29.222 24.2859 28.2086C24.2859 27.1952 24.554 26.3924 25.0902 25.8003C25.6263 25.2081 26.354 24.9121 27.2731 24.9121ZM27.2731 25.7826C26.6663 25.7826 26.1846 26.0006 25.8281 26.4366C25.4746 26.8726 25.2979 27.4633 25.2979 28.2086C25.2979 28.951 25.4746 29.5402 25.8281 29.9762C26.1846 30.4122 26.6663 30.6302 27.2731 30.6302C27.8771 30.6302 28.3558 30.4122 28.7093 29.9762C29.0658 29.5402 29.244 28.951 29.244 28.2086C29.244 27.4633 29.0658 26.8726 28.7093 26.4366C28.3558 26.0006 27.8771 25.7826 27.2731 25.7826Z" fill="black"/>
<path d="M32.1693 31.3947H31.206V25.0181H32.103L35.4084 29.7199H35.4438V25.0181H36.4071V31.3947H35.5145L32.2091 26.6973H32.1693V31.3947Z" fill="black"/>
<path d="M19.1865 40.4447H18.2231V34.0681H19.1202L22.4256 38.7699H22.4609V34.0681H23.4242V40.4447H22.5316L19.2262 35.7473H19.1865V40.4447Z" fill="black"/>
<path d="M27.4897 40.4447H26.407L24.1313 34.0681H25.2051L26.9417 39.3311H26.9682L28.7093 34.0681H29.7654L27.4897 40.4447Z" fill="black"/>
<path d="M34.5202 39.5874V40.4447H30.4725V34.0681H34.5202V34.921H31.4623V36.7858H34.3567V37.6077H31.4623V39.5874H34.5202Z" fill="black"/>
<path d="M35.2538 38.6683H36.2303C36.2657 38.9835 36.4233 39.2368 36.7032 39.4283C36.983 39.6198 37.3336 39.7155 37.7549 39.7155C38.1555 39.7155 38.4855 39.6227 38.7447 39.4371C39.0069 39.2516 39.138 39.0159 39.138 38.7301C39.138 38.4827 39.0452 38.2809 38.8596 38.1247C38.674 37.9656 38.375 37.836 37.9626 37.7359L37.1362 37.537C36.55 37.3956 36.1169 37.185 35.8371 36.9051C35.5601 36.6252 35.4217 36.2629 35.4217 35.818C35.4217 35.2701 35.6367 34.8238 36.0668 34.4791C36.4999 34.1344 37.0582 33.9621 37.7416 33.9621C38.4133 33.9621 38.9613 34.1344 39.3855 34.4791C39.8097 34.8208 40.0292 35.2671 40.0439 35.818H39.0806C39.0511 35.5028 38.9141 35.2539 38.6696 35.0712C38.428 34.8886 38.1143 34.7973 37.7284 34.7973C37.3454 34.7973 37.0331 34.8856 36.7916 35.0624C36.5529 35.2391 36.4336 35.4689 36.4336 35.7517C36.4336 35.9756 36.5235 36.1598 36.7032 36.3041C36.8829 36.4455 37.1789 36.5678 37.5914 36.6709L38.294 36.8432C38.948 36.9964 39.4194 37.2129 39.7081 37.4928C39.9997 37.7697 40.1455 38.1424 40.1455 38.6108C40.1455 39.2059 39.9246 39.6787 39.4827 40.0293C39.0408 40.3769 38.4413 40.5507 37.6842 40.5507C36.9742 40.5507 36.3983 40.3813 35.9564 40.0425C35.5174 39.7008 35.2832 39.2427 35.2538 38.6683Z" fill="black"/>
<path d="M43.6409 40.4447H42.6511V34.921H40.6626V34.0681H45.625V34.921H43.6409V40.4447Z" fill="black"/>
<path d="M47.4235 40.4447H46.4337V34.0681H47.4235V40.4447Z" fill="black"/>
<path d="M49.5623 40.4447H48.599V34.0681H49.496L52.8014 38.7699H52.8368V34.0681H53.8001V40.4447H52.9075L49.6021 35.7473H49.5623V40.4447Z" fill="black"/>
<path d="M60.4727 37.7933C60.4727 38.6565 60.2297 39.3326 59.7436 39.8216C59.2604 40.3077 58.5873 40.5507 57.7241 40.5507C56.8109 40.5507 56.0862 40.2532 55.55 39.6581C55.0168 39.0601 54.7502 38.2499 54.7502 37.2277C54.7502 36.2231 55.0153 35.4277 55.5456 34.8414C56.0788 34.2552 56.8005 33.9621 57.7109 33.9621C58.4208 33.9621 59.0218 34.155 59.5138 34.541C60.0087 34.9269 60.3121 35.438 60.4241 36.0743H59.4077C59.2899 35.6796 59.0822 35.3732 58.7847 35.1552C58.4871 34.9372 58.1307 34.8282 57.7153 34.8282C57.1055 34.8282 56.6267 35.0403 56.2791 35.4645C55.9344 35.8858 55.7621 36.4706 55.7621 37.2188C55.7621 37.9818 55.9389 38.5843 56.2924 39.0262C56.6459 39.4651 57.1261 39.6846 57.7329 39.6846C58.2485 39.6846 58.6698 39.5344 58.9968 39.2339C59.3238 38.9304 59.4902 38.5372 59.4961 38.054V37.9435H57.8478V37.1437H60.4727V37.7933Z" fill="black"/>
<path opacity="0.6" d="M19.6576 20.6152C19.663 20.5657 19.65 20.5208 19.6185 20.4805C19.587 20.4402 19.5466 20.4166 19.4972 20.4099C19.4471 20.4037 19.4023 20.4161 19.3627 20.447C19.3224 20.4785 19.2996 20.519 19.2942 20.5685C19.2888 20.618 19.3018 20.663 19.3333 20.7033C19.3648 20.7436 19.4052 20.7671 19.4546 20.7738C19.504 20.7806 19.5488 20.7682 19.5891 20.7367C19.6286 20.7058 19.6515 20.6653 19.6576 20.6152Z" fill="black"/>
<path opacity="0.6" d="M22.2782 21.5566C22.2836 21.5071 22.2706 21.4622 22.2391 21.4219C22.2076 21.3816 22.1672 21.3581 22.1178 21.3513C22.0677 21.3452 22.0229 21.3576 21.9833 21.3884C21.943 21.4199 21.9202 21.4604 21.9148 21.51C21.9094 21.5595 21.9224 21.6044 21.9539 21.6447C21.9854 21.685 22.0258 21.7085 22.0752 21.7153C22.1246 21.722 22.1694 21.7096 22.2097 21.6782C22.2492 21.6473 22.2721 21.6068 22.2782 21.5566Z" fill="black"/>
<path opacity="0.6" d="M24.4455 22.9295C24.4509 22.88 24.4379 22.8351 24.4064 22.7948C24.3749 22.7545 24.3345 22.7309 24.2851 22.7242C24.235 22.718 24.1902 22.7304 24.1506 22.7613C24.1103 22.7928 24.0875 22.8333 24.0821 22.8828C24.0767 22.9323 24.0897 22.9773 24.1212 23.0176C24.1527 23.0579 24.1931 23.0814 24.2425 23.0881C24.2919 23.0949 24.3367 23.0825 24.377 23.051C24.4165 23.0201 24.4394 22.9796 24.4455 22.9295Z" fill="black"/>
<path opacity="0.6" d="M16.9023 20.2796C16.9077 20.2301 16.8947 20.1852 16.8632 20.1449C16.8317 20.1046 16.7913 20.081 16.7419 20.0743C16.6918 20.0681 16.647 20.0805 16.6074 20.1114C16.5671 20.1429 16.5443 20.1834 16.5389 20.2329C16.5335 20.2824 16.5465 20.3273 16.578 20.3676C16.6095 20.4079 16.6499 20.4315 16.6993 20.4382C16.7486 20.445 16.7935 20.4326 16.8338 20.4011C16.8733 20.3702 16.8962 20.3297 16.9023 20.2796Z" fill="black"/>
<path opacity="0.6" d="M19.6585 44.8425C19.6639 44.8921 19.6508 44.937 19.6193 44.9773C19.5878 45.0176 19.5474 45.0411 19.4981 45.0479C19.448 45.054 19.4031 45.0416 19.3636 45.0107C19.3233 44.9793 19.3004 44.9388 19.295 44.8892C19.2896 44.8397 19.3027 44.7948 19.3342 44.7545C19.3657 44.7142 19.4061 44.6907 19.4554 44.6839C19.5048 44.6772 19.5496 44.6895 19.5899 44.721C19.6295 44.7519 19.6523 44.7924 19.6585 44.8425Z" fill="black"/>
<path opacity="0.6" d="M22.2258 43.9378C22.2312 43.9873 22.2181 44.0322 22.1867 44.0725C22.1552 44.1128 22.1148 44.1363 22.0654 44.1431C22.0153 44.1492 21.9704 44.1369 21.9309 44.106C21.8906 44.0745 21.8678 44.034 21.8624 43.9845C21.857 43.9349 21.87 43.89 21.9015 43.8497C21.933 43.8094 21.9734 43.7859 22.0228 43.7792C22.0721 43.7724 22.117 43.7848 22.1573 43.8163C22.1968 43.8472 22.2196 43.8877 22.2258 43.9378Z" fill="black"/>
<path opacity="0.6" d="M24.4913 42.5141C24.4967 42.5636 24.4837 42.6085 24.4522 42.6488C24.4207 42.6891 24.3803 42.7127 24.3309 42.7194C24.2808 42.7256 24.236 42.7132 24.1964 42.6823C24.1561 42.6508 24.1333 42.6103 24.1279 42.5608C24.1225 42.5113 24.1355 42.4664 24.167 42.4261C24.1985 42.3857 24.2389 42.3622 24.2883 42.3555C24.3376 42.3487 24.3825 42.3611 24.4228 42.3926C24.4623 42.4235 24.4852 42.464 24.4913 42.5141Z" fill="black"/>
<path opacity="0.6" d="M11.3376 21.5587C11.343 21.5091 11.33 21.4642 11.2985 21.4239C11.267 21.3836 11.2266 21.3601 11.1772 21.3534C11.1271 21.3472 11.0823 21.3596 11.0427 21.3905C11.0024 21.422 10.9796 21.4625 10.9742 21.512C10.9688 21.5615 10.9818 21.6064 11.0133 21.6467C11.0448 21.687 11.0852 21.7105 11.1346 21.7173C11.1839 21.724 11.2288 21.7117 11.2691 21.6802C11.3086 21.6493 11.3315 21.6088 11.3376 21.5587Z" fill="black"/>
<path opacity="0.6" d="M13.9222 20.6093C13.9275 20.5597 13.9145 20.5148 13.883 20.4745C13.8515 20.4342 13.8111 20.4107 13.7617 20.4039C13.7116 20.3978 13.6668 20.4102 13.6273 20.4411C13.587 20.4725 13.5641 20.513 13.5587 20.5626C13.5533 20.6121 13.5664 20.657 13.5979 20.6973C13.6293 20.7376 13.6698 20.7611 13.7191 20.7679C13.7685 20.7746 13.8133 20.7623 13.8536 20.7308C13.8931 20.6999 13.916 20.6594 13.9222 20.6093Z" fill="black"/>
<path opacity="0.6" d="M11.383 43.9274C11.3884 43.9769 11.3754 44.0218 11.3439 44.0621C11.3124 44.1024 11.272 44.1259 11.2226 44.1327C11.1725 44.1388 11.1277 44.1265 11.0881 44.0956C11.0478 44.0641 11.025 44.0236 11.0196 43.9741C11.0142 43.9245 11.0272 43.8796 11.0587 43.8393C11.0902 43.799 11.1306 43.7755 11.18 43.7687C11.2294 43.762 11.2742 43.7744 11.3145 43.8059C11.354 43.8368 11.3769 43.8773 11.383 43.9274Z" fill="black"/>
<path opacity="0.6" d="M13.9976 44.8425C14.003 44.8921 13.9899 44.937 13.9584 44.9773C13.927 45.0176 13.8865 45.0411 13.8372 45.0479C13.7871 45.054 13.7422 45.0416 13.7027 45.0107C13.6624 44.9793 13.6395 44.9388 13.6342 44.8892C13.6288 44.8397 13.6418 44.7948 13.6733 44.7545C13.7048 44.7142 13.7452 44.6907 13.7946 44.6839C13.8439 44.6772 13.8887 44.6895 13.929 44.721C13.9686 44.7519 13.9914 44.7924 13.9976 44.8425Z" fill="black"/>
<path opacity="0.6" d="M16.8683 45.1605C16.8737 45.21 16.8606 45.255 16.8291 45.2953C16.7976 45.3356 16.7572 45.3591 16.7079 45.3658C16.6577 45.372 16.6129 45.3596 16.5734 45.3287C16.5331 45.2972 16.5102 45.2567 16.5048 45.2072C16.4994 45.1577 16.5125 45.1128 16.544 45.0725C16.5754 45.0322 16.6159 45.0086 16.6652 45.0019C16.7146 44.9952 16.7594 45.0075 16.7997 45.039C16.8393 45.0699 16.8621 45.1104 16.8683 45.1605Z" fill="black"/>
<path opacity="0.6" d="M4.3141 32.8602C4.2784 32.895 4.23497 32.9123 4.18383 32.9123C4.13268 32.9123 4.08926 32.895 4.05356 32.8602C4.01785 32.8245 4 32.7816 4 32.7314C4 32.6803 4.01785 32.6373 4.05356 32.6026C4.08926 32.5678 4.13268 32.5505 4.18383 32.5505C4.23497 32.5505 4.2784 32.5678 4.3141 32.6026C4.3498 32.6373 4.36766 32.6803 4.36766 32.7314C4.36766 32.7816 4.3498 32.8245 4.3141 32.8602Z" fill="black"/>
<path opacity="0.6" d="M29.2022 32.8602C29.1665 32.895 29.123 32.9123 29.0719 32.9123C29.0207 32.9123 28.9773 32.895 28.9416 32.8602C28.9059 32.8245 28.8881 32.7816 28.8881 32.7314C28.8881 32.6803 28.9059 32.6373 28.9416 32.6026C28.9773 32.5678 29.0207 32.5505 29.0719 32.5505C29.123 32.5505 29.1665 32.5678 29.2022 32.6026C29.2379 32.6373 29.2557 32.6803 29.2557 32.7314C29.2557 32.7816 29.2379 32.8245 29.2022 32.8602Z" fill="black"/>
<path opacity="0.6" d="M9.14823 42.5141C9.15362 42.5636 9.14057 42.6085 9.10908 42.6488C9.0776 42.6891 9.03718 42.7127 8.98782 42.7194C8.9377 42.7256 8.89287 42.7132 8.85333 42.6823C8.81303 42.6508 8.79018 42.6103 8.78479 42.5608C8.7794 42.5113 8.79244 42.4664 8.82393 42.4261C8.85542 42.3857 8.89584 42.3622 8.9452 42.3555C8.99455 42.3487 9.03938 42.3611 9.07968 42.3926C9.11922 42.4235 9.14207 42.464 9.14823 42.5141Z" fill="black"/>
<path opacity="0.6" d="M7.00377 40.414C6.99702 40.4634 6.9735 40.5038 6.9332 40.5353C6.8929 40.5668 6.84798 40.5798 6.79846 40.5744C6.74834 40.5683 6.70784 40.5454 6.67695 40.5059C6.64546 40.4656 6.63309 40.4208 6.63984 40.3714C6.64658 40.3221 6.67011 40.2816 6.71041 40.2501C6.75071 40.2187 6.79562 40.2056 6.84515 40.211C6.89467 40.2164 6.93518 40.2392 6.96666 40.2795C6.99756 40.3191 7.00993 40.3639 7.00377 40.414Z" fill="black"/>
<path opacity="0.6" d="M5.61677 38.2452C5.59991 38.2921 5.56849 38.3267 5.52252 38.3491C5.47656 38.3716 5.42991 38.375 5.38259 38.3594C5.33485 38.343 5.29998 38.3122 5.27799 38.2671C5.25557 38.2211 5.25279 38.1747 5.26965 38.1278C5.28651 38.081 5.31793 38.0463 5.36389 38.0239C5.40986 38.0015 5.4565 37.998 5.50382 38.0136C5.55114 38.0292 5.58601 38.06 5.60843 38.1059C5.63043 38.151 5.63321 38.1974 5.61677 38.2452Z" fill="black"/>
<path opacity="0.6" d="M4.60998 35.4176C4.58228 35.459 4.54342 35.485 4.49339 35.4956C4.44336 35.5063 4.39728 35.4983 4.35513 35.4718C4.31278 35.4443 4.28639 35.406 4.27596 35.3569C4.26533 35.3069 4.27386 35.2611 4.30156 35.2197C4.32926 35.1783 4.36813 35.1523 4.41815 35.1417C4.46818 35.1311 4.51427 35.139 4.55641 35.1656C4.59856 35.1921 4.62495 35.2304 4.63558 35.2804C4.64602 35.3295 4.63748 35.3752 4.60998 35.4176Z" fill="black"/>
<path opacity="0.6" d="M9.1619 22.9169C9.16729 22.8673 9.15424 22.8224 9.12276 22.7821C9.09127 22.7418 9.05085 22.7183 9.00149 22.7116C8.95137 22.7054 8.90655 22.7178 8.867 22.7487C8.8267 22.7802 8.80385 22.8207 8.79846 22.8702C8.79307 22.9197 8.80612 22.9646 8.8376 23.0049C8.86909 23.0452 8.90951 23.0687 8.95887 23.0755C9.00822 23.0822 9.05305 23.0699 9.09336 23.0384C9.1329 23.0075 9.15574 22.967 9.1619 22.9169Z" fill="black"/>
<path opacity="0.6" d="M6.99358 25.0374C6.98683 24.988 6.96331 24.9476 6.923 24.9161C6.8827 24.8846 6.83779 24.8716 6.78827 24.8769C6.73815 24.8831 6.69765 24.9059 6.66675 24.9455C6.63527 24.9858 6.6229 25.0306 6.62964 25.08C6.63639 25.1293 6.65992 25.1698 6.70022 25.2012C6.74052 25.2327 6.78543 25.2458 6.83495 25.2404C6.88448 25.235 6.92498 25.2121 6.95647 25.1718C6.98736 25.1323 6.99973 25.0875 6.99358 25.0374Z" fill="black"/>
<path opacity="0.6" d="M5.61677 27.1645C5.59991 27.1176 5.56849 27.0829 5.52252 27.0605C5.47656 27.0381 5.42991 27.0347 5.38259 27.0503C5.33485 27.0667 5.29998 27.0975 5.27799 27.1426C5.25557 27.1885 5.25279 27.2349 5.26965 27.2818C5.28651 27.3287 5.31793 27.3633 5.36389 27.3858C5.40986 27.4082 5.4565 27.4116 5.50382 27.396C5.55114 27.3805 5.58601 27.3497 5.60843 27.3037C5.63043 27.2586 5.63321 27.2122 5.61677 27.1645Z" fill="black"/>
<path opacity="0.6" d="M4.60998 29.9521C4.58228 29.9107 4.54342 29.8847 4.49339 29.8741C4.44336 29.8634 4.39728 29.8714 4.35513 29.898C4.31278 29.9255 4.28639 29.9637 4.27596 30.0128C4.26533 30.0629 4.27386 30.1086 4.30156 30.15C4.32926 30.1914 4.36813 30.2174 4.41815 30.228C4.46818 30.2387 4.51427 30.2307 4.55641 30.2041C4.59856 30.1776 4.62495 30.1393 4.63558 30.0893C4.64602 30.0402 4.63748 29.9945 4.60998 29.9521Z" fill="black"/>
<path opacity="0.7" d="M7.49184 32.9263C7.43783 32.9788 7.37213 33.0051 7.29476 33.0051C7.21739 33.0051 7.1517 32.9788 7.09768 32.9263C7.04367 32.8723 7.01666 32.8073 7.01666 32.7314C7.01666 32.654 7.04367 32.5891 7.09768 32.5365C7.1517 32.484 7.21739 32.4577 7.29476 32.4577C7.37213 32.4577 7.43783 32.484 7.49184 32.5365C7.54585 32.5891 7.57286 32.654 7.57286 32.7314C7.57286 32.8073 7.54585 32.8723 7.49184 32.9263Z" fill="black"/>
<path opacity="0.7" d="M26.158 32.9263C26.104 32.9788 26.0383 33.0051 25.961 33.0051C25.8836 33.0051 25.8179 32.9788 25.7639 32.9263C25.7099 32.8723 25.6829 32.8073 25.6829 32.7314C25.6829 32.654 25.7099 32.5891 25.7639 32.5365C25.8179 32.484 25.8836 32.4577 25.961 32.4577C26.0383 32.4577 26.104 32.484 26.158 32.5365C26.2121 32.5891 26.2391 32.654 26.2391 32.7314C26.2391 32.8073 26.2121 32.8723 26.158 32.9263Z" fill="black"/>
<path opacity="0.7" d="M11.1568 40.0507C11.1649 40.1256 11.1452 40.1935 11.0975 40.2545C11.0499 40.3155 10.9888 40.3511 10.9141 40.3613C10.8383 40.3706 10.7704 40.3519 10.7106 40.3051C10.6497 40.2575 10.6151 40.1962 10.6069 40.1213C10.5988 40.0464 10.6185 39.9784 10.6661 39.9175C10.7138 39.8565 10.7749 39.8209 10.8496 39.8107C10.9243 39.8005 10.9921 39.8192 11.0531 39.8668C11.1129 39.9136 11.1474 39.9749 11.1568 40.0507Z" fill="black"/>
<path opacity="0.7" d="M13.4481 41.3681C13.4562 41.443 13.4365 41.511 13.3889 41.5719C13.3412 41.6329 13.2801 41.6685 13.2054 41.6787C13.1296 41.688 13.0618 41.6693 13.0019 41.6225C12.941 41.5749 12.9064 41.5136 12.8983 41.4387C12.8901 41.3638 12.9098 41.2959 12.9575 41.2349C13.0051 41.1739 13.0663 41.1383 13.1409 41.1281C13.2156 41.1179 13.2834 41.1366 13.3444 41.1843C13.4042 41.231 13.4388 41.2923 13.4481 41.3681Z" fill="black"/>
<path opacity="0.7" d="M16.222 41.9982C16.2302 42.0731 16.2104 42.141 16.1628 42.202C16.1151 42.263 16.054 42.2985 15.9793 42.3088C15.9035 42.3181 15.8357 42.2993 15.7759 42.2526C15.7149 42.205 15.6803 42.1437 15.6722 42.0688C15.664 41.9939 15.6838 41.9259 15.7314 41.8649C15.779 41.804 15.8402 41.7684 15.9148 41.7582C15.9895 41.748 16.0573 41.7667 16.1183 41.8143C16.1781 41.8611 16.2127 41.9223 16.222 41.9982Z" fill="black"/>
<path opacity="0.7" d="M19.0451 41.7558C19.0532 41.8307 19.0335 41.8986 18.9858 41.9596C18.9382 42.0206 18.8771 42.0561 18.8024 42.0664C18.7266 42.0757 18.6588 42.0569 18.5989 42.0102C18.538 41.9626 18.5034 41.9013 18.4952 41.8264C18.4871 41.7515 18.5068 41.6835 18.5545 41.6225C18.6021 41.5616 18.6632 41.526 18.7379 41.5158C18.8126 41.5056 18.8804 41.5243 18.9414 41.5719C19.0012 41.6187 19.0357 41.6799 19.0451 41.7558Z" fill="black"/>
<path opacity="0.7" d="M9.21519 38.02C9.20499 38.0947 9.1694 38.1558 9.10843 38.2035C9.04746 38.2511 8.97951 38.2709 8.9046 38.2627C8.82878 38.2534 8.7675 38.2188 8.72076 38.159C8.67313 38.098 8.65442 38.0302 8.66462 37.9555C8.67483 37.8809 8.71042 37.8197 8.77139 37.7721C8.83236 37.7245 8.9003 37.7047 8.97522 37.7129C9.05014 37.721 9.11142 37.7556 9.15905 37.8166C9.20579 37.8764 9.2245 37.9442 9.21519 38.02Z" fill="black"/>
<path opacity="0.7" d="M8.02503 35.7124C7.99952 35.7833 7.95199 35.8357 7.88245 35.8696C7.81291 35.9036 7.74235 35.9087 7.67076 35.8852C7.59854 35.8603 7.54579 35.8138 7.51251 35.7455C7.47859 35.676 7.47439 35.6058 7.4999 35.5348C7.5254 35.4639 7.57293 35.4115 7.64247 35.3776C7.71201 35.3437 7.78258 35.3385 7.85416 35.3621C7.92575 35.3856 7.9785 35.4322 8.01242 35.5017C8.04569 35.5699 8.0499 35.6402 8.02503 35.7124Z" fill="black"/>
<path opacity="0.7" d="M11.1568 25.4119C11.1649 25.337 11.1452 25.269 11.0975 25.2081C11.0499 25.1471 10.9888 25.1115 10.9141 25.1013C10.8383 25.092 10.7704 25.1107 10.7106 25.1574C10.6497 25.2051 10.6151 25.2663 10.6069 25.3413C10.5988 25.4162 10.6185 25.4841 10.6661 25.5451C10.7138 25.6061 10.7749 25.6417 10.8496 25.6519C10.9243 25.6621 10.9921 25.6434 11.0531 25.5957C11.1129 25.549 11.1474 25.4877 11.1568 25.4119Z" fill="black"/>
<path opacity="0.7" d="M13.4047 24.125C13.4128 24.0501 13.3931 23.9821 13.3455 23.9211C13.2978 23.8602 13.2367 23.8246 13.162 23.8144C13.0862 23.8051 13.0184 23.8238 12.9586 23.8705C12.8976 23.9182 12.863 23.9794 12.8549 24.0543C12.8467 24.1293 12.8664 24.1972 12.9141 24.2582C12.9617 24.3192 13.0229 24.3547 13.0975 24.3649C13.1722 24.3752 13.24 24.3564 13.301 24.3088C13.3608 24.2621 13.3954 24.2008 13.4047 24.125Z" fill="black"/>
<path opacity="0.7" d="M16.2501 23.452C16.2582 23.3771 16.2385 23.3091 16.1909 23.2482C16.1432 23.1872 16.0821 23.1516 16.0074 23.1414C15.9316 23.1321 15.8638 23.1508 15.804 23.1975C15.743 23.2452 15.7084 23.3065 15.7003 23.3814C15.6921 23.4563 15.7118 23.5242 15.7595 23.5852C15.8071 23.6462 15.8683 23.6818 15.9429 23.692C16.0176 23.7022 16.0854 23.6835 16.1464 23.6358C16.2062 23.5891 16.2408 23.5278 16.2501 23.452Z" fill="black"/>
<path opacity="0.7" d="M19.0128 23.6867C19.0209 23.6118 19.0012 23.5438 18.9536 23.4829C18.9059 23.4219 18.8448 23.3863 18.7701 23.3761C18.6943 23.3668 18.6265 23.3855 18.5666 23.4322C18.5057 23.4799 18.4711 23.5411 18.463 23.6161C18.4548 23.691 18.4745 23.7589 18.5222 23.8199C18.5698 23.8809 18.631 23.9164 18.7056 23.9267C18.7803 23.9369 18.8481 23.9182 18.9091 23.8705C18.9689 23.8238 19.0035 23.7625 19.0128 23.6867Z" fill="black"/>
<path opacity="0.7" d="M9.19884 27.4341C9.18863 27.3594 9.15304 27.2983 9.09207 27.2507C9.0311 27.203 8.96316 27.1833 8.88824 27.1914C8.81242 27.2008 8.75114 27.2353 8.70441 27.2951C8.65677 27.3561 8.63806 27.4239 8.64827 27.4986C8.65848 27.5733 8.69406 27.6344 8.75503 27.682C8.816 27.7297 8.88395 27.7494 8.95887 27.7413C9.03379 27.7331 9.09506 27.6985 9.1427 27.6376C9.18943 27.5777 9.20815 27.5099 9.19884 27.4341Z" fill="black"/>
<path opacity="0.7" d="M8.04139 29.7299C8.01588 29.659 7.96835 29.6066 7.89881 29.5727C7.82927 29.5388 7.75871 29.5336 7.68712 29.5572C7.61489 29.582 7.56214 29.6286 7.52887 29.6968C7.49495 29.7663 7.49074 29.8366 7.51625 29.9075C7.54176 29.9784 7.58929 30.0308 7.65883 30.0647C7.72837 30.0986 7.79893 30.1038 7.87052 30.0803C7.9421 30.0567 7.99486 30.0102 8.02877 29.9406C8.06205 29.8724 8.06625 29.8022 8.04139 29.7299Z" fill="black"/>
<path opacity="0.8" d="M10.6696 32.9923C10.5973 33.0627 10.5093 33.0979 10.4057 33.0979C10.3021 33.0979 10.2141 33.0627 10.1418 32.9923C10.0695 32.92 10.0333 32.833 10.0333 32.7314C10.0333 32.6278 10.0695 32.5408 10.1418 32.4704C10.2141 32.4001 10.3021 32.3649 10.4057 32.3649C10.5093 32.3649 10.5973 32.4001 10.6696 32.4704C10.7419 32.5408 10.7781 32.6278 10.7781 32.7314C10.7781 32.833 10.7419 32.92 10.6696 32.9923Z" fill="black"/>
<path opacity="0.8" d="M23.1139 32.9923C23.0416 33.0627 22.9536 33.0979 22.85 33.0979C22.7464 33.0979 22.6585 33.0627 22.5861 32.9923C22.5138 32.92 22.4777 32.833 22.4777 32.7314C22.4777 32.6278 22.5138 32.5408 22.5861 32.4704C22.6585 32.4001 22.7464 32.3649 22.85 32.3649C22.9536 32.3649 23.0416 32.4001 23.1139 32.4704C23.1862 32.5408 23.2224 32.6278 23.2224 32.7314C23.2224 32.833 23.1862 32.92 23.1139 32.9923Z" fill="black"/>
<path opacity="0.8" d="M13.1652 37.5872C13.1761 37.6876 13.1497 37.7785 13.0859 37.8602C13.0221 37.9418 12.9403 37.9895 12.8403 38.0031C12.7388 38.0156 12.648 37.9905 12.5679 37.928C12.4862 37.8642 12.4399 37.7821 12.429 37.6818C12.4181 37.5815 12.4445 37.4905 12.5083 37.4089C12.5721 37.3273 12.654 37.2796 12.7539 37.2659C12.8539 37.2523 12.9447 37.2773 13.0264 37.3411C13.1065 37.4037 13.1527 37.4857 13.1652 37.5872Z" fill="black"/>
<path opacity="0.8" d="M15.5146 38.7687C15.5256 38.8691 15.4991 38.96 15.4354 39.0417C15.3716 39.1233 15.2897 39.171 15.1897 39.1846C15.0882 39.1971 14.9974 39.172 14.9173 39.1095C14.8357 39.0457 14.7894 38.9636 14.7784 38.8633C14.7675 38.763 14.794 38.672 14.8577 38.5904C14.9215 38.5088 15.0034 38.4611 15.1034 38.4474C15.2034 38.4338 15.2942 38.4588 15.3758 38.5226C15.4559 38.5852 15.5022 38.6672 15.5146 38.7687Z" fill="black"/>
<path opacity="0.8" d="M11.4152 35.6178C11.381 35.7127 11.3174 35.7829 11.2243 35.8283C11.1311 35.8737 11.0367 35.8807 10.9408 35.8491C10.8441 35.8158 10.7735 35.7535 10.7289 35.6621C10.6835 35.569 10.6779 35.475 10.712 35.38C10.7462 35.2851 10.8098 35.2149 10.9029 35.1695C10.996 35.1241 11.0905 35.1171 11.1864 35.1487C11.2822 35.1802 11.3529 35.2425 11.3983 35.3357C11.4428 35.427 11.4485 35.5211 11.4152 35.6178Z" fill="black"/>
<path opacity="0.8" d="M13.1652 27.7825C13.1761 27.6822 13.1497 27.5912 13.0859 27.5095C13.0221 27.4279 12.9403 27.3802 12.8403 27.3666C12.7388 27.3541 12.648 27.3792 12.5679 27.4418C12.4862 27.5055 12.4399 27.5876 12.429 27.6879C12.4181 27.7882 12.4445 27.8792 12.5083 27.9608C12.5721 28.0425 12.654 28.0901 12.7539 28.1038C12.8539 28.1175 12.9447 28.0924 13.0264 28.0286C13.1065 27.966 13.1527 27.884 13.1652 27.7825Z" fill="black"/>
<path opacity="0.8" d="M15.5274 26.7175C15.5383 26.6172 15.5119 26.5262 15.4481 26.4446C15.3843 26.363 15.3024 26.3153 15.2025 26.3016C15.101 26.2892 15.0101 26.3142 14.93 26.3768C14.8484 26.4406 14.8021 26.5226 14.7912 26.623C14.7803 26.7233 14.8067 26.8143 14.8705 26.8959C14.9343 26.9775 15.0162 27.0252 15.1161 27.0388C15.2161 27.0525 15.3069 27.0275 15.3886 26.9637C15.4687 26.9011 15.5149 26.8191 15.5274 26.7175Z" fill="black"/>
<path opacity="0.8" d="M11.4152 29.752C11.381 29.657 11.3174 29.5868 11.2243 29.5414C11.1311 29.496 11.0367 29.4891 10.9408 29.5206C10.8441 29.5539 10.7735 29.6162 10.7289 29.7076C10.6835 29.8007 10.6779 29.8947 10.712 29.9897C10.7462 30.0846 10.8098 30.1548 10.9029 30.2002C10.996 30.2456 11.0905 30.2526 11.1864 30.221C11.2822 30.1895 11.3529 30.1272 11.3983 30.0341C11.4428 29.9427 11.4485 29.8487 11.4152 29.752Z" fill="black"/>
<path opacity="0.9" d="M13.8473 33.0584C13.7567 33.1466 13.6465 33.1907 13.5166 33.1907C13.3868 33.1907 13.2766 33.1466 13.1859 33.0584C13.0953 32.9678 13.05 32.8588 13.05 32.7314C13.05 32.6016 13.0953 32.4926 13.1859 32.4044C13.2766 32.3162 13.3868 32.2721 13.5166 32.2721C13.6465 32.2721 13.7567 32.3162 13.8473 32.4044C13.938 32.4926 13.9833 32.6016 13.9833 32.7314C13.9833 32.8588 13.938 32.9678 13.8473 33.0584Z" fill="black"/>
<path opacity="0.9" d="M20.0698 33.0584C19.9792 33.1466 19.8689 33.1907 19.7391 33.1907C19.6093 33.1907 19.499 33.1466 19.4084 33.0584C19.3178 32.9678 19.2725 32.8588 19.2725 32.7314C19.2725 32.6016 19.3178 32.4926 19.4084 32.4044C19.499 32.3162 19.6093 32.2721 19.7391 32.2721C19.8689 32.2721 19.9792 32.3162 20.0698 32.4044C20.1604 32.4926 20.2057 32.6016 20.2057 32.7314C20.2057 32.8588 20.1604 32.9678 20.0698 33.0584Z" fill="black"/>
<path opacity="0.9" d="M15.1737 35.1238C15.1874 35.2495 15.1542 35.3635 15.0743 35.4659C14.9944 35.5682 14.8918 35.6279 14.7665 35.645C14.6393 35.6606 14.5255 35.6292 14.4251 35.5508C14.3228 35.4709 14.2648 35.3681 14.2511 35.2423C14.2374 35.1166 14.2705 35.0026 14.3505 34.9003C14.4304 34.798 14.533 34.7383 14.6583 34.7212C14.7836 34.704 14.8974 34.7354 14.9997 34.8154C15.1001 34.8938 15.1581 34.9966 15.1737 35.1238Z" fill="black"/>
<path opacity="0.9" d="M15.1737 30.2459C15.1874 30.1202 15.1542 30.0062 15.0743 29.9039C14.9944 29.8016 14.8918 29.7418 14.7665 29.7247C14.6393 29.7091 14.5255 29.7405 14.4251 29.8189C14.3228 29.8989 14.2648 30.0017 14.2511 30.1274C14.2374 30.2531 14.2705 30.3671 14.3505 30.4694C14.4304 30.5717 14.533 30.6314 14.6583 30.6486C14.7836 30.6657 14.8974 30.6343 14.9997 30.5544C15.1001 30.4759 15.1581 30.3731 15.1737 30.2459Z" fill="black"/>
<path d="M17.0941 33.1924C16.9663 33.3168 16.8109 33.3789 16.6278 33.3789C16.4448 33.3789 16.2894 33.3168 16.1616 33.1924C16.0339 33.0647 15.97 32.911 15.97 32.7314C15.97 32.5484 16.0339 32.3947 16.1616 32.2704C16.2894 32.146 16.4448 32.0839 16.6278 32.0839C16.8109 32.0839 16.9663 32.146 17.0941 32.2704C17.2218 32.3947 17.2857 32.5484 17.2857 32.7314C17.2857 32.911 17.2218 33.0647 17.0941 33.1924Z" fill="#FADC20"/>
<path d="M17.225 25.0181H16.0631V31.3947H17.225V25.0181Z" fill="#FADC20"/>
<path d="M17.225 34.0681H16.0632V40.4447H17.225V34.0681Z" fill="#FADC20"/>
</svg>
