<?xml version="1.0" encoding="UTF-8"?>
<svg width="65px" height="65px" viewBox="0 0 65 65" version="1.1" xmlns="http://www.w3.org/2000/svg" xmlns:xlink="http://www.w3.org/1999/xlink">
    <!-- Generator: Sketch 54.1 (76490) - https://sketchapp.com -->
    <title>BO_Brand_header_logo</title>
    <desc>Created with Sketch.</desc>
    <defs>
        <linearGradient x1="77.1205315%" y1="80.0789317%" x2="13.9751317%" y2="4.58337871%" id="linearGradient-1">
            <stop stop-color="#9545D1" offset="0%"></stop>
            <stop stop-color="#7040C5" offset="40.3161951%"></stop>
            <stop stop-color="#3F43D0" offset="100%"></stop>
        </linearGradient>
    </defs>
    <g id="BO_Brand_header_logo" stroke="none" stroke-width="1" fill="none" fill-rule="evenodd">
        <g id="Group-7" transform="translate(8.000000, 0.000000)">
            <path d="M10.0919257,20.4180649 L9.05293071,19.0179935 C4.53386727,11.7159749 4.15598007,10.281908 2.63663977,6.09966877 C4.89967766,6.71823224 5.10420424,8.73178721 6.84716026,8.74233757 C8.11912079,7.03122613 11.3370056,7.6505711 11.9357815,8.70130841 C10.0377749,8.51296501 8.37857736,9.90365823 8.3887063,11.692139 C8.39805608,13.343465 9.83948149,14.6747637 11.6097077,14.6646041 C12.9556874,14.656789 14.1033737,13.8760626 14.5704734,12.7768718 C14.0807784,12.7280276 13.6982163,12.3427442 13.6954892,11.8703227 C13.6927622,11.3658594 14.1302543,10.9528325 14.6713732,10.9497065 C15.2152191,10.9465805 15.6569965,11.3549183 15.6601131,11.8589909 C15.6624506,12.2587321 15.390138,12.6006418 15.010303,12.7272461 C15.6756961,13.6470808 16.8062411,14.2480604 18.0848244,14.2406361 C20.1230778,14.2289134 21.7643549,12.6799649 21.7534468,10.7797285 C21.7518885,10.5261292 21.7300724,10.2729207 21.6883879,10.0232289 C21.2645309,9.22022962 20.9688439,8.6063552 20.7974312,8.06633328 C20.2742327,7.4962233 19.5500138,7.19104449 18.6672382,7.39032899 C17.5838317,7.58844123 17.3991734,7.92527111 16.9332424,8.12729089 C16.6172975,5.84802324 18.5480284,5.14427543 21.1675269,5.0723767 C21.6747528,3.95872802 22.5411664,2.45159013 23.758976,0 C25.0063934,2.43752299 25.8883899,3.93489203 26.4104196,5.0426794 C29.029139,5.08449007 30.9668822,5.76635567 30.6770388,8.04914011 C30.2095495,7.85259088 30.0213851,7.51771477 28.9356411,7.33210665 C28.0524759,7.14298175 27.3321527,7.4563664 26.8136292,8.03233769 C26.6488392,8.57470414 26.3582167,9.19287684 25.9444886,9.99939295 C25.9063103,10.2494755 25.8868316,10.5030748 25.8880003,10.7566741 C25.8989084,12.6573011 27.5573268,14.1871028 29.5955802,14.1753801 C30.8741635,14.1679558 31.996917,13.5540814 32.6525708,12.6268223 C32.2711774,12.5045164 31.9953587,12.165342 31.9930213,11.7659914 C31.9902943,11.2615281 32.4277863,10.8485012 32.970074,10.8453752 C33.5123616,10.8422492 33.954139,11.250587 33.9572556,11.7546596 C33.9599826,12.2270811 33.5817058,12.6166627 33.0916212,12.6709775 C33.5727456,13.7646978 34.7301713,14.5325292 36.0745926,14.5247142 C37.8448189,14.5145546 39.2714404,13.1668443 39.2620907,11.5155182 C39.2519617,9.72703746 37.5771812,8.35549118 35.6807329,8.56532604 C36.267432,7.50794592 39.4783045,6.85187008 40.7697437,8.54813287 C42.5126997,8.51765406 42.6950206,6.50175456 44.9514357,5.85740134 C44.1808575,10.0525355 43.1103069,13.5990181 41.6486236,17.4362217 L40.4631486,20.2441794 C36.2802879,17.1122866 30.11761,15.9814448 24.9089998,16.0111421 C19.5913087,16.0420116 15.083543,17.7390559 10.0919257,20.4180649 Z" id="Path" fill="#5997DB"></path>
            <path d="M24.9919791,14.7923806 C31.8940694,14.7923806 38.1416746,17.5995568 42.6642442,22.1354284 C47.1868138,26.6712999 49.985127,32.9386021 49.985127,39.8604172 C49.985127,46.7826229 47.1868138,53.0495344 42.6642442,57.5857967 C38.141285,62.1224498 31.8936798,64.9288445 24.9919791,64.9288445 C18.0910576,64.9288445 11.8430628,62.1224498 7.32010362,57.585406 C2.79753401,53.0491436 -9.09494702e-13,46.7830137 -9.09494702e-13,39.8600264 C-9.09494702e-13,32.9386021 2.79753401,26.6712999 7.32010362,22.1350376 C11.8426732,17.5983845 18.0910576,14.7923806 24.9919791,14.7923806 L24.9919791,14.7923806 Z M41.7612106,23.0404144 C37.4696587,18.7358692 31.5411149,16.0736627 24.9915895,16.0736627 C18.4428433,16.0736627 12.5142996,18.7358692 8.22313716,23.0404144 C3.93119562,27.3449597 1.27741457,33.2914529 1.27741457,39.8604172 C1.27741457,46.4293814 3.93119562,52.3754839 8.22313716,56.6808106 C12.5142996,60.9853559 18.4432329,63.6471716 24.9915895,63.6471716 C31.5411149,63.6471716 37.4696587,60.9853559 41.7612106,56.6808106 C46.0531522,52.3754839 48.7069332,46.4293814 48.7069332,39.8604172 C48.7073228,33.2914529 46.0535418,27.3449597 41.7612106,23.0404144 Z" id="Shape" fill="#5997DB" fill-rule="nonzero"></path>
            <path d="M6.8526143,34.7032469 C7.7836972,33.9619867 8.71516967,33.2207265 9.64625257,32.4794663 C10.1125732,31.036412 10.3790421,30.8722954 11.6194471,30.2720973 C11.5403635,30.5960323 11.4612799,30.9199673 11.3821963,31.2439024 C11.3821963,31.2439024 12.7281759,30.166203 14.9674498,29.566005 C17.2067236,28.9654162 20.1113906,28.898988 20.1113906,28.898988 L18.9586399,29.8328899 C18.9586399,29.8328899 19.6902606,30.0220148 20.6766631,30.5225706 C21.6634551,31.0227356 21.7740943,31.1450416 21.7740943,31.1450416 L21.2750494,30.010683 C21.2750494,30.010683 22.6498576,28.6430442 24.4680015,28.3316133 C26.2861454,28.0201825 27.4166904,28.3984323 27.4166904,28.3984323 C27.4166904,28.3984323 27.7271812,30.0888337 26.7072754,31.4232584 C25.6873695,32.7576831 24.7118751,33.1800881 24.7118751,33.1800881 C24.7118751,33.1800881 24.612144,33.6138249 24.4457958,33.9920747 C24.2794475,34.3703245 23.9802543,34.6813646 23.9802543,34.6813646 C23.9802543,34.6813646 24.1356945,33.9029828 24.1575107,33.4137589 C24.1797164,32.924535 24.1353049,32.6353771 24.1353049,32.6353771 C24.1353049,32.6353771 25.0776855,32.2125813 25.8759235,31.3673806 C26.6741615,30.5225706 26.4746994,28.7876232 26.4746994,28.7876232 C26.4746994,28.7876232 25.499205,28.7321361 24.4570934,29.1099952 C23.4149818,29.4878542 22.9163265,29.843831 22.9163265,29.843831 C22.9163265,29.843831 23.2268174,30.1775349 23.4040737,30.7890648 C23.5817197,31.4005947 23.5151024,31.7788445 23.5151024,31.7788445 C23.5151024,31.7788445 23.0382633,31.7342985 22.6946587,31.7565715 C22.351054,31.7788445 21.9517402,31.9343645 21.9517402,31.9343645 C21.9517402,31.9343645 22.5949276,32.6459274 22.8388012,33.8135002 C23.0826748,34.9810729 22.9054184,35.8481559 22.9054184,35.8481559 C22.9054184,35.8481559 22.2069115,34.769675 21.5306103,34.2359052 C20.854309,33.7021353 20.1558021,33.6021023 20.1558021,33.6021023 C20.1558021,33.6021023 21.0981826,34.5360042 21.4304896,35.4925698 C21.7631862,36.4487446 21.7740943,36.8047215 21.7740943,36.8047215 C21.7740943,36.8047215 21.0424735,35.9040337 20.4436976,35.5371157 C19.8449217,35.1701978 19.1133009,35.0701648 19.1133009,35.0701648 C19.1133009,35.0701648 20.4327895,36.0822175 21.0093597,37.9945672 C21.5855403,39.9073076 21.5637241,42.1088152 21.5637241,42.1088152 C21.5637241,42.1088152 20.056071,40.5965976 18.9029307,39.7513968 C17.7497904,38.9061961 16.1759097,38.6170382 16.1759097,38.6170382 C16.1759097,38.6170382 16.2312292,38.6502523 16.5530177,39.373147 C16.8744166,40.0960418 16.8413028,40.4184138 16.8413028,40.4184138 C16.8413028,40.4184138 16.3204418,39.5286671 15.8326946,39.2285681 C15.3449474,38.928469 15.0453647,38.8171042 15.0453647,38.8171042 C15.0453647,38.8171042 15.1174359,38.2380069 15.0410793,37.5229272 C17.3325562,37.8070053 19.6672757,39.0202962 19.6672757,39.0202962 C19.6672757,39.0202962 17.6048687,37.2185299 14.9627749,37.0192454 C14.9152468,36.7890913 14.8490191,36.556202 14.7586379,36.3323 C16.8993494,36.5151728 18.9866892,37.3658441 18.9866892,37.3658441 C18.9866892,37.3658441 16.9690832,35.9079412 14.4843775,35.811425 C14.4049043,35.6938081 14.3153022,35.5828339 14.2140128,35.4812379 C13.105284,34.3691522 10.3560572,34.9474681 10.3560572,34.9474681 L10.2341204,34.614155 C10.2341204,34.614155 8.89281561,34.5086514 8.37156502,34.514122 C7.85109358,34.5195925 6.8526143,34.7032469 6.8526143,34.7032469 L6.8526143,34.7032469 Z M12.7344091,44.7901687 C12.7344091,44.7901687 12.6790895,44.7792276 12.6124723,45.5908235 C12.5458551,46.4024194 12.6015642,46.8470973 12.6015642,46.8470973 C12.6015642,46.8470973 12.9120551,46.8580385 13.3222769,46.8693703 C13.7324988,46.8807022 14.0648058,46.8025514 14.0648058,46.8025514 C14.0648058,46.8025514 13.3662988,46.2355674 13.1224252,45.7017976 C12.8781621,45.1684185 12.7344091,44.7901687 12.7344091,44.7901687 L12.7344091,44.7901687 Z M9.84103979,45.3348797 C9.84103979,45.3348797 9.87415361,45.8018306 9.98518233,46.2801134 C10.096211,46.7583962 10.1515306,47.0030082 10.1515306,47.0030082 L11.4266077,46.9916763 C11.4266077,46.9916763 10.6836893,46.4801794 10.4067019,46.1023204 C10.1289353,45.7240706 9.84103979,45.3348797 9.84103979,45.3348797 L9.84103979,45.3348797 Z M11.7702124,56.2380864 C11.7702124,56.2380864 10.9941801,54.8145699 11.3712882,53.3027429 C11.7480066,51.7905252 12.9677642,50.3447357 12.9677642,50.3447357 C12.9677642,50.3447357 12.6128619,51.4568214 12.5910457,52.1461113 C12.56884,52.8354012 12.5910457,53.3914441 12.3249664,54.4144379 C12.0584975,55.4374316 11.7702124,56.2380864 11.7702124,56.2380864 L11.7702124,56.2380864 Z M12.4219704,43.9133169 L12.7433693,43.424093 C12.7433693,43.424093 12.8431004,43.6464319 13.2533223,44.2802348 C13.6635441,44.9140377 13.8408005,45.1477085 13.8408005,45.1477085 C13.8408005,45.1477085 14.7056558,44.9140377 14.8162949,43.5131849 C14.926934,42.112332 15.8026974,41.4562562 15.8026974,41.4562562 C15.8026974,41.4562562 15.3149502,40.9779734 14.7496777,41.1116112 C14.1844052,41.2452491 13.8517086,41.8009012 13.6631546,42.334671 C13.4749901,42.8684409 13.3970752,43.5354578 13.3970752,43.5354578 C13.3970752,43.5354578 13.3191603,42.7238619 13.419281,42.212365 C13.519012,41.7008681 13.5747212,41.6453811 13.5747212,41.6453811 C13.5747212,41.6453811 13.3748695,41.5117432 13.086974,41.689927 C12.7986889,41.8677201 12.3109417,42.8688316 12.3331474,43.2689636 C12.3557428,43.6687049 12.4219704,43.9133169 12.4219704,43.9133169 L12.4219704,43.9133169 Z M7.19505023,40.3769938 L8.38675842,41.9892445 L8.28157333,40.2101419 C8.28157333,40.2101419 8.19275036,40.2937633 7.86044336,40.343389 C7.5277468,40.3937963 7.19505023,40.3769938 7.19505023,40.3769938 L7.19505023,40.3769938 Z M10.5761667,40.3769938 C10.5761667,40.3769938 10.7534231,41.4554747 11.1414393,42.1338235 C11.5294554,42.8121723 11.7511232,43.0567843 11.7511232,43.0567843 C11.7511232,43.0567843 11.7620313,41.8446656 11.8508543,41.2776816 C11.9396773,40.7106977 12.105636,40.4102079 12.105636,40.4102079 L10.5761667,40.3769938 L10.5761667,40.3769938 Z M17.0559583,41.1889805 C17.0559583,41.1889805 16.6675526,43.6687049 16.091372,45.1363767 C15.5148019,46.6040484 14.5615132,47.4937951 14.5615132,47.4937951 C14.5615132,47.4937951 12.9428314,47.983019 11.9451313,47.960746 C10.9474312,47.9384731 9.84610426,47.8583685 9.59482875,47.9384731 C8.84645626,48.1776145 8.97423667,49.9289735 8.97423667,49.9289735 C9.65482321,49.5003165 9.68404129,49.3639434 10.548507,49.3506577 C10.548507,49.3506577 10.1382851,49.8289405 9.90531957,50.7964473 C9.67235406,51.7635632 10.0494621,52.6423688 10.0494621,52.6423688 C10.0494621,52.6423688 10.3155414,51.9308059 10.7144657,51.463855 C11.1137795,50.996904 11.867606,50.3072233 12.5992268,49.8625454 C13.3308476,49.4178674 13.885212,48.3948736 13.885212,48.3948736 C13.9194945,48.9974162 13.3417557,49.5815933 13.6857499,50.3740423 C14.6530632,46.8220891 17.7868,48.0463211 17.0559583,41.1889805 L17.0559583,41.1889805 Z M18.1424814,42.2565202 C21.7300724,49.1841966 15.4657155,49.6128536 13.7967786,55.8223242 C13.7967786,55.8223242 13.1095693,53.2535079 13.9296235,51.8526551 C16.5417201,47.3918083 18.3945361,49.4639764 18.1424814,42.2565202 L18.1424814,42.2565202 Z M22.6206395,37.475646 C22.6206395,37.475646 22.8871084,39.0988378 22.8871084,40.6333284 C22.8871084,42.1678191 22.1332819,44.2587433 22.1332819,44.2587433 C22.1332819,44.2587433 21.7787692,43.7027005 21.0467588,43.1912036 C20.315138,42.6797067 19.0291528,42.0126898 19.0291528,42.0126898 C24.9674359,50.1173169 9.89207404,53.8947351 16.2133088,59.9596268 C16.2133088,59.9596268 16.1466916,57.1352574 17.0781641,55.4452467 C18.009247,53.755236 19.8940081,51.9534696 20.7806795,50.8195017 C21.6673509,49.6851431 24.77148,46.8834375 24.77148,46.8834375 C24.77148,46.8834375 25.3258444,43.5475712 24.7048628,41.2569717 C24.0838811,38.9659814 22.6206395,37.475646 22.6206395,37.475646 L22.6206395,37.475646 Z M26.1236928,33.4950357 C26.1236928,33.4950357 26.0683733,34.5289706 25.8798193,35.5965103 C25.6912652,36.66405 25.2701353,37.7093168 25.2701353,37.7093168 C25.2701353,37.7093168 25.1591065,37.5760697 24.7379766,37.3646718 C24.316457,37.153274 23.6845673,36.9645398 23.6845673,36.9645398 C23.6845673,36.9645398 25.1922204,38.7881884 25.6355561,40.7009289 C26.0788918,42.6132786 25.7906067,45.593168 25.7906067,45.593168 C25.7906067,45.593168 26.1895309,45.170763 26.4556103,44.5479012 C26.7216896,43.9250395 27.4977219,42.2350288 27.4311047,39.5884524 C27.3652666,36.9422668 26.1236928,33.4950357 26.1236928,33.4950357 L26.1236928,33.4950357 Z M28.1973976,29.6046896 L27.9091125,30.6499564 C27.9091125,30.6499564 28.9290184,31.0059332 29.7494621,31.728828 C30.5699059,32.4517227 31.3568462,33.4747165 31.3568462,33.4747165 C31.3568462,33.4747165 29.6497311,32.3071438 28.840585,32.0293177 C28.0310493,31.7511009 27.4770744,31.7292187 27.4770744,31.7292187 C31.8079734,35.4828009 32.1531364,38.576009 31.567606,44.0829041 C31.4164511,40.9533559 31.0911565,34.7255198 27.2219032,33.8971215 C27.2219032,33.8971215 29.1728919,39.0566363 28.2196033,42.8149076 C27.2663147,46.5731788 22.2552187,50.375996 21.0358507,51.8436678 C19.8164828,53.3113395 18.3754469,55.3796001 17.7544653,57.0700015 C17.1338732,58.7600123 17.0450502,59.627486 17.0450502,59.627486 C17.0450502,59.627486 19.5726092,57.1587027 21.3463416,56.0470078 C23.120074,54.9349221 27.6430331,52.7556874 29.084069,51.1543779 C30.5254944,49.5530683 31.3011371,46.7509719 31.3011371,46.7509719 C31.3011371,46.7509719 31.4121658,49.4198212 30.4584876,50.9761941 C29.5051989,52.5329577 28.0197516,53.2667936 26.2900411,54.1565403 C24.5607202,55.0458962 23.3187569,55.7797321 22.7203706,56.1357089 C22.1215947,56.491295 21.8114934,56.9586367 21.8114934,56.9586367 C21.8114934,56.9586367 28.4186758,56.1802548 31.3011371,54.2010862 C34.1835983,52.2219176 35.0040421,50.420542 35.5802227,49.0196892 C36.1567928,47.6184456 36.4672837,44.6608291 36.3340492,43.5264705 C36.2012043,42.3921118 35.2697318,40.2128772 35.2697318,40.2128772 C35.2697318,40.2128772 36.2580822,41.2393878 36.8175111,42.534737 C37.3862897,42.6418036 38.7225301,42.8684409 39.6598461,42.8258487 C40.8792141,42.7703616 42.0432625,42.4589308 42.0432625,42.4589308 C42.0432625,42.4589308 40.302644,43.3818915 38.7731747,43.3705597 C37.9492248,43.3646984 37.3987561,43.2939719 37.0660596,43.230279 C37.476671,44.621363 37.3765504,45.5279121 37.3765504,45.5279121 C37.3765504,45.5279121 40.0369542,45.1496623 42.3872568,43.8597836 C44.7375593,42.5699049 46.2008009,40.1460583 46.2008009,40.1460583 C46.2008009,40.1460583 42.8972097,40.3015783 40.7023473,38.8116336 C38.507485,37.3216889 37.199294,35.1420635 35.4473778,33.5407539 C33.6958511,31.9394443 32.1659923,30.6941116 30.5695163,30.2717066 C28.9730403,29.8485201 28.1973976,29.6046896 28.1973976,29.6046896 L28.1973976,29.6046896 Z M19.422623,27.9920482 L19.3509413,28.1034131 C19.3509413,28.1034131 20.0050368,28.047926 20.5036921,28.0365941 C21.0023473,28.025653 21.6677405,28.1534296 21.6677405,28.1534296 L20.9306656,29.0377057 C20.9306656,29.0377057 23.4582246,27.6810081 24.9436719,27.5364291 C26.4291192,27.3918502 28.2916746,27.7251633 28.2916746,27.7251633 C28.2916746,27.7251633 28.3582918,27.8810741 28.3469941,28.2589331 C28.3356965,28.6367922 28.2468735,28.9259501 28.2468735,28.9259501 C28.2468735,28.9259501 29.6657036,29.015042 32.0604177,29.9934898 C32.8937174,30.3342272 33.783895,30.9281732 34.5899245,31.5576778 C36.1443265,31.8198736 38.3247746,31.180991 39.4042853,30.6335447 C38.4373616,31.5017999 37.0122983,32.1660816 35.4255616,32.2450139 C36.523772,33.1922014 37.3149976,34.0409189 37.3149976,34.0409189 C37.3149976,34.0409189 40.396921,32.6174024 41.5278556,31.1720036 C42.6587901,29.7262141 43.2349707,27.7915914 43.2349707,27.7915914 C43.2349707,27.7915914 41.5500613,28.3253613 39.6208887,28.2808153 C37.6917161,28.2362694 34.9646951,27.9025655 32.6810097,26.7908706 C30.3973244,25.6787849 28.1798667,24.6335182 25.2089721,24.9672221 C22.238467,25.3009259 19.422623,27.9920482 19.422623,27.9920482 L19.422623,27.9920482 Z M12.5910457,29.5265389 C12.5910457,29.5265389 13.2112482,29.2983386 14.4310058,28.8825764 C15.1314606,26.8686307 16.8140326,25.90425 18.6524343,25.0711626 C16.7579339,26.5712669 16.2175941,27.2847836 15.5712901,28.5586414 C16.7598817,28.2831599 18.0454774,28.1252953 18.0454774,28.1252953 C18.0454774,28.1252953 20.684065,25.7901498 21.9700502,25.1008599 C23.2560354,24.41157 25.1848185,23.9665012 27.5129153,24.0555931 C29.8410121,24.144685 33.9428413,26.4126208 33.9428413,26.4126208 C33.9428413,26.4126208 34.9183357,26.0124888 35.5615231,25.1450151 C36.2043209,24.2775414 36.403783,23.4327314 36.403783,23.4327314 C36.403783,23.4327314 34.6966679,23.9442283 32.8119067,23.7441623 C30.9275352,23.5440963 28.5106154,23.0325994 26.7590888,22.4542836 C25.0075621,21.8759677 22.701671,21.8759677 21.105195,22.1873986 C17.4307289,22.9040413 13.2252729,25.6037602 12.5910457,29.5265389 L12.5910457,29.5265389 Z M11.8485168,29.4038421 C12.1087526,27.5755045 13.5073248,24.8734411 15.384684,24.1110802 C15.384684,24.1110802 14.0098758,24.0442613 12.480017,25.1786199 C11.4246599,25.9613 8.86359753,28.5594229 9.74169831,30.7828127 C10.2956732,29.866104 10.8948386,29.7074579 11.8485168,29.4038421 L11.8485168,29.4038421 Z M14.9078449,32.2954212 C14.9078449,32.2954212 15.0628955,32.5400331 15.7391967,32.4732142 C16.4154979,32.4063953 16.8253302,31.7503194 16.8253302,31.7503194 C16.8253302,31.7503194 16.4817256,31.7835335 15.8498359,31.9394443 C15.2179461,32.0953552 14.9078449,32.2954212 14.9078449,32.2954212 L14.9078449,32.2954212 Z M7.67968083,37.699548 C7.67968083,37.699548 6.46031285,36.0204783 6.01697714,36.1986621 C5.71973185,36.3178421 5.54715037,36.7769779 5.57909548,37.354903 C5.90400055,37.3638903 6.16774245,37.381865 6.16774245,37.381865 C6.16774245,37.381865 5.94062055,37.5201919 5.60402824,37.5999057 C5.62350696,37.732762 5.65350419,37.8695259 5.69479908,38.0082436 C6.00528991,37.978937 6.25422797,37.9644791 6.25422797,37.9644791 C6.25422797,37.9644791 6.06684267,38.1133564 5.77037652,38.2321456 L5.78362205,38.2665319 C5.84283737,38.4165814 5.91062332,38.552173 5.98503204,38.6733067 C6.26007159,38.6096138 6.47355838,38.5681939 6.47355838,38.5681939 C6.47355838,38.5681939 6.33798647,38.7096468 6.10657926,38.8534443 C6.49108923,39.370021 6.97533025,39.5575829 7.20284172,39.4563776 C7.50203488,39.3227398 7.92355442,38.8557888 7.92355442,38.8557888 C7.92355442,38.8557888 9.46432131,39.5009235 11.493225,39.5454695 C12.1683575,39.5603181 12.7059702,39.3571261 13.110738,39.0464767 C11.7246322,38.5881224 10.6661584,38.4896524 10.6661584,38.4896524 C10.6661584,38.4896524 11.7947556,38.3001367 13.4442137,38.7362181 C13.790935,38.3458549 13.9884492,37.8714797 14.0422105,37.4479024 C12.0803136,37.3838188 10.5718814,37.8023162 10.5718814,37.8023162 C10.5718814,37.8023162 11.8687747,37.0430814 14.0418209,36.9958001 C14.0301337,36.9176493 14.0122133,36.8441876 13.9880596,36.7765872 C13.9261173,36.6046555 13.8291133,36.4448371 13.7005537,36.2998674 C11.559063,36.340115 10.2664551,36.9067082 10.2664551,36.9067082 C10.2664551,36.9067082 11.1153378,36.1158223 13.1496955,35.8739456 C12.5548153,35.5543089 11.7024264,35.4187173 10.6844684,35.5758004 C8.95475795,35.8426853 7.67968083,37.699548 7.67968083,37.699548 L7.67968083,37.699548 Z M13.9985782,34.4973195 L13.9985782,34.4973195 C13.9985782,34.4973195 13.9097552,34.1745568 13.6327678,33.9076719 C13.3557803,33.6407869 13.000878,33.496208 13.000878,33.496208 L14.3865943,32.873737 C14.3865943,32.873737 15.3289748,32.829191 16.5814567,33.073803 C17.8339385,33.3184149 19.4526202,34.1081286 19.4526202,34.1081286 C19.4526202,34.1081286 19.197449,33.6189047 18.6543822,33.1628949 C18.1109259,32.706885 17.3352832,32.2731482 17.3352832,32.2731482 C17.3352832,32.2731482 17.6901855,31.7839243 18.0891097,31.4724934 C18.4884235,31.1610625 18.9317592,30.9164506 18.9317592,30.9164506 C18.9317592,30.9164506 17.9118533,30.8609635 16.8253302,31.0942436 C15.7388072,31.3279144 14.3752966,32.0726914 14.3752966,32.0726914 L14.3975024,31.7503194 C14.3975024,31.7503194 14.2089483,31.7948654 13.4995333,32.3950634 C12.7901183,32.9956522 12.0916113,33.8076389 12.0916113,33.8076389 C12.0916113,33.8076389 12.4130102,33.6853329 12.9120551,33.8521848 C13.4110999,34.0190367 13.9985782,34.4973195 13.9985782,34.4973195 Z" id="Shape" fill="url(#linearGradient-1)"></path>
        </g>
    </g>
</svg>