<svg id="Слой_1" data-name="Слой 1" xmlns="http://www.w3.org/2000/svg" viewBox="0 0 65 65"><defs><style>.cls-1{fill:#2438ff;}.cls-2{fill:#455aff;}.cls-3{fill:#d2d7ff;}</style></defs><polygon class="cls-1" points="19.15 29.22 32.96 17 32.96 23.37 19.15 35.59 19.15 29.22"/><polygon class="cls-2" points="27.65 29.22 41.46 17 41.46 23.37 27.65 35.59 27.65 29.22"/><polygon class="cls-3" points="36.15 29.22 49.96 17 49.96 23.37 36.15 35.59 36.15 29.22"/><path class="cls-1" d="M.23,40.65H1.78v6.69H.23Z"/><path class="cls-1" d="M9.39,40.65v6.69H8.12L4.78,43.28v4.06H3.25V40.65H4.53l3.33,4.06V40.65Z"/><path class="cls-1" d="M17.26,40.65l-2.9,6.69H12.83L9.94,40.65h1.68l2,4.78,2.07-4.78Z"/><path class="cls-1" d="M22.88,46.1v1.24H17.7V40.65h5.06v1.24H19.24v1.45h3.1v1.21h-3.1V46.1Z"/><path class="cls-1" d="M23.47,46.68,24,45.52a3.92,3.92,0,0,0,2.21.69c.91,0,1.29-.3,1.29-.71,0-1.26-3.89-.4-3.89-2.88,0-1.14.91-2.09,2.82-2.09a4.41,4.41,0,0,1,2.32.6l-.48,1.17a3.8,3.8,0,0,0-1.85-.52c-.92,0-1.27.34-1.27.76,0,1.24,3.89.38,3.89,2.84,0,1.12-.93,2.08-2.84,2.08A4.78,4.78,0,0,1,23.47,46.68Z"/><path class="cls-1" d="M31.27,41.91H29.13V40.65H35v1.26H32.82v5.43H31.27Z"/><path class="cls-1" d="M37.23,41.89v1.77h3.1V44.9h-3.1v2.44H35.68V40.65h5.06v1.24Z"/><path class="cls-1" d="M41.68,40.65h1.54v5.43h3.36v1.26h-4.9Z"/><path class="cls-1" d="M46.8,44a3.67,3.67,0,1,1,3.66,3.46A3.47,3.47,0,0,1,46.8,44Zm5.76,0a2.1,2.1,0,1,0-2.1,2.14A2,2,0,0,0,52.56,44Z"/><path class="cls-1" d="M65.07,40.65l-2.19,6.69H61.22l-1.48-4.53-1.52,4.53H56.57l-2.2-6.69H56l1.51,4.7,1.58-4.7H60.5L62,45.39l1.56-4.74Z"/></svg>