<svg xmlns="http://www.w3.org/2000/svg" width="65" height="65"><path d="M15.981 37.508l.433-6.129h1.893l-.433 6.129h-1.893zM18.595 37.508l.433-6.129h1.893l1.037 2.884h.018l.207-2.884h1.803l-.433 6.129H21.66l-1.073-2.614h-.009l-.18 2.614h-1.803zM28.347 37.553h-2.731l-1.181-6.174h2.073l.604 4.011h.018l1.181-4.011h2.073l-2.037 6.174zM34.954 33.001H32.61l-.045.586h1.929l-.108 1.622h-1.929l-.045.676h2.344l-.117 1.622h-4.236l.433-6.129h4.236l-.118 1.623zM37.874 35.732c0-.06-.02-.111-.059-.153a.54.54 0 00-.189-.117 4.275 4.275 0 00-.329-.117 12.192 12.192 0 01-.469-.162c-.433-.156-.774-.391-1.023-.703-.249-.312-.374-.703-.374-1.172 0-.318.059-.602.176-.852a1.82 1.82 0 01.491-.635c.21-.174.463-.306.757-.397a3.35 3.35 0 01.982-.135c.318 0 .64.015.964.045.324.03.652.096.982.198l-.09 1.379h-1.938c-.144 0-.236.027-.275.081a.266.266 0 00-.059.153c0 .048.01.089.032.122a.36.36 0 00.126.104c.063.036.152.075.266.117.114.042.267.09.46.144.493.15.876.371 1.149.662.273.292.41.681.41 1.167 0 .306-.056.589-.167.847a1.97 1.97 0 01-.478.676 2.21 2.21 0 01-.757.451 2.955 2.955 0 01-1.014.162c-.156 0-.334-.003-.532-.009a10.803 10.803 0 01-.608-.036 8.143 8.143 0 01-.613-.077 4.93 4.93 0 01-.554-.122l.099-1.379h2.253c.144 0 .243-.023.297-.068s.084-.102.084-.174zM43.607 33.001l-.315 4.507h-1.893l.315-4.507h-1.352l.117-1.622h4.597l-.117 1.622h-1.352z"/><g><linearGradient id="a" gradientUnits="userSpaceOnUse" x1="47.21" y1="37.15" x2="47.65" y2="30.06"><stop offset="0" stop-color="#93630f"/><stop offset="1" stop-color="#fef7a2"/></linearGradient><path fill="url(#a)" d="M49.595 33.001h-2.344l-.063.946h2.019l-.117 1.622h-2.019l-.135 1.938h-1.893l.433-6.129h4.236l-.117 1.623z"/><linearGradient id="b" gradientUnits="userSpaceOnUse" x1="51.969" y1="37.444" x2="52.408" y2="30.355"><stop offset="0" stop-color="#93630f"/><stop offset="1" stop-color="#fef7a2"/></linearGradient><path fill="url(#b)" d="M54.373 33.001h-2.344l-.045.586h1.929l-.108 1.622h-1.929l-.045.676h2.344l-.117 1.622h-4.236l.433-6.129h4.236l-.118 1.623z"/><linearGradient id="c" gradientUnits="userSpaceOnUse" x1="56.818" y1="37.745" x2="57.257" y2="30.655"><stop offset="0" stop-color="#93630f"/><stop offset="1" stop-color="#fef7a2"/></linearGradient><path fill="url(#c)" d="M59.24 33.001h-2.344l-.045.586h1.929l-.108 1.622h-1.929l-.045.676h2.344l-.117 1.622h-4.236l.433-6.129h4.236l-.118 1.623z"/><linearGradient id="d" gradientUnits="userSpaceOnUse" x1="62.062" y1="38.07" x2="62.501" y2="30.98"><stop offset="0" stop-color="#93630f"/><stop offset="1" stop-color="#fef7a2"/></linearGradient><path fill="url(#d)" d="M59.555 37.508l.433-6.129h2.389c.493 0 .898.077 1.217.23.318.153.569.355.753.604.183.249.311.533.383.852.072.319.108.646.108.982 0 .264-.014.533-.041.807a4.555 4.555 0 01-.149.793 3.177 3.177 0 01-.306.726 2.041 2.041 0 01-.523.595 2.47 2.47 0 01-.784.397c-.306.096-.67.144-1.091.144h-2.389zm2.236-1.623c.216 0 .392-.041.527-.122a.843.843 0 00.32-.352c.078-.153.132-.339.162-.559a5.45 5.45 0 00.045-.735c0-.144-.011-.284-.032-.419a.999.999 0 00-.126-.361.67.67 0 00-.261-.248.919.919 0 00-.437-.09h-.225l-.198 2.884h.225z"/></g><g><linearGradient id="e" gradientUnits="userSpaceOnUse" x1="-3.13" y1="36.86" x2="12.002" y2="20.067"><stop offset="0" stop-color="#93630f"/><stop offset="1" stop-color="#fef7a2"/></linearGradient><path fill-rule="evenodd" clip-rule="evenodd" fill="url(#e)" d="M5.155 25.073v8.052l-1.96 1.318V24.381z"/><linearGradient id="f" gradientUnits="userSpaceOnUse" x1="3.393" y1="42.738" x2="18.525" y2="25.945"><stop offset="0" stop-color="#93630f"/><stop offset="1" stop-color="#fef7a2"/></linearGradient><path fill-rule="evenodd" clip-rule="evenodd" fill="url(#f)" d="M12.524 34.77a3.676 3.676 0 01-1.149 2.674 3.671 3.671 0 01-3.11.966 3.666 3.666 0 01-1.96-.967A3.68 3.68 0 015.2 35.347l-1.813.889a5.646 5.646 0 002.917 3.578 5.595 5.595 0 002.535.601 5.6 5.6 0 003.684-1.369 5.63 5.63 0 001.961-4.277v-3.971l-1.961.961v3.011z"/><linearGradient id="g" gradientUnits="userSpaceOnUse" x1="-1.66" y1="38.184" x2="13.471" y2="21.391"><stop offset="0" stop-color="#93630f"/><stop offset="1" stop-color="#fef7a2"/></linearGradient><path fill-rule="evenodd" clip-rule="evenodd" fill="url(#g)" d="M8.265 26.17v4.866l-1.96 1.318v-6.876z"/><linearGradient id="h" gradientUnits="userSpaceOnUse" x1="2.688" y1="42.102" x2="17.82" y2="25.31"><stop offset="0" stop-color="#93630f"/><stop offset="1" stop-color="#fef7a2"/></linearGradient><path fill-rule="evenodd" clip-rule="evenodd" fill="url(#h)" d="M11.375 32.322v2.448a2.538 2.538 0 01-3.11 2.47 2.536 2.536 0 01-1.959-2.433l1.96-.961v.924a.574.574 0 001.148 0v-1.487l.649-.318 1.312-.643z"/><linearGradient id="i" gradientUnits="userSpaceOnUse" x1="-.183" y1="39.516" x2="14.949" y2="22.723"><stop offset="0" stop-color="#93630f"/><stop offset="1" stop-color="#fef7a2"/></linearGradient><path fill-rule="evenodd" clip-rule="evenodd" fill="url(#i)" d="M12.174 27.538l-.785.377v1.032l-1.327.891-.634.426v-3.689l.634.222z"/><linearGradient id="j" gradientUnits="userSpaceOnUse" x1="0" y1="32.06" x2="17.583" y2="32.06"><stop offset="0" stop-color="#93630f"/><stop offset="1" stop-color="#fef7a2"/></linearGradient><path fill-rule="evenodd" clip-rule="evenodd" fill="url(#j)" d="M17.583 27.18l-2.706 4.149-.133-1.455-6.717 3.41-7.975 3.634-.052.023 7.457-4.711 6.468-3.795-1.638-.8z"/><linearGradient id="k" gradientUnits="userSpaceOnUse" x1="3.473" y1="20.233" x2="3.689" y2="41.197"><stop offset="0" stop-color="#93630f"/><stop offset="1" stop-color="#fef7a2" stop-opacity="0"/></linearGradient><path fill-rule="evenodd" clip-rule="evenodd" fill="url(#k)" d="M3.942 24.644v9.298l-.746.501V24.381z"/><linearGradient id="l" gradientUnits="userSpaceOnUse" x1="6.113" y1="20.206" x2="6.33" y2="41.17"><stop offset="0" stop-color="#93630f"/><stop offset="1" stop-color="#fef7a2" stop-opacity="0"/></linearGradient><path fill-rule="evenodd" clip-rule="evenodd" fill="url(#l)" d="M9.213 40.401a5.75 5.75 0 01-.948-.016 5.615 5.615 0 01-3.109-1.338 5.652 5.652 0 01-1.768-2.811l.694-.34c.02.101.043.214.071.332a6.046 6.046 0 00.153.539c.06.158.127.313.2.465l.004.008a5.672 5.672 0 002.542 2.575 5.579 5.579 0 002.161.586z"/><defs><filter id="m" filterUnits="userSpaceOnUse" x="9.213" y="30.799" width="5.272" height="7.655"><feFlood result="back" flood-color="#fff" flood-opacity="1"/><feBlend in="SourceGraphic" in2="back"/></filter></defs><mask maskUnits="userSpaceOnUse" x="9.213" y="30.799" width="5.272" height="7.655" id="n"><g filter="url(#m)"><linearGradient id="o" gradientUnits="userSpaceOnUse" x1="13.26" y1="33.226" x2="10.696" y2="37.271"><stop offset="0"/><stop offset="1" stop-color="#fff"/></linearGradient><path mask="url(#n)" fill-rule="evenodd" clip-rule="evenodd" fill="url(#o)" d="M14.484 30.799v.366l-1.214.595v3.011a3.672 3.672 0 01-1.149 2.673 3.679 3.679 0 01-2.907.992 3.679 3.679 0 002.162-.991 3.676 3.676 0 001.149-2.673v-3.011l1.959-.962z"/></g></mask><linearGradient id="p" gradientUnits="userSpaceOnUse" x1="9.565" y1="38.081" x2="14.296" y2="32.158"><stop offset="0" stop-color="#93630f"/><stop offset="1" stop-color="#fef7a2" stop-opacity="0"/></linearGradient><path fill-rule="evenodd" clip-rule="evenodd" fill="url(#p)" d="M14.484 30.799v.366l-1.214.595v3.011a3.672 3.672 0 01-1.149 2.673 3.679 3.679 0 01-2.907.992 3.679 3.679 0 002.162-.991 3.676 3.676 0 001.149-2.673v-3.011l1.959-.962z"/><linearGradient id="q" gradientUnits="userSpaceOnUse" x1="13.114" y1="22.777" x2="4.591" y2="38.451"><stop offset="0" stop-color="#93630f"/><stop offset="1" stop-color="#fef7a2"/></linearGradient><path fill-rule="evenodd" clip-rule="evenodd" fill="url(#q)" d="M9.414 26.575v3.689l1.961-1.317v-1.032l.785-.377z"/><linearGradient id="r" gradientUnits="userSpaceOnUse" x1="6.609" y1="24.24" x2="6.898" y2="35.941"><stop offset="0" stop-color="#93630f"/><stop offset="1" stop-color="#fef7a2" stop-opacity="0"/></linearGradient><path fill-rule="evenodd" clip-rule="evenodd" fill="url(#r)" d="M7.137 25.768v6.036l-.819.55v-6.876z"/><linearGradient id="s" gradientUnits="userSpaceOnUse" x1="7.061" y1="33.635" x2="8" y2="36.934"><stop offset="0" stop-color="#93630f"/><stop offset="1" stop-color="#fef7a2" stop-opacity="0"/></linearGradient><path fill-rule="evenodd" clip-rule="evenodd" fill="url(#s)" d="M9.263 37.271a2.599 2.599 0 01-.984-.032 2.536 2.536 0 01-1.96-2.433l.816-.4c-.048.379.036.796.063.914l.008.033a2.536 2.536 0 002.057 1.918z"/><defs><filter id="t" filterUnits="userSpaceOnUse" x="0" y="28.435" width="14.411" height="8.506"><feFlood result="back" flood-color="#fff" flood-opacity="1"/><feBlend in="SourceGraphic" in2="back"/></filter></defs><mask maskUnits="userSpaceOnUse" x="0" y="28.435" width="14.411" height="8.506" id="u"><g filter="url(#t)"><linearGradient id="v" gradientUnits="userSpaceOnUse" x1="16.797" y1="26.98" x2="-2.957" y2="38.681"><stop offset="0" stop-color="#fff"/><stop offset=".115" stop-color="#c8c8c8"/><stop offset=".242" stop-color="#949494"/><stop offset=".371" stop-color="#676767"/><stop offset=".499" stop-color="#424242"/><stop offset=".626" stop-color="#252525"/><stop offset=".752" stop-color="#101010"/><stop offset=".877" stop-color="#040404"/><stop offset="1"/></linearGradient><path mask="url(#u)" fill-rule="evenodd" clip-rule="evenodd" fill="url(#v)" d="M14.411 28.674L.052 36.918 0 36.941l7.457-4.711 6.468-3.795z"/></g></mask><linearGradient id="w" gradientUnits="userSpaceOnUse" x1="14.071" y1="28.351" x2="7.535" y2="32.594"><stop offset="0" stop-color="#93630f"/><stop offset="1" stop-color="#fef7a2" stop-opacity="0"/></linearGradient><path fill-rule="evenodd" clip-rule="evenodd" fill="url(#w)" d="M14.411 28.674L.052 36.918 0 36.941l7.457-4.711 6.468-3.795z"/><defs><filter id="x" filterUnits="userSpaceOnUse" x="12.287" y="27.18" width="5.296" height=".885"><feFlood result="back" flood-color="#fff" flood-opacity="1"/><feBlend in="SourceGraphic" in2="back"/></filter></defs><mask maskUnits="userSpaceOnUse" x="12.287" y="27.18" width="5.296" height=".885" id="y"><g filter="url(#x)"><linearGradient id="z" gradientUnits="userSpaceOnUse" x1="17.114" y1="27.189" x2="5.215" y2="30.241"><stop offset="0" stop-color="#fff"/><stop offset=".115" stop-color="#c8c8c8"/><stop offset=".242" stop-color="#949494"/><stop offset=".371" stop-color="#676767"/><stop offset=".499" stop-color="#424242"/><stop offset=".626" stop-color="#252525"/><stop offset=".752" stop-color="#101010"/><stop offset=".877" stop-color="#040404"/><stop offset="1"/></linearGradient><path mask="url(#y)" fill-rule="evenodd" clip-rule="evenodd" fill="url(#z)" d="M13.593 27.933l1.318.487-.5.254-2.124-1.039 5.296-.455z"/></g></mask><linearGradient id="A" gradientUnits="userSpaceOnUse" x1="16.266" y1="27.573" x2="12.691" y2="27.771"><stop offset="0" stop-color="#93630f"/><stop offset="1" stop-color="#fef7a2" stop-opacity="0"/></linearGradient><path fill-rule="evenodd" clip-rule="evenodd" fill="url(#A)" d="M13.165 28.065l-.878-.43 5.296-.455z"/><defs><filter id="B" filterUnits="userSpaceOnUse" x="9.115" y="32.965" width=".948" height="2.309"><feFlood result="back" flood-color="#fff" flood-opacity="1"/><feBlend in="SourceGraphic" in2="back"/></filter></defs><mask maskUnits="userSpaceOnUse" x="9.115" y="32.965" width=".948" height="2.309" id="C"><g filter="url(#B)"><linearGradient id="D" gradientUnits="userSpaceOnUse" x1="12.01" y1="29.61" x2="8.424" y2="36.205"><stop offset="0"/><stop offset="1" stop-color="#fff"/></linearGradient><path mask="url(#C)" fill-rule="evenodd" clip-rule="evenodd" fill="url(#D)" d="M10.062 32.965v.936c0 1.065-.948 1.373-.948 1.373a.575.575 0 00.299-.504v-1.487l.649-.318z"/></g></mask><linearGradient id="E" gradientUnits="userSpaceOnUse" x1="9.589" y1="34.913" x2="9.589" y2="32"><stop offset="0" stop-color="#93630f"/><stop offset="1" stop-color="#fef7a2" stop-opacity="0"/></linearGradient><path fill-rule="evenodd" clip-rule="evenodd" fill="url(#E)" d="M10.062 32.965v.936c0 1.065-.948 1.373-.948 1.373a.575.575 0 00.299-.504v-1.487l.649-.318z"/><defs><filter id="F" filterUnits="userSpaceOnUse" x="9.428" y="26.575" width=".634" height="3.689"><feFlood result="back" flood-color="#fff" flood-opacity="1"/><feBlend in="SourceGraphic" in2="back"/></filter></defs><mask maskUnits="userSpaceOnUse" x="9.428" y="26.575" width=".634" height="3.689" id="G"><g filter="url(#F)"><linearGradient id="H" gradientUnits="userSpaceOnUse" x1="12.909" y1="22.388" x2="8.069" y2="31.289"><stop offset="0"/><stop offset="1" stop-color="#fff"/></linearGradient><path mask="url(#G)" fill-rule="evenodd" clip-rule="evenodd" fill="url(#H)" d="M10.062 26.797v3.041l-.634.426v-3.689z"/></g></mask><linearGradient id="I" gradientUnits="userSpaceOnUse" x1="9.75" y1="26.416" x2="9.738" y2="30.641"><stop offset="0" stop-color="#93630f"/><stop offset="1" stop-color="#fef7a2" stop-opacity="0"/></linearGradient><path fill-rule="evenodd" clip-rule="evenodd" fill="url(#I)" d="M10.062 26.797v3.041l-.634.426v-3.689z"/><path fill="none" d="M17.583 27.18l-5.209.986"/></g></svg>