<?xml version="1.0" encoding="UTF-8"?>
<svg width="65px" height="65px" viewBox="0 0 65 65" version="1.1" xmlns="http://www.w3.org/2000/svg" xmlns:xlink="http://www.w3.org/1999/xlink">
    <!-- Generator: Sketch 53.2 (72643) - https://sketchapp.com -->
    <title>BO_Brand_header_logo</title>
    <desc>Created with Sketch.</desc>
    <g id="BO_Brand_header_logo" stroke="none" stroke-width="1" fill="none" fill-rule="evenodd">
        <g id="Group-2-Copy-2" transform="translate(12.000000, 0.000000)" fill-rule="nonzero">
            <path d="M8.47145327,64.3916438 L0.715947156,64.3916438 L0.715947156,14.6823176 C3.798858,14.6823176 6.83915874,14.588736 9.86213449,14.7463956 C10.645973,14.786963 11.5815222,15.4821403 12.0989305,16.0989488 C17.8489526,22.9516084 24.2957199,32.6324594 29.9858069,39.5233814 C30.3660201,39.9834523 30.2016669,41.7264665 30.2133729,42.2261828 C30.2957837,45.7163601 30.2199283,47.9268211 30.2199283,52.2145162 C22.9799576,43.4611828 16.1955871,32.5434878 9.42151798,24.3544098 L8.47145327,24.5000835 L8.47145327,64.3916438 L8.47145327,64.3916438 Z M39.7725504,64.4935233 L32.0629321,64.4935233 L32.0629321,14.7579204 L39.7725504,14.7579204 L39.7725504,64.4935233 Z" id="Shape" fill="#FD5F00"></path>
            <path d="M9.29977485,4.52295588 C9.31944104,7.87852326 8.03973337,9.17621829 4.69975721,9.18728212 C1.31623447,9.19834595 0.00281331481,7.92277858 3.85778694e-06,4.62114737 C-0.00280559924,1.50299134 1.52881672,0.0374948873 4.82899224,0.000615454716 C7.91424429,-0.0334980205 9.28151337,1.34901971 9.29977485,4.52295588 L9.29977485,4.52295588 Z M8.7275821,64.446502 L0.299211031,64.446502 L0.299211031,14.6592679 L6.18876944,14.6592679 L8.77159693,14.6998353 L8.7275821,64.446502 Z" id="Shape" fill="#05004E"></path>
        </g>
    </g>
</svg>