<?xml version="1.0" encoding="utf-8"?>
<!-- Generator: Adobe Illustrator 23.0.1, SVG Export Plug-In . SVG Version: 6.00 Build 0)  -->
<svg version="1.1" id="Слой_1" xmlns="http://www.w3.org/2000/svg" xmlns:xlink="http://www.w3.org/1999/xlink" x="0px" y="0px"
	 viewBox="0 0 65 65" style="enable-background:new 0 0 65 65;" xml:space="preserve">
<style type="text/css">
	.st0{fill:#EC3243;}
	.st1{fill:#03519F;}
	.st2{enable-background:new    ;}
	.st3{fill:#1D3765;}
</style>
<g>
	<path class="st0" d="M32.6,32.2h-1.5v-6.8h1.5V32.2z"/>
	<path class="st0" d="M39.8,25.4v6.3c0,0.4-0.2,0.5-0.5,0.5h-0.9c-0.2,0-0.3,0-0.4-0.1c-0.1-0.1-0.2-0.2-0.2-0.3l-1.8-3.6
		c-0.2-0.5-0.4-0.8-0.4-1.1h-0.1c0,0.3,0.1,0.7,0.1,1.1v4.1H34v-6.3c0-0.4,0.2-0.5,0.5-0.5h0.9c0.2,0,0.3,0,0.4,0.1
		c0.1,0.1,0.2,0.2,0.2,0.3l1.7,3.5c0.2,0.3,0.3,0.7,0.5,1.1h0.1c0-0.5-0.1-0.9-0.1-1.1v-3.9H39.8z"/>
	<path class="st0" d="M46.7,25.4l-1.9,6.4c0,0.1-0.1,0.2-0.2,0.3c-0.1,0.1-0.2,0.1-0.3,0.1h-1.4c-0.1,0-0.2,0-0.3-0.1
		c-0.1-0.1-0.2-0.2-0.2-0.3l-1.9-6.4h1.6l1.2,4.9c0.1,0.3,0.1,0.5,0.2,0.8h0.2c0-0.1,0.1-0.4,0.2-0.8l1.2-4.9H46.7z"/>
	<path class="st0" d="M52,31l0.1,1.1c-0.6,0.1-1.7,0.1-3.2,0.1c-0.5,0-0.8-0.1-1.1-0.4s-0.4-0.6-0.4-1v-4.1c0-0.4,0.1-0.8,0.4-1
		s0.6-0.4,1.1-0.4c1.5,0,2.5,0,3.2,0.1L52,26.6h-2.6c-0.2,0-0.3,0-0.4,0.1c-0.1,0.1-0.1,0.2-0.1,0.4v1h2.7v1.1h-2.7v1.3
		c0,0.2,0,0.3,0.1,0.4c0.1,0.1,0.2,0.1,0.4,0.1H52z"/>
	<path class="st0" d="M55.7,29.6l-1.4-0.5c-0.5-0.2-0.9-0.4-1.1-0.8s-0.3-0.7-0.3-1.2c0-0.8,0.2-1.3,0.5-1.5c0.4-0.3,1-0.4,1.9-0.4
		c0.9,0,1.6,0.1,2.2,0.3l-0.1,1c-0.6,0-1.3,0-2.1,0c-0.4,0-0.7,0-0.8,0.1s-0.2,0.2-0.2,0.5c0,0.2,0,0.4,0.1,0.5
		c0.1,0.1,0.3,0.2,0.6,0.3l1.3,0.4c0.5,0.2,0.9,0.4,1.1,0.8c0.2,0.3,0.3,0.7,0.3,1.3c0,0.8-0.2,1.3-0.6,1.6c-0.4,0.3-1,0.4-2,0.4
		c-0.8,0-1.6-0.1-2.3-0.3l0.1-1.1c1.4,0,2.2,0,2.3,0c0.4,0,0.7,0,0.8-0.1c0.1-0.1,0.2-0.3,0.2-0.5c0-0.2,0-0.4-0.1-0.5
		C56.1,29.8,55.9,29.7,55.7,29.6z"/>
	<path class="st0" d="M64,26.6h-2v5.6h-1.5v-5.6h-2v-1.2H64V26.6z"/>
	<path class="st1" d="M34.8,38.9h-2.3L32,40.7h-1.5l2-6.4c0-0.1,0.1-0.2,0.2-0.3c0.1-0.1,0.2-0.1,0.3-0.1h1.4c0.3,0,0.5,0.1,0.5,0.4
		l2,6.4h-1.5L34.8,38.9z M34.5,37.8l-0.6-2.1c-0.1-0.3-0.1-0.5-0.1-0.6h-0.3c0,0.1,0,0.2-0.1,0.3c0,0.1-0.1,0.3-0.1,0.3l-0.6,2.1
		H34.5z"/>
	<path class="st1" d="M42.2,39.4l0.1,1.1c-0.6,0.2-1.3,0.3-2.2,0.3c-1.1,0-1.8-0.3-2.2-0.8c-0.4-0.5-0.6-1.4-0.6-2.7
		s0.2-2.2,0.6-2.7c0.4-0.5,1.2-0.8,2.2-0.8c0.8,0,1.4,0.1,2,0.2l-0.1,1.1c-0.5,0-1.2,0-1.9,0c-0.5,0-0.8,0.2-1,0.5s-0.3,0.9-0.3,1.8
		c0,0.9,0.1,1.4,0.3,1.8s0.5,0.5,1,0.5C41.1,39.5,41.7,39.5,42.2,39.4z"/>
	<path class="st1" d="M48.4,35.1h-2v5.6h-1.5v-5.6h-2v-1.2h5.6V35.1z"/>
	<path class="st1" d="M50.7,40.7h-1.5v-6.8h1.5V40.7z"/>
	<path class="st1" d="M57.7,33.9l-1.9,6.4c0,0.1-0.1,0.2-0.2,0.3c-0.1,0.1-0.2,0.1-0.3,0.1h-1.4c-0.1,0-0.2,0-0.3-0.1
		c-0.1-0.1-0.2-0.2-0.2-0.3l-1.9-6.4h1.6l1.2,4.9c0.1,0.3,0.1,0.5,0.2,0.8h0.2c0-0.1,0.1-0.4,0.2-0.8l1.2-4.9H57.7z"/>
	<path class="st1" d="M63,39.5l0.1,1.1c-0.6,0.1-1.7,0.1-3.2,0.1c-0.5,0-0.8-0.1-1.1-0.4c-0.3-0.2-0.4-0.6-0.4-1v-4.1
		c0-0.4,0.1-0.8,0.4-1s0.6-0.4,1.1-0.4c1.5,0,2.5,0,3.2,0.1L63,35.1h-2.6c-0.2,0-0.3,0-0.4,0.1s-0.1,0.2-0.1,0.4v1h2.7v1.1h-2.7V39
		c0,0.2,0,0.3,0.1,0.4s0.2,0.1,0.4,0.1H63z"/>
</g>
<g>
	<g>
		<g class="st2">
			<g>
				<g>
					<path class="st3" d="M23.2,40.7c-1.5-0.3-2.9-1.1-4.5-7.7c-1.7-6.6-3-7.9-4.5-8h4.2c1.5,0.2,2.8,1.4,4.5,8.1
						c1.7,6.5,3,7.4,4.5,7.6H23.2"/>
				</g>
			</g>
		</g>
	</g>
	<g>
		<g>
			<g class="st2">
				<g>
					<g>
						<path class="st0" d="M15.3,27.5c0.1,0.8,0.4,1.8,0.9,3.1c1.8,4.6,7.3,5.5,9.3,5.9c-2.6,0.2-4.4,0-4.4,0c-0.2,0-0.3,0-0.6-0.1
							c-2.1-0.3-7.2-1.7-8.8-5.8C10,25.9,14,28,12.4,27.8L15.3,27.5z"/>
					</g>
				</g>
			</g>
		</g>
	</g>
	<g>
		<g class="st2">
			<g>
				<g>
					<path class="st1" d="M9.2,40.7c1.5-0.3,2.9-1.1,4.5-7.7c1.7-6.6,3-7.9,4.5-8h-4.2c-1.5,0.2-2.8,1.4-4.5,8.1
						c-1.7,6.5-3,7.4-4.5,7.6H9.2"/>
				</g>
			</g>
		</g>
	</g>
	<g>
		<path class="st0" d="M10.8,29c1.2-3.1,2.2-3.9,3.3-4H10c-1.1,0.1-2.1,0.9-3.3,4H10.8z"/>
		<path class="st0" d="M6.2,30.3C5.9,31.1,5.7,32,5.4,33c-1.7,6.5-3,7.4-4.5,7.6h4.2c1.5-0.3,2.9-1.1,4.5-7.7c0.3-1,0.5-1.9,0.7-2.6
			H6.2z"/>
	</g>
</g>
</svg>
