<svg id="Layer_1" data-name="Layer 1" xmlns="http://www.w3.org/2000/svg" viewBox="0 0 65 65"><defs><style>.cls-1,.cls-3{fill:#13111c;}.cls-1,.cls-2{fill-rule:evenodd;}.cls-2,.cls-4{fill:#809913;}.cls-5{fill:none;}</style></defs><title>Investogo - Logo  - Max-EcoSales -App</title><path class="cls-1" d="M55.34,24.61c2.32,2,3.66,4.26,3.66,6.7,0,7.3-11.86,13.22-26.5,13.22S6,38.61,6,31.31c0-2.44,1.33-4.74,3.66-6.7a7,7,0,0,0-1.44,4.11c0,6.69,10.87,12.11,24.28,12.11s24.28-5.42,24.28-12.11a7,7,0,0,0-1.44-4.11"/><path class="cls-2" d="M20.52,31v7a28.53,28.53,0,0,1-3.33-1.22c-.4-.18-.8-.37-1.19-.57V31.87c1.53-.25,3-.55,4.52-.91ZM49,13.09V36.15c-.39.2-.79.39-1.19.57a28.53,28.53,0,0,1-3.33,1.22V18.28A39.36,39.36,0,0,0,49,13.09ZM41.88,20.6v18a42.53,42.53,0,0,1-4.52.72V23.88a47,47,0,0,0,4.52-3.28Zm-7.12,4.84v14.1c-.76,0-1.51.06-2.26.06s-1.5,0-2.26-.06V27.69c1.56-.68,3.07-1.44,4.52-2.25Zm-7.12,3.32V39.34a42.53,42.53,0,0,1-4.52-.72V30.27q2.31-.68,4.52-1.51"/><path class="cls-1" d="M48.58,11.07C41.53,21,29.06,28,14.65,30,28.53,27.5,39.89,19.78,44.88,9.41L43.52,8.8l3.23-1.55L50,5.7l-.11,3-.11,3-1.18-.54Z"/><path class="cls-3" d="M6.66,55.26v-.44c1-.09,1.09-.17,1.09-1.23v-3.2c0-1,0-1-1-1.19v-.37A10.2,10.2,0,0,0,9,48.21v5.38c0,1.06.11,1.14,1.12,1.23v.44Zm1.62-8.58a.84.84,0,0,1,0-1.68.84.84,0,0,1,0,1.68Z"/><path class="cls-3" d="M14.56,55.26v-.44c.9-.09,1-.2,1-1.26V51c0-1.09-.39-1.82-1.42-1.82a2.77,2.77,0,0,0-1.73.81v3.64c0,1.08.1,1.11,1,1.2v.44H10.07v-.44c1-.11,1.12-.17,1.12-1.2v-3.2c0-1-.11-1.06-.95-1.2v-.4a8.81,8.81,0,0,0,2.17-.63v1.23l1.06-.71a2.4,2.4,0,0,1,1.29-.47c1.25,0,2,.92,2,2.43v2.95c0,1.06.09,1.11,1,1.2v.44Z"/><path class="cls-3" d="M24.09,48.85c-.84.11-.94.23-1.35,1.16-.51,1.25-1.4,3.32-2.21,5.42h-.45c-.65-1.79-1.41-3.64-2.15-5.46-.35-.91-.48-1-1.29-1.12v-.42h3.18v.42c-.86.11-.89.21-.64.88.39,1.08,1,2.73,1.48,3.81.56-1.38,1.07-2.66,1.41-3.65.27-.76.22-.93-.81-1v-.42h2.83Z"/><path class="cls-3" d="M28.48,53.93a3.51,3.51,0,0,1-2.58,1.51,3.1,3.1,0,0,1-3-3.34,4,4,0,0,1,1-2.72,3.16,3.16,0,0,1,2.32-1.14,2.43,2.43,0,0,1,2.38,2.41c0,.31-.06.45-.31.51s-2.3.21-4.16.27c0,2.08,1.23,2.94,2.34,2.94a2.64,2.64,0,0,0,1.8-.79Zm-2.67-5.1c-.72,0-1.42.67-1.64,1.93.87,0,1.74,0,2.66,0,.28,0,.38-.07.38-.31A1.45,1.45,0,0,0,25.81,48.83Z"/><path class="cls-3" d="M32.86,50.28c-.28-.9-.69-1.53-1.64-1.53a.94.94,0,0,0-1,1c0,.67.45,1,1.32,1.39,1.34.64,2,1.1,2,2.13a2.32,2.32,0,0,1-2.54,2.16A4.17,4.17,0,0,1,29.2,55c-.08-.45-.22-1.31-.28-1.82l.45-.08c.28,1,.83,1.8,1.92,1.8a1,1,0,0,0,1.09-1c0-.7-.42-1.06-1.25-1.47-1.09-.53-2-1-2-2.14a2.15,2.15,0,0,1,2.42-2,8.8,8.8,0,0,1,1.5.2c0,.38.15,1.36.23,1.73Z"/><path class="cls-3" d="M36.91,55.24a1.53,1.53,0,0,1-.67.2c-1,0-1.52-.6-1.52-1.85V49.06H33.65l-.07-.18.42-.45h.72V47.12c.3-.31.75-.72,1-1l.24,0c0,.66,0,1.56,0,2.31h1.77a.47.47,0,0,1-.09.63H36v4c0,1.26.5,1.49.9,1.49a2.24,2.24,0,0,0,.95-.25l.14.41Z"/><path class="cls-3" d="M41.56,48.24A3.34,3.34,0,0,1,45,51.72a3.48,3.48,0,0,1-3.39,3.72A3.41,3.41,0,0,1,38.11,52,3.56,3.56,0,0,1,41.56,48.24Zm-.18.53c-1,0-1.81.92-1.81,2.72,0,2,.87,3.41,2.15,3.41,1,0,1.77-.7,1.77-2.83C43.49,50.25,42.74,48.77,41.38,48.77Z"/><path class="cls-4" d="M54.76,48.24a3.35,3.35,0,0,1,3.39,3.48,3.49,3.49,0,0,1-3.39,3.72A3.41,3.41,0,0,1,51.31,52,3.56,3.56,0,0,1,54.76,48.24Zm-.19.53c-1,0-1.8.92-1.8,2.72,0,2,.87,3.41,2.15,3.41,1,0,1.77-.7,1.77-2.83C56.69,50.25,55.94,48.77,54.57,48.77Z"/><path class="cls-4" d="M51.87,57a2.53,2.53,0,0,1-.36.69h5.73l.09-.06.18-.5-.1-.13Z"/><path class="cls-4" d="M46.78,57.66h3.4a1.24,1.24,0,0,0,.33-.69H6.69l-.1.07-.17.49.09.13H46.78Z"/><path class="cls-4" d="M51.73,56.77a2.15,2.15,0,0,0,.09-.61c0-1.54-1.27-1.87-2.27-1.87l-1.74,0c-.7,0-1-.31-1-.59a1.11,1.11,0,0,1,.45-.73,3.1,3.1,0,0,0,.81.1,2.52,2.52,0,0,0,2.74-2.49,2.35,2.35,0,0,0-.45-1.41c.22,0,.73.08,1,.08a1.94,1.94,0,0,0,.57-.83l-.09-.14a10.38,10.38,0,0,1-2.09.24,3.15,3.15,0,0,0-1.49-.39,2.68,2.68,0,0,0-2.8,2.59,2.21,2.21,0,0,0,1.34,2.08,3.28,3.28,0,0,1-1.39,1,1.4,1.4,0,0,0,.19.67,2,2,0,0,0,1.17.84,13.68,13.68,0,0,0-1.28,1.12,1.33,1.33,0,0,0-.23.3h1.1a1.86,1.86,0,0,1,2.1-1.37,4.21,4.21,0,0,1,1.59.2,1.16,1.16,0,0,1,.68,1.13v0c0,.07,0,.13,0,.2a1.68,1.68,0,0,1-.28.69c-.06.07-.11.14-.17.2a2.56,2.56,0,0,1-1.85.63,2.37,2.37,0,0,1-1.73-.63H45.21a2.66,2.66,0,0,0,2.63,1.44,4.48,4.48,0,0,0,3.27-1.44,1.56,1.56,0,0,0,.16-.2,2.65,2.65,0,0,0,.39-.69A1.59,1.59,0,0,0,51.73,56.77Zm-4.95-6.26c0-1.23.62-1.87,1.32-1.87.88,0,1.45.88,1.45,2.09s-.61,1.83-1.29,1.87C47.4,52.6,46.78,51.74,46.78,50.51Z"/><path class="cls-4" d="M58,49.64a1.84,1.84,0,0,0,.58-.82l-.09-.14a10.77,10.77,0,0,1-2,.23l.59.65C57.27,49.58,57.77,49.64,58,49.64Z"/><path class="cls-3" d="M44.71,49.64a1.84,1.84,0,0,0,.58-.82l-.09-.14a10.78,10.78,0,0,1-2.05.23l.6.65C44,49.58,44.48,49.64,44.71,49.64Z"/><rect class="cls-5" width="65" height="65"/></svg>