<?xml version="1.0" encoding="UTF-8"?>
<svg width="65px" height="65px" viewBox="0 0 65 65" version="1.1" xmlns="http://www.w3.org/2000/svg" xmlns:xlink="http://www.w3.org/1999/xlink">
    <!-- Generator: Sketch 54.1 (76490) - https://sketchapp.com -->
    <title>BO_Brand_header_logo</title>
    <desc>Created with Sketch.</desc>
    <g id="BO_Brand_header_logo" stroke="none" stroke-width="1" fill="none" fill-rule="evenodd">
        <path d="M32.5,64 C15.1031154,64 1,49.8968846 1,32.5 C1,15.1031154 15.1031154,1 32.5,1 C49.8968846,1 64,15.1031154 64,32.5 C64,49.8968846 49.8968846,64 32.5,64 Z M37.0299423,21.7564808 C35.6283912,21.1891261 34.130357,20.8981312 32.6183269,20.8995192 C31.0962308,20.8995192 29.6125,21.1870577 28.2067115,21.7568846 C26.7538541,22.343916 25.4347067,23.2186771 24.3285769,24.3285769 C23.2185645,25.4348519 22.343673,26.7541263 21.7564808,28.2071154 C21.1888637,29.6084476 20.8978577,31.1064015 20.8995192,32.6183269 C20.8982872,34.1303033 21.1891344,35.6282825 21.7560769,37.0299423 C22.3433096,38.4830075 23.2183502,39.8022994 24.3285769,40.9084808 C25.4346342,42.018569 26.7537936,42.8934754 28.2067115,43.4805769 C29.6082843,44.0478129 31.1063214,44.3386713 32.6183269,44.3371346 C35.7274978,44.3417076 38.7104953,43.1079351 40.9080769,40.9084808 C42.0180165,39.8022197 42.8930197,38.4831214 43.4805769,37.0303462 C44.0480404,35.6286997 44.3389065,34.1304858 44.3371346,32.6183269 C44.3371346,31.0958269 44.0487885,29.6112885 43.4801731,28.2067115 C42.8932406,26.7538019 42.0184671,25.4346358 40.9084808,24.3285769 C39.8023349,23.2183069 38.4830336,22.3432601 37.0299423,21.7560769 L37.0299423,21.7564808 Z M24.82975,35.7860962 C24.4215364,34.7799634 24.2126486,33.7041157 24.2146923,32.6183269 C24.2127187,31.5324916 24.4213188,30.4565759 24.8289423,29.4501538 C25.2500468,28.4096169 25.8769641,27.4648454 26.6720962,26.6725 C27.4645566,25.8770288 28.4096357,25.2499523 29.4505577,24.8289423 C30.4567091,24.4213126 31.5323358,24.2125782 32.6179231,24.2142885 C34.8480716,24.2105479 36.9878538,25.0952934 38.5641538,26.6729038 C40.1418609,28.248909 41.0263893,30.3887236 41.0219615,32.6187308 C41.0243688,33.7043844 40.8156086,34.7801439 40.4073077,35.7860962 C39.9867556,36.8270431 39.3597723,37.7720515 38.5641538,38.5641538 C37.7718549,39.3597222 36.8267259,39.9866944 35.7856923,40.4073077 C34.7798225,40.8158863 33.704008,41.0246572 32.6183269,41.0219615 C31.5239038,41.0227692 30.45775,40.8151923 29.4509615,40.4077115 C28.4112466,39.9846186 27.4670962,39.3570161 26.6745192,38.5621346 C25.8798278,37.7696395 25.2523669,36.8256328 24.8293462,35.7860962 L24.82975,35.7860962 Z M39.96025,14.5785192 C37.615819,13.6214043 35.1085959,13.126103 32.5763269,13.1198269 C30.0508362,13.1070995 27.5469211,13.5850872 25.2037115,14.5272308 C22.7788759,15.5001813 20.5772979,16.9562209 18.7328846,18.8067885 C16.8711538,20.6685192 15.4310385,22.84525 14.4553462,25.2751923 C13.7213873,27.1017397 13.269302,29.0292302 13.1145769,30.9916346 L5.29530769,30.9682115 C5.26291648,31.5191438 5.2462174,32.0708865 5.24523077,32.6227692 C5.25447526,36.1610816 5.94767445,39.6642402 7.28667308,42.9394231 C8.67751923,46.3446538 10.7137115,49.4001538 13.3370962,52.0235385 C15.9604808,54.6469231 19.0159808,56.6827115 22.4216154,58.0739615 C25.6966107,59.4131144 29.1996677,60.1063207 32.7378654,60.1154038 C36.29575,60.1271154 39.76075,59.4652115 43.0399808,58.1442308 C44.8697616,57.405654 46.6129649,56.4685062 48.2382885,55.3496154 L45.8245,52.9358269 C44.5455553,53.7679055 43.1890307,54.4741638 41.7739231,55.0447115 C38.8957115,56.2045577 35.8515192,56.7856923 32.7265577,56.7747885 C29.6191826,56.7672111 26.5425979,56.1587508 23.6662692,54.9829231 C20.6790192,53.7629038 17.9954615,51.9746731 15.6907115,49.6699231 C13.3859615,47.3651731 11.5985385,44.6824231 10.3777115,41.6947692 C9.41813048,39.3415703 8.83694422,36.8513562 8.65571154,34.3165 L16.4806346,34.3508269 C16.4207932,33.7895476 16.389522,33.2255891 16.3869423,32.6611346 C16.3760625,30.5639078 16.7730026,28.4845672 17.5556731,26.5388269 C18.3620947,24.5290321 19.5691984,22.7044299 21.1034615,21.1761538 C22.6323304,19.6416548 24.4574516,18.4342965 26.46775,17.6275577 C28.4129107,16.845011 30.4918047,16.4486001 32.5884423,16.4604423 C34.690592,16.4641832 36.7721176,16.8750576 38.7180192,17.6703654 C39.1473077,17.8440192 39.5644808,18.0402885 39.9739808,18.2502885 L42.4265385,15.7977308 C41.6342225,15.3339342 40.8102219,14.9265222 39.9606538,14.5785192 L39.96025,14.5785192 Z M51.9245962,13.2385577 C49.3189808,10.6325385 46.2788269,8.61532692 42.8881346,7.24426923 C39.6141538,5.91965385 36.154,5.25088462 32.6045962,5.25492308 C29.0773896,5.25423623 25.5835842,5.93821237 22.3170192,7.26890385 C18.9239038,8.64763462 15.8789038,10.6717115 13.2664231,13.2845962 C10.6543462,15.8962692 8.62946154,18.9420769 7.25073077,22.3351923 C6.55586522,24.0463456 6.03654783,25.8236343 5.70076923,27.6397115 L9.09873077,27.6356731 C9.39148227,26.251109 9.80595825,24.895109 10.3373269,23.5834808 C11.54725,20.6055192 13.3253846,17.9320577 15.6196346,15.6378077 C17.9142885,13.3431538 20.5873462,11.5654231 23.5653077,10.3555 C26.4344534,9.18712332 29.5030427,8.58654441 32.6009615,8.58705769 C35.6961834,8.57910644 38.7634962,9.17229763 41.6325769,10.3336923 C44.0879615,11.3271538 46.3309231,12.7135577 48.3291538,14.4533269 L42.8093846,19.9730962 C43.2460186,20.327341 43.6638931,20.7041021 44.0613077,21.1018462 C45.5951362,22.6299768 46.8035127,24.4529823 47.6135385,26.4608846 C48.3988558,28.4020823 48.7992276,30.4774596 48.7923654,32.5714808 C48.7931314,34.6668957 48.388159,36.7426363 47.5998077,38.6840962 C47.4249966,39.10941 47.2327374,39.5273413 47.0235192,39.9368269 L49.4760769,42.3889808 C49.9373288,41.5991271 50.3419229,40.7775233 50.6868077,39.9303654 C51.6371115,37.5919289 52.1256031,35.0915981 52.1253077,32.5674423 C52.1315646,30.0452636 51.648813,27.5457894 50.7037692,25.2073462 C49.9342424,23.3015011 48.8648091,21.531019 47.536,19.963 L53.0513269,14.4424231 C52.6876771,14.0302667 52.3119364,13.628938 51.9245962,13.2389615 L51.9245962,13.2385577 Z M52.7520769,19.5316923 C53.5870842,20.8107597 54.2970864,22.167202 54.8722692,23.5822692 C56.0387364,26.4522303 56.6375225,29.5211808 56.6354615,32.6191346 C56.642503,35.7158992 56.0472219,38.7844773 54.8827692,41.6539808 C53.8901222,44.1039824 52.4948507,46.3707868 50.7546538,48.3606538 L45.2401346,42.8368462 C44.8856077,43.2737467 44.5087196,43.692017 44.1109808,44.0899808 C42.5818697,45.6247415 40.757973,46.8341703 38.7491154,47.6454423 C36.8069163,48.431208 34.7308167,48.8330425 32.6356923,48.8287115 C30.5397184,48.8313206 28.4631439,48.4272793 26.5210577,47.6389808 C24.5106902,46.8245389 22.6853531,45.6127755 21.1543462,44.07625 C19.6176648,42.5451332 18.4057647,40.7196598 17.5912115,38.7091346 C17.4458269,38.3480962 17.317,37.9822115 17.1978654,37.6143077 L13.7247885,37.6118846 C13.9338034,38.4096407 14.1936024,39.1932193 14.5025962,39.9578269 C15.484879,42.3825777 16.9460403,44.5843465 18.7987115,46.4314808 C20.6458301,48.2842713 22.8475959,49.745568 25.2723654,50.728 C27.6118545,51.6771998 30.1129963,52.1644547 32.6377115,52.1628654 C35.1613209,52.1674475 37.661889,51.6827765 40.0010385,50.7356731 C41.9074655,49.9652653 43.6784678,48.8950291 45.247,47.5654808 L50.7667692,53.08 C51.1794904,52.7157003 51.581358,52.3392861 51.9718462,51.95125 C54.5806923,49.3424038 56.5991154,46.2994231 57.973,42.9083269 C59.2981867,39.6410154 59.9760121,36.1473757 59.9688077,32.6215577 C59.9714143,29.0939659 59.2895042,25.5993827 57.9608846,22.3315577 C57.216158,20.5018094 56.2736363,18.7589569 55.1501154,17.1340577 L52.7520769,19.5316923 L52.7520769,19.5316923 Z" id="Shape-Copy" fill="#7B5EEA"></path>
    </g>
</svg>