<svg id="Layer_1" data-name="Layer 1" xmlns="http://www.w3.org/2000/svg" viewBox="0 0 65 65"><defs><style>.cls-1{fill:#fff;}.cls-2{opacity:0.1;}.cls-3{fill:#001a22;}.cls-4{fill:#c9aa5d;}</style></defs><rect class="cls-1" width="65.5" height="65.5"/><path class="cls-3" d="M50.66,30.77C49.8,30,48.84,29.3,48,28.49a8,8,0,0,1-1.31-1.78c-.24-.44,0-.76.55-.7a3.32,3.32,0,0,1,2.38,1.31,8.28,8.28,0,0,0,.57.63,8.29,8.29,0,0,0-.29-5.05c-1.26-3.21-3.87-4.31-7.18-4.25l0-.32,2.64-.69,0-.22a14.14,14.14,0,0,0-10.44-.32c.39-1.08,1.36-1.17,1.93-1.77a1.55,1.55,0,0,0-.81-.09,16.71,16.71,0,0,0-2.13.42,6.81,6.81,0,0,0-3.29,1.9c-.55.64-.75,1.41-.27,1.92a5.76,5.76,0,0,0,2.05,1.46c.36.13,1-.42,1.47-.7s.72-.52,1.1-.74a3.19,3.19,0,0,1,.75-.22l-.16.7.74-.25a3,3,0,0,1,3.84,1.61c.26.84.11,1.11-.77,1.25s-1.53.19-2.29.32a1.18,1.18,0,0,0-1.05,1.62c.14.57.33,1.13.43,1.7s-.09.87-.81.71a10.52,10.52,0,0,0-2.39-.42,16.37,16.37,0,0,0-3,.42c-.83.17-1.05,0-.86-.83q.13-.55.3-1.08c.45-1.46.13-2-1.39-2.18s-3.07-.36-4.19-1.63c0,0-.09,0-.15,0s-.1.11-.1.17a4.8,4.8,0,0,0,1.69,3.76c.12.1.38.2.44.15.59-.51,1.2.06,1.8-.07s.6.19.48.63-.24,1-.36,1.5c-.17.74.06,1.1.82,1.23.4.06.8.08,1.18.15a1.88,1.88,0,0,1,1.68,1.56,2.17,2.17,0,0,1-.9,2.4,6.62,6.62,0,0,1-1,.58c-2.24,1.06-2.06,3.94-1.09,5.59.07-.23.11-.47.19-.69a17.23,17.23,0,0,1,1.09-2.86,3.65,3.65,0,0,1,4.54-1.24A3.18,3.18,0,0,1,36,38a12.25,12.25,0,0,1-1.21,2.5,1.93,1.93,0,0,1-2.69.85,3.33,3.33,0,0,1-1.84-2c-.08-.21-.2-.41-.3-.62l-.3,0a7,7,0,0,0-.11,1.87,5.34,5.34,0,0,0,1.48,3,.92.92,0,0,1,.23.81,13.65,13.65,0,0,0-1.34,7,25.66,25.66,0,0,0,2.39,10.44,7.39,7.39,0,0,0,.47.76l.2-.06a21.28,21.28,0,0,1,1.07-6.29c.77-2.13,2.54-5.12,3.33-5.39a13.63,13.63,0,0,0,0,6.32c.18-.15.25-.18.28-.24a10.73,10.73,0,0,1,2.86-3.59c1-.87,2.08-1.66,3-2.6a18.76,18.76,0,0,0,2.68-3.1c1.41-2.2,1.26-4.62.66-7-.06-.23-.09-.47-.13-.7l.19-.07a7.37,7.37,0,0,1,2.63,4.53A17.36,17.36,0,0,0,51.1,42c.45-.86.78-1.79,1.17-2.68a8.47,8.47,0,0,0,.71-4A6.52,6.52,0,0,0,50.66,30.77Zm-7.07,4.92a12.68,12.68,0,0,0-3.9-3.09c.13.41.2.63.28.85.64,1.82,1.3,3.63,1.92,5.46a5.25,5.25,0,0,1,.13,1.2l-.17,0a2.67,2.67,0,0,1-.22-.45,11.12,11.12,0,0,0-5.24-6.3c-.35-.19-.69-.4-1-.62a2.12,2.12,0,0,1-1-2.58c.18-.87.79-1.35,1.93-1.53,1.94-.31,1.94-.31,1.5-2.23,0-.11,0-.23-.07-.34-.16-.85-.16-.88.69-.87.5,0,1-.39,1.52.05.07.06.5-.19.69-.37s.6-.7,1-1.12a1.28,1.28,0,0,1,.07,1.59,3.85,3.85,0,0,1-.79.87,14.5,14.5,0,0,1-1.19.87c-1.47,1.05-1.52,1.95-.06,3.07.71.55,1.54,1,2.3,1.45a3.74,3.74,0,0,1,1.82,3.13A5.85,5.85,0,0,1,43.59,35.69Z"/><path class="cls-3" d="M25.3,44.72a13.41,13.41,0,0,1-.19-2.43,33,33,0,0,1,.76-3.94,15.78,15.78,0,0,1,.72-2l-.43-.09c-3.39,4.59-3.53,9.59-1.55,15-2.36-.57-3.91-2.08-5.43-3.77-.21,3.18,5.71,9.09,9.47,9.55a8.46,8.46,0,0,0,.11-.88,14.41,14.41,0,0,0-1.49-6.84C26.57,47.85,25.43,46.5,25.3,44.72Z"/><path class="cls-3" d="M21.88,47.87a4.43,4.43,0,0,0-.13-.59,17,17,0,0,1-1-7.16,18.07,18.07,0,0,1,1.19-6.58c.35-.82.53-.83,1-.13a3,3,0,0,0,1.7,1.34,16.69,16.69,0,0,1-1.1-2.59,17.09,17.09,0,0,1-.2-2.77c-2.56,1.68-3.58,4.29-4.43,7a6.82,6.82,0,0,1,.32-4.23,3.34,3.34,0,0,0-1,.89,7.11,7.11,0,0,0-1.13,4.34,15.45,15.45,0,0,0,4.14,10A4.53,4.53,0,0,0,21.88,47.87Z"/><path class="cls-3" d="M26.13,20.19a8.5,8.5,0,0,0-2.9-3.2,11.34,11.34,0,0,1,2.49.17c.82.18,1.63.48,2.55.75-1.13-2.61-6.5-2.38-8.44-.91.8.45,1.82.49,2.31,1.26A37.31,37.31,0,0,0,18,19.59c-1.5.66-2.65,2.36-2.54,3.48C18.46,20.3,22.2,20.11,26.13,20.19Z"/><path class="cls-4" d="M21.93,8.46a1.82,1.82,0,0,1,.65.67c.8,1.23,1.57,2.48,2.38,3.71a1.21,1.21,0,0,0,1.39.5,37.36,37.36,0,0,1,13,0,1.38,1.38,0,0,0,1.61-.61c.79-1.21,1.53-2.45,2.33-3.66.17-.25.52-.39.74-.62s.61-.55.63-.85-.34-.7-.81-.65-.66.37-.68.83a1,1,0,0,1-.13.65,6,6,0,0,1-3.37,2,1.1,1.1,0,0,1-1.4-1.21,10.35,10.35,0,0,1,.39-2c.15-.51.34-1,1.07-1a.79.79,0,0,0,.71-1,.88.88,0,0,0-1-.77.82.82,0,0,0-.81,1c.19.73-.23,1-.67,1.37-2.07,1.65-3.38,1.3-4.42-1.14-.2-.46-.24-.82.23-1.14A1,1,0,0,0,34,4a1.16,1.16,0,0,0-.62-1.42,1.2,1.2,0,0,0-1.5.37A1.15,1.15,0,0,0,32,4.43a.85.85,0,0,1,.3,1.13C31.22,8.1,29.8,8.44,27.69,6.61c0,0-.05,0-.05-.05a2.44,2.44,0,0,1-.27-.9c.05-.62-.15-1.08-.66-1.22a1,1,0,0,0-1.13.7.93.93,0,0,0,.77,1.14,1,1,0,0,1,.57.43A11.69,11.69,0,0,1,27.54,9c.12,1.09-.55,1.6-1.62,1.37A6.09,6.09,0,0,1,23,8.64a1.15,1.15,0,0,1-.23-.49c.13-.7,0-1.13-.56-1.18a1,1,0,0,0-.81.46C21.17,7.9,21.44,8.23,21.93,8.46Z"/><path class="cls-4" d="M39.32,14.11c-1.15-.19-2.29-.41-3.45-.52a30.3,30.3,0,0,0-9.4.51c-.33.07-.73.13-.64.64s.5.37.84.33l3.41-.35a27.43,27.43,0,0,1,5.36,0l3.7.37c.31,0,.67.17.78-.31S39.68,14.16,39.32,14.11Z"/><path class="cls-3" d="M18,29.6a7.9,7.9,0,0,0,3.52-6.1c.07-.57-.11-.69-.62-.5-.8.29-1.62.55-2.41.85a5.17,5.17,0,0,0-2.81,1.92,8.08,8.08,0,0,0-.45,1l.2.1a2.73,2.73,0,0,1,.53-.49,10.48,10.48,0,0,1,2.06-1c.77-.22,1.1.22.67.9a12.6,12.6,0,0,1-1.84,2.16c-.93.91-2,1.68-2.91,2.61a6.35,6.35,0,0,0-1.8,5.75,30.82,30.82,0,0,0,1.27,4.38,14.63,14.63,0,0,0,1,1.88l.18-.1c-.21-.66-.44-1.31-.63-2-.72-2.47-1-4.93.2-7.35A10.34,10.34,0,0,1,18,29.6Z"/></svg>