<svg xmlns="http://www.w3.org/2000/svg" xmlns:xlink="http://www.w3.org/1999/xlink" viewBox="0 0 65 65"><defs><style>.cls-1{fill:#dedede;}.cls-2{isolation:isolate;}.cls-3{clip-path:url(#clip-path);}.cls-4,.cls-7{mix-blend-mode:screen;}.cls-5{fill:url(#linear-gradient);}.cls-6{fill:url(#linear-gradient-2);}.cls-7{opacity:0.8;fill:url(#linear-gradient-3);}.cls-8{fill:#222527;}.cls-9{fill:#fff;}.cls-10{fill:#ef922d;}</style><clipPath id="clip-path"><rect class="cls-1" x="-0.28" y="473.8" width="1440.56" height="108"/></clipPath><linearGradient id="linear-gradient" x1="719" y1="746.68" x2="203.34" y2="231.02" gradientUnits="userSpaceOnUse"><stop offset="0" stop-color="#010101"/><stop offset="0.2" stop-color="#303030"/><stop offset="0.66" stop-color="#a5a5a5"/><stop offset="1" stop-color="#fff"/></linearGradient><linearGradient id="linear-gradient-2" x1="697.62" y1="768.06" x2="181.96" y2="252.4" xlink:href="#linear-gradient"/><linearGradient id="linear-gradient-3" x1="175.42" y1="-2643.41" x2="-1042.33" y2="-3861.15" gradientTransform="translate(1300.89 3948.05)" gradientUnits="userSpaceOnUse"><stop offset="0" stop-color="#010101"/><stop offset="0.21" stop-color="#303030"/><stop offset="0.67" stop-color="#a4a5a5"/><stop offset="1" stop-color="#fbfcfc"/></linearGradient></defs><g class="cls-2"><g id="Layer_1" data-name="Layer 1"><rect class="cls-1" x="-0.28" y="473.8" width="1440.56" height="108"/><g class="cls-3"><g class="cls-4"><polygon class="cls-5" points="10.27 40.31 647.44 677.48 649.8 675.13 14.99 40.31 10.27 40.31"/><polygon class="cls-6" points="-15.91 52.18 -15.91 56.9 626.06 698.86 628.42 696.5 -15.91 52.18"/></g><rect class="cls-7" x="-16.83" y="49.46" width="1492.18" height="1016.27" transform="translate(1458.52 1115.19) rotate(180)"/></g><rect class="cls-8" width="65" height="65" rx="4.32"/><path class="cls-9" d="M3.82,45.63H5.26V51.8H3.82Z"/><path class="cls-9" d="M3.82,43.81H5.26v1.31H3.82Z"/><path class="cls-9" d="M6.08,45.63H7.49v.76a2.26,2.26,0,0,1,1.85-.89,2.32,2.32,0,0,1,2.44,2.64V51.8H10.34V48.29c0-1-.46-1.55-1.39-1.55A1.48,1.48,0,0,0,7.5,48.41V51.8H6.08Z"/><path class="cls-9" d="M12,45.63h1.48L15.11,50l1.56-4.34h1.46L15.81,51.8H14.38Z"/><path class="cls-9" d="M18,48.73a3.19,3.19,0,0,1,3.21-3.23,3.08,3.08,0,0,1,3.17,3.18v.53h-5a1.83,1.83,0,0,0,1.9,1.46A1.79,1.79,0,0,0,23,49.58l1.17.68a3.09,3.09,0,0,1-2.88,1.66A3.13,3.13,0,0,1,18,48.73ZM19.42,48h3.5a1.63,1.63,0,0,0-1.73-1.26A1.81,1.81,0,0,0,19.42,48Z"/><path class="cls-9" d="M24.57,50.43l1.32-.64a1.59,1.59,0,0,0,1.49.9c.71,0,1.05-.34,1.05-.75s-.68-.54-1.44-.71c-1.06-.22-2.16-.55-2.16-1.85a2.16,2.16,0,0,1,2.42-1.89,2.69,2.69,0,0,1,2.52,1.28l-1.21.61a1.47,1.47,0,0,0-1.31-.71c-.67,0-1,.32-1,.67s.49.51,1.41.71,2.18.56,2.18,1.86a2.25,2.25,0,0,1-2.53,2A2.78,2.78,0,0,1,24.57,50.43Z"/><path class="cls-9" d="M30.13,45.63h1.06v-.94l1.43-1v1.92h1.25V46.9H32.62v2.31c0,1.08.16,1.25,1.25,1.25V51.8h-.2c-1.9,0-2.48-.61-2.48-2.58V46.9H30.13Z"/><path class="cls-9" d="M34.56,45.63H36v.72a2.14,2.14,0,0,1,1.76-.85,2.12,2.12,0,0,1,2,1.07,2.35,2.35,0,0,1,2-1.07,2.3,2.3,0,0,1,2.51,2.59V51.8H42.82V48.2a1.28,1.28,0,0,0-1.34-1.46c-.77,0-1.36.52-1.36,1.61V51.8H38.67V48.16c0-.89-.44-1.42-1.3-1.42S36,47.28,36,48.38V51.8H34.56Z"/><path class="cls-9" d="M44.88,48.73a3.19,3.19,0,0,1,3.21-3.23,3.08,3.08,0,0,1,3.17,3.18v.53h-5a1.83,1.83,0,0,0,1.9,1.46,1.8,1.8,0,0,0,1.71-1.09l1.17.68a3.09,3.09,0,0,1-2.88,1.66A3.13,3.13,0,0,1,44.88,48.73ZM46.32,48h3.5a1.63,1.63,0,0,0-1.73-1.26A1.8,1.8,0,0,0,46.32,48Z"/><path class="cls-9" d="M51.89,45.63h1.42v.76a2.24,2.24,0,0,1,1.84-.89,2.32,2.32,0,0,1,2.45,2.64V51.8H56.15V48.29c0-1-.46-1.55-1.39-1.55a1.47,1.47,0,0,0-1.44,1.67V51.8H51.89Z"/><path class="cls-9" d="M57.94,45.63H59v-.94l1.43-1v1.92h1.26V46.9H60.42v2.31c0,1.08.16,1.25,1.26,1.25V51.8h-.2c-1.91,0-2.49-.61-2.49-2.58V46.9H57.94Z"/><polygon class="cls-9" points="9.79 9.68 3.86 9.68 3.86 41.48 21.42 41.48 21.42 35.81 9.79 35.81 9.79 9.68"/><path class="cls-8" d="M27.26,43.09c-7.67,0-12.63-5-12.63-12.59V8.5h8.28V30.85a4.26,4.26,0,0,0,4.31,4.4,4.36,4.36,0,0,0,4.4-4.4V8.5h8.27v22C39.89,38.14,34.94,43.09,27.26,43.09Z"/><path class="cls-9" d="M38.72,9.68H32.79V30.85a5.53,5.53,0,0,1-5.57,5.57,5.43,5.43,0,0,1-5.49-5.57V9.68H15.81V30.5c0,7.45,4.83,11.41,11.45,11.41S38.72,38,38.72,30.5Z"/><path class="cls-10" d="M45.69,27.26l-.89-1.44c-2.88,5.64-6.47,10.65-13.69,14.36L33.55,42a5.38,5.38,0,0,0,6.25.2,24.22,24.22,0,0,0,5.89-5.89C47.61,32.51,45.69,27.26,45.69,27.26Z"/><path class="cls-9" d="M58.14,13.62a42.45,42.45,0,0,1,2.61-4.27c-2.32,0-4.65,0-7,0a79.34,79.34,0,0,0-5.32,10.2l3.87,6.27C54.31,21.64,56.13,17.35,58.14,13.62Z"/><polygon class="cls-9" points="45.69 27.26 47.47 30.15 48.54 31.87 54.47 41.48 61.14 41.48 51.56 25.97 47.69 19.7 41.49 9.68 34.83 9.68 44.8 25.82 45.69 27.26 45.69 27.26"/></g></g></svg>