<svg width="65" height="65" viewBox="0 0 65 65" fill="none" xmlns="http://www.w3.org/2000/svg">
<path d="M1.99139 22.6745C1.99139 22.4459 2.097 22.3316 2.30821 22.3316H4.43539C4.63152 22.3316 4.72958 22.4459 4.72958 22.6745V36.9651C4.72958 37.0565 4.74466 37.1251 4.77484 37.1709C4.8201 37.2014 4.88043 37.2166 4.95588 37.2166H12.6047C12.7103 37.2166 12.7857 37.2395 12.831 37.2852C12.8913 37.3157 12.9215 37.3843 12.9215 37.491V39.0001C12.9215 39.1982 12.8159 39.2973 12.6047 39.2973H2.3761C2.24032 39.2973 2.14226 39.2668 2.08191 39.2058C2.02157 39.1449 1.99139 39.0534 1.99139 38.9315V22.6745ZM27.2084 33.4439C27.2084 35.5627 26.6804 37.1099 25.6243 38.0855C24.5683 39.0458 23.0069 39.5259 20.94 39.5259C18.7525 39.5259 17.1609 39.0001 16.1651 37.9483C15.1694 36.8813 14.6716 35.2502 14.6716 33.0552V22.6974C14.6716 22.4535 14.7697 22.3316 14.9658 22.3316H17.1156C17.3117 22.3316 17.4098 22.4459 17.4098 22.6745V33.5354C17.4098 36.1572 18.6544 37.4681 21.1437 37.4681C23.6782 37.4681 24.9454 36.1343 24.9454 33.4668V22.6745C24.9454 22.4459 25.036 22.3316 25.217 22.3316H26.9369C27.1179 22.3316 27.2084 22.4383 27.2084 22.6517V33.4439ZM47.8383 22.3316C48.0345 22.3316 48.1325 22.4459 48.1325 22.6745V38.8629C48.1325 39.0306 48.0948 39.1449 48.0193 39.2058C47.959 39.2668 47.8383 39.2973 47.6573 39.2973H45.8016C45.6508 39.2973 45.5452 39.2744 45.4848 39.2287C45.4245 39.1677 45.3943 39.0686 45.3943 38.9315V22.6745C45.3943 22.4459 45.4999 22.3316 45.7111 22.3316H47.8383ZM61.413 25.7613C60.9753 25.2583 60.4625 24.8619 59.8741 24.5723C59.2858 24.2827 58.5688 24.1379 57.7243 24.1379C56.653 24.1379 55.8157 24.3665 55.2124 24.8238C54.6241 25.2659 54.3299 25.8833 54.3299 26.6759C54.3299 27.7277 55.0689 28.5051 56.5476 29.0081L59.942 30.0828C62.5064 30.8907 63.7891 32.415 63.7891 34.6557C63.7891 36.1648 63.2305 37.3538 62.1145 38.2226C61.0128 39.0915 59.4967 39.5259 57.5659 39.5259C56.1325 39.5259 54.8653 39.2744 53.7641 38.7714C52.6625 38.2684 51.8103 37.5519 51.207 36.6221C51.1463 36.5001 51.1165 36.424 51.1165 36.3935C51.1165 36.2715 51.1916 36.1572 51.3428 36.0505L52.4516 35.2731C52.5874 35.1816 52.7078 35.1359 52.8137 35.1359C52.9191 35.1359 53.0097 35.1893 53.0852 35.2959C53.7035 36.1039 54.3145 36.6755 54.9182 37.0108C55.5365 37.3461 56.3665 37.5138 57.4075 37.5138C58.5842 37.5138 59.5044 37.3081 60.1683 36.8965C60.8318 36.4849 61.164 35.8447 61.164 34.9758C61.164 34.4271 60.9902 33.9698 60.6435 33.6039C60.3113 33.2229 59.7003 32.8723 58.8105 32.5522L55.3935 31.4318C54.1715 31.0202 53.2509 30.4181 52.6327 29.6255C52.0289 28.8328 51.7275 27.9487 51.7275 26.9731C51.7275 26.0128 51.9764 25.1668 52.4742 24.4351C52.9721 23.6882 53.6659 23.1166 54.5562 22.7203C55.4614 22.3087 56.5023 22.1029 57.6791 22.1029C58.8404 22.1029 59.8891 22.3087 60.8246 22.7203C61.775 23.1318 62.5517 23.6958 63.1554 24.4123C63.2305 24.4885 63.2686 24.5723 63.2686 24.6638C63.2686 24.7552 63.2305 24.8315 63.1554 24.8924L61.8655 25.8985C61.8049 25.9442 61.7447 25.9671 61.6845 25.9671C61.6392 25.9671 61.5487 25.8985 61.413 25.7613Z" fill="#0F143E"/>
<path d="M2.70786 42.3875C2.70786 42.3148 2.74637 42.2785 2.82341 42.2785H7.05274C7.12463 42.2785 7.1606 42.3148 7.1606 42.3875V42.8856C7.1606 42.9479 7.12463 42.979 7.05274 42.979H5.52741C5.4966 42.979 5.47604 42.9842 5.46578 42.9946C5.45553 43.005 5.45037 43.0232 5.45037 43.0491V47.9373C5.45037 48.0151 5.41441 48.0541 5.34252 48.0541H4.61837C4.55161 48.0541 4.51823 48.0177 4.51823 47.9451V43.0646C4.51823 43.0283 4.51052 43.005 4.49511 42.9946C4.48484 42.9842 4.4643 42.979 4.43348 42.979H2.81571C2.74381 42.979 2.70786 42.9479 2.70786 42.8856V42.3875ZM20.9521 47.8906C20.9624 47.9217 20.9676 47.9425 20.9676 47.9529C20.9676 47.9788 20.9573 48.0021 20.9367 48.0229C20.9162 48.0437 20.8905 48.0541 20.8597 48.0541H20.1124C20.0508 48.0541 20.0046 48.0177 19.9738 47.9451L19.0339 45.5788C19.0134 45.5165 18.9492 45.4854 18.8413 45.4854H17.7166C17.655 45.4854 17.6241 45.514 17.6241 45.571V47.9139C17.6241 47.9659 17.6113 48.0021 17.5856 48.0229C17.5651 48.0437 17.5292 48.0541 17.4778 48.0541H16.823C16.7767 48.0541 16.7434 48.0437 16.7228 48.0229C16.7023 48.0021 16.692 47.971 16.692 47.9295V42.3952C16.692 42.3537 16.6997 42.3252 16.7151 42.3096C16.7305 42.2888 16.7588 42.2785 16.7999 42.2785H19.0262C19.6631 42.2785 20.1561 42.4108 20.5053 42.6755C20.8546 42.9349 21.0292 43.3112 21.0292 43.8041C21.0292 44.2037 20.9213 44.5306 20.7056 44.7849C20.4951 45.0392 20.2332 45.2155 19.9199 45.3142C19.889 45.3245 19.8788 45.3557 19.889 45.4076L20.9521 47.8906ZM18.8413 44.8238C19.2522 44.8238 19.5578 44.7459 19.7581 44.5903C19.9635 44.4346 20.0662 44.1959 20.0662 43.8742C20.0662 43.5628 19.9712 43.3293 19.7812 43.1736C19.5963 43.0179 19.3267 42.9401 18.9723 42.9401H17.7474C17.7012 42.9401 17.6678 42.9479 17.6473 42.9635C17.6319 42.9738 17.6241 42.9972 17.6241 43.0335V44.7148C17.6241 44.7874 17.6524 44.8238 17.7089 44.8238H18.8413ZM30.3977 48.0541C30.336 48.0541 30.3052 48.0229 30.3052 47.9606L30.3206 47.8906L32.2851 42.403C32.3005 42.3563 32.321 42.3252 32.3467 42.3096C32.3724 42.2888 32.4083 42.2785 32.4545 42.2785H33.2326C33.3302 42.2785 33.3944 42.3226 33.4252 42.4108L35.3743 47.8984C35.3794 47.9087 35.382 47.9269 35.382 47.9529C35.382 48.0203 35.3537 48.0541 35.2972 48.0541H34.5654C34.4986 48.0541 34.455 48.0229 34.4344 47.9606L33.9414 46.5751C33.9311 46.5492 33.9209 46.531 33.9105 46.5206C33.9003 46.5103 33.8797 46.5051 33.8489 46.5051H31.715C31.6688 46.5051 31.638 46.5259 31.6225 46.5674L31.1218 47.9762C31.1064 48.0281 31.0628 48.0541 30.9908 48.0541H30.3977ZM33.6101 45.7734C33.6461 45.7734 33.6666 45.7656 33.6717 45.7501C33.682 45.7293 33.682 45.7008 33.6717 45.6644L32.8397 43.3293C32.8243 43.293 32.8064 43.2748 32.7858 43.2748C32.7653 43.2748 32.7473 43.2956 32.7319 43.3371L31.8768 45.6722L31.8691 45.7189C31.8691 45.7553 31.8922 45.7734 31.9384 45.7734H33.6101ZM45.0594 42.2785C45.6757 42.2785 46.1328 42.2811 46.4307 42.2863C47.463 42.307 48.2204 42.5561 48.7033 43.0335C49.191 43.5109 49.4351 44.2114 49.4351 45.1351C49.4351 46.09 49.1785 46.8164 48.6648 47.3146C48.151 47.8076 47.3834 48.0541 46.3614 48.0541H45.0671C44.9747 48.0541 44.9285 48.0074 44.9285 47.9139V42.3952C44.9285 42.3537 44.9387 42.3252 44.9593 42.3096C44.9799 42.2888 45.0132 42.2785 45.0594 42.2785ZM45.9223 42.9712C45.8812 42.9712 45.8606 43.0076 45.8606 43.0802V47.2757C45.8606 47.312 45.8658 47.3379 45.876 47.3535C45.8914 47.3639 45.9171 47.3691 45.9531 47.3691H46.2073C46.7363 47.3691 47.1651 47.2964 47.4938 47.1511C47.8225 47.0058 48.0664 46.7697 48.2257 46.4428C48.385 46.1159 48.4645 45.6826 48.4645 45.1429C48.4645 44.6136 48.3899 44.1959 48.2411 43.8897C48.0973 43.5784 47.8764 43.3552 47.5786 43.2203C47.2807 43.0802 46.8878 42.9998 46.3999 42.979L45.9223 42.9712ZM59.1144 42.3952C59.1144 42.3537 59.1221 42.3252 59.1375 42.3096C59.1529 42.2888 59.1813 42.2785 59.2222 42.2785H62.8121C62.8738 42.2785 62.9046 42.3122 62.9046 42.3797L62.8969 42.8701C62.8969 42.9479 62.8584 42.9868 62.7813 42.9868H60.1621C60.085 42.9868 60.0465 43.0205 60.0465 43.088V44.6915C60.0465 44.7589 60.0797 44.7926 60.1467 44.7926H62.0264C62.0933 44.7926 62.1265 44.8238 62.1265 44.8861V45.4076C62.1265 45.4646 62.0933 45.4932 62.0264 45.4932H60.139C60.0773 45.4932 60.0465 45.5217 60.0465 45.5788V47.2601C60.0465 47.2912 60.0518 47.3146 60.0619 47.3302C60.0773 47.3405 60.098 47.3457 60.1236 47.3457H62.8892C62.9301 47.3457 62.9585 47.3535 62.9739 47.3691C62.9893 47.3794 62.997 47.4028 62.997 47.4391V47.9529C62.997 48.0203 62.9609 48.0541 62.8892 48.0541H59.2453C59.1938 48.0541 59.1582 48.0463 59.1375 48.0307C59.1221 48.0099 59.1144 47.9762 59.1144 47.9295V42.3952Z" fill="#335C82"/>
<path d="M33.3514 22.7568H30.8148L40.1156 39.2973H42.3704L33.3514 22.7568Z" fill="#0F143E"/>
<path d="M31.3445 39.2584C31.3445 39.2584 32.4856 29.2854 40.0111 23.5595C43.9449 20.5627 48.5092 19.6676 52.3322 19.473L52.1541 17.0405C49.2652 17.2643 43.8437 18.1497 39.1541 22.1681C31.4504 28.7649 31.3445 39.2584 31.3445 39.2584Z" fill="url(#paint0_linear)"/>
<path d="M46.7037 16.9189C46.9894 16.9189 47.2687 16.8333 47.5062 16.673C47.7437 16.5126 47.9289 16.2847 48.0382 16.018C48.1475 15.7513 48.1761 15.4578 48.1204 15.1747C48.0647 14.8916 47.9271 14.6316 47.7251 14.4275C47.5231 14.2234 47.2657 14.0844 46.9855 14.028C46.7053 13.9717 46.4149 14.0006 46.151 14.1111C45.887 14.2216 45.6614 14.4086 45.5027 14.6486C45.3439 14.8886 45.2592 15.1708 45.2592 15.4595C45.2592 15.8465 45.4114 16.2178 45.6823 16.4915C45.9532 16.7652 46.3206 16.9189 46.7037 16.9189Z" fill="#0F143E"/>
<defs>
<linearGradient id="paint0_linear" x1="49.607" y1="14.0584" x2="32.3537" y2="40.1847" gradientUnits="userSpaceOnUse">
<stop stop-color="#2E557A"/>
<stop offset="1" stop-color="#5E93C5"/>
</linearGradient>
</defs>
</svg>
