<svg id="Layer_1" data-name="Layer 1" xmlns="http://www.w3.org/2000/svg" xmlns:xlink="http://www.w3.org/1999/xlink" viewBox="0 0 65 65"><defs><style>.cls-1{fill:#0f0f0f;}.cls-2{fill:url(#linear-gradient);}.cls-3{fill:url(#linear-gradient-2);}.cls-4{fill:url(#linear-gradient-3);}.cls-5{fill:url(#linear-gradient-4);}.cls-6{fill:url(#linear-gradient-5);}.cls-7{fill:url(#linear-gradient-6);}.cls-8{fill:url(#linear-gradient-7);}.cls-9{fill:url(#linear-gradient-8);}.cls-10{fill:url(#linear-gradient-9);}.cls-11{fill:url(#linear-gradient-10);}.cls-12{fill:url(#linear-gradient-11);}.cls-13{fill:url(#linear-gradient-12);}</style><linearGradient id="linear-gradient" x1="10.14" y1="58.36" x2="50.16" y2="3.67" gradientUnits="userSpaceOnUse"><stop offset="0" stop-color="#493013"/><stop offset="0.12" stop-color="#9e742d"/><stop offset="0.23" stop-color="#d8b166"/><stop offset="0.23" stop-color="#d9b467"/><stop offset="0.33" stop-color="#e7c77a"/><stop offset="0.42" stop-color="#efd585"/><stop offset="0.51" stop-color="#f3da89"/><stop offset="0.63" stop-color="#e9cb7e"/><stop offset="0.8" stop-color="#d8b166"/><stop offset="0.82" stop-color="#c39a50"/><stop offset="0.85" stop-color="#ad843d"/><stop offset="0.88" stop-color="#a17831"/><stop offset="0.91" stop-color="#9e742d"/><stop offset="1" stop-color="#493013"/></linearGradient><linearGradient id="linear-gradient-2" x1="15.51" y1="62.29" x2="55.53" y2="7.6" xlink:href="#linear-gradient"/><linearGradient id="linear-gradient-3" x1="18.02" y1="64.12" x2="58.04" y2="9.44" xlink:href="#linear-gradient"/><linearGradient id="linear-gradient-4" x1="21.67" y1="66.79" x2="61.69" y2="12.11" xlink:href="#linear-gradient"/><linearGradient id="linear-gradient-5" x1="25.48" y1="69.58" x2="65.5" y2="14.9" xlink:href="#linear-gradient"/><linearGradient id="linear-gradient-6" x1="27.9" y1="71.35" x2="67.92" y2="16.67" xlink:href="#linear-gradient"/><linearGradient id="linear-gradient-7" x1="31" y1="73.62" x2="71.02" y2="18.93" xlink:href="#linear-gradient"/><linearGradient id="linear-gradient-8" x1="7.55" y1="56.47" x2="47.57" y2="1.78" xlink:href="#linear-gradient"/><linearGradient id="linear-gradient-9" x1="23.61" y1="68.22" x2="63.63" y2="13.53" xlink:href="#linear-gradient"/><linearGradient id="linear-gradient-10" x1="27.67" y1="71.19" x2="67.69" y2="16.5" xlink:href="#linear-gradient"/><linearGradient id="linear-gradient-11" x1="31.76" y1="74.18" x2="71.78" y2="19.49" xlink:href="#linear-gradient"/><linearGradient id="linear-gradient-12" x1="34.9" y1="76.48" x2="74.92" y2="21.79" xlink:href="#linear-gradient"/></defs><title>marketsdock -App</title><rect class="cls-1" width="65" height="65.5"/><path class="cls-2" d="M14.86,45.7v.51h0a1.6,1.6,0,0,1,1.4-.7,1.79,1.79,0,0,1,1.64.9,1.81,1.81,0,0,1,.71-.66,2,2,0,0,1,.95-.24c1.21,0,1.82.78,1.82,2.34v3.56H19.77v-3a2.74,2.74,0,0,0-.21-1.31.62.62,0,0,0-.56-.29.69.69,0,0,0-.43.14,1.23,1.23,0,0,0-.26.31,1.49,1.49,0,0,0-.13.47,3,3,0,0,0,0,.45c0,.11,0,.25,0,.43v2.8H16.5V48a2.41,2.41,0,0,0,0-.4,1.47,1.47,0,0,0-.12-.4.8.8,0,0,0-.23-.26.65.65,0,0,0-.39-.12.71.71,0,0,0-.49.17.78.78,0,0,0-.26.47,3.55,3.55,0,0,0-.09.52c0,.14,0,.32,0,.55v2.89H13.23V45.7Z"/><path class="cls-3" d="M27.85,45.7v5.71h-1.6v-.52h0a1.84,1.84,0,0,1-1.54.71,2.32,2.32,0,0,1-1.92-.92,3.46,3.46,0,0,1-.71-2.16,3.34,3.34,0,0,1,.71-2.11,2.3,2.3,0,0,1,1.89-.9,2,2,0,0,1,1.6.72V45.7Zm-3.77,4a1.15,1.15,0,0,0,1,.49,1.2,1.2,0,0,0,1-.49,1.81,1.81,0,0,0,0-2.22,1.23,1.23,0,0,0-1-.49,1.18,1.18,0,0,0-1,.49,1.81,1.81,0,0,0,0,2.22Z"/><path class="cls-4" d="M30.23,45.7v.59h0a1.61,1.61,0,0,1,1.42-.78,2,2,0,0,1,.68.14l-.2,1.51a1.14,1.14,0,0,0-.68-.21,1.25,1.25,0,0,0-.56.12,1,1,0,0,0-.37.29,1.5,1.5,0,0,0-.2.44,2.53,2.53,0,0,0-.09.5,4.52,4.52,0,0,0,0,.54v2.57H28.6V45.7Z"/><path class="cls-5" d="M34.5,43.82v4h0l1.71-2.09h2.12l-2.41,2.51,2.59,3.2H36.39L34.52,49h0v2.43H32.87V43.82Z"/><path class="cls-6" d="M43.52,48.81H39.77A2.12,2.12,0,0,0,40,49.9a.93.93,0,0,0,.85.45,1.2,1.2,0,0,0,1.1-.78l1.5.25a2.47,2.47,0,0,1-1,1.31,2.82,2.82,0,0,1-1.61.47,2.68,2.68,0,0,1-2.07-.84A3,3,0,0,1,38,48.61a3.38,3.38,0,0,1,.72-2.23,2.51,2.51,0,0,1,2.05-.87,2.43,2.43,0,0,1,2,.87,3.48,3.48,0,0,1,.68,2.24Zm-3.71-1H42a1.58,1.58,0,0,0-.36-.81.89.89,0,0,0-.72-.34.94.94,0,0,0-.75.33A1.7,1.7,0,0,0,39.81,47.8Z"/><path class="cls-7" d="M46.11,47.07v4.34H44.48V47.07h-.56V45.7h.56V43.77h1.63V45.7h1v1.37Z"/><path class="cls-8" d="M51.1,46.1l-.7.95a1.24,1.24,0,0,0-.86-.4.53.53,0,0,0-.37.15.44.44,0,0,0-.17.34.37.37,0,0,0,.06.21.47.47,0,0,0,.19.18l.25.13.34.13.34.14a2.4,2.4,0,0,1,.85.6,1.49,1.49,0,0,1,.32,1A1.84,1.84,0,0,1,50.71,51a2.35,2.35,0,0,1-1.58.56,2.5,2.5,0,0,1-2-1l.74-1a1.67,1.67,0,0,0,1.21.66.7.7,0,0,0,.47-.17.59.59,0,0,0,.19-.45.54.54,0,0,0-.06-.25.51.51,0,0,0-.19-.2,1.62,1.62,0,0,0-.24-.14L48.91,49l-.33-.13a2.37,2.37,0,0,1-.83-.56,1.33,1.33,0,0,1-.31-.94A1.84,1.84,0,0,1,48,46a1.77,1.77,0,0,1,1.31-.52A2.71,2.71,0,0,1,51.1,46.1Z"/><polygon class="cls-9" points="13.46 36.08 30.73 18.81 21.12 18.81 21.12 11.23 43.93 11.23 43.93 34.28 36.19 34.28 36.19 24.28 18.85 41.62 51.35 41.62 51.35 3.5 13.38 3.5 13.46 36.08"/><path class="cls-10" d="M31.5,61.31v-.55h0a1.61,1.61,0,0,1-.68.54,2.1,2.1,0,0,1-.89.2,2.37,2.37,0,0,1-2-.94,3.51,3.51,0,0,1-.73-2.22,3.36,3.36,0,0,1,.73-2.16,2.36,2.36,0,0,1,1.94-.93,2.17,2.17,0,0,1,.9.19,1.81,1.81,0,0,1,.7.54h0V53.49h1.67v7.82Zm-2.22-1.8a1.24,1.24,0,0,0,2,0,1.86,1.86,0,0,0,0-2.28,1.25,1.25,0,0,0-2,0,1.86,1.86,0,0,0,0,2.28Z"/><path class="cls-11" d="M34.82,56.13a3.25,3.25,0,0,1,4.45,0,3.37,3.37,0,0,1,0,4.5,3.29,3.29,0,0,1-4.46,0,3.39,3.39,0,0,1,0-4.5Zm3.23,1.1a1.22,1.22,0,0,0-1-.5,1.2,1.2,0,0,0-1,.5,1.9,1.9,0,0,0,0,2.29,1.2,1.2,0,0,0,1,.5,1.22,1.22,0,0,0,1-.5,1.83,1.83,0,0,0,.39-1.14A1.89,1.89,0,0,0,38.05,57.23Z"/><path class="cls-12" d="M44.91,55.62v1.61a1.72,1.72,0,0,0-1.23-.57,1.27,1.27,0,0,0-1.08.53,1.92,1.92,0,0,0-.41,1.21,1.81,1.81,0,0,0,.43,1.21,1.41,1.41,0,0,0,1.12.48,1.56,1.56,0,0,0,1.17-.56v1.61a2.91,2.91,0,0,1-1.45.36,2.76,2.76,0,0,1-2.12-.91,3.31,3.31,0,0,1,0-4.43,2.89,2.89,0,0,1,2.19-.91A2.5,2.5,0,0,1,44.91,55.62Z"/><path class="cls-13" d="M47.62,53.49v4.1h0l1.76-2.15h2.18L49.1,58l2.67,3.29h-2.2l-1.93-2.5h0v2.5H46V53.49Z"/></svg>