<svg  xmlns="http://www.w3.org/2000/svg" xmlns:xlink="http://www.w3.org/1999/xlink" viewBox="0 0 65 58.59"><defs><style>.cls-1{fill:url(#linear-gradient);}.cls-2{fill:#085cd6;}</style><linearGradient id="linear-gradient" x1="1.28" y1="22.16" x2="62.05" y2="22.16" gradientUnits="userSpaceOnUse"><stop offset="0" stop-color="#cd0000"/><stop offset="1" stop-color="#085cd6"/></linearGradient></defs><title>mercuryo</title><polygon class="cls-1" points="4.23 42.84 1.28 42.84 1.28 1.48 21.79 1.48 32.3 18.37 42.8 1.48 62.05 1.48 62.05 4.43 44.44 4.43 32.3 23.97 20.15 4.43 4.23 4.43 4.23 42.84"/><polygon class="cls-2" points="63.07 56.87 45.84 56.87 45.84 26.68 32.3 46.43 18.76 26.68 18.76 56.87 3 56.87 3 53.91 15.8 53.91 15.8 17.14 32.3 41.21 48.79 17.14 48.79 53.91 60.12 53.91 60.12 17.97 63.07 17.97 63.07 56.87"/><circle class="cls-2" cx="62.05" cy="2.95" r="2.95"/><circle class="cls-2" cx="2.95" cy="55.64" r="2.95"/></svg>
