<svg id="Слой_1" data-name="Слой 1" xmlns="http://www.w3.org/2000/svg" viewBox="0 0 65 65"><defs><style>.cls-1{fill:#9a9a9a;}</style></defs><path class="cls-1" d="M13.7,6.15a6.22,6.22,0,0,0-.77,3.78A6.22,6.22,0,0,0,16,7.62a6.26,6.26,0,0,0,.76-3.78A6.17,6.17,0,0,0,13.7,6.15Z"/><path class="cls-1" d="M16.16,7.52a6.24,6.24,0,0,0-3.09,2.32,6.26,6.26,0,0,0,3.85.33A6.23,6.23,0,0,0,20,7.84,6.3,6.3,0,0,0,16.16,7.52Z"/><path class="cls-1" d="M24.57,56.46A6.57,6.57,0,0,1,25.89,60,7.49,7.49,0,0,1,22,57.5a4.54,4.54,0,0,1-.63-3.6A11.05,11.05,0,0,1,24.57,56.46Z"/><path class="cls-1" d="M22.7,62.09A4.51,4.51,0,0,0,25.91,60a14.38,14.38,0,0,0-4.69-.47,6,6,0,0,0-3.46,1.64A8.76,8.76,0,0,0,22.7,62.09Z"/><path class="cls-1" d="M19.94,54.43a6.56,6.56,0,0,1,.55,3.65A6.88,6.88,0,0,1,17.36,55a4.65,4.65,0,0,1,.09-3.59A10,10,0,0,1,19.94,54.43Z"/><path class="cls-1" d="M17.09,59.56A4.52,4.52,0,0,0,20.52,58a13.4,13.4,0,0,0-4.32-1.23,5.91,5.91,0,0,0-3.6,1A8.23,8.23,0,0,0,17.09,59.56Z"/><path class="cls-1" d="M16,51.69a6.27,6.27,0,0,1-.18,3.62,6.75,6.75,0,0,1-2.4-3.51,4.55,4.55,0,0,1,.75-3.46A9.44,9.44,0,0,1,16,51.69Z"/><path class="cls-1" d="M12.25,56.16a4.35,4.35,0,0,0,3.56-.91,12.43,12.43,0,0,0-3.89-1.93,5.79,5.79,0,0,0-3.65.35A7.91,7.91,0,0,0,12.25,56.16Z"/><path class="cls-1" d="M12.62,48.34a6.37,6.37,0,0,1-.83,3.48A6.63,6.63,0,0,1,10.09,48a4.59,4.59,0,0,1,1.34-3.24A9.06,9.06,0,0,1,12.62,48.34Z"/><path class="cls-1" d="M8.23,52a4.32,4.32,0,0,0,3.61-.27,12.21,12.21,0,0,0-3.42-2.54,5.64,5.64,0,0,0-3.61-.3A7.82,7.82,0,0,0,8.23,52Z"/><path class="cls-1" d="M10,44.5a6.12,6.12,0,0,1-1.43,3.24,6.7,6.7,0,0,1-1-4A4.46,4.46,0,0,1,9.43,40.8,8.93,8.93,0,0,1,10,44.5Z"/><path class="cls-1" d="M5.06,47.33a4.23,4.23,0,0,0,3.55.37,11.59,11.59,0,0,0-2.89-3.07,5.75,5.75,0,0,0-3.48-.94A7.92,7.92,0,0,0,5.06,47.33Z"/><path class="cls-1" d="M8.05,40.28A6.13,6.13,0,0,1,6.11,43.2a6.56,6.56,0,0,1-.29-4.1,4.43,4.43,0,0,1,2.31-2.54A9,9,0,0,1,8.05,40.28Z"/><path class="cls-1" d="M2.76,42.18a4.23,4.23,0,0,0,3.41,1,11.75,11.75,0,0,0-2.31-3.52A5.69,5.69,0,0,0,.61,38.12,8,8,0,0,0,2.76,42.18Z"/><path class="cls-1" d="M6.86,35.81a5.86,5.86,0,0,1-2.38,2.51,6.52,6.52,0,0,1,.4-4.08,4.31,4.31,0,0,1,2.69-2.08A9.06,9.06,0,0,1,6.86,35.81Z"/><path class="cls-1" d="M1.36,36.72a4.27,4.27,0,0,0,3.18,1.59,11.8,11.8,0,0,0-1.67-3.87,5.82,5.82,0,0,0-2.93-2.1A8,8,0,0,0,1.36,36.72Z"/><path class="cls-1" d="M6.45,31.18a5.79,5.79,0,0,1-2.76,2.06,6.72,6.72,0,0,1,1.08-4,4.24,4.24,0,0,1,3-1.58A9.09,9.09,0,0,1,6.45,31.18Z"/><path class="cls-1" d="M.91,31.1a4.23,4.23,0,0,0,2.85,2.13,12.31,12.31,0,0,0-1-4.12,5.76,5.76,0,0,0-2.51-2.6A8.25,8.25,0,0,0,.91,31.1Z"/><path class="cls-1" d="M6.84,26.53a5.67,5.67,0,0,1-3.06,1.54,6.85,6.85,0,0,1,1.75-3.74,4.21,4.21,0,0,1,3.21-1A9.23,9.23,0,0,1,6.84,26.53Z"/><path class="cls-1" d="M1.43,25.45a4.32,4.32,0,0,0,2.42,2.63,12.88,12.88,0,0,0-.24-4.27,5.88,5.88,0,0,0-2-3A8.29,8.29,0,0,0,1.43,25.45Z"/><path class="cls-1" d="M8.06,22a5.71,5.71,0,0,1-3.28,1,6.84,6.84,0,0,1,2.41-3.43,4.2,4.2,0,0,1,3.35-.48A9.87,9.87,0,0,1,8.06,22Z"/><path class="cls-1" d="M3,19.92A4.32,4.32,0,0,0,4.85,23a14,14,0,0,0,.55-4.32A5.93,5.93,0,0,0,4,15.26,8.59,8.59,0,0,0,3,19.92Z"/><path class="cls-1" d="M10.13,17.6A5.57,5.57,0,0,1,6.72,18a7.13,7.13,0,0,1,3.05-3,4.18,4.18,0,0,1,3.41.1A10.8,10.8,0,0,1,10.13,17.6Z"/><path class="cls-1" d="M5.53,14.65a4.24,4.24,0,0,0,1.25,3.4,15.31,15.31,0,0,0,1.4-4.24,6,6,0,0,0-.62-3.67A8.89,8.89,0,0,0,5.53,14.65Z"/><path class="cls-1" d="M13.09,13.55a5.44,5.44,0,0,1-3.47-.17,7.67,7.67,0,0,1,3.69-2.53,4,4,0,0,1,3.38.67A12,12,0,0,1,13.09,13.55Z"/><path class="cls-1" d="M9.17,9.77a4.34,4.34,0,0,0,.5,3.66A16.79,16.79,0,0,0,12,9.37a6.31,6.31,0,0,0,.22-3.83A9.84,9.84,0,0,0,9.17,9.77Z"/><path class="cls-1" d="M33.39,60.61l0-.42a25.49,25.49,0,0,1-10.1-1.12,26.75,26.75,0,0,1-8.82-4.84,28,28,0,0,1-10-18.15A34,34,0,0,1,5.62,20.49a20.8,20.8,0,0,1,8.8-11.14L14.2,9a21.23,21.23,0,0,0-9,11.35A34.4,34.4,0,0,0,4,36.13,28.45,28.45,0,0,0,14.17,54.55a27.19,27.19,0,0,0,9,4.91A25.92,25.92,0,0,0,33.39,60.61Z"/><path class="cls-1" d="M51.24,6.15A6.26,6.26,0,0,1,52,9.93a6.17,6.17,0,0,1-3.09-2.31,6.22,6.22,0,0,1-.77-3.78A6.22,6.22,0,0,1,51.24,6.15Z"/><path class="cls-1" d="M48.78,7.52a6.24,6.24,0,0,1,3.08,2.32,6.25,6.25,0,0,1-3.85.33,6.23,6.23,0,0,1-3.08-2.33A6.28,6.28,0,0,1,48.78,7.52Z"/><path class="cls-1" d="M40.37,56.46A6.63,6.63,0,0,0,39,60,7.5,7.5,0,0,0,42.9,57.5a4.63,4.63,0,0,0,.63-3.6A10.77,10.77,0,0,0,40.37,56.46Z"/><path class="cls-1" d="M42.24,62.09A4.55,4.55,0,0,1,39,60a14.46,14.46,0,0,1,4.7-.47,6,6,0,0,1,3.46,1.64A8.78,8.78,0,0,1,42.24,62.09Z"/><path class="cls-1" d="M45,54.43a6.4,6.4,0,0,0-.54,3.65A6.88,6.88,0,0,0,47.58,55a4.65,4.65,0,0,0-.09-3.59A9.81,9.81,0,0,0,45,54.43Z"/><path class="cls-1" d="M47.85,59.56A4.49,4.49,0,0,1,44.42,58a13.3,13.3,0,0,1,4.32-1.23,5.94,5.94,0,0,1,3.6,1A8.23,8.23,0,0,1,47.85,59.56Z"/><path class="cls-1" d="M49,51.69a6.47,6.47,0,0,0,.18,3.62,6.74,6.74,0,0,0,2.41-3.51,4.6,4.6,0,0,0-.75-3.46A9.55,9.55,0,0,0,49,51.69Z"/><path class="cls-1" d="M52.68,56.16a4.37,4.37,0,0,1-3.56-.91A12.57,12.57,0,0,1,53,53.32a5.83,5.83,0,0,1,3.66.35A8,8,0,0,1,52.68,56.16Z"/><path class="cls-1" d="M52.31,48.34a6.43,6.43,0,0,0,.84,3.48A6.65,6.65,0,0,0,54.84,48a4.55,4.55,0,0,0-1.34-3.24A9.24,9.24,0,0,0,52.31,48.34Z"/><path class="cls-1" d="M56.7,52a4.29,4.29,0,0,1-3.6-.27,12,12,0,0,1,3.42-2.54,5.64,5.64,0,0,1,3.61-.3A7.94,7.94,0,0,1,56.7,52Z"/><path class="cls-1" d="M55,44.5a6.15,6.15,0,0,0,1.42,3.24,6.6,6.6,0,0,0,1-4,4.54,4.54,0,0,0-1.86-2.92A8.93,8.93,0,0,0,55,44.5Z"/><path class="cls-1" d="M59.88,47.33a4.26,4.26,0,0,1-3.56.37,11.79,11.79,0,0,1,2.89-3.07,5.77,5.77,0,0,1,3.48-.94A7.86,7.86,0,0,1,59.88,47.33Z"/><path class="cls-1" d="M56.89,40.28a6.13,6.13,0,0,0,1.94,2.92,6.64,6.64,0,0,0,.29-4.1,4.46,4.46,0,0,0-2.32-2.54A9.1,9.1,0,0,0,56.89,40.28Z"/><path class="cls-1" d="M62.18,42.18a4.25,4.25,0,0,1-3.42,1,12,12,0,0,1,2.31-3.52,5.7,5.7,0,0,1,3.26-1.53A8,8,0,0,1,62.18,42.18Z"/><path class="cls-1" d="M58.07,35.81a5.91,5.91,0,0,0,2.39,2.51,6.68,6.68,0,0,0-.4-4.08,4.34,4.34,0,0,0-2.69-2.08A9,9,0,0,0,58.07,35.81Z"/><path class="cls-1" d="M63.57,36.72a4.26,4.26,0,0,1-3.18,1.59,12.2,12.2,0,0,1,1.68-3.87A5.78,5.78,0,0,1,65,32.34,8,8,0,0,1,63.57,36.72Z"/><path class="cls-1" d="M58.48,31.18a5.84,5.84,0,0,0,2.76,2.06,6.56,6.56,0,0,0-1.08-4,4.22,4.22,0,0,0-3-1.58A9,9,0,0,0,58.48,31.18Z"/><path class="cls-1" d="M64,31.1a4.23,4.23,0,0,1-2.85,2.13,12.59,12.59,0,0,1,1-4.12,5.82,5.82,0,0,1,2.51-2.6A8.05,8.05,0,0,1,64,31.1Z"/><path class="cls-1" d="M58.09,26.53a5.67,5.67,0,0,0,3.06,1.54,6.69,6.69,0,0,0-1.75-3.74,4.21,4.21,0,0,0-3.21-1A9.42,9.42,0,0,0,58.09,26.53Z"/><path class="cls-1" d="M63.5,25.45a4.29,4.29,0,0,1-2.42,2.63,13,13,0,0,1,.25-4.27,5.89,5.89,0,0,1,2-3A8.19,8.19,0,0,1,63.5,25.45Z"/><path class="cls-1" d="M56.88,22a5.69,5.69,0,0,0,3.27,1,6.79,6.79,0,0,0-2.4-3.43,4.2,4.2,0,0,0-3.35-.48A9.7,9.7,0,0,0,56.88,22Z"/><path class="cls-1" d="M62,19.92A4.33,4.33,0,0,1,60.09,23a14,14,0,0,1-.55-4.32,6,6,0,0,1,1.35-3.4A8.5,8.5,0,0,1,62,19.92Z"/><path class="cls-1" d="M54.81,17.6a5.57,5.57,0,0,0,3.41.42,7.25,7.25,0,0,0-3.06-3,4.15,4.15,0,0,0-3.4.1A10.48,10.48,0,0,0,54.81,17.6Z"/><path class="cls-1" d="M59.41,14.65a4.31,4.31,0,0,1-1.25,3.4,15.17,15.17,0,0,1-1.41-4.24,6.12,6.12,0,0,1,.62-3.67A9,9,0,0,1,59.41,14.65Z"/><path class="cls-1" d="M51.85,13.55a5.41,5.41,0,0,0,3.46-.17,7.68,7.68,0,0,0-3.68-2.53,4,4,0,0,0-3.38.67A11.88,11.88,0,0,0,51.85,13.55Z"/><path class="cls-1" d="M55.77,9.77a4.32,4.32,0,0,1-.51,3.66,17.17,17.17,0,0,1-2.32-4.06,6.4,6.4,0,0,1-.22-3.83A9.83,9.83,0,0,1,55.77,9.77Z"/><path class="cls-1" d="M31.55,60.61l0-.42a25.47,25.47,0,0,0,10.1-1.12,26.69,26.69,0,0,0,8.83-4.84,28.08,28.08,0,0,0,10-18.15,34.13,34.13,0,0,0-1.17-15.59A20.87,20.87,0,0,0,50.51,9.35L50.73,9a21.3,21.3,0,0,1,9,11.35A34.4,34.4,0,0,1,60.9,36.13,28.45,28.45,0,0,1,50.77,54.55a27.29,27.29,0,0,1-9,4.91A25.94,25.94,0,0,1,31.55,60.61Z"/><polygon class="cls-1" points="32.71 58.5 29.59 60.8 32.71 63.09 35.83 60.8 32.71 58.5"/><polygon class="cls-1" points="33.66 5.54 32.36 2.19 31.06 5.54 28.72 3.3 30.28 7.22 32.36 7.22 34.44 7.22 36 3.3 33.66 5.54"/><path class="cls-1" d="M14.18,20.09a.56.56,0,1,1-.56.56A.56.56,0,0,1,14.18,20.09Zm1.92.56a.56.56,0,1,0,.56-.56A.56.56,0,0,0,16.1,20.65Zm2.48,0a.56.56,0,1,0,.56-.56A.56.56,0,0,0,18.58,20.65Zm2.48,0a.56.56,0,1,0,.56-.56A.56.56,0,0,0,21.06,20.65Zm2.48,0a.56.56,0,1,0,.56-.56A.56.56,0,0,0,23.54,20.65Zm2.48,0a.56.56,0,1,0,.56-.56A.56.56,0,0,0,26,20.65Zm2.48,0a.56.56,0,1,0,.56-.56A.56.56,0,0,0,28.5,20.65Zm2.48,0a.56.56,0,1,0,.56-.56A.56.56,0,0,0,31,20.65Zm2.48,0a.56.56,0,1,0,.56-.56A.56.56,0,0,0,33.46,20.65Zm2.48,0a.56.56,0,1,0,.56-.56A.56.56,0,0,0,35.94,20.65Zm2.48,0a.56.56,0,1,0,.56-.56A.56.56,0,0,0,38.42,20.65Zm2.48,0a.56.56,0,1,0,.56-.56A.56.56,0,0,0,40.9,20.65Zm2.48,0a.56.56,0,1,0,.56-.56A.56.56,0,0,0,43.38,20.65Zm2.48,0a.56.56,0,1,0,.56-.56A.56.56,0,0,0,45.86,20.65Zm2.48,0a.56.56,0,1,0,.56-.56A.56.56,0,0,0,48.34,20.65Zm2.48,0a.56.56,0,1,0,.56-.56A.56.56,0,0,0,50.82,20.65Z"/><path class="cls-1" d="M14.18,43a.56.56,0,1,1-.56.56A.56.56,0,0,1,14.18,43Zm1.92.56a.56.56,0,1,0,.56-.56A.56.56,0,0,0,16.1,43.59Zm2.48,0a.56.56,0,1,0,.56-.56A.56.56,0,0,0,18.58,43.59Zm2.48,0a.56.56,0,1,0,.56-.56A.56.56,0,0,0,21.06,43.59Zm2.48,0A.56.56,0,1,0,24.1,43,.56.56,0,0,0,23.54,43.59Zm2.48,0a.56.56,0,1,0,.56-.56A.56.56,0,0,0,26,43.59Zm2.48,0a.56.56,0,1,0,.56-.56A.56.56,0,0,0,28.5,43.59Zm2.48,0a.56.56,0,1,0,.56-.56A.56.56,0,0,0,31,43.59Zm2.48,0A.56.56,0,1,0,34,43,.56.56,0,0,0,33.46,43.59Zm2.48,0A.56.56,0,1,0,36.5,43,.56.56,0,0,0,35.94,43.59Zm2.48,0A.56.56,0,1,0,39,43,.56.56,0,0,0,38.42,43.59Zm2.48,0a.56.56,0,1,0,.56-.56A.56.56,0,0,0,40.9,43.59Zm2.48,0a.56.56,0,1,0,.56-.56A.56.56,0,0,0,43.38,43.59Zm2.48,0a.56.56,0,1,0,.56-.56A.56.56,0,0,0,45.86,43.59Zm2.48,0A.56.56,0,1,0,48.9,43,.56.56,0,0,0,48.34,43.59Zm2.48,0a.56.56,0,1,0,.56-.56A.56.56,0,0,0,50.82,43.59Z"/><path class="cls-1" d="M15.75,30.53V25.75l-2,4.78h-.3l-2-4.78v4.78h-.72v-5.8h1l1.8,4.36,1.81-4.36h1v5.8Z"/><path class="cls-1" d="M19.52,30.53V28.08l-2.29-3.35h.84l1.8,2.69,1.81-2.69h.84l-2.28,3.35v2.45Z"/><path class="cls-1" d="M30.48,30.53V25.75l-2,4.78h-.3l-2-4.78v4.78h-.72v-5.8h1l1.8,4.36,1.81-4.36h1v5.8Z"/><path class="cls-1" d="M35.21,30.63A3,3,0,0,1,34,30.41a2.66,2.66,0,0,1-1.49-1.59,3.27,3.27,0,0,1-.21-1.19,3.31,3.31,0,0,1,.21-1.19,2.7,2.7,0,0,1,.58-1,2.75,2.75,0,0,1,.91-.63,3,3,0,0,1,1.18-.23,2.94,2.94,0,0,1,1.17.23,2.56,2.56,0,0,1,.91.63,2.88,2.88,0,0,1,.59,1,3.31,3.31,0,0,1,.21,1.19,3.27,3.27,0,0,1-.21,1.19,2.92,2.92,0,0,1-.59,1,2.56,2.56,0,0,1-.91.63A2.94,2.94,0,0,1,35.21,30.63Zm0-.64a2.13,2.13,0,0,0,.88-.18,2,2,0,0,0,.67-.49,2.77,2.77,0,0,0,.43-.75,2.85,2.85,0,0,0,.15-.94,2.89,2.89,0,0,0-.15-.94,2.5,2.5,0,0,0-.43-.75,2,2,0,0,0-.67-.49,2.27,2.27,0,0,0-1.77,0,1.94,1.94,0,0,0-.67.49,2.13,2.13,0,0,0-.43.75,2.89,2.89,0,0,0-.15.94,2.85,2.85,0,0,0,.15.94,2.33,2.33,0,0,0,.43.75,1.94,1.94,0,0,0,.67.49A2.14,2.14,0,0,0,35.21,30Z"/><path class="cls-1" d="M43.33,30.53,39.94,25.9v4.63h-.72v-5.8H40l3.34,4.53V24.73H44v5.8Z"/><path class="cls-1" d="M45.38,30.53v-5.8h3.8v.64H46.1v1.87h3v.64h-3v2h3.08v.64Z"/><path class="cls-1" d="M52,30.53V28.08l-2.29-3.35h.84l1.8,2.69,1.81-2.69H55l-2.28,3.35v2.45Z"/><path class="cls-1" d="M16.12,40.26V34.45H18.7a2.06,2.06,0,0,1,.68.11,1.4,1.4,0,0,1,.52.3,1.51,1.51,0,0,1,.32.47,1.73,1.73,0,0,1,.11.6,1.65,1.65,0,0,1-.08.51,1.26,1.26,0,0,1-.23.39,1.22,1.22,0,0,1-.32.28,1.43,1.43,0,0,1-.39.15,1.12,1.12,0,0,1,.44.17,1.22,1.22,0,0,1,.36.32,1.64,1.64,0,0,1,.24.43,1.48,1.48,0,0,1,.09.51,1.61,1.61,0,0,1-.11.63,1.22,1.22,0,0,1-.33.5,1.35,1.35,0,0,1-.53.32,1.9,1.9,0,0,1-.7.12ZM18.58,37a1,1,0,0,0,.75-.27,1,1,0,0,0,0-1.33,1,1,0,0,0-.75-.27H16.84V37Zm0,2.64a1.14,1.14,0,0,0,.79-.26,1,1,0,0,0,.29-.74,1.22,1.22,0,0,0-.07-.38,1,1,0,0,0-.21-.32,1.12,1.12,0,0,0-.33-.22,1.36,1.36,0,0,0-.47-.08H16.84v2Z"/><path class="cls-1" d="M25.74,40.26,25.22,39H22.33l-.51,1.29H21l2.33-5.81h.9l2.34,5.81Zm-2-5.06-1.24,3.12H25Z"/><path class="cls-1" d="M30.07,40.36a3,3,0,0,1-1.17-.22,2.87,2.87,0,0,1-.95-.61,3,3,0,0,1-.64-1,3.38,3.38,0,0,1,0-2.45,3,3,0,0,1,.64-.94,2.89,2.89,0,0,1,.95-.62,3.2,3.2,0,0,1,1.17-.21,2.71,2.71,0,0,1,.71.08,2.3,2.3,0,0,1,.6.25,2.21,2.21,0,0,1,.49.36,3.39,3.39,0,0,1,.4.45l-.61.34a2.05,2.05,0,0,0-.67-.6,1.83,1.83,0,0,0-.92-.24,2.35,2.35,0,0,0-.89.17,2.2,2.2,0,0,0-.71.49,2.46,2.46,0,0,0-.47.74,2.77,2.77,0,0,0,0,1.91,2.23,2.23,0,0,0,.47.74,2.06,2.06,0,0,0,.71.49,2.18,2.18,0,0,0,.89.18,1.83,1.83,0,0,0,.92-.24,2,2,0,0,0,.67-.61l.62.34a3.07,3.07,0,0,1-.9.82A2.47,2.47,0,0,1,30.07,40.36Z"/><path class="cls-1" d="M36.71,40.26l-2.2-2.62-.59.67v1.95H33.2V34.45h.72v3l2.57-3h.91L35,37.21l2.62,3Z"/><path class="cls-1" d="M40.47,40.26v-.58c.52-.41,1-.78,1.38-1.12a10.68,10.68,0,0,0,1-.93,4.38,4.38,0,0,0,.62-.81,1.52,1.52,0,0,0,.21-.75,1,1,0,0,0-.11-.48,1,1,0,0,0-.66-.52,1.61,1.61,0,0,0-.44-.06,2,2,0,0,0-.93.2,1.88,1.88,0,0,0-.65.53l-.44-.46a2.14,2.14,0,0,1,.86-.68,2.8,2.8,0,0,1,1.16-.24,2.45,2.45,0,0,1,.71.11,1.9,1.9,0,0,1,.62.31,1.54,1.54,0,0,1,.62,1.29,1.92,1.92,0,0,1-.21.87,3.78,3.78,0,0,1-.6.87,9.25,9.25,0,0,1-.89.87c-.34.3-.72.61-1.12.93h2.85v.65Z"/><path class="cls-1" d="M48.15,40.26V38.78H45.39v-.6l2.49-3.73h1v3.69h.82v.64h-.82v1.48Zm0-5.15-2,3h2Z"/></svg>