<?xml version="1.0" encoding="utf-8"?>
<!-- Generator: Adobe Illustrator 17.0.0, SVG Export Plug-In . SVG Version: 6.00 Build 0)  -->
<svg version="1.2" baseProfile="tiny" id="Слой_1"
	 xmlns="http://www.w3.org/2000/svg" xmlns:xlink="http://www.w3.org/1999/xlink" x="0px" y="0px" width="65px" height="65px"
	 viewBox="0 0 65 65" xml:space="preserve">
<g>
	
		<g id="_x36_a058d75-b409-425c-90f3-10dee0fb26ea" transform="matrix(3.226566791534424,0,0,3.226566791534424,146.0053910282675,120.93098965790549)">
		<path d="M-34-27.8L-34-27.8L-34-27.8c0-0.4-0.1-0.7-0.3-1l0,0l0,0c-0.2-0.3-0.5-0.4-0.9-0.4l0,0l0,0c-0.4,0-0.6,0.1-0.9,0.4l0,0
			l0,0c-0.2,0.3-0.3,0.6-0.3,1l0,0l0,0c0,0.4,0.1,0.7,0.3,1l0,0l0,0c0.2,0.3,0.5,0.4,0.9,0.4l0,0l0,0c0.3,0,0.6-0.1,0.9-0.4l0,0l0,0
			C-34.1-27-34-27.4-34-27.8z M-33.6-27.8L-33.6-27.8L-33.6-27.8c0,0.5-0.2,0.9-0.5,1.2l0,0l0,0c-0.3,0.3-0.7,0.5-1.2,0.5l0,0l0,0
			c-0.5,0-0.9-0.2-1.2-0.5l0,0l0,0c-0.3-0.3-0.4-0.7-0.4-1.2l0,0l0,0c0-0.5,0.2-0.9,0.5-1.2l0,0l0,0c0.3-0.3,0.7-0.5,1.2-0.5l0,0
			l0,0c0.5,0,0.9,0.2,1.2,0.5l0,0l0,0C-33.8-28.6-33.6-28.3-33.6-27.8z M-33-27.8l0,0.7l0,0.4l0,0c0,0.1,0,0.1,0,0.2l0,0l0,0
			c0,0,0,0.1,0,0.1l0,0l0.4,0.1v0.1l-0.6,0l-0.5,0v-0.1l0.3-0.1l0-0.7v-1.5l0-0.7l-0.3,0v-0.1l0.5,0h1.6l0,0c0,0.1,0,0.2,0,0.3l0,0
			l0,0c0,0.1,0.1,0.2,0.1,0.3l0,0l-0.1,0l-0.2-0.3l0,0c0,0,0,0-0.1,0l0,0l0,0c-0.1,0-0.2,0-0.3,0l0,0l0,0c-0.2,0-0.4,0-0.7,0l0,0
			h-0.2l0,0.3l0,0c0,0.2,0,0.4,0,0.6l0,0v0.3h0.2l0.6,0l0,0c0.1,0,0.1,0,0.2,0l0,0l0,0c0.1,0,0.1,0,0.1,0l0,0l0.1-0.2h0.1l0,0.4l0,0
			c0,0.1,0,0.1,0,0.2l0,0l0,0c0,0.1,0,0.1,0,0.2l0,0h-0.1l-0.1-0.2l-0.8,0H-33z M-28.9-29.2l-0.2-0.1v-0.1l0.5,0l0.4,0v0.1l-0.3,0
			l0,0c-0.2,0.2-0.3,0.5-0.5,0.7l0,0l-0.5,0.6l1.1,1.6l0.2,0v0.1l-0.5,0l-0.5,0v-0.1l0.2-0.1l-0.8-1.3l-0.8,1.3l0.3,0v0.1l-0.5,0
			l-0.5,0v-0.1l0.3-0.1l1.1-1.4l-1-1.4l-0.3,0v-0.1l0.5,0l0.5,0v0.1l-0.2,0.1l0.7,1.1l0.4-0.5L-28.9-29.2z M-27.1-27.8L-27.1-27.8
			v1.3l0.3,0.1l0.3,0l0,0c0.3,0,0.5-0.1,0.7-0.2l0,0l0,0c0.2-0.1,0.2-0.3,0.2-0.6l0,0l0,0c0-0.2-0.1-0.4-0.3-0.5l0,0l0,0
			c-0.2-0.1-0.4-0.1-0.8-0.1l0,0l0,0c0,0-0.1,0-0.1,0l0,0l0,0c-0.1,0-0.1,0-0.1,0l0,0l0,0C-26.9-27.8-27-27.8-27.1-27.8z
			 M-26.4-26.2l-0.9,0l-0.5,0v-0.1l0.3-0.1l0,0c0,0,0-0.1,0-0.1l0,0l0,0c0,0,0-0.1,0-0.2l0,0l0-0.4v-1.5l0-0.7l-0.3,0v-0.1l0.5,0
			l0.9,0l0,0c0.3,0,0.5,0.1,0.7,0.2l0,0l0,0c0.2,0.1,0.2,0.3,0.2,0.5l0,0l0,0c0,0.2-0.1,0.3-0.2,0.4l0,0l0,0
			c-0.1,0.1-0.1,0.1-0.2,0.2l0,0l0,0c-0.1,0-0.2,0.1-0.4,0.1l0,0l0,0c0.3,0,0.6,0.1,0.8,0.2l0,0l0,0c0.2,0.1,0.3,0.3,0.3,0.5l0,0
			l0,0c0,0.3-0.1,0.6-0.3,0.8l0,0l0,0C-25.7-26.3-26-26.2-26.4-26.2L-26.4-26.2z M-27.1-29.1v1.1l0.4,0l0,0c0.3,0,0.5-0.1,0.6-0.2
			l0,0l0,0c0.2-0.1,0.2-0.2,0.2-0.4l0,0l0,0c0-0.2-0.1-0.3-0.2-0.4l0,0l0,0c-0.1-0.1-0.3-0.1-0.5-0.1l0,0L-27.1-29.1z"/>
	</g>
	
		<g id="_x30_769d9de-ca7d-4943-a785-26dd038f8dfd" transform="matrix(0.3874109387397766,0,0,0.3874109387397766,147.64308035440575,164.18056237439836)">
		<path d="M-308-318.7c0-0.3,0-0.5-0.1-0.7c-0.1-0.2-0.2-0.4-0.3-0.5c-0.1-0.1-0.3-0.3-0.5-0.3c-0.2-0.1-0.4-0.1-0.7-0.1
			c-0.2,0-0.4,0-0.6,0.1c-0.2,0.1-0.4,0.2-0.5,0.3c-0.1,0.2-0.3,0.3-0.3,0.5c-0.1,0.2-0.1,0.4-0.1,0.7c0,0.3,0,0.5,0.1,0.7
			c0.1,0.2,0.2,0.4,0.3,0.5c0.1,0.2,0.3,0.3,0.5,0.3c0.2,0.1,0.4,0.1,0.6,0.1c0.2,0,0.5,0,0.7-0.1c0.2-0.1,0.4-0.2,0.5-0.3
			c0.1-0.1,0.3-0.3,0.3-0.5C-308-318.2-308-318.4-308-318.7z M-308.2-318.7c0,0.2,0,0.4-0.1,0.6c-0.1,0.2-0.2,0.3-0.3,0.5
			c-0.1,0.1-0.3,0.2-0.4,0.3c-0.2,0.1-0.3,0.1-0.5,0.1c-0.2,0-0.4,0-0.5-0.1c-0.2-0.1-0.3-0.2-0.4-0.3c-0.1-0.1-0.2-0.3-0.3-0.5
			c-0.1-0.2-0.1-0.4-0.1-0.6c0-0.2,0-0.4,0.1-0.6c0.1-0.2,0.2-0.3,0.3-0.5s0.3-0.2,0.4-0.3c0.2-0.1,0.3-0.1,0.5-0.1
			c0.2,0,0.4,0,0.5,0.1c0.2,0.1,0.3,0.2,0.4,0.3s0.2,0.3,0.3,0.5C-308.3-319.1-308.2-318.9-308.2-318.7z M-302.3-320.4h-0.2h-0.4
			v0.1c0,0.1,0,0.1,0.1,0.1h0c0,0,0.1,0,0.1,0c0,0,0.1,0,0.2,0v2.6c0,0,0,0.1,0,0.1l-2.2-2.9c0,0,0,0,0,0c0,0,0,0-0.1,0h-0.1h-0.4
			v0.1c0,0.1,0,0.1,0.1,0.1h0c0,0,0.1,0,0.1,0c0,0,0.1,0,0.2,0v3c-0.1,0-0.1,0-0.2,0c0,0-0.1,0-0.1,0h0c-0.1,0-0.1,0-0.1,0.1v0.1
			h0.4h0.2h0.4v-0.1c0-0.1,0-0.1-0.1-0.1h0c0,0-0.1,0-0.1,0c0,0-0.1,0-0.2,0v-2.6c0,0,0-0.1,0-0.1l2.2,2.9c0,0,0,0,0.1,0h0.1v-3.2
			c0.1,0,0.1,0,0.1,0s0.1,0,0.1,0h0c0.1,0,0.1,0,0.1-0.1v-0.1H-302.3z M-297-317.6c-0.1,0-0.1,0-0.1,0.1c0,0,0,0,0,0
			c0,0,0,0.1,0,0.1c0,0,0,0.1,0,0.2h-1.4v-3c0.1,0,0.1,0,0.2,0c0,0,0.1,0,0.1,0h0c0.1,0,0.1,0,0.1-0.1v-0.1h-0.4h-0.2h-0.4v0.1
			c0,0.1,0,0.1,0.1,0.1h0c0,0,0.1,0,0.1,0c0,0,0.1,0,0.2,0v3c-0.1,0-0.1,0-0.2,0c0,0-0.1,0-0.1,0h0c-0.1,0-0.1,0-0.1,0.1v0.1h0.4
			h1.8h0h0v-0.1v-0.2v-0.3H-297L-297-317.6z M-293.1-320.2C-293.1-320.2-293-320.2-293.1-320.2l0.1-0.2h-0.4h-0.2h-0.4v0.1
			c0,0.1,0,0.1,0.1,0.1h0c0,0,0.1,0,0.1,0s0.1,0,0.2,0v3c-0.1,0-0.1,0-0.2,0s-0.1,0-0.1,0h0c-0.1,0-0.1,0-0.1,0.1v0.1h0.4h0.2h0.4
			v-0.1c0-0.1,0-0.1-0.1-0.1h0c0,0-0.1,0-0.1,0c0,0-0.1,0-0.2,0v-3c0.1,0,0.1,0,0.2,0C-293.2-320.2-293.2-320.2-293.1-320.2
			L-293.1-320.2z M-287.2-320.4h-0.2h-0.4v0.1c0,0.1,0,0.1,0.1,0.1h0c0,0,0.1,0,0.1,0s0.1,0,0.2,0v2.6c0,0,0,0.1,0,0.1l-2.2-2.9
			c0,0,0,0,0,0c0,0,0,0-0.1,0h-0.1h-0.4v0.1c0,0.1,0,0.1,0.1,0.1h0c0,0,0.1,0,0.1,0s0.1,0,0.2,0v3c-0.1,0-0.1,0-0.2,0s-0.1,0-0.1,0
			h0c-0.1,0-0.1,0-0.1,0.1v0.1h0.4h0.2h0.4v-0.1c0-0.1,0-0.1-0.1-0.1h0c0,0-0.1,0-0.1,0s-0.1,0-0.2,0v-2.6c0,0,0-0.1,0-0.1l2.2,2.9
			c0,0,0,0,0.1,0h0.1v-3.2c0.1,0,0.1,0,0.2,0c0,0,0.1,0,0.1,0h0c0.1,0,0.1,0,0.1-0.1v-0.1H-287.2z M-283.7-320.4h-0.4v0.1
			c0,0.1,0,0.1,0.1,0.1h0c0,0,0.1,0,0.1,0c0,0,0.1,0,0.2,0v3c-0.1,0-0.1,0-0.2,0c0,0-0.1,0-0.1,0h0c-0.1,0-0.1,0-0.1,0.1v0.1h0.4h2
			v-0.2v-0.5h-0.1c-0.1,0-0.1,0-0.1,0.1c0,0,0,0,0,0.1s0,0.1,0,0.2s0,0.1,0,0.2h-1.5v-1.4h1.3v-0.2h-1.3v-1.4h1.5c0,0.2,0,0.3,0,0.4
			c0,0.1,0,0.1,0.1,0.1h0.1v-0.5v-0.2H-283.7z M-272.9-320.4h-0.1h-1.9h-0.4v0.1c0,0.1,0,0.1,0.1,0.1h0c0,0,0.1,0,0.1,0s0.1,0,0.2,0
			v3c-0.1,0-0.1,0-0.2,0s-0.1,0-0.1,0h0c-0.1,0-0.1,0-0.1,0.1v0.1h0.4h0.2h0.4v-0.1c0-0.1,0-0.1-0.1-0.1h0c0,0-0.1,0-0.1,0
			s-0.1,0-0.2,0v-1.4h1.3v-0.2h-1.3v-1.4h1.6c0,0.2,0,0.4,0,0.4c0,0.1,0,0.1,0.1,0.1h0.1L-272.9-320.4L-272.9-320.4z M-267-318.7
			c0-0.3,0-0.5-0.1-0.7c-0.1-0.2-0.2-0.4-0.3-0.5c-0.1-0.1-0.3-0.3-0.5-0.3c-0.2-0.1-0.4-0.1-0.7-0.1c-0.2,0-0.4,0-0.6,0.1
			c-0.2,0.1-0.4,0.2-0.5,0.3c-0.1,0.2-0.3,0.3-0.3,0.5c-0.1,0.2-0.1,0.4-0.1,0.7c0,0.3,0,0.5,0.1,0.7c0.1,0.2,0.2,0.4,0.3,0.5
			c0.1,0.2,0.3,0.3,0.5,0.3c0.2,0.1,0.4,0.1,0.6,0.1c0.2,0,0.5,0,0.7-0.1c0.2-0.1,0.4-0.2,0.5-0.3c0.1-0.1,0.3-0.3,0.3-0.5
			C-267-318.2-267-318.4-267-318.7z M-267.2-318.7c0,0.2,0,0.4-0.1,0.6c-0.1,0.2-0.2,0.3-0.3,0.5c-0.1,0.1-0.3,0.2-0.4,0.3
			c-0.2,0.1-0.3,0.1-0.6,0.1c-0.2,0-0.4,0-0.5-0.1c-0.2-0.1-0.3-0.2-0.4-0.3c-0.1-0.1-0.2-0.3-0.3-0.5c-0.1-0.2-0.1-0.4-0.1-0.6
			c0-0.2,0-0.4,0.1-0.6c0.1-0.2,0.2-0.3,0.3-0.5s0.3-0.2,0.4-0.3c0.2-0.1,0.3-0.1,0.5-0.1c0.2,0,0.4,0,0.6,0.1
			c0.2,0.1,0.3,0.2,0.4,0.3s0.2,0.3,0.3,0.5C-267.3-319.1-267.2-318.9-267.2-318.7z M-261.5-317.2L-261.5-317.2L-261.5-317.2
			c-0.1,0-0.1,0-0.2,0l-1-1.3c0,0-0.1-0.1-0.1-0.1c0.1,0,0.3,0,0.4-0.1c0.1-0.1,0.2-0.1,0.3-0.2c0.1-0.1,0.1-0.2,0.2-0.3
			c0-0.1,0.1-0.2,0.1-0.4c0-0.3-0.1-0.5-0.3-0.7c-0.2-0.1-0.5-0.2-0.9-0.2h-0.8h-0.4v0.1c0,0.1,0,0.1,0.1,0.1h0c0,0,0.1,0,0.1,0
			s0.1,0,0.2,0v3c-0.1,0-0.1,0-0.2,0s-0.1,0-0.1,0h0c-0.1,0-0.1,0-0.1,0.1v0.1h0.4h0.2h0.4v-0.1c0-0.1,0-0.1-0.1-0.1h0
			c0,0-0.1,0-0.1,0s-0.1,0-0.2,0v-1.3h0.4c0.1,0,0.1,0,0.1,0c0,0,0.1,0,0.1,0.1l1.1,1.4c0,0,0,0,0.1,0c0,0,0,0,0.1,0h0h0.2h0.1
			L-261.5-317.2C-261.4-317.2-261.4-317.2-261.5-317.2z M-263-318.7h-0.5v-1.5h0.6c0.3,0,0.5,0.1,0.7,0.2c0.2,0.1,0.2,0.3,0.2,0.5
			c0,0.1,0,0.2-0.1,0.3c0,0.1-0.1,0.2-0.2,0.2c-0.1,0.1-0.2,0.1-0.3,0.2C-262.7-318.7-262.8-318.7-263-318.7z M-258.2-320.4h-0.4
			v0.1c0,0.1,0,0.1,0.1,0.1h0c0,0,0.1,0,0.1,0c0,0,0.1,0,0.2,0v3c-0.1,0-0.1,0-0.2,0c0,0-0.1,0-0.1,0h0c-0.1,0-0.1,0-0.1,0.1v0.1
			h0.4h2v-0.2v-0.5h-0.1c-0.1,0-0.1,0-0.1,0.1c0,0,0,0,0,0.1s0,0.1,0,0.2c0,0.1,0,0.1,0,0.2h-1.5v-1.4h1.3v-0.2h-1.3v-1.4h1.5
			c0,0.2,0,0.3,0,0.4c0,0.1,0,0.1,0.1,0.1h0.1v-0.5v-0.2H-258.2z M-250.4-317.2L-250.4-317.2C-250.4-317.2-250.4-317.2-250.4-317.2
			c-0.1,0-0.1,0-0.2,0l-1.1-1.6l1-1.4c0,0,0.1,0,0.1,0c0,0,0.1,0,0.1,0h0c0.1,0,0.1,0,0.1-0.1v-0.1h-0.2h-0.1h-0.1h0h-0.5v0.1
			c0,0.1,0,0.1,0.1,0.1h0c0,0,0.1,0,0.1,0c0,0,0.1,0,0.2,0l-0.9,1.3c0,0,0,0,0,0c0,0,0,0,0,0l-0.9-1.3c0.1,0,0.1,0,0.1,0
			c0,0,0.1,0,0.1,0h0c0.1,0,0.1,0,0.1-0.1v-0.1h-0.5h0h-0.2h-0.1h-0.1v0.1c0,0.1,0,0.1,0.1,0.1h0c0,0,0,0,0.1,0s0.1,0,0.1,0l1,1.5
			l-1.1,1.5c0,0-0.1,0-0.1,0c0,0-0.1,0-0.1,0h0c-0.1,0-0.1,0-0.1,0.1v0.1h0.2h0.1h0.1h0h0.5v-0.1c0-0.1,0-0.1-0.1-0.1h0
			c0,0-0.1,0-0.1,0c0,0-0.1,0-0.1,0l0,0l0.9-1.4c0,0,0,0,0-0.1l1,1.4c-0.1,0-0.1,0-0.1,0s-0.1,0-0.1,0h0c-0.1,0-0.1,0-0.1,0.1v0.1
			h0.5h0h0.2h0.1h0.1L-250.4-317.2C-250.3-317.2-250.3-317.2-250.4-317.2z M-241.6-318.5c-0.1-0.1-0.3-0.2-0.6-0.3
			c0.1,0,0.2-0.1,0.3-0.1c0.1-0.1,0.2-0.1,0.2-0.2c0.1-0.1,0.1-0.1,0.1-0.2c0-0.1,0-0.2,0-0.3c0-0.1,0-0.3-0.1-0.4
			c0-0.1-0.1-0.2-0.2-0.3c-0.1-0.1-0.2-0.1-0.3-0.2c-0.1,0-0.3-0.1-0.5-0.1h-1h-0.4v0.1c0,0.1,0,0.1,0.1,0.1h0c0,0,0.1,0,0.1,0
			c0,0,0.1,0,0.2,0v3c-0.1,0-0.1,0-0.2,0c0,0-0.1,0-0.1,0h0c-0.1,0-0.1,0-0.1,0.1v0.1h0.4h1.1c0.2,0,0.3,0,0.5-0.1
			c0.1,0,0.3-0.1,0.4-0.2c0.1-0.1,0.2-0.2,0.2-0.3c0.1-0.1,0.1-0.2,0.1-0.4C-241.3-318.2-241.4-318.3-241.6-318.5z M-243.3-320.2
			h0.7c0.3,0,0.5,0.1,0.7,0.2c0.1,0.1,0.2,0.3,0.2,0.5c0,0.1,0,0.2,0,0.3c0,0.1-0.1,0.1-0.2,0.2c-0.1,0.1-0.2,0.1-0.3,0.2
			c-0.1,0-0.2,0.1-0.4,0.1h-0.7V-320.2z M-241.8-317.4c-0.2,0.1-0.4,0.2-0.7,0.2h-0.8v-1.4h0.8c0.1,0,0.3,0,0.4,0
			c0.1,0,0.2,0.1,0.3,0.1c0.1,0.1,0.1,0.1,0.2,0.2c0,0.1,0.1,0.2,0.1,0.3C-241.6-317.7-241.7-317.5-241.8-317.4z M-235.9-317.2
			L-235.9-317.2L-235.9-317.2c-0.1,0-0.2,0-0.2,0l-1-1.3c0,0-0.1-0.1-0.1-0.1c0.1,0,0.3,0,0.4-0.1c0.1-0.1,0.2-0.1,0.3-0.2
			c0.1-0.1,0.1-0.2,0.2-0.3c0-0.1,0.1-0.2,0.1-0.4c0-0.3-0.1-0.5-0.3-0.7c-0.2-0.1-0.5-0.2-0.9-0.2h-0.8h-0.4v0.1
			c0,0.1,0,0.1,0.1,0.1h0c0,0,0.1,0,0.1,0c0,0,0.1,0,0.2,0v3c-0.1,0-0.1,0-0.2,0c0,0-0.1,0-0.1,0h0c-0.1,0-0.1,0-0.1,0.1v0.1h0.4
			h0.2h0.4v-0.1c0-0.1,0-0.1-0.1-0.1h0c0,0-0.1,0-0.1,0c0,0-0.1,0-0.2,0v-1.3h0.4c0.1,0,0.1,0,0.1,0c0,0,0.1,0,0.1,0.1l1.1,1.4
			c0,0,0,0,0.1,0c0,0,0,0,0.1,0h0h0.2h0.1L-235.9-317.2C-235.8-317.2-235.8-317.2-235.9-317.2z M-237.4-318.7h-0.5v-1.5h0.6
			c0.3,0,0.5,0.1,0.7,0.2c0.2,0.1,0.2,0.3,0.2,0.5c0,0.1,0,0.2-0.1,0.3c0,0.1-0.1,0.2-0.2,0.2c-0.1,0.1-0.2,0.1-0.3,0.2
			C-237.1-318.7-237.2-318.7-237.4-318.7z M-230-318.7c0-0.3,0-0.5-0.1-0.7c-0.1-0.2-0.2-0.4-0.3-0.5c-0.1-0.1-0.3-0.3-0.5-0.3
			c-0.2-0.1-0.4-0.1-0.7-0.1s-0.4,0-0.6,0.1c-0.2,0.1-0.4,0.2-0.5,0.3c-0.1,0.2-0.3,0.3-0.3,0.5c-0.1,0.2-0.1,0.4-0.1,0.7
			c0,0.3,0,0.5,0.1,0.7c0.1,0.2,0.2,0.4,0.3,0.5c0.1,0.2,0.3,0.3,0.5,0.3c0.2,0.1,0.4,0.1,0.6,0.1s0.5,0,0.7-0.1
			c0.2-0.1,0.4-0.2,0.5-0.3c0.1-0.1,0.3-0.3,0.3-0.5C-230-318.2-230-318.4-230-318.7z M-230.2-318.7c0,0.2,0,0.4-0.1,0.6
			c-0.1,0.2-0.2,0.3-0.3,0.5c-0.1,0.1-0.3,0.2-0.4,0.3c-0.2,0.1-0.3,0.1-0.5,0.1c-0.2,0-0.4,0-0.5-0.1c-0.2-0.1-0.3-0.2-0.4-0.3
			c-0.1-0.1-0.2-0.3-0.3-0.5c-0.1-0.2-0.1-0.4-0.1-0.6c0-0.2,0-0.4,0.1-0.6c0.1-0.2,0.2-0.3,0.3-0.5c0.1-0.1,0.3-0.2,0.4-0.3
			c0.2-0.1,0.3-0.1,0.5-0.1c0.2,0,0.4,0,0.5,0.1c0.2,0.1,0.3,0.2,0.4,0.3s0.2,0.3,0.3,0.5C-230.3-319.1-230.2-318.9-230.2-318.7z
			 M-224.3-317.2L-224.3-317.2L-224.3-317.2c-0.1,0-0.2,0-0.2,0l-1.4-1.4c0,0-0.1-0.1-0.1-0.1c0,0-0.1,0-0.1,0c0,0,0.1,0,0.1,0
			c0,0,0.1,0,0.1-0.1l1.3-1.3h0.1c0,0,0,0,0.1,0h0c0.1,0,0.1,0,0.1-0.1v-0.1h-0.3h0h-0.6v0.1c0,0.1,0,0.1,0.1,0.1h0.1
			c0,0,0.1,0,0.1,0h0.1l-1.2,1.3c0,0,0,0-0.1,0c0,0,0,0-0.1,0c0,0,0,0-0.1,0c0,0-0.1,0-0.1,0h-0.2v-1.4c0.1,0,0.1,0,0.2,0
			c0,0,0.1,0,0.1,0h0c0.1,0,0.1,0,0.1-0.1v-0.1h-0.4h-0.2h-0.4v0.1c0,0.1,0,0.1,0.1,0.1h0c0,0,0.1,0,0.1,0c0,0,0.1,0,0.2,0v3
			c-0.1,0-0.1,0-0.2,0c0,0-0.1,0-0.1,0h0c-0.1,0-0.1,0-0.1,0.1v0.1h0.4h0.2h0.4v-0.1c0-0.1,0-0.1-0.1-0.1h0c0,0-0.1,0-0.1,0
			c0,0-0.1,0-0.2,0v-1.4h0.2c0,0,0.1,0,0.1,0c0,0,0,0,0.1,0c0,0,0,0,0.1,0c0,0,0,0,0,0l1.3,1.3c0,0-0.1,0-0.2,0h-0.1h-0.1
			c-0.1,0-0.1,0-0.1,0.1v0.1h0.6h0h0.1h0.2h0.1L-224.3-317.2C-224.2-317.2-224.3-317.2-224.3-317.2z M-221-320.4h-0.4v0.1
			c0,0.1,0,0.1,0.1,0.1h0c0,0,0.1,0,0.1,0c0,0,0.1,0,0.2,0v3c-0.1,0-0.1,0-0.2,0c0,0-0.1,0-0.1,0h0c-0.1,0-0.1,0-0.1,0.1v0.1h0.4h2
			v-0.2v-0.5h-0.1c-0.1,0-0.1,0-0.1,0.1c0,0,0,0,0,0.1s0,0.1,0,0.2c0,0.1,0,0.1,0,0.2h-1.5v-1.4h1.3v-0.2h-1.3v-1.4h1.5
			c0,0.2,0,0.3,0,0.4c0,0.1,0,0.1,0.1,0.1h0.1v-0.5v-0.2H-221z M-213.4-317.2L-213.4-317.2L-213.4-317.2c-0.1,0-0.2,0-0.2,0l-1-1.3
			c0,0-0.1-0.1-0.1-0.1c0.1,0,0.3,0,0.4-0.1c0.1-0.1,0.2-0.1,0.3-0.2c0.1-0.1,0.1-0.2,0.2-0.3c0-0.1,0.1-0.2,0.1-0.4
			c0-0.3-0.1-0.5-0.3-0.7c-0.2-0.1-0.5-0.2-0.9-0.2h-0.8h-0.4v0.1c0,0.1,0,0.1,0.1,0.1h0c0,0,0.1,0,0.1,0c0,0,0.1,0,0.2,0v3
			c-0.1,0-0.1,0-0.2,0c0,0-0.1,0-0.1,0h0c-0.1,0-0.1,0-0.1,0.1v0.1h0.4h0.2h0.4v-0.1c0-0.1,0-0.1-0.1-0.1h0c0,0-0.1,0-0.1,0
			c0,0-0.1,0-0.2,0v-1.3h0.4c0.1,0,0.1,0,0.1,0c0,0,0.1,0,0.1,0.1l1.1,1.4c0,0,0,0,0.1,0c0,0,0,0,0.1,0h0h0.2h0.1L-213.4-317.2
			C-213.3-317.2-213.3-317.2-213.4-317.2z M-214.9-318.7h-0.5v-1.5h0.6c0.3,0,0.5,0.1,0.7,0.2c0.2,0.1,0.2,0.3,0.2,0.5
			c0,0.1,0,0.2-0.1,0.3c0,0.1-0.1,0.2-0.2,0.2c-0.1,0.1-0.2,0.1-0.3,0.2C-214.6-318.7-214.8-318.7-214.9-318.7z"/>
	</g>
	<g>
		<g>
			<linearGradient id="SVGID_1_" gradientUnits="userSpaceOnUse" x1="-1.8958" y1="32.8504" x2="23.1137" y2="32.8504">
				<stop  offset="0" style="stop-color:#0D7CE9"/>
				<stop  offset="1" style="stop-color:#15CFF1"/>
			</linearGradient>
			<polygon fill="url(#SVGID_1_)" points="18.3,25.8 19.8,27.4 13.3,33.9 10.5,31 0,41.4 2.4,41.4 22.1,41.4 22.1,32.7 22.1,32.7 
				20.7,31.3 20.7,31.3 20.7,40.1 3.6,40.1 10.5,33.3 13.3,36.1 20.9,28.5 22.3,29.9 23.8,24.3 			"/>
		</g>
		<linearGradient id="SVGID_2_" gradientUnits="userSpaceOnUse" x1="-1.8958" y1="32.5675" x2="23.1137" y2="32.5675">
			<stop  offset="0" style="stop-color:#0D7CE9"/>
			<stop  offset="1" style="stop-color:#15CFF1"/>
		</linearGradient>
		<polygon fill="url(#SVGID_2_)" points="16,26 0,26 0,39.1 1.4,37.7 1.4,27.3 17.3,27.3 		"/>
	</g>
</g>
</svg>
