<svg xmlns="http://www.w3.org/2000/svg" width="65" height="65"><path d="M20.845 32.673v2.283l1.263.383-.265.592H18.1l-1.02.096.169-.693.767-.096v-6.444l-.97-.383.203-.592h.767l4.939-.163c.65.271 1.174.588 1.573.953.398.365.598.829.598 1.392 0 .564-.164 1.036-.493 1.418a3.15 3.15 0 01-1.26.874 5.898 5.898 0 01-1.624.381h-.904zm0-4.127v3.208l1.043.271c.147-.109.269-.323.366-.643.098-.319.147-.646.147-.981 0-.376-.017-.666-.051-.871a1.667 1.667 0 00-.158-.51l-.879-.592-.468.118zM31.568 35.734l-2.616.355c-.278-.12-.507-.378-.688-.772l-1.686.772a2.156 2.156 0 01-1.023-.696c-.257-.321-.386-.717-.386-1.187 0-.079.011-.177.034-.293l3.039-.987v-.896a1.706 1.706 0 00-.414-.417 2.555 2.555 0 00-.527-.293c.06.338.152.652.276.941l-1.77.761-.693-1.753 3.163-1.285c.207.045.469.133.786.265.318.132.637.332.958.6.321.269.54.604.657 1.006v1.99a3.03 3.03 0 00.017.471c.019.197.047.373.085.527.038.154.085.239.141.254l.44-.096.207.733zm-3.653-.992l.327-.056v-1.184l-.631.31a.55.55 0 00-.051.265c0 .251.118.473.355.665zM34.99 34.956l.97.378-.197.592-3.118.017-1.02.101.163-.693.767-.101v-3.715h-.823l-.135-.53 2.441-1.009.953.519v.35l1.353-.874c.03 0 .098.017.203.051.105.034.238.087.397.161.16.073.328.168.505.285l-1.15 1.81a8.019 8.019 0 00-.527-.474 6.167 6.167 0 00-.533-.366l-.248.141v3.357zM43.982 35.734l-2.616.355c-.278-.12-.507-.378-.688-.772l-1.686.772a2.156 2.156 0 01-1.023-.696c-.257-.321-.386-.717-.386-1.187 0-.079.011-.177.034-.293l3.039-.987v-.896a1.706 1.706 0 00-.414-.417 2.555 2.555 0 00-.527-.293c.06.338.152.652.276.941l-1.77.761-.693-1.753 3.163-1.285c.207.045.469.133.786.265.318.132.637.332.958.6.321.269.54.604.657 1.006v1.99a3.03 3.03 0 00.017.471c.019.197.047.373.085.527.038.154.085.239.141.254l.44-.096.207.733zm-3.653-.992l.327-.056v-1.184l-.631.31a.55.55 0 00-.051.265c0 .251.118.473.355.665zM50.637 35.492c.051.154.076.333.076.536 0 .492-.115.939-.344 1.339-.229.4-.678.736-1.347 1.006-.669.271-1.616.406-2.841.406-.241-.026-.52-.115-.837-.265a2.719 2.719 0 01-.823-.592c-.231-.244-.347-.513-.347-.806 0-.124.011-.235.034-.333l1.049-.868a2.132 2.132 0 01-.564-.617 2.022 2.022 0 01-.271-.77L46 33.874a6.62 6.62 0 01-.913-.251 1.39 1.39 0 01-.6-.431c-.164-.199-.245-.472-.245-.817 0-.331.137-.66.412-.989.274-.329.676-.614 1.204-.854.528-.24 1.153-.396 1.875-.468h.096c.545.117 1 .276 1.364.479.21-.143.333-.302.366-.479.007-.03-.009-.12-.051-.271a1.821 1.821 0 00-.124-.344l.045-.209 1.004-.321c.195.222.293.475.293.761 0 .109-.009.203-.028.282a.965.965 0 01-.341.555c-.186.16-.413.285-.679.375.304.293.457.646.457 1.06 0 .372-.168.725-.505 1.06-.336.335-.786.625-1.35.871a8.317 8.317 0 01-1.843.55l3.873.598c.166.153.276.307.327.461zm-2.404 2.229a1.55 1.55 0 00.296-.417 1 1 0 00.11-.431l-2.452-.547a2.596 2.596 0 01-.271-.073l-.35.412c.101.177.284.358.547.544.263.186.553.351.871.496.318.145.602.245.854.302.139-.065.271-.16.395-.286zm-1.582-6.153a1.2 1.2 0 00-.048.35c0 .15.017.292.051.426a.934.934 0 00.118.296l.817.541c.038-.105.069-.239.093-.4.024-.162.037-.297.037-.406 0-.199-.043-.396-.13-.592l-.744-.502a.631.631 0 00-.194.287zM56.139 30.607a2.7 2.7 0 01.832.939c.184.357.276.742.276 1.156 0 .583-.164 1.113-.493 1.59-.329.477-.785.872-1.367 1.184-.583.312-1.248.517-1.996.615h-.096c-.816-.226-1.431-.552-1.846-.981-.415-.428-.623-1.022-.623-1.781 0-.519.137-1.002.412-1.449a3.601 3.601 0 011.063-1.111 3.556 3.556 0 011.345-.569l.214.197.823-.412h.096c.536.145.99.353 1.36.622zm-1.468 3.52c.049-.293.073-.592.073-.896 0-.229-.02-.468-.059-.716a2.275 2.275 0 00-.149-.569l-.879-.682H53.6c-.083.162-.148.39-.197.685a5.517 5.517 0 00-.073.905c0 .222.02.446.059.674.039.227.089.409.149.544l.874.739h.062c.082-.163.148-.391.197-.684zM65.185 35.339l-.141.592h-3.36l.096-.586.293-.09v-3.118a.592.592 0 00-.006-.096l-.687-.721-.558.276v3.614l.485.152-.101.569h-2.751l-.817.096.135-.693.615-.096v-3.71h-.823l-.135-.53 2.441-1.009.953.519v.338l1.736-.857c.192 0 .446.081.764.242.318.162.595.371.832.629.237.257.355.525.355.803v3.292l.674.384zM18.256 37.952l.612-.052-.023.267-.588-.051v.599l.309.094-.066.145h-.917l-.25.023.041-.17.188-.023v-1.579l-.238-.094.05-.145h1.684l.004.651-.358-.011-.17-.476-.279-.021v.843zM19.181 38.977l.033-.17.151-.023v-.909h-.202l-.033-.13.598-.247.233.127v1.09l.166.094-.035.145h-.711l-.2.023zm.146-1.947l.539-.268.221.452-.539.269-.221-.453zM22.072 38.809l-.035.145h-.823l.023-.144.072-.022v-.764l-.001-.023-.168-.177-.137.068v.885l.119.037-.025.139h-.674l-.2.023.033-.17.151-.023v-.909h-.202l-.033-.13.598-.247.233.127v.083l.425-.21c.047 0 .109.02.187.059.078.04.146.091.204.154a.29.29 0 01.087.197v.807l.166.095zM23.732 38.905l-.641.087c-.068-.029-.124-.093-.168-.189l-.413.189a.528.528 0 01-.251-.171.452.452 0 01-.087-.363l.744-.242v-.22a.412.412 0 00-.102-.102.683.683 0 00-.129-.072c.015.083.037.16.068.231l-.434.186-.17-.43.775-.315c.051.011.115.033.193.065a.908.908 0 01.235.147.495.495 0 01.161.247v.488a1.023 1.023 0 00.025.244c.009.038.021.058.035.062l.108-.023.051.181zm-.895-.243l.08-.014v-.29l-.155.076a.14.14 0 00-.012.065c0 .062.029.116.087.163zM25.639 38.809l-.035.145h-.823l.023-.144.072-.022v-.764l-.001-.023-.168-.177-.137.068v.885l.119.037-.025.139h-.674l-.2.023.033-.17.151-.023v-.909h-.202l-.033-.13.598-.247.233.127v.083l.425-.21c.047 0 .109.02.187.059.078.04.146.091.204.154a.29.29 0 01.087.197v.807l.166.095zM26.14 38.954c-.171-.072-.29-.159-.355-.262a.64.64 0 01-.098-.35c0-.146.044-.283.133-.409a.95.95 0 01.376-.307 1.37 1.37 0 01.561-.129l.326.337-.472.286-.229-.318a1.083 1.083 0 00-.083.421c0 .047.005.098.015.154a.47.47 0 00.041.135l.163.151.492-.171.058.124-.541.372-.387-.034zM28.522 38.615l-.541.372-.384-.033c-.171-.072-.29-.159-.355-.262a.64.64 0 01-.098-.35c0-.149.046-.289.137-.418a.98.98 0 01.371-.311c.156-.077.324-.116.505-.116a.533.533 0 01.234.149c.067.072.1.186.1.344 0 .029-.001.062-.004.097l-.731.193a.917.917 0 00.018.128.42.42 0 00.035.104l.163.151.492-.17.058.122zm-.685-.815a1.036 1.036 0 00-.082.371l.24-.126a.8.8 0 00.004-.086l-.001-.04a.336.336 0 00-.161-.119z"/><g><linearGradient id="a" gradientUnits="userSpaceOnUse" x1="10.399" y1="28.936" x2="2.489" y2="34.39"><stop offset="0" stop-color="#ff0"/><stop offset=".526" stop-color="#ff7c15"/><stop offset="1" stop-color="#ec2e3d"/></linearGradient><path fill="url(#a)" d="M.547 27.655s5.718 5.335 11.737 3.885c0 0-.219 7.25-8.399 8.563 0 0 5.417-1.97 6.019-7.113 0 0-6.922.082-9.357-5.335z"/><linearGradient id="b" gradientUnits="userSpaceOnUse" x1="10.929" y1="29.704" x2="3.019" y2="35.158"><stop offset="0" stop-color="#ff0"/><stop offset=".526" stop-color="#ff7c15"/><stop offset="1" stop-color="#ec2e3d"/></linearGradient><path fill="url(#b)" d="M4.82 36.872a6.308 6.308 0 01-2.234-2.666 9.467 9.467 0 01-1.454-1.16 7.271 7.271 0 002.016 3.802 7.37 7.37 0 001.08.893 8.28 8.28 0 00.592-.869z"/><linearGradient id="c" gradientUnits="userSpaceOnUse" x1="11.008" y1="29.819" x2="3.099" y2="35.274"><stop offset="0" stop-color="#ff0"/><stop offset=".526" stop-color="#ff7c15"/><stop offset="1" stop-color="#ec2e3d"/></linearGradient><path fill="url(#c)" d="M13.506 26.49a7.276 7.276 0 00-5.179-2.145 7.28 7.28 0 00-5.179 2.145 7.361 7.361 0 00-1.033 1.295c.246.185.534.393.859.61.256-.417.563-.807.918-1.162a6.231 6.231 0 014.436-1.837c1.676 0 3.251.653 4.436 1.837a6.231 6.231 0 011.837 4.436 6.235 6.235 0 01-1.837 4.436 6.27 6.27 0 01-1.992 1.345 9.687 9.687 0 01-1.593 1.48l-.021.015a7.268 7.268 0 004.348-2.098 7.276 7.276 0 002.145-5.179 7.275 7.275 0 00-2.145-5.178z"/><linearGradient id="d" gradientUnits="userSpaceOnUse" x1="10.27" y1="28.749" x2="2.361" y2="34.204"><stop offset="0" stop-color="#ff0"/><stop offset=".526" stop-color="#ff7c15"/><stop offset="1" stop-color="#ec2e3d"/></linearGradient><path fill="url(#d)" d="M0 29.543s2.736 4.213 8.618 4.336c0 0-.766 3.536-4.309 5.113 0 0 1.742-1.619 2.202-4.066 0 0-5.225-1.06-6.511-5.383z"/><linearGradient id="e" gradientUnits="userSpaceOnUse" x1="10.971" y1="29.765" x2="3.062" y2="35.22"><stop offset="0" stop-color="#ff0"/><stop offset=".526" stop-color="#ff7c15"/><stop offset="1" stop-color="#ec2e3d"/></linearGradient><path fill="url(#e)" d="M7.466 30.61s1.269-1.882 4.132-1.777c.63.023 1.287.113 2.014.56 0 0-1.095-.114-1.215 1.206-1.797.694-4.931.011-4.931.011z"/></g></svg>