<svg id="Layer_1" data-name="Layer 1" xmlns="http://www.w3.org/2000/svg" viewBox="0 0 65 65"><defs><style>.cls-1{fill:#fff;}.cls-2{fill:#343434;}.cls-3{fill:#ff000a;}</style></defs><rect class="cls-1" width="65" height="65" rx="3.28"/><path class="cls-2" d="M5.94,10.53H3.5V4.94H18.67c4.4,0,7.37,2.79,7.37,7.19V27.78c0,4.4-3,7.19-7.43,7.19h-5.3V48.12H5.94ZM16.17,29.32c2.2,0,2.62-.77,2.62-2.55V13.32c0-1.78-.72-2.91-3-2.91H13.26V29.32Z"/><path class="cls-3" d="M32,19.81S43.18,54.15,3.66,59.74c0,0,44.69,6.62,45.31-39.93Z"/><path class="cls-3" d="M53.94,19.81s2.89,28.66-22.55,39.31c0,0,30.82-2.38,30.1-39.31Z"/></svg>