<svg id="Layer_1" data-name="Layer 1" xmlns="http://www.w3.org/2000/svg" viewBox="0 0 65 65"><defs><style>.cls-1{fill:#0f1014;}.cls-2{fill:none;}.cls-3{fill:#00ff50;}.cls-4{fill:#fff;}</style></defs><title>PrimoTrade - Max-EcoSales -App</title><rect class="cls-1" width="65" height="65"/><rect class="cls-2" width="65" height="65"/><path class="cls-3" d="M14.32,56.6H5l5.62-43.49,5.17-4.57h8.17c10.07,0,16.12,4,14.71,14.91C37.3,33.65,31.11,38.62,21.3,38.62H16.65Zm3.33-25.75h1.91c5.55,0,8.7-1.21,9.51-7.46s-2.66-7.07-7.89-7.07H19.53Z"/><path class="cls-3" d="M57.86,24.28a10.38,10.38,0,0,0-8.33,4.27h-.12l.42-3.25H45.48l-5.17,4.58L36.86,56.6h8.93L47.6,42.51c.63-4.84,2-10.32,8.16-10.32A5.78,5.78,0,0,1,59,33.1l1.1-8.52A8.9,8.9,0,0,0,57.86,24.28Z"/><path class="cls-4" d="M43.56,17.56H41.94l.69-5.4L43.94,11h1.34l-.74,5.69Z"/><path class="cls-4" d="M47.31,20.79H45.69l.7-5.39,1.31-1.15H49l-.74,5.68Z"/><path class="cls-4" d="M51.48,20.79H49.86L51.31,9.55,52.62,8.4H54L52.46,19.93Z"/></svg>