<svg id="Layer_1" data-name="Layer 1" xmlns="http://www.w3.org/2000/svg" viewBox="0 0 65 65"><defs><style>.cls-1{fill:#fff;}.cls-2{fill:#ffdc48;}</style></defs><title>PRIME FUNDER -App</title><rect width="65" height="65.5"/><path class="cls-1" d="M4.82,32.13V37.3H3.06V25.76H5.9a9,9,0,0,1,1.85.14,2.82,2.82,0,0,1,1,.46,2.63,2.63,0,0,1,.85,1.08,3.5,3.5,0,0,1,.31,1.5,3.58,3.58,0,0,1-.31,1.51,2.54,2.54,0,0,1-.85,1.09,2.81,2.81,0,0,1-1,.45,9,9,0,0,1-1.85.14H4.82Zm.12-1.54h.48a4.22,4.22,0,0,0,2.08-.34A1.35,1.35,0,0,0,8,29.05a1.46,1.46,0,0,0-.56-1.3,3.9,3.9,0,0,0-2-.38H4.94Z"/><path class="cls-1" d="M13.41,32.14V37.3H11.65V25.76h2.62a8.16,8.16,0,0,1,1.78.15,2.88,2.88,0,0,1,1.09.5A2.78,2.78,0,0,1,18,27.49a3.48,3.48,0,0,1,.29,1.45,3.2,3.2,0,0,1-.67,2.17,2.87,2.87,0,0,1-2,.94l4,5.25H17.46l-3.84-5.16Zm.12-1.46h.34a3.77,3.77,0,0,0,2-.34,1.41,1.41,0,0,0,.49-1.23,1.57,1.57,0,0,0-.52-1.35,3.45,3.45,0,0,0-1.94-.39h-.34Z"/><path class="cls-1" d="M20.72,37.3V25.76H22.6V37.3Z"/><path class="cls-1" d="M34.7,31.6c0-.08-.05-.33-.1-.74s-.08-.61-.11-.83a6.1,6.1,0,0,1-.2.79,7.53,7.53,0,0,1-.33.8l-3,6.15-3-6.28a6.74,6.74,0,0,1-.33-.74c-.09-.25-.17-.48-.24-.72,0,.24,0,.49-.06.76s-.09.54-.16.83L25.91,37.3H24.18l2.73-12,3.4,7.28a5.77,5.77,0,0,1,.24.57c.11.27.24.6.39,1,.11-.33.29-.75.52-1.26.07-.14.11-.25.15-.32l3.32-7.27,2.79,12H36Z"/><path class="cls-1" d="M39.22,37.3V25.76h6.44v1.6H41.09v2.89h4.57V31.9H41.09v3.72h4.57V37.3Z"/><path class="cls-1" d="M3,50.08V38.54H9.44v1.6H4.88V43H9.44v1.65H4.88v5.42Z"/><path class="cls-1" d="M10,38.54h1.85v7a3.34,3.34,0,0,0,.72,2.34,2.77,2.77,0,0,0,2.16.79,2.73,2.73,0,0,0,2.14-.79,3.34,3.34,0,0,0,.72-2.34v-7h1.88v7.18a4.73,4.73,0,0,1-1.18,3.51,4.92,4.92,0,0,1-3.56,1.16,4.89,4.89,0,0,1-3.56-1.16A4.74,4.74,0,0,1,10,45.72Z"/><path class="cls-1" d="M20.75,50.08v-12l7.33,7,.61.64c.2.22.42.48.64.76v-8h1.74v12l-7.48-7.18a8.68,8.68,0,0,1-1.11-1.29v8Z"/><path class="cls-1" d="M31.84,50.08V38.54h2.53a16.94,16.94,0,0,1,3.48.25,4.77,4.77,0,0,1,1.76.83,4.85,4.85,0,0,1,1.51,2,7.4,7.4,0,0,1,0,5.45,4.89,4.89,0,0,1-1.51,2,4.63,4.63,0,0,1-1.73.83,12.82,12.82,0,0,1-3,.25h-3Zm1.88-1.69H35.3a7.92,7.92,0,0,0,2-.18,2.83,2.83,0,0,0,1.13-.58,3.55,3.55,0,0,0,1-1.39,5.26,5.26,0,0,0,.33-1.94,5.2,5.2,0,0,0-.33-1.93,3.55,3.55,0,0,0-1-1.39,2.93,2.93,0,0,0-1.17-.58,9.18,9.18,0,0,0-2.13-.18H33.72Z"/><path class="cls-1" d="M42.78,50.08V38.54h6.44v1.6H44.66V43h4.56v1.64H44.66V48.4h4.56v1.68Z"/><path class="cls-1" d="M51.84,44.92v5.16H50.08V38.54H52.7a8.16,8.16,0,0,1,1.78.15,2.88,2.88,0,0,1,1.09.5,2.78,2.78,0,0,1,.82,1.08,3.45,3.45,0,0,1,.29,1.45A3.22,3.22,0,0,1,56,43.89a2.91,2.91,0,0,1-2,.94l4,5.25H55.89l-3.84-5.16ZM52,43.46h.33a3.67,3.67,0,0,0,2-.35,1.39,1.39,0,0,0,.49-1.23,1.57,1.57,0,0,0-.52-1.34,3.47,3.47,0,0,0-2-.39H52Z"/><path class="cls-2" d="M3,23.39a.17.17,0,0,1,0,.1c.2,0,.29,0,.5,0,5.83.11,11.62.19,17.48.27,1.38,0,3,0,4.39.07h.39l6.26.09,18.6.29c.87,0,1.45,0,2.27.11a.67.67,0,0,1,.52.3c.63,1.05,1.15,2.09,1.7,3.17a.38.38,0,0,1-.06.36c-1.81,1.46-3.56,2.92-5.36,4.38a1.14,1.14,0,0,1-.22.12c.08-.65.19-1.33.26-2s.17-1.58.23-2.38a4,4,0,0,0-.07-.68h-.14a2.69,2.69,0,0,0-.19.38c-.62,2.15-1.29,4.4-1.89,6.51-.15.52-.14.78.26,1s.71.22,1.1-.15c1.61-1.5,3.26-3.1,4.87-4.66.59-.57,1.2-1.23,1.78-1.81.08.14.2.36.26.5.92,2.07,1.85,4.12,2.81,6.16a1.71,1.71,0,0,0,.14.27c.18.27.45.37.61,0a3.07,3.07,0,0,0,.31-2.8c-.72-1.62-1.6-3.19-2.38-4.77a.52.52,0,0,1,.17-.78c1.21-1,2.42-2,3.64-2.92a2.92,2.92,0,0,0,.55-.5c.1-.13.22-.31.15-.47a.52.52,0,0,0-.45-.23c-.6-.05-1.25-.06-1.84-.08l-4.76-.18a.88.88,0,0,1-.71-.35c-2.1-2.49-3.93-5.14-5.92-7.71a3.53,3.53,0,0,0-.51-.58.32.32,0,0,0-.34-.05.29.29,0,0,0-.09.31,1.66,1.66,0,0,0,.24.48c1.58,2.49,2.82,5.21,4.52,7.62,0,.05.07.14.11.2-.21,0-.23,0-.42,0l-10.28,0c-4.43,0-11,0-15.92,0H25a8.42,8.42,0,0,0-.87,0c-4.49,0-9.24,0-13.66,0-2.51,0-4.51.06-6.92.12A4.53,4.53,0,0,0,3,23.39Zm52.1,1.05,4.5.12.06.11-3,2.39Z"/><polygon class="cls-2" points="23.68 50.14 23.68 45.42 28.47 50.14 23.68 50.14"/><polygon class="cls-2" points="27.96 38.55 27.96 43.27 23.18 38.55 27.96 38.55"/></svg>