<svg id="Слой_1" data-name="Слой 1" xmlns="http://www.w3.org/2000/svg" viewBox="0 0 65 65"><defs><style>.cls-1{fill:#42475b;}.cls-2{fill:#ffcf01;}</style></defs><path class="cls-1" d="M22.69,21.9a3.43,3.43,0,0,1-.62,1.71,3.74,3.74,0,0,1-1.36,1.13,8.09,8.09,0,0,1-3.67.8,4.86,4.86,0,0,1-.69-.05,15,15,0,0,0-1.22,4.19.69.69,0,0,0,.06.33H13.28A32.57,32.57,0,0,1,15,25a28.48,28.48,0,0,1,2.3-4.81,7.93,7.93,0,0,0-2.56.51c-.86.33-1.36.71-1.5,1.15a.06.06,0,0,1-.06.05c-.09,0-.13-.07-.13-.2a.7.7,0,0,1,0-.14,2.76,2.76,0,0,1,.81-1.26A2.43,2.43,0,0,1,15,19.78a6.42,6.42,0,0,1,1.26-.1H20a3.13,3.13,0,0,1,2,.57,1.82,1.82,0,0,1,.69,1.45Zm-3.94,3a4.1,4.1,0,0,0,1.73-1.14,2.58,2.58,0,0,0,.68-1.81c0-1.12-.68-1.73-2-1.82a21.33,21.33,0,0,0-2.37,4.41l-.31.73h.18A6.63,6.63,0,0,0,18.75,24.89Z"/><path class="cls-1" d="M25.65,24.06h.9a3.16,3.16,0,0,0-.63,1l-.6,1.21a10.52,10.52,0,0,0-.45,1.1,3.53,3.53,0,0,0-.24,1.11c0,.29.1.43.29.43a1.21,1.21,0,0,0,.54-.27,2.79,2.79,0,0,0,.58-.55,7.19,7.19,0,0,0,.5-.74l.48-.78a1.18,1.18,0,0,1,.23-.34c.07,0,.1.1.1.28a1,1,0,0,1-.15.52q-.63,1-1.05,1.62a5.35,5.35,0,0,1-1,1,1.72,1.72,0,0,1-1,.47c-.57,0-.85-.41-.85-1.24A6.55,6.55,0,0,1,23.58,27a7.85,7.85,0,0,1,1-2.06,1.66,1.66,0,0,1-1,.42.88.88,0,0,1-.34-.08A15.67,15.67,0,0,1,22,27.31c-.05,0-.08-.08-.08-.24a2,2,0,0,1,.18-.68c.13-.29.26-.57.4-.84a3.92,3.92,0,0,0,.23-.44.91.91,0,0,1-.53-.86.8.8,0,0,1,.19-.53.6.6,0,0,1,.51-.24.72.72,0,0,1,.53.21.88.88,0,0,0,0,.26.76.76,0,0,0,.29.63,1,1,0,0,0,.7.23h.18C24.94,24.3,25.29,24.06,25.65,24.06Z"/><path class="cls-1" d="M33.78,26.37c0-.06,0-.09.08-.09s.09.07.09.22a1.47,1.47,0,0,1-.57,1.18,1.71,1.71,0,0,1-1.06.46,1.3,1.3,0,0,1-.85-.28,5.25,5.25,0,0,1-1.27,1.66,2.9,2.9,0,0,1-1.89.61,1.62,1.62,0,0,1-1.2-.46,1.83,1.83,0,0,1-.47-1.37,4.86,4.86,0,0,1,.42-1.91,4.5,4.5,0,0,1,1.28-1.7,2.89,2.89,0,0,1,1.9-.71c1.17,0,1.76.63,1.76,1.87a4,4,0,0,1-.31,1.49.73.73,0,0,0,.63.31C32.84,27.65,33.32,27.23,33.78,26.37Zm-2.48-.92c0-.52-.27-.79-.71-.79-.68,0-1.34.67-2,2a4.66,4.66,0,0,0-.53,2c0,.59.26.9.77.93A1.51,1.51,0,0,0,30,28.89a7,7,0,0,0,.91-1.49,1.33,1.33,0,0,1-.5-1.08.9.9,0,0,1,.21-.63.74.74,0,0,1,.58-.24Z"/><path class="cls-1" d="M34.74,25.37a11,11,0,0,1-1.23,2.12s-.08-.08-.08-.24a.87.87,0,0,1,.09-.42,12.37,12.37,0,0,0,1.1-2.37.56.56,0,0,1,.13-.26.34.34,0,0,1,.25-.07h.12l1.3.11.31-.82.33-.9c.08-.21.2-.49.36-.85a6.39,6.39,0,0,1,.43-.84,5.56,5.56,0,0,1,.5-.7,2.88,2.88,0,0,1,.62-.6A2.85,2.85,0,0,1,40.6,19c1,0,1.54.38,1.54,1.14a1.22,1.22,0,0,1-.25.76.74.74,0,0,1-.64.35.52.52,0,0,1-.33-.11.28.28,0,0,1-.14-.24,1,1,0,0,1,.22-.46,1,1,0,0,0,.22-.55.46.46,0,0,0-.19-.38.64.64,0,0,0-.43-.14,1.23,1.23,0,0,0-.89.47,4.59,4.59,0,0,0-.81,1.24A23.89,23.89,0,0,0,37.73,24a.53.53,0,0,1,0,.11l-.08.2a8.65,8.65,0,0,0,2.67-.2,1.11,1.11,0,0,1-.83.62,11,11,0,0,1-2,.18L37,26.13a36.47,36.47,0,0,1-1.42,3.62c-.34.65-.66,1.22-1,1.69a7.11,7.11,0,0,1-.89,1.17,2.93,2.93,0,0,1-2.09,1.07,1.51,1.51,0,0,1-1.07-.34,1,1,0,0,1-.35-.76,1.21,1.21,0,0,1,.19-.71.53.53,0,0,1,.43-.28.49.49,0,0,1,.35.11.35.35,0,0,1,.12.24,1,1,0,0,1-.15.4.94.94,0,0,0-.16.46.52.52,0,0,0,.11.33.43.43,0,0,0,.37.13,1.09,1.09,0,0,0,.62-.26,3,3,0,0,0,.71-.74,41.48,41.48,0,0,0,3.36-7.36h-.42A1,1,0,0,0,34.74,25.37Z"/><path class="cls-2" d="M42.67,21.35a.7.7,0,0,0-.49-.15,1,1,0,0,0-.68.39,1.15,1.15,0,0,0-.35.78.52.52,0,0,0,.38.53,1.62,1.62,0,0,1,.39-.51.85.85,0,0,1,.57-.26h.06a.47.47,0,0,0,.12-.78Z"/><path class="cls-2" d="M42.12,26.23a1.55,1.55,0,0,0-.23.33l-.47.77a8.16,8.16,0,0,1-.5.73,2.5,2.5,0,0,1-.57.55,1.07,1.07,0,0,1-.54.26c-.18,0-.28-.15-.28-.43a3.27,3.27,0,0,1,.25-1.11,9.62,9.62,0,0,1,.43-1.08l.59-1.19a3.05,3.05,0,0,1,.63-1h-.89c-.43,0-.81.29-1.16.89a8.27,8.27,0,0,0-1.22,4c0,.77.27,1.16.82,1.16A1.82,1.82,0,0,0,40,29.64a5.82,5.82,0,0,0,1-1.08,17.11,17.11,0,0,0,1-1.53,1,1,0,0,0,.15-.52C42.21,26.32,42.18,26.23,42.12,26.23Z"/><path class="cls-1" d="M46.12,21.53a6.32,6.32,0,0,0-1.63,2.57H46v0c0,.05,0,.13-.16.26a.46.46,0,0,1-.28.18H44.28a14.09,14.09,0,0,0-1.17,3.73c0,.38.12.56.36.56s.75-.29,1.21-.88a5.06,5.06,0,0,0,.43-.66c.46-.73.69-1.09.71-1.09s.09.08.09.24a5.61,5.61,0,0,1-1.23,2.19,5.58,5.58,0,0,1-1,1,1.7,1.7,0,0,1-1,.46c-.56,0-.84-.4-.84-1.19a6.62,6.62,0,0,1,.47-2.28h0a6.89,6.89,0,0,1-.48.77c-.13.17-.21.25-.23.25s-.06-.06-.06-.19a1.75,1.75,0,0,1,.2-.6c.13-.27.32-.63.55-1.08s.42-.84.57-1.21h-1s0,0,0-.07a.62.62,0,0,1,.11-.23c.08-.1.13-.16.17-.16h1.13c.71-1.7,1.43-2.56,2.16-2.56Z"/><path class="cls-1" d="M11,31.23h1.06a8.62,8.62,0,0,0-1.38,3.56A20.63,20.63,0,0,0,10,39.28a2.2,2.2,0,0,0,.42,1.55.59.59,0,0,0,.44.2,1.06,1.06,0,0,0,.57-.2l.08.14a1.65,1.65,0,0,1-.74.51,2.81,2.81,0,0,1-1,.21,1.07,1.07,0,0,1-1.05-.55,3.72,3.72,0,0,1-.32-1.46,12.49,12.49,0,0,1,.19-2H5.15q-2.2,2.33-3.46,3.83H.21q1.38-1.28,4.32-4.17c2.51-2.51,4.17-4.25,5-5.21a4.52,4.52,0,0,1,.44-.5,2.48,2.48,0,0,1,.45-.3A1.44,1.44,0,0,1,11,31.23ZM7,31.23h3.31A2.64,2.64,0,0,1,9,31.79a17.68,17.68,0,0,1-2.07.3c-.77.08-1.27.14-1.51.19a1.81,1.81,0,0,0-1.58,1.89,1.41,1.41,0,0,1-.46-1Q3.36,31.23,7,31.23ZM9.5,33.31C8.38,34.37,7.14,35.59,5.8,37H8.64C8.82,36,9.11,34.79,9.5,33.31Z"/><path class="cls-1" d="M17.8,38.55a9.82,9.82,0,0,1-2,2.58,3.63,3.63,0,0,1-2.34.72,2.83,2.83,0,0,1-1.39-.31,1,1,0,0,1-.56-.94,1.07,1.07,0,0,1,.21-.65.64.64,0,0,1,.57-.3.44.44,0,0,1,.46.27.9.9,0,0,0-.28.65c0,.49.28.74.83.74a1.22,1.22,0,0,0,.85-.34,1,1,0,0,0,.36-.75,1.42,1.42,0,0,0-.17-.72A2.33,2.33,0,0,0,13.9,39l-.51-.47a1.79,1.79,0,0,1-.6-1.32,1.62,1.62,0,0,1,.57-1.26,2.26,2.26,0,0,1,1.56-.51,2.26,2.26,0,0,1,1.05.22.73.73,0,0,1,.43.69,1.18,1.18,0,0,1-.28.8.93.93,0,0,1-.76.34c-.33,0-.49-.14-.49-.44,0-.07.12-.17.34-.31s.35-.28.35-.43a.36.36,0,0,0-.19-.33,1,1,0,0,0-.53-.11,1.12,1.12,0,0,0-.65.23.73.73,0,0,0-.32.62,1.07,1.07,0,0,0,.32.73,3.84,3.84,0,0,0,.71.58,2.44,2.44,0,0,1,.71.66,1.4,1.4,0,0,1,.33.88,1.69,1.69,0,0,1-.21.84,2,2,0,0,1-.52.59A4.58,4.58,0,0,0,17,39.18c.06-.08.16-.25.31-.49a4.54,4.54,0,0,1,.57-.93q.09,0,.09.27A1,1,0,0,1,17.8,38.55Z"/><path class="cls-1" d="M23.4,38.55a9.82,9.82,0,0,1-2,2.58,3.67,3.67,0,0,1-2.34.72,2.8,2.8,0,0,1-1.39-.31,1,1,0,0,1-.57-.94A1.07,1.07,0,0,1,17.3,40a.66.66,0,0,1,.57-.3.45.45,0,0,1,.47.27.86.86,0,0,0-.28.65c0,.49.27.74.83.74a1.26,1.26,0,0,0,.85-.34,1,1,0,0,0,.36-.75,1.43,1.43,0,0,0-.18-.72,2.33,2.33,0,0,0-.43-.55l-.5-.47a1.76,1.76,0,0,1-.61-1.32A1.62,1.62,0,0,1,19,35.9a2.26,2.26,0,0,1,1.56-.51,2.21,2.21,0,0,1,1,.22.73.73,0,0,1,.43.69,1.18,1.18,0,0,1-.28.8.93.93,0,0,1-.76.34c-.32,0-.48-.14-.48-.44,0-.07.11-.17.34-.31s.34-.28.34-.43a.35.35,0,0,0-.19-.33.94.94,0,0,0-.52-.11,1.13,1.13,0,0,0-.66.23.75.75,0,0,0-.32.62,1,1,0,0,0,.33.73,3.28,3.28,0,0,0,.71.58,2.58,2.58,0,0,1,.71.66,1.39,1.39,0,0,1,.32.88,1.69,1.69,0,0,1-.21.84,1.85,1.85,0,0,1-.51.59,4.57,4.57,0,0,0,1.76-1.77c.06-.08.16-.25.31-.49a4.8,4.8,0,0,1,.58-.93q.09,0,.09.27A1,1,0,0,1,23.4,38.55Z"/><path class="cls-1" d="M26.66,37.78a1.21,1.21,0,0,0-.23.33l-.48.77c-.18.3-.35.54-.49.73a2.72,2.72,0,0,1-.57.55,1.14,1.14,0,0,1-.54.26c-.19,0-.28-.14-.28-.43a3.48,3.48,0,0,1,.24-1.11,11.16,11.16,0,0,1,.44-1.08c.12-.27.32-.66.58-1.18a3,3,0,0,1,.63-1h-.89c-.42,0-.81.29-1.15.89a8.19,8.19,0,0,0-1.23,4c0,.77.28,1.16.83,1.16a1.82,1.82,0,0,0,1.05-.46,5.81,5.81,0,0,0,1-1.07c.3-.41.63-.92,1-1.54a1.07,1.07,0,0,0,.14-.52C26.74,37.88,26.71,37.78,26.66,37.78Z"/><path class="cls-2" d="M27.2,32.9a.7.7,0,0,0-.49-.15,1,1,0,0,0-.68.39,1.23,1.23,0,0,0-.35.78.53.53,0,0,0,.38.53,1.52,1.52,0,0,1,.4-.51.83.83,0,0,1,.57-.26h0a.49.49,0,0,0,.29-.4A.5.5,0,0,0,27.2,32.9Z"/><path class="cls-1" d="M32.21,38.55a9.81,9.81,0,0,1-2,2.58,3.63,3.63,0,0,1-2.34.72,2.83,2.83,0,0,1-1.39-.31,1,1,0,0,1-.56-.94,1.07,1.07,0,0,1,.21-.65.66.66,0,0,1,.57-.3.44.44,0,0,1,.46.27.9.9,0,0,0-.28.65c0,.49.28.74.83.74a1.22,1.22,0,0,0,.85-.34,1,1,0,0,0,.37-.75,1.43,1.43,0,0,0-.18-.72A2.33,2.33,0,0,0,28.3,39l-.5-.47a1.76,1.76,0,0,1-.61-1.32,1.62,1.62,0,0,1,.57-1.26,2.63,2.63,0,0,1,2.61-.29.73.73,0,0,1,.43.69,1.18,1.18,0,0,1-.28.8.93.93,0,0,1-.76.34c-.32,0-.48-.14-.48-.44,0-.07.11-.17.34-.31s.34-.28.34-.43a.36.36,0,0,0-.19-.33,1,1,0,0,0-.52-.11,1.13,1.13,0,0,0-.66.23.73.73,0,0,0-.32.62,1.07,1.07,0,0,0,.32.73,3.84,3.84,0,0,0,.71.58,2.61,2.61,0,0,1,.72.66,1.45,1.45,0,0,1,.32.88,1.69,1.69,0,0,1-.21.84,2.13,2.13,0,0,1-.51.59,4.57,4.57,0,0,0,1.76-1.77c.06-.08.16-.25.31-.49a4.27,4.27,0,0,1,.58-.93s.08.09.08.27A1.07,1.07,0,0,1,32.21,38.55Z"/><path class="cls-1" d="M36.25,33.08a6.32,6.32,0,0,0-1.63,2.57h1.49l0,0s-.06.13-.17.26a.41.41,0,0,1-.28.18H34.41a14.2,14.2,0,0,0-1.17,3.73c0,.38.12.56.36.56s.75-.29,1.21-.88a5.55,5.55,0,0,0,.43-.65,12.64,12.64,0,0,1,.71-1.1q.09,0,.09.24a5.61,5.61,0,0,1-1.23,2.19,6.38,6.38,0,0,1-1,1,1.75,1.75,0,0,1-1,.46c-.57,0-.85-.4-.85-1.19a6.66,6.66,0,0,1,.48-2.28h0a6.06,6.06,0,0,1-.48.77c-.14.17-.21.25-.23.25s-.06-.06-.06-.18a1.46,1.46,0,0,1,.2-.6c.13-.28.31-.64.55-1.08A12.37,12.37,0,0,0,33,36.11H32s0,0,0-.06a.5.5,0,0,1,.11-.23c.07-.11.13-.17.17-.17h1.12c.72-1.7,1.44-2.56,2.17-2.56Z"/><path class="cls-1" d="M49.59,48.36A12.65,12.65,0,0,0,51,23.1a12.4,12.4,0,0,0-3.87.38,13,13,0,0,1,5.44-.85,13.17,13.17,0,1,1-6.18,25.14A12.57,12.57,0,0,0,49.59,48.36Z"/><path class="cls-1" d="M40.12,39.26l.15-2.74,3.71.2-.37,6.67A10.15,10.15,0,0,1,40.12,39.26Zm8.3,5.86.33-5.83-3.55-.2-.29,5.06A10.12,10.12,0,0,0,48.42,45.12Zm5.25-3.26L50,41.65l-.19,3.51a10.18,10.18,0,0,0,3.77-.9Z"/><path class="cls-2" d="M59.54,28.21a11.54,11.54,0,1,1-21.39,6.7c.45,0,1.37.85,1.37.85A12.64,12.64,0,0,1,39,30.82c-2.56,3.35-2.6,5.56-2.6,5.56C37.19,35,37.5,35,37.78,35a12.14,12.14,0,1,0,21.76-6.76Z"/></svg>
