<?xml version="1.0" encoding="UTF-8"?>
<svg width="65px" height="65px" viewBox="0 0 65 65" version="1.1" xmlns="http://www.w3.org/2000/svg" xmlns:xlink="http://www.w3.org/1999/xlink">
    <!-- Generator: Sketch 54.1 (76490) - https://sketchapp.com -->
    <title>BO_Brand_header_logo</title>
    <desc>Created with Sketch.</desc>
    <defs>
        <linearGradient x1="-0.667393223%" y1="44.8127086%" x2="120.434563%" y2="67.0582447%" id="linearGradient-1">
            <stop stop-color="#8E44AD" offset="0%"></stop>
            <stop stop-color="#F75C4C" offset="100%"></stop>
        </linearGradient>
        <linearGradient x1="46.4814854%" y1="56.31%" x2="53.8554991%" y2="43.32%" id="linearGradient-2">
            <stop stop-color="#E74C3C" offset="0%"></stop>
            <stop stop-color="#F1C40F" offset="100%"></stop>
        </linearGradient>
        <linearGradient x1="35.261884%" y1="75.99%" x2="65.8680051%" y2="22.08%" id="linearGradient-3">
            <stop stop-color="#E74C3C" offset="0%"></stop>
            <stop stop-color="#F1C40F" offset="100%"></stop>
        </linearGradient>
        <linearGradient x1="13.9284563%" y1="135.41635%" x2="100.086129%" y2="-31.2219799%" id="linearGradient-4">
            <stop stop-color="#E74C3C" offset="0%"></stop>
            <stop stop-color="#F1C40F" offset="100%"></stop>
        </linearGradient>
        <linearGradient x1="33.8292241%" y1="83.8004462%" x2="67.2832576%" y2="13.8369499%" id="linearGradient-5">
            <stop stop-color="#E74C3C" offset="0%"></stop>
            <stop stop-color="#F1C40F" offset="100%"></stop>
        </linearGradient>
        <linearGradient x1="46.1007194%" y1="77.3034632%" x2="54.5035971%" y2="18.3765651%" id="linearGradient-6">
            <stop stop-color="#E74C3C" offset="0%"></stop>
            <stop stop-color="#F1C40F" offset="100%"></stop>
        </linearGradient>
        <linearGradient x1="47.5184661%" y1="86.3850817%" x2="57.4622753%" y2="7.69292962%" id="linearGradient-7">
            <stop stop-color="#E74C3C" offset="0%"></stop>
            <stop stop-color="#F1C40F" offset="100%"></stop>
        </linearGradient>
        <linearGradient x1="46.7308802%" y1="96.2960628%" x2="55.0686478%" y2="-0.597732181%" id="linearGradient-8">
            <stop stop-color="#8E44AD" offset="0%"></stop>
            <stop stop-color="#29C5FF" offset="100%"></stop>
        </linearGradient>
        <linearGradient x1="44.6482929%" y1="67.328495%" x2="55.4216372%" y2="32.515419%" id="linearGradient-9">
            <stop stop-color="#8E44AD" offset="0%"></stop>
            <stop stop-color="#29C5FF" offset="100%"></stop>
        </linearGradient>
        <linearGradient x1="-12.2632665%" y1="93.092061%" x2="98.8804455%" y2="5.50998902%" id="linearGradient-10">
            <stop stop-color="#008C31" offset="0%"></stop>
            <stop stop-color="#ECF955" offset="100%"></stop>
        </linearGradient>
        <linearGradient x1="80.3799628%" y1="35.9325055%" x2="-23.882572%" y2="101.389883%" id="linearGradient-11">
            <stop stop-color="#005C01" offset="0%"></stop>
            <stop stop-color="#ECF955" offset="100%"></stop>
        </linearGradient>
    </defs>
    <g id="BO_Brand_header_logo" stroke="none" stroke-width="1" fill="none" fill-rule="evenodd">
        <g id="Group" transform="translate(1.000000, 1.000000)">
            <path d="M29.11524,45.4064062 C21.86296,46.2583125 13.06788,45.048375 8.09424,39.1587187 C7.19236,38.0905312 6.42208,36.9227813 5.79096,35.7089063 C2.5144,41.6016562 4.39012,48.7470937 9.31532,53.6948437 C15.35072,59.7571875 25.65948,61.9050937 32.2882,55.1120625 C36.02228,51.2856562 37.16888,47.3369062 36.89812,43.5549375 C34.41368,44.4563438 31.7982,45.091125 29.11524,45.4064062 Z" id="Path" fill="url(#linearGradient-1)"></path>
            <path d="M29.11524,45.4064063 C27.96192,45.5416875 26.76912,45.6246563 25.55924,45.6451875 C30.09384,54.3557813 18.14092,59.8606875 11.56904,55.5485625 L11.54664,55.6157812 C17.66492,60.1315312 26.41912,61.126875 32.28848,55.1120625 C36.02256,51.2856563 37.16916,47.3369063 36.8984,43.5549375 C34.41368,44.4563438 31.7982,45.091125 29.11524,45.4064063 Z" id="Path" fill="#300C50" opacity="0.3"></path>
            <path d="M33.45496,44.6087813 C30.81036,60.8639063 15.1186,57.8064375 11.84232,55.8295313 C17.94436,60.1610625 26.51264,61.0304062 32.2882,55.1117812 C36.02228,51.285375 37.16888,47.336625 36.89812,43.5546563 C35.77504,43.9624688 34.62536,44.3151563 33.45496,44.6087813 Z" id="Path" fill="#300C50" opacity="0.3"></path>
            <polygon id="Path" fill="#300C50" opacity="0.3" points="11.84176 55.82925 11.84232 55.8295312 11.84148 55.8289687"></polygon>
            <path d="M8.09396,39.1587188 C7.19208,38.0905313 6.4218,36.9227813 5.79068,35.7089063 C2.51412,41.6016563 4.38984,48.7470938 9.31504,53.6948438 C10.00608,54.3889688 10.7534,55.0310625 11.5444,55.614375 L11.61216,55.603125 C10.108,53.7775313 9.44944,46.2481875 15.533,44.139375 C12.67196,43.113375 10.0786,41.5085625 8.09396,39.1587188 Z" id="Path" fill="#300C50" opacity="0.3"></path>
            <path d="M9.85992,40.92975 L9.85992,40.9294687 C9.2302,40.393125 8.63884,39.8041875 8.09396,39.1587188 C7.19208,38.0905313 6.4218,36.9227813 5.79068,35.7089063 C2.51412,41.6016563 4.38984,48.7470938 9.31504,53.6948438 C10.00608,54.3889688 10.7534,55.0310625 11.5444,55.614375 L11.61216,55.603125 C11.61216,55.603125 6.0256,48.8075625 9.85992,40.92975 Z" id="Path" fill="#300C50" opacity="0.3"></path>
            <path d="M53.93164,9.45421875 C53.94144,9.46434375 53.95012,9.47559375 53.95992,9.48571875 C53.96804,9.4944375 53.97644,9.5034375 53.98456,9.51159375 C53.96692,9.49303125 53.95012,9.4730625 53.93164,9.45421875 Z" id="Path" fill="url(#linearGradient-2)"></path>
            <path d="M53.98456,9.511875 C54.06072,9.59034375 54.131,9.67246875 54.20604,9.7515 C54.13436,9.6721875 54.061,9.59259375 53.98456,9.511875 Z" id="Path" fill="url(#linearGradient-3)"></path>
            <path d="M55.12304,10.8725625 C54.76604,10.393875 54.37852,9.9309375 53.95992,9.48571875 C53.85828,9.379125 53.75804,9.27253125 53.64912,9.163125 C47.52776,3.01471875 37.60316,3.01471875 31.4818,9.163125 C25.361,15.3118125 25.361,25.2804375 31.4818,31.429125 C37.60316,37.5775312 37.60316,47.5464375 31.4818,53.6948437 C25.55252,59.6514375 16.05324,59.8373437 9.89968,54.2534062 C22.18132,65.9806875 41.59764,65.800125 53.64912,53.6948437 C65.70004,41.5904062 65.87952,22.0876875 54.20604,9.7515 C54.55828,10.1393437 54.866,10.5134062 55.12304,10.8725625 Z" id="Path" fill="url(#linearGradient-4)"></path>
            <path d="M54.20632,9.75121875 C54.13128,9.6721875 54.061,9.5900625 53.98484,9.51159375 C53.97672,9.5034375 53.96832,9.4944375 53.9602,9.48571875 C54.3788,9.93065625 54.76632,10.393875 55.12332,10.8725625 C54.866,10.5134062 54.55828,10.1393437 54.20632,9.75121875 Z" id="Path" fill="url(#linearGradient-5)"></path>
            <path d="M31.48208,9.163125 C25.36128,15.3118125 25.36128,25.2804375 31.48208,31.429125 C37.60344,37.5775312 37.60344,47.5464375 31.48208,53.6948437 C25.36128,59.8435312 15.43668,59.8435312 9.31532,53.6948437 C9.67876,54.0599062 10.0492,54.4131562 10.42552,54.7562813 C18.52592,61.9093125 28.3766,57.9619688 32.05384,54.268875 C38.4902,47.8037812 38.4902,37.32075 32.05384,30.855375 C26.24776,25.0236563 25.67628,14.995125 31.48208,9.163125 Z" id="Path" fill="#F9FCBA" opacity="0.3"></path>
            <path d="M10.09372,54.4381875 C9.83276,54.1932187 9.57012,53.9507812 9.31532,53.6948437 C9.57012,53.9507812 9.8294,54.1985625 10.09372,54.4381875 Z" id="Path" fill="url(#linearGradient-6)"></path>
            <path d="M53.64912,9.163125 C53.7796,9.2941875 53.90196,9.4235625 54.01704,9.5518125 C53.90224,9.42384375 53.77988,9.2941875 53.64912,9.163125 C49.55188,5.047875 42.90916,5.047875 38.81248,9.163125 C34.71524,13.278375 34.71524,19.95075 38.81248,24.066 C46.95796,32.2478438 46.95796,45.513 38.81248,53.6948437 C30.9218,61.62075 18.28148,61.8685313 10.09372,54.4381875 C22.38516,65.9787187 41.6612,65.7362812 53.64912,53.6948437 C65.7762,41.5133437 65.8882,21.83625 53.98876,9.51384375 C53.88012,9.39825 53.76672,9.28153125 53.64912,9.163125 Z" id="Path" fill="url(#linearGradient-7)"></path>
            <path d="M13.78132,29.5399688 C16.16916,23.3440313 8.96784,18.2798438 4.102,22.789125 C1.09564,25.5751875 -0.39284,31.0078125 0.42056,35.9409375 C1.617,44.1869063 6.05752,51.9207188 13.3168,57.0864375 C6.68808,52.1024063 5.0358,42.7193438 9.69724,35.728875 C11.08408,33.6481875 12.90884,31.8034688 13.78132,29.5399688 Z" id="Path" fill="url(#linearGradient-8)"></path>
            <path d="M13.31652,57.0864375 C13.538,57.2529375 13.76452,57.4152187 13.9972,57.5715937 C13.76452,57.4152187 13.5436,57.2481562 13.31652,57.0864375 Z" id="Path" fill="url(#linearGradient-9)"></path>
            <path d="M29.6268,0.0396562504 C21.88704,0.49865625 14.903,3.78 9.68072,8.874 C4.68188,13.7503125 7.06636,21.03075 13.72224,20.0739375 C18.78156,19.346625 20.48844,11.8859063 22.45992,8.494875 C35.41804,8.86921875 36.58732,-0.369 29.6268,0.0396562504 Z" id="Path" fill="url(#linearGradient-10)"></path>
            <path d="M22.76904,6.89371875 C20.64552,10.2861562 19.42136,14.7732187 16.5704,17.9055 C13.44588,21.3392812 6.29636,19.5508125 7.13132,13.6746562 C7.14588,13.5750937 7.13776,13.4828437 7.13188,13.3965 C6.39492,17.2395 8.96896,20.7576562 13.72224,20.0739375 C18.78156,19.346625 20.48844,11.8859062 22.45992,8.494875 C30.7818,8.735625 34.2412,5.0113125 33.8072,2.4238125 C30.79748,-1.53871875 24.668,3.86015625 22.76904,6.89371875 Z" id="Path" fill="#FEF7A2" opacity="0.3"></path>
            <path d="M29.6268,0.0396562504 C22.93256,0.43678125 16.80392,2.94553125 11.8916,6.912 C11.9126,6.9165 18.78772,8.43496875 22.4602,8.494875 C35.41804,8.86921875 36.58732,-0.369 29.6268,0.0396562504 Z" id="Path" fill="#ECF955" opacity="0.3"></path>
            <path d="M22.4602,8.49459375 C30.78068,8.73534375 34.23952,5.01215625 33.80748,2.4249375 C31.39836,-0.36871875 25.38872,2.7804375 22.4602,8.49459375 Z" id="Path" fill="url(#linearGradient-11)"></path>
            <path d="M22.4602,8.49459375 C23.71096,8.530875 24.85168,8.476875 25.88572,8.35115625 C29.17544,0.1996875 33.80748,2.4249375 33.80748,2.4249375 C31.39836,-0.36871875 25.38872,2.7804375 22.4602,8.49459375 Z" id="Path" fill="#003400" opacity="0.3"></path>
            <path d="M33.4474,2.07196875 C34.01552,3.6331875 32.774,5.20565625 31.59436,6.07640625 C29.15416,7.87696875 25.54776,8.30671875 22.59544,8.236125 C22.5498,8.32134375 22.50444,8.4076875 22.4602,8.49459375 C30.78068,8.73534375 34.24008,5.011875 33.80748,2.4249375 C33.69548,2.29415625 33.57508,2.17715625 33.4474,2.07196875 Z" id="Path" fill="#FEF7A2" opacity="0.3"></path>
            <path d="M6.0256,21.5254688 C2.24168,24.8535 3.25052,33.332625 8.00716,39.0540937 C8.42856,37.9065937 8.98968,36.7903125 9.69724,35.7291562 C11.08436,33.6484687 12.90884,31.8034687 13.78104,29.54025 C15.86872,24.1236562 10.62824,19.5724688 6.0256,21.5254688 Z" id="Path" fill="#B6FFFF" opacity="0.3"></path>
            <path d="M31.48264,9.163125 C25.36128,15.3118125 25.36128,25.2804375 31.48264,31.429125 C34.87232,34.8342188 36.38376,39.4107188 36.01892,43.8612188 C51.49872,38.7014063 62.29272,23.1651563 53.55532,9.070875 C47.4264,3.01584375 37.57264,3.0459375 31.48264,9.163125 Z" id="Path" fill="#FEF163" opacity="0.2"></path>
            <path d="M12.7036,56.602125 C12.79236,56.6760938 12.8856,56.7455625 12.97604,56.8178438 C12.88392,56.7466875 12.79376,56.6744063 12.7036,56.602125 Z" id="Path" fill="#B6FFFF" opacity="0.3"></path>
            <path d="M13.78132,29.5399687 C16.16916,23.3440313 8.96784,18.2798438 4.102,22.789125 C4.074,22.8152813 4.04656,22.8417188 4.01884,22.8681563 C9.05212,18.2894063 15.24376,23.4765 13.05108,29.165625 C11.55336,33.0522187 8.06484,35.0828438 6.74268,40.8822187 C5.44628,46.5690937 7.56812,52.4787187 12.7036,56.602125 C6.58952,51.512625 5.18252,42.4988437 9.69724,35.728875 C11.08464,33.6481875 12.90884,31.8034688 13.78132,29.5399687 Z" id="Path" fill="#B6FFFF" opacity="0.3"></path>
            <path d="M13.25716,57.0583125 C13.50048,57.232125 13.74688,57.4034063 13.9972,57.5715938 C13.64272,57.3330938 13.30476,57.079125 12.97604,56.8178438 C13.09028,56.905875 13.19696,56.9984063 13.31344,57.0850313 C13.30392,57.0737812 13.28404,57.0650625 13.25716,57.0583125 Z" id="Path" fill="#B6FFFF" opacity="0.3"></path>
            <path d="M29.6268,0.0396562504 C21.88704,0.49865625 14.903,3.78 9.68072,8.874 C8.27064,10.2493125 7.44828,11.8161563 7.14336,13.3354688 C6.85944,17.119125 11.746,18.8535938 15.25496,15.6175313 C17.22084,13.804875 20.92412,6.18665625 25.60712,2.7275625 C28.11368,0.876375 32.34336,-0.10321875 33.8072,2.4249375 L33.8072,2.42353125 C33.56556,0.982125 32.11656,-0.10659375 29.6268,0.0396562504 Z" id="Path" fill="#ECF955" opacity="0.3"></path>
        </g>
    </g>
</svg>