<?xml version="1.0" encoding="UTF-8"?>
<svg width="65px" height="65px" viewBox="0 0 65 65" version="1.1" xmlns="http://www.w3.org/2000/svg" xmlns:xlink="http://www.w3.org/1999/xlink">
    <!-- Generator: Sketch 52.6 (67491) - http://www.bohemiancoding.com/sketch -->
    <title>BO_Brand_header_logo</title>
    <desc>Created with Sketch.</desc>
    <g id="BO_Brand_header_logo" stroke="none" stroke-width="1" fill="none" fill-rule="evenodd">
        <g id="Group-41" transform="translate(1.000000, 19.000000)" fill-rule="nonzero" stroke-width="0.535211268">
            <g id="Group" transform="translate(2.000000, 0.000000)" fill="#E9E9E9" stroke="#FF6116">
                <path d="M9.43726744,0.363257143 C10.5608023,0.363257143 11.6219186,0.507742857 12.6195523,0.7956 C13.617186,1.08382857 14.494593,1.5288 15.2514186,2.12865714 C16.0082442,2.72925714 16.6100872,3.49811429 17.057657,4.43448571 C17.5048721,5.37122857 17.7283023,6.50074286 17.7283023,7.82117143 C17.7283023,9.76671429 17.264064,11.3159429 16.3352326,12.4692286 C15.4064012,13.6221429 14.2193837,14.4389143 12.7745349,14.9191714 L17.9691105,24.3946857 C18.0375581,24.5388 18.072314,24.6710286 18.072314,24.791 C18.072314,25.0071714 17.9974826,25.1932571 17.8485291,25.3492571 C17.6992209,25.506 17.5218953,25.5836286 17.3154884,25.5836286 L15.8358837,25.5836286 C15.3769651,25.5836286 15.0389826,25.4636571 14.8212267,25.2233429 C14.6031163,24.9834 14.4481337,24.7791143 14.3566337,24.6108571 L9.36881977,15.4235714 L3.45146512,15.4235714 L3.45146512,24.6104857 C3.45146512,24.8753143 3.35961047,25.103 3.17661047,25.2950286 C2.99254651,25.4878 2.7747907,25.5832571 2.52298837,25.5832571 L1.11218605,25.5832571 C0.859674419,25.5832571 0.641918605,25.4874286 0.458563953,25.2950286 C0.2745,25.103 0.183354651,24.8753143 0.183354651,24.6104857 L0.183354651,1.33602857 C0.183354651,1.07194286 0.274854651,0.844257143 0.458563953,0.651485714 C0.641918605,0.459828571 0.859674419,0.363257143 1.11218605,0.363257143 L9.43726744,0.363257143 Z M3.45146512,12.1806286 L9.26561628,12.1806286 C10.9168721,12.1806286 12.1950349,11.8381714 13.1011686,11.1536286 C14.0069477,10.4690857 14.4598372,9.35851429 14.4598372,7.8208 C14.4598372,6.28382857 14.0069477,5.19702857 13.1011686,4.5604 C12.1946802,3.92414286 10.9168721,3.60582857 9.26561628,3.60582857 L3.45146512,3.60582857 L3.45146512,12.1806286 Z M21.8571512,25.5832571 C21.6042849,25.5832571 21.3861744,25.4874286 21.2021105,25.2950286 C21.0184012,25.103 20.9265465,24.8753143 20.9265465,24.6104857 L20.9265465,1.33602857 C20.9265465,1.07194286 21.0180465,0.844257143 21.2017558,0.651485714 C21.3851105,0.459457143 21.6028663,0.363257143 21.8553779,0.363257143 L31.0748895,0.363257143 C32.542436,0.363257143 33.7581802,0.597628571 34.7214128,1.066 C35.6846453,1.53474286 36.4528198,2.11082857 37.0262907,2.79537143 C37.5990523,3.47991429 38.0069012,4.21831429 38.2473547,5.01131429 C38.4881628,5.80394286 38.6087442,6.51262857 38.6087442,7.137 C38.6087442,7.92962857 38.4952558,8.6268 38.2689884,9.22665714 C38.0420116,9.82725714 37.7760233,10.3320286 37.4706686,10.7398571 C37.1649593,11.1488 36.8588953,11.4730571 36.553186,11.7126286 C36.2474767,11.9525714 36.0265291,12.1212 35.8910523,12.2166571 C36.7624302,12.8417714 37.5249302,13.6641143 38.1785523,14.6848 C38.8321744,15.7062286 39.1591628,16.9007429 39.1591628,18.2694571 C39.1591628,19.1828 38.9977965,20.0712571 38.6764826,20.9359429 C38.3551686,21.8006286 37.8785174,22.5813714 37.2461744,23.2778 C36.614186,23.9746 35.8218953,24.5332286 34.8682384,24.9533143 C33.914936,25.3737714 32.8172907,25.5836286 31.5767209,25.5836286 L21.8571512,25.5836286 L21.8571512,25.5832571 Z M24.194657,3.60582857 L24.194657,10.8836 L30.7312326,10.8836 C32.2672267,10.8836 33.419843,10.5716 34.1883721,9.94722857 C34.9565465,9.32248571 35.3409884,8.42214286 35.3409884,7.24508571 C35.3409884,6.0684 34.9565465,5.16768571 34.1883721,4.54294286 C33.419843,3.91857143 32.2672267,3.60657143 30.7312326,3.60657143 L24.194657,3.60657143 L24.194657,3.60582857 Z M24.194657,14.1261714 L24.194657,22.3403143 L31.2337733,22.3403143 C31.9927267,22.3403143 32.6651453,22.2322286 33.2513837,22.0164286 C33.8376221,21.8002571 34.3263314,21.4997714 34.7178663,21.1153429 C35.1094012,20.7316571 35.402343,20.2993143 35.5974012,19.8186857 C35.7931686,19.3384286 35.8910523,18.8217714 35.8910523,18.2690857 C35.8910523,17.7412857 35.7984884,17.2242571 35.6147791,16.7198571 C35.4307151,16.2158286 35.1491221,15.7712286 34.7696453,15.3868 C34.3905233,15.0031143 33.9067791,14.6966857 33.3205407,14.4678857 C32.733593,14.2402 32.0381221,14.1258 31.2334186,14.1258 L24.194657,14.1258 L24.194657,14.1261714 Z M44.5949012,9.94722857 C44.5484419,11.0277143 44.5260988,12.0368857 44.5260988,12.9732571 C44.5260988,13.91 44.5484419,14.9188 44.5949012,15.9996571 C44.6633488,17.9934857 45.2424942,19.6088286 46.3319826,20.8453143 C47.4207616,22.0829143 48.9861919,22.7009714 51.027564,22.7009714 C52.1284012,22.7009714 53.0575872,22.5564857 53.8140581,22.2686286 C54.5708837,21.9804 55.1954244,21.6082286 55.6887442,21.1517429 C56.1817093,20.6956286 56.5601221,20.1730286 56.8239826,19.5843143 C57.0871337,18.9959714 57.2885756,18.4013143 57.4258256,17.8007143 C57.4715756,17.5366286 57.5861279,17.3386571 57.7698372,17.2060571 C57.9535465,17.0745714 58.1365465,17.0080857 58.3206105,17.0080857 L59.903064,17.0080857 C60.1094709,17.0080857 60.2867965,17.0864571 60.4361047,17.2424571 C60.5850581,17.3988286 60.6598895,17.5845429 60.6598895,17.8007143 C60.6368372,18.5933429 60.4417791,19.4580286 60.0750698,20.3947714 C59.7080058,21.3311429 59.140564,22.2140286 58.3723895,23.0426857 C57.6035058,23.8713429 56.6179302,24.5622 55.4135349,25.1145143 C54.2094942,25.6664571 52.7476221,25.9428 51.027564,25.9428 C49.5366105,25.9428 48.2066686,25.6965429 47.0370291,25.2044 C45.8673895,24.7126286 44.8637267,24.0336571 44.0271047,23.1689714 C43.1897733,22.3042857 42.5418256,21.2772857 42.0836163,20.0883429 C41.624343,18.8997714 41.3725407,17.5968 41.3267907,16.1794286 C41.2579884,14.0418571 41.2579884,11.9046571 41.3267907,9.76634286 C41.3725407,8.37348571 41.624343,7.07682857 42.0836163,5.87525714 C42.5421802,4.67442857 43.1897733,3.64111429 44.0271047,2.77642857 C44.8637267,1.91211429 45.8673895,1.23351429 47.0370291,0.741 C48.2066686,0.249228571 49.5366105,0.0026 51.027564,0.0026 C52.7479767,0.0026 54.2098488,0.278942857 55.4135349,0.831257143 C56.6179302,1.38394286 57.6035058,2.07405714 58.3723895,2.90271429 C59.140564,3.73137143 59.7080058,4.61388571 60.0750698,5.551 C60.4417791,6.48737143 60.6368372,7.35242857 60.6598895,8.14468571 C60.6598895,8.36085714 60.5850581,8.54731429 60.4361047,8.70331429 C60.2867965,8.85968571 60.1094709,8.93731429 59.903064,8.93731429 L58.3206105,8.93731429 C58.1365465,8.93731429 57.9535465,8.87157143 57.7698372,8.73934286 C57.5861279,8.60785714 57.4715756,8.40951429 57.4258256,8.14468571 C57.2882209,7.54482857 57.0871337,6.95017143 56.8239826,6.36145714 C56.5601221,5.77311429 56.1813547,5.25051429 55.6887442,4.79402857 C55.1950698,4.33791429 54.5708837,3.96537143 53.8140581,3.67714286 C53.0572326,3.38891429 52.1284012,3.2448 51.027564,3.2448 C48.9861919,3.2448 47.4207616,3.86322857 46.3319826,5.10008571 C45.2424942,6.33842857 44.6633488,7.9534 44.5949012,9.94722857 Z" id="Shape"></path>
            </g>
            <g id="Group" transform="translate(1.000000, 0.000000)" fill="#E9E9E9" stroke="#E9E9E9">
                <path d="M9.4478655,0.363257143 C10.5779708,0.363257143 11.6452924,0.507742857 12.6487602,0.7956 C13.6522281,1.08382857 14.5347661,1.5288 15.2960175,2.12865714 C16.057269,2.72925714 16.6626316,3.49811429 17.1128187,4.43448571 C17.5626491,5.37122857 17.787386,6.50074286 17.787386,7.82117143 C17.787386,9.76671429 17.3204327,11.3159429 16.3861696,12.4692286 C15.4519064,13.6221429 14.2579474,14.4389143 12.8046491,14.9191714 L18.0296023,24.3946857 C18.0984503,24.5388 18.1334094,24.6710286 18.1334094,24.791 C18.1334094,25.0071714 18.0581404,25.1932571 17.9083158,25.3492571 C17.7581345,25.506 17.5797719,25.5836286 17.3721579,25.5836286 L15.8839006,25.5836286 C15.4222982,25.5836286 15.0823392,25.4636571 14.8633099,25.2233429 C14.643924,24.9834 14.4880351,24.7791143 14.396,24.6108571 L9.37901754,15.4235714 L3.42705848,15.4235714 L3.42705848,24.6104857 C3.42705848,24.8753143 3.33466667,25.103 3.15059649,25.2950286 C2.96545614,25.4878 2.7464269,25.5832571 2.49315205,25.5832571 L1.07409942,25.5832571 C0.820111111,25.5832571 0.601081871,25.4874286 0.416654971,25.2950286 C0.23151462,25.103 0.139836257,24.8753143 0.139836257,24.6104857 L0.139836257,1.33602857 C0.139836257,1.07194286 0.231871345,0.844257143 0.416654971,0.651485714 C0.601081871,0.459457143 0.820111111,0.363257143 1.07409942,0.363257143 L9.4478655,0.363257143 Z M3.42705848,12.1806286 L9.2748538,12.1806286 C10.9357661,12.1806286 12.2214035,11.8381714 13.1328363,11.1536286 C14.0439123,10.4690857 14.4994503,9.35851429 14.4994503,7.8208 C14.4994503,6.28382857 14.0439123,5.19702857 13.1328363,4.5604 C12.2214035,3.92451429 10.9361228,3.60582857 9.2748538,3.60582857 L3.42705848,3.60582857 L3.42705848,12.1806286 Z M21.9403801,25.5832571 C21.6860351,25.5832571 21.4666491,25.4874286 21.2815088,25.2950286 C21.0967251,25.103 21.0043333,24.8753143 21.0043333,24.6104857 L21.0043333,1.33602857 C21.0043333,1.07194286 21.0963684,0.844257143 21.281152,0.651485714 C21.4655789,0.459457143 21.6846082,0.363257143 21.9385965,0.363257143 L31.2120234,0.363257143 C32.688152,0.363257143 33.9110058,0.597628571 34.8798713,1.066 C35.8487368,1.53474286 36.6214035,2.11082857 37.1982281,2.79537143 C37.7743392,3.47991429 38.1845731,4.21831429 38.4264327,5.01131429 C38.6686491,5.80394286 38.7899357,6.51262857 38.7899357,7.137 C38.7899357,7.92962857 38.6757836,8.6268 38.448193,9.22665714 C38.2198889,9.82725714 37.952345,10.3320286 37.6452047,10.7398571 C37.3377076,11.1488 37.0298538,11.4730571 36.7223567,11.7126286 C36.4148596,11.9525714 36.1926199,12.1212 36.0563509,12.2166571 C36.9328246,12.8417714 37.6997836,13.6641143 38.3572281,14.6848 C39.0146725,15.7062286 39.3435731,16.9007429 39.3435731,18.2694571 C39.3435731,19.1828 39.1812632,20.0712571 38.8580702,20.9359429 C38.5348772,21.8006286 38.0554386,22.5813714 37.4193977,23.2778 C36.7837135,23.9746 35.9867895,24.5332286 35.0275556,24.9533143 C34.0686784,25.3737714 32.964614,25.5836286 31.7167895,25.5836286 L21.9403801,25.5836286 L21.9403801,25.5832571 Z M24.2915556,3.60582857 L24.2915556,10.8836 L30.8663567,10.8836 C32.4113333,10.8836 33.5706901,10.5716 34.3437135,9.94722857 C35.1163801,9.32248571 35.5030702,8.42214286 35.5030702,7.24508571 C35.5030702,6.0684 35.1163801,5.16768571 34.3437135,4.54294286 C33.5706901,3.91857143 32.4113333,3.60657143 30.8663567,3.60657143 L24.2915556,3.60657143 L24.2915556,3.60582857 Z M24.2915556,14.1261714 L24.2915556,22.3403143 L31.3718363,22.3403143 C32.1352281,22.3403143 32.8115789,22.2322286 33.4012456,22.0164286 C33.9909123,21.8002571 34.4824795,21.4997714 34.8763041,21.1153429 C35.2701287,20.7316571 35.5647836,20.2993143 35.7609825,19.8186857 C35.9578947,19.3384286 36.0563509,18.8217714 36.0563509,18.2690857 C36.0563509,17.7412857 35.9632456,17.2242571 35.778462,16.7198571 C35.5933216,16.2158286 35.3100819,15.7712286 34.928386,15.3868 C34.5470468,15.0031143 34.0604737,14.6966857 33.470807,14.4678857 C32.8804269,14.2402 32.1808889,14.1258 31.3714795,14.1258 L24.2915556,14.1258 L24.2915556,14.1261714 Z M44.8110994,9.94722857 C44.7643684,11.0277143 44.7418947,12.0368857 44.7418947,12.9732571 C44.7418947,13.91 44.7643684,14.9188 44.8110994,15.9996571 C44.8799474,17.9934857 45.4624795,19.6088286 46.5583392,20.8453143 C47.6534854,22.0829143 49.2280702,22.7009714 51.2813801,22.7009714 C52.388655,22.7009714 53.3232749,22.5564857 54.0841696,22.2686286 C54.8454211,21.9804 55.473614,21.6082286 55.9698187,21.1517429 C56.4656667,20.6956286 56.8462924,20.1730286 57.1116959,19.5843143 C57.376386,18.9959714 57.5790058,18.4013143 57.7170585,17.8007143 C57.763076,17.5366286 57.8782982,17.3386571 58.0630819,17.2060571 C58.2478655,17.0745714 58.4319357,17.0080857 58.617076,17.0080857 L60.2087836,17.0080857 C60.4163977,17.0080857 60.5947602,17.0864571 60.7449415,17.2424571 C60.8947661,17.3988286 60.9700351,17.5845429 60.9700351,17.8007143 C60.946848,18.5933429 60.7506491,19.4580286 60.3817953,20.3947714 C60.0125848,21.3311429 59.4418246,22.2140286 58.6691579,23.0426857 C57.8957778,23.8713429 56.9044386,24.5622 55.693,25.1145143 C54.4819181,25.6664571 53.0114971,25.9428 51.2813801,25.9428 C49.7817076,25.9428 48.4439883,25.6965429 47.2675088,25.2044 C46.0910292,24.7126286 45.0814971,24.0336571 44.2399825,23.1689714 C43.3977544,22.3042857 42.7460175,21.2772857 42.2851287,20.0883429 C41.8231696,18.8997714 41.5698947,17.5968 41.5238772,16.1794286 C41.4546725,14.0418571 41.4546725,11.9046571 41.5238772,9.76634286 C41.5698947,8.37348571 41.8231696,7.07682857 42.2851287,5.87525714 C42.7463743,4.67442857 43.3977544,3.64111429 44.2399825,2.77642857 C45.0814971,1.91211429 46.0910292,1.23351429 47.2675088,0.741 C48.4439883,0.249228571 49.7817076,0.0026 51.2813801,0.0026 C53.0118538,0.0026 54.4822749,0.278942857 55.693,0.831257143 C56.9044386,1.38394286 57.8957778,2.07405714 58.6691579,2.90271429 C59.4418246,3.73137143 60.0125848,4.61388571 60.3817953,5.551 C60.7506491,6.48737143 60.946848,7.35242857 60.9700351,8.14468571 C60.9700351,8.36085714 60.8947661,8.54731429 60.7449415,8.70331429 C60.5947602,8.85968571 60.4163977,8.93731429 60.2087836,8.93731429 L58.617076,8.93731429 C58.4319357,8.93731429 58.2478655,8.87157143 58.0630819,8.73934286 C57.8782982,8.60785714 57.763076,8.40951429 57.7170585,8.14468571 C57.5786491,7.54482857 57.376386,6.95017143 57.1116959,6.36145714 C56.8462924,5.77311429 56.4653099,5.25051429 55.9698187,4.79402857 C55.4732573,4.33791429 54.8454211,3.96537143 54.0841696,3.67714286 C53.3229181,3.38891429 52.388655,3.2448 51.2813801,3.2448 C49.2280702,3.2448 47.6534854,3.86322857 46.5583392,5.10008571 C45.4624795,6.33842857 44.8799474,7.9534 44.8110994,9.94722857 Z" id="Shape"></path>
            </g>
            <g id="Group" fill="#116611" stroke="#116611">
                <path d="M9.43895598,0.371915493 C10.5626919,0.371915493 11.623998,0.51984507 12.6218103,0.81456338 C13.6196225,1.10966197 14.4971864,1.56523944 15.2541474,2.17939437 C16.0111084,2.79430986 16.6130591,3.58149296 17.060709,4.5401831 C17.5080041,5.49925352 17.7314743,6.65569014 17.7314743,8.00759155 C17.7314743,9.99950704 17.2671529,11.585662 16.3381553,12.7664366 C15.4091577,13.946831 14.2219279,14.7830704 12.7768205,15.2747746 L17.9723256,24.9761408 C18.0407855,25.1236901 18.0755475,25.2590704 18.0755475,25.3819014 C18.0755475,25.6032254 18.0007027,25.7937465 17.8517226,25.9534648 C17.7023877,26.1139437 17.5250304,26.1934225 17.3185865,26.1934225 L15.8387171,26.1934225 C15.3797164,26.1934225 15.0416734,26.0705915 14.8238786,25.8245493 C14.6057291,25.5788873 14.4507188,25.3697324 14.3592025,25.1974648 L9.37049606,15.7911972 L3.45208266,15.7911972 L3.45208266,25.1970845 C3.45208266,25.4682254 3.36021158,25.701338 3.17717883,25.8979437 C2.99308195,26.0953099 2.77528717,26.1930423 2.52343979,26.1930423 L1.11238504,26.1930423 C0.859828234,26.1930423 0.642033459,26.0949296 0.458646001,25.8979437 C0.274549114,25.701338 0.183387458,25.4682254 0.183387458,25.1970845 L0.183387458,1.36787324 C0.183387458,1.09749296 0.274903829,0.864380282 0.458646001,0.667014085 C0.642033459,0.470788732 0.859828234,0.371915493 1.11238504,0.371915493 L9.43895598,0.371915493 Z M3.45208266,12.4709577 L9.26727411,12.4709577 C10.9188254,12.4709577 12.1972169,12.120338 13.1035127,11.4194789 C14.0094538,10.7186197 14.4624244,9.58157746 14.4624244,8.00721127 C14.4624244,6.43360563 14.0094538,5.32090141 13.1035127,4.66909859 C12.1968621,4.01767606 10.9188254,3.69177465 9.26727411,3.69177465 L3.45208266,3.69177465 L3.45208266,12.4709577 Z M21.8610619,26.1930423 C21.6081504,26.1930423 21.3900009,26.0949296 21.205904,25.8979437 C21.0221618,25.701338 20.9302907,25.4682254 20.9302907,25.1970845 L20.9302907,1.36787324 C20.9302907,1.09749296 21.0218071,0.864380282 21.2055493,0.667014085 C21.3889368,0.470408451 21.6067315,0.371915493 21.8592883,0.371915493 L31.0804495,0.371915493 C32.5482586,0.371915493 33.7642203,0.611873239 34.7276252,1.09140845 C35.6910301,1.57132394 36.459342,2.16114085 37.0329155,2.862 C37.6057797,3.56285915 38.0137015,4.31885915 38.254198,5.13076056 C38.4950492,5.94228169 38.6156522,6.66785915 38.6156522,7.30711268 C38.6156522,8.1186338 38.5021435,8.83242254 38.2758356,9.44657746 C38.0488182,10.061493 37.7827823,10.5782958 37.477373,10.9958451 C37.171609,11.4145352 36.8654902,11.7465211 36.5597262,11.9918028 C36.2539622,12.2374648 36.032975,12.4101127 35.8974741,12.5078451 C36.7690079,13.1478592 37.5316443,13.9898028 38.1853833,15.0348169 C38.8391224,16.0805915 39.1661693,17.3035775 39.1661693,18.7049155 C39.1661693,19.6400282 39.0047741,20.549662 38.6834027,21.4349577 C38.3620312,22.3202535 37.8852948,23.1196056 37.2528386,23.8326338 C36.6207372,24.5460423 35.8283047,25.1179859 34.8744771,25.5480845 C33.9210042,25.9785634 32.8231625,26.1934225 31.5823707,26.1934225 L21.8610619,26.1934225 L21.8610619,26.1930423 Z M24.198986,3.69177465 L24.198986,11.1430141 L30.7367311,11.1430141 C32.2730001,11.1430141 33.4258226,10.8235775 34.1944892,10.1843239 C34.962801,9.54469014 35.3473117,8.62288732 35.3473117,7.41777465 C35.3473117,6.21304225 34.962801,5.29085915 34.1944892,4.65122535 C33.4258226,4.01197183 32.2730001,3.69253521 30.7367311,3.69253521 L24.198986,3.69253521 L24.198986,3.69177465 Z M24.198986,14.4628732 L24.198986,22.8728028 L31.2393617,22.8728028 C31.998451,22.8728028 32.6709899,22.7621408 33.2573332,22.5411972 C33.8436764,22.3198732 34.3324732,22.0122254 34.7240781,21.6186338 C35.115683,21.2258028 35.4086773,20.7831549 35.6037704,20.2910704 C35.7995728,19.7993662 35.8974741,19.2703944 35.8974741,18.7045352 C35.8974741,18.1641549 35.8048935,17.6348028 35.6211514,17.1183803 C35.4370545,16.602338 35.1554111,16.1471408 34.7758664,15.7535493 C34.3966765,15.3607183 33.9128458,15.0469859 33.3265025,14.8127324 C32.7394498,14.5796197 32.0438544,14.462493 31.239007,14.462493 L24.198986,14.462493 L24.198986,14.4628732 Z M44.6028802,10.1843239 C44.5564126,11.2905634 44.5340656,12.3237887 44.5340656,13.2824789 C44.5340656,14.2415493 44.5564126,15.2743944 44.6028802,16.3810141 C44.6713401,18.4223662 45.2505891,20.0762113 46.3402724,21.342169 C47.4292463,22.6092676 48.9949566,23.2420563 51.036694,23.2420563 C52.1377281,23.2420563 53.0670804,23.0941268 53.8236867,22.7994085 C54.5806477,22.5043099 55.2053001,22.1232676 55.6987082,21.6559014 C56.1917615,21.1889155 56.570242,20.6538592 56.8341497,20.0511127 C57.0973479,19.4487465 57.2988258,18.8399155 57.4361004,18.225 C57.4818586,17.9546197 57.5964314,17.7519296 57.7801736,17.616169 C57.9639157,17.4815493 58.1469485,17.4134789 58.3310454,17.4134789 L59.913782,17.4134789 C60.1202259,17.4134789 60.2975832,17.4937183 60.4469181,17.6534366 C60.5958982,17.8135352 60.670743,18.0036761 60.670743,18.225 C60.6476865,19.0365211 60.4525935,19.9218169 60.0858186,20.8808873 C59.7186889,21.8395775 59.1511456,22.743507 58.3828337,23.5919155 C57.6138124,24.4403239 56.6280605,25.1476479 55.4234496,25.7131268 C54.2191935,26.2782254 52.7570598,26.5611549 51.036694,26.5611549 C49.5454737,26.5611549 48.2152939,26.3090282 47.0454451,25.8051549 C45.8755963,25.301662 44.8717539,24.606507 44.0349821,23.7212113 C43.1975009,22.8359155 42.5494373,21.7844366 42.091146,20.5671549 C41.6317906,19.3502535 41.3799432,18.0162254 41.334185,16.5650704 C41.2653704,14.3765493 41.2653704,12.1884085 41.334185,9.99912676 C41.3799432,8.57307042 41.6317906,7.24550704 42.091146,6.01529577 C42.549792,4.78584507 43.1975009,3.72790141 44.0349821,2.84260563 C44.8717539,1.95769014 45.8755963,1.26291549 47.0454451,0.758661972 C48.2152939,0.255169014 49.5454737,0.00266197183 51.036694,0.00266197183 C52.7574146,0.00266197183 54.2195482,0.285591549 55.4234496,0.851070423 C56.6280605,1.41692958 57.6138124,2.12349296 58.3828337,2.97190141 C59.1511456,3.82030986 59.7186889,4.72385915 60.0858186,5.68330986 C60.4525935,6.642 60.6476865,7.52767606 60.670743,8.3388169 C60.670743,8.56014085 60.5958982,8.75104225 60.4469181,8.91076056 C60.2975832,9.07085915 60.1202259,9.15033803 59.913782,9.15033803 L58.3310454,9.15033803 C58.1469485,9.15033803 57.9639157,9.08302817 57.7801736,8.94764789 C57.5964314,8.81302817 57.4818586,8.60995775 57.4361004,8.3388169 C57.2984711,7.72466197 57.0973479,7.11583099 56.8341497,6.51308451 C56.570242,5.91071831 56.1914068,5.37566197 55.6987082,4.90829577 C55.2049454,4.44130986 54.5806477,4.05988732 53.8236867,3.76478873 C53.0667257,3.46969014 52.1377281,3.32214085 51.036694,3.32214085 C48.9949566,3.32214085 47.4292463,3.95530986 46.3402724,5.22164789 C45.2505891,6.48950704 44.6713401,8.14297183 44.6028802,10.1843239 Z" id="Shape"></path>
            </g>
        </g>
    </g>
</svg>