<svg xmlns="http://www.w3.org/2000/svg" viewBox="0 0 65 65">
  <defs>
    <style>.cls-1{isolation:isolate;}.cls-2{fill:#003526;}.cls-3{fill:#009d7a;}.cls-4{fill:#fff;}.cls-5{fill:none;}.cls-6{fill:#eb8b00;}.cls-7{fill:#e24f0e;}.cls-8{fill:#e50c12;}.cls-9{fill:#c00072;}.cls-10{fill:#692e8c;}.cls-11{fill:#356696;}.cls-12{fill:#13b4b6;}.cls-13{fill:#393f96;}.cls-14{fill:#962488;}.cls-15{fill:#ce0948;}.cls-16{fill:#2f9687;}.cls-17{fill:#b9d32c;}.cls-18{fill:#e77800;}.cls-19{fill:#f7b200;}.cls-20{fill:#e23a11;}.cls-21{fill:#d4de37;}.cls-22{mix-blend-mode:color;}</style>
  </defs>
  <title>RoyaltyFinanceAsset 2</title>
  <g class="cls-1">
    <g id="Layer_2" data-name="Layer 2">
      <g id="Layer_1-2" data-name="Layer 1">
        <g id="Layer_1-2-2" data-name="Layer 1-2">
          <rect class="cls-2" width="65" height="65" />
        </g>
        <path class="cls-3" d="M42.66,20.25H57v3.56H46.83v6.4H57v3.67H46.83V46H42.66Z" />
        <path class="cls-4" d="M33.39,46H29.47V20.25H35.3c2.77,0,4.82.22,6.4,1.44a7.07,7.07,0,0,1,2.48,5.65c0,4.13-2,6.47-5.9,6.94L47.13,46H42.42l-8.56-11.5h-.47Zm1-14.74c3.67,0,5.5-.43,5.5-3.52s-1.76-3.85-5.5-3.85h-.76v7.37Z" />
        <path class="cls-5" d="M16.8,25.12h0a3.5,3.5,0,0,1,.6-.37,1,1,0,0,1,.76-.12c.24.1.28.41.14.72a1.35,1.35,0,0,1-.32.41,1.52,1.52,0,0,1-.67.34h0a1.27,1.27,0,0,0,.79-.14,1.34,1.34,0,0,0,.57-.61c.26-.52.2-1.14-.2-1.27-.25-.08-.64,0-1.17.51A6.35,6.35,0,0,0,16.8,25.12Z" />
        <polygon class="cls-5" points="11.59 24.67 12.31 23.98 11.21 24.57 11.67 25.24 11.59 24.67" />
        <path class="cls-6" d="M12.7,41.43,13.55,40H12.4A7.68,7.68,0,0,0,12.7,41.43Z" />
        <path class="cls-6" d="M15.65,40h-1.6c-.05.2-.1.41-.14.63l.69,1.19.51.89A13.25,13.25,0,0,1,16.79,40Z" />
        <path class="cls-7" d="M12.77,36.31A7.94,7.94,0,0,0,12.39,38l.1.17L13.55,40a9.23,9.23,0,0,1,2.1-3.65H12.77Z" />
        <path class="cls-7" d="M17.6,39.68l.16.28.75-1.3Z" />
        <path class="cls-7" d="M17.36,39.25c.83-1,1.7-2,2.37-2.94H16.11l-.29.29.89,1.53Z" />
        <path class="cls-8" d="M12,33.14c.14.23.16.2.46.15a1.73,1.73,0,0,0,1.08-.63H11.68Z" />
        <path class="cls-8" d="M17.76,32.66H15.43a5.72,5.72,0,0,1-1.07,1.22l-.07.06.31.54,1.05,1.83,1.06-1.83Z" />
        <path class="cls-8" d="M19.81,36.2a4.63,4.63,0,0,0,1-3.54H19.09a4.83,4.83,0,0,1-.6,1.25l.32.57Z" />
        <path class="cls-8" d="M21.17,34.06l.81-1.4H21A3.48,3.48,0,0,1,21.17,34.06Z" />
        <path class="cls-8" d="M18.32,33.62a6.57,6.57,0,0,0,.71-1H17.76Z" />
        <path class="cls-9" d="M13.61,32.54l.72-.91A9,9,0,0,0,13.61,32.54Z" />
        <path class="cls-9" d="M15.65,29H14c.35.7.1,1.55-1.38,2l.94,1.62a.86.86,0,0,0,.07-.1l1-1.71Z" />
        <polygon class="cls-9" points="15.65 29.01 16.71 30.83 17.76 32.66 18.82 30.83 19.87 29.01 17.76 29.01 15.65 29.01" />
        <polygon class="cls-9" points="19.87 29.01 20.92 30.83 21.98 32.66 23.03 30.83 24.08 29.01 21.98 29.01 19.87 29.01" />
        <path class="cls-10" d="M9.14,25.36a7.27,7.27,0,0,1-1,1,.35.35,0,0,0,0,.52l.19.31,1-1.81Z" />
        <path class="cls-10" d="M13.55,25.36H9.33l1.06,1.82L11,28.24a1.82,1.82,0,0,1,1.09-.36l.4-.7Z" />
        <polygon class="cls-10" points="17.33 26.11 17.32 26.11 17.33 26.11 17.76 25.36 15.65 25.36 13.55 25.36 14.6 27.18 15.65 29.01 16.71 27.18 17.33 26.11" />
        <path class="cls-10" d="M16.75,25.18l.07-.05h0Z" />
        <path class="cls-10" d="M18.32,25.36h-.56l.24.41A1.35,1.35,0,0,0,18.32,25.36Z" />
        <path class="cls-10" d="M18.69,25.36a1.34,1.34,0,0,1-.57.61l.69,1.21L19.87,29l1.05-1.83L22,25.36H18.69Z" />
        <path class="cls-11" d="M13.55,25.36l1-1.83,1.05-1.82h-3a8.73,8.73,0,0,0-.6,1.12l.4.7Z" />
        <path class="cls-11" d="M17.42,24.76l.34.6.42-.72A1,1,0,0,0,17.42,24.76Z" />
        <path class="cls-11" d="M15.65,21.71l1.06,1.82.61,1.07c.53-.47.92-.59,1.17-.51l.32-.56,1.06-1.82H15.65Z" />
        <path class="cls-11" d="M22,25.36l2.1-3.65H19.87l1.05,1.82Z" />
        <path class="cls-12" d="M15.65,21.71l1.06-1.83.47-.82a5.87,5.87,0,0,0-2.61.77l0,.05Z" />
        <path class="cls-12" d="M19.87,21.71l1.05-1.83.28-.49a5.88,5.88,0,0,0-2.47.35l.08.14Z" />
        <path class="cls-9" d="M9.86,29.7c.08.13.18.08.22,0a4,4,0,0,1,.27-.65H9.43Z" />
        <path class="cls-13" d="M9.24,25.19l0,.07-.06.1h.19Z" />
        <path class="cls-11" d="M10.08,24.06a5.82,5.82,0,0,0-.84,1.13l.09.17Z" />
        <path class="cls-14" d="M9.33,25.36l-1,1.81L9.43,29h.92a2.41,2.41,0,0,1,.65-.77l-.61-1.06Z" />
        <path class="cls-15" d="M11.18,31.28c-.2,0-.22.2-.13.35l.63,1h1.84l0,0L12.6,31A7,7,0,0,1,11.18,31.28Z" />
        <path class="cls-13" d="M11.44,25.36h2.11l-1.06-1.83-.4-.7v0a4.71,4.71,0,0,0-2,1.21l-.75,1.3ZM12.31,24l-.72.69.08.57-.46-.67Z" />
        <path class="cls-14" d="M14.6,27.18l-1-1.82-1.06,1.82-.4.7A2.23,2.23,0,0,1,14,29h1.67Z" />
        <path class="cls-15" d="M17.76,32.66l-1.05-1.83L15.65,29,14.6,30.83l-1,1.71a9,9,0,0,1,.72-.91A2,2,0,0,1,16,31.16a4.29,4.29,0,0,1-.61,1.5h2.33Z" />
        <path class="cls-16" d="M15.65,21.71,14.6,19.88l0-.05a5.45,5.45,0,0,0-1.88,1.88h3Z" />
        <path class="cls-13" d="M15.65,25.36h2.11l-.34-.6a3.5,3.5,0,0,0-.6.37l-.07.05.05-.06a6.35,6.35,0,0,1,.52-.52l-.61-1.07-1.06-1.82L14.6,23.53l-1,1.83Z" />
        <path class="cls-14" d="M17.76,25.36l-.43.75a1.52,1.52,0,0,0,.67-.34Z" />
        <path class="cls-14" d="M18.12,26a1.27,1.27,0,0,1-.79.14l-.62,1.07L15.65,29h4.22l-1.06-1.83Z" />
        <path class="cls-15" d="M20.85,32.66a3.28,3.28,0,0,0-.17-.59,3.86,3.86,0,0,1,.27.59h1l-1.06-1.83L19.87,29l-1.06,1.82-1,1.83H19l.13-.25c0,.09-.05.17-.07.25h1.76Z" />
        <path class="cls-16" d="M15.65,21.71h4.22l-1.06-1.83-.08-.14a6.4,6.4,0,0,0-1.38.74,4.08,4.08,0,0,1,1.22-1l-.24-.41a8.74,8.74,0,0,0-1.15,0l-.47.82Z" />
        <path class="cls-13" d="M18.49,24.09c.4.13.46.75.2,1.27H22l-1.06-1.83-1.05-1.82-1.06,1.82Z" />
        <path class="cls-13" d="M18.18,24.64l-.42.72h.56C18.46,25.05,18.42,24.74,18.18,24.64Z" />
        <path class="cls-14" d="M19.87,29h4.21l-1-1.83c-.9-1.56-.48-.82-1.05-1.82l-1.06,1.82Z" />
        <polygon class="cls-15" points="23 33.1 25.11 33.1 27.22 33.1 26.16 31.28 25.11 29.45 24.06 31.28 23 33.1" />
        <polygon class="cls-16" points="24.29 21.09 22.06 19.3 21.02 21.09 24.29 21.09" />
        <path class="cls-17" d="M14.46,45.68l.09-.17a6,6,0,0,1,.22-1.9h-.86A12.29,12.29,0,0,0,14.46,45.68Z" />
        <path class="cls-18" d="M12.39,38a7.88,7.88,0,0,0,0,2h1.15l-1.06-1.83Z" />
        <path class="cls-19" d="M13.91,40.59a8.49,8.49,0,0,0,0,3h.86a7.51,7.51,0,0,1,.34-.94l-.51-.89Z" />
        <path class="cls-19" d="M13.4,43.15A6.63,6.63,0,0,1,13.55,40l-.85,1.47A9,9,0,0,0,13.4,43.15Z" />
        <path class="cls-20" d="M14.29,33.94a5.91,5.91,0,0,0-1.52,2.37h2.88L14.6,34.48Z" />
        <path class="cls-18" d="M17.37,40h.39l-.16-.28Z" />
        <path class="cls-18" d="M16.79,40l.57-.71-.65-1.12-.89-1.53a4.78,4.78,0,0,0-.39.5A9.36,9.36,0,0,0,14.05,40h2.74Z" />
        <path class="cls-20" d="M19.73,36.31l.08-.11-1-1.72-.32-.57a15.91,15.91,0,0,1-2.38,2.4h3.62Z" />
        <path class="cls-20" d="M16.71,34.48l-1.06,1.83s2.45-2.44,2.67-2.69l-.56-1Z" />
        <path class="cls-18" d="M20.1,36.7a21.67,21.67,0,0,1-1.59,2L17.76,40h2.5a6.58,6.58,0,0,0,1.17-1l-.51-.88Z" />
        <path class="cls-19" d="M21.93,40.06h0v0Z" />
        <path class="cls-20" d="M20.36,36.31l3-1.25L22,32.66l-.81,1.4A5,5,0,0,1,20.36,36.31Z" />
        <path class="cls-7" d="M24.27,35.93,21.1,37.16l1,1.8C22.65,38.37,23.84,36.53,24.27,35.93Z" />
        <polygon class="cls-20" points="27.77 33.67 25.66 37.32 28.8 35.41 27.77 33.67" />
        <path class="cls-14" d="M25.81,26H23.26l2,2.34Q25.57,27.24,25.81,26Z" />
        <polygon class="cls-19" points="27.95 36.47 25.79 37.92 27.78 38.9 27.95 36.47" />
        <polygon class="cls-15" points="24.33 36.93 23.69 38.05 24.78 38.05 24.33 36.93" />
        <polygon class="cls-14" points="26 29.42 28.23 28.55 26.49 26.18 26 29.42" />
        <polygon class="cls-17" points="20.87 45.05 21.07 42.67 19.23 42.67 20.87 45.05" />
        <polygon class="cls-18" points="17.42 40.54 16.39 42.16 19.7 41.67 17.42 40.54" />
        <path class="cls-21" d="M18.28,42.43,16.7,44.14l-.13.14c.78.43,1.67.87,2.71,1.38l-.31-1Z" />
        <polygon class="cls-8" points="25.71 35.48 26.51 34.68 25.19 34.17 23.88 33.65 24.39 34.96 24.91 36.28 25.71 35.48" />
        <path class="cls-12" d="M26.16,19.88c-.61-.09-1.18-.17-1.68-.22l.9,1.56Z" />
        <polygon class="cls-7" points="27.55 42.13 28.37 39.47 26.01 39.47 27.55 42.13" />
        <polygon class="cls-8" points="27.99 33.04 28.38 29.88 25.99 30.04 27.99 33.04" />
        <polygon class="cls-19" points="23.36 40.77 25.33 41.76 25.42 40 25.52 38.25 23.46 39.02 21.4 39.79 21.92 40.05 21.93 40.05 23.36 40.77" />
        <path class="cls-13" d="M28.4,24.66l-1.49,1.2,1.81.7C28.62,25.92,28.52,25.29,28.4,24.66Z" />
        <polygon class="cls-11" points="26.29 24.7 26.79 21.97 25.32 22.02 26.29 24.7" />
        <path class="cls-13" d="M27.43,24.07l1.31-.52-1.12-.87Z" />
        <polygon class="cls-17" points="22.3 41.44 22.56 43.19 22.83 44.94 24.03 44.18 25.23 43.43 23.76 42.43 22.3 41.44" />
        <polygon class="cls-18" points="19.8 42.36 21.36 41.32 20.05 40.33 19.8 42.36" />
        <polygon class="cls-17" points="27.03 42.68 26.15 43.48 25.28 44.28 26.46 44.38 27.64 44.47 27.34 43.58 27.03 42.68" />
        <polygon class="cls-16" points="28.65 19.88 26.81 19.54 27.48 21.82 28.65 19.88" />
        <path class="cls-13" d="M24.49,22.49l-1.81,2.66,3.23.24C25.44,24.42,25,23.45,24.49,22.49Z" />
        <g class="cls-22">
          <polygon class="cls-3" points="23 33.1 25.11 33.1 27.22 33.1 26.16 31.28 25.11 29.45 24.06 31.28 23 33.1" />
          <polygon class="cls-3" points="24.29 21.09 22.06 19.3 21.02 21.09 24.29 21.09" />
          <path class="cls-3" d="M17.36,39.25c.83-1,1.7-2,2.37-2.94l.08-.11a4.63,4.63,0,0,0,1-3.54,3.28,3.28,0,0,0-.17-.59,3.86,3.86,0,0,1,.27.59,3.48,3.48,0,0,1,.22,1.4,5,5,0,0,1-.81,2.25l3-1.25L22,32.66,23,30.83l1-1.82-1-1.83c-.9-1.56-.48-.82-1.05-1.82l2.1-3.65H19.87l1.05-1.83.28-.49a5.88,5.88,0,0,0-2.47.35,6.4,6.4,0,0,0-1.38.74,4.08,4.08,0,0,1,1.22-1l-.24-.41a8.74,8.74,0,0,0-1.15,0,5.87,5.87,0,0,0-2.61.77,5.45,5.45,0,0,0-1.88,1.88,8.73,8.73,0,0,0-.6,1.12v0a4.71,4.71,0,0,0-2,1.21,5.82,5.82,0,0,0-.84,1.13l0,.07-.06.1a7.27,7.27,0,0,1-1,1,.35.35,0,0,0,0,.52l.19.31L9.43,29l.43.69c.08.13.18.08.22,0a4,4,0,0,1,.27-.65,2.41,2.41,0,0,1,.65-.77,1.82,1.82,0,0,1,1.09-.36A2.23,2.23,0,0,1,14,29c.35.7.1,1.55-1.38,2a7,7,0,0,1-1.42.26c-.2,0-.22.2-.13.35l.63,1,.3.48c.14.23.16.2.46.15a1.73,1.73,0,0,0,1.08-.63l0,0a.86.86,0,0,0,.07-.1l.72-.91A2,2,0,0,1,16,31.16a4.29,4.29,0,0,1-.61,1.5,5.72,5.72,0,0,1-1.07,1.22l-.07.06a5.91,5.91,0,0,0-1.52,2.37A8,8,0,0,0,12.4,40a7.68,7.68,0,0,0,.3,1.47,9,9,0,0,0,.7,1.72A6.63,6.63,0,0,1,13.55,40a9.23,9.23,0,0,1,2.1-3.65s2.45-2.44,2.67-2.69a6.57,6.57,0,0,0,.71-1l.13-.25c0,.09-.05.17-.07.25a4.83,4.83,0,0,1-.6,1.25,15.91,15.91,0,0,1-2.38,2.4l-.29.29a4.78,4.78,0,0,0-.39.5A9.36,9.36,0,0,0,14.05,40c-.05.2-.1.41-.14.63a8.49,8.49,0,0,0,0,3,12.29,12.29,0,0,0,.55,2.07l.09-.17a6,6,0,0,1,.22-1.9,7.51,7.51,0,0,1,.34-.94A13.25,13.25,0,0,1,16.79,40Z" />
          <path class="cls-3" d="M20.1,36.7a21.67,21.67,0,0,1-1.59,2l-.91,1-.23.28h2.89a6.58,6.58,0,0,0,1.17-1l-.51-.88Z" />
          <path class="cls-3" d="M24.27,35.93,21.1,37.16l1,1.8C22.65,38.37,23.84,36.53,24.27,35.93Z" />
          <polygon class="cls-3" points="27.77 33.67 25.66 37.32 28.8 35.41 27.77 33.67" />
          <path class="cls-3" d="M25.81,26H23.26l2,2.34Q25.57,27.24,25.81,26Z" />
          <polygon class="cls-3" points="27.95 36.47 25.79 37.92 27.78 38.9 27.95 36.47" />
          <polygon class="cls-3" points="24.33 36.93 23.69 38.05 24.78 38.05 24.33 36.93" />
          <polygon class="cls-3" points="26 29.42 28.23 28.55 26.49 26.18 26 29.42" />
          <polygon class="cls-3" points="20.87 45.05 21.07 42.67 19.23 42.67 20.87 45.05" />
          <polygon class="cls-3" points="17.42 40.54 16.39 42.16 19.7 41.67 17.42 40.54" />
          <path class="cls-3" d="M18.28,42.43,16.7,44.14l-.13.14c.78.43,1.67.87,2.71,1.38l-.31-1Z" />
          <polygon class="cls-3" points="25.71 35.48 26.51 34.68 25.19 34.17 23.88 33.65 24.39 34.96 24.91 36.28 25.71 35.48" />
          <path class="cls-3" d="M26.16,19.88c-.61-.09-1.18-.17-1.68-.22l.9,1.56Z" />
          <polygon class="cls-3" points="27.55 42.13 28.37 39.47 26.01 39.47 27.55 42.13" />
          <polygon class="cls-3" points="27.99 33.04 28.38 29.88 25.99 30.04 27.99 33.04" />
          <path class="cls-3" d="M25.33,41.76,25.42,40l.1-1.75L23.46,39l-2.06.77.52.26v0h0l1.43.71Z" />
          <path class="cls-3" d="M28.4,24.66l-1.49,1.2,1.81.7C28.62,25.92,28.52,25.29,28.4,24.66Z" />
          <polygon class="cls-3" points="26.29 24.7 26.79 21.97 25.32 22.02 26.29 24.7" />
          <path class="cls-3" d="M27.43,24.07l1.31-.52-1.12-.87Z" />
          <polygon class="cls-3" points="22.3 41.44 22.56 43.19 22.83 44.94 24.03 44.18 25.23 43.43 23.76 42.43 22.3 41.44" />
          <polygon class="cls-3" points="19.8 42.36 21.36 41.32 20.05 40.33 19.8 42.36" />
          <polygon class="cls-3" points="27.03 42.68 26.15 43.48 25.28 44.28 26.46 44.38 27.64 44.47 27.34 43.58 27.03 42.68" />
          <polygon class="cls-3" points="28.65 19.88 26.81 19.54 27.48 21.82 28.65 19.88" />
          <path class="cls-3" d="M24.49,22.49l-1.81,2.66,3.23.24C25.44,24.42,25,23.45,24.49,22.49Z" />
        </g>
      </g>
    </g>
  </g>
</svg>
