<?xml version="1.0" encoding="UTF-8"?>
<svg width="65px" height="65px" viewBox="0 0 65 65" version="1.1" xmlns="http://www.w3.org/2000/svg" xmlns:xlink="http://www.w3.org/1999/xlink">
    <!-- Generator: Sketch 54.1 (76490) - https://sketchapp.com -->
    <title>BO_Brand_header_logo</title>
    <desc>Created with Sketch.</desc>
    <g id="BO_Brand_header_logo" stroke="none" stroke-width="1" fill="none" fill-rule="evenodd">
        <g id="Group-7" transform="translate(0.000000, 14.000000)" fill-rule="nonzero">
            <polygon id="Path" fill="#957541" points="1.70530257e-13 36.8806452 6.5 36.8806452 1.70530257e-13 29.4976959"></polygon>
            <polygon id="Path" fill="#957541" points="12.9829396 36.8806452 3.62376795e-13 22.1317972 3.62376795e-13 14.7488479 19.4829396 36.8806452"></polygon>
            <polygon id="Path" fill="#957541" points="25.9829396 36.8806452 32.4829396 36.8806452 -1.84741111e-13 8.52651283e-14 -1.84741111e-13 7.38294931"></polygon>
            <polygon id="Path" fill="#957541" points="64.9488189 36.8806452 58.4658793 36.8806452 64.9488189 29.4976959"></polygon>
            <polygon id="Path" fill="#957541" points="51.9658793 36.8806452 64.9488189 22.1317972 64.9488189 14.7488479 45.4658793 36.8806452"></polygon>
            <polygon id="Path" fill="#957541" points="38.9658793 36.8806452 32.4829396 36.8806452 64.9488189 8.52651283e-14 64.9488189 7.38294931"></polygon>
            <polygon id="Path" fill="#BF9250" points="32.4829396 29.4976959 25.9829396 36.8806452 38.9658793 36.8806452"></polygon>
            <polygon id="Path" fill="#BF9250" points="32.4829396 14.7488479 12.9829396 36.8806452 19.4829396 36.8806452 32.4829396 22.1317972 45.4658793 36.8806452 51.9658793 36.8806452"></polygon>
            <polygon id="Path" fill="#BF9250" points="32.4829396 8.52651283e-14 4.26325641e-13 36.8806452 6.5 36.8806452 32.4829396 7.38294931 58.4658793 36.8806452 64.9488189 36.8806452"></polygon>
        </g>
    </g>
</svg>