<?xml version="1.0" encoding="UTF-8"?>
<svg width="65px" height="65px" viewBox="0 0 65 65" version="1.1" xmlns="http://www.w3.org/2000/svg" xmlns:xlink="http://www.w3.org/1999/xlink">
    <!-- Generator: Sketch 53.2 (72643) - https://sketchapp.com -->
    <title>BO_Brand_header_logo</title>
    <desc>Created with Sketch.</desc>
    <defs>
        <path d="M19.1510885,26.3154077 C20.1838859,26.3154077 21.0008902,26.109768 21.6021258,25.6984825 C22.2033614,25.287197 22.5039747,24.5454254 22.5039747,23.4731453 C22.5039747,22.320077 22.0834849,21.5342397 21.2424928,21.1156099 C20.7924882,20.8952783 20.1912616,20.7851142 19.4387949,20.7851142 L14.0608983,20.7851142 L14.0608983,26.3154077 L19.1510885,26.3154077 Z M11.8588377,18.9012892 L19.3834668,18.9012892 C20.6228236,18.9012892 21.64454,19.0812239 22.4486466,19.4410987 C23.9757113,20.1314708 24.7392322,21.4057023 24.7392322,23.2638314 C24.7392322,24.2332901 24.5382086,25.0264717 24.1361553,25.6433999 C23.734102,26.2603282 23.1716047,26.7560667 22.4486466,27.1306302 C23.0830792,27.3876837 23.5607409,27.7255203 23.8816458,28.1441501 C24.2025507,28.56278 24.3814433,29.2421254 24.4183289,30.1822065 L24.4957883,32.3524611 C24.5179197,32.9693894 24.5695588,33.4284065 24.6507071,33.7295262 C24.7834954,34.2436331 25.0195598,34.5741254 25.3589075,34.7210131 L25.3589075,35.0845583 L22.6588936,35.0845583 C22.5851223,34.945015 22.5261062,34.7650803 22.4818435,34.5447487 C22.4375807,34.3244172 22.4006956,33.8984494 22.3711871,33.2668323 L22.2383996,30.5677847 C22.1867597,29.5101934 21.7920895,28.801471 21.0543771,28.4415962 C20.633881,28.2432978 19.9736383,28.1441501 19.0736291,28.1441501 L14.0608983,28.1441501 L14.0608983,35.0845583 L11.8588377,35.0845583 L11.8588377,18.9012892 Z" id="path-1"></path>
        <path d="M37.0042233,26.0110927 C37.933741,26.0110927 38.6566883,25.8825679 39.173087,25.6255145 C39.9845707,25.2215734 40.3903064,24.4944903 40.3903064,23.4442434 C40.3903064,22.3866521 39.9587511,21.6742575 39.0956276,21.3070383 C38.6087374,21.1013956 37.8857901,20.9985757 36.9267639,20.9985757 L32.9984649,20.9985757 L32.9984649,26.0110927 L37.0042233,26.0110927 Z M37.7456206,33.4802938 C39.0956343,33.4802938 40.0583346,33.0910473 40.6337503,32.3125426 C40.9952294,31.8204689 41.1759662,31.2255827 41.1759662,30.5278662 C41.1759662,29.3527648 40.6485097,28.552239 39.593581,28.1262647 C39.0329195,27.8985888 38.2915297,27.7847526 37.3693891,27.7847526 L32.9984649,27.7847526 L32.9984649,33.4802938 L37.7456206,33.4802938 Z M30.8406669,19.1698333 L37.82308,19.1698333 C39.7263781,19.1698333 41.0800601,19.7353424 41.8841666,20.8663775 C42.3563025,21.5347164 42.592367,22.3058652 42.592367,23.1798469 C42.592367,24.2007162 42.3009749,25.0379634 41.7181821,25.6916136 C41.41572,26.0367996 40.9804762,26.3526034 40.4124377,26.6390344 C41.2460527,26.9548429 41.8694104,27.3110402 42.2825293,27.7076369 C43.0128646,28.4126978 43.3780268,29.385814 43.3780268,30.6270149 C43.3780268,31.6699174 43.0497497,32.6136566 42.3931856,33.4582608 C41.4120281,34.7214948 39.8517897,35.3531024 37.7124237,35.3531024 L30.8406669,35.3531024 L30.8406669,19.1698333 Z" id="path-2"></path>
    </defs>
    <g id="BO_Brand_header_logo" stroke="none" stroke-width="1" fill="none" fill-rule="evenodd">
        <g id="Group-8-Copy-2" transform="translate(5.000000, 2.000000)" fill-rule="nonzero">
            <g id="Group">
                <g fill="#E9A854" id="Path" stroke="#E9A854" stroke-width="0.503999986">
                    <path d="M52.4080044,31.7142362 C52.4080044,31.7142362 44.063443,18.7988071 50.7249561,8.65287402 L42.4037939,0.0890984252 C42.4037939,0.0890984252 33.5215351,3.9056811 27.4442763,3.71955906 C21.3670175,3.9056811 12.4847588,0.0890984252 12.4847588,0.0890984252 L4.16359649,8.65263386 C10.8251096,18.7985669 2.48054825,31.7139961 2.48054825,31.7139961 C-6.28471491,45.885689 12.0874561,52.4479921 12.0874561,52.4479921 C25.4107237,56.9156417 27.4442763,60.964937 27.4442763,60.964937 C27.4442763,60.964937 29.4778289,56.9158819 42.8010965,52.4479921 C42.8010965,52.4482323 61.1735088,45.8859291 52.4080044,31.7142362 Z"></path>
                </g>
                <path d="M49.7897149,31.6018425 C49.7897149,31.6018425 42.234693,18.3694055 48.2663596,9.1838622 L41.7519956,2.51949213 C41.7519956,2.51949213 32.6909868,6.42517323 27.189057,6.25658268 C21.6866447,6.42517323 12.9394737,2.26732677 12.9394737,2.26732677 L6.11151316,9.1838622 C12.1426974,18.3694055 4.58791667,31.6018425 4.58791667,31.6018425 C-3.34800439,44.4322559 13.285636,50.3735118 13.285636,50.3735118 C25.3480044,54.4184843 27.1892982,58.0844882 27.1892982,58.0844882 C27.1892982,58.0844882 29.0301096,54.4184843 41.0927193,50.3735118 C41.0919956,50.3735118 57.7253947,44.4322559 49.7897149,31.6018425 Z" id="Path" fill="#FFFFFF"></path>
                <path d="M13.6457895,3.86485433 C14.1914474,4.11629921 15.9647149,4.91290157 18.1651974,5.70037795 C21.7286184,6.97609449 24.6580921,7.62259843 26.8720833,7.62259843 C26.9784649,7.62259843 27.084364,7.62091732 27.1888158,7.61755512 C27.3000219,7.62115748 27.4117105,7.62259843 27.5260526,7.62259843 C29.7426974,7.62259843 32.7180044,7.01740157 36.3697149,5.82357874 C38.6382237,5.08197244 40.4737281,4.33148031 41.0254167,4.10092913 L46.5722149,9.60605906 C44.2805482,13.2396417 43.8805921,18.1796811 45.4181798,23.9100787 C46.593443,28.2893504 48.5044518,31.6378661 48.5280921,31.6782126 C50.5170175,34.8941614 51.0298684,37.932874 50.0521711,40.7112559 C48.0535965,46.3907402 40.4428509,49.170563 40.3716886,49.1962598 C30.8849123,52.377626 27.9607456,55.3159528 27.1888158,56.3255748 C26.416886,55.3161929 23.493443,52.3781063 14.0110088,49.1981811 C13.9345395,49.1708031 6.32379386,46.3909803 4.3252193,40.7114961 C3.34776316,37.9331142 3.86037281,34.8944016 5.85364035,31.671248 C5.8729386,31.6383465 7.78394737,28.2989567 8.95921053,23.9278504 C10.4970395,18.2092205 10.0973246,13.2759055 7.80541667,9.64184252 L13.6457895,3.86485433 L13.6457895,3.86485433 Z M13.5888596,3.54016142 L7.4585307,9.60365748 C13.2147149,18.3706063 5.61796053,31.5365197 5.61796053,31.5365197 C-1.95587719,43.7819094 13.9191009,49.4520276 13.9191009,49.4520276 C25.4314693,53.3127992 27.1885746,56.8114134 27.1885746,56.8114134 C27.1885746,56.8114134 28.9454386,53.3125591 40.457807,49.4520276 C40.457807,49.4520276 56.3327851,43.7819094 48.7587061,31.5365197 C48.7587061,31.5365197 41.162193,18.335063 46.918136,9.56835433 L41.0871711,3.78127953 C41.0871711,3.78127953 32.8007456,7.35242126 27.5255702,7.35242126 C27.4112281,7.35242126 27.2995395,7.35098031 27.1883333,7.34737795 C27.0838816,7.3505 26.9782237,7.35242126 26.8716009,7.35242126 C21.6089693,7.35242126 13.5888596,3.54016142 13.5888596,3.54016142 L13.5888596,3.54016142 Z" id="Shape" stroke="#D89B21" stroke-width="0.503999986" fill="#E9A854"></path>
            </g>
            <path d="M13.6296272,3.86485433 C14.1752851,4.11629921 15.9485526,4.91290157 18.1490351,5.70037795 C21.7124561,6.97609449 24.6419298,7.62259843 26.8559211,7.62259843 C26.9623026,7.62259843 27.0682018,7.62091732 27.1726535,7.61755512 C27.2838596,7.62115748 27.3955482,7.62259843 27.5098904,7.62259843 C29.7262939,7.62259843 32.7018421,7.01740157 36.3535526,5.82357874 C38.6220614,5.08197244 40.4575658,4.33148031 41.0092544,4.10092913 L46.5560526,9.60605906 C44.264386,13.2396417 43.8644298,18.1796811 45.4020175,23.9100787 C46.5772807,28.2893504 48.4882895,31.6378661 48.5119298,31.6782126 C50.5008553,34.8941614 51.0137061,37.932874 50.0360088,40.7112559 C48.0374342,46.3907402 40.4266886,49.170563 40.3555263,49.1962598 C30.86875,52.377626 27.9445833,55.3159528 27.1726535,56.3255748 C26.4007237,55.3161929 23.4772807,52.3781063 13.9948465,49.1981811 C13.9183772,49.1708031 6.30763158,46.3909803 4.30905702,40.7114961 C3.33160088,37.9331142 3.84421053,34.8944016 5.83747807,31.671248 C5.85677632,31.6383465 7.76778509,28.2989567 8.94304825,23.9278504 C10.4808772,18.2092205 10.0811623,13.2759055 7.78925439,9.64184252 L13.6296272,3.86485433 L13.6296272,3.86485433 Z M13.5726974,3.54016142 L7.44236842,9.60365748 C13.1985526,18.3706063 5.60179825,31.5365197 5.60179825,31.5365197 C-1.97203947,43.7819094 13.9029386,49.4520276 13.9029386,49.4520276 C25.415307,53.3127992 27.1724123,56.8114134 27.1724123,56.8114134 C27.1724123,56.8114134 28.9292763,53.3125591 40.4416447,49.4520276 C40.4416447,49.4520276 56.3166228,43.7819094 48.7425439,31.5365197 C48.7425439,31.5365197 41.1460307,18.335063 46.9019737,9.56835433 L41.0710088,3.78127953 C41.0710088,3.78127953 32.7845833,7.35242126 27.5094079,7.35242126 C27.3950658,7.35242126 27.2833772,7.35098031 27.1721711,7.34737795 C27.0677193,7.3505 26.9620614,7.35242126 26.8554386,7.35242126 C21.592807,7.35242126 13.5726974,3.54016142 13.5726974,3.54016142 L13.5726974,3.54016142 Z" id="Shape" stroke="#29313F" stroke-width="0.503999986" fill="#29313F"></path>
            <polyline id="Path" fill="#29313F" points="27.1883333 7.61755512 27.1885746 55.9225906 27.1883333 7.78686614 34.1598246 6.50874803 41.1083991 4.10092913 46.6884868 9.60605906 45.2133772 12.5448661 44.5391447 17.4736181 45.4461623 22.6747087 46.5905482 27.1745394 50.3551535 35.492874 50.6378728 38.6675157 49.6167544 41.9891339 47.8000658 44.4603543 44.2532895 47.6157835 35.1799781 51.1922087 30.9449781 53.5246181 27.1885746 56.3255748"></polyline>
            <g id="R">
                <use fill="#000000" xlink:href="#path-1"></use>
                <use fill="#29313F" xlink:href="#path-1"></use>
            </g>
            <g id="B">
                <use fill="#000000" xlink:href="#path-2"></use>
                <use stroke="#E9A854" stroke-width="0.503999986" fill="#E9A854" xlink:href="#path-2"></use>
            </g>
        </g>
    </g>
</svg>