<svg id="Layer_1" data-name="Layer 1" xmlns="http://www.w3.org/2000/svg" viewBox="0 0 65 65"><defs><style>.cls-1{fill:#fff;}.cls-2{fill:#0b1639;}.cls-3{fill:#f5bd1f;}</style></defs><title>Royalsfx  - Max-EcoSales -App</title><rect class="cls-1" width="65" height="64.5"/><path class="cls-2" d="M39.91,47.42c1.8-.47,3.83,1.75,5.14-1.34l.32.51c-.7,1.51-1.38,3-2.09,4.53-1,2-1,2.06.83,3.37a2.87,2.87,0,0,0,.64.43c.7.23,1.42.42,2.13.63a22.29,22.29,0,0,1-.12-2.3A5.75,5.75,0,0,1,47.12,51c1-1.86,2.14-3.63,3.16-5.47.59-1.05.09-1.75-.93-2.19A7.16,7.16,0,0,0,39.91,47.42Z"/><path class="cls-2" d="M48.16,36.92c.3-1.33.59-2.64.89-4C49.82,34.8,49.62,35.66,48.16,36.92Z"/><path class="cls-2" d="M40.8,26.77l-.6-.08.71-5.36.63.08C41.3,23.2,41.05,25,40.8,26.77Z"/><path class="cls-2" d="M42.58,24.82c.33,1.64.67,3.29,1,4.94A4.63,4.63,0,0,1,42.58,24.82Z"/><path class="cls-2" d="M41.71,17.16c-1,1.89-2,3.79-3.07,5.78C38.14,20.27,40.21,18.85,41.71,17.16Z"/><path class="cls-2" d="M47.37,34.22c-.88-2.1-1.61-3.82-2.34-5.53l.39-.15C46.42,30.17,47.8,31.66,47.37,34.22Z"/><path class="cls-2" d="M0,65H65l0-.16c-1.57-.46-3.16-.87-4.71-1.41a5.35,5.35,0,0,1-2.43-1.28c-1.08-1.36-2.43-1.33-3.88-1.37-3.52-.07-7-.2-10.55-.29-.84,0-1.51-.1-1.61-1.18a2.66,2.66,0,0,0-.66-1.2C36.34,52,38.27,44,45.35,40.58a32.89,32.89,0,0,0,4.23-2.25c2.49-1.68,2.89-3.49,1.52-6.14-.62-1.18-1.34-2.32-2-3.47,1.28-.72,1.37-.68,1.86.85,1.37-1.14,2-2.45,1.39-3.88-1,0-2,.28-2.62-.1s-.66-1.46-.56-2.18c.16-1.13,1.16-1.49,2.22-1.54.66,0,1.33,0,2.11,0-.13.51-.24.93-.35,1.34,1.33-1.08,3-1.9,2.4-4.07-.15-.55.15-1.61-.07-1.69a14,14,0,0,0-3.28-.85c-.27,0-.6.47-.95.61a10.27,10.27,0,0,1-1.47.4l-.12-.53a4.4,4.4,0,0,0,.79-.29c.29-.17.79-.46.76-.61a1.57,1.57,0,0,0-.65-.91,5.27,5.27,0,0,0-1.43-.59c-1.38-.4-2.54-.81-3.06-2.52a3.85,3.85,0,0,0-2.6-1.92A27.24,27.24,0,0,0,38,9.77c-.47,0-1.55-.18-1.16,1.05,0,.07-.51.42-.82.5a7.05,7.05,0,0,0-4.67,4.19l1.49.25a16.22,16.22,0,0,0-4.29,13.69l1.91-.69a15.68,15.68,0,0,1-.56,2.53,8.84,8.84,0,0,1-5,5c-1.48.61-3,1.16-4.47,1.76a13.89,13.89,0,0,0-5.8,4,2.35,2.35,0,0,1-.55.54c-2,1.24-7.85.72-9.69-.87a4.45,4.45,0,0,1-.5-6.15C4.92,34.37,6,34.49,7,35.78c.83,1.1,1.87,2,3,3.28.45-2.66-.52-4.35-2.54-5.06a4.41,4.41,0,0,0-5.57,2.06,6.06,6.06,0,0,0,3,8.36c2.08.85,4.49.91,6.76,1.28a11.84,11.84,0,0,0,2-.09c-.44,1.67-.8,3.19-1.26,4.66-.09.3-.72.72-.9.64-1.29-.57-1.68.45-2.15,1.18a16.41,16.41,0,0,0-2.8,9.83c.07,1.59-.5,2.07-2,2.18A22.62,22.62,0,0,0,0,65ZM38.37,17.18c-2.48,2.49-6.14,3.74-7.53,7.37C31.35,20.05,35,18.76,38.37,17.18Zm.46-3.28H35.38v-.4h3.41Zm2.88,3.26c-1,1.89-2,3.79-3.07,5.78C38.14,20.27,40.21,18.85,41.71,17.16Zm-.8,4.17.63.08c-.24,1.79-.49,3.57-.74,5.36l-.6-.08Zm7.25,15.59c.3-1.33.59-2.64.89-4C49.82,34.8,49.62,35.66,48.16,36.92ZM45,28.69l.39-.15c1,1.63,2.38,3.12,1.95,5.68C46.49,32.12,45.76,30.4,45,28.69Zm-1.44,1.07a4.63,4.63,0,0,1-1-4.94C42.91,26.46,43.25,28.11,43.59,29.76ZM40,33.37a38.86,38.86,0,0,1-2-4.73l.47-.2c1.21,2.19,2.45,4.37,3.6,6.59a4.14,4.14,0,0,1,.06,4.33C42.32,37,41.13,35.25,40,33.37Zm-4,1c-.65-1.1-1.45-2.14-2-3.28A5.54,5.54,0,0,1,35,24.44a6.69,6.69,0,0,1-.09.9,10.19,10.19,0,0,0,1.94,8.76,33.18,33.18,0,0,1,2,2.78,5.35,5.35,0,0,1,.94,4C38.61,38.83,37.32,36.58,36,34.35ZM22.31,54c4.26-2.87,4.56-3.88,2.51-8.46,1.35.79,1.35.79,2.33,4.4l4-.45c-.26-1.15-.47-2.11-.69-3.07a39.21,39.21,0,0,1,3.38,5.21c.08.15.11.49,0,.55-1,.8,0,1.2.31,1.73a32.24,32.24,0,0,1,1.88,3.46,22.07,22.07,0,0,1,.8,3.47c-3.08,0-6.32,0-9.55,0-1.08,0-2,0-2.58-1.18a2.52,2.52,0,0,0-1.62-1.05c-1.14-.23-2.12-.49-2.34-1.83A2.71,2.71,0,0,1,22.31,54ZM9.92,60.2c.44-2.74,1.63-4.66,4.49-5.72,1.37-.52,2.42-2.26,3.23-3.67.27-.47-.64-1.63-1-2.44,2.75,1.15,2.92,1.64,1.29,4.17-.67,1.05-1.42,2.05-2,3.13a2.06,2.06,0,0,0,0,1.3c1.9.32,2,2.36,3.28,3.33.42.34.46,1.44.32,2.12-.08.36-.88.73-1.4.82-1.33.21-2.68.27-4,.36-1.14.08-2.44.49-2.79-1.26,0-.19-.36-.41-.58-.46C9.7,61.65,9.8,61,9.92,60.2Z"/><path class="cls-3" d="M26.07,21.39l-7-2.63,1.67-3.41-3.4,1.7-2.64-7L12,17,8.63,15.35l1.7,3.4-7,2.64,7,2.64L8.63,27.44l3.4-1.7,2.65,7.05,2.63-7,3.41,1.67L19,24Zm-18.73,0,3.56-1.33,2.35,1.33Zm7.34,7.34-1.34-3.56,1.34-2.35Zm0-8.76V14.05L16,17.62Zm1.42,1.42H22l-3.57,1.34Z"/></svg>