<?xml version="1.0" encoding="utf-8"?>
<!-- Generator: Adobe Illustrator 20.1.0, SVG Export Plug-In . SVG Version: 6.00 Build 0)  -->
<svg version="1.1" id="Layer_1" xmlns="http://www.w3.org/2000/svg" xmlns:xlink="http://www.w3.org/1999/xlink" x="0px" y="0px"
	 width="65px" height="65px" viewBox="0 0 65 65" style="enable-background:new 0 0 65 65;" xml:space="preserve">
<style type="text/css">
	.st0{fill:#167E67;}
	.st1{fill:#48A45E;}
	.st2{fill:#FFFFFF;}
	.st3{enable-background:new    ;}
	.st4{fill:#79BEC0;}
</style>
<g>
	<path class="st0" d="M9.6,28.1H9.4c-1.7,0-3.8,1.1-3.8,1.1s0,1.7,0,3c0.1,1.2,0.5,2.5,1.3,3.4c0.7,0.8,2,1.6,2.6,2
		c0.6-0.3,2-1.1,2.6-2c0.8-1,1.3-2.1,1.3-3.4c0-1.3,0-3,0-3S11.3,28.1,9.6,28.1z"/>
	<path class="st1" d="M3.9,31.8h-3c0.2-1.9,0.8-3.6,2.1-5L5,29C4.4,29.8,4,30.8,3.9,31.8z"/>
	<path class="st1" d="M5,36l-2.1,2.1C1.7,36.8,1,35,0.8,33.2h3C4,34.2,4.4,35.2,5,36z"/>
	<path class="st1" d="M6,37c0.8,0.7,1.8,1.1,2.9,1.2v3c-1.9-0.1-3.6-0.8-5-2.1L6,37z"/>
	<path class="st1" d="M13,37l2.1,2.1c-1.4,1.2-3.1,2-5,2.1v-3C11.3,38.1,12.3,37.6,13,37z"/>
	<path class="st1" d="M6,28l-2.1-2.1c1.4-1.2,3.1-2,5-2.1v3C7.8,26.9,6.8,27.4,6,28z"/>
	<path class="st1" d="M13,28c-0.8-0.7-1.8-1.1-2.9-1.2v-3c1.9,0.1,3.6,0.8,5,2.1L13,28z"/>
	<path class="st1" d="M18.1,31.8h-3c-0.1-1.1-0.6-2-1.2-2.9l2.1-2.1C17.3,28.2,18,30,18.1,31.8z"/>
	<path class="st1" d="M15.2,33.2h3c-0.2,1.9-0.9,3.6-2.1,4.9L14,36C14.7,35.2,15.1,34.2,15.2,33.2z"/>
	<path class="st2" d="M11,35c-1.3,1.7-2.3,0.8-2.3,0.8s1.2,0.4,1.4-0.6c0-0.1,0-0.1,0-0.1c0-0.1,0-0.1,0-0.2c0-0.6-0.4-1.1-0.9-1.6
		c-0.6-0.4-1.1-1.1-1.5-1.8l0,0c-0.2-0.4-0.2-0.8,0-1.1c0.1-0.1,0.1-0.2,0.1-0.2c1.3-1.7,2.3-0.8,2.3-0.8S9,28.9,8.7,29.9
		c0,0.1,0,0.1,0,0.1c0,0.1,0,0.1,0,0.2c0.1,0.6,0.4,1.1,1,1.6c0.6,0.4,1.1,1.1,1.4,1.8l0,0c0.2,0.4,0.2,0.8,0,1.1
		C11.1,34.8,11,34.9,11,35z"/>
	<ellipse transform="matrix(0.5886 -0.8084 0.8084 0.5886 -20.1912 21.1024)" class="st2" cx="10.6" cy="30.4" rx="0.7" ry="0.7"/>
	<ellipse transform="matrix(0.5886 -0.8084 0.8084 0.5886 -24.6359 20.9681)" class="st2" cx="8.3" cy="34.7" rx="0.7" ry="0.7"/>
	<g class="st3">
		<path class="st4" d="M22.1,31.7l0.3-0.8c0.4,0.3,1,0.4,1.5,0.4c0.6,0,0.9-0.2,0.9-0.4c0-0.8-2.6-0.3-2.6-2c0-0.8,0.6-1.4,1.9-1.4
			c0.6,0,1.2,0.1,1.6,0.4l-0.3,0.7c-0.4-0.2-0.8-0.3-1.2-0.3c-0.6,0-0.8,0.2-0.8,0.5c0,0.8,2.6,0.3,2.6,1.9c0,0.7-0.6,1.4-1.9,1.4
			C23.1,32.2,22.5,31.9,22.1,31.7z"/>
		<path class="st4" d="M29.5,30.1v2h-1v-0.4c-0.2,0.3-0.6,0.4-1.1,0.4c-0.8,0-1.3-0.4-1.3-1.1c0-0.6,0.4-1.1,1.5-1.1h0.8
			c0-0.4-0.3-0.7-0.8-0.7c-0.4,0-0.7,0.1-1,0.3l-0.4-0.7c0.4-0.3,1-0.4,1.5-0.4C28.9,28.6,29.5,29.1,29.5,30.1z M28.5,31v-0.3h-0.7
			c-0.4,0-0.6,0.2-0.6,0.4c0,0.2,0.2,0.4,0.6,0.4C28.1,31.4,28.4,31.3,28.5,31z"/>
	</g>
	<g class="st3">
		<path class="st4" d="M31.4,28.7h0.9v0.8h-0.8v2.6h-1v-2.6h-0.6v-0.8h0.6v-0.2c0-0.8,0.4-1.3,1.3-1.3c0.3,0,0.6,0.1,0.8,0.2
			l-0.3,0.7C32.2,28,32.1,28,31.9,28C31.6,28.1,31.4,28.3,31.4,28.7L31.4,28.7L31.4,28.7z"/>
	</g>
	<g class="st3">
		<path class="st4" d="M36,30.6h-2.6c0.1,0.4,0.4,0.7,1,0.7c0.4,0,0.7-0.1,0.9-0.3l0.6,0.6c-0.3,0.4-0.8,0.6-1.4,0.6
			c-1.2,0-2-0.7-2-1.8c0-1.1,0.8-1.8,1.9-1.8c1,0,1.8,0.7,1.8,1.8C36,30.4,36,30.5,36,30.6z M33.3,30H35c-0.1-0.4-0.4-0.7-0.8-0.7
			C33.7,29.4,33.4,29.6,33.3,30z"/>
		<path class="st4" d="M38.6,27.6h2c1.5,0,2.5,0.9,2.5,2.2c0,1.3-1,2.2-2.5,2.2h-2V27.6z M40.6,31.3c0.9,0,1.5-0.6,1.5-1.4
			s-0.6-1.4-1.5-1.4h-1v2.8H40.6z"/>
		<path class="st4" d="M47.2,30.6h-2.6c0.1,0.4,0.4,0.7,1,0.7c0.4,0,0.7-0.1,0.9-0.3l0.6,0.6c-0.3,0.4-0.8,0.6-1.4,0.6
			c-1.2,0-2-0.7-2-1.8c0-1.1,0.8-1.8,1.9-1.8c1,0,1.8,0.7,1.8,1.8C47.2,30.4,47.2,30.5,47.2,30.6z M44.6,30h1.7
			c-0.1-0.4-0.4-0.7-0.8-0.7C44.9,29.4,44.7,29.6,44.6,30z"/>
		<path class="st4" d="M51.7,30.4c0,1.1-0.7,1.8-1.7,1.8c-0.4,0-0.8-0.1-1.1-0.4v1.6h-1v-4.8h1V29c0.2-0.3,0.6-0.4,1.1-0.4
			C50.9,28.6,51.7,29.2,51.7,30.4z M50.7,30.4c0-0.6-0.4-1-0.9-1s-0.9,0.4-0.9,1s0.4,1,0.9,1S50.7,30.9,50.7,30.4z"/>
		<path class="st4" d="M52.1,30.4c0-1.1,0.8-1.8,1.9-1.8s1.9,0.7,1.9,1.8c0,1.1-0.8,1.8-1.9,1.8S52.1,31.4,52.1,30.4z M54.9,30.4
			c0-0.6-0.4-1-0.9-1s-0.9,0.4-0.9,1s0.4,1,0.9,1S54.9,30.9,54.9,30.4z"/>
		<path class="st4" d="M56.2,31.8l0.3-0.7c0.3,0.2,0.8,0.3,1.2,0.3s0.7-0.1,0.7-0.3c0-0.6-2.1,0-2.1-1.3c0-0.7,0.6-1.1,1.6-1.1
			c0.4,0,1,0.1,1.3,0.3l-0.3,0.7c-0.3-0.2-0.7-0.3-1-0.3c-0.4,0-0.7,0.1-0.7,0.3c0,0.6,2.1,0.1,2.1,1.4c0,0.7-0.6,1.1-1.6,1.1
			C57.2,32.1,56.6,32,56.2,31.8z"/>
		<path class="st4" d="M59.9,27.6c0-0.3,0.2-0.6,0.6-0.6c0.4,0,0.6,0.2,0.6,0.6c0,0.3-0.2,0.6-0.6,0.6
			C60.1,28.1,59.9,27.9,59.9,27.6z M60,28.6h1v3.5h-1V28.6z"/>
		<path class="st4" d="M64.2,31.9c-0.2,0.1-0.5,0.2-0.8,0.2c-0.8,0-1.3-0.4-1.3-1.2v-1.4h-0.6v-0.8H62v-0.8h1v0.8h0.8v0.8H63v1.4
			c0,0.3,0.2,0.4,0.4,0.4c0.1,0,0.3-0.1,0.4-0.1L64.2,31.9z"/>
	</g>
	<g class="st3">
		<path class="st2" d="M22.2,36.1c0-1,0.7-1.7,1.7-1.7c0.6,0,1,0.2,1.3,0.6L25,35.2c-0.2-0.3-0.6-0.5-1.1-0.5
			c-0.8,0-1.3,0.6-1.3,1.4c0,0.8,0.6,1.4,1.3,1.4c0.4,0,0.8-0.2,1.1-0.5l0.2,0.2c-0.3,0.4-0.7,0.6-1.3,0.6
			C22.9,37.9,22.2,37.2,22.2,36.1z"/>
		<path class="st2" d="M33.2,36.3h-2.9c0.1,0.8,0.6,1.3,1.4,1.3c0.4,0,0.8-0.2,1.1-0.4l0.2,0.2c-0.3,0.4-0.7,0.6-1.2,0.6
			c-1,0-1.7-0.7-1.7-1.7s0.7-1.7,1.6-1.7C32.5,34.6,33.2,35.2,33.2,36.3C33.2,36.2,33.2,36.3,33.2,36.3z M30.3,36h2.6
			c-0.1-0.7-0.6-1.2-1.3-1.2C30.9,34.7,30.4,35.3,30.3,36z"/>
		<path class="st2" d="M41.4,35.9v2h-0.3v-2c0-0.7-0.4-1.2-1.1-1.2c-0.8,0-1.3,0.5-1.3,1.3v1.8h-0.3v-3.4h0.3v0.7
			c0.2-0.4,0.7-0.7,1.3-0.7C40.9,34.5,41.4,35,41.4,35.9z"/>
		<path class="st2" d="M48.6,37.7c-0.2,0.2-0.4,0.2-0.7,0.2c-0.6,0-0.9-0.3-0.9-0.9v-2.2h-0.6v-0.3H47v-0.7h0.3v0.7h1.1v0.3h-1.1V37
			c0,0.4,0.2,0.7,0.6,0.7c0.2,0,0.4-0.1,0.5-0.2L48.6,37.7z"/>
		<path class="st2" d="M55.4,34.5v0.3c-0.1,0-0.1,0-0.1,0c-0.7,0-1.2,0.5-1.2,1.3v1.7h-0.3v-3.4h0.3v0.7
			C54.3,34.7,54.8,34.5,55.4,34.5z"/>
		<path class="st2" d="M63.4,36.3h-2.9c0.1,0.8,0.6,1.3,1.4,1.3c0.4,0,0.8-0.2,1.1-0.4l0.2,0.2C62.9,37.8,62.5,38,62,38
			c-1,0-1.7-0.7-1.7-1.7s0.7-1.7,1.6-1.7C62.7,34.6,63.4,35.2,63.4,36.3C63.4,36.2,63.4,36.3,63.4,36.3z M60.5,36h2.6
			c-0.1-0.7-0.6-1.2-1.3-1.2C61.1,34.7,60.6,35.3,60.5,36z"/>
	</g>
</g>
</svg>
