<svg xmlns="http://www.w3.org/2000/svg" viewBox="0 0 65 65"><defs><style>.cls-1{fill:#0a1d27;}.cls-2{fill:#29abe2;}.cls-3{fill:none;}</style></defs><title>SKYKAPITAL - 65X65Asset 2</title><g id="Layer_2" data-name="Layer 2"><g id="Layer_1-2" data-name="Layer 1"><path class="cls-1" d="M51.62,53.22a2.47,2.47,0,0,1-2.47-2.46V31.51a2.47,2.47,0,0,1,4.94,0V50.76A2.47,2.47,0,0,1,51.62,53.22Z"/><path class="cls-1" d="M13.87,53.22a2.46,2.46,0,0,1-2.46-2.46V40.39a2.47,2.47,0,0,1,4.93,0V50.76A2.46,2.46,0,0,1,13.87,53.22Z"/><path class="cls-1" d="M34.6,38.91a2.46,2.46,0,0,1-2.47-2.46V14.74a2.47,2.47,0,1,1,4.93,0V36.45A2.46,2.46,0,0,1,34.6,38.91Z"/><path class="cls-2" d="M15,42.86H11.8a7.31,7.31,0,0,1-7.3-7.3v-17a7.32,7.32,0,0,1,7.3-7.31H15a7.31,7.31,0,0,1,7.3,7.31v17A7.3,7.3,0,0,1,15,42.86ZM11.8,16.22a2.38,2.38,0,0,0-2.37,2.37v17a2.38,2.38,0,0,0,2.37,2.37H15a2.38,2.38,0,0,0,2.37-2.37v-17A2.37,2.37,0,0,0,15,16.22Z"/><path class="cls-2" d="M35.68,53.72H32.53a7.32,7.32,0,0,1-7.31-7.31V41.28A7.32,7.32,0,0,1,32.53,34h3.15a7.31,7.31,0,0,1,7.3,7.3v5.13A7.31,7.31,0,0,1,35.68,53.72ZM32.53,38.91a2.38,2.38,0,0,0-2.37,2.37v5.13a2.37,2.37,0,0,0,2.37,2.37h3.15a2.37,2.37,0,0,0,2.37-2.37V41.28a2.38,2.38,0,0,0-2.37-2.37Z"/><path class="cls-2" d="M53.2,33H50a7.3,7.3,0,0,1-7.3-7.3V20.56a7.3,7.3,0,0,1,7.3-7.3H53.2a7.31,7.31,0,0,1,7.3,7.3v5.13A7.31,7.31,0,0,1,53.2,33ZM50,18.19a2.37,2.37,0,0,0-2.37,2.37v5.13A2.37,2.37,0,0,0,50,28.06H53.2a2.38,2.38,0,0,0,2.37-2.37V20.56a2.38,2.38,0,0,0-2.37-2.37Z"/><rect class="cls-3" width="65" height="65"/></g></g></svg>