<?xml version="1.0" encoding="UTF-8"?>
<svg width="65px" height="65px" viewBox="0 0 65 65" version="1.1" xmlns="http://www.w3.org/2000/svg" xmlns:xlink="http://www.w3.org/1999/xlink">
    <!-- Generator: Sketch 52.6 (67491) - http://www.bohemiancoding.com/sketch -->
    <title>BO_Brand_header_logo</title>
    <desc>Created with Sketch.</desc>
    <defs>
        <linearGradient x1="-0.000206583246%" y1="50.0001491%" x2="100.000106%" y2="50.0001491%" id="linearGradient-1">
            <stop stop-color="#673539" offset="0%"></stop>
            <stop stop-color="#5C3239" offset="10.88%"></stop>
            <stop stop-color="#412738" offset="33.16%"></stop>
            <stop stop-color="#382337" offset="40.82%"></stop>
            <stop stop-color="#332A48" offset="55.77%"></stop>
            <stop stop-color="#2E3055" offset="68.88%"></stop>
        </linearGradient>
    </defs>
    <g id="BO_Brand_header_logo" stroke="none" stroke-width="1" fill="none" fill-rule="evenodd">
        <g id="Group-40" transform="translate(0.000000, 12.000000)">
            <path d="M44.100395,40.3986103 C40.0895247,40.3702535 36.195504,39.1279004 32.7044696,36.655523 C32.4241134,36.4570259 32.2399618,36.4241486 31.9397865,36.6353856 C27.676224,39.6309239 22.9477408,40.8547836 17.7597045,40.240388 C9.25941771,39.2347518 2.18279581,32.7151716 0.4445043,24.4173373 C-1.77728825,13.8135672 4.8373032,3.32281309 15.4751518,0.750981722 C21.3618078,-0.672196934 26.8665353,0.426728774 31.8592718,3.88337205 C32.1941304,4.11515743 32.4051201,4.13447288 32.7490624,3.89118042 C36.6934564,1.10441333 41.1056614,-0.127254717 45.9121819,0.235629127 C55.3604776,0.949067807 62.8087057,8.06290625 64.3248593,16.9784239 C65.9335015,26.4388838 60.4126712,35.8681103 51.3487815,39.1587229 C49.0918929,39.978602 46.7714182,40.389158 44.100395,40.3986103 Z M39.6613517,27.5550702 C40.1101695,27.9438449 40.5969737,28.365908 41.0879069,28.7916698 C40.3075337,29.6768927 39.5762952,30.507046 38.792206,31.3963785 C41.2365494,31.3963785 43.5685851,31.3963785 45.9353041,31.3963785 C45.9353041,29.5560684 45.9353041,27.7523343 45.9353041,25.8885991 C46.4923006,25.8885991 47.0170912,25.8906539 47.541469,25.8881881 C49.2558125,25.8803797 50.9701561,25.9309287 52.6650935,25.5565377 C56.3774401,24.7362476 59.1991703,22.2531851 59.4741589,18.2783125 C59.6339496,15.9682671 59.1042042,13.8653491 57.4778075,12.1425755 C55.656111,10.2130855 53.2910436,9.38375413 50.7265475,9.3019717 C46.8011467,9.1762158 42.8695525,9.24238149 38.9408485,9.22923054 C38.8458824,9.22881958 38.7505035,9.25183373 38.6435635,9.26539564 C38.6282863,9.34389033 38.6051642,9.40594634 38.6051642,9.46800236 C38.6026868,13.9212406 38.5997965,18.3744788 38.6150737,22.827306 C38.6154866,22.9600483 38.7855996,23.1655318 38.9202037,23.2119711 C39.6146945,23.4515649 40.3232238,23.6504729 41.07552,23.8781486 C40.9371999,24.3474729 40.8447112,24.781043 40.6824432,25.1874894 C40.3723584,25.9625731 40.0230485,26.7220401 39.6613517,27.5550702 Z M25.0014847,29.5396297 C23.6550314,27.2110908 24.6827291,24.7300831 26.1836055,23.5958143 C26.514748,23.3455354 27.0226099,23.0944346 27.0783508,22.7788119 C27.1373949,22.4451067 26.7125251,22.0485236 26.5704889,21.6539953 C26.1869087,20.5883579 25.3367562,19.9661539 24.4329272,19.4212117 C22.8246978,18.4517406 20.9877242,18.1554334 19.1916273,17.7411787 C18.0057904,17.4674746 16.8224309,17.176921 15.6535228,16.840339 C15.1700217,16.7010212 14.8458985,16.3237535 14.8293827,15.7808662 C14.812041,15.2083892 15.1023068,14.7813945 15.6142977,14.5816645 C16.0833474,14.3987842 16.5912092,14.2627541 17.091639,14.2204245 C18.6201794,14.0913809 20.1255977,14.2734393 21.5806426,14.7608461 C22.4477239,15.0513998 23.295812,15.3978449 24.1831252,15.7311392 C24.8982608,14.014941 25.6088545,12.31025 26.3260546,10.5903532 C26.1633736,10.4999404 26.0395049,10.4206238 25.9069653,10.3598007 C25.5783002,10.2089758 25.2512867,10.0511645 24.913125,9.92294281 C21.9724808,8.80634552 18.9261353,8.50099705 15.8149651,8.8240171 C13.682358,9.0455283 11.6971548,9.68622583 9.99230784,11.0547459 C7.05248942,13.4149292 6.32703142,18.9769564 10.6541799,21.3733048 C12.0840382,22.1652382 13.6707969,22.4960666 15.2356722,22.8881291 C16.5280362,23.2115601 17.829071,23.5062235 19.1078094,23.8765047 C19.8357448,24.0873308 20.1710162,24.5870666 20.1367459,25.1558449 C20.1041271,25.6974994 19.7184824,26.0801097 18.9930244,26.287237 C18.9141613,26.3098402 18.8324079,26.3221692 18.7514803,26.3349092 C16.5482681,26.6821763 14.4111192,26.3616221 12.326821,25.6490053 C11.4139082,25.3370814 10.5332014,24.9326899 9.60459864,24.557066 C8.84487028,26.2707983 8.08307745,27.9886403 7.32128461,29.7077152 C7.42037962,29.7767577 7.47034001,29.8190873 7.52731964,29.8494988 C7.71518725,29.9514186 7.90016459,30.0615578 8.09587722,30.1466279 C12.1901524,31.9273479 16.4405023,32.3933844 20.8163724,31.5373402 C22.3647319,31.2361014 23.7855065,30.5744446 25.0014847,29.5396297 Z M27.84675,22.8342925 C27.3260883,23.1988202 26.8326778,23.499237 26.3904664,23.8621209 C25.01222,24.9939239 24.43334,26.4545006 24.8177461,28.1998774 C25.1253535,29.5959322 26.1369483,30.4601958 27.3933904,31.0010283 C30.3109124,32.2569434 33.1809514,32.0440625 35.9510697,30.5382795 C36.3718105,30.3097818 36.6166578,30.2986857 36.948626,30.6471857 C37.293807,31.0096586 37.7133091,31.3022671 38.1204244,31.6429587 C38.9730544,30.681296 39.7876979,29.7631958 40.6225733,28.8216704 C40.1151243,28.3848125 39.6456617,27.98001 39.2542364,27.6430171 C39.7740723,26.4384729 40.2641797,25.303793 40.774106,24.1226739 C39.4173303,23.7191044 38.1906167,23.3541657 36.9498647,22.9851173 C36.7207075,23.6796515 36.4977438,24.3556922 36.2504192,25.105296 C35.5266127,24.4900784 34.8829081,23.9434923 34.225165,23.3849882 C34.6665507,23.0870371 35.0728402,22.8388131 35.4510528,22.553191 C36.6521668,21.6461869 37.2368273,20.4547936 37.0023025,18.9457229 C36.7809903,17.5209004 35.8717937,16.6315678 34.5604365,16.1630654 C32.4926541,15.4245578 30.4426262,15.5096279 28.4784806,16.5238945 C26.9065862,17.3355542 26.1629607,18.8873656 26.506903,20.550138 C26.6922932,21.446046 27.2141936,22.1644163 27.84675,22.8342925 Z" id="Shape" fill="url(#linearGradient-1)" fill-rule="nonzero"></path>
            <path d="M45.9534715,20.301092 C45.9534715,18.4496857 45.9534715,16.6344446 45.9534715,14.7070094 C47.3205697,14.76249 48.6773454,14.7086533 49.9981992,14.9001639 C51.4569603,15.1118119 52.2076049,16.2218337 52.1332837,17.6902188 C52.0589624,19.1647683 51.2071583,20.1654729 49.7393135,20.2809546 C48.4981486,20.3787647 47.2425324,20.301092 45.9534715,20.301092 Z" id="Path" fill="#2E3055"></path>
            <path d="M33.6182081,27.8201439 C32.5422016,28.3350855 31.5149167,28.4941297 30.4508841,28.1538491 C29.8678752,27.96727 29.4438311,27.5772624 29.3897418,26.9267017 C29.3278074,26.1832624 29.7097361,25.6444847 30.2803581,25.2220106 C30.3447699,25.1743384 30.5161216,25.17927 30.5776431,25.2306409 C31.5780898,26.0714794 32.5690398,26.9234139 33.6182081,27.8201439 Z" id="Path" fill="#2E3055"></path>
            <path d="M30.7469304,19.7417659 C30.7448659,19.1027123 31.2213478,18.6818821 31.9612571,18.670786 C32.6136325,18.6605118 33.1078689,19.0714788 33.1144752,19.629161 C33.1198429,20.12602 32.2085817,21.1333001 31.7283839,21.1612459 C31.422428,21.1785065 30.7481691,20.2036928 30.7469304,19.7417659 Z" id="Path" fill="#2E3055"></path>
        </g>
    </g>
</svg>