<svg id="Layer_1" data-name="Layer 1" xmlns="http://www.w3.org/2000/svg" viewBox="0 0 65 65"><defs><style>.cls-1{fill:#fff;}.cls-2{fill:none;}.cls-3{fill:#00abce;}.cls-4{fill:#173441;}</style></defs><title>Solidinvesting - Max-EcoSales -App</title><rect class="cls-1" width="65" height="65"/><rect class="cls-2" width="65" height="65"/><path class="cls-3" d="M2,10.18,2.31,63,63,62.67,62.65,2,9.8,2.29ZM55.16,62.71l-8.31-7.79-36.74.21-.27-45,45-.26Z"/><path class="cls-4" d="M36,18.91,32.8,25.18a8.2,8.2,0,0,0-5.36-2.07,4.37,4.37,0,0,0-2.37.7A2.17,2.17,0,0,0,24,25.71a2,2,0,0,0,.68,1.49,4.4,4.4,0,0,0,1.27.91c.4.16.95.35,1.63.57l2.07.62a13.58,13.58,0,0,1,5.65,3,7.26,7.26,0,0,1,2,5.47q0,5.66-3.22,8.37a13.16,13.16,0,0,1-8.83,2.93,18.68,18.68,0,0,1-10.93-3.55L17.79,39c2.44,2.14,4.84,3.21,7.18,3.21a4.72,4.72,0,0,0,2.74-.8,2.65,2.65,0,0,0,1.17-2.33q0-2.1-3.91-3.26l-1-.29a31.48,31.48,0,0,1-3.51-1.15,11.82,11.82,0,0,1-2.56-1.51,5.18,5.18,0,0,1-1.81-2.45,10.85,10.85,0,0,1-.54-3.67,10,10,0,0,1,3-7.57,10.71,10.71,0,0,1,7.72-2.87,19.66,19.66,0,0,1,5,.7A20.2,20.2,0,0,1,36,18.91Z"/><path class="cls-4" d="M49.22,28v20.3H41.14V28Z"/><path class="cls-4" d="M49.22,16.43v8.13H41.14V16.43Z"/></svg>