<?xml version="1.0" encoding="utf-8"?>
<!-- Generator: Adobe Illustrator 24.1.1, SVG Export Plug-In . SVG Version: 6.00 Build 0)  -->
<svg version="1.1" id="Layer_1" xmlns="http://www.w3.org/2000/svg" xmlns:xlink="http://www.w3.org/1999/xlink" x="0px" y="0px"
	 viewBox="0 0 65 65" style="enable-background:new 0 0 65 65;" xml:space="preserve">
<style type="text/css">
	.st0{fill:#FFFFFF;}
	.st1{fill:#FF931E;}
</style>
<rect class="st0" width="65" height="65"/>
<path d="M44,20c-2.3-0.8-4.6-1.2-7-1.3c-1.5-0.1-3.1,0.3-4.4,1c-1.1,0.6-1.7,1.8-1.6,3c0,1.6,0.9,3.1,2.3,3.8
	c2.3,1.2,4.7,2.1,7.2,2.8c2.7,0.8,5.4,1.7,8.1,2.9c2.1,1,4,2.4,5.4,4.3c1.6,2.2,2.4,4.9,2.2,7.6c0.1,2.8-0.8,5.6-2.4,7.8
	c-1.7,2.3-4,4-6.6,5c-3.1,1.2-6.3,1.8-9.6,1.7c-3.9,0-7.7-0.7-11.4-2c-3.5-1.3-6.8-3.1-9.7-5.6l4.3-8.8c2.4,2.2,5.3,4,8.3,5.2
	c2.7,1.2,5.6,1.9,8.6,2c1.8,0.1,3.6-0.3,5.2-1.2c2-1.3,2.5-4,1.1-5.9c-0.2-0.2-0.3-0.4-0.5-0.6c-0.9-0.9-2-1.5-3.2-1.9
	C39,39.2,37.3,38.7,35,38c-2.7-0.7-5.4-1.6-8-2.7c-2.1-1-3.9-2.4-5.3-4.3c-1.6-2.1-2.4-4.8-2.2-7.4c-0.1-2.7,0.8-5.3,2.3-7.5
	c1.6-2.2,3.9-4,6.5-5c3.1-1.2,6.4-1.8,9.6-1.7c3.3,0,6.5,0.5,9.7,1.4c3,0.9,5.8,2.1,8.4,3.8l-4.2,8.9C49.3,22,46.7,20.9,44,20z"/>
<polygon class="st1" points="16.6,6.5 21.5,6.5 21.4,13.4 27.9,11 29.4,15.9 22.8,17.8 27,23.3 23,26.2 19.1,20.5 15.3,26.2 
	11.2,23.2 15.4,17.8 8.8,15.8 10.4,11.2 16.8,13.4 "/>
</svg>
