<svg id="Слой_1" data-name="Слой 1" xmlns="http://www.w3.org/2000/svg" xmlns:xlink="http://www.w3.org/1999/xlink" viewBox="0 0 65 65"><defs><style>.cls-1{fill:#27343a;}.cls-2{fill:url(#Безымянный_градиент_24);}.cls-3{fill:url(#Безымянный_градиент_20);}.cls-4{fill:url(#Безымянный_градиент_20-2);}.cls-5{fill:url(#Безымянный_градиент_20-3);}</style><linearGradient id="Безымянный_градиент_24" x1="19.29" y1="41.37" x2="64.96" y2="41.37" gradientUnits="userSpaceOnUse"><stop offset="0" stop-color="#ffa300"/><stop offset="1" stop-color="#ff0"/></linearGradient><linearGradient id="Безымянный_градиент_20" x1="2.33" y1="37.62" x2="8.95" y2="37.62" gradientUnits="userSpaceOnUse"><stop offset="0" stop-color="#ff0"/><stop offset="1" stop-color="#ffa300"/></linearGradient><linearGradient id="Безымянный_градиент_20-2" x1="6.51" y1="34.93" x2="15.53" y2="34.93" xlink:href="#Безымянный_градиент_20"/><linearGradient id="Безымянный_градиент_20-3" x1="10.4" y1="32.36" x2="22.3" y2="32.36" xlink:href="#Безымянный_градиент_20"/></defs><path class="cls-1" d="M23.36,24.76a4.2,4.2,0,0,1,.9-2.89,3.43,3.43,0,0,1,2.71-1,3.42,3.42,0,0,1,2.71,1,4.14,4.14,0,0,1,.91,2.89v.59H28.27V24.6a1.68,1.68,0,0,0-.33-1.18,1.17,1.17,0,0,0-.9-.35,1.2,1.2,0,0,0-.91.35,1.74,1.74,0,0,0-.32,1.18A2.74,2.74,0,0,0,26.17,26a5.92,5.92,0,0,0,.89,1.15c.36.36.74.72,1.15,1.09a10.7,10.7,0,0,1,1.15,1.18,6.13,6.13,0,0,1,.89,1.46,4.78,4.78,0,0,1,.36,1.93,4.12,4.12,0,0,1-.93,2.89,3.54,3.54,0,0,1-2.73,1,3.55,3.55,0,0,1-2.74-1,4.16,4.16,0,0,1-.92-2.89V31.76h2.32V33A1.6,1.6,0,0,0,26,34.17a1.26,1.26,0,0,0,.92.33,1.29,1.29,0,0,0,.93-.33A1.6,1.6,0,0,0,28.15,33a2.77,2.77,0,0,0-.35-1.4,5.75,5.75,0,0,0-.9-1.16c-.35-.36-.74-.72-1.15-1.09a10.62,10.62,0,0,1-1.14-1.18,6,6,0,0,1-.9-1.47A4.75,4.75,0,0,1,23.36,24.76Z"/><path class="cls-1" d="M34,21V33a1.59,1.59,0,0,0,.35,1.17,1.43,1.43,0,0,0,1.85,0A1.59,1.59,0,0,0,36.57,33V21h2.32V32.84A4.1,4.1,0,0,1,38,35.73a3.54,3.54,0,0,1-2.73,1,3.55,3.55,0,0,1-2.74-1,4.14,4.14,0,0,1-.92-2.89V21Z"/><path class="cls-1" d="M43.6,21a3.57,3.57,0,0,1,2.75,1,4,4,0,0,1,.91,2.86v2a4,4,0,0,1-.91,2.86,3.57,3.57,0,0,1-2.75,1H42.44v5.82H40V21Zm-1.16,2.22V28.5H43.6a1.21,1.21,0,0,0,.89-.31A1.62,1.62,0,0,0,44.8,27V24.71a1.62,1.62,0,0,0-.31-1.15,1.21,1.21,0,0,0-.89-.31Z"/><path class="cls-1" d="M53.13,36.54,53,36.25a2,2,0,0,1-.08-.33,4.87,4.87,0,0,1-.05-.51c0-.21,0-.46,0-.77V32.2a2.35,2.35,0,0,0-.38-1.53,1.54,1.54,0,0,0-1.22-.44h-.85v6.31H48V21H51.7a3.76,3.76,0,0,1,2.78.89,3.72,3.72,0,0,1,.86,2.68v1.22c0,1.59-.54,2.64-1.61,3.15A2.2,2.2,0,0,1,55,30.19a5.55,5.55,0,0,1,.35,2.08v2.39c0,.38,0,.72,0,1a3.21,3.21,0,0,0,.23.87ZM50.45,23.25V28h1a1.58,1.58,0,0,0,1.08-.35,1.71,1.71,0,0,0,.39-1.29V24.84a1.94,1.94,0,0,0-.3-1.21,1.15,1.15,0,0,0-.95-.38Z"/><path class="cls-1" d="M65,36.54H62.52l-.42-2.81h-3l-.43,2.81H56.41L58.91,21H62.5Zm-5.6-4.92h2.36l-1.18-7.84Z"/><polygon class="cls-2" points="64.96 39.46 19.29 39.46 19.29 43.28 62.97 43.28 64.96 39.46"/><polygon class="cls-1" points="0 40.16 6.33 40.17 7.96 40.95 6.04 43.28 0 40.16"/><polygon class="cls-1" points="18.28 24.55 12.83 24.54 11.19 23.76 13.11 21.44 18.28 24.55"/><polygon class="cls-3" points="8.95 39.88 6.02 43.28 2.33 35.11 5.11 31.97 8.95 39.88"/><polygon class="cls-4" points="15.53 39.58 12.74 43.28 6.51 29.73 9.29 26.59 15.53 39.58"/><polygon class="cls-5" points="22.3 39.63 19.33 43.28 10.4 24.73 13.11 21.44 22.3 39.63"/><path class="cls-1" d="M25.48,40h1.37v.39h-.46v2.39H26V40.42h-.47Z"/><path class="cls-1" d="M35.19,42.81l0-.05a.35.35,0,0,1,0-.06.22.22,0,0,1,0-.09V42a.38.38,0,0,0-.07-.27.29.29,0,0,0-.22-.08h-.15v1.13h-.44V40h.66a.57.57,0,0,1,.66.64v.22a.56.56,0,0,1-.29.56.41.41,0,0,1,.23.22,1.08,1.08,0,0,1,.06.38v.42a1.15,1.15,0,0,0,0,.19.42.42,0,0,0,0,.15Zm-.48-2.39v.86h.17a.27.27,0,0,0,.19-.06.3.3,0,0,0,.07-.23v-.28a.34.34,0,0,0,0-.22.22.22,0,0,0-.17-.07Z"/><path class="cls-1" d="M44.52,42.81h-.44l-.08-.5h-.54l-.07.5H43L43.43,40h.65Zm-1-.88h.42l-.21-1.41Z"/><path class="cls-1" d="M52,40h.7a.66.66,0,0,1,.49.17.74.74,0,0,1,.16.52v1.4a.74.74,0,0,1-.16.52.66.66,0,0,1-.49.17H52Zm.44.39v2h.25a.21.21,0,0,0,.16-.06.3.3,0,0,0,.06-.22V40.7a.3.3,0,0,0-.06-.22.21.21,0,0,0-.16-.06Z"/><path class="cls-1" d="M61.24,41.2h.61v.4h-.61v.82H62v.39H60.8V40H62v.39h-.76Z"/></svg>