<svg id="Layer_1" data-name="Layer 1" xmlns="http://www.w3.org/2000/svg" viewBox="0 0 65 65"><defs><style>.cls-1{fill:#231f20;}.cls-2{fill:none;}.cls-3,.cls-4,.cls-6{fill:#eaa906;}.cls-3{opacity:0.1;}.cls-4{opacity:0.2;}.cls-5{fill:#f1f1f2;}</style></defs><title>thecapitalstocks - Max-EcoSales -App</title><rect class="cls-1" width="65" height="65"/><rect class="cls-2" width="65" height="65"/><path class="cls-3" d="M37.31,60.9A28.75,28.75,0,0,1,31.71,4l-1-2.27A31.17,31.17,0,1,0,54.66,58l-1-2.28A28.55,28.55,0,0,1,37.31,60.9Z"/><path class="cls-4" d="M36.54,55.74A23.28,23.28,0,0,1,19.62,16.45l-2.54-1.29A26,26,0,1,0,62,37.87l-2.55-1.28A23.32,23.32,0,0,1,36.54,55.74Z"/><path class="cls-5" d="M2.43,19.6v-1l1.11,0v1H4.63a8.92,8.92,0,0,0,0,.9c-.36,0-.7.05-1.06.06v1.33c0,.35.12.55.41.55a2.14,2.14,0,0,0,.62-.14,4.88,4.88,0,0,0,.24.84,2.3,2.3,0,0,1-1.22.3c-.79,0-1.16-.41-1.16-1.21V20.55l-.43,0V19.6Z"/><path class="cls-5" d="M9.55,23.51a7.28,7.28,0,0,0-1.69-.11,8.38,8.38,0,0,1,0-.88l.26-.11c0-.21,0-.48,0-.71,0-.56-.13-1.11-.82-1.11s-.81.42-.81,1.2V23.4H5.06a8.63,8.63,0,0,1,0-.88l.34-.11V18.74l-.34-.11c0-.33,0-.47,0-.82a13.14,13.14,0,0,0,1.49-.1v2.17a1.76,1.76,0,0,1,1.11-.36c1.17,0,1.71.81,1.71,1.9,0,.34,0,.77,0,1.11l.28.11A8.29,8.29,0,0,1,9.55,23.51Z"/><path class="cls-5" d="M12,22.46a1.57,1.57,0,0,0,1-.33,3.71,3.71,0,0,0,.55.7,2.24,2.24,0,0,1-1.68.61,1.85,1.85,0,0,1-2-2,1.89,1.89,0,0,1,2-1.95,1.78,1.78,0,0,1,1.81,1.91,1.67,1.67,0,0,1-.05.43H11.07A.92.92,0,0,0,12,22.46Zm-.1-1.95c-.62,0-.85.37-.85.56h1.59A.68.68,0,0,0,11.9,20.51Z"/><path class="cls-5" d="M10.32,27c0,.5,0,1,0,1.55-.53,0-1.08,0-1.58,0-.07-.49-.14-1-.19-1.46A3.76,3.76,0,0,0,7,26.81c-1.77,0-2.87,1.13-2.87,3.12a2.71,2.71,0,0,0,3,2.91A3.29,3.29,0,0,0,9.51,32l1.05,1.29a4.68,4.68,0,0,1-3.64,1.45C4.26,34.77,2,33.3,2,29.9s2.19-5,5.17-5a7,7,0,0,1,3.18.7C10.34,26,10.32,26.47,10.32,27Z"/><path class="cls-5" d="M21.2,34.62c-1.13,0-1.73,0-2.32.08l-.83-2H14.42l-.84,2c-.75,0-1.49-.06-2.3-.08,0-.57,0-.9.06-1.48l.77-.2,3.46-7.89h1.35l3.47,7.89c.26.08.5.14.75.2A13.09,13.09,0,0,1,21.2,34.62Zm-6.09-3.7h2.23L16.23,28.2Z"/><path class="cls-5" d="M23.64,34.59l-1.46,0a12.89,12.89,0,0,1,.07-1.48c.28-.06.55-.13.83-.21v-6.2l-.84-.19c0-.26-.06-1.16-.06-1.49h1.47c.88-.07,1.75-.17,2.63-.17,2.45,0,4.56,1.22,4.56,3.9a3.79,3.79,0,0,1-4,3.95c-.68,0-1.18,0-1.71-.06v1.95C24.6,34.6,24.13,34.59,23.64,34.59Zm3.15-3.82a1.78,1.78,0,0,0,1.91-2,1.86,1.86,0,0,0-2.13-1.91c-.38,0-.93,0-1.48,0v3.78C25.62,30.74,26.14,30.77,26.79,30.77Z"/><path class="cls-5" d="M35.75,33.14c0,.58.07.91.07,1.48l-1.9,0c-.63,0-1.28,0-1.91,0,0-.57,0-.9.07-1.48.27-.08.55-.13.83-.2V26.73c-.28-.06-.57-.11-.84-.19,0-.57-.06-.89-.06-1.49.63,0,1.28,0,1.91,0s1.27,0,1.91,0c0,.6,0,.92,0,1.49-.29.08-.58.14-.87.19v6.21C35.19,33,35.47,33.06,35.75,33.14Z"/><path class="cls-5" d="M43.09,27H41.92v5.94l1,.2A11.84,11.84,0,0,1,43,34.62c-.7,0-1.39,0-2.09,0l-2.07,0a12,12,0,0,1,.06-1.48l1-.2V27H38.75a7.67,7.67,0,0,1-.27.76c-.51,0-1,0-1.52,0,0-.47,0-.79,0-1.25s0-.94,0-1.42h7.92c0,.48,0,.95,0,1.42s0,.78,0,1.25c-.54,0-1,0-1.53,0C43.25,27.47,43.17,27.29,43.09,27Z"/><path class="cls-5" d="M54.81,34.62c-1.13,0-1.73,0-2.32.08l-.83-2H48l-.84,2c-.74,0-1.48-.06-2.29-.08,0-.57,0-.9.06-1.48l.76-.2,3.47-7.89h1.35L54,32.94c.26.08.5.14.75.2A13.09,13.09,0,0,1,54.81,34.62Zm-6.09-3.7H51L49.84,28.2Z"/><path class="cls-5" d="M55.85,26.54c0-.38-.06-.89-.06-1.49.63,0,1.28,0,1.91,0s1.27,0,1.91,0c0,.6,0,1.11,0,1.49-.29.08-.58.14-.87.19v5.91h2.6c.08-.27.15-.55.23-.84.36,0,.92,0,1.48,0,0,.47,0,.93,0,1.39s0,.94,0,1.39H55.79a14.8,14.8,0,0,1,.07-1.48c.16,0,.6-.16.83-.2V26.73A7.86,7.86,0,0,1,55.85,26.54Z"/><path class="cls-6" d="M5.77,46.86a21,21,0,0,1-3.7-.34l-.42-.08V46c0-.46,0-.91,0-1.36s0-.93,0-1.38v-.52h.51c.56,0,1.16,0,1.53,0l.41,0,.11.39c.07.25.13.51.19.76a9.76,9.76,0,0,0,1.32.09c1.22,0,1.67-.27,1.67-.43s-.71-.47-2.07-.82c-1.14-.28-3.82-1-3.82-3.37s1.62-3.62,4.43-3.62A29.27,29.27,0,0,1,9.61,36l.44.06v.45c0,.47,0,.94,0,1.39s0,.93,0,1.39v.52H9.5c-.52,0-.95,0-1.45,0l-.41,0-.32-1.15A12.73,12.73,0,0,0,6,38.62c-.84,0-1.27.15-1.27.44s.38.39,2,.78l.16,0c1.9.48,3.75,1.15,3.75,3.6C10.59,45.6,8.79,46.86,5.77,46.86Z"/><path class="cls-1" d="M5.93,36.19a27.09,27.09,0,0,1,3.61.27c0,.47,0,.94,0,1.4s0,.93,0,1.41c-.55,0-1,0-1.53,0l-.29-1.07A12.65,12.65,0,0,0,6,38.12c-.65,0-1.77.07-1.77.94,0,.71.64.84,2.52,1.3,2,.52,3.37,1.12,3.37,3.12,0,1.83-1.58,2.88-4.32,2.88A19.65,19.65,0,0,1,2.16,46c0-.45,0-.91,0-1.37s0-.94,0-1.4c.57,0,1.19,0,1.57,0,.09.35.18.71.26,1.06a8.51,8.51,0,0,0,1.73.16c1.24,0,2.17-.26,2.17-.93s-.71-.85-2.44-1.3C4.11,41.86,2,41.24,2,39.31s1.46-3.12,3.93-3.12m0-1C2.84,35.19,1,36.73,1,39.31a3.33,3.33,0,0,0,1.78,2.94H1.13l0,1c0,.45,0,.92,0,1.37s0,.89,0,1.34l0,.86L2,47a21.27,21.27,0,0,0,3.79.35c3.33,0,5.32-1.45,5.32-3.88a3.46,3.46,0,0,0-1.75-3.21h1.23l0-1c0-.46,0-.91,0-1.38s0-.91,0-1.38l0-.89-.89-.12a28.49,28.49,0,0,0-3.75-.28Zm-.06,3.93H6c.28,0,.63,0,1,0L7,39.4H7l-.16,0c-.32-.08-.65-.15-.93-.23ZM4.81,43.39,4.72,43l.48.13.94.25H5.72c-.27,0-.61,0-.91,0Z"/><path class="cls-6" d="M16.87,46.71c-.71,0-1.42,0-2.13,0s-1.41,0-2.12,0l-.52,0v-.52a10.33,10.33,0,0,1,.08-1.58l0-.36,1-.2V38.86h-.33l-.3.81-.38,0c-.5,0-1,0-1.49,0h-.55l0-.83c0-.32,0-.6,0-1s0-.93,0-1.39v-.52l.51,0h8.67l0,.52c0,.48,0,1,0,1.44s0,.79,0,1.27l0,.52h-.56c-.52,0-1,0-1.49,0l-.38,0s-.27-.73-.29-.81h-.34v5.21l1,.2,0,.37a13.85,13.85,0,0,1,.07,1.57v.52Z"/><path class="cls-1" d="M18.82,36.36c0,.49,0,1,0,1.46s0,.8,0,1.29c-.55,0-1,0-1.57,0-.1-.3-.19-.49-.27-.79h-1.2v6.12l1,.21a12.41,12.41,0,0,1,.07,1.52c-.72,0-1.43,0-2.15,0s-1.42,0-2.13,0a12.54,12.54,0,0,1,.06-1.52l1-.21V38.36h-1.2a8.19,8.19,0,0,1-.27.79c-.53,0-1,0-1.57,0,0-.49,0-.82,0-1.29s0-1,0-1.46h8.15m1-1H9.65l0,1v.07c0,.45,0,.91,0,1.36s0,.62,0,.94v.32l0,1h1c.54,0,1,0,1.49,0l.55,0v3.47l-.23.05-.71.13-.09.73a12.93,12.93,0,0,0-.07,1.64v1l1,0c.71,0,1.39,0,2.1,0s1.42,0,2.11,0l1,0v-1a14.84,14.84,0,0,0-.07-1.62l-.08-.74L17,43.71l-.23-.05V40.19l.55,0c.49,0,1,0,1.49,0h1l0-1c0-.48,0-.8,0-1.26s0-1,0-1.43l0-1Z"/><path class="cls-6" d="M24.78,46.86a5.59,5.59,0,1,1,0-11.17,5.59,5.59,0,1,1,0,11.17Zm0-8.15a2.33,2.33,0,0,0-2.51,2.57,2.32,2.32,0,0,0,2.5,2.55,2.32,2.32,0,0,0,2.5-2.55A2.32,2.32,0,0,0,24.79,38.71Z"/><path class="cls-1" d="M24.79,36.19a5.09,5.09,0,1,1,0,10.17,5.09,5.09,0,1,1,0-10.17m0,8.15a2.82,2.82,0,0,0,3-3.06,2.83,2.83,0,0,0-3-3.07,2.83,2.83,0,0,0-3,3.07,2.82,2.82,0,0,0,3,3.06m0-9.15a6.09,6.09,0,1,0,0,12.17A5.88,5.88,0,0,0,31,41.28a5.94,5.94,0,0,0-6.19-6.09Zm0,8.15a1.83,1.83,0,0,1-2-2.06,1.84,1.84,0,0,1,2-2.07,1.84,1.84,0,0,1,2,2.07,1.83,1.83,0,0,1-2,2.06Z"/><path class="cls-6" d="M36.26,46.86c-2.69,0-5.57-1.45-5.57-5.51,0-3.55,2.18-5.66,5.83-5.66a7.54,7.54,0,0,1,3.56.81l.21.15v.27q0,.67,0,1.41c0,.45,0,.92,0,1.38l0,.72h-.51c-.53,0-1.09,0-1.6,0l-.45,0-.07-.44c-.06-.41-.12-.82-.17-1.24a4.67,4.67,0,0,0-1.14-.14c-1.59,0-2.46,1-2.46,2.71a2.28,2.28,0,0,0,2.56,2.5,2.83,2.83,0,0,0,2.11-.7l.39-.39,1.66,2.05-.2.31A5.21,5.21,0,0,1,36.26,46.86Z"/><path class="cls-1" d="M36.52,36.19a7.34,7.34,0,0,1,3.27.71q0,.66,0,1.44c0,.51,0,1,0,1.59-.54,0-1.11,0-1.62,0q-.12-.75-.21-1.5a3.75,3.75,0,0,0-1.6-.3c-1.83,0-3,1.17-3,3.21a2.79,2.79,0,0,0,3.06,3,3.37,3.37,0,0,0,2.46-.84L40,44.88a4.82,4.82,0,0,1-3.74,1.48c-2.74,0-5.07-1.51-5.07-5s2.26-5.16,5.33-5.16m0-1c-3.9,0-6.33,2.36-6.33,6.16a5.66,5.66,0,0,0,6.07,6,5.68,5.68,0,0,0,4.58-1.94l.4-.61-.46-.56L39.7,42.91,39,42l-.78.79a2.38,2.38,0,0,1-1.76.55,1.8,1.8,0,0,1-2.06-2c0-1.47.65-2.21,2-2.21a4.79,4.79,0,0,1,.69.06c0,.3.08.6.13.9l.14.88.9,0c.49,0,1,0,1.57,0h1l0-1v-.14c0-.49,0-1,0-1.43s0-1,0-1.41V36.4l-.42-.31a8.18,8.18,0,0,0-3.86-.9Z"/><path class="cls-6" d="M46,45.92c0-.45,0-.82.07-1.28l0-.34.38-.11-1-1.5-.77.79v.61l.84.19,0,.37c0,.55.07,1,.07,1.56v.53l-.52,0c-.66,0-1.3,0-1.94,0s-1.3,0-1.94,0l-.52,0v-.53a14.06,14.06,0,0,1,.07-1.57l0-.34.33-.09.49-.13V38.49l-.85-.2,0-.37c0-.54-.05-1-.05-1.56v-.52l.52,0c.64,0,1.29,0,1.94,0h0c.64,0,1.28,0,1.93,0l.52,0v.52c0,.59,0,1,0,1.52l0,.38-.36.12-.51.11v1.09l1.21-1.26-.18-.06,0-.33c0-.5-.05-1-.05-1.57v-.52l.52,0c.64,0,1.28,0,1.93,0h0c.64,0,1.22,0,1.91,0l.52,0v.52c0,.61,0,1.07,0,1.57l0,.36-1,.25-1.9,2,2.34,3.51.93.24,0,.36c0,.55.07,1,.07,1.56v.53l-.52,0c-.66,0-1.3,0-1.94,0s-1.3,0-1.94,0l-.54,0Z"/><path class="cls-1" d="M50,36.36c0,.6,0,1,0,1.53l-.81.2-2.27,2.39,2.66,4,.77.21c0,.54.07.94.07,1.52-.67,0-1.31,0-2,0s-1.31,0-2,0a14.91,14.91,0,0,1,.07-1.52l.7-.21-1.72-2.59L44.2,43.28v1.2l.87.21c0,.54.07.94.07,1.52-.67,0-1.31,0-2,0s-1.31,0-2,0a15,15,0,0,1,.06-1.52c.29-.08.57-.15.86-.21V38.09l-.87-.2c0-.49-.05-1-.05-1.53.65,0,1.31,0,2,0s1.31,0,2,0c0,.6,0,1-.06,1.53l-.89.2v2.74l2.61-2.74-.61-.2c0-.49-.05-.93-.05-1.53.65,0,1.3,0,2,0s1.24,0,1.94,0m-4.89-1v0h0c-.64,0-1.27,0-1.93,0s-1.29,0-1.92,0l-1,0v1c0,.56,0,1,.05,1.53v0l0,.75.73.17.1,0v4.81l-.13,0-.65.18-.07.68a15.17,15.17,0,0,0-.07,1.62v1l1,0c.63,0,1.27,0,1.92,0s1.26,0,1.92,0l.36,0v0l.36,0,.32,0v0l.39,0c.63,0,1.27,0,1.92,0s1.27,0,1.92,0l1,0v-1c0-.63,0-1.08-.07-1.6l-.06-.71-.69-.18-.4-.11-2-3L49.7,39l.53-.13.69-.17L51,38c0-.49.06-1,.06-1.61v-1l-1,0c-.68,0-1.25,0-1.9,0s-1.28,0-1.91,0h0v0l-.5,0-.5,0Zm.05,8.36.2-.2.2.3-.3-.07-.1,0Z"/><path class="cls-6" d="M54.23,47.79v-.95a23.44,23.44,0,0,1-2.81-.32L51,46.44V46c0-.45,0-.91,0-1.36s0-.93,0-1.38v-.52h.51c.55,0,1.16,0,1.53,0l.41,0,.11.39c.07.25.13.51.19.76a9.72,9.72,0,0,0,1.31.09c1.23,0,1.68-.27,1.68-.43S56,43,54.67,42.68c-1.14-.28-3.82-1-3.82-3.37a3.34,3.34,0,0,1,2.79-3.43h-1l3.15-3.61L59,35.88h-.63L59.4,36v.45c0,.47,0,.94,0,1.39s0,.92,0,1.39v.52h-.55c-.52,0-1,0-1.45,0l-.41,0-.32-1.15a12.86,12.86,0,0,0-1.35-.07c-.84,0-1.27.15-1.27.44s.38.39,2,.78l.15,0c1.91.48,3.76,1.15,3.76,3.6a3.14,3.14,0,0,1-2.56,3.09v1.22Z"/><path class="cls-1" d="M55.81,33l2,2.35h-1v.87c.68,0,1.37.12,2,.21,0,.47,0,.94,0,1.4s0,.93,0,1.41c-.55,0-1,0-1.53,0l-.3-1.07a12.4,12.4,0,0,0-1.74-.12c-.65,0-1.77.07-1.77.94,0,.71.64.84,2.51,1.3,2,.52,3.38,1.12,3.38,3.12,0,1.39-.91,2.33-2.56,2.7v1.11H54.73v-.94A19.44,19.44,0,0,1,51.51,46c0-.45,0-.91,0-1.37s0-.94,0-1.4c.57,0,1.19,0,1.57,0,.09.35.17.71.25,1.06a8.64,8.64,0,0,0,1.73.16c1.25,0,2.18-.26,2.18-.93s-.71-.85-2.44-1.3c-1.34-.34-3.45-1-3.45-2.89s1.25-2.94,3.38-3.09v-.84h-1L55.81,33m0-1.52-.76.86-2,2.36-1.45,1.65h0a3.8,3.8,0,0,0-1.22,2.93,3.31,3.31,0,0,0,1.78,2.94H50.48l0,1c0,.45,0,.92,0,1.37s0,.89,0,1.34l0,.86.84.16a23.13,23.13,0,0,0,2.4.3v1h4.15V46.93a3.56,3.56,0,0,0,2.56-3.45,3.46,3.46,0,0,0-1.75-3.21h1.23l0-1c0-.46,0-.91,0-1.38s0-.91,0-1.37v-.11h.16l-.15-.17,0-.62-.64-.09-.68-.77-2-2.36-.75-.86Zm-.59,7.61h.1c.27,0,.63,0,1,0l.07.24h0l-.16,0c-.32-.08-.65-.15-.93-.23Zm-1.06,4.27L54.07,43l.48.13.94.25h-.43c-.27,0-.6,0-.9,0Z"/></svg>