<svg xmlns="http://www.w3.org/2000/svg" width="65" height="65"><path fill="#002E45" d="M15.492 30.873l-.201 1.152c-.022.123-.157.213-.28.213h-1.812l-1.141 6.509a.285.285 0 01-.268.224h-1.465c-.112 0-.179-.078-.179-.179v-.045l1.141-6.509H9.464c-.112 0-.179-.067-.179-.168v-.045l.201-1.152a.262.262 0 01.257-.212h5.547c.112 0 .201.078.201.179l.001.033z"/><path fill="#3CADE7" d="M11.79 39.042h-1.465a.242.242 0 01-.25-.25l.001-.057 1.126-6.425H9.464c-.15 0-.25-.096-.25-.239l.001-.057.201-1.152a.336.336 0 01.328-.272h5.547c.153 0 .273.11.273.25l-.001.046-.201 1.152c-.027.15-.184.272-.35.272H13.26l-1.13 6.45a.361.361 0 01-.34.282zm-1.573-.289v.039c0 .067.04.107.107.107h1.465c.09 0 .182-.077.198-.165l1.151-6.568h1.872c.086 0 .193-.063.209-.154l.2-1.145v-.027c0-.06-.057-.107-.13-.107H9.743a.19.19 0 00-.187.154l-.2 1.145v.039c0 .08.058.096.107.096h1.908l-1.154 6.586z"/><path fill="#002E45" d="M19.279 36.324l.884 2.467c.009.026.017.044.017.07 0 .07-.053.131-.158.131h-1.269c-.096 0-.105-.087-.14-.175l-.787-2.214h-.009c-.035 0-.087.009-.158.009-.184 0-.455-.018-.621-.018l-.385 2.222a.225.225 0 01-.21.175h-1.137c-.087 0-.14-.061-.14-.14V38.816l1.032-5.871c.053-.297.184-.376.464-.42.42-.07 1.172-.114 1.802-.114 1.312 0 2.292.49 2.292 1.671.002 1.043-.453 1.892-1.477 2.242zm-1.041-2.643c-.122 0-.577.017-.682.026l-.297 1.68c.096.009.516.018.612.018.857 0 1.391-.21 1.391-1.129 0-.455-.342-.595-1.024-.595z"/><path fill="#3CADE7" d="M20.023 39.064h-1.269c-.13 0-.166-.106-.19-.176l-.016-.044-.771-2.166h-.006a1.09 1.09 0 01-.111.006c-.096 0-.214-.005-.328-.009l-.233-.008-.375 2.162a.296.296 0 01-.281.234h-1.137a.205.205 0 01-.212-.212l.001-.047 1.032-5.871c.06-.343.23-.433.523-.478.405-.067 1.151-.115 1.813-.115.707 0 1.271.136 1.678.404.455.301.686.751.686 1.338 0 1.124-.517 1.932-1.459 2.283l.86 2.4.005.015a.208.208 0 01.016.079c.003.1-.069.205-.226.205zm-2.205-2.532h.059l.804 2.261a.537.537 0 01.017.048c.027.079.034.079.055.079h1.269c.026 0 .086-.006.086-.06a.091.091 0 00-.008-.031l-.006-.017-.908-2.534.069-.023c.922-.315 1.43-1.087 1.43-2.172 0-1.392-1.391-1.6-2.221-1.6-.656 0-1.392.046-1.791.113-.259.041-.359.101-.405.362l-1.031 5.865v.029c0 .021.007.068.069.068h1.137a.153.153 0 00.14-.116l.395-2.281h.06c.082 0 .187.004.299.008.113.004.23.009.323.009.038 0 .07-.003.099-.005l.059-.003zm.052-1.055c-.095 0-.518-.009-.619-.018l-.078-.007.321-1.811.055-.005c.107-.009.564-.026.688-.026.569 0 1.095.081 1.095.666.001 1.055-.702 1.201-1.462 1.201zm-.528-.156c.153.007.443.013.528.013.815 0 1.32-.177 1.32-1.057 0-.382-.258-.523-.952-.523-.104 0-.464.013-.622.022l-.274 1.545z"/><path fill="#002E45" d="M26.007 38.992h-1.199c-.087 0-.149-.07-.149-.157l-.061-1.435h-1.794l-.569 1.435c-.035.087-.114.157-.201.157h-1.251c-.079 0-.122-.044-.122-.105 0-.026.009-.053.017-.079l2.257-5.425c.35-.84 1.024-.971 1.627-.971.604 0 1.216.131 1.269.971l.35 5.425v.009a.169.169 0 01-.174.175zm-1.549-5.206c0-.087-.009-.131-.087-.131-.079 0-.114.044-.149.131l-.963 2.415h1.304l-.105-2.415z"/><path fill="#3CADE7" d="M26.007 39.064h-1.199c-.125 0-.219-.098-.22-.227l-.058-1.365h-1.676l-.551 1.39c-.048.121-.156.203-.268.203h-1.251c-.114 0-.194-.073-.194-.177 0-.038.011-.072.021-.101l.002-.005 2.257-5.425c.375-.9 1.102-1.015 1.693-1.015.547 0 1.282.108 1.34 1.038l.35 5.429v.009a.24.24 0 01-.246.246zm-3.251-1.736h1.911l.064 1.506c0 .041.024.086.077.086h1.199a.099.099 0 00.103-.103v-.006l-.35-5.422c-.05-.797-.633-.904-1.197-.904-.547 0-1.219.105-1.561.927l-2.256 5.422a.19.19 0 00-.013.054c0 .01 0 .033.051.033h1.251c.053 0 .108-.046.135-.113l.586-1.48zm1.882-1.055h-1.484l1.002-2.513c.037-.092.088-.176.215-.176.158 0 .159.135.159.201l.108 2.488zm-1.273-.143h1.124l-.102-2.343a.278.278 0 00-.004-.059l-.012-.001c-.029 0-.048 0-.082.086l-.924 2.317z"/><path fill="#002E45" d="M32.516 35.177l-.201 1.129c-.35 1.977-1.339 2.765-3.281 2.765-.726 0-1.487-.07-1.837-.131-.131-.026-.21-.079-.21-.219 0-.026 0-.053.009-.087l1.024-5.783c.035-.201.131-.28.306-.306a13.72 13.72 0 011.89-.131c1.452 0 2.362.779 2.362 2.135 0 .2-.018.41-.062.628zm-2.528-1.496c-.219 0-.499.009-.621.017l-.726 4.086c.122.009.402.017.621.017.84 0 1.347-.315 1.557-1.496l.201-1.129a2.94 2.94 0 00.053-.516c0-.76-.429-.979-1.085-.979z"/><path fill="#3CADE7" d="M29.034 39.143c-.71 0-1.483-.068-1.85-.132-.117-.023-.269-.078-.269-.289 0-.028 0-.06.01-.102l1.023-5.781c.038-.22.151-.332.366-.364.383-.064 1.18-.132 1.9-.132.736 0 1.349.2 1.773.577.432.385.661.948.661 1.629 0 .222-.021.433-.063.644l-.201 1.127c-.349 1.978-1.351 2.823-3.35 2.823zm1.181-6.659c-.712 0-1.499.067-1.878.13-.155.023-.22.088-.248.248l-1.024 5.786-.001.002c-.007.026-.007.046-.007.07 0 .08.023.123.153.149.36.063 1.122.131 1.824.131 1.94 0 2.87-.784 3.211-2.706l.201-1.129c.041-.203.06-.405.06-.617 0-1.293-.856-2.064-2.291-2.064zm-.953 5.39c-.227 0-.507-.009-.626-.018l-.079-.006.75-4.219.056-.004c.12-.009.4-.018.626-.018.496 0 1.156.109 1.156 1.051 0 .155-.018.333-.054.529l-.201 1.128c-.106.595-.285.986-.566 1.232-.251.222-.589.325-1.062.325zm-.537-.156c.137.007.354.013.537.013.76 0 1.274-.24 1.487-1.437l.201-1.129c.034-.187.051-.357.051-.504 0-.637-.303-.908-1.013-.908-.193 0-.426.007-.561.014l-.702 3.951z"/><path fill="#002E45" d="M37.985 32.701l-.149.814a.214.214 0 01-.201.175h-1.776c-.359 0-.577.07-.665.586l-.14.805h2.266c.087 0 .14.061.14.149v.026l-.14.831a.225.225 0 01-.21.175h-2.266l-.166.927a1.241 1.241 0 00-.026.227c0 .28.149.367.481.367h1.776c.087 0 .149.061.149.149v.026l-.149.814c-.018.114-.079.166-.201.184-.315.044-.752.114-1.697.114-.91 0-1.864-.324-1.864-1.452 0-.131.018-.28.044-.429l.516-2.905c.297-1.697 1.269-1.872 2.467-1.872.945 0 1.365.07 1.662.114.105.017.158.044.158.123-.001.017-.009.035-.009.052z"/><path fill="#3CADE7" d="M35.01 39.143c-1.23 0-1.935-.555-1.935-1.524 0-.124.015-.272.045-.441l.516-2.905c.313-1.784 1.379-1.931 2.538-1.931.901 0 1.337.065 1.626.108l.047.007c.072.012.219.036.219.193a.162.162 0 01-.007.044.036.036 0 00-.002.01l-.001.012-.149.814a.287.287 0 01-.272.234h-1.776c-.314 0-.511.035-.594.527l-.125.721h2.181c.125 0 .211.091.211.22l-.001.038-.14.831a.296.296 0 01-.281.235h-2.206l-.156.869a1.109 1.109 0 00-.025.215c0 .196.063.296.41.296h1.776c.128 0 .22.093.22.22l-.001.039-.149.814c-.022.142-.105.219-.261.242l-.058.008c-.32.042-.757.104-1.65.104zm1.163-6.659c-1.138 0-2.103.136-2.397 1.813l-.516 2.905a2.507 2.507 0 00-.043.416C33.218 38.82 34.34 39 35.01 39c.883 0 1.314-.061 1.629-.105l.058-.008c.105-.015.13-.053.14-.124l.148-.809v-.02c0-.048-.029-.077-.077-.077h-1.776c-.273 0-.553-.052-.553-.439 0-.067.01-.151.028-.241l.177-.985h2.326a.153.153 0 00.14-.116l.139-.824v-.02c0-.035-.012-.077-.068-.077H34.97l.154-.889c.092-.543.329-.646.735-.646h1.776c.061 0 .119-.052.131-.116l.148-.809c.001-.014.004-.026.006-.036a.036.036 0 00.002-.01c0-.019 0-.034-.098-.051l-.046-.007c-.301-.046-.714-.107-1.605-.107z"/><path fill="#002E45" d="M42.132 36.324l.884 2.467c.009.026.018.044.018.07 0 .07-.052.131-.157.131h-1.269c-.096 0-.105-.087-.14-.175l-.787-2.214h-.009c-.035 0-.087.009-.157.009-.184 0-.455-.018-.621-.018l-.385 2.222a.224.224 0 01-.21.175h-1.138c-.087 0-.14-.061-.14-.14V38.816l1.032-5.871c.053-.297.184-.376.464-.42.42-.07 1.172-.114 1.802-.114 1.312 0 2.292.49 2.292 1.671-.001 1.043-.456 1.892-1.479 2.242zm-1.042-2.643c-.122 0-.577.017-.682.026l-.297 1.68c.096.009.516.018.612.018.858 0 1.391-.21 1.391-1.129 0-.455-.341-.595-1.024-.595z"/><path fill="#3CADE7" d="M42.875 39.064h-1.269c-.13 0-.166-.106-.19-.176l-.016-.044-.771-2.166h-.006a1.09 1.09 0 01-.111.006c-.096 0-.214-.005-.328-.009l-.233-.008-.375 2.162a.295.295 0 01-.28.234h-1.138a.204.204 0 01-.211-.212l.001-.047 1.032-5.871c.061-.343.231-.433.523-.478.405-.067 1.151-.115 1.813-.115.707 0 1.271.136 1.678.404.455.301.686.751.686 1.338 0 1.124-.517 1.932-1.459 2.283l.86 2.4.005.015a.212.212 0 01.016.079c.002.1-.069.205-.227.205zm-2.205-2.532h.059l.804 2.261a.444.444 0 01.017.048c.027.08.034.08.055.08h1.269c.026 0 .086-.006.086-.06a.082.082 0 00-.008-.03l-.006-.017-.908-2.534.069-.023c.922-.315 1.43-1.087 1.43-2.172 0-1.392-1.391-1.6-2.221-1.6-.656 0-1.392.046-1.791.113-.259.04-.359.101-.405.362l-1.031 5.865v.029c0 .021.007.068.068.068h1.138a.153.153 0 00.14-.116l.395-2.281h.06c.082 0 .187.004.298.008.113.004.23.009.323.009.038 0 .07-.003.099-.005a.498.498 0 01.06-.005zm.053-1.055c-.095 0-.518-.009-.619-.018l-.078-.007.321-1.811.055-.005c.107-.009.564-.026.688-.026.569 0 1.095.081 1.095.666.001 1.055-.702 1.201-1.462 1.201zm-.528-.156c.153.007.443.013.528.013.815 0 1.32-.177 1.32-1.057 0-.382-.258-.523-.952-.523-.104 0-.464.013-.622.022l-.274 1.545z"/><g><path fill="#002E45" d="M51.525 30.941l-3.456 3.78 1.968 4.015c.022.034.022.067.022.101 0 .078-.067.134-.179.134h-1.8c-.134 0-.179-.067-.224-.157l-1.61-3.691-.637 3.624a.285.285 0 01-.268.224h-1.465c-.112 0-.179-.078-.179-.179v-.045l1.387-7.873a.262.262 0 01.257-.212h1.465c.112 0 .19.067.19.179v.034l-.604 3.389 2.953-3.467c.078-.089.145-.134.268-.134h1.834c.112 0 .168.045.168.112-.001.042-.034.098-.09.166z"/><path fill="#3CADE7" d="M49.881 39.042H48.08c-.175 0-.238-.097-.288-.196l-.002-.003-1.516-3.473-.596 3.39a.357.357 0 01-.339.283h-1.465a.242.242 0 01-.25-.25l.001-.057 1.387-7.873a.336.336 0 01.328-.272h1.465c.154 0 .262.103.262.25l-.001.046-.558 3.129 2.781-3.266c.086-.099.17-.159.323-.159h1.834c.176 0 .239.095.239.183 0 .06-.033.125-.106.214l-.002.002-3.423 3.744L50.1 38.7c.031.05.031.1.031.136 0 .121-.103.206-.25.206zm-1.959-.259c.041.082.068.115.159.115h1.801c.018 0 .107-.003.107-.063 0-.03 0-.046-.01-.061l-.005-.008-1.99-4.059.033-.036 3.455-3.779c.065-.078.072-.11.072-.121 0-.036-.067-.04-.096-.04h-1.834c-.091 0-.141.026-.215.11l-3.123 3.667.649-3.642v-.026c0-.093-.074-.107-.119-.107H45.34a.19.19 0 00-.187.154l-1.386 7.867v.038c0 .067.04.107.107.107h1.465c.09 0 .182-.077.198-.165l.679-3.857 1.706 3.906z"/></g><g><path fill="#002E45" d="M52.904 32.658l-1.085 6.16a.214.214 0 01-.201.175h-1.172c-.079 0-.122-.061-.122-.131v-.044l1.085-6.16c.017-.096.087-.166.184-.166h1.172c.087 0 .14.052.14.131l-.001.035z"/><path fill="#3CADE7" d="M51.618 39.064h-1.172c-.112 0-.194-.085-.194-.203l.001-.056 1.085-6.16c.025-.135.127-.225.254-.225h1.172c.125 0 .212.083.212.203l-.001.047-1.085 6.16a.289.289 0 01-.272.234zm-1.224-.24v.037c0 .018.005.06.051.06h1.172c.06 0 .119-.052.131-.116l1.084-6.153v-.029c0-.026-.007-.06-.068-.06h-1.172c-.069 0-.104.056-.113.107l-1.085 6.154z"/></g><g><path fill="#002E45" d="M59.282 32.658l-1.059 6.002a.408.408 0 01-.385.332h-.735c-.184 0-.385-.035-.481-.271l-1.452-3.447c-.026-.053-.044-.07-.07-.07-.026 0-.044.017-.052.07l-.621 3.544a.225.225 0 01-.21.175h-1.032c-.087 0-.14-.061-.14-.149v-.026l1.05-5.993a.418.418 0 01.394-.332h.665c.175 0 .385.052.472.271l1.505 3.605c.026.052.026.07.053.07.017 0 .052-.018.061-.079l.656-3.701a.206.206 0 01.201-.166h1.032c.088 0 .149.061.149.14l-.001.025z"/><path fill="#3CADE7" d="M57.838 39.064h-.735c-.18 0-.432-.033-.548-.316l-1.444-3.428-.615 3.509a.296.296 0 01-.28.234h-1.032c-.125 0-.211-.091-.211-.22l.001-.039 1.05-5.993a.49.49 0 01.464-.392h.665c.266 0 .457.112.539.316l1.489 3.568.649-3.659a.278.278 0 01.272-.225h1.032c.126 0 .22.091.22.212l-.001.039-1.059 6.002a.484.484 0 01-.456.392zM55.1 35.132c.079 0 .115.071.134.11l.002.004 1.452 3.447c.081.2.248.227.415.227h.735c.147 0 .285-.121.315-.274l1.057-5.995v-.02c0-.041-.031-.068-.077-.068h-1.032a.133.133 0 00-.131.107l-.656 3.701c-.013.094-.078.138-.132.138-.066 0-.088-.049-.103-.081l-.014-.029-.002-.004-1.505-3.605c-.06-.151-.197-.227-.407-.227h-.665a.345.345 0 00-.323.274l-1.049 5.986v.02c0 .035.012.077.068.077h1.032a.153.153 0 00.14-.116l.621-3.543c.02-.112.087-.129.125-.129z"/></g><g><path fill="#002E45" d="M64.951 32.745l-.166.927c-.018.096-.07.114-.149.114h-.026c-.42-.017-1.067-.07-1.811-.07-.709 0-1.199.28-1.409 1.487l-.192 1.094a3.824 3.824 0 00-.061.577c0 .726.359.91.779.91.245 0 .472-.009.682-.026l.35-2.012a.215.215 0 01.201-.175h1.12c.087 0 .14.061.14.14v.035l-.516 2.94c-.018.123-.07.175-.21.201-.49.096-1.12.184-1.995.184-.892 0-2.065-.551-2.065-2.126 0-.201.018-.42.061-.656l.192-1.085c.429-2.415 1.732-2.791 3.159-2.791.875 0 1.479.131 1.794.201.061.017.122.044.122.105v.026z"/><path fill="#3CADE7" d="M61.688 39.143a2.245 2.245 0 01-1.413-.489c-.473-.392-.724-.982-.724-1.709 0-.22.021-.445.062-.669l.192-1.084c.201-1.132.605-1.9 1.234-2.347.628-.446 1.396-.503 1.995-.503.896 0 1.513.137 1.809.203l.004.001c.043.012.174.05.174.174l-.001.039-.166.927c-.031.173-.168.173-.219.173h-.029a24.658 24.658 0 01-.4-.021 24.305 24.305 0 00-1.408-.049c-.654 0-1.132.243-1.338 1.428l-.192 1.094c-.036.225-.06.408-.06.565 0 .752.404.838.707.838.221 0 .429-.007.621-.022l.34-1.958a.286.286 0 01.272-.234h1.12c.123 0 .212.089.212.212l-.001.047-.516 2.94c-.022.152-.099.228-.267.259-.404.079-1.052.185-2.008.185zm1.347-6.659c-1.352 0-2.662.331-3.088 2.732l-.192 1.085c-.04.216-.06.432-.06.644 0 1.622 1.253 2.055 1.993 2.055a9.94 9.94 0 001.981-.182c.117-.022.141-.054.153-.141l.516-2.936v-.029c0-.021-.007-.068-.069-.068h-1.12c-.061 0-.119.052-.131.116l-.359 2.066-.055.005a8.155 8.155 0 01-.688.027c-.564 0-.85-.33-.85-.981a3.9 3.9 0 01.062-.589l.193-1.095c.191-1.098.62-1.547 1.479-1.547.54 0 1.026.027 1.416.049.151.008.281.016.396.021h.025c.063 0 .07-.009.078-.055l.165-.921v-.02c0-.003-.003-.017-.069-.036a7.673 7.673 0 00-1.776-.2z"/></g><g><path fill-rule="evenodd" clip-rule="evenodd" fill="#002E45" d="M1.549 35.613c-.246.371-1.09.361-1.39.3.26-.032.516-.068.732-.226.231.026.443-.006.658-.074m1.053-.346c.04.204-.155.325-.155.325s-.061-.108-.054-.246c.007-.138.168-.283.168-.283l.041.204zm6.373-4.197v.296c-.122.011-.432.045-.56.118-.16.092-1.266.267-1.411.267-.145 0-.152.015-.152.015s-.168-.359-.442-.328c-.274.031-.297.595-.297.595s-.534.48-.724.785c-.191.305-.16.473-.16.473l-.633.587s-.217.13-.195.21c.023.08.256.48.301.473.046-.008.126-.05.21-.053.084-.004.156.027.156.027s-.13.034-.168.057c-.038.023-.05.05-.05.05s.111.099.191.13c.08.03.45-.076.595-.084.145-.008.175.114.282.175.107.061.252.076.252.076s.038-.122.092-.13c.053-.008.252-.031.252-.031l.091-.008.365-.06s.244.175.457.236c.214.061.282.107.351.191.449.585.914 1.365 1.168 1.759l.167.637-.343.872.07.472-.049.072a.04.04 0 01-.011.016.028.028 0 01-.012.004H7.573l.078-.373.387-.978-.631-1.247a.125.125 0 00-.076-.008c-.138.022-.276.04-.414.056-.057.007-.114.005-.172.004a1.346 1.346 0 01-.384-.05.188.188 0 00-.077-.008l-.338.177.22.453.184.062.06-.037.319-.085.291.935-.311.113-.258-.144-.775-.142L4.9 36.31l.32-.417-.486-.288-.424.285-.257.257s-.019.225-.019.477c0 .253-.636.58-.636.58l-.328-.037s-.037-.103-.122-.356c-.084-.253-.515-.641-.814-.8-.3-.159-.459-.487-.459-.487s.084-.07.178-.192c.094-.122.131-.318.131-.318s-.281.337-.646.44C.973 35.557 0 35.51 0 35.51s.337 0 .739-.197c.054-.027.103-.053.148-.08.745-.312.907-1.19.907-1.19s-.023.075-.103.187c-.08.112-.206.192-.206.192s-.07-.066-.047-.243c.023-.178.342-.562.435-.58.094-.019.381-.269.381-.269.281-.178.262-.496 1.779-1.619 1.35-1 3.412-1.234 4.942-.641zm-3.294 2.26c.118-.011.244-.172.244-.172s-.141-.004-.225.004c-.084.008-.183.118-.183.118s.046.061.164.05z"/><g fill="#3CADE7"><path d="M5.883 26.268l.523 3.973.009-.001a5.21 5.21 0 01.304-.03l-.553-4.203-.283.261zM3.717 28.265l.827 2.535c.094-.048.19-.092.287-.135l-.86-2.635-.254.235zM4.395 27.639l.758 2.898a5.54 5.54 0 01.3-.098l-.796-3.042-.262.242zM5.114 26.977l.665 3.377c.102-.024.205-.045.309-.064l-.701-3.564-.273.251zM6.708 25.508l.309 4.688c.106-.003.211-.002.316.001l-.327-4.963-.298.274zM.369 27.041l2.554 4.933c.073-.066.155-.136.245-.212L.815 27.219l-.446-.178zM2.733 27.981l1.235 3.163c.087-.061.177-.119.27-.175L3.133 28.14l-.4-.159zM1.606 27.533l1.825 4.016c.08-.063.165-.129.256-.198l-1.658-3.65-.423-.168zM11.546 28.03l-.724 2.22h.331l.648-1.985zM7.601 24.684v5.525c.106.008.211.018.316.032v-5.557l-.158-.146-.158.146zM10.861 27.398l-.746 2.852h.325l.683-2.611zM8.512 25.233l-.333 5.048c.105.019.209.04.311.065l.319-4.839-.297-.274zM9.352 26.007l-.581 4.415c.103.031.205.066.304.103l.56-4.258-.283-.26zM11.898 30.253l.887-2.272-.4.159-.825 2.113zM9.453 30.253v-.003h.307l.644-3.273-.272-.251-.695 3.527zM12.675 30.253l1.237-2.72-.423.168-1.16 2.552zM13.485 30.253l1.664-3.212-.447.177-1.572 3.035z"/></g></g></svg>