<svg id="Слой_1" data-name="Слой 1" xmlns="http://www.w3.org/2000/svg" viewBox="0 0 48.27 64.99"><defs><style>.cls-1{fill:#6bf;}</style></defs><title>65x65</title><path class="cls-1" d="M34.88,35.77V1.08a0.69,0.69,0,0,0-1.25-.4L29.81,6a6.63,6.63,0,0,0-1.25,3.87V40.32c1.53-1,3.13-2.12,4.77-3.35Z" transform="translate(-9.87 -0.39)"/><path class="cls-1" d="M57.54,17.62c-1.6-2.12-7.74-2.29-13.92,1.75V11.05A4.71,4.71,0,0,0,42,7.51L38.9,4.8a1,1,0,0,0-1.61.73V33.79a63.6,63.6,0,0,0,6.28-6l0-.06V21.87c3.18-1.82,5.28-1.37,5.89-.56,1.8,2.39-4.72,10.35-14.57,17.79s-19.3,11.53-21.1,9.13c-1-1.35,1.82-6.32,6-10.4V45.1a50.27,50.27,0,0,0,6.32-3.27V13.21a0.69,0.69,0,0,0-1.25-.4l-3.83,5.32A6.63,6.63,0,0,0,19.83,22V35.41c-6.86,7-11.44,15.32-9.52,17.86,1.36,1.8,4.86,1.73,9.52.16V55.7a4.72,4.72,0,0,0,1.61,3.54L24.54,62a1,1,0,0,0,1.61-.73V50.74q1.18-.59,2.41-1.27V64.69a0.69,0.69,0,0,0,1.25.4l3.83-5.32a6.63,6.63,0,0,0,1.25-3.87V45.58q1.2-.81,2.41-1.67v9a0.69,0.69,0,0,0,1.25.4L42.37,48a6.63,6.63,0,0,0,1.25-3.87V39C54,30.12,60.13,21.05,57.54,17.62Z" transform="translate(-9.87 -0.39)"/></svg>