<?xml version="1.0" encoding="UTF-8"?>
<svg width="65px" height="65px" viewBox="0 0 65 65" version="1.1" xmlns="http://www.w3.org/2000/svg" xmlns:xlink="http://www.w3.org/1999/xlink">
    <!-- Generator: Sketch 53.2 (72643) - https://sketchapp.com -->
    <title>BO_Brand_header_logo</title>
    <desc>Created with Sketch.</desc>
    <g id="BO_Brand_header_logo" stroke="none" stroke-width="1" fill="none" fill-rule="evenodd">
        <g id="Group" transform="translate(1.000000, 1.000000)" fill="#065C73" fill-rule="nonzero">
            <path d="M46.8857118,36.3648452 C47.1977471,36.587381 47.4760588,36.5478929 47.7373235,36.5884881 C49.0043647,36.7851905 50.0019882,37.362381 50.5037647,38.595369 C50.7138882,39.1112976 50.6949882,39.6353452 50.4596647,40.1560714 C50.3659059,40.3634762 50.2610294,40.4225238 50.0401588,40.3859881 C49.0707,40.2254524 48.3139588,39.7305595 47.7110118,38.9721667 C47.2429588,38.3835357 46.9316647,37.7454524 46.8920118,36.9745119 C46.8649588,36.4441905 46.5521824,36.2681548 46.0441059,36.4456667 C45.8069294,36.5287024 45.5349176,36.4988095 45.3448059,36.6999405 C45.1558059,36.378869 45.2944059,36.2718452 45.5760529,36.2294048 C45.7713529,36.199881 45.9610941,36.1356667 46.1563941,36.1039286 C46.5510706,36.0400833 46.8034412,35.8061071 46.7322882,35.4259881 C46.4473059,33.9077262 47.7506647,32.5212143 49.3252941,32.1089881 C49.9041529,31.9573095 50.4926471,31.898631 51.0885529,31.9949524 C51.6166412,32.0802024 51.8023059,32.3927857 51.66,32.9356548 C51.4509882,33.7327976 50.8654588,34.2066548 50.2072941,34.6166667 C49.3719882,35.1373929 48.4533,35.4440714 47.4960706,35.6452024 C47.2474059,35.6976071 47.0246824,35.7883929 46.7856529,36.0124048 C47.4556765,35.990631 48.0564,35.9655357 48.6574941,35.9533571 C48.9521118,35.9474524 49.2485824,35.9515119 49.5420882,35.975869 C50.0119941,36.0153571 50.4348353,35.8171786 50.5556471,35.3606667 C50.9888647,33.7265238 53.0645294,32.929381 54.5383588,32.9389762 C55.3343824,32.9441429 56.0733353,33.1201786 56.7963529,33.4309167 C57.0694765,33.5482738 57.1139471,33.6877738 57.0131471,33.953119 C56.7378,34.6786667 56.1344824,35.0170833 55.4677941,35.2691429 C54.0632647,35.8002024 52.5961059,35.8943095 51.1119,35.8481786 C50.8754647,35.8407976 50.6316176,35.8038929 50.3751706,36.0397143 C51.1422882,36.09175 51.8293588,36.2759048 52.5260647,36.4124524 C53.0233941,36.509881 53.4992294,36.719131 54.0162,36.502869 C54.1333059,36.4537857 54.2507824,36.4205714 54.3467647,36.332 C55.6975588,35.08425 57.2947941,34.9096905 58.9932,35.3411071 C60.1116353,35.6252738 61.1470588,36.1054048 61.9812529,36.9435119 C62.3514706,37.3151429 62.3329412,37.5207024 61.8482118,37.7613214 C61.0466294,38.1587857 60.1898294,38.0938333 59.3556353,37.9642976 C57.7669235,37.7174048 56.1782118,37.4487381 54.6762176,36.8305833 C54.4675765,36.7445952 54.2281765,36.7176548 53.9713588,36.8102857 C54.0992118,36.8652738 54.2252118,36.9261667 54.3556588,36.9745119 C55.1346353,37.2631071 55.9113882,37.5535476 56.6188412,38.0030476 C56.7655941,38.0960476 56.9431059,38.1643214 57.1380353,38.1617381 C58.0104,38.1502976 58.7986412,38.4337262 59.5494529,38.8518571 C60.4162588,39.3345714 61.1622529,39.9464524 61.7715,40.7384286 C62.3766706,41.5256071 62.7568941,42.3969286 62.9210647,43.3656786 C62.9977765,43.8192381 62.8072941,43.9690714 62.3989059,43.8177619 C61.2178412,43.3808095 60.3280588,42.5379048 59.4619941,41.6820833 C58.5084706,40.7402738 57.5723647,39.7759524 56.9064176,38.5916786 C56.6762824,38.1820357 56.1941471,38.1119167 55.8228176,37.9074643 C55.2321,37.5823333 54.6180353,37.2859881 53.9309647,37.107 C54.0829059,37.3804643 54.3571412,37.4214286 54.5895,37.5255 C56.3034706,38.2934881 57.3985588,39.563381 57.7858235,41.4145238 C57.9014471,41.9677262 57.7765588,42.4759048 57.5267824,42.9648929 C57.3359294,43.3391071 57.2051118,43.3701071 56.8515706,43.1055 C56.4372529,42.7955 56.0877882,42.4275595 55.7757529,42.0079524 C54.8289,40.7354762 54.1233,39.3670476 53.8939059,37.7794048 C53.8171941,37.2476071 53.4766235,36.9549524 52.9670647,36.8257857 C52.1869765,36.6283452 51.4057765,36.4475119 50.6034529,36.3674286 C50.5352647,36.3604167 50.4663353,36.3212976 50.3922176,36.4497262 C50.5812176,36.5213214 50.7613235,36.611369 50.9525471,36.6582381 C52.3948765,37.0125238 53.4099176,37.8602262 53.9854412,39.2282857 C54.2615294,39.8840833 54.1740706,40.5151548 53.8913118,41.1436429 C53.7994059,41.3477262 53.6837824,41.3569524 53.4884824,41.2905238 C52.9715118,41.114119 52.5030882,40.8631667 52.1273118,40.4649643 C51.1834235,39.4648452 50.4400235,38.3650833 50.3421882,36.9346548 C50.3136529,36.5157857 50.0297824,36.2755357 49.6239882,36.2747976 C48.7397647,36.2725833 47.8525765,36.1917619 46.8857118,36.3648452 Z" id="Path"></path>
            <path d="M10.4265,59.3923095 C9.26025882,59.4941667 8.14478824,59.9676548 6.95260588,59.8705952 C4.84729412,59.6993571 3.25672941,58.7342976 2.2176,56.6406905 C4.09277647,57.2632738 5.9157,57.5289881 7.78791176,57.0285595 C4.33736471,56.2609405 0.767858824,55.7213929 -8.8817842e-15,51.1208452 C7.056,55.140881 13.7862529,55.7475952 20.2167,49.8594405 C19.9702588,51.3699524 19.1734941,52.4512619 18.5775882,53.5942024 C17.4091235,55.8350595 16.1821059,58.0670595 14.3780824,59.8820357 C12.3524471,61.9199167 8.98639412,62.3653571 6.21439412,60.9400952 C7.87833529,60.7245714 9.29175882,60.2149167 10.6662706,59.5919643 C10.9809,59.1815833 11.4800824,59.0808333 11.8213941,58.8638333 C11.4052235,59.0147738 10.9571824,59.3166548 10.4265,59.3923095 Z" id="Path"></path>
            <path d="M27.1985824,41.9784286 C25.5164824,42.0548214 24.3254118,43.0700714 23.1665824,44.1118929 C22.5113824,44.7008929 21.9477176,45.3891667 21.3091941,45.9980952 C19.1153118,48.0917024 15.6002824,48.1208571 13.1940529,46.0283571 C15.2574882,45.9615595 16.7042647,44.702369 18.1843941,43.5930119 C19.5062824,42.602119 20.8066765,41.5975714 22.5888353,40.8103929 C21.2732471,40.6686786 20.4490588,41.1259286 19.6359882,41.5994167 C17.8801412,42.6216786 16.0868647,43.539131 14.0830941,44.0100357 C11.8640118,44.531131 8.2782,42.6615357 7.66747059,40.594131 C7.47031765,39.9261548 8.01952941,40.0431429 8.28598235,40.1645595 C10.0718471,40.9786786 11.8658647,40.5742024 13.6376471,40.2025714 C14.9135824,39.9346429 16.0705588,39.1880595 17.4332118,39.2179524 C17.6655706,39.223119 17.8145471,39.0633214 17.7726706,38.8300833 C17.7111529,38.4883452 17.4043059,38.58725 17.1934412,38.5865119 C15.1014706,38.5769167 13.0043118,38.486131 10.9190118,38.6034881 C7.65190588,38.7872738 5.50694118,37.1597738 3.94861765,34.5476548 C3.38791765,33.6076905 2.85871765,32.6227024 2.55446471,31.402631 C5.10077647,33.0389881 7.65301765,34.3284405 10.7463176,34.122881 C5.66592353,32.6621905 3.38347059,28.8982738 2.22538235,24.0261071 C4.17764118,26.0857619 6.14917059,27.9195595 8.92154118,28.6565476 C4.56898235,25.2827143 1.65652941,21.265631 2.76792353,15.3726786 C4.11686471,17.2913571 5.38390588,19.2557976 7.46475882,20.8032143 C5.57957647,17.359631 3.4965,14.1389524 3.56542941,10.2240952 C3.63547059,6.23838095 5.74078235,3.06457143 8.05844118,1.98951966e-13 C7.45252941,2.28514286 7.33023529,4.59833333 7.39138235,6.94658333 C7.53294706,12.3948333 9.57451765,17.1024048 12.8872059,21.3327976 C15.7448118,24.9819405 19.4566235,27.5929524 23.3911588,29.9600238 C26.3788412,31.7572857 29.2316294,33.7243095 30.8948294,36.9796786 C31.6093235,38.378369 31.8628059,39.8091667 31.9272882,41.3425595 C31.9673118,42.2862143 31.5463235,42.3423095 30.8414647,42.1762381 C29.5877647,42.0086905 28.6042235,41.9297143 27.1985824,41.9784286 Z" id="Path"></path>
            <path d="M46.8401294,36.0965476 C42.6343235,37.9174286 40.4397,41.1790714 38.5096765,44.6994167 C36.5740941,48.2304643 34.7711824,51.8559881 31.5203824,54.4610952 C28.2881118,57.0510714 24.7186059,58.5519881 20.4712941,58.0751786 C19.7423471,57.99325 19.0645412,57.8493214 18.3107647,57.4437381 C21.3314294,56.807869 24.2042294,56.0295476 26.5759941,54.1097619 C31.0845706,50.460619 33.6286588,45.9504881 32.8500529,39.943869 C32.6984824,38.7754643 32.9171294,37.5583452 32.9782765,36.3644762 C32.9860588,36.2146429 33.0586941,36.0596429 33.1305882,35.9227262 C35.1628941,32.0635952 40.3729941,31.1952262 43.5333706,34.1690119 C44.3998059,34.983869 45.3214588,35.7418929 46.8401294,36.0965476 Z" id="Path"></path>
            <path d="M25.7151176,22.9101071 C25.9078235,21.7354286 25.4442176,20.6264405 25.3660235,19.4772262 C24.9939529,14.027131 26.9339824,9.53729762 30.9630176,5.89553571 C30.7358471,7.35032143 30.1039941,8.67667857 29.8249412,10.1215 C28.8977294,14.9176429 29.3157529,19.5491905 31.7186471,23.8164881 C33.8313706,27.5685952 33.6705353,31.2590714 32.0758941,35.300881 C30.1959,33.0567024 27.9442059,31.3886071 25.6965882,29.7153452 C25.6825059,29.5965119 25.6643471,29.4765714 25.6187647,29.3665952 C25.1710941,28.2849167 24.3861882,27.3678333 25.5450176,26.0577143 C26.1553765,25.3675952 25.6069059,23.9792381 25.7151176,22.9101071 Z" id="Path"></path>
            <path d="M25.7151176,22.9101071 C26.3495647,24.3195 26.1220235,26.3555357 25.1544176,27.1991786 C24.7160118,27.5815119 25.0632529,27.6494167 25.2466941,27.8959405 C25.6413706,28.426631 26.3151,28.9244762 25.6965882,29.7153452 C24.0960176,28.8196667 23.4263647,27.2287024 22.7452235,25.6823929 C21.1579941,22.079381 21.8862,18.6516667 23.7191294,15.3029286 C23.6702118,18.0386786 24.2631529,20.5895357 25.7151176,22.9101071 Z" id="Path"></path>
        </g>
    </g>
</svg>