<svg xmlns="http://www.w3.org/2000/svg" xmlns:xlink="http://www.w3.org/1999/xlink" viewBox="0 0 65 65"><defs><style>.cls-1{fill:#dedede;}.cls-2{isolation:isolate;}.cls-3{clip-path:url(#clip-path);}.cls-4,.cls-7{mix-blend-mode:screen;}.cls-5{fill:url(#linear-gradient);}.cls-6{fill:url(#linear-gradient-2);}.cls-7{fill:url(#linear-gradient-3);}.cls-8{fill:#111923;}.cls-9{fill:#fff;}.cls-10{fill:#00c65e;}</style><clipPath id="clip-path"><rect class="cls-1" x="-0.28" y="473.8" width="1440.56" height="108"/></clipPath><linearGradient id="linear-gradient" x1="719" y1="746.68" x2="203.34" y2="231.02" gradientUnits="userSpaceOnUse"><stop offset="0" stop-color="#010101"/><stop offset="0.2" stop-color="#303030"/><stop offset="0.66" stop-color="#a5a5a5"/><stop offset="1" stop-color="#fff"/></linearGradient><linearGradient id="linear-gradient-2" x1="697.62" y1="768.06" x2="181.96" y2="252.4" xlink:href="#linear-gradient"/><linearGradient id="linear-gradient-3" x1="175.42" y1="-2643.41" x2="-1042.33" y2="-3861.15" gradientTransform="translate(1300.89 3948.05)" gradientUnits="userSpaceOnUse"><stop offset="0" stop-color="#010101"/><stop offset="0.21" stop-color="#303030"/><stop offset="0.67" stop-color="#a4a5a5"/><stop offset="1" stop-color="#fbfcfc"/></linearGradient></defs><g class="cls-2"><g id="Layer_1" data-name="Layer 1"><rect class="cls-1" x="-0.28" y="473.8" width="1440.56" height="108"/><g class="cls-3"><g class="cls-4"><polygon class="cls-5" points="10.27 40.31 647.44 677.48 649.8 675.13 14.99 40.31 10.27 40.31"/><polygon class="cls-6" points="-15.91 52.18 -15.91 56.9 626.06 698.86 628.42 696.5 -15.91 52.18"/></g><rect class="cls-7" x="-16.83" y="49.46" width="1492.18" height="1016.27" transform="translate(1458.52 1115.19) rotate(180)"/></g><rect class="cls-8" width="65" height="65" rx="4.32"/><path class="cls-9" d="M30.15,39.76H24.81V37.09a8,8,0,0,1-6.69,3.15c-5.57,0-9-3.63-9-10V16.47h5.45V29.73c0,3.62,1.59,5.85,5,5.85,3,0,5.17-2.23,5.17-6.33V25.42h5.38Z"/><path class="cls-9" d="M34.24,16.47h5.34v2.87a8.52,8.52,0,0,1,7-3.35c5.85,0,9.23,3.63,9.23,10V39.76H50.33V26.5c0-3.62-1.75-5.85-5.26-5.85-3.06,0-5.45,2.23-5.45,6.33V39.76H34.24Z"/><rect class="cls-10" x="9.1" y="44.21" width="46.81" height="4.8"/><path class="cls-10" d="M24.73,16.5h5.42v5.12H24.73Z"/></g></g></svg>