<svg xmlns="http://www.w3.org/2000/svg" xmlns:xlink="http://www.w3.org/1999/xlink" viewBox="0 0 65 65"><defs><style>.cls-1{fill:#dedede;}.cls-2{isolation:isolate;}.cls-3{clip-path:url(#clip-path);}.cls-4,.cls-7{mix-blend-mode:screen;}.cls-5{fill:url(#linear-gradient);}.cls-6{fill:url(#linear-gradient-2);}.cls-7{opacity:0.8;fill:url(#linear-gradient-3);}.cls-8{fill:#222527;}.cls-9{fill:url(#New_Gradient_Swatch_copy_40);}.cls-10{fill:url(#New_Gradient_Swatch_8);}.cls-11{fill:url(#New_Gradient_Swatch_8-2);}.cls-12{fill:url(#radial-gradient);}.cls-13{fill:url(#New_Gradient_Swatch_copy_38);}.cls-14{fill:url(#New_Gradient_Swatch_copy_38-2);}</style><clipPath id="clip-path"><rect class="cls-1" x="-0.28" y="473.8" width="1440.56" height="108"/></clipPath><linearGradient id="linear-gradient" x1="719" y1="746.68" x2="203.34" y2="231.02" gradientUnits="userSpaceOnUse"><stop offset="0" stop-color="#010101"/><stop offset="0.2" stop-color="#303030"/><stop offset="0.66" stop-color="#a5a5a5"/><stop offset="1" stop-color="#fff"/></linearGradient><linearGradient id="linear-gradient-2" x1="697.62" y1="768.06" x2="181.96" y2="252.4" xlink:href="#linear-gradient"/><linearGradient id="linear-gradient-3" x1="175.42" y1="-2643.41" x2="-1042.33" y2="-3861.15" gradientTransform="translate(1300.89 3948.05)" gradientUnits="userSpaceOnUse"><stop offset="0" stop-color="#010101"/><stop offset="0.21" stop-color="#303030"/><stop offset="0.67" stop-color="#a4a5a5"/><stop offset="1" stop-color="#fbfcfc"/></linearGradient><radialGradient id="New_Gradient_Swatch_copy_40" cx="-5.06" cy="53.36" r="43.55" gradientTransform="translate(27.76 0.99) scale(0.99 0.99)" gradientUnits="userSpaceOnUse"><stop offset="0" stop-color="#f1a41f"/><stop offset="1" stop-color="#f05530"/></radialGradient><linearGradient id="New_Gradient_Swatch_8" x1="8.99" y1="53.83" x2="26.72" y2="23.11" gradientUnits="userSpaceOnUse"><stop offset="0" stop-color="#2aa5de"/><stop offset="0.54" stop-color="#2177b8"/><stop offset="1" stop-color="#29418f"/></linearGradient><linearGradient id="New_Gradient_Swatch_8-2" x1="657.31" y1="-1475" x2="610.63" y2="-1458.16" gradientTransform="translate(-1453.16 -620.35) rotate(90)" xlink:href="#New_Gradient_Swatch_8"/><radialGradient id="radial-gradient" cx="19.46" cy="35.26" r="38.96" gradientTransform="translate(27.76 0.99) scale(0.99 0.99)" gradientUnits="userSpaceOnUse"><stop offset="0" stop-color="#f1a41f"/><stop offset="0.18" stop-color="#f19622"/><stop offset="1" stop-color="#f05530"/></radialGradient><radialGradient id="New_Gradient_Swatch_copy_38" cx="5.6" cy="50.52" r="51.61" gradientTransform="translate(27.76 0.99) scale(0.99 0.99)" gradientUnits="userSpaceOnUse"><stop offset="0" stop-color="#8dc63f"/><stop offset="1" stop-color="#52853f"/></radialGradient><radialGradient id="New_Gradient_Swatch_copy_38-2" cx="29.38" cy="33.47" r="32.55" xlink:href="#New_Gradient_Swatch_copy_38"/></defs><g class="cls-2"><g id="Layer_1" data-name="Layer 1"><rect class="cls-1" x="-0.28" y="473.8" width="1440.56" height="108"/><g class="cls-3"><g class="cls-4"><polygon class="cls-5" points="10.27 40.31 647.44 677.48 649.8 675.13 14.99 40.31 10.27 40.31"/><polygon class="cls-6" points="-15.91 52.18 -15.91 56.9 626.06 698.86 628.42 696.5 -15.91 52.18"/></g><rect class="cls-7" x="-16.83" y="49.46" width="1492.18" height="1016.27" transform="translate(1458.52 1115.19) rotate(180)"/></g><rect class="cls-8" width="65" height="65" rx="4.32"/><path class="cls-9" d="M37.46,37.69l5.19-5.19H32.27L24.4,40.37a7.33,7.33,0,0,0,0,10.38Z"/><path class="cls-10" d="M23.11,37.69,28.3,32.5H17.92l-7.87,7.87a7.35,7.35,0,0,0,0,10.38Z"/><path class="cls-11" d="M23.11,27.31,10.05,14.25a7.35,7.35,0,0,0,0,10.38l7.87,7.87H28.3Z"/><path class="cls-12" d="M24.4,24.63l7.87,7.87H42.65l-5.19-5.19L24.4,14.25A7.33,7.33,0,0,0,24.4,24.63Z"/><path class="cls-13" d="M51.9,37.69l5.2-5.19H46.71l-7.86,7.87a7.33,7.33,0,0,0,0,10.38Z"/><path class="cls-14" d="M51.9,27.31l-13-13.06a7.33,7.33,0,0,0,0,10.38l7.86,7.87H57.1Z"/></g></g></svg>