<svg id="Layer_1" data-name="Layer 1" xmlns="http://www.w3.org/2000/svg" xmlns:xlink="http://www.w3.org/1999/xlink" viewBox="0 0 65 65"><defs><style>.cls-1{fill:url(#linear-gradient);}.cls-2{opacity:0.1;}.cls-3{fill:#14a54a;}.cls-4{fill:url(#New_Gradient_Swatch_copy_40);}.cls-5{fill:url(#New_Gradient_Swatch_8);}.cls-6{fill:url(#New_Gradient_Swatch_8-2);}.cls-7{fill:url(#radial-gradient);}.cls-8{fill:url(#New_Gradient_Swatch_copy_38);}.cls-9{fill:url(#New_Gradient_Swatch_copy_38-2);}</style><linearGradient id="linear-gradient" x1="21.64" y1="51.99" x2="55.12" y2="-5.99" gradientUnits="userSpaceOnUse"><stop offset="0" stop-color="#1a1a1a"/><stop offset="1" stop-opacity="0"/></linearGradient><radialGradient id="New_Gradient_Swatch_copy_40" cx="17.28" cy="29.15" r="26.35" gradientUnits="userSpaceOnUse"><stop offset="0" stop-color="#f1a41f"/><stop offset="1" stop-color="#f05530"/></radialGradient><linearGradient id="New_Gradient_Swatch_8" x1="8.86" y1="29.24" x2="19.71" y2="10.42" gradientUnits="userSpaceOnUse"><stop offset="0" stop-color="#2aa5de"/><stop offset="0.54" stop-color="#2177b8"/><stop offset="1" stop-color="#29418f"/></linearGradient><linearGradient id="New_Gradient_Swatch_8-2" x1="-1619.81" y1="-3659.55" x2="-1648.41" y2="-3649.23" gradientTransform="translate(-3642.83 1638.72) rotate(90)" xlink:href="#New_Gradient_Swatch_8"/><radialGradient id="radial-gradient" cx="32.12" cy="18.2" r="23.57" gradientUnits="userSpaceOnUse"><stop offset="0" stop-color="#f1a41f"/><stop offset="0.18" stop-color="#f19622"/><stop offset="1" stop-color="#f05530"/></radialGradient><radialGradient id="New_Gradient_Swatch_copy_38" cx="23.74" cy="27.43" r="31.23" gradientUnits="userSpaceOnUse"><stop offset="0" stop-color="#8dc63f"/><stop offset="1" stop-color="#52853f"/></radialGradient><radialGradient id="New_Gradient_Swatch_copy_38-2" cx="38.13" cy="17.12" r="19.7" xlink:href="#New_Gradient_Swatch_copy_38"/></defs><rect width="65.5" height="65.5"/><path class="cls-1" d="M0,0S42,22.78,45,65.5H65.5V0Z"/><path class="cls-3" d="M43.61,16.17V37.8c0,7.4-3.3,11.11-10,11.11S23.7,45.2,23.7,37.8V28.54a8.61,8.61,0,0,1-.61-1.11l-2.36,2.35a3.44,3.44,0,0,1-4.87,0,7.73,7.73,0,0,1-1.6-2.31l-2.32,2.31a3.43,3.43,0,0,1-2,1V40.1c0,13.11,8.5,20.41,23.71,20.41s23.7-7.3,23.7-20.41V16.17Z"/><path class="cls-4" d="M26.29,19.35l3.18-3.18H23.11L18.29,21a4.51,4.51,0,0,0,0,6.36Z"/><path class="cls-5" d="M17.5,19.35l3.18-3.18H14.32L9.5,21a4.51,4.51,0,0,0,0,6.36Z"/><path class="cls-6" d="M17.5,13l-8-8a4.51,4.51,0,0,0,0,6.36l4.82,4.82h6.36Z"/><path class="cls-7" d="M18.29,11.35l4.82,4.82h6.36L26.29,13l-8-8A4.51,4.51,0,0,0,18.29,11.35Z"/><path class="cls-8" d="M35.14,19.35l3.18-3.18H32L27.14,21a4.51,4.51,0,0,0,0,6.36Z"/><path class="cls-9" d="M35.14,13l-8-8a4.51,4.51,0,0,0,0,6.36L32,16.17h6.36Z"/></svg>