<?xml version="1.0" encoding="UTF-8"?>
<svg width="65px" height="65px" viewBox="0 0 65 65" version="1.1" xmlns="http://www.w3.org/2000/svg" xmlns:xlink="http://www.w3.org/1999/xlink">
    <!-- Generator: Sketch 54.1 (76490) - https://sketchapp.com -->
    <title>BO_Brand_header_logo</title>
    <desc>Created with Sketch.</desc>
    <g id="BO_Brand_header_logo" stroke="none" stroke-width="1" fill="none" fill-rule="evenodd">
        <g id="Group-8" transform="translate(0.000000, 7.000000)" fill="#E9F8FF" fill-rule="nonzero">
            <path d="M64.9355372,11.4350731 C64.9355372,17.7488518 59.7785124,22.859499 53.407438,22.859499 C47.0363636,22.859499 41.868595,17.7488518 41.868595,11.4350731 C41.868595,5.12129436 47.0363636,3.55271368e-13 53.407438,3.55271368e-13 C59.7785124,3.55271368e-13 64.9355372,5.12129436 64.9355372,11.4350731 Z" id="Path"></path>
            <path d="M39.2793388,50.765762 L39.4834711,50.7551148 L43.4694215,40.5444676 L23.2818182,1.78872651 L1.70530257e-13,1.78872651 L24.538843,50.9254697 L24.5710744,50.9254697 C26.5909091,49.7010438 29.2016529,48.9663883 32.0595041,48.9663883 C34.7991736,48.9663883 37.3024793,49.6371608 39.2793388,50.765762 Z" id="Path"></path>
        </g>
    </g>
</svg>