<svg id="Слой_1" data-name="Слой 1" xmlns="http://www.w3.org/2000/svg" xmlns:xlink="http://www.w3.org/1999/xlink" viewBox="0 0 65 65"><defs><style>.cls-1{fill:url(#Degradado_sin_nombre_13);}.cls-2{fill:url(#Degradado_sin_nombre_168);}.cls-3{fill:url(#Degradado_sin_nombre_13-2);}.cls-4{fill:url(#Degradado_sin_nombre_168-2);}.cls-5{fill:url(#Degradado_sin_nombre_13-3);}.cls-6{fill:url(#Degradado_sin_nombre_168-3);}.cls-7{fill:url(#Degradado_sin_nombre_168-4);}.cls-8{fill:url(#Degradado_sin_nombre_13-4);}.cls-9{fill:#261e4f;}.cls-10{fill:#fff;}</style><linearGradient id="Degradado_sin_nombre_13" x1="24.9" y1="19.88" x2="40.54" y2="19.88" gradientUnits="userSpaceOnUse"><stop offset="0" stop-color="#110833"/><stop offset="1" stop-color="#5627b0"/></linearGradient><linearGradient id="Degradado_sin_nombre_168" x1="28.05" y1="20.2" x2="37.38" y2="20.2" gradientUnits="userSpaceOnUse"><stop offset="0" stop-color="#68c8ea"/><stop offset="1" stop-color="#3f158c"/></linearGradient><linearGradient id="Degradado_sin_nombre_13-2" x1="44.23" y1="22.7" x2="54.01" y2="22.7" xlink:href="#Degradado_sin_nombre_13"/><linearGradient id="Degradado_sin_nombre_168-2" x1="46.94" y1="22.71" x2="50.7" y2="22.71" xlink:href="#Degradado_sin_nombre_168"/><linearGradient id="Degradado_sin_nombre_13-3" x1="11.42" y1="22.7" x2="21.2" y2="22.7" xlink:href="#Degradado_sin_nombre_13"/><linearGradient id="Degradado_sin_nombre_168-3" x1="14.74" y1="22.71" x2="18.49" y2="22.71" xlink:href="#Degradado_sin_nombre_168"/><linearGradient id="Degradado_sin_nombre_168-4" x1="0.43" y1="39.79" x2="65" y2="39.79" xlink:href="#Degradado_sin_nombre_168"/><linearGradient id="Degradado_sin_nombre_13-4" x1="1.98" y1="39.79" x2="63.45" y2="39.79" xlink:href="#Degradado_sin_nombre_13"/></defs><title>WinMaker-Logo-65x65Монтажная область 1</title><polygon class="cls-1" points="32.71 12.45 35.13 17.34 40.53 18.12 36.63 21.94 37.55 27.32 32.72 24.78 27.89 27.32 28.81 21.94 24.89 18.13 30.3 17.34 32.71 12.45"/><polygon class="cls-2" points="32.72 23.12 29.84 24.64 30.39 21.43 28.05 19.16 31.27 18.68 32.71 15.76 34.16 18.68 37.38 19.15 35.05 21.42 35.6 24.64 32.72 23.12"/><polygon class="cls-3" points="50.23 17.57 50.79 21.11 54.01 22.65 50.82 24.27 50.35 27.82 47.83 25.29 44.31 25.93 45.94 22.75 44.23 19.6 47.77 20.16 50.23 17.57"/><polygon class="cls-4" points="48.32 23.7 46.97 23.95 47.59 22.73 46.94 21.52 48.3 21.73 49.24 20.74 49.46 22.1 50.7 22.69 49.47 23.31 49.29 24.67 48.32 23.7"/><polygon class="cls-5" points="15.2 17.57 14.64 21.11 11.42 22.65 14.61 24.27 15.08 27.82 17.61 25.29 21.12 25.93 19.5 22.75 21.2 19.6 17.66 20.16 15.2 17.57"/><polygon class="cls-6" points="15.96 23.31 14.73 22.69 15.97 22.1 16.19 20.74 17.13 21.73 18.49 21.52 17.84 22.73 18.46 23.95 17.11 23.7 16.14 24.67 15.96 23.31"/><path class="cls-7" d="M58.67,50.74a224.55,224.55,0,0,0-26-1.53A224.5,224.5,0,0,0,6.76,50.74L6,50.83.43,45.25V34.51l5.76-5.76.74.09a224,224,0,0,0,25.79,1.51A223.92,223.92,0,0,0,58.5,28.84l.74-.09L65,34.51V45.25l-5.58,5.58Z"/><path class="cls-8" d="M58.68,30.38a225.72,225.72,0,0,1-26,1.52,225.76,225.76,0,0,1-26-1.52L2,35.16V44.6l4.6,4.6a226.35,226.35,0,0,1,26.14-1.54A226.31,226.31,0,0,1,58.85,49.2l4.6-4.6V35.16Z"/><path class="cls-9" d="M12,44l-2,.12c-.13-.63-.25-1.26-.38-1.91A15.77,15.77,0,0,1,9.22,40h0a20.51,20.51,0,0,1-.36,2.21l-.39,2-2.07.15c-.59-2.33-1.19-4.74-1.78-7.25l2,.16c.13.64.27,1.28.41,1.92a20.83,20.83,0,0,1,.42,2.62h0c.09-.91.25-1.92.37-2.55s.26-1.26.38-1.88l2.11.14c.16.74.32,1.48.47,2.2a11.34,11.34,0,0,1,.3,2h0c.08-.78.28-2,.41-2.54s.25-1.06.37-1.58l2,.11Q12.94,40.78,12,44Z"/><path class="cls-9" d="M14.21,43.9V37.77l1.94.1V43.8Z"/><path class="cls-9" d="M20.73,43.62c-.44-.63-.87-1.27-1.31-1.92a9.63,9.63,0,0,1-.57-1.07A7.24,7.24,0,0,1,19,42.08v1.6l-1.8.08V37.91L19,38c.45.66.89,1.32,1.34,2A8.28,8.28,0,0,1,20.94,41a6.18,6.18,0,0,1-.07-1.24V38.05l1.8.06v5.45Z"/><path class="cls-9" d="M30.87,38.25c.23,1.72.46,3.45.68,5.17H29.71l-.18-2.09a9.16,9.16,0,0,1-.05-1.05h0a5.43,5.43,0,0,1-.25,1l-.9,2.17-1.61,0-.78-2.13a3.51,3.51,0,0,1-.25-1.07h0a10.31,10.31,0,0,1,0,1.1l-.15,2.12-1.91,0c.24-1.8.48-3.6.72-5.38l2.32.05c.24.7.49,1.39.73,2.09a5.7,5.7,0,0,1,.24,1h0a4.38,4.38,0,0,1,.29-1.07l.75-2Z"/><path class="cls-9" d="M36.16,43.43c-.13-.33-.25-.67-.38-1H34l-.4,1h-2L34,38.25h2c.75,1.72,1.49,3.46,2.24,5.21Zm-1.08-3a2.89,2.89,0,0,1-.14-.73,4,4,0,0,1-.2.83l-.3.84h1C35.29,41.09,35.19,40.77,35.08,40.46Z"/><path class="cls-9" d="M42,43.53c-.26-.51-.52-1-.77-1.52A2.18,2.18,0,0,0,41,41.6a.65.65,0,0,0-.6-.21v2.1l-1.9,0V38.21L41,38.16a4.36,4.36,0,0,1,2.42.5,1.22,1.22,0,0,1,.45,1,1.42,1.42,0,0,1-.44,1.09,2,2,0,0,1-1.09.45,1.23,1.23,0,0,1,.74.59l.24.37c.38.6.39.65.87,1.44Zm-1.1-3.15a1.37,1.37,0,0,0,.62-.13.51.51,0,0,0,.25-.46.42.42,0,0,0-.16-.37,1.26,1.26,0,0,0-.72-.14h-.53v1.09Z"/><path class="cls-9" d="M44.62,43.61V38.06L46.51,38v5.68Zm3.77.14c-.62-1.07-1.24-2.12-1.86-3.13.55-.88,1.09-1.77,1.63-2.69l2.35-.11c-.64,1-1.29,1.87-1.93,2.77.77,1,1.53,2.14,2.3,3.28Z"/><path class="cls-9" d="M51,43.87V37.79q2.15-.1,4.29-.24c0,.46-.09.93-.14,1.39L52.94,39v1l1.84,0v1.32l-1.84,0v1.28l2.53.09v1.41C54,44,52.52,44,51,43.87Z"/><path class="cls-9" d="M60.86,38.72l-1.71.08v5.58l-1.92-.14V38.87l-1.71.07v-1.4c1.85-.12,3.71-.25,5.56-.4C61,37.67,60.93,38.2,60.86,38.72Z"/><path class="cls-10" d="M12,43.37l-2,.13c-.13-.64-.25-1.27-.38-1.91a16,16,0,0,1-.36-2.2h0a20.66,20.66,0,0,1-.36,2.22l-.39,2-2.07.15C5.8,41.42,5.2,39,4.61,36.5l2,.15c.13.65.27,1.29.41,1.92a20.83,20.83,0,0,1,.42,2.62h0c.09-.91.25-1.91.37-2.54s.26-1.26.38-1.89l2.11.14c.16.74.32,1.48.47,2.21a11.21,11.21,0,0,1,.3,2h0c.08-.78.28-2,.41-2.54s.25-1,.37-1.57l2,.11C13.26,39.13,12.62,41.21,12,43.37Z"/><path class="cls-10" d="M14.21,43.25V37.12l1.94.1v5.93Z"/><path class="cls-10" d="M20.73,43c-.44-.63-.87-1.27-1.31-1.92A8.76,8.76,0,0,1,18.85,40,7.1,7.1,0,0,1,19,41.43V43l-1.8.07V37.26l1.82.08c.45.67.89,1.32,1.34,2a8.26,8.26,0,0,1,.62,1.06,6.14,6.14,0,0,1-.07-1.24V37.41l1.8.05v5.45Z"/><path class="cls-10" d="M30.87,37.6c.23,1.73.46,3.45.68,5.17H29.71l-.18-2.09a9.08,9.08,0,0,1-.05-1h0a5.33,5.33,0,0,1-.25,1l-.9,2.18-1.61,0-.78-2.13a3.51,3.51,0,0,1-.25-1.06h0a10.12,10.12,0,0,1,0,1.09l-.15,2.12-1.91,0q.36-2.72.72-5.38l2.32,0c.25.7.49,1.4.73,2.09a6,6,0,0,1,.24,1h0a4.28,4.28,0,0,1,.29-1.06l.75-2Z"/><path class="cls-10" d="M36.16,42.78c-.13-.33-.25-.66-.38-1H34l-.4,1h-2L34,37.6h2c.75,1.73,1.49,3.46,2.24,5.22Zm-1.08-3a2.89,2.89,0,0,1-.14-.72,3.79,3.79,0,0,1-.2.82c-.1.28-.2.56-.29.84h.95Z"/><path class="cls-10" d="M42,42.88l-.77-1.51A2.58,2.58,0,0,0,41,41a.65.65,0,0,0-.6-.21v2.11l-1.9,0V37.56L41,37.51a4.45,4.45,0,0,1,2.42.5,1.23,1.23,0,0,1,.45,1,1.42,1.42,0,0,1-.44,1.08,1.89,1.89,0,0,1-1.09.45,1.27,1.27,0,0,1,.74.59l.24.38c.38.59.39.64.87,1.44Zm-1.1-3.15a1.47,1.47,0,0,0,.62-.12.53.53,0,0,0,.25-.47.42.42,0,0,0-.16-.37,1.25,1.25,0,0,0-.72-.13h-.53v1.09Z"/><path class="cls-10" d="M44.62,43V37.41l1.89-.06V43Zm3.77.14C47.77,42,47.15,41,46.53,40c.55-.88,1.09-1.77,1.63-2.69l2.35-.11c-.64.95-1.29,1.87-1.93,2.77.77,1.05,1.53,2.14,2.3,3.28Z"/><path class="cls-10" d="M51,43.23V37.15l4.29-.25c0,.47-.09.93-.14,1.39l-2.25.08v1.06l1.84,0v1.32H52.94V42l2.53.08v1.41C54,43.39,52.52,43.3,51,43.23Z"/><path class="cls-10" d="M60.86,38.07l-1.71.08v5.58l-1.92-.14V38.23l-1.71.06v-1.4c1.85-.12,3.71-.25,5.56-.39C61,37,60.93,37.55,60.86,38.07Z"/></svg>
