<?xml version="1.0" encoding="UTF-8"?>
<svg width="65px" height="65px" viewBox="0 0 65 65" version="1.1" xmlns="http://www.w3.org/2000/svg" xmlns:xlink="http://www.w3.org/1999/xlink">
    <!-- Generator: Sketch 54.1 (76490) - https://sketchapp.com -->
    <title>BO_Brand_header_logo</title>
    <desc>Created with Sketch.</desc>
    <g id="BO_Brand_header_logo" stroke="none" stroke-width="1" fill="none" fill-rule="evenodd">
        <path d="M61.0501672,12.8132065 L61.0501672,35.6401015 L51.7792642,40.5382372 L38.6044682,47.4995308 L38.3731171,47.379387 L16.1705686,35.8402029 L16.1705686,25.3789981 L16.1705686,22.0986599 L16.1705686,12.8132065 L35.32299,22.7669076 L38.4784682,24.4070767 L38.6103679,24.4754344 L48.8294314,19.1646671 L51.7792642,17.6313845 L61.0501672,12.8132065 Z M26.3837324,53.7138618 L3.94983278,42.0545339 L3.94983278,19.0275375 L13.2207358,23.8457155 L13.2207358,37.5876728 L35.2433445,49.0328134 L26.3837324,53.7138618 Z M38.6103679,21.1950962 L38.4784682,21.1267385 L13.2207358,8 L13.2207358,20.5653773 L1,14.214331 L1,43.8020038 L26.3955318,57 L38.384495,50.6655253 L38.6162676,50.785669 L64,37.3734855 L64,8 L51.7792642,14.3510463 L38.6103679,21.1950962 Z" id="Fill-55" fill="#FFFFFF"></path>
    </g>
</svg>