<svg id="Layer_1" data-name="Layer 1" xmlns="http://www.w3.org/2000/svg" xmlns:xlink="http://www.w3.org/1999/xlink" viewBox="0 0 65 65"><defs><style>.cls-1{fill:url(#linear-gradient);}.cls-2{fill:#365abb;}.cls-3{fill:#fff;}.cls-4{fill:#23262f;}.cls-5{fill:none;}</style><linearGradient id="linear-gradient" x1="3.96" y1="32.28" x2="59.84" y2="12.26" gradientUnits="userSpaceOnUse"><stop offset="0.01" stop-color="#365abb"/><stop offset="1" stop-color="#23262f"/></linearGradient></defs><title>Capitalfunds  - Max-EcoSales -App</title><path class="cls-1" d="M65,22.49C61.92,19,52.94,10.79,36.86,10.79c-21.13,0-33,16.65-36.86,23.29H11.21c3.18-6.5,12.47-22.53,26.92-22.53,10.62,0,18.46,7.62,21.37,10.94H65"/><polygon class="cls-2" points="14.27 34.58 14.27 25.21 11.69 25.21 11.69 21.56 20.98 21.56 20.98 25.21 18.39 25.21 18.39 34.58 14.27 34.58"/><path class="cls-3" d="M20.48,22.06v2.65H17.89v9.37H14.77V24.71H12.19V22.06h8.29m1-1H11.19v4.65h2.58v9.37h5.12V25.71h2.59V21.06Z"/><path class="cls-2" d="M27.76,34.58l-2.21-3.45v3.45H21.43v-13H26.6a5.17,5.17,0,0,1,3.34,1,3.82,3.82,0,0,1,1.33,3.16,4.12,4.12,0,0,1-.79,2.53A3.31,3.31,0,0,1,29,29.44l3.95,5.14ZM25.55,27C27,26.9,27,26.24,27,26s0-.94-1.47-1Z"/><path class="cls-3" d="M26.6,22.06a4.68,4.68,0,0,1,3,.93,3.36,3.36,0,0,1,1.14,2.77A3.65,3.65,0,0,1,30.08,28a3,3,0,0,1-1.94,1.17l3.78,4.92H28l-3-4.62h0v4.62H21.93v-12H26.6m-1.55,5.39h.3c1.45,0,2.17-.5,2.17-1.5s-.72-1.49-2.17-1.49h-.3v3m1.55-6.39H20.93v14h5.12V32.84l1.14,1.78.29.46H34l-1.23-1.6-3-3.86a4.09,4.09,0,0,0,1.13-1,4.65,4.65,0,0,0,.88-2.83,4.31,4.31,0,0,0-1.52-3.55,5.65,5.65,0,0,0-3.65-1.15Zm-.55,5.33v-.88c.47.1.47.32.47.44s0,.34-.47.44Z"/><path class="cls-2" d="M40.89,34.58,40.1,32.5H36.49l-.83,2.08H31.27l5-13h4.1l4.91,13Zm-2-5.48-.6-1.8-.61,1.8Z"/><path class="cls-3" d="M40,22.06l4.52,12H41.23L40.45,32h-4.3l-.83,2.08H32l4.62-12H40M37,29.6h2.6l-1.28-3.82h0L37,29.6m3.72-8.54H35.94l-.25.65-4.62,12-.52,1.35H36l.25-.63L36.83,33h2.93l.54,1.43.24.65H46l-.51-1.35L41,21.71l-.24-.65Z"/><path class="cls-2" d="M45.35,34.58v-13h4.94A6.5,6.5,0,0,1,55,23.45a6.48,6.48,0,0,1,0,9.25,6.49,6.49,0,0,1-4.66,1.88Zm4.33-3.64a3.13,3.13,0,0,0,2.15-.73,2.61,2.61,0,0,0,.81-2.14,2.73,2.73,0,0,0-.79-2.1,2.93,2.93,0,0,0-2.14-.76h-.23v5.73Z"/><path class="cls-3" d="M50.29,22.06a6,6,0,0,1,4.31,1.75,6,6,0,0,1,0,8.53,6,6,0,0,1-4.31,1.74H45.85v-12h4.44M49,31.44h.7a3.63,3.63,0,0,0,2.48-.85,3.15,3.15,0,0,0,1-2.52,3.24,3.24,0,0,0-.94-2.47,3.5,3.5,0,0,0-2.49-.89H49v6.73m1.31-10.38H44.85v14h5.44a7,7,0,0,0,5-2,7,7,0,0,0,0-10,7,7,0,0,0-5-2ZM50,30.43V25.72a2.34,2.34,0,0,1,1.53.61,2.28,2.28,0,0,1,.63,1.74,2.23,2.23,0,0,1-.63,1.77,2.58,2.58,0,0,1-1.53.59Z"/><polygon class="cls-2" points="57.66 34.58 57.66 21.56 65.5 21.56 65.5 25.21 61.79 25.21 61.79 26.22 65.31 26.22 65.31 29.86 61.79 29.86 61.79 30.94 65.5 30.94 65.5 34.58 57.66 34.58"/><path class="cls-3" d="M65,22.06v2.65H61.29v2h3.52v2.65H61.29v2.07H65v2.64H58.16v-12H65m1-1H57.16v14H66V30.44H62.29v-.07h3.52V25.72H66V21.06Z"/><path class="cls-4" d="M8.15,39H2.26v4.61H8v1.87H2.26v8h-2V37.14H8.15Z"/><path class="cls-4" d="M13,37.14V53.53H10.91V37.14Z"/><path class="cls-4" d="M16.26,53.53V36.36L28.57,49.25V37.14h2V54.21L18.3,41.32V53.53Z"/><path class="cls-4" d="M45.89,37.9v2.37a6.28,6.28,0,0,0-4.33-1.61,6.1,6.1,0,0,0-4.59,2,6.87,6.87,0,0,0,0,9.41,6,6,0,0,0,4.58,2,6.35,6.35,0,0,0,4.37-1.69v2.41a8.63,8.63,0,0,1-10.34-1.31,8.06,8.06,0,0,1-2.51-6,8.26,8.26,0,0,1,2.55-6.13,8.48,8.48,0,0,1,6.17-2.49A7.71,7.71,0,0,1,45.89,37.9Z"/><path class="cls-4" d="M50.14,39.31a8.56,8.56,0,0,1,12.11,0,8.55,8.55,0,0,1,0,12.11,8.76,8.76,0,0,1-12.17,0,8.55,8.55,0,0,1,0-12.11ZM51.59,50a6.46,6.46,0,0,0,9.21,0,6.38,6.38,0,0,0,1.94-4.7,6.54,6.54,0,0,0-1.86-4.7,6.65,6.65,0,0,0-9.37,0,6.54,6.54,0,0,0-1.86,4.7A6.38,6.38,0,0,0,51.59,50Z"/><path class="cls-4" d="M28.93,19.17h1.82v1H27l2-3.38h-1.7v-1H31Z"/><path class="cls-4" d="M34.15,15.79h1.13v2.44a4.44,4.44,0,0,1-.08.89,1.35,1.35,0,0,1-.37.64,2.4,2.4,0,0,1-2.88,0,1.27,1.27,0,0,1-.37-.64,3.81,3.81,0,0,1-.08-.89V15.79h1.12v2.28c0,.14,0,.26,0,.35a2,2,0,0,0,0,.31.81.81,0,0,0,.12.28.69.69,0,0,0,.23.17.8.8,0,0,0,.36.07.75.75,0,0,0,.35-.07A.6.6,0,0,0,34,19a.81.81,0,0,0,.12-.28,1.24,1.24,0,0,0,0-.31c0-.09,0-.21,0-.35Z"/><path class="cls-4" d="M38.35,18.35l1.37,1.78H38.31l-1.06-1.67h0v1.67H36.11V15.79h1.68a1.72,1.72,0,0,1,1.1.33,1.25,1.25,0,0,1,.41,1,1.29,1.29,0,0,1-.25.8A1,1,0,0,1,38.35,18.35Zm-1.11-1.7v1.08h.11q.78,0,.78-.54t-.78-.54Z"/><path class="cls-4" d="M41.26,15.79v4.34H40.14V15.79Z"/><path class="cls-4" d="M45.22,15.89v1.36a1.1,1.1,0,0,0-.44-.36,1.3,1.3,0,0,0-.55-.12,1.11,1.11,0,0,0-.84.34,1.24,1.24,0,0,0-.32.86,1.15,1.15,0,0,0,.33.85,1.11,1.11,0,0,0,.84.33,1.25,1.25,0,0,0,.54-.12,1.48,1.48,0,0,0,.44-.34V20a3.52,3.52,0,0,1-1,.2,2.33,2.33,0,0,1-1.63-.64A2.09,2.09,0,0,1,41.9,18a2.15,2.15,0,0,1,.64-1.58,2.34,2.34,0,0,1,.75-.52,2.37,2.37,0,0,1,.9-.18A2.83,2.83,0,0,1,45.22,15.89Z"/><path class="cls-4" d="M47.16,17.46h1.62V15.79h1.13v4.34H48.78V18.35H47.16v1.78H46V15.79h1.13Z"/><rect class="cls-5" width="65" height="65"/></svg>