<svg xmlns="http://www.w3.org/2000/svg" xmlns:xlink="http://www.w3.org/1999/xlink" viewBox="0 0 79 79" width="79" height="79">
  <defs>
    <circle id="a" cx="39.5" cy="39.5" r="39.5"/>
  </defs>
  <g fill="none" fill-rule="evenodd">
    <mask id="b" fill="#fff">
      <use xlink:href="#a"/>
    </mask>
    <use fill="#2E2D2C" xlink:href="#a"/>
    <g mask="url(#b)">
      <g transform="translate(-1)">
        <circle cx="40.5" cy="39.5" r="39.5" fill="#2E2D2C"/>
        <circle cx="32" cy="21" r="12" fill="#000"/>
        <path fill="#000" d="M0 38h81v2H0zM9 55.349v-9.283h4.428c1.099 0 1.93.274 2.493.822.436.425.654.96.654 1.605 0 .875-.418 1.543-1.253 2.002.59.221 1.035.51 1.335.869.3.358.45.837.45 1.439 0 .83-.319 1.463-.954 1.896-.636.433-1.508.65-2.616.65H9zm2.044-5.53h1.934c1.008 0 1.512-.336 1.512-1.008 0-.31-.118-.546-.354-.71-.236-.163-.577-.245-1.022-.245h-2.07v1.963zm0 3.74h2.493c.99 0 1.485-.345 1.485-1.035 0-.672-.518-1.008-1.553-1.008h-2.425v2.042zm7.793 1.79v-9.283h4.36c1.207 0 2.134.314 2.778.942.545.53.818 1.246.818 2.148 0 1.423-.681 2.382-2.044 2.877l2.33 3.316h-2.452l-2.071-2.97h-1.621v2.97h-2.098zm2.098-4.774h2.125c.509 0 .904-.122 1.185-.365.282-.243.423-.568.423-.974 0-.434-.146-.763-.436-.988-.291-.226-.695-.339-1.213-.339h-2.084v2.666zm6.934 4.774L31.956 46h1.935l4.087 9.349h-2.193l-.872-2.082H30.88l-.872 2.082H27.87zm3.76-3.886h2.534l-1.267-3.01-1.267 3.01zm7.82 3.886v-9.283h1.935l4.469 5.716v-5.716h2.07v9.283H46.14l-4.619-5.901v5.9h-2.07zm10.764 0v-9.283h3.719c1.49 0 2.707.44 3.651 1.32.945.88 1.417 1.987 1.417 3.321 0 1.326-.475 2.431-1.424 3.316-.949.884-2.164 1.326-3.644 1.326h-3.72zm2.098-1.844h1.62c.864 0 1.559-.258 2.085-.775.527-.518.79-1.192.79-2.023 0-.822-.265-1.494-.796-2.015-.532-.522-1.224-.783-2.078-.783H52.31v5.596zM9 66.841v-9.282h2.098v7.425h4.755v1.857H9zm16.144-1.233c-.962.928-2.17 1.392-3.624 1.392-1.453 0-2.659-.464-3.617-1.392-.958-.929-1.437-2.065-1.437-3.408 0-1.335.484-2.469 1.45-3.402.968-.932 2.178-1.399 3.632-1.399 1.453 0 2.659.465 3.617 1.393.958.928 1.437 2.064 1.437 3.408 0 1.335-.486 2.47-1.458 3.408zm-5.667-1.34c.545.566 1.235.849 2.07.849.836 0 1.522-.28 2.058-.842.536-.561.804-1.253.804-2.075 0-.814-.273-1.503-.818-2.069-.545-.566-1.235-.849-2.07-.849-.836 0-1.522.281-2.058.843-.536.56-.804 1.253-.804 2.075 0 .813.273 1.503.818 2.068zM33.06 67c-1.48 0-2.686-.45-3.617-1.353-.931-.901-1.397-2.05-1.397-3.447 0-1.335.477-2.469 1.43-3.402.955-.932 2.144-1.399 3.57-1.399.827 0 1.526.104 2.098.312a5.615 5.615 0 011.649.961l-1.322 1.552c-.4-.327-.785-.566-1.158-.716-.372-.15-.817-.226-1.335-.226-.763 0-1.41.286-1.941.856-.532.57-.797 1.257-.797 2.062 0 .848.27 1.551.81 2.108.54.557 1.233.836 2.078.836.781 0 1.44-.186 1.976-.557V63.26h-2.112v-1.764h4.142v4.031C35.944 66.51 34.586 67 33.06 67zm14.346-1.392c-.963.928-2.17 1.392-3.624 1.392-1.453 0-2.659-.464-3.617-1.392-.958-.929-1.437-2.065-1.437-3.408 0-1.335.483-2.469 1.45-3.402.968-.932 2.178-1.399 3.631-1.399 1.453 0 2.66.465 3.617 1.393.959.928 1.438 2.064 1.438 3.408 0 1.335-.486 2.47-1.458 3.408zm-5.668-1.34c.545.566 1.236.849 2.071.849.836 0 1.522-.28 2.057-.842.536-.561.804-1.253.804-2.075 0-.814-.272-1.503-.817-2.069-.545-.566-1.235-.849-2.071-.849-.836 0-1.521.281-2.057.843-.536.56-.804 1.253-.804 2.075 0 .813.272 1.503.817 2.068z"/>
      </g>
    </g>
  </g>
</svg>