<svg xmlns="http://www.w3.org/2000/svg" fill="#5187BD" viewBox="0 0 15 14">
  <path d="M7.495.5l2.238 4.104 4.595.86-3.211 3.398.601 4.636-4.223-2.005-4.223 2.005.601-4.636L.662 5.465l4.595-.86L7.495.5z"/>
  <path fill-rule="evenodd" d="M7.495 0a.5.5 0 01.439.26l2.125 3.896 4.361.817a.5.5 0 01.272.835l-3.049 3.225.571 4.4a.5.5 0 01-.71.517l-4.009-1.903-4.009 1.902a.5.5 0 01-.71-.516l.57-4.4L.299 5.808a.5.5 0 01.272-.835l4.361-.817L7.056.261A.5.5 0 017.495 0zm0 1.544l-1.8 3.3a.5.5 0 01-.346.252l-3.694.691 2.582 2.731a.5.5 0 01.132.408l-.483 3.727L7.28 11.04a.5.5 0 01.428 0l3.395 1.612-.483-3.727a.5.5 0 01.132-.408l2.582-2.73-3.694-.692a.5.5 0 01-.347-.252l-1.799-3.3z" clip-rule="evenodd"/>
</svg>
