<svg id="Capa_1" enable-background="new 0 0 512.177 512.177" height="512" viewBox="0 0 512.177 512.177" width="512" xmlns="http://www.w3.org/2000/svg"><g fill="#233d91"><path d="m26.341 328.962-14.299 4.529c1.551 4.898 3.271 9.806 5.114 14.586l13.996-5.395c-1.732-4.495-3.351-9.111-4.811-13.72z"/><path d="m485.925 183.241 14.299-4.529c-1.551-4.898-3.271-9.806-5.114-14.586l-13.996 5.395c1.732 4.495 3.351 9.111 4.811 13.72z"/><path d="m504.442 193.58-14.549 3.652c4.201 16.733 6.591 33.979 7.125 51.369h-96.399c-.686-42.836-7.241-83.896-18.967-120.172 18.027-10.174 34.906-22.616 50.29-37.174 10.351 11.027 19.728 23.1 27.961 36.112l-32.283-6.529-2.973 14.702 56.358 11.398 11.398-56.359-14.703-2.974-6.105 30.189c-46.928-73.004-127.99-117.693-215.462-117.693-167.48 0-288.74 157.47-248.309 318.521l14.549-3.652c-4.201-16.733-6.591-33.979-7.125-51.369h96.399c.734 45.875 8.191 89.724 21.532 127.83-17.203 9.437-33.391 20.912-48.246 34.288-12.145-12.245-23.054-25.871-32.471-40.726l32.791 8.479 3.756-14.522-55.67-14.395-14.394 55.669 14.521 3.755 7.519-29.078c88.135 136.421 280.424 157.959 396.164 42.22 66.071-66.07 88.514-159.012 67.293-243.541zm-308.168-170.951c-28.175 22.488-48.01 57.76-60.63 91.38-15.945-9.237-30.912-20.371-44.622-33.289 29.196-27.503 65.228-47.824 105.252-58.091zm-181.013 225.972c1.866-60.709 26.292-115.83 65.16-157.257 15.358 14.52 32.204 26.932 50.194 37.085-11.727 36.276-18.282 77.336-18.967 120.172zm80.604 187.474c13.203-11.772 27.512-21.955 42.676-30.448 12.544 30.977 31.458 62.953 57.682 83.905-37.298-9.582-71.71-27.971-100.358-53.457zm152.768 60.605c-46.744-5.049-79.267-54.314-96.726-98.006 29.973-14.39 62.81-22.457 96.726-23.496zm0-136.51c-35.721 1.03-70.322 9.408-101.961 24.387-12.373-36.059-19.305-77.505-20.021-120.955h121.983v96.568zm0-111.569h-121.983c.665-40.329 6.681-78.935 17.437-113.106 32.276 15.737 67.742 24.525 104.546 25.576zm0-102.539c-35.133-1.066-68.964-9.615-99.67-24.888 17.033-46.282 50.515-100.342 99.67-105.652zm172.698-65.422c-13.733 12.953-28.73 24.113-44.708 33.369-12.613-33.602-32.431-68.848-60.579-91.338 39.463 10.138 75.694 30.136 105.287 57.969zm-157.698-65.118c49.187 5.313 82.659 59.431 99.67 105.652-30.706 15.273-64.537 23.822-99.67 24.888zm0 145.549c36.805-1.051 72.27-9.839 104.546-25.576 10.755 34.172 16.772 72.777 17.437 113.106h-121.983zm0 102.53h121.983c-.716 43.45-7.648 84.896-20.021 120.955-31.64-14.979-66.24-23.357-101.961-24.387v-96.568zm0 233.079v-121.501c33.916 1.039 66.752 9.106 96.726 23.496-17.482 43.75-50.015 92.96-96.726 98.005zm52.36-7.106c26.206-20.916 45.149-52.872 57.733-83.948 15.13 8.475 29.409 18.631 42.588 30.371-28.284 25.212-62.521 43.88-100.321 53.577zm111.249-63.934c-14.83-13.342-30.987-24.79-48.156-34.209 13.341-38.105 20.798-81.954 21.532-127.83h96.387c-1.938 63.074-28.225 120.12-69.763 162.039z"/></g></svg>
