<svg id="Capa_1" enable-background="new 0 0 511.5 511.5" height="512" viewBox="0 0 511.5 511.5" width="512" xmlns="http://www.w3.org/2000/svg"><g fill="#233d91"><path d="m147 174.5h15v15h-15z"/><path d="m193 174.5h15v15h-15z"/><path d="m177.5 35c-78.575 0-142.5 63.925-142.5 142.5s63.925 142.5 142.5 142.5 142.5-63.925 142.5-142.5-63.925-142.5-142.5-142.5zm0 270c-31.417 0-60.211-11.429-82.458-30.338 11.365-15.365 26.921-27.396 44.642-34.445 22.136 16.878 53.059 17.211 75.632 0 17.721 7.048 33.277 19.079 44.642 34.445-22.247 18.909-51.041 30.338-82.458 30.338zm-49.013-173-6.591-29h90.604c6.893 0 12.5 5.607 12.5 12.5v16.5zm96.513 15v43.5c0 26.191-21.309 47.5-47.5 47.5s-47.5-21.309-47.5-47.5v-43.5zm45.882 117.211c-11.6-15.156-26.819-27.344-44.088-35.355 17.005-21.807 13.206-35.046 13.206-113.356 0-15.163-12.336-27.5-27.5-27.5h-109.396l11.896 52.342c2.409 37.977-6.986 62.621 13.207 88.513-17.269 8.012-32.488 20.199-44.088 35.355-75.524-81.275-17.418-214.21 93.381-214.21 110.918 0 168.849 132.995 93.382 214.211z"/><path d="m466.106 121.5h45.394v-15h-51.606l-35.5 35.5h-72.962c-2.778-13.63-7.131-26.693-12.846-39h58.88l30.216-28.327c24.571 16.463 58.318-1.035 58.318-31.173 0-20.678-16.822-37.5-37.5-37.5-29.858 0-47.58 33.296-31.373 58.007l-25.593 23.993h-60.806c-30.841-52.599-87.974-88-153.228-88-97.874 0-177.5 79.626-177.5 177.5 0 65.254 35.401 122.387 88 153.229v60.806l-23.994 25.593c-24.693-16.196-58.006 1.498-58.006 31.372 0 20.678 16.822 37.5 37.5 37.5 30.067 0 47.684-33.676 31.173-58.318l28.327-30.216v-58.88c12.307 5.715 25.37 10.068 39 12.846v72.962l-35.5 35.5v51.606h15v-45.394l35.5-35.5v-76.797c12.417 1.435 24.176 1.534 36 .506v30.066l30 26.5v25.873c-17.096 3.484-30 18.635-30 36.745 0 20.678 16.822 37.5 37.5 37.5s37.5-16.822 37.5-37.5c0-18.11-12.904-33.261-30-36.745v-32.636l-30-26.5v-25.249c27.3-4.748 52.474-15.755 73.996-31.482l20.941 20.94-17.678 17.678 136.118 136.117c20.516 20.518 53.726 20.521 74.246.001 20.517-20.517 20.52-53.726 0-74.246l-136.118-136.118-17.678 17.678-20.941-20.941c15.727-21.521 26.735-46.696 31.482-73.996h25.249l26.5 30h32.636c3.484 17.096 18.635 30 36.745 30 20.678 0 37.5-16.822 37.5-37.5s-16.82-37.5-37.498-37.5c-18.11 0-33.261 12.904-36.745 30h-25.873l-26.5-30h-30.066c1.026-11.799.931-23.557-.506-36h76.797zm-17.606-100.5c12.407 0 22.5 10.094 22.5 22.5s-10.093 22.5-22.5 22.5-22.5-10.094-22.5-22.5 10.093-22.5 22.5-22.5zm-405 450c-12.407 0-22.5-10.094-22.5-22.5s10.093-22.5 22.5-22.5 22.5 10.094 22.5 22.5-10.093 22.5-22.5 22.5zm209.5 2.5c0 12.406-10.093 22.5-22.5 22.5s-22.5-10.094-22.5-22.5 10.093-22.5 22.5-22.5 22.5 10.094 22.5 22.5zm232.017-41.516c23.741 23.739 6.543 64.016-26.517 64.016-10.017 0-19.434-3.9-26.517-10.984l-90.156-90.155 53.033-53.033zm-125.512-125.512 24.749 24.749-53.033 53.033-24.749-24.749c5.593-5.594 46.158-46.158 53.033-53.033zm-28.284 7.071-17.678 17.678-19.74-19.74c6.297-5.473 12.205-11.382 17.678-17.678zm-23.723-38.648-32.6 32.6c-27.16 20.401-60.891 32.505-97.398 32.505-89.603 0-162.5-72.897-162.5-162.5s72.897-162.5 162.5-162.5c134.221 0 209.645 153.855 129.998 259.895zm166.002-66.895c12.407 0 22.5 10.094 22.5 22.5s-10.093 22.5-22.5 22.5-22.5-10.094-22.5-22.5 10.093-22.5 22.5-22.5z"/></g></svg>