<?xml version="1.0" encoding="utf-8"?>
<svg viewBox="2.369 0 508.109 469.884" xmlns="http://www.w3.org/2000/svg">
  <g stroke="null" id="svg_23">
    <g stroke="null" id="svg_5">
      <g stroke="null" id="svg_6" fill="#233d91">
        <path fill="#233d91" fill-opacity="0.5" stroke="null" id="svg_7" d="M 125.878 320.462 C 130.55 307.453 143.779 294.862 143.779 294.862 C 145.487 293.091 146.292 290.568 145.933 288.11 C 145.926 288.063 145.918 288.015 145.91 287.968 L 131.024 205.056 L 135.034 199.364 C 137.251 200.849 138.96 202.279 142.163 202.279 C 145.421 202.279 148.468 200.559 149.967 197.729 L 149.967 197.728 L 165.667 168.06 L 184.171 173.854 C 198.223 159.802 187.803 165.994 187.771 165.982 L 145.573 150.655 L 145.573 137.493 C 155.028 130.56 161.584 120.283 163.229 108.559 C 167.944 108.246 172.318 106.586 175.89 103.69 C 180.555 99.908 183.232 94.403 183.232 88.59 C 183.232 83.765 181.386 79.159 178.096 75.569 L 178.096 58.18 C 178.095 26.099 150.413 0 116.386 0 C 82.36 0 54.678 26.099 54.678 58.18 L 54.678 76.025 C 51.353 79.578 49.544 83.952 49.544 88.589 C 49.544 94.404 52.22 99.908 56.886 103.691 C 60.456 106.586 64.827 108.244 69.54 108.558 C 71.199 120.502 77.946 131.162 88.206 138.187 L 88.206 150.655 L 28.742 172.39 C 28.711 172.401 28.68 172.413 28.649 172.425 C 27.575 172.841 2.369 182.93 2.369 210.685 L 2.369 308.479 C 2.369 315.086 8.07 320.46 15.077 320.46 L 62.516 320.46 C 65.265 320.46 67.495 318.358 67.495 315.766 C 67.495 313.173 65.265 311.072 62.516 311.072 L 51.803 311.072 L 51.803 218.628 C 51.803 216.036 49.573 213.934 46.824 213.934 C 44.074 213.934 41.845 216.036 41.845 218.628 L 41.845 311.073 L 15.078 311.073 C 13.562 311.073 12.329 309.91 12.329 308.481 L 12.329 210.686 C 12.329 189.55 31.245 181.59 32.406 181.122 L 68.145 168.059 L 83.847 197.728 C 85.35 200.565 88.4 202.279 91.652 202.279 C 94.839 202.279 96.531 200.871 98.781 199.364 L 102.791 205.056 L 87.906 287.968 C 87.898 288.015 87.89 288.062 87.883 288.11 C 87.523 290.566 88.328 293.09 90.037 294.863 L 105.666 311.074 L 85.753 311.074 C 83.004 311.074 80.774 313.175 80.774 315.768 C 80.774 318.36 83.004 320.462 85.753 320.462 L 125.878 320.462 Z M 156.34 164.656 L 141.703 192.314 C 141.339 192.071 133.581 186.874 124.099 180.526 C 128.213 175.737 123.4 181.339 142.179 159.485 L 156.34 164.656 Z M 126.91 193.925 L 123.114 199.312 L 110.697 199.312 L 106.901 193.925 L 116.906 187.226 L 126.91 193.925 Z M 98.164 152.17 L 98.164 143.385 C 104.213 145.684 110.678 146.75 116.991 146.75 C 123.519 146.75 129.921 145.438 135.614 143.091 L 135.614 152.208 L 116.906 173.98 L 98.164 152.17 Z M 173.273 88.59 C 173.273 91.665 171.86 94.575 169.397 96.572 C 167.768 97.892 165.801 98.737 163.647 99.067 L 163.647 78.114 C 169.37 78.99 173.273 83.465 173.273 88.59 Z M 69.129 99.067 C 63.341 98.182 59.502 93.67 59.502 88.589 C 59.502 83.571 63.915 79.486 69.129 78.35 L 69.129 99.067 Z M 69.396 68.784 C 67.81 68.956 65.992 69.361 64.637 69.795 L 64.637 58.18 C 64.637 31.276 87.852 9.389 116.387 9.389 C 144.922 9.389 168.137 31.276 168.137 58.18 L 168.137 69.473 C 166.69 69.058 165.189 68.784 163.648 68.655 C 163.648 64.125 163.689 64.999 147.972 49.068 C 145.082 46.14 140.301 45.526 136.662 47.768 C 119.315 58.451 98.154 63.818 78.629 62.496 C 74.347 62.194 70.446 64.854 69.396 68.784 Z M 79.087 102.763 L 79.087 73.476 L 79.087 71.933 C 100.58 73.12 123.114 67.1 141.318 56.108 C 148.527 63.405 152.43 67.233 153.689 68.688 C 153.689 72.371 153.689 98.547 153.689 102.763 C 153.689 121.819 137.208 137.36 116.992 137.36 C 94.291 137.361 79.087 120.758 79.087 102.763 Z M 92.109 192.314 L 77.471 164.656 L 91.607 159.494 L 109.692 180.54 C 100.495 186.697 92.944 191.755 92.109 192.314 Z M 97.822 288.98 L 112.234 208.7 L 121.575 208.7 L 135.987 288.98 L 116.905 308.773 L 97.822 288.98 Z"/>
      </g>
    </g>
    <g stroke="null" id="svg_8"/>
    <g stroke="null" id="svg_9"/>
    <g stroke="null" id="svg_10"/>
    <g stroke="null" id="svg_11"/>
    <g stroke="null" id="svg_12"/>
    <g stroke="null" transform="matrix(0.027770971763519656,0,0,0.02618255123764513,35.3324893323864,0.37409740407019854) " id="svg_13"/>
    <g stroke="null" transform="matrix(0.027770971763519656,0,0,0.02618255123764513,35.3324893323864,0.37409740407019854) " id="svg_14"/>
    <g stroke="null" transform="matrix(0.027770971763519656,0,0,0.02618255123764513,35.3324893323864,0.37409740407019854) " id="svg_15"/>
    <g stroke="null" transform="matrix(0.027770971763519656,0,0,0.02618255123764513,35.3324893323864,0.37409740407019854) " id="svg_16"/>
    <g stroke="null" transform="matrix(0.027770971763519656,0,0,0.02618255123764513,35.3324893323864,0.37409740407019854) " id="svg_17"/>
    <g stroke="null" transform="matrix(0.027770971763519656,0,0,0.02618255123764513,35.3324893323864,0.37409740407019854) " id="svg_18"/>
    <g stroke="null" transform="matrix(0.027770971763519656,0,0,0.02618255123764513,35.3324893323864,0.37409740407019854) " id="svg_19"/>
    <g stroke="null" transform="matrix(0.027770971763519656,0,0,0.02618255123764513,35.3324893323864,0.37409740407019854) " id="svg_20"/>
    <g stroke="null" transform="matrix(0.027770971763519656,0,0,0.02618255123764513,35.3324893323864,0.37409740407019854) " id="svg_21"/>
    <g stroke="null" transform="matrix(0.027770971763519656,0,0,0.02618255123764513,35.3324893323864,0.37409740407019854) " id="svg_22"/>
  </g>
  <g stroke="null" id="svg_42" transform="matrix(1, 0, 0, 1, 0, -1)">
    <g stroke="null" id="svg_26">
      <g stroke="null" id="svg_25" fill="#233d91">
        <path stroke="null" id="svg_24" d="M 392.287 395.887 C 388.896 395.887 386.147 398.479 386.147 401.677 L 386.147 456.108 C 386.147 457.87 384.625 459.305 382.756 459.305 L 349.746 459.305 L 349.746 345.294 C 349.746 342.097 346.997 339.505 343.606 339.505 C 340.215 339.505 337.466 342.097 337.466 345.294 L 337.466 459.305 L 270.995 459.305 L 290.271 439.313 C 292.377 437.128 293.37 434.017 292.928 430.985 C 292.919 430.927 292.909 430.868 292.899 430.81 L 274.54 328.556 L 279.486 321.536 C 282.221 323.367 284.327 325.13 288.277 325.13 C 292.296 325.13 296.053 323.01 297.902 319.52 L 297.902 319.519 L 317.266 282.929 L 361.376 299.035 C 362.971 299.681 386.145 309.52 386.145 335.499 L 386.145 374.658 C 386.144 377.855 388.894 380.448 392.285 380.448 C 395.677 380.448 398.426 377.856 398.426 374.658 L 398.426 335.499 C 398.426 301.269 367.339 288.827 366.016 288.314 C 365.977 288.298 365.938 288.284 365.899 288.27 L 292.483 261.464 L 292.483 245.231 C 304.144 236.681 312.229 224.007 314.259 209.547 C 320.073 209.162 325.468 207.114 329.873 203.542 C 335.627 198.878 338.928 192.089 338.928 184.919 C 338.928 178.969 336.651 173.288 332.594 168.861 L 332.594 147.415 C 332.593 107.851 298.453 75.663 256.488 75.663 C 214.524 75.663 180.384 107.851 180.384 147.415 L 180.384 169.423 C 176.283 173.806 174.052 179.199 174.052 184.918 C 174.052 192.09 177.352 198.878 183.107 203.544 C 187.509 207.114 192.901 209.159 198.713 209.545 C 200.759 224.276 209.08 237.422 221.734 246.087 L 221.734 261.464 L 148.398 288.269 C 148.36 288.283 148.321 288.297 148.283 288.313 C 146.959 288.826 115.872 301.268 115.872 335.498 L 115.872 456.106 C 115.872 464.254 122.903 470.882 131.545 470.882 L 190.05 470.882 C 193.442 470.882 196.191 468.29 196.191 465.092 C 196.191 461.896 193.442 459.304 190.05 459.304 L 176.838 459.304 L 176.838 345.294 C 176.838 342.097 174.088 339.505 170.698 339.505 C 167.306 339.505 164.557 342.097 164.557 345.294 L 164.557 459.305 L 131.546 459.305 C 129.676 459.305 128.155 457.871 128.155 456.108 L 128.155 335.498 C 128.155 309.431 151.483 299.615 152.917 299.038 L 196.993 282.928 L 216.358 319.519 C 218.211 323.018 221.973 325.13 225.983 325.13 C 229.914 325.13 232 323.395 234.775 321.536 L 239.721 328.556 L 221.364 430.811 C 221.353 430.868 221.345 430.926 221.335 430.985 C 220.891 434.013 221.884 437.127 223.991 439.313 L 243.267 459.306 L 218.708 459.306 C 215.318 459.306 212.568 461.898 212.568 465.095 C 212.568 468.292 215.318 470.884 218.708 470.884 L 382.757 470.884 C 391.399 470.884 398.429 464.255 398.429 456.108 L 398.429 401.678 C 398.428 398.479 395.678 395.887 392.287 395.887 Z M 305.763 278.73 L 287.711 312.841 C 287.261 312.541 277.694 306.132 266 298.304 C 271.074 292.397 265.138 299.306 288.298 272.354 L 305.763 278.73 Z M 269.466 314.828 L 264.785 321.473 L 249.471 321.473 L 244.79 314.828 L 257.128 306.566 L 269.466 314.828 Z M 234.014 263.332 L 234.014 252.498 C 241.475 255.332 249.448 256.648 257.234 256.648 C 265.284 256.648 273.18 255.03 280.201 252.135 L 280.201 263.38 L 257.128 290.231 L 234.014 263.332 Z M 326.646 184.919 C 326.645 188.712 324.902 192.3 321.865 194.763 C 319.857 196.393 317.431 197.433 314.774 197.841 L 314.774 172 C 321.831 173.08 326.646 178.6 326.646 184.919 Z M 198.205 197.841 C 191.068 196.749 186.333 191.185 186.333 184.918 C 186.333 178.729 191.776 173.692 198.205 172.291 L 198.205 197.841 Z M 198.536 160.494 C 196.58 160.705 194.338 161.204 192.667 161.74 L 192.667 147.415 C 192.667 114.236 221.296 87.242 256.489 87.242 C 291.681 87.242 320.311 114.236 320.311 147.415 L 320.311 161.343 C 318.526 160.831 316.675 160.493 314.775 160.334 C 314.775 154.747 314.826 155.825 295.443 136.178 C 291.878 132.567 285.981 131.81 281.493 134.574 C 260.099 147.75 234.003 154.369 209.922 152.739 C 204.64 152.366 199.83 155.646 198.536 160.494 Z M 210.488 202.399 L 210.488 166.28 L 210.488 164.377 C 236.995 165.84 264.785 158.416 287.236 144.86 C 296.126 153.86 300.94 158.58 302.493 160.375 C 302.493 164.918 302.493 197.199 302.493 202.399 C 302.493 225.902 282.166 245.067 257.235 245.067 C 229.239 245.067 210.488 224.592 210.488 202.399 Z M 226.547 312.841 L 208.495 278.73 L 225.929 272.365 L 248.231 298.32 C 236.89 305.914 227.577 312.152 226.547 312.841 Z M 233.593 432.059 L 251.366 333.05 L 262.887 333.05 L 280.662 432.059 L 257.127 456.469 L 233.593 432.059 Z" style=""/>
      </g>
    </g>
    <g stroke="null" id="svg_27"/>
    <g stroke="null" id="svg_28"/>
    <g stroke="null" id="svg_29"/>
    <g stroke="null" id="svg_30"/>
    <g stroke="null" id="svg_31"/>
    <g stroke="null" transform="matrix(0.032498276617761855,0,0,0.030639467712017653,18.644192520525067,-9.775702940712108) " id="svg_32"/>
    <g stroke="null" transform="matrix(0.032498276617761855,0,0,0.030639467712017653,18.644192520525067,-9.775702940712108) " id="svg_33"/>
    <g stroke="null" transform="matrix(0.032498276617761855,0,0,0.030639467712017653,18.644192520525067,-9.775702940712108) " id="svg_34"/>
    <g stroke="null" transform="matrix(0.032498276617761855,0,0,0.030639467712017653,18.644192520525067,-9.775702940712108) " id="svg_35"/>
    <g stroke="null" transform="matrix(0.032498276617761855,0,0,0.030639467712017653,18.644192520525067,-9.775702940712108) " id="svg_36"/>
    <g stroke="null" transform="matrix(0.032498276617761855,0,0,0.030639467712017653,18.644192520525067,-9.775702940712108) " id="svg_37"/>
    <g stroke="null" transform="matrix(0.032498276617761855,0,0,0.030639467712017653,18.644192520525067,-9.775702940712108) " id="svg_38"/>
    <g stroke="null" transform="matrix(0.032498276617761855,0,0,0.030639467712017653,18.644192520525067,-9.775702940712108) " id="svg_39"/>
    <g stroke="null" transform="matrix(0.032498276617761855,0,0,0.030639467712017653,18.644192520525067,-9.775702940712108) " id="svg_40"/>
    <g stroke="null" transform="matrix(0.032498276617761855,0,0,0.030639467712017653,18.644192520525067,-9.775702940712108) " id="svg_41"/>
  </g>
  <g stroke="null" id="svg_61">
    <g stroke="null" id="svg_45">
      <g stroke="null" id="svg_44" fill="#233d91">
        <path fill-opacity="0.5" fill="#233d91" stroke="null" id="svg_43" d="M 505.498 260.651 C 502.748 260.651 500.519 262.753 500.519 265.346 L 500.519 309.48 C 500.519 310.909 499.285 312.072 497.77 312.072 L 471.004 312.072 L 471.004 219.628 C 471.004 217.036 468.775 214.934 466.025 214.934 C 463.276 214.934 461.046 217.036 461.046 219.628 L 461.046 312.073 L 407.15 312.073 L 422.779 295.862 C 424.487 294.091 425.292 291.568 424.933 289.11 C 424.926 289.063 424.918 289.015 424.91 288.968 L 410.024 206.056 L 414.034 200.364 C 416.251 201.849 417.96 203.279 421.163 203.279 C 424.421 203.279 427.468 201.559 428.967 198.729 L 428.967 198.728 L 444.667 169.06 L 480.434 182.12 C 481.728 182.643 500.518 190.621 500.518 211.686 L 500.518 243.438 C 500.517 246.03 502.746 248.133 505.497 248.133 C 508.246 248.133 510.476 246.031 510.476 243.438 L 510.476 211.686 C 510.476 183.931 485.269 173.842 484.196 173.426 C 484.165 173.414 484.133 173.402 484.101 173.39 L 424.573 151.655 L 424.573 138.493 C 434.028 131.56 440.584 121.283 442.229 109.559 C 446.944 109.246 451.318 107.586 454.89 104.69 C 459.555 100.908 462.232 95.403 462.232 89.59 C 462.232 84.765 460.386 80.159 457.096 76.569 L 457.096 59.18 C 457.095 27.1 429.413 1 395.386 1 C 361.36 1 333.678 27.1 333.678 59.18 L 333.678 77.025 C 330.353 80.578 328.544 84.952 328.544 89.589 C 328.544 95.404 331.22 100.908 335.886 104.691 C 339.456 107.586 343.827 109.244 348.54 109.558 C 350.199 121.502 356.946 132.162 367.206 139.187 L 367.206 151.655 L 323.856 168.935 C 323.856 168.935 329.41 177.854 330.571 177.386 L 347.145 169.059 L 362.847 198.728 C 364.35 201.565 367.4 203.279 370.652 203.279 C 373.839 203.279 375.531 201.871 377.781 200.364 L 381.791 206.056 L 366.906 288.968 C 366.898 289.015 366.89 289.062 366.883 289.11 C 366.523 291.566 367.328 294.09 369.037 295.863 L 384.666 312.074 L 385.435 311.393 C 382.686 311.393 386.838 314.175 386.838 316.768 C 386.838 319.36 385.689 321.462 388.438 321.462 L 497.77 321.462 C 504.778 321.462 510.478 316.087 510.478 309.481 L 510.478 265.346 C 510.477 262.753 508.248 260.651 505.498 260.651 Z M 435.34 165.656 L 420.703 193.314 C 420.339 193.071 412.581 187.874 403.099 181.526 C 407.213 176.737 402.4 182.339 421.179 160.485 L 435.34 165.656 Z M 405.91 194.925 L 402.114 200.312 L 389.697 200.312 L 385.901 194.925 L 395.906 188.226 L 405.91 194.925 Z M 377.164 153.17 L 377.164 144.385 C 383.213 146.684 389.678 147.75 395.991 147.75 C 402.519 147.75 408.921 146.438 414.614 144.091 L 414.614 153.208 L 395.906 174.98 L 377.164 153.17 Z M 452.273 89.59 C 452.273 92.665 450.86 95.575 448.397 97.572 C 446.768 98.892 444.801 99.737 442.647 100.067 L 442.647 79.114 C 448.37 79.99 452.273 84.465 452.273 89.59 Z M 348.129 100.067 C 342.341 99.182 338.502 94.67 338.502 89.589 C 338.502 84.571 342.915 80.486 348.129 79.35 L 348.129 100.067 Z M 348.396 69.784 C 346.81 69.956 344.992 70.361 343.637 70.795 L 343.637 59.18 C 343.637 32.276 366.852 10.389 395.387 10.389 C 423.922 10.389 447.137 32.276 447.137 59.18 L 447.137 70.473 C 445.69 70.058 444.189 69.784 442.648 69.655 C 442.648 65.125 442.689 65.999 426.972 50.068 C 424.082 47.14 419.301 46.526 415.662 48.768 C 398.315 59.451 377.154 64.818 357.629 63.496 C 353.347 63.194 349.446 65.854 348.396 69.784 Z M 358.087 103.763 L 358.087 74.476 L 358.087 72.933 C 379.58 74.12 402.114 68.1 420.318 57.108 C 427.527 64.405 431.43 68.233 432.689 69.688 C 432.689 73.371 432.689 99.547 432.689 103.763 C 432.689 122.819 416.208 138.36 395.992 138.36 C 373.291 138.361 358.087 121.758 358.087 103.763 Z M 371.109 193.314 L 356.471 165.656 L 370.607 160.494 L 388.692 181.54 C 379.495 187.697 371.944 192.755 371.109 193.314 Z M 376.822 289.98 L 391.234 209.7 L 400.575 209.7 L 414.987 289.98 L 395.905 309.773 L 376.822 289.98 Z"/>
      </g>
    </g>
    <g stroke="null" id="svg_46"/>
    <g stroke="null" id="svg_47"/>
    <g stroke="null" id="svg_48"/>
    <g stroke="null" id="svg_49"/>
    <g stroke="null" id="svg_50"/>
    <g stroke="null" transform="matrix(0.027770971763519656,0,0,0.02618255123764513,35.3324893323864,0.37409740407019854) " id="svg_51"/>
    <g stroke="null" transform="matrix(0.027770971763519656,0,0,0.02618255123764513,35.3324893323864,0.37409740407019854) " id="svg_52"/>
    <g stroke="null" transform="matrix(0.027770971763519656,0,0,0.02618255123764513,35.3324893323864,0.37409740407019854) " id="svg_53"/>
    <g stroke="null" transform="matrix(0.027770971763519656,0,0,0.02618255123764513,35.3324893323864,0.37409740407019854) " id="svg_54"/>
    <g stroke="null" transform="matrix(0.027770971763519656,0,0,0.02618255123764513,35.3324893323864,0.37409740407019854) " id="svg_55"/>
    <g stroke="null" transform="matrix(0.027770971763519656,0,0,0.02618255123764513,35.3324893323864,0.37409740407019854) " id="svg_56"/>
    <g stroke="null" transform="matrix(0.027770971763519656,0,0,0.02618255123764513,35.3324893323864,0.37409740407019854) " id="svg_57"/>
    <g stroke="null" transform="matrix(0.027770971763519656,0,0,0.02618255123764513,35.3324893323864,0.37409740407019854) " id="svg_58"/>
    <g stroke="null" transform="matrix(0.027770971763519656,0,0,0.02618255123764513,35.3324893323864,0.37409740407019854) " id="svg_59"/>
    <g stroke="null" transform="matrix(0.027770971763519656,0,0,0.02618255123764513,35.3324893323864,0.37409740407019854) " id="svg_60"/>
  </g>
</svg>