<svg id="Layer_1" data-name="Layer 1" xmlns="http://www.w3.org/2000/svg" viewBox="0 0 120 97"><defs><style>.cls-1{fill:#001a22;}.cls-2{fill:#c9aa5d;}</style></defs><rect class="cls-1" width="120" height="97"/><path class="cls-2" d="M93.78,6.37C86.18,5.72,74.53,5,60.23,5s-26.25.73-34,1.39A10.62,10.62,0,0,0,16.5,17v5.44H47a17.39,17.39,0,0,1,11,3.9L70.64,36.65,61.91,44.1,51.36,35.23a17.33,17.33,0,0,0-11.17-4.07H26.46V42.93H44v9.13H26.46V74.59h-10v5.58c.06,5.37,6.62,8,10.61,4.42L98.28,20.3c5.08-4.59,2.47-13.24-4.35-13.92Z"/><path class="cls-2" d="M45.24,84a4.52,4.52,0,0,0,2.95,7.83c3.62.1,7.49.16,11.58.16,14.36,0,26.26-.73,34-1.39a10.6,10.6,0,0,0,9.59-8.92L75.11,56.12Z"/><path class="cls-2" d="M103.5,38.39h0A3.12,3.12,0,0,0,98.34,36L83.84,48.57,103.5,65.35v-27Z"/></svg>