<svg id="Слой_1" data-name="Слой 1" xmlns="http://www.w3.org/2000/svg" viewBox="0 0 120 97"><defs><style>.cls-1{fill:#323232;}.cls-2{fill:#febf12;}</style></defs><title>OctoFinance-Logo-120x97Монтажная область 1</title><rect class="cls-1" x="4.43" y="37.05" width="3.65" height="3.65"/><rect class="cls-1" x="8.86" y="37.05" width="3.65" height="3.65"/><rect class="cls-1" x="13.29" y="37.05" width="3.65" height="3.65"/><rect class="cls-1" x="17.72" y="37.05" width="3.65" height="3.65"/><rect class="cls-1" x="4.43" y="41.46" width="3.65" height="3.65"/><rect class="cls-2" y="41.46" width="3.65" height="3.65"/><rect class="cls-2" x="8.86" y="41.46" width="3.65" height="3.65"/><rect class="cls-2" x="13.29" y="41.46" width="3.65" height="3.65"/><rect class="cls-1" x="4.43" y="45.86" width="3.65" height="3.65"/><rect class="cls-2" y="45.86" width="3.65" height="3.65"/><rect class="cls-2" x="13.29" y="45.86" width="3.65" height="3.65"/><rect class="cls-1" x="17.72" y="45.86" width="3.65" height="3.65"/><rect class="cls-1" x="4.43" y="50.27" width="3.65" height="3.65"/><rect class="cls-2" y="50.27" width="3.65" height="3.65"/><rect class="cls-1" x="8.86" y="45.86" width="3.65" height="3.65"/><rect class="cls-2" x="13.29" y="50.27" width="3.65" height="3.65"/><rect class="cls-2" x="4.43" y="54.67" width="3.65" height="3.65"/><rect class="cls-2" y="54.67" width="3.65" height="3.65"/><rect class="cls-2" x="8.86" y="54.67" width="3.65" height="3.65"/><rect class="cls-2" x="13.29" y="54.67" width="3.65" height="3.65"/><path class="cls-2" d="M23.25,45.51a4.38,4.38,0,0,1,1-3.13,3.9,3.9,0,0,1,3-1.1,3.9,3.9,0,0,1,3,1.1,4.38,4.38,0,0,1,1,3.13v8.74a4.39,4.39,0,0,1-1,3.14,3.9,3.9,0,0,1-3,1.09,3.9,3.9,0,0,1-3-1.09,4.39,4.39,0,0,1-1-3.14Zm2.64,8.91a1.79,1.79,0,0,0,.37,1.29,1.54,1.54,0,0,0,2,0,1.84,1.84,0,0,0,.37-1.29V45.34a1.81,1.81,0,0,0-.37-1.28,1.54,1.54,0,0,0-2,0,1.76,1.76,0,0,0-.37,1.28Z"/><path class="cls-2" d="M40.64,52v2.23a4.47,4.47,0,0,1-1,3.14,3.76,3.76,0,0,1-2.94,1.09,3.76,3.76,0,0,1-2.94-1.09,4.47,4.47,0,0,1-1-3.14V45.51a4.46,4.46,0,0,1,1-3.13,3.77,3.77,0,0,1,2.94-1.1,3.77,3.77,0,0,1,2.94,1.1,4.46,4.46,0,0,1,1,3.13v1.63h-2.5v-1.8a1.76,1.76,0,0,0-.37-1.28,1.54,1.54,0,0,0-2,0,1.81,1.81,0,0,0-.37,1.28v9.08a1.79,1.79,0,0,0,.37,1.28,1.57,1.57,0,0,0,2,0,1.75,1.75,0,0,0,.37-1.28V52Z"/><path class="cls-2" d="M41.53,41.48h8.16v2.4H46.93V58.29H44.29V43.88H41.53Z"/><path class="cls-2" d="M50.68,45.51a4.38,4.38,0,0,1,1-3.13,4.59,4.59,0,0,1,6,0,4.38,4.38,0,0,1,1,3.13v8.74a4.39,4.39,0,0,1-1,3.14,4.62,4.62,0,0,1-6,0,4.39,4.39,0,0,1-1-3.14Zm2.64,8.91a1.79,1.79,0,0,0,.37,1.29,1.54,1.54,0,0,0,2,0,1.84,1.84,0,0,0,.37-1.29V45.34a1.81,1.81,0,0,0-.37-1.28,1.54,1.54,0,0,0-2,0,1.76,1.76,0,0,0-.37,1.28Z"/><path class="cls-1" d="M63.05,49h3.41v2.4H63.05v6.94H60.41V41.48h7v2.4H63.05Z"/><path class="cls-1" d="M68.67,41.48h2.64V58.29H68.67Z"/><path class="cls-1" d="M75.59,46.11V58.29H73.21V41.48h3.31l2.72,10.06V41.48h2.35V58.29H78.88Z"/><path class="cls-1" d="M92,58.29H89.37l-.45-3H85.68l-.46,3H82.79l2.69-16.81h3.87ZM86,53h2.55l-1.28-8.51Z"/><path class="cls-1" d="M95.62,46.11V58.29H93.24V41.48h3.32l2.71,10.06V41.48h2.35V58.29H98.91Z"/><path class="cls-1" d="M111.18,52v2.23a4.51,4.51,0,0,1-1,3.14,4.52,4.52,0,0,1-5.89,0,4.51,4.51,0,0,1-1-3.14V45.51a4.5,4.5,0,0,1,1-3.13,4.49,4.49,0,0,1,5.89,0,4.5,4.5,0,0,1,1,3.13v1.63h-2.49v-1.8a1.76,1.76,0,0,0-.38-1.28,1.32,1.32,0,0,0-1-.37,1.34,1.34,0,0,0-1,.37,1.76,1.76,0,0,0-.37,1.28v9.08a1.75,1.75,0,0,0,.37,1.28,1.38,1.38,0,0,0,1,.36,1.35,1.35,0,0,0,1-.36,1.75,1.75,0,0,0,.38-1.28V52Z"/><path class="cls-1" d="M115.44,48.56h3.62V51h-3.62v4.93H120v2.4h-7.21V41.48H120v2.4h-4.56Z"/></svg>