<?xml version="1.0" encoding="UTF-8" standalone="no"?>
<!-- Created with Keyshape -->
<svg xmlns="http://www.w3.org/2000/svg" xmlns:xlink="http://www.w3.org/1999/xlink" viewBox="0 0 195 55" text-rendering="geometricPrecision" shape-rendering="geometricPrecision" style="white-space: pre;">
    <style>
@keyframes a0_o { 0% { opacity: 0; animation-timing-function: cubic-bezier(0.42,0,0.58,1); } 100% { opacity: 1; } }
@keyframes a1_t { 0% { transform: translate(116px,24.6px) scale(0,0); animation-timing-function: cubic-bezier(0.42,0,0.58,1); } 50% { transform: translate(116px,24.6px) scale(1.3,1.3); animation-timing-function: cubic-bezier(0.42,0,0.58,1); } 100% { transform: translate(116px,24.6px) scale(1,1); } }
@keyframes a1_o { 0% { opacity: 0; animation-timing-function: cubic-bezier(0.42,0,0.58,1); } 50% { opacity: 1; animation-timing-function: cubic-bezier(0.42,0,0.58,1); } 100% { opacity: 1; } }
@keyframes a2_t { 0% { transform: translate(17px,37.2344px) scale(0,0); } 100% { transform: translate(17px,37.2344px) scale(1,1); } }
@keyframes a2_o { 0% { opacity: 0; } 100% { opacity: 1; } }
@keyframes a3_t { 0% { transform: translate(17px,37.2344px) scale(0,0); } 100% { transform: translate(17px,37.2344px) scale(1,1); } }
@keyframes a3_o { 0% { opacity: 0; } 100% { opacity: 1; } }
    </style>
    <path d="M-72.3828,-8.5625L-72.3828,-4.97656L-67.5859,-4.97656L-67.5859,-8.5625L-66.2891,-8.5625L-66.2891,0L-67.5859,0L-67.5859,-3.85938L-72.3828,-3.85938L-72.3828,0L-73.6797,0L-73.6797,-8.5625ZM-62.3203,-8.5625L-62.3203,-3.13281L-62.375,-1.71094L-62.3984,-1.26562L-57.7656,-8.5625L-56.1484,-8.5625L-56.1484,0L-57.3594,0L-57.3594,-5.23438L-57.3359,-6.26562L-57.2969,-7.28125L-61.9219,0L-63.5391,0L-63.5391,-8.5625ZM-52.2578,-8.5625L-52.2578,-5.4375C-52.2578,-4.4375,-51.6875,-3.9375,-50.5469,-3.9375C-50.0729,-3.9375,-49.6198,-4.01042,-49.1875,-4.15625C-48.7552,-4.30208,-48.2656,-4.54948,-47.7188,-4.89844L-47.7188,-8.5625L-46.4219,-8.5625L-46.4219,0L-47.7188,0L-47.7188,-3.875C-48.2656,-3.5,-48.7721,-3.23568,-49.2383,-3.08203C-49.7044,-2.92839,-50.2318,-2.85156,-50.8203,-2.85156C-51.6745,-2.85156,-52.3438,-3.07552,-52.8281,-3.52344C-53.3125,-3.97135,-53.5547,-4.57812,-53.5547,-5.34375L-53.5547,-8.5625ZM-40.0469,0.15625C-41.3125,0.15625,-42.3112,-0.229167,-43.043,-1C-43.7747,-1.77083,-44.1406,-2.84115,-44.1406,-4.21094C-44.1406,-5.59115,-43.8008,-6.6875,-43.1211,-7.5C-42.4414,-8.3125,-41.5286,-8.71875,-40.3828,-8.71875C-39.3099,-8.71875,-38.4609,-8.36589,-37.8359,-7.66016C-37.2109,-6.95443,-36.8984,-6.02344,-36.8984,-4.86719L-36.8984,-4.04688L-42.7969,-4.04688C-42.7708,-3.04167,-42.5169,-2.27865,-42.0352,-1.75781C-41.5534,-1.23698,-40.875,-0.976562,-40,-0.976562C-39.0781,-0.976562,-38.1667,-1.16927,-37.2656,-1.55469L-37.2656,-0.398438C-37.724,-0.200521,-38.1576,-0.0585938,-38.5664,0.0273438C-38.9753,0.113281,-39.4688,0.15625,-40.0469,0.15625zM-40.3984,-7.63281C-41.0859,-7.63281,-41.6341,-7.40885,-42.043,-6.96094C-42.4518,-6.51302,-42.6927,-5.89323,-42.7656,-5.10156L-38.2891,-5.10156C-38.2891,-5.91927,-38.4714,-6.54557,-38.8359,-6.98047C-39.2005,-7.41536,-39.7214,-7.63281,-40.3984,-7.63281zM-29.5234,-7.45312L-33.3828,-7.45312L-33.3828,0L-34.6797,0L-34.6797,-8.5625L-29.5234,-8.5625ZM-20.4297,-4.28906C-20.4297,-2.89323,-20.7812,-1.80339,-21.4844,-1.01953C-22.1875,-0.235677,-23.1589,0.15625,-24.3984,0.15625C-25.1641,0.15625,-25.8438,-0.0234375,-26.4375,-0.382812C-27.0312,-0.742188,-27.4896,-1.25781,-27.8125,-1.92969C-28.1354,-2.60156,-28.2969,-3.38802,-28.2969,-4.28906C-28.2969,-5.6849,-27.9479,-6.77214,-27.25,-7.55078C-26.5521,-8.32943,-25.5833,-8.71875,-24.3438,-8.71875C-23.1458,-8.71875,-22.194,-8.32031,-21.4883,-7.52344C-20.7826,-6.72656,-20.4297,-5.64844,-20.4297,-4.28906zM-26.9531,-4.28906C-26.9531,-3.19531,-26.7344,-2.36198,-26.2969,-1.78906C-25.8594,-1.21615,-25.2161,-0.929688,-24.3672,-0.929688C-23.5182,-0.929688,-22.8737,-1.21484,-22.4336,-1.78516C-21.9935,-2.35547,-21.7734,-3.1901,-21.7734,-4.28906C-21.7734,-5.3776,-21.9935,-6.20443,-22.4336,-6.76953C-22.8737,-7.33464,-23.5234,-7.61719,-24.3828,-7.61719C-25.2318,-7.61719,-25.8724,-7.33854,-26.3047,-6.78125C-26.737,-6.22396,-26.9531,-5.39323,-26.9531,-4.28906zM-12.6953,-8.5625L-12.6953,-4.97656L-7.89844,-4.97656L-7.89844,-8.5625L-6.60156,-8.5625L-6.60156,0L-7.89844,0L-7.89844,-3.85938L-12.6953,-3.85938L-12.6953,0L-13.9922,0L-13.9922,-8.5625ZM-0.234375,0.15625C-1.5,0.15625,-2.4987,-0.229167,-3.23047,-1C-3.96224,-1.77083,-4.32812,-2.84115,-4.32812,-4.21094C-4.32812,-5.59115,-3.98828,-6.6875,-3.30859,-7.5C-2.62891,-8.3125,-1.71615,-8.71875,-0.570312,-8.71875C0.502604,-8.71875,1.35156,-8.36589,1.97656,-7.66016C2.60156,-6.95443,2.91406,-6.02344,2.91406,-4.86719L2.91406,-4.04688L-2.98438,-4.04688C-2.95833,-3.04167,-2.70443,-2.27865,-2.22266,-1.75781C-1.74089,-1.23698,-1.0625,-0.976562,-0.1875,-0.976562C0.734375,-0.976562,1.64583,-1.16927,2.54688,-1.55469L2.54688,-0.398438C2.08854,-0.200521,1.65495,-0.0585938,1.24609,0.0273438C0.83724,0.113281,0.34375,0.15625,-0.234375,0.15625zM-0.585938,-7.63281C-1.27344,-7.63281,-1.82161,-7.40885,-2.23047,-6.96094C-2.63932,-6.51302,-2.88021,-5.89323,-2.95312,-5.10156L1.52344,-5.10156C1.52344,-5.91927,1.34115,-6.54557,0.976562,-6.98047C0.611979,-7.41536,0.0911458,-7.63281,-0.585938,-7.63281zM10.5859,-8.5625L10.5859,-4.97656L15.3828,-4.97656L15.3828,-8.5625L16.6797,-8.5625L16.6797,0L15.3828,0L15.3828,-3.85938L10.5859,-3.85938L10.5859,0L9.28906,0L9.28906,-8.5625ZM24.6953,0L24.4375,-1.21875L24.375,-1.21875C23.9479,-0.682292,23.5221,-0.31901,23.0977,-0.128906C22.6732,0.0611979,22.1432,0.15625,21.5078,0.15625C20.6589,0.15625,19.9935,-0.0625,19.5117,-0.5C19.0299,-0.9375,18.7891,-1.5599,18.7891,-2.36719C18.7891,-4.09635,20.1719,-5.0026,22.9375,-5.08594L24.3906,-5.13281L24.3906,-5.66406C24.3906,-6.33594,24.2461,-6.83203,23.957,-7.15234C23.668,-7.47266,23.2057,-7.63281,22.5703,-7.63281C21.8568,-7.63281,21.0495,-7.41406,20.1484,-6.97656L19.75,-7.96875C20.1719,-8.19792,20.6341,-8.3776,21.1367,-8.50781C21.6393,-8.63802,22.1432,-8.70312,22.6484,-8.70312C23.6693,-8.70312,24.4258,-8.47656,24.918,-8.02344C25.4102,-7.57031,25.6562,-6.84375,25.6562,-5.84375L25.6562,0ZM21.7656,-0.914062C22.5729,-0.914062,23.207,-1.13542,23.668,-1.57812C24.1289,-2.02083,24.3594,-2.64062,24.3594,-3.4375L24.3594,-4.21094L23.0625,-4.15625C22.0312,-4.11979,21.2878,-3.95964,20.832,-3.67578C20.3763,-3.39193,20.1484,-2.95052,20.1484,-2.35156C20.1484,-1.88281,20.2904,-1.52604,20.5742,-1.28125C20.8581,-1.03646,21.2552,-0.914062,21.7656,-0.914062zM29.5547,-8.5625L29.5547,-3.13281L29.5,-1.71094L29.4766,-1.26562L34.1094,-8.5625L35.7266,-8.5625L35.7266,0L34.5156,0L34.5156,-5.23438L34.5391,-6.26562L34.5781,-7.28125L29.9531,0L28.3359,0L28.3359,-8.5625ZM32,-9.69531C31.0365,-9.69531,30.3333,-9.88151,29.8906,-10.2539C29.4479,-10.6263,29.2005,-11.2396,29.1484,-12.0938L30.3672,-12.0938C30.4141,-11.5521,30.556,-11.1745,30.793,-10.9609C31.0299,-10.7474,31.4427,-10.6406,32.0312,-10.6406C32.5677,-10.6406,32.9648,-10.7552,33.2227,-10.9844C33.4805,-11.2135,33.638,-11.5833,33.6953,-12.0938L34.9219,-12.0938C34.8594,-11.2708,34.5964,-10.6654,34.1328,-10.2773C33.6693,-9.88932,32.9583,-9.69531,32,-9.69531zM45.9141,2.96094L44.6562,2.96094L44.6562,0L38.6719,0L38.6719,2.96094L37.4219,2.96094L37.4219,-1.11719L38.0938,-1.11719C38.7917,-2.0651,39.3385,-3.17708,39.7344,-4.45312C40.1302,-5.72917,40.3359,-7.09896,40.3516,-8.5625L44.6875,-8.5625L44.6875,-1.11719L45.9141,-1.11719ZM43.4375,-1.11719L43.4375,-7.53906L41.5156,-7.53906C41.4479,-6.38281,41.2253,-5.21224,40.8477,-4.02734C40.4701,-2.84245,40,-1.8724,39.4375,-1.11719ZM51.25,0.15625C49.9844,0.15625,48.9857,-0.229167,48.2539,-1C47.5221,-1.77083,47.1562,-2.84115,47.1562,-4.21094C47.1562,-5.59115,47.4961,-6.6875,48.1758,-7.5C48.8555,-8.3125,49.7682,-8.71875,50.9141,-8.71875C51.987,-8.71875,52.8359,-8.36589,53.4609,-7.66016C54.0859,-6.95443,54.3984,-6.02344,54.3984,-4.86719L54.3984,-4.04688L48.5,-4.04688C48.526,-3.04167,48.7799,-2.27865,49.2617,-1.75781C49.7435,-1.23698,50.4219,-0.976562,51.2969,-0.976562C52.2188,-0.976562,53.1302,-1.16927,54.0312,-1.55469L54.0312,-0.398438C53.5729,-0.200521,53.1393,-0.0585938,52.7305,0.0273438C52.3216,0.113281,51.8281,0.15625,51.25,0.15625zM50.8984,-7.63281C50.2109,-7.63281,49.6628,-7.40885,49.2539,-6.96094C48.8451,-6.51302,48.6042,-5.89323,48.5312,-5.10156L53.0078,-5.10156C53.0078,-5.91927,52.8255,-6.54557,52.4609,-6.98047C52.0964,-7.41536,51.5755,-7.63281,50.8984,-7.63281zM57.9141,-8.5625L57.9141,-4.97656L62.7109,-4.97656L62.7109,-8.5625L64.0078,-8.5625L64.0078,0L62.7109,0L62.7109,-3.85938L57.9141,-3.85938L57.9141,0L56.6172,0L56.6172,-8.5625ZM74.1484,-4.28906C74.1484,-2.89323,73.7969,-1.80339,73.0938,-1.01953C72.3906,-0.235677,71.4193,0.15625,70.1797,0.15625C69.4141,0.15625,68.7344,-0.0234375,68.1406,-0.382812C67.5469,-0.742188,67.0885,-1.25781,66.7656,-1.92969C66.4427,-2.60156,66.2812,-3.38802,66.2812,-4.28906C66.2812,-5.6849,66.6302,-6.77214,67.3281,-7.55078C68.026,-8.32943,68.9948,-8.71875,70.2344,-8.71875C71.4323,-8.71875,72.3841,-8.32031,73.0898,-7.52344C73.7956,-6.72656,74.1484,-5.64844,74.1484,-4.28906zM67.625,-4.28906C67.625,-3.19531,67.8438,-2.36198,68.2812,-1.78906C68.7188,-1.21615,69.362,-0.929688,70.2109,-0.929688C71.0599,-0.929688,71.7044,-1.21484,72.1445,-1.78516C72.5846,-2.35547,72.8047,-3.1901,72.8047,-4.28906C72.8047,-5.3776,72.5846,-6.20443,72.1445,-6.76953C71.7044,-7.33464,71.0547,-7.61719,70.1953,-7.61719C69.3464,-7.61719,68.7057,-7.33854,68.2734,-6.78125C67.8411,-6.22396,67.625,-5.39323,67.625,-4.28906z" fill="#9c9c9c" stroke="none" text-anchor="middle" opacity="0" transform="translate(115,45.6)" style="animation: a0_o 0.3s linear 0.3s both;"/>
    <path d="M-35.3359,0L-36.9961,0L-36.9961,-12.8027L-44.3301,-12.8027L-44.3301,0L-45.9902,0L-45.9902,-14.2773L-35.3359,-14.2773ZM-26.6758,0.195312C-27.3724,0.195312,-28.0088,0.0667318,-28.585,-0.19043C-29.1611,-0.447591,-29.6445,-0.843099,-30.0352,-1.37695L-30.1523,-1.37695C-30.0742,-0.751953,-30.0352,-0.159505,-30.0352,0.400391L-30.0352,4.80469L-31.6562,4.80469L-31.6562,-10.7031L-30.3379,-10.7031L-30.1133,-9.23828L-30.0352,-9.23828C-29.6185,-9.82422,-29.1335,-10.2474,-28.5801,-10.5078C-28.0267,-10.7682,-27.3919,-10.8984,-26.6758,-10.8984C-25.2565,-10.8984,-24.1611,-10.4134,-23.3896,-9.44336C-22.6182,-8.47331,-22.2324,-7.11263,-22.2324,-5.36133C-22.2324,-3.60352,-22.6247,-2.23796,-23.4092,-1.26465C-24.1937,-0.291341,-25.2826,0.195312,-26.6758,0.195312zM-26.9102,-9.52148C-28.0039,-9.52148,-28.7949,-9.21875,-29.2832,-8.61328C-29.7715,-8.00781,-30.0221,-7.04427,-30.0352,-5.72266L-30.0352,-5.36133C-30.0352,-3.85742,-29.7845,-2.78158,-29.2832,-2.13379C-28.7819,-1.486,-27.9779,-1.16211,-26.8711,-1.16211C-25.9466,-1.16211,-25.2223,-1.53646,-24.6982,-2.28516C-24.1742,-3.03385,-23.9121,-4.06576,-23.9121,-5.38086C-23.9121,-6.71549,-24.1742,-7.73926,-24.6982,-8.45215C-25.2223,-9.16504,-25.9596,-9.52148,-26.9102,-9.52148zM-10.168,-5.36133C-10.168,-3.61654,-10.6074,-2.25423,-11.4863,-1.27441C-12.3652,-0.294596,-13.5794,0.195312,-15.1289,0.195312C-16.0859,0.195312,-16.9355,-0.0292969,-17.6777,-0.478516C-18.4199,-0.927734,-18.9928,-1.57227,-19.3965,-2.41211C-19.8001,-3.25195,-20.002,-4.23503,-20.002,-5.36133C-20.002,-7.10612,-19.5658,-8.46517,-18.6934,-9.43848C-17.821,-10.4118,-16.61,-10.8984,-15.0605,-10.8984C-13.5632,-10.8984,-12.3734,-10.4004,-11.4912,-9.4043C-10.609,-8.4082,-10.168,-7.06055,-10.168,-5.36133zM-18.3223,-5.36133C-18.3223,-3.99414,-18.0488,-2.95247,-17.502,-2.23633C-16.9551,-1.52018,-16.151,-1.16211,-15.0898,-1.16211C-14.0286,-1.16211,-13.223,-1.51855,-12.6729,-2.23145C-12.1227,-2.94434,-11.8477,-3.98763,-11.8477,-5.36133C-11.8477,-6.72201,-12.1227,-7.75553,-12.6729,-8.46191C-13.223,-9.16829,-14.0352,-9.52148,-15.1094,-9.52148C-16.1706,-9.52148,-16.9714,-9.17318,-17.5117,-8.47656C-18.0521,-7.77995,-18.3223,-6.74154,-18.3223,-5.36133zM-3.05078,0.195312C-4.60026,0.195312,-5.7998,-0.281576,-6.64941,-1.23535C-7.49902,-2.18913,-7.92383,-3.53841,-7.92383,-5.2832C-7.92383,-7.07357,-7.49251,-8.45703,-6.62988,-9.43359C-5.76725,-10.4102,-4.53841,-10.8984,-2.94336,-10.8984C-2.42904,-10.8984,-1.91471,-10.8431,-1.40039,-10.7324C-0.886068,-10.6217,-0.482422,-10.4915,-0.189453,-10.3418L-0.6875,-8.96484C-1.04557,-9.10807,-1.4362,-9.22689,-1.85938,-9.32129C-2.28255,-9.41569,-2.6569,-9.46289,-2.98242,-9.46289C-5.1569,-9.46289,-6.24414,-8.07617,-6.24414,-5.30273C-6.24414,-3.98763,-5.97884,-2.97852,-5.44824,-2.27539C-4.91764,-1.57227,-4.13151,-1.2207,-3.08984,-1.2207C-2.19792,-1.2207,-1.2832,-1.41276,-0.345703,-1.79688L-0.345703,-0.361328C-1.06185,0.00976562,-1.96354,0.195312,-3.05078,0.195312zM9.4043,-9.31641L5.92773,-9.31641L5.92773,0L4.30664,0L4.30664,-9.31641L0.869141,-9.31641L0.869141,-10.7031L9.4043,-10.7031ZM13.0547,-10.7031L13.0547,-3.91602L12.9863,-2.13867L12.957,-1.58203L18.748,-10.7031L20.7695,-10.7031L20.7695,0L19.2559,0L19.2559,-6.54297L19.2852,-7.83203L19.334,-9.10156L13.5527,0L11.5312,0L11.5312,-10.7031ZM31.4199,-9.31641L27.9434,-9.31641L27.9434,0L26.3223,0L26.3223,-9.31641L22.8848,-9.31641L22.8848,-10.7031L31.4199,-10.7031ZM38.0684,0.195312C36.4863,0.195312,35.238,-0.286458,34.3232,-1.25C33.4085,-2.21354,32.9512,-3.55143,32.9512,-5.26367C32.9512,-6.98893,33.376,-8.35938,34.2256,-9.375C35.0752,-10.3906,36.2161,-10.8984,37.6484,-10.8984C38.9896,-10.8984,40.0508,-10.4574,40.832,-9.5752C41.6133,-8.69303,42.0039,-7.5293,42.0039,-6.08398L42.0039,-5.05859L34.6309,-5.05859C34.6634,-3.80208,34.9808,-2.84831,35.583,-2.19727C36.1852,-1.54622,37.0332,-1.2207,38.127,-1.2207C39.2793,-1.2207,40.4186,-1.46159,41.5449,-1.94336L41.5449,-0.498047C40.972,-0.250651,40.43,-0.0732422,39.9189,0.0341797C39.4079,0.141602,38.791,0.195312,38.0684,0.195312zM37.6289,-9.54102C36.7695,-9.54102,36.0843,-9.26107,35.5732,-8.70117C35.0622,-8.14128,34.7611,-7.36654,34.6699,-6.37695L40.2656,-6.37695C40.2656,-7.39909,40.0378,-8.18197,39.582,-8.72559C39.1263,-9.26921,38.4753,-9.54102,37.6289,-9.54102zM46.4648,-2.32422L46.6113,-2.09961C46.4421,-1.44857,46.1979,-0.691732,45.8789,0.170898C45.5599,1.03353,45.2279,1.83594,44.8828,2.57812L43.6621,2.57812C43.8379,1.90104,44.0316,1.06445,44.2432,0.0683594C44.4548,-0.927734,44.6029,-1.72526,44.6875,-2.32422Z" fill="#9c9c9c" stroke="none" text-anchor="middle" opacity="0" transform="translate(116,24.6) scale(0,0)" style="animation: a1_t 0.6s linear both, a1_o 0.6s linear both;"/>
    <path fill="#dfdfdf" opacity="0" stroke="none" d="M13.9275,2.14286C13.9275,2.72321,13.7154,3.22545,13.2913,3.64955C12.8672,4.07366,12.365,4.28571,11.7846,4.28571C11.1819,4.28571,10.6797,4.07366,10.2779,3.64955L4.53571,-2.07589C2.53795,-0.691964,0.311384,0,-2.14397,0C-3.73995,0,-5.26618,-0.30971,-6.72266,-0.929129C-8.17913,-1.54855,-9.43471,-2.3856,-10.4894,-3.44029C-11.5441,-4.49498,-12.3811,-5.75056,-13.0006,-7.20703C-13.62,-8.6635,-13.9297,-10.1897,-13.9297,-11.7857C-13.9297,-13.3817,-13.62,-14.9079,-13.0006,-16.3644C-12.3811,-17.8209,-11.5441,-19.0765,-10.4894,-20.1311C-9.43471,-21.1858,-8.17913,-22.0229,-6.72266,-22.6423C-5.26618,-23.2617,-3.73995,-23.5714,-2.14397,-23.5714C-0.547991,-23.5714,0.978237,-23.2617,2.43471,-22.6423C3.89118,-22.0229,5.14676,-21.1858,6.20145,-20.1311C7.25614,-19.0765,8.09319,-17.8209,8.71261,-16.3644C9.33203,-14.9079,9.64174,-13.3817,9.64174,-11.7857C9.64174,-9.33036,8.94978,-7.1038,7.56585,-5.10603L13.308,0.636161C13.721,1.04911,13.9275,1.55134,13.9275,2.14286z" transform="translate(17,37.2344) scale(0,0)" style="animation: a2_t 0.1s linear both, a2_o 0.1s linear both;"/>
    <path fill="#ffffff" opacity="0" stroke="none" d="M5.35603,-11.7857C5.35603,-13.8504,4.62221,-15.6166,3.15458,-17.0843C1.68694,-18.5519,-0.0792411,-19.2857,-2.14397,-19.2857C-4.2087,-19.2857,-5.97489,-18.5519,-7.44252,-17.0843C-8.91016,-15.6166,-9.64397,-13.8504,-9.64397,-11.7857C-9.64397,-9.72098,-8.91016,-7.9548,-7.44252,-6.48717C-5.97489,-5.01953,-4.2087,-4.28571,-2.14397,-4.28571C-0.0792411,-4.28571,1.68694,-5.01953,3.15458,-6.48717C4.62221,-7.9548,5.35603,-9.72098,5.35603,-11.7857z" transform="translate(17,37.2344) scale(0,0)" style="animation: a3_t 0.1s linear both, a3_o 0.1s linear both;"/>
</svg>
