<?xml version="1.0" encoding="UTF-8" standalone="no"?>
<!-- Created with Keyshape -->
<svg xmlns="http://www.w3.org/2000/svg" xmlns:xlink="http://www.w3.org/1999/xlink" viewBox="0 0 155 55" text-rendering="geometricPrecision" shape-rendering="geometricPrecision" style="white-space: pre;">
    <style>
@keyframes a0_o { 0% { opacity: 0; animation-timing-function: cubic-bezier(0.42,0,0.58,1); } 100% { opacity: 1; } }
@keyframes a1_t { 0% { transform: translate(96px,24.6px) scale(0,0); animation-timing-function: cubic-bezier(0.42,0,0.58,1); } 50% { transform: translate(96px,24.6px) scale(1.3,1.3); animation-timing-function: cubic-bezier(0.42,0,0.58,1); } 100% { transform: translate(96px,24.6px) scale(1,1); } }
@keyframes a1_o { 0% { opacity: 0; animation-timing-function: cubic-bezier(0.42,0,0.58,1); } 50% { opacity: 1; animation-timing-function: cubic-bezier(0.42,0,0.58,1); } 100% { opacity: 1; } }
@keyframes a2_t { 0% { transform: translate(17px,37.2344px) scale(0,0); } 100% { transform: translate(17px,37.2344px) scale(1,1); } }
@keyframes a2_o { 0% { opacity: 0; } 100% { opacity: 1; } }
@keyframes a3_t { 0% { transform: translate(17px,37.2344px) scale(0,0); } 100% { transform: translate(17px,37.2344px) scale(1,1); } }
@keyframes a3_o { 0% { opacity: 0; } 100% { opacity: 1; } }
    </style>
    <path d="M-45.9375,0L-45.9375,-5.53906C-45.9375,-6.23698,-46.0964,-6.75781,-46.4141,-7.10156C-46.7318,-7.44531,-47.2292,-7.61719,-47.9062,-7.61719C-48.8021,-7.61719,-49.4583,-7.375,-49.875,-6.89062C-50.2917,-6.40625,-50.5,-5.60677,-50.5,-4.49219L-50.5,0L-51.7969,0L-51.7969,-8.5625L-50.7422,-8.5625L-50.5312,-7.39062L-50.4688,-7.39062C-50.2031,-7.8125,-49.8307,-8.13932,-49.3516,-8.37109C-48.8724,-8.60286,-48.3385,-8.71875,-47.75,-8.71875C-46.7188,-8.71875,-45.9427,-8.47005,-45.4219,-7.97266C-44.901,-7.47526,-44.6406,-6.67969,-44.6406,-5.58594L-44.6406,0ZM-34.5781,-4.28906C-34.5781,-2.89323,-34.9297,-1.80339,-35.6328,-1.01953C-36.3359,-0.235677,-37.3073,0.15625,-38.5469,0.15625C-39.3125,0.15625,-39.9922,-0.0234375,-40.5859,-0.382812C-41.1797,-0.742188,-41.638,-1.25781,-41.9609,-1.92969C-42.2839,-2.60156,-42.4453,-3.38802,-42.4453,-4.28906C-42.4453,-5.6849,-42.0964,-6.77214,-41.3984,-7.55078C-40.7005,-8.32943,-39.7318,-8.71875,-38.4922,-8.71875C-37.2943,-8.71875,-36.3424,-8.32031,-35.6367,-7.52344C-34.931,-6.72656,-34.5781,-5.64844,-34.5781,-4.28906zM-41.1016,-4.28906C-41.1016,-3.19531,-40.8828,-2.36198,-40.4453,-1.78906C-40.0078,-1.21615,-39.3646,-0.929688,-38.5156,-0.929688C-37.6667,-0.929688,-37.0221,-1.21484,-36.582,-1.78516C-36.1419,-2.35547,-35.9219,-3.1901,-35.9219,-4.28906C-35.9219,-5.3776,-36.1419,-6.20443,-36.582,-6.76953C-37.0221,-7.33464,-37.6719,-7.61719,-38.5312,-7.61719C-39.3802,-7.61719,-40.0208,-7.33854,-40.4531,-6.78125C-40.8854,-6.22396,-41.1016,-5.39323,-41.1016,-4.28906zM-29.5312,-0.914062C-29.3021,-0.914062,-29.0807,-0.93099,-28.8672,-0.964844C-28.6536,-0.998698,-28.4844,-1.03385,-28.3594,-1.07031L-28.3594,-0.078125C-28.5,-0.0104167,-28.707,0.0455729,-28.9805,0.0898438C-29.2539,0.134115,-29.5,0.15625,-29.7188,0.15625C-31.375,0.15625,-32.2031,-0.716146,-32.2031,-2.46094L-32.2031,-7.55469L-33.4297,-7.55469L-33.4297,-8.17969L-32.2031,-8.71875L-31.6562,-10.5469L-30.9062,-10.5469L-30.9062,-8.5625L-28.4219,-8.5625L-28.4219,-7.55469L-30.9062,-7.55469L-30.9062,-2.51562C-30.9062,-2,-30.7839,-1.60417,-30.5391,-1.32812C-30.2943,-1.05208,-29.9583,-0.914062,-29.5312,-0.914062zM-20.7812,0L-20.7812,-5.53906C-20.7812,-6.23698,-20.9401,-6.75781,-21.2578,-7.10156C-21.5755,-7.44531,-22.0729,-7.61719,-22.75,-7.61719C-23.651,-7.61719,-24.3086,-7.3724,-24.7227,-6.88281C-25.1367,-6.39323,-25.3438,-5.59115,-25.3438,-4.47656L-25.3438,0L-26.6406,0L-26.6406,-12.1562L-25.3438,-12.1562L-25.3438,-8.47656C-25.3438,-8.03385,-25.3646,-7.66667,-25.4062,-7.375L-25.3281,-7.375C-25.0729,-7.78646,-24.7096,-8.11068,-24.2383,-8.34766C-23.7669,-8.58464,-23.2292,-8.70312,-22.625,-8.70312C-21.5781,-8.70312,-20.793,-8.45443,-20.2695,-7.95703C-19.7461,-7.45964,-19.4844,-6.66927,-19.4844,-5.58594L-19.4844,0ZM-15.5156,0L-16.8125,0L-16.8125,-8.5625L-15.5156,-8.5625ZM-16.9219,-10.8828C-16.9219,-11.1797,-16.849,-11.3971,-16.7031,-11.5352C-16.5573,-11.6732,-16.375,-11.7422,-16.1562,-11.7422C-15.9479,-11.7422,-15.7682,-11.6719,-15.6172,-11.5312C-15.4661,-11.3906,-15.3906,-11.1745,-15.3906,-10.8828C-15.3906,-10.5911,-15.4661,-10.3737,-15.6172,-10.2305C-15.7682,-10.0872,-15.9479,-10.0156,-16.1562,-10.0156C-16.375,-10.0156,-16.5573,-10.0872,-16.7031,-10.2305C-16.849,-10.3737,-16.9219,-10.5911,-16.9219,-10.8828zM-6.90625,0L-6.90625,-5.53906C-6.90625,-6.23698,-7.0651,-6.75781,-7.38281,-7.10156C-7.70052,-7.44531,-8.19792,-7.61719,-8.875,-7.61719C-9.77083,-7.61719,-10.4271,-7.375,-10.8438,-6.89062C-11.2604,-6.40625,-11.4688,-5.60677,-11.4688,-4.49219L-11.4688,0L-12.7656,0L-12.7656,-8.5625L-11.7109,-8.5625L-11.5,-7.39062L-11.4375,-7.39062C-11.1719,-7.8125,-10.7995,-8.13932,-10.3203,-8.37109C-9.84115,-8.60286,-9.30729,-8.71875,-8.71875,-8.71875C-7.6875,-8.71875,-6.91146,-8.47005,-6.39062,-7.97266C-5.86979,-7.47526,-5.60938,-6.67969,-5.60938,-5.58594L-5.60938,0ZM4.07031,-8.5625L4.07031,-7.74219L2.48438,-7.55469C2.63021,-7.3724,2.76042,-7.13411,2.875,-6.83984C2.98958,-6.54557,3.04688,-6.21354,3.04688,-5.84375C3.04688,-5.00521,2.76042,-4.33594,2.1875,-3.83594C1.61458,-3.33594,0.828125,-3.08594,-0.171875,-3.08594C-0.427083,-3.08594,-0.666667,-3.10677,-0.890625,-3.14844C-1.44271,-2.85677,-1.71875,-2.48958,-1.71875,-2.04688C-1.71875,-1.8125,-1.6224,-1.63932,-1.42969,-1.52734C-1.23698,-1.41536,-0.90625,-1.35938,-0.4375,-1.35938L1.07812,-1.35938C2.00521,-1.35938,2.71745,-1.16406,3.21484,-0.773438C3.71224,-0.382812,3.96094,0.184896,3.96094,0.929688C3.96094,1.8776,3.58073,2.60026,2.82031,3.09766C2.0599,3.59505,0.950521,3.84375,-0.507812,3.84375C-1.6276,3.84375,-2.49089,3.63542,-3.09766,3.21875C-3.70443,2.80208,-4.00781,2.21354,-4.00781,1.45312C-4.00781,0.932292,-3.84115,0.481771,-3.50781,0.101562C-3.17448,-0.278646,-2.70573,-0.536458,-2.10156,-0.671875C-2.32031,-0.770833,-2.50391,-0.924479,-2.65234,-1.13281C-2.80078,-1.34115,-2.875,-1.58333,-2.875,-1.85938C-2.875,-2.17188,-2.79167,-2.44531,-2.625,-2.67969C-2.45833,-2.91406,-2.19531,-3.14062,-1.83594,-3.35938C-2.27865,-3.54167,-2.63932,-3.85156,-2.91797,-4.28906C-3.19661,-4.72656,-3.33594,-5.22656,-3.33594,-5.78906C-3.33594,-6.72656,-3.05469,-7.44922,-2.49219,-7.95703C-1.92969,-8.46484,-1.13281,-8.71875,-0.101562,-8.71875C0.346354,-8.71875,0.75,-8.66667,1.10938,-8.5625ZM-2.75781,1.4375C-2.75781,1.90104,-2.5625,2.2526,-2.17188,2.49219C-1.78125,2.73177,-1.22135,2.85156,-0.492188,2.85156C0.596354,2.85156,1.40234,2.6888,1.92578,2.36328C2.44922,2.03776,2.71094,1.59635,2.71094,1.03906C2.71094,0.575521,2.56771,0.253906,2.28125,0.0742188C1.99479,-0.105469,1.45573,-0.195312,0.664062,-0.195312L-0.890625,-0.195312C-1.47917,-0.195312,-1.9375,-0.0546875,-2.26562,0.226562C-2.59375,0.507812,-2.75781,0.911458,-2.75781,1.4375zM-2.05469,-5.82031C-2.05469,-5.22135,-1.88542,-4.76823,-1.54688,-4.46094C-1.20833,-4.15365,-0.736979,-4,-0.132812,-4C1.13281,-4,1.76562,-4.61458,1.76562,-5.84375C1.76562,-7.13021,1.125,-7.77344,-0.15625,-7.77344C-0.765625,-7.77344,-1.23438,-7.60938,-1.5625,-7.28125C-1.89062,-6.95312,-2.05469,-6.46615,-2.05469,-5.82031zM13.8438,-7.55469L11.6641,-7.55469L11.6641,0L10.3672,0L10.3672,-7.55469L8.83594,-7.55469L8.83594,-8.14062L10.3672,-8.60938L10.3672,-9.08594C10.3672,-11.1901,11.2865,-12.2422,13.125,-12.2422C13.5781,-12.2422,14.1094,-12.151,14.7188,-11.9688L14.3828,-10.9297C13.8828,-11.0911,13.4557,-11.1719,13.1016,-11.1719C12.612,-11.1719,12.25,-11.0091,12.0156,-10.6836C11.7812,-10.3581,11.6641,-9.83594,11.6641,-9.11719L11.6641,-8.5625L13.8438,-8.5625ZM22.7969,-4.28906C22.7969,-2.89323,22.4453,-1.80339,21.7422,-1.01953C21.0391,-0.235677,20.0677,0.15625,18.8281,0.15625C18.0625,0.15625,17.3828,-0.0234375,16.7891,-0.382812C16.1953,-0.742188,15.737,-1.25781,15.4141,-1.92969C15.0911,-2.60156,14.9297,-3.38802,14.9297,-4.28906C14.9297,-5.6849,15.2786,-6.77214,15.9766,-7.55078C16.6745,-8.32943,17.6432,-8.71875,18.8828,-8.71875C20.0807,-8.71875,21.0326,-8.32031,21.7383,-7.52344C22.444,-6.72656,22.7969,-5.64844,22.7969,-4.28906zM16.2734,-4.28906C16.2734,-3.19531,16.4922,-2.36198,16.9297,-1.78906C17.3672,-1.21615,18.0104,-0.929688,18.8594,-0.929688C19.7083,-0.929688,20.3529,-1.21484,20.793,-1.78516C21.2331,-2.35547,21.4531,-3.1901,21.4531,-4.28906C21.4531,-5.3776,21.2331,-6.20443,20.793,-6.76953C20.3529,-7.33464,19.7031,-7.61719,18.8438,-7.61719C17.9948,-7.61719,17.3542,-7.33854,16.9219,-6.78125C16.4896,-6.22396,16.2734,-5.39323,16.2734,-4.28906zM26.2969,-8.5625L26.2969,-3.00781C26.2969,-2.3099,26.4557,-1.78906,26.7734,-1.44531C27.0911,-1.10156,27.5885,-0.929688,28.2656,-0.929688C29.1615,-0.929688,29.8164,-1.17448,30.2305,-1.66406C30.6445,-2.15365,30.8516,-2.95312,30.8516,-4.0625L30.8516,-8.5625L32.1484,-8.5625L32.1484,0L31.0781,0L30.8906,-1.14844L30.8203,-1.14844C30.5547,-0.726562,30.1862,-0.403646,29.7148,-0.179688C29.2435,0.0442708,28.7057,0.15625,28.1016,0.15625C27.0599,0.15625,26.2799,-0.0911458,25.7617,-0.585938C25.2435,-1.08073,24.9844,-1.8724,24.9844,-2.96094L24.9844,-8.5625ZM40.7656,0L40.7656,-5.53906C40.7656,-6.23698,40.6068,-6.75781,40.2891,-7.10156C39.9714,-7.44531,39.474,-7.61719,38.7969,-7.61719C37.901,-7.61719,37.2448,-7.375,36.8281,-6.89062C36.4115,-6.40625,36.2031,-5.60677,36.2031,-4.49219L36.2031,0L34.9062,0L34.9062,-8.5625L35.9609,-8.5625L36.1719,-7.39062L36.2344,-7.39062C36.5,-7.8125,36.8724,-8.13932,37.3516,-8.37109C37.8307,-8.60286,38.3646,-8.71875,38.9531,-8.71875C39.9844,-8.71875,40.7604,-8.47005,41.2812,-7.97266C41.8021,-7.47526,42.0625,-6.67969,42.0625,-5.58594L42.0625,0ZM50.5625,-1.14844L50.4922,-1.14844C49.8932,-0.278646,48.9974,0.15625,47.8047,0.15625C46.6849,0.15625,45.8138,-0.226562,45.1914,-0.992188C44.569,-1.75781,44.2578,-2.84635,44.2578,-4.25781C44.2578,-5.66927,44.5703,-6.76562,45.1953,-7.54688C45.8203,-8.32812,46.6901,-8.71875,47.8047,-8.71875C48.9661,-8.71875,49.8568,-8.29688,50.4766,-7.45312L50.5781,-7.45312L50.5234,-8.07031L50.4922,-8.67188L50.4922,-12.1562L51.7891,-12.1562L51.7891,0L50.7344,0ZM47.9688,-0.929688C48.8542,-0.929688,49.4961,-1.17057,49.8945,-1.65234C50.293,-2.13411,50.4922,-2.91146,50.4922,-3.98438L50.4922,-4.25781C50.4922,-5.47135,50.2904,-6.33724,49.8867,-6.85547C49.4831,-7.3737,48.8385,-7.63281,47.9531,-7.63281C47.1927,-7.63281,46.6107,-7.33724,46.207,-6.74609C45.8034,-6.15495,45.6016,-5.32031,45.6016,-4.24219C45.6016,-3.14844,45.8021,-2.32292,46.2031,-1.76562C46.6042,-1.20833,47.1927,-0.929688,47.9688,-0.929688z" fill="#9c9c9c" stroke="none" text-anchor="middle" opacity="0" transform="translate(95,47.6)" style="animation: a0_o 0.3s linear 0.3s both;"/>
    <path d="M-17.1758,-3.79883C-17.1758,-2.54232,-17.6315,-1.5625,-18.543,-0.859375C-19.4544,-0.15625,-20.6914,0.195312,-22.2539,0.195312C-23.9466,0.195312,-25.2487,-0.0227865,-26.1602,-0.458984L-26.1602,-2.06055C-25.5742,-1.81315,-24.9362,-1.61784,-24.2461,-1.47461C-23.556,-1.33138,-22.8724,-1.25977,-22.1953,-1.25977C-21.0885,-1.25977,-20.2552,-1.46973,-19.6953,-1.88965C-19.1354,-2.30957,-18.8555,-2.89388,-18.8555,-3.64258C-18.8555,-4.13737,-18.9548,-4.54264,-19.1533,-4.8584C-19.3519,-5.17415,-19.6839,-5.46549,-20.1494,-5.73242C-20.6149,-5.99935,-21.3229,-6.30208,-22.2734,-6.64062C-23.6016,-7.11589,-24.5505,-7.67904,-25.1201,-8.33008C-25.6898,-8.98112,-25.9746,-9.83073,-25.9746,-10.8789C-25.9746,-11.9792,-25.5612,-12.8548,-24.7344,-13.5059C-23.9076,-14.1569,-22.8138,-14.4824,-21.4531,-14.4824C-20.0339,-14.4824,-18.7285,-14.222,-17.5371,-13.7012L-18.0547,-12.2559C-19.2331,-12.7507,-20.3789,-12.998,-21.4922,-12.998C-22.3711,-12.998,-23.0579,-12.8092,-23.5527,-12.4316C-24.0475,-12.054,-24.2949,-11.5299,-24.2949,-10.8594C-24.2949,-10.3646,-24.2038,-9.95931,-24.0215,-9.64355C-23.8392,-9.3278,-23.5316,-9.03809,-23.0986,-8.77441C-22.6657,-8.51074,-22.0033,-8.2194,-21.1113,-7.90039C-19.6139,-7.36654,-18.5837,-6.79362,-18.0205,-6.18164C-17.4574,-5.56966,-17.1758,-4.77539,-17.1758,-3.79883zM-5.25391,-5.36133C-5.25391,-3.61654,-5.69336,-2.25423,-6.57227,-1.27441C-7.45117,-0.294596,-8.66536,0.195312,-10.2148,0.195312C-11.1719,0.195312,-12.0215,-0.0292969,-12.7637,-0.478516C-13.5059,-0.927734,-14.0788,-1.57227,-14.4824,-2.41211C-14.8861,-3.25195,-15.0879,-4.23503,-15.0879,-5.36133C-15.0879,-7.10612,-14.6517,-8.46517,-13.7793,-9.43848C-12.9069,-10.4118,-11.696,-10.8984,-10.1465,-10.8984C-8.64909,-10.8984,-7.45931,-10.4004,-6.57715,-9.4043C-5.69499,-8.4082,-5.25391,-7.06055,-5.25391,-5.36133zM-13.4082,-5.36133C-13.4082,-3.99414,-13.1348,-2.95247,-12.5879,-2.23633C-12.041,-1.52018,-11.237,-1.16211,-10.1758,-1.16211C-9.11458,-1.16211,-8.30892,-1.51855,-7.75879,-2.23145C-7.20866,-2.94434,-6.93359,-3.98763,-6.93359,-5.36133C-6.93359,-6.72201,-7.20866,-7.75553,-7.75879,-8.46191C-8.30892,-9.16829,-9.12109,-9.52148,-10.1953,-9.52148C-11.2565,-9.52148,-12.0573,-9.17318,-12.5977,-8.47656C-13.138,-7.77995,-13.4082,-6.74154,-13.4082,-5.36133zM2.46875,-10.8984C2.94401,-10.8984,3.37044,-10.8594,3.74805,-10.7812L3.52344,-9.27734C3.08073,-9.375,2.6901,-9.42383,2.35156,-9.42383C1.48568,-9.42383,0.745117,-9.07227,0.129883,-8.36914C-0.485352,-7.66602,-0.792969,-6.79036,-0.792969,-5.74219L-0.792969,0L-2.41406,0L-2.41406,-10.7031L-1.07617,-10.7031L-0.890625,-8.7207L-0.8125,-8.7207C-0.415365,-9.41732,0.063151,-9.95443,0.623047,-10.332C1.18294,-10.7096,1.79818,-10.8984,2.46875,-10.8984zM10.6406,-10.8984C11.1159,-10.8984,11.5423,-10.8594,11.9199,-10.7812L11.6953,-9.27734C11.2526,-9.375,10.862,-9.42383,10.5234,-9.42383C9.65755,-9.42383,8.91699,-9.07227,8.30176,-8.36914C7.68652,-7.66602,7.37891,-6.79036,7.37891,-5.74219L7.37891,0L5.75781,0L5.75781,-10.7031L7.0957,-10.7031L7.28125,-8.7207L7.35938,-8.7207C7.75651,-9.41732,8.23503,-9.95443,8.79492,-10.332C9.35482,-10.7096,9.97005,-10.8984,10.6406,-10.8984zM12.2305,-10.7031L13.9688,-10.7031L16.3125,-4.59961C16.8268,-3.20638,17.1458,-2.20052,17.2695,-1.58203L17.3477,-1.58203C17.4323,-1.91406,17.6097,-2.4821,17.8799,-3.28613C18.1501,-4.09017,19.0339,-6.5625,20.5312,-10.7031L22.2695,-10.7031L17.6699,1.48438C17.2142,2.6888,16.682,3.54329,16.0732,4.04785C15.4645,4.55241,14.7174,4.80469,13.832,4.80469C13.3372,4.80469,12.849,4.74935,12.3672,4.63867L12.3672,3.33984C12.7253,3.41797,13.1257,3.45703,13.5684,3.45703C14.6816,3.45703,15.4759,2.83203,15.9512,1.58203L16.5469,0.0585938ZM25.707,-2.32422L25.8535,-2.09961C25.6842,-1.44857,25.4401,-0.691732,25.1211,0.170898C24.8021,1.03353,24.4701,1.83594,24.125,2.57812L22.9043,2.57812C23.0801,1.90104,23.2738,1.06445,23.4854,0.0683594C23.6969,-0.927734,23.8451,-1.72526,23.9297,-2.32422Z" fill="#9c9c9c" stroke="none" text-anchor="middle" opacity="0" transform="translate(96,24.6) scale(0,0)" style="animation: a1_t 0.6s linear both, a1_o 0.6s linear both;"/>
    <path fill="#dfdfdf" opacity="0" stroke="none" d="M13.9275,2.14286C13.9275,2.72321,13.7154,3.22545,13.2913,3.64955C12.8672,4.07366,12.365,4.28571,11.7846,4.28571C11.1819,4.28571,10.6797,4.07366,10.2779,3.64955L4.53571,-2.07589C2.53795,-0.691964,0.311384,0,-2.14397,0C-3.73995,0,-5.26618,-0.30971,-6.72266,-0.929129C-8.17913,-1.54855,-9.43471,-2.3856,-10.4894,-3.44029C-11.5441,-4.49498,-12.3811,-5.75056,-13.0006,-7.20703C-13.62,-8.6635,-13.9297,-10.1897,-13.9297,-11.7857C-13.9297,-13.3817,-13.62,-14.9079,-13.0006,-16.3644C-12.3811,-17.8209,-11.5441,-19.0765,-10.4894,-20.1311C-9.43471,-21.1858,-8.17913,-22.0229,-6.72266,-22.6423C-5.26618,-23.2617,-3.73995,-23.5714,-2.14397,-23.5714C-0.547991,-23.5714,0.978237,-23.2617,2.43471,-22.6423C3.89118,-22.0229,5.14676,-21.1858,6.20145,-20.1311C7.25614,-19.0765,8.09319,-17.8209,8.71261,-16.3644C9.33203,-14.9079,9.64174,-13.3817,9.64174,-11.7857C9.64174,-9.33036,8.94978,-7.1038,7.56585,-5.10603L13.308,0.636161C13.721,1.04911,13.9275,1.55134,13.9275,2.14286z" transform="translate(17,37.2344) scale(0,0)" style="animation: a2_t 0.1s linear both, a2_o 0.1s linear both;"/>
    <path fill="#ffffff" opacity="0" stroke="none" d="M5.35603,-11.7857C5.35603,-13.8504,4.62221,-15.6166,3.15458,-17.0843C1.68694,-18.5519,-0.0792411,-19.2857,-2.14397,-19.2857C-4.2087,-19.2857,-5.97489,-18.5519,-7.44252,-17.0843C-8.91016,-15.6166,-9.64397,-13.8504,-9.64397,-11.7857C-9.64397,-9.72098,-8.91016,-7.9548,-7.44252,-6.48717C-5.97489,-5.01953,-4.2087,-4.28571,-2.14397,-4.28571C-0.0792411,-4.28571,1.68694,-5.01953,3.15458,-6.48717C4.62221,-7.9548,5.35603,-9.72098,5.35603,-11.7857z" transform="translate(17,37.2344) scale(0,0)" style="animation: a3_t 0.1s linear both, a3_o 0.1s linear both;"/>
</svg>
